<svg version="1.1" xmlns="http://www.w3.org/2000/svg" width="1366" height="683"><defs><clipPath id="iTggBwSuAZrz"><path fill="none" stroke="none" d="M 58.5 51.5 L 1336.5 51.5 L 1336.5 630.5 L 58.5 630.5 L 58.5 51.5"/></clipPath><clipPath id="tUIugPuuLtXw"><path fill="none" stroke="none" d="M 58.5 51.5 L 1336.5 51.5 L 1336.5 630.5 L 58.5 630.5 L 58.5 51.5"/></clipPath><clipPath id="BMBSdTITzXkQ"><path fill="none" stroke="none" d="M 58.5 51.5 L 1336.5 51.5 L 1336.5 630.5 L 58.5 630.5 L 58.5 51.5"/></clipPath><clipPath id="NHJhPXlFOPHh"><path fill="none" stroke="none" d="M 58.5 51.5 L 1336.5 51.5 L 1336.5 630.5 L 58.5 630.5 L 58.5 51.5"/></clipPath><clipPath id="wMcFwISInlXu"><path fill="none" stroke="none" d="M 58.5 51.5 L 1336.5 51.5 L 1336.5 630.5 L 58.5 630.5 L 58.5 51.5"/></clipPath><clipPath id="gfngepOHVguw"><path fill="none" stroke="none" d="M 58.5 51.5 L 1336.5 51.5 L 1336.5 630.5 L 58.5 630.5 L 58.5 51.5"/></clipPath><clipPath id="rahHZAgvEAQo"><path fill="none" stroke="none" d="M 58.5 51.5 L 1336.5 51.5 L 1336.5 630.5 L 58.5 630.5 L 58.5 51.5"/></clipPath><clipPath id="rEzetRJDcicJ"><path fill="none" stroke="none" d="M 58.5 51.5 L 1336.5 51.5 L 1336.5 630.5 L 58.5 630.5 L 58.5 51.5"/></clipPath><clipPath id="BRUUXlXgtJwq"><path fill="none" stroke="none" d="M 58.5 51.5 L 1336.5 51.5 L 1336.5 630.5 L 58.5 630.5 L 58.5 51.5"/></clipPath><clipPath id="VamFQWZEbJDf"><path fill="none" stroke="none" d="M 58.5 51.5 L 1336.5 51.5 L 1336.5 630.5 L 58.5 630.5 L 58.5 51.5"/></clipPath><clipPath id="CyKTlLZXWbnB"><path fill="none" stroke="none" d="M 58.5 51.5 L 1336.5 51.5 L 1336.5 630.5 L 58.5 630.5 L 58.5 51.5"/></clipPath><clipPath id="ygyGSmunnJZN"><path fill="none" stroke="none" d="M 58.5 51.5 L 1336.5 51.5 L 1336.5 630.5 L 58.5 630.5 L 58.5 51.5"/></clipPath><clipPath id="tVHsuPuetxAl"><path fill="none" stroke="none" d="M 58.5 51.5 L 1336.5 51.5 L 1336.5 630.5 L 58.5 630.5 L 58.5 51.5"/></clipPath><clipPath id="nvTxOILLkZAC"><path fill="none" stroke="none" d="M 58.5 51.5 L 1336.5 51.5 L 1336.5 630.5 L 58.5 630.5 L 58.5 51.5"/></clipPath><clipPath id="iVLRFZtMKTJZ"><path fill="none" stroke="none" d="M 58.5 51.5 L 1336.5 51.5 L 1336.5 630.5 L 58.5 630.5 L 58.5 51.5"/></clipPath><clipPath id="torGspBCZFZz"><path fill="none" stroke="none" d="M 58.5 51.5 L 1336.5 51.5 L 1336.5 630.5 L 58.5 630.5 L 58.5 51.5"/></clipPath><clipPath id="eGyuDLSwcoMW"><path fill="none" stroke="none" d="M 58.5 51.5 L 1336.5 51.5 L 1336.5 630.5 L 58.5 630.5 L 58.5 51.5"/></clipPath><clipPath id="ppDXDsmToRfs"><path fill="none" stroke="none" d="M 58.5 51.5 L 1336.5 51.5 L 1336.5 630.5 L 58.5 630.5 L 58.5 51.5"/></clipPath><clipPath id="gDGdLINxVZAK"><path fill="none" stroke="none" d="M 58.5 51.5 L 1336.5 51.5 L 1336.5 630.5 L 58.5 630.5 L 58.5 51.5"/></clipPath><clipPath id="CfWTtTgnHGKP"><path fill="none" stroke="none" d="M 58.5 51.5 L 1336.5 51.5 L 1336.5 630.5 L 58.5 630.5 L 58.5 51.5"/></clipPath><clipPath id="lGsNZdmgdDIZ"><path fill="none" stroke="none" d="M 58.5 51.5 L 1336.5 51.5 L 1336.5 630.5 L 58.5 630.5 L 58.5 51.5"/></clipPath></defs><path fill="rgb(255,255,255)" stroke="none" paint-order="stroke" d="M 0.5 0.5 L 1366.5 0.5 L 1366.5 683.5 L 0.5 683.5 L 0.5 0.5" fill-opacity="1"/><rect fill="#FFFFFF" stroke="none" x="58" y="51" width="1278" height="579" transform="matrix(1, 0, 0, 1, 0.5, 0.5)"/><path fill="rgb(255,255,255)" stroke="none" paint-order="stroke" d="M 58.5 51.5 L 1336.5 51.5 L 1336.5 630.5 L 58.5 630.5 L 58.5 51.5" fill-opacity="1"/><path fill="none" stroke="rgb(229,229,229)" paint-order="fill" d="M 58.5 51.5 L 1336.5 51.5 L 1336.5 630.5 L 58.5 630.5 L 58.5 51.5" stroke-opacity="1" stroke-linejoin="bevel" stroke-miterlimit="10" stroke-dasharray=""/><path fill="none" stroke="rgb(229,229,229)" paint-order="fill" d="M 314.5 630.5 L 314.5 51.5 M 569.5 630.5 L 569.5 51.5 M 825.5 630.5 L 825.5 51.5 M 1080.5 630.5 L 1080.5 51.5" stroke-opacity="1" stroke-linejoin="bevel" stroke-miterlimit="10" stroke-dasharray="" clip-path="url(#iTggBwSuAZrz)"/><path fill="none" stroke="rgb(229,229,229)" paint-order="fill" d="M 58.5 551.5 L 1336.5 551.5 M 58.5 446.5 L 1336.5 446.5 M 58.5 341.5 L 1336.5 341.5 M 58.5 235.5 L 1336.5 235.5 M 58.5 130.5 L 1336.5 130.5" stroke-opacity="1" stroke-linejoin="bevel" stroke-miterlimit="10" stroke-dasharray="" clip-path="url(#tUIugPuuLtXw)"/><path fill="rgb(0,255,40)" stroke="none" paint-order="stroke" d="M 58.5 77.81818389892578 L 121.21273803710938 77.81818389892578 L 121.21273803710938 130.45454788208008 L 58.5 130.45454788208008 L 58.5 77.81818389892578" fill-opacity="1" clip-path="url(#BMBSdTITzXkQ)"/><path fill="rgb(0,255,0)" stroke="none" paint-order="stroke" d="M 121.21273803710938 77.81818389892578 L 121.5105120241642 77.81818389892578 L 121.5105120241642 130.45454788208008 L 121.21273803710938 130.45454788208008 L 121.21273803710938 77.81818389892578" fill-opacity="1" clip-path="url(#BMBSdTITzXkQ)"/><path fill="rgb(20,255,0)" stroke="none" paint-order="stroke" d="M 121.51051330566406 77.81818389892578 L 121.61658730357885 77.81818389892578 L 121.61658730357885 130.45454788208008 L 121.51051330566406 130.45454788208008 L 121.51051330566406 77.81818389892578" fill-opacity="1" clip-path="url(#BMBSdTITzXkQ)"/><path fill="rgb(35,255,0)" stroke="none" paint-order="stroke" d="M 121.61658477783203 77.81818389892578 L 121.66003677621484 77.81818389892578 L 121.66003677621484 130.45454788208008 L 121.61658477783203 130.45454788208008 L 121.61658477783203 77.81818389892578" fill-opacity="1" clip-path="url(#BMBSdTITzXkQ)"/><path fill="rgb(49,255,0)" stroke="none" paint-order="stroke" d="M 121.66004180908203 77.81818389892578 L 121.74438980966806 77.81818389892578 L 121.74438980966806 130.45454788208008 L 121.66004180908203 130.45454788208008 L 121.66004180908203 77.81818389892578" fill-opacity="1" clip-path="url(#BMBSdTITzXkQ)"/><path fill="rgb(62,255,0)" stroke="none" paint-order="stroke" d="M 121.744384765625 77.81818389892578 L 122.67860275506973 77.81818389892578 L 122.67860275506973 130.45454788208008 L 121.744384765625 130.45454788208008 L 121.744384765625 77.81818389892578" fill-opacity="1" clip-path="url(#BMBSdTITzXkQ)"/><path fill="rgb(20,255,0)" stroke="none" paint-order="stroke" d="M 122.67860412597656 77.81818389892578 L 122.70033012516797 77.81818389892578 L 122.70033012516797 130.45454788208008 L 122.67860412597656 130.45454788208008 L 122.67860412597656 77.81818389892578" fill-opacity="1" clip-path="url(#BMBSdTITzXkQ)"/><path fill="rgb(0,255,0)" stroke="none" paint-order="stroke" d="M 122.70033264160156 77.81818389892578 L 122.72205864079297 77.81818389892578 L 122.72205864079297 130.45454788208008 L 122.70033264160156 130.45454788208008 L 122.70033264160156 77.81818389892578" fill-opacity="1" clip-path="url(#BMBSdTITzXkQ)"/><path fill="rgb(0,255,40)" stroke="none" paint-order="stroke" d="M 122.72205352783203 77.81818389892578 L 122.76422752812505 77.81818389892578 L 122.76422752812505 130.45454788208008 L 122.72205352783203 130.45454788208008 L 122.72205352783203 77.81818389892578" fill-opacity="1" clip-path="url(#BMBSdTITzXkQ)"/><path fill="rgb(0,255,84)" stroke="none" paint-order="stroke" d="M 122.76422882080078 77.81818389892578 L 123.61409884691238 77.81818389892578 L 123.61409884691238 130.45454788208008 L 122.76422882080078 130.45454788208008 L 122.76422882080078 77.81818389892578" fill-opacity="1" clip-path="url(#BMBSdTITzXkQ)"/><path fill="rgb(0,255,40)" stroke="none" paint-order="stroke" d="M 123.61409759521484 77.81818389892578 L 123.63454559445381 77.81818389892578 L 123.63454559445381 130.45454788208008 L 123.61409759521484 130.45454788208008 L 123.61409759521484 77.81818389892578" fill-opacity="1" clip-path="url(#BMBSdTITzXkQ)"/><path fill="rgb(0,255,0)" stroke="none" paint-order="stroke" d="M 123.6345443725586 77.81818389892578 L 123.69844437390566 77.81818389892578 L 123.69844437390566 130.45454788208008 L 123.6345443725586 130.45454788208008 L 123.6345443725586 77.81818389892578" fill-opacity="1" clip-path="url(#BMBSdTITzXkQ)"/><path fill="rgb(20,255,0)" stroke="none" paint-order="stroke" d="M 123.69844818115234 77.81818389892578 L 123.78407417982817 77.81818389892578 L 123.78407417982817 130.45454788208008 L 123.69844818115234 130.45454788208008 L 123.69844818115234 77.81818389892578" fill-opacity="1" clip-path="url(#BMBSdTITzXkQ)"/><path fill="rgb(35,255,0)" stroke="none" paint-order="stroke" d="M 123.78407287597656 77.81818389892578 L 124.33744686841965 77.81818389892578 L 124.33744686841965 130.45454788208008 L 123.78407287597656 130.45454788208008 L 123.78407287597656 77.81818389892578" fill-opacity="1" clip-path="url(#BMBSdTITzXkQ)"/><path fill="rgb(49,255,0)" stroke="none" paint-order="stroke" d="M 124.33744812011719 77.81818389892578 L 124.44224411994219 77.81818389892578 L 124.44224411994219 130.45454788208008 L 124.33744812011719 130.45454788208008 L 124.33744812011719 77.81818389892578" fill-opacity="1" clip-path="url(#BMBSdTITzXkQ)"/><path fill="rgb(62,255,0)" stroke="none" paint-order="stroke" d="M 124.44224548339844 77.81818389892578 L 124.80264148116112 77.81818389892578 L 124.80264148116112 130.45454788208008 L 124.44224548339844 130.45454788208008 L 124.44224548339844 77.81818389892578" fill-opacity="1" clip-path="url(#BMBSdTITzXkQ)"/><path fill="rgb(74,255,0)" stroke="none" paint-order="stroke" d="M 124.80264282226562 77.81818389892578 L 125.31256484985352 77.81818389892578 L 125.31256484985352 130.45454788208008 L 124.80264282226562 130.45454788208008 L 124.80264282226562 77.81818389892578" fill-opacity="1" clip-path="url(#BMBSdTITzXkQ)"/><path fill="rgb(82,255,0)" stroke="none" paint-order="stroke" d="M 125.31256103515625 77.81818389892578 L 125.50426103174686 77.81818389892578 L 125.50426103174686 130.45454788208008 L 125.31256103515625 130.45454788208008 L 125.31256103515625 77.81818389892578" fill-opacity="1" clip-path="url(#BMBSdTITzXkQ)"/><path fill="rgb(74,255,0)" stroke="none" paint-order="stroke" d="M 125.50426483154297 77.81818389892578 L 125.52599083073437 77.81818389892578 L 125.52599083073437 130.45454788208008 L 125.50426483154297 130.45454788208008 L 125.50426483154297 77.81818389892578" fill-opacity="1" clip-path="url(#BMBSdTITzXkQ)"/><path fill="rgb(62,255,0)" stroke="none" paint-order="stroke" d="M 125.52598571777344 77.81818389892578 L 125.61033371835947 77.81818389892578 L 125.61033371835947 130.45454788208008 L 125.52598571777344 130.45454788208008 L 125.52598571777344 77.81818389892578" fill-opacity="1" clip-path="url(#BMBSdTITzXkQ)"/><path fill="rgb(49,255,0)" stroke="none" paint-order="stroke" d="M 125.61033630371094 77.81818389892578 L 127.94779825210571 77.81818389892578 L 127.94779825210571 130.45454788208008 L 125.61033630371094 130.45454788208008 L 125.61033630371094 77.81818389892578" fill-opacity="1" clip-path="url(#BMBSdTITzXkQ)"/><path fill="rgb(62,255,0)" stroke="none" paint-order="stroke" d="M 127.94779968261719 77.81818389892578 L 128.11649568378925 77.81818389892578 L 128.11649568378925 130.45454788208008 L 127.94779968261719 130.45454788208008 L 127.94779968261719 77.81818389892578" fill-opacity="1" clip-path="url(#BMBSdTITzXkQ)"/><path fill="rgb(74,255,0)" stroke="none" paint-order="stroke" d="M 128.11649322509766 77.81818389892578 L 128.69031524658203 77.81818389892578 L 128.69031524658203 130.45454788208008 L 128.11649322509766 130.45454788208008 L 128.11649322509766 77.81818389892578" fill-opacity="1" clip-path="url(#BMBSdTITzXkQ)"/><path fill="rgb(62,255,0)" stroke="none" paint-order="stroke" d="M 128.69032287597656 77.81818389892578 L 132.9818468093872 77.81818389892578 L 132.9818468093872 130.45454788208008 L 128.69032287597656 130.45454788208008 L 128.69032287597656 77.81818389892578" fill-opacity="1" clip-path="url(#BMBSdTITzXkQ)"/><path fill="rgb(49,255,0)" stroke="none" paint-order="stroke" d="M 132.98184204101562 77.81818389892578 L 134.80810403823853 77.81818389892578 L 134.80810403823853 130.45454788208008 L 132.98184204101562 130.45454788208008 L 132.98184204101562 77.81818389892578" fill-opacity="1" clip-path="url(#BMBSdTITzXkQ)"/><path fill="rgb(62,255,0)" stroke="none" paint-order="stroke" d="M 134.80810546875 77.81818389892578 L 139.45491361618042 77.81818389892578 L 139.45491361618042 130.45454788208008 L 134.80810546875 130.45454788208008 L 134.80810546875 77.81818389892578" fill-opacity="1" clip-path="url(#BMBSdTITzXkQ)"/><path fill="rgb(0,255,40)" stroke="none" paint-order="stroke" d="M 139.4549102783203 77.81818389892578 L 142.68952822685242 77.81818389892578 L 142.68952822685242 130.45454788208008 L 139.4549102783203 130.45454788208008 L 139.4549102783203 77.81818389892578" fill-opacity="1" clip-path="url(#BMBSdTITzXkQ)"/><path fill="rgb(0,255,0)" stroke="none" paint-order="stroke" d="M 142.6895294189453 77.81818389892578 L 142.71125541813672 77.81818389892578 L 142.71125541813672 130.45454788208008 L 142.6895294189453 130.45454788208008 L 142.6895294189453 77.81818389892578" fill-opacity="1" clip-path="url(#BMBSdTITzXkQ)"/><path fill="rgb(20,255,0)" stroke="none" paint-order="stroke" d="M 142.7112579345703 77.81818389892578 L 142.83777993917465 77.81818389892578 L 142.83777993917465 130.45454788208008 L 142.7112579345703 130.45454788208008 L 142.7112579345703 77.81818389892578" fill-opacity="1" clip-path="url(#BMBSdTITzXkQ)"/><path fill="rgb(35,255,0)" stroke="none" paint-order="stroke" d="M 142.8377685546875 77.81818389892578 L 142.94512055814266 77.81818389892578 L 142.94512055814266 130.45454788208008 L 142.8377685546875 130.45454788208008 L 142.8377685546875 77.81818389892578" fill-opacity="1" clip-path="url(#BMBSdTITzXkQ)"/><path fill="rgb(49,255,0)" stroke="none" paint-order="stroke" d="M 142.94512939453125 77.81818389892578 L 205.35753631591797 77.81818389892578 L 205.35753631591797 130.45454788208008 L 142.94512939453125 130.45454788208008 L 142.94512939453125 77.81818389892578" fill-opacity="1" clip-path="url(#BMBSdTITzXkQ)"/><path fill="rgb(159,255,0)" stroke="none" paint-order="stroke" d="M 205.35752868652344 77.81818389892578 L 208.5371925830841 77.81818389892578 L 208.5371925830841 130.45454788208008 L 205.35752868652344 130.45454788208008 L 205.35752868652344 77.81818389892578" fill-opacity="1" clip-path="url(#BMBSdTITzXkQ)"/><path fill="rgb(110,0,132)" stroke="none" paint-order="stroke" d="M 208.53720092773438 77.81818389892578 L 210.28550493717194 77.81818389892578 L 210.28550493717194 130.45454788208008 L 208.53720092773438 130.45454788208008 L 208.53720092773438 77.81818389892578" fill-opacity="1" clip-path="url(#BMBSdTITzXkQ)"/><path fill="rgb(42,0,238)" stroke="none" paint-order="stroke" d="M 210.28550720214844 77.81818389892578 L 211.86128115653992 77.81818389892578 L 211.86128115653992 130.45454788208008 L 210.28550720214844 130.45454788208008 L 210.28550720214844 77.81818389892578" fill-opacity="1" clip-path="url(#BMBSdTITzXkQ)"/><path fill="rgb(0,0,0)" stroke="none" paint-order="stroke" d="M 211.8612823486328 77.81818389892578 L 215.04094624519348 77.81818389892578 L 215.04094624519348 130.45454788208008 L 211.8612823486328 130.45454788208008 L 211.8612823486328 77.81818389892578" fill-opacity="1" clip-path="url(#BMBSdTITzXkQ)"/><path fill="rgb(143,255,0)" stroke="none" paint-order="stroke" d="M 215.0409393310547 77.81818389892578 L 247.22608947753906 77.81818389892578 L 247.22608947753906 130.45454788208008 L 215.0409393310547 130.45454788208008 L 215.0409393310547 77.81818389892578" fill-opacity="1" clip-path="url(#BMBSdTITzXkQ)"/><path fill="rgb(159,255,0)" stroke="none" paint-order="stroke" d="M 247.22608947753906 77.81818389892578 L 250.3853054046631 77.81818389892578 L 250.3853054046631 130.45454788208008 L 247.22608947753906 130.45454788208008 L 247.22608947753906 77.81818389892578" fill-opacity="1" clip-path="url(#BMBSdTITzXkQ)"/><path fill="rgb(110,0,132)" stroke="none" paint-order="stroke" d="M 250.38531494140625 77.81818389892578 L 252.53235483169556 77.81818389892578 L 252.53235483169556 130.45454788208008 L 250.38531494140625 130.45454788208008 L 250.38531494140625 77.81818389892578" fill-opacity="1" clip-path="url(#BMBSdTITzXkQ)"/><path fill="rgb(159,255,0)" stroke="none" paint-order="stroke" d="M 252.5323486328125 77.81818389892578 L 255.18036460876465 77.81818389892578 L 255.18036460876465 130.45454788208008 L 252.5323486328125 130.45454788208008 L 252.5323486328125 77.81818389892578" fill-opacity="1" clip-path="url(#BMBSdTITzXkQ)"/><path fill="rgb(0,255,40)" stroke="none" paint-order="stroke" d="M 255.18035888671875 77.81818389892578 L 257.27627897262573 77.81818389892578 L 257.27627897262573 130.45454788208008 L 255.18035888671875 130.45454788208008 L 255.18035888671875 77.81818389892578" fill-opacity="1" clip-path="url(#BMBSdTITzXkQ)"/><path fill="rgb(143,255,0)" stroke="none" paint-order="stroke" d="M 257.2762756347656 77.81818389892578 L 574.8324279785156 77.81818389892578 L 574.8324279785156 130.45454788208008 L 257.2762756347656 130.45454788208008 L 257.2762756347656 77.81818389892578" fill-opacity="1" clip-path="url(#BMBSdTITzXkQ)"/><path fill="rgb(251,0,7)" stroke="none" paint-order="stroke" d="M 58.5 130.4545440673828 L 205.35752868652344 130.4545440673828 L 205.35752868652344 183.0909080505371 L 58.5 183.0909080505371 L 58.5 130.4545440673828" fill-opacity="1" clip-path="url(#NHJhPXlFOPHh)"/><path fill="rgb(251,0,7)" stroke="none" paint-order="stroke" d="M 205.35752868652344 130.4545440673828 L 208.5371925830841 130.4545440673828 L 208.5371925830841 183.0909080505371 L 205.35752868652344 183.0909080505371 L 205.35752868652344 130.4545440673828" fill-opacity="1" clip-path="url(#NHJhPXlFOPHh)"/><path fill="rgb(252,105,8)" stroke="none" paint-order="stroke" d="M 208.53720092773438 130.4545440673828 L 210.28550493717194 130.4545440673828 L 210.28550493717194 183.0909080505371 L 208.53720092773438 183.0909080505371 L 208.53720092773438 130.4545440673828" fill-opacity="1" clip-path="url(#NHJhPXlFOPHh)"/><path fill="rgb(56,126,34)" stroke="none" paint-order="stroke" d="M 210.28550720214844 130.4545440673828 L 211.86128115653992 130.4545440673828 L 211.86128115653992 183.0909080505371 L 210.28550720214844 183.0909080505371 L 210.28550720214844 130.4545440673828" fill-opacity="1" clip-path="url(#NHJhPXlFOPHh)"/><path fill="rgb(27,121,255)" stroke="none" paint-order="stroke" d="M 211.8612823486328 130.4545440673828 L 215.04094624519348 130.4545440673828 L 215.04094624519348 183.0909080505371 L 211.8612823486328 183.0909080505371 L 211.8612823486328 130.4545440673828" fill-opacity="1" clip-path="url(#NHJhPXlFOPHh)"/><path fill="rgb(62,0,101)" stroke="none" paint-order="stroke" d="M 215.0409393310547 130.4545440673828 L 247.22608947753906 130.4545440673828 L 247.22608947753906 183.0909080505371 L 215.0409393310547 183.0909080505371 L 215.0409393310547 130.4545440673828" fill-opacity="1" clip-path="url(#NHJhPXlFOPHh)"/><path fill="rgb(237,115,111)" stroke="none" paint-order="stroke" d="M 247.22608947753906 130.4545440673828 L 250.3853054046631 130.4545440673828 L 250.3853054046631 183.0909080505371 L 247.22608947753906 183.0909080505371 L 247.22608947753906 130.4545440673828" fill-opacity="1" clip-path="url(#NHJhPXlFOPHh)"/><path fill="rgb(252,105,8)" stroke="none" paint-order="stroke" d="M 250.38531494140625 130.4545440673828 L 252.53235483169556 130.4545440673828 L 252.53235483169556 183.0909080505371 L 250.38531494140625 183.0909080505371 L 250.38531494140625 130.4545440673828" fill-opacity="1" clip-path="url(#NHJhPXlFOPHh)"/><path fill="rgb(251,0,7)" stroke="none" paint-order="stroke" d="M 252.5323486328125 130.4545440673828 L 255.18036460876465 130.4545440673828 L 255.18036460876465 183.0909080505371 L 252.5323486328125 183.0909080505371 L 252.5323486328125 130.4545440673828" fill-opacity="1" clip-path="url(#NHJhPXlFOPHh)"/><path fill="rgb(251,0,7)" stroke="none" paint-order="stroke" d="M 255.18035888671875 130.4545440673828 L 257.27627897262573 130.4545440673828 L 257.27627897262573 183.0909080505371 L 255.18035888671875 183.0909080505371 L 255.18035888671875 130.4545440673828" fill-opacity="1" clip-path="url(#NHJhPXlFOPHh)"/><path fill="rgb(62,0,101)" stroke="none" paint-order="stroke" d="M 257.2762756347656 130.4545440673828 L 574.8324279785156 130.4545440673828 L 574.8324279785156 183.0909080505371 L 257.2762756347656 183.0909080505371 L 257.2762756347656 130.4545440673828" fill-opacity="1" clip-path="url(#NHJhPXlFOPHh)"/><path fill="rgb(105,29,48)" stroke="none" paint-order="stroke" d="M 276.7900695800781 183.09091186523438 L 276.8539695814252 183.09091186523438 L 276.8539695814252 498.9090881347656 L 276.7900695800781 498.9090881347656 L 276.7900695800781 183.09091186523438" fill-opacity="1" clip-path="url(#wMcFwISInlXu)"/><path fill="rgb(255,188,66)" stroke="none" paint-order="stroke" d="M 161.64993286132812 183.09091186523438 L 164.37974095344543 183.09091186523438 L 164.37974095344543 498.9090881347656 L 161.64993286132812 498.9090881347656 L 161.64993286132812 183.09091186523438" fill-opacity="1" clip-path="url(#gfngepOHVguw)"/><path fill="rgb(255,188,66)" stroke="none" paint-order="stroke" d="M 333.72625732421875 183.09091186523438 L 337.1870813369751 183.09091186523438 L 337.1870813369751 498.9090881347656 L 333.72625732421875 498.9090881347656 L 333.72625732421875 183.09091186523438" fill-opacity="1" clip-path="url(#gfngepOHVguw)"/><path fill="rgb(255,188,66)" stroke="none" paint-order="stroke" d="M 272.8525390625 183.09091186523438 L 274.6161791086197 183.09091186523438 L 274.6161791086197 498.9090881347656 L 272.8525390625 498.9090881347656 L 272.8525390625 183.09091186523438" fill-opacity="1" clip-path="url(#BRUUXlXgtJwq)"/><path fill="rgb(255,188,66)" stroke="none" paint-order="stroke" d="M 275.3063049316406 183.09091186523438 L 275.72037693858147 183.09091186523438 L 275.72037693858147 498.9090881347656 L 275.3063049316406 498.9090881347656 L 275.3063049316406 183.09091186523438" fill-opacity="1" clip-path="url(#BRUUXlXgtJwq)"/><path fill="rgb(255,188,66)" stroke="none" paint-order="stroke" d="M 278.2290954589844 183.09091186523438 L 283.1123332977295 183.09091186523438 L 283.1123332977295 498.9090881347656 L 278.2290954589844 498.9090881347656 L 278.2290954589844 183.09091186523438" fill-opacity="1" clip-path="url(#BRUUXlXgtJwq)"/><path fill="rgb(216,17,89)" stroke="none" paint-order="stroke" d="M 119.86572265625 183.09091186523438 L 119.92962265759706 183.09091186523438 L 119.92962265759706 498.9090881347656 L 119.86572265625 498.9090881347656 L 119.86572265625 183.09091186523438" fill-opacity="1" clip-path="url(#VamFQWZEbJDf)"/><path fill="rgb(216,17,89)" stroke="none" paint-order="stroke" d="M 119.86572265625 183.09091186523438 L 119.92962265759706 183.09091186523438 L 119.92962265759706 498.9090881347656 L 119.86572265625 498.9090881347656 L 119.86572265625 183.09091186523438" fill-opacity="1" clip-path="url(#VamFQWZEbJDf)"/><path fill="rgb(216,17,89)" stroke="none" paint-order="stroke" d="M 139.4549102783203 183.09091186523438 L 139.51881027966738 183.09091186523438 L 139.51881027966738 498.9090881347656 L 139.4549102783203 498.9090881347656 L 139.4549102783203 183.09091186523438" fill-opacity="1" clip-path="url(#VamFQWZEbJDf)"/><path fill="rgb(216,17,89)" stroke="none" paint-order="stroke" d="M 140.55909729003906 183.09091186523438 L 140.62299729138613 183.09091186523438 L 140.62299729138613 498.9090881347656 L 140.55909729003906 498.9090881347656 L 140.55909729003906 183.09091186523438" fill-opacity="1" clip-path="url(#VamFQWZEbJDf)"/><path fill="rgb(33,131,128)" stroke="none" paint-order="stroke" d="M 203.58367919921875 183.09091186523438 L 205.35754323005676 183.09091186523438 L 205.35754323005676 498.9090881347656 L 203.58367919921875 498.9090881347656 L 203.58367919921875 183.09091186523438" fill-opacity="1" clip-path="url(#CyKTlLZXWbnB)"/><path fill="rgb(33,131,128)" stroke="none" paint-order="stroke" d="M 207.74612426757812 183.09091186523438 L 208.5372062921524 183.09091186523438 L 208.5372062921524 498.9090881347656 L 207.74612426757812 498.9090881347656 L 207.74612426757812 183.09091186523438" fill-opacity="1" clip-path="url(#CyKTlLZXWbnB)"/><path fill="rgb(33,131,128)" stroke="none" paint-order="stroke" d="M 209.6068878173828 183.09091186523438 L 210.2855058312416 183.09091186523438 L 210.2855058312416 498.9090881347656 L 209.6068878173828 498.9090881347656 L 209.6068878173828 183.09091186523438" fill-opacity="1" clip-path="url(#CyKTlLZXWbnB)"/><path fill="rgb(33,131,128)" stroke="none" paint-order="stroke" d="M 211.15965270996094 183.09091186523438 L 211.86127471923828 183.09091186523438 L 211.86127471923828 498.9090881347656 L 211.15965270996094 498.9090881347656 L 211.15965270996094 183.09091186523438" fill-opacity="1" clip-path="url(#CyKTlLZXWbnB)"/><path fill="rgb(33,131,128)" stroke="none" paint-order="stroke" d="M 212.71498107910156 183.09091186523438 L 213.36292707920074 183.09091186523438 L 213.36292707920074 498.9090881347656 L 212.71498107910156 498.9090881347656 L 212.71498107910156 183.09091186523438" fill-opacity="1" clip-path="url(#CyKTlLZXWbnB)"/><path fill="rgb(33,131,128)" stroke="none" paint-order="stroke" d="M 214.22813415527344 183.09091186523438 L 215.040942132473 183.09091186523438 L 215.040942132473 498.9090881347656 L 214.22813415527344 498.9090881347656 L 214.22813415527344 183.09091186523438" fill-opacity="1" clip-path="url(#CyKTlLZXWbnB)"/><path fill="rgb(33,131,128)" stroke="none" paint-order="stroke" d="M 245.5238037109375 183.09091186523438 L 247.22609972953796 183.09091186523438 L 247.22609972953796 498.9090881347656 L 245.5238037109375 498.9090881347656 L 245.5238037109375 183.09091186523438" fill-opacity="1" clip-path="url(#CyKTlLZXWbnB)"/><path fill="rgb(33,131,128)" stroke="none" paint-order="stroke" d="M 249.08047485351562 183.09091186523438 L 250.38531279563904 183.09091186523438 L 250.38531279563904 498.9090881347656 L 249.08047485351562 498.9090881347656 L 249.08047485351562 183.09091186523438" fill-opacity="1" clip-path="url(#CyKTlLZXWbnB)"/><path fill="rgb(33,131,128)" stroke="none" paint-order="stroke" d="M 251.3706512451172 183.09091186523438 L 252.5323532819748 183.09091186523438 L 252.5323532819748 498.9090881347656 L 251.3706512451172 498.9090881347656 L 251.3706512451172 183.09091186523438" fill-opacity="1" clip-path="url(#CyKTlLZXWbnB)"/><path fill="rgb(33,131,128)" stroke="none" paint-order="stroke" d="M 253.92408752441406 183.09091186523438 L 255.18036150932312 183.09091186523438 L 255.18036150932312 498.9090881347656 L 253.92408752441406 498.9090881347656 L 253.92408752441406 183.09091186523438" fill-opacity="1" clip-path="url(#CyKTlLZXWbnB)"/><path fill="rgb(33,131,128)" stroke="none" paint-order="stroke" d="M 256.3203430175781 183.09091186523438 L 257.2762870192528 183.09091186523438 L 257.2762870192528 498.9090881347656 L 256.3203430175781 498.9090881347656 L 256.3203430175781 183.09091186523438" fill-opacity="1" clip-path="url(#CyKTlLZXWbnB)"/><path fill="rgb(115,210,222)" stroke="none" paint-order="stroke" d="M 196.173828125 183.09091186523438 L 201.15675020217896 183.09091186523438 L 201.15675020217896 498.9090881347656 L 196.173828125 498.9090881347656 L 196.173828125 183.09091186523438" fill-opacity="1" clip-path="url(#ygyGSmunnJZN)"/><path fill="rgb(115,210,222)" stroke="none" paint-order="stroke" d="M 206.939697265625 183.09091186523438 L 207.30137127637863 183.09091186523438 L 207.30137127637863 498.9090881347656 L 206.939697265625 498.9090881347656 L 206.939697265625 183.09091186523438" fill-opacity="1" clip-path="url(#ygyGSmunnJZN)"/><path fill="rgb(115,210,222)" stroke="none" paint-order="stroke" d="M 258.3651428222656 183.09091186523438 L 267.3264789581299 183.09091186523438 L 267.3264789581299 498.9090881347656 L 258.3651428222656 498.9090881347656 L 258.3651428222656 183.09091186523438" fill-opacity="1" clip-path="url(#ygyGSmunnJZN)"/><path fill="rgb(115,210,222)" stroke="none" paint-order="stroke" d="M 435.04608154296875 183.09091186523438 L 446.68482780456543 183.09091186523438 L 446.68482780456543 498.9090881347656 L 435.04608154296875 498.9090881347656 L 435.04608154296875 183.09091186523438" fill-opacity="1" clip-path="url(#ygyGSmunnJZN)"/><path fill="rgb(115,210,222)" stroke="none" paint-order="stroke" d="M 504.3711853027344 183.09091186523438 L 519.3378429412842 183.09091186523438 L 519.3378429412842 498.9090881347656 L 504.3711853027344 498.9090881347656 L 504.3711853027344 183.09091186523438" fill-opacity="1" clip-path="url(#ygyGSmunnJZN)"/><path fill="rgb(115,210,222)" stroke="none" paint-order="stroke" d="M 533.5338745117188 183.09091186523438 L 536.7902185916901 183.09091186523438 L 536.7902185916901 498.9090881347656 L 533.5338745117188 498.9090881347656 L 533.5338745117188 183.09091186523438" fill-opacity="1" clip-path="url(#ygyGSmunnJZN)"/><path fill="rgb(28,49,68)" stroke="none" paint-order="stroke" d="M 184.89547729492188 183.09091186523438 L 187.74286127090454 183.09091186523438 L 187.74286127090454 498.9090881347656 L 184.89547729492188 498.9090881347656 L 184.89547729492188 183.09091186523438" fill-opacity="1" clip-path="url(#tVHsuPuetxAl)"/><path fill="rgb(28,49,68)" stroke="none" paint-order="stroke" d="M 189.3326873779297 183.09091186523438 L 194.09195947647095 183.09091186523438 L 194.09195947647095 498.9090881347656 L 189.3326873779297 498.9090881347656 L 189.3326873779297 183.09091186523438" fill-opacity="1" clip-path="url(#tVHsuPuetxAl)"/><path fill="rgb(28,49,68)" stroke="none" paint-order="stroke" d="M 270.1304016113281 183.09091186523438 L 271.332999587059 183.09091186523438 L 271.332999587059 498.9090881347656 L 270.1304016113281 498.9090881347656 L 270.1304016113281 183.09091186523438" fill-opacity="1" clip-path="url(#tVHsuPuetxAl)"/><path fill="rgb(28,49,68)" stroke="none" paint-order="stroke" d="M 338.0509948730469 183.09091186523438 L 342.3092908859253 183.09091186523438 L 342.3092908859253 498.9090881347656 L 338.0509948730469 498.9090881347656 L 338.0509948730469 183.09091186523438" fill-opacity="1" clip-path="url(#tVHsuPuetxAl)"/><path fill="rgb(28,49,68)" stroke="none" paint-order="stroke" d="M 418.21356201171875 183.09091186523438 L 424.6725740432739 183.09091186523438 L 424.6725740432739 498.9090881347656 L 418.21356201171875 498.9090881347656 L 418.21356201171875 183.09091186523438" fill-opacity="1" clip-path="url(#tVHsuPuetxAl)"/><path fill="rgb(28,49,68)" stroke="none" paint-order="stroke" d="M 498.7275390625 183.09091186523438 L 500.59597504138947 183.09091186523438 L 500.59597504138947 498.9090881347656 L 498.7275390625 498.9090881347656 L 498.7275390625 183.09091186523438" fill-opacity="1" clip-path="url(#tVHsuPuetxAl)"/><path fill="rgb(28,49,68)" stroke="none" paint-order="stroke" d="M 527.0211791992188 183.09091186523438 L 530.4717791080475 183.09091186523438 L 530.4717791080475 498.9090881347656 L 527.0211791992188 498.9090881347656 L 527.0211791992188 183.09091186523438" fill-opacity="1" clip-path="url(#tVHsuPuetxAl)"/><path fill="rgb(239,185,203)" stroke="none" paint-order="stroke" d="M 62.827308654785156 183.09091186523438 L 100.5116958618164 183.09091186523438 L 100.5116958618164 498.9090881347656 L 62.827308654785156 498.9090881347656 L 62.827308654785156 183.09091186523438" fill-opacity="1" clip-path="url(#nvTxOILLkZAC)"/><path fill="rgb(239,185,203)" stroke="none" paint-order="stroke" d="M 103.44598388671875 183.09091186523438 L 116.49053001403809 183.09091186523438 L 116.49053001403809 498.9090881347656 L 103.44598388671875 498.9090881347656 L 103.44598388671875 183.09091186523438" fill-opacity="1" clip-path="url(#nvTxOILLkZAC)"/><path fill="rgb(239,185,203)" stroke="none" paint-order="stroke" d="M 147.09095764160156 183.09091186523438 L 158.4191493988037 183.09091186523438 L 158.4191493988037 498.9090881347656 L 147.09095764160156 498.9090881347656 L 147.09095764160156 183.09091186523438" fill-opacity="1" clip-path="url(#nvTxOILLkZAC)"/><path fill="rgb(239,185,203)" stroke="none" paint-order="stroke" d="M 170.28921508789062 183.09091186523438 L 182.10943698883057 183.09091186523438 L 182.10943698883057 498.9090881347656 L 170.28921508789062 498.9090881347656 L 170.28921508789062 183.09091186523438" fill-opacity="1" clip-path="url(#nvTxOILLkZAC)"/><path fill="rgb(239,185,203)" stroke="none" paint-order="stroke" d="M 218.84426879882812 183.09091186523438 L 240.377290725708 183.09091186523438 L 240.377290725708 498.9090881347656 L 218.84426879882812 498.9090881347656 L 218.84426879882812 183.09091186523438" fill-opacity="1" clip-path="url(#nvTxOILLkZAC)"/><path fill="rgb(239,185,203)" stroke="none" paint-order="stroke" d="M 290.2589111328125 183.09091186523438 L 331.52297592163086 183.09091186523438 L 331.52297592163086 498.9090881347656 L 290.2589111328125 498.9090881347656 L 290.2589111328125 183.09091186523438" fill-opacity="1" clip-path="url(#nvTxOILLkZAC)"/><path fill="rgb(239,185,203)" stroke="none" paint-order="stroke" d="M 352.4310607910156 183.09091186523438 L 368.02266120910645 183.09091186523438 L 368.02266120910645 498.9090881347656 L 352.4310607910156 498.9090881347656 L 352.4310607910156 183.09091186523438" fill-opacity="1" clip-path="url(#nvTxOILLkZAC)"/><path fill="rgb(239,185,203)" stroke="none" paint-order="stroke" d="M 384.5242004394531 183.09091186523438 L 416.1150817871094 183.09091186523438 L 416.1150817871094 498.9090881347656 L 384.5242004394531 498.9090881347656 L 384.5242004394531 183.09091186523438" fill-opacity="1" clip-path="url(#nvTxOILLkZAC)"/><path fill="rgb(239,185,203)" stroke="none" paint-order="stroke" d="M 427.39215087890625 183.09091186523438 L 433.1073670387268 183.09091186523438 L 433.1073670387268 498.9090881347656 L 427.39215087890625 498.9090881347656 L 427.39215087890625 183.09091186523438" fill-opacity="1" clip-path="url(#nvTxOILLkZAC)"/><path fill="rgb(239,185,203)" stroke="none" paint-order="stroke" d="M 455.7739562988281 183.09091186523438 L 495.8021926879883 183.09091186523438 L 495.8021926879883 498.9090881347656 L 455.7739562988281 498.9090881347656 L 455.7739562988281 183.09091186523438" fill-opacity="1" clip-path="url(#nvTxOILLkZAC)"/><path fill="rgb(239,185,203)" stroke="none" paint-order="stroke" d="M 560.3258666992188 183.09091186523438 L 574.8324451446533 183.09091186523438 L 574.8324451446533 498.9090881347656 L 560.3258666992188 498.9090881347656 L 560.3258666992188 183.09091186523438" fill-opacity="1" clip-path="url(#nvTxOILLkZAC)"/><path fill="rgb(105,29,48)" stroke="none" paint-order="stroke" d="M 121.14883422851562 183.09091186523438 L 136.6292486190796 183.09091186523438 L 136.6292486190796 498.9090881347656 L 121.14883422851562 498.9090881347656 L 121.14883422851562 183.09091186523438" fill-opacity="1" clip-path="url(#torGspBCZFZz)"/><path fill="rgb(105,29,48)" stroke="none" paint-order="stroke" d="M 142.16043090820312 183.09091186523438 L 144.20906496047974 183.09091186523438 L 144.20906496047974 498.9090881347656 L 142.16043090820312 498.9090881347656 L 142.16043090820312 183.09091186523438" fill-opacity="1" clip-path="url(#torGspBCZFZz)"/><path fill="rgb(255,188,66)" stroke="none" paint-order="stroke" d="M 162.8282470703125 498.9090881347656 L 334.00611877441406 498.9090881347656 L 334.00611877441406 551.5454521179199 L 162.8282470703125 551.5454521179199 L 162.8282470703125 498.9090881347656" fill-opacity="1" clip-path="url(#eGyuDLSwcoMW)"/><path fill="rgb(255,188,66)" stroke="none" paint-order="stroke" d="M 335.579345703125 498.9090881347656 L 574.8324432373047 498.9090881347656 L 574.8324432373047 551.5454521179199 L 335.579345703125 551.5454521179199 L 335.579345703125 498.9090881347656" fill-opacity="1" clip-path="url(#eGyuDLSwcoMW)"/><path fill="rgb(143,45,86)" stroke="none" paint-order="stroke" d="M 58.5 551.5454711914062 L 278.85914611816406 551.5454711914062 L 278.85914611816406 604.1818351745605 L 58.5 604.1818351745605 L 58.5 551.5454711914062" fill-opacity="1" clip-path="url(#ppDXDsmToRfs)"/><path fill="rgb(63,136,197)" stroke="none" paint-order="stroke" d="M 278.8591613769531 551.5454711914062 L 279.7524833679199 551.5454711914062 L 279.7524833679199 604.1818351745605 L 278.8591613769531 604.1818351745605 L 278.8591613769531 551.5454711914062" fill-opacity="1" clip-path="url(#ppDXDsmToRfs)"/><path fill="rgb(143,45,86)" stroke="none" paint-order="stroke" d="M 279.7524719238281 551.5454711914062 L 280.3237379193306 551.5454711914062 L 280.3237379193306 604.1818351745605 L 279.7524719238281 604.1818351745605 L 279.7524719238281 551.5454711914062" fill-opacity="1" clip-path="url(#ppDXDsmToRfs)"/><path fill="rgb(63,136,197)" stroke="none" paint-order="stroke" d="M 280.32373046875 551.5454711914062 L 574.8324279785156 551.5454711914062 L 574.8324279785156 604.1818351745605 L 280.32373046875 604.1818351745605 L 280.32373046875 551.5454711914062" fill-opacity="1" clip-path="url(#ppDXDsmToRfs)"/><path fill="none" stroke="rgb(0,0,0)" paint-order="fill" d="M 58.5 77.81818389892578 L 574.8324584960938 77.81818389892578 L 574.8324584960938 604.1818313598633 L 58.5 604.1818313598633 L 58.5 77.81818389892578" stroke-opacity="1" stroke-linejoin="bevel" stroke-miterlimit="10" stroke-dasharray="" clip-path="url(#gDGdLINxVZAK)"/><path fill="none" stroke="rgb(0,0,0)" paint-order="fill" d="M 58.5 630.5 L 1336.5 630.5" stroke-opacity="1" stroke-linejoin="bevel" stroke-miterlimit="10" stroke-dasharray=""/><path fill="none" stroke="rgb(0,0,0)" paint-order="fill" d="M 58.5 636.5 L 58.5 628.5 M 314.5 636.5 L 314.5 628.5 M 569.5 636.5 L 569.5 628.5 M 825.5 636.5 L 825.5 628.5 M 1080.5 636.5 L 1080.5 628.5 M 1336.5 636.5 L 1336.5 628.5" stroke-opacity="1" stroke-linejoin="bevel" stroke-miterlimit="10" stroke-dasharray=""/><path fill="none" stroke="rgb(0,0,0)" paint-order="fill" d="M 58.5 634.5 L 58.5 630.5 M 109.5 634.5 L 109.5 630.5 M 160.5 634.5 L 160.5 630.5 M 211.5 634.5 L 211.5 630.5 M 262.5 634.5 L 262.5 630.5 M 314.5 634.5 L 314.5 630.5 M 365.5 634.5 L 365.5 630.5 M 416.5 634.5 L 416.5 630.5 M 467.5 634.5 L 467.5 630.5 M 518.5 634.5 L 518.5 630.5 M 569.5 634.5 L 569.5 630.5 M 620.5 634.5 L 620.5 630.5 M 671.5 634.5 L 671.5 630.5 M 723.5 634.5 L 723.5 630.5 M 774.5 634.5 L 774.5 630.5 M 825.5 634.5 L 825.5 630.5 M 876.5 634.5 L 876.5 630.5 M 927.5 634.5 L 927.5 630.5 M 978.5 634.5 L 978.5 630.5 M 1029.5 634.5 L 1029.5 630.5 M 1080.5 634.5 L 1080.5 630.5 M 1132.5 634.5 L 1132.5 630.5 M 1183.5 634.5 L 1183.5 630.5 M 1234.5 634.5 L 1234.5 630.5 M 1285.5 634.5 L 1285.5 630.5 M 1336.5 634.5 L 1336.5 630.5" stroke-opacity="1" stroke-linejoin="bevel" stroke-miterlimit="10" stroke-dasharray=""/><text fill="rgb(68,68,68)" stroke="none" font-family="helvetica" font-size="11px" font-style="normal" font-weight="normal" text-decoration="normal" x="54.94166660308838" y="648.89013671875" text-anchor="start" dominant-baseline="alphabetic" transform="matrix(1, 0, 0, 1, 0.5, 0.5)" fill-opacity="1">0</text><text fill="rgb(68,68,68)" stroke="none" font-family="helvetica" font-size="11px" font-style="normal" font-weight="normal" text-decoration="normal" x="304.42500591278076" y="648.89013671875" text-anchor="start" dominant-baseline="alphabetic" transform="matrix(1, 0, 0, 1, 0.5, 0.5)" fill-opacity="1">200</text><text fill="rgb(68,68,68)" stroke="none" font-family="helvetica" font-size="11px" font-style="normal" font-weight="normal" text-decoration="normal" x="560.0250120162964" y="648.89013671875" text-anchor="start" dominant-baseline="alphabetic" transform="matrix(1, 0, 0, 1, 0.5, 0.5)" fill-opacity="1">400</text><text fill="rgb(68,68,68)" stroke="none" font-family="helvetica" font-size="11px" font-style="normal" font-weight="normal" text-decoration="normal" x="815.6249876022339" y="648.89013671875" text-anchor="start" dominant-baseline="alphabetic" transform="matrix(1, 0, 0, 1, 0.5, 0.5)" fill-opacity="1">600</text><text fill="rgb(68,68,68)" stroke="none" font-family="helvetica" font-size="11px" font-style="normal" font-weight="normal" text-decoration="normal" x="1071.2250242233276" y="648.89013671875" text-anchor="start" dominant-baseline="alphabetic" transform="matrix(1, 0, 0, 1, 0.5, 0.5)" fill-opacity="1">800</text><text fill="rgb(68,68,68)" stroke="none" font-family="helvetica" font-size="11px" font-style="normal" font-weight="normal" text-decoration="normal" x="1323.7666664123535" y="648.89013671875" text-anchor="start" dominant-baseline="alphabetic" transform="matrix(1, 0, 0, 1, 0.5, 0.5)" fill-opacity="1">1000</text><text fill="rgb(68,68,68)" stroke="none" font-family="helvetica" font-size="15pt" font-style="italic" font-weight="normal" text-decoration="normal" x="666.4416675567627" y="676.06982421875" text-anchor="start" dominant-baseline="alphabetic" transform="matrix(1, 0, 0, 1, 0.5, 0.5)" fill-opacity="1">time(s)</text><path fill="none" stroke="rgb(0,0,0)" paint-order="fill" d="M 58.5 630.5 L 58.5 51.5" stroke-opacity="1" stroke-linejoin="bevel" stroke-miterlimit="10" stroke-dasharray=""/><path fill="none" stroke="rgb(0,0,0)" paint-order="fill" d="M 52.5 551.5 L 60.5 551.5 M 52.5 446.5 L 60.5 446.5 M 52.5 341.5 L 60.5 341.5 M 52.5 235.5 L 60.5 235.5 M 52.5 130.5 L 60.5 130.5" stroke-opacity="1" stroke-linejoin="bevel" stroke-miterlimit="10" stroke-dasharray=""/><path fill="none" stroke="rgb(0,0,0)" paint-order="fill" d="M 54.5 572.5 L 58.5 572.5 M 54.5 593.5 L 58.5 593.5 M 54.5 614.5 L 58.5 614.5 M 54.5 551.5 L 58.5 551.5 M 54.5 530.5 L 58.5 530.5 M 54.5 509.5 L 58.5 509.5 M 54.5 488.5 L 58.5 488.5 M 54.5 467.5 L 58.5 467.5 M 54.5 446.5 L 58.5 446.5 M 54.5 425.5 L 58.5 425.5 M 54.5 404.5 L 58.5 404.5 M 54.5 383.5 L 58.5 383.5 M 54.5 362.5 L 58.5 362.5 M 54.5 341.5 L 58.5 341.5 M 54.5 319.5 L 58.5 319.5 M 54.5 298.5 L 58.5 298.5 M 54.5 277.5 L 58.5 277.5 M 54.5 256.5 L 58.5 256.5 M 54.5 235.5 L 58.5 235.5 M 54.5 214.5 L 58.5 214.5 M 54.5 193.5 L 58.5 193.5 M 54.5 172.5 L 58.5 172.5 M 54.5 151.5 L 58.5 151.5 M 54.5 130.5 L 58.5 130.5 M 54.5 109.5 L 58.5 109.5 M 54.5 88.5 L 58.5 88.5 M 54.5 67.5 L 58.5 67.5" stroke-opacity="1" stroke-linejoin="bevel" stroke-miterlimit="10" stroke-dasharray=""/><text fill="rgb(68,68,68)" stroke="none" font-family="helvetica" font-size="11px" font-style="normal" font-weight="normal" text-decoration="normal" x="34.46666622161865" y="554.9905395507812" text-anchor="start" dominant-baseline="alphabetic" transform="matrix(1, 0, 0, 1, 0.5, 0.5)" fill-opacity="1">−2</text><text fill="rgb(68,68,68)" stroke="none" font-family="helvetica" font-size="11px" font-style="normal" font-weight="normal" text-decoration="normal" x="34.46666622161865" y="449.7178039550781" text-anchor="start" dominant-baseline="alphabetic" transform="matrix(1, 0, 0, 1, 0.5, 0.5)" fill-opacity="1">−1</text><text fill="rgb(68,68,68)" stroke="none" font-family="helvetica" font-size="11px" font-style="normal" font-weight="normal" text-decoration="normal" x="40.88333320617676" y="344.445068359375" text-anchor="start" dominant-baseline="alphabetic" transform="matrix(1, 0, 0, 1, 0.5, 0.5)" fill-opacity="1">0</text><text fill="rgb(68,68,68)" stroke="none" font-family="helvetica" font-size="11px" font-style="normal" font-weight="normal" text-decoration="normal" x="40.88333320617676" y="239.17234802246094" text-anchor="start" dominant-baseline="alphabetic" transform="matrix(1, 0, 0, 1, 0.5, 0.5)" fill-opacity="1">1</text><text fill="rgb(68,68,68)" stroke="none" font-family="helvetica" font-size="11px" font-style="normal" font-weight="normal" text-decoration="normal" x="40.88333320617676" y="133.8996124267578" text-anchor="start" dominant-baseline="alphabetic" transform="matrix(1, 0, 0, 1, 0.5, 0.5)" fill-opacity="1">2</text><text fill="rgb(68,68,68)" stroke="none" font-family="helvetica" font-size="15pt" font-style="italic" font-weight="normal" text-decoration="normal" x="-11.316666603088379" y="336.076171875" text-anchor="start" dominant-baseline="alphabetic" transform="matrix(6.123233995736766e-17, -1, 1, 6.123233995736766e-17, -313.53333377838135, 367.46666622161865)" fill-opacity="1">students</text><path fill="rgb(255,255,255)" stroke="rgb(229,229,229)" paint-order="fill" d="M 1128.2333374023438 61.5 L 1326.5 61.5 L 1326.5 400.5 L 1128.2333374023438 400.5 L 1128.2333374023438 61.5" fill-opacity="0.9490196078431372" clip-path="url(#CfWTtTgnHGKP)" stroke-opacity="0.5019607843137255" stroke-linejoin="bevel" stroke-miterlimit="10" stroke-dasharray=""/><text fill="rgb(68,68,68)" stroke="none" font-family="helvetica" font-size="13px" font-style="normal" font-weight="normal" text-decoration="normal" x="1162.7333374023438" y="81" text-anchor="start" dominant-baseline="central" clip-path="url(#CfWTtTgnHGKP)" transform="matrix(1, 0, 0, 1, 0.5, 0.5)" fill-opacity="1">wavelength</text><path fill="rgb(0,255,40)" stroke="none" paint-order="stroke" d="M 1140.2333374023438 73.5 L 1156.2333374023438 73.5 L 1156.2333374023438 89.5 L 1140.2333374023438 89.5 L 1140.2333374023438 73.5" fill-opacity="1" clip-path="url(#CfWTtTgnHGKP)"/><path fill="rgb(216,17,89)" stroke="none" paint-order="stroke" d="M 1140.2333374023438 73.5 L 1156.2333374023438 73.5 L 1156.2333374023438 89.5 L 1140.2333374023438 89.5 L 1140.2333374023438 73.5" fill-opacity="1" clip-path="url(#CfWTtTgnHGKP)"/><text fill="rgb(68,68,68)" stroke="none" font-family="helvetica" font-size="13px" font-style="normal" font-weight="normal" text-decoration="normal" x="1162.7333374023438" y="104" text-anchor="start" dominant-baseline="central" clip-path="url(#CfWTtTgnHGKP)" transform="matrix(1, 0, 0, 1, 0.5, 0.5)" fill-opacity="1">solution</text><path fill="rgb(251,0,7)" stroke="none" paint-order="stroke" d="M 1140.2333374023438 96.5 L 1156.2333374023438 96.5 L 1156.2333374023438 112.5 L 1140.2333374023438 112.5 L 1140.2333374023438 96.5" fill-opacity="1" clip-path="url(#CfWTtTgnHGKP)"/><path fill="rgb(33,131,128)" stroke="none" paint-order="stroke" d="M 1140.2333374023438 96.5 L 1156.2333374023438 96.5 L 1156.2333374023438 112.5 L 1140.2333374023438 112.5 L 1140.2333374023438 96.5" fill-opacity="1" clip-path="url(#CfWTtTgnHGKP)"/><text fill="rgb(68,68,68)" stroke="none" font-family="helvetica" font-size="13px" font-style="normal" font-weight="normal" text-decoration="normal" x="1162.7333374023438" y="127" text-anchor="start" dominant-baseline="central" clip-path="url(#CfWTtTgnHGKP)" transform="matrix(1, 0, 0, 1, 0.5, 0.5)" fill-opacity="1">laser</text><path fill="rgb(105,29,48)" stroke="none" paint-order="stroke" d="M 1140.2333374023438 119.5 L 1156.2333374023438 119.5 L 1156.2333374023438 135.5 L 1140.2333374023438 135.5 L 1140.2333374023438 119.5" fill-opacity="1" clip-path="url(#CfWTtTgnHGKP)"/><text fill="rgb(68,68,68)" stroke="none" font-family="helvetica" font-size="13px" font-style="normal" font-weight="normal" text-decoration="normal" x="1162.7333374023438" y="150" text-anchor="start" dominant-baseline="central" clip-path="url(#CfWTtTgnHGKP)" transform="matrix(1, 0, 0, 1, 0.5, 0.5)" fill-opacity="1">ruler</text><path fill="rgb(255,188,66)" stroke="none" paint-order="stroke" d="M 1140.2333374023438 142.5 L 1156.2333374023438 142.5 L 1156.2333374023438 158.5 L 1140.2333374023438 158.5 L 1140.2333374023438 142.5" fill-opacity="1" clip-path="url(#CfWTtTgnHGKP)"/><text fill="rgb(68,68,68)" stroke="none" font-family="helvetica" font-size="13px" font-style="normal" font-weight="normal" text-decoration="normal" x="1162.7333374023438" y="173" text-anchor="start" dominant-baseline="central" clip-path="url(#CfWTtTgnHGKP)" transform="matrix(1, 0, 0, 1, 0.5, 0.5)" fill-opacity="1">restarts</text><text fill="rgb(68,68,68)" stroke="none" font-family="helvetica" font-size="13px" font-style="normal" font-weight="normal" text-decoration="normal" x="1162.7333374023438" y="196" text-anchor="start" dominant-baseline="central" clip-path="url(#CfWTtTgnHGKP)" transform="matrix(1, 0, 0, 1, 0.5, 0.5)" fill-opacity="1">transmittance_absorbance</text><text fill="rgb(68,68,68)" stroke="none" font-family="helvetica" font-size="13px" font-style="normal" font-weight="normal" text-decoration="normal" x="1162.7333374023438" y="219" text-anchor="start" dominant-baseline="central" clip-path="url(#CfWTtTgnHGKP)" transform="matrix(1, 0, 0, 1, 0.5, 0.5)" fill-opacity="1">magnifier</text><path fill="rgb(255,188,66)" stroke="none" paint-order="stroke" d="M 1140.2333374023438 211.5 L 1156.2333374023438 211.5 L 1156.2333374023438 227.5 L 1140.2333374023438 227.5 L 1140.2333374023438 211.5" fill-opacity="1" clip-path="url(#CfWTtTgnHGKP)"/><text fill="rgb(68,68,68)" stroke="none" font-family="helvetica" font-size="13px" font-style="normal" font-weight="normal" text-decoration="normal" x="1162.7333374023438" y="242" text-anchor="start" dominant-baseline="central" clip-path="url(#CfWTtTgnHGKP)" transform="matrix(1, 0, 0, 1, 0.5, 0.5)" fill-opacity="1">concentration</text><path fill="rgb(115,210,222)" stroke="none" paint-order="stroke" d="M 1140.2333374023438 234.5 L 1156.2333374023438 234.5 L 1156.2333374023438 250.5 L 1140.2333374023438 250.5 L 1140.2333374023438 234.5" fill-opacity="1" clip-path="url(#CfWTtTgnHGKP)"/><text fill="rgb(68,68,68)" stroke="none" font-family="helvetica" font-size="13px" font-style="normal" font-weight="normal" text-decoration="normal" x="1162.7333374023438" y="265" text-anchor="start" dominant-baseline="central" clip-path="url(#CfWTtTgnHGKP)" transform="matrix(1, 0, 0, 1, 0.5, 0.5)" fill-opacity="1">flask</text><path fill="rgb(28,49,68)" stroke="none" paint-order="stroke" d="M 1140.2333374023438 257.5 L 1156.2333374023438 257.5 L 1156.2333374023438 273.5 L 1140.2333374023438 273.5 L 1140.2333374023438 257.5" fill-opacity="1" clip-path="url(#CfWTtTgnHGKP)"/><text fill="rgb(68,68,68)" stroke="none" font-family="helvetica" font-size="13px" font-style="normal" font-weight="normal" text-decoration="normal" x="1162.7333374023438" y="288" text-anchor="start" dominant-baseline="central" clip-path="url(#CfWTtTgnHGKP)" transform="matrix(1, 0, 0, 1, 0.5, 0.5)" fill-opacity="1">pdf</text><path fill="rgb(239,185,203)" stroke="none" paint-order="stroke" d="M 1140.2333374023438 280.5 L 1156.2333374023438 280.5 L 1156.2333374023438 296.5 L 1140.2333374023438 296.5 L 1140.2333374023438 280.5" fill-opacity="1" clip-path="url(#CfWTtTgnHGKP)"/><text fill="rgb(68,68,68)" stroke="none" font-family="helvetica" font-size="13px" font-style="normal" font-weight="normal" text-decoration="normal" x="1162.7333374023438" y="311" text-anchor="start" dominant-baseline="central" clip-path="url(#CfWTtTgnHGKP)" transform="matrix(1, 0, 0, 1, 0.5, 0.5)" fill-opacity="1">concentrationlab</text><text fill="rgb(68,68,68)" stroke="none" font-family="helvetica" font-size="13px" font-style="normal" font-weight="normal" text-decoration="normal" x="1162.7333374023438" y="334" text-anchor="start" dominant-baseline="central" clip-path="url(#CfWTtTgnHGKP)" transform="matrix(1, 0, 0, 1, 0.5, 0.5)" fill-opacity="1">wavelength_slider</text><path fill="rgb(105,29,48)" stroke="none" paint-order="stroke" d="M 1140.2333374023438 326.5 L 1156.2333374023438 326.5 L 1156.2333374023438 342.5 L 1140.2333374023438 342.5 L 1140.2333374023438 326.5" fill-opacity="1" clip-path="url(#CfWTtTgnHGKP)"/><text fill="rgb(68,68,68)" stroke="none" font-family="helvetica" font-size="13px" font-style="normal" font-weight="normal" text-decoration="normal" x="1162.7333374023438" y="357" text-anchor="start" dominant-baseline="central" clip-path="url(#CfWTtTgnHGKP)" transform="matrix(1, 0, 0, 1, 0.5, 0.5)" fill-opacity="1">ruler measuring</text><path fill="rgb(255,188,66)" stroke="none" paint-order="stroke" d="M 1140.2333374023438 349.5 L 1156.2333374023438 349.5 L 1156.2333374023438 365.5 L 1140.2333374023438 365.5 L 1140.2333374023438 349.5" fill-opacity="1" clip-path="url(#CfWTtTgnHGKP)"/><text fill="rgb(68,68,68)" stroke="none" font-family="helvetica" font-size="13px" font-style="normal" font-weight="normal" text-decoration="normal" x="1162.7333374023438" y="380" text-anchor="start" dominant-baseline="central" clip-path="url(#CfWTtTgnHGKP)" transform="matrix(1, 0, 0, 1, 0.5, 0.5)" fill-opacity="1">dependent variable</text><path fill="rgb(143,45,86)" stroke="none" paint-order="stroke" d="M 1140.2333374023438 372.5 L 1156.2333374023438 372.5 L 1156.2333374023438 388.5 L 1140.2333374023438 388.5 L 1140.2333374023438 372.5" fill-opacity="1" clip-path="url(#CfWTtTgnHGKP)"/><text fill="rgb(68,68,68)" stroke="none" font-family="helvetica" font-size="25pt" font-style="normal" font-weight="bold" text-decoration="normal" x="58" y="38.740885416666664" text-anchor="start" dominant-baseline="alphabetic" transform="matrix(1, 0, 0, 1, 0.5, 0.5)" fill-opacity="1">Timeline for student mp2aa258 with permutation 0123 for task 2</text></svg>