<svg version="1.1" xmlns="http://www.w3.org/2000/svg" width="1366" height="683"><defs><clipPath id="IQVnFGmunruc"><path fill="none" stroke="none" d="M 58.5 51.5 L 1336.5 51.5 L 1336.5 630.5 L 58.5 630.5 L 58.5 51.5"/></clipPath><clipPath id="pQZudFXSJtBL"><path fill="none" stroke="none" d="M 58.5 51.5 L 1336.5 51.5 L 1336.5 630.5 L 58.5 630.5 L 58.5 51.5"/></clipPath><clipPath id="icPTsTfTOmpC"><path fill="none" stroke="none" d="M 58.5 51.5 L 1336.5 51.5 L 1336.5 630.5 L 58.5 630.5 L 58.5 51.5"/></clipPath><clipPath id="HqNxZmXRIigl"><path fill="none" stroke="none" d="M 58.5 51.5 L 1336.5 51.5 L 1336.5 630.5 L 58.5 630.5 L 58.5 51.5"/></clipPath><clipPath id="MbIgTmiRnvWx"><path fill="none" stroke="none" d="M 58.5 51.5 L 1336.5 51.5 L 1336.5 630.5 L 58.5 630.5 L 58.5 51.5"/></clipPath><clipPath id="EbWrhvEkakzK"><path fill="none" stroke="none" d="M 58.5 51.5 L 1336.5 51.5 L 1336.5 630.5 L 58.5 630.5 L 58.5 51.5"/></clipPath><clipPath id="zfPTFTKgUOgu"><path fill="none" stroke="none" d="M 58.5 51.5 L 1336.5 51.5 L 1336.5 630.5 L 58.5 630.5 L 58.5 51.5"/></clipPath><clipPath id="yTWGApViEiiZ"><path fill="none" stroke="none" d="M 58.5 51.5 L 1336.5 51.5 L 1336.5 630.5 L 58.5 630.5 L 58.5 51.5"/></clipPath><clipPath id="IkWdtgvdsaxL"><path fill="none" stroke="none" d="M 58.5 51.5 L 1336.5 51.5 L 1336.5 630.5 L 58.5 630.5 L 58.5 51.5"/></clipPath><clipPath id="TcpandGihgpv"><path fill="none" stroke="none" d="M 58.5 51.5 L 1336.5 51.5 L 1336.5 630.5 L 58.5 630.5 L 58.5 51.5"/></clipPath><clipPath id="cFzEaipNvMEI"><path fill="none" stroke="none" d="M 58.5 51.5 L 1336.5 51.5 L 1336.5 630.5 L 58.5 630.5 L 58.5 51.5"/></clipPath><clipPath id="qMgoRuQTCmgi"><path fill="none" stroke="none" d="M 58.5 51.5 L 1336.5 51.5 L 1336.5 630.5 L 58.5 630.5 L 58.5 51.5"/></clipPath><clipPath id="kGigoKwNcMDJ"><path fill="none" stroke="none" d="M 58.5 51.5 L 1336.5 51.5 L 1336.5 630.5 L 58.5 630.5 L 58.5 51.5"/></clipPath><clipPath id="opuQFVtfKAdy"><path fill="none" stroke="none" d="M 58.5 51.5 L 1336.5 51.5 L 1336.5 630.5 L 58.5 630.5 L 58.5 51.5"/></clipPath><clipPath id="BEUTKsNHdaZa"><path fill="none" stroke="none" d="M 58.5 51.5 L 1336.5 51.5 L 1336.5 630.5 L 58.5 630.5 L 58.5 51.5"/></clipPath><clipPath id="gPlFDzeihrda"><path fill="none" stroke="none" d="M 58.5 51.5 L 1336.5 51.5 L 1336.5 630.5 L 58.5 630.5 L 58.5 51.5"/></clipPath><clipPath id="gvWKmUbBnSvc"><path fill="none" stroke="none" d="M 58.5 51.5 L 1336.5 51.5 L 1336.5 630.5 L 58.5 630.5 L 58.5 51.5"/></clipPath><clipPath id="taULxGLXmFlC"><path fill="none" stroke="none" d="M 58.5 51.5 L 1336.5 51.5 L 1336.5 630.5 L 58.5 630.5 L 58.5 51.5"/></clipPath><clipPath id="VHyUuGGzPxXE"><path fill="none" stroke="none" d="M 58.5 51.5 L 1336.5 51.5 L 1336.5 630.5 L 58.5 630.5 L 58.5 51.5"/></clipPath><clipPath id="LXWTlSHCtRnP"><path fill="none" stroke="none" d="M 58.5 51.5 L 1336.5 51.5 L 1336.5 630.5 L 58.5 630.5 L 58.5 51.5"/></clipPath><clipPath id="rBCRrOQHFuGi"><path fill="none" stroke="none" d="M 58.5 51.5 L 1336.5 51.5 L 1336.5 630.5 L 58.5 630.5 L 58.5 51.5"/></clipPath></defs><path fill="rgb(255,255,255)" stroke="none" paint-order="stroke" d="M 0.5 0.5 L 1366.5 0.5 L 1366.5 683.5 L 0.5 683.5 L 0.5 0.5" fill-opacity="1"/><rect fill="#FFFFFF" stroke="none" x="58" y="51" width="1278" height="579" transform="matrix(1, 0, 0, 1, 0.5, 0.5)"/><path fill="rgb(255,255,255)" stroke="none" paint-order="stroke" d="M 58.5 51.5 L 1336.5 51.5 L 1336.5 630.5 L 58.5 630.5 L 58.5 51.5" fill-opacity="1"/><path fill="none" stroke="rgb(229,229,229)" paint-order="fill" d="M 58.5 51.5 L 1336.5 51.5 L 1336.5 630.5 L 58.5 630.5 L 58.5 51.5" stroke-opacity="1" stroke-linejoin="bevel" stroke-miterlimit="10" stroke-dasharray=""/><path fill="none" stroke="rgb(229,229,229)" paint-order="fill" d="M 314.5 630.5 L 314.5 51.5 M 569.5 630.5 L 569.5 51.5 M 825.5 630.5 L 825.5 51.5 M 1080.5 630.5 L 1080.5 51.5" stroke-opacity="1" stroke-linejoin="bevel" stroke-miterlimit="10" stroke-dasharray="" clip-path="url(#IQVnFGmunruc)"/><path fill="none" stroke="rgb(229,229,229)" paint-order="fill" d="M 58.5 551.5 L 1336.5 551.5 M 58.5 446.5 L 1336.5 446.5 M 58.5 341.5 L 1336.5 341.5 M 58.5 235.5 L 1336.5 235.5 M 58.5 130.5 L 1336.5 130.5" stroke-opacity="1" stroke-linejoin="bevel" stroke-miterlimit="10" stroke-dasharray="" clip-path="url(#pQZudFXSJtBL)"/><path fill="rgb(0,255,40)" stroke="none" paint-order="stroke" d="M 58.5 77.81818389892578 L 106.99626541137695 77.81818389892578 L 106.99626541137695 130.45454788208008 L 58.5 130.45454788208008 L 58.5 77.81818389892578" fill-opacity="1" clip-path="url(#icPTsTfTOmpC)"/><path fill="rgb(0,255,23)" stroke="none" paint-order="stroke" d="M 106.99626922607422 77.81818389892578 L 107.52663922309875 77.81818389892578 L 107.52663922309875 130.45454788208008 L 106.99626922607422 130.45454788208008 L 106.99626922607422 77.81818389892578" fill-opacity="1" clip-path="url(#icPTsTfTOmpC)"/><path fill="rgb(0,255,0)" stroke="none" paint-order="stroke" d="M 107.5266342163086 77.81818389892578 L 107.719612210989 77.81818389892578 L 107.719612210989 130.45454788208008 L 107.5266342163086 130.45454788208008 L 107.5266342163086 77.81818389892578" fill-opacity="1" clip-path="url(#icPTsTfTOmpC)"/><path fill="rgb(8,255,0)" stroke="none" paint-order="stroke" d="M 107.71961212158203 77.81818389892578 L 107.93559412658215 77.81818389892578 L 107.93559412658215 130.45454788208008 L 107.71961212158203 130.45454788208008 L 107.71961212158203 77.81818389892578" fill-opacity="1" clip-path="url(#icPTsTfTOmpC)"/><path fill="rgb(14,255,0)" stroke="none" paint-order="stroke" d="M 107.93559265136719 77.81818389892578 L 108.10940064489841 77.81818389892578 L 108.10940064489841 130.45454788208008 L 107.93559265136719 130.45454788208008 L 107.93559265136719 77.81818389892578" fill-opacity="1" clip-path="url(#icPTsTfTOmpC)"/><path fill="rgb(20,255,0)" stroke="none" paint-order="stroke" d="M 108.10940551757812 77.81818389892578 L 108.29343751072884 77.81818389892578 L 108.29343751072884 130.45454788208008 L 108.10940551757812 130.45454788208008 L 108.10940551757812 77.81818389892578" fill-opacity="1" clip-path="url(#icPTsTfTOmpC)"/><path fill="rgb(25,255,0)" stroke="none" paint-order="stroke" d="M 108.2934341430664 77.81818389892578 L 108.46596413850784 77.81818389892578 L 108.46596413850784 130.45454788208008 L 108.2934341430664 130.45454788208008 L 108.2934341430664 77.81818389892578" fill-opacity="1" clip-path="url(#icPTsTfTOmpC)"/><path fill="rgb(30,255,0)" stroke="none" paint-order="stroke" d="M 108.4659652709961 77.81818389892578 L 108.65127527713776 77.81818389892578 L 108.65127527713776 130.45454788208008 L 108.4659652709961 130.45454788208008 L 108.4659652709961 77.81818389892578" fill-opacity="1" clip-path="url(#icPTsTfTOmpC)"/><path fill="rgb(35,255,0)" stroke="none" paint-order="stroke" d="M 108.65127563476562 77.81818389892578 L 108.83530762791634 77.81818389892578 L 108.83530762791634 130.45454788208008 L 108.65127563476562 130.45454788208008 L 108.65127563476562 77.81818389892578" fill-opacity="1" clip-path="url(#icPTsTfTOmpC)"/><path fill="rgb(40,255,0)" stroke="none" paint-order="stroke" d="M 108.8353042602539 77.81818389892578 L 109.23404026031494 77.81818389892578 L 109.23404026031494 130.45454788208008 L 108.8353042602539 130.45454788208008 L 108.8353042602539 77.81818389892578" fill-opacity="1" clip-path="url(#icPTsTfTOmpC)"/><path fill="rgb(44,255,0)" stroke="none" paint-order="stroke" d="M 109.23404693603516 77.81818389892578 L 109.62255892157555 77.81818389892578 L 109.62255892157555 130.45454788208008 L 109.23404693603516 130.45454788208008 L 109.23404693603516 77.81818389892578" fill-opacity="1" clip-path="url(#icPTsTfTOmpC)"/><path fill="rgb(49,255,0)" stroke="none" paint-order="stroke" d="M 109.62255859375 77.81818389892578 L 110.4213085770607 77.81818389892578 L 110.4213085770607 130.45454788208008 L 109.62255859375 130.45454788208008 L 109.62255859375 77.81818389892578" fill-opacity="1" clip-path="url(#icPTsTfTOmpC)"/><path fill="rgb(53,255,0)" stroke="none" paint-order="stroke" d="M 110.42130279541016 77.81818389892578 L 399.18030548095703 77.81818389892578 L 399.18030548095703 130.45454788208008 L 110.42130279541016 130.45454788208008 L 110.42130279541016 77.81818389892578" fill-opacity="1" clip-path="url(#icPTsTfTOmpC)"/><path fill="rgb(159,255,0)" stroke="none" paint-order="stroke" d="M 399.1802978515625 77.81818389892578 L 483.54491424560547 77.81818389892578 L 483.54491424560547 130.45454788208008 L 399.1802978515625 130.45454788208008 L 399.1802978515625 77.81818389892578" fill-opacity="1" clip-path="url(#icPTsTfTOmpC)"/><path fill="rgb(156,255,0)" stroke="none" paint-order="stroke" d="M 483.544921875 77.81818389892578 L 483.8017998635769 77.81818389892578 L 483.8017998635769 130.45454788208008 L 483.544921875 130.45454788208008 L 483.544921875 77.81818389892578" fill-opacity="1" clip-path="url(#icPTsTfTOmpC)"/><path fill="rgb(153,255,0)" stroke="none" paint-order="stroke" d="M 483.8017883300781 77.81818389892578 L 484.02671633660793 77.81818389892578 L 484.02671633660793 130.45454788208008 L 483.8017883300781 130.45454788208008 L 483.8017883300781 77.81818389892578" fill-opacity="1" clip-path="url(#icPTsTfTOmpC)"/><path fill="rgb(149,255,0)" stroke="none" paint-order="stroke" d="M 484.0267028808594 77.81818389892578 L 484.07271087914705 77.81818389892578 L 484.07271087914705 130.45454788208008 L 484.0267028808594 130.45454788208008 L 484.0267028808594 77.81818389892578" fill-opacity="1" clip-path="url(#icPTsTfTOmpC)"/><path fill="rgb(146,255,0)" stroke="none" paint-order="stroke" d="M 484.0727233886719 77.81818389892578 L 484.1928553879261 77.81818389892578 L 484.1928553879261 130.45454788208008 L 484.0727233886719 130.45454788208008 L 484.0727233886719 77.81818389892578" fill-opacity="1" clip-path="url(#icPTsTfTOmpC)"/><path fill="rgb(143,255,0)" stroke="none" paint-order="stroke" d="M 484.1928405761719 77.81818389892578 L 484.2516285777092 77.81818389892578 L 484.2516285777092 130.45454788208008 L 484.1928405761719 130.45454788208008 L 484.1928405761719 77.81818389892578" fill-opacity="1" clip-path="url(#icPTsTfTOmpC)"/><path fill="rgb(139,255,0)" stroke="none" paint-order="stroke" d="M 484.25164794921875 77.81818389892578 L 484.2772079501301 77.81818389892578 L 484.2772079501301 130.45454788208008 L 484.25164794921875 130.45454788208008 L 484.25164794921875 77.81818389892578" fill-opacity="1" clip-path="url(#icPTsTfTOmpC)"/><path fill="rgb(136,255,0)" stroke="none" paint-order="stroke" d="M 484.2771911621094 77.81818389892578 L 484.4765591621399 77.81818389892578 L 484.4765591621399 130.45454788208008 L 484.2771911621094 130.45454788208008 L 484.2771911621094 77.81818389892578" fill-opacity="1" clip-path="url(#icPTsTfTOmpC)"/><path fill="rgb(132,255,0)" stroke="none" paint-order="stroke" d="M 484.4765625 77.81818389892578 L 484.6593164950609 77.81818389892578 L 484.6593164950609 130.45454788208008 L 484.4765625 130.45454788208008 L 484.4765625 77.81818389892578" fill-opacity="1" clip-path="url(#icPTsTfTOmpC)"/><path fill="rgb(129,255,0)" stroke="none" paint-order="stroke" d="M 484.6593322753906 77.81818389892578 L 484.84336426854134 77.81818389892578 L 484.84336426854134 130.45454788208008 L 484.6593322753906 130.45454788208008 L 484.6593322753906 77.81818389892578" fill-opacity="1" clip-path="url(#icPTsTfTOmpC)"/><path fill="rgb(126,255,0)" stroke="none" paint-order="stroke" d="M 484.8433532714844 77.81818389892578 L 485.02866327762604 77.81818389892578 L 485.02866327762604 130.45454788208008 L 484.8433532714844 130.45454788208008 L 484.8433532714844 77.81818389892578" fill-opacity="1" clip-path="url(#icPTsTfTOmpC)"/><path fill="rgb(122,255,0)" stroke="none" paint-order="stroke" d="M 485.0286560058594 77.81818389892578 L 485.2024639993906 77.81818389892578 L 485.2024639993906 130.45454788208008 L 485.0286560058594 130.45454788208008 L 485.0286560058594 77.81818389892578" fill-opacity="1" clip-path="url(#icPTsTfTOmpC)"/><path fill="rgb(119,255,0)" stroke="none" paint-order="stroke" d="M 485.2024841308594 77.81818389892578 L 485.4044081270695 77.81818389892578 L 485.4044081270695 130.45454788208008 L 485.2024841308594 130.45454788208008 L 485.2024841308594 77.81818389892578" fill-opacity="1" clip-path="url(#icPTsTfTOmpC)"/><path fill="rgb(115,255,0)" stroke="none" paint-order="stroke" d="M 485.4043884277344 77.81818389892578 L 485.596088424325 77.81818389892578 L 485.596088424325 130.45454788208008 L 485.4043884277344 130.45454788208008 L 485.4043884277344 77.81818389892578" fill-opacity="1" clip-path="url(#icPTsTfTOmpC)"/><path fill="rgb(111,255,0)" stroke="none" paint-order="stroke" d="M 485.5960998535156 77.81818389892578 L 485.7647958546877 77.81818389892578 L 485.7647958546877 130.45454788208008 L 485.5960998535156 130.45454788208008 L 485.5960998535156 77.81818389892578" fill-opacity="1" clip-path="url(#icPTsTfTOmpC)"/><path fill="rgb(108,255,0)" stroke="none" paint-order="stroke" d="M 485.7648010253906 77.81818389892578 L 485.97950503230095 77.81818389892578 L 485.97950503230095 130.45454788208008 L 485.7648010253906 130.45454788208008 L 485.7648010253906 77.81818389892578" fill-opacity="1" clip-path="url(#icPTsTfTOmpC)"/><path fill="rgb(104,255,0)" stroke="none" paint-order="stroke" d="M 485.9794921875 77.81818389892578 L 486.04339218884706 77.81818389892578 L 486.04339218884706 130.45454788208008 L 485.9794921875 130.45454788208008 L 485.9794921875 77.81818389892578" fill-opacity="1" clip-path="url(#icPTsTfTOmpC)"/><path fill="rgb(101,255,0)" stroke="none" paint-order="stroke" d="M 486.04339599609375 77.81818389892578 L 486.2581000030041 77.81818389892578 L 486.2581000030041 130.45454788208008 L 486.04339599609375 130.45454788208008 L 486.04339599609375 77.81818389892578" fill-opacity="1" clip-path="url(#icPTsTfTOmpC)"/><path fill="rgb(97,255,0)" stroke="none" paint-order="stroke" d="M 486.2580871582031 77.81818389892578 L 486.3564931601286 77.81818389892578 L 486.3564931601286 130.45454788208008 L 486.2580871582031 130.45454788208008 L 486.2580871582031 77.81818389892578" fill-opacity="1" clip-path="url(#icPTsTfTOmpC)"/><path fill="rgb(93,255,0)" stroke="none" paint-order="stroke" d="M 486.35650634765625 77.81818389892578 L 486.61338433623314 77.81818389892578 L 486.61338433623314 130.45454788208008 L 486.35650634765625 130.45454788208008 L 486.35650634765625 77.81818389892578" fill-opacity="1" clip-path="url(#icPTsTfTOmpC)"/><path fill="rgb(89,255,0)" stroke="none" paint-order="stroke" d="M 486.6133728027344 77.81818389892578 L 487.26770877838135 77.81818389892578 L 487.26770877838135 130.45454788208008 L 486.6133728027344 130.45454788208008 L 486.6133728027344 77.81818389892578" fill-opacity="1" clip-path="url(#icPTsTfTOmpC)"/><path fill="rgb(86,255,0)" stroke="none" paint-order="stroke" d="M 487.2677307128906 77.81818389892578 L 487.49265871942043 77.81818389892578 L 487.49265871942043 130.45454788208008 L 487.2677307128906 130.45454788208008 L 487.2677307128906 77.81818389892578" fill-opacity="1" clip-path="url(#icPTsTfTOmpC)"/><path fill="rgb(82,255,0)" stroke="none" paint-order="stroke" d="M 487.4926452636719 77.81818389892578 L 487.5961632654071 77.81818389892578 L 487.5961632654071 130.45454788208008 L 487.4926452636719 130.45454788208008 L 487.4926452636719 77.81818389892578" fill-opacity="1" clip-path="url(#icPTsTfTOmpC)"/><path fill="rgb(78,255,0)" stroke="none" paint-order="stroke" d="M 487.5961608886719 77.81818389892578 L 487.6651728898287 77.81818389892578 L 487.6651728898287 130.45454788208008 L 487.5961608886719 130.45454788208008 L 487.5961608886719 77.81818389892578" fill-opacity="1" clip-path="url(#icPTsTfTOmpC)"/><path fill="rgb(74,255,0)" stroke="none" paint-order="stroke" d="M 487.6651916503906 77.81818389892578 L 487.8913976550102 77.81818389892578 L 487.8913976550102 130.45454788208008 L 487.6651916503906 130.45454788208008 L 487.6651916503906 77.81818389892578" fill-opacity="1" clip-path="url(#icPTsTfTOmpC)"/><path fill="rgb(70,255,0)" stroke="none" paint-order="stroke" d="M 487.8913879394531 77.81818389892578 L 488.304181933403 77.81818389892578 L 488.304181933403 130.45454788208008 L 487.8913879394531 130.45454788208008 L 487.8913879394531 77.81818389892578" fill-opacity="1" clip-path="url(#icPTsTfTOmpC)"/><path fill="rgb(66,255,0)" stroke="none" paint-order="stroke" d="M 488.3041687011719 77.81818389892578 L 488.6172786951065 77.81818389892578 L 488.6172786951065 130.45454788208008 L 488.3041687011719 130.45454788208008 L 488.3041687011719 77.81818389892578" fill-opacity="1" clip-path="url(#icPTsTfTOmpC)"/><path fill="rgb(62,255,0)" stroke="none" paint-order="stroke" d="M 488.6172790527344 77.81818389892578 L 488.98406505584717 77.81818389892578 L 488.98406505584717 130.45454788208008 L 488.6172790527344 130.45454788208008 L 488.6172790527344 77.81818389892578" fill-opacity="1" clip-path="url(#icPTsTfTOmpC)"/><path fill="rgb(58,255,0)" stroke="none" paint-order="stroke" d="M 488.98406982421875 77.81818389892578 L 489.47609981894493 77.81818389892578 L 489.47609981894493 130.45454788208008 L 488.98406982421875 130.45454788208008 L 488.98406982421875 77.81818389892578" fill-opacity="1" clip-path="url(#icPTsTfTOmpC)"/><path fill="rgb(53,255,0)" stroke="none" paint-order="stroke" d="M 489.4761047363281 77.81818389892578 L 521.115550994873 77.81818389892578 L 521.115550994873 130.45454788208008 L 489.4761047363281 130.45454788208008 L 489.4761047363281 77.81818389892578" fill-opacity="1" clip-path="url(#icPTsTfTOmpC)"/><path fill="rgb(159,255,0)" stroke="none" paint-order="stroke" d="M 521.1155395507812 77.81818389892578 L 527.402021408081 77.81818389892578 L 527.402021408081 130.45454788208008 L 521.1155395507812 130.45454788208008 L 521.1155395507812 77.81818389892578" fill-opacity="1" clip-path="url(#icPTsTfTOmpC)"/><path fill="rgb(0,255,40)" stroke="none" paint-order="stroke" d="M 527.4020385742188 77.81818389892578 L 532.3926286697388 77.81818389892578 L 532.3926286697388 130.45454788208008 L 527.4020385742188 130.45454788208008 L 527.4020385742188 77.81818389892578" fill-opacity="1" clip-path="url(#icPTsTfTOmpC)"/><path fill="rgb(159,255,0)" stroke="none" paint-order="stroke" d="M 532.3926391601562 77.81818389892578 L 552.1850242614746 77.81818389892578 L 552.1850242614746 130.45454788208008 L 532.3926391601562 130.45454788208008 L 532.3926391601562 77.81818389892578" fill-opacity="1" clip-path="url(#icPTsTfTOmpC)"/><path fill="rgb(42,0,238)" stroke="none" paint-order="stroke" d="M 552.1849975585938 77.81818389892578 L 564.8844833374023 77.81818389892578 L 564.8844833374023 130.45454788208008 L 552.1849975585938 130.45454788208008 L 552.1849975585938 77.81818389892578" fill-opacity="1" clip-path="url(#icPTsTfTOmpC)"/><path fill="rgb(159,255,0)" stroke="none" paint-order="stroke" d="M 564.884521484375 77.81818389892578 L 615.7054710388184 77.81818389892578 L 615.7054710388184 130.45454788208008 L 564.884521484375 130.45454788208008 L 564.884521484375 77.81818389892578" fill-opacity="1" clip-path="url(#icPTsTfTOmpC)"/><path fill="rgb(42,0,238)" stroke="none" paint-order="stroke" d="M 615.7054443359375 77.81818389892578 L 633.4019107818604 77.81818389892578 L 633.4019107818604 130.45454788208008 L 615.7054443359375 130.45454788208008 L 615.7054443359375 77.81818389892578" fill-opacity="1" clip-path="url(#icPTsTfTOmpC)"/><path fill="rgb(251,0,7)" stroke="none" paint-order="stroke" d="M 58.5 130.4545440673828 L 399.1802978515625 130.4545440673828 L 399.1802978515625 183.0909080505371 L 58.5 183.0909080505371 L 58.5 130.4545440673828" fill-opacity="1" clip-path="url(#HqNxZmXRIigl)"/><path fill="rgb(237,115,111)" stroke="none" paint-order="stroke" d="M 399.1802978515625 130.4545440673828 L 521.1155548095703 130.4545440673828 L 521.1155548095703 183.0909080505371 L 399.1802978515625 183.0909080505371 L 399.1802978515625 130.4545440673828" fill-opacity="1" clip-path="url(#HqNxZmXRIigl)"/><path fill="rgb(251,0,7)" stroke="none" paint-order="stroke" d="M 521.1155395507812 130.4545440673828 L 527.402021408081 130.4545440673828 L 527.402021408081 183.0909080505371 L 521.1155395507812 183.0909080505371 L 521.1155395507812 130.4545440673828" fill-opacity="1" clip-path="url(#HqNxZmXRIigl)"/><path fill="rgb(251,0,7)" stroke="none" paint-order="stroke" d="M 527.4020385742188 130.4545440673828 L 532.3926286697388 130.4545440673828 L 532.3926286697388 183.0909080505371 L 527.4020385742188 183.0909080505371 L 527.4020385742188 130.4545440673828" fill-opacity="1" clip-path="url(#HqNxZmXRIigl)"/><path fill="rgb(237,115,111)" stroke="none" paint-order="stroke" d="M 532.3926391601562 130.4545440673828 L 552.1850242614746 130.4545440673828 L 552.1850242614746 183.0909080505371 L 532.3926391601562 183.0909080505371 L 532.3926391601562 130.4545440673828" fill-opacity="1" clip-path="url(#HqNxZmXRIigl)"/><path fill="rgb(56,126,34)" stroke="none" paint-order="stroke" d="M 552.1849975585938 130.4545440673828 L 564.8844833374023 130.4545440673828 L 564.8844833374023 183.0909080505371 L 552.1849975585938 183.0909080505371 L 552.1849975585938 130.4545440673828" fill-opacity="1" clip-path="url(#HqNxZmXRIigl)"/><path fill="rgb(251,0,7)" stroke="none" paint-order="stroke" d="M 564.884521484375 130.4545440673828 L 615.7054710388184 130.4545440673828 L 615.7054710388184 183.0909080505371 L 564.884521484375 183.0909080505371 L 564.884521484375 130.4545440673828" fill-opacity="1" clip-path="url(#HqNxZmXRIigl)"/><path fill="rgb(56,126,34)" stroke="none" paint-order="stroke" d="M 615.7054443359375 130.4545440673828 L 633.4019107818604 130.4545440673828 L 633.4019107818604 183.0909080505371 L 615.7054443359375 183.0909080505371 L 615.7054443359375 130.4545440673828" fill-opacity="1" clip-path="url(#HqNxZmXRIigl)"/><path fill="rgb(105,29,48)" stroke="none" paint-order="stroke" d="M 408.364013671875 183.09091186523438 L 408.42791367322206 183.09091186523438 L 408.42791367322206 498.9090881347656 L 408.364013671875 498.9090881347656 L 408.364013671875 183.09091186523438" fill-opacity="1" clip-path="url(#MbIgTmiRnvWx)"/><path fill="rgb(255,188,66)" stroke="none" paint-order="stroke" d="M 118.90467071533203 183.09091186523438 L 121.334148645401 183.09091186523438 L 121.334148645401 498.9090881347656 L 118.90467071533203 498.9090881347656 L 118.90467071533203 183.09091186523438" fill-opacity="1" clip-path="url(#EbWrhvEkakzK)"/><path fill="rgb(255,188,66)" stroke="none" paint-order="stroke" d="M 188.6272430419922 183.09091186523438 L 188.79210504889488 183.09091186523438 L 188.79210504889488 498.9090881347656 L 188.6272430419922 498.9090881347656 L 188.6272430419922 183.09091186523438" fill-opacity="1" clip-path="url(#EbWrhvEkakzK)"/><path fill="rgb(255,188,66)" stroke="none" paint-order="stroke" d="M 345.02886962890625 183.09091186523438 L 345.16050362586975 183.09091186523438 L 345.16050362586975 498.9090881347656 L 345.02886962890625 498.9090881347656 L 345.02886962890625 183.09091186523438" fill-opacity="1" clip-path="url(#EbWrhvEkakzK)"/><path fill="rgb(255,188,66)" stroke="none" paint-order="stroke" d="M 345.34326171875 183.09091186523438 L 345.4557257220149 183.09091186523438 L 345.4557257220149 498.9090881347656 L 345.34326171875 498.9090881347656 L 345.34326171875 183.09091186523438" fill-opacity="1" clip-path="url(#EbWrhvEkakzK)"/><path fill="rgb(255,188,66)" stroke="none" paint-order="stroke" d="M 345.5809631347656 183.09091186523438 L 345.76116113364697 183.09091186523438 L 345.76116113364697 498.9090881347656 L 345.5809631347656 498.9090881347656 L 345.5809631347656 183.09091186523438" fill-opacity="1" clip-path="url(#EbWrhvEkakzK)"/><path fill="rgb(255,188,66)" stroke="none" paint-order="stroke" d="M 352.645751953125 183.09091186523438 L 353.07004794478416 183.09091186523438 L 353.07004794478416 498.9090881347656 L 352.645751953125 498.9090881347656 L 352.645751953125 183.09091186523438" fill-opacity="1" clip-path="url(#EbWrhvEkakzK)"/><path fill="rgb(255,188,66)" stroke="none" paint-order="stroke" d="M 353.3256530761719 183.09091186523438 L 353.39083107560873 183.09091186523438 L 353.39083107560873 498.9090881347656 L 353.3256530761719 498.9090881347656 L 353.3256530761719 183.09091186523438" fill-opacity="1" clip-path="url(#EbWrhvEkakzK)"/><path fill="rgb(255,188,66)" stroke="none" paint-order="stroke" d="M 353.9122619628906 183.09091186523438 L 354.1435799598694 183.09091186523438 L 354.1435799598694 498.9090881347656 L 353.9122619628906 498.9090881347656 L 353.9122619628906 183.09091186523438" fill-opacity="1" clip-path="url(#EbWrhvEkakzK)"/><path fill="rgb(255,188,66)" stroke="none" paint-order="stroke" d="M 354.5244140625 183.09091186523438 L 354.7378400564194 183.09091186523438 L 354.7378400564194 498.9090881347656 L 354.5244140625 498.9090881347656 L 354.5244140625 183.09091186523438" fill-opacity="1" clip-path="url(#EbWrhvEkakzK)"/><path fill="rgb(255,188,66)" stroke="none" paint-order="stroke" d="M 355.0151672363281 183.09091186523438 L 355.1774732321501 183.09091186523438 L 355.1774732321501 498.9090881347656 L 355.0151672363281 498.9090881347656 L 355.0151672363281 183.09091186523438" fill-opacity="1" clip-path="url(#EbWrhvEkakzK)"/><path fill="rgb(255,188,66)" stroke="none" paint-order="stroke" d="M 356.24078369140625 183.09091186523438 L 356.36347169429064 183.09091186523438 L 356.36347169429064 498.9090881347656 L 356.24078369140625 498.9090881347656 L 356.24078369140625 183.09091186523438" fill-opacity="1" clip-path="url(#EbWrhvEkakzK)"/><path fill="rgb(255,188,66)" stroke="none" paint-order="stroke" d="M 454.8985290527344 183.09091186523438 L 454.99054504930973 183.09091186523438 L 454.99054504930973 498.9090881347656 L 454.8985290527344 498.9090881347656 L 454.8985290527344 183.09091186523438" fill-opacity="1" clip-path="url(#EbWrhvEkakzK)"/><path fill="rgb(255,188,66)" stroke="none" paint-order="stroke" d="M 455.01611328125 183.09091186523438 L 456.196985244751 183.09091186523438 L 456.196985244751 498.9090881347656 L 455.01611328125 498.9090881347656 L 455.01611328125 183.09091186523438" fill-opacity="1" clip-path="url(#EbWrhvEkakzK)"/><path fill="rgb(255,188,66)" stroke="none" paint-order="stroke" d="M 456.9446105957031 183.09091186523438 L 457.0455725938082 183.09091186523438 L 457.0455725938082 498.9090881347656 L 456.9446105957031 498.9090881347656 L 456.9446105957031 183.09091186523438" fill-opacity="1" clip-path="url(#EbWrhvEkakzK)"/><path fill="rgb(255,188,66)" stroke="none" paint-order="stroke" d="M 458.3657531738281 183.09091186523438 L 458.42454117536545 183.09091186523438 L 458.42454117536545 498.9090881347656 L 458.3657531738281 498.9090881347656 L 458.3657531738281 183.09091186523438" fill-opacity="1" clip-path="url(#EbWrhvEkakzK)"/><path fill="rgb(255,188,66)" stroke="none" paint-order="stroke" d="M 477.69805908203125 183.09091186523438 L 477.83097107708454 183.09091186523438 L 477.83097107708454 498.9090881347656 L 477.69805908203125 498.9090881347656 L 477.69805908203125 183.09091186523438" fill-opacity="1" clip-path="url(#EbWrhvEkakzK)"/><path fill="rgb(255,188,66)" stroke="none" paint-order="stroke" d="M 478.2769775390625 183.09091186523438 L 478.41244554519653 183.09091186523438 L 478.41244554519653 498.9090881347656 L 478.2769775390625 498.9090881347656 L 478.2769775390625 183.09091186523438" fill-opacity="1" clip-path="url(#EbWrhvEkakzK)"/><path fill="rgb(162,174,187)" stroke="none" paint-order="stroke" d="M 224.71156311035156 183.09091186523438 L 224.77546311169863 183.09091186523438 L 224.77546311169863 498.9090881347656 L 224.71156311035156 498.9090881347656 L 224.71156311035156 183.09091186523438" fill-opacity="1" clip-path="url(#yTWGApViEiiZ)"/><path fill="rgb(162,174,187)" stroke="none" paint-order="stroke" d="M 576.4963989257812 183.09091186523438 L 576.5602989271283 183.09091186523438 L 576.5602989271283 498.9090881347656 L 576.4963989257812 498.9090881347656 L 576.4963989257812 183.09091186523438" fill-opacity="1" clip-path="url(#yTWGApViEiiZ)"/><path fill="rgb(162,174,187)" stroke="none" paint-order="stroke" d="M 578.0044555664062 183.09091186523438 L 578.0683555677533 183.09091186523438 L 578.0683555677533 498.9090881347656 L 578.0044555664062 498.9090881347656 L 578.0044555664062 183.09091186523438" fill-opacity="1" clip-path="url(#yTWGApViEiiZ)"/><path fill="rgb(255,188,66)" stroke="none" paint-order="stroke" d="M 225.5780487060547 183.09091186523438 L 226.2732806801796 183.09091186523438 L 226.2732806801796 498.9090881347656 L 225.5780487060547 498.9090881347656 L 225.5780487060547 183.09091186523438" fill-opacity="1" clip-path="url(#IkWdtgvdsaxL)"/><path fill="rgb(255,188,66)" stroke="none" paint-order="stroke" d="M 233.84799194335938 183.09091186523438 L 236.2672460079193 183.09091186523438 L 236.2672460079193 498.9090881347656 L 233.84799194335938 498.9090881347656 L 233.84799194335938 183.09091186523438" fill-opacity="1" clip-path="url(#IkWdtgvdsaxL)"/><path fill="rgb(255,188,66)" stroke="none" paint-order="stroke" d="M 410.20050048828125 183.09091186523438 L 413.5629184246063 183.09091186523438 L 413.5629184246063 498.9090881347656 L 410.20050048828125 498.9090881347656 L 410.20050048828125 183.09091186523438" fill-opacity="1" clip-path="url(#IkWdtgvdsaxL)"/><path fill="rgb(255,188,66)" stroke="none" paint-order="stroke" d="M 442.5696716308594 183.09091186523438 L 443.1843896508217 183.09091186523438 L 443.1843896508217 498.9090881347656 L 442.5696716308594 498.9090881347656 L 442.5696716308594 183.09091186523438" fill-opacity="1" clip-path="url(#IkWdtgvdsaxL)"/><path fill="rgb(255,188,66)" stroke="none" paint-order="stroke" d="M 447.4248046875 183.09091186523438 L 449.84789276123047 183.09091186523438 L 449.84789276123047 498.9090881347656 L 447.4248046875 498.9090881347656 L 447.4248046875 183.09091186523438" fill-opacity="1" clip-path="url(#IkWdtgvdsaxL)"/><path fill="rgb(255,188,66)" stroke="none" paint-order="stroke" d="M 568.2788696289062 183.09091186523438 L 572.7557034492493 183.09091186523438 L 572.7557034492493 498.9090881347656 L 568.2788696289062 498.9090881347656 L 568.2788696289062 183.09091186523438" fill-opacity="1" clip-path="url(#IkWdtgvdsaxL)"/><path fill="rgb(216,17,89)" stroke="none" paint-order="stroke" d="M 103.52010345458984 183.09091186523438 L 103.58400345593691 183.09091186523438 L 103.58400345593691 498.9090881347656 L 103.52010345458984 498.9090881347656 L 103.52010345458984 183.09091186523438" fill-opacity="1" clip-path="url(#TcpandGihgpv)"/><path fill="rgb(33,131,128)" stroke="none" paint-order="stroke" d="M 202.74658203125 183.09091186523438 L 207.23875188827515 183.09091186523438 L 207.23875188827515 498.9090881347656 L 202.74658203125 498.9090881347656 L 202.74658203125 183.09091186523438" fill-opacity="1" clip-path="url(#cFzEaipNvMEI)"/><path fill="rgb(33,131,128)" stroke="none" paint-order="stroke" d="M 315.7000427246094 183.09091186523438 L 316.3888847231865 183.09091186523438 L 316.3888847231865 498.9090881347656 L 315.7000427246094 498.9090881347656 L 315.7000427246094 183.09091186523438" fill-opacity="1" clip-path="url(#cFzEaipNvMEI)"/><path fill="rgb(33,131,128)" stroke="none" paint-order="stroke" d="M 333.2150573730469 183.09091186523438 L 342.4831132888794 183.09091186523438 L 342.4831132888794 498.9090881347656 L 333.2150573730469 498.9090881347656 L 333.2150573730469 183.09091186523438" fill-opacity="1" clip-path="url(#cFzEaipNvMEI)"/><path fill="rgb(33,131,128)" stroke="none" paint-order="stroke" d="M 396.6817932128906 183.09091186523438 L 399.1802833080292 183.09091186523438 L 399.1802833080292 498.9090881347656 L 396.6817932128906 498.9090881347656 L 396.6817932128906 183.09091186523438" fill-opacity="1" clip-path="url(#cFzEaipNvMEI)"/><path fill="rgb(33,131,128)" stroke="none" paint-order="stroke" d="M 519.3071899414062 183.09091186523438 L 521.1155599355698 183.09091186523438 L 521.1155599355698 498.9090881347656 L 519.3071899414062 498.9090881347656 L 519.3071899414062 183.09091186523438" fill-opacity="1" clip-path="url(#cFzEaipNvMEI)"/><path fill="rgb(33,131,128)" stroke="none" paint-order="stroke" d="M 525.5323486328125 183.09091186523438 L 527.4020626544952 183.09091186523438 L 527.4020626544952 498.9090881347656 L 525.5323486328125 498.9090881347656 L 525.5323486328125 183.09091186523438" fill-opacity="1" clip-path="url(#cFzEaipNvMEI)"/><path fill="rgb(33,131,128)" stroke="none" paint-order="stroke" d="M 530.8155517578125 183.09091186523438 L 532.3926037549973 183.09091186523438 L 532.3926037549973 498.9090881347656 L 530.8155517578125 498.9090881347656 L 530.8155517578125 183.09091186523438" fill-opacity="1" clip-path="url(#cFzEaipNvMEI)"/><path fill="rgb(33,131,128)" stroke="none" paint-order="stroke" d="M 550.5619506835938 183.09091186523438 L 552.1850106716156 183.09091186523438 L 552.1850106716156 498.9090881347656 L 550.5619506835938 498.9090881347656 L 550.5619506835938 183.09091186523438" fill-opacity="1" clip-path="url(#cFzEaipNvMEI)"/><path fill="rgb(33,131,128)" stroke="none" paint-order="stroke" d="M 558.3820190429688 183.09091186523438 L 564.8844828605652 183.09091186523438 L 564.8844828605652 498.9090881347656 L 558.3820190429688 498.9090881347656 L 558.3820190429688 183.09091186523438" fill-opacity="1" clip-path="url(#cFzEaipNvMEI)"/><path fill="rgb(33,131,128)" stroke="none" paint-order="stroke" d="M 614.433837890625 183.09091186523438 L 615.7054479122162 183.09091186523438 L 615.7054479122162 498.9090881347656 L 614.433837890625 498.9090881347656 L 614.433837890625 183.09091186523438" fill-opacity="1" clip-path="url(#cFzEaipNvMEI)"/><path fill="rgb(115,210,222)" stroke="none" paint-order="stroke" d="M 304.9597473144531 183.09091186523438 L 305.0236473158002 183.09091186523438 L 305.0236473158002 498.9090881347656 L 304.9597473144531 498.9090881347656 L 304.9597473144531 183.09091186523438" fill-opacity="1" clip-path="url(#qMgoRuQTCmgi)"/><path fill="rgb(115,210,222)" stroke="none" paint-order="stroke" d="M 304.9597473144531 183.09091186523438 L 305.0236473158002 183.09091186523438 L 305.0236473158002 498.9090881347656 L 304.9597473144531 498.9090881347656 L 304.9597473144531 183.09091186523438" fill-opacity="1" clip-path="url(#qMgoRuQTCmgi)"/><path fill="rgb(115,210,222)" stroke="none" paint-order="stroke" d="M 305.24346923828125 183.09091186523438 L 305.3073692396283 183.09091186523438 L 305.3073692396283 498.9090881347656 L 305.24346923828125 498.9090881347656 L 305.24346923828125 183.09091186523438" fill-opacity="1" clip-path="url(#qMgoRuQTCmgi)"/><path fill="rgb(115,210,222)" stroke="none" paint-order="stroke" d="M 305.24346923828125 183.09091186523438 L 305.3073692396283 183.09091186523438 L 305.3073692396283 498.9090881347656 L 305.24346923828125 498.9090881347656 L 305.24346923828125 183.09091186523438" fill-opacity="1" clip-path="url(#qMgoRuQTCmgi)"/><path fill="rgb(115,210,222)" stroke="none" paint-order="stroke" d="M 305.6728820800781 183.09091186523438 L 305.7367820814252 183.09091186523438 L 305.7367820814252 498.9090881347656 L 305.6728820800781 498.9090881347656 L 305.6728820800781 183.09091186523438" fill-opacity="1" clip-path="url(#qMgoRuQTCmgi)"/><path fill="rgb(115,210,222)" stroke="none" paint-order="stroke" d="M 305.6728820800781 183.09091186523438 L 305.7367820814252 183.09091186523438 L 305.7367820814252 498.9090881347656 L 305.6728820800781 498.9090881347656 L 305.6728820800781 183.09091186523438" fill-opacity="1" clip-path="url(#qMgoRuQTCmgi)"/><path fill="rgb(115,210,222)" stroke="none" paint-order="stroke" d="M 305.8786315917969 183.09091186523438 L 305.94253159314394 183.09091186523438 L 305.94253159314394 498.9090881347656 L 305.8786315917969 498.9090881347656 L 305.8786315917969 183.09091186523438" fill-opacity="1" clip-path="url(#qMgoRuQTCmgi)"/><path fill="rgb(115,210,222)" stroke="none" paint-order="stroke" d="M 305.8786315917969 183.09091186523438 L 305.94253159314394 183.09091186523438 L 305.94253159314394 498.9090881347656 L 305.8786315917969 498.9090881347656 L 305.8786315917969 183.09091186523438" fill-opacity="1" clip-path="url(#qMgoRuQTCmgi)"/><path fill="rgb(115,210,222)" stroke="none" paint-order="stroke" d="M 306.0830993652344 183.09091186523438 L 306.14699936658144 183.09091186523438 L 306.14699936658144 498.9090881347656 L 306.0830993652344 498.9090881347656 L 306.0830993652344 183.09091186523438" fill-opacity="1" clip-path="url(#qMgoRuQTCmgi)"/><path fill="rgb(115,210,222)" stroke="none" paint-order="stroke" d="M 306.0830993652344 183.09091186523438 L 306.14699936658144 183.09091186523438 L 306.14699936658144 498.9090881347656 L 306.0830993652344 498.9090881347656 L 306.0830993652344 183.09091186523438" fill-opacity="1" clip-path="url(#qMgoRuQTCmgi)"/><path fill="rgb(115,210,222)" stroke="none" paint-order="stroke" d="M 306.28631591796875 183.09091186523438 L 306.3502159193158 183.09091186523438 L 306.3502159193158 498.9090881347656 L 306.28631591796875 498.9090881347656 L 306.28631591796875 183.09091186523438" fill-opacity="1" clip-path="url(#qMgoRuQTCmgi)"/><path fill="rgb(115,210,222)" stroke="none" paint-order="stroke" d="M 306.28631591796875 183.09091186523438 L 306.3502159193158 183.09091186523438 L 306.3502159193158 498.9090881347656 L 306.28631591796875 498.9090881347656 L 306.28631591796875 183.09091186523438" fill-opacity="1" clip-path="url(#qMgoRuQTCmgi)"/><path fill="rgb(115,210,222)" stroke="none" paint-order="stroke" d="M 306.45245361328125 183.09091186523438 L 306.5163536146283 183.09091186523438 L 306.5163536146283 498.9090881347656 L 306.45245361328125 498.9090881347656 L 306.45245361328125 183.09091186523438" fill-opacity="1" clip-path="url(#qMgoRuQTCmgi)"/><path fill="rgb(115,210,222)" stroke="none" paint-order="stroke" d="M 306.45245361328125 183.09091186523438 L 306.5163536146283 183.09091186523438 L 306.5163536146283 498.9090881347656 L 306.45245361328125 498.9090881347656 L 306.45245361328125 183.09091186523438" fill-opacity="1" clip-path="url(#qMgoRuQTCmgi)"/><path fill="rgb(115,210,222)" stroke="none" paint-order="stroke" d="M 306.48822021484375 183.09091186523438 L 306.5521202161908 183.09091186523438 L 306.5521202161908 498.9090881347656 L 306.48822021484375 498.9090881347656 L 306.48822021484375 183.09091186523438" fill-opacity="1" clip-path="url(#qMgoRuQTCmgi)"/><path fill="rgb(115,210,222)" stroke="none" paint-order="stroke" d="M 306.48822021484375 183.09091186523438 L 306.5521202161908 183.09091186523438 L 306.5521202161908 498.9090881347656 L 306.48822021484375 498.9090881347656 L 306.48822021484375 183.09091186523438" fill-opacity="1" clip-path="url(#qMgoRuQTCmgi)"/><path fill="rgb(115,210,222)" stroke="none" paint-order="stroke" d="M 306.6454162597656 183.09091186523438 L 306.7093162611127 183.09091186523438 L 306.7093162611127 498.9090881347656 L 306.6454162597656 498.9090881347656 L 306.6454162597656 183.09091186523438" fill-opacity="1" clip-path="url(#qMgoRuQTCmgi)"/><path fill="rgb(115,210,222)" stroke="none" paint-order="stroke" d="M 306.6454162597656 183.09091186523438 L 306.7093162611127 183.09091186523438 L 306.7093162611127 498.9090881347656 L 306.6454162597656 498.9090881347656 L 306.6454162597656 183.09091186523438" fill-opacity="1" clip-path="url(#qMgoRuQTCmgi)"/><path fill="rgb(115,210,222)" stroke="none" paint-order="stroke" d="M 306.8384094238281 183.09091186523438 L 306.9023094251752 183.09091186523438 L 306.9023094251752 498.9090881347656 L 306.8384094238281 498.9090881347656 L 306.8384094238281 183.09091186523438" fill-opacity="1" clip-path="url(#qMgoRuQTCmgi)"/><path fill="rgb(115,210,222)" stroke="none" paint-order="stroke" d="M 306.8384094238281 183.09091186523438 L 306.9023094251752 183.09091186523438 L 306.9023094251752 498.9090881347656 L 306.8384094238281 498.9090881347656 L 306.8384094238281 183.09091186523438" fill-opacity="1" clip-path="url(#qMgoRuQTCmgi)"/><path fill="rgb(115,210,222)" stroke="none" paint-order="stroke" d="M 307.03265380859375 183.09091186523438 L 307.0965538099408 183.09091186523438 L 307.0965538099408 498.9090881347656 L 307.03265380859375 498.9090881347656 L 307.03265380859375 183.09091186523438" fill-opacity="1" clip-path="url(#qMgoRuQTCmgi)"/><path fill="rgb(115,210,222)" stroke="none" paint-order="stroke" d="M 307.03265380859375 183.09091186523438 L 307.0965538099408 183.09091186523438 L 307.0965538099408 498.9090881347656 L 307.03265380859375 498.9090881347656 L 307.03265380859375 183.09091186523438" fill-opacity="1" clip-path="url(#qMgoRuQTCmgi)"/><path fill="rgb(115,210,222)" stroke="none" paint-order="stroke" d="M 307.2384033203125 183.09091186523438 L 307.30230332165956 183.09091186523438 L 307.30230332165956 498.9090881347656 L 307.2384033203125 498.9090881347656 L 307.2384033203125 183.09091186523438" fill-opacity="1" clip-path="url(#qMgoRuQTCmgi)"/><path fill="rgb(115,210,222)" stroke="none" paint-order="stroke" d="M 307.2384033203125 183.09091186523438 L 307.30230332165956 183.09091186523438 L 307.30230332165956 498.9090881347656 L 307.2384033203125 498.9090881347656 L 307.2384033203125 183.09091186523438" fill-opacity="1" clip-path="url(#qMgoRuQTCmgi)"/><path fill="rgb(115,210,222)" stroke="none" paint-order="stroke" d="M 307.4940185546875 183.09091186523438 L 307.55791855603456 183.09091186523438 L 307.55791855603456 498.9090881347656 L 307.4940185546875 498.9090881347656 L 307.4940185546875 183.09091186523438" fill-opacity="1" clip-path="url(#qMgoRuQTCmgi)"/><path fill="rgb(115,210,222)" stroke="none" paint-order="stroke" d="M 307.4940185546875 183.09091186523438 L 307.55791855603456 183.09091186523438 L 307.55791855603456 498.9090881347656 L 307.4940185546875 498.9090881347656 L 307.4940185546875 183.09091186523438" fill-opacity="1" clip-path="url(#qMgoRuQTCmgi)"/><path fill="rgb(115,210,222)" stroke="none" paint-order="stroke" d="M 307.7087097167969 183.09091186523438 L 307.77260971814394 183.09091186523438 L 307.77260971814394 498.9090881347656 L 307.7087097167969 498.9090881347656 L 307.7087097167969 183.09091186523438" fill-opacity="1" clip-path="url(#qMgoRuQTCmgi)"/><path fill="rgb(115,210,222)" stroke="none" paint-order="stroke" d="M 307.7087097167969 183.09091186523438 L 307.77260971814394 183.09091186523438 L 307.77260971814394 498.9090881347656 L 307.7087097167969 498.9090881347656 L 307.7087097167969 183.09091186523438" fill-opacity="1" clip-path="url(#qMgoRuQTCmgi)"/><path fill="rgb(115,210,222)" stroke="none" paint-order="stroke" d="M 308.0052185058594 183.09091186523438 L 308.06911850720644 183.09091186523438 L 308.06911850720644 498.9090881347656 L 308.0052185058594 498.9090881347656 L 308.0052185058594 183.09091186523438" fill-opacity="1" clip-path="url(#qMgoRuQTCmgi)"/><path fill="rgb(115,210,222)" stroke="none" paint-order="stroke" d="M 308.0052185058594 183.09091186523438 L 308.06911850720644 183.09091186523438 L 308.06911850720644 498.9090881347656 L 308.0052185058594 498.9090881347656 L 308.0052185058594 183.09091186523438" fill-opacity="1" clip-path="url(#qMgoRuQTCmgi)"/><path fill="rgb(115,210,222)" stroke="none" paint-order="stroke" d="M 468.57440185546875 183.09091186523438 L 474.53882789611816 183.09091186523438 L 474.53882789611816 498.9090881347656 L 468.57440185546875 498.9090881347656 L 468.57440185546875 183.09091186523438" fill-opacity="1" clip-path="url(#qMgoRuQTCmgi)"/><path fill="rgb(115,210,222)" stroke="none" paint-order="stroke" d="M 513.2392578125 183.09091186523438 L 514.9249398708344 183.09091186523438 L 514.9249398708344 498.9090881347656 L 513.2392578125 498.9090881347656 L 513.2392578125 183.09091186523438" fill-opacity="1" clip-path="url(#qMgoRuQTCmgi)"/><path fill="rgb(115,210,222)" stroke="none" paint-order="stroke" d="M 514.9453735351562 183.09091186523438 L 518.5186614990234 183.09091186523438 L 518.5186614990234 498.9090881347656 L 514.9453735351562 498.9090881347656 L 514.9453735351562 183.09091186523438" fill-opacity="1" clip-path="url(#qMgoRuQTCmgi)"/><path fill="rgb(115,210,222)" stroke="none" paint-order="stroke" d="M 522.9149780273438 183.09091186523438 L 524.6313320398331 183.09091186523438 L 524.6313320398331 498.9090881347656 L 522.9149780273438 498.9090881347656 L 522.9149780273438 183.09091186523438" fill-opacity="1" clip-path="url(#qMgoRuQTCmgi)"/><path fill="rgb(115,210,222)" stroke="none" paint-order="stroke" d="M 528.4576416015625 183.09091186523438 L 529.9273415803909 183.09091186523438 L 529.9273415803909 498.9090881347656 L 528.4576416015625 498.9090881347656 L 528.4576416015625 183.09091186523438" fill-opacity="1" clip-path="url(#qMgoRuQTCmgi)"/><path fill="rgb(115,210,222)" stroke="none" paint-order="stroke" d="M 609.1646118164062 183.09091186523438 L 609.8981838226318 183.09091186523438 L 609.8981838226318 498.9090881347656 L 609.1646118164062 498.9090881347656 L 609.1646118164062 183.09091186523438" fill-opacity="1" clip-path="url(#qMgoRuQTCmgi)"/><path fill="rgb(115,210,222)" stroke="none" paint-order="stroke" d="M 611.1467895507812 183.09091186523438 L 611.8126275539398 183.09091186523438 L 611.8126275539398 498.9090881347656 L 611.1467895507812 498.9090881347656 L 611.1467895507812 183.09091186523438" fill-opacity="1" clip-path="url(#qMgoRuQTCmgi)"/><path fill="rgb(115,210,222)" stroke="none" paint-order="stroke" d="M 611.9660034179688 183.09091186523438 L 611.9864514172077 183.09091186523438 L 611.9864514172077 498.9090881347656 L 611.9660034179688 498.9090881347656 L 611.9660034179688 183.09091186523438" fill-opacity="1" clip-path="url(#qMgoRuQTCmgi)"/><path fill="rgb(115,210,222)" stroke="none" paint-order="stroke" d="M 621.9446411132812 183.09091186523438 L 625.7057950496674 183.09091186523438 L 625.7057950496674 498.9090881347656 L 621.9446411132812 498.9090881347656 L 621.9446411132812 183.09091186523438" fill-opacity="1" clip-path="url(#qMgoRuQTCmgi)"/><path fill="rgb(115,210,222)" stroke="none" paint-order="stroke" d="M 625.7454223632812 183.09091186523438 L 625.7492563633714 183.09091186523438 L 625.7492563633714 498.9090881347656 L 625.7454223632812 498.9090881347656 L 625.7454223632812 183.09091186523438" fill-opacity="1" clip-path="url(#qMgoRuQTCmgi)"/><path fill="rgb(28,49,68)" stroke="none" paint-order="stroke" d="M 116.35633850097656 183.09091186523438 L 118.1634304523468 183.09091186523438 L 118.1634304523468 498.9090881347656 L 116.35633850097656 498.9090881347656 L 116.35633850097656 183.09091186523438" fill-opacity="1" clip-path="url(#kGigoKwNcMDJ)"/><path fill="rgb(28,49,68)" stroke="none" paint-order="stroke" d="M 189.63046264648438 183.09091186523438 L 190.34869867563248 183.09091186523438 L 190.34869867563248 498.9090881347656 L 189.63046264648438 498.9090881347656 L 189.63046264648438 183.09091186523438" fill-opacity="1" clip-path="url(#kGigoKwNcMDJ)"/><path fill="rgb(28,49,68)" stroke="none" paint-order="stroke" d="M 218.13497924804688 183.09091186523438 L 218.7496972680092 183.09091186523438 L 218.7496972680092 498.9090881347656 L 218.13497924804688 498.9090881347656 L 218.13497924804688 183.09091186523438" fill-opacity="1" clip-path="url(#kGigoKwNcMDJ)"/><path fill="rgb(28,49,68)" stroke="none" paint-order="stroke" d="M 228.558349609375 183.09091186523438 L 229.12833762168884 183.09091186523438 L 229.12833762168884 498.9090881347656 L 228.558349609375 498.9090881347656 L 228.558349609375 183.09091186523438" fill-opacity="1" clip-path="url(#kGigoKwNcMDJ)"/><path fill="rgb(28,49,68)" stroke="none" paint-order="stroke" d="M 229.46444702148438 183.09091186523438 L 229.57946702092886 183.09091186523438 L 229.57946702092886 498.9090881347656 L 229.46444702148438 498.9090881347656 L 229.46444702148438 183.09091186523438" fill-opacity="1" clip-path="url(#kGigoKwNcMDJ)"/><path fill="rgb(28,49,68)" stroke="none" paint-order="stroke" d="M 229.77755737304688 183.09091186523438 L 229.91685937345028 183.09091186523438 L 229.91685937345028 498.9090881347656 L 229.77755737304688 498.9090881347656 L 229.77755737304688 183.09091186523438" fill-opacity="1" clip-path="url(#kGigoKwNcMDJ)"/><path fill="rgb(28,49,68)" stroke="none" paint-order="stroke" d="M 230.30409240722656 183.09091186523438 L 230.5366884022951 183.09091186523438 L 230.5366884022951 498.9090881347656 L 230.30409240722656 498.9090881347656 L 230.30409240722656 183.09091186523438" fill-opacity="1" clip-path="url(#kGigoKwNcMDJ)"/><path fill="rgb(28,49,68)" stroke="none" paint-order="stroke" d="M 232.57382202148438 183.09091186523438 L 233.18470603227615 183.09091186523438 L 233.18470603227615 498.9090881347656 L 232.57382202148438 498.9090881347656 L 232.57382202148438 183.09091186523438" fill-opacity="1" clip-path="url(#kGigoKwNcMDJ)"/><path fill="rgb(28,49,68)" stroke="none" paint-order="stroke" d="M 259.72747802734375 183.09091186523438 L 259.91151002049446 183.09091186523438 L 259.91151002049446 498.9090881347656 L 259.72747802734375 498.9090881347656 L 259.72747802734375 183.09091186523438" fill-opacity="1" clip-path="url(#kGigoKwNcMDJ)"/><path fill="rgb(28,49,68)" stroke="none" paint-order="stroke" d="M 267.7980651855469 183.09091186523438 L 267.8134011859074 183.09091186523438 L 267.8134011859074 498.9090881347656 L 267.7980651855469 498.9090881347656 L 267.7980651855469 183.09091186523438" fill-opacity="1" clip-path="url(#kGigoKwNcMDJ)"/><path fill="rgb(28,49,68)" stroke="none" paint-order="stroke" d="M 268.22747802734375 183.09091186523438 L 268.50224801898 183.09091186523438 L 268.50224801898 498.9090881347656 L 268.22747802734375 498.9090881347656 L 268.22747802734375 183.09091186523438" fill-opacity="1" clip-path="url(#kGigoKwNcMDJ)"/><path fill="rgb(28,49,68)" stroke="none" paint-order="stroke" d="M 271.9208984375 183.09091186523438 L 272.1279344409704 183.09091186523438 L 272.1279344409704 498.9090881347656 L 271.9208984375 498.9090881347656 L 271.9208984375 183.09091186523438" fill-opacity="1" clip-path="url(#kGigoKwNcMDJ)"/><path fill="rgb(28,49,68)" stroke="none" paint-order="stroke" d="M 272.2991638183594 183.09091186523438 L 272.5087558180094 183.09091186523438 L 272.5087558180094 498.9090881347656 L 272.2991638183594 498.9090881347656 L 272.2991638183594 183.09091186523438" fill-opacity="1" clip-path="url(#kGigoKwNcMDJ)"/><path fill="rgb(28,49,68)" stroke="none" paint-order="stroke" d="M 272.6404113769531 183.09091186523438 L 272.83722338080406 183.09091186523438 L 272.83722338080406 498.9090881347656 L 272.6404113769531 498.9090881347656 L 272.6404113769531 183.09091186523438" fill-opacity="1" clip-path="url(#kGigoKwNcMDJ)"/><path fill="rgb(28,49,68)" stroke="none" paint-order="stroke" d="M 344.4320373535156 183.09091186523438 L 344.6812473535538 183.09091186523438 L 344.6812473535538 498.9090881347656 L 344.4320373535156 498.9090881347656 L 344.4320373535156 183.09091186523438" fill-opacity="1" clip-path="url(#kGigoKwNcMDJ)"/><path fill="rgb(28,49,68)" stroke="none" paint-order="stroke" d="M 435.7515563964844 183.09091186523438 L 436.2717024087906 183.09091186523438 L 436.2717024087906 498.9090881347656 L 435.7515563964844 498.9090881347656 L 435.7515563964844 183.09091186523438" fill-opacity="1" clip-path="url(#kGigoKwNcMDJ)"/><path fill="rgb(28,49,68)" stroke="none" paint-order="stroke" d="M 436.692138671875 183.09091186523438 L 436.80332466959953 183.09091186523438 L 436.80332466959953 498.9090881347656 L 436.692138671875 498.9090881347656 L 436.692138671875 183.09091186523438" fill-opacity="1" clip-path="url(#kGigoKwNcMDJ)"/><path fill="rgb(28,49,68)" stroke="none" paint-order="stroke" d="M 436.9234619140625 183.09091186523438 L 437.1611699163914 183.09091186523438 L 437.1611699163914 498.9090881347656 L 436.9234619140625 498.9090881347656 L 436.9234619140625 183.09091186523438" fill-opacity="1" clip-path="url(#kGigoKwNcMDJ)"/><path fill="rgb(28,49,68)" stroke="none" paint-order="stroke" d="M 437.58929443359375 183.09091186523438 L 437.91646242141724 183.09091186523438 L 437.91646242141724 498.9090881347656 L 437.58929443359375 498.9090881347656 L 437.58929443359375 183.09091186523438" fill-opacity="1" clip-path="url(#kGigoKwNcMDJ)"/><path fill="rgb(28,49,68)" stroke="none" paint-order="stroke" d="M 441.01434326171875 183.09091186523438 L 441.02456726133823 183.09091186523438 L 441.02456726133823 498.9090881347656 L 441.01434326171875 498.9090881347656 L 441.01434326171875 183.09091186523438" fill-opacity="1" clip-path="url(#kGigoKwNcMDJ)"/><path fill="rgb(28,49,68)" stroke="none" paint-order="stroke" d="M 441.0514221191406 183.09091186523438 L 441.89106810092926 183.09091186523438 L 441.89106810092926 498.9090881347656 L 441.0514221191406 498.9090881347656 L 441.0514221191406 183.09091186523438" fill-opacity="1" clip-path="url(#kGigoKwNcMDJ)"/><path fill="rgb(28,49,68)" stroke="none" paint-order="stroke" d="M 444.1365051269531 183.09091186523438 L 444.45856112241745 183.09091186523438 L 444.45856112241745 498.9090881347656 L 444.1365051269531 498.9090881347656 L 444.1365051269531 183.09091186523438" fill-opacity="1" clip-path="url(#kGigoKwNcMDJ)"/><path fill="rgb(28,49,68)" stroke="none" paint-order="stroke" d="M 453.2818603515625 183.09091186523438 L 453.87357437610626 183.09091186523438 L 453.87357437610626 498.9090881347656 L 453.2818603515625 498.9090881347656 L 453.2818603515625 183.09091186523438" fill-opacity="1" clip-path="url(#kGigoKwNcMDJ)"/><path fill="rgb(28,49,68)" stroke="none" paint-order="stroke" d="M 491.0467529296875 183.09091186523438 L 492.21612298488617 183.09091186523438 L 492.21612298488617 498.9090881347656 L 491.0467529296875 498.9090881347656 L 491.0467529296875 183.09091186523438" fill-opacity="1" clip-path="url(#kGigoKwNcMDJ)"/><path fill="rgb(28,49,68)" stroke="none" paint-order="stroke" d="M 494.2749938964844 183.09091186523438 L 494.68778789043427 183.09091186523438 L 494.68778789043427 498.9090881347656 L 494.2749938964844 498.9090881347656 L 494.2749938964844 183.09091186523438" fill-opacity="1" clip-path="url(#kGigoKwNcMDJ)"/><path fill="rgb(28,49,68)" stroke="none" paint-order="stroke" d="M 495.2731018066406 183.09091186523438 L 495.4047358036041 183.09091186523438 L 495.4047358036041 498.9090881347656 L 495.2731018066406 498.9090881347656 L 495.2731018066406 183.09091186523438" fill-opacity="1" clip-path="url(#kGigoKwNcMDJ)"/><path fill="rgb(28,49,68)" stroke="none" paint-order="stroke" d="M 495.4252014160156 183.09091186523438 L 502.8695511817932 183.09091186523438 L 502.8695511817932 498.9090881347656 L 495.4252014160156 498.9090881347656 L 495.4252014160156 183.09091186523438" fill-opacity="1" clip-path="url(#kGigoKwNcMDJ)"/><path fill="rgb(28,49,68)" stroke="none" paint-order="stroke" d="M 506.7955627441406 183.09091186523438 L 507.3578827381134 183.09091186523438 L 507.3578827381134 498.9090881347656 L 506.7955627441406 498.9090881347656 L 506.7955627441406 183.09091186523438" fill-opacity="1" clip-path="url(#kGigoKwNcMDJ)"/><path fill="rgb(28,49,68)" stroke="none" paint-order="stroke" d="M 618.3074340820312 183.09091186523438 L 620.4071881771088 183.09091186523438 L 620.4071881771088 498.9090881347656 L 618.3074340820312 498.9090881347656 L 618.3074340820312 183.09091186523438" fill-opacity="1" clip-path="url(#kGigoKwNcMDJ)"/><path fill="rgb(239,185,203)" stroke="none" paint-order="stroke" d="M 66.05042266845703 183.09091186523438 L 99.87013626098633 183.09091186523438 L 99.87013626098633 498.9090881347656 L 66.05042266845703 498.9090881347656 L 66.05042266845703 183.09091186523438" fill-opacity="1" clip-path="url(#opuQFVtfKAdy)"/><path fill="rgb(239,185,203)" stroke="none" paint-order="stroke" d="M 145.1394500732422 183.09091186523438 L 185.9229850769043 183.09091186523438 L 185.9229850769043 498.9090881347656 L 145.1394500732422 498.9090881347656 L 145.1394500732422 183.09091186523438" fill-opacity="1" clip-path="url(#opuQFVtfKAdy)"/><path fill="rgb(239,185,203)" stroke="none" paint-order="stroke" d="M 208.30715942382812 183.09091186523438 L 212.21400547027588 183.09091186523438 L 212.21400547027588 498.9090881347656 L 208.30715942382812 498.9090881347656 L 208.30715942382812 183.09091186523438" fill-opacity="1" clip-path="url(#opuQFVtfKAdy)"/><path fill="rgb(239,185,203)" stroke="none" paint-order="stroke" d="M 212.25106811523438 183.09091186523438 L 214.42366814613342 183.09091186523438 L 214.42366814613342 498.9090881347656 L 212.25106811523438 498.9090881347656 L 212.25106811523438 183.09091186523438" fill-opacity="1" clip-path="url(#opuQFVtfKAdy)"/><path fill="rgb(239,185,203)" stroke="none" paint-order="stroke" d="M 244.1499481201172 183.09091186523438 L 252.79050636291504 183.09091186523438 L 252.79050636291504 498.9090881347656 L 244.1499481201172 498.9090881347656 L 244.1499481201172 183.09091186523438" fill-opacity="1" clip-path="url(#opuQFVtfKAdy)"/><path fill="rgb(239,185,203)" stroke="none" paint-order="stroke" d="M 283.765380859375 183.09091186523438 L 298.3039093017578 183.09091186523438 L 298.3039093017578 498.9090881347656 L 283.765380859375 498.9090881347656 L 283.765380859375 183.09091186523438" fill-opacity="1" clip-path="url(#opuQFVtfKAdy)"/><path fill="rgb(239,185,203)" stroke="none" paint-order="stroke" d="M 322.41082763671875 183.09091186523438 L 331.7236137390137 183.09091186523438 L 331.7236137390137 498.9090881347656 L 322.41082763671875 498.9090881347656 L 322.41082763671875 183.09091186523438" fill-opacity="1" clip-path="url(#opuQFVtfKAdy)"/><path fill="rgb(239,185,203)" stroke="none" paint-order="stroke" d="M 363.6800231933594 183.09091186523438 L 387.20416831970215 183.09091186523438 L 387.20416831970215 498.9090881347656 L 363.6800231933594 498.9090881347656 L 363.6800231933594 183.09091186523438" fill-opacity="1" clip-path="url(#opuQFVtfKAdy)"/><path fill="rgb(239,185,203)" stroke="none" paint-order="stroke" d="M 401.11773681640625 183.09091186523438 L 406.06359672546387 183.09091186523438 L 406.06359672546387 498.9090881347656 L 401.11773681640625 498.9090881347656 L 401.11773681640625 183.09091186523438" fill-opacity="1" clip-path="url(#opuQFVtfKAdy)"/><path fill="rgb(239,185,203)" stroke="none" paint-order="stroke" d="M 414.9418640136719 183.09091186523438 L 423.64120960235596 183.09091186523438 L 423.64120960235596 498.9090881347656 L 414.9418640136719 498.9090881347656 L 414.9418640136719 183.09091186523438" fill-opacity="1" clip-path="url(#opuQFVtfKAdy)"/><path fill="rgb(239,185,203)" stroke="none" paint-order="stroke" d="M 423.6846618652344 183.09091186523438 L 433.6134443283081 183.09091186523438 L 433.6134443283081 498.9090881347656 L 423.6846618652344 498.9090881347656 L 423.6846618652344 183.09091186523438" fill-opacity="1" clip-path="url(#opuQFVtfKAdy)"/><path fill="rgb(239,185,203)" stroke="none" paint-order="stroke" d="M 587.7875366210938 183.09091186523438 L 605.6731472015381 183.09091186523438 L 605.6731472015381 498.9090881347656 L 587.7875366210938 498.9090881347656 L 587.7875366210938 183.09091186523438" fill-opacity="1" clip-path="url(#opuQFVtfKAdy)"/><path fill="rgb(239,185,203)" stroke="none" paint-order="stroke" d="M 627.4668579101562 183.09091186523438 L 633.4018898010254 183.09091186523438 L 633.4018898010254 498.9090881347656 L 627.4668579101562 498.9090881347656 L 627.4668579101562 183.09091186523438" fill-opacity="1" clip-path="url(#opuQFVtfKAdy)"/><path fill="rgb(255,188,66)" stroke="none" paint-order="stroke" d="M 455.91839599609375 498.9090881347656 L 633.4019165039062 498.9090881347656 L 633.4019165039062 551.5454521179199 L 455.91839599609375 551.5454521179199 L 455.91839599609375 498.9090881347656" fill-opacity="1" clip-path="url(#gvWKmUbBnSvc)"/><path fill="rgb(143,45,86)" stroke="none" paint-order="stroke" d="M 58.5 551.5454711914062 L 411.0567626953125 551.5454711914062 L 411.0567626953125 604.1818351745605 L 58.5 604.1818351745605 L 58.5 551.5454711914062" fill-opacity="1" clip-path="url(#taULxGLXmFlC)"/><path fill="rgb(81,60,99)" stroke="none" paint-order="stroke" d="M 411.0567626953125 551.5454711914062 L 443.1818504333496 551.5454711914062 L 443.1818504333496 604.1818351745605 L 411.0567626953125 604.1818351745605 L 411.0567626953125 551.5454711914062" fill-opacity="1" clip-path="url(#taULxGLXmFlC)"/><path fill="rgb(143,45,86)" stroke="none" paint-order="stroke" d="M 443.18182373046875 551.5454711914062 L 443.1843797303736 551.5454711914062 L 443.1843797303736 604.1818351745605 L 443.18182373046875 604.1818351745605 L 443.18182373046875 551.5454711914062" fill-opacity="1" clip-path="url(#taULxGLXmFlC)"/><path fill="rgb(81,60,99)" stroke="none" paint-order="stroke" d="M 443.18438720703125 551.5454711914062 L 572.5103149414062 551.5454711914062 L 572.5103149414062 604.1818351745605 L 443.18438720703125 604.1818351745605 L 443.18438720703125 551.5454711914062" fill-opacity="1" clip-path="url(#taULxGLXmFlC)"/><path fill="rgb(143,45,86)" stroke="none" paint-order="stroke" d="M 572.5103149414062 551.5454711914062 L 572.755690947175 551.5454711914062 L 572.755690947175 604.1818351745605 L 572.5103149414062 604.1818351745605 L 572.5103149414062 551.5454711914062" fill-opacity="1" clip-path="url(#taULxGLXmFlC)"/><path fill="rgb(81,60,99)" stroke="none" paint-order="stroke" d="M 572.7556762695312 551.5454711914062 L 576.4963822364807 551.5454711914062 L 576.4963822364807 604.1818351745605 L 572.7556762695312 604.1818351745605 L 572.7556762695312 551.5454711914062" fill-opacity="1" clip-path="url(#taULxGLXmFlC)"/><path fill="rgb(63,136,197)" stroke="none" paint-order="stroke" d="M 576.4963989257812 551.5454711914062 L 578.0044388771057 551.5454711914062 L 578.0044388771057 604.1818351745605 L 576.4963989257812 604.1818351745605 L 576.4963989257812 551.5454711914062" fill-opacity="1" clip-path="url(#taULxGLXmFlC)"/><path fill="rgb(81,60,99)" stroke="none" paint-order="stroke" d="M 578.0044555664062 551.5454711914062 L 633.4019203186035 551.5454711914062 L 633.4019203186035 604.1818351745605 L 578.0044555664062 604.1818351745605 L 578.0044555664062 551.5454711914062" fill-opacity="1" clip-path="url(#taULxGLXmFlC)"/><path fill="none" stroke="rgb(0,0,0)" paint-order="fill" d="M 58.5 77.81818389892578 L 633.4019165039062 77.81818389892578 L 633.4019165039062 604.1818313598633 L 58.5 604.1818313598633 L 58.5 77.81818389892578" stroke-opacity="1" stroke-linejoin="bevel" stroke-miterlimit="10" stroke-dasharray="" clip-path="url(#VHyUuGGzPxXE)"/><path fill="none" stroke="rgb(0,0,0)" paint-order="fill" d="M 58.5 630.5 L 1336.5 630.5" stroke-opacity="1" stroke-linejoin="bevel" stroke-miterlimit="10" stroke-dasharray=""/><path fill="none" stroke="rgb(0,0,0)" paint-order="fill" d="M 58.5 636.5 L 58.5 628.5 M 314.5 636.5 L 314.5 628.5 M 569.5 636.5 L 569.5 628.5 M 825.5 636.5 L 825.5 628.5 M 1080.5 636.5 L 1080.5 628.5 M 1336.5 636.5 L 1336.5 628.5" stroke-opacity="1" stroke-linejoin="bevel" stroke-miterlimit="10" stroke-dasharray=""/><path fill="none" stroke="rgb(0,0,0)" paint-order="fill" d="M 58.5 634.5 L 58.5 630.5 M 109.5 634.5 L 109.5 630.5 M 160.5 634.5 L 160.5 630.5 M 211.5 634.5 L 211.5 630.5 M 262.5 634.5 L 262.5 630.5 M 314.5 634.5 L 314.5 630.5 M 365.5 634.5 L 365.5 630.5 M 416.5 634.5 L 416.5 630.5 M 467.5 634.5 L 467.5 630.5 M 518.5 634.5 L 518.5 630.5 M 569.5 634.5 L 569.5 630.5 M 620.5 634.5 L 620.5 630.5 M 671.5 634.5 L 671.5 630.5 M 723.5 634.5 L 723.5 630.5 M 774.5 634.5 L 774.5 630.5 M 825.5 634.5 L 825.5 630.5 M 876.5 634.5 L 876.5 630.5 M 927.5 634.5 L 927.5 630.5 M 978.5 634.5 L 978.5 630.5 M 1029.5 634.5 L 1029.5 630.5 M 1080.5 634.5 L 1080.5 630.5 M 1132.5 634.5 L 1132.5 630.5 M 1183.5 634.5 L 1183.5 630.5 M 1234.5 634.5 L 1234.5 630.5 M 1285.5 634.5 L 1285.5 630.5 M 1336.5 634.5 L 1336.5 630.5" stroke-opacity="1" stroke-linejoin="bevel" stroke-miterlimit="10" stroke-dasharray=""/><text fill="rgb(68,68,68)" stroke="none" font-family="helvetica" font-size="11px" font-style="normal" font-weight="normal" text-decoration="normal" x="54.94166660308838" y="648.89013671875" text-anchor="start" dominant-baseline="alphabetic" transform="matrix(1, 0, 0, 1, 0.5, 0.5)" fill-opacity="1">0</text><text fill="rgb(68,68,68)" stroke="none" font-family="helvetica" font-size="11px" font-style="normal" font-weight="normal" text-decoration="normal" x="304.42500591278076" y="648.89013671875" text-anchor="start" dominant-baseline="alphabetic" transform="matrix(1, 0, 0, 1, 0.5, 0.5)" fill-opacity="1">200</text><text fill="rgb(68,68,68)" stroke="none" font-family="helvetica" font-size="11px" font-style="normal" font-weight="normal" text-decoration="normal" x="560.0250120162964" y="648.89013671875" text-anchor="start" dominant-baseline="alphabetic" transform="matrix(1, 0, 0, 1, 0.5, 0.5)" fill-opacity="1">400</text><text fill="rgb(68,68,68)" stroke="none" font-family="helvetica" font-size="11px" font-style="normal" font-weight="normal" text-decoration="normal" x="815.6249876022339" y="648.89013671875" text-anchor="start" dominant-baseline="alphabetic" transform="matrix(1, 0, 0, 1, 0.5, 0.5)" fill-opacity="1">600</text><text fill="rgb(68,68,68)" stroke="none" font-family="helvetica" font-size="11px" font-style="normal" font-weight="normal" text-decoration="normal" x="1071.2250242233276" y="648.89013671875" text-anchor="start" dominant-baseline="alphabetic" transform="matrix(1, 0, 0, 1, 0.5, 0.5)" fill-opacity="1">800</text><text fill="rgb(68,68,68)" stroke="none" font-family="helvetica" font-size="11px" font-style="normal" font-weight="normal" text-decoration="normal" x="1323.7666664123535" y="648.89013671875" text-anchor="start" dominant-baseline="alphabetic" transform="matrix(1, 0, 0, 1, 0.5, 0.5)" fill-opacity="1">1000</text><text fill="rgb(68,68,68)" stroke="none" font-family="helvetica" font-size="15pt" font-style="italic" font-weight="normal" text-decoration="normal" x="666.4416675567627" y="676.06982421875" text-anchor="start" dominant-baseline="alphabetic" transform="matrix(1, 0, 0, 1, 0.5, 0.5)" fill-opacity="1">time(s)</text><path fill="none" stroke="rgb(0,0,0)" paint-order="fill" d="M 58.5 630.5 L 58.5 51.5" stroke-opacity="1" stroke-linejoin="bevel" stroke-miterlimit="10" stroke-dasharray=""/><path fill="none" stroke="rgb(0,0,0)" paint-order="fill" d="M 52.5 551.5 L 60.5 551.5 M 52.5 446.5 L 60.5 446.5 M 52.5 341.5 L 60.5 341.5 M 52.5 235.5 L 60.5 235.5 M 52.5 130.5 L 60.5 130.5" stroke-opacity="1" stroke-linejoin="bevel" stroke-miterlimit="10" stroke-dasharray=""/><path fill="none" stroke="rgb(0,0,0)" paint-order="fill" d="M 54.5 572.5 L 58.5 572.5 M 54.5 593.5 L 58.5 593.5 M 54.5 614.5 L 58.5 614.5 M 54.5 551.5 L 58.5 551.5 M 54.5 530.5 L 58.5 530.5 M 54.5 509.5 L 58.5 509.5 M 54.5 488.5 L 58.5 488.5 M 54.5 467.5 L 58.5 467.5 M 54.5 446.5 L 58.5 446.5 M 54.5 425.5 L 58.5 425.5 M 54.5 404.5 L 58.5 404.5 M 54.5 383.5 L 58.5 383.5 M 54.5 362.5 L 58.5 362.5 M 54.5 341.5 L 58.5 341.5 M 54.5 319.5 L 58.5 319.5 M 54.5 298.5 L 58.5 298.5 M 54.5 277.5 L 58.5 277.5 M 54.5 256.5 L 58.5 256.5 M 54.5 235.5 L 58.5 235.5 M 54.5 214.5 L 58.5 214.5 M 54.5 193.5 L 58.5 193.5 M 54.5 172.5 L 58.5 172.5 M 54.5 151.5 L 58.5 151.5 M 54.5 130.5 L 58.5 130.5 M 54.5 109.5 L 58.5 109.5 M 54.5 88.5 L 58.5 88.5 M 54.5 67.5 L 58.5 67.5" stroke-opacity="1" stroke-linejoin="bevel" stroke-miterlimit="10" stroke-dasharray=""/><text fill="rgb(68,68,68)" stroke="none" font-family="helvetica" font-size="11px" font-style="normal" font-weight="normal" text-decoration="normal" x="34.46666622161865" y="554.9905395507812" text-anchor="start" dominant-baseline="alphabetic" transform="matrix(1, 0, 0, 1, 0.5, 0.5)" fill-opacity="1">2</text><text fill="rgb(68,68,68)" stroke="none" font-family="helvetica" font-size="11px" font-style="normal" font-weight="normal" text-decoration="normal" x="34.46666622161865" y="449.7178039550781" text-anchor="start" dominant-baseline="alphabetic" transform="matrix(1, 0, 0, 1, 0.5, 0.5)" fill-opacity="1">1</text><text fill="rgb(68,68,68)" stroke="none" font-family="helvetica" font-size="11px" font-style="normal" font-weight="normal" text-decoration="normal" x="40.88333320617676" y="344.445068359375" text-anchor="start" dominant-baseline="alphabetic" transform="matrix(1, 0, 0, 1, 0.5, 0.5)" fill-opacity="1">0</text><text fill="rgb(68,68,68)" stroke="none" font-family="helvetica" font-size="11px" font-style="normal" font-weight="normal" text-decoration="normal" x="40.88333320617676" y="239.17234802246094" text-anchor="start" dominant-baseline="alphabetic" transform="matrix(1, 0, 0, 1, 0.5, 0.5)" fill-opacity="1">1</text><text fill="rgb(68,68,68)" stroke="none" font-family="helvetica" font-size="11px" font-style="normal" font-weight="normal" text-decoration="normal" x="40.88333320617676" y="133.8996124267578" text-anchor="start" dominant-baseline="alphabetic" transform="matrix(1, 0, 0, 1, 0.5, 0.5)" fill-opacity="1">2</text><text fill="rgb(68,68,68)" stroke="none" font-family="helvetica" font-size="15pt" font-style="italic" font-weight="normal" text-decoration="normal" x="-11.316666603088379" y="336.076171875" text-anchor="start" dominant-baseline="alphabetic" transform="matrix(6.123233995736766e-17, -1, 1, 6.123233995736766e-17, -313.53333377838135, 367.46666622161865)" fill-opacity="1">students</text><path fill="rgb(255,255,255)" stroke="rgb(229,229,229)" paint-order="fill" d="M 1128.2333374023438 61.5 L 1326.5 61.5 L 1326.5 400.5 L 1128.2333374023438 400.5 L 1128.2333374023438 61.5" fill-opacity="0.9490196078431372" clip-path="url(#LXWTlSHCtRnP)" stroke-opacity="0.5019607843137255" stroke-linejoin="bevel" stroke-miterlimit="10" stroke-dasharray=""/><text fill="rgb(68,68,68)" stroke="none" font-family="helvetica" font-size="13px" font-style="normal" font-weight="normal" text-decoration="normal" x="1162.7333374023438" y="81" text-anchor="start" dominant-baseline="central" clip-path="url(#LXWTlSHCtRnP)" transform="matrix(1, 0, 0, 1, 0.5, 0.5)" fill-opacity="1">wavelength</text><path fill="rgb(0,255,40)" stroke="none" paint-order="stroke" d="M 1140.2333374023438 73.5 L 1156.2333374023438 73.5 L 1156.2333374023438 89.5 L 1140.2333374023438 89.5 L 1140.2333374023438 73.5" fill-opacity="1" clip-path="url(#LXWTlSHCtRnP)"/><path fill="rgb(216,17,89)" stroke="none" paint-order="stroke" d="M 1140.2333374023438 73.5 L 1156.2333374023438 73.5 L 1156.2333374023438 89.5 L 1140.2333374023438 89.5 L 1140.2333374023438 73.5" fill-opacity="1" clip-path="url(#LXWTlSHCtRnP)"/><text fill="rgb(68,68,68)" stroke="none" font-family="helvetica" font-size="13px" font-style="normal" font-weight="normal" text-decoration="normal" x="1162.7333374023438" y="104" text-anchor="start" dominant-baseline="central" clip-path="url(#LXWTlSHCtRnP)" transform="matrix(1, 0, 0, 1, 0.5, 0.5)" fill-opacity="1">solution</text><path fill="rgb(251,0,7)" stroke="none" paint-order="stroke" d="M 1140.2333374023438 96.5 L 1156.2333374023438 96.5 L 1156.2333374023438 112.5 L 1140.2333374023438 112.5 L 1140.2333374023438 96.5" fill-opacity="1" clip-path="url(#LXWTlSHCtRnP)"/><path fill="rgb(33,131,128)" stroke="none" paint-order="stroke" d="M 1140.2333374023438 96.5 L 1156.2333374023438 96.5 L 1156.2333374023438 112.5 L 1140.2333374023438 112.5 L 1140.2333374023438 96.5" fill-opacity="1" clip-path="url(#LXWTlSHCtRnP)"/><text fill="rgb(68,68,68)" stroke="none" font-family="helvetica" font-size="13px" font-style="normal" font-weight="normal" text-decoration="normal" x="1162.7333374023438" y="127" text-anchor="start" dominant-baseline="central" clip-path="url(#LXWTlSHCtRnP)" transform="matrix(1, 0, 0, 1, 0.5, 0.5)" fill-opacity="1">laser</text><path fill="rgb(105,29,48)" stroke="none" paint-order="stroke" d="M 1140.2333374023438 119.5 L 1156.2333374023438 119.5 L 1156.2333374023438 135.5 L 1140.2333374023438 135.5 L 1140.2333374023438 119.5" fill-opacity="1" clip-path="url(#LXWTlSHCtRnP)"/><text fill="rgb(68,68,68)" stroke="none" font-family="helvetica" font-size="13px" font-style="normal" font-weight="normal" text-decoration="normal" x="1162.7333374023438" y="150" text-anchor="start" dominant-baseline="central" clip-path="url(#LXWTlSHCtRnP)" transform="matrix(1, 0, 0, 1, 0.5, 0.5)" fill-opacity="1">ruler</text><path fill="rgb(255,188,66)" stroke="none" paint-order="stroke" d="M 1140.2333374023438 142.5 L 1156.2333374023438 142.5 L 1156.2333374023438 158.5 L 1140.2333374023438 158.5 L 1140.2333374023438 142.5" fill-opacity="1" clip-path="url(#LXWTlSHCtRnP)"/><text fill="rgb(68,68,68)" stroke="none" font-family="helvetica" font-size="13px" font-style="normal" font-weight="normal" text-decoration="normal" x="1162.7333374023438" y="173" text-anchor="start" dominant-baseline="central" clip-path="url(#LXWTlSHCtRnP)" transform="matrix(1, 0, 0, 1, 0.5, 0.5)" fill-opacity="1">restarts</text><text fill="rgb(68,68,68)" stroke="none" font-family="helvetica" font-size="13px" font-style="normal" font-weight="normal" text-decoration="normal" x="1162.7333374023438" y="196" text-anchor="start" dominant-baseline="central" clip-path="url(#LXWTlSHCtRnP)" transform="matrix(1, 0, 0, 1, 0.5, 0.5)" fill-opacity="1">transmittance_absorbance</text><path fill="rgb(162,174,187)" stroke="none" paint-order="stroke" d="M 1140.2333374023438 188.5 L 1156.2333374023438 188.5 L 1156.2333374023438 204.5 L 1140.2333374023438 204.5 L 1140.2333374023438 188.5" fill-opacity="1" clip-path="url(#LXWTlSHCtRnP)"/><text fill="rgb(68,68,68)" stroke="none" font-family="helvetica" font-size="13px" font-style="normal" font-weight="normal" text-decoration="normal" x="1162.7333374023438" y="219" text-anchor="start" dominant-baseline="central" clip-path="url(#LXWTlSHCtRnP)" transform="matrix(1, 0, 0, 1, 0.5, 0.5)" fill-opacity="1">magnifier</text><path fill="rgb(255,188,66)" stroke="none" paint-order="stroke" d="M 1140.2333374023438 211.5 L 1156.2333374023438 211.5 L 1156.2333374023438 227.5 L 1140.2333374023438 227.5 L 1140.2333374023438 211.5" fill-opacity="1" clip-path="url(#LXWTlSHCtRnP)"/><text fill="rgb(68,68,68)" stroke="none" font-family="helvetica" font-size="13px" font-style="normal" font-weight="normal" text-decoration="normal" x="1162.7333374023438" y="242" text-anchor="start" dominant-baseline="central" clip-path="url(#LXWTlSHCtRnP)" transform="matrix(1, 0, 0, 1, 0.5, 0.5)" fill-opacity="1">concentration</text><path fill="rgb(115,210,222)" stroke="none" paint-order="stroke" d="M 1140.2333374023438 234.5 L 1156.2333374023438 234.5 L 1156.2333374023438 250.5 L 1140.2333374023438 250.5 L 1140.2333374023438 234.5" fill-opacity="1" clip-path="url(#LXWTlSHCtRnP)"/><text fill="rgb(68,68,68)" stroke="none" font-family="helvetica" font-size="13px" font-style="normal" font-weight="normal" text-decoration="normal" x="1162.7333374023438" y="265" text-anchor="start" dominant-baseline="central" clip-path="url(#LXWTlSHCtRnP)" transform="matrix(1, 0, 0, 1, 0.5, 0.5)" fill-opacity="1">flask</text><path fill="rgb(28,49,68)" stroke="none" paint-order="stroke" d="M 1140.2333374023438 257.5 L 1156.2333374023438 257.5 L 1156.2333374023438 273.5 L 1140.2333374023438 273.5 L 1140.2333374023438 257.5" fill-opacity="1" clip-path="url(#LXWTlSHCtRnP)"/><text fill="rgb(68,68,68)" stroke="none" font-family="helvetica" font-size="13px" font-style="normal" font-weight="normal" text-decoration="normal" x="1162.7333374023438" y="288" text-anchor="start" dominant-baseline="central" clip-path="url(#LXWTlSHCtRnP)" transform="matrix(1, 0, 0, 1, 0.5, 0.5)" fill-opacity="1">pdf</text><path fill="rgb(239,185,203)" stroke="none" paint-order="stroke" d="M 1140.2333374023438 280.5 L 1156.2333374023438 280.5 L 1156.2333374023438 296.5 L 1140.2333374023438 296.5 L 1140.2333374023438 280.5" fill-opacity="1" clip-path="url(#LXWTlSHCtRnP)"/><text fill="rgb(68,68,68)" stroke="none" font-family="helvetica" font-size="13px" font-style="normal" font-weight="normal" text-decoration="normal" x="1162.7333374023438" y="311" text-anchor="start" dominant-baseline="central" clip-path="url(#LXWTlSHCtRnP)" transform="matrix(1, 0, 0, 1, 0.5, 0.5)" fill-opacity="1">concentrationlab</text><text fill="rgb(68,68,68)" stroke="none" font-family="helvetica" font-size="13px" font-style="normal" font-weight="normal" text-decoration="normal" x="1162.7333374023438" y="334" text-anchor="start" dominant-baseline="central" clip-path="url(#LXWTlSHCtRnP)" transform="matrix(1, 0, 0, 1, 0.5, 0.5)" fill-opacity="1">wavelength_slider</text><text fill="rgb(68,68,68)" stroke="none" font-family="helvetica" font-size="13px" font-style="normal" font-weight="normal" text-decoration="normal" x="1162.7333374023438" y="357" text-anchor="start" dominant-baseline="central" clip-path="url(#LXWTlSHCtRnP)" transform="matrix(1, 0, 0, 1, 0.5, 0.5)" fill-opacity="1">ruler measuring</text><path fill="rgb(255,188,66)" stroke="none" paint-order="stroke" d="M 1140.2333374023438 349.5 L 1156.2333374023438 349.5 L 1156.2333374023438 365.5 L 1140.2333374023438 365.5 L 1140.2333374023438 349.5" fill-opacity="1" clip-path="url(#LXWTlSHCtRnP)"/><text fill="rgb(68,68,68)" stroke="none" font-family="helvetica" font-size="13px" font-style="normal" font-weight="normal" text-decoration="normal" x="1162.7333374023438" y="380" text-anchor="start" dominant-baseline="central" clip-path="url(#LXWTlSHCtRnP)" transform="matrix(1, 0, 0, 1, 0.5, 0.5)" fill-opacity="1">dependent variable</text><path fill="rgb(143,45,86)" stroke="none" paint-order="stroke" d="M 1140.2333374023438 372.5 L 1156.2333374023438 372.5 L 1156.2333374023438 388.5 L 1140.2333374023438 388.5 L 1140.2333374023438 372.5" fill-opacity="1" clip-path="url(#LXWTlSHCtRnP)"/><text fill="rgb(68,68,68)" stroke="none" font-family="helvetica" font-size="25pt" font-style="normal" font-weight="bold" text-decoration="normal" x="58" y="38.740885416666664" text-anchor="start" dominant-baseline="alphabetic" transform="matrix(1, 0, 0, 1, 0.5, 0.5)" fill-opacity="1">Timeline for student tsrnkj8w with permutation 0213 for task 2</text></svg>