<svg version="1.1" xmlns="http://www.w3.org/2000/svg" width="1366" height="683"><defs><clipPath id="NqLULJCCHThg"><path fill="none" stroke="none" d="M 58.5 51.5 L 1336.5 51.5 L 1336.5 630.5 L 58.5 630.5 L 58.5 51.5"/></clipPath><clipPath id="uNmGTCdMkLKz"><path fill="none" stroke="none" d="M 58.5 51.5 L 1336.5 51.5 L 1336.5 630.5 L 58.5 630.5 L 58.5 51.5"/></clipPath><clipPath id="JkbKPRAGITVD"><path fill="none" stroke="none" d="M 58.5 51.5 L 1336.5 51.5 L 1336.5 630.5 L 58.5 630.5 L 58.5 51.5"/></clipPath><clipPath id="wKBKnpTfeHTu"><path fill="none" stroke="none" d="M 58.5 51.5 L 1336.5 51.5 L 1336.5 630.5 L 58.5 630.5 L 58.5 51.5"/></clipPath><clipPath id="UJQhtozWPZSt"><path fill="none" stroke="none" d="M 58.5 51.5 L 1336.5 51.5 L 1336.5 630.5 L 58.5 630.5 L 58.5 51.5"/></clipPath><clipPath id="KexGCyTtvPpk"><path fill="none" stroke="none" d="M 58.5 51.5 L 1336.5 51.5 L 1336.5 630.5 L 58.5 630.5 L 58.5 51.5"/></clipPath><clipPath id="WfAkIoshkbFu"><path fill="none" stroke="none" d="M 58.5 51.5 L 1336.5 51.5 L 1336.5 630.5 L 58.5 630.5 L 58.5 51.5"/></clipPath><clipPath id="tIoAqZzLLQzp"><path fill="none" stroke="none" d="M 58.5 51.5 L 1336.5 51.5 L 1336.5 630.5 L 58.5 630.5 L 58.5 51.5"/></clipPath><clipPath id="mUynafLvxbTk"><path fill="none" stroke="none" d="M 58.5 51.5 L 1336.5 51.5 L 1336.5 630.5 L 58.5 630.5 L 58.5 51.5"/></clipPath><clipPath id="nMrOTlVqMTqy"><path fill="none" stroke="none" d="M 58.5 51.5 L 1336.5 51.5 L 1336.5 630.5 L 58.5 630.5 L 58.5 51.5"/></clipPath><clipPath id="QRBDyLRVNOKl"><path fill="none" stroke="none" d="M 58.5 51.5 L 1336.5 51.5 L 1336.5 630.5 L 58.5 630.5 L 58.5 51.5"/></clipPath><clipPath id="wFpskZgFoHGW"><path fill="none" stroke="none" d="M 58.5 51.5 L 1336.5 51.5 L 1336.5 630.5 L 58.5 630.5 L 58.5 51.5"/></clipPath><clipPath id="TxKdfagBDyJB"><path fill="none" stroke="none" d="M 58.5 51.5 L 1336.5 51.5 L 1336.5 630.5 L 58.5 630.5 L 58.5 51.5"/></clipPath><clipPath id="KyyZfJkTBXEy"><path fill="none" stroke="none" d="M 58.5 51.5 L 1336.5 51.5 L 1336.5 630.5 L 58.5 630.5 L 58.5 51.5"/></clipPath><clipPath id="yeiFgymvZfRL"><path fill="none" stroke="none" d="M 58.5 51.5 L 1336.5 51.5 L 1336.5 630.5 L 58.5 630.5 L 58.5 51.5"/></clipPath><clipPath id="BgJtxyMRxqge"><path fill="none" stroke="none" d="M 58.5 51.5 L 1336.5 51.5 L 1336.5 630.5 L 58.5 630.5 L 58.5 51.5"/></clipPath><clipPath id="KnNRnfEtNkss"><path fill="none" stroke="none" d="M 58.5 51.5 L 1336.5 51.5 L 1336.5 630.5 L 58.5 630.5 L 58.5 51.5"/></clipPath><clipPath id="JPqGVOTzvHmF"><path fill="none" stroke="none" d="M 58.5 51.5 L 1336.5 51.5 L 1336.5 630.5 L 58.5 630.5 L 58.5 51.5"/></clipPath><clipPath id="WUBtXDEiJFkc"><path fill="none" stroke="none" d="M 58.5 51.5 L 1336.5 51.5 L 1336.5 630.5 L 58.5 630.5 L 58.5 51.5"/></clipPath><clipPath id="bekHRcXSqkOt"><path fill="none" stroke="none" d="M 58.5 51.5 L 1336.5 51.5 L 1336.5 630.5 L 58.5 630.5 L 58.5 51.5"/></clipPath><clipPath id="iNVEIXmwyITg"><path fill="none" stroke="none" d="M 58.5 51.5 L 1336.5 51.5 L 1336.5 630.5 L 58.5 630.5 L 58.5 51.5"/></clipPath></defs><path fill="rgb(255,255,255)" stroke="none" paint-order="stroke" d="M 0.5 0.5 L 1366.5 0.5 L 1366.5 683.5 L 0.5 683.5 L 0.5 0.5" fill-opacity="1"/><rect fill="#FFFFFF" stroke="none" x="58" y="51" width="1278" height="579" transform="matrix(1, 0, 0, 1, 0.5, 0.5)"/><path fill="rgb(255,255,255)" stroke="none" paint-order="stroke" d="M 58.5 51.5 L 1336.5 51.5 L 1336.5 630.5 L 58.5 630.5 L 58.5 51.5" fill-opacity="1"/><path fill="none" stroke="rgb(229,229,229)" paint-order="fill" d="M 58.5 51.5 L 1336.5 51.5 L 1336.5 630.5 L 58.5 630.5 L 58.5 51.5" stroke-opacity="1" stroke-linejoin="bevel" stroke-miterlimit="10" stroke-dasharray=""/><path fill="none" stroke="rgb(229,229,229)" paint-order="fill" d="M 314.5 630.5 L 314.5 51.5 M 569.5 630.5 L 569.5 51.5 M 825.5 630.5 L 825.5 51.5 M 1080.5 630.5 L 1080.5 51.5" stroke-opacity="1" stroke-linejoin="bevel" stroke-miterlimit="10" stroke-dasharray="" clip-path="url(#NqLULJCCHThg)"/><path fill="none" stroke="rgb(229,229,229)" paint-order="fill" d="M 58.5 551.5 L 1336.5 551.5 M 58.5 446.5 L 1336.5 446.5 M 58.5 341.5 L 1336.5 341.5 M 58.5 235.5 L 1336.5 235.5 M 58.5 130.5 L 1336.5 130.5" stroke-opacity="1" stroke-linejoin="bevel" stroke-miterlimit="10" stroke-dasharray="" clip-path="url(#uNmGTCdMkLKz)"/><path fill="rgb(0,255,40)" stroke="none" paint-order="stroke" d="M 58.5 77.81818389892578 L 103.45492935180664 77.81818389892578 L 103.45492935180664 130.45454788208008 L 58.5 130.45454788208008 L 58.5 77.81818389892578" fill-opacity="1" clip-path="url(#JkbKPRAGITVD)"/><path fill="rgb(101,255,0)" stroke="none" paint-order="stroke" d="M 103.45492553710938 77.81818389892578 L 103.47792953625321 77.81818389892578 L 103.47792953625321 130.45454788208008 L 103.45492553710938 130.45454788208008 L 103.45492553710938 77.81818389892578" fill-opacity="1" clip-path="url(#JkbKPRAGITVD)"/><path fill="rgb(166,255,0)" stroke="none" paint-order="stroke" d="M 103.47793579101562 77.81818389892578 L 103.50093979015946 77.81818389892578 L 103.50093979015946 130.45454788208008 L 103.47793579101562 130.45454788208008 L 103.47793579101562 77.81818389892578" fill-opacity="1" clip-path="url(#JkbKPRAGITVD)"/><path fill="rgb(243,255,0)" stroke="none" paint-order="stroke" d="M 103.50093841552734 77.81818389892578 L 103.52010841481388 77.81818389892578 L 103.52010841481388 130.45454788208008 L 103.50093841552734 130.45454788208008 L 103.50093841552734 77.81818389892578" fill-opacity="1" clip-path="url(#JkbKPRAGITVD)"/><path fill="rgb(255,239,0)" stroke="none" paint-order="stroke" d="M 103.52010345458984 77.81818389892578 L 103.54310745373368 77.81818389892578 L 103.54310745373368 130.45454788208008 L 103.52010345458984 130.45454788208008 L 103.52010345458984 77.81818389892578" fill-opacity="1" clip-path="url(#JkbKPRAGITVD)"/><path fill="rgb(255,223,0)" stroke="none" paint-order="stroke" d="M 103.5431137084961 77.81818389892578 L 103.6466317102313 77.81818389892578 L 103.6466317102313 130.45454788208008 L 103.5431137084961 130.45454788208008 L 103.5431137084961 77.81818389892578" fill-opacity="1" clip-path="url(#JkbKPRAGITVD)"/><path fill="rgb(255,172,0)" stroke="none" paint-order="stroke" d="M 103.6466293334961 77.81818389892578 L 103.66707733273506 77.81818389892578 L 103.66707733273506 130.45454788208008 L 103.6466293334961 130.45454788208008 L 103.6466293334961 77.81818389892578" fill-opacity="1" clip-path="url(#JkbKPRAGITVD)"/><path fill="rgb(255,155,0)" stroke="none" paint-order="stroke" d="M 103.66707611083984 77.81818389892578 L 103.774428114295 77.81818389892578 L 103.774428114295 130.45454788208008 L 103.66707611083984 130.45454788208008 L 103.66707611083984 77.81818389892578" fill-opacity="1" clip-path="url(#JkbKPRAGITVD)"/><path fill="rgb(255,137,0)" stroke="none" paint-order="stroke" d="M 103.77442932128906 77.81818389892578 L 103.81660332158208 77.81818389892578 L 103.81660332158208 130.45454788208008 L 103.77442932128906 130.45454788208008 L 103.77442932128906 77.81818389892578" fill-opacity="1" clip-path="url(#JkbKPRAGITVD)"/><path fill="rgb(255,83,0)" stroke="none" paint-order="stroke" d="M 103.81660461425781 77.81818389892578 L 103.96996460855007 77.81818389892578 L 103.96996460855007 130.45454788208008 L 103.81660461425781 130.45454788208008 L 103.81660461425781 77.81818389892578" fill-opacity="1" clip-path="url(#JkbKPRAGITVD)"/><path fill="rgb(255,9,0)" stroke="none" paint-order="stroke" d="M 103.96996307373047 77.81818389892578 L 103.98657707311213 77.81818389892578 L 103.98657707311213 130.45454788208008 L 103.96996307373047 130.45454788208008 L 103.96996307373047 77.81818389892578" fill-opacity="1" clip-path="url(#JkbKPRAGITVD)"/><path fill="rgb(242,0,0)" stroke="none" paint-order="stroke" d="M 103.986572265625 77.81818389892578 L 104.07219826430082 77.81818389892578 L 104.07219826430082 130.45454788208008 L 103.986572265625 130.45454788208008 L 103.986572265625 77.81818389892578" fill-opacity="1" clip-path="url(#JkbKPRAGITVD)"/><path fill="rgb(235,0,0)" stroke="none" paint-order="stroke" d="M 104.07220458984375 77.81818389892578 L 106.32404065132141 77.81818389892578 L 106.32404065132141 130.45454788208008 L 104.07220458984375 130.45454788208008 L 104.07220458984375 77.81818389892578" fill-opacity="1" clip-path="url(#JkbKPRAGITVD)"/><path fill="rgb(0,255,40)" stroke="none" paint-order="stroke" d="M 106.32403564453125 77.81818389892578 L 114.48406600952148 77.81818389892578 L 114.48406600952148 130.45454788208008 L 106.32403564453125 130.45454788208008 L 106.32403564453125 77.81818389892578" fill-opacity="1" clip-path="url(#JkbKPRAGITVD)"/><path fill="rgb(42,0,238)" stroke="none" paint-order="stroke" d="M 114.48406982421875 77.81818389892578 L 142.1016502380371 77.81818389892578 L 142.1016502380371 130.45454788208008 L 114.48406982421875 130.45454788208008 L 114.48406982421875 77.81818389892578" fill-opacity="1" clip-path="url(#JkbKPRAGITVD)"/><path fill="rgb(0,40,255)" stroke="none" paint-order="stroke" d="M 142.10165405273438 77.81818389892578 L 142.151496052742 77.81818389892578 L 142.151496052742 130.45454788208008 L 142.10165405273438 130.45454788208008 L 142.10165405273438 77.81818389892578" fill-opacity="1" clip-path="url(#JkbKPRAGITVD)"/><path fill="rgb(0,117,255)" stroke="none" paint-order="stroke" d="M 142.1514892578125 77.81818389892578 L 142.27289925515652 77.81818389892578 L 142.27289925515652 130.45454788208008 L 142.1514892578125 130.45454788208008 L 142.1514892578125 77.81818389892578" fill-opacity="1" clip-path="url(#JkbKPRAGITVD)"/><path fill="rgb(0,164,255)" stroke="none" paint-order="stroke" d="M 142.2729034423828 77.81818389892578 L 142.31379944086075 77.81818389892578 L 142.31379944086075 130.45454788208008 L 142.2729034423828 130.45454788208008 L 142.2729034423828 77.81818389892578" fill-opacity="1" clip-path="url(#JkbKPRAGITVD)"/><path fill="rgb(0,230,255)" stroke="none" paint-order="stroke" d="M 142.3137969970703 77.81818389892578 L 142.33424499630928 77.81818389892578 L 142.33424499630928 130.45454788208008 L 142.3137969970703 130.45454788208008 L 142.3137969970703 77.81818389892578" fill-opacity="1" clip-path="url(#JkbKPRAGITVD)"/><path fill="rgb(0,250,255)" stroke="none" paint-order="stroke" d="M 142.33424377441406 77.81818389892578 L 142.37641777470708 77.81818389892578 L 142.37641777470708 130.45454788208008 L 142.33424377441406 130.45454788208008 L 142.33424377441406 77.81818389892578" fill-opacity="1" clip-path="url(#JkbKPRAGITVD)"/><path fill="rgb(0,255,213)" stroke="none" paint-order="stroke" d="M 142.3764190673828 77.81818389892578 L 142.52977906167507 77.81818389892578 L 142.52977906167507 130.45454788208008 L 142.3764190673828 130.45454788208008 L 142.3764190673828 77.81818389892578" fill-opacity="1" clip-path="url(#JkbKPRAGITVD)"/><path fill="rgb(0,255,110)" stroke="none" paint-order="stroke" d="M 142.52978515625 77.81818389892578 L 142.5898511558771 77.81818389892578 L 142.5898511558771 130.45454788208008 L 142.52978515625 130.45454788208008 L 142.52978515625 77.81818389892578" fill-opacity="1" clip-path="url(#JkbKPRAGITVD)"/><path fill="rgb(20,255,0)" stroke="none" paint-order="stroke" d="M 142.58984375 77.81818389892578 L 142.93106976151466 77.81818389892578 L 142.93106976151466 130.45454788208008 L 142.58984375 130.45454788208008 L 142.58984375 77.81818389892578" fill-opacity="1" clip-path="url(#JkbKPRAGITVD)"/><path fill="rgb(66,255,0)" stroke="none" paint-order="stroke" d="M 142.9310760498047 77.81818389892578 L 142.9732500500977 77.81818389892578 L 142.9732500500977 130.45454788208008 L 142.9310760498047 130.45454788208008 L 142.9310760498047 77.81818389892578" fill-opacity="1" clip-path="url(#JkbKPRAGITVD)"/><path fill="rgb(104,255,0)" stroke="none" paint-order="stroke" d="M 142.97325134277344 77.81818389892578 L 142.99497734196484 77.81818389892578 L 142.99497734196484 130.45454788208008 L 142.97325134277344 130.45454788208008 L 142.97325134277344 77.81818389892578" fill-opacity="1" clip-path="url(#JkbKPRAGITVD)"/><path fill="rgb(119,255,0)" stroke="none" paint-order="stroke" d="M 142.99496459960938 77.81818389892578 L 143.0626986026764 77.81818389892578 L 143.0626986026764 130.45454788208008 L 142.99496459960938 130.45454788208008 L 142.99496459960938 77.81818389892578" fill-opacity="1" clip-path="url(#JkbKPRAGITVD)"/><path fill="rgb(136,255,0)" stroke="none" paint-order="stroke" d="M 143.0626983642578 77.81818389892578 L 143.1240423657 77.81818389892578 L 143.1240423657 130.45454788208008 L 143.0626983642578 130.45454788208008 L 143.0626983642578 77.81818389892578" fill-opacity="1" clip-path="url(#JkbKPRAGITVD)"/><path fill="rgb(169,255,0)" stroke="none" paint-order="stroke" d="M 143.12405395507812 77.81818389892578 L 143.16494995355606 77.81818389892578 L 143.16494995355606 130.45454788208008 L 143.12405395507812 130.45454788208008 L 143.12405395507812 77.81818389892578" fill-opacity="1" clip-path="url(#JkbKPRAGITVD)"/><path fill="rgb(201,255,0)" stroke="none" paint-order="stroke" d="M 143.16494750976562 77.81818389892578 L 143.4639995098114 77.81818389892578 L 143.4639995098114 130.45454788208008 L 143.16494750976562 130.45454788208008 L 143.16494750976562 77.81818389892578" fill-opacity="1" clip-path="url(#JkbKPRAGITVD)"/><path fill="rgb(231,255,0)" stroke="none" paint-order="stroke" d="M 143.4639892578125 77.81818389892578 L 143.5700632557273 77.81818389892578 L 143.5700632557273 130.45454788208008 L 143.4639892578125 130.45454788208008 L 143.4639892578125 77.81818389892578" fill-opacity="1" clip-path="url(#JkbKPRAGITVD)"/><path fill="rgb(255,251,0)" stroke="none" paint-order="stroke" d="M 143.570068359375 77.81818389892578 L 143.61224235966802 77.81818389892578 L 143.61224235966802 130.45454788208008 L 143.570068359375 130.45454788208008 L 143.570068359375 77.81818389892578" fill-opacity="1" clip-path="url(#JkbKPRAGITVD)"/><path fill="rgb(255,219,0)" stroke="none" paint-order="stroke" d="M 143.61224365234375 77.81818389892578 L 143.63269165158272 77.81818389892578 L 143.63269165158272 130.45454788208008 L 143.61224365234375 130.45454788208008 L 143.61224365234375 77.81818389892578" fill-opacity="1" clip-path="url(#JkbKPRAGITVD)"/><path fill="rgb(255,186,0)" stroke="none" paint-order="stroke" d="M 143.6326904296875 77.81818389892578 L 143.6761424280703 77.81818389892578 L 143.6761424280703 130.45454788208008 L 143.6326904296875 130.45454788208008 L 143.6326904296875 77.81818389892578" fill-opacity="1" clip-path="url(#JkbKPRAGITVD)"/><path fill="rgb(255,169,0)" stroke="none" paint-order="stroke" d="M 143.6761474609375 77.81818389892578 L 143.80394746363163 77.81818389892578 L 143.80394746363163 130.45454788208008 L 143.6761474609375 130.45454788208008 L 143.6761474609375 77.81818389892578" fill-opacity="1" clip-path="url(#JkbKPRAGITVD)"/><path fill="rgb(255,78,0)" stroke="none" paint-order="stroke" d="M 143.80393981933594 77.81818389892578 L 143.8243878185749 77.81818389892578 L 143.8243878185749 130.45454788208008 L 143.80393981933594 130.45454788208008 L 143.80393981933594 77.81818389892578" fill-opacity="1" clip-path="url(#JkbKPRAGITVD)"/><path fill="rgb(255,32,0)" stroke="none" paint-order="stroke" d="M 143.8243865966797 77.81818389892578 L 150.43292474746704 77.81818389892578 L 150.43292474746704 130.45454788208008 L 143.8243865966797 130.45454788208008 L 143.8243865966797 77.81818389892578" fill-opacity="1" clip-path="url(#JkbKPRAGITVD)"/><path fill="rgb(255,122,0)" stroke="none" paint-order="stroke" d="M 150.4329376220703 77.81818389892578 L 150.46105362288654 77.81818389892578 L 150.46105362288654 130.45454788208008 L 150.4329376220703 130.45454788208008 L 150.4329376220703 77.81818389892578" fill-opacity="1" clip-path="url(#JkbKPRAGITVD)"/><path fill="rgb(255,158,0)" stroke="none" paint-order="stroke" d="M 150.46104431152344 77.81818389892578 L 150.53516831249 77.81818389892578 L 150.53516831249 130.45454788208008 L 150.46104431152344 130.45454788208008 L 150.46104431152344 77.81818389892578" fill-opacity="1" clip-path="url(#JkbKPRAGITVD)"/><path fill="rgb(255,176,0)" stroke="none" paint-order="stroke" d="M 150.53517150878906 77.81818389892578 L 150.55689750798047 77.81818389892578 L 150.55689750798047 130.45454788208008 L 150.53517150878906 130.45454788208008 L 150.53517150878906 77.81818389892578" fill-opacity="1" clip-path="url(#JkbKPRAGITVD)"/><path fill="rgb(255,193,0)" stroke="none" paint-order="stroke" d="M 150.55690002441406 77.81818389892578 L 150.57734802365303 77.81818389892578 L 150.57734802365303 130.45454788208008 L 150.55690002441406 130.45454788208008 L 150.55690002441406 77.81818389892578" fill-opacity="1" clip-path="url(#JkbKPRAGITVD)"/><path fill="rgb(225,255,0)" stroke="none" paint-order="stroke" d="M 150.5773468017578 77.81818389892578 L 150.59907280094922 77.81818389892578 L 150.59907280094922 130.45454788208008 L 150.5773468017578 130.45454788208008 L 150.5773468017578 77.81818389892578" fill-opacity="1" clip-path="url(#JkbKPRAGITVD)"/><path fill="rgb(179,255,0)" stroke="none" paint-order="stroke" d="M 150.5990753173828 77.81818389892578 L 150.6233573164791 77.81818389892578 L 150.6233573164791 130.45454788208008 L 150.5990753173828 130.45454788208008 L 150.5990753173828 77.81818389892578" fill-opacity="1" clip-path="url(#JkbKPRAGITVD)"/><path fill="rgb(149,255,0)" stroke="none" paint-order="stroke" d="M 150.62335205078125 77.81818389892578 L 150.64252205006778 77.81818389892578 L 150.64252205006778 130.45454788208008 L 150.62335205078125 130.45454788208008 L 150.62335205078125 77.81818389892578" fill-opacity="1" clip-path="url(#JkbKPRAGITVD)"/><path fill="rgb(132,255,0)" stroke="none" paint-order="stroke" d="M 150.64251708984375 77.81818389892578 L 150.7690390944481 77.81818389892578 L 150.7690390944481 130.45454788208008 L 150.64251708984375 130.45454788208008 L 150.64251708984375 77.81818389892578" fill-opacity="1" clip-path="url(#JkbKPRAGITVD)"/><path fill="rgb(115,255,0)" stroke="none" paint-order="stroke" d="M 150.76904296875 77.81818389892578 L 150.8124949671328 77.81818389892578 L 150.8124949671328 130.45454788208008 L 150.76904296875 130.45454788208008 L 150.76904296875 77.81818389892578" fill-opacity="1" clip-path="url(#JkbKPRAGITVD)"/><path fill="rgb(97,255,0)" stroke="none" paint-order="stroke" d="M 150.8125 77.81818389892578 L 151.08854800462723 77.81818389892578 L 151.08854800462723 130.45454788208008 L 150.8125 130.45454788208008 L 150.8125 77.81818389892578" fill-opacity="1" clip-path="url(#JkbKPRAGITVD)"/><path fill="rgb(78,255,0)" stroke="none" paint-order="stroke" d="M 151.0885467529297 77.81818389892578 L 151.13711075112224 77.81818389892578 L 151.13711075112224 130.45454788208008 L 151.0885467529297 130.45454788208008 L 151.0885467529297 77.81818389892578" fill-opacity="1" clip-path="url(#JkbKPRAGITVD)"/><path fill="rgb(58,255,0)" stroke="none" paint-order="stroke" d="M 151.13711547851562 77.81818389892578 L 151.19462547823787 77.81818389892578 L 151.19462547823787 130.45454788208008 L 151.13711547851562 130.45454788208008 L 151.13711547851562 77.81818389892578" fill-opacity="1" clip-path="url(#JkbKPRAGITVD)"/><path fill="rgb(35,255,0)" stroke="none" paint-order="stroke" d="M 151.19461059570312 77.81818389892578 L 151.25978859513998 77.81818389892578 L 151.25978859513998 130.45454788208008 L 151.19461059570312 130.45454788208008 L 151.19461059570312 77.81818389892578" fill-opacity="1" clip-path="url(#JkbKPRAGITVD)"/><path fill="rgb(8,255,0)" stroke="none" paint-order="stroke" d="M 151.25979614257812 77.81818389892578 L 151.3236961439252 77.81818389892578 L 151.3236961439252 130.45454788208008 L 151.25979614257812 130.45454788208008 L 151.25979614257812 77.81818389892578" fill-opacity="1" clip-path="url(#JkbKPRAGITVD)"/><path fill="rgb(0,255,55)" stroke="none" paint-order="stroke" d="M 151.32369995117188 77.81818389892578 L 151.3658739514649 77.81818389892578 L 151.3658739514649 130.45454788208008 L 151.32369995117188 130.45454788208008 L 151.32369995117188 77.81818389892578" fill-opacity="1" clip-path="url(#JkbKPRAGITVD)"/><path fill="rgb(0,255,122)" stroke="none" paint-order="stroke" d="M 151.36587524414062 77.81818389892578 L 151.5154012441635 77.81818389892578 L 151.5154012441635 130.45454788208008 L 151.36587524414062 130.45454788208008 L 151.36587524414062 77.81818389892578" fill-opacity="1" clip-path="url(#JkbKPRAGITVD)"/><path fill="rgb(0,255,180)" stroke="none" paint-order="stroke" d="M 151.51539611816406 77.81818389892578 L 151.57801812142134 77.81818389892578 L 151.57801812142134 130.45454788208008 L 151.51539611816406 130.45454788208008 L 151.51539611816406 77.81818389892578" fill-opacity="1" clip-path="url(#JkbKPRAGITVD)"/><path fill="rgb(0,255,234)" stroke="none" paint-order="stroke" d="M 151.57801818847656 77.81818389892578 L 151.79144418239594 77.81818389892578 L 151.79144418239594 130.45454788208008 L 151.57801818847656 130.45454788208008 L 151.57801818847656 77.81818389892578" fill-opacity="1" clip-path="url(#JkbKPRAGITVD)"/><path fill="rgb(0,242,255)" stroke="none" paint-order="stroke" d="M 151.79144287109375 77.81818389892578 L 151.83617287129164 77.81818389892578 L 151.83617287129164 130.45454788208008 L 151.79144287109375 130.45454788208008 L 151.79144287109375 77.81818389892578" fill-opacity="1" clip-path="url(#JkbKPRAGITVD)"/><path fill="rgb(0,221,255)" stroke="none" paint-order="stroke" d="M 151.83616638183594 77.81818389892578 L 152.5595144033432 77.81818389892578 L 152.5595144033432 130.45454788208008 L 151.83616638183594 130.45454788208008 L 151.83616638183594 77.81818389892578" fill-opacity="1" clip-path="url(#JkbKPRAGITVD)"/><path fill="rgb(0,200,255)" stroke="none" paint-order="stroke" d="M 152.5595245361328 77.81818389892578 L 152.60169853642583 77.81818389892578 L 152.60169853642583 130.45454788208008 L 152.5595245361328 130.45454788208008 L 152.5595245361328 77.81818389892578" fill-opacity="1" clip-path="url(#JkbKPRAGITVD)"/><path fill="rgb(0,178,255)" stroke="none" paint-order="stroke" d="M 152.60169982910156 77.81818389892578 L 152.80490182340145 77.81818389892578 L 152.80490182340145 130.45454788208008 L 152.60169982910156 130.45454788208008 L 152.60169982910156 77.81818389892578" fill-opacity="1" clip-path="url(#JkbKPRAGITVD)"/><path fill="rgb(0,160,255)" stroke="none" paint-order="stroke" d="M 152.80490112304688 77.81818389892578 L 152.96337312459946 77.81818389892578 L 152.96337312459946 130.45454788208008 L 152.80490112304688 130.45454788208008 L 152.80490112304688 77.81818389892578" fill-opacity="1" clip-path="url(#JkbKPRAGITVD)"/><path fill="rgb(0,137,255)" stroke="none" paint-order="stroke" d="M 152.96336364746094 77.81818389892578 L 153.00553764775395 77.81818389892578 L 153.00553764775395 130.45454788208008 L 152.96336364746094 130.45454788208008 L 152.96336364746094 77.81818389892578" fill-opacity="1" clip-path="url(#JkbKPRAGITVD)"/><path fill="rgb(0,112,255)" stroke="none" paint-order="stroke" d="M 153.0055389404297 77.81818389892578 L 153.47839894890785 77.81818389892578 L 153.47839894890785 130.45454788208008 L 153.0055389404297 130.45454788208008 L 153.0055389404297 77.81818389892578" fill-opacity="1" clip-path="url(#JkbKPRAGITVD)"/><path fill="rgb(0,160,255)" stroke="none" paint-order="stroke" d="M 153.47840881347656 77.81818389892578 L 153.4975788127631 77.81818389892578 L 153.4975788127631 130.45454788208008 L 153.47840881347656 130.45454788208008 L 153.47840881347656 77.81818389892578" fill-opacity="1" clip-path="url(#JkbKPRAGITVD)"/><path fill="rgb(0,178,255)" stroke="none" paint-order="stroke" d="M 153.49757385253906 77.81818389892578 L 153.51802185177803 77.81818389892578 L 153.51802185177803 130.45454788208008 L 153.49757385253906 130.45454788208008 L 153.49757385253906 77.81818389892578" fill-opacity="1" clip-path="url(#JkbKPRAGITVD)"/><path fill="rgb(0,200,255)" stroke="none" paint-order="stroke" d="M 153.5180206298828 77.81818389892578 L 153.53846862912178 77.81818389892578 L 153.53846862912178 130.45454788208008 L 153.5180206298828 130.45454788208008 L 153.5180206298828 77.81818389892578" fill-opacity="1" clip-path="url(#JkbKPRAGITVD)"/><path fill="rgb(0,221,255)" stroke="none" paint-order="stroke" d="M 153.53846740722656 77.81818389892578 L 153.62409340590239 77.81818389892578 L 153.62409340590239 130.45454788208008 L 153.53846740722656 130.45454788208008 L 153.53846740722656 77.81818389892578" fill-opacity="1" clip-path="url(#JkbKPRAGITVD)"/><path fill="rgb(0,255,234)" stroke="none" paint-order="stroke" d="M 153.6240997314453 77.81818389892578 L 153.7301737293601 77.81818389892578 L 153.7301737293601 130.45454788208008 L 153.6240997314453 130.45454788208008 L 153.6240997314453 77.81818389892578" fill-opacity="1" clip-path="url(#JkbKPRAGITVD)"/><path fill="rgb(0,255,180)" stroke="none" paint-order="stroke" d="M 153.73016357421875 77.81818389892578 L 153.77233757451177 77.81818389892578 L 153.77233757451177 130.45454788208008 L 153.73016357421875 130.45454788208008 L 153.73016357421875 77.81818389892578" fill-opacity="1" clip-path="url(#JkbKPRAGITVD)"/><path fill="rgb(0,255,122)" stroke="none" paint-order="stroke" d="M 153.7723388671875 77.81818389892578 L 154.75256484746933 77.81818389892578 L 154.75256484746933 130.45454788208008 L 153.7723388671875 130.45454788208008 L 153.7723388671875 77.81818389892578" fill-opacity="1" clip-path="url(#JkbKPRAGITVD)"/><path fill="rgb(0,255,55)" stroke="none" paint-order="stroke" d="M 154.7525634765625 77.81818389892578 L 154.77556747570634 77.81818389892578 L 154.77556747570634 130.45454788208008 L 154.7525634765625 130.45454788208008 L 154.7525634765625 77.81818389892578" fill-opacity="1" clip-path="url(#JkbKPRAGITVD)"/><path fill="rgb(8,255,0)" stroke="none" paint-order="stroke" d="M 154.77557373046875 77.81818389892578 L 154.9020957350731 77.81818389892578 L 154.9020957350731 130.45454788208008 L 154.77557373046875 130.45454788208008 L 154.77557373046875 77.81818389892578" fill-opacity="1" clip-path="url(#JkbKPRAGITVD)"/><path fill="rgb(35,255,0)" stroke="none" paint-order="stroke" d="M 154.902099609375 77.81818389892578 L 154.92254760861397 77.81818389892578 L 154.92254760861397 130.45454788208008 L 154.902099609375 130.45454788208008 L 154.902099609375 77.81818389892578" fill-opacity="1" clip-path="url(#JkbKPRAGITVD)"/><path fill="rgb(58,255,0)" stroke="none" paint-order="stroke" d="M 154.92254638671875 77.81818389892578 L 155.00817238539457 77.81818389892578 L 155.00817238539457 130.45454788208008 L 154.92254638671875 130.45454788208008 L 154.92254638671875 77.81818389892578" fill-opacity="1" clip-path="url(#JkbKPRAGITVD)"/><path fill="rgb(97,255,0)" stroke="none" paint-order="stroke" d="M 155.00816345214844 77.81818389892578 L 155.09378945082426 77.81818389892578 L 155.09378945082426 130.45454788208008 L 155.00816345214844 130.45454788208008 L 155.00816345214844 77.81818389892578" fill-opacity="1" clip-path="url(#JkbKPRAGITVD)"/><path fill="rgb(115,255,0)" stroke="none" paint-order="stroke" d="M 155.0937957763672 77.81818389892578 L 155.230541780591 77.81818389892578 L 155.230541780591 130.45454788208008 L 155.0937957763672 130.45454788208008 L 155.0937957763672 77.81818389892578" fill-opacity="1" clip-path="url(#JkbKPRAGITVD)"/><path fill="rgb(132,255,0)" stroke="none" paint-order="stroke" d="M 155.2305450439453 77.81818389892578 L 155.33022904396057 77.81818389892578 L 155.33022904396057 130.45454788208008 L 155.2305450439453 130.45454788208008 L 155.2305450439453 77.81818389892578" fill-opacity="1" clip-path="url(#JkbKPRAGITVD)"/><path fill="rgb(149,255,0)" stroke="none" paint-order="stroke" d="M 155.33023071289062 77.81818389892578 L 155.4120227098465 77.81818389892578 L 155.4120227098465 130.45454788208008 L 155.33023071289062 130.45454788208008 L 155.33023071289062 77.81818389892578" fill-opacity="1" clip-path="url(#JkbKPRAGITVD)"/><path fill="rgb(162,255,0)" stroke="none" paint-order="stroke" d="M 155.41201782226562 77.81818389892578 L 155.43374382145703 77.81818389892578 L 155.43374382145703 130.45454788208008 L 155.41201782226562 130.45454788208008 L 155.41201782226562 77.81818389892578" fill-opacity="1" clip-path="url(#JkbKPRAGITVD)"/><path fill="rgb(179,255,0)" stroke="none" paint-order="stroke" d="M 155.43374633789062 77.81818389892578 L 155.47592033818364 77.81818389892578 L 155.47592033818364 130.45454788208008 L 155.43374633789062 130.45454788208008 L 155.43374633789062 77.81818389892578" fill-opacity="1" clip-path="url(#JkbKPRAGITVD)"/><path fill="rgb(194,255,0)" stroke="none" paint-order="stroke" d="M 155.47592163085938 77.81818389892578 L 155.53982163220644 77.81818389892578 L 155.53982163220644 130.45454788208008 L 155.47592163085938 130.45454788208008 L 155.47592163085938 77.81818389892578" fill-opacity="1" clip-path="url(#JkbKPRAGITVD)"/><path fill="rgb(225,255,0)" stroke="none" paint-order="stroke" d="M 155.53982543945312 77.81818389892578 L 155.60500343888998 77.81818389892578 L 155.60500343888998 130.45454788208008 L 155.53982543945312 130.45454788208008 L 155.53982543945312 77.81818389892578" fill-opacity="1" clip-path="url(#JkbKPRAGITVD)"/><path fill="rgb(240,255,0)" stroke="none" paint-order="stroke" d="M 155.60499572753906 77.81818389892578 L 155.64716972783208 77.81818389892578 L 155.64716972783208 130.45454788208008 L 155.60499572753906 130.45454788208008 L 155.60499572753906 77.81818389892578" fill-opacity="1" clip-path="url(#JkbKPRAGITVD)"/><path fill="rgb(255,255,0)" stroke="none" paint-order="stroke" d="M 155.6471710205078 77.81818389892578 L 155.71107102185488 77.81818389892578 L 155.71107102185488 130.45454788208008 L 155.6471710205078 130.45454788208008 L 155.6471710205078 77.81818389892578" fill-opacity="1" clip-path="url(#JkbKPRAGITVD)"/><path fill="rgb(255,226,0)" stroke="none" paint-order="stroke" d="M 155.71107482910156 77.81818389892578 L 155.81714882701635 77.81818389892578 L 155.81714882701635 130.45454788208008 L 155.71107482910156 130.45454788208008 L 155.71107482910156 77.81818389892578" fill-opacity="1" clip-path="url(#JkbKPRAGITVD)"/><path fill="rgb(255,210,0)" stroke="none" paint-order="stroke" d="M 155.817138671875 77.81818389892578 L 155.83758667111397 77.81818389892578 L 155.83758667111397 130.45454788208008 L 155.817138671875 130.45454788208008 L 155.817138671875 77.81818389892578" fill-opacity="1" clip-path="url(#JkbKPRAGITVD)"/><path fill="rgb(255,193,0)" stroke="none" paint-order="stroke" d="M 155.83758544921875 77.81818389892578 L 155.9027634486556 77.81818389892578 L 155.9027634486556 130.45454788208008 L 155.83758544921875 130.45454788208008 L 155.83758544921875 77.81818389892578" fill-opacity="1" clip-path="url(#JkbKPRAGITVD)"/><path fill="rgb(255,158,0)" stroke="none" paint-order="stroke" d="M 155.90277099609375 77.81818389892578 L 155.94494499638677 77.81818389892578 L 155.94494499638677 130.45454788208008 L 155.90277099609375 130.45454788208008 L 155.90277099609375 77.81818389892578" fill-opacity="1" clip-path="url(#JkbKPRAGITVD)"/><path fill="rgb(255,141,0)" stroke="none" paint-order="stroke" d="M 155.9449462890625 77.81818389892578 L 155.96539428830147 77.81818389892578 L 155.96539428830147 130.45454788208008 L 155.9449462890625 130.45454788208008 L 155.9449462890625 77.81818389892578" fill-opacity="1" clip-path="url(#JkbKPRAGITVD)"/><path fill="rgb(255,122,0)" stroke="none" paint-order="stroke" d="M 155.96539306640625 77.81818389892578 L 156.00884506478906 77.81818389892578 L 156.00884506478906 130.45454788208008 L 155.96539306640625 130.45454788208008 L 155.96539306640625 77.81818389892578" fill-opacity="1" clip-path="url(#JkbKPRAGITVD)"/><path fill="rgb(255,87,0)" stroke="none" paint-order="stroke" d="M 156.00885009765625 77.81818389892578 L 156.07275009900331 77.81818389892578 L 156.07275009900331 130.45454788208008 L 156.00885009765625 130.45454788208008 L 156.00885009765625 77.81818389892578" fill-opacity="1" clip-path="url(#JkbKPRAGITVD)"/><path fill="rgb(255,66,0)" stroke="none" paint-order="stroke" d="M 156.07273864746094 77.81818389892578 L 156.20053865015507 77.81818389892578 L 156.20053865015507 130.45454788208008 L 156.07273864746094 130.45454788208008 L 156.07273864746094 77.81818389892578" fill-opacity="1" clip-path="url(#JkbKPRAGITVD)"/><path fill="rgb(255,122,0)" stroke="none" paint-order="stroke" d="M 156.20054626464844 77.81818389892578 L 156.22227226383984 77.81818389892578 L 156.22227226383984 130.45454788208008 L 156.20054626464844 130.45454788208008 L 156.20054626464844 77.81818389892578" fill-opacity="1" clip-path="url(#JkbKPRAGITVD)"/><path fill="rgb(255,193,0)" stroke="none" paint-order="stroke" d="M 156.22227478027344 77.81818389892578 L 156.24527877941728 77.81818389892578 L 156.24527877941728 130.45454788208008 L 156.22227478027344 130.45454788208008 L 156.22227478027344 77.81818389892578" fill-opacity="1" clip-path="url(#JkbKPRAGITVD)"/><path fill="rgb(255,239,0)" stroke="none" paint-order="stroke" d="M 156.24526977539062 77.81818389892578 L 156.26827377453446 77.81818389892578 L 156.26827377453446 130.45454788208008 L 156.24526977539062 130.45454788208008 L 156.24526977539062 77.81818389892578" fill-opacity="1" clip-path="url(#JkbKPRAGITVD)"/><path fill="rgb(240,255,0)" stroke="none" paint-order="stroke" d="M 156.26828002929688 77.81818389892578 L 156.28617202863097 77.81818389892578 L 156.28617202863097 130.45454788208008 L 156.26828002929688 130.45454788208008 L 156.26828002929688 77.81818389892578" fill-opacity="1" clip-path="url(#JkbKPRAGITVD)"/><path fill="rgb(194,255,0)" stroke="none" paint-order="stroke" d="M 156.28616333007812 77.81818389892578 L 156.32833733037114 77.81818389892578 L 156.32833733037114 130.45454788208008 L 156.28616333007812 130.45454788208008 L 156.28616333007812 77.81818389892578" fill-opacity="1" clip-path="url(#JkbKPRAGITVD)"/><path fill="rgb(162,255,0)" stroke="none" paint-order="stroke" d="M 156.32833862304688 77.81818389892578 L 156.35006462223828 77.81818389892578 L 156.35006462223828 130.45454788208008 L 156.32833862304688 130.45454788208008 L 156.32833862304688 77.81818389892578" fill-opacity="1" clip-path="url(#JkbKPRAGITVD)"/><path fill="rgb(132,255,0)" stroke="none" paint-order="stroke" d="M 156.35006713867188 77.81818389892578 L 156.37051513791084 77.81818389892578 L 156.37051513791084 130.45454788208008 L 156.35006713867188 130.45454788208008 L 156.35006713867188 77.81818389892578" fill-opacity="1" clip-path="url(#JkbKPRAGITVD)"/><path fill="rgb(97,255,0)" stroke="none" paint-order="stroke" d="M 156.37051391601562 77.81818389892578 L 156.39223991520703 77.81818389892578 L 156.39223991520703 130.45454788208008 L 156.37051391601562 130.45454788208008 L 156.37051391601562 77.81818389892578" fill-opacity="1" clip-path="url(#JkbKPRAGITVD)"/><path fill="rgb(78,255,0)" stroke="none" paint-order="stroke" d="M 156.39224243164062 77.81818389892578 L 156.41396843083203 77.81818389892578 L 156.41396843083203 130.45454788208008 L 156.39224243164062 130.45454788208008 L 156.39224243164062 77.81818389892578" fill-opacity="1" clip-path="url(#JkbKPRAGITVD)"/><path fill="rgb(58,255,0)" stroke="none" paint-order="stroke" d="M 156.41397094726562 77.81818389892578 L 156.43569694645703 77.81818389892578 L 156.43569694645703 130.45454788208008 L 156.41397094726562 130.45454788208008 L 156.41397094726562 77.81818389892578" fill-opacity="1" clip-path="url(#JkbKPRAGITVD)"/><path fill="rgb(8,255,0)" stroke="none" paint-order="stroke" d="M 156.43569946289062 77.81818389892578 L 156.52004746347666 77.81818389892578 L 156.52004746347666 130.45454788208008 L 156.43569946289062 130.45454788208008 L 156.43569946289062 77.81818389892578" fill-opacity="1" clip-path="url(#JkbKPRAGITVD)"/><path fill="rgb(0,255,55)" stroke="none" paint-order="stroke" d="M 156.52005004882812 77.81818389892578 L 156.54177604801953 77.81818389892578 L 156.54177604801953 130.45454788208008 L 156.52005004882812 130.45454788208008 L 156.52005004882812 77.81818389892578" fill-opacity="1" clip-path="url(#JkbKPRAGITVD)"/><path fill="rgb(0,255,122)" stroke="none" paint-order="stroke" d="M 156.54176330566406 77.81818389892578 L 156.61077530682087 77.81818389892578 L 156.61077530682087 130.45454788208008 L 156.54176330566406 130.45454788208008 L 156.54176330566406 77.81818389892578" fill-opacity="1" clip-path="url(#JkbKPRAGITVD)"/><path fill="rgb(0,255,180)" stroke="none" paint-order="stroke" d="M 156.61077880859375 77.81818389892578 L 156.66956681013107 77.81818389892578 L 156.66956681013107 130.45454788208008 L 156.61077880859375 130.45454788208008 L 156.61077880859375 77.81818389892578" fill-opacity="1" clip-path="url(#JkbKPRAGITVD)"/><path fill="rgb(0,255,234)" stroke="none" paint-order="stroke" d="M 156.66957092285156 77.81818389892578 L 156.71174492314458 77.81818389892578 L 156.71174492314458 130.45454788208008 L 156.66957092285156 130.45454788208008 L 156.66957092285156 77.81818389892578" fill-opacity="1" clip-path="url(#JkbKPRAGITVD)"/><path fill="rgb(0,242,255)" stroke="none" paint-order="stroke" d="M 156.7117462158203 77.81818389892578 L 157.05169421434402 77.81818389892578 L 157.05169421434402 130.45454788208008 L 156.7117462158203 130.45454788208008 L 156.7117462158203 77.81818389892578" fill-opacity="1" clip-path="url(#JkbKPRAGITVD)"/><path fill="rgb(0,221,255)" stroke="none" paint-order="stroke" d="M 157.05169677734375 77.81818389892578 L 157.13732277601957 77.81818389892578 L 157.13732277601957 130.45454788208008 L 157.05169677734375 130.45454788208008 L 157.05169677734375 77.81818389892578" fill-opacity="1" clip-path="url(#JkbKPRAGITVD)"/><path fill="rgb(0,200,255)" stroke="none" paint-order="stroke" d="M 157.13731384277344 77.81818389892578 L 157.15903984196484 77.81818389892578 L 157.15903984196484 130.45454788208008 L 157.13731384277344 130.45454788208008 L 157.13731384277344 77.81818389892578" fill-opacity="1" clip-path="url(#JkbKPRAGITVD)"/><path fill="rgb(0,178,255)" stroke="none" paint-order="stroke" d="M 157.15904235839844 77.81818389892578 L 157.2753403559327 77.81818389892578 L 157.2753403559327 130.45454788208008 L 157.15904235839844 130.45454788208008 L 157.15904235839844 77.81818389892578" fill-opacity="1" clip-path="url(#JkbKPRAGITVD)"/><path fill="rgb(0,160,255)" stroke="none" paint-order="stroke" d="M 157.2753448486328 77.81818389892578 L 157.336688850075 77.81818389892578 L 157.336688850075 130.45454788208008 L 157.2753448486328 130.45454788208008 L 157.2753448486328 77.81818389892578" fill-opacity="1" clip-path="url(#JkbKPRAGITVD)"/><path fill="rgb(0,137,255)" stroke="none" paint-order="stroke" d="M 157.33668518066406 77.81818389892578 L 157.52071717381477 77.81818389892578 L 157.52071717381477 130.45454788208008 L 157.33668518066406 130.45454788208008 L 157.33668518066406 77.81818389892578" fill-opacity="1" clip-path="url(#JkbKPRAGITVD)"/><path fill="rgb(0,112,255)" stroke="none" paint-order="stroke" d="M 157.52072143554688 77.81818389892578 L 157.58462143689394 77.81818389892578 L 157.58462143689394 130.45454788208008 L 157.52072143554688 130.45454788208008 L 157.52072143554688 77.81818389892578" fill-opacity="1" clip-path="url(#JkbKPRAGITVD)"/><path fill="rgb(0,86,255)" stroke="none" paint-order="stroke" d="M 157.58462524414062 77.81818389892578 L 157.77760323882103 77.81818389892578 L 157.77760323882103 130.45454788208008 L 157.58462524414062 130.45454788208008 L 157.58462524414062 77.81818389892578" fill-opacity="1" clip-path="url(#JkbKPRAGITVD)"/><path fill="rgb(0,26,255)" stroke="none" paint-order="stroke" d="M 157.77760314941406 77.81818389892578 L 158.78083312511444 77.81818389892578 L 158.78083312511444 130.45454788208008 L 157.77760314941406 130.45454788208008 L 157.77760314941406 77.81818389892578" fill-opacity="1" clip-path="url(#JkbKPRAGITVD)"/><path fill="rgb(87,0,203)" stroke="none" paint-order="stroke" d="M 158.78082275390625 77.81818389892578 L 158.80127075314522 77.81818389892578 L 158.80127075314522 130.45454788208008 L 158.78082275390625 130.45454788208008 L 158.78082275390625 77.81818389892578" fill-opacity="1" clip-path="url(#JkbKPRAGITVD)"/><path fill="rgb(111,0,151)" stroke="none" paint-order="stroke" d="M 158.80126953125 77.81818389892578 L 158.82555153034627 77.81818389892578 L 158.82555153034627 130.45454788208008 L 158.80126953125 130.45454788208008 L 158.80126953125 77.81818389892578" fill-opacity="1" clip-path="url(#JkbKPRAGITVD)"/><path fill="rgb(111,0,137)" stroke="none" paint-order="stroke" d="M 158.8255615234375 77.81818389892578 L 159.73677551746368 77.81818389892578 L 159.73677551746368 130.45454788208008 L 158.8255615234375 130.45454788208008 L 158.8255615234375 77.81818389892578" fill-opacity="1" clip-path="url(#JkbKPRAGITVD)"/><path fill="rgb(111,0,151)" stroke="none" paint-order="stroke" d="M 159.7367706298828 77.81818389892578 L 159.75977462902665 77.81818389892578 L 159.75977462902665 130.45454788208008 L 159.7367706298828 130.45454788208008 L 159.7367706298828 77.81818389892578" fill-opacity="1" clip-path="url(#JkbKPRAGITVD)"/><path fill="rgb(109,0,164)" stroke="none" paint-order="stroke" d="M 159.75978088378906 77.81818389892578 L 159.8428508862853 77.81818389892578 L 159.8428508862853 130.45454788208008 L 159.75978088378906 130.45454788208008 L 159.75978088378906 77.81818389892578" fill-opacity="1" clip-path="url(#JkbKPRAGITVD)"/><path fill="rgb(104,0,178)" stroke="none" paint-order="stroke" d="M 159.8428497314453 77.81818389892578 L 159.88630172982812 77.81818389892578 L 159.88630172982812 130.45454788208008 L 159.8428497314453 130.45454788208008 L 159.8428497314453 77.81818389892578" fill-opacity="1" clip-path="url(#JkbKPRAGITVD)"/><path fill="rgb(97,0,190)" stroke="none" paint-order="stroke" d="M 159.88629150390625 77.81818389892578 L 160.01409150660038 77.81818389892578 L 160.01409150660038 130.45454788208008 L 159.88629150390625 130.45454788208008 L 159.88629150390625 77.81818389892578" fill-opacity="1" clip-path="url(#JkbKPRAGITVD)"/><path fill="rgb(87,0,203)" stroke="none" paint-order="stroke" d="M 160.01409912109375 77.81818389892578 L 160.1406211256981 77.81818389892578 L 160.1406211256981 130.45454788208008 L 160.01409912109375 130.45454788208008 L 160.01409912109375 77.81818389892578" fill-opacity="1" clip-path="url(#JkbKPRAGITVD)"/><path fill="rgb(75,0,216)" stroke="none" paint-order="stroke" d="M 160.140625 77.81818389892578 L 160.1840769983828 77.81818389892578 L 160.1840769983828 130.45454788208008 L 160.140625 130.45454788208008 L 160.140625 77.81818389892578" fill-opacity="1" clip-path="url(#JkbKPRAGITVD)"/><path fill="rgb(58,0,228)" stroke="none" paint-order="stroke" d="M 160.18406677246094 77.81818389892578 L 160.31186677515507 77.81818389892578 L 160.31186677515507 130.45454788208008 L 160.18406677246094 130.45454788208008 L 160.18406677246094 77.81818389892578" fill-opacity="1" clip-path="url(#JkbKPRAGITVD)"/><path fill="rgb(42,0,238)" stroke="none" paint-order="stroke" d="M 160.31187438964844 77.81818389892578 L 160.39750038832426 77.81818389892578 L 160.39750038832426 130.45454788208008 L 160.31187438964844 130.45454788208008 L 160.31187438964844 77.81818389892578" fill-opacity="1" clip-path="url(#JkbKPRAGITVD)"/><path fill="rgb(16,0,250)" stroke="none" paint-order="stroke" d="M 160.39749145507812 77.81818389892578 L 160.67353945970535 77.81818389892578 L 160.67353945970535 130.45454788208008 L 160.39749145507812 130.45454788208008 L 160.39749145507812 77.81818389892578" fill-opacity="1" clip-path="url(#JkbKPRAGITVD)"/><path fill="rgb(0,26,255)" stroke="none" paint-order="stroke" d="M 160.6735382080078 77.81818389892578 L 160.85373620688915 77.81818389892578 L 160.85373620688915 130.45454788208008 L 160.6735382080078 130.45454788208008 L 160.6735382080078 77.81818389892578" fill-opacity="1" clip-path="url(#JkbKPRAGITVD)"/><path fill="rgb(0,58,255)" stroke="none" paint-order="stroke" d="M 160.85374450683594 77.81818389892578 L 160.92914650589228 77.81818389892578 L 160.92914650589228 130.45454788208008 L 160.85374450683594 130.45454788208008 L 160.85374450683594 77.81818389892578" fill-opacity="1" clip-path="url(#JkbKPRAGITVD)"/><path fill="rgb(0,86,255)" stroke="none" paint-order="stroke" d="M 160.92913818359375 77.81818389892578 L 161.03521218150854 77.81818389892578 L 161.03521218150854 130.45454788208008 L 160.92913818359375 130.45454788208008 L 160.92913818359375 77.81818389892578" fill-opacity="1" clip-path="url(#JkbKPRAGITVD)"/><path fill="rgb(0,112,255)" stroke="none" paint-order="stroke" d="M 161.03521728515625 77.81818389892578 L 161.16301728785038 77.81818389892578 L 161.16301728785038 130.45454788208008 L 161.03521728515625 130.45454788208008 L 161.03521728515625 77.81818389892578" fill-opacity="1" clip-path="url(#JkbKPRAGITVD)"/><path fill="rgb(0,137,255)" stroke="none" paint-order="stroke" d="M 161.16302490234375 77.81818389892578 L 162.03717690706253 77.81818389892578 L 162.03717690706253 130.45454788208008 L 161.16302490234375 130.45454788208008 L 161.16302490234375 77.81818389892578" fill-opacity="1" clip-path="url(#JkbKPRAGITVD)"/><path fill="rgb(0,160,255)" stroke="none" paint-order="stroke" d="M 162.03717041015625 77.81818389892578 L 162.14324440807104 77.81818389892578 L 162.14324440807104 130.45454788208008 L 162.03717041015625 130.45454788208008 L 162.03717041015625 77.81818389892578" fill-opacity="1" clip-path="url(#JkbKPRAGITVD)"/><path fill="rgb(0,178,255)" stroke="none" paint-order="stroke" d="M 162.14324951171875 77.81818389892578 L 162.18670151010156 77.81818389892578 L 162.18670151010156 130.45454788208008 L 162.14324951171875 130.45454788208008 L 162.14324951171875 77.81818389892578" fill-opacity="1" clip-path="url(#JkbKPRAGITVD)"/><path fill="rgb(0,200,255)" stroke="none" paint-order="stroke" d="M 162.1866912841797 77.81818389892578 L 162.2288652844727 77.81818389892578 L 162.2288652844727 130.45454788208008 L 162.1866912841797 130.45454788208008 L 162.1866912841797 77.81818389892578" fill-opacity="1" clip-path="url(#JkbKPRAGITVD)"/><path fill="rgb(0,221,255)" stroke="none" paint-order="stroke" d="M 162.22886657714844 77.81818389892578 L 162.78224056959152 77.81818389892578 L 162.78224056959152 130.45454788208008 L 162.22886657714844 130.45454788208008 L 162.22886657714844 77.81818389892578" fill-opacity="1" clip-path="url(#JkbKPRAGITVD)"/><path fill="rgb(0,200,255)" stroke="none" paint-order="stroke" d="M 162.78224182128906 77.81818389892578 L 162.80396782048047 77.81818389892578 L 162.80396782048047 130.45454788208008 L 162.78224182128906 130.45454788208008 L 162.78224182128906 77.81818389892578" fill-opacity="1" clip-path="url(#JkbKPRAGITVD)"/><path fill="rgb(0,178,255)" stroke="none" paint-order="stroke" d="M 162.80397033691406 77.81818389892578 L 162.82569633610547 77.81818389892578 L 162.82569633610547 130.45454788208008 L 162.80397033691406 130.45454788208008 L 162.80397033691406 77.81818389892578" fill-opacity="1" clip-path="url(#JkbKPRAGITVD)"/><path fill="rgb(0,137,255)" stroke="none" paint-order="stroke" d="M 162.82569885253906 77.81818389892578 L 162.86787285283208 77.81818389892578 L 162.86787285283208 130.45454788208008 L 162.82569885253906 130.45454788208008 L 162.82569885253906 77.81818389892578" fill-opacity="1" clip-path="url(#JkbKPRAGITVD)"/><path fill="rgb(0,112,255)" stroke="none" paint-order="stroke" d="M 162.8678741455078 77.81818389892578 L 162.91004814580083 77.81818389892578 L 162.91004814580083 130.45454788208008 L 162.8678741455078 130.45454788208008 L 162.8678741455078 77.81818389892578" fill-opacity="1" clip-path="url(#JkbKPRAGITVD)"/><path fill="rgb(0,86,255)" stroke="none" paint-order="stroke" d="M 162.91004943847656 77.81818389892578 L 163.0378494411707 77.81818389892578 L 163.0378494411707 130.45454788208008 L 162.91004943847656 130.45454788208008 L 162.91004943847656 77.81818389892578" fill-opacity="1" clip-path="url(#JkbKPRAGITVD)"/><path fill="rgb(0,26,255)" stroke="none" paint-order="stroke" d="M 163.037841796875 77.81818389892578 L 163.31516778469086 77.81818389892578 L 163.31516778469086 130.45454788208008 L 163.037841796875 130.45454788208008 L 163.037841796875 77.81818389892578" fill-opacity="1" clip-path="url(#JkbKPRAGITVD)"/><path fill="rgb(16,0,250)" stroke="none" paint-order="stroke" d="M 163.31517028808594 77.81818389892578 L 190.70654487609863 77.81818389892578 L 190.70654487609863 130.45454788208008 L 163.31517028808594 130.45454788208008 L 163.31517028808594 77.81818389892578" fill-opacity="1" clip-path="url(#JkbKPRAGITVD)"/><path fill="rgb(42,0,238)" stroke="none" paint-order="stroke" d="M 190.70654296875 77.81818389892578 L 198.4640030860901 77.81818389892578 L 198.4640030860901 130.45454788208008 L 190.70654296875 130.45454788208008 L 190.70654296875 77.81818389892578" fill-opacity="1" clip-path="url(#JkbKPRAGITVD)"/><path fill="rgb(143,255,0)" stroke="none" paint-order="stroke" d="M 198.46400451660156 77.81818389892578 L 206.24063444137573 77.81818389892578 L 206.24063444137573 130.45454788208008 L 198.46400451660156 130.45454788208008 L 198.46400451660156 77.81818389892578" fill-opacity="1" clip-path="url(#JkbKPRAGITVD)"/><path fill="rgb(251,0,7)" stroke="none" paint-order="stroke" d="M 58.5 130.4545440673828 L 114.48406982421875 130.4545440673828 L 114.48406982421875 183.0909080505371 L 58.5 183.0909080505371 L 58.5 130.4545440673828" fill-opacity="1" clip-path="url(#wKBKnpTfeHTu)"/><path fill="rgb(56,126,34)" stroke="none" paint-order="stroke" d="M 114.48406982421875 130.4545440673828 L 198.46400451660156 130.4545440673828 L 198.46400451660156 183.0909080505371 L 114.48406982421875 183.0909080505371 L 114.48406982421875 130.4545440673828" fill-opacity="1" clip-path="url(#wKBKnpTfeHTu)"/><path fill="rgb(62,0,101)" stroke="none" paint-order="stroke" d="M 198.46400451660156 130.4545440673828 L 206.24063444137573 130.4545440673828 L 206.24063444137573 183.0909080505371 L 198.46400451660156 183.0909080505371 L 198.46400451660156 130.4545440673828" fill-opacity="1" clip-path="url(#wKBKnpTfeHTu)"/><path fill="rgb(105,29,48)" stroke="none" paint-order="stroke" d="M 118.25800323486328 183.09091186523438 L 118.32190323621035 183.09091186523438 L 118.32190323621035 498.9090881347656 L 118.25800323486328 498.9090881347656 L 118.25800323486328 183.09091186523438" fill-opacity="1" clip-path="url(#UJQhtozWPZSt)"/><path fill="rgb(255,188,66)" stroke="none" paint-order="stroke" d="M 176.1641845703125 183.09091186523438 L 178.8147566318512 183.09091186523438 L 178.8147566318512 498.9090881347656 L 176.1641845703125 498.9090881347656 L 176.1641845703125 183.09091186523438" fill-opacity="1" clip-path="url(#KexGCyTtvPpk)"/><path fill="rgb(255,188,66)" stroke="none" paint-order="stroke" d="M 180.09530639648438 183.09091186523438 L 185.00921630859375 183.09091186523438 L 185.00921630859375 498.9090881347656 L 180.09530639648438 498.9090881347656 L 180.09530639648438 183.09091186523438" fill-opacity="1" clip-path="url(#KexGCyTtvPpk)"/><path fill="rgb(162,174,187)" stroke="none" paint-order="stroke" d="M 94.80670166015625 183.09091186523438 L 94.87060166150331 183.09091186523438 L 94.87060166150331 498.9090881347656 L 94.80670166015625 498.9090881347656 L 94.80670166015625 183.09091186523438" fill-opacity="1" clip-path="url(#tIoAqZzLLQzp)"/><path fill="rgb(162,174,187)" stroke="none" paint-order="stroke" d="M 96.1907730102539 183.09091186523438 L 96.25467301160097 183.09091186523438 L 96.25467301160097 498.9090881347656 L 96.1907730102539 498.9090881347656 L 96.1907730102539 183.09091186523438" fill-opacity="1" clip-path="url(#tIoAqZzLLQzp)"/><path fill="rgb(162,174,187)" stroke="none" paint-order="stroke" d="M 125.81353759765625 183.09091186523438 L 125.87743759900331 183.09091186523438 L 125.87743759900331 498.9090881347656 L 125.81353759765625 498.9090881347656 L 125.81353759765625 183.09091186523438" fill-opacity="1" clip-path="url(#tIoAqZzLLQzp)"/><path fill="rgb(162,174,187)" stroke="none" paint-order="stroke" d="M 128.03214263916016 183.09091186523438 L 128.09604264050722 183.09091186523438 L 128.09604264050722 498.9090881347656 L 128.03214263916016 498.9090881347656 L 128.03214263916016 183.09091186523438" fill-opacity="1" clip-path="url(#tIoAqZzLLQzp)"/><path fill="rgb(162,174,187)" stroke="none" paint-order="stroke" d="M 131.68978881835938 183.09091186523438 L 131.75368881970644 183.09091186523438 L 131.75368881970644 498.9090881347656 L 131.68978881835938 498.9090881347656 L 131.68978881835938 183.09091186523438" fill-opacity="1" clip-path="url(#tIoAqZzLLQzp)"/><path fill="rgb(162,174,187)" stroke="none" paint-order="stroke" d="M 147.57020568847656 183.09091186523438 L 147.63410568982363 183.09091186523438 L 147.63410568982363 498.9090881347656 L 147.57020568847656 498.9090881347656 L 147.57020568847656 183.09091186523438" fill-opacity="1" clip-path="url(#tIoAqZzLLQzp)"/><path fill="rgb(255,188,66)" stroke="none" paint-order="stroke" d="M 92.9075927734375 183.09091186523438 L 93.80858278274536 183.09091186523438 L 93.80858278274536 498.9090881347656 L 92.9075927734375 498.9090881347656 L 92.9075927734375 183.09091186523438" fill-opacity="1" clip-path="url(#mUynafLvxbTk)"/><path fill="rgb(255,188,66)" stroke="none" paint-order="stroke" d="M 122.05622100830078 183.09091186523438 L 123.91059899330139 183.09091186523438 L 123.91059899330139 498.9090881347656 L 122.05622100830078 498.9090881347656 L 122.05622100830078 183.09091186523438" fill-opacity="1" clip-path="url(#mUynafLvxbTk)"/><path fill="rgb(255,188,66)" stroke="none" paint-order="stroke" d="M 186.4482421875 183.09091186523438 L 189.10137009620667 183.09091186523438 L 189.10137009620667 498.9090881347656 L 186.4482421875 498.9090881347656 L 186.4482421875 183.09091186523438" fill-opacity="1" clip-path="url(#mUynafLvxbTk)"/><path fill="rgb(216,17,89)" stroke="none" paint-order="stroke" d="M 99.63243103027344 183.09091186523438 L 99.6963310316205 183.09091186523438 L 99.6963310316205 498.9090881347656 L 99.63243103027344 498.9090881347656 L 99.63243103027344 183.09091186523438" fill-opacity="1" clip-path="url(#nMrOTlVqMTqy)"/><path fill="rgb(216,17,89)" stroke="none" paint-order="stroke" d="M 99.63243103027344 183.09091186523438 L 99.6963310316205 183.09091186523438 L 99.6963310316205 498.9090881347656 L 99.63243103027344 498.9090881347656 L 99.63243103027344 183.09091186523438" fill-opacity="1" clip-path="url(#nMrOTlVqMTqy)"/><path fill="rgb(216,17,89)" stroke="none" paint-order="stroke" d="M 106.32403564453125 183.09091186523438 L 106.38793564587831 183.09091186523438 L 106.38793564587831 498.9090881347656 L 106.32403564453125 498.9090881347656 L 106.32403564453125 183.09091186523438" fill-opacity="1" clip-path="url(#nMrOTlVqMTqy)"/><path fill="rgb(216,17,89)" stroke="none" paint-order="stroke" d="M 106.32403564453125 183.09091186523438 L 106.38793564587831 183.09091186523438 L 106.38793564587831 498.9090881347656 L 106.32403564453125 498.9090881347656 L 106.32403564453125 183.09091186523438" fill-opacity="1" clip-path="url(#nMrOTlVqMTqy)"/><path fill="rgb(216,17,89)" stroke="none" paint-order="stroke" d="M 139.87281799316406 183.09091186523438 L 139.93671799451113 183.09091186523438 L 139.93671799451113 498.9090881347656 L 139.87281799316406 498.9090881347656 L 139.87281799316406 183.09091186523438" fill-opacity="1" clip-path="url(#nMrOTlVqMTqy)"/><path fill="rgb(216,17,89)" stroke="none" paint-order="stroke" d="M 190.70654296875 183.09091186523438 L 190.77044297009706 183.09091186523438 L 190.77044297009706 498.9090881347656 L 190.70654296875 498.9090881347656 L 190.70654296875 183.09091186523438" fill-opacity="1" clip-path="url(#nMrOTlVqMTqy)"/><path fill="rgb(33,131,128)" stroke="none" paint-order="stroke" d="M 112.6808090209961 183.09091186523438 L 114.4840669631958 183.09091186523438 L 114.4840669631958 498.9090881347656 L 112.6808090209961 498.9090881347656 L 112.6808090209961 183.09091186523438" fill-opacity="1" clip-path="url(#QRBDyLRVNOKl)"/><path fill="rgb(33,131,128)" stroke="none" paint-order="stroke" d="M 197.0633087158203 183.09091186523438 L 198.46399676799774 183.09091186523438 L 198.46399676799774 498.9090881347656 L 197.0633087158203 498.9090881347656 L 197.0633087158203 183.09091186523438" fill-opacity="1" clip-path="url(#QRBDyLRVNOKl)"/><path fill="rgb(115,210,222)" stroke="none" paint-order="stroke" d="M 168.0667724609375 183.09091186523438 L 174.10660028457642 183.09091186523438 L 174.10660028457642 498.9090881347656 L 168.0667724609375 498.9090881347656 L 168.0667724609375 183.09091186523438" fill-opacity="1" clip-path="url(#wFpskZgFoHGW)"/><path fill="rgb(115,210,222)" stroke="none" paint-order="stroke" d="M 194.9878387451172 183.09091186523438 L 195.05173874646425 183.09091186523438 L 195.05173874646425 498.9090881347656 L 194.9878387451172 498.9090881347656 L 194.9878387451172 183.09091186523438" fill-opacity="1" clip-path="url(#wFpskZgFoHGW)"/><path fill="rgb(115,210,222)" stroke="none" paint-order="stroke" d="M 194.9878387451172 183.09091186523438 L 195.05173874646425 183.09091186523438 L 195.05173874646425 498.9090881347656 L 194.9878387451172 498.9090881347656 L 194.9878387451172 183.09091186523438" fill-opacity="1" clip-path="url(#wFpskZgFoHGW)"/><path fill="rgb(115,210,222)" stroke="none" paint-order="stroke" d="M 200.98550415039062 183.09091186523438 L 202.14720618724823 183.09091186523438 L 202.14720618724823 498.9090881347656 L 200.98550415039062 498.9090881347656 L 200.98550415039062 183.09091186523438" fill-opacity="1" clip-path="url(#wFpskZgFoHGW)"/><path fill="rgb(28,49,68)" stroke="none" paint-order="stroke" d="M 134.56912231445312 183.09091186523438 L 137.86380624771118 183.09091186523438 L 137.86380624771118 498.9090881347656 L 134.56912231445312 498.9090881347656 L 134.56912231445312 183.09091186523438" fill-opacity="1" clip-path="url(#TxKdfagBDyJB)"/><path fill="rgb(239,185,203)" stroke="none" paint-order="stroke" d="M 69.36811065673828 183.09091186523438 L 89.9618034362793 183.09091186523438 L 89.9618034362793 498.9090881347656 L 69.36811065673828 498.9090881347656 L 69.36811065673828 183.09091186523438" fill-opacity="1" clip-path="url(#KyyZfJkTBXEy)"/><path fill="rgb(105,29,48)" stroke="none" paint-order="stroke" d="M 102.85298919677734 183.09091186523438 L 104.30479717254639 183.09091186523438 L 104.30479717254639 498.9090881347656 L 102.85298919677734 498.9090881347656 L 102.85298919677734 183.09091186523438" fill-opacity="1" clip-path="url(#BgJtxyMRxqge)"/><path fill="rgb(105,29,48)" stroke="none" paint-order="stroke" d="M 141.51376342773438 183.09091186523438 L 145.27747344970703 183.09091186523438 L 145.27747344970703 498.9090881347656 L 141.51376342773438 498.9090881347656 L 141.51376342773438 183.09091186523438" fill-opacity="1" clip-path="url(#BgJtxyMRxqge)"/><path fill="rgb(105,29,48)" stroke="none" paint-order="stroke" d="M 149.87188720703125 183.09091186523438 L 164.42958545684814 183.09091186523438 L 164.42958545684814 498.9090881347656 L 149.87188720703125 498.9090881347656 L 149.87188720703125 183.09091186523438" fill-opacity="1" clip-path="url(#BgJtxyMRxqge)"/><path fill="rgb(255,188,66)" stroke="none" paint-order="stroke" d="M 182.4685516357422 498.9090881347656 L 206.240629196167 498.9090881347656 L 206.240629196167 551.5454521179199 L 182.4685516357422 551.5454521179199 L 182.4685516357422 498.9090881347656" fill-opacity="1" clip-path="url(#KnNRnfEtNkss)"/><path fill="rgb(143,45,86)" stroke="none" paint-order="stroke" d="M 58.5 551.5454711914062 L 122.32715225219727 551.5454711914062 L 122.32715225219727 604.1818351745605 L 58.5 604.1818351745605 L 58.5 551.5454711914062" fill-opacity="1" clip-path="url(#JPqGVOTzvHmF)"/><path fill="rgb(63,136,197)" stroke="none" paint-order="stroke" d="M 122.32715606689453 551.5454711914062 L 122.42428406327963 551.5454711914062 L 122.42428406327963 604.1818351745605 L 122.32715606689453 604.1818351745605 L 122.32715606689453 551.5454711914062" fill-opacity="1" clip-path="url(#JPqGVOTzvHmF)"/><path fill="rgb(143,45,86)" stroke="none" paint-order="stroke" d="M 122.42427825927734 551.5454711914062 L 123.0504982471466 551.5454711914062 L 123.0504982471466 604.1818351745605 L 122.42427825927734 604.1818351745605 L 122.42427825927734 551.5454711914062" fill-opacity="1" clip-path="url(#JPqGVOTzvHmF)"/><path fill="rgb(63,136,197)" stroke="none" paint-order="stroke" d="M 123.05049896240234 551.5454711914062 L 125.81353497505188 551.5454711914062 L 125.81353497505188 604.1818351745605 L 123.05049896240234 604.1818351745605 L 123.05049896240234 551.5454711914062" fill-opacity="1" clip-path="url(#JPqGVOTzvHmF)"/><path fill="rgb(81,60,99)" stroke="none" paint-order="stroke" d="M 125.81353759765625 551.5454711914062 L 128.0321455001831 551.5454711914062 L 128.0321455001831 604.1818351745605 L 125.81353759765625 604.1818351745605 L 125.81353759765625 551.5454711914062" fill-opacity="1" clip-path="url(#JPqGVOTzvHmF)"/><path fill="rgb(63,136,197)" stroke="none" paint-order="stroke" d="M 128.03214263916016 551.5454711914062 L 131.68977856636047 551.5454711914062 L 131.68977856636047 604.1818351745605 L 128.03214263916016 604.1818351745605 L 128.03214263916016 551.5454711914062" fill-opacity="1" clip-path="url(#JPqGVOTzvHmF)"/><path fill="rgb(81,60,99)" stroke="none" paint-order="stroke" d="M 131.68978881835938 551.5454711914062 L 147.57021713256836 551.5454711914062 L 147.57021713256836 604.1818351745605 L 131.68978881835938 604.1818351745605 L 131.68978881835938 551.5454711914062" fill-opacity="1" clip-path="url(#JPqGVOTzvHmF)"/><path fill="rgb(63,136,197)" stroke="none" paint-order="stroke" d="M 147.57020568847656 551.5454711914062 L 186.72429275512695 551.5454711914062 L 186.72429275512695 604.1818351745605 L 147.57020568847656 604.1818351745605 L 147.57020568847656 551.5454711914062" fill-opacity="1" clip-path="url(#JPqGVOTzvHmF)"/><path fill="rgb(143,45,86)" stroke="none" paint-order="stroke" d="M 186.7242889404297 551.5454711914062 L 187.91666293144226 551.5454711914062 L 187.91666293144226 604.1818351745605 L 186.7242889404297 604.1818351745605 L 186.7242889404297 551.5454711914062" fill-opacity="1" clip-path="url(#JPqGVOTzvHmF)"/><path fill="rgb(63,136,197)" stroke="none" paint-order="stroke" d="M 187.9166717529297 551.5454711914062 L 206.2406349182129 551.5454711914062 L 206.2406349182129 604.1818351745605 L 187.9166717529297 604.1818351745605 L 187.9166717529297 551.5454711914062" fill-opacity="1" clip-path="url(#JPqGVOTzvHmF)"/><path fill="none" stroke="rgb(0,0,0)" paint-order="fill" d="M 58.5 77.81818389892578 L 206.24063110351562 77.81818389892578 L 206.24063110351562 604.1818313598633 L 58.5 604.1818313598633 L 58.5 77.81818389892578" stroke-opacity="1" stroke-linejoin="bevel" stroke-miterlimit="10" stroke-dasharray="" clip-path="url(#WUBtXDEiJFkc)"/><path fill="none" stroke="rgb(0,0,0)" paint-order="fill" d="M 58.5 630.5 L 1336.5 630.5" stroke-opacity="1" stroke-linejoin="bevel" stroke-miterlimit="10" stroke-dasharray=""/><path fill="none" stroke="rgb(0,0,0)" paint-order="fill" d="M 58.5 636.5 L 58.5 628.5 M 314.5 636.5 L 314.5 628.5 M 569.5 636.5 L 569.5 628.5 M 825.5 636.5 L 825.5 628.5 M 1080.5 636.5 L 1080.5 628.5 M 1336.5 636.5 L 1336.5 628.5" stroke-opacity="1" stroke-linejoin="bevel" stroke-miterlimit="10" stroke-dasharray=""/><path fill="none" stroke="rgb(0,0,0)" paint-order="fill" d="M 58.5 634.5 L 58.5 630.5 M 109.5 634.5 L 109.5 630.5 M 160.5 634.5 L 160.5 630.5 M 211.5 634.5 L 211.5 630.5 M 262.5 634.5 L 262.5 630.5 M 314.5 634.5 L 314.5 630.5 M 365.5 634.5 L 365.5 630.5 M 416.5 634.5 L 416.5 630.5 M 467.5 634.5 L 467.5 630.5 M 518.5 634.5 L 518.5 630.5 M 569.5 634.5 L 569.5 630.5 M 620.5 634.5 L 620.5 630.5 M 671.5 634.5 L 671.5 630.5 M 723.5 634.5 L 723.5 630.5 M 774.5 634.5 L 774.5 630.5 M 825.5 634.5 L 825.5 630.5 M 876.5 634.5 L 876.5 630.5 M 927.5 634.5 L 927.5 630.5 M 978.5 634.5 L 978.5 630.5 M 1029.5 634.5 L 1029.5 630.5 M 1080.5 634.5 L 1080.5 630.5 M 1132.5 634.5 L 1132.5 630.5 M 1183.5 634.5 L 1183.5 630.5 M 1234.5 634.5 L 1234.5 630.5 M 1285.5 634.5 L 1285.5 630.5 M 1336.5 634.5 L 1336.5 630.5" stroke-opacity="1" stroke-linejoin="bevel" stroke-miterlimit="10" stroke-dasharray=""/><text fill="rgb(68,68,68)" stroke="none" font-family="helvetica" font-size="11px" font-style="normal" font-weight="normal" text-decoration="normal" x="54.94166660308838" y="648.89013671875" text-anchor="start" dominant-baseline="alphabetic" transform="matrix(1, 0, 0, 1, 0.5, 0.5)" fill-opacity="1">0</text><text fill="rgb(68,68,68)" stroke="none" font-family="helvetica" font-size="11px" font-style="normal" font-weight="normal" text-decoration="normal" x="304.42500591278076" y="648.89013671875" text-anchor="start" dominant-baseline="alphabetic" transform="matrix(1, 0, 0, 1, 0.5, 0.5)" fill-opacity="1">200</text><text fill="rgb(68,68,68)" stroke="none" font-family="helvetica" font-size="11px" font-style="normal" font-weight="normal" text-decoration="normal" x="560.0250120162964" y="648.89013671875" text-anchor="start" dominant-baseline="alphabetic" transform="matrix(1, 0, 0, 1, 0.5, 0.5)" fill-opacity="1">400</text><text fill="rgb(68,68,68)" stroke="none" font-family="helvetica" font-size="11px" font-style="normal" font-weight="normal" text-decoration="normal" x="815.6249876022339" y="648.89013671875" text-anchor="start" dominant-baseline="alphabetic" transform="matrix(1, 0, 0, 1, 0.5, 0.5)" fill-opacity="1">600</text><text fill="rgb(68,68,68)" stroke="none" font-family="helvetica" font-size="11px" font-style="normal" font-weight="normal" text-decoration="normal" x="1071.2250242233276" y="648.89013671875" text-anchor="start" dominant-baseline="alphabetic" transform="matrix(1, 0, 0, 1, 0.5, 0.5)" fill-opacity="1">800</text><text fill="rgb(68,68,68)" stroke="none" font-family="helvetica" font-size="11px" font-style="normal" font-weight="normal" text-decoration="normal" x="1323.7666664123535" y="648.89013671875" text-anchor="start" dominant-baseline="alphabetic" transform="matrix(1, 0, 0, 1, 0.5, 0.5)" fill-opacity="1">1000</text><text fill="rgb(68,68,68)" stroke="none" font-family="helvetica" font-size="15pt" font-style="italic" font-weight="normal" text-decoration="normal" x="666.4416675567627" y="676.06982421875" text-anchor="start" dominant-baseline="alphabetic" transform="matrix(1, 0, 0, 1, 0.5, 0.5)" fill-opacity="1">time(s)</text><path fill="none" stroke="rgb(0,0,0)" paint-order="fill" d="M 58.5 630.5 L 58.5 51.5" stroke-opacity="1" stroke-linejoin="bevel" stroke-miterlimit="10" stroke-dasharray=""/><path fill="none" stroke="rgb(0,0,0)" paint-order="fill" d="M 52.5 551.5 L 60.5 551.5 M 52.5 446.5 L 60.5 446.5 M 52.5 341.5 L 60.5 341.5 M 52.5 235.5 L 60.5 235.5 M 52.5 130.5 L 60.5 130.5" stroke-opacity="1" stroke-linejoin="bevel" stroke-miterlimit="10" stroke-dasharray=""/><path fill="none" stroke="rgb(0,0,0)" paint-order="fill" d="M 54.5 572.5 L 58.5 572.5 M 54.5 593.5 L 58.5 593.5 M 54.5 614.5 L 58.5 614.5 M 54.5 551.5 L 58.5 551.5 M 54.5 530.5 L 58.5 530.5 M 54.5 509.5 L 58.5 509.5 M 54.5 488.5 L 58.5 488.5 M 54.5 467.5 L 58.5 467.5 M 54.5 446.5 L 58.5 446.5 M 54.5 425.5 L 58.5 425.5 M 54.5 404.5 L 58.5 404.5 M 54.5 383.5 L 58.5 383.5 M 54.5 362.5 L 58.5 362.5 M 54.5 341.5 L 58.5 341.5 M 54.5 319.5 L 58.5 319.5 M 54.5 298.5 L 58.5 298.5 M 54.5 277.5 L 58.5 277.5 M 54.5 256.5 L 58.5 256.5 M 54.5 235.5 L 58.5 235.5 M 54.5 214.5 L 58.5 214.5 M 54.5 193.5 L 58.5 193.5 M 54.5 172.5 L 58.5 172.5 M 54.5 151.5 L 58.5 151.5 M 54.5 130.5 L 58.5 130.5 M 54.5 109.5 L 58.5 109.5 M 54.5 88.5 L 58.5 88.5 M 54.5 67.5 L 58.5 67.5" stroke-opacity="1" stroke-linejoin="bevel" stroke-miterlimit="10" stroke-dasharray=""/><text fill="rgb(68,68,68)" stroke="none" font-family="helvetica" font-size="11px" font-style="normal" font-weight="normal" text-decoration="normal" x="34.46666622161865" y="554.9905395507812" text-anchor="start" dominant-baseline="alphabetic" transform="matrix(1, 0, 0, 1, 0.5, 0.5)" fill-opacity="1">2</text><text fill="rgb(68,68,68)" stroke="none" font-family="helvetica" font-size="11px" font-style="normal" font-weight="normal" text-decoration="normal" x="34.46666622161865" y="449.7178039550781" text-anchor="start" dominant-baseline="alphabetic" transform="matrix(1, 0, 0, 1, 0.5, 0.5)" fill-opacity="1">1</text><text fill="rgb(68,68,68)" stroke="none" font-family="helvetica" font-size="11px" font-style="normal" font-weight="normal" text-decoration="normal" x="40.88333320617676" y="344.445068359375" text-anchor="start" dominant-baseline="alphabetic" transform="matrix(1, 0, 0, 1, 0.5, 0.5)" fill-opacity="1">0</text><text fill="rgb(68,68,68)" stroke="none" font-family="helvetica" font-size="11px" font-style="normal" font-weight="normal" text-decoration="normal" x="40.88333320617676" y="239.17234802246094" text-anchor="start" dominant-baseline="alphabetic" transform="matrix(1, 0, 0, 1, 0.5, 0.5)" fill-opacity="1">1</text><text fill="rgb(68,68,68)" stroke="none" font-family="helvetica" font-size="11px" font-style="normal" font-weight="normal" text-decoration="normal" x="40.88333320617676" y="133.8996124267578" text-anchor="start" dominant-baseline="alphabetic" transform="matrix(1, 0, 0, 1, 0.5, 0.5)" fill-opacity="1">2</text><text fill="rgb(68,68,68)" stroke="none" font-family="helvetica" font-size="15pt" font-style="italic" font-weight="normal" text-decoration="normal" x="-11.316666603088379" y="336.076171875" text-anchor="start" dominant-baseline="alphabetic" transform="matrix(6.123233995736766e-17, -1, 1, 6.123233995736766e-17, -313.53333377838135, 367.46666622161865)" fill-opacity="1">students</text><path fill="rgb(255,255,255)" stroke="rgb(229,229,229)" paint-order="fill" d="M 1128.2333374023438 61.5 L 1326.5 61.5 L 1326.5 400.5 L 1128.2333374023438 400.5 L 1128.2333374023438 61.5" fill-opacity="0.9490196078431372" clip-path="url(#bekHRcXSqkOt)" stroke-opacity="0.5019607843137255" stroke-linejoin="bevel" stroke-miterlimit="10" stroke-dasharray=""/><text fill="rgb(68,68,68)" stroke="none" font-family="helvetica" font-size="13px" font-style="normal" font-weight="normal" text-decoration="normal" x="1162.7333374023438" y="81" text-anchor="start" dominant-baseline="central" clip-path="url(#bekHRcXSqkOt)" transform="matrix(1, 0, 0, 1, 0.5, 0.5)" fill-opacity="1">wavelength</text><path fill="rgb(0,255,40)" stroke="none" paint-order="stroke" d="M 1140.2333374023438 73.5 L 1156.2333374023438 73.5 L 1156.2333374023438 89.5 L 1140.2333374023438 89.5 L 1140.2333374023438 73.5" fill-opacity="1" clip-path="url(#bekHRcXSqkOt)"/><path fill="rgb(216,17,89)" stroke="none" paint-order="stroke" d="M 1140.2333374023438 73.5 L 1156.2333374023438 73.5 L 1156.2333374023438 89.5 L 1140.2333374023438 89.5 L 1140.2333374023438 73.5" fill-opacity="1" clip-path="url(#bekHRcXSqkOt)"/><text fill="rgb(68,68,68)" stroke="none" font-family="helvetica" font-size="13px" font-style="normal" font-weight="normal" text-decoration="normal" x="1162.7333374023438" y="104" text-anchor="start" dominant-baseline="central" clip-path="url(#bekHRcXSqkOt)" transform="matrix(1, 0, 0, 1, 0.5, 0.5)" fill-opacity="1">solution</text><path fill="rgb(251,0,7)" stroke="none" paint-order="stroke" d="M 1140.2333374023438 96.5 L 1156.2333374023438 96.5 L 1156.2333374023438 112.5 L 1140.2333374023438 112.5 L 1140.2333374023438 96.5" fill-opacity="1" clip-path="url(#bekHRcXSqkOt)"/><path fill="rgb(33,131,128)" stroke="none" paint-order="stroke" d="M 1140.2333374023438 96.5 L 1156.2333374023438 96.5 L 1156.2333374023438 112.5 L 1140.2333374023438 112.5 L 1140.2333374023438 96.5" fill-opacity="1" clip-path="url(#bekHRcXSqkOt)"/><text fill="rgb(68,68,68)" stroke="none" font-family="helvetica" font-size="13px" font-style="normal" font-weight="normal" text-decoration="normal" x="1162.7333374023438" y="127" text-anchor="start" dominant-baseline="central" clip-path="url(#bekHRcXSqkOt)" transform="matrix(1, 0, 0, 1, 0.5, 0.5)" fill-opacity="1">laser</text><path fill="rgb(105,29,48)" stroke="none" paint-order="stroke" d="M 1140.2333374023438 119.5 L 1156.2333374023438 119.5 L 1156.2333374023438 135.5 L 1140.2333374023438 135.5 L 1140.2333374023438 119.5" fill-opacity="1" clip-path="url(#bekHRcXSqkOt)"/><text fill="rgb(68,68,68)" stroke="none" font-family="helvetica" font-size="13px" font-style="normal" font-weight="normal" text-decoration="normal" x="1162.7333374023438" y="150" text-anchor="start" dominant-baseline="central" clip-path="url(#bekHRcXSqkOt)" transform="matrix(1, 0, 0, 1, 0.5, 0.5)" fill-opacity="1">ruler</text><path fill="rgb(255,188,66)" stroke="none" paint-order="stroke" d="M 1140.2333374023438 142.5 L 1156.2333374023438 142.5 L 1156.2333374023438 158.5 L 1140.2333374023438 158.5 L 1140.2333374023438 142.5" fill-opacity="1" clip-path="url(#bekHRcXSqkOt)"/><text fill="rgb(68,68,68)" stroke="none" font-family="helvetica" font-size="13px" font-style="normal" font-weight="normal" text-decoration="normal" x="1162.7333374023438" y="173" text-anchor="start" dominant-baseline="central" clip-path="url(#bekHRcXSqkOt)" transform="matrix(1, 0, 0, 1, 0.5, 0.5)" fill-opacity="1">restarts</text><text fill="rgb(68,68,68)" stroke="none" font-family="helvetica" font-size="13px" font-style="normal" font-weight="normal" text-decoration="normal" x="1162.7333374023438" y="196" text-anchor="start" dominant-baseline="central" clip-path="url(#bekHRcXSqkOt)" transform="matrix(1, 0, 0, 1, 0.5, 0.5)" fill-opacity="1">transmittance_absorbance</text><path fill="rgb(162,174,187)" stroke="none" paint-order="stroke" d="M 1140.2333374023438 188.5 L 1156.2333374023438 188.5 L 1156.2333374023438 204.5 L 1140.2333374023438 204.5 L 1140.2333374023438 188.5" fill-opacity="1" clip-path="url(#bekHRcXSqkOt)"/><text fill="rgb(68,68,68)" stroke="none" font-family="helvetica" font-size="13px" font-style="normal" font-weight="normal" text-decoration="normal" x="1162.7333374023438" y="219" text-anchor="start" dominant-baseline="central" clip-path="url(#bekHRcXSqkOt)" transform="matrix(1, 0, 0, 1, 0.5, 0.5)" fill-opacity="1">magnifier</text><path fill="rgb(255,188,66)" stroke="none" paint-order="stroke" d="M 1140.2333374023438 211.5 L 1156.2333374023438 211.5 L 1156.2333374023438 227.5 L 1140.2333374023438 227.5 L 1140.2333374023438 211.5" fill-opacity="1" clip-path="url(#bekHRcXSqkOt)"/><text fill="rgb(68,68,68)" stroke="none" font-family="helvetica" font-size="13px" font-style="normal" font-weight="normal" text-decoration="normal" x="1162.7333374023438" y="242" text-anchor="start" dominant-baseline="central" clip-path="url(#bekHRcXSqkOt)" transform="matrix(1, 0, 0, 1, 0.5, 0.5)" fill-opacity="1">concentration</text><path fill="rgb(115,210,222)" stroke="none" paint-order="stroke" d="M 1140.2333374023438 234.5 L 1156.2333374023438 234.5 L 1156.2333374023438 250.5 L 1140.2333374023438 250.5 L 1140.2333374023438 234.5" fill-opacity="1" clip-path="url(#bekHRcXSqkOt)"/><text fill="rgb(68,68,68)" stroke="none" font-family="helvetica" font-size="13px" font-style="normal" font-weight="normal" text-decoration="normal" x="1162.7333374023438" y="265" text-anchor="start" dominant-baseline="central" clip-path="url(#bekHRcXSqkOt)" transform="matrix(1, 0, 0, 1, 0.5, 0.5)" fill-opacity="1">flask</text><path fill="rgb(28,49,68)" stroke="none" paint-order="stroke" d="M 1140.2333374023438 257.5 L 1156.2333374023438 257.5 L 1156.2333374023438 273.5 L 1140.2333374023438 273.5 L 1140.2333374023438 257.5" fill-opacity="1" clip-path="url(#bekHRcXSqkOt)"/><text fill="rgb(68,68,68)" stroke="none" font-family="helvetica" font-size="13px" font-style="normal" font-weight="normal" text-decoration="normal" x="1162.7333374023438" y="288" text-anchor="start" dominant-baseline="central" clip-path="url(#bekHRcXSqkOt)" transform="matrix(1, 0, 0, 1, 0.5, 0.5)" fill-opacity="1">pdf</text><path fill="rgb(239,185,203)" stroke="none" paint-order="stroke" d="M 1140.2333374023438 280.5 L 1156.2333374023438 280.5 L 1156.2333374023438 296.5 L 1140.2333374023438 296.5 L 1140.2333374023438 280.5" fill-opacity="1" clip-path="url(#bekHRcXSqkOt)"/><text fill="rgb(68,68,68)" stroke="none" font-family="helvetica" font-size="13px" font-style="normal" font-weight="normal" text-decoration="normal" x="1162.7333374023438" y="311" text-anchor="start" dominant-baseline="central" clip-path="url(#bekHRcXSqkOt)" transform="matrix(1, 0, 0, 1, 0.5, 0.5)" fill-opacity="1">concentrationlab</text><text fill="rgb(68,68,68)" stroke="none" font-family="helvetica" font-size="13px" font-style="normal" font-weight="normal" text-decoration="normal" x="1162.7333374023438" y="334" text-anchor="start" dominant-baseline="central" clip-path="url(#bekHRcXSqkOt)" transform="matrix(1, 0, 0, 1, 0.5, 0.5)" fill-opacity="1">wavelength_slider</text><path fill="rgb(105,29,48)" stroke="none" paint-order="stroke" d="M 1140.2333374023438 326.5 L 1156.2333374023438 326.5 L 1156.2333374023438 342.5 L 1140.2333374023438 342.5 L 1140.2333374023438 326.5" fill-opacity="1" clip-path="url(#bekHRcXSqkOt)"/><text fill="rgb(68,68,68)" stroke="none" font-family="helvetica" font-size="13px" font-style="normal" font-weight="normal" text-decoration="normal" x="1162.7333374023438" y="357" text-anchor="start" dominant-baseline="central" clip-path="url(#bekHRcXSqkOt)" transform="matrix(1, 0, 0, 1, 0.5, 0.5)" fill-opacity="1">ruler measuring</text><path fill="rgb(255,188,66)" stroke="none" paint-order="stroke" d="M 1140.2333374023438 349.5 L 1156.2333374023438 349.5 L 1156.2333374023438 365.5 L 1140.2333374023438 365.5 L 1140.2333374023438 349.5" fill-opacity="1" clip-path="url(#bekHRcXSqkOt)"/><text fill="rgb(68,68,68)" stroke="none" font-family="helvetica" font-size="13px" font-style="normal" font-weight="normal" text-decoration="normal" x="1162.7333374023438" y="380" text-anchor="start" dominant-baseline="central" clip-path="url(#bekHRcXSqkOt)" transform="matrix(1, 0, 0, 1, 0.5, 0.5)" fill-opacity="1">dependent variable</text><path fill="rgb(143,45,86)" stroke="none" paint-order="stroke" d="M 1140.2333374023438 372.5 L 1156.2333374023438 372.5 L 1156.2333374023438 388.5 L 1140.2333374023438 388.5 L 1140.2333374023438 372.5" fill-opacity="1" clip-path="url(#bekHRcXSqkOt)"/><text fill="rgb(68,68,68)" stroke="none" font-family="helvetica" font-size="25pt" font-style="normal" font-weight="bold" text-decoration="normal" x="58" y="38.740885416666664" text-anchor="start" dominant-baseline="alphabetic" transform="matrix(1, 0, 0, 1, 0.5, 0.5)" fill-opacity="1">Timeline for student xw9qt6r4 with permutation 0213 for task 1</text></svg>