<svg version="1.1" xmlns="http://www.w3.org/2000/svg" width="1366" height="683"><defs><clipPath id="SdOoivXPVmQL"><path fill="none" stroke="none" d="M 58.5 51.5 L 1336.5 51.5 L 1336.5 630.5 L 58.5 630.5 L 58.5 51.5"/></clipPath><clipPath id="bJKqxUnopSEJ"><path fill="none" stroke="none" d="M 58.5 51.5 L 1336.5 51.5 L 1336.5 630.5 L 58.5 630.5 L 58.5 51.5"/></clipPath><clipPath id="acOmpQLsDmkX"><path fill="none" stroke="none" d="M 58.5 51.5 L 1336.5 51.5 L 1336.5 630.5 L 58.5 630.5 L 58.5 51.5"/></clipPath><clipPath id="ohuZqVnBWuqU"><path fill="none" stroke="none" d="M 58.5 51.5 L 1336.5 51.5 L 1336.5 630.5 L 58.5 630.5 L 58.5 51.5"/></clipPath><clipPath id="IAkWVWlwRBwz"><path fill="none" stroke="none" d="M 58.5 51.5 L 1336.5 51.5 L 1336.5 630.5 L 58.5 630.5 L 58.5 51.5"/></clipPath><clipPath id="RoogQbWZlzDT"><path fill="none" stroke="none" d="M 58.5 51.5 L 1336.5 51.5 L 1336.5 630.5 L 58.5 630.5 L 58.5 51.5"/></clipPath><clipPath id="FtUnoqUaBVix"><path fill="none" stroke="none" d="M 58.5 51.5 L 1336.5 51.5 L 1336.5 630.5 L 58.5 630.5 L 58.5 51.5"/></clipPath><clipPath id="FtCCzlsytQyr"><path fill="none" stroke="none" d="M 58.5 51.5 L 1336.5 51.5 L 1336.5 630.5 L 58.5 630.5 L 58.5 51.5"/></clipPath><clipPath id="IIbKKETwFNUd"><path fill="none" stroke="none" d="M 58.5 51.5 L 1336.5 51.5 L 1336.5 630.5 L 58.5 630.5 L 58.5 51.5"/></clipPath><clipPath id="LZOeciORxAsM"><path fill="none" stroke="none" d="M 58.5 51.5 L 1336.5 51.5 L 1336.5 630.5 L 58.5 630.5 L 58.5 51.5"/></clipPath><clipPath id="QhLTUqFwuRer"><path fill="none" stroke="none" d="M 58.5 51.5 L 1336.5 51.5 L 1336.5 630.5 L 58.5 630.5 L 58.5 51.5"/></clipPath><clipPath id="tzKEbxJPHnFG"><path fill="none" stroke="none" d="M 58.5 51.5 L 1336.5 51.5 L 1336.5 630.5 L 58.5 630.5 L 58.5 51.5"/></clipPath><clipPath id="TPrubhBDRIIK"><path fill="none" stroke="none" d="M 58.5 51.5 L 1336.5 51.5 L 1336.5 630.5 L 58.5 630.5 L 58.5 51.5"/></clipPath><clipPath id="naCvaUalWilT"><path fill="none" stroke="none" d="M 58.5 51.5 L 1336.5 51.5 L 1336.5 630.5 L 58.5 630.5 L 58.5 51.5"/></clipPath><clipPath id="SvyrsafZBIUS"><path fill="none" stroke="none" d="M 58.5 51.5 L 1336.5 51.5 L 1336.5 630.5 L 58.5 630.5 L 58.5 51.5"/></clipPath><clipPath id="JUnhbnkJsdWy"><path fill="none" stroke="none" d="M 58.5 51.5 L 1336.5 51.5 L 1336.5 630.5 L 58.5 630.5 L 58.5 51.5"/></clipPath><clipPath id="WPwqOahBTJNe"><path fill="none" stroke="none" d="M 58.5 51.5 L 1336.5 51.5 L 1336.5 630.5 L 58.5 630.5 L 58.5 51.5"/></clipPath><clipPath id="bTglqeUOifgw"><path fill="none" stroke="none" d="M 58.5 51.5 L 1336.5 51.5 L 1336.5 630.5 L 58.5 630.5 L 58.5 51.5"/></clipPath><clipPath id="HpaIHmTgqpcv"><path fill="none" stroke="none" d="M 58.5 51.5 L 1336.5 51.5 L 1336.5 630.5 L 58.5 630.5 L 58.5 51.5"/></clipPath><clipPath id="BZPwbpKXHxCn"><path fill="none" stroke="none" d="M 58.5 51.5 L 1336.5 51.5 L 1336.5 630.5 L 58.5 630.5 L 58.5 51.5"/></clipPath><clipPath id="VVQBUvtsPtKS"><path fill="none" stroke="none" d="M 58.5 51.5 L 1336.5 51.5 L 1336.5 630.5 L 58.5 630.5 L 58.5 51.5"/></clipPath></defs><path fill="rgb(255,255,255)" stroke="none" paint-order="stroke" d="M 0.5 0.5 L 1366.5 0.5 L 1366.5 683.5 L 0.5 683.5 L 0.5 0.5" fill-opacity="1"/><rect fill="#FFFFFF" stroke="none" x="58" y="51" width="1278" height="579" transform="matrix(1, 0, 0, 1, 0.5, 0.5)"/><path fill="rgb(255,255,255)" stroke="none" paint-order="stroke" d="M 58.5 51.5 L 1336.5 51.5 L 1336.5 630.5 L 58.5 630.5 L 58.5 51.5" fill-opacity="1"/><path fill="none" stroke="rgb(229,229,229)" paint-order="fill" d="M 58.5 51.5 L 1336.5 51.5 L 1336.5 630.5 L 58.5 630.5 L 58.5 51.5" stroke-opacity="1" stroke-linejoin="bevel" stroke-miterlimit="10" stroke-dasharray=""/><path fill="none" stroke="rgb(229,229,229)" paint-order="fill" d="M 314.5 630.5 L 314.5 51.5 M 569.5 630.5 L 569.5 51.5 M 825.5 630.5 L 825.5 51.5 M 1080.5 630.5 L 1080.5 51.5" stroke-opacity="1" stroke-linejoin="bevel" stroke-miterlimit="10" stroke-dasharray="" clip-path="url(#SdOoivXPVmQL)"/><path fill="none" stroke="rgb(229,229,229)" paint-order="fill" d="M 58.5 551.5 L 1336.5 551.5 M 58.5 446.5 L 1336.5 446.5 M 58.5 341.5 L 1336.5 341.5 M 58.5 235.5 L 1336.5 235.5 M 58.5 130.5 L 1336.5 130.5" stroke-opacity="1" stroke-linejoin="bevel" stroke-miterlimit="10" stroke-dasharray="" clip-path="url(#bJKqxUnopSEJ)"/><path fill="rgb(0,255,40)" stroke="none" paint-order="stroke" d="M 58.5 77.81818389892578 L 74.98747825622559 77.81818389892578 L 74.98747825622559 130.45454788208008 L 58.5 130.45454788208008 L 58.5 77.81818389892578" fill-opacity="1" clip-path="url(#acOmpQLsDmkX)"/><path fill="rgb(14,255,0)" stroke="none" paint-order="stroke" d="M 74.98748016357422 77.81818389892578 L 75.0002601640299 77.81818389892578 L 75.0002601640299 130.45454788208008 L 74.98748016357422 130.45454788208008 L 74.98748016357422 77.81818389892578" fill-opacity="1" clip-path="url(#acOmpQLsDmkX)"/><path fill="rgb(40,255,0)" stroke="none" paint-order="stroke" d="M 75.00025939941406 77.81818389892578 L 75.04754539951682 77.81818389892578 L 75.04754539951682 130.45454788208008 L 75.00025939941406 130.45454788208008 L 75.00025939941406 77.81818389892578" fill-opacity="1" clip-path="url(#acOmpQLsDmkX)"/><path fill="rgb(78,255,0)" stroke="none" paint-order="stroke" d="M 75.04754638671875 77.81818389892578 L 75.09355438500643 77.81818389892578 L 75.09355438500643 130.45454788208008 L 75.04754638671875 130.45454788208008 L 75.04754638671875 77.81818389892578" fill-opacity="1" clip-path="url(#acOmpQLsDmkX)"/><path fill="rgb(97,255,0)" stroke="none" paint-order="stroke" d="M 75.09355163574219 77.81818389892578 L 75.12166763655841 77.81818389892578 L 75.12166763655841 130.45454788208008 L 75.09355163574219 130.45454788208008 L 75.09355163574219 77.81818389892578" fill-opacity="1" clip-path="url(#acOmpQLsDmkX)"/><path fill="rgb(111,255,0)" stroke="none" paint-order="stroke" d="M 75.12166595458984 77.81818389892578 L 75.16639595478773 77.81818389892578 L 75.16639595478773 130.45454788208008 L 75.12166595458984 130.45454788208008 L 75.12166595458984 77.81818389892578" fill-opacity="1" clip-path="url(#acOmpQLsDmkX)"/><path fill="rgb(129,255,0)" stroke="none" paint-order="stroke" d="M 75.16639709472656 77.81818389892578 L 75.19451309554279 77.81818389892578 L 75.19451309554279 130.45454788208008 L 75.16639709472656 130.45454788208008 L 75.16639709472656 77.81818389892578" fill-opacity="1" clip-path="url(#acOmpQLsDmkX)"/><path fill="rgb(146,255,0)" stroke="none" paint-order="stroke" d="M 75.19451141357422 77.81818389892578 L 75.25968941301107 77.81818389892578 L 75.25968941301107 130.45454788208008 L 75.19451141357422 130.45454788208008 L 75.19451141357422 77.81818389892578" fill-opacity="1" clip-path="url(#acOmpQLsDmkX)"/><path fill="rgb(159,255,0)" stroke="none" paint-order="stroke" d="M 75.25968933105469 77.81818389892578 L 75.27885933034122 77.81818389892578 L 75.27885933034122 130.45454788208008 L 75.25968933105469 130.45454788208008 L 75.25968933105469 77.81818389892578" fill-opacity="1" clip-path="url(#acOmpQLsDmkX)"/><path fill="rgb(175,255,0)" stroke="none" paint-order="stroke" d="M 75.27886199951172 77.81818389892578 L 75.36193200200796 77.81818389892578 L 75.36193200200796 130.45454788208008 L 75.27886199951172 130.45454788208008 L 75.27886199951172 77.81818389892578" fill-opacity="1" clip-path="url(#acOmpQLsDmkX)"/><path fill="rgb(188,255,0)" stroke="none" paint-order="stroke" d="M 75.36193084716797 77.81818389892578 L 75.40027084574103 77.81818389892578 L 75.40027084574103 130.45454788208008 L 75.36193084716797 130.45454788208008 L 75.36193084716797 77.81818389892578" fill-opacity="1" clip-path="url(#acOmpQLsDmkX)"/><path fill="rgb(204,255,0)" stroke="none" paint-order="stroke" d="M 75.4002685546875 77.81818389892578 L 75.64053255319595 77.81818389892578 L 75.64053255319595 130.45454788208008 L 75.4002685546875 130.45454788208008 L 75.4002685546875 77.81818389892578" fill-opacity="1" clip-path="url(#acOmpQLsDmkX)"/><path fill="rgb(219,255,0)" stroke="none" paint-order="stroke" d="M 75.64053344726562 77.81818389892578 L 75.68142944574356 77.81818389892578 L 75.68142944574356 130.45454788208008 L 75.64053344726562 130.45454788208008 L 75.64053344726562 77.81818389892578" fill-opacity="1" clip-path="url(#acOmpQLsDmkX)"/><path fill="rgb(231,255,0)" stroke="none" paint-order="stroke" d="M 75.68143463134766 77.81818389892578 L 75.7210526317358 77.81818389892578 L 75.7210526317358 130.45454788208008 L 75.68143463134766 130.45454788208008 L 75.68143463134766 77.81818389892578" fill-opacity="1" clip-path="url(#acOmpQLsDmkX)"/><path fill="rgb(246,255,0)" stroke="none" paint-order="stroke" d="M 75.7210464477539 77.81818389892578 L 75.76449844613671 77.81818389892578 L 75.76449844613671 130.45454788208008 L 75.7210464477539 130.45454788208008 L 75.7210464477539 77.81818389892578" fill-opacity="1" clip-path="url(#acOmpQLsDmkX)"/><path fill="rgb(255,248,0)" stroke="none" paint-order="stroke" d="M 75.7645034790039 77.81818389892578 L 75.83862747997046 77.81818389892578 L 75.83862747997046 130.45454788208008 L 75.7645034790039 130.45454788208008 L 75.7645034790039 77.81818389892578" fill-opacity="1" clip-path="url(#acOmpQLsDmkX)"/><path fill="rgb(255,235,0)" stroke="none" paint-order="stroke" d="M 75.838623046875 77.81818389892578 L 75.90252304822206 77.81818389892578 L 75.90252304822206 130.45454788208008 L 75.838623046875 130.45454788208008 L 75.838623046875 77.81818389892578" fill-opacity="1" clip-path="url(#acOmpQLsDmkX)"/><path fill="rgb(255,219,0)" stroke="none" paint-order="stroke" d="M 75.90252685546875 77.81818389892578 L 75.9677048549056 77.81818389892578 L 75.9677048549056 130.45454788208008 L 75.90252685546875 130.45454788208008 L 75.90252685546875 77.81818389892578" fill-opacity="1" clip-path="url(#acOmpQLsDmkX)"/><path fill="rgb(255,206,0)" stroke="none" paint-order="stroke" d="M 75.96770477294922 77.81818389892578 L 76.0137127712369 77.81818389892578 L 76.0137127712369 130.45454788208008 L 75.96770477294922 130.45454788208008 L 75.96770477294922 77.81818389892578" fill-opacity="1" clip-path="url(#acOmpQLsDmkX)"/><path fill="rgb(255,190,0)" stroke="none" paint-order="stroke" d="M 76.01371002197266 77.81818389892578 L 76.09933602064848 77.81818389892578 L 76.09933602064848 130.45454788208008 L 76.01371002197266 130.45454788208008 L 76.01371002197266 77.81818389892578" fill-opacity="1" clip-path="url(#acOmpQLsDmkX)"/><path fill="rgb(255,172,0)" stroke="none" paint-order="stroke" d="M 76.09933471679688 77.81818389892578 L 76.1325627155602 77.81818389892578 L 76.1325627155602 130.45454788208008 L 76.09933471679688 130.45454788208008 L 76.09933471679688 77.81818389892578" fill-opacity="1" clip-path="url(#acOmpQLsDmkX)"/><path fill="rgb(255,158,0)" stroke="none" paint-order="stroke" d="M 76.132568359375 77.81818389892578 L 76.18624436110258 77.81818389892578 L 76.18624436110258 130.45454788208008 L 76.132568359375 130.45454788208008 L 76.132568359375 77.81818389892578" fill-opacity="1" clip-path="url(#acOmpQLsDmkX)"/><path fill="rgb(255,141,0)" stroke="none" paint-order="stroke" d="M 76.18624114990234 77.81818389892578 L 76.21307915076613 77.81818389892578 L 76.21307915076613 130.45454788208008 L 76.18624114990234 130.45454788208008 L 76.18624114990234 77.81818389892578" fill-opacity="1" clip-path="url(#acOmpQLsDmkX)"/><path fill="rgb(255,122,0)" stroke="none" paint-order="stroke" d="M 76.21308135986328 77.81818389892578 L 76.27825935930014 77.81818389892578 L 76.27825935930014 130.45454788208008 L 76.21308135986328 130.45454788208008 L 76.21308135986328 77.81818389892578" fill-opacity="1" clip-path="url(#acOmpQLsDmkX)"/><path fill="rgb(255,107,0)" stroke="none" paint-order="stroke" d="M 76.27825927734375 77.81818389892578 L 76.32554527744651 77.81818389892578 L 76.32554527744651 130.45454788208008 L 76.27825927734375 130.45454788208008 L 76.27825927734375 77.81818389892578" fill-opacity="1" clip-path="url(#acOmpQLsDmkX)"/><path fill="rgb(255,87,0)" stroke="none" paint-order="stroke" d="M 76.32554626464844 77.81818389892578 L 76.34343826398253 77.81818389892578 L 76.34343826398253 130.45454788208008 L 76.32554626464844 130.45454788208008 L 76.32554626464844 77.81818389892578" fill-opacity="1" clip-path="url(#acOmpQLsDmkX)"/><path fill="rgb(255,70,0)" stroke="none" paint-order="stroke" d="M 76.34343719482422 77.81818389892578 L 76.35238319449127 77.81818389892578 L 76.35238319449127 130.45454788208008 L 76.34343719482422 130.45454788208008 L 76.34343719482422 77.81818389892578" fill-opacity="1" clip-path="url(#acOmpQLsDmkX)"/><path fill="rgb(255,47,0)" stroke="none" paint-order="stroke" d="M 76.35237884521484 77.81818389892578 L 76.40733284503222 77.81818389892578 L 76.40733284503222 130.45454788208008 L 76.35237884521484 130.45454788208008 L 76.35237884521484 77.81818389892578" fill-opacity="1" clip-path="url(#acOmpQLsDmkX)"/><path fill="rgb(255,21,0)" stroke="none" paint-order="stroke" d="M 76.40733337402344 77.81818389892578 L 76.42522537335753 77.81818389892578 L 76.42522537335753 130.45454788208008 L 76.40733337402344 130.45454788208008 L 76.40733337402344 77.81818389892578" fill-opacity="1" clip-path="url(#acOmpQLsDmkX)"/><path fill="rgb(253,0,0)" stroke="none" paint-order="stroke" d="M 76.42522430419922 77.81818389892578 L 76.47251030430198 77.81818389892578 L 76.47251030430198 130.45454788208008 L 76.42522430419922 130.45454788208008 L 76.42522430419922 77.81818389892578" fill-opacity="1" clip-path="url(#acOmpQLsDmkX)"/><path fill="rgb(246,0,0)" stroke="none" paint-order="stroke" d="M 76.4725112915039 77.81818389892578 L 76.48912529088557 77.81818389892578 L 76.48912529088557 130.45454788208008 L 76.4725112915039 130.45454788208008 L 76.4725112915039 77.81818389892578" fill-opacity="1" clip-path="url(#acOmpQLsDmkX)"/><path fill="rgb(239,0,0)" stroke="none" paint-order="stroke" d="M 76.48912811279297 77.81818389892578 L 76.5210781134665 77.81818389892578 L 76.5210781134665 130.45454788208008 L 76.48912811279297 130.45454788208008 L 76.48912811279297 77.81818389892578" fill-opacity="1" clip-path="url(#acOmpQLsDmkX)"/><path fill="rgb(234,0,0)" stroke="none" paint-order="stroke" d="M 76.52108001708984 77.81818389892578 L 76.55686401575804 77.81818389892578 L 76.55686401575804 130.45454788208008 L 76.52108001708984 130.45454788208008 L 76.52108001708984 77.81818389892578" fill-opacity="1" clip-path="url(#acOmpQLsDmkX)"/><path fill="rgb(227,0,0)" stroke="none" paint-order="stroke" d="M 76.5568618774414 77.81818389892578 L 76.70127587020397 77.81818389892578 L 76.70127587020397 130.45454788208008 L 76.5568618774414 130.45454788208008 L 76.5568618774414 77.81818389892578" fill-opacity="1" clip-path="url(#acOmpQLsDmkX)"/><path fill="rgb(220,0,0)" stroke="none" paint-order="stroke" d="M 76.70127868652344 77.81818389892578 L 76.83802469074726 77.81818389892578 L 76.83802469074726 130.45454788208008 L 76.70127868652344 130.45454788208008 L 76.70127868652344 77.81818389892578" fill-opacity="1" clip-path="url(#acOmpQLsDmkX)"/><path fill="rgb(214,0,0)" stroke="none" paint-order="stroke" d="M 76.83802032470703 77.81818389892578 L 76.94920632243156 77.81818389892578 L 76.94920632243156 130.45454788208008 L 76.83802032470703 130.45454788208008 L 76.83802032470703 77.81818389892578" fill-opacity="1" clip-path="url(#acOmpQLsDmkX)"/><path fill="rgb(207,0,0)" stroke="none" paint-order="stroke" d="M 76.94921112060547 77.81818389892578 L 77.29810512065887 77.81818389892578 L 77.29810512065887 130.45454788208008 L 76.94921112060547 130.45454788208008 L 76.94921112060547 77.81818389892578" fill-opacity="1" clip-path="url(#acOmpQLsDmkX)"/><path fill="rgb(201,0,0)" stroke="none" paint-order="stroke" d="M 77.29810333251953 77.81818389892578 L 77.42718133330345 77.81818389892578 L 77.42718133330345 130.45454788208008 L 77.29810333251953 130.45454788208008 L 77.29810333251953 77.81818389892578" fill-opacity="1" clip-path="url(#acOmpQLsDmkX)"/><path fill="rgb(194,0,0)" stroke="none" paint-order="stroke" d="M 77.42717742919922 77.81818389892578 L 77.47446342930198 77.81818389892578 L 77.47446342930198 130.45454788208008 L 77.42717742919922 130.45454788208008 L 77.42717742919922 77.81818389892578" fill-opacity="1" clip-path="url(#acOmpQLsDmkX)"/><path fill="rgb(187,0,0)" stroke="none" paint-order="stroke" d="M 77.4744644165039 77.81818389892578 L 77.56648041307926 77.81818389892578 L 77.56648041307926 130.45454788208008 L 77.4744644165039 130.45454788208008 L 77.4744644165039 77.81818389892578" fill-opacity="1" clip-path="url(#acOmpQLsDmkX)"/><path fill="rgb(181,0,0)" stroke="none" paint-order="stroke" d="M 77.56648254394531 77.81818389892578 L 77.63038254529238 77.81818389892578 L 77.63038254529238 130.45454788208008 L 77.56648254394531 130.45454788208008 L 77.56648254394531 77.81818389892578" fill-opacity="1" clip-path="url(#acOmpQLsDmkX)"/><path fill="rgb(173,0,0)" stroke="none" paint-order="stroke" d="M 77.63037872314453 77.81818389892578 L 77.73006272315979 77.81818389892578 L 77.73006272315979 130.45454788208008 L 77.63037872314453 130.45454788208008 L 77.63037872314453 77.81818389892578" fill-opacity="1" clip-path="url(#acOmpQLsDmkX)"/><path fill="rgb(166,0,0)" stroke="none" paint-order="stroke" d="M 77.73006439208984 77.81818389892578 L 77.77862839028239 77.81818389892578 L 77.77862839028239 130.45454788208008 L 77.73006439208984 130.45454788208008 L 77.73006439208984 77.81818389892578" fill-opacity="1" clip-path="url(#acOmpQLsDmkX)"/><path fill="rgb(160,0,0)" stroke="none" paint-order="stroke" d="M 77.77863311767578 77.81818389892578 L 77.98311312496662 77.81818389892578 L 77.98311312496662 130.45454788208008 L 77.77863311767578 130.45454788208008 L 77.77863311767578 77.81818389892578" fill-opacity="1" clip-path="url(#acOmpQLsDmkX)"/><path fill="rgb(152,0,0)" stroke="none" paint-order="stroke" d="M 77.98310852050781 77.81818389892578 L 78.0891825184226 77.81818389892578 L 78.0891825184226 130.45454788208008 L 77.98310852050781 130.45454788208008 L 77.98310852050781 77.81818389892578" fill-opacity="1" clip-path="url(#acOmpQLsDmkX)"/><path fill="rgb(146,0,0)" stroke="none" paint-order="stroke" d="M 78.08918762207031 77.81818389892578 L 78.69495964050293 77.81818389892578 L 78.69495964050293 130.45454788208008 L 78.08918762207031 130.45454788208008 L 78.08918762207031 77.81818389892578" fill-opacity="1" clip-path="url(#acOmpQLsDmkX)"/><path fill="rgb(160,0,0)" stroke="none" paint-order="stroke" d="M 78.69495391845703 77.81818389892578 L 78.71667991764843 77.81818389892578 L 78.71667991764843 130.45454788208008 L 78.69495391845703 130.45454788208008 L 78.69495391845703 77.81818389892578" fill-opacity="1" clip-path="url(#acOmpQLsDmkX)"/><path fill="rgb(166,0,0)" stroke="none" paint-order="stroke" d="M 78.71668243408203 77.81818389892578 L 78.7243504342623 77.81818389892578 L 78.7243504342623 130.45454788208008 L 78.71668243408203 130.45454788208008 L 78.71668243408203 77.81818389892578" fill-opacity="1" clip-path="url(#acOmpQLsDmkX)"/><path fill="rgb(173,0,0)" stroke="none" paint-order="stroke" d="M 78.72434997558594 77.81818389892578 L 78.73585197515786 77.81818389892578 L 78.73585197515786 130.45454788208008 L 78.72434997558594 130.45454788208008 L 78.72434997558594 77.81818389892578" fill-opacity="1" clip-path="url(#acOmpQLsDmkX)"/><path fill="rgb(187,0,0)" stroke="none" paint-order="stroke" d="M 78.73585510253906 77.81818389892578 L 78.7396891026292 77.81818389892578 L 78.7396891026292 130.45454788208008 L 78.73585510253906 130.45454788208008 L 78.73585510253906 77.81818389892578" fill-opacity="1" clip-path="url(#acOmpQLsDmkX)"/><path fill="rgb(194,0,0)" stroke="none" paint-order="stroke" d="M 78.73968505859375 77.81818389892578 L 78.75246505904943 77.81818389892578 L 78.75246505904943 130.45454788208008 L 78.73968505859375 130.45454788208008 L 78.73968505859375 77.81818389892578" fill-opacity="1" clip-path="url(#acOmpQLsDmkX)"/><path fill="rgb(201,0,0)" stroke="none" paint-order="stroke" d="M 78.7524642944336 77.81818389892578 L 78.77546829357743 77.81818389892578 L 78.77546829357743 130.45454788208008 L 78.7524642944336 130.45454788208008 L 78.7524642944336 77.81818389892578" fill-opacity="1" clip-path="url(#acOmpQLsDmkX)"/><path fill="rgb(214,0,0)" stroke="none" paint-order="stroke" d="M 78.77546691894531 77.81818389892578 L 78.80102691985667 77.81818389892578 L 78.80102691985667 130.45454788208008 L 78.77546691894531 130.45454788208008 L 78.77546691894531 77.81818389892578" fill-opacity="1" clip-path="url(#acOmpQLsDmkX)"/><path fill="rgb(227,0,0)" stroke="none" paint-order="stroke" d="M 78.80103302001953 77.81818389892578 L 78.81253501959145 77.81818389892578 L 78.81253501959145 130.45454788208008 L 78.80103302001953 130.45454788208008 L 78.80103302001953 77.81818389892578" fill-opacity="1" clip-path="url(#acOmpQLsDmkX)"/><path fill="rgb(234,0,0)" stroke="none" paint-order="stroke" d="M 78.81253051757812 77.81818389892578 L 78.83170051686466 77.81818389892578 L 78.83170051686466 130.45454788208008 L 78.81253051757812 130.45454788208008 L 78.81253051757812 77.81818389892578" fill-opacity="1" clip-path="url(#acOmpQLsDmkX)"/><path fill="rgb(239,0,0)" stroke="none" paint-order="stroke" d="M 78.83170318603516 77.81818389892578 L 78.84959518536925 77.81818389892578 L 78.84959518536925 130.45454788208008 L 78.83170318603516 130.45454788208008 L 78.83170318603516 77.81818389892578" fill-opacity="1" clip-path="url(#acOmpQLsDmkX)"/><path fill="rgb(246,0,0)" stroke="none" paint-order="stroke" d="M 78.84959411621094 77.81818389892578 L 78.86109611578286 77.81818389892578 L 78.86109611578286 130.45454788208008 L 78.84959411621094 130.45454788208008 L 78.84959411621094 77.81818389892578" fill-opacity="1" clip-path="url(#acOmpQLsDmkX)"/><path fill="rgb(253,0,0)" stroke="none" paint-order="stroke" d="M 78.86109924316406 77.81818389892578 L 78.87771324254572 77.81818389892578 L 78.87771324254572 130.45454788208008 L 78.86109924316406 130.45454788208008 L 78.86109924316406 77.81818389892578" fill-opacity="1" clip-path="url(#acOmpQLsDmkX)"/><path fill="rgb(255,47,0)" stroke="none" paint-order="stroke" d="M 78.8777084350586 77.81818389892578 L 78.90454643592238 77.81818389892578 L 78.90454643592238 130.45454788208008 L 78.8777084350586 130.45454788208008 L 78.8777084350586 77.81818389892578" fill-opacity="1" clip-path="url(#acOmpQLsDmkX)"/><path fill="rgb(255,70,0)" stroke="none" paint-order="stroke" d="M 78.90454864501953 77.81818389892578 L 78.91349464468658 77.81818389892578 L 78.91349464468658 130.45454788208008 L 78.90454864501953 130.45454788208008 L 78.90454864501953 77.81818389892578" fill-opacity="1" clip-path="url(#acOmpQLsDmkX)"/><path fill="rgb(255,87,0)" stroke="none" paint-order="stroke" d="M 78.91349029541016 77.81818389892578 L 78.93266029469669 77.81818389892578 L 78.93266029469669 130.45454788208008 L 78.91349029541016 130.45454788208008 L 78.91349029541016 77.81818389892578" fill-opacity="1" clip-path="url(#acOmpQLsDmkX)"/><path fill="rgb(255,107,0)" stroke="none" paint-order="stroke" d="M 78.93266296386719 77.81818389892578 L 78.94160896353424 77.81818389892578 L 78.94160896353424 130.45454788208008 L 78.93266296386719 130.45454788208008 L 78.93266296386719 77.81818389892578" fill-opacity="1" clip-path="url(#acOmpQLsDmkX)"/><path fill="rgb(255,122,0)" stroke="none" paint-order="stroke" d="M 78.94161224365234 77.81818389892578 L 78.96972824446857 77.81818389892578 L 78.96972824446857 130.45454788208008 L 78.94161224365234 130.45454788208008 L 78.94161224365234 77.81818389892578" fill-opacity="1" clip-path="url(#acOmpQLsDmkX)"/><path fill="rgb(255,158,0)" stroke="none" paint-order="stroke" d="M 78.9697265625 77.81818389892578 L 78.98889656178653 77.81818389892578 L 78.98889656178653 130.45454788208008 L 78.9697265625 130.45454788208008 L 78.9697265625 77.81818389892578" fill-opacity="1" clip-path="url(#acOmpQLsDmkX)"/><path fill="rgb(255,172,0)" stroke="none" paint-order="stroke" d="M 78.98889923095703 77.81818389892578 L 79.009347230196 77.81818389892578 L 79.009347230196 130.45454788208008 L 78.98889923095703 130.45454788208008 L 78.98889923095703 77.81818389892578" fill-opacity="1" clip-path="url(#acOmpQLsDmkX)"/><path fill="rgb(255,190,0)" stroke="none" paint-order="stroke" d="M 79.00934600830078 77.81818389892578 L 79.06302201002836 77.81818389892578 L 79.06302201002836 130.45454788208008 L 79.00934600830078 130.45454788208008 L 79.00934600830078 77.81818389892578" fill-opacity="1" clip-path="url(#acOmpQLsDmkX)"/><path fill="rgb(255,206,0)" stroke="none" paint-order="stroke" d="M 79.06301879882812 77.81818389892578 L 79.07963279820979 77.81818389892578 L 79.07963279820979 130.45454788208008 L 79.06301879882812 130.45454788208008 L 79.06301879882812 77.81818389892578" fill-opacity="1" clip-path="url(#acOmpQLsDmkX)"/><path fill="rgb(255,219,0)" stroke="none" paint-order="stroke" d="M 79.07963562011719 77.81818389892578 L 79.09752761945128 77.81818389892578 L 79.09752761945128 130.45454788208008 L 79.07963562011719 130.45454788208008 L 79.07963562011719 77.81818389892578" fill-opacity="1" clip-path="url(#acOmpQLsDmkX)"/><path fill="rgb(255,248,0)" stroke="none" paint-order="stroke" d="M 79.09752655029297 77.81818389892578 L 79.15375855192542 77.81818389892578 L 79.15375855192542 130.45454788208008 L 79.09752655029297 130.45454788208008 L 79.09752655029297 77.81818389892578" fill-opacity="1" clip-path="url(#acOmpQLsDmkX)"/><path fill="rgb(246,255,0)" stroke="none" paint-order="stroke" d="M 79.15375518798828 77.81818389892578 L 79.16270118765533 77.81818389892578 L 79.16270118765533 130.45454788208008 L 79.15375518798828 130.45454788208008 L 79.15375518798828 77.81818389892578" fill-opacity="1" clip-path="url(#acOmpQLsDmkX)"/><path fill="rgb(231,255,0)" stroke="none" paint-order="stroke" d="M 79.16270446777344 77.81818389892578 L 79.2010444663465 77.81818389892578 L 79.2010444663465 130.45454788208008 L 79.16270446777344 130.45454788208008 L 79.16270446777344 77.81818389892578" fill-opacity="1" clip-path="url(#acOmpQLsDmkX)"/><path fill="rgb(219,255,0)" stroke="none" paint-order="stroke" d="M 79.20104217529297 77.81818389892578 L 79.21126617491245 77.81818389892578 L 79.21126617491245 130.45454788208008 L 79.20104217529297 130.45454788208008 L 79.20104217529297 77.81818389892578" fill-opacity="1" clip-path="url(#acOmpQLsDmkX)"/><path fill="rgb(204,255,0)" stroke="none" paint-order="stroke" d="M 79.21126556396484 77.81818389892578 L 79.25599556416273 77.81818389892578 L 79.25599556416273 130.45454788208008 L 79.21126556396484 130.45454788208008 L 79.21126556396484 77.81818389892578" fill-opacity="1" clip-path="url(#acOmpQLsDmkX)"/><path fill="rgb(188,255,0)" stroke="none" paint-order="stroke" d="M 79.25599670410156 77.81818389892578 L 79.28155670501292 77.81818389892578 L 79.28155670501292 130.45454788208008 L 79.25599670410156 130.45454788208008 L 79.25599670410156 77.81818389892578" fill-opacity="1" clip-path="url(#acOmpQLsDmkX)"/><path fill="rgb(175,255,0)" stroke="none" paint-order="stroke" d="M 79.28155517578125 77.81818389892578 L 79.31989517435431 77.81818389892578 L 79.31989517435431 130.45454788208008 L 79.28155517578125 130.45454788208008 L 79.28155517578125 77.81818389892578" fill-opacity="1" clip-path="url(#acOmpQLsDmkX)"/><path fill="rgb(159,255,0)" stroke="none" paint-order="stroke" d="M 79.31990051269531 77.81818389892578 L 79.34801651351154 77.81818389892578 L 79.34801651351154 130.45454788208008 L 79.31990051269531 130.45454788208008 L 79.31990051269531 77.81818389892578" fill-opacity="1" clip-path="url(#acOmpQLsDmkX)"/><path fill="rgb(146,255,0)" stroke="none" paint-order="stroke" d="M 79.34801483154297 77.81818389892578 L 79.4668688327074 77.81818389892578 L 79.4668688327074 130.45454788208008 L 79.34801483154297 130.45454788208008 L 79.34801483154297 77.81818389892578" fill-opacity="1" clip-path="url(#acOmpQLsDmkX)"/><path fill="rgb(129,255,0)" stroke="none" paint-order="stroke" d="M 79.46686553955078 77.81818389892578 L 79.51159553974867 77.81818389892578 L 79.51159553974867 130.45454788208008 L 79.46686553955078 130.45454788208008 L 79.46686553955078 77.81818389892578" fill-opacity="1" clip-path="url(#acOmpQLsDmkX)"/><path fill="rgb(111,255,0)" stroke="none" paint-order="stroke" d="M 79.5115966796875 77.81818389892578 L 79.59722267836332 77.81818389892578 L 79.59722267836332 130.45454788208008 L 79.5115966796875 130.45454788208008 L 79.5115966796875 77.81818389892578" fill-opacity="1" clip-path="url(#acOmpQLsDmkX)"/><path fill="rgb(97,255,0)" stroke="none" paint-order="stroke" d="M 79.59722137451172 77.81818389892578 L 79.64067337289453 77.81818389892578 L 79.64067337289453 130.45454788208008 L 79.59722137451172 130.45454788208008 L 79.59722137451172 77.81818389892578" fill-opacity="1" clip-path="url(#acOmpQLsDmkX)"/><path fill="rgb(78,255,0)" stroke="none" paint-order="stroke" d="M 79.64067840576172 77.81818389892578 L 80.1569904088974 77.81818389892578 L 80.1569904088974 130.45454788208008 L 79.64067840576172 130.45454788208008 L 79.64067840576172 77.81818389892578" fill-opacity="1" clip-path="url(#acOmpQLsDmkX)"/><path fill="rgb(97,255,0)" stroke="none" paint-order="stroke" d="M 80.15699005126953 77.81818389892578 L 80.20044204965234 77.81818389892578 L 80.20044204965234 130.45454788208008 L 80.15699005126953 130.45454788208008 L 80.15699005126953 77.81818389892578" fill-opacity="1" clip-path="url(#acOmpQLsDmkX)"/><path fill="rgb(111,255,0)" stroke="none" paint-order="stroke" d="M 80.200439453125 77.81818389892578 L 80.35763345658779 77.81818389892578 L 80.35763345658779 130.45454788208008 L 80.200439453125 130.45454788208008 L 80.200439453125 77.81818389892578" fill-opacity="1" clip-path="url(#acOmpQLsDmkX)"/><path fill="rgb(129,255,0)" stroke="none" paint-order="stroke" d="M 80.35763549804688 77.81818389892578 L 80.40108749642968 77.81818389892578 L 80.40108749642968 130.45454788208008 L 80.35763549804688 130.45454788208008 L 80.35763549804688 77.81818389892578" fill-opacity="1" clip-path="url(#acOmpQLsDmkX)"/><path fill="rgb(146,255,0)" stroke="none" paint-order="stroke" d="M 80.40108489990234 77.81818389892578 L 80.44070290029049 77.81818389892578 L 80.44070290029049 130.45454788208008 L 80.40108489990234 130.45454788208008 L 80.40108489990234 77.81818389892578" fill-opacity="1" clip-path="url(#acOmpQLsDmkX)"/><path fill="rgb(159,255,0)" stroke="none" paint-order="stroke" d="M 80.44070434570312 77.81818389892578 L 80.4867123439908 77.81818389892578 L 80.4867123439908 130.45454788208008 L 80.44070434570312 130.45454788208008 L 80.44070434570312 77.81818389892578" fill-opacity="1" clip-path="url(#acOmpQLsDmkX)"/><path fill="rgb(175,255,0)" stroke="none" paint-order="stroke" d="M 80.48670959472656 77.81818389892578 L 80.58255959302187 77.81818389892578 L 80.58255959302187 130.45454788208008 L 80.48670959472656 130.45454788208008 L 80.48670959472656 77.81818389892578" fill-opacity="1" clip-path="url(#acOmpQLsDmkX)"/><path fill="rgb(188,255,0)" stroke="none" paint-order="stroke" d="M 80.58256530761719 77.81818389892578 L 80.72570130228996 77.81818389892578 L 80.72570130228996 130.45454788208008 L 80.58256530761719 130.45454788208008 L 80.58256530761719 77.81818389892578" fill-opacity="1" clip-path="url(#acOmpQLsDmkX)"/><path fill="rgb(204,255,0)" stroke="none" paint-order="stroke" d="M 80.72570037841797 77.81818389892578 L 81.8912364244461 77.81818389892578 L 81.8912364244461 130.45454788208008 L 80.72570037841797 130.45454788208008 L 80.72570037841797 77.81818389892578" fill-opacity="1" clip-path="url(#acOmpQLsDmkX)"/><path fill="rgb(188,255,0)" stroke="none" paint-order="stroke" d="M 81.8912353515625 77.81818389892578 L 81.93724334985018 77.81818389892578 L 81.93724334985018 130.45454788208008 L 81.8912353515625 130.45454788208008 L 81.8912353515625 77.81818389892578" fill-opacity="1" clip-path="url(#acOmpQLsDmkX)"/><path fill="rgb(175,255,0)" stroke="none" paint-order="stroke" d="M 81.93724060058594 77.81818389892578 L 82.0292565971613 77.81818389892578 L 82.0292565971613 130.45454788208008 L 81.93724060058594 130.45454788208008 L 81.93724060058594 77.81818389892578" fill-opacity="1" clip-path="url(#acOmpQLsDmkX)"/><path fill="rgb(159,255,0)" stroke="none" paint-order="stroke" d="M 82.02925872802734 77.81818389892578 L 82.07398872822523 77.81818389892578 L 82.07398872822523 130.45454788208008 L 82.02925872802734 130.45454788208008 L 82.02925872802734 77.81818389892578" fill-opacity="1" clip-path="url(#acOmpQLsDmkX)"/><path fill="rgb(146,255,0)" stroke="none" paint-order="stroke" d="M 82.07398986816406 77.81818389892578 L 82.11871986836195 77.81818389892578 L 82.11871986836195 130.45454788208008 L 82.07398986816406 130.45454788208008 L 82.07398986816406 77.81818389892578" fill-opacity="1" clip-path="url(#acOmpQLsDmkX)"/><path fill="rgb(129,255,0)" stroke="none" paint-order="stroke" d="M 82.11872100830078 77.81818389892578 L 82.2043470069766 77.81818389892578 L 82.2043470069766 130.45454788208008 L 82.11872100830078 130.45454788208008 L 82.11872100830078 77.81818389892578" fill-opacity="1" clip-path="url(#acOmpQLsDmkX)"/><path fill="rgb(111,255,0)" stroke="none" paint-order="stroke" d="M 82.204345703125 77.81818389892578 L 82.90468972921371 77.81818389892578 L 82.90468972921371 130.45454788208008 L 82.204345703125 130.45454788208008 L 82.204345703125 77.81818389892578" fill-opacity="1" clip-path="url(#acOmpQLsDmkX)"/><path fill="rgb(97,255,0)" stroke="none" paint-order="stroke" d="M 82.9046859741211 77.81818389892578 L 86.43835592269897 77.81818389892578 L 86.43835592269897 130.45454788208008 L 82.9046859741211 130.45454788208008 L 82.9046859741211 77.81818389892578" fill-opacity="1" clip-path="url(#acOmpQLsDmkX)"/><path fill="rgb(111,255,0)" stroke="none" paint-order="stroke" d="M 86.4383544921875 77.81818389892578 L 87.41091251373291 77.81818389892578 L 87.41091251373291 130.45454788208008 L 86.4383544921875 130.45454788208008 L 86.4383544921875 77.81818389892578" fill-opacity="1" clip-path="url(#acOmpQLsDmkX)"/><path fill="rgb(129,255,0)" stroke="none" paint-order="stroke" d="M 87.41091918945312 77.81818389892578 L 87.50421319156885 77.81818389892578 L 87.50421319156885 130.45454788208008 L 87.41091918945312 130.45454788208008 L 87.41091918945312 77.81818389892578" fill-opacity="1" clip-path="url(#acOmpQLsDmkX)"/><path fill="rgb(146,255,0)" stroke="none" paint-order="stroke" d="M 87.50421142578125 77.81818389892578 L 91.4340615272522 77.81818389892578 L 91.4340615272522 130.45454788208008 L 87.50421142578125 130.45454788208008 L 87.50421142578125 77.81818389892578" fill-opacity="1" clip-path="url(#acOmpQLsDmkX)"/><path fill="rgb(129,255,0)" stroke="none" paint-order="stroke" d="M 91.4340591430664 77.81818389892578 L 91.82129314541817 77.81818389892578 L 91.82129314541817 130.45454788208008 L 91.4340591430664 130.45454788208008 L 91.4340591430664 77.81818389892578" fill-opacity="1" clip-path="url(#acOmpQLsDmkX)"/><path fill="rgb(111,255,0)" stroke="none" paint-order="stroke" d="M 91.82129669189453 77.81818389892578 L 94.18815279006958 77.81818389892578 L 94.18815279006958 130.45454788208008 L 91.82129669189453 130.45454788208008 L 91.82129669189453 77.81818389892578" fill-opacity="1" clip-path="url(#acOmpQLsDmkX)"/><path fill="rgb(0,255,40)" stroke="none" paint-order="stroke" d="M 94.18814849853516 77.81818389892578 L 131.67955780029297 77.81818389892578 L 131.67955780029297 130.45454788208008 L 94.18814849853516 130.45454788208008 L 94.18814849853516 77.81818389892578" fill-opacity="1" clip-path="url(#acOmpQLsDmkX)"/><path fill="rgb(102,0,183)" stroke="none" paint-order="stroke" d="M 131.6795654296875 77.81818389892578 L 152.06494331359863 77.81818389892578 L 152.06494331359863 130.45454788208008 L 131.6795654296875 130.45454788208008 L 131.6795654296875 77.81818389892578" fill-opacity="1" clip-path="url(#acOmpQLsDmkX)"/><path fill="rgb(0,255,40)" stroke="none" paint-order="stroke" d="M 152.06494140625 77.81818389892578 L 165.1746654510498 77.81818389892578 L 165.1746654510498 130.45454788208008 L 152.06494140625 130.45454788208008 L 152.06494140625 77.81818389892578" fill-opacity="1" clip-path="url(#acOmpQLsDmkX)"/><path fill="rgb(42,0,238)" stroke="none" paint-order="stroke" d="M 165.17466735839844 77.81818389892578 L 225.52566146850586 77.81818389892578 L 225.52566146850586 130.45454788208008 L 165.17466735839844 130.45454788208008 L 165.17466735839844 77.81818389892578" fill-opacity="1" clip-path="url(#acOmpQLsDmkX)"/><path fill="rgb(251,0,7)" stroke="none" paint-order="stroke" d="M 58.5 130.4545440673828 L 131.67955780029297 130.4545440673828 L 131.67955780029297 183.0909080505371 L 58.5 183.0909080505371 L 58.5 130.4545440673828" fill-opacity="1" clip-path="url(#ohuZqVnBWuqU)"/><path fill="rgb(255,255,10)" stroke="none" paint-order="stroke" d="M 131.6795654296875 130.4545440673828 L 152.06494331359863 130.4545440673828 L 152.06494331359863 183.0909080505371 L 131.6795654296875 183.0909080505371 L 131.6795654296875 130.4545440673828" fill-opacity="1" clip-path="url(#ohuZqVnBWuqU)"/><path fill="rgb(251,0,7)" stroke="none" paint-order="stroke" d="M 152.06494140625 130.4545440673828 L 165.1746654510498 130.4545440673828 L 165.1746654510498 183.0909080505371 L 152.06494140625 183.0909080505371 L 152.06494140625 130.4545440673828" fill-opacity="1" clip-path="url(#ohuZqVnBWuqU)"/><path fill="rgb(56,126,34)" stroke="none" paint-order="stroke" d="M 165.17466735839844 130.4545440673828 L 225.52566146850586 130.4545440673828 L 225.52566146850586 183.0909080505371 L 165.17466735839844 183.0909080505371 L 165.17466735839844 130.4545440673828" fill-opacity="1" clip-path="url(#ohuZqVnBWuqU)"/><path fill="rgb(105,29,48)" stroke="none" paint-order="stroke" d="M 156.0305633544922 183.09091186523438 L 156.09446335583925 183.09091186523438 L 156.09446335583925 498.9090881347656 L 156.0305633544922 498.9090881347656 L 156.0305633544922 183.09091186523438" fill-opacity="1" clip-path="url(#IAkWVWlwRBwz)"/><path fill="rgb(105,29,48)" stroke="none" paint-order="stroke" d="M 168.19073486328125 183.09091186523438 L 168.25463486462831 183.09091186523438 L 168.25463486462831 498.9090881347656 L 168.19073486328125 498.9090881347656 L 168.19073486328125 183.09091186523438" fill-opacity="1" clip-path="url(#IAkWVWlwRBwz)"/><path fill="rgb(105,29,48)" stroke="none" paint-order="stroke" d="M 168.88980102539062 183.09091186523438 L 168.9537010267377 183.09091186523438 L 168.9537010267377 498.9090881347656 L 168.88980102539062 498.9090881347656 L 168.88980102539062 183.09091186523438" fill-opacity="1" clip-path="url(#IAkWVWlwRBwz)"/><path fill="rgb(255,188,66)" stroke="none" paint-order="stroke" d="M 100.99222564697266 183.09091186523438 L 101.16858965158463 183.09091186523438 L 101.16858965158463 498.9090881347656 L 100.99222564697266 498.9090881347656 L 100.99222564697266 183.09091186523438" fill-opacity="1" clip-path="url(#RoogQbWZlzDT)"/><path fill="rgb(255,188,66)" stroke="none" paint-order="stroke" d="M 101.20820617675781 183.09091186523438 L 101.50725817680359 183.09091186523438 L 101.50725817680359 498.9090881347656 L 101.20820617675781 498.9090881347656 L 101.20820617675781 183.09091186523438" fill-opacity="1" clip-path="url(#RoogQbWZlzDT)"/><path fill="rgb(255,188,66)" stroke="none" paint-order="stroke" d="M 102.71752166748047 183.09091186523438 L 107.01160144805908 183.09091186523438 L 107.01160144805908 498.9090881347656 L 102.71752166748047 498.9090881347656 L 102.71752166748047 183.09091186523438" fill-opacity="1" clip-path="url(#RoogQbWZlzDT)"/><path fill="rgb(255,188,66)" stroke="none" paint-order="stroke" d="M 108.18096923828125 183.09091186523438 L 114.04443311691284 183.09091186523438 L 114.04443311691284 498.9090881347656 L 108.18096923828125 498.9090881347656 L 108.18096923828125 183.09091186523438" fill-opacity="1" clip-path="url(#RoogQbWZlzDT)"/><path fill="rgb(162,174,187)" stroke="none" paint-order="stroke" d="M 152.06494140625 183.09091186523438 L 152.12884140759706 183.09091186523438 L 152.12884140759706 498.9090881347656 L 152.06494140625 498.9090881347656 L 152.06494140625 183.09091186523438" fill-opacity="1" clip-path="url(#FtUnoqUaBVix)"/><path fill="rgb(162,174,187)" stroke="none" paint-order="stroke" d="M 154.03050231933594 183.09091186523438 L 154.094402320683 183.09091186523438 L 154.094402320683 498.9090881347656 L 154.03050231933594 498.9090881347656 L 154.03050231933594 183.09091186523438" fill-opacity="1" clip-path="url(#FtUnoqUaBVix)"/><path fill="rgb(162,174,187)" stroke="none" paint-order="stroke" d="M 154.38833618164062 183.09091186523438 L 154.4522361829877 183.09091186523438 L 154.4522361829877 498.9090881347656 L 154.38833618164062 498.9090881347656 L 154.38833618164062 183.09091186523438" fill-opacity="1" clip-path="url(#FtUnoqUaBVix)"/><path fill="rgb(162,174,187)" stroke="none" paint-order="stroke" d="M 117.20365142822266 183.09091186523438 L 117.26755142956972 183.09091186523438 L 117.26755142956972 498.9090881347656 L 117.20365142822266 498.9090881347656 L 117.20365142822266 183.09091186523438" fill-opacity="1" clip-path="url(#FtCCzlsytQyr)"/><path fill="rgb(162,174,187)" stroke="none" paint-order="stroke" d="M 152.06494140625 183.09091186523438 L 152.12884140759706 183.09091186523438 L 152.12884140759706 498.9090881347656 L 152.06494140625 498.9090881347656 L 152.06494140625 183.09091186523438" fill-opacity="1" clip-path="url(#FtCCzlsytQyr)"/><path fill="rgb(162,174,187)" stroke="none" paint-order="stroke" d="M 172.158935546875 183.09091186523438 L 172.22283554822206 183.09091186523438 L 172.22283554822206 498.9090881347656 L 172.158935546875 498.9090881347656 L 172.158935546875 183.09091186523438" fill-opacity="1" clip-path="url(#FtCCzlsytQyr)"/><path fill="rgb(162,174,187)" stroke="none" paint-order="stroke" d="M 174.4554901123047 183.09091186523438 L 174.51939011365175 183.09091186523438 L 174.51939011365175 498.9090881347656 L 174.4554901123047 498.9090881347656 L 174.4554901123047 183.09091186523438" fill-opacity="1" clip-path="url(#FtCCzlsytQyr)"/><path fill="rgb(162,174,187)" stroke="none" paint-order="stroke" d="M 186.5798797607422 183.09091186523438 L 186.64377976208925 183.09091186523438 L 186.64377976208925 498.9090881347656 L 186.5798797607422 498.9090881347656 L 186.5798797607422 183.09091186523438" fill-opacity="1" clip-path="url(#FtCCzlsytQyr)"/><path fill="rgb(162,174,187)" stroke="none" paint-order="stroke" d="M 213.16867065429688 183.09091186523438 L 213.23257065564394 183.09091186523438 L 213.23257065564394 498.9090881347656 L 213.16867065429688 498.9090881347656 L 213.16867065429688 183.09091186523438" fill-opacity="1" clip-path="url(#FtCCzlsytQyr)"/><path fill="rgb(162,174,187)" stroke="none" paint-order="stroke" d="M 215.44479370117188 183.09091186523438 L 215.50869370251894 183.09091186523438 L 215.50869370251894 498.9090881347656 L 215.44479370117188 498.9090881347656 L 215.44479370117188 183.09091186523438" fill-opacity="1" clip-path="url(#FtCCzlsytQyr)"/><path fill="rgb(216,17,89)" stroke="none" paint-order="stroke" d="M 72.5362777709961 183.09091186523438 L 72.60017777234316 183.09091186523438 L 72.60017777234316 498.9090881347656 L 72.5362777709961 498.9090881347656 L 72.5362777709961 183.09091186523438" fill-opacity="1" clip-path="url(#LZOeciORxAsM)"/><path fill="rgb(216,17,89)" stroke="none" paint-order="stroke" d="M 94.18814849853516 183.09091186523438 L 94.25204849988222 183.09091186523438 L 94.25204849988222 498.9090881347656 L 94.18814849853516 498.9090881347656 L 94.18814849853516 183.09091186523438" fill-opacity="1" clip-path="url(#LZOeciORxAsM)"/><path fill="rgb(33,131,128)" stroke="none" paint-order="stroke" d="M 127.70114135742188 183.09091186523438 L 131.67955541610718 183.09091186523438 L 131.67955541610718 498.9090881347656 L 127.70114135742188 498.9090881347656 L 127.70114135742188 183.09091186523438" fill-opacity="1" clip-path="url(#QhLTUqFwuRer)"/><path fill="rgb(33,131,128)" stroke="none" paint-order="stroke" d="M 152.06494140625 183.09091186523438 L 152.12884140759706 183.09091186523438 L 152.12884140759706 498.9090881347656 L 152.06494140625 498.9090881347656 L 152.06494140625 183.09091186523438" fill-opacity="1" clip-path="url(#QhLTUqFwuRer)"/><path fill="rgb(33,131,128)" stroke="none" paint-order="stroke" d="M 154.03050231933594 183.09091186523438 L 154.094402320683 183.09091186523438 L 154.094402320683 498.9090881347656 L 154.03050231933594 498.9090881347656 L 154.03050231933594 183.09091186523438" fill-opacity="1" clip-path="url(#QhLTUqFwuRer)"/><path fill="rgb(33,131,128)" stroke="none" paint-order="stroke" d="M 154.38833618164062 183.09091186523438 L 154.4522361829877 183.09091186523438 L 154.4522361829877 498.9090881347656 L 154.38833618164062 498.9090881347656 L 154.38833618164062 183.09091186523438" fill-opacity="1" clip-path="url(#QhLTUqFwuRer)"/><path fill="rgb(33,131,128)" stroke="none" paint-order="stroke" d="M 163.48641967773438 183.09091186523438 L 165.17465770244598 183.09091186523438 L 165.17465770244598 498.9090881347656 L 163.48641967773438 498.9090881347656 L 163.48641967773438 183.09091186523438" fill-opacity="1" clip-path="url(#QhLTUqFwuRer)"/><path fill="rgb(115,210,222)" stroke="none" paint-order="stroke" d="M 145.16246032714844 183.09091186523438 L 150.76010036468506 183.09091186523438 L 150.76010036468506 498.9090881347656 L 145.16246032714844 498.9090881347656 L 145.16246032714844 183.09091186523438" fill-opacity="1" clip-path="url(#tzKEbxJPHnFG)"/><path fill="rgb(115,210,222)" stroke="none" paint-order="stroke" d="M 179.5278778076172 183.09091186523438 L 184.29354000091553 183.09091186523438 L 184.29354000091553 498.9090881347656 L 179.5278778076172 498.9090881347656 L 179.5278778076172 183.09091186523438" fill-opacity="1" clip-path="url(#tzKEbxJPHnFG)"/><path fill="rgb(115,210,222)" stroke="none" paint-order="stroke" d="M 188.41636657714844 183.09091186523438 L 190.3538146018982 183.09091186523438 L 190.3538146018982 498.9090881347656 L 188.41636657714844 498.9090881347656 L 188.41636657714844 183.09091186523438" fill-opacity="1" clip-path="url(#tzKEbxJPHnFG)"/><path fill="rgb(115,210,222)" stroke="none" paint-order="stroke" d="M 192.11106872558594 183.09091186523438 L 194.77953267097473 183.09091186523438 L 194.77953267097473 498.9090881347656 L 192.11106872558594 498.9090881347656 L 192.11106872558594 183.09091186523438" fill-opacity="1" clip-path="url(#tzKEbxJPHnFG)"/><path fill="rgb(115,210,222)" stroke="none" paint-order="stroke" d="M 201.7893524169922 183.09091186523438 L 202.58682441711426 183.09091186523438 L 202.58682441711426 498.9090881347656 L 201.7893524169922 498.9090881347656 L 201.7893524169922 183.09091186523438" fill-opacity="1" clip-path="url(#tzKEbxJPHnFG)"/><path fill="rgb(115,210,222)" stroke="none" paint-order="stroke" d="M 205.64125061035156 183.09091186523438 L 211.16093254089355 183.09091186523438 L 211.16093254089355 498.9090881347656 L 205.64125061035156 498.9090881347656 L 205.64125061035156 183.09091186523438" fill-opacity="1" clip-path="url(#tzKEbxJPHnFG)"/><path fill="rgb(28,49,68)" stroke="none" paint-order="stroke" d="M 119.56922912597656 183.09091186523438 L 125.78286504745483 183.09091186523438 L 125.78286504745483 498.9090881347656 L 119.56922912597656 498.9090881347656 L 119.56922912597656 183.09091186523438" fill-opacity="1" clip-path="url(#TPrubhBDRIIK)"/><path fill="rgb(28,49,68)" stroke="none" paint-order="stroke" d="M 136.17811584472656 183.09091186523438 L 140.80575370788574 183.09091186523438 L 140.80575370788574 498.9090881347656 L 136.17811584472656 498.9090881347656 L 136.17811584472656 183.09091186523438" fill-opacity="1" clip-path="url(#TPrubhBDRIIK)"/><path fill="rgb(28,49,68)" stroke="none" paint-order="stroke" d="M 197.301025390625 183.09091186523438 L 200.3631134033203 183.09091186523438 L 200.3631134033203 498.9090881347656 L 197.301025390625 498.9090881347656 L 197.301025390625 183.09091186523438" fill-opacity="1" clip-path="url(#TPrubhBDRIIK)"/><path fill="rgb(105,29,48)" stroke="none" paint-order="stroke" d="M 74.59513092041016 183.09091186523438 L 92.38872528076172 183.09091186523438 L 92.38872528076172 498.9090881347656 L 74.59513092041016 498.9090881347656 L 74.59513092041016 183.09091186523438" fill-opacity="1" clip-path="url(#JUnhbnkJsdWy)"/><path fill="rgb(255,188,66)" stroke="none" paint-order="stroke" d="M 110.47114562988281 498.9090881347656 L 152.06493377685547 498.9090881347656 L 152.06493377685547 551.5454521179199 L 110.47114562988281 551.5454521179199 L 110.47114562988281 498.9090881347656" fill-opacity="1" clip-path="url(#WPwqOahBTJNe)"/><path fill="rgb(143,45,86)" stroke="none" paint-order="stroke" d="M 58.5 551.5454711914062 L 156.03057098388672 551.5454711914062 L 156.03057098388672 604.1818351745605 L 58.5 604.1818351745605 L 58.5 551.5454711914062" fill-opacity="1" clip-path="url(#bTglqeUOifgw)"/><path fill="rgb(63,136,197)" stroke="none" paint-order="stroke" d="M 156.0305633544922 551.5454711914062 L 168.19073295593262 551.5454711914062 L 168.19073295593262 604.1818351745605 L 156.0305633544922 604.1818351745605 L 156.0305633544922 551.5454711914062" fill-opacity="1" clip-path="url(#bTglqeUOifgw)"/><path fill="rgb(143,45,86)" stroke="none" paint-order="stroke" d="M 168.19073486328125 551.5454711914062 L 168.8898008465767 551.5454711914062 L 168.8898008465767 604.1818351745605 L 168.19073486328125 604.1818351745605 L 168.19073486328125 551.5454711914062" fill-opacity="1" clip-path="url(#bTglqeUOifgw)"/><path fill="rgb(63,136,197)" stroke="none" paint-order="stroke" d="M 168.88980102539062 551.5454711914062 L 172.15892505645752 551.5454711914062 L 172.15892505645752 604.1818351745605 L 168.88980102539062 604.1818351745605 L 168.88980102539062 551.5454711914062" fill-opacity="1" clip-path="url(#bTglqeUOifgw)"/><path fill="rgb(81,60,99)" stroke="none" paint-order="stroke" d="M 172.158935546875 551.5454711914062 L 174.45550155639648 551.5454711914062 L 174.45550155639648 604.1818351745605 L 172.158935546875 604.1818351745605 L 172.158935546875 551.5454711914062" fill-opacity="1" clip-path="url(#bTglqeUOifgw)"/><path fill="rgb(63,136,197)" stroke="none" paint-order="stroke" d="M 174.4554901123047 551.5454711914062 L 186.57987594604492 551.5454711914062 L 186.57987594604492 604.1818351745605 L 174.4554901123047 604.1818351745605 L 174.4554901123047 551.5454711914062" fill-opacity="1" clip-path="url(#bTglqeUOifgw)"/><path fill="rgb(81,60,99)" stroke="none" paint-order="stroke" d="M 186.5798797607422 551.5454711914062 L 213.16867065429688 551.5454711914062 L 213.16867065429688 604.1818351745605 L 186.5798797607422 604.1818351745605 L 186.5798797607422 551.5454711914062" fill-opacity="1" clip-path="url(#bTglqeUOifgw)"/><path fill="rgb(63,136,197)" stroke="none" paint-order="stroke" d="M 213.16867065429688 551.5454711914062 L 215.4447886943817 551.5454711914062 L 215.4447886943817 604.1818351745605 L 213.16867065429688 604.1818351745605 L 213.16867065429688 551.5454711914062" fill-opacity="1" clip-path="url(#bTglqeUOifgw)"/><path fill="rgb(81,60,99)" stroke="none" paint-order="stroke" d="M 215.44479370117188 551.5454711914062 L 225.5256576538086 551.5454711914062 L 225.5256576538086 604.1818351745605 L 215.44479370117188 604.1818351745605 L 215.44479370117188 551.5454711914062" fill-opacity="1" clip-path="url(#bTglqeUOifgw)"/><path fill="none" stroke="rgb(0,0,0)" paint-order="fill" d="M 58.5 77.81818389892578 L 225.52565002441406 77.81818389892578 L 225.52565002441406 604.1818313598633 L 58.5 604.1818313598633 L 58.5 77.81818389892578" stroke-opacity="1" stroke-linejoin="bevel" stroke-miterlimit="10" stroke-dasharray="" clip-path="url(#HpaIHmTgqpcv)"/><path fill="none" stroke="rgb(0,0,0)" paint-order="fill" d="M 58.5 630.5 L 1336.5 630.5" stroke-opacity="1" stroke-linejoin="bevel" stroke-miterlimit="10" stroke-dasharray=""/><path fill="none" stroke="rgb(0,0,0)" paint-order="fill" d="M 58.5 636.5 L 58.5 628.5 M 314.5 636.5 L 314.5 628.5 M 569.5 636.5 L 569.5 628.5 M 825.5 636.5 L 825.5 628.5 M 1080.5 636.5 L 1080.5 628.5 M 1336.5 636.5 L 1336.5 628.5" stroke-opacity="1" stroke-linejoin="bevel" stroke-miterlimit="10" stroke-dasharray=""/><path fill="none" stroke="rgb(0,0,0)" paint-order="fill" d="M 58.5 634.5 L 58.5 630.5 M 109.5 634.5 L 109.5 630.5 M 160.5 634.5 L 160.5 630.5 M 211.5 634.5 L 211.5 630.5 M 262.5 634.5 L 262.5 630.5 M 314.5 634.5 L 314.5 630.5 M 365.5 634.5 L 365.5 630.5 M 416.5 634.5 L 416.5 630.5 M 467.5 634.5 L 467.5 630.5 M 518.5 634.5 L 518.5 630.5 M 569.5 634.5 L 569.5 630.5 M 620.5 634.5 L 620.5 630.5 M 671.5 634.5 L 671.5 630.5 M 723.5 634.5 L 723.5 630.5 M 774.5 634.5 L 774.5 630.5 M 825.5 634.5 L 825.5 630.5 M 876.5 634.5 L 876.5 630.5 M 927.5 634.5 L 927.5 630.5 M 978.5 634.5 L 978.5 630.5 M 1029.5 634.5 L 1029.5 630.5 M 1080.5 634.5 L 1080.5 630.5 M 1132.5 634.5 L 1132.5 630.5 M 1183.5 634.5 L 1183.5 630.5 M 1234.5 634.5 L 1234.5 630.5 M 1285.5 634.5 L 1285.5 630.5 M 1336.5 634.5 L 1336.5 630.5" stroke-opacity="1" stroke-linejoin="bevel" stroke-miterlimit="10" stroke-dasharray=""/><text fill="rgb(68,68,68)" stroke="none" font-family="helvetica" font-size="11px" font-style="normal" font-weight="normal" text-decoration="normal" x="54.94166660308838" y="648.89013671875" text-anchor="start" dominant-baseline="alphabetic" transform="matrix(1, 0, 0, 1, 0.5, 0.5)" fill-opacity="1">0</text><text fill="rgb(68,68,68)" stroke="none" font-family="helvetica" font-size="11px" font-style="normal" font-weight="normal" text-decoration="normal" x="304.42500591278076" y="648.89013671875" text-anchor="start" dominant-baseline="alphabetic" transform="matrix(1, 0, 0, 1, 0.5, 0.5)" fill-opacity="1">200</text><text fill="rgb(68,68,68)" stroke="none" font-family="helvetica" font-size="11px" font-style="normal" font-weight="normal" text-decoration="normal" x="560.0250120162964" y="648.89013671875" text-anchor="start" dominant-baseline="alphabetic" transform="matrix(1, 0, 0, 1, 0.5, 0.5)" fill-opacity="1">400</text><text fill="rgb(68,68,68)" stroke="none" font-family="helvetica" font-size="11px" font-style="normal" font-weight="normal" text-decoration="normal" x="815.6249876022339" y="648.89013671875" text-anchor="start" dominant-baseline="alphabetic" transform="matrix(1, 0, 0, 1, 0.5, 0.5)" fill-opacity="1">600</text><text fill="rgb(68,68,68)" stroke="none" font-family="helvetica" font-size="11px" font-style="normal" font-weight="normal" text-decoration="normal" x="1071.2250242233276" y="648.89013671875" text-anchor="start" dominant-baseline="alphabetic" transform="matrix(1, 0, 0, 1, 0.5, 0.5)" fill-opacity="1">800</text><text fill="rgb(68,68,68)" stroke="none" font-family="helvetica" font-size="11px" font-style="normal" font-weight="normal" text-decoration="normal" x="1323.7666664123535" y="648.89013671875" text-anchor="start" dominant-baseline="alphabetic" transform="matrix(1, 0, 0, 1, 0.5, 0.5)" fill-opacity="1">1000</text><text fill="rgb(68,68,68)" stroke="none" font-family="helvetica" font-size="15pt" font-style="italic" font-weight="normal" text-decoration="normal" x="666.4416675567627" y="676.06982421875" text-anchor="start" dominant-baseline="alphabetic" transform="matrix(1, 0, 0, 1, 0.5, 0.5)" fill-opacity="1">time(s)</text><path fill="none" stroke="rgb(0,0,0)" paint-order="fill" d="M 58.5 630.5 L 58.5 51.5" stroke-opacity="1" stroke-linejoin="bevel" stroke-miterlimit="10" stroke-dasharray=""/><path fill="none" stroke="rgb(0,0,0)" paint-order="fill" d="M 52.5 551.5 L 60.5 551.5 M 52.5 446.5 L 60.5 446.5 M 52.5 341.5 L 60.5 341.5 M 52.5 235.5 L 60.5 235.5 M 52.5 130.5 L 60.5 130.5" stroke-opacity="1" stroke-linejoin="bevel" stroke-miterlimit="10" stroke-dasharray=""/><path fill="none" stroke="rgb(0,0,0)" paint-order="fill" d="M 54.5 572.5 L 58.5 572.5 M 54.5 593.5 L 58.5 593.5 M 54.5 614.5 L 58.5 614.5 M 54.5 551.5 L 58.5 551.5 M 54.5 530.5 L 58.5 530.5 M 54.5 509.5 L 58.5 509.5 M 54.5 488.5 L 58.5 488.5 M 54.5 467.5 L 58.5 467.5 M 54.5 446.5 L 58.5 446.5 M 54.5 425.5 L 58.5 425.5 M 54.5 404.5 L 58.5 404.5 M 54.5 383.5 L 58.5 383.5 M 54.5 362.5 L 58.5 362.5 M 54.5 341.5 L 58.5 341.5 M 54.5 319.5 L 58.5 319.5 M 54.5 298.5 L 58.5 298.5 M 54.5 277.5 L 58.5 277.5 M 54.5 256.5 L 58.5 256.5 M 54.5 235.5 L 58.5 235.5 M 54.5 214.5 L 58.5 214.5 M 54.5 193.5 L 58.5 193.5 M 54.5 172.5 L 58.5 172.5 M 54.5 151.5 L 58.5 151.5 M 54.5 130.5 L 58.5 130.5 M 54.5 109.5 L 58.5 109.5 M 54.5 88.5 L 58.5 88.5 M 54.5 67.5 L 58.5 67.5" stroke-opacity="1" stroke-linejoin="bevel" stroke-miterlimit="10" stroke-dasharray=""/><text fill="rgb(68,68,68)" stroke="none" font-family="helvetica" font-size="11px" font-style="normal" font-weight="normal" text-decoration="normal" x="34.46666622161865" y="554.9905395507812" text-anchor="start" dominant-baseline="alphabetic" transform="matrix(1, 0, 0, 1, 0.5, 0.5)" fill-opacity="1">2</text><text fill="rgb(68,68,68)" stroke="none" font-family="helvetica" font-size="11px" font-style="normal" font-weight="normal" text-decoration="normal" x="34.46666622161865" y="449.7178039550781" text-anchor="start" dominant-baseline="alphabetic" transform="matrix(1, 0, 0, 1, 0.5, 0.5)" fill-opacity="1">1</text><text fill="rgb(68,68,68)" stroke="none" font-family="helvetica" font-size="11px" font-style="normal" font-weight="normal" text-decoration="normal" x="40.88333320617676" y="344.445068359375" text-anchor="start" dominant-baseline="alphabetic" transform="matrix(1, 0, 0, 1, 0.5, 0.5)" fill-opacity="1">0</text><text fill="rgb(68,68,68)" stroke="none" font-family="helvetica" font-size="11px" font-style="normal" font-weight="normal" text-decoration="normal" x="40.88333320617676" y="239.17234802246094" text-anchor="start" dominant-baseline="alphabetic" transform="matrix(1, 0, 0, 1, 0.5, 0.5)" fill-opacity="1">1</text><text fill="rgb(68,68,68)" stroke="none" font-family="helvetica" font-size="11px" font-style="normal" font-weight="normal" text-decoration="normal" x="40.88333320617676" y="133.8996124267578" text-anchor="start" dominant-baseline="alphabetic" transform="matrix(1, 0, 0, 1, 0.5, 0.5)" fill-opacity="1">2</text><text fill="rgb(68,68,68)" stroke="none" font-family="helvetica" font-size="15pt" font-style="italic" font-weight="normal" text-decoration="normal" x="-11.316666603088379" y="336.076171875" text-anchor="start" dominant-baseline="alphabetic" transform="matrix(6.123233995736766e-17, -1, 1, 6.123233995736766e-17, -313.53333377838135, 367.46666622161865)" fill-opacity="1">students</text><path fill="rgb(255,255,255)" stroke="rgb(229,229,229)" paint-order="fill" d="M 1128.2333374023438 61.5 L 1326.5 61.5 L 1326.5 400.5 L 1128.2333374023438 400.5 L 1128.2333374023438 61.5" fill-opacity="0.9490196078431372" clip-path="url(#BZPwbpKXHxCn)" stroke-opacity="0.5019607843137255" stroke-linejoin="bevel" stroke-miterlimit="10" stroke-dasharray=""/><text fill="rgb(68,68,68)" stroke="none" font-family="helvetica" font-size="13px" font-style="normal" font-weight="normal" text-decoration="normal" x="1162.7333374023438" y="81" text-anchor="start" dominant-baseline="central" clip-path="url(#BZPwbpKXHxCn)" transform="matrix(1, 0, 0, 1, 0.5, 0.5)" fill-opacity="1">wavelength</text><path fill="rgb(0,255,40)" stroke="none" paint-order="stroke" d="M 1140.2333374023438 73.5 L 1156.2333374023438 73.5 L 1156.2333374023438 89.5 L 1140.2333374023438 89.5 L 1140.2333374023438 73.5" fill-opacity="1" clip-path="url(#BZPwbpKXHxCn)"/><path fill="rgb(216,17,89)" stroke="none" paint-order="stroke" d="M 1140.2333374023438 73.5 L 1156.2333374023438 73.5 L 1156.2333374023438 89.5 L 1140.2333374023438 89.5 L 1140.2333374023438 73.5" fill-opacity="1" clip-path="url(#BZPwbpKXHxCn)"/><text fill="rgb(68,68,68)" stroke="none" font-family="helvetica" font-size="13px" font-style="normal" font-weight="normal" text-decoration="normal" x="1162.7333374023438" y="104" text-anchor="start" dominant-baseline="central" clip-path="url(#BZPwbpKXHxCn)" transform="matrix(1, 0, 0, 1, 0.5, 0.5)" fill-opacity="1">solution</text><path fill="rgb(251,0,7)" stroke="none" paint-order="stroke" d="M 1140.2333374023438 96.5 L 1156.2333374023438 96.5 L 1156.2333374023438 112.5 L 1140.2333374023438 112.5 L 1140.2333374023438 96.5" fill-opacity="1" clip-path="url(#BZPwbpKXHxCn)"/><path fill="rgb(33,131,128)" stroke="none" paint-order="stroke" d="M 1140.2333374023438 96.5 L 1156.2333374023438 96.5 L 1156.2333374023438 112.5 L 1140.2333374023438 112.5 L 1140.2333374023438 96.5" fill-opacity="1" clip-path="url(#BZPwbpKXHxCn)"/><text fill="rgb(68,68,68)" stroke="none" font-family="helvetica" font-size="13px" font-style="normal" font-weight="normal" text-decoration="normal" x="1162.7333374023438" y="127" text-anchor="start" dominant-baseline="central" clip-path="url(#BZPwbpKXHxCn)" transform="matrix(1, 0, 0, 1, 0.5, 0.5)" fill-opacity="1">laser</text><path fill="rgb(105,29,48)" stroke="none" paint-order="stroke" d="M 1140.2333374023438 119.5 L 1156.2333374023438 119.5 L 1156.2333374023438 135.5 L 1140.2333374023438 135.5 L 1140.2333374023438 119.5" fill-opacity="1" clip-path="url(#BZPwbpKXHxCn)"/><text fill="rgb(68,68,68)" stroke="none" font-family="helvetica" font-size="13px" font-style="normal" font-weight="normal" text-decoration="normal" x="1162.7333374023438" y="150" text-anchor="start" dominant-baseline="central" clip-path="url(#BZPwbpKXHxCn)" transform="matrix(1, 0, 0, 1, 0.5, 0.5)" fill-opacity="1">ruler</text><path fill="rgb(255,188,66)" stroke="none" paint-order="stroke" d="M 1140.2333374023438 142.5 L 1156.2333374023438 142.5 L 1156.2333374023438 158.5 L 1140.2333374023438 158.5 L 1140.2333374023438 142.5" fill-opacity="1" clip-path="url(#BZPwbpKXHxCn)"/><text fill="rgb(68,68,68)" stroke="none" font-family="helvetica" font-size="13px" font-style="normal" font-weight="normal" text-decoration="normal" x="1162.7333374023438" y="173" text-anchor="start" dominant-baseline="central" clip-path="url(#BZPwbpKXHxCn)" transform="matrix(1, 0, 0, 1, 0.5, 0.5)" fill-opacity="1">restarts</text><path fill="rgb(162,174,187)" stroke="none" paint-order="stroke" d="M 1140.2333374023438 165.5 L 1156.2333374023438 165.5 L 1156.2333374023438 181.5 L 1140.2333374023438 181.5 L 1140.2333374023438 165.5" fill-opacity="1" clip-path="url(#BZPwbpKXHxCn)"/><text fill="rgb(68,68,68)" stroke="none" font-family="helvetica" font-size="13px" font-style="normal" font-weight="normal" text-decoration="normal" x="1162.7333374023438" y="196" text-anchor="start" dominant-baseline="central" clip-path="url(#BZPwbpKXHxCn)" transform="matrix(1, 0, 0, 1, 0.5, 0.5)" fill-opacity="1">transmittance_absorbance</text><path fill="rgb(162,174,187)" stroke="none" paint-order="stroke" d="M 1140.2333374023438 188.5 L 1156.2333374023438 188.5 L 1156.2333374023438 204.5 L 1140.2333374023438 204.5 L 1140.2333374023438 188.5" fill-opacity="1" clip-path="url(#BZPwbpKXHxCn)"/><text fill="rgb(68,68,68)" stroke="none" font-family="helvetica" font-size="13px" font-style="normal" font-weight="normal" text-decoration="normal" x="1162.7333374023438" y="219" text-anchor="start" dominant-baseline="central" clip-path="url(#BZPwbpKXHxCn)" transform="matrix(1, 0, 0, 1, 0.5, 0.5)" fill-opacity="1">magnifier</text><text fill="rgb(68,68,68)" stroke="none" font-family="helvetica" font-size="13px" font-style="normal" font-weight="normal" text-decoration="normal" x="1162.7333374023438" y="242" text-anchor="start" dominant-baseline="central" clip-path="url(#BZPwbpKXHxCn)" transform="matrix(1, 0, 0, 1, 0.5, 0.5)" fill-opacity="1">concentration</text><path fill="rgb(115,210,222)" stroke="none" paint-order="stroke" d="M 1140.2333374023438 234.5 L 1156.2333374023438 234.5 L 1156.2333374023438 250.5 L 1140.2333374023438 250.5 L 1140.2333374023438 234.5" fill-opacity="1" clip-path="url(#BZPwbpKXHxCn)"/><text fill="rgb(68,68,68)" stroke="none" font-family="helvetica" font-size="13px" font-style="normal" font-weight="normal" text-decoration="normal" x="1162.7333374023438" y="265" text-anchor="start" dominant-baseline="central" clip-path="url(#BZPwbpKXHxCn)" transform="matrix(1, 0, 0, 1, 0.5, 0.5)" fill-opacity="1">flask</text><path fill="rgb(28,49,68)" stroke="none" paint-order="stroke" d="M 1140.2333374023438 257.5 L 1156.2333374023438 257.5 L 1156.2333374023438 273.5 L 1140.2333374023438 273.5 L 1140.2333374023438 257.5" fill-opacity="1" clip-path="url(#BZPwbpKXHxCn)"/><text fill="rgb(68,68,68)" stroke="none" font-family="helvetica" font-size="13px" font-style="normal" font-weight="normal" text-decoration="normal" x="1162.7333374023438" y="288" text-anchor="start" dominant-baseline="central" clip-path="url(#BZPwbpKXHxCn)" transform="matrix(1, 0, 0, 1, 0.5, 0.5)" fill-opacity="1">pdf</text><text fill="rgb(68,68,68)" stroke="none" font-family="helvetica" font-size="13px" font-style="normal" font-weight="normal" text-decoration="normal" x="1162.7333374023438" y="311" text-anchor="start" dominant-baseline="central" clip-path="url(#BZPwbpKXHxCn)" transform="matrix(1, 0, 0, 1, 0.5, 0.5)" fill-opacity="1">concentrationlab</text><text fill="rgb(68,68,68)" stroke="none" font-family="helvetica" font-size="13px" font-style="normal" font-weight="normal" text-decoration="normal" x="1162.7333374023438" y="334" text-anchor="start" dominant-baseline="central" clip-path="url(#BZPwbpKXHxCn)" transform="matrix(1, 0, 0, 1, 0.5, 0.5)" fill-opacity="1">wavelength_slider</text><path fill="rgb(105,29,48)" stroke="none" paint-order="stroke" d="M 1140.2333374023438 326.5 L 1156.2333374023438 326.5 L 1156.2333374023438 342.5 L 1140.2333374023438 342.5 L 1140.2333374023438 326.5" fill-opacity="1" clip-path="url(#BZPwbpKXHxCn)"/><text fill="rgb(68,68,68)" stroke="none" font-family="helvetica" font-size="13px" font-style="normal" font-weight="normal" text-decoration="normal" x="1162.7333374023438" y="357" text-anchor="start" dominant-baseline="central" clip-path="url(#BZPwbpKXHxCn)" transform="matrix(1, 0, 0, 1, 0.5, 0.5)" fill-opacity="1">ruler measuring</text><path fill="rgb(255,188,66)" stroke="none" paint-order="stroke" d="M 1140.2333374023438 349.5 L 1156.2333374023438 349.5 L 1156.2333374023438 365.5 L 1140.2333374023438 365.5 L 1140.2333374023438 349.5" fill-opacity="1" clip-path="url(#BZPwbpKXHxCn)"/><text fill="rgb(68,68,68)" stroke="none" font-family="helvetica" font-size="13px" font-style="normal" font-weight="normal" text-decoration="normal" x="1162.7333374023438" y="380" text-anchor="start" dominant-baseline="central" clip-path="url(#BZPwbpKXHxCn)" transform="matrix(1, 0, 0, 1, 0.5, 0.5)" fill-opacity="1">dependent variable</text><path fill="rgb(143,45,86)" stroke="none" paint-order="stroke" d="M 1140.2333374023438 372.5 L 1156.2333374023438 372.5 L 1156.2333374023438 388.5 L 1140.2333374023438 388.5 L 1140.2333374023438 372.5" fill-opacity="1" clip-path="url(#BZPwbpKXHxCn)"/><text fill="rgb(68,68,68)" stroke="none" font-family="helvetica" font-size="25pt" font-style="normal" font-weight="bold" text-decoration="normal" x="58" y="38.740885416666664" text-anchor="start" dominant-baseline="alphabetic" transform="matrix(1, 0, 0, 1, 0.5, 0.5)" fill-opacity="1">Timeline for student q4z45p85 with permutation 0231 for task 1</text></svg>