<svg version="1.1" xmlns="http://www.w3.org/2000/svg" width="1366" height="683"><defs><clipPath id="VGdkIogesSTT"><path fill="none" stroke="none" d="M 58.5 51.5 L 1336.5 51.5 L 1336.5 630.5 L 58.5 630.5 L 58.5 51.5"/></clipPath><clipPath id="kxpukyeLcfkC"><path fill="none" stroke="none" d="M 58.5 51.5 L 1336.5 51.5 L 1336.5 630.5 L 58.5 630.5 L 58.5 51.5"/></clipPath><clipPath id="WqUaDwAOMilP"><path fill="none" stroke="none" d="M 58.5 51.5 L 1336.5 51.5 L 1336.5 630.5 L 58.5 630.5 L 58.5 51.5"/></clipPath><clipPath id="fOuwirNTCEim"><path fill="none" stroke="none" d="M 58.5 51.5 L 1336.5 51.5 L 1336.5 630.5 L 58.5 630.5 L 58.5 51.5"/></clipPath><clipPath id="mvGrDKvSASzt"><path fill="none" stroke="none" d="M 58.5 51.5 L 1336.5 51.5 L 1336.5 630.5 L 58.5 630.5 L 58.5 51.5"/></clipPath><clipPath id="IRlhAWpqTblv"><path fill="none" stroke="none" d="M 58.5 51.5 L 1336.5 51.5 L 1336.5 630.5 L 58.5 630.5 L 58.5 51.5"/></clipPath><clipPath id="SZOWBFgXXOlz"><path fill="none" stroke="none" d="M 58.5 51.5 L 1336.5 51.5 L 1336.5 630.5 L 58.5 630.5 L 58.5 51.5"/></clipPath><clipPath id="qzspBPKKefVh"><path fill="none" stroke="none" d="M 58.5 51.5 L 1336.5 51.5 L 1336.5 630.5 L 58.5 630.5 L 58.5 51.5"/></clipPath><clipPath id="bvgtIRQevPum"><path fill="none" stroke="none" d="M 58.5 51.5 L 1336.5 51.5 L 1336.5 630.5 L 58.5 630.5 L 58.5 51.5"/></clipPath><clipPath id="UDTRlLEZIpio"><path fill="none" stroke="none" d="M 58.5 51.5 L 1336.5 51.5 L 1336.5 630.5 L 58.5 630.5 L 58.5 51.5"/></clipPath><clipPath id="oWitWybXyXkW"><path fill="none" stroke="none" d="M 58.5 51.5 L 1336.5 51.5 L 1336.5 630.5 L 58.5 630.5 L 58.5 51.5"/></clipPath><clipPath id="zvPJlkDmhTPf"><path fill="none" stroke="none" d="M 58.5 51.5 L 1336.5 51.5 L 1336.5 630.5 L 58.5 630.5 L 58.5 51.5"/></clipPath><clipPath id="ZhVkshApPckt"><path fill="none" stroke="none" d="M 58.5 51.5 L 1336.5 51.5 L 1336.5 630.5 L 58.5 630.5 L 58.5 51.5"/></clipPath><clipPath id="hTdboJIyMQQO"><path fill="none" stroke="none" d="M 58.5 51.5 L 1336.5 51.5 L 1336.5 630.5 L 58.5 630.5 L 58.5 51.5"/></clipPath><clipPath id="TdxLVmAuxTQa"><path fill="none" stroke="none" d="M 58.5 51.5 L 1336.5 51.5 L 1336.5 630.5 L 58.5 630.5 L 58.5 51.5"/></clipPath><clipPath id="lQSzJRBwKkQI"><path fill="none" stroke="none" d="M 58.5 51.5 L 1336.5 51.5 L 1336.5 630.5 L 58.5 630.5 L 58.5 51.5"/></clipPath><clipPath id="pAMVxHuABkBD"><path fill="none" stroke="none" d="M 58.5 51.5 L 1336.5 51.5 L 1336.5 630.5 L 58.5 630.5 L 58.5 51.5"/></clipPath><clipPath id="NnRTBmBHFQXe"><path fill="none" stroke="none" d="M 58.5 51.5 L 1336.5 51.5 L 1336.5 630.5 L 58.5 630.5 L 58.5 51.5"/></clipPath><clipPath id="UiQMSOVzQTGF"><path fill="none" stroke="none" d="M 58.5 51.5 L 1336.5 51.5 L 1336.5 630.5 L 58.5 630.5 L 58.5 51.5"/></clipPath><clipPath id="xThzLhtnSdhH"><path fill="none" stroke="none" d="M 58.5 51.5 L 1336.5 51.5 L 1336.5 630.5 L 58.5 630.5 L 58.5 51.5"/></clipPath><clipPath id="deLBnTotruIB"><path fill="none" stroke="none" d="M 58.5 51.5 L 1336.5 51.5 L 1336.5 630.5 L 58.5 630.5 L 58.5 51.5"/></clipPath></defs><path fill="rgb(255,255,255)" stroke="none" paint-order="stroke" d="M 0.5 0.5 L 1366.5 0.5 L 1366.5 683.5 L 0.5 683.5 L 0.5 0.5" fill-opacity="1"/><rect fill="#FFFFFF" stroke="none" x="58" y="51" width="1278" height="579" transform="matrix(1, 0, 0, 1, 0.5, 0.5)"/><path fill="rgb(255,255,255)" stroke="none" paint-order="stroke" d="M 58.5 51.5 L 1336.5 51.5 L 1336.5 630.5 L 58.5 630.5 L 58.5 51.5" fill-opacity="1"/><path fill="none" stroke="rgb(229,229,229)" paint-order="fill" d="M 58.5 51.5 L 1336.5 51.5 L 1336.5 630.5 L 58.5 630.5 L 58.5 51.5" stroke-opacity="1" stroke-linejoin="bevel" stroke-miterlimit="10" stroke-dasharray=""/><path fill="none" stroke="rgb(229,229,229)" paint-order="fill" d="M 314.5 630.5 L 314.5 51.5 M 569.5 630.5 L 569.5 51.5 M 825.5 630.5 L 825.5 51.5 M 1080.5 630.5 L 1080.5 51.5" stroke-opacity="1" stroke-linejoin="bevel" stroke-miterlimit="10" stroke-dasharray="" clip-path="url(#VGdkIogesSTT)"/><path fill="none" stroke="rgb(229,229,229)" paint-order="fill" d="M 58.5 551.5 L 1336.5 551.5 M 58.5 446.5 L 1336.5 446.5 M 58.5 341.5 L 1336.5 341.5 M 58.5 235.5 L 1336.5 235.5 M 58.5 130.5 L 1336.5 130.5" stroke-opacity="1" stroke-linejoin="bevel" stroke-miterlimit="10" stroke-dasharray="" clip-path="url(#kxpukyeLcfkC)"/><path fill="rgb(0,255,40)" stroke="none" paint-order="stroke" d="M 58.5 77.81818389892578 L 76.2987060546875 77.81818389892578 L 76.2987060546875 130.45454788208008 L 58.5 130.45454788208008 L 58.5 77.81818389892578" fill-opacity="1" clip-path="url(#WqUaDwAOMilP)"/><path fill="rgb(0,255,23)" stroke="none" paint-order="stroke" d="M 76.2987060546875 77.81818389892578 L 76.42650605738163 77.81818389892578 L 76.42650605738163 130.45454788208008 L 76.2987060546875 130.45454788208008 L 76.2987060546875 77.81818389892578" fill-opacity="1" clip-path="url(#WqUaDwAOMilP)"/><path fill="rgb(0,255,0)" stroke="none" paint-order="stroke" d="M 76.42650604248047 77.81818389892578 L 76.55558404326439 77.81818389892578 L 76.55558404326439 130.45454788208008 L 76.42650604248047 130.45454788208008 L 76.42650604248047 77.81818389892578" fill-opacity="1" clip-path="url(#WqUaDwAOMilP)"/><path fill="rgb(8,255,0)" stroke="none" paint-order="stroke" d="M 76.55558776855469 77.81818389892578 L 76.68210977315903 77.81818389892578 L 76.68210977315903 130.45454788208008 L 76.55558776855469 130.45454788208008 L 76.55558776855469 77.81818389892578" fill-opacity="1" clip-path="url(#WqUaDwAOMilP)"/><path fill="rgb(14,255,0)" stroke="none" paint-order="stroke" d="M 76.6821060180664 77.81818389892578 L 77.3211060166359 77.81818389892578 L 77.3211060166359 130.45454788208008 L 76.6821060180664 130.45454788208008 L 76.6821060180664 77.81818389892578" fill-opacity="1" clip-path="url(#WqUaDwAOMilP)"/><path fill="rgb(20,255,0)" stroke="none" paint-order="stroke" d="M 77.32110595703125 77.81818389892578 L 77.44890595972538 77.81818389892578 L 77.44890595972538 130.45454788208008 L 77.32110595703125 130.45454788208008 L 77.32110595703125 77.81818389892578" fill-opacity="1" clip-path="url(#WqUaDwAOMilP)"/><path fill="rgb(25,255,0)" stroke="none" paint-order="stroke" d="M 77.44890594482422 77.81818389892578 L 77.57670594751835 77.81818389892578 L 77.57670594751835 130.45454788208008 L 77.44890594482422 130.45454788208008 L 77.44890594482422 77.81818389892578" fill-opacity="1" clip-path="url(#WqUaDwAOMilP)"/><path fill="rgb(30,255,0)" stroke="none" paint-order="stroke" d="M 77.57670593261719 77.81818389892578 L 77.70578393340111 77.81818389892578 L 77.70578393340111 130.45454788208008 L 77.57670593261719 130.45454788208008 L 77.57670593261719 77.81818389892578" fill-opacity="1" clip-path="url(#WqUaDwAOMilP)"/><path fill="rgb(35,255,0)" stroke="none" paint-order="stroke" d="M 77.7057876586914 77.81818389892578 L 77.83358766138554 77.81818389892578 L 77.83358766138554 130.45454788208008 L 77.7057876586914 130.45454788208008 L 77.7057876586914 77.81818389892578" fill-opacity="1" clip-path="url(#WqUaDwAOMilP)"/><path fill="rgb(40,255,0)" stroke="none" paint-order="stroke" d="M 77.83358764648438 77.81818389892578 L 77.96010965108871 77.81818389892578 L 77.96010965108871 130.45454788208008 L 77.83358764648438 130.45454788208008 L 77.83358764648438 77.81818389892578" fill-opacity="1" clip-path="url(#WqUaDwAOMilP)"/><path fill="rgb(44,255,0)" stroke="none" paint-order="stroke" d="M 77.9601058959961 77.81818389892578 L 78.08790589869022 77.81818389892578 L 78.08790589869022 130.45454788208008 L 77.9601058959961 130.45454788208008 L 77.9601058959961 77.81818389892578" fill-opacity="1" clip-path="url(#WqUaDwAOMilP)"/><path fill="rgb(49,255,0)" stroke="none" paint-order="stroke" d="M 78.08790588378906 77.81818389892578 L 78.21570588648319 77.81818389892578 L 78.21570588648319 130.45454788208008 L 78.08790588378906 130.45454788208008 L 78.08790588378906 77.81818389892578" fill-opacity="1" clip-path="url(#WqUaDwAOMilP)"/><path fill="rgb(53,255,0)" stroke="none" paint-order="stroke" d="M 78.21570587158203 77.81818389892578 L 78.34733986854553 77.81818389892578 L 78.34733986854553 130.45454788208008 L 78.21570587158203 130.45454788208008 L 78.21570587158203 77.81818389892578" fill-opacity="1" clip-path="url(#WqUaDwAOMilP)"/><path fill="rgb(58,255,0)" stroke="none" paint-order="stroke" d="M 78.34734344482422 77.81818389892578 L 78.4713094457984 77.81818389892578 L 78.4713094457984 130.45454788208008 L 78.34734344482422 130.45454788208008 L 78.34734344482422 77.81818389892578" fill-opacity="1" clip-path="url(#WqUaDwAOMilP)"/><path fill="rgb(62,255,0)" stroke="none" paint-order="stroke" d="M 78.47130584716797 77.81818389892578 L 78.5991058498621 77.81818389892578 L 78.5991058498621 130.45454788208008 L 78.47130584716797 130.45454788208008 L 78.47130584716797 77.81818389892578" fill-opacity="1" clip-path="url(#WqUaDwAOMilP)"/><path fill="rgb(66,255,0)" stroke="none" paint-order="stroke" d="M 78.59910583496094 77.81818389892578 L 79.44641983509064 77.81818389892578 L 79.44641983509064 130.45454788208008 L 78.59910583496094 130.45454788208008 L 78.59910583496094 77.81818389892578" fill-opacity="1" clip-path="url(#WqUaDwAOMilP)"/><path fill="rgb(255,42,0)" stroke="none" paint-order="stroke" d="M 79.44641876220703 77.81818389892578 L 82.21584486961365 77.81818389892578 L 82.21584486961365 130.45454788208008 L 79.44641876220703 130.45454788208008 L 79.44641876220703 77.81818389892578" fill-opacity="1" clip-path="url(#WqUaDwAOMilP)"/><path fill="rgb(255,165,0)" stroke="none" paint-order="stroke" d="M 82.2158432006836 77.81818389892578 L 83.96414721012115 77.81818389892578 L 83.96414721012115 130.45454788208008 L 82.2158432006836 130.45454788208008 L 82.2158432006836 77.81818389892578" fill-opacity="1" clip-path="url(#WqUaDwAOMilP)"/><path fill="rgb(143,255,0)" stroke="none" paint-order="stroke" d="M 83.96414947509766 77.81818389892578 L 84.4881294965744 77.81818389892578 L 84.4881294965744 130.45454788208008 L 83.96414947509766 130.45454788208008 L 83.96414947509766 77.81818389892578" fill-opacity="1" clip-path="url(#WqUaDwAOMilP)"/><path fill="rgb(0,64,255)" stroke="none" paint-order="stroke" d="M 84.48812866210938 77.81818389892578 L 84.90603464841843 77.81818389892578 L 84.90603464841843 130.45454788208008 L 84.48812866210938 130.45454788208008 L 84.48812866210938 77.81818389892578" fill-opacity="1" clip-path="url(#WqUaDwAOMilP)"/><path fill="rgb(97,0,190)" stroke="none" paint-order="stroke" d="M 84.90603637695312 77.81818389892578 L 85.40062236785889 77.81818389892578 L 85.40062236785889 130.45454788208008 L 84.90603637695312 130.45454788208008 L 84.90603637695312 77.81818389892578" fill-opacity="1" clip-path="url(#WqUaDwAOMilP)"/><path fill="rgb(108,0,123)" stroke="none" paint-order="stroke" d="M 85.40061950683594 77.81818389892578 L 85.47857750952244 77.81818389892578 L 85.47857750952244 130.45454788208008 L 85.40061950683594 130.45454788208008 L 85.40061950683594 77.81818389892578" fill-opacity="1" clip-path="url(#WqUaDwAOMilP)"/><path fill="rgb(105,0,115)" stroke="none" paint-order="stroke" d="M 85.47857666015625 77.81818389892578 L 88.18410277366638 77.81818389892578 L 88.18410277366638 130.45454788208008 L 85.47857666015625 130.45454788208008 L 85.47857666015625 77.81818389892578" fill-opacity="1" clip-path="url(#WqUaDwAOMilP)"/><path fill="rgb(159,255,0)" stroke="none" paint-order="stroke" d="M 88.1841049194336 77.81818389892578 L 92.86669683456421 77.81818389892578 L 92.86669683456421 130.45454788208008 L 88.1841049194336 130.45454788208008 L 88.1841049194336 77.81818389892578" fill-opacity="1" clip-path="url(#WqUaDwAOMilP)"/><path fill="rgb(143,255,0)" stroke="none" paint-order="stroke" d="M 92.86669921875 77.81818389892578 L 95.62717914581299 77.81818389892578 L 95.62717914581299 130.45454788208008 L 92.86669921875 130.45454788208008 L 92.86669921875 77.81818389892578" fill-opacity="1" clip-path="url(#WqUaDwAOMilP)"/><path fill="rgb(0,255,40)" stroke="none" paint-order="stroke" d="M 95.6271743774414 77.81818389892578 L 123.36488723754883 77.81818389892578 L 123.36488723754883 130.45454788208008 L 95.6271743774414 130.45454788208008 L 95.6271743774414 77.81818389892578" fill-opacity="1" clip-path="url(#WqUaDwAOMilP)"/><path fill="rgb(143,255,0)" stroke="none" paint-order="stroke" d="M 123.3648910522461 77.81818389892578 L 125.3163970708847 77.81818389892578 L 125.3163970708847 130.45454788208008 L 123.3648910522461 130.45454788208008 L 123.3648910522461 77.81818389892578" fill-opacity="1" clip-path="url(#WqUaDwAOMilP)"/><path fill="rgb(251,0,7)" stroke="none" paint-order="stroke" d="M 58.5 130.4545440673828 L 88.18410682678223 130.4545440673828 L 88.18410682678223 183.0909080505371 L 58.5 183.0909080505371 L 58.5 130.4545440673828" fill-opacity="1" clip-path="url(#fOuwirNTCEim)"/><path fill="rgb(237,115,111)" stroke="none" paint-order="stroke" d="M 88.1841049194336 130.4545440673828 L 92.86669683456421 130.4545440673828 L 92.86669683456421 183.0909080505371 L 88.1841049194336 183.0909080505371 L 88.1841049194336 130.4545440673828" fill-opacity="1" clip-path="url(#fOuwirNTCEim)"/><path fill="rgb(62,0,101)" stroke="none" paint-order="stroke" d="M 92.86669921875 130.4545440673828 L 95.62717914581299 130.4545440673828 L 95.62717914581299 183.0909080505371 L 92.86669921875 183.0909080505371 L 92.86669921875 130.4545440673828" fill-opacity="1" clip-path="url(#fOuwirNTCEim)"/><path fill="rgb(251,0,7)" stroke="none" paint-order="stroke" d="M 95.6271743774414 130.4545440673828 L 123.36488723754883 130.4545440673828 L 123.36488723754883 183.0909080505371 L 95.6271743774414 183.0909080505371 L 95.6271743774414 130.4545440673828" fill-opacity="1" clip-path="url(#fOuwirNTCEim)"/><path fill="rgb(62,0,101)" stroke="none" paint-order="stroke" d="M 123.3648910522461 130.4545440673828 L 125.3163970708847 130.4545440673828 L 125.3163970708847 183.0909080505371 L 123.3648910522461 183.0909080505371 L 123.3648910522461 130.4545440673828" fill-opacity="1" clip-path="url(#fOuwirNTCEim)"/><path fill="rgb(105,29,48)" stroke="none" paint-order="stroke" d="M 70.17324829101562 183.09091186523438 L 70.23714829236269 183.09091186523438 L 70.23714829236269 498.9090881347656 L 70.17324829101562 498.9090881347656 L 70.17324829101562 183.09091186523438" fill-opacity="1" clip-path="url(#mvGrDKvSASzt)"/><path fill="rgb(105,29,48)" stroke="none" paint-order="stroke" d="M 95.6271743774414 183.09091186523438 L 95.69107437878847 183.09091186523438 L 95.69107437878847 498.9090881347656 L 95.6271743774414 498.9090881347656 L 95.6271743774414 183.09091186523438" fill-opacity="1" clip-path="url(#mvGrDKvSASzt)"/><path fill="rgb(105,29,48)" stroke="none" paint-order="stroke" d="M 106.04798889160156 183.09091186523438 L 106.11188889294863 183.09091186523438 L 106.11188889294863 498.9090881347656 L 106.04798889160156 498.9090881347656 L 106.04798889160156 183.09091186523438" fill-opacity="1" clip-path="url(#mvGrDKvSASzt)"/><path fill="rgb(255,188,66)" stroke="none" paint-order="stroke" d="M 64.34429550170898 183.09091186523438 L 67.78722739219666 183.09091186523438 L 67.78722739219666 498.9090881347656 L 64.34429550170898 498.9090881347656 L 64.34429550170898 183.09091186523438" fill-opacity="1" clip-path="url(#IRlhAWpqTblv)"/><path fill="rgb(255,188,66)" stroke="none" paint-order="stroke" d="M 102.53093719482422 183.09091186523438 L 105.27863717079163 183.09091186523438 L 105.27863717079163 498.9090881347656 L 102.53093719482422 498.9090881347656 L 102.53093719482422 183.09091186523438" fill-opacity="1" clip-path="url(#IRlhAWpqTblv)"/><path fill="rgb(162,174,187)" stroke="none" paint-order="stroke" d="M 95.6271743774414 183.09091186523438 L 95.69107437878847 183.09091186523438 L 95.69107437878847 498.9090881347656 L 95.6271743774414 498.9090881347656 L 95.6271743774414 183.09091186523438" fill-opacity="1" clip-path="url(#SZOWBFgXXOlz)"/><path fill="rgb(162,174,187)" stroke="none" paint-order="stroke" d="M 96.98696899414062 183.09091186523438 L 97.05086899548769 183.09091186523438 L 97.05086899548769 498.9090881347656 L 96.98696899414062 498.9090881347656 L 96.98696899414062 183.09091186523438" fill-opacity="1" clip-path="url(#SZOWBFgXXOlz)"/><path fill="rgb(162,174,187)" stroke="none" paint-order="stroke" d="M 72.08130645751953 183.09091186523438 L 72.1452064588666 183.09091186523438 L 72.1452064588666 498.9090881347656 L 72.08130645751953 498.9090881347656 L 72.08130645751953 183.09091186523438" fill-opacity="1" clip-path="url(#qzspBPKKefVh)"/><path fill="rgb(162,174,187)" stroke="none" paint-order="stroke" d="M 95.6271743774414 183.09091186523438 L 95.69107437878847 183.09091186523438 L 95.69107437878847 498.9090881347656 L 95.6271743774414 498.9090881347656 L 95.6271743774414 183.09091186523438" fill-opacity="1" clip-path="url(#qzspBPKKefVh)"/><path fill="rgb(162,174,187)" stroke="none" paint-order="stroke" d="M 109.15352630615234 183.09091186523438 L 109.21742630749941 183.09091186523438 L 109.21742630749941 498.9090881347656 L 109.15352630615234 498.9090881347656 L 109.15352630615234 183.09091186523438" fill-opacity="1" clip-path="url(#qzspBPKKefVh)"/><path fill="rgb(255,188,66)" stroke="none" paint-order="stroke" d="M 69.0077133178711 183.09091186523438 L 69.1470153182745 183.09091186523438 L 69.1470153182745 498.9090881347656 L 69.0077133178711 498.9090881347656 L 69.0077133178711 183.09091186523438" fill-opacity="1" clip-path="url(#bvgtIRQevPum)"/><path fill="rgb(216,17,89)" stroke="none" paint-order="stroke" d="M 73.99319458007812 183.09091186523438 L 74.05709458142519 183.09091186523438 L 74.05709458142519 498.9090881347656 L 73.99319458007812 498.9090881347656 L 73.99319458007812 183.09091186523438" fill-opacity="1" clip-path="url(#UDTRlLEZIpio)"/><path fill="rgb(216,17,89)" stroke="none" paint-order="stroke" d="M 73.99319458007812 183.09091186523438 L 74.05709458142519 183.09091186523438 L 74.05709458142519 498.9090881347656 L 73.99319458007812 498.9090881347656 L 73.99319458007812 183.09091186523438" fill-opacity="1" clip-path="url(#UDTRlLEZIpio)"/><path fill="rgb(216,17,89)" stroke="none" paint-order="stroke" d="M 90.92414093017578 183.09091186523438 L 90.98804093152285 183.09091186523438 L 90.98804093152285 498.9090881347656 L 90.92414093017578 498.9090881347656 L 90.92414093017578 183.09091186523438" fill-opacity="1" clip-path="url(#UDTRlLEZIpio)"/><path fill="rgb(216,17,89)" stroke="none" paint-order="stroke" d="M 90.92414093017578 183.09091186523438 L 90.98804093152285 183.09091186523438 L 90.98804093152285 498.9090881347656 L 90.92414093017578 498.9090881347656 L 90.92414093017578 183.09091186523438" fill-opacity="1" clip-path="url(#UDTRlLEZIpio)"/><path fill="rgb(33,131,128)" stroke="none" paint-order="stroke" d="M 86.7246322631836 183.09091186523438 L 88.1841082572937 183.09091186523438 L 88.1841082572937 498.9090881347656 L 86.7246322631836 498.9090881347656 L 86.7246322631836 183.09091186523438" fill-opacity="1" clip-path="url(#oWitWybXyXkW)"/><path fill="rgb(33,131,128)" stroke="none" paint-order="stroke" d="M 91.74461364746094 183.09091186523438 L 92.86669766902924 183.09091186523438 L 92.86669766902924 498.9090881347656 L 91.74461364746094 498.9090881347656 L 91.74461364746094 183.09091186523438" fill-opacity="1" clip-path="url(#oWitWybXyXkW)"/><path fill="rgb(33,131,128)" stroke="none" paint-order="stroke" d="M 95.6271743774414 183.09091186523438 L 95.69107437878847 183.09091186523438 L 95.69107437878847 498.9090881347656 L 95.6271743774414 498.9090881347656 L 95.6271743774414 183.09091186523438" fill-opacity="1" clip-path="url(#oWitWybXyXkW)"/><path fill="rgb(33,131,128)" stroke="none" paint-order="stroke" d="M 96.98696899414062 183.09091186523438 L 97.05086899548769 183.09091186523438 L 97.05086899548769 498.9090881347656 L 96.98696899414062 498.9090881347656 L 96.98696899414062 183.09091186523438" fill-opacity="1" clip-path="url(#oWitWybXyXkW)"/><path fill="rgb(33,131,128)" stroke="none" paint-order="stroke" d="M 122.54696655273438 183.09091186523438 L 123.36488658189774 183.09091186523438 L 123.36488658189774 498.9090881347656 L 122.54696655273438 498.9090881347656 L 122.54696655273438 183.09091186523438" fill-opacity="1" clip-path="url(#oWitWybXyXkW)"/><path fill="rgb(115,210,222)" stroke="none" paint-order="stroke" d="M 98.73783111572266 183.09091186523438 L 98.93975511193275 183.09091186523438 L 98.93975511193275 498.9090881347656 L 98.73783111572266 498.9090881347656 L 98.73783111572266 183.09091186523438" fill-opacity="1" clip-path="url(#zvPJlkDmhTPf)"/><path fill="rgb(115,210,222)" stroke="none" paint-order="stroke" d="M 113.17411804199219 183.09091186523438 L 113.3658180385828 183.09091186523438 L 113.3658180385828 498.9090881347656 L 113.17411804199219 498.9090881347656 L 113.17411804199219 183.09091186523438" fill-opacity="1" clip-path="url(#zvPJlkDmhTPf)"/><path fill="rgb(115,210,222)" stroke="none" paint-order="stroke" d="M 114.56458282470703 183.09091186523438 L 116.58510088920593 183.09091186523438 L 116.58510088920593 498.9090881347656 L 114.56458282470703 498.9090881347656 L 114.56458282470703 183.09091186523438" fill-opacity="1" clip-path="url(#zvPJlkDmhTPf)"/><path fill="rgb(115,210,222)" stroke="none" paint-order="stroke" d="M 125.17837524414062 183.09091186523438 L 125.31639924645424 183.09091186523438 L 125.31639924645424 498.9090881347656 L 125.17837524414062 498.9090881347656 L 125.17837524414062 183.09091186523438" fill-opacity="1" clip-path="url(#zvPJlkDmhTPf)"/><path fill="rgb(28,49,68)" stroke="none" paint-order="stroke" d="M 62.454132080078125 183.09091186523438 L 63.22732210159302 183.09091186523438 L 63.22732210159302 498.9090881347656 L 62.454132080078125 498.9090881347656 L 62.454132080078125 183.09091186523438" fill-opacity="1" clip-path="url(#ZhVkshApPckt)"/><path fill="rgb(28,49,68)" stroke="none" paint-order="stroke" d="M 101.46763610839844 183.09091186523438 L 101.99672812223434 183.09091186523438 L 101.99672812223434 498.9090881347656 L 101.46763610839844 498.9090881347656 L 101.46763610839844 183.09091186523438" fill-opacity="1" clip-path="url(#ZhVkshApPckt)"/><path fill="rgb(105,29,48)" stroke="none" paint-order="stroke" d="M 79.44641876220703 183.09091186523438 L 79.6061687618494 183.09091186523438 L 79.6061687618494 498.9090881347656 L 79.44641876220703 498.9090881347656 L 79.44641876220703 183.09091186523438" fill-opacity="1" clip-path="url(#lQSzJRBwKkQI)"/><path fill="rgb(105,29,48)" stroke="none" paint-order="stroke" d="M 82.2158432006836 183.09091186523438 L 82.36664719879627 183.09091186523438 L 82.36664719879627 498.9090881347656 L 82.2158432006836 498.9090881347656 L 82.2158432006836 183.09091186523438" fill-opacity="1" clip-path="url(#lQSzJRBwKkQI)"/><path fill="rgb(105,29,48)" stroke="none" paint-order="stroke" d="M 83.96414947509766 183.09091186523438 L 84.06255547702312 183.09091186523438 L 84.06255547702312 498.9090881347656 L 83.96414947509766 498.9090881347656 L 83.96414947509766 183.09091186523438" fill-opacity="1" clip-path="url(#lQSzJRBwKkQI)"/><path fill="rgb(105,29,48)" stroke="none" paint-order="stroke" d="M 84.48812866210938 183.09091186523438 L 84.59548066556454 183.09091186523438 L 84.59548066556454 498.9090881347656 L 84.48812866210938 498.9090881347656 L 84.48812866210938 183.09091186523438" fill-opacity="1" clip-path="url(#lQSzJRBwKkQI)"/><path fill="rgb(105,29,48)" stroke="none" paint-order="stroke" d="M 84.90603637695312 183.09091186523438 L 85.05556237697601 183.09091186523438 L 85.05556237697601 498.9090881347656 L 84.90603637695312 498.9090881347656 L 84.90603637695312 183.09091186523438" fill-opacity="1" clip-path="url(#lQSzJRBwKkQI)"/><path fill="rgb(105,29,48)" stroke="none" paint-order="stroke" d="M 85.40061950683594 183.09091186523438 L 85.5769835114479 183.09091186523438 L 85.5769835114479 498.9090881347656 L 85.40061950683594 498.9090881347656 L 85.40061950683594 183.09091186523438" fill-opacity="1" clip-path="url(#lQSzJRBwKkQI)"/><path fill="rgb(255,188,66)" stroke="none" paint-order="stroke" d="M 65.5443344116211 498.9090881347656 L 95.62717628479004 498.9090881347656 L 95.62717628479004 551.5454521179199 L 65.5443344116211 551.5454521179199 L 65.5443344116211 498.9090881347656" fill-opacity="1" clip-path="url(#pAMVxHuABkBD)"/><path fill="rgb(255,188,66)" stroke="none" paint-order="stroke" d="M 104.00702667236328 498.9090881347656 L 125.31639862060547 498.9090881347656 L 125.31639862060547 551.5454521179199 L 104.00702667236328 551.5454521179199 L 104.00702667236328 498.9090881347656" fill-opacity="1" clip-path="url(#pAMVxHuABkBD)"/><path fill="rgb(143,45,86)" stroke="none" paint-order="stroke" d="M 58.5 551.5454711914062 L 70.17325210571289 551.5454711914062 L 70.17325210571289 604.1818351745605 L 58.5 604.1818351745605 L 58.5 551.5454711914062" fill-opacity="1" clip-path="url(#NnRTBmBHFQXe)"/><path fill="rgb(63,136,197)" stroke="none" paint-order="stroke" d="M 70.17324829101562 551.5454711914062 L 72.0813022851944 551.5454711914062 L 72.0813022851944 604.1818351745605 L 70.17324829101562 604.1818351745605 L 70.17324829101562 551.5454711914062" fill-opacity="1" clip-path="url(#NnRTBmBHFQXe)"/><path fill="rgb(81,60,99)" stroke="none" paint-order="stroke" d="M 72.08130645751953 551.5454711914062 L 95.62717819213867 551.5454711914062 L 95.62717819213867 604.1818351745605 L 72.08130645751953 604.1818351745605 L 72.08130645751953 551.5454711914062" fill-opacity="1" clip-path="url(#NnRTBmBHFQXe)"/><path fill="rgb(143,45,86)" stroke="none" paint-order="stroke" d="M 95.6271743774414 551.5454711914062 L 106.04798603057861 551.5454711914062 L 106.04798603057861 604.1818351745605 L 95.6271743774414 604.1818351745605 L 95.6271743774414 551.5454711914062" fill-opacity="1" clip-path="url(#NnRTBmBHFQXe)"/><path fill="rgb(63,136,197)" stroke="none" paint-order="stroke" d="M 106.04798889160156 551.5454711914062 L 109.15352892875671 551.5454711914062 L 109.15352892875671 604.1818351745605 L 106.04798889160156 604.1818351745605 L 106.04798889160156 551.5454711914062" fill-opacity="1" clip-path="url(#NnRTBmBHFQXe)"/><path fill="rgb(81,60,99)" stroke="none" paint-order="stroke" d="M 109.15352630615234 551.5454711914062 L 125.31639289855957 551.5454711914062 L 125.31639289855957 604.1818351745605 L 109.15352630615234 604.1818351745605 L 109.15352630615234 551.5454711914062" fill-opacity="1" clip-path="url(#NnRTBmBHFQXe)"/><path fill="none" stroke="rgb(0,0,0)" paint-order="fill" d="M 58.5 77.81818389892578 L 125.31639862060547 77.81818389892578 L 125.31639862060547 604.1818313598633 L 58.5 604.1818313598633 L 58.5 77.81818389892578" stroke-opacity="1" stroke-linejoin="bevel" stroke-miterlimit="10" stroke-dasharray="" clip-path="url(#UiQMSOVzQTGF)"/><path fill="none" stroke="rgb(0,0,0)" paint-order="fill" d="M 58.5 630.5 L 1336.5 630.5" stroke-opacity="1" stroke-linejoin="bevel" stroke-miterlimit="10" stroke-dasharray=""/><path fill="none" stroke="rgb(0,0,0)" paint-order="fill" d="M 58.5 636.5 L 58.5 628.5 M 314.5 636.5 L 314.5 628.5 M 569.5 636.5 L 569.5 628.5 M 825.5 636.5 L 825.5 628.5 M 1080.5 636.5 L 1080.5 628.5 M 1336.5 636.5 L 1336.5 628.5" stroke-opacity="1" stroke-linejoin="bevel" stroke-miterlimit="10" stroke-dasharray=""/><path fill="none" stroke="rgb(0,0,0)" paint-order="fill" d="M 58.5 634.5 L 58.5 630.5 M 109.5 634.5 L 109.5 630.5 M 160.5 634.5 L 160.5 630.5 M 211.5 634.5 L 211.5 630.5 M 262.5 634.5 L 262.5 630.5 M 314.5 634.5 L 314.5 630.5 M 365.5 634.5 L 365.5 630.5 M 416.5 634.5 L 416.5 630.5 M 467.5 634.5 L 467.5 630.5 M 518.5 634.5 L 518.5 630.5 M 569.5 634.5 L 569.5 630.5 M 620.5 634.5 L 620.5 630.5 M 671.5 634.5 L 671.5 630.5 M 723.5 634.5 L 723.5 630.5 M 774.5 634.5 L 774.5 630.5 M 825.5 634.5 L 825.5 630.5 M 876.5 634.5 L 876.5 630.5 M 927.5 634.5 L 927.5 630.5 M 978.5 634.5 L 978.5 630.5 M 1029.5 634.5 L 1029.5 630.5 M 1080.5 634.5 L 1080.5 630.5 M 1132.5 634.5 L 1132.5 630.5 M 1183.5 634.5 L 1183.5 630.5 M 1234.5 634.5 L 1234.5 630.5 M 1285.5 634.5 L 1285.5 630.5 M 1336.5 634.5 L 1336.5 630.5" stroke-opacity="1" stroke-linejoin="bevel" stroke-miterlimit="10" stroke-dasharray=""/><text fill="rgb(68,68,68)" stroke="none" font-family="helvetica" font-size="11px" font-style="normal" font-weight="normal" text-decoration="normal" x="54.94166660308838" y="648.89013671875" text-anchor="start" dominant-baseline="alphabetic" transform="matrix(1, 0, 0, 1, 0.5, 0.5)" fill-opacity="1">0</text><text fill="rgb(68,68,68)" stroke="none" font-family="helvetica" font-size="11px" font-style="normal" font-weight="normal" text-decoration="normal" x="304.42500591278076" y="648.89013671875" text-anchor="start" dominant-baseline="alphabetic" transform="matrix(1, 0, 0, 1, 0.5, 0.5)" fill-opacity="1">200</text><text fill="rgb(68,68,68)" stroke="none" font-family="helvetica" font-size="11px" font-style="normal" font-weight="normal" text-decoration="normal" x="560.0250120162964" y="648.89013671875" text-anchor="start" dominant-baseline="alphabetic" transform="matrix(1, 0, 0, 1, 0.5, 0.5)" fill-opacity="1">400</text><text fill="rgb(68,68,68)" stroke="none" font-family="helvetica" font-size="11px" font-style="normal" font-weight="normal" text-decoration="normal" x="815.6249876022339" y="648.89013671875" text-anchor="start" dominant-baseline="alphabetic" transform="matrix(1, 0, 0, 1, 0.5, 0.5)" fill-opacity="1">600</text><text fill="rgb(68,68,68)" stroke="none" font-family="helvetica" font-size="11px" font-style="normal" font-weight="normal" text-decoration="normal" x="1071.2250242233276" y="648.89013671875" text-anchor="start" dominant-baseline="alphabetic" transform="matrix(1, 0, 0, 1, 0.5, 0.5)" fill-opacity="1">800</text><text fill="rgb(68,68,68)" stroke="none" font-family="helvetica" font-size="11px" font-style="normal" font-weight="normal" text-decoration="normal" x="1323.7666664123535" y="648.89013671875" text-anchor="start" dominant-baseline="alphabetic" transform="matrix(1, 0, 0, 1, 0.5, 0.5)" fill-opacity="1">1000</text><text fill="rgb(68,68,68)" stroke="none" font-family="helvetica" font-size="15pt" font-style="italic" font-weight="normal" text-decoration="normal" x="666.4416675567627" y="676.06982421875" text-anchor="start" dominant-baseline="alphabetic" transform="matrix(1, 0, 0, 1, 0.5, 0.5)" fill-opacity="1">time(s)</text><path fill="none" stroke="rgb(0,0,0)" paint-order="fill" d="M 58.5 630.5 L 58.5 51.5" stroke-opacity="1" stroke-linejoin="bevel" stroke-miterlimit="10" stroke-dasharray=""/><path fill="none" stroke="rgb(0,0,0)" paint-order="fill" d="M 52.5 551.5 L 60.5 551.5 M 52.5 446.5 L 60.5 446.5 M 52.5 341.5 L 60.5 341.5 M 52.5 235.5 L 60.5 235.5 M 52.5 130.5 L 60.5 130.5" stroke-opacity="1" stroke-linejoin="bevel" stroke-miterlimit="10" stroke-dasharray=""/><path fill="none" stroke="rgb(0,0,0)" paint-order="fill" d="M 54.5 572.5 L 58.5 572.5 M 54.5 593.5 L 58.5 593.5 M 54.5 614.5 L 58.5 614.5 M 54.5 551.5 L 58.5 551.5 M 54.5 530.5 L 58.5 530.5 M 54.5 509.5 L 58.5 509.5 M 54.5 488.5 L 58.5 488.5 M 54.5 467.5 L 58.5 467.5 M 54.5 446.5 L 58.5 446.5 M 54.5 425.5 L 58.5 425.5 M 54.5 404.5 L 58.5 404.5 M 54.5 383.5 L 58.5 383.5 M 54.5 362.5 L 58.5 362.5 M 54.5 341.5 L 58.5 341.5 M 54.5 319.5 L 58.5 319.5 M 54.5 298.5 L 58.5 298.5 M 54.5 277.5 L 58.5 277.5 M 54.5 256.5 L 58.5 256.5 M 54.5 235.5 L 58.5 235.5 M 54.5 214.5 L 58.5 214.5 M 54.5 193.5 L 58.5 193.5 M 54.5 172.5 L 58.5 172.5 M 54.5 151.5 L 58.5 151.5 M 54.5 130.5 L 58.5 130.5 M 54.5 109.5 L 58.5 109.5 M 54.5 88.5 L 58.5 88.5 M 54.5 67.5 L 58.5 67.5" stroke-opacity="1" stroke-linejoin="bevel" stroke-miterlimit="10" stroke-dasharray=""/><text fill="rgb(68,68,68)" stroke="none" font-family="helvetica" font-size="11px" font-style="normal" font-weight="normal" text-decoration="normal" x="34.46666622161865" y="554.9905395507812" text-anchor="start" dominant-baseline="alphabetic" transform="matrix(1, 0, 0, 1, 0.5, 0.5)" fill-opacity="1">−2</text><text fill="rgb(68,68,68)" stroke="none" font-family="helvetica" font-size="11px" font-style="normal" font-weight="normal" text-decoration="normal" x="34.46666622161865" y="449.7178039550781" text-anchor="start" dominant-baseline="alphabetic" transform="matrix(1, 0, 0, 1, 0.5, 0.5)" fill-opacity="1">−1</text><text fill="rgb(68,68,68)" stroke="none" font-family="helvetica" font-size="11px" font-style="normal" font-weight="normal" text-decoration="normal" x="40.88333320617676" y="344.445068359375" text-anchor="start" dominant-baseline="alphabetic" transform="matrix(1, 0, 0, 1, 0.5, 0.5)" fill-opacity="1">0</text><text fill="rgb(68,68,68)" stroke="none" font-family="helvetica" font-size="11px" font-style="normal" font-weight="normal" text-decoration="normal" x="40.88333320617676" y="239.17234802246094" text-anchor="start" dominant-baseline="alphabetic" transform="matrix(1, 0, 0, 1, 0.5, 0.5)" fill-opacity="1">1</text><text fill="rgb(68,68,68)" stroke="none" font-family="helvetica" font-size="11px" font-style="normal" font-weight="normal" text-decoration="normal" x="40.88333320617676" y="133.8996124267578" text-anchor="start" dominant-baseline="alphabetic" transform="matrix(1, 0, 0, 1, 0.5, 0.5)" fill-opacity="1">2</text><text fill="rgb(68,68,68)" stroke="none" font-family="helvetica" font-size="15pt" font-style="italic" font-weight="normal" text-decoration="normal" x="-11.316666603088379" y="336.076171875" text-anchor="start" dominant-baseline="alphabetic" transform="matrix(6.123233995736766e-17, -1, 1, 6.123233995736766e-17, -313.53333377838135, 367.46666622161865)" fill-opacity="1">students</text><path fill="rgb(255,255,255)" stroke="rgb(229,229,229)" paint-order="fill" d="M 1128.2333374023438 61.5 L 1326.5 61.5 L 1326.5 400.5 L 1128.2333374023438 400.5 L 1128.2333374023438 61.5" fill-opacity="0.9490196078431372" clip-path="url(#xThzLhtnSdhH)" stroke-opacity="0.5019607843137255" stroke-linejoin="bevel" stroke-miterlimit="10" stroke-dasharray=""/><g clip-path="url(#xThzLhtnSdhH)"><text fill="rgb(68,68,68)" stroke="none" font-family="helvetica" font-size="13px" font-style="normal" font-weight="normal" text-decoration="normal" x="1162.7333374023438" y="81" text-anchor="start" dominant-baseline="central" transform="matrix(1, 0, 0, 1, 0.5, 0.5)" fill-opacity="1">wavelength</text></g><path fill="rgb(0,255,40)" stroke="none" paint-order="stroke" d="M 1140.2333374023438 73.5 L 1156.2333374023438 73.5 L 1156.2333374023438 89.5 L 1140.2333374023438 89.5 L 1140.2333374023438 73.5" fill-opacity="1" clip-path="url(#xThzLhtnSdhH)"/><path fill="rgb(216,17,89)" stroke="none" paint-order="stroke" d="M 1140.2333374023438 73.5 L 1156.2333374023438 73.5 L 1156.2333374023438 89.5 L 1140.2333374023438 89.5 L 1140.2333374023438 73.5" fill-opacity="1" clip-path="url(#xThzLhtnSdhH)"/><g clip-path="url(#xThzLhtnSdhH)"><text fill="rgb(68,68,68)" stroke="none" font-family="helvetica" font-size="13px" font-style="normal" font-weight="normal" text-decoration="normal" x="1162.7333374023438" y="104" text-anchor="start" dominant-baseline="central" transform="matrix(1, 0, 0, 1, 0.5, 0.5)" fill-opacity="1">solution</text></g><path fill="rgb(251,0,7)" stroke="none" paint-order="stroke" d="M 1140.2333374023438 96.5 L 1156.2333374023438 96.5 L 1156.2333374023438 112.5 L 1140.2333374023438 112.5 L 1140.2333374023438 96.5" fill-opacity="1" clip-path="url(#xThzLhtnSdhH)"/><path fill="rgb(33,131,128)" stroke="none" paint-order="stroke" d="M 1140.2333374023438 96.5 L 1156.2333374023438 96.5 L 1156.2333374023438 112.5 L 1140.2333374023438 112.5 L 1140.2333374023438 96.5" fill-opacity="1" clip-path="url(#xThzLhtnSdhH)"/><g clip-path="url(#xThzLhtnSdhH)"><text fill="rgb(68,68,68)" stroke="none" font-family="helvetica" font-size="13px" font-style="normal" font-weight="normal" text-decoration="normal" x="1162.7333374023438" y="127" text-anchor="start" dominant-baseline="central" transform="matrix(1, 0, 0, 1, 0.5, 0.5)" fill-opacity="1">laser</text></g><path fill="rgb(105,29,48)" stroke="none" paint-order="stroke" d="M 1140.2333374023438 119.5 L 1156.2333374023438 119.5 L 1156.2333374023438 135.5 L 1140.2333374023438 135.5 L 1140.2333374023438 119.5" fill-opacity="1" clip-path="url(#xThzLhtnSdhH)"/><g clip-path="url(#xThzLhtnSdhH)"><text fill="rgb(68,68,68)" stroke="none" font-family="helvetica" font-size="13px" font-style="normal" font-weight="normal" text-decoration="normal" x="1162.7333374023438" y="150" text-anchor="start" dominant-baseline="central" transform="matrix(1, 0, 0, 1, 0.5, 0.5)" fill-opacity="1">ruler</text></g><path fill="rgb(255,188,66)" stroke="none" paint-order="stroke" d="M 1140.2333374023438 142.5 L 1156.2333374023438 142.5 L 1156.2333374023438 158.5 L 1140.2333374023438 158.5 L 1140.2333374023438 142.5" fill-opacity="1" clip-path="url(#xThzLhtnSdhH)"/><g clip-path="url(#xThzLhtnSdhH)"><text fill="rgb(68,68,68)" stroke="none" font-family="helvetica" font-size="13px" font-style="normal" font-weight="normal" text-decoration="normal" x="1162.7333374023438" y="173" text-anchor="start" dominant-baseline="central" transform="matrix(1, 0, 0, 1, 0.5, 0.5)" fill-opacity="1">restarts</text></g><path fill="rgb(162,174,187)" stroke="none" paint-order="stroke" d="M 1140.2333374023438 165.5 L 1156.2333374023438 165.5 L 1156.2333374023438 181.5 L 1140.2333374023438 181.5 L 1140.2333374023438 165.5" fill-opacity="1" clip-path="url(#xThzLhtnSdhH)"/><g clip-path="url(#xThzLhtnSdhH)"><text fill="rgb(68,68,68)" stroke="none" font-family="helvetica" font-size="13px" font-style="normal" font-weight="normal" text-decoration="normal" x="1162.7333374023438" y="196" text-anchor="start" dominant-baseline="central" transform="matrix(1, 0, 0, 1, 0.5, 0.5)" fill-opacity="1">transmittance_absorbance</text></g><path fill="rgb(162,174,187)" stroke="none" paint-order="stroke" d="M 1140.2333374023438 188.5 L 1156.2333374023438 188.5 L 1156.2333374023438 204.5 L 1140.2333374023438 204.5 L 1140.2333374023438 188.5" fill-opacity="1" clip-path="url(#xThzLhtnSdhH)"/><g clip-path="url(#xThzLhtnSdhH)"><text fill="rgb(68,68,68)" stroke="none" font-family="helvetica" font-size="13px" font-style="normal" font-weight="normal" text-decoration="normal" x="1162.7333374023438" y="219" text-anchor="start" dominant-baseline="central" transform="matrix(1, 0, 0, 1, 0.5, 0.5)" fill-opacity="1">magnifier</text></g><path fill="rgb(255,188,66)" stroke="none" paint-order="stroke" d="M 1140.2333374023438 211.5 L 1156.2333374023438 211.5 L 1156.2333374023438 227.5 L 1140.2333374023438 227.5 L 1140.2333374023438 211.5" fill-opacity="1" clip-path="url(#xThzLhtnSdhH)"/><g clip-path="url(#xThzLhtnSdhH)"><text fill="rgb(68,68,68)" stroke="none" font-family="helvetica" font-size="13px" font-style="normal" font-weight="normal" text-decoration="normal" x="1162.7333374023438" y="242" text-anchor="start" dominant-baseline="central" transform="matrix(1, 0, 0, 1, 0.5, 0.5)" fill-opacity="1">concentration</text></g><path fill="rgb(115,210,222)" stroke="none" paint-order="stroke" d="M 1140.2333374023438 234.5 L 1156.2333374023438 234.5 L 1156.2333374023438 250.5 L 1140.2333374023438 250.5 L 1140.2333374023438 234.5" fill-opacity="1" clip-path="url(#xThzLhtnSdhH)"/><g clip-path="url(#xThzLhtnSdhH)"><text fill="rgb(68,68,68)" stroke="none" font-family="helvetica" font-size="13px" font-style="normal" font-weight="normal" text-decoration="normal" x="1162.7333374023438" y="265" text-anchor="start" dominant-baseline="central" transform="matrix(1, 0, 0, 1, 0.5, 0.5)" fill-opacity="1">flask</text></g><path fill="rgb(28,49,68)" stroke="none" paint-order="stroke" d="M 1140.2333374023438 257.5 L 1156.2333374023438 257.5 L 1156.2333374023438 273.5 L 1140.2333374023438 273.5 L 1140.2333374023438 257.5" fill-opacity="1" clip-path="url(#xThzLhtnSdhH)"/><g clip-path="url(#xThzLhtnSdhH)"><text fill="rgb(68,68,68)" stroke="none" font-family="helvetica" font-size="13px" font-style="normal" font-weight="normal" text-decoration="normal" x="1162.7333374023438" y="288" text-anchor="start" dominant-baseline="central" transform="matrix(1, 0, 0, 1, 0.5, 0.5)" fill-opacity="1">pdf</text></g><g clip-path="url(#xThzLhtnSdhH)"><text fill="rgb(68,68,68)" stroke="none" font-family="helvetica" font-size="13px" font-style="normal" font-weight="normal" text-decoration="normal" x="1162.7333374023438" y="311" text-anchor="start" dominant-baseline="central" transform="matrix(1, 0, 0, 1, 0.5, 0.5)" fill-opacity="1">concentrationlab</text></g><g clip-path="url(#xThzLhtnSdhH)"><text fill="rgb(68,68,68)" stroke="none" font-family="helvetica" font-size="13px" font-style="normal" font-weight="normal" text-decoration="normal" x="1162.7333374023438" y="334" text-anchor="start" dominant-baseline="central" transform="matrix(1, 0, 0, 1, 0.5, 0.5)" fill-opacity="1">wavelength_slider</text></g><path fill="rgb(105,29,48)" stroke="none" paint-order="stroke" d="M 1140.2333374023438 326.5 L 1156.2333374023438 326.5 L 1156.2333374023438 342.5 L 1140.2333374023438 342.5 L 1140.2333374023438 326.5" fill-opacity="1" clip-path="url(#xThzLhtnSdhH)"/><g clip-path="url(#xThzLhtnSdhH)"><text fill="rgb(68,68,68)" stroke="none" font-family="helvetica" font-size="13px" font-style="normal" font-weight="normal" text-decoration="normal" x="1162.7333374023438" y="357" text-anchor="start" dominant-baseline="central" transform="matrix(1, 0, 0, 1, 0.5, 0.5)" fill-opacity="1">ruler measuring</text></g><path fill="rgb(255,188,66)" stroke="none" paint-order="stroke" d="M 1140.2333374023438 349.5 L 1156.2333374023438 349.5 L 1156.2333374023438 365.5 L 1140.2333374023438 365.5 L 1140.2333374023438 349.5" fill-opacity="1" clip-path="url(#xThzLhtnSdhH)"/><g clip-path="url(#xThzLhtnSdhH)"><text fill="rgb(68,68,68)" stroke="none" font-family="helvetica" font-size="13px" font-style="normal" font-weight="normal" text-decoration="normal" x="1162.7333374023438" y="380" text-anchor="start" dominant-baseline="central" transform="matrix(1, 0, 0, 1, 0.5, 0.5)" fill-opacity="1">dependent variable</text></g><path fill="rgb(143,45,86)" stroke="none" paint-order="stroke" d="M 1140.2333374023438 372.5 L 1156.2333374023438 372.5 L 1156.2333374023438 388.5 L 1140.2333374023438 388.5 L 1140.2333374023438 372.5" fill-opacity="1" clip-path="url(#xThzLhtnSdhH)"/><text fill="rgb(68,68,68)" stroke="none" font-family="helvetica" font-size="25pt" font-style="normal" font-weight="bold" text-decoration="normal" x="58" y="38.740885416666664" text-anchor="start" dominant-baseline="alphabetic" transform="matrix(1, 0, 0, 1, 0.5, 0.5)" fill-opacity="1">Timeline for student 5pt9tpaj with permutation 0321 for task 3</text></svg>