<svg version="1.1" xmlns="http://www.w3.org/2000/svg" width="1366" height="683"><defs><clipPath id="yTACGHaDRtwP"><path fill="none" stroke="none" d="M 58.5 51.5 L 1336.5 51.5 L 1336.5 630.5 L 58.5 630.5 L 58.5 51.5"/></clipPath><clipPath id="InamexmlfJQo"><path fill="none" stroke="none" d="M 58.5 51.5 L 1336.5 51.5 L 1336.5 630.5 L 58.5 630.5 L 58.5 51.5"/></clipPath><clipPath id="PMoIzoGecNqK"><path fill="none" stroke="none" d="M 58.5 51.5 L 1336.5 51.5 L 1336.5 630.5 L 58.5 630.5 L 58.5 51.5"/></clipPath><clipPath id="GBXqMWidwNXg"><path fill="none" stroke="none" d="M 58.5 51.5 L 1336.5 51.5 L 1336.5 630.5 L 58.5 630.5 L 58.5 51.5"/></clipPath><clipPath id="NwJfHRmXuPra"><path fill="none" stroke="none" d="M 58.5 51.5 L 1336.5 51.5 L 1336.5 630.5 L 58.5 630.5 L 58.5 51.5"/></clipPath><clipPath id="WRfFymwIxJPe"><path fill="none" stroke="none" d="M 58.5 51.5 L 1336.5 51.5 L 1336.5 630.5 L 58.5 630.5 L 58.5 51.5"/></clipPath><clipPath id="ymWJuJBTTXwz"><path fill="none" stroke="none" d="M 58.5 51.5 L 1336.5 51.5 L 1336.5 630.5 L 58.5 630.5 L 58.5 51.5"/></clipPath><clipPath id="cAhvuqHsWOcm"><path fill="none" stroke="none" d="M 58.5 51.5 L 1336.5 51.5 L 1336.5 630.5 L 58.5 630.5 L 58.5 51.5"/></clipPath><clipPath id="HSegNiqhFyuA"><path fill="none" stroke="none" d="M 58.5 51.5 L 1336.5 51.5 L 1336.5 630.5 L 58.5 630.5 L 58.5 51.5"/></clipPath><clipPath id="bBfPMqNvHWPS"><path fill="none" stroke="none" d="M 58.5 51.5 L 1336.5 51.5 L 1336.5 630.5 L 58.5 630.5 L 58.5 51.5"/></clipPath><clipPath id="pwbTJOOodhBX"><path fill="none" stroke="none" d="M 58.5 51.5 L 1336.5 51.5 L 1336.5 630.5 L 58.5 630.5 L 58.5 51.5"/></clipPath><clipPath id="DHBSHmbcvgtW"><path fill="none" stroke="none" d="M 58.5 51.5 L 1336.5 51.5 L 1336.5 630.5 L 58.5 630.5 L 58.5 51.5"/></clipPath><clipPath id="RGPMamfxaXiD"><path fill="none" stroke="none" d="M 58.5 51.5 L 1336.5 51.5 L 1336.5 630.5 L 58.5 630.5 L 58.5 51.5"/></clipPath><clipPath id="uuPeLVlyJBKH"><path fill="none" stroke="none" d="M 58.5 51.5 L 1336.5 51.5 L 1336.5 630.5 L 58.5 630.5 L 58.5 51.5"/></clipPath><clipPath id="ycTNUuxGOTNM"><path fill="none" stroke="none" d="M 58.5 51.5 L 1336.5 51.5 L 1336.5 630.5 L 58.5 630.5 L 58.5 51.5"/></clipPath><clipPath id="EiNHfHTXKlTF"><path fill="none" stroke="none" d="M 58.5 51.5 L 1336.5 51.5 L 1336.5 630.5 L 58.5 630.5 L 58.5 51.5"/></clipPath><clipPath id="CQTJhSQsZGLM"><path fill="none" stroke="none" d="M 58.5 51.5 L 1336.5 51.5 L 1336.5 630.5 L 58.5 630.5 L 58.5 51.5"/></clipPath><clipPath id="KeNxSXirpChT"><path fill="none" stroke="none" d="M 58.5 51.5 L 1336.5 51.5 L 1336.5 630.5 L 58.5 630.5 L 58.5 51.5"/></clipPath><clipPath id="ZvVEHrhLbhPz"><path fill="none" stroke="none" d="M 58.5 51.5 L 1336.5 51.5 L 1336.5 630.5 L 58.5 630.5 L 58.5 51.5"/></clipPath><clipPath id="CTAVoWkiVdWl"><path fill="none" stroke="none" d="M 58.5 51.5 L 1336.5 51.5 L 1336.5 630.5 L 58.5 630.5 L 58.5 51.5"/></clipPath><clipPath id="ZGzIHZdGCgTR"><path fill="none" stroke="none" d="M 58.5 51.5 L 1336.5 51.5 L 1336.5 630.5 L 58.5 630.5 L 58.5 51.5"/></clipPath></defs><path fill="rgb(255,255,255)" stroke="none" paint-order="stroke" d="M 0.5 0.5 L 1366.5 0.5 L 1366.5 683.5 L 0.5 683.5 L 0.5 0.5" fill-opacity="1"/><rect fill="#FFFFFF" stroke="none" x="58" y="51" width="1278" height="579" transform="matrix(1, 0, 0, 1, 0.5, 0.5)"/><path fill="rgb(255,255,255)" stroke="none" paint-order="stroke" d="M 58.5 51.5 L 1336.5 51.5 L 1336.5 630.5 L 58.5 630.5 L 58.5 51.5" fill-opacity="1"/><path fill="none" stroke="rgb(229,229,229)" paint-order="fill" d="M 58.5 51.5 L 1336.5 51.5 L 1336.5 630.5 L 58.5 630.5 L 58.5 51.5" stroke-opacity="1" stroke-linejoin="bevel" stroke-miterlimit="10" stroke-dasharray=""/><path fill="none" stroke="rgb(229,229,229)" paint-order="fill" d="M 314.5 630.5 L 314.5 51.5 M 569.5 630.5 L 569.5 51.5 M 825.5 630.5 L 825.5 51.5 M 1080.5 630.5 L 1080.5 51.5" stroke-opacity="1" stroke-linejoin="bevel" stroke-miterlimit="10" stroke-dasharray="" clip-path="url(#yTACGHaDRtwP)"/><path fill="none" stroke="rgb(229,229,229)" paint-order="fill" d="M 58.5 551.5 L 1336.5 551.5 M 58.5 446.5 L 1336.5 446.5 M 58.5 341.5 L 1336.5 341.5 M 58.5 235.5 L 1336.5 235.5 M 58.5 130.5 L 1336.5 130.5" stroke-opacity="1" stroke-linejoin="bevel" stroke-miterlimit="10" stroke-dasharray="" clip-path="url(#InamexmlfJQo)"/><path fill="rgb(0,255,40)" stroke="none" paint-order="stroke" d="M 58.5 77.81818389892578 L 259.6610412597656 77.81818389892578 L 259.6610412597656 130.45454788208008 L 58.5 130.45454788208008 L 58.5 77.81818389892578" fill-opacity="1" clip-path="url(#PMoIzoGecNqK)"/><path fill="rgb(42,0,238)" stroke="none" paint-order="stroke" d="M 259.6610412597656 77.81818389892578 L 266.3143091201782 77.81818389892578 L 266.3143091201782 130.45454788208008 L 259.6610412597656 130.45454788208008 L 259.6610412597656 77.81818389892578" fill-opacity="1" clip-path="url(#PMoIzoGecNqK)"/><path fill="rgb(0,255,40)" stroke="none" paint-order="stroke" d="M 266.3143005371094 77.81818389892578 L 332.1568603515625 77.81818389892578 L 332.1568603515625 130.45454788208008 L 266.3143005371094 130.45454788208008 L 266.3143005371094 77.81818389892578" fill-opacity="1" clip-path="url(#PMoIzoGecNqK)"/><path fill="rgb(8,255,0)" stroke="none" paint-order="stroke" d="M 332.1568603515625 77.81818389892578 L 332.1785863507539 77.81818389892578 L 332.1785863507539 130.45454788208008 L 332.1568603515625 130.45454788208008 L 332.1568603515625 77.81818389892578" fill-opacity="1" clip-path="url(#PMoIzoGecNqK)"/><path fill="rgb(25,255,0)" stroke="none" paint-order="stroke" d="M 332.1785888671875 77.81818389892578 L 332.2220408655703 77.81818389892578 L 332.2220408655703 130.45454788208008 L 332.1785888671875 130.45454788208008 L 332.1785888671875 77.81818389892578" fill-opacity="1" clip-path="url(#PMoIzoGecNqK)"/><path fill="rgb(40,255,0)" stroke="none" paint-order="stroke" d="M 332.2220458984375 77.81818389892578 L 332.30639389902353 77.81818389892578 L 332.30639389902353 130.45454788208008 L 332.2220458984375 130.45454788208008 L 332.2220458984375 77.81818389892578" fill-opacity="1" clip-path="url(#PMoIzoGecNqK)"/><path fill="rgb(53,255,0)" stroke="none" paint-order="stroke" d="M 332.306396484375 77.81818389892578 L 408.0445098876953 77.81818389892578 L 408.0445098876953 130.45454788208008 L 332.306396484375 130.45454788208008 L 332.306396484375 77.81818389892578" fill-opacity="1" clip-path="url(#PMoIzoGecNqK)"/><path fill="rgb(42,0,238)" stroke="none" paint-order="stroke" d="M 408.04449462890625 77.81818389892578 L 411.1730387210846 77.81818389892578 L 411.1730387210846 130.45454788208008 L 408.04449462890625 130.45454788208008 L 408.04449462890625 77.81818389892578" fill-opacity="1" clip-path="url(#PMoIzoGecNqK)"/><path fill="rgb(38,0,240)" stroke="none" paint-order="stroke" d="M 411.17303466796875 77.81818389892578 L 411.3519546687603 77.81818389892578 L 411.3519546687603 130.45454788208008 L 411.17303466796875 130.45454788208008 L 411.17303466796875 77.81818389892578" fill-opacity="1" clip-path="url(#PMoIzoGecNqK)"/><path fill="rgb(33,0,243)" stroke="none" paint-order="stroke" d="M 411.3519592285156 77.81818389892578 L 411.5551612228155 77.81818389892578 L 411.5551612228155 130.45454788208008 L 411.3519592285156 130.45454788208008 L 411.3519592285156 77.81818389892578" fill-opacity="1" clip-path="url(#PMoIzoGecNqK)"/><path fill="rgb(28,0,245)" stroke="none" paint-order="stroke" d="M 411.55517578125 77.81818389892578 L 411.73665177822113 77.81818389892578 L 411.73665177822113 130.45454788208008 L 411.55517578125 130.45454788208008 L 411.55517578125 77.81818389892578" fill-opacity="1" clip-path="url(#PMoIzoGecNqK)"/><path fill="rgb(22,0,247)" stroke="none" paint-order="stroke" d="M 411.73663330078125 77.81818389892578 L 413.12837529182434 77.81818389892578 L 413.12837529182434 130.45454788208008 L 411.73663330078125 130.45454788208008 L 411.73663330078125 77.81818389892578" fill-opacity="1" clip-path="url(#PMoIzoGecNqK)"/><path fill="rgb(9,0,252)" stroke="none" paint-order="stroke" d="M 413.1283874511719 77.81818389892578 L 413.1501134503633 77.81818389892578 L 413.1501134503633 130.45454788208008 L 413.1283874511719 130.45454788208008 L 413.1283874511719 77.81818389892578" fill-opacity="1" clip-path="url(#PMoIzoGecNqK)"/><path fill="rgb(0,19,255)" stroke="none" paint-order="stroke" d="M 413.1501159667969 77.81818389892578 L 413.1718419659883 77.81818389892578 L 413.1718419659883 130.45454788208008 L 413.1501159667969 130.45454788208008 L 413.1501159667969 77.81818389892578" fill-opacity="1" clip-path="url(#PMoIzoGecNqK)"/><path fill="rgb(0,40,255)" stroke="none" paint-order="stroke" d="M 413.1718444824219 77.81818389892578 L 413.1910144817084 77.81818389892578 L 413.1910144817084 130.45454788208008 L 413.1718444824219 130.45454788208008 L 413.1718444824219 77.81818389892578" fill-opacity="1" clip-path="url(#PMoIzoGecNqK)"/><path fill="rgb(0,58,255)" stroke="none" paint-order="stroke" d="M 413.1910095214844 77.81818389892578 L 413.2344615198672 77.81818389892578 L 413.2344615198672 130.45454788208008 L 413.1910095214844 130.45454788208008 L 413.1910095214844 77.81818389892578" fill-opacity="1" clip-path="url(#PMoIzoGecNqK)"/><path fill="rgb(0,97,255)" stroke="none" paint-order="stroke" d="M 413.2344665527344 77.81818389892578 L 413.2766405530274 77.81818389892578 L 413.2766405530274 130.45454788208008 L 413.2344665527344 130.45454788208008 L 413.2344665527344 77.81818389892578" fill-opacity="1" clip-path="url(#PMoIzoGecNqK)"/><path fill="rgb(0,112,255)" stroke="none" paint-order="stroke" d="M 413.2766418457031 77.81818389892578 L 413.31881584599614 77.81818389892578 L 413.31881584599614 130.45454788208008 L 413.2766418457031 130.45454788208008 L 413.2766418457031 77.81818389892578" fill-opacity="1" clip-path="url(#PMoIzoGecNqK)"/><path fill="rgb(0,127,255)" stroke="none" paint-order="stroke" d="M 413.3188171386719 77.81818389892578 L 413.3622691370547 77.81818389892578 L 413.3622691370547 130.45454788208008 L 413.3188171386719 130.45454788208008 L 413.3188171386719 77.81818389892578" fill-opacity="1" clip-path="url(#PMoIzoGecNqK)"/><path fill="rgb(0,146,255)" stroke="none" paint-order="stroke" d="M 413.3622741699219 77.81818389892578 L 413.8734741806984 77.81818389892578 L 413.8734741806984 130.45454788208008 L 413.3622741699219 130.45454788208008 L 413.3622741699219 77.81818389892578" fill-opacity="1" clip-path="url(#PMoIzoGecNqK)"/><path fill="rgb(0,160,255)" stroke="none" paint-order="stroke" d="M 413.87347412109375 77.81818389892578 L 413.91692611947656 77.81818389892578 L 413.91692611947656 130.45454788208008 L 413.87347412109375 130.45454788208008 L 413.87347412109375 77.81818389892578" fill-opacity="1" clip-path="url(#PMoIzoGecNqK)"/><path fill="rgb(0,173,255)" stroke="none" paint-order="stroke" d="M 413.9169006347656 77.81818389892578 L 414.0229746326804 77.81818389892578 L 414.0229746326804 130.45454788208008 L 413.9169006347656 130.45454788208008 L 413.9169006347656 77.81818389892578" fill-opacity="1" clip-path="url(#PMoIzoGecNqK)"/><path fill="rgb(0,187,255)" stroke="none" paint-order="stroke" d="M 414.0229797363281 77.81818389892578 L 414.1290537342429 77.81818389892578 L 414.1290537342429 130.45454788208008 L 414.0229797363281 130.45454788208008 L 414.0229797363281 77.81818389892578" fill-opacity="1" clip-path="url(#PMoIzoGecNqK)"/><path fill="rgb(0,204,255)" stroke="none" paint-order="stroke" d="M 414.1290588378906 77.81818389892578 L 414.30031083524227 77.81818389892578 L 414.30031083524227 130.45454788208008 L 414.1290588378906 130.45454788208008 L 414.1290588378906 77.81818389892578" fill-opacity="1" clip-path="url(#PMoIzoGecNqK)"/><path fill="rgb(0,217,255)" stroke="none" paint-order="stroke" d="M 414.3003234863281 77.81818389892578 L 414.3642234876752 77.81818389892578 L 414.3642234876752 130.45454788208008 L 414.3003234863281 130.45454788208008 L 414.3003234863281 77.81818389892578" fill-opacity="1" clip-path="url(#PMoIzoGecNqK)"/><path fill="rgb(0,230,255)" stroke="none" paint-order="stroke" d="M 414.36419677734375 77.81818389892578 L 414.40637077763677 77.81818389892578 L 414.40637077763677 130.45454788208008 L 414.36419677734375 130.45454788208008 L 414.36419677734375 77.81818389892578" fill-opacity="1" clip-path="url(#PMoIzoGecNqK)"/><path fill="rgb(0,242,255)" stroke="none" paint-order="stroke" d="M 414.4063720703125 77.81818389892578 L 414.4485460706055 77.81818389892578 L 414.4485460706055 130.45454788208008 L 414.4063720703125 130.45454788208008 L 414.4063720703125 77.81818389892578" fill-opacity="1" clip-path="url(#PMoIzoGecNqK)"/><path fill="rgb(0,255,244)" stroke="none" paint-order="stroke" d="M 414.44854736328125 77.81818389892578 L 414.5341733619571 77.81818389892578 L 414.5341733619571 130.45454788208008 L 414.44854736328125 130.45454788208008 L 414.44854736328125 77.81818389892578" fill-opacity="1" clip-path="url(#PMoIzoGecNqK)"/><path fill="rgb(0,255,213)" stroke="none" paint-order="stroke" d="M 414.5341796875 77.81818389892578 L 414.7258796840906 77.81818389892578 L 414.7258796840906 130.45454788208008 L 414.5341796875 130.45454788208008 L 414.5341796875 77.81818389892578" fill-opacity="1" clip-path="url(#PMoIzoGecNqK)"/><path fill="rgb(0,255,180)" stroke="none" paint-order="stroke" d="M 414.72589111328125 77.81818389892578 L 415.3214390873909 77.81818389892578 L 415.3214390873909 130.45454788208008 L 414.72589111328125 130.45454788208008 L 414.72589111328125 77.81818389892578" fill-opacity="1" clip-path="url(#PMoIzoGecNqK)"/><path fill="rgb(0,255,146)" stroke="none" paint-order="stroke" d="M 415.3214416503906 77.81818389892578 L 415.4287936538458 77.81818389892578 L 415.4287936538458 130.45454788208008 L 415.3214416503906 130.45454788208008 L 415.3214416503906 77.81818389892578" fill-opacity="1" clip-path="url(#PMoIzoGecNqK)"/><path fill="rgb(0,255,97)" stroke="none" paint-order="stroke" d="M 415.42877197265625 77.81818389892578 L 415.64091996848583 77.81818389892578 L 415.64091996848583 130.45454788208008 L 415.42877197265625 130.45454788208008 L 415.42877197265625 77.81818389892578" fill-opacity="1" clip-path="url(#PMoIzoGecNqK)"/><path fill="rgb(0,255,55)" stroke="none" paint-order="stroke" d="M 415.64093017578125 77.81818389892578 L 416.1534081697464 77.81818389892578 L 416.1534081697464 130.45454788208008 L 415.64093017578125 130.45454788208008 L 415.64093017578125 77.81818389892578" fill-opacity="1" clip-path="url(#PMoIzoGecNqK)"/><path fill="rgb(0,255,0)" stroke="none" paint-order="stroke" d="M 416.1534118652344 77.81818389892578 L 416.25948586314917 77.81818389892578 L 416.25948586314917 130.45454788208008 L 416.1534118652344 130.45454788208008 L 416.1534118652344 77.81818389892578" fill-opacity="1" clip-path="url(#PMoIzoGecNqK)"/><path fill="rgb(20,255,0)" stroke="none" paint-order="stroke" d="M 416.2594909667969 77.81818389892578 L 416.3016649670899 77.81818389892578 L 416.3016649670899 130.45454788208008 L 416.2594909667969 130.45454788208008 L 416.2594909667969 77.81818389892578" fill-opacity="1" clip-path="url(#PMoIzoGecNqK)"/><path fill="rgb(35,255,0)" stroke="none" paint-order="stroke" d="M 416.3016662597656 77.81818389892578 L 416.323392258957 77.81818389892578 L 416.323392258957 130.45454788208008 L 416.3016662597656 130.45454788208008 L 416.3016662597656 77.81818389892578" fill-opacity="1" clip-path="url(#PMoIzoGecNqK)"/><path fill="rgb(53,255,0)" stroke="none" paint-order="stroke" d="M 416.3233947753906 77.81818389892578 L 416.4294687733054 77.81818389892578 L 416.4294687733054 130.45454788208008 L 416.3233947753906 130.45454788208008 L 416.3233947753906 77.81818389892578" fill-opacity="1" clip-path="url(#PMoIzoGecNqK)"/><path fill="rgb(66,255,0)" stroke="none" paint-order="stroke" d="M 416.4294738769531 77.81818389892578 L 416.47292587533593 77.81818389892578 L 416.47292587533593 130.45454788208008 L 416.4294738769531 130.45454788208008 L 416.4294738769531 77.81818389892578" fill-opacity="1" clip-path="url(#PMoIzoGecNqK)"/><path fill="rgb(78,255,0)" stroke="none" paint-order="stroke" d="M 416.472900390625 77.81818389892578 L 416.53680039197206 77.81818389892578 L 416.53680039197206 130.45454788208008 L 416.472900390625 130.45454788208008 L 416.472900390625 77.81818389892578" fill-opacity="1" clip-path="url(#PMoIzoGecNqK)"/><path fill="rgb(89,255,0)" stroke="none" paint-order="stroke" d="M 416.53680419921875 77.81818389892578 L 416.6007042005658 77.81818389892578 L 416.6007042005658 130.45454788208008 L 416.53680419921875 130.45454788208008 L 416.53680419921875 77.81818389892578" fill-opacity="1" clip-path="url(#PMoIzoGecNqK)"/><path fill="rgb(104,255,0)" stroke="none" paint-order="stroke" d="M 416.6007080078125 77.81818389892578 L 416.62115600705147 77.81818389892578 L 416.62115600705147 130.45454788208008 L 416.6007080078125 130.45454788208008 L 416.6007080078125 77.81818389892578" fill-opacity="1" clip-path="url(#PMoIzoGecNqK)"/><path fill="rgb(115,255,0)" stroke="none" paint-order="stroke" d="M 416.62115478515625 77.81818389892578 L 416.64288078434765 77.81818389892578 L 416.64288078434765 130.45454788208008 L 416.62115478515625 130.45454788208008 L 416.62115478515625 77.81818389892578" fill-opacity="1" clip-path="url(#PMoIzoGecNqK)"/><path fill="rgb(126,255,0)" stroke="none" paint-order="stroke" d="M 416.64288330078125 77.81818389892578 L 416.74895729869604 77.81818389892578 L 416.74895729869604 130.45454788208008 L 416.64288330078125 130.45454788208008 L 416.64288330078125 77.81818389892578" fill-opacity="1" clip-path="url(#PMoIzoGecNqK)"/><path fill="rgb(136,255,0)" stroke="none" paint-order="stroke" d="M 416.74896240234375 77.81818389892578 L 417.5796623826027 77.81818389892578 L 417.5796623826027 130.45454788208008 L 416.74896240234375 130.45454788208008 L 416.74896240234375 77.81818389892578" fill-opacity="1" clip-path="url(#PMoIzoGecNqK)"/><path fill="rgb(126,255,0)" stroke="none" paint-order="stroke" d="M 417.57965087890625 77.81818389892578 L 417.72789888083935 77.81818389892578 L 417.72789888083935 130.45454788208008 L 417.57965087890625 130.45454788208008 L 417.57965087890625 77.81818389892578" fill-opacity="1" clip-path="url(#PMoIzoGecNqK)"/><path fill="rgb(104,255,0)" stroke="none" paint-order="stroke" d="M 417.7279052734375 77.81818389892578 L 418.5598832964897 77.81818389892578 L 418.5598832964897 130.45454788208008 L 417.7279052734375 130.45454788208008 L 417.7279052734375 77.81818389892578" fill-opacity="1" clip-path="url(#PMoIzoGecNqK)"/><path fill="rgb(126,255,0)" stroke="none" paint-order="stroke" d="M 418.55987548828125 77.81818389892578 L 418.5803234875202 77.81818389892578 L 418.5803234875202 130.45454788208008 L 418.55987548828125 130.45454788208008 L 418.55987548828125 77.81818389892578" fill-opacity="1" clip-path="url(#PMoIzoGecNqK)"/><path fill="rgb(159,255,0)" stroke="none" paint-order="stroke" d="M 418.580322265625 77.81818389892578 L 418.6020482648164 77.81818389892578 L 418.6020482648164 130.45454788208008 L 418.580322265625 130.45454788208008 L 418.580322265625 77.81818389892578" fill-opacity="1" clip-path="url(#PMoIzoGecNqK)"/><path fill="rgb(219,255,0)" stroke="none" paint-order="stroke" d="M 418.60205078125 77.81818389892578 L 418.62249878048897 77.81818389892578 L 418.62249878048897 130.45454788208008 L 418.60205078125 130.45454788208008 L 418.60205078125 77.81818389892578" fill-opacity="1" clip-path="url(#PMoIzoGecNqK)"/><path fill="rgb(249,255,0)" stroke="none" paint-order="stroke" d="M 418.62249755859375 77.81818389892578 L 418.64422355778515 77.81818389892578 L 418.64422355778515 130.45454788208008 L 418.62249755859375 130.45454788208008 L 418.62249755859375 77.81818389892578" fill-opacity="1" clip-path="url(#PMoIzoGecNqK)"/><path fill="rgb(255,219,0)" stroke="none" paint-order="stroke" d="M 418.64422607421875 77.81818389892578 L 418.6646740734577 77.81818389892578 L 418.6646740734577 130.45454788208008 L 418.64422607421875 130.45454788208008 L 418.64422607421875 77.81818389892578" fill-opacity="1" clip-path="url(#PMoIzoGecNqK)"/><path fill="rgb(255,176,0)" stroke="none" paint-order="stroke" d="M 418.6646728515625 77.81818389892578 L 418.6863988507539 77.81818389892578 L 418.6863988507539 130.45454788208008 L 418.6646728515625 130.45454788208008 L 418.6646728515625 77.81818389892578" fill-opacity="1" clip-path="url(#PMoIzoGecNqK)"/><path fill="rgb(255,165,0)" stroke="none" paint-order="stroke" d="M 418.6864013671875 77.81818389892578 L 418.70684936642647 77.81818389892578 L 418.70684936642647 130.45454788208008 L 418.6864013671875 130.45454788208008 L 418.6864013671875 77.81818389892578" fill-opacity="1" clip-path="url(#PMoIzoGecNqK)"/><path fill="rgb(255,155,0)" stroke="none" paint-order="stroke" d="M 418.70684814453125 77.81818389892578 L 418.72857414372265 77.81818389892578 L 418.72857414372265 130.45454788208008 L 418.70684814453125 130.45454788208008 L 418.70684814453125 77.81818389892578" fill-opacity="1" clip-path="url(#PMoIzoGecNqK)"/><path fill="rgb(255,129,0)" stroke="none" paint-order="stroke" d="M 418.72857666015625 77.81818389892578 L 418.75030265934765 77.81818389892578 L 418.75030265934765 130.45454788208008 L 418.72857666015625 130.45454788208008 L 418.72857666015625 77.81818389892578" fill-opacity="1" clip-path="url(#PMoIzoGecNqK)"/><path fill="rgb(255,118,0)" stroke="none" paint-order="stroke" d="M 418.75030517578125 77.81818389892578 L 418.77203117497265 77.81818389892578 L 418.77203117497265 130.45454788208008 L 418.75030517578125 130.45454788208008 L 418.75030517578125 77.81818389892578" fill-opacity="1" clip-path="url(#PMoIzoGecNqK)"/><path fill="rgb(255,107,0)" stroke="none" paint-order="stroke" d="M 418.77203369140625 77.81818389892578 L 418.79375969059765 77.81818389892578 L 418.79375969059765 130.45454788208008 L 418.77203369140625 130.45454788208008 L 418.77203369140625 77.81818389892578" fill-opacity="1" clip-path="url(#PMoIzoGecNqK)"/><path fill="rgb(255,91,0)" stroke="none" paint-order="stroke" d="M 418.79376220703125 77.81818389892578 L 418.8142102062702 77.81818389892578 L 418.8142102062702 130.45454788208008 L 418.79376220703125 130.45454788208008 L 418.79376220703125 77.81818389892578" fill-opacity="1" clip-path="url(#PMoIzoGecNqK)"/><path fill="rgb(255,66,0)" stroke="none" paint-order="stroke" d="M 418.814208984375 77.81818389892578 L 418.87810898572206 77.81818389892578 L 418.87810898572206 130.45454788208008 L 418.814208984375 130.45454788208008 L 418.814208984375 77.81818389892578" fill-opacity="1" clip-path="url(#PMoIzoGecNqK)"/><path fill="rgb(255,52,0)" stroke="none" paint-order="stroke" d="M 418.87811279296875 77.81818389892578 L 418.89983879216015 77.81818389892578 L 418.89983879216015 130.45454788208008 L 418.87811279296875 130.45454788208008 L 418.87811279296875 77.81818389892578" fill-opacity="1" clip-path="url(#PMoIzoGecNqK)"/><path fill="rgb(255,15,0)" stroke="none" paint-order="stroke" d="M 418.89984130859375 77.81818389892578 L 418.9202893078327 77.81818389892578 L 418.9202893078327 130.45454788208008 L 418.89984130859375 130.45454788208008 L 418.89984130859375 77.81818389892578" fill-opacity="1" clip-path="url(#PMoIzoGecNqK)"/><path fill="rgb(253,0,0)" stroke="none" paint-order="stroke" d="M 418.9202880859375 77.81818389892578 L 418.9420140851289 77.81818389892578 L 418.9420140851289 130.45454788208008 L 418.9202880859375 130.45454788208008 L 418.9202880859375 77.81818389892578" fill-opacity="1" clip-path="url(#PMoIzoGecNqK)"/><path fill="rgb(244,0,0)" stroke="none" paint-order="stroke" d="M 418.9420166015625 77.81818389892578 L 418.9841906018555 77.81818389892578 L 418.9841906018555 130.45454788208008 L 418.9420166015625 130.45454788208008 L 418.9420166015625 77.81818389892578" fill-opacity="1" clip-path="url(#PMoIzoGecNqK)"/><path fill="rgb(239,0,0)" stroke="none" paint-order="stroke" d="M 418.98419189453125 77.81818389892578 L 419.11326989531517 77.81818389892578 L 419.11326989531517 130.45454788208008 L 418.98419189453125 130.45454788208008 L 418.98419189453125 77.81818389892578" fill-opacity="1" clip-path="url(#PMoIzoGecNqK)"/><path fill="rgb(235,0,0)" stroke="none" paint-order="stroke" d="M 419.1132507324219 77.81818389892578 L 429.6759204864502 77.81818389892578 L 429.6759204864502 130.45454788208008 L 419.1132507324219 130.45454788208008 L 419.1132507324219 77.81818389892578" fill-opacity="1" clip-path="url(#PMoIzoGecNqK)"/><path fill="rgb(242,0,0)" stroke="none" paint-order="stroke" d="M 429.6759338378906 77.81818389892578 L 429.7411118373275 77.81818389892578 L 429.7411118373275 130.45454788208008 L 429.6759338378906 130.45454788208008 L 429.6759338378906 77.81818389892578" fill-opacity="1" clip-path="url(#PMoIzoGecNqK)"/><path fill="rgb(248,0,0)" stroke="none" paint-order="stroke" d="M 429.7411193847656 77.81818389892578 L 429.8471933826804 77.81818389892578 L 429.8471933826804 130.45454788208008 L 429.7411193847656 130.45454788208008 L 429.7411193847656 77.81818389892578" fill-opacity="1" clip-path="url(#PMoIzoGecNqK)"/><path fill="rgb(255,9,0)" stroke="none" paint-order="stroke" d="M 429.84716796875 77.81818389892578 L 429.8688939679414 77.81818389892578 L 429.8688939679414 130.45454788208008 L 429.84716796875 130.45454788208008 L 429.84716796875 77.81818389892578" fill-opacity="1" clip-path="url(#PMoIzoGecNqK)"/><path fill="rgb(255,27,0)" stroke="none" paint-order="stroke" d="M 429.868896484375 77.81818389892578 L 429.88934448361397 77.81818389892578 L 429.88934448361397 130.45454788208008 L 429.868896484375 130.45454788208008 L 429.868896484375 77.81818389892578" fill-opacity="1" clip-path="url(#PMoIzoGecNqK)"/><path fill="rgb(255,47,0)" stroke="none" paint-order="stroke" d="M 429.88934326171875 77.81818389892578 L 429.93151726201177 77.81818389892578 L 429.93151726201177 130.45454788208008 L 429.88934326171875 130.45454788208008 L 429.88934326171875 77.81818389892578" fill-opacity="1" clip-path="url(#PMoIzoGecNqK)"/><path fill="rgb(255,74,0)" stroke="none" paint-order="stroke" d="M 429.9315185546875 77.81818389892578 L 429.9736925549805 77.81818389892578 L 429.9736925549805 130.45454788208008 L 429.9315185546875 130.45454788208008 L 429.9315185546875 77.81818389892578" fill-opacity="1" clip-path="url(#PMoIzoGecNqK)"/><path fill="rgb(255,87,0)" stroke="none" paint-order="stroke" d="M 429.97369384765625 77.81818389892578 L 430.3366458415985 77.81818389892578 L 430.3366458415985 130.45454788208008 L 429.97369384765625 130.45454788208008 L 429.97369384765625 77.81818389892578" fill-opacity="1" clip-path="url(#PMoIzoGecNqK)"/><path fill="rgb(255,114,0)" stroke="none" paint-order="stroke" d="M 430.336669921875 77.81818389892578 L 430.3583959210664 77.81818389892578 L 430.3583959210664 130.45454788208008 L 430.336669921875 130.45454788208008 L 430.336669921875 77.81818389892578" fill-opacity="1" clip-path="url(#PMoIzoGecNqK)"/><path fill="rgb(255,126,0)" stroke="none" paint-order="stroke" d="M 430.3583679199219 77.81818389892578 L 430.42226792126894 77.81818389892578 L 430.42226792126894 130.45454788208008 L 430.3583679199219 130.45454788208008 L 430.3583679199219 77.81818389892578" fill-opacity="1" clip-path="url(#PMoIzoGecNqK)"/><path fill="rgb(255,137,0)" stroke="none" paint-order="stroke" d="M 430.4222717285156 77.81818389892578 L 430.55007173120975 77.81818389892578 L 430.55007173120975 130.45454788208008 L 430.4222717285156 130.45454788208008 L 430.4222717285156 77.81818389892578" fill-opacity="1" clip-path="url(#PMoIzoGecNqK)"/><path fill="rgb(255,151,0)" stroke="none" paint-order="stroke" d="M 430.5500793457031 77.81818389892578 L 430.6139793470502 77.81818389892578 L 430.6139793470502 130.45454788208008 L 430.5500793457031 130.45454788208008 L 430.5500793457031 77.81818389892578" fill-opacity="1" clip-path="url(#PMoIzoGecNqK)"/><path fill="rgb(255,162,0)" stroke="none" paint-order="stroke" d="M 430.6139831542969 77.81818389892578 L 430.67660515755415 77.81818389892578 L 430.67660515755415 130.45454788208008 L 430.6139831542969 130.45454788208008 L 430.6139831542969 77.81818389892578" fill-opacity="1" clip-path="url(#PMoIzoGecNqK)"/><path fill="rgb(255,172,0)" stroke="none" paint-order="stroke" d="M 430.6766052246094 77.81818389892578 L 430.6983312238008 77.81818389892578 L 430.6983312238008 130.45454788208008 L 430.6766052246094 130.45454788208008 L 430.6766052246094 77.81818389892578" fill-opacity="1" clip-path="url(#PMoIzoGecNqK)"/><path fill="rgb(255,183,0)" stroke="none" paint-order="stroke" d="M 430.6983337402344 77.81818389892578 L 430.7200597394258 77.81818389892578 L 430.7200597394258 130.45454788208008 L 430.6983337402344 130.45454788208008 L 430.6983337402344 77.81818389892578" fill-opacity="1" clip-path="url(#PMoIzoGecNqK)"/><path fill="rgb(255,193,0)" stroke="none" paint-order="stroke" d="M 430.7200622558594 77.81818389892578 L 430.74051025509834 77.81818389892578 L 430.74051025509834 130.45454788208008 L 430.7200622558594 130.45454788208008 L 430.7200622558594 77.81818389892578" fill-opacity="1" clip-path="url(#PMoIzoGecNqK)"/><path fill="rgb(255,206,0)" stroke="none" paint-order="stroke" d="M 430.7405090332031 77.81818389892578 L 430.7622350323945 77.81818389892578 L 430.7622350323945 130.45454788208008 L 430.7405090332031 130.45454788208008 L 430.7405090332031 77.81818389892578" fill-opacity="1" clip-path="url(#PMoIzoGecNqK)"/><path fill="rgb(255,216,0)" stroke="none" paint-order="stroke" d="M 430.7622375488281 77.81818389892578 L 430.8261375501752 77.81818389892578 L 430.8261375501752 130.45454788208008 L 430.7622375488281 130.45454788208008 L 430.7622375488281 77.81818389892578" fill-opacity="1" clip-path="url(#PMoIzoGecNqK)"/><path fill="rgb(255,226,0)" stroke="none" paint-order="stroke" d="M 430.8261413574219 77.81818389892578 L 430.953941360116 77.81818389892578 L 430.953941360116 130.45454788208008 L 430.8261413574219 130.45454788208008 L 430.8261413574219 77.81818389892578" fill-opacity="1" clip-path="url(#PMoIzoGecNqK)"/><path fill="rgb(255,235,0)" stroke="none" paint-order="stroke" d="M 430.95391845703125 77.81818389892578 L 431.08299645781517 77.81818389892578 L 431.08299645781517 130.45454788208008 L 430.95391845703125 130.45454788208008 L 430.95391845703125 77.81818389892578" fill-opacity="1" clip-path="url(#PMoIzoGecNqK)"/><path fill="rgb(255,248,0)" stroke="none" paint-order="stroke" d="M 431.0830078125 77.81818389892578 L 431.10345581173897 77.81818389892578 L 431.10345581173897 130.45454788208008 L 431.0830078125 130.45454788208008 L 431.0830078125 77.81818389892578" fill-opacity="1" clip-path="url(#PMoIzoGecNqK)"/><path fill="rgb(252,255,0)" stroke="none" paint-order="stroke" d="M 431.10345458984375 77.81818389892578 L 431.1673545911908 77.81818389892578 L 431.1673545911908 130.45454788208008 L 431.10345458984375 130.45454788208008 L 431.10345458984375 77.81818389892578" fill-opacity="1" clip-path="url(#PMoIzoGecNqK)"/><path fill="rgb(243,255,0)" stroke="none" paint-order="stroke" d="M 431.1673583984375 77.81818389892578 L 431.23253639787436 77.81818389892578 L 431.23253639787436 130.45454788208008 L 431.1673583984375 130.45454788208008 L 431.1673583984375 77.81818389892578" fill-opacity="1" clip-path="url(#PMoIzoGecNqK)"/><path fill="rgb(222,255,0)" stroke="none" paint-order="stroke" d="M 431.2325439453125 77.81818389892578 L 431.46513994038105 77.81818389892578 L 431.46513994038105 130.45454788208008 L 431.2325439453125 130.45454788208008 L 431.2325439453125 77.81818389892578" fill-opacity="1" clip-path="url(#PMoIzoGecNqK)"/><path fill="rgb(213,255,0)" stroke="none" paint-order="stroke" d="M 431.4651184082031 77.81818389892578 L 432.189744412899 77.81818389892578 L 432.189744412899 130.45454788208008 L 431.4651184082031 130.45454788208008 L 431.4651184082031 77.81818389892578" fill-opacity="1" clip-path="url(#PMoIzoGecNqK)"/><path fill="rgb(204,255,0)" stroke="none" paint-order="stroke" d="M 432.18975830078125 77.81818389892578 L 432.63705828785896 77.81818389892578 L 432.63705828785896 130.45454788208008 L 432.18975830078125 130.45454788208008 L 432.18975830078125 77.81818389892578" fill-opacity="1" clip-path="url(#PMoIzoGecNqK)"/><path fill="rgb(194,255,0)" stroke="none" paint-order="stroke" d="M 432.6370544433594 77.81818389892578 L 432.6587804425508 77.81818389892578 L 432.6587804425508 130.45454788208008 L 432.6370544433594 130.45454788208008 L 432.6370544433594 77.81818389892578" fill-opacity="1" clip-path="url(#PMoIzoGecNqK)"/><path fill="rgb(182,255,0)" stroke="none" paint-order="stroke" d="M 432.6587829589844 77.81818389892578 L 433.4038569331169 77.81818389892578 L 433.4038569331169 130.45454788208008 L 432.6587829589844 130.45454788208008 L 432.6587829589844 77.81818389892578" fill-opacity="1" clip-path="url(#PMoIzoGecNqK)"/><path fill="rgb(172,255,0)" stroke="none" paint-order="stroke" d="M 433.40386962890625 77.81818389892578 L 433.42559562809765 77.81818389892578 L 433.42559562809765 130.45454788208008 L 433.40386962890625 130.45454788208008 L 433.40386962890625 77.81818389892578" fill-opacity="1" clip-path="url(#PMoIzoGecNqK)"/><path fill="rgb(162,255,0)" stroke="none" paint-order="stroke" d="M 433.4255676269531 77.81818389892578 L 433.4460156261921 77.81818389892578 L 433.4460156261921 130.45454788208008 L 433.4255676269531 130.45454788208008 L 433.4255676269531 77.81818389892578" fill-opacity="1" clip-path="url(#PMoIzoGecNqK)"/><path fill="rgb(153,255,0)" stroke="none" paint-order="stroke" d="M 433.446044921875 77.81818389892578 L 433.488218922168 77.81818389892578 L 433.488218922168 130.45454788208008 L 433.446044921875 130.45454788208008 L 433.446044921875 77.81818389892578" fill-opacity="1" clip-path="url(#PMoIzoGecNqK)"/><path fill="rgb(139,255,0)" stroke="none" paint-order="stroke" d="M 433.4881896972656 77.81818389892578 L 434.04284167289734 77.81818389892578 L 434.04284167289734 130.45454788208008 L 433.4881896972656 130.45454788208008 L 433.4881896972656 77.81818389892578" fill-opacity="1" clip-path="url(#PMoIzoGecNqK)"/><path fill="rgb(119,255,0)" stroke="none" paint-order="stroke" d="M 434.0428466796875 77.81818389892578 L 434.0850206799805 77.81818389892578 L 434.0850206799805 130.45454788208008 L 434.0428466796875 130.45454788208008 L 434.0428466796875 77.81818389892578" fill-opacity="1" clip-path="url(#PMoIzoGecNqK)"/><path fill="rgb(97,255,0)" stroke="none" paint-order="stroke" d="M 434.08502197265625 77.81818389892578 L 434.12719597294927 77.81818389892578 L 434.12719597294927 130.45454788208008 L 434.08502197265625 130.45454788208008 L 434.08502197265625 77.81818389892578" fill-opacity="1" clip-path="url(#PMoIzoGecNqK)"/><path fill="rgb(70,255,0)" stroke="none" paint-order="stroke" d="M 434.127197265625 77.81818389892578 L 434.169371265918 77.81818389892578 L 434.169371265918 130.45454788208008 L 434.127197265625 130.45454788208008 L 434.127197265625 77.81818389892578" fill-opacity="1" clip-path="url(#PMoIzoGecNqK)"/><path fill="rgb(58,255,0)" stroke="none" paint-order="stroke" d="M 434.16937255859375 77.81818389892578 L 434.21282455697656 77.81818389892578 L 434.21282455697656 130.45454788208008 L 434.16937255859375 130.45454788208008 L 434.16937255859375 77.81818389892578" fill-opacity="1" clip-path="url(#PMoIzoGecNqK)"/><path fill="rgb(44,255,0)" stroke="none" paint-order="stroke" d="M 434.21282958984375 77.81818389892578 L 434.2332775890827 77.81818389892578 L 434.2332775890827 130.45454788208008 L 434.21282958984375 130.45454788208008 L 434.21282958984375 77.81818389892578" fill-opacity="1" clip-path="url(#PMoIzoGecNqK)"/><path fill="rgb(25,255,0)" stroke="none" paint-order="stroke" d="M 434.2332763671875 77.81818389892578 L 434.2767283655703 77.81818389892578 L 434.2767283655703 130.45454788208008 L 434.2332763671875 130.45454788208008 L 434.2332763671875 77.81818389892578" fill-opacity="1" clip-path="url(#PMoIzoGecNqK)"/><path fill="rgb(8,255,0)" stroke="none" paint-order="stroke" d="M 434.2767333984375 77.81818389892578 L 435.04353338479996 77.81818389892578 L 435.04353338479996 130.45454788208008 L 434.2767333984375 130.45454788208008 L 434.2767333984375 77.81818389892578" fill-opacity="1" clip-path="url(#PMoIzoGecNqK)"/><path fill="rgb(25,255,0)" stroke="none" paint-order="stroke" d="M 435.04351806640625 77.81818389892578 L 435.1713180691004 77.81818389892578 L 435.1713180691004 130.45454788208008 L 435.04351806640625 130.45454788208008 L 435.04351806640625 77.81818389892578" fill-opacity="1" clip-path="url(#PMoIzoGecNqK)"/><path fill="rgb(44,255,0)" stroke="none" paint-order="stroke" d="M 435.17132568359375 77.81818389892578 L 435.31957368552685 77.81818389892578 L 435.31957368552685 130.45454788208008 L 435.17132568359375 130.45454788208008 L 435.17132568359375 77.81818389892578" fill-opacity="1" clip-path="url(#PMoIzoGecNqK)"/><path fill="rgb(58,255,0)" stroke="none" paint-order="stroke" d="M 435.319580078125 77.81818389892578 L 436.3841540813446 77.81818389892578 L 436.3841540813446 130.45454788208008 L 435.319580078125 130.45454788208008 L 435.319580078125 77.81818389892578" fill-opacity="1" clip-path="url(#PMoIzoGecNqK)"/><path fill="rgb(44,255,0)" stroke="none" paint-order="stroke" d="M 436.3841552734375 77.81818389892578 L 438.32288122177124 77.81818389892578 L 438.32288122177124 130.45454788208008 L 436.3841552734375 130.45454788208008 L 436.3841552734375 77.81818389892578" fill-opacity="1" clip-path="url(#PMoIzoGecNqK)"/><path fill="rgb(58,255,0)" stroke="none" paint-order="stroke" d="M 438.3228759765625 77.81818389892578 L 511.2187194824219 77.81818389892578 L 511.2187194824219 130.45454788208008 L 438.3228759765625 130.45454788208008 L 438.3228759765625 77.81818389892578" fill-opacity="1" clip-path="url(#PMoIzoGecNqK)"/><path fill="rgb(251,0,7)" stroke="none" paint-order="stroke" d="M 58.5 130.4545440673828 L 259.6610412597656 130.4545440673828 L 259.6610412597656 183.0909080505371 L 58.5 183.0909080505371 L 58.5 130.4545440673828" fill-opacity="1" clip-path="url(#GBXqMWidwNXg)"/><path fill="rgb(56,126,34)" stroke="none" paint-order="stroke" d="M 259.6610412597656 130.4545440673828 L 266.3143091201782 130.4545440673828 L 266.3143091201782 183.0909080505371 L 259.6610412597656 183.0909080505371 L 259.6610412597656 130.4545440673828" fill-opacity="1" clip-path="url(#GBXqMWidwNXg)"/><path fill="rgb(251,0,7)" stroke="none" paint-order="stroke" d="M 266.3143005371094 130.4545440673828 L 408.04449462890625 130.4545440673828 L 408.04449462890625 183.0909080505371 L 266.3143005371094 183.0909080505371 L 266.3143005371094 130.4545440673828" fill-opacity="1" clip-path="url(#GBXqMWidwNXg)"/><path fill="rgb(56,126,34)" stroke="none" paint-order="stroke" d="M 408.04449462890625 130.4545440673828 L 511.21871185302734 130.4545440673828 L 511.21871185302734 183.0909080505371 L 408.04449462890625 183.0909080505371 L 408.04449462890625 130.4545440673828" fill-opacity="1" clip-path="url(#GBXqMWidwNXg)"/><path fill="rgb(105,29,48)" stroke="none" paint-order="stroke" d="M 186.74986267089844 183.09091186523438 L 186.8137626722455 183.09091186523438 L 186.8137626722455 498.9090881347656 L 186.74986267089844 498.9090881347656 L 186.74986267089844 183.09091186523438" fill-opacity="1" clip-path="url(#NwJfHRmXuPra)"/><path fill="rgb(105,29,48)" stroke="none" paint-order="stroke" d="M 187.6444549560547 183.09091186523438 L 187.70835495740175 183.09091186523438 L 187.70835495740175 498.9090881347656 L 187.6444549560547 498.9090881347656 L 187.6444549560547 183.09091186523438" fill-opacity="1" clip-path="url(#NwJfHRmXuPra)"/><path fill="rgb(105,29,48)" stroke="none" paint-order="stroke" d="M 202.71463012695312 183.09091186523438 L 202.7785301283002 183.09091186523438 L 202.7785301283002 498.9090881347656 L 202.71463012695312 498.9090881347656 L 202.71463012695312 183.09091186523438" fill-opacity="1" clip-path="url(#NwJfHRmXuPra)"/><path fill="rgb(105,29,48)" stroke="none" paint-order="stroke" d="M 213.26324462890625 183.09091186523438 L 213.32714463025331 183.09091186523438 L 213.32714463025331 498.9090881347656 L 213.26324462890625 498.9090881347656 L 213.26324462890625 183.09091186523438" fill-opacity="1" clip-path="url(#NwJfHRmXuPra)"/><path fill="rgb(105,29,48)" stroke="none" paint-order="stroke" d="M 217.26849365234375 183.09091186523438 L 217.33239365369081 183.09091186523438 L 217.33239365369081 498.9090881347656 L 217.26849365234375 498.9090881347656 L 217.26849365234375 183.09091186523438" fill-opacity="1" clip-path="url(#NwJfHRmXuPra)"/><path fill="rgb(105,29,48)" stroke="none" paint-order="stroke" d="M 255.08580017089844 183.09091186523438 L 255.1497001722455 183.09091186523438 L 255.1497001722455 498.9090881347656 L 255.08580017089844 498.9090881347656 L 255.08580017089844 183.09091186523438" fill-opacity="1" clip-path="url(#NwJfHRmXuPra)"/><path fill="rgb(105,29,48)" stroke="none" paint-order="stroke" d="M 256.45452880859375 183.09091186523438 L 256.5184288099408 183.09091186523438 L 256.5184288099408 498.9090881347656 L 256.45452880859375 498.9090881347656 L 256.45452880859375 183.09091186523438" fill-opacity="1" clip-path="url(#NwJfHRmXuPra)"/><path fill="rgb(255,188,66)" stroke="none" paint-order="stroke" d="M 339.8069763183594 183.09091186523438 L 343.1898422241211 183.09091186523438 L 343.1898422241211 498.9090881347656 L 339.8069763183594 498.9090881347656 L 339.8069763183594 183.09091186523438" fill-opacity="1" clip-path="url(#WRfFymwIxJPe)"/><path fill="rgb(162,174,187)" stroke="none" paint-order="stroke" d="M 225.61000061035156 183.09091186523438 L 225.67390061169863 183.09091186523438 L 225.67390061169863 498.9090881347656 L 225.61000061035156 498.9090881347656 L 225.61000061035156 183.09091186523438" fill-opacity="1" clip-path="url(#cAhvuqHsWOcm)"/><path fill="rgb(255,188,66)" stroke="none" paint-order="stroke" d="M 325.1265869140625 183.09091186523438 L 328.0685429573059 183.09091186523438 L 328.0685429573059 498.9090881347656 L 325.1265869140625 498.9090881347656 L 325.1265869140625 183.09091186523438" fill-opacity="1" clip-path="url(#HSegNiqhFyuA)"/><path fill="rgb(216,17,89)" stroke="none" paint-order="stroke" d="M 330.1235656738281 183.09091186523438 L 330.1874656751752 183.09091186523438 L 330.1874656751752 498.9090881347656 L 330.1235656738281 498.9090881347656 L 330.1235656738281 183.09091186523438" fill-opacity="1" clip-path="url(#bBfPMqNvHWPS)"/><path fill="rgb(33,131,128)" stroke="none" paint-order="stroke" d="M 258.03668212890625 183.09091186523438 L 259.6610201597214 183.09091186523438 L 259.6610201597214 498.9090881347656 L 258.03668212890625 498.9090881347656 L 258.03668212890625 183.09091186523438" fill-opacity="1" clip-path="url(#pwbTJOOodhBX)"/><path fill="rgb(33,131,128)" stroke="none" paint-order="stroke" d="M 263.7008056640625 183.09091186523438 L 266.31431555747986 183.09091186523438 L 266.31431555747986 498.9090881347656 L 263.7008056640625 498.9090881347656 L 263.7008056640625 183.09091186523438" fill-opacity="1" clip-path="url(#pwbTJOOodhBX)"/><path fill="rgb(33,131,128)" stroke="none" paint-order="stroke" d="M 406.24761962890625 183.09091186523438 L 408.04448759555817 183.09091186523438 L 408.04448759555817 498.9090881347656 L 406.24761962890625 498.9090881347656 L 406.24761962890625 183.09091186523438" fill-opacity="1" clip-path="url(#pwbTJOOodhBX)"/><path fill="rgb(115,210,222)" stroke="none" paint-order="stroke" d="M 201.5631561279297 183.09091186523438 L 201.67817612737417 183.09091186523438 L 201.67817612737417 498.9090881347656 L 201.5631561279297 498.9090881347656 L 201.5631561279297 183.09091186523438" fill-opacity="1" clip-path="url(#DHBSHmbcvgtW)"/><path fill="rgb(115,210,222)" stroke="none" paint-order="stroke" d="M 204.64186096191406 183.09091186523438 L 205.4840629696846 183.09091186523438 L 205.4840629696846 498.9090881347656 L 204.64186096191406 498.9090881347656 L 204.64186096191406 183.09091186523438" fill-opacity="1" clip-path="url(#DHBSHmbcvgtW)"/><path fill="rgb(115,210,222)" stroke="none" paint-order="stroke" d="M 222.10189819335938 183.09091186523438 L 224.54671216011047 183.09091186523438 L 224.54671216011047 498.9090881347656 L 222.10189819335938 498.9090881347656 L 222.10189819335938 183.09091186523438" fill-opacity="1" clip-path="url(#DHBSHmbcvgtW)"/><path fill="rgb(115,210,222)" stroke="none" paint-order="stroke" d="M 262.0624084472656 183.09091186523438 L 262.68735045194626 183.09091186523438 L 262.68735045194626 498.9090881347656 L 262.0624084472656 498.9090881347656 L 262.0624084472656 183.09091186523438" fill-opacity="1" clip-path="url(#DHBSHmbcvgtW)"/><path fill="rgb(115,210,222)" stroke="none" paint-order="stroke" d="M 336.6873779296875 183.09091186523438 L 338.16730189323425 183.09091186523438 L 338.16730189323425 498.9090881347656 L 336.6873779296875 498.9090881347656 L 336.6873779296875 183.09091186523438" fill-opacity="1" clip-path="url(#DHBSHmbcvgtW)"/><path fill="rgb(115,210,222)" stroke="none" paint-order="stroke" d="M 351.9403076171875 183.09091186523438 L 354.3327236175537 183.09091186523438 L 354.3327236175537 498.9090881347656 L 351.9403076171875 498.9090881347656 L 351.9403076171875 183.09091186523438" fill-opacity="1" clip-path="url(#DHBSHmbcvgtW)"/><path fill="rgb(28,49,68)" stroke="none" paint-order="stroke" d="M 299.5346374511719 183.09091186523438 L 305.6383652687073 183.09091186523438 L 305.6383652687073 498.9090881347656 L 299.5346374511719 498.9090881347656 L 299.5346374511719 183.09091186523438" fill-opacity="1" clip-path="url(#RGPMamfxaXiD)"/><path fill="rgb(28,49,68)" stroke="none" paint-order="stroke" d="M 344.4588928222656 183.09091186523438 L 350.30190896987915 183.09091186523438 L 350.30190896987915 498.9090881347656 L 344.4588928222656 498.9090881347656 L 344.4588928222656 183.09091186523438" fill-opacity="1" clip-path="url(#RGPMamfxaXiD)"/><path fill="rgb(28,49,68)" stroke="none" paint-order="stroke" d="M 356.50787353515625 183.09091186523438 L 360.1629536151886 183.09091186523438 L 360.1629536151886 498.9090881347656 L 356.50787353515625 498.9090881347656 L 356.50787353515625 183.09091186523438" fill-opacity="1" clip-path="url(#RGPMamfxaXiD)"/><path fill="rgb(239,185,203)" stroke="none" paint-order="stroke" d="M 74.61813354492188 183.09091186523438 L 91.05704689025879 183.09091186523438 L 91.05704689025879 498.9090881347656 L 74.61813354492188 498.9090881347656 L 74.61813354492188 183.09091186523438" fill-opacity="1" clip-path="url(#uuPeLVlyJBKH)"/><path fill="rgb(239,185,203)" stroke="none" paint-order="stroke" d="M 125.3253402709961 183.09091186523438 L 184.4379539489746 183.09091186523438 L 184.4379539489746 498.9090881347656 L 125.3253402709961 498.9090881347656 L 125.3253402709961 183.09091186523438" fill-opacity="1" clip-path="url(#uuPeLVlyJBKH)"/><path fill="rgb(239,185,203)" stroke="none" paint-order="stroke" d="M 189.42214965820312 183.09091186523438 L 197.09398365020752 183.09091186523438 L 197.09398365020752 498.9090881347656 L 189.42214965820312 498.9090881347656 L 189.42214965820312 183.09091186523438" fill-opacity="1" clip-path="url(#uuPeLVlyJBKH)"/><path fill="rgb(239,185,203)" stroke="none" paint-order="stroke" d="M 235.18093872070312 183.09091186523438 L 250.64857292175293 183.09091186523438 L 250.64857292175293 498.9090881347656 L 235.18093872070312 498.9090881347656 L 235.18093872070312 183.09091186523438" fill-opacity="1" clip-path="url(#uuPeLVlyJBKH)"/><path fill="rgb(239,185,203)" stroke="none" paint-order="stroke" d="M 274.2851867675781 183.09091186523438 L 294.77663803100586 183.09091186523438 L 294.77663803100586 498.9090881347656 L 274.2851867675781 498.9090881347656 L 274.2851867675781 183.09091186523438" fill-opacity="1" clip-path="url(#uuPeLVlyJBKH)"/><path fill="rgb(239,185,203)" stroke="none" paint-order="stroke" d="M 307.61541748046875 183.09091186523438 L 320.05419158935547 183.09091186523438 L 320.05419158935547 498.9090881347656 L 307.61541748046875 498.9090881347656 L 307.61541748046875 183.09091186523438" fill-opacity="1" clip-path="url(#uuPeLVlyJBKH)"/><path fill="rgb(239,185,203)" stroke="none" paint-order="stroke" d="M 362.0045471191406 183.09091186523438 L 400.1950225830078 183.09091186523438 L 400.1950225830078 498.9090881347656 L 362.0045471191406 498.9090881347656 L 362.0045471191406 183.09091186523438" fill-opacity="1" clip-path="url(#uuPeLVlyJBKH)"/><path fill="rgb(239,185,203)" stroke="none" paint-order="stroke" d="M 422.0960998535156 183.09091186523438 L 427.15058994293213 183.09091186523438 L 427.15058994293213 498.9090881347656 L 422.0960998535156 498.9090881347656 L 422.0960998535156 183.09091186523438" fill-opacity="1" clip-path="url(#uuPeLVlyJBKH)"/><path fill="rgb(239,185,203)" stroke="none" paint-order="stroke" d="M 446.12762451171875 183.09091186523438 L 461.90964698791504 183.09091186523438 L 461.90964698791504 498.9090881347656 L 446.12762451171875 498.9090881347656 L 446.12762451171875 183.09091186523438" fill-opacity="1" clip-path="url(#uuPeLVlyJBKH)"/><path fill="rgb(239,185,203)" stroke="none" paint-order="stroke" d="M 464.7723693847656 183.09091186523438 L 511.21872329711914 183.09091186523438 L 511.21872329711914 498.9090881347656 L 464.7723693847656 498.9090881347656 L 464.7723693847656 183.09091186523438" fill-opacity="1" clip-path="url(#uuPeLVlyJBKH)"/><path fill="rgb(105,29,48)" stroke="none" paint-order="stroke" d="M 331.6482238769531 183.09091186523438 L 332.6258938908577 183.09091186523438 L 332.6258938908577 498.9090881347656 L 331.6482238769531 498.9090881347656 L 331.6482238769531 183.09091186523438" fill-opacity="1" clip-path="url(#EiNHfHTXKlTF)"/><path fill="rgb(105,29,48)" stroke="none" paint-order="stroke" d="M 412.7130432128906 183.09091186523438 L 420.787446975708 183.09091186523438 L 420.787446975708 498.9090881347656 L 412.7130432128906 498.9090881347656 L 412.7130432128906 183.09091186523438" fill-opacity="1" clip-path="url(#EiNHfHTXKlTF)"/><path fill="rgb(105,29,48)" stroke="none" paint-order="stroke" d="M 429.06121826171875 183.09091186523438 L 439.0040578842163 183.09091186523438 L 439.0040578842163 498.9090881347656 L 429.06121826171875 498.9090881347656 L 429.06121826171875 183.09091186523438" fill-opacity="1" clip-path="url(#EiNHfHTXKlTF)"/><path fill="rgb(143,45,86)" stroke="none" paint-order="stroke" d="M 58.5 551.5454711914062 L 186.74986267089844 551.5454711914062 L 186.74986267089844 604.1818351745605 L 58.5 604.1818351745605 L 58.5 551.5454711914062" fill-opacity="1" clip-path="url(#KeNxSXirpChT)"/><path fill="rgb(63,136,197)" stroke="none" paint-order="stroke" d="M 186.74986267089844 551.5454711914062 L 187.64446264505386 551.5454711914062 L 187.64446264505386 604.1818351745605 L 186.74986267089844 604.1818351745605 L 186.74986267089844 551.5454711914062" fill-opacity="1" clip-path="url(#KeNxSXirpChT)"/><path fill="rgb(143,45,86)" stroke="none" paint-order="stroke" d="M 187.6444549560547 551.5454711914062 L 202.71463108062744 551.5454711914062 L 202.71463108062744 604.1818351745605 L 187.6444549560547 604.1818351745605 L 187.6444549560547 551.5454711914062" fill-opacity="1" clip-path="url(#KeNxSXirpChT)"/><path fill="rgb(63,136,197)" stroke="none" paint-order="stroke" d="M 202.71463012695312 551.5454711914062 L 213.2632417678833 551.5454711914062 L 213.2632417678833 604.1818351745605 L 202.71463012695312 604.1818351745605 L 202.71463012695312 551.5454711914062" fill-opacity="1" clip-path="url(#KeNxSXirpChT)"/><path fill="rgb(143,45,86)" stroke="none" paint-order="stroke" d="M 213.26324462890625 551.5454711914062 L 217.2684965133667 551.5454711914062 L 217.2684965133667 604.1818351745605 L 213.26324462890625 604.1818351745605 L 213.26324462890625 551.5454711914062" fill-opacity="1" clip-path="url(#KeNxSXirpChT)"/><path fill="rgb(63,136,197)" stroke="none" paint-order="stroke" d="M 217.26849365234375 551.5454711914062 L 225.60999965667725 551.5454711914062 L 225.60999965667725 604.1818351745605 L 217.26849365234375 604.1818351745605 L 217.26849365234375 551.5454711914062" fill-opacity="1" clip-path="url(#KeNxSXirpChT)"/><path fill="rgb(81,60,99)" stroke="none" paint-order="stroke" d="M 225.61000061035156 551.5454711914062 L 255.0857925415039 551.5454711914062 L 255.0857925415039 604.1818351745605 L 225.61000061035156 604.1818351745605 L 225.61000061035156 551.5454711914062" fill-opacity="1" clip-path="url(#KeNxSXirpChT)"/><path fill="rgb(143,45,86)" stroke="none" paint-order="stroke" d="M 255.08580017089844 551.5454711914062 L 256.4545382261276 551.5454711914062 L 256.4545382261276 604.1818351745605 L 255.08580017089844 604.1818351745605 L 255.08580017089844 551.5454711914062" fill-opacity="1" clip-path="url(#KeNxSXirpChT)"/><path fill="rgb(81,60,99)" stroke="none" paint-order="stroke" d="M 256.45452880859375 551.5454711914062 L 325.83203887939453 551.5454711914062 L 325.83203887939453 604.1818351745605 L 256.45452880859375 604.1818351745605 L 256.45452880859375 551.5454711914062" fill-opacity="1" clip-path="url(#KeNxSXirpChT)"/><path fill="rgb(143,45,86)" stroke="none" paint-order="stroke" d="M 325.83203125 551.5454711914062 L 327.0039572715759 551.5454711914062 L 327.0039572715759 604.1818351745605 L 325.83203125 604.1818351745605 L 325.83203125 551.5454711914062" fill-opacity="1" clip-path="url(#KeNxSXirpChT)"/><path fill="rgb(81,60,99)" stroke="none" paint-order="stroke" d="M 327.00396728515625 551.5454711914062 L 511.2187194824219 551.5454711914062 L 511.2187194824219 604.1818351745605 L 327.00396728515625 604.1818351745605 L 327.00396728515625 551.5454711914062" fill-opacity="1" clip-path="url(#KeNxSXirpChT)"/><path fill="none" stroke="rgb(0,0,0)" paint-order="fill" d="M 58.5 77.81818389892578 L 511.2187194824219 77.81818389892578 L 511.2187194824219 604.1818313598633 L 58.5 604.1818313598633 L 58.5 77.81818389892578" stroke-opacity="1" stroke-linejoin="bevel" stroke-miterlimit="10" stroke-dasharray="" clip-path="url(#ZvVEHrhLbhPz)"/><path fill="none" stroke="rgb(0,0,0)" paint-order="fill" d="M 58.5 630.5 L 1336.5 630.5" stroke-opacity="1" stroke-linejoin="bevel" stroke-miterlimit="10" stroke-dasharray=""/><path fill="none" stroke="rgb(0,0,0)" paint-order="fill" d="M 58.5 636.5 L 58.5 628.5 M 314.5 636.5 L 314.5 628.5 M 569.5 636.5 L 569.5 628.5 M 825.5 636.5 L 825.5 628.5 M 1080.5 636.5 L 1080.5 628.5 M 1336.5 636.5 L 1336.5 628.5" stroke-opacity="1" stroke-linejoin="bevel" stroke-miterlimit="10" stroke-dasharray=""/><path fill="none" stroke="rgb(0,0,0)" paint-order="fill" d="M 58.5 634.5 L 58.5 630.5 M 109.5 634.5 L 109.5 630.5 M 160.5 634.5 L 160.5 630.5 M 211.5 634.5 L 211.5 630.5 M 262.5 634.5 L 262.5 630.5 M 314.5 634.5 L 314.5 630.5 M 365.5 634.5 L 365.5 630.5 M 416.5 634.5 L 416.5 630.5 M 467.5 634.5 L 467.5 630.5 M 518.5 634.5 L 518.5 630.5 M 569.5 634.5 L 569.5 630.5 M 620.5 634.5 L 620.5 630.5 M 671.5 634.5 L 671.5 630.5 M 723.5 634.5 L 723.5 630.5 M 774.5 634.5 L 774.5 630.5 M 825.5 634.5 L 825.5 630.5 M 876.5 634.5 L 876.5 630.5 M 927.5 634.5 L 927.5 630.5 M 978.5 634.5 L 978.5 630.5 M 1029.5 634.5 L 1029.5 630.5 M 1080.5 634.5 L 1080.5 630.5 M 1132.5 634.5 L 1132.5 630.5 M 1183.5 634.5 L 1183.5 630.5 M 1234.5 634.5 L 1234.5 630.5 M 1285.5 634.5 L 1285.5 630.5 M 1336.5 634.5 L 1336.5 630.5" stroke-opacity="1" stroke-linejoin="bevel" stroke-miterlimit="10" stroke-dasharray=""/><text fill="rgb(68,68,68)" stroke="none" font-family="helvetica" font-size="11px" font-style="normal" font-weight="normal" text-decoration="normal" x="54.94166660308838" y="648.89013671875" text-anchor="start" dominant-baseline="alphabetic" transform="matrix(1, 0, 0, 1, 0.5, 0.5)" fill-opacity="1">0</text><text fill="rgb(68,68,68)" stroke="none" font-family="helvetica" font-size="11px" font-style="normal" font-weight="normal" text-decoration="normal" x="304.42500591278076" y="648.89013671875" text-anchor="start" dominant-baseline="alphabetic" transform="matrix(1, 0, 0, 1, 0.5, 0.5)" fill-opacity="1">200</text><text fill="rgb(68,68,68)" stroke="none" font-family="helvetica" font-size="11px" font-style="normal" font-weight="normal" text-decoration="normal" x="560.0250120162964" y="648.89013671875" text-anchor="start" dominant-baseline="alphabetic" transform="matrix(1, 0, 0, 1, 0.5, 0.5)" fill-opacity="1">400</text><text fill="rgb(68,68,68)" stroke="none" font-family="helvetica" font-size="11px" font-style="normal" font-weight="normal" text-decoration="normal" x="815.6249876022339" y="648.89013671875" text-anchor="start" dominant-baseline="alphabetic" transform="matrix(1, 0, 0, 1, 0.5, 0.5)" fill-opacity="1">600</text><text fill="rgb(68,68,68)" stroke="none" font-family="helvetica" font-size="11px" font-style="normal" font-weight="normal" text-decoration="normal" x="1071.2250242233276" y="648.89013671875" text-anchor="start" dominant-baseline="alphabetic" transform="matrix(1, 0, 0, 1, 0.5, 0.5)" fill-opacity="1">800</text><text fill="rgb(68,68,68)" stroke="none" font-family="helvetica" font-size="11px" font-style="normal" font-weight="normal" text-decoration="normal" x="1323.7666664123535" y="648.89013671875" text-anchor="start" dominant-baseline="alphabetic" transform="matrix(1, 0, 0, 1, 0.5, 0.5)" fill-opacity="1">1000</text><text fill="rgb(68,68,68)" stroke="none" font-family="helvetica" font-size="15pt" font-style="italic" font-weight="normal" text-decoration="normal" x="666.4416675567627" y="676.06982421875" text-anchor="start" dominant-baseline="alphabetic" transform="matrix(1, 0, 0, 1, 0.5, 0.5)" fill-opacity="1">time(s)</text><path fill="none" stroke="rgb(0,0,0)" paint-order="fill" d="M 58.5 630.5 L 58.5 51.5" stroke-opacity="1" stroke-linejoin="bevel" stroke-miterlimit="10" stroke-dasharray=""/><path fill="none" stroke="rgb(0,0,0)" paint-order="fill" d="M 52.5 551.5 L 60.5 551.5 M 52.5 446.5 L 60.5 446.5 M 52.5 341.5 L 60.5 341.5 M 52.5 235.5 L 60.5 235.5 M 52.5 130.5 L 60.5 130.5" stroke-opacity="1" stroke-linejoin="bevel" stroke-miterlimit="10" stroke-dasharray=""/><path fill="none" stroke="rgb(0,0,0)" paint-order="fill" d="M 54.5 572.5 L 58.5 572.5 M 54.5 593.5 L 58.5 593.5 M 54.5 614.5 L 58.5 614.5 M 54.5 551.5 L 58.5 551.5 M 54.5 530.5 L 58.5 530.5 M 54.5 509.5 L 58.5 509.5 M 54.5 488.5 L 58.5 488.5 M 54.5 467.5 L 58.5 467.5 M 54.5 446.5 L 58.5 446.5 M 54.5 425.5 L 58.5 425.5 M 54.5 404.5 L 58.5 404.5 M 54.5 383.5 L 58.5 383.5 M 54.5 362.5 L 58.5 362.5 M 54.5 341.5 L 58.5 341.5 M 54.5 319.5 L 58.5 319.5 M 54.5 298.5 L 58.5 298.5 M 54.5 277.5 L 58.5 277.5 M 54.5 256.5 L 58.5 256.5 M 54.5 235.5 L 58.5 235.5 M 54.5 214.5 L 58.5 214.5 M 54.5 193.5 L 58.5 193.5 M 54.5 172.5 L 58.5 172.5 M 54.5 151.5 L 58.5 151.5 M 54.5 130.5 L 58.5 130.5 M 54.5 109.5 L 58.5 109.5 M 54.5 88.5 L 58.5 88.5 M 54.5 67.5 L 58.5 67.5" stroke-opacity="1" stroke-linejoin="bevel" stroke-miterlimit="10" stroke-dasharray=""/><text fill="rgb(68,68,68)" stroke="none" font-family="helvetica" font-size="11px" font-style="normal" font-weight="normal" text-decoration="normal" x="34.46666622161865" y="554.9905395507812" text-anchor="start" dominant-baseline="alphabetic" transform="matrix(1, 0, 0, 1, 0.5, 0.5)" fill-opacity="1">2</text><text fill="rgb(68,68,68)" stroke="none" font-family="helvetica" font-size="11px" font-style="normal" font-weight="normal" text-decoration="normal" x="34.46666622161865" y="449.7178039550781" text-anchor="start" dominant-baseline="alphabetic" transform="matrix(1, 0, 0, 1, 0.5, 0.5)" fill-opacity="1">1</text><text fill="rgb(68,68,68)" stroke="none" font-family="helvetica" font-size="11px" font-style="normal" font-weight="normal" text-decoration="normal" x="40.88333320617676" y="344.445068359375" text-anchor="start" dominant-baseline="alphabetic" transform="matrix(1, 0, 0, 1, 0.5, 0.5)" fill-opacity="1">0</text><text fill="rgb(68,68,68)" stroke="none" font-family="helvetica" font-size="11px" font-style="normal" font-weight="normal" text-decoration="normal" x="40.88333320617676" y="239.17234802246094" text-anchor="start" dominant-baseline="alphabetic" transform="matrix(1, 0, 0, 1, 0.5, 0.5)" fill-opacity="1">1</text><text fill="rgb(68,68,68)" stroke="none" font-family="helvetica" font-size="11px" font-style="normal" font-weight="normal" text-decoration="normal" x="40.88333320617676" y="133.8996124267578" text-anchor="start" dominant-baseline="alphabetic" transform="matrix(1, 0, 0, 1, 0.5, 0.5)" fill-opacity="1">2</text><text fill="rgb(68,68,68)" stroke="none" font-family="helvetica" font-size="15pt" font-style="italic" font-weight="normal" text-decoration="normal" x="-11.316666603088379" y="336.076171875" text-anchor="start" dominant-baseline="alphabetic" transform="matrix(6.123233995736766e-17, -1, 1, 6.123233995736766e-17, -313.53333377838135, 367.46666622161865)" fill-opacity="1">students</text><path fill="rgb(255,255,255)" stroke="rgb(229,229,229)" paint-order="fill" d="M 1128.2333374023438 61.5 L 1326.5 61.5 L 1326.5 400.5 L 1128.2333374023438 400.5 L 1128.2333374023438 61.5" fill-opacity="0.9490196078431372" clip-path="url(#CTAVoWkiVdWl)" stroke-opacity="0.5019607843137255" stroke-linejoin="bevel" stroke-miterlimit="10" stroke-dasharray=""/><text fill="rgb(68,68,68)" stroke="none" font-family="helvetica" font-size="13px" font-style="normal" font-weight="normal" text-decoration="normal" x="1162.7333374023438" y="81" text-anchor="start" dominant-baseline="central" clip-path="url(#CTAVoWkiVdWl)" transform="matrix(1, 0, 0, 1, 0.5, 0.5)" fill-opacity="1">wavelength</text><path fill="rgb(0,255,40)" stroke="none" paint-order="stroke" d="M 1140.2333374023438 73.5 L 1156.2333374023438 73.5 L 1156.2333374023438 89.5 L 1140.2333374023438 89.5 L 1140.2333374023438 73.5" fill-opacity="1" clip-path="url(#CTAVoWkiVdWl)"/><path fill="rgb(216,17,89)" stroke="none" paint-order="stroke" d="M 1140.2333374023438 73.5 L 1156.2333374023438 73.5 L 1156.2333374023438 89.5 L 1140.2333374023438 89.5 L 1140.2333374023438 73.5" fill-opacity="1" clip-path="url(#CTAVoWkiVdWl)"/><text fill="rgb(68,68,68)" stroke="none" font-family="helvetica" font-size="13px" font-style="normal" font-weight="normal" text-decoration="normal" x="1162.7333374023438" y="104" text-anchor="start" dominant-baseline="central" clip-path="url(#CTAVoWkiVdWl)" transform="matrix(1, 0, 0, 1, 0.5, 0.5)" fill-opacity="1">solution</text><path fill="rgb(251,0,7)" stroke="none" paint-order="stroke" d="M 1140.2333374023438 96.5 L 1156.2333374023438 96.5 L 1156.2333374023438 112.5 L 1140.2333374023438 112.5 L 1140.2333374023438 96.5" fill-opacity="1" clip-path="url(#CTAVoWkiVdWl)"/><path fill="rgb(33,131,128)" stroke="none" paint-order="stroke" d="M 1140.2333374023438 96.5 L 1156.2333374023438 96.5 L 1156.2333374023438 112.5 L 1140.2333374023438 112.5 L 1140.2333374023438 96.5" fill-opacity="1" clip-path="url(#CTAVoWkiVdWl)"/><text fill="rgb(68,68,68)" stroke="none" font-family="helvetica" font-size="13px" font-style="normal" font-weight="normal" text-decoration="normal" x="1162.7333374023438" y="127" text-anchor="start" dominant-baseline="central" clip-path="url(#CTAVoWkiVdWl)" transform="matrix(1, 0, 0, 1, 0.5, 0.5)" fill-opacity="1">laser</text><path fill="rgb(105,29,48)" stroke="none" paint-order="stroke" d="M 1140.2333374023438 119.5 L 1156.2333374023438 119.5 L 1156.2333374023438 135.5 L 1140.2333374023438 135.5 L 1140.2333374023438 119.5" fill-opacity="1" clip-path="url(#CTAVoWkiVdWl)"/><text fill="rgb(68,68,68)" stroke="none" font-family="helvetica" font-size="13px" font-style="normal" font-weight="normal" text-decoration="normal" x="1162.7333374023438" y="150" text-anchor="start" dominant-baseline="central" clip-path="url(#CTAVoWkiVdWl)" transform="matrix(1, 0, 0, 1, 0.5, 0.5)" fill-opacity="1">ruler</text><path fill="rgb(255,188,66)" stroke="none" paint-order="stroke" d="M 1140.2333374023438 142.5 L 1156.2333374023438 142.5 L 1156.2333374023438 158.5 L 1140.2333374023438 158.5 L 1140.2333374023438 142.5" fill-opacity="1" clip-path="url(#CTAVoWkiVdWl)"/><text fill="rgb(68,68,68)" stroke="none" font-family="helvetica" font-size="13px" font-style="normal" font-weight="normal" text-decoration="normal" x="1162.7333374023438" y="173" text-anchor="start" dominant-baseline="central" clip-path="url(#CTAVoWkiVdWl)" transform="matrix(1, 0, 0, 1, 0.5, 0.5)" fill-opacity="1">restarts</text><text fill="rgb(68,68,68)" stroke="none" font-family="helvetica" font-size="13px" font-style="normal" font-weight="normal" text-decoration="normal" x="1162.7333374023438" y="196" text-anchor="start" dominant-baseline="central" clip-path="url(#CTAVoWkiVdWl)" transform="matrix(1, 0, 0, 1, 0.5, 0.5)" fill-opacity="1">transmittance_absorbance</text><path fill="rgb(162,174,187)" stroke="none" paint-order="stroke" d="M 1140.2333374023438 188.5 L 1156.2333374023438 188.5 L 1156.2333374023438 204.5 L 1140.2333374023438 204.5 L 1140.2333374023438 188.5" fill-opacity="1" clip-path="url(#CTAVoWkiVdWl)"/><text fill="rgb(68,68,68)" stroke="none" font-family="helvetica" font-size="13px" font-style="normal" font-weight="normal" text-decoration="normal" x="1162.7333374023438" y="219" text-anchor="start" dominant-baseline="central" clip-path="url(#CTAVoWkiVdWl)" transform="matrix(1, 0, 0, 1, 0.5, 0.5)" fill-opacity="1">magnifier</text><path fill="rgb(255,188,66)" stroke="none" paint-order="stroke" d="M 1140.2333374023438 211.5 L 1156.2333374023438 211.5 L 1156.2333374023438 227.5 L 1140.2333374023438 227.5 L 1140.2333374023438 211.5" fill-opacity="1" clip-path="url(#CTAVoWkiVdWl)"/><text fill="rgb(68,68,68)" stroke="none" font-family="helvetica" font-size="13px" font-style="normal" font-weight="normal" text-decoration="normal" x="1162.7333374023438" y="242" text-anchor="start" dominant-baseline="central" clip-path="url(#CTAVoWkiVdWl)" transform="matrix(1, 0, 0, 1, 0.5, 0.5)" fill-opacity="1">concentration</text><path fill="rgb(115,210,222)" stroke="none" paint-order="stroke" d="M 1140.2333374023438 234.5 L 1156.2333374023438 234.5 L 1156.2333374023438 250.5 L 1140.2333374023438 250.5 L 1140.2333374023438 234.5" fill-opacity="1" clip-path="url(#CTAVoWkiVdWl)"/><text fill="rgb(68,68,68)" stroke="none" font-family="helvetica" font-size="13px" font-style="normal" font-weight="normal" text-decoration="normal" x="1162.7333374023438" y="265" text-anchor="start" dominant-baseline="central" clip-path="url(#CTAVoWkiVdWl)" transform="matrix(1, 0, 0, 1, 0.5, 0.5)" fill-opacity="1">flask</text><path fill="rgb(28,49,68)" stroke="none" paint-order="stroke" d="M 1140.2333374023438 257.5 L 1156.2333374023438 257.5 L 1156.2333374023438 273.5 L 1140.2333374023438 273.5 L 1140.2333374023438 257.5" fill-opacity="1" clip-path="url(#CTAVoWkiVdWl)"/><text fill="rgb(68,68,68)" stroke="none" font-family="helvetica" font-size="13px" font-style="normal" font-weight="normal" text-decoration="normal" x="1162.7333374023438" y="288" text-anchor="start" dominant-baseline="central" clip-path="url(#CTAVoWkiVdWl)" transform="matrix(1, 0, 0, 1, 0.5, 0.5)" fill-opacity="1">pdf</text><path fill="rgb(239,185,203)" stroke="none" paint-order="stroke" d="M 1140.2333374023438 280.5 L 1156.2333374023438 280.5 L 1156.2333374023438 296.5 L 1140.2333374023438 296.5 L 1140.2333374023438 280.5" fill-opacity="1" clip-path="url(#CTAVoWkiVdWl)"/><text fill="rgb(68,68,68)" stroke="none" font-family="helvetica" font-size="13px" font-style="normal" font-weight="normal" text-decoration="normal" x="1162.7333374023438" y="311" text-anchor="start" dominant-baseline="central" clip-path="url(#CTAVoWkiVdWl)" transform="matrix(1, 0, 0, 1, 0.5, 0.5)" fill-opacity="1">concentrationlab</text><text fill="rgb(68,68,68)" stroke="none" font-family="helvetica" font-size="13px" font-style="normal" font-weight="normal" text-decoration="normal" x="1162.7333374023438" y="334" text-anchor="start" dominant-baseline="central" clip-path="url(#CTAVoWkiVdWl)" transform="matrix(1, 0, 0, 1, 0.5, 0.5)" fill-opacity="1">wavelength_slider</text><path fill="rgb(105,29,48)" stroke="none" paint-order="stroke" d="M 1140.2333374023438 326.5 L 1156.2333374023438 326.5 L 1156.2333374023438 342.5 L 1140.2333374023438 342.5 L 1140.2333374023438 326.5" fill-opacity="1" clip-path="url(#CTAVoWkiVdWl)"/><text fill="rgb(68,68,68)" stroke="none" font-family="helvetica" font-size="13px" font-style="normal" font-weight="normal" text-decoration="normal" x="1162.7333374023438" y="357" text-anchor="start" dominant-baseline="central" clip-path="url(#CTAVoWkiVdWl)" transform="matrix(1, 0, 0, 1, 0.5, 0.5)" fill-opacity="1">ruler measuring</text><text fill="rgb(68,68,68)" stroke="none" font-family="helvetica" font-size="13px" font-style="normal" font-weight="normal" text-decoration="normal" x="1162.7333374023438" y="380" text-anchor="start" dominant-baseline="central" clip-path="url(#CTAVoWkiVdWl)" transform="matrix(1, 0, 0, 1, 0.5, 0.5)" fill-opacity="1">dependent variable</text><path fill="rgb(143,45,86)" stroke="none" paint-order="stroke" d="M 1140.2333374023438 372.5 L 1156.2333374023438 372.5 L 1156.2333374023438 388.5 L 1140.2333374023438 388.5 L 1140.2333374023438 372.5" fill-opacity="1" clip-path="url(#CTAVoWkiVdWl)"/><text fill="rgb(68,68,68)" stroke="none" font-family="helvetica" font-size="25pt" font-style="normal" font-weight="bold" text-decoration="normal" x="58" y="38.740885416666664" text-anchor="start" dominant-baseline="alphabetic" transform="matrix(1, 0, 0, 1, 0.5, 0.5)" fill-opacity="1">Timeline for student 4k4dk9pu with permutation 2031 for task 2</text></svg>