<svg version="1.1" xmlns="http://www.w3.org/2000/svg" width="1366" height="683"><defs><clipPath id="LWkDrCDriapD"><path fill="none" stroke="none" d="M 58.5 51.5 L 1336.5 51.5 L 1336.5 630.5 L 58.5 630.5 L 58.5 51.5"/></clipPath><clipPath id="qkxENBnqGTPW"><path fill="none" stroke="none" d="M 58.5 51.5 L 1336.5 51.5 L 1336.5 630.5 L 58.5 630.5 L 58.5 51.5"/></clipPath><clipPath id="waZdvlwNGTPT"><path fill="none" stroke="none" d="M 58.5 51.5 L 1336.5 51.5 L 1336.5 630.5 L 58.5 630.5 L 58.5 51.5"/></clipPath><clipPath id="baNZJLlsyAxd"><path fill="none" stroke="none" d="M 58.5 51.5 L 1336.5 51.5 L 1336.5 630.5 L 58.5 630.5 L 58.5 51.5"/></clipPath><clipPath id="wPPTAMPZqKsC"><path fill="none" stroke="none" d="M 58.5 51.5 L 1336.5 51.5 L 1336.5 630.5 L 58.5 630.5 L 58.5 51.5"/></clipPath><clipPath id="IUlGIreHigcB"><path fill="none" stroke="none" d="M 58.5 51.5 L 1336.5 51.5 L 1336.5 630.5 L 58.5 630.5 L 58.5 51.5"/></clipPath><clipPath id="ygCRMKDqGswE"><path fill="none" stroke="none" d="M 58.5 51.5 L 1336.5 51.5 L 1336.5 630.5 L 58.5 630.5 L 58.5 51.5"/></clipPath><clipPath id="MeRyuPEdMNch"><path fill="none" stroke="none" d="M 58.5 51.5 L 1336.5 51.5 L 1336.5 630.5 L 58.5 630.5 L 58.5 51.5"/></clipPath><clipPath id="FsBuAtzxexqy"><path fill="none" stroke="none" d="M 58.5 51.5 L 1336.5 51.5 L 1336.5 630.5 L 58.5 630.5 L 58.5 51.5"/></clipPath><clipPath id="CTPPbMIcuOeX"><path fill="none" stroke="none" d="M 58.5 51.5 L 1336.5 51.5 L 1336.5 630.5 L 58.5 630.5 L 58.5 51.5"/></clipPath><clipPath id="xmMphETxFJEG"><path fill="none" stroke="none" d="M 58.5 51.5 L 1336.5 51.5 L 1336.5 630.5 L 58.5 630.5 L 58.5 51.5"/></clipPath><clipPath id="sfsERhNpQMCz"><path fill="none" stroke="none" d="M 58.5 51.5 L 1336.5 51.5 L 1336.5 630.5 L 58.5 630.5 L 58.5 51.5"/></clipPath><clipPath id="DTTDCioBzgTB"><path fill="none" stroke="none" d="M 58.5 51.5 L 1336.5 51.5 L 1336.5 630.5 L 58.5 630.5 L 58.5 51.5"/></clipPath><clipPath id="JNHwSReCGhVR"><path fill="none" stroke="none" d="M 58.5 51.5 L 1336.5 51.5 L 1336.5 630.5 L 58.5 630.5 L 58.5 51.5"/></clipPath><clipPath id="pJEiUSFiuvfT"><path fill="none" stroke="none" d="M 58.5 51.5 L 1336.5 51.5 L 1336.5 630.5 L 58.5 630.5 L 58.5 51.5"/></clipPath><clipPath id="hAEZINWdFarI"><path fill="none" stroke="none" d="M 58.5 51.5 L 1336.5 51.5 L 1336.5 630.5 L 58.5 630.5 L 58.5 51.5"/></clipPath><clipPath id="qLswSTJPFmMo"><path fill="none" stroke="none" d="M 58.5 51.5 L 1336.5 51.5 L 1336.5 630.5 L 58.5 630.5 L 58.5 51.5"/></clipPath><clipPath id="DMVlMTyCWyri"><path fill="none" stroke="none" d="M 58.5 51.5 L 1336.5 51.5 L 1336.5 630.5 L 58.5 630.5 L 58.5 51.5"/></clipPath><clipPath id="yqfcxuPBgPEx"><path fill="none" stroke="none" d="M 58.5 51.5 L 1336.5 51.5 L 1336.5 630.5 L 58.5 630.5 L 58.5 51.5"/></clipPath><clipPath id="AJvavpIvcTKZ"><path fill="none" stroke="none" d="M 58.5 51.5 L 1336.5 51.5 L 1336.5 630.5 L 58.5 630.5 L 58.5 51.5"/></clipPath><clipPath id="SKvqVKRHxhmL"><path fill="none" stroke="none" d="M 58.5 51.5 L 1336.5 51.5 L 1336.5 630.5 L 58.5 630.5 L 58.5 51.5"/></clipPath></defs><path fill="rgb(255,255,255)" stroke="none" paint-order="stroke" d="M 0.5 0.5 L 1366.5 0.5 L 1366.5 683.5 L 0.5 683.5 L 0.5 0.5" fill-opacity="1"/><rect fill="#FFFFFF" stroke="none" x="58" y="51" width="1278" height="579" transform="matrix(1, 0, 0, 1, 0.5, 0.5)"/><path fill="rgb(255,255,255)" stroke="none" paint-order="stroke" d="M 58.5 51.5 L 1336.5 51.5 L 1336.5 630.5 L 58.5 630.5 L 58.5 51.5" fill-opacity="1"/><path fill="none" stroke="rgb(229,229,229)" paint-order="fill" d="M 58.5 51.5 L 1336.5 51.5 L 1336.5 630.5 L 58.5 630.5 L 58.5 51.5" stroke-opacity="1" stroke-linejoin="bevel" stroke-miterlimit="10" stroke-dasharray=""/><path fill="none" stroke="rgb(229,229,229)" paint-order="fill" d="M 314.5 630.5 L 314.5 51.5 M 569.5 630.5 L 569.5 51.5 M 825.5 630.5 L 825.5 51.5 M 1080.5 630.5 L 1080.5 51.5" stroke-opacity="1" stroke-linejoin="bevel" stroke-miterlimit="10" stroke-dasharray="" clip-path="url(#LWkDrCDriapD)"/><path fill="none" stroke="rgb(229,229,229)" paint-order="fill" d="M 58.5 551.5 L 1336.5 551.5 M 58.5 446.5 L 1336.5 446.5 M 58.5 341.5 L 1336.5 341.5 M 58.5 235.5 L 1336.5 235.5 M 58.5 130.5 L 1336.5 130.5" stroke-opacity="1" stroke-linejoin="bevel" stroke-miterlimit="10" stroke-dasharray="" clip-path="url(#qkxENBnqGTPW)"/><path fill="rgb(0,255,40)" stroke="none" paint-order="stroke" d="M 58.5 77.81818389892578 L 86.58660507202148 77.81818389892578 L 86.58660507202148 130.45454788208008 L 58.5 130.45454788208008 L 58.5 77.81818389892578" fill-opacity="1" clip-path="url(#waZdvlwNGTPT)"/><path fill="rgb(62,255,0)" stroke="none" paint-order="stroke" d="M 86.58660888671875 77.81818389892578 L 86.60833488591015 77.81818389892578 L 86.60833488591015 130.45454788208008 L 86.58660888671875 130.45454788208008 L 86.58660888671875 77.81818389892578" fill-opacity="1" clip-path="url(#waZdvlwNGTPT)"/><path fill="rgb(115,255,0)" stroke="none" paint-order="stroke" d="M 86.60832977294922 77.81818389892578 L 86.62877777218819 77.81818389892578 L 86.62877777218819 130.45454788208008 L 86.60832977294922 130.45454788208008 L 86.60832977294922 77.81818389892578" fill-opacity="1" clip-path="url(#waZdvlwNGTPT)"/><path fill="rgb(175,255,0)" stroke="none" paint-order="stroke" d="M 86.62877655029297 77.81818389892578 L 86.65050254948437 77.81818389892578 L 86.65050254948437 130.45454788208008 L 86.62877655029297 130.45454788208008 L 86.62877655029297 77.81818389892578" fill-opacity="1" clip-path="url(#waZdvlwNGTPT)"/><path fill="rgb(234,255,0)" stroke="none" paint-order="stroke" d="M 86.65050506591797 77.81818389892578 L 86.67095306515694 77.81818389892578 L 86.67095306515694 130.45454788208008 L 86.65050506591797 130.45454788208008 L 86.65050506591797 77.81818389892578" fill-opacity="1" clip-path="url(#waZdvlwNGTPT)"/><path fill="rgb(255,245,0)" stroke="none" paint-order="stroke" d="M 86.67095184326172 77.81818389892578 L 86.69267784245312 77.81818389892578 L 86.69267784245312 130.45454788208008 L 86.67095184326172 130.45454788208008 L 86.67095184326172 77.81818389892578" fill-opacity="1" clip-path="url(#waZdvlwNGTPT)"/><path fill="rgb(255,186,0)" stroke="none" paint-order="stroke" d="M 86.69268035888672 77.81818389892578 L 86.71312835812569 77.81818389892578 L 86.71312835812569 130.45454788208008 L 86.69268035888672 130.45454788208008 L 86.69268035888672 77.81818389892578" fill-opacity="1" clip-path="url(#waZdvlwNGTPT)"/><path fill="rgb(255,133,0)" stroke="none" paint-order="stroke" d="M 86.71312713623047 77.81818389892578 L 86.73740913532674 77.81818389892578 L 86.73740913532674 130.45454788208008 L 86.71312713623047 130.45454788208008 L 86.71312713623047 77.81818389892578" fill-opacity="1" clip-path="url(#waZdvlwNGTPT)"/><path fill="rgb(255,42,0)" stroke="none" paint-order="stroke" d="M 86.73741149902344 77.81818389892578 L 86.75658149830997 77.81818389892578 L 86.75658149830997 130.45454788208008 L 86.73741149902344 130.45454788208008 L 86.73741149902344 77.81818389892578" fill-opacity="1" clip-path="url(#waZdvlwNGTPT)"/><path fill="rgb(250,0,0)" stroke="none" paint-order="stroke" d="M 86.75657653808594 77.81818389892578 L 86.77830253727734 77.81818389892578 L 86.77830253727734 130.45454788208008 L 86.75657653808594 130.45454788208008 L 86.75657653808594 77.81818389892578" fill-opacity="1" clip-path="url(#waZdvlwNGTPT)"/><path fill="rgb(220,0,0)" stroke="none" paint-order="stroke" d="M 86.77830505371094 77.81818389892578 L 86.7987530529499 77.81818389892578 L 86.7987530529499 130.45454788208008 L 86.77830505371094 130.45454788208008 L 86.77830505371094 77.81818389892578" fill-opacity="1" clip-path="url(#waZdvlwNGTPT)"/><path fill="rgb(198,0,0)" stroke="none" paint-order="stroke" d="M 86.79875183105469 77.81818389892578 L 86.82047783024609 77.81818389892578 L 86.82047783024609 130.45454788208008 L 86.79875183105469 130.45454788208008 L 86.79875183105469 77.81818389892578" fill-opacity="1" clip-path="url(#waZdvlwNGTPT)"/><path fill="rgb(155,0,0)" stroke="none" paint-order="stroke" d="M 86.82048034667969 77.81818389892578 L 86.84220634587109 77.81818389892578 L 86.84220634587109 130.45454788208008 L 86.82048034667969 130.45454788208008 L 86.82048034667969 77.81818389892578" fill-opacity="1" clip-path="url(#waZdvlwNGTPT)"/><path fill="rgb(140,0,0)" stroke="none" paint-order="stroke" d="M 86.84220886230469 77.81818389892578 L 86.86265686154366 77.81818389892578 L 86.86265686154366 130.45454788208008 L 86.84220886230469 130.45454788208008 L 86.84220886230469 77.81818389892578" fill-opacity="1" clip-path="url(#waZdvlwNGTPT)"/><path fill="rgb(115,0,0)" stroke="none" paint-order="stroke" d="M 86.86265563964844 77.81818389892578 L 86.88438163883984 77.81818389892578 L 86.88438163883984 130.45454788208008 L 86.86265563964844 130.45454788208008 L 86.86265563964844 77.81818389892578" fill-opacity="1" clip-path="url(#waZdvlwNGTPT)"/><path fill="rgb(97,0,0)" stroke="none" paint-order="stroke" d="M 86.8843765258789 77.81818389892578 L 86.90610252507031 77.81818389892578 L 86.90610252507031 130.45454788208008 L 86.8843765258789 130.45454788208008 L 86.8843765258789 77.81818389892578" fill-opacity="1" clip-path="url(#waZdvlwNGTPT)"/><path fill="rgb(0,0,0)" stroke="none" paint-order="stroke" d="M 86.9061050415039 77.81818389892578 L 86.92655304074287 77.81818389892578 L 86.92655304074287 130.45454788208008 L 86.9061050415039 130.45454788208008 L 86.9061050415039 77.81818389892578" fill-opacity="1" clip-path="url(#waZdvlwNGTPT)"/><path fill="rgb(0,0,0)" stroke="none" paint-order="stroke" d="M 86.92655181884766 77.81818389892578 L 86.94827781803906 77.81818389892578 L 86.94827781803906 130.45454788208008 L 86.92655181884766 130.45454788208008 L 86.92655181884766 77.81818389892578" fill-opacity="1" clip-path="url(#waZdvlwNGTPT)"/><path fill="rgb(0,0,0)" stroke="none" paint-order="stroke" d="M 86.94828033447266 77.81818389892578 L 87.13998033106327 77.81818389892578 L 87.13998033106327 130.45454788208008 L 86.94828033447266 130.45454788208008 L 86.94828033447266 77.81818389892578" fill-opacity="1" clip-path="url(#waZdvlwNGTPT)"/><path fill="rgb(0,0,0)" stroke="none" paint-order="stroke" d="M 87.13997650146484 77.81818389892578 L 87.16170250065625 77.81818389892578 L 87.16170250065625 130.45454788208008 L 87.13997650146484 130.45454788208008 L 87.13997650146484 77.81818389892578" fill-opacity="1" clip-path="url(#waZdvlwNGTPT)"/><path fill="rgb(155,0,0)" stroke="none" paint-order="stroke" d="M 87.16170501708984 77.81818389892578 L 87.18343101628125 77.81818389892578 L 87.18343101628125 130.45454788208008 L 87.16170501708984 130.45454788208008 L 87.16170501708984 77.81818389892578" fill-opacity="1" clip-path="url(#waZdvlwNGTPT)"/><path fill="rgb(214,0,0)" stroke="none" paint-order="stroke" d="M 87.18343353271484 77.81818389892578 L 87.20388153195381 77.81818389892578 L 87.20388153195381 130.45454788208008 L 87.18343353271484 130.45454788208008 L 87.18343353271484 77.81818389892578" fill-opacity="1" clip-path="url(#waZdvlwNGTPT)"/><path fill="rgb(255,186,0)" stroke="none" paint-order="stroke" d="M 87.2038803100586 77.81818389892578 L 87.22560630925 77.81818389892578 L 87.22560630925 130.45454788208008 L 87.2038803100586 130.45454788208008 L 87.2038803100586 77.81818389892578" fill-opacity="1" clip-path="url(#waZdvlwNGTPT)"/><path fill="rgb(201,255,0)" stroke="none" paint-order="stroke" d="M 87.2256088256836 77.81818389892578 L 87.24605682492256 77.81818389892578 L 87.24605682492256 130.45454788208008 L 87.2256088256836 130.45454788208008 L 87.2256088256836 77.81818389892578" fill-opacity="1" clip-path="url(#waZdvlwNGTPT)"/><path fill="rgb(115,255,0)" stroke="none" paint-order="stroke" d="M 87.24605560302734 77.81818389892578 L 87.26778160221875 77.81818389892578 L 87.26778160221875 130.45454788208008 L 87.24605560302734 130.45454788208008 L 87.24605560302734 77.81818389892578" fill-opacity="1" clip-path="url(#waZdvlwNGTPT)"/><path fill="rgb(0,221,255)" stroke="none" paint-order="stroke" d="M 87.26777648925781 77.81818389892578 L 87.28950248844922 77.81818389892578 L 87.28950248844922 130.45454788208008 L 87.26777648925781 130.45454788208008 L 87.26777648925781 77.81818389892578" fill-opacity="1" clip-path="url(#waZdvlwNGTPT)"/><path fill="rgb(9,0,252)" stroke="none" paint-order="stroke" d="M 87.28950500488281 77.81818389892578 L 87.30995300412178 77.81818389892578 L 87.30995300412178 130.45454788208008 L 87.28950500488281 130.45454788208008 L 87.28950500488281 77.81818389892578" fill-opacity="1" clip-path="url(#waZdvlwNGTPT)"/><path fill="rgb(107,0,120)" stroke="none" paint-order="stroke" d="M 87.30995178222656 77.81818389892578 L 87.33167778141797 77.81818389892578 L 87.33167778141797 130.45454788208008 L 87.30995178222656 130.45454788208008 L 87.30995178222656 77.81818389892578" fill-opacity="1" clip-path="url(#waZdvlwNGTPT)"/><path fill="rgb(97,0,97)" stroke="none" paint-order="stroke" d="M 87.33168029785156 77.81818389892578 L 88.12020629644394 77.81818389892578 L 88.12020629644394 130.45454788208008 L 87.33168029785156 130.45454788208008 L 87.33168029785156 77.81818389892578" fill-opacity="1" clip-path="url(#waZdvlwNGTPT)"/><path fill="rgb(0,46,255)" stroke="none" paint-order="stroke" d="M 88.12020874023438 77.81818389892578 L 88.14193473942578 77.81818389892578 L 88.14193473942578 130.45454788208008 L 88.12020874023438 130.45454788208008 L 88.12020874023438 77.81818389892578" fill-opacity="1" clip-path="url(#waZdvlwNGTPT)"/><path fill="rgb(0,238,255)" stroke="none" paint-order="stroke" d="M 88.14192962646484 77.81818389892578 L 88.16237762570381 77.81818389892578 L 88.16237762570381 130.45454788208008 L 88.14192962646484 130.45454788208008 L 88.14192962646484 77.81818389892578" fill-opacity="1" clip-path="url(#waZdvlwNGTPT)"/><path fill="rgb(153,255,0)" stroke="none" paint-order="stroke" d="M 88.1623764038086 77.81818389892578 L 88.18538040295243 77.81818389892578 L 88.18538040295243 130.45454788208008 L 88.1623764038086 130.45454788208008 L 88.1623764038086 77.81818389892578" fill-opacity="1" clip-path="url(#waZdvlwNGTPT)"/><path fill="rgb(222,255,0)" stroke="none" paint-order="stroke" d="M 88.18538665771484 77.81818389892578 L 88.20583465695381 77.81818389892578 L 88.20583465695381 130.45454788208008 L 88.18538665771484 130.45454788208008 L 88.18538665771484 77.81818389892578" fill-opacity="1" clip-path="url(#waZdvlwNGTPT)"/><path fill="rgb(255,245,0)" stroke="none" paint-order="stroke" d="M 88.2058334350586 77.81818389892578 L 88.22755943425 77.81818389892578 L 88.22755943425 130.45454788208008 L 88.2058334350586 130.45454788208008 L 88.2058334350586 77.81818389892578" fill-opacity="1" clip-path="url(#waZdvlwNGTPT)"/><path fill="rgb(255,219,0)" stroke="none" paint-order="stroke" d="M 88.22755432128906 77.81818389892578 L 88.41925431787968 77.81818389892578 L 88.41925431787968 130.45454788208008 L 88.22755432128906 130.45454788208008 L 88.22755432128906 77.81818389892578" fill-opacity="1" clip-path="url(#waZdvlwNGTPT)"/><path fill="rgb(255,232,0)" stroke="none" paint-order="stroke" d="M 88.41925811767578 77.81818389892578 L 88.4614321179688 77.81818389892578 L 88.4614321179688 130.45454788208008 L 88.41925811767578 130.45454788208008 L 88.41925811767578 77.81818389892578" fill-opacity="1" clip-path="url(#waZdvlwNGTPT)"/><path fill="rgb(255,245,0)" stroke="none" paint-order="stroke" d="M 88.46143341064453 77.81818389892578 L 88.4818814098835 77.81818389892578 L 88.4818814098835 130.45454788208008 L 88.46143341064453 130.45454788208008 L 88.46143341064453 77.81818389892578" fill-opacity="1" clip-path="url(#waZdvlwNGTPT)"/><path fill="rgb(255,255,0)" stroke="none" paint-order="stroke" d="M 88.48188018798828 77.81818389892578 L 88.50360618717968 77.81818389892578 L 88.50360618717968 130.45454788208008 L 88.48188018798828 130.45454788208008 L 88.48188018798828 77.81818389892578" fill-opacity="1" clip-path="url(#waZdvlwNGTPT)"/><path fill="rgb(210,255,0)" stroke="none" paint-order="stroke" d="M 88.50360870361328 77.81818389892578 L 88.52533470280468 77.81818389892578 L 88.52533470280468 130.45454788208008 L 88.50360870361328 130.45454788208008 L 88.50360870361328 77.81818389892578" fill-opacity="1" clip-path="url(#waZdvlwNGTPT)"/><path fill="rgb(166,255,0)" stroke="none" paint-order="stroke" d="M 88.52532958984375 77.81818389892578 L 88.54705558903515 77.81818389892578 L 88.54705558903515 130.45454788208008 L 88.52532958984375 130.45454788208008 L 88.52532958984375 77.81818389892578" fill-opacity="1" clip-path="url(#waZdvlwNGTPT)"/><path fill="rgb(104,255,0)" stroke="none" paint-order="stroke" d="M 88.54705810546875 77.81818389892578 L 88.56878410466015 77.81818389892578 L 88.56878410466015 130.45454788208008 L 88.54705810546875 130.45454788208008 L 88.54705810546875 77.81818389892578" fill-opacity="1" clip-path="url(#waZdvlwNGTPT)"/><path fill="rgb(89,255,0)" stroke="none" paint-order="stroke" d="M 88.56878662109375 77.81818389892578 L 88.58923462033272 77.81818389892578 L 88.58923462033272 130.45454788208008 L 88.56878662109375 130.45454788208008 L 88.56878662109375 77.81818389892578" fill-opacity="1" clip-path="url(#waZdvlwNGTPT)"/><path fill="rgb(62,255,0)" stroke="none" paint-order="stroke" d="M 88.5892333984375 77.81818389892578 L 88.6109593976289 77.81818389892578 L 88.6109593976289 130.45454788208008 L 88.5892333984375 130.45454788208008 L 88.5892333984375 77.81818389892578" fill-opacity="1" clip-path="url(#waZdvlwNGTPT)"/><path fill="rgb(44,255,0)" stroke="none" paint-order="stroke" d="M 88.61095428466797 77.81818389892578 L 88.63268028385937 77.81818389892578 L 88.63268028385937 130.45454788208008 L 88.61095428466797 130.45454788208008 L 88.61095428466797 77.81818389892578" fill-opacity="1" clip-path="url(#waZdvlwNGTPT)"/><path fill="rgb(30,255,0)" stroke="none" paint-order="stroke" d="M 88.63268280029297 77.81818389892578 L 88.65313079953194 77.81818389892578 L 88.65313079953194 130.45454788208008 L 88.63268280029297 130.45454788208008 L 88.63268280029297 77.81818389892578" fill-opacity="1" clip-path="url(#waZdvlwNGTPT)"/><path fill="rgb(8,255,0)" stroke="none" paint-order="stroke" d="M 88.65312957763672 77.81818389892578 L 88.67485557682812 77.81818389892578 L 88.67485557682812 130.45454788208008 L 88.65312957763672 130.45454788208008 L 88.65312957763672 77.81818389892578" fill-opacity="1" clip-path="url(#waZdvlwNGTPT)"/><path fill="rgb(0,255,40)" stroke="none" paint-order="stroke" d="M 88.67485809326172 77.81818389892578 L 88.69658409245312 77.81818389892578 L 88.69658409245312 130.45454788208008 L 88.67485809326172 130.45454788208008 L 88.67485809326172 77.81818389892578" fill-opacity="1" clip-path="url(#waZdvlwNGTPT)"/><path fill="rgb(0,255,97)" stroke="none" paint-order="stroke" d="M 88.69658660888672 77.81818389892578 L 88.74387260898948 77.81818389892578 L 88.74387260898948 130.45454788208008 L 88.69658660888672 130.45454788208008 L 88.69658660888672 77.81818389892578" fill-opacity="1" clip-path="url(#waZdvlwNGTPT)"/><path fill="rgb(0,255,146)" stroke="none" paint-order="stroke" d="M 88.7438735961914 77.81818389892578 L 163.7484130859375 77.81818389892578 L 163.7484130859375 130.45454788208008 L 88.7438735961914 130.45454788208008 L 88.7438735961914 77.81818389892578" fill-opacity="1" clip-path="url(#waZdvlwNGTPT)"/><path fill="rgb(0,255,55)" stroke="none" paint-order="stroke" d="M 163.7484130859375 77.81818389892578 L 163.7701390851289 77.81818389892578 L 163.7701390851289 130.45454788208008 L 163.7484130859375 130.45454788208008 L 163.7484130859375 77.81818389892578" fill-opacity="1" clip-path="url(#waZdvlwNGTPT)"/><path fill="rgb(0,255,0)" stroke="none" paint-order="stroke" d="M 163.7701416015625 77.81818389892578 L 163.79058960080147 77.81818389892578 L 163.79058960080147 130.45454788208008 L 163.7701416015625 130.45454788208008 L 163.7701416015625 77.81818389892578" fill-opacity="1" clip-path="url(#waZdvlwNGTPT)"/><path fill="rgb(25,255,0)" stroke="none" paint-order="stroke" d="M 163.79058837890625 77.81818389892578 L 163.81231437809765 77.81818389892578 L 163.81231437809765 130.45454788208008 L 163.79058837890625 130.45454788208008 L 163.79058837890625 77.81818389892578" fill-opacity="1" clip-path="url(#waZdvlwNGTPT)"/><path fill="rgb(58,255,0)" stroke="none" paint-order="stroke" d="M 163.81231689453125 77.81818389892578 L 163.85449089482427 77.81818389892578 L 163.85449089482427 130.45454788208008 L 163.81231689453125 130.45454788208008 L 163.81231689453125 77.81818389892578" fill-opacity="1" clip-path="url(#waZdvlwNGTPT)"/><path fill="rgb(74,255,0)" stroke="none" paint-order="stroke" d="M 163.8544921875 77.81818389892578 L 163.8762181866914 77.81818389892578 L 163.8762181866914 130.45454788208008 L 163.8544921875 130.45454788208008 L 163.8544921875 77.81818389892578" fill-opacity="1" clip-path="url(#waZdvlwNGTPT)"/><path fill="rgb(86,255,0)" stroke="none" paint-order="stroke" d="M 163.87620544433594 77.81818389892578 L 163.8966534435749 77.81818389892578 L 163.8966534435749 130.45454788208008 L 163.87620544433594 130.45454788208008 L 163.87620544433594 77.81818389892578" fill-opacity="1" clip-path="url(#waZdvlwNGTPT)"/><path fill="rgb(115,255,0)" stroke="none" paint-order="stroke" d="M 163.89666748046875 77.81818389892578 L 163.91839347966015 77.81818389892578 L 163.91839347966015 130.45454788208008 L 163.89666748046875 130.45454788208008 L 163.89666748046875 77.81818389892578" fill-opacity="1" clip-path="url(#waZdvlwNGTPT)"/><path fill="rgb(139,255,0)" stroke="none" paint-order="stroke" d="M 163.9183807373047 77.81818389892578 L 163.93882873654366 77.81818389892578 L 163.93882873654366 130.45454788208008 L 163.9183807373047 130.45454788208008 L 163.9183807373047 77.81818389892578" fill-opacity="1" clip-path="url(#waZdvlwNGTPT)"/><path fill="rgb(175,255,0)" stroke="none" paint-order="stroke" d="M 163.93882751464844 77.81818389892578 L 163.96183151379228 77.81818389892578 L 163.96183151379228 130.45454788208008 L 163.93882751464844 130.45454788208008 L 163.93882751464844 77.81818389892578" fill-opacity="1" clip-path="url(#waZdvlwNGTPT)"/><path fill="rgb(197,255,0)" stroke="none" paint-order="stroke" d="M 163.9618377685547 77.81818389892578 L 164.0040117688477 77.81818389892578 L 164.0040117688477 130.45454788208008 L 163.9618377685547 130.45454788208008 L 163.9618377685547 77.81818389892578" fill-opacity="1" clip-path="url(#waZdvlwNGTPT)"/><path fill="rgb(210,255,0)" stroke="none" paint-order="stroke" d="M 164.00401306152344 77.81818389892578 L 164.0295730624348 77.81818389892578 L 164.0295730624348 130.45454788208008 L 164.00401306152344 130.45454788208008 L 164.00401306152344 77.81818389892578" fill-opacity="1" clip-path="url(#waZdvlwNGTPT)"/><path fill="rgb(219,255,0)" stroke="none" paint-order="stroke" d="M 164.02957153320312 77.81818389892578 L 164.0461855325848 77.81818389892578 L 164.0461855325848 130.45454788208008 L 164.02957153320312 130.45454788208008 L 164.02957153320312 77.81818389892578" fill-opacity="1" clip-path="url(#waZdvlwNGTPT)"/><path fill="rgb(231,255,0)" stroke="none" paint-order="stroke" d="M 164.0461883544922 77.81818389892578 L 164.089640352875 77.81818389892578 L 164.089640352875 130.45454788208008 L 164.0461883544922 130.45454788208008 L 164.0461883544922 77.81818389892578" fill-opacity="1" clip-path="url(#waZdvlwNGTPT)"/><path fill="rgb(252,255,0)" stroke="none" paint-order="stroke" d="M 164.0896453857422 77.81818389892578 L 164.11009338498116 77.81818389892578 L 164.11009338498116 130.45454788208008 L 164.0896453857422 130.45454788208008 L 164.0896453857422 77.81818389892578" fill-opacity="1" clip-path="url(#waZdvlwNGTPT)"/><path fill="rgb(255,245,0)" stroke="none" paint-order="stroke" d="M 164.11009216308594 77.81818389892578 L 164.13181816227734 77.81818389892578 L 164.13181816227734 130.45454788208008 L 164.11009216308594 130.45454788208008 L 164.11009216308594 77.81818389892578" fill-opacity="1" clip-path="url(#waZdvlwNGTPT)"/><path fill="rgb(255,235,0)" stroke="none" paint-order="stroke" d="M 164.13180541992188 77.81818389892578 L 164.15353141911328 77.81818389892578 L 164.15353141911328 130.45454788208008 L 164.13180541992188 130.45454788208008 L 164.13180541992188 77.81818389892578" fill-opacity="1" clip-path="url(#waZdvlwNGTPT)"/><path fill="rgb(255,223,0)" stroke="none" paint-order="stroke" d="M 164.15353393554688 77.81818389892578 L 164.1957079358399 77.81818389892578 L 164.1957079358399 130.45454788208008 L 164.15353393554688 130.45454788208008 L 164.15353393554688 77.81818389892578" fill-opacity="1" clip-path="url(#waZdvlwNGTPT)"/><path fill="rgb(255,213,0)" stroke="none" paint-order="stroke" d="M 164.19570922851562 77.81818389892578 L 164.23788322880864 77.81818389892578 L 164.23788322880864 130.45454788208008 L 164.19570922851562 130.45454788208008 L 164.19570922851562 77.81818389892578" fill-opacity="1" clip-path="url(#waZdvlwNGTPT)"/><path fill="rgb(255,200,0)" stroke="none" paint-order="stroke" d="M 164.23788452148438 77.81818389892578 L 164.28133651986718 77.81818389892578 L 164.28133651986718 130.45454788208008 L 164.23788452148438 130.45454788208008 L 164.23788452148438 77.81818389892578" fill-opacity="1" clip-path="url(#waZdvlwNGTPT)"/><path fill="rgb(255,186,0)" stroke="none" paint-order="stroke" d="M 164.28134155273438 77.81818389892578 L 164.34524155408144 77.81818389892578 L 164.34524155408144 130.45454788208008 L 164.28134155273438 130.45454788208008 L 164.28134155273438 77.81818389892578" fill-opacity="1" clip-path="url(#waZdvlwNGTPT)"/><path fill="rgb(255,176,0)" stroke="none" paint-order="stroke" d="M 164.34524536132812 77.81818389892578 L 164.38741936162114 77.81818389892578 L 164.38741936162114 130.45454788208008 L 164.34524536132812 130.45454788208008 L 164.34524536132812 77.81818389892578" fill-opacity="1" clip-path="url(#waZdvlwNGTPT)"/><path fill="rgb(255,162,0)" stroke="none" paint-order="stroke" d="M 164.3874053955078 77.81818389892578 L 164.42957939580083 77.81818389892578 L 164.42957939580083 130.45454788208008 L 164.3874053955078 130.45454788208008 L 164.3874053955078 77.81818389892578" fill-opacity="1" clip-path="url(#waZdvlwNGTPT)"/><path fill="rgb(255,148,0)" stroke="none" paint-order="stroke" d="M 164.42958068847656 77.81818389892578 L 164.47303268685937 77.81818389892578 L 164.47303268685937 130.45454788208008 L 164.42958068847656 130.45454788208008 L 164.42958068847656 77.81818389892578" fill-opacity="1" clip-path="url(#waZdvlwNGTPT)"/><path fill="rgb(255,137,0)" stroke="none" paint-order="stroke" d="M 164.47303771972656 77.81818389892578 L 164.49476371891797 77.81818389892578 L 164.49476371891797 130.45454788208008 L 164.47303771972656 130.45454788208008 L 164.47303771972656 77.81818389892578" fill-opacity="1" clip-path="url(#waZdvlwNGTPT)"/><path fill="rgb(255,122,0)" stroke="none" paint-order="stroke" d="M 164.49476623535156 77.81818389892578 L 164.53694023564458 77.81818389892578 L 164.53694023564458 130.45454788208008 L 164.49476623535156 130.45454788208008 L 164.49476623535156 77.81818389892578" fill-opacity="1" clip-path="url(#waZdvlwNGTPT)"/><path fill="rgb(255,111,0)" stroke="none" paint-order="stroke" d="M 164.5369415283203 77.81818389892578 L 164.57911552861333 77.81818389892578 L 164.57911552861333 130.45454788208008 L 164.5369415283203 130.45454788208008 L 164.5369415283203 77.81818389892578" fill-opacity="1" clip-path="url(#waZdvlwNGTPT)"/><path fill="rgb(255,95,0)" stroke="none" paint-order="stroke" d="M 164.57911682128906 77.81818389892578 L 164.60084282048047 77.81818389892578 L 164.60084282048047 130.45454788208008 L 164.57911682128906 130.45454788208008 L 164.57911682128906 77.81818389892578" fill-opacity="1" clip-path="url(#waZdvlwNGTPT)"/><path fill="rgb(255,78,0)" stroke="none" paint-order="stroke" d="M 164.60084533691406 77.81818389892578 L 164.6762473359704 77.81818389892578 L 164.6762473359704 130.45454788208008 L 164.60084533691406 130.45454788208008 L 164.60084533691406 77.81818389892578" fill-opacity="1" clip-path="url(#waZdvlwNGTPT)"/><path fill="rgb(255,66,0)" stroke="none" paint-order="stroke" d="M 164.67623901367188 77.81818389892578 L 164.68901901412755 77.81818389892578 L 164.68901901412755 130.45454788208008 L 164.67623901367188 130.45454788208008 L 164.67623901367188 77.81818389892578" fill-opacity="1" clip-path="url(#waZdvlwNGTPT)"/><path fill="rgb(255,47,0)" stroke="none" paint-order="stroke" d="M 164.68902587890625 77.81818389892578 L 164.7286438792944 77.81818389892578 L 164.7286438792944 130.45454788208008 L 164.68902587890625 130.45454788208008 L 164.68902587890625 77.81818389892578" fill-opacity="1" clip-path="url(#waZdvlwNGTPT)"/><path fill="rgb(255,32,0)" stroke="none" paint-order="stroke" d="M 164.7286376953125 77.81818389892578 L 164.7503636945039 77.81818389892578 L 164.7503636945039 130.45454788208008 L 164.7286376953125 130.45454788208008 L 164.7286376953125 77.81818389892578" fill-opacity="1" clip-path="url(#waZdvlwNGTPT)"/><path fill="rgb(250,0,0)" stroke="none" paint-order="stroke" d="M 164.7503662109375 77.81818389892578 L 164.77081421017647 77.81818389892578 L 164.77081421017647 130.45454788208008 L 164.7503662109375 130.45454788208008 L 164.7503662109375 77.81818389892578" fill-opacity="1" clip-path="url(#waZdvlwNGTPT)"/><path fill="rgb(246,0,0)" stroke="none" paint-order="stroke" d="M 164.77081298828125 77.81818389892578 L 164.8359909877181 77.81818389892578 L 164.8359909877181 130.45454788208008 L 164.77081298828125 130.45454788208008 L 164.77081298828125 77.81818389892578" fill-opacity="1" clip-path="url(#waZdvlwNGTPT)"/><path fill="rgb(241,0,0)" stroke="none" paint-order="stroke" d="M 164.8359832763672 77.81818389892578 L 164.85643127560616 77.81818389892578 L 164.85643127560616 130.45454788208008 L 164.8359832763672 130.45454788208008 L 164.8359832763672 77.81818389892578" fill-opacity="1" clip-path="url(#waZdvlwNGTPT)"/><path fill="rgb(235,0,0)" stroke="none" paint-order="stroke" d="M 164.8564453125 77.81818389892578 L 164.89861931279302 77.81818389892578 L 164.89861931279302 130.45454788208008 L 164.8564453125 130.45454788208008 L 164.8564453125 77.81818389892578" fill-opacity="1" clip-path="url(#waZdvlwNGTPT)"/><path fill="rgb(231,0,0)" stroke="none" paint-order="stroke" d="M 164.8986053466797 77.81818389892578 L 164.9203313458711 77.81818389892578 L 164.9203313458711 130.45454788208008 L 164.8986053466797 130.45454788208008 L 164.8986053466797 77.81818389892578" fill-opacity="1" clip-path="url(#waZdvlwNGTPT)"/><path fill="rgb(226,0,0)" stroke="none" paint-order="stroke" d="M 164.9203338623047 77.81818389892578 L 164.98423386365175 77.81818389892578 L 164.98423386365175 130.45454788208008 L 164.9203338623047 130.45454788208008 L 164.9203338623047 77.81818389892578" fill-opacity="1" clip-path="url(#waZdvlwNGTPT)"/><path fill="rgb(221,0,0)" stroke="none" paint-order="stroke" d="M 164.98423767089844 77.81818389892578 L 165.02768966928124 77.81818389892578 L 165.02768966928124 130.45454788208008 L 164.98423767089844 130.45454788208008 L 164.98423767089844 77.81818389892578" fill-opacity="1" clip-path="url(#waZdvlwNGTPT)"/><path fill="rgb(216,0,0)" stroke="none" paint-order="stroke" d="M 165.02769470214844 77.81818389892578 L 165.0481427013874 77.81818389892578 L 165.0481427013874 130.45454788208008 L 165.02769470214844 130.45454788208008 L 165.02769470214844 77.81818389892578" fill-opacity="1" clip-path="url(#waZdvlwNGTPT)"/><path fill="rgb(210,0,0)" stroke="none" paint-order="stroke" d="M 165.0481414794922 77.81818389892578 L 165.0698674786836 77.81818389892578 L 165.0698674786836 130.45454788208008 L 165.0481414794922 130.45454788208008 L 165.0481414794922 77.81818389892578" fill-opacity="1" clip-path="url(#waZdvlwNGTPT)"/><path fill="rgb(206,0,0)" stroke="none" paint-order="stroke" d="M 165.0698699951172 77.81818389892578 L 165.09031799435616 77.81818389892578 L 165.09031799435616 130.45454788208008 L 165.0698699951172 130.45454788208008 L 165.0698699951172 77.81818389892578" fill-opacity="1" clip-path="url(#waZdvlwNGTPT)"/><path fill="rgb(200,0,0)" stroke="none" paint-order="stroke" d="M 165.09031677246094 77.81818389892578 L 165.13376877084374 77.81818389892578 L 165.13376877084374 130.45454788208008 L 165.09031677246094 130.45454788208008 L 165.09031677246094 77.81818389892578" fill-opacity="1" clip-path="url(#waZdvlwNGTPT)"/><path fill="rgb(196,0,0)" stroke="none" paint-order="stroke" d="M 165.13375854492188 77.81818389892578 L 165.17721054330468 77.81818389892578 L 165.17721054330468 130.45454788208008 L 165.13375854492188 130.45454788208008 L 165.13375854492188 77.81818389892578" fill-opacity="1" clip-path="url(#waZdvlwNGTPT)"/><path fill="rgb(190,0,0)" stroke="none" paint-order="stroke" d="M 165.17721557617188 77.81818389892578 L 165.19766357541084 77.81818389892578 L 165.19766357541084 130.45454788208008 L 165.17721557617188 130.45454788208008 L 165.17721557617188 77.81818389892578" fill-opacity="1" clip-path="url(#waZdvlwNGTPT)"/><path fill="rgb(184,0,0)" stroke="none" paint-order="stroke" d="M 165.19766235351562 77.81818389892578 L 165.2181103527546 77.81818389892578 L 165.2181103527546 130.45454788208008 L 165.19766235351562 130.45454788208008 L 165.19766235351562 77.81818389892578" fill-opacity="1" clip-path="url(#waZdvlwNGTPT)"/><path fill="rgb(179,0,0)" stroke="none" paint-order="stroke" d="M 165.21810913085938 77.81818389892578 L 165.23983513005078 77.81818389892578 L 165.23983513005078 130.45454788208008 L 165.21810913085938 130.45454788208008 L 165.21810913085938 77.81818389892578" fill-opacity="1" clip-path="url(#waZdvlwNGTPT)"/><path fill="rgb(173,0,0)" stroke="none" paint-order="stroke" d="M 165.23983764648438 77.81818389892578 L 165.26156364567578 77.81818389892578 L 165.26156364567578 130.45454788208008 L 165.23983764648438 130.45454788208008 L 165.23983764648438 77.81818389892578" fill-opacity="1" clip-path="url(#waZdvlwNGTPT)"/><path fill="rgb(167,0,0)" stroke="none" paint-order="stroke" d="M 165.26156616210938 77.81818389892578 L 165.28329216130078 77.81818389892578 L 165.28329216130078 130.45454788208008 L 165.26156616210938 130.45454788208008 L 165.26156616210938 77.81818389892578" fill-opacity="1" clip-path="url(#waZdvlwNGTPT)"/><path fill="rgb(163,0,0)" stroke="none" paint-order="stroke" d="M 165.28329467773438 77.81818389892578 L 165.3254686780274 77.81818389892578 L 165.3254686780274 130.45454788208008 L 165.28329467773438 130.45454788208008 L 165.28329467773438 77.81818389892578" fill-opacity="1" clip-path="url(#waZdvlwNGTPT)"/><path fill="rgb(157,0,0)" stroke="none" paint-order="stroke" d="M 165.32546997070312 77.81818389892578 L 165.34719596989453 77.81818389892578 L 165.34719596989453 130.45454788208008 L 165.32546997070312 130.45454788208008 L 165.32546997070312 77.81818389892578" fill-opacity="1" clip-path="url(#waZdvlwNGTPT)"/><path fill="rgb(152,0,0)" stroke="none" paint-order="stroke" d="M 165.34718322753906 77.81818389892578 L 165.36890922673047 77.81818389892578 L 165.36890922673047 130.45454788208008 L 165.34718322753906 130.45454788208008 L 165.34718322753906 77.81818389892578" fill-opacity="1" clip-path="url(#waZdvlwNGTPT)"/><path fill="rgb(146,0,0)" stroke="none" paint-order="stroke" d="M 165.36891174316406 77.81818389892578 L 165.38935974240303 77.81818389892578 L 165.38935974240303 130.45454788208008 L 165.36891174316406 130.45454788208008 L 165.36891174316406 77.81818389892578" fill-opacity="1" clip-path="url(#waZdvlwNGTPT)"/><path fill="rgb(140,0,0)" stroke="none" paint-order="stroke" d="M 165.3893585205078 77.81818389892578 L 165.41108451969922 77.81818389892578 L 165.41108451969922 130.45454788208008 L 165.3893585205078 130.45454788208008 L 165.3893585205078 77.81818389892578" fill-opacity="1" clip-path="url(#waZdvlwNGTPT)"/><path fill="rgb(135,0,0)" stroke="none" paint-order="stroke" d="M 165.4110870361328 77.81818389892578 L 165.43153503537178 77.81818389892578 L 165.43153503537178 130.45454788208008 L 165.4110870361328 130.45454788208008 L 165.4110870361328 77.81818389892578" fill-opacity="1" clip-path="url(#waZdvlwNGTPT)"/><path fill="rgb(129,0,0)" stroke="none" paint-order="stroke" d="M 165.43153381347656 77.81818389892578 L 165.47498581185937 77.81818389892578 L 165.47498581185937 130.45454788208008 L 165.43153381347656 130.45454788208008 L 165.43153381347656 77.81818389892578" fill-opacity="1" clip-path="url(#waZdvlwNGTPT)"/><path fill="rgb(124,0,0)" stroke="none" paint-order="stroke" d="M 165.47499084472656 77.81818389892578 L 165.49671684391797 77.81818389892578 L 165.49671684391797 130.45454788208008 L 165.47499084472656 130.45454788208008 L 165.47499084472656 77.81818389892578" fill-opacity="1" clip-path="url(#waZdvlwNGTPT)"/><path fill="rgb(117,0,0)" stroke="none" paint-order="stroke" d="M 165.49671936035156 77.81818389892578 L 165.51716735959053 77.81818389892578 L 165.51716735959053 130.45454788208008 L 165.49671936035156 130.45454788208008 L 165.49671936035156 77.81818389892578" fill-opacity="1" clip-path="url(#waZdvlwNGTPT)"/><path fill="rgb(110,0,0)" stroke="none" paint-order="stroke" d="M 165.5171661376953 77.81818389892578 L 165.56061813607812 77.81818389892578 L 165.56061813607812 130.45454788208008 L 165.5171661376953 130.45454788208008 L 165.5171661376953 77.81818389892578" fill-opacity="1" clip-path="url(#waZdvlwNGTPT)"/><path fill="rgb(105,0,0)" stroke="none" paint-order="stroke" d="M 165.5606231689453 77.81818389892578 L 165.58107116818428 77.81818389892578 L 165.58107116818428 130.45454788208008 L 165.5606231689453 130.45454788208008 L 165.5606231689453 77.81818389892578" fill-opacity="1" clip-path="url(#waZdvlwNGTPT)"/><path fill="rgb(99,0,0)" stroke="none" paint-order="stroke" d="M 165.58106994628906 77.81818389892578 L 165.60279594548047 77.81818389892578 L 165.60279594548047 130.45454788208008 L 165.58106994628906 130.45454788208008 L 165.58106994628906 77.81818389892578" fill-opacity="1" clip-path="url(#waZdvlwNGTPT)"/><path fill="rgb(0,0,0)" stroke="none" paint-order="stroke" d="M 165.602783203125 77.81818389892578 L 165.6245092023164 77.81818389892578 L 165.6245092023164 130.45454788208008 L 165.602783203125 130.45454788208008 L 165.602783203125 77.81818389892578" fill-opacity="1" clip-path="url(#waZdvlwNGTPT)"/><path fill="rgb(0,0,0)" stroke="none" paint-order="stroke" d="M 165.62451171875 77.81818389892578 L 165.68841172009706 77.81818389892578 L 165.68841172009706 130.45454788208008 L 165.62451171875 130.45454788208008 L 165.62451171875 77.81818389892578" fill-opacity="1" clip-path="url(#waZdvlwNGTPT)"/><path fill="rgb(0,0,0)" stroke="none" paint-order="stroke" d="M 165.68841552734375 77.81818389892578 L 165.73186752572656 77.81818389892578 L 165.73186752572656 130.45454788208008 L 165.68841552734375 130.45454788208008 L 165.68841552734375 77.81818389892578" fill-opacity="1" clip-path="url(#waZdvlwNGTPT)"/><path fill="rgb(0,0,0)" stroke="none" paint-order="stroke" d="M 165.73187255859375 77.81818389892578 L 165.75104255788028 77.81818389892578 L 165.75104255788028 130.45454788208008 L 165.73187255859375 130.45454788208008 L 165.73187255859375 77.81818389892578" fill-opacity="1" clip-path="url(#waZdvlwNGTPT)"/><path fill="rgb(0,0,0)" stroke="none" paint-order="stroke" d="M 165.75103759765625 77.81818389892578 L 165.7740415968001 77.81818389892578 L 165.7740415968001 130.45454788208008 L 165.75103759765625 130.45454788208008 L 165.75103759765625 77.81818389892578" fill-opacity="1" clip-path="url(#waZdvlwNGTPT)"/><path fill="rgb(0,0,0)" stroke="none" paint-order="stroke" d="M 165.7740478515625 77.81818389892578 L 165.81494385004044 77.81818389892578 L 165.81494385004044 130.45454788208008 L 165.7740478515625 130.45454788208008 L 165.7740478515625 77.81818389892578" fill-opacity="1" clip-path="url(#waZdvlwNGTPT)"/><path fill="rgb(0,0,0)" stroke="none" paint-order="stroke" d="M 165.81494140625 77.81818389892578 L 165.88011940568686 77.81818389892578 L 165.88011940568686 130.45454788208008 L 165.81494140625 130.45454788208008 L 165.81494140625 77.81818389892578" fill-opacity="1" clip-path="url(#waZdvlwNGTPT)"/><path fill="rgb(0,0,0)" stroke="none" paint-order="stroke" d="M 165.88011169433594 77.81818389892578 L 167.09804570674896 77.81818389892578 L 167.09804570674896 130.45454788208008 L 165.88011169433594 130.45454788208008 L 165.88011169433594 77.81818389892578" fill-opacity="1" clip-path="url(#waZdvlwNGTPT)"/><path fill="rgb(0,0,0)" stroke="none" paint-order="stroke" d="M 167.09805297851562 77.81818389892578 L 167.11594497784972 77.81818389892578 L 167.11594497784972 130.45454788208008 L 167.09805297851562 130.45454788208008 L 167.09805297851562 77.81818389892578" fill-opacity="1" clip-path="url(#waZdvlwNGTPT)"/><path fill="rgb(0,0,0)" stroke="none" paint-order="stroke" d="M 167.11593627929688 77.81818389892578 L 167.13766227848828 77.81818389892578 L 167.13766227848828 130.45454788208008 L 167.11593627929688 130.45454788208008 L 167.11593627929688 77.81818389892578" fill-opacity="1" clip-path="url(#waZdvlwNGTPT)"/><path fill="rgb(0,0,0)" stroke="none" paint-order="stroke" d="M 167.13766479492188 77.81818389892578 L 167.15811279416084 77.81818389892578 L 167.15811279416084 130.45454788208008 L 167.13766479492188 130.45454788208008 L 167.13766479492188 77.81818389892578" fill-opacity="1" clip-path="url(#waZdvlwNGTPT)"/><path fill="rgb(0,0,0)" stroke="none" paint-order="stroke" d="M 167.15811157226562 77.81818389892578 L 167.17983757145703 77.81818389892578 L 167.17983757145703 130.45454788208008 L 167.15811157226562 130.45454788208008 L 167.15811157226562 77.81818389892578" fill-opacity="1" clip-path="url(#waZdvlwNGTPT)"/><path fill="rgb(117,0,0)" stroke="none" paint-order="stroke" d="M 167.17984008789062 77.81818389892578 L 167.2002880871296 77.81818389892578 L 167.2002880871296 130.45454788208008 L 167.17984008789062 130.45454788208008 L 167.17984008789062 77.81818389892578" fill-opacity="1" clip-path="url(#waZdvlwNGTPT)"/><path fill="rgb(135,0,0)" stroke="none" paint-order="stroke" d="M 167.20028686523438 77.81818389892578 L 167.2232908643782 77.81818389892578 L 167.2232908643782 130.45454788208008 L 167.20028686523438 130.45454788208008 L 167.20028686523438 77.81818389892578" fill-opacity="1" clip-path="url(#waZdvlwNGTPT)"/><path fill="rgb(157,0,0)" stroke="none" paint-order="stroke" d="M 167.22329711914062 77.81818389892578 L 167.2437451183796 77.81818389892578 L 167.2437451183796 130.45454788208008 L 167.22329711914062 130.45454788208008 L 167.22329711914062 77.81818389892578" fill-opacity="1" clip-path="url(#waZdvlwNGTPT)"/><path fill="rgb(167,0,0)" stroke="none" paint-order="stroke" d="M 167.24374389648438 77.81818389892578 L 167.26546989567578 77.81818389892578 L 167.26546989567578 130.45454788208008 L 167.24374389648438 130.45454788208008 L 167.24374389648438 77.81818389892578" fill-opacity="1" clip-path="url(#waZdvlwNGTPT)"/><path fill="rgb(184,0,0)" stroke="none" paint-order="stroke" d="M 167.26547241210938 77.81818389892578 L 167.28592041134834 77.81818389892578 L 167.28592041134834 130.45454788208008 L 167.26547241210938 130.45454788208008 L 167.26547241210938 77.81818389892578" fill-opacity="1" clip-path="url(#waZdvlwNGTPT)"/><path fill="rgb(196,0,0)" stroke="none" paint-order="stroke" d="M 167.28591918945312 77.81818389892578 L 167.30764518864453 77.81818389892578 L 167.30764518864453 130.45454788208008 L 167.28591918945312 130.45454788208008 L 167.28591918945312 77.81818389892578" fill-opacity="1" clip-path="url(#waZdvlwNGTPT)"/><path fill="rgb(216,0,0)" stroke="none" paint-order="stroke" d="M 167.30764770507812 77.81818389892578 L 167.32937370426953 77.81818389892578 L 167.32937370426953 130.45454788208008 L 167.30764770507812 130.45454788208008 L 167.30764770507812 77.81818389892578" fill-opacity="1" clip-path="url(#waZdvlwNGTPT)"/><path fill="rgb(231,0,0)" stroke="none" paint-order="stroke" d="M 167.32936096191406 77.81818389892578 L 167.34980896115303 77.81818389892578 L 167.34980896115303 130.45454788208008 L 167.32936096191406 130.45454788208008 L 167.32936096191406 77.81818389892578" fill-opacity="1" clip-path="url(#waZdvlwNGTPT)"/><path fill="rgb(241,0,0)" stroke="none" paint-order="stroke" d="M 167.34982299804688 77.81818389892578 L 167.37154899723828 77.81818389892578 L 167.37154899723828 130.45454788208008 L 167.34982299804688 130.45454788208008 L 167.34982299804688 77.81818389892578" fill-opacity="1" clip-path="url(#waZdvlwNGTPT)"/><path fill="rgb(255,32,0)" stroke="none" paint-order="stroke" d="M 167.3715362548828 77.81818389892578 L 167.39326225407422 77.81818389892578 L 167.39326225407422 130.45454788208008 L 167.3715362548828 130.45454788208008 L 167.3715362548828 77.81818389892578" fill-opacity="1" clip-path="url(#waZdvlwNGTPT)"/><path fill="rgb(255,78,0)" stroke="none" paint-order="stroke" d="M 167.3932647705078 77.81818389892578 L 167.41499076969922 77.81818389892578 L 167.41499076969922 130.45454788208008 L 167.3932647705078 130.45454788208008 L 167.3932647705078 77.81818389892578" fill-opacity="1" clip-path="url(#waZdvlwNGTPT)"/><path fill="rgb(255,111,0)" stroke="none" paint-order="stroke" d="M 167.4149932861328 77.81818389892578 L 167.43671928532422 77.81818389892578 L 167.43671928532422 130.45454788208008 L 167.4149932861328 130.45454788208008 L 167.4149932861328 77.81818389892578" fill-opacity="1" clip-path="url(#waZdvlwNGTPT)"/><path fill="rgb(255,148,0)" stroke="none" paint-order="stroke" d="M 167.4367218017578 77.81818389892578 L 167.45716980099678 77.81818389892578 L 167.45716980099678 130.45454788208008 L 167.4367218017578 130.45454788208008 L 167.4367218017578 77.81818389892578" fill-opacity="1" clip-path="url(#waZdvlwNGTPT)"/><path fill="rgb(255,176,0)" stroke="none" paint-order="stroke" d="M 167.45716857910156 77.81818389892578 L 167.47889457829297 77.81818389892578 L 167.47889457829297 130.45454788208008 L 167.45716857910156 130.45454788208008 L 167.45716857910156 77.81818389892578" fill-opacity="1" clip-path="url(#waZdvlwNGTPT)"/><path fill="rgb(255,186,0)" stroke="none" paint-order="stroke" d="M 167.47889709472656 77.81818389892578 L 167.49934509396553 77.81818389892578 L 167.49934509396553 130.45454788208008 L 167.47889709472656 130.45454788208008 L 167.47889709472656 77.81818389892578" fill-opacity="1" clip-path="url(#waZdvlwNGTPT)"/><path fill="rgb(255,200,0)" stroke="none" paint-order="stroke" d="M 167.4993438720703 77.81818389892578 L 167.52106987126172 77.81818389892578 L 167.52106987126172 130.45454788208008 L 167.4993438720703 130.45454788208008 L 167.4993438720703 77.81818389892578" fill-opacity="1" clip-path="url(#waZdvlwNGTPT)"/><path fill="rgb(255,213,0)" stroke="none" paint-order="stroke" d="M 167.5210723876953 77.81818389892578 L 167.54152038693428 77.81818389892578 L 167.54152038693428 130.45454788208008 L 167.5210723876953 130.45454788208008 L 167.5210723876953 77.81818389892578" fill-opacity="1" clip-path="url(#waZdvlwNGTPT)"/><path fill="rgb(255,245,0)" stroke="none" paint-order="stroke" d="M 167.54151916503906 77.81818389892578 L 167.5645231641829 77.81818389892578 L 167.5645231641829 130.45454788208008 L 167.54151916503906 130.45454788208008 L 167.54151916503906 77.81818389892578" fill-opacity="1" clip-path="url(#waZdvlwNGTPT)"/><path fill="rgb(252,255,0)" stroke="none" paint-order="stroke" d="M 167.56451416015625 77.81818389892578 L 167.58496215939522 77.81818389892578 L 167.58496215939522 130.45454788208008 L 167.56451416015625 130.45454788208008 L 167.56451416015625 77.81818389892578" fill-opacity="1" clip-path="url(#waZdvlwNGTPT)"/><path fill="rgb(219,255,0)" stroke="none" paint-order="stroke" d="M 167.5849609375 77.81818389892578 L 167.6066869366914 77.81818389892578 L 167.6066869366914 130.45454788208008 L 167.5849609375 130.45454788208008 L 167.5849609375 77.81818389892578" fill-opacity="1" clip-path="url(#waZdvlwNGTPT)"/><path fill="rgb(162,255,0)" stroke="none" paint-order="stroke" d="M 167.606689453125 77.81818389892578 L 167.62713745236397 77.81818389892578 L 167.62713745236397 130.45454788208008 L 167.606689453125 130.45454788208008 L 167.606689453125 77.81818389892578" fill-opacity="1" clip-path="url(#waZdvlwNGTPT)"/><path fill="rgb(139,255,0)" stroke="none" paint-order="stroke" d="M 167.62713623046875 77.81818389892578 L 167.64886222966015 77.81818389892578 L 167.64886222966015 130.45454788208008 L 167.62713623046875 130.45454788208008 L 167.62713623046875 77.81818389892578" fill-opacity="1" clip-path="url(#waZdvlwNGTPT)"/><path fill="rgb(101,255,0)" stroke="none" paint-order="stroke" d="M 167.64886474609375 77.81818389892578 L 167.67059074528515 77.81818389892578 L 167.67059074528515 130.45454788208008 L 167.64886474609375 130.45454788208008 L 167.64886474609375 77.81818389892578" fill-opacity="1" clip-path="url(#waZdvlwNGTPT)"/><path fill="rgb(86,255,0)" stroke="none" paint-order="stroke" d="M 167.67059326171875 77.81818389892578 L 167.69104126095772 77.81818389892578 L 167.69104126095772 130.45454788208008 L 167.67059326171875 130.45454788208008 L 167.67059326171875 77.81818389892578" fill-opacity="1" clip-path="url(#waZdvlwNGTPT)"/><path fill="rgb(58,255,0)" stroke="none" paint-order="stroke" d="M 167.6910400390625 77.81818389892578 L 167.7127660382539 77.81818389892578 L 167.7127660382539 130.45454788208008 L 167.6910400390625 130.45454788208008 L 167.6910400390625 77.81818389892578" fill-opacity="1" clip-path="url(#waZdvlwNGTPT)"/><path fill="rgb(44,255,0)" stroke="none" paint-order="stroke" d="M 167.7127685546875 77.81818389892578 L 167.73321655392647 77.81818389892578 L 167.73321655392647 130.45454788208008 L 167.7127685546875 130.45454788208008 L 167.7127685546875 77.81818389892578" fill-opacity="1" clip-path="url(#waZdvlwNGTPT)"/><path fill="rgb(25,255,0)" stroke="none" paint-order="stroke" d="M 167.73321533203125 77.81818389892578 L 167.75494133122265 77.81818389892578 L 167.75494133122265 130.45454788208008 L 167.73321533203125 130.45454788208008 L 167.73321533203125 77.81818389892578" fill-opacity="1" clip-path="url(#waZdvlwNGTPT)"/><path fill="rgb(0,255,55)" stroke="none" paint-order="stroke" d="M 167.75494384765625 77.81818389892578 L 167.77666984684765 77.81818389892578 L 167.77666984684765 130.45454788208008 L 167.75494384765625 130.45454788208008 L 167.75494384765625 77.81818389892578" fill-opacity="1" clip-path="url(#waZdvlwNGTPT)"/><path fill="rgb(0,255,146)" stroke="none" paint-order="stroke" d="M 167.77667236328125 77.81818389892578 L 167.79839836247265 77.81818389892578 L 167.79839836247265 130.45454788208008 L 167.77667236328125 130.45454788208008 L 167.77667236328125 77.81818389892578" fill-opacity="1" clip-path="url(#waZdvlwNGTPT)"/><path fill="rgb(0,234,255)" stroke="none" paint-order="stroke" d="M 167.79840087890625 77.81818389892578 L 167.82012687809765 77.81818389892578 L 167.82012687809765 130.45454788208008 L 167.79840087890625 130.45454788208008 L 167.79840087890625 77.81818389892578" fill-opacity="1" clip-path="url(#waZdvlwNGTPT)"/><path fill="rgb(0,187,255)" stroke="none" paint-order="stroke" d="M 167.8201141357422 77.81818389892578 L 167.84056213498116 77.81818389892578 L 167.84056213498116 130.45454788208008 L 167.8201141357422 130.45454788208008 L 167.8201141357422 77.81818389892578" fill-opacity="1" clip-path="url(#waZdvlwNGTPT)"/><path fill="rgb(0,137,255)" stroke="none" paint-order="stroke" d="M 167.84056091308594 77.81818389892578 L 167.86228691227734 77.81818389892578 L 167.86228691227734 130.45454788208008 L 167.84056091308594 130.45454788208008 L 167.84056091308594 77.81818389892578" fill-opacity="1" clip-path="url(#waZdvlwNGTPT)"/><path fill="rgb(0,86,255)" stroke="none" paint-order="stroke" d="M 167.86228942871094 77.81818389892578 L 167.8827374279499 77.81818389892578 L 167.8827374279499 130.45454788208008 L 167.86228942871094 130.45454788208008 L 167.86228942871094 77.81818389892578" fill-opacity="1" clip-path="url(#waZdvlwNGTPT)"/><path fill="rgb(0,40,255)" stroke="none" paint-order="stroke" d="M 167.8827362060547 77.81818389892578 L 167.9044622052461 77.81818389892578 L 167.9044622052461 130.45454788208008 L 167.8827362060547 130.45454788208008 L 167.8827362060547 77.81818389892578" fill-opacity="1" clip-path="url(#waZdvlwNGTPT)"/><path fill="rgb(0,19,255)" stroke="none" paint-order="stroke" d="M 167.9044647216797 77.81818389892578 L 167.9261907208711 77.81818389892578 L 167.9261907208711 130.45454788208008 L 167.9044647216797 130.45454788208008 L 167.9044647216797 77.81818389892578" fill-opacity="1" clip-path="url(#waZdvlwNGTPT)"/><path fill="rgb(38,0,240)" stroke="none" paint-order="stroke" d="M 167.9261932373047 77.81818389892578 L 167.9479192364961 77.81818389892578 L 167.9479192364961 130.45454788208008 L 167.9261932373047 130.45454788208008 L 167.9261932373047 77.81818389892578" fill-opacity="1" clip-path="url(#waZdvlwNGTPT)"/><path fill="rgb(51,0,233)" stroke="none" paint-order="stroke" d="M 167.9479217529297 77.81818389892578 L 167.9900957532227 77.81818389892578 L 167.9900957532227 130.45454788208008 L 167.9479217529297 130.45454788208008 L 167.9479217529297 77.81818389892578" fill-opacity="1" clip-path="url(#waZdvlwNGTPT)"/><path fill="rgb(65,0,223)" stroke="none" paint-order="stroke" d="M 167.99009704589844 77.81818389892578 L 168.0105450451374 77.81818389892578 L 168.0105450451374 130.45454788208008 L 167.99009704589844 130.45454788208008 L 167.99009704589844 77.81818389892578" fill-opacity="1" clip-path="url(#waZdvlwNGTPT)"/><path fill="rgb(85,0,206)" stroke="none" paint-order="stroke" d="M 168.0105438232422 77.81818389892578 L 168.0322698224336 77.81818389892578 L 168.0322698224336 130.45454788208008 L 168.0105438232422 130.45454788208008 L 168.0105438232422 77.81818389892578" fill-opacity="1" clip-path="url(#waZdvlwNGTPT)"/><path fill="rgb(94,0,196)" stroke="none" paint-order="stroke" d="M 168.0322723388672 77.81818389892578 L 168.0833923406899 77.81818389892578 L 168.0833923406899 130.45454788208008 L 168.0322723388672 130.45454788208008 L 168.0322723388672 77.81818389892578" fill-opacity="1" clip-path="url(#waZdvlwNGTPT)"/><path fill="rgb(108,0,170)" stroke="none" paint-order="stroke" d="M 168.08338928222656 77.81818389892578 L 168.11789528280497 77.81818389892578 L 168.11789528280497 130.45454788208008 L 168.08338928222656 130.45454788208008 L 168.08338928222656 77.81818389892578" fill-opacity="1" clip-path="url(#waZdvlwNGTPT)"/><path fill="rgb(110,0,159)" stroke="none" paint-order="stroke" d="M 168.11788940429688 77.81818389892578 L 168.13961540348828 77.81818389892578 L 168.13961540348828 130.45454788208008 L 168.11788940429688 130.45454788208008 L 168.11788940429688 77.81818389892578" fill-opacity="1" clip-path="url(#waZdvlwNGTPT)"/><path fill="rgb(111,0,148)" stroke="none" paint-order="stroke" d="M 168.13961791992188 77.81818389892578 L 168.1817919202149 77.81818389892578 L 168.1817919202149 130.45454788208008 L 168.13961791992188 130.45454788208008 L 168.13961791992188 77.81818389892578" fill-opacity="1" clip-path="url(#waZdvlwNGTPT)"/><path fill="rgb(110,0,129)" stroke="none" paint-order="stroke" d="M 168.18179321289062 77.81818389892578 L 168.22524521127343 77.81818389892578 L 168.22524521127343 130.45454788208008 L 168.18179321289062 130.45454788208008 L 168.18179321289062 77.81818389892578" fill-opacity="1" clip-path="url(#waZdvlwNGTPT)"/><path fill="rgb(106,0,118)" stroke="none" paint-order="stroke" d="M 168.22525024414062 77.81818389892578 L 168.2456982433796 77.81818389892578 L 168.2456982433796 130.45454788208008 L 168.22525024414062 130.45454788208008 L 168.22525024414062 77.81818389892578" fill-opacity="1" clip-path="url(#waZdvlwNGTPT)"/><path fill="rgb(103,0,109)" stroke="none" paint-order="stroke" d="M 168.24569702148438 77.81818389892578 L 168.26614502072334 77.81818389892578 L 168.26614502072334 130.45454788208008 L 168.24569702148438 130.45454788208008 L 168.24569702148438 77.81818389892578" fill-opacity="1" clip-path="url(#waZdvlwNGTPT)"/><path fill="rgb(97,0,97)" stroke="none" paint-order="stroke" d="M 168.26614379882812 77.81818389892578 L 168.91025578975677 77.81818389892578 L 168.91025578975677 130.45454788208008 L 168.26614379882812 130.45454788208008 L 168.26614379882812 77.81818389892578" fill-opacity="1" clip-path="url(#waZdvlwNGTPT)"/><path fill="rgb(251,0,7)" stroke="none" paint-order="stroke" d="M 58.5 130.4545440673828 L 168.9102554321289 130.4545440673828 L 168.9102554321289 183.0909080505371 L 58.5 183.0909080505371 L 58.5 130.4545440673828" fill-opacity="1" clip-path="url(#baNZJLlsyAxd)"/><path fill="rgb(105,29,48)" stroke="none" paint-order="stroke" d="M 96.78376770019531 183.09091186523438 L 96.84766770154238 183.09091186523438 L 96.84766770154238 498.9090881347656 L 96.78376770019531 498.9090881347656 L 96.78376770019531 183.09091186523438" fill-opacity="1" clip-path="url(#wPPTAMPZqKsC)"/><path fill="rgb(255,188,66)" stroke="none" paint-order="stroke" d="M 89.52728271484375 183.09091186523438 L 91.85835480690002 183.09091186523438 L 91.85835480690002 498.9090881347656 L 89.52728271484375 498.9090881347656 L 89.52728271484375 183.09091186523438" fill-opacity="1" clip-path="url(#IUlGIreHigcB)"/><path fill="rgb(255,188,66)" stroke="none" paint-order="stroke" d="M 125.36624145507812 183.09091186523438 L 127.95163536071777 183.09091186523438 L 127.95163536071777 498.9090881347656 L 125.36624145507812 498.9090881347656 L 125.36624145507812 183.09091186523438" fill-opacity="1" clip-path="url(#IUlGIreHigcB)"/><path fill="rgb(162,174,187)" stroke="none" paint-order="stroke" d="M 93.1504135131836 183.09091186523438 L 93.21431351453066 183.09091186523438 L 93.21431351453066 498.9090881347656 L 93.1504135131836 498.9090881347656 L 93.1504135131836 183.09091186523438" fill-opacity="1" clip-path="url(#MeRyuPEdMNch)"/><path fill="rgb(162,174,187)" stroke="none" paint-order="stroke" d="M 94.0053939819336 183.09091186523438 L 94.06929398328066 183.09091186523438 L 94.06929398328066 498.9090881347656 L 94.0053939819336 498.9090881347656 L 94.0053939819336 183.09091186523438" fill-opacity="1" clip-path="url(#MeRyuPEdMNch)"/><path fill="rgb(162,174,187)" stroke="none" paint-order="stroke" d="M 110.12480926513672 183.09091186523438 L 110.18870926648378 183.09091186523438 L 110.18870926648378 498.9090881347656 L 110.12480926513672 498.9090881347656 L 110.12480926513672 183.09091186523438" fill-opacity="1" clip-path="url(#MeRyuPEdMNch)"/><path fill="rgb(255,188,66)" stroke="none" paint-order="stroke" d="M 94.60477447509766 183.09091186523438 L 95.87255048751831 183.09091186523438 L 95.87255048751831 498.9090881347656 L 94.60477447509766 498.9090881347656 L 94.60477447509766 183.09091186523438" fill-opacity="1" clip-path="url(#FsBuAtzxexqy)"/><path fill="rgb(255,188,66)" stroke="none" paint-order="stroke" d="M 98.23174285888672 183.09091186523438 L 99.25542080402374 183.09091186523438 L 99.25542080402374 498.9090881347656 L 98.23174285888672 498.9090881347656 L 98.23174285888672 183.09091186523438" fill-opacity="1" clip-path="url(#FsBuAtzxexqy)"/><path fill="rgb(216,17,89)" stroke="none" paint-order="stroke" d="M 85.02105712890625 183.09091186523438 L 85.08495713025331 183.09091186523438 L 85.08495713025331 498.9090881347656 L 85.02105712890625 498.9090881347656 L 85.02105712890625 183.09091186523438" fill-opacity="1" clip-path="url(#CTPPbMIcuOeX)"/><path fill="rgb(33,131,128)" stroke="none" paint-order="stroke" d="M 76.08399963378906 183.09091186523438 L 77.17285561561584 183.09091186523438 L 77.17285561561584 498.9090881347656 L 76.08399963378906 498.9090881347656 L 76.08399963378906 183.09091186523438" fill-opacity="1" clip-path="url(#xmMphETxFJEG)"/><path fill="rgb(115,210,222)" stroke="none" paint-order="stroke" d="M 102.19354248046875 183.09091186523438 L 108.36244869232178 183.09091186523438 L 108.36244869232178 498.9090881347656 L 102.19354248046875 498.9090881347656 L 102.19354248046875 183.09091186523438" fill-opacity="1" clip-path="url(#sfsERhNpQMCz)"/><path fill="rgb(115,210,222)" stroke="none" paint-order="stroke" d="M 113.26996612548828 183.09091186523438 L 115.3134880065918 183.09091186523438 L 115.3134880065918 498.9090881347656 L 113.26996612548828 498.9090881347656 L 113.26996612548828 183.09091186523438" fill-opacity="1" clip-path="url(#sfsERhNpQMCz)"/><path fill="rgb(115,210,222)" stroke="none" paint-order="stroke" d="M 147.25965881347656 183.09091186523438 L 160.15340042114258 183.09091186523438 L 160.15340042114258 498.9090881347656 L 147.25965881347656 498.9090881347656 L 147.25965881347656 183.09091186523438" fill-opacity="1" clip-path="url(#sfsERhNpQMCz)"/><path fill="rgb(28,49,68)" stroke="none" paint-order="stroke" d="M 78.72179412841797 183.09091186523438 L 83.18201398849487 183.09091186523438 L 83.18201398849487 498.9090881347656 L 78.72179412841797 498.9090881347656 L 78.72179412841797 183.09091186523438" fill-opacity="1" clip-path="url(#DTTDCioBzgTB)"/><path fill="rgb(28,49,68)" stroke="none" paint-order="stroke" d="M 116.96722412109375 183.09091186523438 L 124.4639720916748 183.09091186523438 L 124.4639720916748 498.9090881347656 L 116.96722412109375 498.9090881347656 L 116.96722412109375 183.09091186523438" fill-opacity="1" clip-path="url(#DTTDCioBzgTB)"/><path fill="rgb(28,49,68)" stroke="none" paint-order="stroke" d="M 129.04432678222656 183.09091186523438 L 144.24613666534424 183.09091186523438 L 144.24613666534424 498.9090881347656 L 129.04432678222656 498.9090881347656 L 129.04432678222656 183.09091186523438" fill-opacity="1" clip-path="url(#DTTDCioBzgTB)"/><path fill="rgb(105,29,48)" stroke="none" paint-order="stroke" d="M 86.34506225585938 183.09091186523438 L 88.92023229598999 183.09091186523438 L 88.92023229598999 498.9090881347656 L 86.34506225585938 498.9090881347656 L 86.34506225585938 183.09091186523438" fill-opacity="1" clip-path="url(#hAEZINWdFarI)"/><path fill="rgb(105,29,48)" stroke="none" paint-order="stroke" d="M 163.36117553710938 183.09091186523438 L 168.91025161743164 183.09091186523438 L 168.91025161743164 498.9090881347656 L 163.36117553710938 498.9090881347656 L 163.36117553710938 183.09091186523438" fill-opacity="1" clip-path="url(#hAEZINWdFarI)"/><path fill="rgb(143,45,86)" stroke="none" paint-order="stroke" d="M 58.5 551.5454711914062 L 99.25542068481445 551.5454711914062 L 99.25542068481445 604.1818351745605 L 58.5 604.1818351745605 L 58.5 551.5454711914062" fill-opacity="1" clip-path="url(#DMVlMTyCWyri)"/><path fill="rgb(63,136,197)" stroke="none" paint-order="stroke" d="M 99.25541687011719 551.5454711914062 L 110.12480640411377 551.5454711914062 L 110.12480640411377 604.1818351745605 L 99.25541687011719 604.1818351745605 L 99.25541687011719 551.5454711914062" fill-opacity="1" clip-path="url(#DMVlMTyCWyri)"/><path fill="rgb(81,60,99)" stroke="none" paint-order="stroke" d="M 110.12480926513672 551.5454711914062 L 168.91025161743164 551.5454711914062 L 168.91025161743164 604.1818351745605 L 110.12480926513672 604.1818351745605 L 110.12480926513672 551.5454711914062" fill-opacity="1" clip-path="url(#DMVlMTyCWyri)"/><path fill="none" stroke="rgb(0,0,0)" paint-order="fill" d="M 58.5 77.81818389892578 L 168.9102554321289 77.81818389892578 L 168.9102554321289 604.1818313598633 L 58.5 604.1818313598633 L 58.5 77.81818389892578" stroke-opacity="1" stroke-linejoin="bevel" stroke-miterlimit="10" stroke-dasharray="" clip-path="url(#yqfcxuPBgPEx)"/><path fill="none" stroke="rgb(0,0,0)" paint-order="fill" d="M 58.5 630.5 L 1336.5 630.5" stroke-opacity="1" stroke-linejoin="bevel" stroke-miterlimit="10" stroke-dasharray=""/><path fill="none" stroke="rgb(0,0,0)" paint-order="fill" d="M 58.5 636.5 L 58.5 628.5 M 314.5 636.5 L 314.5 628.5 M 569.5 636.5 L 569.5 628.5 M 825.5 636.5 L 825.5 628.5 M 1080.5 636.5 L 1080.5 628.5 M 1336.5 636.5 L 1336.5 628.5" stroke-opacity="1" stroke-linejoin="bevel" stroke-miterlimit="10" stroke-dasharray=""/><path fill="none" stroke="rgb(0,0,0)" paint-order="fill" d="M 58.5 634.5 L 58.5 630.5 M 109.5 634.5 L 109.5 630.5 M 160.5 634.5 L 160.5 630.5 M 211.5 634.5 L 211.5 630.5 M 262.5 634.5 L 262.5 630.5 M 314.5 634.5 L 314.5 630.5 M 365.5 634.5 L 365.5 630.5 M 416.5 634.5 L 416.5 630.5 M 467.5 634.5 L 467.5 630.5 M 518.5 634.5 L 518.5 630.5 M 569.5 634.5 L 569.5 630.5 M 620.5 634.5 L 620.5 630.5 M 671.5 634.5 L 671.5 630.5 M 723.5 634.5 L 723.5 630.5 M 774.5 634.5 L 774.5 630.5 M 825.5 634.5 L 825.5 630.5 M 876.5 634.5 L 876.5 630.5 M 927.5 634.5 L 927.5 630.5 M 978.5 634.5 L 978.5 630.5 M 1029.5 634.5 L 1029.5 630.5 M 1080.5 634.5 L 1080.5 630.5 M 1132.5 634.5 L 1132.5 630.5 M 1183.5 634.5 L 1183.5 630.5 M 1234.5 634.5 L 1234.5 630.5 M 1285.5 634.5 L 1285.5 630.5 M 1336.5 634.5 L 1336.5 630.5" stroke-opacity="1" stroke-linejoin="bevel" stroke-miterlimit="10" stroke-dasharray=""/><text fill="rgb(68,68,68)" stroke="none" font-family="helvetica" font-size="11px" font-style="normal" font-weight="normal" text-decoration="normal" x="54.94166660308838" y="648.89013671875" text-anchor="start" dominant-baseline="alphabetic" transform="matrix(1, 0, 0, 1, 0.5, 0.5)" fill-opacity="1">0</text><text fill="rgb(68,68,68)" stroke="none" font-family="helvetica" font-size="11px" font-style="normal" font-weight="normal" text-decoration="normal" x="304.42500591278076" y="648.89013671875" text-anchor="start" dominant-baseline="alphabetic" transform="matrix(1, 0, 0, 1, 0.5, 0.5)" fill-opacity="1">200</text><text fill="rgb(68,68,68)" stroke="none" font-family="helvetica" font-size="11px" font-style="normal" font-weight="normal" text-decoration="normal" x="560.0250120162964" y="648.89013671875" text-anchor="start" dominant-baseline="alphabetic" transform="matrix(1, 0, 0, 1, 0.5, 0.5)" fill-opacity="1">400</text><text fill="rgb(68,68,68)" stroke="none" font-family="helvetica" font-size="11px" font-style="normal" font-weight="normal" text-decoration="normal" x="815.6249876022339" y="648.89013671875" text-anchor="start" dominant-baseline="alphabetic" transform="matrix(1, 0, 0, 1, 0.5, 0.5)" fill-opacity="1">600</text><text fill="rgb(68,68,68)" stroke="none" font-family="helvetica" font-size="11px" font-style="normal" font-weight="normal" text-decoration="normal" x="1071.2250242233276" y="648.89013671875" text-anchor="start" dominant-baseline="alphabetic" transform="matrix(1, 0, 0, 1, 0.5, 0.5)" fill-opacity="1">800</text><text fill="rgb(68,68,68)" stroke="none" font-family="helvetica" font-size="11px" font-style="normal" font-weight="normal" text-decoration="normal" x="1323.7666664123535" y="648.89013671875" text-anchor="start" dominant-baseline="alphabetic" transform="matrix(1, 0, 0, 1, 0.5, 0.5)" fill-opacity="1">1000</text><text fill="rgb(68,68,68)" stroke="none" font-family="helvetica" font-size="15pt" font-style="italic" font-weight="normal" text-decoration="normal" x="666.4416675567627" y="676.06982421875" text-anchor="start" dominant-baseline="alphabetic" transform="matrix(1, 0, 0, 1, 0.5, 0.5)" fill-opacity="1">time(s)</text><path fill="none" stroke="rgb(0,0,0)" paint-order="fill" d="M 58.5 630.5 L 58.5 51.5" stroke-opacity="1" stroke-linejoin="bevel" stroke-miterlimit="10" stroke-dasharray=""/><path fill="none" stroke="rgb(0,0,0)" paint-order="fill" d="M 52.5 551.5 L 60.5 551.5 M 52.5 446.5 L 60.5 446.5 M 52.5 341.5 L 60.5 341.5 M 52.5 235.5 L 60.5 235.5 M 52.5 130.5 L 60.5 130.5" stroke-opacity="1" stroke-linejoin="bevel" stroke-miterlimit="10" stroke-dasharray=""/><path fill="none" stroke="rgb(0,0,0)" paint-order="fill" d="M 54.5 572.5 L 58.5 572.5 M 54.5 593.5 L 58.5 593.5 M 54.5 614.5 L 58.5 614.5 M 54.5 551.5 L 58.5 551.5 M 54.5 530.5 L 58.5 530.5 M 54.5 509.5 L 58.5 509.5 M 54.5 488.5 L 58.5 488.5 M 54.5 467.5 L 58.5 467.5 M 54.5 446.5 L 58.5 446.5 M 54.5 425.5 L 58.5 425.5 M 54.5 404.5 L 58.5 404.5 M 54.5 383.5 L 58.5 383.5 M 54.5 362.5 L 58.5 362.5 M 54.5 341.5 L 58.5 341.5 M 54.5 319.5 L 58.5 319.5 M 54.5 298.5 L 58.5 298.5 M 54.5 277.5 L 58.5 277.5 M 54.5 256.5 L 58.5 256.5 M 54.5 235.5 L 58.5 235.5 M 54.5 214.5 L 58.5 214.5 M 54.5 193.5 L 58.5 193.5 M 54.5 172.5 L 58.5 172.5 M 54.5 151.5 L 58.5 151.5 M 54.5 130.5 L 58.5 130.5 M 54.5 109.5 L 58.5 109.5 M 54.5 88.5 L 58.5 88.5 M 54.5 67.5 L 58.5 67.5" stroke-opacity="1" stroke-linejoin="bevel" stroke-miterlimit="10" stroke-dasharray=""/><text fill="rgb(68,68,68)" stroke="none" font-family="helvetica" font-size="11px" font-style="normal" font-weight="normal" text-decoration="normal" x="34.46666622161865" y="554.9905395507812" text-anchor="start" dominant-baseline="alphabetic" transform="matrix(1, 0, 0, 1, 0.5, 0.5)" fill-opacity="1">2</text><text fill="rgb(68,68,68)" stroke="none" font-family="helvetica" font-size="11px" font-style="normal" font-weight="normal" text-decoration="normal" x="34.46666622161865" y="449.7178039550781" text-anchor="start" dominant-baseline="alphabetic" transform="matrix(1, 0, 0, 1, 0.5, 0.5)" fill-opacity="1">1</text><text fill="rgb(68,68,68)" stroke="none" font-family="helvetica" font-size="11px" font-style="normal" font-weight="normal" text-decoration="normal" x="40.88333320617676" y="344.445068359375" text-anchor="start" dominant-baseline="alphabetic" transform="matrix(1, 0, 0, 1, 0.5, 0.5)" fill-opacity="1">0</text><text fill="rgb(68,68,68)" stroke="none" font-family="helvetica" font-size="11px" font-style="normal" font-weight="normal" text-decoration="normal" x="40.88333320617676" y="239.17234802246094" text-anchor="start" dominant-baseline="alphabetic" transform="matrix(1, 0, 0, 1, 0.5, 0.5)" fill-opacity="1">1</text><text fill="rgb(68,68,68)" stroke="none" font-family="helvetica" font-size="11px" font-style="normal" font-weight="normal" text-decoration="normal" x="40.88333320617676" y="133.8996124267578" text-anchor="start" dominant-baseline="alphabetic" transform="matrix(1, 0, 0, 1, 0.5, 0.5)" fill-opacity="1">2</text><text fill="rgb(68,68,68)" stroke="none" font-family="helvetica" font-size="15pt" font-style="italic" font-weight="normal" text-decoration="normal" x="-11.316666603088379" y="336.076171875" text-anchor="start" dominant-baseline="alphabetic" transform="matrix(6.123233995736766e-17, -1, 1, 6.123233995736766e-17, -313.53333377838135, 367.46666622161865)" fill-opacity="1">students</text><path fill="rgb(255,255,255)" stroke="rgb(229,229,229)" paint-order="fill" d="M 1128.2333374023438 61.5 L 1326.5 61.5 L 1326.5 400.5 L 1128.2333374023438 400.5 L 1128.2333374023438 61.5" fill-opacity="0.9490196078431372" clip-path="url(#AJvavpIvcTKZ)" stroke-opacity="0.5019607843137255" stroke-linejoin="bevel" stroke-miterlimit="10" stroke-dasharray=""/><text fill="rgb(68,68,68)" stroke="none" font-family="helvetica" font-size="13px" font-style="normal" font-weight="normal" text-decoration="normal" x="1162.7333374023438" y="81" text-anchor="start" dominant-baseline="central" clip-path="url(#AJvavpIvcTKZ)" transform="matrix(1, 0, 0, 1, 0.5, 0.5)" fill-opacity="1">wavelength</text><path fill="rgb(0,255,40)" stroke="none" paint-order="stroke" d="M 1140.2333374023438 73.5 L 1156.2333374023438 73.5 L 1156.2333374023438 89.5 L 1140.2333374023438 89.5 L 1140.2333374023438 73.5" fill-opacity="1" clip-path="url(#AJvavpIvcTKZ)"/><path fill="rgb(216,17,89)" stroke="none" paint-order="stroke" d="M 1140.2333374023438 73.5 L 1156.2333374023438 73.5 L 1156.2333374023438 89.5 L 1140.2333374023438 89.5 L 1140.2333374023438 73.5" fill-opacity="1" clip-path="url(#AJvavpIvcTKZ)"/><text fill="rgb(68,68,68)" stroke="none" font-family="helvetica" font-size="13px" font-style="normal" font-weight="normal" text-decoration="normal" x="1162.7333374023438" y="104" text-anchor="start" dominant-baseline="central" clip-path="url(#AJvavpIvcTKZ)" transform="matrix(1, 0, 0, 1, 0.5, 0.5)" fill-opacity="1">solution</text><path fill="rgb(251,0,7)" stroke="none" paint-order="stroke" d="M 1140.2333374023438 96.5 L 1156.2333374023438 96.5 L 1156.2333374023438 112.5 L 1140.2333374023438 112.5 L 1140.2333374023438 96.5" fill-opacity="1" clip-path="url(#AJvavpIvcTKZ)"/><path fill="rgb(33,131,128)" stroke="none" paint-order="stroke" d="M 1140.2333374023438 96.5 L 1156.2333374023438 96.5 L 1156.2333374023438 112.5 L 1140.2333374023438 112.5 L 1140.2333374023438 96.5" fill-opacity="1" clip-path="url(#AJvavpIvcTKZ)"/><text fill="rgb(68,68,68)" stroke="none" font-family="helvetica" font-size="13px" font-style="normal" font-weight="normal" text-decoration="normal" x="1162.7333374023438" y="127" text-anchor="start" dominant-baseline="central" clip-path="url(#AJvavpIvcTKZ)" transform="matrix(1, 0, 0, 1, 0.5, 0.5)" fill-opacity="1">laser</text><path fill="rgb(105,29,48)" stroke="none" paint-order="stroke" d="M 1140.2333374023438 119.5 L 1156.2333374023438 119.5 L 1156.2333374023438 135.5 L 1140.2333374023438 135.5 L 1140.2333374023438 119.5" fill-opacity="1" clip-path="url(#AJvavpIvcTKZ)"/><text fill="rgb(68,68,68)" stroke="none" font-family="helvetica" font-size="13px" font-style="normal" font-weight="normal" text-decoration="normal" x="1162.7333374023438" y="150" text-anchor="start" dominant-baseline="central" clip-path="url(#AJvavpIvcTKZ)" transform="matrix(1, 0, 0, 1, 0.5, 0.5)" fill-opacity="1">ruler</text><path fill="rgb(255,188,66)" stroke="none" paint-order="stroke" d="M 1140.2333374023438 142.5 L 1156.2333374023438 142.5 L 1156.2333374023438 158.5 L 1140.2333374023438 158.5 L 1140.2333374023438 142.5" fill-opacity="1" clip-path="url(#AJvavpIvcTKZ)"/><text fill="rgb(68,68,68)" stroke="none" font-family="helvetica" font-size="13px" font-style="normal" font-weight="normal" text-decoration="normal" x="1162.7333374023438" y="173" text-anchor="start" dominant-baseline="central" clip-path="url(#AJvavpIvcTKZ)" transform="matrix(1, 0, 0, 1, 0.5, 0.5)" fill-opacity="1">restarts</text><text fill="rgb(68,68,68)" stroke="none" font-family="helvetica" font-size="13px" font-style="normal" font-weight="normal" text-decoration="normal" x="1162.7333374023438" y="196" text-anchor="start" dominant-baseline="central" clip-path="url(#AJvavpIvcTKZ)" transform="matrix(1, 0, 0, 1, 0.5, 0.5)" fill-opacity="1">transmittance_absorbance</text><path fill="rgb(162,174,187)" stroke="none" paint-order="stroke" d="M 1140.2333374023438 188.5 L 1156.2333374023438 188.5 L 1156.2333374023438 204.5 L 1140.2333374023438 204.5 L 1140.2333374023438 188.5" fill-opacity="1" clip-path="url(#AJvavpIvcTKZ)"/><text fill="rgb(68,68,68)" stroke="none" font-family="helvetica" font-size="13px" font-style="normal" font-weight="normal" text-decoration="normal" x="1162.7333374023438" y="219" text-anchor="start" dominant-baseline="central" clip-path="url(#AJvavpIvcTKZ)" transform="matrix(1, 0, 0, 1, 0.5, 0.5)" fill-opacity="1">magnifier</text><path fill="rgb(255,188,66)" stroke="none" paint-order="stroke" d="M 1140.2333374023438 211.5 L 1156.2333374023438 211.5 L 1156.2333374023438 227.5 L 1140.2333374023438 227.5 L 1140.2333374023438 211.5" fill-opacity="1" clip-path="url(#AJvavpIvcTKZ)"/><text fill="rgb(68,68,68)" stroke="none" font-family="helvetica" font-size="13px" font-style="normal" font-weight="normal" text-decoration="normal" x="1162.7333374023438" y="242" text-anchor="start" dominant-baseline="central" clip-path="url(#AJvavpIvcTKZ)" transform="matrix(1, 0, 0, 1, 0.5, 0.5)" fill-opacity="1">concentration</text><path fill="rgb(115,210,222)" stroke="none" paint-order="stroke" d="M 1140.2333374023438 234.5 L 1156.2333374023438 234.5 L 1156.2333374023438 250.5 L 1140.2333374023438 250.5 L 1140.2333374023438 234.5" fill-opacity="1" clip-path="url(#AJvavpIvcTKZ)"/><text fill="rgb(68,68,68)" stroke="none" font-family="helvetica" font-size="13px" font-style="normal" font-weight="normal" text-decoration="normal" x="1162.7333374023438" y="265" text-anchor="start" dominant-baseline="central" clip-path="url(#AJvavpIvcTKZ)" transform="matrix(1, 0, 0, 1, 0.5, 0.5)" fill-opacity="1">flask</text><path fill="rgb(28,49,68)" stroke="none" paint-order="stroke" d="M 1140.2333374023438 257.5 L 1156.2333374023438 257.5 L 1156.2333374023438 273.5 L 1140.2333374023438 273.5 L 1140.2333374023438 257.5" fill-opacity="1" clip-path="url(#AJvavpIvcTKZ)"/><text fill="rgb(68,68,68)" stroke="none" font-family="helvetica" font-size="13px" font-style="normal" font-weight="normal" text-decoration="normal" x="1162.7333374023438" y="288" text-anchor="start" dominant-baseline="central" clip-path="url(#AJvavpIvcTKZ)" transform="matrix(1, 0, 0, 1, 0.5, 0.5)" fill-opacity="1">pdf</text><text fill="rgb(68,68,68)" stroke="none" font-family="helvetica" font-size="13px" font-style="normal" font-weight="normal" text-decoration="normal" x="1162.7333374023438" y="311" text-anchor="start" dominant-baseline="central" clip-path="url(#AJvavpIvcTKZ)" transform="matrix(1, 0, 0, 1, 0.5, 0.5)" fill-opacity="1">concentrationlab</text><text fill="rgb(68,68,68)" stroke="none" font-family="helvetica" font-size="13px" font-style="normal" font-weight="normal" text-decoration="normal" x="1162.7333374023438" y="334" text-anchor="start" dominant-baseline="central" clip-path="url(#AJvavpIvcTKZ)" transform="matrix(1, 0, 0, 1, 0.5, 0.5)" fill-opacity="1">wavelength_slider</text><path fill="rgb(105,29,48)" stroke="none" paint-order="stroke" d="M 1140.2333374023438 326.5 L 1156.2333374023438 326.5 L 1156.2333374023438 342.5 L 1140.2333374023438 342.5 L 1140.2333374023438 326.5" fill-opacity="1" clip-path="url(#AJvavpIvcTKZ)"/><text fill="rgb(68,68,68)" stroke="none" font-family="helvetica" font-size="13px" font-style="normal" font-weight="normal" text-decoration="normal" x="1162.7333374023438" y="357" text-anchor="start" dominant-baseline="central" clip-path="url(#AJvavpIvcTKZ)" transform="matrix(1, 0, 0, 1, 0.5, 0.5)" fill-opacity="1">ruler measuring</text><text fill="rgb(68,68,68)" stroke="none" font-family="helvetica" font-size="13px" font-style="normal" font-weight="normal" text-decoration="normal" x="1162.7333374023438" y="380" text-anchor="start" dominant-baseline="central" clip-path="url(#AJvavpIvcTKZ)" transform="matrix(1, 0, 0, 1, 0.5, 0.5)" fill-opacity="1">dependent variable</text><path fill="rgb(143,45,86)" stroke="none" paint-order="stroke" d="M 1140.2333374023438 372.5 L 1156.2333374023438 372.5 L 1156.2333374023438 388.5 L 1140.2333374023438 388.5 L 1140.2333374023438 372.5" fill-opacity="1" clip-path="url(#AJvavpIvcTKZ)"/><text fill="rgb(68,68,68)" stroke="none" font-family="helvetica" font-size="25pt" font-style="normal" font-weight="bold" text-decoration="normal" x="58" y="38.740885416666664" text-anchor="start" dominant-baseline="alphabetic" transform="matrix(1, 0, 0, 1, 0.5, 0.5)" fill-opacity="1">Timeline for student qqf6nsga with permutation 2130 for task 3</text></svg>