<svg version="1.1" xmlns="http://www.w3.org/2000/svg" width="1366" height="683"><defs><clipPath id="gigmVvUUJmCf"><path fill="none" stroke="none" d="M 58.5 51.5 L 1336.5 51.5 L 1336.5 630.5 L 58.5 630.5 L 58.5 51.5"/></clipPath><clipPath id="TKdlyQsfMSeq"><path fill="none" stroke="none" d="M 58.5 51.5 L 1336.5 51.5 L 1336.5 630.5 L 58.5 630.5 L 58.5 51.5"/></clipPath><clipPath id="dfNNdkHmIrcG"><path fill="none" stroke="none" d="M 58.5 51.5 L 1336.5 51.5 L 1336.5 630.5 L 58.5 630.5 L 58.5 51.5"/></clipPath><clipPath id="uqGTDhxXOPCt"><path fill="none" stroke="none" d="M 58.5 51.5 L 1336.5 51.5 L 1336.5 630.5 L 58.5 630.5 L 58.5 51.5"/></clipPath><clipPath id="OFiSMTtWUZUs"><path fill="none" stroke="none" d="M 58.5 51.5 L 1336.5 51.5 L 1336.5 630.5 L 58.5 630.5 L 58.5 51.5"/></clipPath><clipPath id="mimuTatXFsDE"><path fill="none" stroke="none" d="M 58.5 51.5 L 1336.5 51.5 L 1336.5 630.5 L 58.5 630.5 L 58.5 51.5"/></clipPath><clipPath id="LFxcHwBdPTnb"><path fill="none" stroke="none" d="M 58.5 51.5 L 1336.5 51.5 L 1336.5 630.5 L 58.5 630.5 L 58.5 51.5"/></clipPath><clipPath id="JwwiCPKBBIXF"><path fill="none" stroke="none" d="M 58.5 51.5 L 1336.5 51.5 L 1336.5 630.5 L 58.5 630.5 L 58.5 51.5"/></clipPath><clipPath id="IOZEuHCIPVcX"><path fill="none" stroke="none" d="M 58.5 51.5 L 1336.5 51.5 L 1336.5 630.5 L 58.5 630.5 L 58.5 51.5"/></clipPath><clipPath id="qeNCSyQKpoTO"><path fill="none" stroke="none" d="M 58.5 51.5 L 1336.5 51.5 L 1336.5 630.5 L 58.5 630.5 L 58.5 51.5"/></clipPath><clipPath id="wdPcLAtmqxVf"><path fill="none" stroke="none" d="M 58.5 51.5 L 1336.5 51.5 L 1336.5 630.5 L 58.5 630.5 L 58.5 51.5"/></clipPath><clipPath id="OnCeVQPgdwyb"><path fill="none" stroke="none" d="M 58.5 51.5 L 1336.5 51.5 L 1336.5 630.5 L 58.5 630.5 L 58.5 51.5"/></clipPath><clipPath id="tAhTyFJpOOck"><path fill="none" stroke="none" d="M 58.5 51.5 L 1336.5 51.5 L 1336.5 630.5 L 58.5 630.5 L 58.5 51.5"/></clipPath><clipPath id="WHiWLsvTLOKI"><path fill="none" stroke="none" d="M 58.5 51.5 L 1336.5 51.5 L 1336.5 630.5 L 58.5 630.5 L 58.5 51.5"/></clipPath><clipPath id="uVDAMwNOyMbU"><path fill="none" stroke="none" d="M 58.5 51.5 L 1336.5 51.5 L 1336.5 630.5 L 58.5 630.5 L 58.5 51.5"/></clipPath><clipPath id="ZeztFrwwwNre"><path fill="none" stroke="none" d="M 58.5 51.5 L 1336.5 51.5 L 1336.5 630.5 L 58.5 630.5 L 58.5 51.5"/></clipPath><clipPath id="TwTxeQflvpiE"><path fill="none" stroke="none" d="M 58.5 51.5 L 1336.5 51.5 L 1336.5 630.5 L 58.5 630.5 L 58.5 51.5"/></clipPath><clipPath id="SQPSnLxRpAED"><path fill="none" stroke="none" d="M 58.5 51.5 L 1336.5 51.5 L 1336.5 630.5 L 58.5 630.5 L 58.5 51.5"/></clipPath><clipPath id="uZoDiVGyggQo"><path fill="none" stroke="none" d="M 58.5 51.5 L 1336.5 51.5 L 1336.5 630.5 L 58.5 630.5 L 58.5 51.5"/></clipPath><clipPath id="ThGxlFIDqkQr"><path fill="none" stroke="none" d="M 58.5 51.5 L 1336.5 51.5 L 1336.5 630.5 L 58.5 630.5 L 58.5 51.5"/></clipPath><clipPath id="BsCZIfGwNzbv"><path fill="none" stroke="none" d="M 58.5 51.5 L 1336.5 51.5 L 1336.5 630.5 L 58.5 630.5 L 58.5 51.5"/></clipPath></defs><path fill="rgb(255,255,255)" stroke="none" paint-order="stroke" d="M 0.5 0.5 L 1366.5 0.5 L 1366.5 683.5 L 0.5 683.5 L 0.5 0.5" fill-opacity="1"/><rect fill="#FFFFFF" stroke="none" x="58" y="51" width="1278" height="579" transform="matrix(1, 0, 0, 1, 0.5, 0.5)"/><path fill="rgb(255,255,255)" stroke="none" paint-order="stroke" d="M 58.5 51.5 L 1336.5 51.5 L 1336.5 630.5 L 58.5 630.5 L 58.5 51.5" fill-opacity="1"/><path fill="none" stroke="rgb(229,229,229)" paint-order="fill" d="M 58.5 51.5 L 1336.5 51.5 L 1336.5 630.5 L 58.5 630.5 L 58.5 51.5" stroke-opacity="1" stroke-linejoin="bevel" stroke-miterlimit="10" stroke-dasharray=""/><path fill="none" stroke="rgb(229,229,229)" paint-order="fill" d="M 314.5 630.5 L 314.5 51.5 M 569.5 630.5 L 569.5 51.5 M 825.5 630.5 L 825.5 51.5 M 1080.5 630.5 L 1080.5 51.5" stroke-opacity="1" stroke-linejoin="bevel" stroke-miterlimit="10" stroke-dasharray="" clip-path="url(#gigmVvUUJmCf)"/><path fill="none" stroke="rgb(229,229,229)" paint-order="fill" d="M 58.5 551.5 L 1336.5 551.5 M 58.5 446.5 L 1336.5 446.5 M 58.5 341.5 L 1336.5 341.5 M 58.5 235.5 L 1336.5 235.5 M 58.5 130.5 L 1336.5 130.5" stroke-opacity="1" stroke-linejoin="bevel" stroke-miterlimit="10" stroke-dasharray="" clip-path="url(#TKdlyQsfMSeq)"/><path fill="rgb(0,255,40)" stroke="none" paint-order="stroke" d="M 58.5 77.81818389892578 L 78.37801170349121 77.81818389892578 L 78.37801170349121 130.45454788208008 L 58.5 130.45454788208008 L 58.5 77.81818389892578" fill-opacity="1" clip-path="url(#dfNNdkHmIrcG)"/><path fill="rgb(110,0,132)" stroke="none" paint-order="stroke" d="M 78.37801361083984 77.81818389892578 L 138.23186492919922 77.81818389892578 L 138.23186492919922 130.45454788208008 L 78.37801361083984 130.45454788208008 L 78.37801361083984 77.81818389892578" fill-opacity="1" clip-path="url(#dfNNdkHmIrcG)"/><path fill="rgb(251,0,7)" stroke="none" paint-order="stroke" d="M 58.5 130.4545440673828 L 78.37801170349121 130.4545440673828 L 78.37801170349121 183.0909080505371 L 58.5 183.0909080505371 L 58.5 130.4545440673828" fill-opacity="1" clip-path="url(#uqGTDhxXOPCt)"/><path fill="rgb(252,105,8)" stroke="none" paint-order="stroke" d="M 78.37801361083984 130.4545440673828 L 138.23186492919922 130.4545440673828 L 138.23186492919922 183.0909080505371 L 78.37801361083984 183.0909080505371 L 78.37801361083984 130.4545440673828" fill-opacity="1" clip-path="url(#uqGTDhxXOPCt)"/><path fill="rgb(105,29,48)" stroke="none" paint-order="stroke" d="M 71.12535858154297 183.09091186523438 L 71.18925858289003 183.09091186523438 L 71.18925858289003 498.9090881347656 L 71.12535858154297 498.9090881347656 L 71.12535858154297 183.09091186523438" fill-opacity="1" clip-path="url(#OFiSMTtWUZUs)"/><path fill="rgb(105,29,48)" stroke="none" paint-order="stroke" d="M 73.11392974853516 183.09091186523438 L 73.17782974988222 183.09091186523438 L 73.17782974988222 498.9090881347656 L 73.11392974853516 498.9090881347656 L 73.11392974853516 183.09091186523438" fill-opacity="1" clip-path="url(#OFiSMTtWUZUs)"/><path fill="rgb(105,29,48)" stroke="none" paint-order="stroke" d="M 124.02689361572266 183.09091186523438 L 124.09079361706972 183.09091186523438 L 124.09079361706972 498.9090881347656 L 124.02689361572266 498.9090881347656 L 124.02689361572266 183.09091186523438" fill-opacity="1" clip-path="url(#OFiSMTtWUZUs)"/><path fill="rgb(255,188,66)" stroke="none" paint-order="stroke" d="M 80.22216796875 183.09091186523438 L 91.79957008361816 183.09091186523438 L 91.79957008361816 498.9090881347656 L 80.22216796875 498.9090881347656 L 80.22216796875 183.09091186523438" fill-opacity="1" clip-path="url(#mimuTatXFsDE)"/><path fill="rgb(162,174,187)" stroke="none" paint-order="stroke" d="M 133.3933563232422 183.09091186523438 L 133.45725632458925 183.09091186523438 L 133.45725632458925 498.9090881347656 L 133.3933563232422 498.9090881347656 L 133.3933563232422 183.09091186523438" fill-opacity="1" clip-path="url(#JwwiCPKBBIXF)"/><path fill="rgb(255,188,66)" stroke="none" paint-order="stroke" d="M 61.452178955078125 183.09091186523438 L 61.707778960466385 183.09091186523438 L 61.707778960466385 498.9090881347656 L 61.452178955078125 498.9090881347656 L 61.452178955078125 183.09091186523438" fill-opacity="1" clip-path="url(#IOZEuHCIPVcX)"/><path fill="rgb(255,188,66)" stroke="none" paint-order="stroke" d="M 65.61334991455078 183.09091186523438 L 66.89134991168976 183.09091186523438 L 66.89134991168976 498.9090881347656 L 65.61334991455078 498.9090881347656 L 65.61334991455078 183.09091186523438" fill-opacity="1" clip-path="url(#IOZEuHCIPVcX)"/><path fill="rgb(255,188,66)" stroke="none" paint-order="stroke" d="M 67.4715576171875 183.09091186523438 L 69.15212762355804 183.09091186523438 L 69.15212762355804 498.9090881347656 L 67.4715576171875 498.9090881347656 L 67.4715576171875 183.09091186523438" fill-opacity="1" clip-path="url(#IOZEuHCIPVcX)"/><path fill="rgb(255,188,66)" stroke="none" paint-order="stroke" d="M 121.55907440185547 183.09091186523438 L 123.07222640514374 183.09091186523438 L 123.07222640514374 498.9090881347656 L 121.55907440185547 498.9090881347656 L 121.55907440185547 183.09091186523438" fill-opacity="1" clip-path="url(#IOZEuHCIPVcX)"/><path fill="rgb(255,188,66)" stroke="none" paint-order="stroke" d="M 125.70491027832031 183.09091186523438 L 131.9006543159485 183.09091186523438 L 131.9006543159485 498.9090881347656 L 125.70491027832031 498.9090881347656 L 125.70491027832031 183.09091186523438" fill-opacity="1" clip-path="url(#IOZEuHCIPVcX)"/><path fill="rgb(255,188,66)" stroke="none" paint-order="stroke" d="M 134.72503662109375 183.09091186523438 L 135.8164485692978 183.09091186523438 L 135.8164485692978 498.9090881347656 L 134.72503662109375 498.9090881347656 L 134.72503662109375 183.09091186523438" fill-opacity="1" clip-path="url(#IOZEuHCIPVcX)"/><path fill="rgb(33,131,128)" stroke="none" paint-order="stroke" d="M 75.54085540771484 183.09091186523438 L 78.37801551818848 183.09091186523438 L 78.37801551818848 498.9090881347656 L 75.54085540771484 498.9090881347656 L 75.54085540771484 183.09091186523438" fill-opacity="1" clip-path="url(#wdPcLAtmqxVf)"/><path fill="rgb(115,210,222)" stroke="none" paint-order="stroke" d="M 93.1913070678711 183.09091186523438 L 99.58258485794067 183.09091186523438 L 99.58258485794067 498.9090881347656 L 93.1913070678711 498.9090881347656 L 93.1913070678711 183.09091186523438" fill-opacity="1" clip-path="url(#OnCeVQPgdwyb)"/><path fill="rgb(115,210,222)" stroke="none" paint-order="stroke" d="M 137.705322265625 183.09091186523438 L 138.231858253479 183.09091186523438 L 138.231858253479 498.9090881347656 L 137.705322265625 498.9090881347656 L 137.705322265625 183.09091186523438" fill-opacity="1" clip-path="url(#OnCeVQPgdwyb)"/><path fill="rgb(239,185,203)" stroke="none" paint-order="stroke" d="M 105.92402648925781 183.09091186523438 L 119.7149248123169 183.09091186523438 L 119.7149248123169 498.9090881347656 L 105.92402648925781 498.9090881347656 L 105.92402648925781 183.09091186523438" fill-opacity="1" clip-path="url(#WHiWLsvTLOKI)"/><path fill="rgb(255,188,66)" stroke="none" paint-order="stroke" d="M 84.0830078125 498.9090881347656 L 87.6269018650055 498.9090881347656 L 87.6269018650055 551.5454521179199 L 84.0830078125 551.5454521179199 L 84.0830078125 498.9090881347656" fill-opacity="1" clip-path="url(#TwTxeQflvpiE)"/><path fill="rgb(255,188,66)" stroke="none" paint-order="stroke" d="M 89.1387710571289 498.9090881347656 L 89.22567505389452 498.9090881347656 L 89.22567505389452 551.5454521179199 L 89.1387710571289 551.5454521179199 L 89.1387710571289 498.9090881347656" fill-opacity="1" clip-path="url(#TwTxeQflvpiE)"/><path fill="rgb(255,188,66)" stroke="none" paint-order="stroke" d="M 89.94774627685547 498.9090881347656 L 90.741384267807 498.9090881347656 L 90.741384267807 551.5454521179199 L 89.94774627685547 551.5454521179199 L 89.94774627685547 498.9090881347656" fill-opacity="1" clip-path="url(#TwTxeQflvpiE)"/><path fill="rgb(143,45,86)" stroke="none" paint-order="stroke" d="M 58.5 551.5454711914062 L 124.02689361572266 551.5454711914062 L 124.02689361572266 604.1818351745605 L 58.5 604.1818351745605 L 58.5 551.5454711914062" fill-opacity="1" clip-path="url(#SQPSnLxRpAED)"/><path fill="rgb(63,136,197)" stroke="none" paint-order="stroke" d="M 124.02689361572266 551.5454711914062 L 125.99245762825012 551.5454711914062 L 125.99245762825012 604.1818351745605 L 124.02689361572266 604.1818351745605 L 124.02689361572266 551.5454711914062" fill-opacity="1" clip-path="url(#SQPSnLxRpAED)"/><path fill="rgb(143,45,86)" stroke="none" paint-order="stroke" d="M 125.9924545288086 551.5454711914062 L 126.16370652616024 551.5454711914062 L 126.16370652616024 604.1818351745605 L 125.9924545288086 604.1818351745605 L 125.9924545288086 551.5454711914062" fill-opacity="1" clip-path="url(#SQPSnLxRpAED)"/><path fill="rgb(63,136,197)" stroke="none" paint-order="stroke" d="M 126.16371154785156 551.5454711914062 L 126.21099754795432 551.5454711914062 L 126.21099754795432 604.1818351745605 L 126.16371154785156 604.1818351745605 L 126.16371154785156 551.5454711914062" fill-opacity="1" clip-path="url(#SQPSnLxRpAED)"/><path fill="rgb(143,45,86)" stroke="none" paint-order="stroke" d="M 126.21099853515625 551.5454711914062 L 127.40592849254608 551.5454711914062 L 127.40592849254608 604.1818351745605 L 126.21099853515625 604.1818351745605 L 126.21099853515625 551.5454711914062" fill-opacity="1" clip-path="url(#SQPSnLxRpAED)"/><path fill="rgb(63,136,197)" stroke="none" paint-order="stroke" d="M 127.40592956542969 551.5454711914062 L 127.51200356334448 551.5454711914062 L 127.51200356334448 604.1818351745605 L 127.40592956542969 604.1818351745605 L 127.40592956542969 551.5454711914062" fill-opacity="1" clip-path="url(#SQPSnLxRpAED)"/><path fill="rgb(143,45,86)" stroke="none" paint-order="stroke" d="M 127.51200103759766 551.5454711914062 L 127.69603303074837 551.5454711914062 L 127.69603303074837 604.1818351745605 L 127.51200103759766 604.1818351745605 L 127.51200103759766 551.5454711914062" fill-opacity="1" clip-path="url(#SQPSnLxRpAED)"/><path fill="rgb(63,136,197)" stroke="none" paint-order="stroke" d="M 127.69602966308594 551.5454711914062 L 127.7164776623249 551.5454711914062 L 127.7164776623249 604.1818351745605 L 127.69602966308594 604.1818351745605 L 127.69602966308594 551.5454711914062" fill-opacity="1" clip-path="url(#SQPSnLxRpAED)"/><path fill="rgb(143,45,86)" stroke="none" paint-order="stroke" d="M 127.71647644042969 551.5454711914062 L 128.04620045423508 551.5454711914062 L 128.04620045423508 604.1818351745605 L 127.71647644042969 604.1818351745605 L 127.71647644042969 551.5454711914062" fill-opacity="1" clip-path="url(#SQPSnLxRpAED)"/><path fill="rgb(63,136,197)" stroke="none" paint-order="stroke" d="M 128.04620361328125 551.5454711914062 L 128.3324756026268 551.5454711914062 L 128.3324756026268 604.1818351745605 L 128.04620361328125 604.1818351745605 L 128.04620361328125 551.5454711914062" fill-opacity="1" clip-path="url(#SQPSnLxRpAED)"/><path fill="rgb(143,45,86)" stroke="none" paint-order="stroke" d="M 128.3324737548828 551.5454711914062 L 128.5689037591219 551.5454711914062 L 128.5689037591219 604.1818351745605 L 128.3324737548828 604.1818351745605 L 128.3324737548828 551.5454711914062" fill-opacity="1" clip-path="url(#SQPSnLxRpAED)"/><path fill="rgb(63,136,197)" stroke="none" paint-order="stroke" d="M 128.56890869140625 551.5454711914062 L 128.86668267846107 551.5454711914062 L 128.86668267846107 604.1818351745605 L 128.56890869140625 604.1818351745605 L 128.56890869140625 551.5454711914062" fill-opacity="1" clip-path="url(#SQPSnLxRpAED)"/><path fill="rgb(143,45,86)" stroke="none" paint-order="stroke" d="M 128.86668395996094 551.5454711914062 L 129.6794919371605 551.5454711914062 L 129.6794919371605 604.1818351745605 L 128.86668395996094 604.1818351745605 L 128.86668395996094 551.5454711914062" fill-opacity="1" clip-path="url(#SQPSnLxRpAED)"/><path fill="rgb(63,136,197)" stroke="none" paint-order="stroke" d="M 129.6794891357422 551.5454711914062 L 129.89802713692188 551.5454711914062 L 129.89802713692188 604.1818351745605 L 129.6794891357422 604.1818351745605 L 129.6794891357422 551.5454711914062" fill-opacity="1" clip-path="url(#SQPSnLxRpAED)"/><path fill="rgb(143,45,86)" stroke="none" paint-order="stroke" d="M 129.8980255126953 551.5454711914062 L 130.53830349445343 551.5454711914062 L 130.53830349445343 604.1818351745605 L 129.8980255126953 604.1818351745605 L 129.8980255126953 551.5454711914062" fill-opacity="1" clip-path="url(#SQPSnLxRpAED)"/><path fill="rgb(63,136,197)" stroke="none" paint-order="stroke" d="M 130.53829956054688 551.5454711914062 L 133.3933515548706 551.5454711914062 L 133.3933515548706 604.1818351745605 L 130.53829956054688 604.1818351745605 L 130.53829956054688 551.5454711914062" fill-opacity="1" clip-path="url(#SQPSnLxRpAED)"/><path fill="rgb(81,60,99)" stroke="none" paint-order="stroke" d="M 133.3933563232422 551.5454711914062 L 138.23186445236206 551.5454711914062 L 138.23186445236206 604.1818351745605 L 133.3933563232422 604.1818351745605 L 133.3933563232422 551.5454711914062" fill-opacity="1" clip-path="url(#SQPSnLxRpAED)"/><path fill="none" stroke="rgb(0,0,0)" paint-order="fill" d="M 58.5 77.81818389892578 L 138.23186492919922 77.81818389892578 L 138.23186492919922 604.1818313598633 L 58.5 604.1818313598633 L 58.5 77.81818389892578" stroke-opacity="1" stroke-linejoin="bevel" stroke-miterlimit="10" stroke-dasharray="" clip-path="url(#uZoDiVGyggQo)"/><path fill="none" stroke="rgb(0,0,0)" paint-order="fill" d="M 58.5 630.5 L 1336.5 630.5" stroke-opacity="1" stroke-linejoin="bevel" stroke-miterlimit="10" stroke-dasharray=""/><path fill="none" stroke="rgb(0,0,0)" paint-order="fill" d="M 58.5 636.5 L 58.5 628.5 M 314.5 636.5 L 314.5 628.5 M 569.5 636.5 L 569.5 628.5 M 825.5 636.5 L 825.5 628.5 M 1080.5 636.5 L 1080.5 628.5 M 1336.5 636.5 L 1336.5 628.5" stroke-opacity="1" stroke-linejoin="bevel" stroke-miterlimit="10" stroke-dasharray=""/><path fill="none" stroke="rgb(0,0,0)" paint-order="fill" d="M 58.5 634.5 L 58.5 630.5 M 109.5 634.5 L 109.5 630.5 M 160.5 634.5 L 160.5 630.5 M 211.5 634.5 L 211.5 630.5 M 262.5 634.5 L 262.5 630.5 M 314.5 634.5 L 314.5 630.5 M 365.5 634.5 L 365.5 630.5 M 416.5 634.5 L 416.5 630.5 M 467.5 634.5 L 467.5 630.5 M 518.5 634.5 L 518.5 630.5 M 569.5 634.5 L 569.5 630.5 M 620.5 634.5 L 620.5 630.5 M 671.5 634.5 L 671.5 630.5 M 723.5 634.5 L 723.5 630.5 M 774.5 634.5 L 774.5 630.5 M 825.5 634.5 L 825.5 630.5 M 876.5 634.5 L 876.5 630.5 M 927.5 634.5 L 927.5 630.5 M 978.5 634.5 L 978.5 630.5 M 1029.5 634.5 L 1029.5 630.5 M 1080.5 634.5 L 1080.5 630.5 M 1132.5 634.5 L 1132.5 630.5 M 1183.5 634.5 L 1183.5 630.5 M 1234.5 634.5 L 1234.5 630.5 M 1285.5 634.5 L 1285.5 630.5 M 1336.5 634.5 L 1336.5 630.5" stroke-opacity="1" stroke-linejoin="bevel" stroke-miterlimit="10" stroke-dasharray=""/><text fill="rgb(68,68,68)" stroke="none" font-family="helvetica" font-size="11px" font-style="normal" font-weight="normal" text-decoration="normal" x="54.94166660308838" y="648.89013671875" text-anchor="start" dominant-baseline="alphabetic" transform="matrix(1, 0, 0, 1, 0.5, 0.5)" fill-opacity="1">0</text><text fill="rgb(68,68,68)" stroke="none" font-family="helvetica" font-size="11px" font-style="normal" font-weight="normal" text-decoration="normal" x="304.42500591278076" y="648.89013671875" text-anchor="start" dominant-baseline="alphabetic" transform="matrix(1, 0, 0, 1, 0.5, 0.5)" fill-opacity="1">200</text><text fill="rgb(68,68,68)" stroke="none" font-family="helvetica" font-size="11px" font-style="normal" font-weight="normal" text-decoration="normal" x="560.0250120162964" y="648.89013671875" text-anchor="start" dominant-baseline="alphabetic" transform="matrix(1, 0, 0, 1, 0.5, 0.5)" fill-opacity="1">400</text><text fill="rgb(68,68,68)" stroke="none" font-family="helvetica" font-size="11px" font-style="normal" font-weight="normal" text-decoration="normal" x="815.6249876022339" y="648.89013671875" text-anchor="start" dominant-baseline="alphabetic" transform="matrix(1, 0, 0, 1, 0.5, 0.5)" fill-opacity="1">600</text><text fill="rgb(68,68,68)" stroke="none" font-family="helvetica" font-size="11px" font-style="normal" font-weight="normal" text-decoration="normal" x="1071.2250242233276" y="648.89013671875" text-anchor="start" dominant-baseline="alphabetic" transform="matrix(1, 0, 0, 1, 0.5, 0.5)" fill-opacity="1">800</text><text fill="rgb(68,68,68)" stroke="none" font-family="helvetica" font-size="11px" font-style="normal" font-weight="normal" text-decoration="normal" x="1323.7666664123535" y="648.89013671875" text-anchor="start" dominant-baseline="alphabetic" transform="matrix(1, 0, 0, 1, 0.5, 0.5)" fill-opacity="1">1000</text><text fill="rgb(68,68,68)" stroke="none" font-family="helvetica" font-size="15pt" font-style="italic" font-weight="normal" text-decoration="normal" x="666.4416675567627" y="676.06982421875" text-anchor="start" dominant-baseline="alphabetic" transform="matrix(1, 0, 0, 1, 0.5, 0.5)" fill-opacity="1">time(s)</text><path fill="none" stroke="rgb(0,0,0)" paint-order="fill" d="M 58.5 630.5 L 58.5 51.5" stroke-opacity="1" stroke-linejoin="bevel" stroke-miterlimit="10" stroke-dasharray=""/><path fill="none" stroke="rgb(0,0,0)" paint-order="fill" d="M 52.5 551.5 L 60.5 551.5 M 52.5 446.5 L 60.5 446.5 M 52.5 341.5 L 60.5 341.5 M 52.5 235.5 L 60.5 235.5 M 52.5 130.5 L 60.5 130.5" stroke-opacity="1" stroke-linejoin="bevel" stroke-miterlimit="10" stroke-dasharray=""/><path fill="none" stroke="rgb(0,0,0)" paint-order="fill" d="M 54.5 572.5 L 58.5 572.5 M 54.5 593.5 L 58.5 593.5 M 54.5 614.5 L 58.5 614.5 M 54.5 551.5 L 58.5 551.5 M 54.5 530.5 L 58.5 530.5 M 54.5 509.5 L 58.5 509.5 M 54.5 488.5 L 58.5 488.5 M 54.5 467.5 L 58.5 467.5 M 54.5 446.5 L 58.5 446.5 M 54.5 425.5 L 58.5 425.5 M 54.5 404.5 L 58.5 404.5 M 54.5 383.5 L 58.5 383.5 M 54.5 362.5 L 58.5 362.5 M 54.5 341.5 L 58.5 341.5 M 54.5 319.5 L 58.5 319.5 M 54.5 298.5 L 58.5 298.5 M 54.5 277.5 L 58.5 277.5 M 54.5 256.5 L 58.5 256.5 M 54.5 235.5 L 58.5 235.5 M 54.5 214.5 L 58.5 214.5 M 54.5 193.5 L 58.5 193.5 M 54.5 172.5 L 58.5 172.5 M 54.5 151.5 L 58.5 151.5 M 54.5 130.5 L 58.5 130.5 M 54.5 109.5 L 58.5 109.5 M 54.5 88.5 L 58.5 88.5 M 54.5 67.5 L 58.5 67.5" stroke-opacity="1" stroke-linejoin="bevel" stroke-miterlimit="10" stroke-dasharray=""/><text fill="rgb(68,68,68)" stroke="none" font-family="helvetica" font-size="11px" font-style="normal" font-weight="normal" text-decoration="normal" x="34.46666622161865" y="554.9905395507812" text-anchor="start" dominant-baseline="alphabetic" transform="matrix(1, 0, 0, 1, 0.5, 0.5)" fill-opacity="1">−2</text><text fill="rgb(68,68,68)" stroke="none" font-family="helvetica" font-size="11px" font-style="normal" font-weight="normal" text-decoration="normal" x="34.46666622161865" y="449.7178039550781" text-anchor="start" dominant-baseline="alphabetic" transform="matrix(1, 0, 0, 1, 0.5, 0.5)" fill-opacity="1">−1</text><text fill="rgb(68,68,68)" stroke="none" font-family="helvetica" font-size="11px" font-style="normal" font-weight="normal" text-decoration="normal" x="40.88333320617676" y="344.445068359375" text-anchor="start" dominant-baseline="alphabetic" transform="matrix(1, 0, 0, 1, 0.5, 0.5)" fill-opacity="1">0</text><text fill="rgb(68,68,68)" stroke="none" font-family="helvetica" font-size="11px" font-style="normal" font-weight="normal" text-decoration="normal" x="40.88333320617676" y="239.17234802246094" text-anchor="start" dominant-baseline="alphabetic" transform="matrix(1, 0, 0, 1, 0.5, 0.5)" fill-opacity="1">1</text><text fill="rgb(68,68,68)" stroke="none" font-family="helvetica" font-size="11px" font-style="normal" font-weight="normal" text-decoration="normal" x="40.88333320617676" y="133.8996124267578" text-anchor="start" dominant-baseline="alphabetic" transform="matrix(1, 0, 0, 1, 0.5, 0.5)" fill-opacity="1">2</text><text fill="rgb(68,68,68)" stroke="none" font-family="helvetica" font-size="15pt" font-style="italic" font-weight="normal" text-decoration="normal" x="-11.316666603088379" y="336.076171875" text-anchor="start" dominant-baseline="alphabetic" transform="matrix(6.123233995736766e-17, -1, 1, 6.123233995736766e-17, -313.53333377838135, 367.46666622161865)" fill-opacity="1">students</text><path fill="rgb(255,255,255)" stroke="rgb(229,229,229)" paint-order="fill" d="M 1128.2333374023438 61.5 L 1326.5 61.5 L 1326.5 400.5 L 1128.2333374023438 400.5 L 1128.2333374023438 61.5" fill-opacity="0.9490196078431372" clip-path="url(#ThGxlFIDqkQr)" stroke-opacity="0.5019607843137255" stroke-linejoin="bevel" stroke-miterlimit="10" stroke-dasharray=""/><g clip-path="url(#ThGxlFIDqkQr)"><text fill="rgb(68,68,68)" stroke="none" font-family="helvetica" font-size="13px" font-style="normal" font-weight="normal" text-decoration="normal" x="1162.7333374023438" y="81" text-anchor="start" dominant-baseline="central" transform="matrix(1, 0, 0, 1, 0.5, 0.5)" fill-opacity="1">wavelength</text></g><path fill="rgb(0,255,40)" stroke="none" paint-order="stroke" d="M 1140.2333374023438 73.5 L 1156.2333374023438 73.5 L 1156.2333374023438 89.5 L 1140.2333374023438 89.5 L 1140.2333374023438 73.5" fill-opacity="1" clip-path="url(#ThGxlFIDqkQr)"/><g clip-path="url(#ThGxlFIDqkQr)"><text fill="rgb(68,68,68)" stroke="none" font-family="helvetica" font-size="13px" font-style="normal" font-weight="normal" text-decoration="normal" x="1162.7333374023438" y="104" text-anchor="start" dominant-baseline="central" transform="matrix(1, 0, 0, 1, 0.5, 0.5)" fill-opacity="1">solution</text></g><path fill="rgb(251,0,7)" stroke="none" paint-order="stroke" d="M 1140.2333374023438 96.5 L 1156.2333374023438 96.5 L 1156.2333374023438 112.5 L 1140.2333374023438 112.5 L 1140.2333374023438 96.5" fill-opacity="1" clip-path="url(#ThGxlFIDqkQr)"/><path fill="rgb(33,131,128)" stroke="none" paint-order="stroke" d="M 1140.2333374023438 96.5 L 1156.2333374023438 96.5 L 1156.2333374023438 112.5 L 1140.2333374023438 112.5 L 1140.2333374023438 96.5" fill-opacity="1" clip-path="url(#ThGxlFIDqkQr)"/><g clip-path="url(#ThGxlFIDqkQr)"><text fill="rgb(68,68,68)" stroke="none" font-family="helvetica" font-size="13px" font-style="normal" font-weight="normal" text-decoration="normal" x="1162.7333374023438" y="127" text-anchor="start" dominant-baseline="central" transform="matrix(1, 0, 0, 1, 0.5, 0.5)" fill-opacity="1">laser</text></g><path fill="rgb(105,29,48)" stroke="none" paint-order="stroke" d="M 1140.2333374023438 119.5 L 1156.2333374023438 119.5 L 1156.2333374023438 135.5 L 1140.2333374023438 135.5 L 1140.2333374023438 119.5" fill-opacity="1" clip-path="url(#ThGxlFIDqkQr)"/><g clip-path="url(#ThGxlFIDqkQr)"><text fill="rgb(68,68,68)" stroke="none" font-family="helvetica" font-size="13px" font-style="normal" font-weight="normal" text-decoration="normal" x="1162.7333374023438" y="150" text-anchor="start" dominant-baseline="central" transform="matrix(1, 0, 0, 1, 0.5, 0.5)" fill-opacity="1">ruler</text></g><path fill="rgb(255,188,66)" stroke="none" paint-order="stroke" d="M 1140.2333374023438 142.5 L 1156.2333374023438 142.5 L 1156.2333374023438 158.5 L 1140.2333374023438 158.5 L 1140.2333374023438 142.5" fill-opacity="1" clip-path="url(#ThGxlFIDqkQr)"/><g clip-path="url(#ThGxlFIDqkQr)"><text fill="rgb(68,68,68)" stroke="none" font-family="helvetica" font-size="13px" font-style="normal" font-weight="normal" text-decoration="normal" x="1162.7333374023438" y="173" text-anchor="start" dominant-baseline="central" transform="matrix(1, 0, 0, 1, 0.5, 0.5)" fill-opacity="1">restarts</text></g><g clip-path="url(#ThGxlFIDqkQr)"><text fill="rgb(68,68,68)" stroke="none" font-family="helvetica" font-size="13px" font-style="normal" font-weight="normal" text-decoration="normal" x="1162.7333374023438" y="196" text-anchor="start" dominant-baseline="central" transform="matrix(1, 0, 0, 1, 0.5, 0.5)" fill-opacity="1">transmittance_absorbance</text></g><path fill="rgb(162,174,187)" stroke="none" paint-order="stroke" d="M 1140.2333374023438 188.5 L 1156.2333374023438 188.5 L 1156.2333374023438 204.5 L 1140.2333374023438 204.5 L 1140.2333374023438 188.5" fill-opacity="1" clip-path="url(#ThGxlFIDqkQr)"/><g clip-path="url(#ThGxlFIDqkQr)"><text fill="rgb(68,68,68)" stroke="none" font-family="helvetica" font-size="13px" font-style="normal" font-weight="normal" text-decoration="normal" x="1162.7333374023438" y="219" text-anchor="start" dominant-baseline="central" transform="matrix(1, 0, 0, 1, 0.5, 0.5)" fill-opacity="1">magnifier</text></g><path fill="rgb(255,188,66)" stroke="none" paint-order="stroke" d="M 1140.2333374023438 211.5 L 1156.2333374023438 211.5 L 1156.2333374023438 227.5 L 1140.2333374023438 227.5 L 1140.2333374023438 211.5" fill-opacity="1" clip-path="url(#ThGxlFIDqkQr)"/><g clip-path="url(#ThGxlFIDqkQr)"><text fill="rgb(68,68,68)" stroke="none" font-family="helvetica" font-size="13px" font-style="normal" font-weight="normal" text-decoration="normal" x="1162.7333374023438" y="242" text-anchor="start" dominant-baseline="central" transform="matrix(1, 0, 0, 1, 0.5, 0.5)" fill-opacity="1">concentration</text></g><path fill="rgb(115,210,222)" stroke="none" paint-order="stroke" d="M 1140.2333374023438 234.5 L 1156.2333374023438 234.5 L 1156.2333374023438 250.5 L 1140.2333374023438 250.5 L 1140.2333374023438 234.5" fill-opacity="1" clip-path="url(#ThGxlFIDqkQr)"/><g clip-path="url(#ThGxlFIDqkQr)"><text fill="rgb(68,68,68)" stroke="none" font-family="helvetica" font-size="13px" font-style="normal" font-weight="normal" text-decoration="normal" x="1162.7333374023438" y="265" text-anchor="start" dominant-baseline="central" transform="matrix(1, 0, 0, 1, 0.5, 0.5)" fill-opacity="1">flask</text></g><g clip-path="url(#ThGxlFIDqkQr)"><text fill="rgb(68,68,68)" stroke="none" font-family="helvetica" font-size="13px" font-style="normal" font-weight="normal" text-decoration="normal" x="1162.7333374023438" y="288" text-anchor="start" dominant-baseline="central" transform="matrix(1, 0, 0, 1, 0.5, 0.5)" fill-opacity="1">pdf</text></g><path fill="rgb(239,185,203)" stroke="none" paint-order="stroke" d="M 1140.2333374023438 280.5 L 1156.2333374023438 280.5 L 1156.2333374023438 296.5 L 1140.2333374023438 296.5 L 1140.2333374023438 280.5" fill-opacity="1" clip-path="url(#ThGxlFIDqkQr)"/><g clip-path="url(#ThGxlFIDqkQr)"><text fill="rgb(68,68,68)" stroke="none" font-family="helvetica" font-size="13px" font-style="normal" font-weight="normal" text-decoration="normal" x="1162.7333374023438" y="311" text-anchor="start" dominant-baseline="central" transform="matrix(1, 0, 0, 1, 0.5, 0.5)" fill-opacity="1">concentrationlab</text></g><g clip-path="url(#ThGxlFIDqkQr)"><text fill="rgb(68,68,68)" stroke="none" font-family="helvetica" font-size="13px" font-style="normal" font-weight="normal" text-decoration="normal" x="1162.7333374023438" y="334" text-anchor="start" dominant-baseline="central" transform="matrix(1, 0, 0, 1, 0.5, 0.5)" fill-opacity="1">wavelength_slider</text></g><g clip-path="url(#ThGxlFIDqkQr)"><text fill="rgb(68,68,68)" stroke="none" font-family="helvetica" font-size="13px" font-style="normal" font-weight="normal" text-decoration="normal" x="1162.7333374023438" y="357" text-anchor="start" dominant-baseline="central" transform="matrix(1, 0, 0, 1, 0.5, 0.5)" fill-opacity="1">ruler measuring</text></g><path fill="rgb(255,188,66)" stroke="none" paint-order="stroke" d="M 1140.2333374023438 349.5 L 1156.2333374023438 349.5 L 1156.2333374023438 365.5 L 1140.2333374023438 365.5 L 1140.2333374023438 349.5" fill-opacity="1" clip-path="url(#ThGxlFIDqkQr)"/><g clip-path="url(#ThGxlFIDqkQr)"><text fill="rgb(68,68,68)" stroke="none" font-family="helvetica" font-size="13px" font-style="normal" font-weight="normal" text-decoration="normal" x="1162.7333374023438" y="380" text-anchor="start" dominant-baseline="central" transform="matrix(1, 0, 0, 1, 0.5, 0.5)" fill-opacity="1">dependent variable</text></g><path fill="rgb(143,45,86)" stroke="none" paint-order="stroke" d="M 1140.2333374023438 372.5 L 1156.2333374023438 372.5 L 1156.2333374023438 388.5 L 1140.2333374023438 388.5 L 1140.2333374023438 372.5" fill-opacity="1" clip-path="url(#ThGxlFIDqkQr)"/><text fill="rgb(68,68,68)" stroke="none" font-family="helvetica" font-size="25pt" font-style="normal" font-weight="bold" text-decoration="normal" x="58" y="38.740885416666664" text-anchor="start" dominant-baseline="alphabetic" transform="matrix(1, 0, 0, 1, 0.5, 0.5)" fill-opacity="1">Timeline for student egg8756y with permutation 3012 for task 1</text></svg>