<svg version="1.1" xmlns="http://www.w3.org/2000/svg" width="1366" height="683"><defs><clipPath id="EESJTIOqxsEF"><path fill="none" stroke="none" d="M 58.5 51.5 L 1336.5 51.5 L 1336.5 630.5 L 58.5 630.5 L 58.5 51.5"/></clipPath><clipPath id="rADNOsXBrQDI"><path fill="none" stroke="none" d="M 58.5 51.5 L 1336.5 51.5 L 1336.5 630.5 L 58.5 630.5 L 58.5 51.5"/></clipPath><clipPath id="MVxzEWkIkmrX"><path fill="none" stroke="none" d="M 58.5 51.5 L 1336.5 51.5 L 1336.5 630.5 L 58.5 630.5 L 58.5 51.5"/></clipPath><clipPath id="nplBRhpRXTRZ"><path fill="none" stroke="none" d="M 58.5 51.5 L 1336.5 51.5 L 1336.5 630.5 L 58.5 630.5 L 58.5 51.5"/></clipPath><clipPath id="zbtaQNOwSDtL"><path fill="none" stroke="none" d="M 58.5 51.5 L 1336.5 51.5 L 1336.5 630.5 L 58.5 630.5 L 58.5 51.5"/></clipPath><clipPath id="tzLwdCIRrsCa"><path fill="none" stroke="none" d="M 58.5 51.5 L 1336.5 51.5 L 1336.5 630.5 L 58.5 630.5 L 58.5 51.5"/></clipPath><clipPath id="pTqrKHvnhCwW"><path fill="none" stroke="none" d="M 58.5 51.5 L 1336.5 51.5 L 1336.5 630.5 L 58.5 630.5 L 58.5 51.5"/></clipPath><clipPath id="aHySqblwabJr"><path fill="none" stroke="none" d="M 58.5 51.5 L 1336.5 51.5 L 1336.5 630.5 L 58.5 630.5 L 58.5 51.5"/></clipPath><clipPath id="FvGTmeUhqHNf"><path fill="none" stroke="none" d="M 58.5 51.5 L 1336.5 51.5 L 1336.5 630.5 L 58.5 630.5 L 58.5 51.5"/></clipPath><clipPath id="ChbIyAwTvmbE"><path fill="none" stroke="none" d="M 58.5 51.5 L 1336.5 51.5 L 1336.5 630.5 L 58.5 630.5 L 58.5 51.5"/></clipPath><clipPath id="aNzGQvHoIkfi"><path fill="none" stroke="none" d="M 58.5 51.5 L 1336.5 51.5 L 1336.5 630.5 L 58.5 630.5 L 58.5 51.5"/></clipPath><clipPath id="nbfzkulauIfJ"><path fill="none" stroke="none" d="M 58.5 51.5 L 1336.5 51.5 L 1336.5 630.5 L 58.5 630.5 L 58.5 51.5"/></clipPath><clipPath id="uSDxCPsQlSOQ"><path fill="none" stroke="none" d="M 58.5 51.5 L 1336.5 51.5 L 1336.5 630.5 L 58.5 630.5 L 58.5 51.5"/></clipPath><clipPath id="krcQWCGwTFar"><path fill="none" stroke="none" d="M 58.5 51.5 L 1336.5 51.5 L 1336.5 630.5 L 58.5 630.5 L 58.5 51.5"/></clipPath><clipPath id="fhrTUJbeRzfI"><path fill="none" stroke="none" d="M 58.5 51.5 L 1336.5 51.5 L 1336.5 630.5 L 58.5 630.5 L 58.5 51.5"/></clipPath><clipPath id="cxAimTuUTMuw"><path fill="none" stroke="none" d="M 58.5 51.5 L 1336.5 51.5 L 1336.5 630.5 L 58.5 630.5 L 58.5 51.5"/></clipPath><clipPath id="GgwdCCxisDyN"><path fill="none" stroke="none" d="M 58.5 51.5 L 1336.5 51.5 L 1336.5 630.5 L 58.5 630.5 L 58.5 51.5"/></clipPath><clipPath id="LozwEMRPLvNO"><path fill="none" stroke="none" d="M 58.5 51.5 L 1336.5 51.5 L 1336.5 630.5 L 58.5 630.5 L 58.5 51.5"/></clipPath><clipPath id="ZSgmigiSNrPb"><path fill="none" stroke="none" d="M 58.5 51.5 L 1336.5 51.5 L 1336.5 630.5 L 58.5 630.5 L 58.5 51.5"/></clipPath><clipPath id="ToRRrxbVwkod"><path fill="none" stroke="none" d="M 58.5 51.5 L 1336.5 51.5 L 1336.5 630.5 L 58.5 630.5 L 58.5 51.5"/></clipPath><clipPath id="ctKzZrBRmyWA"><path fill="none" stroke="none" d="M 58.5 51.5 L 1336.5 51.5 L 1336.5 630.5 L 58.5 630.5 L 58.5 51.5"/></clipPath></defs><path fill="rgb(255,255,255)" stroke="none" paint-order="stroke" d="M 0.5 0.5 L 1366.5 0.5 L 1366.5 683.5 L 0.5 683.5 L 0.5 0.5" fill-opacity="1"/><rect fill="#FFFFFF" stroke="none" x="58" y="51" width="1278" height="579" transform="matrix(1, 0, 0, 1, 0.5, 0.5)"/><path fill="rgb(255,255,255)" stroke="none" paint-order="stroke" d="M 58.5 51.5 L 1336.5 51.5 L 1336.5 630.5 L 58.5 630.5 L 58.5 51.5" fill-opacity="1"/><path fill="none" stroke="rgb(229,229,229)" paint-order="fill" d="M 58.5 51.5 L 1336.5 51.5 L 1336.5 630.5 L 58.5 630.5 L 58.5 51.5" stroke-opacity="1" stroke-linejoin="bevel" stroke-miterlimit="10" stroke-dasharray=""/><path fill="none" stroke="rgb(229,229,229)" paint-order="fill" d="M 314.5 630.5 L 314.5 51.5 M 569.5 630.5 L 569.5 51.5 M 825.5 630.5 L 825.5 51.5 M 1080.5 630.5 L 1080.5 51.5" stroke-opacity="1" stroke-linejoin="bevel" stroke-miterlimit="10" stroke-dasharray="" clip-path="url(#EESJTIOqxsEF)"/><path fill="none" stroke="rgb(229,229,229)" paint-order="fill" d="M 58.5 551.5 L 1336.5 551.5 M 58.5 446.5 L 1336.5 446.5 M 58.5 341.5 L 1336.5 341.5 M 58.5 235.5 L 1336.5 235.5 M 58.5 130.5 L 1336.5 130.5" stroke-opacity="1" stroke-linejoin="bevel" stroke-miterlimit="10" stroke-dasharray="" clip-path="url(#rADNOsXBrQDI)"/><path fill="rgb(0,255,40)" stroke="none" paint-order="stroke" d="M 58.5 77.81818389892578 L 695.5318603515625 77.81818389892578 L 695.5318603515625 130.45454788208008 L 58.5 130.45454788208008 L 58.5 77.81818389892578" fill-opacity="1" clip-path="url(#MVxzEWkIkmrX)"/><path fill="rgb(0,255,146)" stroke="none" paint-order="stroke" d="M 695.5318603515625 77.81818389892578 L 695.6941663473845 77.81818389892578 L 695.6941663473845 130.45454788208008 L 695.5318603515625 130.45454788208008 L 695.5318603515625 77.81818389892578" fill-opacity="1" clip-path="url(#MVxzEWkIkmrX)"/><path fill="rgb(0,255,180)" stroke="none" paint-order="stroke" d="M 695.6942138671875 77.81818389892578 L 695.7363878674805 77.81818389892578 L 695.7363878674805 130.45454788208008 L 695.6942138671875 130.45454788208008 L 695.6942138671875 77.81818389892578" fill-opacity="1" clip-path="url(#MVxzEWkIkmrX)"/><path fill="rgb(0,255,213)" stroke="none" paint-order="stroke" d="M 695.7363891601562 77.81818389892578 L 695.779841158539 77.81818389892578 L 695.779841158539 130.45454788208008 L 695.7363891601562 130.45454788208008 L 695.7363891601562 77.81818389892578" fill-opacity="1" clip-path="url(#MVxzEWkIkmrX)"/><path fill="rgb(0,246,255)" stroke="none" paint-order="stroke" d="M 695.77978515625 77.81818389892578 L 695.821959156543 77.81818389892578 L 695.821959156543 130.45454788208008 L 695.77978515625 130.45454788208008 L 695.77978515625 77.81818389892578" fill-opacity="1" clip-path="url(#MVxzEWkIkmrX)"/><path fill="rgb(0,238,255)" stroke="none" paint-order="stroke" d="M 695.8219604492188 77.81818389892578 L 695.9088644459844 77.81818389892578 L 695.9088644459844 130.45454788208008 L 695.8219604492188 130.45454788208008 L 695.8219604492188 77.81818389892578" fill-opacity="1" clip-path="url(#MVxzEWkIkmrX)"/><path fill="rgb(0,213,255)" stroke="none" paint-order="stroke" d="M 695.9088745117188 77.81818389892578 L 695.9293225109577 77.81818389892578 L 695.9293225109577 130.45454788208008 L 695.9088745117188 130.45454788208008 L 695.9088745117188 77.81818389892578" fill-opacity="1" clip-path="url(#MVxzEWkIkmrX)"/><path fill="rgb(0,200,255)" stroke="none" paint-order="stroke" d="M 695.9293212890625 77.81818389892578 L 695.9727732874453 77.81818389892578 L 695.9727732874453 130.45454788208008 L 695.9293212890625 130.45454788208008 L 695.9293212890625 77.81818389892578" fill-opacity="1" clip-path="url(#MVxzEWkIkmrX)"/><path fill="rgb(0,187,255)" stroke="none" paint-order="stroke" d="M 695.9727783203125 77.81818389892578 L 696.2079303264618 77.81818389892578 L 696.2079303264618 130.45454788208008 L 695.9727783203125 130.45454788208008 L 695.9727783203125 77.81818389892578" fill-opacity="1" clip-path="url(#MVxzEWkIkmrX)"/><path fill="rgb(0,173,255)" stroke="none" paint-order="stroke" d="M 696.2079467773438 77.81818389892578 L 696.3574727773666 77.81818389892578 L 696.3574727773666 130.45454788208008 L 696.2079467773438 130.45454788208008 L 696.2079467773438 77.81818389892578" fill-opacity="1" clip-path="url(#MVxzEWkIkmrX)"/><path fill="rgb(0,160,255)" stroke="none" paint-order="stroke" d="M 696.3574829101562 77.81818389892578 L 696.3779309093952 77.81818389892578 L 696.3779309093952 130.45454788208008 L 696.3574829101562 130.45454788208008 L 696.3574829101562 77.81818389892578" fill-opacity="1" clip-path="url(#MVxzEWkIkmrX)"/><path fill="rgb(0,151,255)" stroke="none" paint-order="stroke" d="M 696.3779296875 77.81818389892578 L 696.4213816858828 77.81818389892578 L 696.4213816858828 130.45454788208008 L 696.3779296875 130.45454788208008 L 696.3779296875 77.81818389892578" fill-opacity="1" clip-path="url(#MVxzEWkIkmrX)"/><path fill="rgb(0,137,255)" stroke="none" paint-order="stroke" d="M 696.42138671875 77.81818389892578 L 698.067450761795 77.81818389892578 L 698.067450761795 130.45454788208008 L 696.42138671875 130.45454788208008 L 696.42138671875 77.81818389892578" fill-opacity="1" clip-path="url(#MVxzEWkIkmrX)"/><path fill="rgb(0,122,255)" stroke="none" paint-order="stroke" d="M 698.0674438476562 77.81818389892578 L 698.0878918468952 77.81818389892578 L 698.0878918468952 130.45454788208008 L 698.0674438476562 130.45454788208008 L 698.0674438476562 77.81818389892578" fill-opacity="1" clip-path="url(#MVxzEWkIkmrX)"/><path fill="rgb(0,107,255)" stroke="none" paint-order="stroke" d="M 698.087890625 77.81818389892578 L 698.1313426233828 77.81818389892578 L 698.1313426233828 130.45454788208008 L 698.087890625 130.45454788208008 L 698.087890625 77.81818389892578" fill-opacity="1" clip-path="url(#MVxzEWkIkmrX)"/><path fill="rgb(0,92,255)" stroke="none" paint-order="stroke" d="M 698.13134765625 77.81818389892578 L 698.1952476575971 77.81818389892578 L 698.1952476575971 130.45454788208008 L 698.13134765625 130.45454788208008 L 698.13134765625 77.81818389892578" fill-opacity="1" clip-path="url(#MVxzEWkIkmrX)"/><path fill="rgb(0,75,255)" stroke="none" paint-order="stroke" d="M 698.1952514648438 77.81818389892578 L 698.3869514614344 77.81818389892578 L 698.3869514614344 130.45454788208008 L 698.1952514648438 130.45454788208008 L 698.1952514648438 77.81818389892578" fill-opacity="1" clip-path="url(#MVxzEWkIkmrX)"/><path fill="rgb(0,58,255)" stroke="none" paint-order="stroke" d="M 698.3869018554688 77.81818389892578 L 698.4508018568158 77.81818389892578 L 698.4508018568158 130.45454788208008 L 698.3869018554688 130.45454788208008 L 698.3869018554688 77.81818389892578" fill-opacity="1" clip-path="url(#MVxzEWkIkmrX)"/><path fill="rgb(0,46,255)" stroke="none" paint-order="stroke" d="M 698.4508056640625 77.81818389892578 L 698.7076836526394 77.81818389892578 L 698.7076836526394 130.45454788208008 L 698.4508056640625 130.45454788208008 L 698.4508056640625 77.81818389892578" fill-opacity="1" clip-path="url(#MVxzEWkIkmrX)"/><path fill="rgb(0,26,255)" stroke="none" paint-order="stroke" d="M 698.7077026367188 77.81818389892578 L 698.7716026380658 77.81818389892578 L 698.7716026380658 130.45454788208008 L 698.7077026367188 130.45454788208008 L 698.7077026367188 77.81818389892578" fill-opacity="1" clip-path="url(#MVxzEWkIkmrX)"/><path fill="rgb(0,0,255)" stroke="none" paint-order="stroke" d="M 698.7716064453125 77.81818389892578 L 699.7978404760361 77.81818389892578 L 699.7978404760361 130.45454788208008 L 698.7716064453125 130.45454788208008 L 698.7716064453125 77.81818389892578" fill-opacity="1" clip-path="url(#MVxzEWkIkmrX)"/><path fill="rgb(0,26,255)" stroke="none" paint-order="stroke" d="M 699.7978515625 77.81818389892578 L 699.840025562793 77.81818389892578 L 699.840025562793 130.45454788208008 L 699.7978515625 130.45454788208008 L 699.7978515625 77.81818389892578" fill-opacity="1" clip-path="url(#MVxzEWkIkmrX)"/><path fill="rgb(0,58,255)" stroke="none" paint-order="stroke" d="M 699.8400268554688 77.81818389892578 L 699.8617528546602 77.81818389892578 L 699.8617528546602 130.45454788208008 L 699.8400268554688 130.45454788208008 L 699.8400268554688 77.81818389892578" fill-opacity="1" clip-path="url(#MVxzEWkIkmrX)"/><path fill="rgb(0,75,255)" stroke="none" paint-order="stroke" d="M 699.8617553710938 77.81818389892578 L 699.8834813702852 77.81818389892578 L 699.8834813702852 130.45454788208008 L 699.8617553710938 130.45454788208008 L 699.8617553710938 77.81818389892578" fill-opacity="1" clip-path="url(#MVxzEWkIkmrX)"/><path fill="rgb(0,107,255)" stroke="none" paint-order="stroke" d="M 699.8834838867188 77.81818389892578 L 699.9039318859577 77.81818389892578 L 699.9039318859577 130.45454788208008 L 699.8834838867188 130.45454788208008 L 699.8834838867188 77.81818389892578" fill-opacity="1" clip-path="url(#MVxzEWkIkmrX)"/><path fill="rgb(0,137,255)" stroke="none" paint-order="stroke" d="M 699.9039306640625 77.81818389892578 L 699.9256566632539 77.81818389892578 L 699.9256566632539 130.45454788208008 L 699.9039306640625 130.45454788208008 L 699.9039306640625 77.81818389892578" fill-opacity="1" clip-path="url(#MVxzEWkIkmrX)"/><path fill="rgb(0,151,255)" stroke="none" paint-order="stroke" d="M 699.9256591796875 77.81818389892578 L 699.9473851788789 77.81818389892578 L 699.9473851788789 130.45454788208008 L 699.9256591796875 130.45454788208008 L 699.9256591796875 77.81818389892578" fill-opacity="1" clip-path="url(#MVxzEWkIkmrX)"/><path fill="rgb(0,160,255)" stroke="none" paint-order="stroke" d="M 699.9473876953125 77.81818389892578 L 700.567217707634 77.81818389892578 L 700.567217707634 130.45454788208008 L 699.9473876953125 130.45454788208008 L 699.9473876953125 77.81818389892578" fill-opacity="1" clip-path="url(#MVxzEWkIkmrX)"/><path fill="rgb(0,173,255)" stroke="none" paint-order="stroke" d="M 700.5671997070312 77.81818389892578 L 701.7646857500076 77.81818389892578 L 701.7646857500076 130.45454788208008 L 700.5671997070312 130.45454788208008 L 700.5671997070312 77.81818389892578" fill-opacity="1" clip-path="url(#MVxzEWkIkmrX)"/><path fill="rgb(0,160,255)" stroke="none" paint-order="stroke" d="M 701.7647094726562 77.81818389892578 L 702.3628134727478 77.81818389892578 L 702.3628134727478 130.45454788208008 L 701.7647094726562 130.45454788208008 L 701.7647094726562 77.81818389892578" fill-opacity="1" clip-path="url(#MVxzEWkIkmrX)"/><path fill="rgb(0,151,255)" stroke="none" paint-order="stroke" d="M 702.36279296875 77.81818389892578 L 703.3238489627838 77.81818389892578 L 703.3238489627838 130.45454788208008 L 702.36279296875 130.45454788208008 L 702.36279296875 77.81818389892578" fill-opacity="1" clip-path="url(#MVxzEWkIkmrX)"/><path fill="rgb(0,160,255)" stroke="none" paint-order="stroke" d="M 703.3238525390625 77.81818389892578 L 703.4733785390854 77.81818389892578 L 703.4733785390854 130.45454788208008 L 703.3238525390625 130.45454788208008 L 703.3238525390625 77.81818389892578" fill-opacity="1" clip-path="url(#MVxzEWkIkmrX)"/><path fill="rgb(0,173,255)" stroke="none" paint-order="stroke" d="M 703.473388671875 77.81818389892578 L 705.7111666202545 77.81818389892578 L 705.7111666202545 130.45454788208008 L 703.473388671875 130.45454788208008 L 703.473388671875 77.81818389892578" fill-opacity="1" clip-path="url(#MVxzEWkIkmrX)"/><path fill="rgb(0,169,255)" stroke="none" paint-order="stroke" d="M 705.7111206054688 77.81818389892578 L 706.3143365979195 77.81818389892578 L 706.3143365979195 130.45454788208008 L 705.7111206054688 130.45454788208008 L 705.7111206054688 77.81818389892578" fill-opacity="1" clip-path="url(#MVxzEWkIkmrX)"/><path fill="rgb(0,164,255)" stroke="none" paint-order="stroke" d="M 706.3143920898438 77.81818389892578 L 710.8257322311401 77.81818389892578 L 710.8257322311401 130.45454788208008 L 706.3143920898438 130.45454788208008 L 706.3143920898438 77.81818389892578" fill-opacity="1" clip-path="url(#MVxzEWkIkmrX)"/><path fill="rgb(251,0,7)" stroke="none" paint-order="stroke" d="M 58.5 130.4545440673828 L 710.82568359375 130.4545440673828 L 710.82568359375 183.0909080505371 L 58.5 183.0909080505371 L 58.5 130.4545440673828" fill-opacity="1" clip-path="url(#nplBRhpRXTRZ)"/><path fill="rgb(105,29,48)" stroke="none" paint-order="stroke" d="M 553.5192260742188 183.09091186523438 L 553.5831260755658 183.09091186523438 L 553.5831260755658 498.9090881347656 L 553.5192260742188 498.9090881347656 L 553.5192260742188 183.09091186523438" fill-opacity="1" clip-path="url(#zbtaQNOwSDtL)"/><path fill="rgb(162,174,187)" stroke="none" paint-order="stroke" d="M 485.4427490234375 183.09091186523438 L 485.50664902478456 183.09091186523438 L 485.50664902478456 498.9090881347656 L 485.4427490234375 498.9090881347656 L 485.4427490234375 183.09091186523438" fill-opacity="1" clip-path="url(#aHySqblwabJr)"/><path fill="rgb(162,174,187)" stroke="none" paint-order="stroke" d="M 689.609619140625 183.09091186523438 L 689.6735191419721 183.09091186523438 L 689.6735191419721 498.9090881347656 L 689.609619140625 498.9090881347656 L 689.609619140625 183.09091186523438" fill-opacity="1" clip-path="url(#aHySqblwabJr)"/><path fill="rgb(162,174,187)" stroke="none" paint-order="stroke" d="M 690.8773803710938 183.09091186523438 L 690.9412803724408 183.09091186523438 L 690.9412803724408 498.9090881347656 L 690.8773803710938 498.9090881347656 L 690.8773803710938 183.09091186523438" fill-opacity="1" clip-path="url(#aHySqblwabJr)"/><path fill="rgb(216,17,89)" stroke="none" paint-order="stroke" d="M 694.03662109375 183.09091186523438 L 694.1005210950971 183.09091186523438 L 694.1005210950971 498.9090881347656 L 694.03662109375 498.9090881347656 L 694.03662109375 183.09091186523438" fill-opacity="1" clip-path="url(#ChbIyAwTvmbE)"/><path fill="rgb(216,17,89)" stroke="none" paint-order="stroke" d="M 694.03662109375 183.09091186523438 L 694.1005210950971 183.09091186523438 L 694.1005210950971 498.9090881347656 L 694.03662109375 498.9090881347656 L 694.03662109375 183.09091186523438" fill-opacity="1" clip-path="url(#ChbIyAwTvmbE)"/><path fill="rgb(33,131,128)" stroke="none" paint-order="stroke" d="M 474.4966735839844 183.09091186523438 L 477.02839159965515 183.09091186523438 L 477.02839159965515 498.9090881347656 L 474.4966735839844 498.9090881347656 L 474.4966735839844 183.09091186523438" fill-opacity="1" clip-path="url(#aNzGQvHoIkfi)"/><path fill="rgb(33,131,128)" stroke="none" paint-order="stroke" d="M 663.9780883789062 183.09091186523438 L 665.856748342514 183.09091186523438 L 665.856748342514 498.9090881347656 L 663.9780883789062 498.9090881347656 L 663.9780883789062 183.09091186523438" fill-opacity="1" clip-path="url(#aNzGQvHoIkfi)"/><path fill="rgb(115,210,222)" stroke="none" paint-order="stroke" d="M 555.8388061523438 183.09091186523438 L 560.6210823059082 183.09091186523438 L 560.6210823059082 498.9090881347656 L 555.8388061523438 498.9090881347656 L 555.8388061523438 183.09091186523438" fill-opacity="1" clip-path="url(#nbfzkulauIfJ)"/><path fill="rgb(115,210,222)" stroke="none" paint-order="stroke" d="M 611.5813598632812 183.09091186523438 L 614.2971098423004 183.09091186523438 L 614.2971098423004 498.9090881347656 L 611.5813598632812 498.9090881347656 L 611.5813598632812 183.09091186523438" fill-opacity="1" clip-path="url(#nbfzkulauIfJ)"/><path fill="rgb(115,210,222)" stroke="none" paint-order="stroke" d="M 623.1856079101562 183.09091186523438 L 629.7762537002563 183.09091186523438 L 629.7762537002563 498.9090881347656 L 623.1856079101562 498.9090881347656 L 623.1856079101562 183.09091186523438" fill-opacity="1" clip-path="url(#nbfzkulauIfJ)"/><path fill="rgb(115,210,222)" stroke="none" paint-order="stroke" d="M 630.10595703125 183.09091186523438 L 636.8103451728821 183.09091186523438 L 636.8103451728821 498.9090881347656 L 630.10595703125 498.9090881347656 L 630.10595703125 183.09091186523438" fill-opacity="1" clip-path="url(#nbfzkulauIfJ)"/><path fill="rgb(28,49,68)" stroke="none" paint-order="stroke" d="M 642.3351440429688 183.09091186523438 L 646.5435981750488 183.09091186523438 L 646.5435981750488 498.9090881347656 L 642.3351440429688 498.9090881347656 L 642.3351440429688 183.09091186523438" fill-opacity="1" clip-path="url(#uSDxCPsQlSOQ)"/><path fill="rgb(28,49,68)" stroke="none" paint-order="stroke" d="M 653.9700317382812 183.09091186523438 L 656.0314457416534 183.09091186523438 L 656.0314457416534 498.9090881347656 L 653.9700317382812 498.9090881347656 L 653.9700317382812 183.09091186523438" fill-opacity="1" clip-path="url(#uSDxCPsQlSOQ)"/><path fill="rgb(239,185,203)" stroke="none" paint-order="stroke" d="M 63.72574234008789 183.09091186523438 L 278.2239875793457 183.09091186523438 L 278.2239875793457 498.9090881347656 L 63.72574234008789 498.9090881347656 L 63.72574234008789 183.09091186523438" fill-opacity="1" clip-path="url(#krcQWCGwTFar)"/><path fill="rgb(239,185,203)" stroke="none" paint-order="stroke" d="M 282.5883483886719 183.09091186523438 L 471.17002868652344 183.09091186523438 L 471.17002868652344 498.9090881347656 L 282.5883483886719 498.9090881347656 L 282.5883483886719 183.09091186523438" fill-opacity="1" clip-path="url(#krcQWCGwTFar)"/><path fill="rgb(239,185,203)" stroke="none" paint-order="stroke" d="M 487.23193359375 183.09091186523438 L 539.9264297485352 183.09091186523438 L 539.9264297485352 498.9090881347656 L 487.23193359375 498.9090881347656 L 487.23193359375 183.09091186523438" fill-opacity="1" clip-path="url(#krcQWCGwTFar)"/><path fill="rgb(239,185,203)" stroke="none" paint-order="stroke" d="M 563.5247192382812 183.09091186523438 L 598.6850547790527 183.09091186523438 L 598.6850547790527 498.9090881347656 L 563.5247192382812 498.9090881347656 L 563.5247192382812 183.09091186523438" fill-opacity="1" clip-path="url(#krcQWCGwTFar)"/><path fill="rgb(239,185,203)" stroke="none" paint-order="stroke" d="M 616.0045166015625 183.09091186523438 L 621.6877827644348 183.09091186523438 L 621.6877827644348 498.9090881347656 L 616.0045166015625 498.9090881347656 L 616.0045166015625 183.09091186523438" fill-opacity="1" clip-path="url(#krcQWCGwTFar)"/><path fill="rgb(239,185,203)" stroke="none" paint-order="stroke" d="M 648.0363159179688 183.09091186523438 L 652.1987619400024 183.09091186523438 L 652.1987619400024 498.9090881347656 L 648.0363159179688 498.9090881347656 L 648.0363159179688 183.09091186523438" fill-opacity="1" clip-path="url(#krcQWCGwTFar)"/><path fill="rgb(105,29,48)" stroke="none" paint-order="stroke" d="M 695.5318603515625 183.09091186523438 L 704.3832883834839 183.09091186523438 L 704.3832883834839 498.9090881347656 L 695.5318603515625 498.9090881347656 L 695.5318603515625 183.09091186523438" fill-opacity="1" clip-path="url(#cxAimTuUTMuw)"/><path fill="rgb(143,45,86)" stroke="none" paint-order="stroke" d="M 58.5 551.5454711914062 L 553.5192565917969 551.5454711914062 L 553.5192565917969 604.1818351745605 L 58.5 604.1818351745605 L 58.5 551.5454711914062" fill-opacity="1" clip-path="url(#LozwEMRPLvNO)"/><path fill="rgb(81,60,99)" stroke="none" paint-order="stroke" d="M 553.5192260742188 551.5454711914062 L 689.609619140625 551.5454711914062 L 689.609619140625 604.1818351745605 L 553.5192260742188 604.1818351745605 L 553.5192260742188 551.5454711914062" fill-opacity="1" clip-path="url(#LozwEMRPLvNO)"/><path fill="rgb(63,136,197)" stroke="none" paint-order="stroke" d="M 689.609619140625 551.5454711914062 L 690.8773951530457 551.5454711914062 L 690.8773951530457 604.1818351745605 L 689.609619140625 604.1818351745605 L 689.609619140625 551.5454711914062" fill-opacity="1" clip-path="url(#LozwEMRPLvNO)"/><path fill="rgb(81,60,99)" stroke="none" paint-order="stroke" d="M 690.8773803710938 551.5454711914062 L 710.8256816864014 551.5454711914062 L 710.8256816864014 604.1818351745605 L 690.8773803710938 604.1818351745605 L 690.8773803710938 551.5454711914062" fill-opacity="1" clip-path="url(#LozwEMRPLvNO)"/><path fill="none" stroke="rgb(0,0,0)" paint-order="fill" d="M 58.5 77.81818389892578 L 710.82568359375 77.81818389892578 L 710.82568359375 604.1818313598633 L 58.5 604.1818313598633 L 58.5 77.81818389892578" stroke-opacity="1" stroke-linejoin="bevel" stroke-miterlimit="10" stroke-dasharray="" clip-path="url(#ZSgmigiSNrPb)"/><path fill="none" stroke="rgb(0,0,0)" paint-order="fill" d="M 58.5 630.5 L 1336.5 630.5" stroke-opacity="1" stroke-linejoin="bevel" stroke-miterlimit="10" stroke-dasharray=""/><path fill="none" stroke="rgb(0,0,0)" paint-order="fill" d="M 58.5 636.5 L 58.5 628.5 M 314.5 636.5 L 314.5 628.5 M 569.5 636.5 L 569.5 628.5 M 825.5 636.5 L 825.5 628.5 M 1080.5 636.5 L 1080.5 628.5 M 1336.5 636.5 L 1336.5 628.5" stroke-opacity="1" stroke-linejoin="bevel" stroke-miterlimit="10" stroke-dasharray=""/><path fill="none" stroke="rgb(0,0,0)" paint-order="fill" d="M 58.5 634.5 L 58.5 630.5 M 109.5 634.5 L 109.5 630.5 M 160.5 634.5 L 160.5 630.5 M 211.5 634.5 L 211.5 630.5 M 262.5 634.5 L 262.5 630.5 M 314.5 634.5 L 314.5 630.5 M 365.5 634.5 L 365.5 630.5 M 416.5 634.5 L 416.5 630.5 M 467.5 634.5 L 467.5 630.5 M 518.5 634.5 L 518.5 630.5 M 569.5 634.5 L 569.5 630.5 M 620.5 634.5 L 620.5 630.5 M 671.5 634.5 L 671.5 630.5 M 723.5 634.5 L 723.5 630.5 M 774.5 634.5 L 774.5 630.5 M 825.5 634.5 L 825.5 630.5 M 876.5 634.5 L 876.5 630.5 M 927.5 634.5 L 927.5 630.5 M 978.5 634.5 L 978.5 630.5 M 1029.5 634.5 L 1029.5 630.5 M 1080.5 634.5 L 1080.5 630.5 M 1132.5 634.5 L 1132.5 630.5 M 1183.5 634.5 L 1183.5 630.5 M 1234.5 634.5 L 1234.5 630.5 M 1285.5 634.5 L 1285.5 630.5 M 1336.5 634.5 L 1336.5 630.5" stroke-opacity="1" stroke-linejoin="bevel" stroke-miterlimit="10" stroke-dasharray=""/><text fill="rgb(68,68,68)" stroke="none" font-family="helvetica" font-size="11px" font-style="normal" font-weight="normal" text-decoration="normal" x="54.94166660308838" y="648.89013671875" text-anchor="start" dominant-baseline="alphabetic" transform="matrix(1, 0, 0, 1, 0.5, 0.5)" fill-opacity="1">0</text><text fill="rgb(68,68,68)" stroke="none" font-family="helvetica" font-size="11px" font-style="normal" font-weight="normal" text-decoration="normal" x="304.42500591278076" y="648.89013671875" text-anchor="start" dominant-baseline="alphabetic" transform="matrix(1, 0, 0, 1, 0.5, 0.5)" fill-opacity="1">200</text><text fill="rgb(68,68,68)" stroke="none" font-family="helvetica" font-size="11px" font-style="normal" font-weight="normal" text-decoration="normal" x="560.0250120162964" y="648.89013671875" text-anchor="start" dominant-baseline="alphabetic" transform="matrix(1, 0, 0, 1, 0.5, 0.5)" fill-opacity="1">400</text><text fill="rgb(68,68,68)" stroke="none" font-family="helvetica" font-size="11px" font-style="normal" font-weight="normal" text-decoration="normal" x="815.6249876022339" y="648.89013671875" text-anchor="start" dominant-baseline="alphabetic" transform="matrix(1, 0, 0, 1, 0.5, 0.5)" fill-opacity="1">600</text><text fill="rgb(68,68,68)" stroke="none" font-family="helvetica" font-size="11px" font-style="normal" font-weight="normal" text-decoration="normal" x="1071.2250242233276" y="648.89013671875" text-anchor="start" dominant-baseline="alphabetic" transform="matrix(1, 0, 0, 1, 0.5, 0.5)" fill-opacity="1">800</text><text fill="rgb(68,68,68)" stroke="none" font-family="helvetica" font-size="11px" font-style="normal" font-weight="normal" text-decoration="normal" x="1323.7666664123535" y="648.89013671875" text-anchor="start" dominant-baseline="alphabetic" transform="matrix(1, 0, 0, 1, 0.5, 0.5)" fill-opacity="1">1000</text><text fill="rgb(68,68,68)" stroke="none" font-family="helvetica" font-size="15pt" font-style="italic" font-weight="normal" text-decoration="normal" x="666.4416675567627" y="676.06982421875" text-anchor="start" dominant-baseline="alphabetic" transform="matrix(1, 0, 0, 1, 0.5, 0.5)" fill-opacity="1">time(s)</text><path fill="none" stroke="rgb(0,0,0)" paint-order="fill" d="M 58.5 630.5 L 58.5 51.5" stroke-opacity="1" stroke-linejoin="bevel" stroke-miterlimit="10" stroke-dasharray=""/><path fill="none" stroke="rgb(0,0,0)" paint-order="fill" d="M 52.5 551.5 L 60.5 551.5 M 52.5 446.5 L 60.5 446.5 M 52.5 341.5 L 60.5 341.5 M 52.5 235.5 L 60.5 235.5 M 52.5 130.5 L 60.5 130.5" stroke-opacity="1" stroke-linejoin="bevel" stroke-miterlimit="10" stroke-dasharray=""/><path fill="none" stroke="rgb(0,0,0)" paint-order="fill" d="M 54.5 572.5 L 58.5 572.5 M 54.5 593.5 L 58.5 593.5 M 54.5 614.5 L 58.5 614.5 M 54.5 551.5 L 58.5 551.5 M 54.5 530.5 L 58.5 530.5 M 54.5 509.5 L 58.5 509.5 M 54.5 488.5 L 58.5 488.5 M 54.5 467.5 L 58.5 467.5 M 54.5 446.5 L 58.5 446.5 M 54.5 425.5 L 58.5 425.5 M 54.5 404.5 L 58.5 404.5 M 54.5 383.5 L 58.5 383.5 M 54.5 362.5 L 58.5 362.5 M 54.5 341.5 L 58.5 341.5 M 54.5 319.5 L 58.5 319.5 M 54.5 298.5 L 58.5 298.5 M 54.5 277.5 L 58.5 277.5 M 54.5 256.5 L 58.5 256.5 M 54.5 235.5 L 58.5 235.5 M 54.5 214.5 L 58.5 214.5 M 54.5 193.5 L 58.5 193.5 M 54.5 172.5 L 58.5 172.5 M 54.5 151.5 L 58.5 151.5 M 54.5 130.5 L 58.5 130.5 M 54.5 109.5 L 58.5 109.5 M 54.5 88.5 L 58.5 88.5 M 54.5 67.5 L 58.5 67.5" stroke-opacity="1" stroke-linejoin="bevel" stroke-miterlimit="10" stroke-dasharray=""/><text fill="rgb(68,68,68)" stroke="none" font-family="helvetica" font-size="11px" font-style="normal" font-weight="normal" text-decoration="normal" x="34.46666622161865" y="554.9905395507812" text-anchor="start" dominant-baseline="alphabetic" transform="matrix(1, 0, 0, 1, 0.5, 0.5)" fill-opacity="1">−2</text><text fill="rgb(68,68,68)" stroke="none" font-family="helvetica" font-size="11px" font-style="normal" font-weight="normal" text-decoration="normal" x="34.46666622161865" y="449.7178039550781" text-anchor="start" dominant-baseline="alphabetic" transform="matrix(1, 0, 0, 1, 0.5, 0.5)" fill-opacity="1">−1</text><text fill="rgb(68,68,68)" stroke="none" font-family="helvetica" font-size="11px" font-style="normal" font-weight="normal" text-decoration="normal" x="40.88333320617676" y="344.445068359375" text-anchor="start" dominant-baseline="alphabetic" transform="matrix(1, 0, 0, 1, 0.5, 0.5)" fill-opacity="1">0</text><text fill="rgb(68,68,68)" stroke="none" font-family="helvetica" font-size="11px" font-style="normal" font-weight="normal" text-decoration="normal" x="40.88333320617676" y="239.17234802246094" text-anchor="start" dominant-baseline="alphabetic" transform="matrix(1, 0, 0, 1, 0.5, 0.5)" fill-opacity="1">1</text><text fill="rgb(68,68,68)" stroke="none" font-family="helvetica" font-size="11px" font-style="normal" font-weight="normal" text-decoration="normal" x="40.88333320617676" y="133.8996124267578" text-anchor="start" dominant-baseline="alphabetic" transform="matrix(1, 0, 0, 1, 0.5, 0.5)" fill-opacity="1">2</text><text fill="rgb(68,68,68)" stroke="none" font-family="helvetica" font-size="15pt" font-style="italic" font-weight="normal" text-decoration="normal" x="-11.316666603088379" y="336.076171875" text-anchor="start" dominant-baseline="alphabetic" transform="matrix(6.123233995736766e-17, -1, 1, 6.123233995736766e-17, -313.53333377838135, 367.46666622161865)" fill-opacity="1">students</text><path fill="rgb(255,255,255)" stroke="rgb(229,229,229)" paint-order="fill" d="M 1128.2333374023438 61.5 L 1326.5 61.5 L 1326.5 400.5 L 1128.2333374023438 400.5 L 1128.2333374023438 61.5" fill-opacity="0.9490196078431372" clip-path="url(#ToRRrxbVwkod)" stroke-opacity="0.5019607843137255" stroke-linejoin="bevel" stroke-miterlimit="10" stroke-dasharray=""/><g clip-path="url(#ToRRrxbVwkod)"><text fill="rgb(68,68,68)" stroke="none" font-family="helvetica" font-size="13px" font-style="normal" font-weight="normal" text-decoration="normal" x="1162.7333374023438" y="81" text-anchor="start" dominant-baseline="central" transform="matrix(1, 0, 0, 1, 0.5, 0.5)" fill-opacity="1">wavelength</text></g><path fill="rgb(0,255,40)" stroke="none" paint-order="stroke" d="M 1140.2333374023438 73.5 L 1156.2333374023438 73.5 L 1156.2333374023438 89.5 L 1140.2333374023438 89.5 L 1140.2333374023438 73.5" fill-opacity="1" clip-path="url(#ToRRrxbVwkod)"/><path fill="rgb(216,17,89)" stroke="none" paint-order="stroke" d="M 1140.2333374023438 73.5 L 1156.2333374023438 73.5 L 1156.2333374023438 89.5 L 1140.2333374023438 89.5 L 1140.2333374023438 73.5" fill-opacity="1" clip-path="url(#ToRRrxbVwkod)"/><g clip-path="url(#ToRRrxbVwkod)"><text fill="rgb(68,68,68)" stroke="none" font-family="helvetica" font-size="13px" font-style="normal" font-weight="normal" text-decoration="normal" x="1162.7333374023438" y="104" text-anchor="start" dominant-baseline="central" transform="matrix(1, 0, 0, 1, 0.5, 0.5)" fill-opacity="1">solution</text></g><path fill="rgb(251,0,7)" stroke="none" paint-order="stroke" d="M 1140.2333374023438 96.5 L 1156.2333374023438 96.5 L 1156.2333374023438 112.5 L 1140.2333374023438 112.5 L 1140.2333374023438 96.5" fill-opacity="1" clip-path="url(#ToRRrxbVwkod)"/><path fill="rgb(33,131,128)" stroke="none" paint-order="stroke" d="M 1140.2333374023438 96.5 L 1156.2333374023438 96.5 L 1156.2333374023438 112.5 L 1140.2333374023438 112.5 L 1140.2333374023438 96.5" fill-opacity="1" clip-path="url(#ToRRrxbVwkod)"/><g clip-path="url(#ToRRrxbVwkod)"><text fill="rgb(68,68,68)" stroke="none" font-family="helvetica" font-size="13px" font-style="normal" font-weight="normal" text-decoration="normal" x="1162.7333374023438" y="127" text-anchor="start" dominant-baseline="central" transform="matrix(1, 0, 0, 1, 0.5, 0.5)" fill-opacity="1">laser</text></g><path fill="rgb(105,29,48)" stroke="none" paint-order="stroke" d="M 1140.2333374023438 119.5 L 1156.2333374023438 119.5 L 1156.2333374023438 135.5 L 1140.2333374023438 135.5 L 1140.2333374023438 119.5" fill-opacity="1" clip-path="url(#ToRRrxbVwkod)"/><g clip-path="url(#ToRRrxbVwkod)"><text fill="rgb(68,68,68)" stroke="none" font-family="helvetica" font-size="13px" font-style="normal" font-weight="normal" text-decoration="normal" x="1162.7333374023438" y="150" text-anchor="start" dominant-baseline="central" transform="matrix(1, 0, 0, 1, 0.5, 0.5)" fill-opacity="1">ruler</text></g><g clip-path="url(#ToRRrxbVwkod)"><text fill="rgb(68,68,68)" stroke="none" font-family="helvetica" font-size="13px" font-style="normal" font-weight="normal" text-decoration="normal" x="1162.7333374023438" y="173" text-anchor="start" dominant-baseline="central" transform="matrix(1, 0, 0, 1, 0.5, 0.5)" fill-opacity="1">restarts</text></g><g clip-path="url(#ToRRrxbVwkod)"><text fill="rgb(68,68,68)" stroke="none" font-family="helvetica" font-size="13px" font-style="normal" font-weight="normal" text-decoration="normal" x="1162.7333374023438" y="196" text-anchor="start" dominant-baseline="central" transform="matrix(1, 0, 0, 1, 0.5, 0.5)" fill-opacity="1">transmittance_absorbance</text></g><path fill="rgb(162,174,187)" stroke="none" paint-order="stroke" d="M 1140.2333374023438 188.5 L 1156.2333374023438 188.5 L 1156.2333374023438 204.5 L 1140.2333374023438 204.5 L 1140.2333374023438 188.5" fill-opacity="1" clip-path="url(#ToRRrxbVwkod)"/><g clip-path="url(#ToRRrxbVwkod)"><text fill="rgb(68,68,68)" stroke="none" font-family="helvetica" font-size="13px" font-style="normal" font-weight="normal" text-decoration="normal" x="1162.7333374023438" y="219" text-anchor="start" dominant-baseline="central" transform="matrix(1, 0, 0, 1, 0.5, 0.5)" fill-opacity="1">magnifier</text></g><g clip-path="url(#ToRRrxbVwkod)"><text fill="rgb(68,68,68)" stroke="none" font-family="helvetica" font-size="13px" font-style="normal" font-weight="normal" text-decoration="normal" x="1162.7333374023438" y="242" text-anchor="start" dominant-baseline="central" transform="matrix(1, 0, 0, 1, 0.5, 0.5)" fill-opacity="1">concentration</text></g><path fill="rgb(115,210,222)" stroke="none" paint-order="stroke" d="M 1140.2333374023438 234.5 L 1156.2333374023438 234.5 L 1156.2333374023438 250.5 L 1140.2333374023438 250.5 L 1140.2333374023438 234.5" fill-opacity="1" clip-path="url(#ToRRrxbVwkod)"/><g clip-path="url(#ToRRrxbVwkod)"><text fill="rgb(68,68,68)" stroke="none" font-family="helvetica" font-size="13px" font-style="normal" font-weight="normal" text-decoration="normal" x="1162.7333374023438" y="265" text-anchor="start" dominant-baseline="central" transform="matrix(1, 0, 0, 1, 0.5, 0.5)" fill-opacity="1">flask</text></g><path fill="rgb(28,49,68)" stroke="none" paint-order="stroke" d="M 1140.2333374023438 257.5 L 1156.2333374023438 257.5 L 1156.2333374023438 273.5 L 1140.2333374023438 273.5 L 1140.2333374023438 257.5" fill-opacity="1" clip-path="url(#ToRRrxbVwkod)"/><g clip-path="url(#ToRRrxbVwkod)"><text fill="rgb(68,68,68)" stroke="none" font-family="helvetica" font-size="13px" font-style="normal" font-weight="normal" text-decoration="normal" x="1162.7333374023438" y="288" text-anchor="start" dominant-baseline="central" transform="matrix(1, 0, 0, 1, 0.5, 0.5)" fill-opacity="1">pdf</text></g><path fill="rgb(239,185,203)" stroke="none" paint-order="stroke" d="M 1140.2333374023438 280.5 L 1156.2333374023438 280.5 L 1156.2333374023438 296.5 L 1140.2333374023438 296.5 L 1140.2333374023438 280.5" fill-opacity="1" clip-path="url(#ToRRrxbVwkod)"/><g clip-path="url(#ToRRrxbVwkod)"><text fill="rgb(68,68,68)" stroke="none" font-family="helvetica" font-size="13px" font-style="normal" font-weight="normal" text-decoration="normal" x="1162.7333374023438" y="311" text-anchor="start" dominant-baseline="central" transform="matrix(1, 0, 0, 1, 0.5, 0.5)" fill-opacity="1">concentrationlab</text></g><g clip-path="url(#ToRRrxbVwkod)"><text fill="rgb(68,68,68)" stroke="none" font-family="helvetica" font-size="13px" font-style="normal" font-weight="normal" text-decoration="normal" x="1162.7333374023438" y="334" text-anchor="start" dominant-baseline="central" transform="matrix(1, 0, 0, 1, 0.5, 0.5)" fill-opacity="1">wavelength_slider</text></g><path fill="rgb(105,29,48)" stroke="none" paint-order="stroke" d="M 1140.2333374023438 326.5 L 1156.2333374023438 326.5 L 1156.2333374023438 342.5 L 1140.2333374023438 342.5 L 1140.2333374023438 326.5" fill-opacity="1" clip-path="url(#ToRRrxbVwkod)"/><g clip-path="url(#ToRRrxbVwkod)"><text fill="rgb(68,68,68)" stroke="none" font-family="helvetica" font-size="13px" font-style="normal" font-weight="normal" text-decoration="normal" x="1162.7333374023438" y="357" text-anchor="start" dominant-baseline="central" transform="matrix(1, 0, 0, 1, 0.5, 0.5)" fill-opacity="1">ruler measuring</text></g><g clip-path="url(#ToRRrxbVwkod)"><text fill="rgb(68,68,68)" stroke="none" font-family="helvetica" font-size="13px" font-style="normal" font-weight="normal" text-decoration="normal" x="1162.7333374023438" y="380" text-anchor="start" dominant-baseline="central" transform="matrix(1, 0, 0, 1, 0.5, 0.5)" fill-opacity="1">dependent variable</text></g><path fill="rgb(143,45,86)" stroke="none" paint-order="stroke" d="M 1140.2333374023438 372.5 L 1156.2333374023438 372.5 L 1156.2333374023438 388.5 L 1140.2333374023438 388.5 L 1140.2333374023438 372.5" fill-opacity="1" clip-path="url(#ToRRrxbVwkod)"/><text fill="rgb(68,68,68)" stroke="none" font-family="helvetica" font-size="25pt" font-style="normal" font-weight="bold" text-decoration="normal" x="58" y="38.740885416666664" text-anchor="start" dominant-baseline="alphabetic" transform="matrix(1, 0, 0, 1, 0.5, 0.5)" fill-opacity="1">Timeline for student n6zakrku with permutation 3012 for task 3</text></svg>