<svg version="1.1" xmlns="http://www.w3.org/2000/svg" width="1366" height="683"><defs><clipPath id="MdTFstCJToua"><path fill="none" stroke="none" d="M 58.5 51.5 L 1336.5 51.5 L 1336.5 630.5 L 58.5 630.5 L 58.5 51.5"/></clipPath><clipPath id="DqpOglMiNHne"><path fill="none" stroke="none" d="M 58.5 51.5 L 1336.5 51.5 L 1336.5 630.5 L 58.5 630.5 L 58.5 51.5"/></clipPath><clipPath id="skWaRtwkUAvL"><path fill="none" stroke="none" d="M 58.5 51.5 L 1336.5 51.5 L 1336.5 630.5 L 58.5 630.5 L 58.5 51.5"/></clipPath><clipPath id="qVmbXspgnkkb"><path fill="none" stroke="none" d="M 58.5 51.5 L 1336.5 51.5 L 1336.5 630.5 L 58.5 630.5 L 58.5 51.5"/></clipPath><clipPath id="XbFNJEiicszV"><path fill="none" stroke="none" d="M 58.5 51.5 L 1336.5 51.5 L 1336.5 630.5 L 58.5 630.5 L 58.5 51.5"/></clipPath><clipPath id="ZNMFkzWLNrfd"><path fill="none" stroke="none" d="M 58.5 51.5 L 1336.5 51.5 L 1336.5 630.5 L 58.5 630.5 L 58.5 51.5"/></clipPath><clipPath id="bTqzhebSwMEU"><path fill="none" stroke="none" d="M 58.5 51.5 L 1336.5 51.5 L 1336.5 630.5 L 58.5 630.5 L 58.5 51.5"/></clipPath><clipPath id="NsulxFcENFTP"><path fill="none" stroke="none" d="M 58.5 51.5 L 1336.5 51.5 L 1336.5 630.5 L 58.5 630.5 L 58.5 51.5"/></clipPath><clipPath id="CtwtVQwdBSKf"><path fill="none" stroke="none" d="M 58.5 51.5 L 1336.5 51.5 L 1336.5 630.5 L 58.5 630.5 L 58.5 51.5"/></clipPath><clipPath id="hmbSAbmSMvHF"><path fill="none" stroke="none" d="M 58.5 51.5 L 1336.5 51.5 L 1336.5 630.5 L 58.5 630.5 L 58.5 51.5"/></clipPath><clipPath id="afkpQkSloTKM"><path fill="none" stroke="none" d="M 58.5 51.5 L 1336.5 51.5 L 1336.5 630.5 L 58.5 630.5 L 58.5 51.5"/></clipPath><clipPath id="SQeeuxLcCxVa"><path fill="none" stroke="none" d="M 58.5 51.5 L 1336.5 51.5 L 1336.5 630.5 L 58.5 630.5 L 58.5 51.5"/></clipPath><clipPath id="BJcZRibLhhfQ"><path fill="none" stroke="none" d="M 58.5 51.5 L 1336.5 51.5 L 1336.5 630.5 L 58.5 630.5 L 58.5 51.5"/></clipPath><clipPath id="rnanSIrQDfLa"><path fill="none" stroke="none" d="M 58.5 51.5 L 1336.5 51.5 L 1336.5 630.5 L 58.5 630.5 L 58.5 51.5"/></clipPath><clipPath id="KWDDDCOgRaXQ"><path fill="none" stroke="none" d="M 58.5 51.5 L 1336.5 51.5 L 1336.5 630.5 L 58.5 630.5 L 58.5 51.5"/></clipPath><clipPath id="snxvQmcAkbNe"><path fill="none" stroke="none" d="M 58.5 51.5 L 1336.5 51.5 L 1336.5 630.5 L 58.5 630.5 L 58.5 51.5"/></clipPath><clipPath id="DzMuKyuuEHWd"><path fill="none" stroke="none" d="M 58.5 51.5 L 1336.5 51.5 L 1336.5 630.5 L 58.5 630.5 L 58.5 51.5"/></clipPath><clipPath id="WKwWmaEToqFP"><path fill="none" stroke="none" d="M 58.5 51.5 L 1336.5 51.5 L 1336.5 630.5 L 58.5 630.5 L 58.5 51.5"/></clipPath><clipPath id="JgXqpffxTDco"><path fill="none" stroke="none" d="M 58.5 51.5 L 1336.5 51.5 L 1336.5 630.5 L 58.5 630.5 L 58.5 51.5"/></clipPath><clipPath id="pQeLKhwHaZUS"><path fill="none" stroke="none" d="M 58.5 51.5 L 1336.5 51.5 L 1336.5 630.5 L 58.5 630.5 L 58.5 51.5"/></clipPath><clipPath id="lLpIesdtoJRr"><path fill="none" stroke="none" d="M 58.5 51.5 L 1336.5 51.5 L 1336.5 630.5 L 58.5 630.5 L 58.5 51.5"/></clipPath></defs><path fill="rgb(255,255,255)" stroke="none" paint-order="stroke" d="M 0.5 0.5 L 1366.5 0.5 L 1366.5 683.5 L 0.5 683.5 L 0.5 0.5" fill-opacity="1"/><rect fill="#FFFFFF" stroke="none" x="58" y="51" width="1278" height="579" transform="matrix(1, 0, 0, 1, 0.5, 0.5)"/><path fill="rgb(255,255,255)" stroke="none" paint-order="stroke" d="M 58.5 51.5 L 1336.5 51.5 L 1336.5 630.5 L 58.5 630.5 L 58.5 51.5" fill-opacity="1"/><path fill="none" stroke="rgb(229,229,229)" paint-order="fill" d="M 58.5 51.5 L 1336.5 51.5 L 1336.5 630.5 L 58.5 630.5 L 58.5 51.5" stroke-opacity="1" stroke-linejoin="bevel" stroke-miterlimit="10" stroke-dasharray=""/><path fill="none" stroke="rgb(229,229,229)" paint-order="fill" d="M 314.5 630.5 L 314.5 51.5 M 569.5 630.5 L 569.5 51.5 M 825.5 630.5 L 825.5 51.5 M 1080.5 630.5 L 1080.5 51.5" stroke-opacity="1" stroke-linejoin="bevel" stroke-miterlimit="10" stroke-dasharray="" clip-path="url(#MdTFstCJToua)"/><path fill="none" stroke="rgb(229,229,229)" paint-order="fill" d="M 58.5 551.5 L 1336.5 551.5 M 58.5 446.5 L 1336.5 446.5 M 58.5 341.5 L 1336.5 341.5 M 58.5 235.5 L 1336.5 235.5 M 58.5 130.5 L 1336.5 130.5" stroke-opacity="1" stroke-linejoin="bevel" stroke-miterlimit="10" stroke-dasharray="" clip-path="url(#DqpOglMiNHne)"/><path fill="rgb(0,255,40)" stroke="none" paint-order="stroke" d="M 58.5 77.81818389892578 L 83.41205406188965 77.81818389892578 L 83.41205406188965 130.45454788208008 L 58.5 130.45454788208008 L 58.5 77.81818389892578" fill-opacity="1" clip-path="url(#skWaRtwkUAvL)"/><path fill="rgb(143,255,0)" stroke="none" paint-order="stroke" d="M 83.41205596923828 77.81818389892578 L 90.86535215377808 77.81818389892578 L 90.86535215377808 130.45454788208008 L 83.41205596923828 130.45454788208008 L 83.41205596923828 77.81818389892578" fill-opacity="1" clip-path="url(#skWaRtwkUAvL)"/><path fill="rgb(0,0,0)" stroke="none" paint-order="stroke" d="M 90.86534881591797 77.81818389892578 L 93.31783080101013 77.81818389892578 L 93.31783080101013 130.45454788208008 L 90.86534881591797 130.45454788208008 L 90.86534881591797 77.81818389892578" fill-opacity="1" clip-path="url(#skWaRtwkUAvL)"/><path fill="rgb(0,255,40)" stroke="none" paint-order="stroke" d="M 93.31783294677734 77.81818389892578 L 99.22730493545532 77.81818389892578 L 99.22730493545532 130.45454788208008 L 93.31783294677734 130.45454788208008 L 93.31783294677734 77.81818389892578" fill-opacity="1" clip-path="url(#skWaRtwkUAvL)"/><path fill="rgb(42,0,238)" stroke="none" paint-order="stroke" d="M 99.22730255126953 77.81818389892578 L 102.35584664344788 77.81818389892578 L 102.35584664344788 130.45454788208008 L 99.22730255126953 130.45454788208008 L 99.22730255126953 77.81818389892578" fill-opacity="1" clip-path="url(#skWaRtwkUAvL)"/><path fill="rgb(159,255,0)" stroke="none" paint-order="stroke" d="M 102.35585021972656 77.81818389892578 L 104.0939302444458 77.81818389892578 L 104.0939302444458 130.45454788208008 L 102.35585021972656 130.45454788208008 L 102.35585021972656 77.81818389892578" fill-opacity="1" clip-path="url(#skWaRtwkUAvL)"/><path fill="rgb(0,255,40)" stroke="none" paint-order="stroke" d="M 104.09392547607422 77.81818389892578 L 113.28785705566406 77.81818389892578 L 113.28785705566406 130.45454788208008 L 104.09392547607422 130.45454788208008 L 104.09392547607422 77.81818389892578" fill-opacity="1" clip-path="url(#skWaRtwkUAvL)"/><path fill="rgb(251,0,7)" stroke="none" paint-order="stroke" d="M 58.5 130.4545440673828 L 83.41205406188965 130.4545440673828 L 83.41205406188965 183.0909080505371 L 58.5 183.0909080505371 L 58.5 130.4545440673828" fill-opacity="1" clip-path="url(#qVmbXspgnkkb)"/><path fill="rgb(62,0,101)" stroke="none" paint-order="stroke" d="M 83.41205596923828 130.4545440673828 L 90.86535215377808 130.4545440673828 L 90.86535215377808 183.0909080505371 L 83.41205596923828 183.0909080505371 L 83.41205596923828 130.4545440673828" fill-opacity="1" clip-path="url(#qVmbXspgnkkb)"/><path fill="rgb(27,121,255)" stroke="none" paint-order="stroke" d="M 90.86534881591797 130.4545440673828 L 93.31783080101013 130.4545440673828 L 93.31783080101013 183.0909080505371 L 90.86534881591797 183.0909080505371 L 90.86534881591797 130.4545440673828" fill-opacity="1" clip-path="url(#qVmbXspgnkkb)"/><path fill="rgb(251,0,7)" stroke="none" paint-order="stroke" d="M 93.31783294677734 130.4545440673828 L 99.22730493545532 130.4545440673828 L 99.22730493545532 183.0909080505371 L 93.31783294677734 183.0909080505371 L 93.31783294677734 130.4545440673828" fill-opacity="1" clip-path="url(#qVmbXspgnkkb)"/><path fill="rgb(56,126,34)" stroke="none" paint-order="stroke" d="M 99.22730255126953 130.4545440673828 L 102.35584664344788 130.4545440673828 L 102.35584664344788 183.0909080505371 L 99.22730255126953 183.0909080505371 L 99.22730255126953 130.4545440673828" fill-opacity="1" clip-path="url(#qVmbXspgnkkb)"/><path fill="rgb(237,115,111)" stroke="none" paint-order="stroke" d="M 102.35585021972656 130.4545440673828 L 104.0939302444458 130.4545440673828 L 104.0939302444458 183.0909080505371 L 102.35585021972656 183.0909080505371 L 102.35585021972656 130.4545440673828" fill-opacity="1" clip-path="url(#qVmbXspgnkkb)"/><path fill="rgb(251,0,7)" stroke="none" paint-order="stroke" d="M 104.09392547607422 130.4545440673828 L 113.28785705566406 130.4545440673828 L 113.28785705566406 183.0909080505371 L 104.09392547607422 183.0909080505371 L 104.09392547607422 130.4545440673828" fill-opacity="1" clip-path="url(#qVmbXspgnkkb)"/><path fill="rgb(105,29,48)" stroke="none" paint-order="stroke" d="M 67.53673553466797 183.09091186523438 L 67.60063553601503 183.09091186523438 L 67.60063553601503 498.9090881347656 L 67.53673553466797 498.9090881347656 L 67.53673553466797 183.09091186523438" fill-opacity="1" clip-path="url(#XbFNJEiicszV)"/><path fill="rgb(105,29,48)" stroke="none" paint-order="stroke" d="M 107.32598876953125 183.09091186523438 L 107.38988877087831 183.09091186523438 L 107.38988877087831 498.9090881347656 L 107.32598876953125 498.9090881347656 L 107.32598876953125 183.09091186523438" fill-opacity="1" clip-path="url(#XbFNJEiicszV)"/><path fill="rgb(105,29,48)" stroke="none" paint-order="stroke" d="M 109.71968078613281 183.09091186523438 L 109.78358078747988 183.09091186523438 L 109.78358078747988 498.9090881347656 L 109.71968078613281 498.9090881347656 L 109.71968078613281 183.09091186523438" fill-opacity="1" clip-path="url(#XbFNJEiicszV)"/><path fill="rgb(162,174,187)" stroke="none" paint-order="stroke" d="M 107.32598876953125 183.09091186523438 L 107.38988877087831 183.09091186523438 L 107.38988877087831 498.9090881347656 L 107.32598876953125 498.9090881347656 L 107.32598876953125 183.09091186523438" fill-opacity="1" clip-path="url(#bTqzhebSwMEU)"/><path fill="rgb(255,188,66)" stroke="none" paint-order="stroke" d="M 61.90331268310547 183.09091186523438 L 61.98127068579197 183.09091186523438 L 61.98127068579197 498.9090881347656 L 61.90331268310547 498.9090881347656 L 61.90331268310547 183.09091186523438" fill-opacity="1" clip-path="url(#CtwtVQwdBSKf)"/><path fill="rgb(33,131,128)" stroke="none" paint-order="stroke" d="M 82.30914306640625 183.09091186523438 L 83.41205704212189 183.09091186523438 L 83.41205704212189 498.9090881347656 L 82.30914306640625 498.9090881347656 L 82.30914306640625 183.09091186523438" fill-opacity="1" clip-path="url(#afkpQkSloTKM)"/><path fill="rgb(33,131,128)" stroke="none" paint-order="stroke" d="M 89.72537231445312 183.09091186523438 L 90.86534833908081 183.09091186523438 L 90.86534833908081 498.9090881347656 L 89.72537231445312 498.9090881347656 L 89.72537231445312 183.09091186523438" fill-opacity="1" clip-path="url(#afkpQkSloTKM)"/><path fill="rgb(33,131,128)" stroke="none" paint-order="stroke" d="M 91.92992401123047 183.09091186523438 L 93.31783199310303 183.09091186523438 L 93.31783199310303 498.9090881347656 L 91.92992401123047 498.9090881347656 L 91.92992401123047 183.09091186523438" fill-opacity="1" clip-path="url(#afkpQkSloTKM)"/><path fill="rgb(33,131,128)" stroke="none" paint-order="stroke" d="M 96.17416381835938 183.09091186523438 L 99.22730588912964 183.09091186523438 L 99.22730588912964 498.9090881347656 L 96.17416381835938 498.9090881347656 L 96.17416381835938 183.09091186523438" fill-opacity="1" clip-path="url(#afkpQkSloTKM)"/><path fill="rgb(33,131,128)" stroke="none" paint-order="stroke" d="M 101.04206085205078 183.09091186523438 L 102.35584485530853 183.09091186523438 L 102.35584485530853 498.9090881347656 L 101.04206085205078 498.9090881347656 L 101.04206085205078 183.09091186523438" fill-opacity="1" clip-path="url(#afkpQkSloTKM)"/><path fill="rgb(33,131,128)" stroke="none" paint-order="stroke" d="M 103.19932556152344 183.09091186523438 L 104.09392553567886 183.09091186523438 L 104.09392553567886 498.9090881347656 L 103.19932556152344 498.9090881347656 L 103.19932556152344 183.09091186523438" fill-opacity="1" clip-path="url(#afkpQkSloTKM)"/><path fill="rgb(33,131,128)" stroke="none" paint-order="stroke" d="M 107.32598876953125 183.09091186523438 L 107.38988877087831 183.09091186523438 L 107.38988877087831 498.9090881347656 L 107.32598876953125 498.9090881347656 L 107.32598876953125 183.09091186523438" fill-opacity="1" clip-path="url(#afkpQkSloTKM)"/><path fill="rgb(115,210,222)" stroke="none" paint-order="stroke" d="M 71.40141296386719 183.09091186523438 L 75.16128897666931 183.09091186523438 L 75.16128897666931 498.9090881347656 L 71.40141296386719 498.9090881347656 L 71.40141296386719 183.09091186523438" fill-opacity="1" clip-path="url(#SQeeuxLcCxVa)"/><path fill="rgb(28,49,68)" stroke="none" paint-order="stroke" d="M 78.10835266113281 183.09091186523438 L 81.4068706035614 183.09091186523438 L 81.4068706035614 498.9090881347656 L 78.10835266113281 498.9090881347656 L 78.10835266113281 183.09091186523438" fill-opacity="1" clip-path="url(#BJcZRibLhhfQ)"/><path fill="rgb(28,49,68)" stroke="none" paint-order="stroke" d="M 111.73636627197266 183.09091186523438 L 113.28785824775696 183.09091186523438 L 113.28785824775696 498.9090881347656 L 111.73636627197266 498.9090881347656 L 111.73636627197266 183.09091186523438" fill-opacity="1" clip-path="url(#BJcZRibLhhfQ)"/><path fill="rgb(143,45,86)" stroke="none" paint-order="stroke" d="M 58.5 551.5454711914062 L 67.53673839569092 551.5454711914062 L 67.53673839569092 604.1818351745605 L 58.5 604.1818351745605 L 58.5 551.5454711914062" fill-opacity="1" clip-path="url(#WKwWmaEToqFP)"/><path fill="rgb(63,136,197)" stroke="none" paint-order="stroke" d="M 67.53673553466797 551.5454711914062 L 107.32598876953125 551.5454711914062 L 107.32598876953125 604.1818351745605 L 67.53673553466797 604.1818351745605 L 67.53673553466797 551.5454711914062" fill-opacity="1" clip-path="url(#WKwWmaEToqFP)"/><path fill="rgb(143,45,86)" stroke="none" paint-order="stroke" d="M 107.32598876953125 551.5454711914062 L 109.71968269348145 551.5454711914062 L 109.71968269348145 604.1818351745605 L 107.32598876953125 604.1818351745605 L 107.32598876953125 551.5454711914062" fill-opacity="1" clip-path="url(#WKwWmaEToqFP)"/><path fill="rgb(63,136,197)" stroke="none" paint-order="stroke" d="M 109.71968078613281 551.5454711914062 L 113.28785681724548 551.5454711914062 L 113.28785681724548 604.1818351745605 L 109.71968078613281 604.1818351745605 L 109.71968078613281 551.5454711914062" fill-opacity="1" clip-path="url(#WKwWmaEToqFP)"/><path fill="none" stroke="rgb(0,0,0)" paint-order="fill" d="M 58.5 77.81818389892578 L 113.28786087036133 77.81818389892578 L 113.28786087036133 604.1818313598633 L 58.5 604.1818313598633 L 58.5 77.81818389892578" stroke-opacity="1" stroke-linejoin="bevel" stroke-miterlimit="10" stroke-dasharray="" clip-path="url(#JgXqpffxTDco)"/><path fill="none" stroke="rgb(0,0,0)" paint-order="fill" d="M 58.5 630.5 L 1336.5 630.5" stroke-opacity="1" stroke-linejoin="bevel" stroke-miterlimit="10" stroke-dasharray=""/><path fill="none" stroke="rgb(0,0,0)" paint-order="fill" d="M 58.5 636.5 L 58.5 628.5 M 314.5 636.5 L 314.5 628.5 M 569.5 636.5 L 569.5 628.5 M 825.5 636.5 L 825.5 628.5 M 1080.5 636.5 L 1080.5 628.5 M 1336.5 636.5 L 1336.5 628.5" stroke-opacity="1" stroke-linejoin="bevel" stroke-miterlimit="10" stroke-dasharray=""/><path fill="none" stroke="rgb(0,0,0)" paint-order="fill" d="M 58.5 634.5 L 58.5 630.5 M 109.5 634.5 L 109.5 630.5 M 160.5 634.5 L 160.5 630.5 M 211.5 634.5 L 211.5 630.5 M 262.5 634.5 L 262.5 630.5 M 314.5 634.5 L 314.5 630.5 M 365.5 634.5 L 365.5 630.5 M 416.5 634.5 L 416.5 630.5 M 467.5 634.5 L 467.5 630.5 M 518.5 634.5 L 518.5 630.5 M 569.5 634.5 L 569.5 630.5 M 620.5 634.5 L 620.5 630.5 M 671.5 634.5 L 671.5 630.5 M 723.5 634.5 L 723.5 630.5 M 774.5 634.5 L 774.5 630.5 M 825.5 634.5 L 825.5 630.5 M 876.5 634.5 L 876.5 630.5 M 927.5 634.5 L 927.5 630.5 M 978.5 634.5 L 978.5 630.5 M 1029.5 634.5 L 1029.5 630.5 M 1080.5 634.5 L 1080.5 630.5 M 1132.5 634.5 L 1132.5 630.5 M 1183.5 634.5 L 1183.5 630.5 M 1234.5 634.5 L 1234.5 630.5 M 1285.5 634.5 L 1285.5 630.5 M 1336.5 634.5 L 1336.5 630.5" stroke-opacity="1" stroke-linejoin="bevel" stroke-miterlimit="10" stroke-dasharray=""/><text fill="rgb(68,68,68)" stroke="none" font-family="helvetica" font-size="11px" font-style="normal" font-weight="normal" text-decoration="normal" x="54.94166660308838" y="648.89013671875" text-anchor="start" dominant-baseline="alphabetic" transform="matrix(1, 0, 0, 1, 0.5, 0.5)" fill-opacity="1">0</text><text fill="rgb(68,68,68)" stroke="none" font-family="helvetica" font-size="11px" font-style="normal" font-weight="normal" text-decoration="normal" x="304.42500591278076" y="648.89013671875" text-anchor="start" dominant-baseline="alphabetic" transform="matrix(1, 0, 0, 1, 0.5, 0.5)" fill-opacity="1">200</text><text fill="rgb(68,68,68)" stroke="none" font-family="helvetica" font-size="11px" font-style="normal" font-weight="normal" text-decoration="normal" x="560.0250120162964" y="648.89013671875" text-anchor="start" dominant-baseline="alphabetic" transform="matrix(1, 0, 0, 1, 0.5, 0.5)" fill-opacity="1">400</text><text fill="rgb(68,68,68)" stroke="none" font-family="helvetica" font-size="11px" font-style="normal" font-weight="normal" text-decoration="normal" x="815.6249876022339" y="648.89013671875" text-anchor="start" dominant-baseline="alphabetic" transform="matrix(1, 0, 0, 1, 0.5, 0.5)" fill-opacity="1">600</text><text fill="rgb(68,68,68)" stroke="none" font-family="helvetica" font-size="11px" font-style="normal" font-weight="normal" text-decoration="normal" x="1071.2250242233276" y="648.89013671875" text-anchor="start" dominant-baseline="alphabetic" transform="matrix(1, 0, 0, 1, 0.5, 0.5)" fill-opacity="1">800</text><text fill="rgb(68,68,68)" stroke="none" font-family="helvetica" font-size="11px" font-style="normal" font-weight="normal" text-decoration="normal" x="1323.7666664123535" y="648.89013671875" text-anchor="start" dominant-baseline="alphabetic" transform="matrix(1, 0, 0, 1, 0.5, 0.5)" fill-opacity="1">1000</text><text fill="rgb(68,68,68)" stroke="none" font-family="helvetica" font-size="15pt" font-style="italic" font-weight="normal" text-decoration="normal" x="666.4416675567627" y="676.06982421875" text-anchor="start" dominant-baseline="alphabetic" transform="matrix(1, 0, 0, 1, 0.5, 0.5)" fill-opacity="1">time(s)</text><path fill="none" stroke="rgb(0,0,0)" paint-order="fill" d="M 58.5 630.5 L 58.5 51.5" stroke-opacity="1" stroke-linejoin="bevel" stroke-miterlimit="10" stroke-dasharray=""/><path fill="none" stroke="rgb(0,0,0)" paint-order="fill" d="M 52.5 551.5 L 60.5 551.5 M 52.5 446.5 L 60.5 446.5 M 52.5 341.5 L 60.5 341.5 M 52.5 235.5 L 60.5 235.5 M 52.5 130.5 L 60.5 130.5" stroke-opacity="1" stroke-linejoin="bevel" stroke-miterlimit="10" stroke-dasharray=""/><path fill="none" stroke="rgb(0,0,0)" paint-order="fill" d="M 54.5 572.5 L 58.5 572.5 M 54.5 593.5 L 58.5 593.5 M 54.5 614.5 L 58.5 614.5 M 54.5 551.5 L 58.5 551.5 M 54.5 530.5 L 58.5 530.5 M 54.5 509.5 L 58.5 509.5 M 54.5 488.5 L 58.5 488.5 M 54.5 467.5 L 58.5 467.5 M 54.5 446.5 L 58.5 446.5 M 54.5 425.5 L 58.5 425.5 M 54.5 404.5 L 58.5 404.5 M 54.5 383.5 L 58.5 383.5 M 54.5 362.5 L 58.5 362.5 M 54.5 341.5 L 58.5 341.5 M 54.5 319.5 L 58.5 319.5 M 54.5 298.5 L 58.5 298.5 M 54.5 277.5 L 58.5 277.5 M 54.5 256.5 L 58.5 256.5 M 54.5 235.5 L 58.5 235.5 M 54.5 214.5 L 58.5 214.5 M 54.5 193.5 L 58.5 193.5 M 54.5 172.5 L 58.5 172.5 M 54.5 151.5 L 58.5 151.5 M 54.5 130.5 L 58.5 130.5 M 54.5 109.5 L 58.5 109.5 M 54.5 88.5 L 58.5 88.5 M 54.5 67.5 L 58.5 67.5" stroke-opacity="1" stroke-linejoin="bevel" stroke-miterlimit="10" stroke-dasharray=""/><text fill="rgb(68,68,68)" stroke="none" font-family="helvetica" font-size="11px" font-style="normal" font-weight="normal" text-decoration="normal" x="34.46666622161865" y="554.9905395507812" text-anchor="start" dominant-baseline="alphabetic" transform="matrix(1, 0, 0, 1, 0.5, 0.5)" fill-opacity="1">−2</text><text fill="rgb(68,68,68)" stroke="none" font-family="helvetica" font-size="11px" font-style="normal" font-weight="normal" text-decoration="normal" x="34.46666622161865" y="449.7178039550781" text-anchor="start" dominant-baseline="alphabetic" transform="matrix(1, 0, 0, 1, 0.5, 0.5)" fill-opacity="1">−1</text><text fill="rgb(68,68,68)" stroke="none" font-family="helvetica" font-size="11px" font-style="normal" font-weight="normal" text-decoration="normal" x="40.88333320617676" y="344.445068359375" text-anchor="start" dominant-baseline="alphabetic" transform="matrix(1, 0, 0, 1, 0.5, 0.5)" fill-opacity="1">0</text><text fill="rgb(68,68,68)" stroke="none" font-family="helvetica" font-size="11px" font-style="normal" font-weight="normal" text-decoration="normal" x="40.88333320617676" y="239.17234802246094" text-anchor="start" dominant-baseline="alphabetic" transform="matrix(1, 0, 0, 1, 0.5, 0.5)" fill-opacity="1">1</text><text fill="rgb(68,68,68)" stroke="none" font-family="helvetica" font-size="11px" font-style="normal" font-weight="normal" text-decoration="normal" x="40.88333320617676" y="133.8996124267578" text-anchor="start" dominant-baseline="alphabetic" transform="matrix(1, 0, 0, 1, 0.5, 0.5)" fill-opacity="1">2</text><text fill="rgb(68,68,68)" stroke="none" font-family="helvetica" font-size="15pt" font-style="italic" font-weight="normal" text-decoration="normal" x="-11.316666603088379" y="336.076171875" text-anchor="start" dominant-baseline="alphabetic" transform="matrix(6.123233995736766e-17, -1, 1, 6.123233995736766e-17, -313.53333377838135, 367.46666622161865)" fill-opacity="1">students</text><path fill="rgb(255,255,255)" stroke="rgb(229,229,229)" paint-order="fill" d="M 1128.2333374023438 61.5 L 1326.5 61.5 L 1326.5 400.5 L 1128.2333374023438 400.5 L 1128.2333374023438 61.5" fill-opacity="0.9490196078431372" clip-path="url(#pQeLKhwHaZUS)" stroke-opacity="0.5019607843137255" stroke-linejoin="bevel" stroke-miterlimit="10" stroke-dasharray=""/><text fill="rgb(68,68,68)" stroke="none" font-family="helvetica" font-size="13px" font-style="normal" font-weight="normal" text-decoration="normal" x="1162.7333374023438" y="81" text-anchor="start" dominant-baseline="central" clip-path="url(#pQeLKhwHaZUS)" transform="matrix(1, 0, 0, 1, 0.5, 0.5)" fill-opacity="1">wavelength</text><path fill="rgb(0,255,40)" stroke="none" paint-order="stroke" d="M 1140.2333374023438 73.5 L 1156.2333374023438 73.5 L 1156.2333374023438 89.5 L 1140.2333374023438 89.5 L 1140.2333374023438 73.5" fill-opacity="1" clip-path="url(#pQeLKhwHaZUS)"/><text fill="rgb(68,68,68)" stroke="none" font-family="helvetica" font-size="13px" font-style="normal" font-weight="normal" text-decoration="normal" x="1162.7333374023438" y="104" text-anchor="start" dominant-baseline="central" clip-path="url(#pQeLKhwHaZUS)" transform="matrix(1, 0, 0, 1, 0.5, 0.5)" fill-opacity="1">solution</text><path fill="rgb(251,0,7)" stroke="none" paint-order="stroke" d="M 1140.2333374023438 96.5 L 1156.2333374023438 96.5 L 1156.2333374023438 112.5 L 1140.2333374023438 112.5 L 1140.2333374023438 96.5" fill-opacity="1" clip-path="url(#pQeLKhwHaZUS)"/><path fill="rgb(33,131,128)" stroke="none" paint-order="stroke" d="M 1140.2333374023438 96.5 L 1156.2333374023438 96.5 L 1156.2333374023438 112.5 L 1140.2333374023438 112.5 L 1140.2333374023438 96.5" fill-opacity="1" clip-path="url(#pQeLKhwHaZUS)"/><text fill="rgb(68,68,68)" stroke="none" font-family="helvetica" font-size="13px" font-style="normal" font-weight="normal" text-decoration="normal" x="1162.7333374023438" y="127" text-anchor="start" dominant-baseline="central" clip-path="url(#pQeLKhwHaZUS)" transform="matrix(1, 0, 0, 1, 0.5, 0.5)" fill-opacity="1">laser</text><path fill="rgb(105,29,48)" stroke="none" paint-order="stroke" d="M 1140.2333374023438 119.5 L 1156.2333374023438 119.5 L 1156.2333374023438 135.5 L 1140.2333374023438 135.5 L 1140.2333374023438 119.5" fill-opacity="1" clip-path="url(#pQeLKhwHaZUS)"/><text fill="rgb(68,68,68)" stroke="none" font-family="helvetica" font-size="13px" font-style="normal" font-weight="normal" text-decoration="normal" x="1162.7333374023438" y="150" text-anchor="start" dominant-baseline="central" clip-path="url(#pQeLKhwHaZUS)" transform="matrix(1, 0, 0, 1, 0.5, 0.5)" fill-opacity="1">ruler</text><text fill="rgb(68,68,68)" stroke="none" font-family="helvetica" font-size="13px" font-style="normal" font-weight="normal" text-decoration="normal" x="1162.7333374023438" y="173" text-anchor="start" dominant-baseline="central" clip-path="url(#pQeLKhwHaZUS)" transform="matrix(1, 0, 0, 1, 0.5, 0.5)" fill-opacity="1">restarts</text><path fill="rgb(162,174,187)" stroke="none" paint-order="stroke" d="M 1140.2333374023438 165.5 L 1156.2333374023438 165.5 L 1156.2333374023438 181.5 L 1140.2333374023438 181.5 L 1140.2333374023438 165.5" fill-opacity="1" clip-path="url(#pQeLKhwHaZUS)"/><text fill="rgb(68,68,68)" stroke="none" font-family="helvetica" font-size="13px" font-style="normal" font-weight="normal" text-decoration="normal" x="1162.7333374023438" y="196" text-anchor="start" dominant-baseline="central" clip-path="url(#pQeLKhwHaZUS)" transform="matrix(1, 0, 0, 1, 0.5, 0.5)" fill-opacity="1">transmittance_absorbance</text><text fill="rgb(68,68,68)" stroke="none" font-family="helvetica" font-size="13px" font-style="normal" font-weight="normal" text-decoration="normal" x="1162.7333374023438" y="219" text-anchor="start" dominant-baseline="central" clip-path="url(#pQeLKhwHaZUS)" transform="matrix(1, 0, 0, 1, 0.5, 0.5)" fill-opacity="1">magnifier</text><path fill="rgb(255,188,66)" stroke="none" paint-order="stroke" d="M 1140.2333374023438 211.5 L 1156.2333374023438 211.5 L 1156.2333374023438 227.5 L 1140.2333374023438 227.5 L 1140.2333374023438 211.5" fill-opacity="1" clip-path="url(#pQeLKhwHaZUS)"/><text fill="rgb(68,68,68)" stroke="none" font-family="helvetica" font-size="13px" font-style="normal" font-weight="normal" text-decoration="normal" x="1162.7333374023438" y="242" text-anchor="start" dominant-baseline="central" clip-path="url(#pQeLKhwHaZUS)" transform="matrix(1, 0, 0, 1, 0.5, 0.5)" fill-opacity="1">concentration</text><path fill="rgb(115,210,222)" stroke="none" paint-order="stroke" d="M 1140.2333374023438 234.5 L 1156.2333374023438 234.5 L 1156.2333374023438 250.5 L 1140.2333374023438 250.5 L 1140.2333374023438 234.5" fill-opacity="1" clip-path="url(#pQeLKhwHaZUS)"/><text fill="rgb(68,68,68)" stroke="none" font-family="helvetica" font-size="13px" font-style="normal" font-weight="normal" text-decoration="normal" x="1162.7333374023438" y="265" text-anchor="start" dominant-baseline="central" clip-path="url(#pQeLKhwHaZUS)" transform="matrix(1, 0, 0, 1, 0.5, 0.5)" fill-opacity="1">flask</text><path fill="rgb(28,49,68)" stroke="none" paint-order="stroke" d="M 1140.2333374023438 257.5 L 1156.2333374023438 257.5 L 1156.2333374023438 273.5 L 1140.2333374023438 273.5 L 1140.2333374023438 257.5" fill-opacity="1" clip-path="url(#pQeLKhwHaZUS)"/><text fill="rgb(68,68,68)" stroke="none" font-family="helvetica" font-size="13px" font-style="normal" font-weight="normal" text-decoration="normal" x="1162.7333374023438" y="288" text-anchor="start" dominant-baseline="central" clip-path="url(#pQeLKhwHaZUS)" transform="matrix(1, 0, 0, 1, 0.5, 0.5)" fill-opacity="1">pdf</text><text fill="rgb(68,68,68)" stroke="none" font-family="helvetica" font-size="13px" font-style="normal" font-weight="normal" text-decoration="normal" x="1162.7333374023438" y="311" text-anchor="start" dominant-baseline="central" clip-path="url(#pQeLKhwHaZUS)" transform="matrix(1, 0, 0, 1, 0.5, 0.5)" fill-opacity="1">concentrationlab</text><text fill="rgb(68,68,68)" stroke="none" font-family="helvetica" font-size="13px" font-style="normal" font-weight="normal" text-decoration="normal" x="1162.7333374023438" y="334" text-anchor="start" dominant-baseline="central" clip-path="url(#pQeLKhwHaZUS)" transform="matrix(1, 0, 0, 1, 0.5, 0.5)" fill-opacity="1">wavelength_slider</text><text fill="rgb(68,68,68)" stroke="none" font-family="helvetica" font-size="13px" font-style="normal" font-weight="normal" text-decoration="normal" x="1162.7333374023438" y="357" text-anchor="start" dominant-baseline="central" clip-path="url(#pQeLKhwHaZUS)" transform="matrix(1, 0, 0, 1, 0.5, 0.5)" fill-opacity="1">ruler measuring</text><text fill="rgb(68,68,68)" stroke="none" font-family="helvetica" font-size="13px" font-style="normal" font-weight="normal" text-decoration="normal" x="1162.7333374023438" y="380" text-anchor="start" dominant-baseline="central" clip-path="url(#pQeLKhwHaZUS)" transform="matrix(1, 0, 0, 1, 0.5, 0.5)" fill-opacity="1">dependent variable</text><path fill="rgb(143,45,86)" stroke="none" paint-order="stroke" d="M 1140.2333374023438 372.5 L 1156.2333374023438 372.5 L 1156.2333374023438 388.5 L 1140.2333374023438 388.5 L 1140.2333374023438 372.5" fill-opacity="1" clip-path="url(#pQeLKhwHaZUS)"/><text fill="rgb(68,68,68)" stroke="none" font-family="helvetica" font-size="25pt" font-style="normal" font-weight="bold" text-decoration="normal" x="58" y="38.740885416666664" text-anchor="start" dominant-baseline="alphabetic" transform="matrix(1, 0, 0, 1, 0.5, 0.5)" fill-opacity="1">Timeline for student p2u7xw38 with permutation 3012 for task 3</text></svg>