<svg version="1.1" xmlns="http://www.w3.org/2000/svg" width="1366" height="683"><defs><clipPath id="pUgTGhueCWiR"><path fill="none" stroke="none" d="M 58.5 51.5 L 1336.5 51.5 L 1336.5 630.5 L 58.5 630.5 L 58.5 51.5"/></clipPath><clipPath id="IzGGDgJhLIDo"><path fill="none" stroke="none" d="M 58.5 51.5 L 1336.5 51.5 L 1336.5 630.5 L 58.5 630.5 L 58.5 51.5"/></clipPath><clipPath id="nbilKPUzwiTv"><path fill="none" stroke="none" d="M 58.5 51.5 L 1336.5 51.5 L 1336.5 630.5 L 58.5 630.5 L 58.5 51.5"/></clipPath><clipPath id="WpHmkvqWVocz"><path fill="none" stroke="none" d="M 58.5 51.5 L 1336.5 51.5 L 1336.5 630.5 L 58.5 630.5 L 58.5 51.5"/></clipPath><clipPath id="UVCcfkFEKyPI"><path fill="none" stroke="none" d="M 58.5 51.5 L 1336.5 51.5 L 1336.5 630.5 L 58.5 630.5 L 58.5 51.5"/></clipPath><clipPath id="QQycOkzSMXRL"><path fill="none" stroke="none" d="M 58.5 51.5 L 1336.5 51.5 L 1336.5 630.5 L 58.5 630.5 L 58.5 51.5"/></clipPath><clipPath id="ZJflZCOmloxa"><path fill="none" stroke="none" d="M 58.5 51.5 L 1336.5 51.5 L 1336.5 630.5 L 58.5 630.5 L 58.5 51.5"/></clipPath><clipPath id="hZsvrCBEqZMp"><path fill="none" stroke="none" d="M 58.5 51.5 L 1336.5 51.5 L 1336.5 630.5 L 58.5 630.5 L 58.5 51.5"/></clipPath><clipPath id="uBkrkXTMPXFA"><path fill="none" stroke="none" d="M 58.5 51.5 L 1336.5 51.5 L 1336.5 630.5 L 58.5 630.5 L 58.5 51.5"/></clipPath><clipPath id="oKoBlsbioBBz"><path fill="none" stroke="none" d="M 58.5 51.5 L 1336.5 51.5 L 1336.5 630.5 L 58.5 630.5 L 58.5 51.5"/></clipPath><clipPath id="rVslrwsGPhXn"><path fill="none" stroke="none" d="M 58.5 51.5 L 1336.5 51.5 L 1336.5 630.5 L 58.5 630.5 L 58.5 51.5"/></clipPath><clipPath id="oZIHiulBkNAG"><path fill="none" stroke="none" d="M 58.5 51.5 L 1336.5 51.5 L 1336.5 630.5 L 58.5 630.5 L 58.5 51.5"/></clipPath><clipPath id="gGKmwzyaWTIn"><path fill="none" stroke="none" d="M 58.5 51.5 L 1336.5 51.5 L 1336.5 630.5 L 58.5 630.5 L 58.5 51.5"/></clipPath><clipPath id="XgEnqIiaAuyF"><path fill="none" stroke="none" d="M 58.5 51.5 L 1336.5 51.5 L 1336.5 630.5 L 58.5 630.5 L 58.5 51.5"/></clipPath><clipPath id="ovrfndPnlePm"><path fill="none" stroke="none" d="M 58.5 51.5 L 1336.5 51.5 L 1336.5 630.5 L 58.5 630.5 L 58.5 51.5"/></clipPath><clipPath id="dsFpnfDaAQdg"><path fill="none" stroke="none" d="M 58.5 51.5 L 1336.5 51.5 L 1336.5 630.5 L 58.5 630.5 L 58.5 51.5"/></clipPath><clipPath id="GrhJFClGsVvM"><path fill="none" stroke="none" d="M 58.5 51.5 L 1336.5 51.5 L 1336.5 630.5 L 58.5 630.5 L 58.5 51.5"/></clipPath><clipPath id="mEKQsWTXNNOv"><path fill="none" stroke="none" d="M 58.5 51.5 L 1336.5 51.5 L 1336.5 630.5 L 58.5 630.5 L 58.5 51.5"/></clipPath><clipPath id="IlGbVqRgtaHh"><path fill="none" stroke="none" d="M 58.5 51.5 L 1336.5 51.5 L 1336.5 630.5 L 58.5 630.5 L 58.5 51.5"/></clipPath><clipPath id="WfTUhvGNblzX"><path fill="none" stroke="none" d="M 58.5 51.5 L 1336.5 51.5 L 1336.5 630.5 L 58.5 630.5 L 58.5 51.5"/></clipPath><clipPath id="DgZTWhcglkEv"><path fill="none" stroke="none" d="M 58.5 51.5 L 1336.5 51.5 L 1336.5 630.5 L 58.5 630.5 L 58.5 51.5"/></clipPath></defs><path fill="rgb(255,255,255)" stroke="none" paint-order="stroke" d="M 0.5 0.5 L 1366.5 0.5 L 1366.5 683.5 L 0.5 683.5 L 0.5 0.5" fill-opacity="1"/><rect fill="#FFFFFF" stroke="none" x="58" y="51" width="1278" height="579" transform="matrix(1, 0, 0, 1, 0.5, 0.5)"/><path fill="rgb(255,255,255)" stroke="none" paint-order="stroke" d="M 58.5 51.5 L 1336.5 51.5 L 1336.5 630.5 L 58.5 630.5 L 58.5 51.5" fill-opacity="1"/><path fill="none" stroke="rgb(229,229,229)" paint-order="fill" d="M 58.5 51.5 L 1336.5 51.5 L 1336.5 630.5 L 58.5 630.5 L 58.5 51.5" stroke-opacity="1" stroke-linejoin="bevel" stroke-miterlimit="10" stroke-dasharray=""/><path fill="none" stroke="rgb(229,229,229)" paint-order="fill" d="M 314.5 630.5 L 314.5 51.5 M 569.5 630.5 L 569.5 51.5 M 825.5 630.5 L 825.5 51.5 M 1080.5 630.5 L 1080.5 51.5" stroke-opacity="1" stroke-linejoin="bevel" stroke-miterlimit="10" stroke-dasharray="" clip-path="url(#pUgTGhueCWiR)"/><path fill="none" stroke="rgb(229,229,229)" paint-order="fill" d="M 58.5 551.5 L 1336.5 551.5 M 58.5 446.5 L 1336.5 446.5 M 58.5 341.5 L 1336.5 341.5 M 58.5 235.5 L 1336.5 235.5 M 58.5 130.5 L 1336.5 130.5" stroke-opacity="1" stroke-linejoin="bevel" stroke-miterlimit="10" stroke-dasharray="" clip-path="url(#IzGGDgJhLIDo)"/><path fill="rgb(0,255,40)" stroke="none" paint-order="stroke" d="M 58.5 77.81818389892578 L 224.49813842773438 77.81818389892578 L 224.49813842773438 130.45454788208008 L 58.5 130.45454788208008 L 58.5 77.81818389892578" fill-opacity="1" clip-path="url(#nbilKPUzwiTv)"/><path fill="rgb(8,255,0)" stroke="none" paint-order="stroke" d="M 224.49813842773438 77.81818389892578 L 224.51986442692578 77.81818389892578 L 224.51986442692578 130.45454788208008 L 224.49813842773438 130.45454788208008 L 224.49813842773438 77.81818389892578" fill-opacity="1" clip-path="url(#nbilKPUzwiTv)"/><path fill="rgb(44,255,0)" stroke="none" paint-order="stroke" d="M 224.51986694335938 77.81818389892578 L 224.56331894174218 77.81818389892578 L 224.56331894174218 130.45454788208008 L 224.51986694335938 130.45454788208008 L 224.51986694335938 77.81818389892578" fill-opacity="1" clip-path="url(#nbilKPUzwiTv)"/><path fill="rgb(62,255,0)" stroke="none" paint-order="stroke" d="M 224.56332397460938 77.81818389892578 L 224.6054979749024 77.81818389892578 L 224.6054979749024 130.45454788208008 L 224.56332397460938 130.45454788208008 L 224.56332397460938 77.81818389892578" fill-opacity="1" clip-path="url(#nbilKPUzwiTv)"/><path fill="rgb(78,255,0)" stroke="none" paint-order="stroke" d="M 224.60549926757812 77.81818389892578 L 224.64767326787114 77.81818389892578 L 224.64767326787114 130.45454788208008 L 224.60549926757812 130.45454788208008 L 224.60549926757812 77.81818389892578" fill-opacity="1" clip-path="url(#nbilKPUzwiTv)"/><path fill="rgb(89,255,0)" stroke="none" paint-order="stroke" d="M 224.64767456054688 77.81818389892578 L 224.66940055973828 77.81818389892578 L 224.66940055973828 130.45454788208008 L 224.64767456054688 130.45454788208008 L 224.64767456054688 77.81818389892578" fill-opacity="1" clip-path="url(#nbilKPUzwiTv)"/><path fill="rgb(104,255,0)" stroke="none" paint-order="stroke" d="M 224.6693878173828 77.81818389892578 L 224.69111381657422 77.81818389892578 L 224.69111381657422 130.45454788208008 L 224.6693878173828 130.45454788208008 L 224.6693878173828 77.81818389892578" fill-opacity="1" clip-path="url(#nbilKPUzwiTv)"/><path fill="rgb(115,255,0)" stroke="none" paint-order="stroke" d="M 224.6911163330078 77.81818389892578 L 224.71284233219922 77.81818389892578 L 224.71284233219922 130.45454788208008 L 224.6911163330078 130.45454788208008 L 224.6911163330078 77.81818389892578" fill-opacity="1" clip-path="url(#nbilKPUzwiTv)"/><path fill="rgb(129,255,0)" stroke="none" paint-order="stroke" d="M 224.7128448486328 77.81818389892578 L 225.5230968594551 77.81818389892578 L 225.5230968594551 130.45454788208008 L 224.7128448486328 130.45454788208008 L 224.7128448486328 77.81818389892578" fill-opacity="1" clip-path="url(#nbilKPUzwiTv)"/><path fill="rgb(115,255,0)" stroke="none" paint-order="stroke" d="M 225.52310180664062 77.81818389892578 L 225.56655380502343 77.81818389892578 L 225.56655380502343 130.45454788208008 L 225.52310180664062 130.45454788208008 L 225.52310180664062 77.81818389892578" fill-opacity="1" clip-path="url(#nbilKPUzwiTv)"/><path fill="rgb(104,255,0)" stroke="none" paint-order="stroke" d="M 225.56654357910156 77.81818389892578 L 226.75891757011414 77.81818389892578 L 226.75891757011414 130.45454788208008 L 225.56654357910156 130.45454788208008 L 225.56654357910156 77.81818389892578" fill-opacity="1" clip-path="url(#nbilKPUzwiTv)"/><path fill="rgb(89,255,0)" stroke="none" paint-order="stroke" d="M 226.75892639160156 77.81818389892578 L 227.99475240707397 77.81818389892578 L 227.99475240707397 130.45454788208008 L 226.75892639160156 130.45454788208008 L 226.75892639160156 77.81818389892578" fill-opacity="1" clip-path="url(#nbilKPUzwiTv)"/><path fill="rgb(78,255,0)" stroke="none" paint-order="stroke" d="M 227.9947509765625 77.81818389892578 L 229.5296289920807 77.81818389892578 L 229.5296289920807 130.45454788208008 L 227.9947509765625 130.45454788208008 L 227.9947509765625 77.81818389892578" fill-opacity="1" clip-path="url(#nbilKPUzwiTv)"/><path fill="rgb(62,255,0)" stroke="none" paint-order="stroke" d="M 229.52963256835938 77.81818389892578 L 229.69960656762123 77.81818389892578 L 229.69960656762123 130.45454788208008 L 229.52963256835938 130.45454788208008 L 229.52963256835938 77.81818389892578" fill-opacity="1" clip-path="url(#nbilKPUzwiTv)"/><path fill="rgb(44,255,0)" stroke="none" paint-order="stroke" d="M 229.69960021972656 77.81818389892578 L 231.93737816810608 77.81818389892578 L 231.93737816810608 130.45454788208008 L 229.69960021972656 130.45454788208008 L 229.69960021972656 77.81818389892578" fill-opacity="1" clip-path="url(#nbilKPUzwiTv)"/><path fill="rgb(62,255,0)" stroke="none" paint-order="stroke" d="M 231.9373779296875 77.81818389892578 L 439.3094940185547 77.81818389892578 L 439.3094940185547 130.45454788208008 L 231.9373779296875 130.45454788208008 L 231.9373779296875 77.81818389892578" fill-opacity="1" clip-path="url(#nbilKPUzwiTv)"/><path fill="rgb(251,0,7)" stroke="none" paint-order="stroke" d="M 58.5 130.4545440673828 L 439.3094787597656 130.4545440673828 L 439.3094787597656 183.0909080505371 L 58.5 183.0909080505371 L 58.5 130.4545440673828" fill-opacity="1" clip-path="url(#WpHmkvqWVocz)"/><path fill="rgb(105,29,48)" stroke="none" paint-order="stroke" d="M 237.1976318359375 183.09091186523438 L 237.26153183728456 183.09091186523438 L 237.26153183728456 498.9090881347656 L 237.1976318359375 498.9090881347656 L 237.1976318359375 183.09091186523438" fill-opacity="1" clip-path="url(#UVCcfkFEKyPI)"/><path fill="rgb(255,188,66)" stroke="none" paint-order="stroke" d="M 157.19354248046875 183.09091186523438 L 160.46266651153564 183.09091186523438 L 160.46266651153564 498.9090881347656 L 157.19354248046875 498.9090881347656 L 157.19354248046875 183.09091186523438" fill-opacity="1" clip-path="url(#QQycOkzSMXRL)"/><path fill="rgb(255,188,66)" stroke="none" paint-order="stroke" d="M 165.93890380859375 183.09091186523438 L 168.6661558151245 183.09091186523438 L 168.6661558151245 498.9090881347656 L 165.93890380859375 498.9090881347656 L 165.93890380859375 183.09091186523438" fill-opacity="1" clip-path="url(#QQycOkzSMXRL)"/><path fill="rgb(255,188,66)" stroke="none" paint-order="stroke" d="M 195.08880615234375 183.09091186523438 L 198.08955025672913 183.09091186523438 L 198.08955025672913 498.9090881347656 L 195.08880615234375 498.9090881347656 L 195.08880615234375 183.09091186523438" fill-opacity="1" clip-path="url(#QQycOkzSMXRL)"/><path fill="rgb(162,174,187)" stroke="none" paint-order="stroke" d="M 242.69558715820312 183.09091186523438 L 242.7594871595502 183.09091186523438 L 242.7594871595502 498.9090881347656 L 242.69558715820312 498.9090881347656 L 242.69558715820312 183.09091186523438" fill-opacity="1" clip-path="url(#hZsvrCBEqZMp)"/><path fill="rgb(216,17,89)" stroke="none" paint-order="stroke" d="M 221.76834106445312 183.09091186523438 L 221.8322410658002 183.09091186523438 L 221.8322410658002 498.9090881347656 L 221.76834106445312 498.9090881347656 L 221.76834106445312 183.09091186523438" fill-opacity="1" clip-path="url(#oKoBlsbioBBz)"/><path fill="rgb(216,17,89)" stroke="none" paint-order="stroke" d="M 221.76834106445312 183.09091186523438 L 221.8322410658002 183.09091186523438 L 221.8322410658002 498.9090881347656 L 221.76834106445312 498.9090881347656 L 221.76834106445312 183.09091186523438" fill-opacity="1" clip-path="url(#oKoBlsbioBBz)"/><path fill="rgb(33,131,128)" stroke="none" paint-order="stroke" d="M 106.6652603149414 183.09091186523438 L 156.23632431030273 183.09091186523438 L 156.23632431030273 498.9090881347656 L 106.6652603149414 498.9090881347656 L 106.6652603149414 183.09091186523438" fill-opacity="1" clip-path="url(#rVslrwsGPhXn)"/><path fill="rgb(115,210,222)" stroke="none" paint-order="stroke" d="M 291.4806823730469 183.09091186523438 L 302.79992866516113 183.09091186523438 L 302.79992866516113 498.9090881347656 L 291.4806823730469 498.9090881347656 L 291.4806823730469 183.09091186523438" fill-opacity="1" clip-path="url(#oZIHiulBkNAG)"/><path fill="rgb(115,210,222)" stroke="none" paint-order="stroke" d="M 315.44317626953125 183.09091186523438 L 319.76537227630615 183.09091186523438 L 319.76537227630615 498.9090881347656 L 315.44317626953125 498.9090881347656 L 315.44317626953125 183.09091186523438" fill-opacity="1" clip-path="url(#oZIHiulBkNAG)"/><path fill="rgb(115,210,222)" stroke="none" paint-order="stroke" d="M 388.2815246582031 183.09091186523438 L 398.37005710601807 183.09091186523438 L 398.37005710601807 498.9090881347656 L 388.2815246582031 498.9090881347656 L 388.2815246582031 183.09091186523438" fill-opacity="1" clip-path="url(#oZIHiulBkNAG)"/><path fill="rgb(28,49,68)" stroke="none" paint-order="stroke" d="M 161.67422485351562 183.09091186523438 L 164.94079279899597 183.09091186523438 L 164.94079279899597 498.9090881347656 L 161.67422485351562 498.9090881347656 L 161.67422485351562 183.09091186523438" fill-opacity="1" clip-path="url(#gGKmwzyaWTIn)"/><path fill="rgb(28,49,68)" stroke="none" paint-order="stroke" d="M 169.89686584472656 183.09091186523438 L 172.52954578399658 183.09091186523438 L 172.52954578399658 498.9090881347656 L 169.89686584472656 498.9090881347656 L 169.89686584472656 183.09091186523438" fill-opacity="1" clip-path="url(#gGKmwzyaWTIn)"/><path fill="rgb(28,49,68)" stroke="none" paint-order="stroke" d="M 199.45062255859375 183.09091186523438 L 210.0030689239502 183.09091186523438 L 210.0030689239502 498.9090881347656 L 199.45062255859375 498.9090881347656 L 199.45062255859375 183.09091186523438" fill-opacity="1" clip-path="url(#gGKmwzyaWTIn)"/><path fill="rgb(28,49,68)" stroke="none" paint-order="stroke" d="M 257.9945068359375 183.09091186523438 L 264.50591707229614 183.09091186523438 L 264.50591707229614 498.9090881347656 L 257.9945068359375 498.9090881347656 L 257.9945068359375 183.09091186523438" fill-opacity="1" clip-path="url(#gGKmwzyaWTIn)"/><path fill="rgb(28,49,68)" stroke="none" paint-order="stroke" d="M 310.66986083984375 183.09091186523438 L 312.90891695022583 183.09091186523438 L 312.90891695022583 498.9090881347656 L 310.66986083984375 498.9090881347656 L 310.66986083984375 183.09091186523438" fill-opacity="1" clip-path="url(#gGKmwzyaWTIn)"/><path fill="rgb(28,49,68)" stroke="none" paint-order="stroke" d="M 379.15277099609375 183.09091186523438 L 381.5502989292145 183.09091186523438 L 381.5502989292145 498.9090881347656 L 379.15277099609375 498.9090881347656 L 379.15277099609375 183.09091186523438" fill-opacity="1" clip-path="url(#gGKmwzyaWTIn)"/><path fill="rgb(28,49,68)" stroke="none" paint-order="stroke" d="M 434.5374450683594 183.09091186523438 L 436.1208870410919 183.09091186523438 L 436.1208870410919 498.9090881347656 L 434.5374450683594 498.9090881347656 L 434.5374450683594 183.09091186523438" fill-opacity="1" clip-path="url(#gGKmwzyaWTIn)"/><path fill="rgb(28,49,68)" stroke="none" paint-order="stroke" d="M 437.2174072265625 183.09091186523438 L 439.30949330329895 183.09091186523438 L 439.30949330329895 498.9090881347656 L 437.2174072265625 498.9090881347656 L 437.2174072265625 183.09091186523438" fill-opacity="1" clip-path="url(#gGKmwzyaWTIn)"/><path fill="rgb(239,185,203)" stroke="none" paint-order="stroke" d="M 63.256717681884766 183.09091186523438 L 101.45358276367188 183.09091186523438 L 101.45358276367188 498.9090881347656 L 63.256717681884766 498.9090881347656 L 63.256717681884766 183.09091186523438" fill-opacity="1" clip-path="url(#XgEnqIiaAuyF)"/><path fill="rgb(105,29,48)" stroke="none" paint-order="stroke" d="M 222.9504852294922 183.09091186523438 L 234.67996883392334 183.09091186523438 L 234.67996883392334 498.9090881347656 L 222.9504852294922 498.9090881347656 L 222.9504852294922 183.09091186523438" fill-opacity="1" clip-path="url(#dsFpnfDaAQdg)"/><path fill="rgb(255,188,66)" stroke="none" paint-order="stroke" d="M 196.81027221679688 498.9090881347656 L 439.3094940185547 498.9090881347656 L 439.3094940185547 551.5454521179199 L 196.81027221679688 551.5454521179199 L 196.81027221679688 498.9090881347656" fill-opacity="1" clip-path="url(#GrhJFClGsVvM)"/><path fill="rgb(143,45,86)" stroke="none" paint-order="stroke" d="M 58.5 551.5454711914062 L 237.1976318359375 551.5454711914062 L 237.1976318359375 604.1818351745605 L 58.5 604.1818351745605 L 58.5 551.5454711914062" fill-opacity="1" clip-path="url(#mEKQsWTXNNOv)"/><path fill="rgb(63,136,197)" stroke="none" paint-order="stroke" d="M 237.1976318359375 551.5454711914062 L 242.69558763504028 551.5454711914062 L 242.69558763504028 604.1818351745605 L 237.1976318359375 604.1818351745605 L 237.1976318359375 551.5454711914062" fill-opacity="1" clip-path="url(#mEKQsWTXNNOv)"/><path fill="rgb(81,60,99)" stroke="none" paint-order="stroke" d="M 242.69558715820312 551.5454711914062 L 439.3094940185547 551.5454711914062 L 439.3094940185547 604.1818351745605 L 242.69558715820312 604.1818351745605 L 242.69558715820312 551.5454711914062" fill-opacity="1" clip-path="url(#mEKQsWTXNNOv)"/><path fill="none" stroke="rgb(0,0,0)" paint-order="fill" d="M 58.5 77.81818389892578 L 439.3094787597656 77.81818389892578 L 439.3094787597656 604.1818313598633 L 58.5 604.1818313598633 L 58.5 77.81818389892578" stroke-opacity="1" stroke-linejoin="bevel" stroke-miterlimit="10" stroke-dasharray="" clip-path="url(#IlGbVqRgtaHh)"/><path fill="none" stroke="rgb(0,0,0)" paint-order="fill" d="M 58.5 630.5 L 1336.5 630.5" stroke-opacity="1" stroke-linejoin="bevel" stroke-miterlimit="10" stroke-dasharray=""/><path fill="none" stroke="rgb(0,0,0)" paint-order="fill" d="M 58.5 636.5 L 58.5 628.5 M 314.5 636.5 L 314.5 628.5 M 569.5 636.5 L 569.5 628.5 M 825.5 636.5 L 825.5 628.5 M 1080.5 636.5 L 1080.5 628.5 M 1336.5 636.5 L 1336.5 628.5" stroke-opacity="1" stroke-linejoin="bevel" stroke-miterlimit="10" stroke-dasharray=""/><path fill="none" stroke="rgb(0,0,0)" paint-order="fill" d="M 58.5 634.5 L 58.5 630.5 M 109.5 634.5 L 109.5 630.5 M 160.5 634.5 L 160.5 630.5 M 211.5 634.5 L 211.5 630.5 M 262.5 634.5 L 262.5 630.5 M 314.5 634.5 L 314.5 630.5 M 365.5 634.5 L 365.5 630.5 M 416.5 634.5 L 416.5 630.5 M 467.5 634.5 L 467.5 630.5 M 518.5 634.5 L 518.5 630.5 M 569.5 634.5 L 569.5 630.5 M 620.5 634.5 L 620.5 630.5 M 671.5 634.5 L 671.5 630.5 M 723.5 634.5 L 723.5 630.5 M 774.5 634.5 L 774.5 630.5 M 825.5 634.5 L 825.5 630.5 M 876.5 634.5 L 876.5 630.5 M 927.5 634.5 L 927.5 630.5 M 978.5 634.5 L 978.5 630.5 M 1029.5 634.5 L 1029.5 630.5 M 1080.5 634.5 L 1080.5 630.5 M 1132.5 634.5 L 1132.5 630.5 M 1183.5 634.5 L 1183.5 630.5 M 1234.5 634.5 L 1234.5 630.5 M 1285.5 634.5 L 1285.5 630.5 M 1336.5 634.5 L 1336.5 630.5" stroke-opacity="1" stroke-linejoin="bevel" stroke-miterlimit="10" stroke-dasharray=""/><text fill="rgb(68,68,68)" stroke="none" font-family="helvetica" font-size="11px" font-style="normal" font-weight="normal" text-decoration="normal" x="54.94166660308838" y="648.89013671875" text-anchor="start" dominant-baseline="alphabetic" transform="matrix(1, 0, 0, 1, 0.5, 0.5)" fill-opacity="1">0</text><text fill="rgb(68,68,68)" stroke="none" font-family="helvetica" font-size="11px" font-style="normal" font-weight="normal" text-decoration="normal" x="304.42500591278076" y="648.89013671875" text-anchor="start" dominant-baseline="alphabetic" transform="matrix(1, 0, 0, 1, 0.5, 0.5)" fill-opacity="1">200</text><text fill="rgb(68,68,68)" stroke="none" font-family="helvetica" font-size="11px" font-style="normal" font-weight="normal" text-decoration="normal" x="560.0250120162964" y="648.89013671875" text-anchor="start" dominant-baseline="alphabetic" transform="matrix(1, 0, 0, 1, 0.5, 0.5)" fill-opacity="1">400</text><text fill="rgb(68,68,68)" stroke="none" font-family="helvetica" font-size="11px" font-style="normal" font-weight="normal" text-decoration="normal" x="815.6249876022339" y="648.89013671875" text-anchor="start" dominant-baseline="alphabetic" transform="matrix(1, 0, 0, 1, 0.5, 0.5)" fill-opacity="1">600</text><text fill="rgb(68,68,68)" stroke="none" font-family="helvetica" font-size="11px" font-style="normal" font-weight="normal" text-decoration="normal" x="1071.2250242233276" y="648.89013671875" text-anchor="start" dominant-baseline="alphabetic" transform="matrix(1, 0, 0, 1, 0.5, 0.5)" fill-opacity="1">800</text><text fill="rgb(68,68,68)" stroke="none" font-family="helvetica" font-size="11px" font-style="normal" font-weight="normal" text-decoration="normal" x="1323.7666664123535" y="648.89013671875" text-anchor="start" dominant-baseline="alphabetic" transform="matrix(1, 0, 0, 1, 0.5, 0.5)" fill-opacity="1">1000</text><text fill="rgb(68,68,68)" stroke="none" font-family="helvetica" font-size="15pt" font-style="italic" font-weight="normal" text-decoration="normal" x="666.4416675567627" y="676.06982421875" text-anchor="start" dominant-baseline="alphabetic" transform="matrix(1, 0, 0, 1, 0.5, 0.5)" fill-opacity="1">time(s)</text><path fill="none" stroke="rgb(0,0,0)" paint-order="fill" d="M 58.5 630.5 L 58.5 51.5" stroke-opacity="1" stroke-linejoin="bevel" stroke-miterlimit="10" stroke-dasharray=""/><path fill="none" stroke="rgb(0,0,0)" paint-order="fill" d="M 52.5 551.5 L 60.5 551.5 M 52.5 446.5 L 60.5 446.5 M 52.5 341.5 L 60.5 341.5 M 52.5 235.5 L 60.5 235.5 M 52.5 130.5 L 60.5 130.5" stroke-opacity="1" stroke-linejoin="bevel" stroke-miterlimit="10" stroke-dasharray=""/><path fill="none" stroke="rgb(0,0,0)" paint-order="fill" d="M 54.5 572.5 L 58.5 572.5 M 54.5 593.5 L 58.5 593.5 M 54.5 614.5 L 58.5 614.5 M 54.5 551.5 L 58.5 551.5 M 54.5 530.5 L 58.5 530.5 M 54.5 509.5 L 58.5 509.5 M 54.5 488.5 L 58.5 488.5 M 54.5 467.5 L 58.5 467.5 M 54.5 446.5 L 58.5 446.5 M 54.5 425.5 L 58.5 425.5 M 54.5 404.5 L 58.5 404.5 M 54.5 383.5 L 58.5 383.5 M 54.5 362.5 L 58.5 362.5 M 54.5 341.5 L 58.5 341.5 M 54.5 319.5 L 58.5 319.5 M 54.5 298.5 L 58.5 298.5 M 54.5 277.5 L 58.5 277.5 M 54.5 256.5 L 58.5 256.5 M 54.5 235.5 L 58.5 235.5 M 54.5 214.5 L 58.5 214.5 M 54.5 193.5 L 58.5 193.5 M 54.5 172.5 L 58.5 172.5 M 54.5 151.5 L 58.5 151.5 M 54.5 130.5 L 58.5 130.5 M 54.5 109.5 L 58.5 109.5 M 54.5 88.5 L 58.5 88.5 M 54.5 67.5 L 58.5 67.5" stroke-opacity="1" stroke-linejoin="bevel" stroke-miterlimit="10" stroke-dasharray=""/><text fill="rgb(68,68,68)" stroke="none" font-family="helvetica" font-size="11px" font-style="normal" font-weight="normal" text-decoration="normal" x="34.46666622161865" y="554.9905395507812" text-anchor="start" dominant-baseline="alphabetic" transform="matrix(1, 0, 0, 1, 0.5, 0.5)" fill-opacity="1">−2</text><text fill="rgb(68,68,68)" stroke="none" font-family="helvetica" font-size="11px" font-style="normal" font-weight="normal" text-decoration="normal" x="34.46666622161865" y="449.7178039550781" text-anchor="start" dominant-baseline="alphabetic" transform="matrix(1, 0, 0, 1, 0.5, 0.5)" fill-opacity="1">−1</text><text fill="rgb(68,68,68)" stroke="none" font-family="helvetica" font-size="11px" font-style="normal" font-weight="normal" text-decoration="normal" x="40.88333320617676" y="344.445068359375" text-anchor="start" dominant-baseline="alphabetic" transform="matrix(1, 0, 0, 1, 0.5, 0.5)" fill-opacity="1">0</text><text fill="rgb(68,68,68)" stroke="none" font-family="helvetica" font-size="11px" font-style="normal" font-weight="normal" text-decoration="normal" x="40.88333320617676" y="239.17234802246094" text-anchor="start" dominant-baseline="alphabetic" transform="matrix(1, 0, 0, 1, 0.5, 0.5)" fill-opacity="1">1</text><text fill="rgb(68,68,68)" stroke="none" font-family="helvetica" font-size="11px" font-style="normal" font-weight="normal" text-decoration="normal" x="40.88333320617676" y="133.8996124267578" text-anchor="start" dominant-baseline="alphabetic" transform="matrix(1, 0, 0, 1, 0.5, 0.5)" fill-opacity="1">2</text><text fill="rgb(68,68,68)" stroke="none" font-family="helvetica" font-size="15pt" font-style="italic" font-weight="normal" text-decoration="normal" x="-11.316666603088379" y="336.076171875" text-anchor="start" dominant-baseline="alphabetic" transform="matrix(6.123233995736766e-17, -1, 1, 6.123233995736766e-17, -313.53333377838135, 367.46666622161865)" fill-opacity="1">students</text><path fill="rgb(255,255,255)" stroke="rgb(229,229,229)" paint-order="fill" d="M 1128.2333374023438 61.5 L 1326.5 61.5 L 1326.5 400.5 L 1128.2333374023438 400.5 L 1128.2333374023438 61.5" fill-opacity="0.9490196078431372" clip-path="url(#WfTUhvGNblzX)" stroke-opacity="0.5019607843137255" stroke-linejoin="bevel" stroke-miterlimit="10" stroke-dasharray=""/><g clip-path="url(#WfTUhvGNblzX)"><text fill="rgb(68,68,68)" stroke="none" font-family="helvetica" font-size="13px" font-style="normal" font-weight="normal" text-decoration="normal" x="1162.7333374023438" y="81" text-anchor="start" dominant-baseline="central" transform="matrix(1, 0, 0, 1, 0.5, 0.5)" fill-opacity="1">wavelength</text></g><path fill="rgb(0,255,40)" stroke="none" paint-order="stroke" d="M 1140.2333374023438 73.5 L 1156.2333374023438 73.5 L 1156.2333374023438 89.5 L 1140.2333374023438 89.5 L 1140.2333374023438 73.5" fill-opacity="1" clip-path="url(#WfTUhvGNblzX)"/><path fill="rgb(216,17,89)" stroke="none" paint-order="stroke" d="M 1140.2333374023438 73.5 L 1156.2333374023438 73.5 L 1156.2333374023438 89.5 L 1140.2333374023438 89.5 L 1140.2333374023438 73.5" fill-opacity="1" clip-path="url(#WfTUhvGNblzX)"/><g clip-path="url(#WfTUhvGNblzX)"><text fill="rgb(68,68,68)" stroke="none" font-family="helvetica" font-size="13px" font-style="normal" font-weight="normal" text-decoration="normal" x="1162.7333374023438" y="104" text-anchor="start" dominant-baseline="central" transform="matrix(1, 0, 0, 1, 0.5, 0.5)" fill-opacity="1">solution</text></g><path fill="rgb(251,0,7)" stroke="none" paint-order="stroke" d="M 1140.2333374023438 96.5 L 1156.2333374023438 96.5 L 1156.2333374023438 112.5 L 1140.2333374023438 112.5 L 1140.2333374023438 96.5" fill-opacity="1" clip-path="url(#WfTUhvGNblzX)"/><path fill="rgb(33,131,128)" stroke="none" paint-order="stroke" d="M 1140.2333374023438 96.5 L 1156.2333374023438 96.5 L 1156.2333374023438 112.5 L 1140.2333374023438 112.5 L 1140.2333374023438 96.5" fill-opacity="1" clip-path="url(#WfTUhvGNblzX)"/><g clip-path="url(#WfTUhvGNblzX)"><text fill="rgb(68,68,68)" stroke="none" font-family="helvetica" font-size="13px" font-style="normal" font-weight="normal" text-decoration="normal" x="1162.7333374023438" y="127" text-anchor="start" dominant-baseline="central" transform="matrix(1, 0, 0, 1, 0.5, 0.5)" fill-opacity="1">laser</text></g><path fill="rgb(105,29,48)" stroke="none" paint-order="stroke" d="M 1140.2333374023438 119.5 L 1156.2333374023438 119.5 L 1156.2333374023438 135.5 L 1140.2333374023438 135.5 L 1140.2333374023438 119.5" fill-opacity="1" clip-path="url(#WfTUhvGNblzX)"/><g clip-path="url(#WfTUhvGNblzX)"><text fill="rgb(68,68,68)" stroke="none" font-family="helvetica" font-size="13px" font-style="normal" font-weight="normal" text-decoration="normal" x="1162.7333374023438" y="150" text-anchor="start" dominant-baseline="central" transform="matrix(1, 0, 0, 1, 0.5, 0.5)" fill-opacity="1">ruler</text></g><path fill="rgb(255,188,66)" stroke="none" paint-order="stroke" d="M 1140.2333374023438 142.5 L 1156.2333374023438 142.5 L 1156.2333374023438 158.5 L 1140.2333374023438 158.5 L 1140.2333374023438 142.5" fill-opacity="1" clip-path="url(#WfTUhvGNblzX)"/><g clip-path="url(#WfTUhvGNblzX)"><text fill="rgb(68,68,68)" stroke="none" font-family="helvetica" font-size="13px" font-style="normal" font-weight="normal" text-decoration="normal" x="1162.7333374023438" y="173" text-anchor="start" dominant-baseline="central" transform="matrix(1, 0, 0, 1, 0.5, 0.5)" fill-opacity="1">restarts</text></g><g clip-path="url(#WfTUhvGNblzX)"><text fill="rgb(68,68,68)" stroke="none" font-family="helvetica" font-size="13px" font-style="normal" font-weight="normal" text-decoration="normal" x="1162.7333374023438" y="196" text-anchor="start" dominant-baseline="central" transform="matrix(1, 0, 0, 1, 0.5, 0.5)" fill-opacity="1">transmittance_absorbance</text></g><path fill="rgb(162,174,187)" stroke="none" paint-order="stroke" d="M 1140.2333374023438 188.5 L 1156.2333374023438 188.5 L 1156.2333374023438 204.5 L 1140.2333374023438 204.5 L 1140.2333374023438 188.5" fill-opacity="1" clip-path="url(#WfTUhvGNblzX)"/><g clip-path="url(#WfTUhvGNblzX)"><text fill="rgb(68,68,68)" stroke="none" font-family="helvetica" font-size="13px" font-style="normal" font-weight="normal" text-decoration="normal" x="1162.7333374023438" y="219" text-anchor="start" dominant-baseline="central" transform="matrix(1, 0, 0, 1, 0.5, 0.5)" fill-opacity="1">magnifier</text></g><g clip-path="url(#WfTUhvGNblzX)"><text fill="rgb(68,68,68)" stroke="none" font-family="helvetica" font-size="13px" font-style="normal" font-weight="normal" text-decoration="normal" x="1162.7333374023438" y="242" text-anchor="start" dominant-baseline="central" transform="matrix(1, 0, 0, 1, 0.5, 0.5)" fill-opacity="1">concentration</text></g><path fill="rgb(115,210,222)" stroke="none" paint-order="stroke" d="M 1140.2333374023438 234.5 L 1156.2333374023438 234.5 L 1156.2333374023438 250.5 L 1140.2333374023438 250.5 L 1140.2333374023438 234.5" fill-opacity="1" clip-path="url(#WfTUhvGNblzX)"/><g clip-path="url(#WfTUhvGNblzX)"><text fill="rgb(68,68,68)" stroke="none" font-family="helvetica" font-size="13px" font-style="normal" font-weight="normal" text-decoration="normal" x="1162.7333374023438" y="265" text-anchor="start" dominant-baseline="central" transform="matrix(1, 0, 0, 1, 0.5, 0.5)" fill-opacity="1">flask</text></g><path fill="rgb(28,49,68)" stroke="none" paint-order="stroke" d="M 1140.2333374023438 257.5 L 1156.2333374023438 257.5 L 1156.2333374023438 273.5 L 1140.2333374023438 273.5 L 1140.2333374023438 257.5" fill-opacity="1" clip-path="url(#WfTUhvGNblzX)"/><g clip-path="url(#WfTUhvGNblzX)"><text fill="rgb(68,68,68)" stroke="none" font-family="helvetica" font-size="13px" font-style="normal" font-weight="normal" text-decoration="normal" x="1162.7333374023438" y="288" text-anchor="start" dominant-baseline="central" transform="matrix(1, 0, 0, 1, 0.5, 0.5)" fill-opacity="1">pdf</text></g><path fill="rgb(239,185,203)" stroke="none" paint-order="stroke" d="M 1140.2333374023438 280.5 L 1156.2333374023438 280.5 L 1156.2333374023438 296.5 L 1140.2333374023438 296.5 L 1140.2333374023438 280.5" fill-opacity="1" clip-path="url(#WfTUhvGNblzX)"/><g clip-path="url(#WfTUhvGNblzX)"><text fill="rgb(68,68,68)" stroke="none" font-family="helvetica" font-size="13px" font-style="normal" font-weight="normal" text-decoration="normal" x="1162.7333374023438" y="311" text-anchor="start" dominant-baseline="central" transform="matrix(1, 0, 0, 1, 0.5, 0.5)" fill-opacity="1">concentrationlab</text></g><g clip-path="url(#WfTUhvGNblzX)"><text fill="rgb(68,68,68)" stroke="none" font-family="helvetica" font-size="13px" font-style="normal" font-weight="normal" text-decoration="normal" x="1162.7333374023438" y="334" text-anchor="start" dominant-baseline="central" transform="matrix(1, 0, 0, 1, 0.5, 0.5)" fill-opacity="1">wavelength_slider</text></g><path fill="rgb(105,29,48)" stroke="none" paint-order="stroke" d="M 1140.2333374023438 326.5 L 1156.2333374023438 326.5 L 1156.2333374023438 342.5 L 1140.2333374023438 342.5 L 1140.2333374023438 326.5" fill-opacity="1" clip-path="url(#WfTUhvGNblzX)"/><g clip-path="url(#WfTUhvGNblzX)"><text fill="rgb(68,68,68)" stroke="none" font-family="helvetica" font-size="13px" font-style="normal" font-weight="normal" text-decoration="normal" x="1162.7333374023438" y="357" text-anchor="start" dominant-baseline="central" transform="matrix(1, 0, 0, 1, 0.5, 0.5)" fill-opacity="1">ruler measuring</text></g><path fill="rgb(255,188,66)" stroke="none" paint-order="stroke" d="M 1140.2333374023438 349.5 L 1156.2333374023438 349.5 L 1156.2333374023438 365.5 L 1140.2333374023438 365.5 L 1140.2333374023438 349.5" fill-opacity="1" clip-path="url(#WfTUhvGNblzX)"/><g clip-path="url(#WfTUhvGNblzX)"><text fill="rgb(68,68,68)" stroke="none" font-family="helvetica" font-size="13px" font-style="normal" font-weight="normal" text-decoration="normal" x="1162.7333374023438" y="380" text-anchor="start" dominant-baseline="central" transform="matrix(1, 0, 0, 1, 0.5, 0.5)" fill-opacity="1">dependent variable</text></g><path fill="rgb(143,45,86)" stroke="none" paint-order="stroke" d="M 1140.2333374023438 372.5 L 1156.2333374023438 372.5 L 1156.2333374023438 388.5 L 1140.2333374023438 388.5 L 1140.2333374023438 372.5" fill-opacity="1" clip-path="url(#WfTUhvGNblzX)"/><text fill="rgb(68,68,68)" stroke="none" font-family="helvetica" font-size="25pt" font-style="normal" font-weight="bold" text-decoration="normal" x="58" y="38.740885416666664" text-anchor="start" dominant-baseline="alphabetic" transform="matrix(1, 0, 0, 1, 0.5, 0.5)" fill-opacity="1">Timeline for student j6nndaxp with permutation 3102 for task 2</text></svg>