<svg version="1.1" xmlns="http://www.w3.org/2000/svg" width="1366" height="683"><defs><clipPath id="UuuZnWSnmicI"><path fill="none" stroke="none" d="M 58.5 51.5 L 1336.5 51.5 L 1336.5 630.5 L 58.5 630.5 L 58.5 51.5"/></clipPath><clipPath id="UUHfglfUDCUu"><path fill="none" stroke="none" d="M 58.5 51.5 L 1336.5 51.5 L 1336.5 630.5 L 58.5 630.5 L 58.5 51.5"/></clipPath><clipPath id="nzKtTZEdfior"><path fill="none" stroke="none" d="M 58.5 51.5 L 1336.5 51.5 L 1336.5 630.5 L 58.5 630.5 L 58.5 51.5"/></clipPath><clipPath id="enLHxfmaJsmp"><path fill="none" stroke="none" d="M 58.5 51.5 L 1336.5 51.5 L 1336.5 630.5 L 58.5 630.5 L 58.5 51.5"/></clipPath><clipPath id="xVmdJQcMoPwG"><path fill="none" stroke="none" d="M 58.5 51.5 L 1336.5 51.5 L 1336.5 630.5 L 58.5 630.5 L 58.5 51.5"/></clipPath><clipPath id="KRdGIcvecBxq"><path fill="none" stroke="none" d="M 58.5 51.5 L 1336.5 51.5 L 1336.5 630.5 L 58.5 630.5 L 58.5 51.5"/></clipPath><clipPath id="bpFFIIkCDsiO"><path fill="none" stroke="none" d="M 58.5 51.5 L 1336.5 51.5 L 1336.5 630.5 L 58.5 630.5 L 58.5 51.5"/></clipPath><clipPath id="kobPIiSxhPre"><path fill="none" stroke="none" d="M 58.5 51.5 L 1336.5 51.5 L 1336.5 630.5 L 58.5 630.5 L 58.5 51.5"/></clipPath><clipPath id="UUwKcfSbaIkM"><path fill="none" stroke="none" d="M 58.5 51.5 L 1336.5 51.5 L 1336.5 630.5 L 58.5 630.5 L 58.5 51.5"/></clipPath><clipPath id="QUAhfMWBVGmu"><path fill="none" stroke="none" d="M 58.5 51.5 L 1336.5 51.5 L 1336.5 630.5 L 58.5 630.5 L 58.5 51.5"/></clipPath><clipPath id="zOELpdupvyuh"><path fill="none" stroke="none" d="M 58.5 51.5 L 1336.5 51.5 L 1336.5 630.5 L 58.5 630.5 L 58.5 51.5"/></clipPath><clipPath id="iNwBcXBaweMk"><path fill="none" stroke="none" d="M 58.5 51.5 L 1336.5 51.5 L 1336.5 630.5 L 58.5 630.5 L 58.5 51.5"/></clipPath><clipPath id="vrCrTvfgScSO"><path fill="none" stroke="none" d="M 58.5 51.5 L 1336.5 51.5 L 1336.5 630.5 L 58.5 630.5 L 58.5 51.5"/></clipPath><clipPath id="zvAfpnNrkcWH"><path fill="none" stroke="none" d="M 58.5 51.5 L 1336.5 51.5 L 1336.5 630.5 L 58.5 630.5 L 58.5 51.5"/></clipPath><clipPath id="JAqLIrbKiksu"><path fill="none" stroke="none" d="M 58.5 51.5 L 1336.5 51.5 L 1336.5 630.5 L 58.5 630.5 L 58.5 51.5"/></clipPath><clipPath id="laxghHMMvMId"><path fill="none" stroke="none" d="M 58.5 51.5 L 1336.5 51.5 L 1336.5 630.5 L 58.5 630.5 L 58.5 51.5"/></clipPath><clipPath id="ZFSWFtLgCToB"><path fill="none" stroke="none" d="M 58.5 51.5 L 1336.5 51.5 L 1336.5 630.5 L 58.5 630.5 L 58.5 51.5"/></clipPath><clipPath id="eUoqBuQwDZay"><path fill="none" stroke="none" d="M 58.5 51.5 L 1336.5 51.5 L 1336.5 630.5 L 58.5 630.5 L 58.5 51.5"/></clipPath><clipPath id="DXiEnGPIVobx"><path fill="none" stroke="none" d="M 58.5 51.5 L 1336.5 51.5 L 1336.5 630.5 L 58.5 630.5 L 58.5 51.5"/></clipPath><clipPath id="BEmTJXGPuhcy"><path fill="none" stroke="none" d="M 58.5 51.5 L 1336.5 51.5 L 1336.5 630.5 L 58.5 630.5 L 58.5 51.5"/></clipPath><clipPath id="DTncRmqTmUNb"><path fill="none" stroke="none" d="M 58.5 51.5 L 1336.5 51.5 L 1336.5 630.5 L 58.5 630.5 L 58.5 51.5"/></clipPath></defs><path fill="rgb(255,255,255)" stroke="none" paint-order="stroke" d="M 0.5 0.5 L 1366.5 0.5 L 1366.5 683.5 L 0.5 683.5 L 0.5 0.5" fill-opacity="1"/><rect fill="#FFFFFF" stroke="none" x="58" y="51" width="1278" height="579" transform="matrix(1, 0, 0, 1, 0.5, 0.5)"/><path fill="rgb(255,255,255)" stroke="none" paint-order="stroke" d="M 58.5 51.5 L 1336.5 51.5 L 1336.5 630.5 L 58.5 630.5 L 58.5 51.5" fill-opacity="1"/><path fill="none" stroke="rgb(229,229,229)" paint-order="fill" d="M 58.5 51.5 L 1336.5 51.5 L 1336.5 630.5 L 58.5 630.5 L 58.5 51.5" stroke-opacity="1" stroke-linejoin="bevel" stroke-miterlimit="10" stroke-dasharray=""/><path fill="none" stroke="rgb(229,229,229)" paint-order="fill" d="M 314.5 630.5 L 314.5 51.5 M 569.5 630.5 L 569.5 51.5 M 825.5 630.5 L 825.5 51.5 M 1080.5 630.5 L 1080.5 51.5" stroke-opacity="1" stroke-linejoin="bevel" stroke-miterlimit="10" stroke-dasharray="" clip-path="url(#UuuZnWSnmicI)"/><path fill="none" stroke="rgb(229,229,229)" paint-order="fill" d="M 58.5 551.5 L 1336.5 551.5 M 58.5 446.5 L 1336.5 446.5 M 58.5 341.5 L 1336.5 341.5 M 58.5 235.5 L 1336.5 235.5 M 58.5 130.5 L 1336.5 130.5" stroke-opacity="1" stroke-linejoin="bevel" stroke-miterlimit="10" stroke-dasharray="" clip-path="url(#UUHfglfUDCUu)"/><path fill="rgb(0,255,40)" stroke="none" paint-order="stroke" d="M 58.5 77.81818389892578 L 459.1849365234375 77.81818389892578 L 459.1849365234375 130.45454788208008 L 58.5 130.45454788208008 L 58.5 77.81818389892578" fill-opacity="1" clip-path="url(#nzKtTZEdfior)"/><path fill="rgb(14,255,0)" stroke="none" paint-order="stroke" d="M 459.1849365234375 77.81818389892578 L 459.26800652593374 77.81818389892578 L 459.26800652593374 130.45454788208008 L 459.1849365234375 130.45454788208008 L 459.1849365234375 77.81818389892578" fill-opacity="1" clip-path="url(#nzKtTZEdfior)"/><path fill="rgb(40,255,0)" stroke="none" paint-order="stroke" d="M 459.26800537109375 77.81818389892578 L 459.3536313697696 77.81818389892578 L 459.3536313697696 130.45454788208008 L 459.26800537109375 130.45454788208008 L 459.26800537109375 77.81818389892578" fill-opacity="1" clip-path="url(#nzKtTZEdfior)"/><path fill="rgb(62,255,0)" stroke="none" paint-order="stroke" d="M 459.3536376953125 77.81818389892578 L 459.46098969876766 77.81818389892578 L 459.46098969876766 130.45454788208008 L 459.3536376953125 130.45454788208008 L 459.3536376953125 77.81818389892578" fill-opacity="1" clip-path="url(#nzKtTZEdfior)"/><path fill="rgb(82,255,0)" stroke="none" paint-order="stroke" d="M 459.46099853515625 77.81818389892578 L 459.50317253544927 77.81818389892578 L 459.50317253544927 130.45454788208008 L 459.46099853515625 130.45454788208008 L 459.46099853515625 77.81818389892578" fill-opacity="1" clip-path="url(#nzKtTZEdfior)"/><path fill="rgb(101,255,0)" stroke="none" paint-order="stroke" d="M 459.503173828125 77.81818389892578 L 459.52234382741153 77.81818389892578 L 459.52234382741153 130.45454788208008 L 459.503173828125 130.45454788208008 L 459.503173828125 77.81818389892578" fill-opacity="1" clip-path="url(#nzKtTZEdfior)"/><path fill="rgb(119,255,0)" stroke="none" paint-order="stroke" d="M 459.5223388671875 77.81818389892578 L 459.9287428557873 77.81818389892578 L 459.9287428557873 130.45454788208008 L 459.5223388671875 130.45454788208008 L 459.5223388671875 77.81818389892578" fill-opacity="1" clip-path="url(#nzKtTZEdfior)"/><path fill="rgb(101,255,0)" stroke="none" paint-order="stroke" d="M 459.9287414550781 77.81818389892578 L 460.16261544823647 77.81818389892578 L 460.16261544823647 130.45454788208008 L 459.9287414550781 130.45454788208008 L 459.9287414550781 77.81818389892578" fill-opacity="1" clip-path="url(#nzKtTZEdfior)"/><path fill="rgb(82,255,0)" stroke="none" paint-order="stroke" d="M 460.1626281738281 77.81818389892578 L 460.20608017221093 77.81818389892578 L 460.20608017221093 130.45454788208008 L 460.1626281738281 130.45454788208008 L 460.1626281738281 77.81818389892578" fill-opacity="1" clip-path="url(#nzKtTZEdfior)"/><path fill="rgb(62,255,0)" stroke="none" paint-order="stroke" d="M 460.2060852050781 77.81818389892578 L 460.28915520757437 77.81818389892578 L 460.28915520757437 130.45454788208008 L 460.2060852050781 130.45454788208008 L 460.2060852050781 77.81818389892578" fill-opacity="1" clip-path="url(#nzKtTZEdfior)"/><path fill="rgb(40,255,0)" stroke="none" paint-order="stroke" d="M 460.2891540527344 77.81818389892578 L 460.65210604667664 77.81818389892578 L 460.65210604667664 130.45454788208008 L 460.2891540527344 130.45454788208008 L 460.2891540527344 77.81818389892578" fill-opacity="1" clip-path="url(#nzKtTZEdfior)"/><path fill="rgb(14,255,0)" stroke="none" paint-order="stroke" d="M 460.652099609375 77.81818389892578 L 461.26937359571457 77.81818389892578 L 461.26937359571457 130.45454788208008 L 460.652099609375 130.45454788208008 L 460.652099609375 77.81818389892578" fill-opacity="1" clip-path="url(#nzKtTZEdfior)"/><path fill="rgb(40,255,0)" stroke="none" paint-order="stroke" d="M 461.2693786621094 77.81818389892578 L 461.28982666134834 77.81818389892578 L 461.28982666134834 130.45454788208008 L 461.2693786621094 130.45454788208008 L 461.2693786621094 77.81818389892578" fill-opacity="1" clip-path="url(#nzKtTZEdfior)"/><path fill="rgb(62,255,0)" stroke="none" paint-order="stroke" d="M 461.2898254394531 77.81818389892578 L 464.0733094215393 77.81818389892578 L 464.0733094215393 130.45454788208008 L 461.2898254394531 130.45454788208008 L 461.2898254394531 77.81818389892578" fill-opacity="1" clip-path="url(#nzKtTZEdfior)"/><path fill="rgb(58,255,0)" stroke="none" paint-order="stroke" d="M 464.07330322265625 77.81818389892578 L 465.1135952472687 77.81818389892578 L 465.1135952472687 130.45454788208008 L 464.07330322265625 130.45454788208008 L 464.07330322265625 77.81818389892578" fill-opacity="1" clip-path="url(#nzKtTZEdfior)"/><path fill="rgb(53,255,0)" stroke="none" paint-order="stroke" d="M 465.11358642578125 77.81818389892578 L 847.2509155273438 77.81818389892578 L 847.2509155273438 130.45454788208008 L 465.11358642578125 130.45454788208008 L 465.11358642578125 77.81818389892578" fill-opacity="1" clip-path="url(#nzKtTZEdfior)"/><path fill="rgb(251,0,7)" stroke="none" paint-order="stroke" d="M 58.5 130.4545440673828 L 847.2509155273438 130.4545440673828 L 847.2509155273438 183.0909080505371 L 58.5 183.0909080505371 L 58.5 130.4545440673828" fill-opacity="1" clip-path="url(#enLHxfmaJsmp)"/><path fill="rgb(105,29,48)" stroke="none" paint-order="stroke" d="M 469.1111755371094 183.09091186523438 L 469.17507553845644 183.09091186523438 L 469.17507553845644 498.9090881347656 L 469.1111755371094 498.9090881347656 L 469.1111755371094 183.09091186523438" fill-opacity="1" clip-path="url(#xVmdJQcMoPwG)"/><path fill="rgb(255,188,66)" stroke="none" paint-order="stroke" d="M 415.8454284667969 183.09091186523438 L 419.6155285835266 183.09091186523438 L 419.6155285835266 498.9090881347656 L 415.8454284667969 498.9090881347656 L 415.8454284667969 183.09091186523438" fill-opacity="1" clip-path="url(#KRdGIcvecBxq)"/><path fill="rgb(255,188,66)" stroke="none" paint-order="stroke" d="M 442.24505615234375 183.09091186523438 L 446.0560522079468 183.09091186523438 L 446.0560522079468 498.9090881347656 L 442.24505615234375 498.9090881347656 L 442.24505615234375 183.09091186523438" fill-opacity="1" clip-path="url(#KRdGIcvecBxq)"/><path fill="rgb(162,174,187)" stroke="none" paint-order="stroke" d="M 474.5196838378906 183.09091186523438 L 474.5835838392377 183.09091186523438 L 474.5835838392377 498.9090881347656 L 474.5196838378906 498.9090881347656 L 474.5196838378906 183.09091186523438" fill-opacity="1" clip-path="url(#kobPIiSxhPre)"/><path fill="rgb(216,17,89)" stroke="none" paint-order="stroke" d="M 455.0697937011719 183.09091186523438 L 455.13369370251894 183.09091186523438 L 455.13369370251894 498.9090881347656 L 455.0697937011719 498.9090881347656 L 455.0697937011719 183.09091186523438" fill-opacity="1" clip-path="url(#QUAhfMWBVGmu)"/><path fill="rgb(115,210,222)" stroke="none" paint-order="stroke" d="M 550.8967895507812 183.09091186523438 L 560.4626197814941 183.09091186523438 L 560.4626197814941 498.9090881347656 L 550.8967895507812 498.9090881347656 L 550.8967895507812 183.09091186523438" fill-opacity="1" clip-path="url(#iNwBcXBaweMk)"/><path fill="rgb(115,210,222)" stroke="none" paint-order="stroke" d="M 562.7706909179688 183.09091186523438 L 562.8345909193158 183.09091186523438 L 562.8345909193158 498.9090881347656 L 562.7706909179688 498.9090881347656 L 562.7706909179688 183.09091186523438" fill-opacity="1" clip-path="url(#iNwBcXBaweMk)"/><path fill="rgb(115,210,222)" stroke="none" paint-order="stroke" d="M 562.7706909179688 183.09091186523438 L 562.8345909193158 183.09091186523438 L 562.8345909193158 498.9090881347656 L 562.7706909179688 498.9090881347656 L 562.7706909179688 183.09091186523438" fill-opacity="1" clip-path="url(#iNwBcXBaweMk)"/><path fill="rgb(115,210,222)" stroke="none" paint-order="stroke" d="M 563.648681640625 183.09091186523438 L 563.7125816419721 183.09091186523438 L 563.7125816419721 498.9090881347656 L 563.648681640625 498.9090881347656 L 563.648681640625 183.09091186523438" fill-opacity="1" clip-path="url(#iNwBcXBaweMk)"/><path fill="rgb(115,210,222)" stroke="none" paint-order="stroke" d="M 563.648681640625 183.09091186523438 L 563.7125816419721 183.09091186523438 L 563.7125816419721 498.9090881347656 L 563.648681640625 498.9090881347656 L 563.648681640625 183.09091186523438" fill-opacity="1" clip-path="url(#iNwBcXBaweMk)"/><path fill="rgb(115,210,222)" stroke="none" paint-order="stroke" d="M 564.3477172851562 183.09091186523438 L 564.4116172865033 183.09091186523438 L 564.4116172865033 498.9090881347656 L 564.3477172851562 498.9090881347656 L 564.3477172851562 183.09091186523438" fill-opacity="1" clip-path="url(#iNwBcXBaweMk)"/><path fill="rgb(115,210,222)" stroke="none" paint-order="stroke" d="M 564.3477172851562 183.09091186523438 L 564.4116172865033 183.09091186523438 L 564.4116172865033 498.9090881347656 L 564.3477172851562 498.9090881347656 L 564.3477172851562 183.09091186523438" fill-opacity="1" clip-path="url(#iNwBcXBaweMk)"/><path fill="rgb(115,210,222)" stroke="none" paint-order="stroke" d="M 564.6851196289062 183.09091186523438 L 564.7490196302533 183.09091186523438 L 564.7490196302533 498.9090881347656 L 564.6851196289062 498.9090881347656 L 564.6851196289062 183.09091186523438" fill-opacity="1" clip-path="url(#iNwBcXBaweMk)"/><path fill="rgb(115,210,222)" stroke="none" paint-order="stroke" d="M 564.6851196289062 183.09091186523438 L 564.7490196302533 183.09091186523438 L 564.7490196302533 498.9090881347656 L 564.6851196289062 498.9090881347656 L 564.6851196289062 183.09091186523438" fill-opacity="1" clip-path="url(#iNwBcXBaweMk)"/><path fill="rgb(115,210,222)" stroke="none" paint-order="stroke" d="M 564.9598999023438 183.09091186523438 L 565.0237999036908 183.09091186523438 L 565.0237999036908 498.9090881347656 L 564.9598999023438 498.9090881347656 L 564.9598999023438 183.09091186523438" fill-opacity="1" clip-path="url(#iNwBcXBaweMk)"/><path fill="rgb(115,210,222)" stroke="none" paint-order="stroke" d="M 564.9598999023438 183.09091186523438 L 565.0237999036908 183.09091186523438 L 565.0237999036908 498.9090881347656 L 564.9598999023438 498.9090881347656 L 564.9598999023438 183.09091186523438" fill-opacity="1" clip-path="url(#iNwBcXBaweMk)"/><path fill="rgb(115,210,222)" stroke="none" paint-order="stroke" d="M 565.2896118164062 183.09091186523438 L 565.3535118177533 183.09091186523438 L 565.3535118177533 498.9090881347656 L 565.2896118164062 498.9090881347656 L 565.2896118164062 183.09091186523438" fill-opacity="1" clip-path="url(#iNwBcXBaweMk)"/><path fill="rgb(115,210,222)" stroke="none" paint-order="stroke" d="M 565.2896118164062 183.09091186523438 L 565.3535118177533 183.09091186523438 L 565.3535118177533 498.9090881347656 L 565.2896118164062 498.9090881347656 L 565.2896118164062 183.09091186523438" fill-opacity="1" clip-path="url(#iNwBcXBaweMk)"/><path fill="rgb(115,210,222)" stroke="none" paint-order="stroke" d="M 565.5643920898438 183.09091186523438 L 565.6282920911908 183.09091186523438 L 565.6282920911908 498.9090881347656 L 565.5643920898438 498.9090881347656 L 565.5643920898438 183.09091186523438" fill-opacity="1" clip-path="url(#iNwBcXBaweMk)"/><path fill="rgb(115,210,222)" stroke="none" paint-order="stroke" d="M 565.5643920898438 183.09091186523438 L 565.6282920911908 183.09091186523438 L 565.6282920911908 498.9090881347656 L 565.5643920898438 498.9090881347656 L 565.5643920898438 183.09091186523438" fill-opacity="1" clip-path="url(#iNwBcXBaweMk)"/><path fill="rgb(115,210,222)" stroke="none" paint-order="stroke" d="M 565.9644165039062 183.09091186523438 L 566.0283165052533 183.09091186523438 L 566.0283165052533 498.9090881347656 L 565.9644165039062 498.9090881347656 L 565.9644165039062 183.09091186523438" fill-opacity="1" clip-path="url(#iNwBcXBaweMk)"/><path fill="rgb(115,210,222)" stroke="none" paint-order="stroke" d="M 565.9644165039062 183.09091186523438 L 566.0283165052533 183.09091186523438 L 566.0283165052533 498.9090881347656 L 565.9644165039062 498.9090881347656 L 565.9644165039062 183.09091186523438" fill-opacity="1" clip-path="url(#iNwBcXBaweMk)"/><path fill="rgb(115,210,222)" stroke="none" paint-order="stroke" d="M 566.447509765625 183.09091186523438 L 566.5114097669721 183.09091186523438 L 566.5114097669721 498.9090881347656 L 566.447509765625 498.9090881347656 L 566.447509765625 183.09091186523438" fill-opacity="1" clip-path="url(#iNwBcXBaweMk)"/><path fill="rgb(115,210,222)" stroke="none" paint-order="stroke" d="M 566.447509765625 183.09091186523438 L 566.5114097669721 183.09091186523438 L 566.5114097669721 498.9090881347656 L 566.447509765625 498.9090881347656 L 566.447509765625 183.09091186523438" fill-opacity="1" clip-path="url(#iNwBcXBaweMk)"/><path fill="rgb(115,210,222)" stroke="none" paint-order="stroke" d="M 567.2692260742188 183.09091186523438 L 567.3331260755658 183.09091186523438 L 567.3331260755658 498.9090881347656 L 567.2692260742188 498.9090881347656 L 567.2692260742188 183.09091186523438" fill-opacity="1" clip-path="url(#iNwBcXBaweMk)"/><path fill="rgb(115,210,222)" stroke="none" paint-order="stroke" d="M 567.2692260742188 183.09091186523438 L 567.3331260755658 183.09091186523438 L 567.3331260755658 498.9090881347656 L 567.2692260742188 498.9090881347656 L 567.2692260742188 183.09091186523438" fill-opacity="1" clip-path="url(#iNwBcXBaweMk)"/><path fill="rgb(115,210,222)" stroke="none" paint-order="stroke" d="M 683.2554321289062 183.09091186523438 L 691.9241065979004 183.09091186523438 L 691.9241065979004 498.9090881347656 L 683.2554321289062 498.9090881347656 L 683.2554321289062 183.09091186523438" fill-opacity="1" clip-path="url(#iNwBcXBaweMk)"/><path fill="rgb(115,210,222)" stroke="none" paint-order="stroke" d="M 765.8985595703125 183.09091186523438 L 778.5699291229248 183.09091186523438 L 778.5699291229248 498.9090881347656 L 765.8985595703125 498.9090881347656 L 765.8985595703125 183.09091186523438" fill-opacity="1" clip-path="url(#iNwBcXBaweMk)"/><path fill="rgb(115,210,222)" stroke="none" paint-order="stroke" d="M 844.9071044921875 183.09091186523438 L 847.2509565353394 183.09091186523438 L 847.2509565353394 498.9090881347656 L 844.9071044921875 498.9090881347656 L 844.9071044921875 183.09091186523438" fill-opacity="1" clip-path="url(#iNwBcXBaweMk)"/><path fill="rgb(28,49,68)" stroke="none" paint-order="stroke" d="M 522.164794921875 183.09091186523438 L 529.799566745758 183.09091186523438 L 529.799566745758 498.9090881347656 L 522.164794921875 498.9090881347656 L 522.164794921875 183.09091186523438" fill-opacity="1" clip-path="url(#vrCrTvfgScSO)"/><path fill="rgb(28,49,68)" stroke="none" paint-order="stroke" d="M 650.467041015625 183.09091186523438 L 652.3163070678711 183.09091186523438 L 652.3163070678711 498.9090881347656 L 650.467041015625 498.9090881347656 L 650.467041015625 183.09091186523438" fill-opacity="1" clip-path="url(#vrCrTvfgScSO)"/><path fill="rgb(28,49,68)" stroke="none" paint-order="stroke" d="M 672.6544189453125 183.09091186523438 L 672.8167249411345 183.09091186523438 L 672.8167249411345 498.9090881347656 L 672.6544189453125 498.9090881347656 L 672.6544189453125 183.09091186523438" fill-opacity="1" clip-path="url(#vrCrTvfgScSO)"/><path fill="rgb(28,49,68)" stroke="none" paint-order="stroke" d="M 672.9342651367188 183.09091186523438 L 676.2839031219482 183.09091186523438 L 676.2839031219482 498.9090881347656 L 672.9342651367188 498.9090881347656 L 672.9342651367188 183.09091186523438" fill-opacity="1" clip-path="url(#vrCrTvfgScSO)"/><path fill="rgb(28,49,68)" stroke="none" paint-order="stroke" d="M 804.7893676757812 183.09091186523438 L 811.5666017532349 183.09091186523438 L 811.5666017532349 498.9090881347656 L 804.7893676757812 498.9090881347656 L 804.7893676757812 183.09091186523438" fill-opacity="1" clip-path="url(#vrCrTvfgScSO)"/><path fill="rgb(28,49,68)" stroke="none" paint-order="stroke" d="M 834.0888061523438 183.09091186523438 L 840.3241682052612 183.09091186523438 L 840.3241682052612 498.9090881347656 L 834.0888061523438 498.9090881347656 L 834.0888061523438 183.09091186523438" fill-opacity="1" clip-path="url(#vrCrTvfgScSO)"/><path fill="rgb(239,185,203)" stroke="none" paint-order="stroke" d="M 76.50318908691406 183.09091186523438 L 392.8043670654297 183.09091186523438 L 392.8043670654297 498.9090881347656 L 76.50318908691406 498.9090881347656 L 76.50318908691406 183.09091186523438" fill-opacity="1" clip-path="url(#zvAfpnNrkcWH)"/><path fill="rgb(105,29,48)" stroke="none" paint-order="stroke" d="M 458.51910400390625 183.09091186523438 L 461.8470160961151 183.09091186523438 L 461.8470160961151 498.9090881347656 L 458.51910400390625 498.9090881347656 L 458.51910400390625 183.09091186523438" fill-opacity="1" clip-path="url(#laxghHMMvMId)"/><path fill="rgb(255,188,66)" stroke="none" paint-order="stroke" d="M 443.7825012207031 498.9090881347656 L 847.2509460449219 498.9090881347656 L 847.2509460449219 551.5454521179199 L 443.7825012207031 551.5454521179199 L 443.7825012207031 498.9090881347656" fill-opacity="1" clip-path="url(#ZFSWFtLgCToB)"/><path fill="rgb(143,45,86)" stroke="none" paint-order="stroke" d="M 58.5 551.5454711914062 L 469.1111755371094 551.5454711914062 L 469.1111755371094 604.1818351745605 L 58.5 604.1818351745605 L 58.5 551.5454711914062" fill-opacity="1" clip-path="url(#eUoqBuQwDZay)"/><path fill="rgb(63,136,197)" stroke="none" paint-order="stroke" d="M 469.1111755371094 551.5454711914062 L 474.5196714401245 551.5454711914062 L 474.5196714401245 604.1818351745605 L 469.1111755371094 604.1818351745605 L 469.1111755371094 551.5454711914062" fill-opacity="1" clip-path="url(#eUoqBuQwDZay)"/><path fill="rgb(81,60,99)" stroke="none" paint-order="stroke" d="M 474.5196838378906 551.5454711914062 L 847.2509460449219 551.5454711914062 L 847.2509460449219 604.1818351745605 L 474.5196838378906 604.1818351745605 L 474.5196838378906 551.5454711914062" fill-opacity="1" clip-path="url(#eUoqBuQwDZay)"/><path fill="none" stroke="rgb(0,0,0)" paint-order="fill" d="M 58.5 77.81818389892578 L 847.2509155273438 77.81818389892578 L 847.2509155273438 604.1818313598633 L 58.5 604.1818313598633 L 58.5 77.81818389892578" stroke-opacity="1" stroke-linejoin="bevel" stroke-miterlimit="10" stroke-dasharray="" clip-path="url(#DXiEnGPIVobx)"/><path fill="none" stroke="rgb(0,0,0)" paint-order="fill" d="M 58.5 630.5 L 1336.5 630.5" stroke-opacity="1" stroke-linejoin="bevel" stroke-miterlimit="10" stroke-dasharray=""/><path fill="none" stroke="rgb(0,0,0)" paint-order="fill" d="M 58.5 636.5 L 58.5 628.5 M 314.5 636.5 L 314.5 628.5 M 569.5 636.5 L 569.5 628.5 M 825.5 636.5 L 825.5 628.5 M 1080.5 636.5 L 1080.5 628.5 M 1336.5 636.5 L 1336.5 628.5" stroke-opacity="1" stroke-linejoin="bevel" stroke-miterlimit="10" stroke-dasharray=""/><path fill="none" stroke="rgb(0,0,0)" paint-order="fill" d="M 58.5 634.5 L 58.5 630.5 M 109.5 634.5 L 109.5 630.5 M 160.5 634.5 L 160.5 630.5 M 211.5 634.5 L 211.5 630.5 M 262.5 634.5 L 262.5 630.5 M 314.5 634.5 L 314.5 630.5 M 365.5 634.5 L 365.5 630.5 M 416.5 634.5 L 416.5 630.5 M 467.5 634.5 L 467.5 630.5 M 518.5 634.5 L 518.5 630.5 M 569.5 634.5 L 569.5 630.5 M 620.5 634.5 L 620.5 630.5 M 671.5 634.5 L 671.5 630.5 M 723.5 634.5 L 723.5 630.5 M 774.5 634.5 L 774.5 630.5 M 825.5 634.5 L 825.5 630.5 M 876.5 634.5 L 876.5 630.5 M 927.5 634.5 L 927.5 630.5 M 978.5 634.5 L 978.5 630.5 M 1029.5 634.5 L 1029.5 630.5 M 1080.5 634.5 L 1080.5 630.5 M 1132.5 634.5 L 1132.5 630.5 M 1183.5 634.5 L 1183.5 630.5 M 1234.5 634.5 L 1234.5 630.5 M 1285.5 634.5 L 1285.5 630.5 M 1336.5 634.5 L 1336.5 630.5" stroke-opacity="1" stroke-linejoin="bevel" stroke-miterlimit="10" stroke-dasharray=""/><text fill="rgb(68,68,68)" stroke="none" font-family="helvetica" font-size="11px" font-style="normal" font-weight="normal" text-decoration="normal" x="54.94166660308838" y="648.89013671875" text-anchor="start" dominant-baseline="alphabetic" transform="matrix(1, 0, 0, 1, 0.5, 0.5)" fill-opacity="1">0</text><text fill="rgb(68,68,68)" stroke="none" font-family="helvetica" font-size="11px" font-style="normal" font-weight="normal" text-decoration="normal" x="304.42500591278076" y="648.89013671875" text-anchor="start" dominant-baseline="alphabetic" transform="matrix(1, 0, 0, 1, 0.5, 0.5)" fill-opacity="1">200</text><text fill="rgb(68,68,68)" stroke="none" font-family="helvetica" font-size="11px" font-style="normal" font-weight="normal" text-decoration="normal" x="560.0250120162964" y="648.89013671875" text-anchor="start" dominant-baseline="alphabetic" transform="matrix(1, 0, 0, 1, 0.5, 0.5)" fill-opacity="1">400</text><text fill="rgb(68,68,68)" stroke="none" font-family="helvetica" font-size="11px" font-style="normal" font-weight="normal" text-decoration="normal" x="815.6249876022339" y="648.89013671875" text-anchor="start" dominant-baseline="alphabetic" transform="matrix(1, 0, 0, 1, 0.5, 0.5)" fill-opacity="1">600</text><text fill="rgb(68,68,68)" stroke="none" font-family="helvetica" font-size="11px" font-style="normal" font-weight="normal" text-decoration="normal" x="1071.2250242233276" y="648.89013671875" text-anchor="start" dominant-baseline="alphabetic" transform="matrix(1, 0, 0, 1, 0.5, 0.5)" fill-opacity="1">800</text><text fill="rgb(68,68,68)" stroke="none" font-family="helvetica" font-size="11px" font-style="normal" font-weight="normal" text-decoration="normal" x="1323.7666664123535" y="648.89013671875" text-anchor="start" dominant-baseline="alphabetic" transform="matrix(1, 0, 0, 1, 0.5, 0.5)" fill-opacity="1">1000</text><text fill="rgb(68,68,68)" stroke="none" font-family="helvetica" font-size="15pt" font-style="italic" font-weight="normal" text-decoration="normal" x="666.4416675567627" y="676.06982421875" text-anchor="start" dominant-baseline="alphabetic" transform="matrix(1, 0, 0, 1, 0.5, 0.5)" fill-opacity="1">time(s)</text><path fill="none" stroke="rgb(0,0,0)" paint-order="fill" d="M 58.5 630.5 L 58.5 51.5" stroke-opacity="1" stroke-linejoin="bevel" stroke-miterlimit="10" stroke-dasharray=""/><path fill="none" stroke="rgb(0,0,0)" paint-order="fill" d="M 52.5 551.5 L 60.5 551.5 M 52.5 446.5 L 60.5 446.5 M 52.5 341.5 L 60.5 341.5 M 52.5 235.5 L 60.5 235.5 M 52.5 130.5 L 60.5 130.5" stroke-opacity="1" stroke-linejoin="bevel" stroke-miterlimit="10" stroke-dasharray=""/><path fill="none" stroke="rgb(0,0,0)" paint-order="fill" d="M 54.5 572.5 L 58.5 572.5 M 54.5 593.5 L 58.5 593.5 M 54.5 614.5 L 58.5 614.5 M 54.5 551.5 L 58.5 551.5 M 54.5 530.5 L 58.5 530.5 M 54.5 509.5 L 58.5 509.5 M 54.5 488.5 L 58.5 488.5 M 54.5 467.5 L 58.5 467.5 M 54.5 446.5 L 58.5 446.5 M 54.5 425.5 L 58.5 425.5 M 54.5 404.5 L 58.5 404.5 M 54.5 383.5 L 58.5 383.5 M 54.5 362.5 L 58.5 362.5 M 54.5 341.5 L 58.5 341.5 M 54.5 319.5 L 58.5 319.5 M 54.5 298.5 L 58.5 298.5 M 54.5 277.5 L 58.5 277.5 M 54.5 256.5 L 58.5 256.5 M 54.5 235.5 L 58.5 235.5 M 54.5 214.5 L 58.5 214.5 M 54.5 193.5 L 58.5 193.5 M 54.5 172.5 L 58.5 172.5 M 54.5 151.5 L 58.5 151.5 M 54.5 130.5 L 58.5 130.5 M 54.5 109.5 L 58.5 109.5 M 54.5 88.5 L 58.5 88.5 M 54.5 67.5 L 58.5 67.5" stroke-opacity="1" stroke-linejoin="bevel" stroke-miterlimit="10" stroke-dasharray=""/><text fill="rgb(68,68,68)" stroke="none" font-family="helvetica" font-size="11px" font-style="normal" font-weight="normal" text-decoration="normal" x="34.46666622161865" y="554.9905395507812" text-anchor="start" dominant-baseline="alphabetic" transform="matrix(1, 0, 0, 1, 0.5, 0.5)" fill-opacity="1">−2</text><text fill="rgb(68,68,68)" stroke="none" font-family="helvetica" font-size="11px" font-style="normal" font-weight="normal" text-decoration="normal" x="34.46666622161865" y="449.7178039550781" text-anchor="start" dominant-baseline="alphabetic" transform="matrix(1, 0, 0, 1, 0.5, 0.5)" fill-opacity="1">−1</text><text fill="rgb(68,68,68)" stroke="none" font-family="helvetica" font-size="11px" font-style="normal" font-weight="normal" text-decoration="normal" x="40.88333320617676" y="344.445068359375" text-anchor="start" dominant-baseline="alphabetic" transform="matrix(1, 0, 0, 1, 0.5, 0.5)" fill-opacity="1">0</text><text fill="rgb(68,68,68)" stroke="none" font-family="helvetica" font-size="11px" font-style="normal" font-weight="normal" text-decoration="normal" x="40.88333320617676" y="239.17234802246094" text-anchor="start" dominant-baseline="alphabetic" transform="matrix(1, 0, 0, 1, 0.5, 0.5)" fill-opacity="1">1</text><text fill="rgb(68,68,68)" stroke="none" font-family="helvetica" font-size="11px" font-style="normal" font-weight="normal" text-decoration="normal" x="40.88333320617676" y="133.8996124267578" text-anchor="start" dominant-baseline="alphabetic" transform="matrix(1, 0, 0, 1, 0.5, 0.5)" fill-opacity="1">2</text><text fill="rgb(68,68,68)" stroke="none" font-family="helvetica" font-size="15pt" font-style="italic" font-weight="normal" text-decoration="normal" x="-11.316666603088379" y="336.076171875" text-anchor="start" dominant-baseline="alphabetic" transform="matrix(6.123233995736766e-17, -1, 1, 6.123233995736766e-17, -313.53333377838135, 367.46666622161865)" fill-opacity="1">students</text><path fill="rgb(255,255,255)" stroke="rgb(229,229,229)" paint-order="fill" d="M 1128.2333374023438 61.5 L 1326.5 61.5 L 1326.5 400.5 L 1128.2333374023438 400.5 L 1128.2333374023438 61.5" fill-opacity="0.9490196078431372" clip-path="url(#BEmTJXGPuhcy)" stroke-opacity="0.5019607843137255" stroke-linejoin="bevel" stroke-miterlimit="10" stroke-dasharray=""/><text fill="rgb(68,68,68)" stroke="none" font-family="helvetica" font-size="13px" font-style="normal" font-weight="normal" text-decoration="normal" x="1162.7333374023438" y="81" text-anchor="start" dominant-baseline="central" clip-path="url(#BEmTJXGPuhcy)" transform="matrix(1, 0, 0, 1, 0.5, 0.5)" fill-opacity="1">wavelength</text><path fill="rgb(0,255,40)" stroke="none" paint-order="stroke" d="M 1140.2333374023438 73.5 L 1156.2333374023438 73.5 L 1156.2333374023438 89.5 L 1140.2333374023438 89.5 L 1140.2333374023438 73.5" fill-opacity="1" clip-path="url(#BEmTJXGPuhcy)"/><path fill="rgb(216,17,89)" stroke="none" paint-order="stroke" d="M 1140.2333374023438 73.5 L 1156.2333374023438 73.5 L 1156.2333374023438 89.5 L 1140.2333374023438 89.5 L 1140.2333374023438 73.5" fill-opacity="1" clip-path="url(#BEmTJXGPuhcy)"/><text fill="rgb(68,68,68)" stroke="none" font-family="helvetica" font-size="13px" font-style="normal" font-weight="normal" text-decoration="normal" x="1162.7333374023438" y="104" text-anchor="start" dominant-baseline="central" clip-path="url(#BEmTJXGPuhcy)" transform="matrix(1, 0, 0, 1, 0.5, 0.5)" fill-opacity="1">solution</text><path fill="rgb(251,0,7)" stroke="none" paint-order="stroke" d="M 1140.2333374023438 96.5 L 1156.2333374023438 96.5 L 1156.2333374023438 112.5 L 1140.2333374023438 112.5 L 1140.2333374023438 96.5" fill-opacity="1" clip-path="url(#BEmTJXGPuhcy)"/><text fill="rgb(68,68,68)" stroke="none" font-family="helvetica" font-size="13px" font-style="normal" font-weight="normal" text-decoration="normal" x="1162.7333374023438" y="127" text-anchor="start" dominant-baseline="central" clip-path="url(#BEmTJXGPuhcy)" transform="matrix(1, 0, 0, 1, 0.5, 0.5)" fill-opacity="1">laser</text><path fill="rgb(105,29,48)" stroke="none" paint-order="stroke" d="M 1140.2333374023438 119.5 L 1156.2333374023438 119.5 L 1156.2333374023438 135.5 L 1140.2333374023438 135.5 L 1140.2333374023438 119.5" fill-opacity="1" clip-path="url(#BEmTJXGPuhcy)"/><text fill="rgb(68,68,68)" stroke="none" font-family="helvetica" font-size="13px" font-style="normal" font-weight="normal" text-decoration="normal" x="1162.7333374023438" y="150" text-anchor="start" dominant-baseline="central" clip-path="url(#BEmTJXGPuhcy)" transform="matrix(1, 0, 0, 1, 0.5, 0.5)" fill-opacity="1">ruler</text><path fill="rgb(255,188,66)" stroke="none" paint-order="stroke" d="M 1140.2333374023438 142.5 L 1156.2333374023438 142.5 L 1156.2333374023438 158.5 L 1140.2333374023438 158.5 L 1140.2333374023438 142.5" fill-opacity="1" clip-path="url(#BEmTJXGPuhcy)"/><text fill="rgb(68,68,68)" stroke="none" font-family="helvetica" font-size="13px" font-style="normal" font-weight="normal" text-decoration="normal" x="1162.7333374023438" y="173" text-anchor="start" dominant-baseline="central" clip-path="url(#BEmTJXGPuhcy)" transform="matrix(1, 0, 0, 1, 0.5, 0.5)" fill-opacity="1">restarts</text><text fill="rgb(68,68,68)" stroke="none" font-family="helvetica" font-size="13px" font-style="normal" font-weight="normal" text-decoration="normal" x="1162.7333374023438" y="196" text-anchor="start" dominant-baseline="central" clip-path="url(#BEmTJXGPuhcy)" transform="matrix(1, 0, 0, 1, 0.5, 0.5)" fill-opacity="1">transmittance_absorbance</text><path fill="rgb(162,174,187)" stroke="none" paint-order="stroke" d="M 1140.2333374023438 188.5 L 1156.2333374023438 188.5 L 1156.2333374023438 204.5 L 1140.2333374023438 204.5 L 1140.2333374023438 188.5" fill-opacity="1" clip-path="url(#BEmTJXGPuhcy)"/><text fill="rgb(68,68,68)" stroke="none" font-family="helvetica" font-size="13px" font-style="normal" font-weight="normal" text-decoration="normal" x="1162.7333374023438" y="219" text-anchor="start" dominant-baseline="central" clip-path="url(#BEmTJXGPuhcy)" transform="matrix(1, 0, 0, 1, 0.5, 0.5)" fill-opacity="1">magnifier</text><text fill="rgb(68,68,68)" stroke="none" font-family="helvetica" font-size="13px" font-style="normal" font-weight="normal" text-decoration="normal" x="1162.7333374023438" y="242" text-anchor="start" dominant-baseline="central" clip-path="url(#BEmTJXGPuhcy)" transform="matrix(1, 0, 0, 1, 0.5, 0.5)" fill-opacity="1">concentration</text><path fill="rgb(115,210,222)" stroke="none" paint-order="stroke" d="M 1140.2333374023438 234.5 L 1156.2333374023438 234.5 L 1156.2333374023438 250.5 L 1140.2333374023438 250.5 L 1140.2333374023438 234.5" fill-opacity="1" clip-path="url(#BEmTJXGPuhcy)"/><text fill="rgb(68,68,68)" stroke="none" font-family="helvetica" font-size="13px" font-style="normal" font-weight="normal" text-decoration="normal" x="1162.7333374023438" y="265" text-anchor="start" dominant-baseline="central" clip-path="url(#BEmTJXGPuhcy)" transform="matrix(1, 0, 0, 1, 0.5, 0.5)" fill-opacity="1">flask</text><path fill="rgb(28,49,68)" stroke="none" paint-order="stroke" d="M 1140.2333374023438 257.5 L 1156.2333374023438 257.5 L 1156.2333374023438 273.5 L 1140.2333374023438 273.5 L 1140.2333374023438 257.5" fill-opacity="1" clip-path="url(#BEmTJXGPuhcy)"/><text fill="rgb(68,68,68)" stroke="none" font-family="helvetica" font-size="13px" font-style="normal" font-weight="normal" text-decoration="normal" x="1162.7333374023438" y="288" text-anchor="start" dominant-baseline="central" clip-path="url(#BEmTJXGPuhcy)" transform="matrix(1, 0, 0, 1, 0.5, 0.5)" fill-opacity="1">pdf</text><path fill="rgb(239,185,203)" stroke="none" paint-order="stroke" d="M 1140.2333374023438 280.5 L 1156.2333374023438 280.5 L 1156.2333374023438 296.5 L 1140.2333374023438 296.5 L 1140.2333374023438 280.5" fill-opacity="1" clip-path="url(#BEmTJXGPuhcy)"/><text fill="rgb(68,68,68)" stroke="none" font-family="helvetica" font-size="13px" font-style="normal" font-weight="normal" text-decoration="normal" x="1162.7333374023438" y="311" text-anchor="start" dominant-baseline="central" clip-path="url(#BEmTJXGPuhcy)" transform="matrix(1, 0, 0, 1, 0.5, 0.5)" fill-opacity="1">concentrationlab</text><text fill="rgb(68,68,68)" stroke="none" font-family="helvetica" font-size="13px" font-style="normal" font-weight="normal" text-decoration="normal" x="1162.7333374023438" y="334" text-anchor="start" dominant-baseline="central" clip-path="url(#BEmTJXGPuhcy)" transform="matrix(1, 0, 0, 1, 0.5, 0.5)" fill-opacity="1">wavelength_slider</text><path fill="rgb(105,29,48)" stroke="none" paint-order="stroke" d="M 1140.2333374023438 326.5 L 1156.2333374023438 326.5 L 1156.2333374023438 342.5 L 1140.2333374023438 342.5 L 1140.2333374023438 326.5" fill-opacity="1" clip-path="url(#BEmTJXGPuhcy)"/><text fill="rgb(68,68,68)" stroke="none" font-family="helvetica" font-size="13px" font-style="normal" font-weight="normal" text-decoration="normal" x="1162.7333374023438" y="357" text-anchor="start" dominant-baseline="central" clip-path="url(#BEmTJXGPuhcy)" transform="matrix(1, 0, 0, 1, 0.5, 0.5)" fill-opacity="1">ruler measuring</text><path fill="rgb(255,188,66)" stroke="none" paint-order="stroke" d="M 1140.2333374023438 349.5 L 1156.2333374023438 349.5 L 1156.2333374023438 365.5 L 1140.2333374023438 365.5 L 1140.2333374023438 349.5" fill-opacity="1" clip-path="url(#BEmTJXGPuhcy)"/><text fill="rgb(68,68,68)" stroke="none" font-family="helvetica" font-size="13px" font-style="normal" font-weight="normal" text-decoration="normal" x="1162.7333374023438" y="380" text-anchor="start" dominant-baseline="central" clip-path="url(#BEmTJXGPuhcy)" transform="matrix(1, 0, 0, 1, 0.5, 0.5)" fill-opacity="1">dependent variable</text><path fill="rgb(143,45,86)" stroke="none" paint-order="stroke" d="M 1140.2333374023438 372.5 L 1156.2333374023438 372.5 L 1156.2333374023438 388.5 L 1140.2333374023438 388.5 L 1140.2333374023438 372.5" fill-opacity="1" clip-path="url(#BEmTJXGPuhcy)"/><text fill="rgb(68,68,68)" stroke="none" font-family="helvetica" font-size="25pt" font-style="normal" font-weight="bold" text-decoration="normal" x="58" y="38.740885416666664" text-anchor="start" dominant-baseline="alphabetic" transform="matrix(1, 0, 0, 1, 0.5, 0.5)" fill-opacity="1">Timeline for student xpyjyx4m with permutation 3120 for task 2</text></svg>