<svg version="1.1" xmlns="http://www.w3.org/2000/svg" width="1366" height="683"><defs><clipPath id="WznhPDzAoTXF"><path fill="none" stroke="none" d="M 58.5 51.5 L 1336.5 51.5 L 1336.5 630.5 L 58.5 630.5 L 58.5 51.5"/></clipPath><clipPath id="fTtquLzzIsxZ"><path fill="none" stroke="none" d="M 58.5 51.5 L 1336.5 51.5 L 1336.5 630.5 L 58.5 630.5 L 58.5 51.5"/></clipPath><clipPath id="frZxWGtqGSwJ"><path fill="none" stroke="none" d="M 58.5 51.5 L 1336.5 51.5 L 1336.5 630.5 L 58.5 630.5 L 58.5 51.5"/></clipPath><clipPath id="DFSmrbJLNcGE"><path fill="none" stroke="none" d="M 58.5 51.5 L 1336.5 51.5 L 1336.5 630.5 L 58.5 630.5 L 58.5 51.5"/></clipPath><clipPath id="gVxLOuscuSop"><path fill="none" stroke="none" d="M 58.5 51.5 L 1336.5 51.5 L 1336.5 630.5 L 58.5 630.5 L 58.5 51.5"/></clipPath><clipPath id="GJaMorApJzcX"><path fill="none" stroke="none" d="M 58.5 51.5 L 1336.5 51.5 L 1336.5 630.5 L 58.5 630.5 L 58.5 51.5"/></clipPath><clipPath id="KLNvhgUIfXCZ"><path fill="none" stroke="none" d="M 58.5 51.5 L 1336.5 51.5 L 1336.5 630.5 L 58.5 630.5 L 58.5 51.5"/></clipPath><clipPath id="cZTfxUiGFTkR"><path fill="none" stroke="none" d="M 58.5 51.5 L 1336.5 51.5 L 1336.5 630.5 L 58.5 630.5 L 58.5 51.5"/></clipPath><clipPath id="rKnvZusswbtq"><path fill="none" stroke="none" d="M 58.5 51.5 L 1336.5 51.5 L 1336.5 630.5 L 58.5 630.5 L 58.5 51.5"/></clipPath><clipPath id="EFKwSCCLefKo"><path fill="none" stroke="none" d="M 58.5 51.5 L 1336.5 51.5 L 1336.5 630.5 L 58.5 630.5 L 58.5 51.5"/></clipPath><clipPath id="WfCmnMvmLKHU"><path fill="none" stroke="none" d="M 58.5 51.5 L 1336.5 51.5 L 1336.5 630.5 L 58.5 630.5 L 58.5 51.5"/></clipPath><clipPath id="NHMhtZRKmzNJ"><path fill="none" stroke="none" d="M 58.5 51.5 L 1336.5 51.5 L 1336.5 630.5 L 58.5 630.5 L 58.5 51.5"/></clipPath><clipPath id="BTWfJJeETKUv"><path fill="none" stroke="none" d="M 58.5 51.5 L 1336.5 51.5 L 1336.5 630.5 L 58.5 630.5 L 58.5 51.5"/></clipPath><clipPath id="pQiLDWcaPPKh"><path fill="none" stroke="none" d="M 58.5 51.5 L 1336.5 51.5 L 1336.5 630.5 L 58.5 630.5 L 58.5 51.5"/></clipPath><clipPath id="SHzyVPLJdIUa"><path fill="none" stroke="none" d="M 58.5 51.5 L 1336.5 51.5 L 1336.5 630.5 L 58.5 630.5 L 58.5 51.5"/></clipPath><clipPath id="aKbLilTbfOkf"><path fill="none" stroke="none" d="M 58.5 51.5 L 1336.5 51.5 L 1336.5 630.5 L 58.5 630.5 L 58.5 51.5"/></clipPath><clipPath id="BEoHiPpfTiql"><path fill="none" stroke="none" d="M 58.5 51.5 L 1336.5 51.5 L 1336.5 630.5 L 58.5 630.5 L 58.5 51.5"/></clipPath><clipPath id="lBTrJqAHgUgZ"><path fill="none" stroke="none" d="M 58.5 51.5 L 1336.5 51.5 L 1336.5 630.5 L 58.5 630.5 L 58.5 51.5"/></clipPath><clipPath id="XqELNBNhszKg"><path fill="none" stroke="none" d="M 58.5 51.5 L 1336.5 51.5 L 1336.5 630.5 L 58.5 630.5 L 58.5 51.5"/></clipPath><clipPath id="fZAKGtuplZgw"><path fill="none" stroke="none" d="M 58.5 51.5 L 1336.5 51.5 L 1336.5 630.5 L 58.5 630.5 L 58.5 51.5"/></clipPath><clipPath id="qQdIcqGyopxO"><path fill="none" stroke="none" d="M 58.5 51.5 L 1336.5 51.5 L 1336.5 630.5 L 58.5 630.5 L 58.5 51.5"/></clipPath></defs><path fill="rgb(255,255,255)" stroke="none" paint-order="stroke" d="M 0.5 0.5 L 1366.5 0.5 L 1366.5 683.5 L 0.5 683.5 L 0.5 0.5" fill-opacity="1"/><rect fill="#FFFFFF" stroke="none" x="58" y="51" width="1278" height="579" transform="matrix(1, 0, 0, 1, 0.5, 0.5)"/><path fill="rgb(255,255,255)" stroke="none" paint-order="stroke" d="M 58.5 51.5 L 1336.5 51.5 L 1336.5 630.5 L 58.5 630.5 L 58.5 51.5" fill-opacity="1"/><path fill="none" stroke="rgb(229,229,229)" paint-order="fill" d="M 58.5 51.5 L 1336.5 51.5 L 1336.5 630.5 L 58.5 630.5 L 58.5 51.5" stroke-opacity="1" stroke-linejoin="bevel" stroke-miterlimit="10" stroke-dasharray=""/><path fill="none" stroke="rgb(229,229,229)" paint-order="fill" d="M 314.5 630.5 L 314.5 51.5 M 569.5 630.5 L 569.5 51.5 M 825.5 630.5 L 825.5 51.5 M 1080.5 630.5 L 1080.5 51.5" stroke-opacity="1" stroke-linejoin="bevel" stroke-miterlimit="10" stroke-dasharray="" clip-path="url(#WznhPDzAoTXF)"/><path fill="none" stroke="rgb(229,229,229)" paint-order="fill" d="M 58.5 551.5 L 1336.5 551.5 M 58.5 446.5 L 1336.5 446.5 M 58.5 341.5 L 1336.5 341.5 M 58.5 235.5 L 1336.5 235.5 M 58.5 130.5 L 1336.5 130.5" stroke-opacity="1" stroke-linejoin="bevel" stroke-miterlimit="10" stroke-dasharray="" clip-path="url(#fTtquLzzIsxZ)"/><path fill="rgb(0,255,40)" stroke="none" paint-order="stroke" d="M 58.5 77.81818389892578 L 189.15121459960938 77.81818389892578 L 189.15121459960938 130.45454788208008 L 58.5 130.45454788208008 L 58.5 77.81818389892578" fill-opacity="1" clip-path="url(#frZxWGtqGSwJ)"/><path fill="rgb(143,255,0)" stroke="none" paint-order="stroke" d="M 189.15121459960938 77.81818389892578 L 202.3133363723755 77.81818389892578 L 202.3133363723755 130.45454788208008 L 189.15121459960938 130.45454788208008 L 189.15121459960938 77.81818389892578" fill-opacity="1" clip-path="url(#frZxWGtqGSwJ)"/><path fill="rgb(0,0,0)" stroke="none" paint-order="stroke" d="M 202.31333923339844 77.81818389892578 L 208.86692333221436 77.81818389892578 L 208.86692333221436 130.45454788208008 L 202.31333923339844 130.45454788208008 L 202.31333923339844 77.81818389892578" fill-opacity="1" clip-path="url(#frZxWGtqGSwJ)"/><path fill="rgb(102,0,183)" stroke="none" paint-order="stroke" d="M 208.86692810058594 77.81818389892578 L 217.25827598571777 77.81818389892578 L 217.25827598571777 130.45454788208008 L 208.86692810058594 130.45454788208008 L 208.86692810058594 77.81818389892578" fill-opacity="1" clip-path="url(#frZxWGtqGSwJ)"/><path fill="rgb(143,255,0)" stroke="none" paint-order="stroke" d="M 217.25827026367188 77.81818389892578 L 236.5458469390869 77.81818389892578 L 236.5458469390869 130.45454788208008 L 217.25827026367188 130.45454788208008 L 217.25827026367188 77.81818389892578" fill-opacity="1" clip-path="url(#frZxWGtqGSwJ)"/><path fill="rgb(0,255,40)" stroke="none" paint-order="stroke" d="M 236.5458526611328 77.81818389892578 L 364.565673828125 77.81818389892578 L 364.565673828125 130.45454788208008 L 236.5458526611328 130.45454788208008 L 236.5458526611328 77.81818389892578" fill-opacity="1" clip-path="url(#frZxWGtqGSwJ)"/><path fill="rgb(251,0,7)" stroke="none" paint-order="stroke" d="M 58.5 130.4545440673828 L 189.15121459960938 130.4545440673828 L 189.15121459960938 183.0909080505371 L 58.5 183.0909080505371 L 58.5 130.4545440673828" fill-opacity="1" clip-path="url(#DFSmrbJLNcGE)"/><path fill="rgb(62,0,101)" stroke="none" paint-order="stroke" d="M 189.15121459960938 130.4545440673828 L 202.3133363723755 130.4545440673828 L 202.3133363723755 183.0909080505371 L 189.15121459960938 183.0909080505371 L 189.15121459960938 130.4545440673828" fill-opacity="1" clip-path="url(#DFSmrbJLNcGE)"/><path fill="rgb(27,121,255)" stroke="none" paint-order="stroke" d="M 202.31333923339844 130.4545440673828 L 208.86692333221436 130.4545440673828 L 208.86692333221436 183.0909080505371 L 202.31333923339844 183.0909080505371 L 202.31333923339844 130.4545440673828" fill-opacity="1" clip-path="url(#DFSmrbJLNcGE)"/><path fill="rgb(255,255,10)" stroke="none" paint-order="stroke" d="M 208.86692810058594 130.4545440673828 L 217.25827598571777 130.4545440673828 L 217.25827598571777 183.0909080505371 L 208.86692810058594 183.0909080505371 L 208.86692810058594 130.4545440673828" fill-opacity="1" clip-path="url(#DFSmrbJLNcGE)"/><path fill="rgb(62,0,101)" stroke="none" paint-order="stroke" d="M 217.25827026367188 130.4545440673828 L 236.5458469390869 130.4545440673828 L 236.5458469390869 183.0909080505371 L 217.25827026367188 183.0909080505371 L 217.25827026367188 130.4545440673828" fill-opacity="1" clip-path="url(#DFSmrbJLNcGE)"/><path fill="rgb(251,0,7)" stroke="none" paint-order="stroke" d="M 236.5458526611328 130.4545440673828 L 364.565673828125 130.4545440673828 L 364.565673828125 183.0909080505371 L 236.5458526611328 183.0909080505371 L 236.5458526611328 130.4545440673828" fill-opacity="1" clip-path="url(#DFSmrbJLNcGE)"/><path fill="rgb(105,29,48)" stroke="none" paint-order="stroke" d="M 255.159912109375 183.09091186523438 L 255.22381211072206 183.09091186523438 L 255.22381211072206 498.9090881347656 L 255.159912109375 498.9090881347656 L 255.159912109375 183.09091186523438" fill-opacity="1" clip-path="url(#gVxLOuscuSop)"/><path fill="rgb(105,29,48)" stroke="none" paint-order="stroke" d="M 255.25448608398438 183.09091186523438 L 255.31838608533144 183.09091186523438 L 255.31838608533144 498.9090881347656 L 255.25448608398438 498.9090881347656 L 255.25448608398438 183.09091186523438" fill-opacity="1" clip-path="url(#gVxLOuscuSop)"/><path fill="rgb(105,29,48)" stroke="none" paint-order="stroke" d="M 256.9491271972656 183.09091186523438 L 257.0130271986127 183.09091186523438 L 257.0130271986127 498.9090881347656 L 256.9491271972656 498.9090881347656 L 256.9491271972656 183.09091186523438" fill-opacity="1" clip-path="url(#gVxLOuscuSop)"/><path fill="rgb(105,29,48)" stroke="none" paint-order="stroke" d="M 266.03057861328125 183.09091186523438 L 266.0944786146283 183.09091186523438 L 266.0944786146283 498.9090881347656 L 266.03057861328125 498.9090881347656 L 266.03057861328125 183.09091186523438" fill-opacity="1" clip-path="url(#gVxLOuscuSop)"/><path fill="rgb(105,29,48)" stroke="none" paint-order="stroke" d="M 266.70538330078125 183.09091186523438 L 266.7692833021283 183.09091186523438 L 266.7692833021283 498.9090881347656 L 266.70538330078125 498.9090881347656 L 266.70538330078125 183.09091186523438" fill-opacity="1" clip-path="url(#gVxLOuscuSop)"/><path fill="rgb(105,29,48)" stroke="none" paint-order="stroke" d="M 278.4974670410156 183.09091186523438 L 278.5613670423627 183.09091186523438 L 278.5613670423627 498.9090881347656 L 278.4974670410156 498.9090881347656 L 278.4974670410156 183.09091186523438" fill-opacity="1" clip-path="url(#gVxLOuscuSop)"/><path fill="rgb(105,29,48)" stroke="none" paint-order="stroke" d="M 293.4117431640625 183.09091186523438 L 293.47564316540956 183.09091186523438 L 293.47564316540956 498.9090881347656 L 293.4117431640625 498.9090881347656 L 293.4117431640625 183.09091186523438" fill-opacity="1" clip-path="url(#gVxLOuscuSop)"/><path fill="rgb(105,29,48)" stroke="none" paint-order="stroke" d="M 300.716796875 183.09091186523438 L 300.78069687634706 183.09091186523438 L 300.78069687634706 498.9090881347656 L 300.716796875 498.9090881347656 L 300.716796875 183.09091186523438" fill-opacity="1" clip-path="url(#gVxLOuscuSop)"/><path fill="rgb(105,29,48)" stroke="none" paint-order="stroke" d="M 301.0184020996094 183.09091186523438 L 301.08230210095644 183.09091186523438 L 301.08230210095644 498.9090881347656 L 301.0184020996094 498.9090881347656 L 301.0184020996094 183.09091186523438" fill-opacity="1" clip-path="url(#gVxLOuscuSop)"/><path fill="rgb(162,174,187)" stroke="none" paint-order="stroke" d="M 236.5458526611328 183.09091186523438 L 236.60975266247988 183.09091186523438 L 236.60975266247988 498.9090881347656 L 236.5458526611328 498.9090881347656 L 236.5458526611328 183.09091186523438" fill-opacity="1" clip-path="url(#KLNvhgUIfXCZ)"/><path fill="rgb(162,174,187)" stroke="none" paint-order="stroke" d="M 229.9705352783203 183.09091186523438 L 230.03443527966738 183.09091186523438 L 230.03443527966738 498.9090881347656 L 229.9705352783203 498.9090881347656 L 229.9705352783203 183.09091186523438" fill-opacity="1" clip-path="url(#cZTfxUiGFTkR)"/><path fill="rgb(162,174,187)" stroke="none" paint-order="stroke" d="M 236.5458526611328 183.09091186523438 L 236.60975266247988 183.09091186523438 L 236.60975266247988 498.9090881347656 L 236.5458526611328 498.9090881347656 L 236.5458526611328 183.09091186523438" fill-opacity="1" clip-path="url(#cZTfxUiGFTkR)"/><path fill="rgb(162,174,187)" stroke="none" paint-order="stroke" d="M 251.65435791015625 183.09091186523438 L 251.71825791150331 183.09091186523438 L 251.71825791150331 498.9090881347656 L 251.65435791015625 498.9090881347656 L 251.65435791015625 183.09091186523438" fill-opacity="1" clip-path="url(#cZTfxUiGFTkR)"/><path fill="rgb(162,174,187)" stroke="none" paint-order="stroke" d="M 282.376220703125 183.09091186523438 L 282.44012070447206 183.09091186523438 L 282.44012070447206 498.9090881347656 L 282.376220703125 498.9090881347656 L 282.376220703125 183.09091186523438" fill-opacity="1" clip-path="url(#cZTfxUiGFTkR)"/><path fill="rgb(162,174,187)" stroke="none" paint-order="stroke" d="M 298.56591796875 183.09091186523438 L 298.62981797009706 183.09091186523438 L 298.62981797009706 498.9090881347656 L 298.56591796875 498.9090881347656 L 298.56591796875 183.09091186523438" fill-opacity="1" clip-path="url(#cZTfxUiGFTkR)"/><path fill="rgb(255,188,66)" stroke="none" paint-order="stroke" d="M 231.68817138671875 183.09091186523438 L 231.86197938024998 183.09091186523438 L 231.86197938024998 498.9090881347656 L 231.68817138671875 498.9090881347656 L 231.68817138671875 183.09091186523438" fill-opacity="1" clip-path="url(#rKnvZusswbtq)"/><path fill="rgb(255,188,66)" stroke="none" paint-order="stroke" d="M 249.21337890625 183.09091186523438 L 249.43319490551949 183.09091186523438 L 249.43319490551949 498.9090881347656 L 249.21337890625 498.9090881347656 L 249.21337890625 183.09091186523438" fill-opacity="1" clip-path="url(#rKnvZusswbtq)"/><path fill="rgb(255,188,66)" stroke="none" paint-order="stroke" d="M 252.54385375976562 183.09091186523438 L 252.6588737592101 183.09091186523438 L 252.6588737592101 498.9090881347656 L 252.54385375976562 498.9090881347656 L 252.54385375976562 183.09091186523438" fill-opacity="1" clip-path="url(#rKnvZusswbtq)"/><path fill="rgb(255,188,66)" stroke="none" paint-order="stroke" d="M 272.4538269042969 183.09091186523438 L 275.2871530056 183.09091186523438 L 275.2871530056 498.9090881347656 L 272.4538269042969 498.9090881347656 L 272.4538269042969 183.09091186523438" fill-opacity="1" clip-path="url(#rKnvZusswbtq)"/><path fill="rgb(255,188,66)" stroke="none" paint-order="stroke" d="M 279.6029357910156 183.09091186523438 L 280.801699757576 183.09091186523438 L 280.801699757576 498.9090881347656 L 279.6029357910156 498.9090881347656 L 279.6029357910156 183.09091186523438" fill-opacity="1" clip-path="url(#rKnvZusswbtq)"/><path fill="rgb(255,188,66)" stroke="none" paint-order="stroke" d="M 283.4458923339844 183.09091186523438 L 284.3251563310623 183.09091186523438 L 284.3251563310623 498.9090881347656 L 283.4458923339844 498.9090881347656 L 283.4458923339844 183.09091186523438" fill-opacity="1" clip-path="url(#rKnvZusswbtq)"/><path fill="rgb(255,188,66)" stroke="none" paint-order="stroke" d="M 285.0779113769531 183.09091186523438 L 287.616019487381 183.09091186523438 L 287.616019487381 498.9090881347656 L 285.0779113769531 498.9090881347656 L 285.0779113769531 183.09091186523438" fill-opacity="1" clip-path="url(#rKnvZusswbtq)"/><path fill="rgb(255,188,66)" stroke="none" paint-order="stroke" d="M 295.57537841796875 183.09091186523438 L 296.426526427269 183.09091186523438 L 296.426526427269 498.9090881347656 L 295.57537841796875 498.9090881347656 L 295.57537841796875 183.09091186523438" fill-opacity="1" clip-path="url(#rKnvZusswbtq)"/><path fill="rgb(255,188,66)" stroke="none" paint-order="stroke" d="M 305.28564453125 183.09091186523438 L 311.2513484954834 183.09091186523438 L 311.2513484954834 498.9090881347656 L 305.28564453125 498.9090881347656 L 305.28564453125 183.09091186523438" fill-opacity="1" clip-path="url(#rKnvZusswbtq)"/><path fill="rgb(255,188,66)" stroke="none" paint-order="stroke" d="M 345.75860595703125 183.09091186523438 L 352.8489499092102 183.09091186523438 L 352.8489499092102 498.9090881347656 L 345.75860595703125 498.9090881347656 L 345.75860595703125 183.09091186523438" fill-opacity="1" clip-path="url(#rKnvZusswbtq)"/><path fill="rgb(216,17,89)" stroke="none" paint-order="stroke" d="M 261.3236999511719 183.09091186523438 L 261.38759995251894 183.09091186523438 L 261.38759995251894 498.9090881347656 L 261.3236999511719 498.9090881347656 L 261.3236999511719 183.09091186523438" fill-opacity="1" clip-path="url(#EFKwSCCLefKo)"/><path fill="rgb(33,131,128)" stroke="none" paint-order="stroke" d="M 186.92877197265625 183.09091186523438 L 189.15121388435364 183.09091186523438 L 189.15121388435364 498.9090881347656 L 186.92877197265625 498.9090881347656 L 186.92877197265625 183.09091186523438" fill-opacity="1" clip-path="url(#WfCmnMvmLKHU)"/><path fill="rgb(33,131,128)" stroke="none" paint-order="stroke" d="M 196.87672424316406 183.09091186523438 L 202.3133363723755 183.09091186523438 L 202.3133363723755 498.9090881347656 L 196.87672424316406 498.9090881347656 L 196.87672424316406 183.09091186523438" fill-opacity="1" clip-path="url(#WfCmnMvmLKHU)"/><path fill="rgb(33,131,128)" stroke="none" paint-order="stroke" d="M 206.58441162109375 183.09091186523438 L 208.8669195175171 183.09091186523438 L 208.8669195175171 498.9090881347656 L 206.58441162109375 498.9090881347656 L 206.58441162109375 183.09091186523438" fill-opacity="1" clip-path="url(#WfCmnMvmLKHU)"/><path fill="rgb(33,131,128)" stroke="none" paint-order="stroke" d="M 215.83840942382812 183.09091186523438 L 217.25826740264893 183.09091186523438 L 217.25826740264893 498.9090881347656 L 215.83840942382812 498.9090881347656 L 215.83840942382812 183.09091186523438" fill-opacity="1" clip-path="url(#WfCmnMvmLKHU)"/><path fill="rgb(33,131,128)" stroke="none" paint-order="stroke" d="M 236.5458526611328 183.09091186523438 L 236.60975266247988 183.09091186523438 L 236.60975266247988 498.9090881347656 L 236.5458526611328 498.9090881347656 L 236.5458526611328 183.09091186523438" fill-opacity="1" clip-path="url(#WfCmnMvmLKHU)"/><path fill="rgb(115,210,222)" stroke="none" paint-order="stroke" d="M 179.26844787597656 183.09091186523438 L 185.67122793197632 183.09091186523438 L 185.67122793197632 498.9090881347656 L 179.26844787597656 498.9090881347656 L 179.26844787597656 183.09091186523438" fill-opacity="1" clip-path="url(#NHMhtZRKmzNJ)"/><path fill="rgb(115,210,222)" stroke="none" paint-order="stroke" d="M 190.74871826171875 183.09091186523438 L 194.9635624885559 183.09091186523438 L 194.9635624885559 498.9090881347656 L 190.74871826171875 498.9090881347656 L 190.74871826171875 183.09091186523438" fill-opacity="1" clip-path="url(#NHMhtZRKmzNJ)"/><path fill="rgb(115,210,222)" stroke="none" paint-order="stroke" d="M 204.24440002441406 183.09091186523438 L 205.7025979757309 183.09091186523438 L 205.7025979757309 498.9090881347656 L 204.24440002441406 498.9090881347656 L 204.24440002441406 183.09091186523438" fill-opacity="1" clip-path="url(#NHMhtZRKmzNJ)"/><path fill="rgb(115,210,222)" stroke="none" paint-order="stroke" d="M 210.5053253173828 183.09091186523438 L 213.39871740341187 183.09091186523438 L 213.39871740341187 498.9090881347656 L 210.5053253173828 498.9090881347656 L 210.5053253173828 183.09091186523438" fill-opacity="1" clip-path="url(#NHMhtZRKmzNJ)"/><path fill="rgb(115,210,222)" stroke="none" paint-order="stroke" d="M 224.16329956054688 183.09091186523438 L 226.19148564338684 183.09091186523438 L 226.19148564338684 498.9090881347656 L 224.16329956054688 498.9090881347656 L 224.16329956054688 183.09091186523438" fill-opacity="1" clip-path="url(#NHMhtZRKmzNJ)"/><path fill="rgb(115,210,222)" stroke="none" paint-order="stroke" d="M 239.25009155273438 183.09091186523438 L 247.30021381378174 183.09091186523438 L 247.30021381378174 498.9090881347656 L 239.25009155273438 498.9090881347656 L 239.25009155273438 183.09091186523438" fill-opacity="1" clip-path="url(#NHMhtZRKmzNJ)"/><path fill="rgb(115,210,222)" stroke="none" paint-order="stroke" d="M 289.9215087890625 183.09091186523438 L 291.14455473423004 183.09091186523438 L 291.14455473423004 498.9090881347656 L 289.9215087890625 498.9090881347656 L 289.9215087890625 183.09091186523438" fill-opacity="1" clip-path="url(#NHMhtZRKmzNJ)"/><path fill="rgb(28,49,68)" stroke="none" paint-order="stroke" d="M 355.7091369628906 183.09091186523438 L 364.56567668914795 183.09091186523438 L 364.56567668914795 498.9090881347656 L 355.7091369628906 498.9090881347656 L 355.7091369628906 183.09091186523438" fill-opacity="1" clip-path="url(#BTWfJJeETKUv)"/><path fill="rgb(239,185,203)" stroke="none" paint-order="stroke" d="M 58.5 183.09091186523438 L 66.78143978118896 183.09091186523438 L 66.78143978118896 498.9090881347656 L 58.5 498.9090881347656 L 58.5 183.09091186523438" fill-opacity="1" clip-path="url(#pQiLDWcaPPKh)"/><path fill="rgb(239,185,203)" stroke="none" paint-order="stroke" d="M 94.53448486328125 183.09091186523438 L 98.65092277526855 183.09091186523438 L 98.65092277526855 498.9090881347656 L 94.53448486328125 498.9090881347656 L 94.53448486328125 183.09091186523438" fill-opacity="1" clip-path="url(#pQiLDWcaPPKh)"/><path fill="rgb(239,185,203)" stroke="none" paint-order="stroke" d="M 102.41719055175781 183.09091186523438 L 116.44068431854248 183.09091186523438 L 116.44068431854248 498.9090881347656 L 102.41719055175781 498.9090881347656 L 102.41719055175781 183.09091186523438" fill-opacity="1" clip-path="url(#pQiLDWcaPPKh)"/><path fill="rgb(239,185,203)" stroke="none" paint-order="stroke" d="M 152.7537841796875 183.09091186523438 L 158.56229400634766 183.09091186523438 L 158.56229400634766 498.9090881347656 L 152.7537841796875 498.9090881347656 L 152.7537841796875 183.09091186523438" fill-opacity="1" clip-path="url(#pQiLDWcaPPKh)"/><path fill="rgb(239,185,203)" stroke="none" paint-order="stroke" d="M 320.5014953613281 183.09091186523438 L 335.6777458190918 183.09091186523438 L 335.6777458190918 498.9090881347656 L 320.5014953613281 498.9090881347656 L 320.5014953613281 183.09091186523438" fill-opacity="1" clip-path="url(#pQiLDWcaPPKh)"/><path fill="rgb(143,45,86)" stroke="none" paint-order="stroke" d="M 58.5 551.5454711914062 L 255.159912109375 551.5454711914062 L 255.159912109375 604.1818351745605 L 58.5 604.1818351745605 L 58.5 551.5454711914062" fill-opacity="1" clip-path="url(#lBTrJqAHgUgZ)"/><path fill="rgb(81,60,99)" stroke="none" paint-order="stroke" d="M 255.159912109375 551.5454711914062 L 255.25448410958052 551.5454711914062 L 255.25448410958052 604.1818351745605 L 255.159912109375 604.1818351745605 L 255.159912109375 551.5454711914062" fill-opacity="1" clip-path="url(#lBTrJqAHgUgZ)"/><path fill="rgb(143,45,86)" stroke="none" paint-order="stroke" d="M 255.25448608398438 551.5454711914062 L 256.9491140842438 551.5454711914062 L 256.9491140842438 604.1818351745605 L 255.25448608398438 604.1818351745605 L 255.25448608398438 551.5454711914062" fill-opacity="1" clip-path="url(#lBTrJqAHgUgZ)"/><path fill="rgb(81,60,99)" stroke="none" paint-order="stroke" d="M 256.9491271972656 551.5454711914062 L 266.03059482574463 551.5454711914062 L 266.03059482574463 604.1818351745605 L 256.9491271972656 604.1818351745605 L 256.9491271972656 551.5454711914062" fill-opacity="1" clip-path="url(#lBTrJqAHgUgZ)"/><path fill="rgb(143,45,86)" stroke="none" paint-order="stroke" d="M 266.03057861328125 551.5454711914062 L 266.7053626179695 551.5454711914062 L 266.7053626179695 604.1818351745605 L 266.03057861328125 604.1818351745605 L 266.03057861328125 551.5454711914062" fill-opacity="1" clip-path="url(#lBTrJqAHgUgZ)"/><path fill="rgb(81,60,99)" stroke="none" paint-order="stroke" d="M 266.70538330078125 551.5454711914062 L 272.77204942703247 551.5454711914062 L 272.77204942703247 604.1818351745605 L 266.70538330078125 604.1818351745605 L 266.70538330078125 551.5454711914062" fill-opacity="1" clip-path="url(#lBTrJqAHgUgZ)"/><path fill="rgb(143,45,86)" stroke="none" paint-order="stroke" d="M 272.77203369140625 551.5454711914062 L 273.6538537144661 551.5454711914062 L 273.6538537144661 604.1818351745605 L 272.77203369140625 604.1818351745605 L 272.77203369140625 551.5454711914062" fill-opacity="1" clip-path="url(#lBTrJqAHgUgZ)"/><path fill="rgb(81,60,99)" stroke="none" paint-order="stroke" d="M 273.65386962890625 551.5454711914062 L 274.05132761597633 551.5454711914062 L 274.05132761597633 604.1818351745605 L 273.65386962890625 604.1818351745605 L 273.65386962890625 551.5454711914062" fill-opacity="1" clip-path="url(#lBTrJqAHgUgZ)"/><path fill="rgb(143,45,86)" stroke="none" paint-order="stroke" d="M 274.0513000488281 551.5454711914062 L 306.3744773864746 551.5454711914062 L 306.3744773864746 604.1818351745605 L 274.0513000488281 604.1818351745605 L 274.0513000488281 551.5454711914062" fill-opacity="1" clip-path="url(#lBTrJqAHgUgZ)"/><path fill="rgb(81,60,99)" stroke="none" paint-order="stroke" d="M 306.3744812011719 551.5454711914062 L 306.42815720289946 551.5454711914062 L 306.42815720289946 604.1818351745605 L 306.3744812011719 604.1818351745605 L 306.3744812011719 551.5454711914062" fill-opacity="1" clip-path="url(#lBTrJqAHgUgZ)"/><path fill="rgb(143,45,86)" stroke="none" paint-order="stroke" d="M 306.42816162109375 551.5454711914062 L 306.98792564868927 551.5454711914062 L 306.98792564868927 604.1818351745605 L 306.42816162109375 604.1818351745605 L 306.42816162109375 551.5454711914062" fill-opacity="1" clip-path="url(#lBTrJqAHgUgZ)"/><path fill="rgb(81,60,99)" stroke="none" paint-order="stroke" d="M 306.9879150390625 551.5454711914062 L 309.06338715553284 551.5454711914062 L 309.06338715553284 604.1818351745605 L 306.9879150390625 604.1818351745605 L 306.9879150390625 551.5454711914062" fill-opacity="1" clip-path="url(#lBTrJqAHgUgZ)"/><path fill="rgb(143,45,86)" stroke="none" paint-order="stroke" d="M 309.06341552734375 551.5454711914062 L 309.62317955493927 551.5454711914062 L 309.62317955493927 604.1818351745605 L 309.06341552734375 604.1818351745605 L 309.06341552734375 551.5454711914062" fill-opacity="1" clip-path="url(#lBTrJqAHgUgZ)"/><path fill="rgb(81,60,99)" stroke="none" paint-order="stroke" d="M 309.6231689453125 551.5454711914062 L 309.7024049460888 551.5454711914062 L 309.7024049460888 604.1818351745605 L 309.6231689453125 604.1818351745605 L 309.6231689453125 551.5454711914062" fill-opacity="1" clip-path="url(#lBTrJqAHgUgZ)"/><path fill="rgb(143,45,86)" stroke="none" paint-order="stroke" d="M 309.702392578125 551.5454711914062 L 310.4487445950508 551.5454711914062 L 310.4487445950508 604.1818351745605 L 309.702392578125 604.1818351745605 L 309.702392578125 551.5454711914062" fill-opacity="1" clip-path="url(#lBTrJqAHgUgZ)"/><path fill="rgb(81,60,99)" stroke="none" paint-order="stroke" d="M 310.4487609863281 551.5454711914062 L 346.6046600341797 551.5454711914062 L 346.6046600341797 604.1818351745605 L 310.4487609863281 604.1818351745605 L 310.4487609863281 551.5454711914062" fill-opacity="1" clip-path="url(#lBTrJqAHgUgZ)"/><path fill="rgb(143,45,86)" stroke="none" paint-order="stroke" d="M 346.6046447753906 551.5454711914062 L 347.37655675411224 551.5454711914062 L 347.37655675411224 604.1818351745605 L 346.6046447753906 604.1818351745605 L 346.6046447753906 551.5454711914062" fill-opacity="1" clip-path="url(#lBTrJqAHgUgZ)"/><path fill="rgb(81,60,99)" stroke="none" paint-order="stroke" d="M 347.3765563964844 551.5454711914062 L 347.58998239040375 551.5454711914062 L 347.58998239040375 604.1818351745605 L 347.3765563964844 604.1818351745605 L 347.3765563964844 551.5454711914062" fill-opacity="1" clip-path="url(#lBTrJqAHgUgZ)"/><path fill="rgb(143,45,86)" stroke="none" paint-order="stroke" d="M 347.5899963378906 551.5454711914062 L 348.33507031202316 551.5454711914062 L 348.33507031202316 604.1818351745605 L 347.5899963378906 604.1818351745605 L 347.5899963378906 551.5454711914062" fill-opacity="1" clip-path="url(#lBTrJqAHgUgZ)"/><path fill="rgb(81,60,99)" stroke="none" paint-order="stroke" d="M 348.3350524902344 551.5454711914062 L 350.6252284049988 551.5454711914062 L 350.6252284049988 604.1818351745605 L 348.3350524902344 604.1818351745605 L 348.3350524902344 551.5454711914062" fill-opacity="1" clip-path="url(#lBTrJqAHgUgZ)"/><path fill="rgb(143,45,86)" stroke="none" paint-order="stroke" d="M 350.625244140625 551.5454711914062 L 352.3032581806183 551.5454711914062 L 352.3032581806183 604.1818351745605 L 350.625244140625 604.1818351745605 L 350.625244140625 551.5454711914062" fill-opacity="1" clip-path="url(#lBTrJqAHgUgZ)"/><path fill="rgb(81,60,99)" stroke="none" paint-order="stroke" d="M 352.3032531738281 551.5454711914062 L 352.4885631799698 551.5454711914062 L 352.4885631799698 604.1818351745605 L 352.3032531738281 604.1818351745605 L 352.3032531738281 551.5454711914062" fill-opacity="1" clip-path="url(#lBTrJqAHgUgZ)"/><path fill="rgb(143,45,86)" stroke="none" paint-order="stroke" d="M 352.4885559082031 551.5454711914062 L 352.70325991511345 551.5454711914062 L 352.70325991511345 604.1818351745605 L 352.4885559082031 604.1818351745605 L 352.4885559082031 551.5454711914062" fill-opacity="1" clip-path="url(#lBTrJqAHgUgZ)"/><path fill="rgb(81,60,99)" stroke="none" paint-order="stroke" d="M 352.7032775878906 551.5454711914062 L 364.565673828125 551.5454711914062 L 364.565673828125 604.1818351745605 L 352.7032775878906 604.1818351745605 L 352.7032775878906 551.5454711914062" fill-opacity="1" clip-path="url(#lBTrJqAHgUgZ)"/><path fill="none" stroke="rgb(0,0,0)" paint-order="fill" d="M 58.5 77.81818389892578 L 364.565673828125 77.81818389892578 L 364.565673828125 604.1818313598633 L 58.5 604.1818313598633 L 58.5 77.81818389892578" stroke-opacity="1" stroke-linejoin="bevel" stroke-miterlimit="10" stroke-dasharray="" clip-path="url(#XqELNBNhszKg)"/><path fill="none" stroke="rgb(0,0,0)" paint-order="fill" d="M 58.5 630.5 L 1336.5 630.5" stroke-opacity="1" stroke-linejoin="bevel" stroke-miterlimit="10" stroke-dasharray=""/><path fill="none" stroke="rgb(0,0,0)" paint-order="fill" d="M 58.5 636.5 L 58.5 628.5 M 314.5 636.5 L 314.5 628.5 M 569.5 636.5 L 569.5 628.5 M 825.5 636.5 L 825.5 628.5 M 1080.5 636.5 L 1080.5 628.5 M 1336.5 636.5 L 1336.5 628.5" stroke-opacity="1" stroke-linejoin="bevel" stroke-miterlimit="10" stroke-dasharray=""/><path fill="none" stroke="rgb(0,0,0)" paint-order="fill" d="M 58.5 634.5 L 58.5 630.5 M 109.5 634.5 L 109.5 630.5 M 160.5 634.5 L 160.5 630.5 M 211.5 634.5 L 211.5 630.5 M 262.5 634.5 L 262.5 630.5 M 314.5 634.5 L 314.5 630.5 M 365.5 634.5 L 365.5 630.5 M 416.5 634.5 L 416.5 630.5 M 467.5 634.5 L 467.5 630.5 M 518.5 634.5 L 518.5 630.5 M 569.5 634.5 L 569.5 630.5 M 620.5 634.5 L 620.5 630.5 M 671.5 634.5 L 671.5 630.5 M 723.5 634.5 L 723.5 630.5 M 774.5 634.5 L 774.5 630.5 M 825.5 634.5 L 825.5 630.5 M 876.5 634.5 L 876.5 630.5 M 927.5 634.5 L 927.5 630.5 M 978.5 634.5 L 978.5 630.5 M 1029.5 634.5 L 1029.5 630.5 M 1080.5 634.5 L 1080.5 630.5 M 1132.5 634.5 L 1132.5 630.5 M 1183.5 634.5 L 1183.5 630.5 M 1234.5 634.5 L 1234.5 630.5 M 1285.5 634.5 L 1285.5 630.5 M 1336.5 634.5 L 1336.5 630.5" stroke-opacity="1" stroke-linejoin="bevel" stroke-miterlimit="10" stroke-dasharray=""/><text fill="rgb(68,68,68)" stroke="none" font-family="helvetica" font-size="11px" font-style="normal" font-weight="normal" text-decoration="normal" x="54.94166660308838" y="648.89013671875" text-anchor="start" dominant-baseline="alphabetic" transform="matrix(1, 0, 0, 1, 0.5, 0.5)" fill-opacity="1">0</text><text fill="rgb(68,68,68)" stroke="none" font-family="helvetica" font-size="11px" font-style="normal" font-weight="normal" text-decoration="normal" x="304.42500591278076" y="648.89013671875" text-anchor="start" dominant-baseline="alphabetic" transform="matrix(1, 0, 0, 1, 0.5, 0.5)" fill-opacity="1">200</text><text fill="rgb(68,68,68)" stroke="none" font-family="helvetica" font-size="11px" font-style="normal" font-weight="normal" text-decoration="normal" x="560.0250120162964" y="648.89013671875" text-anchor="start" dominant-baseline="alphabetic" transform="matrix(1, 0, 0, 1, 0.5, 0.5)" fill-opacity="1">400</text><text fill="rgb(68,68,68)" stroke="none" font-family="helvetica" font-size="11px" font-style="normal" font-weight="normal" text-decoration="normal" x="815.6249876022339" y="648.89013671875" text-anchor="start" dominant-baseline="alphabetic" transform="matrix(1, 0, 0, 1, 0.5, 0.5)" fill-opacity="1">600</text><text fill="rgb(68,68,68)" stroke="none" font-family="helvetica" font-size="11px" font-style="normal" font-weight="normal" text-decoration="normal" x="1071.2250242233276" y="648.89013671875" text-anchor="start" dominant-baseline="alphabetic" transform="matrix(1, 0, 0, 1, 0.5, 0.5)" fill-opacity="1">800</text><text fill="rgb(68,68,68)" stroke="none" font-family="helvetica" font-size="11px" font-style="normal" font-weight="normal" text-decoration="normal" x="1323.7666664123535" y="648.89013671875" text-anchor="start" dominant-baseline="alphabetic" transform="matrix(1, 0, 0, 1, 0.5, 0.5)" fill-opacity="1">1000</text><text fill="rgb(68,68,68)" stroke="none" font-family="helvetica" font-size="15pt" font-style="italic" font-weight="normal" text-decoration="normal" x="666.4416675567627" y="676.06982421875" text-anchor="start" dominant-baseline="alphabetic" transform="matrix(1, 0, 0, 1, 0.5, 0.5)" fill-opacity="1">time(s)</text><path fill="none" stroke="rgb(0,0,0)" paint-order="fill" d="M 58.5 630.5 L 58.5 51.5" stroke-opacity="1" stroke-linejoin="bevel" stroke-miterlimit="10" stroke-dasharray=""/><path fill="none" stroke="rgb(0,0,0)" paint-order="fill" d="M 52.5 551.5 L 60.5 551.5 M 52.5 446.5 L 60.5 446.5 M 52.5 341.5 L 60.5 341.5 M 52.5 235.5 L 60.5 235.5 M 52.5 130.5 L 60.5 130.5" stroke-opacity="1" stroke-linejoin="bevel" stroke-miterlimit="10" stroke-dasharray=""/><path fill="none" stroke="rgb(0,0,0)" paint-order="fill" d="M 54.5 572.5 L 58.5 572.5 M 54.5 593.5 L 58.5 593.5 M 54.5 614.5 L 58.5 614.5 M 54.5 551.5 L 58.5 551.5 M 54.5 530.5 L 58.5 530.5 M 54.5 509.5 L 58.5 509.5 M 54.5 488.5 L 58.5 488.5 M 54.5 467.5 L 58.5 467.5 M 54.5 446.5 L 58.5 446.5 M 54.5 425.5 L 58.5 425.5 M 54.5 404.5 L 58.5 404.5 M 54.5 383.5 L 58.5 383.5 M 54.5 362.5 L 58.5 362.5 M 54.5 341.5 L 58.5 341.5 M 54.5 319.5 L 58.5 319.5 M 54.5 298.5 L 58.5 298.5 M 54.5 277.5 L 58.5 277.5 M 54.5 256.5 L 58.5 256.5 M 54.5 235.5 L 58.5 235.5 M 54.5 214.5 L 58.5 214.5 M 54.5 193.5 L 58.5 193.5 M 54.5 172.5 L 58.5 172.5 M 54.5 151.5 L 58.5 151.5 M 54.5 130.5 L 58.5 130.5 M 54.5 109.5 L 58.5 109.5 M 54.5 88.5 L 58.5 88.5 M 54.5 67.5 L 58.5 67.5" stroke-opacity="1" stroke-linejoin="bevel" stroke-miterlimit="10" stroke-dasharray=""/><text fill="rgb(68,68,68)" stroke="none" font-family="helvetica" font-size="11px" font-style="normal" font-weight="normal" text-decoration="normal" x="34.46666622161865" y="554.9905395507812" text-anchor="start" dominant-baseline="alphabetic" transform="matrix(1, 0, 0, 1, 0.5, 0.5)" fill-opacity="1">−2</text><text fill="rgb(68,68,68)" stroke="none" font-family="helvetica" font-size="11px" font-style="normal" font-weight="normal" text-decoration="normal" x="34.46666622161865" y="449.7178039550781" text-anchor="start" dominant-baseline="alphabetic" transform="matrix(1, 0, 0, 1, 0.5, 0.5)" fill-opacity="1">−1</text><text fill="rgb(68,68,68)" stroke="none" font-family="helvetica" font-size="11px" font-style="normal" font-weight="normal" text-decoration="normal" x="40.88333320617676" y="344.445068359375" text-anchor="start" dominant-baseline="alphabetic" transform="matrix(1, 0, 0, 1, 0.5, 0.5)" fill-opacity="1">0</text><text fill="rgb(68,68,68)" stroke="none" font-family="helvetica" font-size="11px" font-style="normal" font-weight="normal" text-decoration="normal" x="40.88333320617676" y="239.17234802246094" text-anchor="start" dominant-baseline="alphabetic" transform="matrix(1, 0, 0, 1, 0.5, 0.5)" fill-opacity="1">1</text><text fill="rgb(68,68,68)" stroke="none" font-family="helvetica" font-size="11px" font-style="normal" font-weight="normal" text-decoration="normal" x="40.88333320617676" y="133.8996124267578" text-anchor="start" dominant-baseline="alphabetic" transform="matrix(1, 0, 0, 1, 0.5, 0.5)" fill-opacity="1">2</text><text fill="rgb(68,68,68)" stroke="none" font-family="helvetica" font-size="15pt" font-style="italic" font-weight="normal" text-decoration="normal" x="-11.316666603088379" y="336.076171875" text-anchor="start" dominant-baseline="alphabetic" transform="matrix(6.123233995736766e-17, -1, 1, 6.123233995736766e-17, -313.53333377838135, 367.46666622161865)" fill-opacity="1">students</text><path fill="rgb(255,255,255)" stroke="rgb(229,229,229)" paint-order="fill" d="M 1128.2333374023438 61.5 L 1326.5 61.5 L 1326.5 400.5 L 1128.2333374023438 400.5 L 1128.2333374023438 61.5" fill-opacity="0.9490196078431372" clip-path="url(#fZAKGtuplZgw)" stroke-opacity="0.5019607843137255" stroke-linejoin="bevel" stroke-miterlimit="10" stroke-dasharray=""/><text fill="rgb(68,68,68)" stroke="none" font-family="helvetica" font-size="13px" font-style="normal" font-weight="normal" text-decoration="normal" x="1162.7333374023438" y="81" text-anchor="start" dominant-baseline="central" clip-path="url(#fZAKGtuplZgw)" transform="matrix(1, 0, 0, 1, 0.5, 0.5)" fill-opacity="1">wavelength</text><path fill="rgb(0,255,40)" stroke="none" paint-order="stroke" d="M 1140.2333374023438 73.5 L 1156.2333374023438 73.5 L 1156.2333374023438 89.5 L 1140.2333374023438 89.5 L 1140.2333374023438 73.5" fill-opacity="1" clip-path="url(#fZAKGtuplZgw)"/><path fill="rgb(216,17,89)" stroke="none" paint-order="stroke" d="M 1140.2333374023438 73.5 L 1156.2333374023438 73.5 L 1156.2333374023438 89.5 L 1140.2333374023438 89.5 L 1140.2333374023438 73.5" fill-opacity="1" clip-path="url(#fZAKGtuplZgw)"/><text fill="rgb(68,68,68)" stroke="none" font-family="helvetica" font-size="13px" font-style="normal" font-weight="normal" text-decoration="normal" x="1162.7333374023438" y="104" text-anchor="start" dominant-baseline="central" clip-path="url(#fZAKGtuplZgw)" transform="matrix(1, 0, 0, 1, 0.5, 0.5)" fill-opacity="1">solution</text><path fill="rgb(251,0,7)" stroke="none" paint-order="stroke" d="M 1140.2333374023438 96.5 L 1156.2333374023438 96.5 L 1156.2333374023438 112.5 L 1140.2333374023438 112.5 L 1140.2333374023438 96.5" fill-opacity="1" clip-path="url(#fZAKGtuplZgw)"/><path fill="rgb(33,131,128)" stroke="none" paint-order="stroke" d="M 1140.2333374023438 96.5 L 1156.2333374023438 96.5 L 1156.2333374023438 112.5 L 1140.2333374023438 112.5 L 1140.2333374023438 96.5" fill-opacity="1" clip-path="url(#fZAKGtuplZgw)"/><text fill="rgb(68,68,68)" stroke="none" font-family="helvetica" font-size="13px" font-style="normal" font-weight="normal" text-decoration="normal" x="1162.7333374023438" y="127" text-anchor="start" dominant-baseline="central" clip-path="url(#fZAKGtuplZgw)" transform="matrix(1, 0, 0, 1, 0.5, 0.5)" fill-opacity="1">laser</text><path fill="rgb(105,29,48)" stroke="none" paint-order="stroke" d="M 1140.2333374023438 119.5 L 1156.2333374023438 119.5 L 1156.2333374023438 135.5 L 1140.2333374023438 135.5 L 1140.2333374023438 119.5" fill-opacity="1" clip-path="url(#fZAKGtuplZgw)"/><text fill="rgb(68,68,68)" stroke="none" font-family="helvetica" font-size="13px" font-style="normal" font-weight="normal" text-decoration="normal" x="1162.7333374023438" y="150" text-anchor="start" dominant-baseline="central" clip-path="url(#fZAKGtuplZgw)" transform="matrix(1, 0, 0, 1, 0.5, 0.5)" fill-opacity="1">ruler</text><text fill="rgb(68,68,68)" stroke="none" font-family="helvetica" font-size="13px" font-style="normal" font-weight="normal" text-decoration="normal" x="1162.7333374023438" y="173" text-anchor="start" dominant-baseline="central" clip-path="url(#fZAKGtuplZgw)" transform="matrix(1, 0, 0, 1, 0.5, 0.5)" fill-opacity="1">restarts</text><path fill="rgb(162,174,187)" stroke="none" paint-order="stroke" d="M 1140.2333374023438 165.5 L 1156.2333374023438 165.5 L 1156.2333374023438 181.5 L 1140.2333374023438 181.5 L 1140.2333374023438 165.5" fill-opacity="1" clip-path="url(#fZAKGtuplZgw)"/><text fill="rgb(68,68,68)" stroke="none" font-family="helvetica" font-size="13px" font-style="normal" font-weight="normal" text-decoration="normal" x="1162.7333374023438" y="196" text-anchor="start" dominant-baseline="central" clip-path="url(#fZAKGtuplZgw)" transform="matrix(1, 0, 0, 1, 0.5, 0.5)" fill-opacity="1">transmittance_absorbance</text><path fill="rgb(162,174,187)" stroke="none" paint-order="stroke" d="M 1140.2333374023438 188.5 L 1156.2333374023438 188.5 L 1156.2333374023438 204.5 L 1140.2333374023438 204.5 L 1140.2333374023438 188.5" fill-opacity="1" clip-path="url(#fZAKGtuplZgw)"/><text fill="rgb(68,68,68)" stroke="none" font-family="helvetica" font-size="13px" font-style="normal" font-weight="normal" text-decoration="normal" x="1162.7333374023438" y="219" text-anchor="start" dominant-baseline="central" clip-path="url(#fZAKGtuplZgw)" transform="matrix(1, 0, 0, 1, 0.5, 0.5)" fill-opacity="1">magnifier</text><path fill="rgb(255,188,66)" stroke="none" paint-order="stroke" d="M 1140.2333374023438 211.5 L 1156.2333374023438 211.5 L 1156.2333374023438 227.5 L 1140.2333374023438 227.5 L 1140.2333374023438 211.5" fill-opacity="1" clip-path="url(#fZAKGtuplZgw)"/><text fill="rgb(68,68,68)" stroke="none" font-family="helvetica" font-size="13px" font-style="normal" font-weight="normal" text-decoration="normal" x="1162.7333374023438" y="242" text-anchor="start" dominant-baseline="central" clip-path="url(#fZAKGtuplZgw)" transform="matrix(1, 0, 0, 1, 0.5, 0.5)" fill-opacity="1">concentration</text><path fill="rgb(115,210,222)" stroke="none" paint-order="stroke" d="M 1140.2333374023438 234.5 L 1156.2333374023438 234.5 L 1156.2333374023438 250.5 L 1140.2333374023438 250.5 L 1140.2333374023438 234.5" fill-opacity="1" clip-path="url(#fZAKGtuplZgw)"/><text fill="rgb(68,68,68)" stroke="none" font-family="helvetica" font-size="13px" font-style="normal" font-weight="normal" text-decoration="normal" x="1162.7333374023438" y="265" text-anchor="start" dominant-baseline="central" clip-path="url(#fZAKGtuplZgw)" transform="matrix(1, 0, 0, 1, 0.5, 0.5)" fill-opacity="1">flask</text><path fill="rgb(28,49,68)" stroke="none" paint-order="stroke" d="M 1140.2333374023438 257.5 L 1156.2333374023438 257.5 L 1156.2333374023438 273.5 L 1140.2333374023438 273.5 L 1140.2333374023438 257.5" fill-opacity="1" clip-path="url(#fZAKGtuplZgw)"/><text fill="rgb(68,68,68)" stroke="none" font-family="helvetica" font-size="13px" font-style="normal" font-weight="normal" text-decoration="normal" x="1162.7333374023438" y="288" text-anchor="start" dominant-baseline="central" clip-path="url(#fZAKGtuplZgw)" transform="matrix(1, 0, 0, 1, 0.5, 0.5)" fill-opacity="1">pdf</text><path fill="rgb(239,185,203)" stroke="none" paint-order="stroke" d="M 1140.2333374023438 280.5 L 1156.2333374023438 280.5 L 1156.2333374023438 296.5 L 1140.2333374023438 296.5 L 1140.2333374023438 280.5" fill-opacity="1" clip-path="url(#fZAKGtuplZgw)"/><text fill="rgb(68,68,68)" stroke="none" font-family="helvetica" font-size="13px" font-style="normal" font-weight="normal" text-decoration="normal" x="1162.7333374023438" y="311" text-anchor="start" dominant-baseline="central" clip-path="url(#fZAKGtuplZgw)" transform="matrix(1, 0, 0, 1, 0.5, 0.5)" fill-opacity="1">concentrationlab</text><text fill="rgb(68,68,68)" stroke="none" font-family="helvetica" font-size="13px" font-style="normal" font-weight="normal" text-decoration="normal" x="1162.7333374023438" y="334" text-anchor="start" dominant-baseline="central" clip-path="url(#fZAKGtuplZgw)" transform="matrix(1, 0, 0, 1, 0.5, 0.5)" fill-opacity="1">wavelength_slider</text><text fill="rgb(68,68,68)" stroke="none" font-family="helvetica" font-size="13px" font-style="normal" font-weight="normal" text-decoration="normal" x="1162.7333374023438" y="357" text-anchor="start" dominant-baseline="central" clip-path="url(#fZAKGtuplZgw)" transform="matrix(1, 0, 0, 1, 0.5, 0.5)" fill-opacity="1">ruler measuring</text><text fill="rgb(68,68,68)" stroke="none" font-family="helvetica" font-size="13px" font-style="normal" font-weight="normal" text-decoration="normal" x="1162.7333374023438" y="380" text-anchor="start" dominant-baseline="central" clip-path="url(#fZAKGtuplZgw)" transform="matrix(1, 0, 0, 1, 0.5, 0.5)" fill-opacity="1">dependent variable</text><path fill="rgb(143,45,86)" stroke="none" paint-order="stroke" d="M 1140.2333374023438 372.5 L 1156.2333374023438 372.5 L 1156.2333374023438 388.5 L 1140.2333374023438 388.5 L 1140.2333374023438 372.5" fill-opacity="1" clip-path="url(#fZAKGtuplZgw)"/><text fill="rgb(68,68,68)" stroke="none" font-family="helvetica" font-size="25pt" font-style="normal" font-weight="bold" text-decoration="normal" x="58" y="38.740885416666664" text-anchor="start" dominant-baseline="alphabetic" transform="matrix(1, 0, 0, 1, 0.5, 0.5)" fill-opacity="1">Timeline for student ecaf72fu with permutation 3120 for task 1</text></svg>