<svg version="1.1" xmlns="http://www.w3.org/2000/svg" width="1366" height="683"><defs><clipPath id="ATTFlSETTuTV"><path fill="none" stroke="none" d="M 58.5 51.5 L 1336.5 51.5 L 1336.5 630.5 L 58.5 630.5 L 58.5 51.5"/></clipPath><clipPath id="JADSdThdHNCC"><path fill="none" stroke="none" d="M 58.5 51.5 L 1336.5 51.5 L 1336.5 630.5 L 58.5 630.5 L 58.5 51.5"/></clipPath><clipPath id="JlkDhdRsDDAg"><path fill="none" stroke="none" d="M 58.5 51.5 L 1336.5 51.5 L 1336.5 630.5 L 58.5 630.5 L 58.5 51.5"/></clipPath><clipPath id="oztwKrZspdcW"><path fill="none" stroke="none" d="M 58.5 51.5 L 1336.5 51.5 L 1336.5 630.5 L 58.5 630.5 L 58.5 51.5"/></clipPath><clipPath id="tUEZoXvQfoOO"><path fill="none" stroke="none" d="M 58.5 51.5 L 1336.5 51.5 L 1336.5 630.5 L 58.5 630.5 L 58.5 51.5"/></clipPath><clipPath id="JFJLGrkZURGa"><path fill="none" stroke="none" d="M 58.5 51.5 L 1336.5 51.5 L 1336.5 630.5 L 58.5 630.5 L 58.5 51.5"/></clipPath><clipPath id="bpighszTgkVP"><path fill="none" stroke="none" d="M 58.5 51.5 L 1336.5 51.5 L 1336.5 630.5 L 58.5 630.5 L 58.5 51.5"/></clipPath><clipPath id="LPCdEiWDvotw"><path fill="none" stroke="none" d="M 58.5 51.5 L 1336.5 51.5 L 1336.5 630.5 L 58.5 630.5 L 58.5 51.5"/></clipPath><clipPath id="lNQscrtPtPHW"><path fill="none" stroke="none" d="M 58.5 51.5 L 1336.5 51.5 L 1336.5 630.5 L 58.5 630.5 L 58.5 51.5"/></clipPath><clipPath id="tlsBXfIbWhDM"><path fill="none" stroke="none" d="M 58.5 51.5 L 1336.5 51.5 L 1336.5 630.5 L 58.5 630.5 L 58.5 51.5"/></clipPath><clipPath id="waiSTQKXyDRG"><path fill="none" stroke="none" d="M 58.5 51.5 L 1336.5 51.5 L 1336.5 630.5 L 58.5 630.5 L 58.5 51.5"/></clipPath><clipPath id="IWGmlCJOfwze"><path fill="none" stroke="none" d="M 58.5 51.5 L 1336.5 51.5 L 1336.5 630.5 L 58.5 630.5 L 58.5 51.5"/></clipPath><clipPath id="MNZKsSTWsQEc"><path fill="none" stroke="none" d="M 58.5 51.5 L 1336.5 51.5 L 1336.5 630.5 L 58.5 630.5 L 58.5 51.5"/></clipPath><clipPath id="nNOTfOkfTQqQ"><path fill="none" stroke="none" d="M 58.5 51.5 L 1336.5 51.5 L 1336.5 630.5 L 58.5 630.5 L 58.5 51.5"/></clipPath><clipPath id="IaNnbxcXvdDq"><path fill="none" stroke="none" d="M 58.5 51.5 L 1336.5 51.5 L 1336.5 630.5 L 58.5 630.5 L 58.5 51.5"/></clipPath><clipPath id="DxcKdMGFcvKJ"><path fill="none" stroke="none" d="M 58.5 51.5 L 1336.5 51.5 L 1336.5 630.5 L 58.5 630.5 L 58.5 51.5"/></clipPath><clipPath id="VbMprmdwPezt"><path fill="none" stroke="none" d="M 58.5 51.5 L 1336.5 51.5 L 1336.5 630.5 L 58.5 630.5 L 58.5 51.5"/></clipPath><clipPath id="xFBPBNUCQOWf"><path fill="none" stroke="none" d="M 58.5 51.5 L 1336.5 51.5 L 1336.5 630.5 L 58.5 630.5 L 58.5 51.5"/></clipPath><clipPath id="NdbmEDDwqTOe"><path fill="none" stroke="none" d="M 58.5 51.5 L 1336.5 51.5 L 1336.5 630.5 L 58.5 630.5 L 58.5 51.5"/></clipPath><clipPath id="QDmZVPvaRtsD"><path fill="none" stroke="none" d="M 58.5 51.5 L 1336.5 51.5 L 1336.5 630.5 L 58.5 630.5 L 58.5 51.5"/></clipPath><clipPath id="XnDTHlrpQsdH"><path fill="none" stroke="none" d="M 58.5 51.5 L 1336.5 51.5 L 1336.5 630.5 L 58.5 630.5 L 58.5 51.5"/></clipPath></defs><path fill="rgb(255,255,255)" stroke="none" paint-order="stroke" d="M 0.5 0.5 L 1366.5 0.5 L 1366.5 683.5 L 0.5 683.5 L 0.5 0.5" fill-opacity="1"/><rect fill="#FFFFFF" stroke="none" x="58" y="51" width="1278" height="579" transform="matrix(1, 0, 0, 1, 0.5, 0.5)"/><path fill="rgb(255,255,255)" stroke="none" paint-order="stroke" d="M 58.5 51.5 L 1336.5 51.5 L 1336.5 630.5 L 58.5 630.5 L 58.5 51.5" fill-opacity="1"/><path fill="none" stroke="rgb(229,229,229)" paint-order="fill" d="M 58.5 51.5 L 1336.5 51.5 L 1336.5 630.5 L 58.5 630.5 L 58.5 51.5" stroke-opacity="1" stroke-linejoin="bevel" stroke-miterlimit="10" stroke-dasharray=""/><path fill="none" stroke="rgb(229,229,229)" paint-order="fill" d="M 314.5 630.5 L 314.5 51.5 M 569.5 630.5 L 569.5 51.5 M 825.5 630.5 L 825.5 51.5 M 1080.5 630.5 L 1080.5 51.5" stroke-opacity="1" stroke-linejoin="bevel" stroke-miterlimit="10" stroke-dasharray="" clip-path="url(#ATTFlSETTuTV)"/><path fill="none" stroke="rgb(229,229,229)" paint-order="fill" d="M 58.5 551.5 L 1336.5 551.5 M 58.5 446.5 L 1336.5 446.5 M 58.5 341.5 L 1336.5 341.5 M 58.5 235.5 L 1336.5 235.5 M 58.5 130.5 L 1336.5 130.5" stroke-opacity="1" stroke-linejoin="bevel" stroke-miterlimit="10" stroke-dasharray="" clip-path="url(#JADSdThdHNCC)"/><path fill="rgb(0,255,40)" stroke="none" paint-order="stroke" d="M 58.5 77.81818389892578 L 130.07949829101562 77.81818389892578 L 130.07949829101562 130.45454788208008 L 58.5 130.45454788208008 L 58.5 77.81818389892578" fill-opacity="1" clip-path="url(#JlkDhdRsDDAg)"/><path fill="rgb(169,255,0)" stroke="none" paint-order="stroke" d="M 130.07949829101562 77.81818389892578 L 130.0999462902546 77.81818389892578 L 130.0999462902546 130.45454788208008 L 130.07949829101562 130.45454788208008 L 130.07949829101562 77.81818389892578" fill-opacity="1" clip-path="url(#JlkDhdRsDDAg)"/><path fill="rgb(255,213,0)" stroke="none" paint-order="stroke" d="M 130.09994506835938 77.81818389892578 L 130.12167106755078 77.81818389892578 L 130.12167106755078 130.45454788208008 L 130.09994506835938 130.45454788208008 L 130.09994506835938 77.81818389892578" fill-opacity="1" clip-path="url(#JlkDhdRsDDAg)"/><path fill="rgb(255,111,0)" stroke="none" paint-order="stroke" d="M 130.12167358398438 77.81818389892578 L 130.14339958317578 77.81818389892578 L 130.14339958317578 130.45454788208008 L 130.12167358398438 130.45454788208008 L 130.12167358398438 77.81818389892578" fill-opacity="1" clip-path="url(#JlkDhdRsDDAg)"/><path fill="rgb(255,9,0)" stroke="none" paint-order="stroke" d="M 130.14340209960938 77.81818389892578 L 130.16512809880078 77.81818389892578 L 130.16512809880078 130.45454788208008 L 130.14340209960938 130.45454788208008 L 130.14340209960938 77.81818389892578" fill-opacity="1" clip-path="url(#JlkDhdRsDDAg)"/><path fill="rgb(198,0,0)" stroke="none" paint-order="stroke" d="M 130.16513061523438 77.81818389892578 L 130.18557861447334 77.81818389892578 L 130.18557861447334 130.45454788208008 L 130.16513061523438 130.45454788208008 L 130.16513061523438 77.81818389892578" fill-opacity="1" clip-path="url(#JlkDhdRsDDAg)"/><path fill="rgb(119,0,0)" stroke="none" paint-order="stroke" d="M 130.18557739257812 77.81818389892578 L 130.20730339176953 77.81818389892578 L 130.20730339176953 130.45454788208008 L 130.18557739257812 130.45454788208008 L 130.18557739257812 77.81818389892578" fill-opacity="1" clip-path="url(#JlkDhdRsDDAg)"/><path fill="rgb(0,0,0)" stroke="none" paint-order="stroke" d="M 130.20730590820312 77.81818389892578 L 130.22903190739453 77.81818389892578 L 130.22903190739453 130.45454788208008 L 130.20730590820312 130.45454788208008 L 130.20730590820312 77.81818389892578" fill-opacity="1" clip-path="url(#JlkDhdRsDDAg)"/><path fill="rgb(0,0,0)" stroke="none" paint-order="stroke" d="M 130.22903442382812 77.81818389892578 L 130.91020840406418 77.81818389892578 L 130.91020840406418 130.45454788208008 L 130.22903442382812 130.45454788208008 L 130.22903442382812 77.81818389892578" fill-opacity="1" clip-path="url(#JlkDhdRsDDAg)"/><path fill="rgb(0,0,0)" stroke="none" paint-order="stroke" d="M 130.9102020263672 77.81818389892578 L 130.93065002560616 77.81818389892578 L 130.93065002560616 130.45454788208008 L 130.9102020263672 130.45454788208008 L 130.9102020263672 77.81818389892578" fill-opacity="1" clip-path="url(#JlkDhdRsDDAg)"/><path fill="rgb(0,0,0)" stroke="none" paint-order="stroke" d="M 130.93064880371094 77.81818389892578 L 130.9510968029499 77.81818389892578 L 130.9510968029499 130.45454788208008 L 130.93064880371094 130.45454788208008 L 130.93064880371094 77.81818389892578" fill-opacity="1" clip-path="url(#JlkDhdRsDDAg)"/><path fill="rgb(0,0,0)" stroke="none" paint-order="stroke" d="M 130.9510955810547 77.81818389892578 L 130.9728215802461 77.81818389892578 L 130.9728215802461 130.45454788208008 L 130.9510955810547 130.45454788208008 L 130.9510955810547 77.81818389892578" fill-opacity="1" clip-path="url(#JlkDhdRsDDAg)"/><path fill="rgb(107,0,0)" stroke="none" paint-order="stroke" d="M 130.9728240966797 77.81818389892578 L 130.9945500958711 77.81818389892578 L 130.9945500958711 130.45454788208008 L 130.9728240966797 130.45454788208008 L 130.9728240966797 77.81818389892578" fill-opacity="1" clip-path="url(#JlkDhdRsDDAg)"/><path fill="rgb(112,0,0)" stroke="none" paint-order="stroke" d="M 130.9945526123047 77.81818389892578 L 131.0162786114961 77.81818389892578 L 131.0162786114961 130.45454788208008 L 130.9945526123047 130.45454788208008 L 130.9945526123047 77.81818389892578" fill-opacity="1" clip-path="url(#JlkDhdRsDDAg)"/><path fill="rgb(125,0,0)" stroke="none" paint-order="stroke" d="M 131.0162811279297 77.81818389892578 L 131.03672912716866 77.81818389892578 L 131.03672912716866 130.45454788208008 L 131.0162811279297 130.45454788208008 L 131.0162811279297 77.81818389892578" fill-opacity="1" clip-path="url(#JlkDhdRsDDAg)"/><path fill="rgb(132,0,0)" stroke="none" paint-order="stroke" d="M 131.03672790527344 77.81818389892578 L 131.05845390446484 77.81818389892578 L 131.05845390446484 130.45454788208008 L 131.03672790527344 130.45454788208008 L 131.03672790527344 77.81818389892578" fill-opacity="1" clip-path="url(#JlkDhdRsDDAg)"/><path fill="rgb(137,0,0)" stroke="none" paint-order="stroke" d="M 131.05845642089844 77.81818389892578 L 131.08018242008984 77.81818389892578 L 131.08018242008984 130.45454788208008 L 131.05845642089844 130.45454788208008 L 131.05845642089844 77.81818389892578" fill-opacity="1" clip-path="url(#JlkDhdRsDDAg)"/><path fill="rgb(149,0,0)" stroke="none" paint-order="stroke" d="M 131.08016967773438 77.81818389892578 L 131.10061767697334 77.81818389892578 L 131.10061767697334 130.45454788208008 L 131.08016967773438 130.45454788208008 L 131.08016967773438 77.81818389892578" fill-opacity="1" clip-path="url(#JlkDhdRsDDAg)"/><path fill="rgb(154,0,0)" stroke="none" paint-order="stroke" d="M 131.10061645507812 77.81818389892578 L 131.12234245426953 77.81818389892578 L 131.12234245426953 130.45454788208008 L 131.10061645507812 130.45454788208008 L 131.10061645507812 77.81818389892578" fill-opacity="1" clip-path="url(#JlkDhdRsDDAg)"/><path fill="rgb(160,0,0)" stroke="none" paint-order="stroke" d="M 131.12234497070312 77.81818389892578 L 131.14407096989453 77.81818389892578 L 131.14407096989453 130.45454788208008 L 131.12234497070312 130.45454788208008 L 131.12234497070312 77.81818389892578" fill-opacity="1" clip-path="url(#JlkDhdRsDDAg)"/><path fill="rgb(170,0,0)" stroke="none" paint-order="stroke" d="M 131.14407348632812 77.81818389892578 L 131.1645214855671 77.81818389892578 L 131.1645214855671 130.45454788208008 L 131.14407348632812 130.45454788208008 L 131.14407348632812 77.81818389892578" fill-opacity="1" clip-path="url(#JlkDhdRsDDAg)"/><path fill="rgb(176,0,0)" stroke="none" paint-order="stroke" d="M 131.16452026367188 77.81818389892578 L 131.18624626286328 77.81818389892578 L 131.18624626286328 130.45454788208008 L 131.16452026367188 130.45454788208008 L 131.16452026367188 77.81818389892578" fill-opacity="1" clip-path="url(#JlkDhdRsDDAg)"/><path fill="rgb(182,0,0)" stroke="none" paint-order="stroke" d="M 131.18624877929688 77.81818389892578 L 131.20669677853584 77.81818389892578 L 131.20669677853584 130.45454788208008 L 131.18624877929688 130.45454788208008 L 131.18624877929688 77.81818389892578" fill-opacity="1" clip-path="url(#JlkDhdRsDDAg)"/><path fill="rgb(188,0,0)" stroke="none" paint-order="stroke" d="M 131.20669555664062 77.81818389892578 L 131.25014755502343 77.81818389892578 L 131.25014755502343 130.45454788208008 L 131.20669555664062 130.45454788208008 L 131.20669555664062 77.81818389892578" fill-opacity="1" clip-path="url(#JlkDhdRsDDAg)"/><path fill="rgb(198,0,0)" stroke="none" paint-order="stroke" d="M 131.25015258789062 77.81818389892578 L 131.27187858708203 77.81818389892578 L 131.27187858708203 130.45454788208008 L 131.25015258789062 130.45454788208008 L 131.25015258789062 77.81818389892578" fill-opacity="1" clip-path="url(#JlkDhdRsDDAg)"/><path fill="rgb(209,0,0)" stroke="none" paint-order="stroke" d="M 131.27188110351562 77.81818389892578 L 131.2923291027546 77.81818389892578 L 131.2923291027546 130.45454788208008 L 131.27188110351562 130.45454788208008 L 131.27188110351562 77.81818389892578" fill-opacity="1" clip-path="url(#JlkDhdRsDDAg)"/><path fill="rgb(214,0,0)" stroke="none" paint-order="stroke" d="M 131.29232788085938 77.81818389892578 L 131.33577987924218 77.81818389892578 L 131.33577987924218 130.45454788208008 L 131.29232788085938 130.45454788208008 L 131.29232788085938 77.81818389892578" fill-opacity="1" clip-path="url(#JlkDhdRsDDAg)"/><path fill="rgb(230,0,0)" stroke="none" paint-order="stroke" d="M 131.3357696533203 77.81818389892578 L 131.35621765255928 77.81818389892578 L 131.35621765255928 130.45454788208008 L 131.3357696533203 130.45454788208008 L 131.3357696533203 77.81818389892578" fill-opacity="1" clip-path="url(#JlkDhdRsDDAg)"/><path fill="rgb(245,0,0)" stroke="none" paint-order="stroke" d="M 131.35621643066406 77.81818389892578 L 131.37794242985547 77.81818389892578 L 131.37794242985547 130.45454788208008 L 131.35621643066406 130.45454788208008 L 131.35621643066406 77.81818389892578" fill-opacity="1" clip-path="url(#JlkDhdRsDDAg)"/><path fill="rgb(255,27,0)" stroke="none" paint-order="stroke" d="M 131.37794494628906 77.81818389892578 L 131.39839294552803 77.81818389892578 L 131.39839294552803 130.45454788208008 L 131.37794494628906 130.45454788208008 L 131.37794494628906 77.81818389892578" fill-opacity="1" clip-path="url(#JlkDhdRsDDAg)"/><path fill="rgb(255,66,0)" stroke="none" paint-order="stroke" d="M 131.3983917236328 77.81818389892578 L 131.42011772282422 77.81818389892578 L 131.42011772282422 130.45454788208008 L 131.3983917236328 130.45454788208008 L 131.3983917236328 77.81818389892578" fill-opacity="1" clip-path="url(#JlkDhdRsDDAg)"/><path fill="rgb(255,95,0)" stroke="none" paint-order="stroke" d="M 131.4201202392578 77.81818389892578 L 131.46357223764062 77.81818389892578 L 131.46357223764062 130.45454788208008 L 131.4201202392578 130.45454788208008 L 131.4201202392578 77.81818389892578" fill-opacity="1" clip-path="url(#JlkDhdRsDDAg)"/><path fill="rgb(255,126,0)" stroke="none" paint-order="stroke" d="M 131.4635772705078 77.81818389892578 L 131.48402526974678 77.81818389892578 L 131.48402526974678 130.45454788208008 L 131.4635772705078 130.45454788208008 L 131.4635772705078 77.81818389892578" fill-opacity="1" clip-path="url(#JlkDhdRsDDAg)"/><path fill="rgb(255,151,0)" stroke="none" paint-order="stroke" d="M 131.48402404785156 77.81818389892578 L 131.50575004704297 77.81818389892578 L 131.50575004704297 130.45454788208008 L 131.48402404785156 130.45454788208008 L 131.48402404785156 77.81818389892578" fill-opacity="1" clip-path="url(#JlkDhdRsDDAg)"/><path fill="rgb(255,165,0)" stroke="none" paint-order="stroke" d="M 131.50575256347656 77.81818389892578 L 131.52747856266797 77.81818389892578 L 131.52747856266797 130.45454788208008 L 131.50575256347656 130.45454788208008 L 131.50575256347656 77.81818389892578" fill-opacity="1" clip-path="url(#JlkDhdRsDDAg)"/><path fill="rgb(255,190,0)" stroke="none" paint-order="stroke" d="M 131.52748107910156 77.81818389892578 L 131.54792907834053 77.81818389892578 L 131.54792907834053 130.45454788208008 L 131.52748107910156 130.45454788208008 L 131.52748107910156 77.81818389892578" fill-opacity="1" clip-path="url(#JlkDhdRsDDAg)"/><path fill="rgb(255,203,0)" stroke="none" paint-order="stroke" d="M 131.5479278564453 77.81818389892578 L 131.56965385563672 77.81818389892578 L 131.56965385563672 130.45454788208008 L 131.5479278564453 130.45454788208008 L 131.5479278564453 77.81818389892578" fill-opacity="1" clip-path="url(#JlkDhdRsDDAg)"/><path fill="rgb(255,226,0)" stroke="none" paint-order="stroke" d="M 131.5696563720703 77.81818389892578 L 131.59010437130928 77.81818389892578 L 131.59010437130928 130.45454788208008 L 131.5696563720703 130.45454788208008 L 131.5696563720703 77.81818389892578" fill-opacity="1" clip-path="url(#JlkDhdRsDDAg)"/><path fill="rgb(255,251,0)" stroke="none" paint-order="stroke" d="M 131.59010314941406 77.81818389892578 L 131.61182914860547 77.81818389892578 L 131.61182914860547 130.45454788208008 L 131.59010314941406 130.45454788208008 L 131.59010314941406 77.81818389892578" fill-opacity="1" clip-path="url(#JlkDhdRsDDAg)"/><path fill="rgb(237,255,0)" stroke="none" paint-order="stroke" d="M 131.61181640625 77.81818389892578 L 131.6335424054414 77.81818389892578 L 131.6335424054414 130.45454788208008 L 131.61181640625 130.45454788208008 L 131.61181640625 77.81818389892578" fill-opacity="1" clip-path="url(#JlkDhdRsDDAg)"/><path fill="rgb(216,255,0)" stroke="none" paint-order="stroke" d="M 131.633544921875 77.81818389892578 L 131.65399292111397 77.81818389892578 L 131.65399292111397 130.45454788208008 L 131.633544921875 130.45454788208008 L 131.633544921875 77.81818389892578" fill-opacity="1" clip-path="url(#JlkDhdRsDDAg)"/><path fill="rgb(182,255,0)" stroke="none" paint-order="stroke" d="M 131.65399169921875 77.81818389892578 L 131.67571769841015 77.81818389892578 L 131.67571769841015 130.45454788208008 L 131.65399169921875 130.45454788208008 L 131.65399169921875 77.81818389892578" fill-opacity="1" clip-path="url(#JlkDhdRsDDAg)"/><path fill="rgb(119,255,0)" stroke="none" paint-order="stroke" d="M 131.67572021484375 77.81818389892578 L 131.69744621403515 77.81818389892578 L 131.69744621403515 130.45454788208008 L 131.67572021484375 130.45454788208008 L 131.67572021484375 77.81818389892578" fill-opacity="1" clip-path="url(#JlkDhdRsDDAg)"/><path fill="rgb(93,255,0)" stroke="none" paint-order="stroke" d="M 131.69744873046875 77.81818389892578 L 131.71917472966015 77.81818389892578 L 131.71917472966015 130.45454788208008 L 131.69744873046875 130.45454788208008 L 131.69744873046875 77.81818389892578" fill-opacity="1" clip-path="url(#JlkDhdRsDDAg)"/><path fill="rgb(62,255,0)" stroke="none" paint-order="stroke" d="M 131.71917724609375 77.81818389892578 L 131.73962524533272 77.81818389892578 L 131.73962524533272 130.45454788208008 L 131.71917724609375 130.45454788208008 L 131.71917724609375 77.81818389892578" fill-opacity="1" clip-path="url(#JlkDhdRsDDAg)"/><path fill="rgb(8,255,0)" stroke="none" paint-order="stroke" d="M 131.7396240234375 77.81818389892578 L 131.7613500226289 77.81818389892578 L 131.7613500226289 130.45454788208008 L 131.7396240234375 130.45454788208008 L 131.7396240234375 77.81818389892578" fill-opacity="1" clip-path="url(#JlkDhdRsDDAg)"/><path fill="rgb(0,255,40)" stroke="none" paint-order="stroke" d="M 131.7613525390625 77.81818389892578 L 131.78180053830147 77.81818389892578 L 131.78180053830147 130.45454788208008 L 131.7613525390625 130.45454788208008 L 131.7613525390625 77.81818389892578" fill-opacity="1" clip-path="url(#JlkDhdRsDDAg)"/><path fill="rgb(0,255,97)" stroke="none" paint-order="stroke" d="M 131.78179931640625 77.81818389892578 L 131.80352531559765 77.81818389892578 L 131.80352531559765 130.45454788208008 L 131.78179931640625 130.45454788208008 L 131.78179931640625 77.81818389892578" fill-opacity="1" clip-path="url(#JlkDhdRsDDAg)"/><path fill="rgb(0,255,191)" stroke="none" paint-order="stroke" d="M 131.80352783203125 77.81818389892578 L 131.82525383122265 77.81818389892578 L 131.82525383122265 130.45454788208008 L 131.80352783203125 130.45454788208008 L 131.80352783203125 77.81818389892578" fill-opacity="1" clip-path="url(#JlkDhdRsDDAg)"/><path fill="rgb(0,255,223)" stroke="none" paint-order="stroke" d="M 131.82525634765625 77.81818389892578 L 131.84570434689522 77.81818389892578 L 131.84570434689522 130.45454788208008 L 131.82525634765625 130.45454788208008 L 131.82525634765625 77.81818389892578" fill-opacity="1" clip-path="url(#JlkDhdRsDDAg)"/><path fill="rgb(0,250,255)" stroke="none" paint-order="stroke" d="M 131.845703125 77.81818389892578 L 131.8674291241914 77.81818389892578 L 131.8674291241914 130.45454788208008 L 131.845703125 130.45454788208008 L 131.845703125 77.81818389892578" fill-opacity="1" clip-path="url(#JlkDhdRsDDAg)"/><path fill="rgb(0,221,255)" stroke="none" paint-order="stroke" d="M 131.86741638183594 77.81818389892578 L 132.29426836967468 77.81818389892578 L 132.29426836967468 130.45454788208008 L 131.86741638183594 130.45454788208008 L 131.86741638183594 77.81818389892578" fill-opacity="1" clip-path="url(#JlkDhdRsDDAg)"/><path fill="rgb(0,204,255)" stroke="none" paint-order="stroke" d="M 132.29428100585938 77.81818389892578 L 132.7415809929371 77.81818389892578 L 132.7415809929371 130.45454788208008 L 132.29428100585938 130.45454788208008 L 132.29428100585938 77.81818389892578" fill-opacity="1" clip-path="url(#JlkDhdRsDDAg)"/><path fill="rgb(0,187,255)" stroke="none" paint-order="stroke" d="M 132.7415771484375 77.81818389892578 L 132.78375114873052 77.81818389892578 L 132.78375114873052 130.45454788208008 L 132.7415771484375 130.45454788208008 L 132.7415771484375 77.81818389892578" fill-opacity="1" clip-path="url(#JlkDhdRsDDAg)"/><path fill="rgb(0,173,255)" stroke="none" paint-order="stroke" d="M 132.78375244140625 77.81818389892578 L 132.80420044064522 77.81818389892578 L 132.80420044064522 130.45454788208008 L 132.78375244140625 130.45454788208008 L 132.78375244140625 77.81818389892578" fill-opacity="1" clip-path="url(#JlkDhdRsDDAg)"/><path fill="rgb(0,137,255)" stroke="none" paint-order="stroke" d="M 132.80419921875 77.81818389892578 L 132.91155122220516 77.81818389892578 L 132.91155122220516 130.45454788208008 L 132.80419921875 130.45454788208008 L 132.80419921875 77.81818389892578" fill-opacity="1" clip-path="url(#JlkDhdRsDDAg)"/><path fill="rgb(0,102,255)" stroke="none" paint-order="stroke" d="M 132.9115447998047 77.81818389892578 L 132.97672279924154 77.81818389892578 L 132.97672279924154 130.45454788208008 L 132.9115447998047 130.45454788208008 L 132.9115447998047 77.81818389892578" fill-opacity="1" clip-path="url(#JlkDhdRsDDAg)"/><path fill="rgb(0,81,255)" stroke="none" paint-order="stroke" d="M 132.9767303466797 77.81818389892578 L 154.3385009765625 77.81818389892578 L 154.3385009765625 130.45454788208008 L 132.9767303466797 130.45454788208008 L 132.9767303466797 77.81818389892578" fill-opacity="1" clip-path="url(#JlkDhdRsDDAg)"/><path fill="rgb(0,0,0)" stroke="none" paint-order="stroke" d="M 154.3385009765625 77.81818389892578 L 157.22294688224792 77.81818389892578 L 157.22294688224792 130.45454788208008 L 154.3385009765625 130.45454788208008 L 154.3385009765625 77.81818389892578" fill-opacity="1" clip-path="url(#JlkDhdRsDDAg)"/><path fill="rgb(0,0,0)" stroke="none" paint-order="stroke" d="M 157.2229461669922 77.81818389892578 L 157.24339416623116 77.81818389892578 L 157.24339416623116 130.45454788208008 L 157.2229461669922 130.45454788208008 L 157.2229461669922 77.81818389892578" fill-opacity="1" clip-path="url(#JlkDhdRsDDAg)"/><path fill="rgb(0,0,0)" stroke="none" paint-order="stroke" d="M 157.24339294433594 77.81818389892578 L 157.26511894352734 77.81818389892578 L 157.26511894352734 130.45454788208008 L 157.24339294433594 130.45454788208008 L 157.24339294433594 77.81818389892578" fill-opacity="1" clip-path="url(#JlkDhdRsDDAg)"/><path fill="rgb(97,0,0)" stroke="none" paint-order="stroke" d="M 157.26512145996094 77.81818389892578 L 157.28684745915234 77.81818389892578 L 157.28684745915234 130.45454788208008 L 157.26512145996094 130.45454788208008 L 157.26512145996094 77.81818389892578" fill-opacity="1" clip-path="url(#JlkDhdRsDDAg)"/><path fill="rgb(122,0,0)" stroke="none" paint-order="stroke" d="M 157.28684997558594 77.81818389892578 L 157.3072979748249 77.81818389892578 L 157.3072979748249 130.45454788208008 L 157.28684997558594 130.45454788208008 L 157.28684997558594 77.81818389892578" fill-opacity="1" clip-path="url(#JlkDhdRsDDAg)"/><path fill="rgb(140,0,0)" stroke="none" paint-order="stroke" d="M 157.3072967529297 77.81818389892578 L 157.3290227521211 77.81818389892578 L 157.3290227521211 130.45454788208008 L 157.3072967529297 130.45454788208008 L 157.3072967529297 77.81818389892578" fill-opacity="1" clip-path="url(#JlkDhdRsDDAg)"/><path fill="rgb(163,0,0)" stroke="none" paint-order="stroke" d="M 157.3290252685547 77.81818389892578 L 157.3507512677461 77.81818389892578 L 157.3507512677461 130.45454788208008 L 157.3290252685547 130.45454788208008 L 157.3290252685547 77.81818389892578" fill-opacity="1" clip-path="url(#JlkDhdRsDDAg)"/><path fill="rgb(179,0,0)" stroke="none" paint-order="stroke" d="M 157.35073852539062 77.81818389892578 L 157.3711865246296 77.81818389892578 L 157.3711865246296 130.45454788208008 L 157.35073852539062 130.45454788208008 L 157.35073852539062 77.81818389892578" fill-opacity="1" clip-path="url(#JlkDhdRsDDAg)"/><path fill="rgb(232,0,0)" stroke="none" paint-order="stroke" d="M 157.37118530273438 77.81818389892578 L 157.39291130192578 77.81818389892578 L 157.39291130192578 130.45454788208008 L 157.37118530273438 130.45454788208008 L 157.37118530273438 77.81818389892578" fill-opacity="1" clip-path="url(#JlkDhdRsDDAg)"/><path fill="rgb(255,15,0)" stroke="none" paint-order="stroke" d="M 157.39291381835938 77.81818389892578 L 157.41463981755078 77.81818389892578 L 157.41463981755078 130.45454788208008 L 157.39291381835938 130.45454788208008 L 157.39291381835938 77.81818389892578" fill-opacity="1" clip-path="url(#JlkDhdRsDDAg)"/><path fill="rgb(255,70,0)" stroke="none" paint-order="stroke" d="M 157.41464233398438 77.81818389892578 L 157.43509033322334 77.81818389892578 L 157.43509033322334 130.45454788208008 L 157.41464233398438 130.45454788208008 L 157.41464233398438 77.81818389892578" fill-opacity="1" clip-path="url(#JlkDhdRsDDAg)"/><path fill="rgb(255,87,0)" stroke="none" paint-order="stroke" d="M 157.43508911132812 77.81818389892578 L 157.45681511051953 77.81818389892578 L 157.45681511051953 130.45454788208008 L 157.43508911132812 130.45454788208008 L 157.43508911132812 77.81818389892578" fill-opacity="1" clip-path="url(#JlkDhdRsDDAg)"/><path fill="rgb(255,118,0)" stroke="none" paint-order="stroke" d="M 157.45681762695312 77.81818389892578 L 157.47854362614453 77.81818389892578 L 157.47854362614453 130.45454788208008 L 157.45681762695312 130.45454788208008 L 157.45681762695312 77.81818389892578" fill-opacity="1" clip-path="url(#JlkDhdRsDDAg)"/><path fill="rgb(255,129,0)" stroke="none" paint-order="stroke" d="M 157.47854614257812 77.81818389892578 L 157.4989941418171 77.81818389892578 L 157.4989941418171 130.45454788208008 L 157.47854614257812 130.45454788208008 L 157.47854614257812 77.81818389892578" fill-opacity="1" clip-path="url(#JlkDhdRsDDAg)"/><path fill="rgb(255,144,0)" stroke="none" paint-order="stroke" d="M 157.49899291992188 77.81818389892578 L 157.52071891911328 77.81818389892578 L 157.52071891911328 130.45454788208008 L 157.49899291992188 130.45454788208008 L 157.49899291992188 77.81818389892578" fill-opacity="1" clip-path="url(#JlkDhdRsDDAg)"/><path fill="rgb(255,169,0)" stroke="none" paint-order="stroke" d="M 157.52072143554688 77.81818389892578 L 157.58462143689394 77.81818389892578 L 157.58462143689394 130.45454788208008 L 157.52072143554688 130.45454788208008 L 157.52072143554688 77.81818389892578" fill-opacity="1" clip-path="url(#JlkDhdRsDDAg)"/><path fill="rgb(255,183,0)" stroke="none" paint-order="stroke" d="M 157.58462524414062 77.81818389892578 L 163.23721933364868 77.81818389892578 L 163.23721933364868 130.45454788208008 L 157.58462524414062 130.45454788208008 L 157.58462524414062 77.81818389892578" fill-opacity="1" clip-path="url(#JlkDhdRsDDAg)"/><path fill="rgb(175,0,0)" stroke="none" paint-order="stroke" d="M 163.23721313476562 77.81818389892578 L 236.58546447753906 77.81818389892578 L 236.58546447753906 130.45454788208008 L 163.23721313476562 130.45454788208008 L 163.23721313476562 77.81818389892578" fill-opacity="1" clip-path="url(#JlkDhdRsDDAg)"/><path fill="rgb(102,0,183)" stroke="none" paint-order="stroke" d="M 236.58546447753906 77.81818389892578 L 241.82909870147705 77.81818389892578 L 241.82909870147705 130.45454788208008 L 236.58546447753906 130.45454788208008 L 236.58546447753906 77.81818389892578" fill-opacity="1" clip-path="url(#JlkDhdRsDDAg)"/><path fill="rgb(143,255,0)" stroke="none" paint-order="stroke" d="M 241.8291015625 77.81818389892578 L 277.6067123413086 77.81818389892578 L 277.6067123413086 130.45454788208008 L 241.8291015625 130.45454788208008 L 241.8291015625 77.81818389892578" fill-opacity="1" clip-path="url(#JlkDhdRsDDAg)"/><path fill="rgb(207,0,0)" stroke="none" paint-order="stroke" d="M 277.6067199707031 77.81818389892578 L 279.1722699403763 77.81818389892578 L 279.1722699403763 130.45454788208008 L 277.6067199707031 130.45454788208008 L 277.6067199707031 77.81818389892578" fill-opacity="1" clip-path="url(#JlkDhdRsDDAg)"/><path fill="rgb(53,255,0)" stroke="none" paint-order="stroke" d="M 279.1722717285156 77.81818389892578 L 280.6061877012253 77.81818389892578 L 280.6061877012253 130.45454788208008 L 279.1722717285156 130.45454788208008 L 279.1722717285156 77.81818389892578" fill-opacity="1" clip-path="url(#JlkDhdRsDDAg)"/><path fill="rgb(0,141,255)" stroke="none" paint-order="stroke" d="M 280.6061706542969 77.81818389892578 L 281.79343271255493 77.81818389892578 L 281.79343271255493 130.45454788208008 L 280.6061706542969 130.45454788208008 L 280.6061706542969 77.81818389892578" fill-opacity="1" clip-path="url(#JlkDhdRsDDAg)"/><path fill="rgb(255,186,0)" stroke="none" paint-order="stroke" d="M 281.7934265136719 77.81818389892578 L 282.93979251384735 77.81818389892578 L 282.93979251384735 130.45454788208008 L 281.7934265136719 130.45454788208008 L 281.7934265136719 77.81818389892578" fill-opacity="1" clip-path="url(#JlkDhdRsDDAg)"/><path fill="rgb(213,0,0)" stroke="none" paint-order="stroke" d="M 282.9397888183594 77.81818389892578 L 284.0094748735428 77.81818389892578 L 284.0094748735428 130.45454788208008 L 282.9397888183594 130.45454788208008 L 282.9397888183594 77.81818389892578" fill-opacity="1" clip-path="url(#JlkDhdRsDDAg)"/><path fill="rgb(104,0,0)" stroke="none" paint-order="stroke" d="M 284.0094909667969 77.81818389892578 L 296.7319812774658 77.81818389892578 L 296.7319812774658 130.45454788208008 L 284.0094909667969 130.45454788208008 L 284.0094909667969 77.81818389892578" fill-opacity="1" clip-path="url(#JlkDhdRsDDAg)"/><path fill="rgb(159,255,0)" stroke="none" paint-order="stroke" d="M 296.73199462890625 77.81818389892578 L 319.8395118713379 77.81818389892578 L 319.8395118713379 130.45454788208008 L 296.73199462890625 130.45454788208008 L 296.73199462890625 77.81818389892578" fill-opacity="1" clip-path="url(#JlkDhdRsDDAg)"/><path fill="rgb(251,0,7)" stroke="none" paint-order="stroke" d="M 58.5 130.4545440673828 L 154.3385009765625 130.4545440673828 L 154.3385009765625 183.0909080505371 L 58.5 183.0909080505371 L 58.5 130.4545440673828" fill-opacity="1" clip-path="url(#oztwKrZspdcW)"/><path fill="rgb(27,121,255)" stroke="none" paint-order="stroke" d="M 154.3385009765625 130.4545440673828 L 236.5854721069336 130.4545440673828 L 236.5854721069336 183.0909080505371 L 154.3385009765625 183.0909080505371 L 154.3385009765625 130.4545440673828" fill-opacity="1" clip-path="url(#oztwKrZspdcW)"/><path fill="rgb(255,255,10)" stroke="none" paint-order="stroke" d="M 236.58546447753906 130.4545440673828 L 241.82909870147705 130.4545440673828 L 241.82909870147705 183.0909080505371 L 236.58546447753906 183.0909080505371 L 236.58546447753906 130.4545440673828" fill-opacity="1" clip-path="url(#oztwKrZspdcW)"/><path fill="rgb(62,0,101)" stroke="none" paint-order="stroke" d="M 241.8291015625 130.4545440673828 L 296.73198318481445 130.4545440673828 L 296.73198318481445 183.0909080505371 L 241.8291015625 183.0909080505371 L 241.8291015625 130.4545440673828" fill-opacity="1" clip-path="url(#oztwKrZspdcW)"/><path fill="rgb(237,115,111)" stroke="none" paint-order="stroke" d="M 296.73199462890625 130.4545440673828 L 319.8395118713379 130.4545440673828 L 319.8395118713379 183.0909080505371 L 296.73199462890625 183.0909080505371 L 296.73199462890625 130.4545440673828" fill-opacity="1" clip-path="url(#oztwKrZspdcW)"/><path fill="rgb(105,29,48)" stroke="none" paint-order="stroke" d="M 159.1706085205078 183.09091186523438 L 159.23450852185488 183.09091186523438 L 159.23450852185488 498.9090881347656 L 159.1706085205078 498.9090881347656 L 159.1706085205078 183.09091186523438" fill-opacity="1" clip-path="url(#tUEZoXvQfoOO)"/><path fill="rgb(255,188,66)" stroke="none" paint-order="stroke" d="M 249.3539581298828 183.09091186523438 L 258.3421325683594 183.09091186523438 L 258.3421325683594 498.9090881347656 L 249.3539581298828 498.9090881347656 L 249.3539581298828 183.09091186523438" fill-opacity="1" clip-path="url(#JFJLGrkZURGa)"/><path fill="rgb(255,188,66)" stroke="none" paint-order="stroke" d="M 260.4393310546875 183.09091186523438 L 261.5205190181732 183.09091186523438 L 261.5205190181732 498.9090881347656 L 260.4393310546875 498.9090881347656 L 260.4393310546875 183.09091186523438" fill-opacity="1" clip-path="url(#JFJLGrkZURGa)"/><path fill="rgb(162,174,187)" stroke="none" paint-order="stroke" d="M 179.92662048339844 183.09091186523438 L 179.9905204847455 183.09091186523438 L 179.9905204847455 498.9090881347656 L 179.92662048339844 498.9090881347656 L 179.92662048339844 183.09091186523438" fill-opacity="1" clip-path="url(#LPCdEiWDvotw)"/><path fill="rgb(255,188,66)" stroke="none" paint-order="stroke" d="M 145.87557983398438 183.09091186523438 L 146.8008518218994 183.09091186523438 L 146.8008518218994 498.9090881347656 L 145.87557983398438 498.9090881347656 L 145.87557983398438 183.09091186523438" fill-opacity="1" clip-path="url(#lNQscrtPtPHW)"/><path fill="rgb(255,188,66)" stroke="none" paint-order="stroke" d="M 147.6162109375 183.09091186523438 L 148.71784698963165 183.09091186523438 L 148.71784698963165 498.9090881347656 L 147.6162109375 498.9090881347656 L 147.6162109375 183.09091186523438" fill-opacity="1" clip-path="url(#lNQscrtPtPHW)"/><path fill="rgb(255,188,66)" stroke="none" paint-order="stroke" d="M 175.75393676757812 183.09091186523438 L 176.4683387875557 183.09091186523438 L 176.4683387875557 498.9090881347656 L 175.75393676757812 498.9090881347656 L 175.75393676757812 183.09091186523438" fill-opacity="1" clip-path="url(#lNQscrtPtPHW)"/><path fill="rgb(255,188,66)" stroke="none" paint-order="stroke" d="M 177.35400390625 183.09091186523438 L 178.75213587284088 183.09091186523438 L 178.75213587284088 498.9090881347656 L 177.35400390625 498.9090881347656 L 177.35400390625 183.09091186523438" fill-opacity="1" clip-path="url(#lNQscrtPtPHW)"/><path fill="rgb(255,188,66)" stroke="none" paint-order="stroke" d="M 181.44488525390625 183.09091186523438 L 182.1068892478943 183.09091186523438 L 182.1068892478943 498.9090881347656 L 181.44488525390625 498.9090881347656 L 181.44488525390625 183.09091186523438" fill-opacity="1" clip-path="url(#lNQscrtPtPHW)"/><path fill="rgb(255,188,66)" stroke="none" paint-order="stroke" d="M 183.10499572753906 183.09091186523438 L 185.30315566062927 183.09091186523438 L 185.30315566062927 498.9090881347656 L 183.10499572753906 498.9090881347656 L 183.10499572753906 183.09091186523438" fill-opacity="1" clip-path="url(#lNQscrtPtPHW)"/><path fill="rgb(255,188,66)" stroke="none" paint-order="stroke" d="M 186.89427185058594 183.09091186523438 L 197.8543996810913 183.09091186523438 L 197.8543996810913 498.9090881347656 L 186.89427185058594 498.9090881347656 L 186.89427185058594 183.09091186523438" fill-opacity="1" clip-path="url(#lNQscrtPtPHW)"/><path fill="rgb(255,188,66)" stroke="none" paint-order="stroke" d="M 203.63095092773438 183.09091186523438 L 204.93195497989655 183.09091186523438 L 204.93195497989655 498.9090881347656 L 203.63095092773438 498.9090881347656 L 203.63095092773438 183.09091186523438" fill-opacity="1" clip-path="url(#lNQscrtPtPHW)"/><path fill="rgb(255,188,66)" stroke="none" paint-order="stroke" d="M 213.03192138671875 183.09091186523438 L 215.8345754146576 183.09091186523438 L 215.8345754146576 498.9090881347656 L 213.03192138671875 498.9090881347656 L 213.03192138671875 183.09091186523438" fill-opacity="1" clip-path="url(#lNQscrtPtPHW)"/><path fill="rgb(255,188,66)" stroke="none" paint-order="stroke" d="M 309.4289245605469 183.09091186523438 L 311.9938704967499 183.09091186523438 L 311.9938704967499 498.9090881347656 L 309.4289245605469 498.9090881347656 L 309.4289245605469 183.09091186523438" fill-opacity="1" clip-path="url(#lNQscrtPtPHW)"/><path fill="rgb(255,188,66)" stroke="none" paint-order="stroke" d="M 312.8833312988281 183.09091186523438 L 314.7632693052292 183.09091186523438 L 314.7632693052292 498.9090881347656 L 312.8833312988281 498.9090881347656 L 312.8833312988281 183.09091186523438" fill-opacity="1" clip-path="url(#lNQscrtPtPHW)"/><path fill="rgb(216,17,89)" stroke="none" paint-order="stroke" d="M 127.96185302734375 183.09091186523438 L 128.02575302869081 183.09091186523438 L 128.02575302869081 498.9090881347656 L 127.96185302734375 498.9090881347656 L 127.96185302734375 183.09091186523438" fill-opacity="1" clip-path="url(#tlsBXfIbWhDM)"/><path fill="rgb(216,17,89)" stroke="none" paint-order="stroke" d="M 127.96185302734375 183.09091186523438 L 128.02575302869081 183.09091186523438 L 128.02575302869081 498.9090881347656 L 127.96185302734375 498.9090881347656 L 127.96185302734375 183.09091186523438" fill-opacity="1" clip-path="url(#tlsBXfIbWhDM)"/><path fill="rgb(216,17,89)" stroke="none" paint-order="stroke" d="M 273.582275390625 183.09091186523438 L 273.64617539197206 183.09091186523438 L 273.64617539197206 498.9090881347656 L 273.582275390625 498.9090881347656 L 273.582275390625 183.09091186523438" fill-opacity="1" clip-path="url(#tlsBXfIbWhDM)"/><path fill="rgb(216,17,89)" stroke="none" paint-order="stroke" d="M 273.582275390625 183.09091186523438 L 273.64617539197206 183.09091186523438 L 273.64617539197206 498.9090881347656 L 273.582275390625 498.9090881347656 L 273.582275390625 183.09091186523438" fill-opacity="1" clip-path="url(#tlsBXfIbWhDM)"/><path fill="rgb(216,17,89)" stroke="none" paint-order="stroke" d="M 275.15423583984375 183.09091186523438 L 275.2181358411908 183.09091186523438 L 275.2181358411908 498.9090881347656 L 275.15423583984375 498.9090881347656 L 275.15423583984375 183.09091186523438" fill-opacity="1" clip-path="url(#tlsBXfIbWhDM)"/><path fill="rgb(216,17,89)" stroke="none" paint-order="stroke" d="M 275.15423583984375 183.09091186523438 L 275.2181358411908 183.09091186523438 L 275.2181358411908 498.9090881347656 L 275.15423583984375 498.9090881347656 L 275.15423583984375 183.09091186523438" fill-opacity="1" clip-path="url(#tlsBXfIbWhDM)"/><path fill="rgb(33,131,128)" stroke="none" paint-order="stroke" d="M 151.45021057128906 183.09091186523438 L 154.33849048614502 183.09091186523438 L 154.33849048614502 498.9090881347656 L 151.45021057128906 498.9090881347656 L 151.45021057128906 183.09091186523438" fill-opacity="1" clip-path="url(#waiSTQKXyDRG)"/><path fill="rgb(33,131,128)" stroke="none" paint-order="stroke" d="M 231.3507843017578 183.09091186523438 L 232.90738832950592 183.09091186523438 L 232.90738832950592 498.9090881347656 L 231.3507843017578 498.9090881347656 L 231.3507843017578 183.09091186523438" fill-opacity="1" clip-path="url(#waiSTQKXyDRG)"/><path fill="rgb(33,131,128)" stroke="none" paint-order="stroke" d="M 234.9905242919922 183.09091186523438 L 236.58546829223633 183.09091186523438 L 236.58546829223633 498.9090881347656 L 234.9905242919922 498.9090881347656 L 234.9905242919922 183.09091186523438" fill-opacity="1" clip-path="url(#waiSTQKXyDRG)"/><path fill="rgb(33,131,128)" stroke="none" paint-order="stroke" d="M 238.9420928955078 183.09091186523438 L 241.82909488677979 183.09091186523438 L 241.82909488677979 498.9090881347656 L 238.9420928955078 498.9090881347656 L 238.9420928955078 183.09091186523438" fill-opacity="1" clip-path="url(#waiSTQKXyDRG)"/><path fill="rgb(33,131,128)" stroke="none" paint-order="stroke" d="M 293.39129638671875 183.09091186523438 L 296.7319884300232 183.09091186523438 L 296.7319884300232 498.9090881347656 L 293.39129638671875 498.9090881347656 L 293.39129638671875 183.09091186523438" fill-opacity="1" clip-path="url(#waiSTQKXyDRG)"/><path fill="rgb(115,210,222)" stroke="none" paint-order="stroke" d="M 167.77667236328125 183.09091186523438 L 173.41393041610718 183.09091186523438 L 173.41393041610718 498.9090881347656 L 167.77667236328125 498.9090881347656 L 167.77667236328125 183.09091186523438" fill-opacity="1" clip-path="url(#IWGmlCJOfwze)"/><path fill="rgb(115,210,222)" stroke="none" paint-order="stroke" d="M 263.7097473144531 183.09091186523438 L 264.47782534360886 183.09091186523438 L 264.47782534360886 498.9090881347656 L 263.7097473144531 498.9090881347656 L 263.7097473144531 183.09091186523438" fill-opacity="1" clip-path="url(#IWGmlCJOfwze)"/><path fill="rgb(115,210,222)" stroke="none" paint-order="stroke" d="M 288.4530944824219 183.09091186523438 L 291.9151964187622 183.09091186523438 L 291.9151964187622 498.9090881347656 L 288.4530944824219 498.9090881347656 L 288.4530944824219 183.09091186523438" fill-opacity="1" clip-path="url(#IWGmlCJOfwze)"/><path fill="rgb(115,210,222)" stroke="none" paint-order="stroke" d="M 300.14422607421875 183.09091186523438 L 301.50018405914307 183.09091186523438 L 301.50018405914307 498.9090881347656 L 300.14422607421875 498.9090881347656 L 300.14422607421875 183.09091186523438" fill-opacity="1" clip-path="url(#IWGmlCJOfwze)"/><path fill="rgb(115,210,222)" stroke="none" paint-order="stroke" d="M 319.7078552246094 183.09091186523438 L 319.8394892215729 183.09091186523438 L 319.8394892215729 498.9090881347656 L 319.7078552246094 498.9090881347656 L 319.7078552246094 183.09091186523438" fill-opacity="1" clip-path="url(#IWGmlCJOfwze)"/><path fill="rgb(28,49,68)" stroke="none" paint-order="stroke" d="M 120.2708511352539 183.09091186523438 L 121.6677051782608 183.09091186523438 L 121.6677051782608 498.9090881347656 L 120.2708511352539 498.9090881347656 L 120.2708511352539 183.09091186523438" fill-opacity="1" clip-path="url(#MNZKsSTWsQEc)"/><path fill="rgb(239,185,203)" stroke="none" paint-order="stroke" d="M 83.20885467529297 183.09091186523438 L 117.11674880981445 183.09091186523438 L 117.11674880981445 498.9090881347656 L 83.20885467529297 498.9090881347656 L 83.20885467529297 183.09091186523438" fill-opacity="1" clip-path="url(#nNOTfOkfTQqQ)"/><path fill="rgb(239,185,203)" stroke="none" paint-order="stroke" d="M 205.9185791015625 183.09091186523438 L 209.53787517547607 183.09091186523438 L 209.53787517547607 498.9090881347656 L 205.9185791015625 498.9090881347656 L 205.9185791015625 183.09091186523438" fill-opacity="1" clip-path="url(#nNOTfOkfTQqQ)"/><path fill="rgb(105,29,48)" stroke="none" paint-order="stroke" d="M 129.8545684814453 183.09091186523438 L 133.09046459197998 183.09091186523438 L 133.09046459197998 498.9090881347656 L 129.8545684814453 498.9090881347656 L 129.8545684814453 183.09091186523438" fill-opacity="1" clip-path="url(#DxcKdMGFcvKJ)"/><path fill="rgb(105,29,48)" stroke="none" paint-order="stroke" d="M 156.85104370117188 183.09091186523438 L 157.60889768600464 183.09091186523438 L 157.60889768600464 498.9090881347656 L 156.85104370117188 498.9090881347656 L 156.85104370117188 183.09091186523438" fill-opacity="1" clip-path="url(#DxcKdMGFcvKJ)"/><path fill="rgb(105,29,48)" stroke="none" paint-order="stroke" d="M 163.23721313476562 183.09091186523438 L 163.3956851363182 183.09091186523438 L 163.3956851363182 498.9090881347656 L 163.23721313476562 498.9090881347656 L 163.23721313476562 183.09091186523438" fill-opacity="1" clip-path="url(#DxcKdMGFcvKJ)"/><path fill="rgb(105,29,48)" stroke="none" paint-order="stroke" d="M 277.6067199707031 183.09091186523438 L 277.7064039707184 183.09091186523438 L 277.7064039707184 498.9090881347656 L 277.6067199707031 498.9090881347656 L 277.6067199707031 183.09091186523438" fill-opacity="1" clip-path="url(#DxcKdMGFcvKJ)"/><path fill="rgb(105,29,48)" stroke="none" paint-order="stroke" d="M 279.1722717285156 183.09091186523438 L 279.25661972910166 183.09091186523438 L 279.25661972910166 498.9090881347656 L 279.1722717285156 498.9090881347656 L 279.1722717285156 183.09091186523438" fill-opacity="1" clip-path="url(#DxcKdMGFcvKJ)"/><path fill="rgb(105,29,48)" stroke="none" paint-order="stroke" d="M 280.6061706542969 183.09091186523438 L 280.6764606535435 183.09091186523438 L 280.6764606535435 498.9090881347656 L 280.6061706542969 498.9090881347656 L 280.6061706542969 183.09091186523438" fill-opacity="1" clip-path="url(#DxcKdMGFcvKJ)"/><path fill="rgb(105,29,48)" stroke="none" paint-order="stroke" d="M 281.7934265136719 183.09091186523438 L 281.890554510057 183.09091186523438 L 281.890554510057 498.9090881347656 L 281.7934265136719 498.9090881347656 L 281.7934265136719 183.09091186523438" fill-opacity="1" clip-path="url(#DxcKdMGFcvKJ)"/><path fill="rgb(105,29,48)" stroke="none" paint-order="stroke" d="M 282.9397888183594 183.09091186523438 L 283.0445848181844 183.09091186523438 L 283.0445848181844 498.9090881347656 L 282.9397888183594 498.9090881347656 L 282.9397888183594 183.09091186523438" fill-opacity="1" clip-path="url(#DxcKdMGFcvKJ)"/><path fill="rgb(105,29,48)" stroke="none" paint-order="stroke" d="M 284.0094909667969 183.09091186523438 L 284.1053409650922 183.09091186523438 L 284.1053409650922 498.9090881347656 L 284.0094909667969 498.9090881347656 L 284.0094909667969 183.09091186523438" fill-opacity="1" clip-path="url(#DxcKdMGFcvKJ)"/><path fill="rgb(143,45,86)" stroke="none" paint-order="stroke" d="M 58.5 551.5454711914062 L 175.95714569091797 551.5454711914062 L 175.95714569091797 604.1818351745605 L 58.5 604.1818351745605 L 58.5 551.5454711914062" fill-opacity="1" clip-path="url(#xFBPBNUCQOWf)"/><path fill="rgb(63,136,197)" stroke="none" paint-order="stroke" d="M 175.9571533203125 551.5454711914062 L 175.97760131955147 551.5454711914062 L 175.97760131955147 604.1818351745605 L 175.9571533203125 604.1818351745605 L 175.9571533203125 551.5454711914062" fill-opacity="1" clip-path="url(#xFBPBNUCQOWf)"/><path fill="rgb(143,45,86)" stroke="none" paint-order="stroke" d="M 175.97760009765625 551.5454711914062 L 183.5139660835266 551.5454711914062 L 183.5139660835266 604.1818351745605 L 175.97760009765625 604.1818351745605 L 175.97760009765625 551.5454711914062" fill-opacity="1" clip-path="url(#xFBPBNUCQOWf)"/><path fill="rgb(81,60,99)" stroke="none" paint-order="stroke" d="M 183.5139617919922 551.5454711914062 L 183.5356877911836 551.5454711914062 L 183.5356877911836 604.1818351745605 L 183.5139617919922 604.1818351745605 L 183.5139617919922 551.5454711914062" fill-opacity="1" clip-path="url(#xFBPBNUCQOWf)"/><path fill="rgb(143,45,86)" stroke="none" paint-order="stroke" d="M 183.5356903076172 551.5454711914062 L 184.9836642742157 551.5454711914062 L 184.9836642742157 604.1818351745605 L 183.5356903076172 604.1818351745605 L 183.5356903076172 551.5454711914062" fill-opacity="1" clip-path="url(#xFBPBNUCQOWf)"/><path fill="rgb(81,60,99)" stroke="none" paint-order="stroke" d="M 184.98365783691406 551.5454711914062 L 187.11280584335327 551.5454711914062 L 187.11280584335327 604.1818351745605 L 184.98365783691406 604.1818351745605 L 184.98365783691406 551.5454711914062" fill-opacity="1" clip-path="url(#xFBPBNUCQOWf)"/><path fill="rgb(143,45,86)" stroke="none" paint-order="stroke" d="M 187.11280822753906 551.5454711914062 L 188.36908221244812 551.5454711914062 L 188.36908221244812 604.1818351745605 L 187.11280822753906 604.1818351745605 L 187.11280822753906 551.5454711914062" fill-opacity="1" clip-path="url(#xFBPBNUCQOWf)"/><path fill="rgb(81,60,99)" stroke="none" paint-order="stroke" d="M 188.36907958984375 551.5454711914062 L 188.58122758567333 551.5454711914062 L 188.58122758567333 604.1818351745605 L 188.36907958984375 604.1818351745605 L 188.36907958984375 551.5454711914062" fill-opacity="1" clip-path="url(#xFBPBNUCQOWf)"/><path fill="rgb(143,45,86)" stroke="none" paint-order="stroke" d="M 188.5812225341797 551.5454711914062 L 189.1780485510826 551.5454711914062 L 189.1780485510826 604.1818351745605 L 188.5812225341797 604.1818351745605 L 188.5812225341797 551.5454711914062" fill-opacity="1" clip-path="url(#xFBPBNUCQOWf)"/><path fill="rgb(81,60,99)" stroke="none" paint-order="stroke" d="M 189.1780548095703 551.5454711914062 L 189.22022880986333 551.5454711914062 L 189.22022880986333 604.1818351745605 L 189.1780548095703 604.1818351745605 L 189.1780548095703 551.5454711914062" fill-opacity="1" clip-path="url(#xFBPBNUCQOWf)"/><path fill="rgb(143,45,86)" stroke="none" paint-order="stroke" d="M 189.22023010253906 551.5454711914062 L 189.26240410283208 551.5454711914062 L 189.26240410283208 604.1818351745605 L 189.22023010253906 604.1818351745605 L 189.22023010253906 551.5454711914062" fill-opacity="1" clip-path="url(#xFBPBNUCQOWf)"/><path fill="rgb(81,60,99)" stroke="none" paint-order="stroke" d="M 189.2624053955078 551.5454711914062 L 193.4133496284485 551.5454711914062 L 193.4133496284485 604.1818351745605 L 189.2624053955078 604.1818351745605 L 189.2624053955078 551.5454711914062" fill-opacity="1" clip-path="url(#xFBPBNUCQOWf)"/><path fill="rgb(143,45,86)" stroke="none" paint-order="stroke" d="M 193.41334533691406 551.5454711914062 L 193.7967453300953 551.5454711914062 L 193.7967453300953 604.1818351745605 L 193.41334533691406 604.1818351745605 L 193.41334533691406 551.5454711914062" fill-opacity="1" clip-path="url(#xFBPBNUCQOWf)"/><path fill="rgb(81,60,99)" stroke="none" paint-order="stroke" d="M 193.7967529296875 551.5454711914062 L 194.52010095119476 551.5454711914062 L 194.52010095119476 604.1818351745605 L 193.7967529296875 604.1818351745605 L 193.7967529296875 551.5454711914062" fill-opacity="1" clip-path="url(#xFBPBNUCQOWf)"/><path fill="rgb(143,45,86)" stroke="none" paint-order="stroke" d="M 194.5200958251953 551.5454711914062 L 195.11692184209824 551.5454711914062 L 195.11692184209824 604.1818351745605 L 194.5200958251953 604.1818351745605 L 194.5200958251953 551.5454711914062" fill-opacity="1" clip-path="url(#xFBPBNUCQOWf)"/><path fill="rgb(81,60,99)" stroke="none" paint-order="stroke" d="M 195.11692810058594 551.5454711914062 L 195.26645410060883 551.5454711914062 L 195.26645410060883 604.1818351745605 L 195.11692810058594 604.1818351745605 L 195.11692810058594 551.5454711914062" fill-opacity="1" clip-path="url(#xFBPBNUCQOWf)"/><path fill="rgb(143,45,86)" stroke="none" paint-order="stroke" d="M 195.26644897460938 551.5454711914062 L 195.86199694871902 551.5454711914062 L 195.86199694871902 604.1818351745605 L 195.26644897460938 604.1818351745605 L 195.26644897460938 551.5454711914062" fill-opacity="1" clip-path="url(#xFBPBNUCQOWf)"/><path fill="rgb(81,60,99)" stroke="none" paint-order="stroke" d="M 195.86199951171875 551.5454711914062 L 196.2032255232334 551.5454711914062 L 196.2032255232334 604.1818351745605 L 195.86199951171875 604.1818351745605 L 195.86199951171875 551.5454711914062" fill-opacity="1" clip-path="url(#xFBPBNUCQOWf)"/><path fill="rgb(143,45,86)" stroke="none" paint-order="stroke" d="M 196.20321655273438 551.5454711914062 L 196.86394256353378 551.5454711914062 L 196.86394256353378 604.1818351745605 L 196.20321655273438 604.1818351745605 L 196.20321655273438 551.5454711914062" fill-opacity="1" clip-path="url(#xFBPBNUCQOWf)"/><path fill="rgb(81,60,99)" stroke="none" paint-order="stroke" d="M 196.86395263671875 551.5454711914062 L 204.18561458587646 551.5454711914062 L 204.18561458587646 604.1818351745605 L 196.86395263671875 604.1818351745605 L 196.86395263671875 551.5454711914062" fill-opacity="1" clip-path="url(#xFBPBNUCQOWf)"/><path fill="rgb(143,45,86)" stroke="none" paint-order="stroke" d="M 204.18560791015625 551.5454711914062 L 204.93195992708206 551.5454711914062 L 204.93195992708206 604.1818351745605 L 204.18560791015625 604.1818351745605 L 204.18560791015625 551.5454711914062" fill-opacity="1" clip-path="url(#xFBPBNUCQOWf)"/><path fill="rgb(81,60,99)" stroke="none" paint-order="stroke" d="M 204.9319610595703 551.5454711914062 L 213.39487743377686 551.5454711914062 L 213.39487743377686 604.1818351745605 L 204.9319610595703 604.1818351745605 L 204.9319610595703 551.5454711914062" fill-opacity="1" clip-path="url(#xFBPBNUCQOWf)"/><path fill="rgb(143,45,86)" stroke="none" paint-order="stroke" d="M 213.39488220214844 551.5454711914062 L 213.50095620006323 551.5454711914062 L 213.50095620006323 604.1818351745605 L 213.39488220214844 604.1818351745605 L 213.39488220214844 551.5454711914062" fill-opacity="1" clip-path="url(#xFBPBNUCQOWf)"/><path fill="rgb(81,60,99)" stroke="none" paint-order="stroke" d="M 213.50094604492188 551.5454711914062 L 214.03259402513504 551.5454711914062 L 214.03259402513504 604.1818351745605 L 213.50094604492188 604.1818351745605 L 213.50094604492188 551.5454711914062" fill-opacity="1" clip-path="url(#xFBPBNUCQOWf)"/><path fill="rgb(143,45,86)" stroke="none" paint-order="stroke" d="M 214.0325927734375 551.5454711914062 L 214.7572187781334 551.5454711914062 L 214.7572187781334 604.1818351745605 L 214.0325927734375 604.1818351745605 L 214.0325927734375 551.5454711914062" fill-opacity="1" clip-path="url(#xFBPBNUCQOWf)"/><path fill="rgb(81,60,99)" stroke="none" paint-order="stroke" d="M 214.75723266601562 551.5454711914062 L 310.8564453125 551.5454711914062 L 310.8564453125 604.1818351745605 L 214.75723266601562 604.1818351745605 L 214.75723266601562 551.5454711914062" fill-opacity="1" clip-path="url(#xFBPBNUCQOWf)"/><path fill="rgb(143,45,86)" stroke="none" paint-order="stroke" d="M 310.8564453125 551.5454711914062 L 311.5810713171959 551.5454711914062 L 311.5810713171959 604.1818351745605 L 310.8564453125 604.1818351745605 L 310.8564453125 551.5454711914062" fill-opacity="1" clip-path="url(#xFBPBNUCQOWf)"/><path fill="rgb(81,60,99)" stroke="none" paint-order="stroke" d="M 311.5810546875 551.5454711914062 L 313.3050767183304 551.5454711914062 L 313.3050767183304 604.1818351745605 L 311.5810546875 604.1818351745605 L 311.5810546875 551.5454711914062" fill-opacity="1" clip-path="url(#xFBPBNUCQOWf)"/><path fill="rgb(143,45,86)" stroke="none" paint-order="stroke" d="M 313.3050842285156 551.5454711914062 L 313.68848422169685 551.5454711914062 L 313.68848422169685 604.1818351745605 L 313.3050842285156 604.1818351745605 L 313.3050842285156 551.5454711914062" fill-opacity="1" clip-path="url(#xFBPBNUCQOWf)"/><path fill="rgb(81,60,99)" stroke="none" paint-order="stroke" d="M 313.6884765625 551.5454711914062 L 314.2622985839844 551.5454711914062 L 314.2622985839844 604.1818351745605 L 313.6884765625 604.1818351745605 L 313.6884765625 551.5454711914062" fill-opacity="1" clip-path="url(#xFBPBNUCQOWf)"/><path fill="rgb(143,45,86)" stroke="none" paint-order="stroke" d="M 314.2622985839844 551.5454711914062 L 314.7632746100426 551.5454711914062 L 314.7632746100426 604.1818351745605 L 314.2622985839844 604.1818351745605 L 314.2622985839844 551.5454711914062" fill-opacity="1" clip-path="url(#xFBPBNUCQOWf)"/><path fill="rgb(81,60,99)" stroke="none" paint-order="stroke" d="M 314.7632751464844 551.5454711914062 L 319.8394913673401 551.5454711914062 L 319.8394913673401 604.1818351745605 L 314.7632751464844 604.1818351745605 L 314.7632751464844 551.5454711914062" fill-opacity="1" clip-path="url(#xFBPBNUCQOWf)"/><path fill="none" stroke="rgb(0,0,0)" paint-order="fill" d="M 58.5 77.81818389892578 L 319.8395080566406 77.81818389892578 L 319.8395080566406 604.1818313598633 L 58.5 604.1818313598633 L 58.5 77.81818389892578" stroke-opacity="1" stroke-linejoin="bevel" stroke-miterlimit="10" stroke-dasharray="" clip-path="url(#NdbmEDDwqTOe)"/><path fill="none" stroke="rgb(0,0,0)" paint-order="fill" d="M 58.5 630.5 L 1336.5 630.5" stroke-opacity="1" stroke-linejoin="bevel" stroke-miterlimit="10" stroke-dasharray=""/><path fill="none" stroke="rgb(0,0,0)" paint-order="fill" d="M 58.5 636.5 L 58.5 628.5 M 314.5 636.5 L 314.5 628.5 M 569.5 636.5 L 569.5 628.5 M 825.5 636.5 L 825.5 628.5 M 1080.5 636.5 L 1080.5 628.5 M 1336.5 636.5 L 1336.5 628.5" stroke-opacity="1" stroke-linejoin="bevel" stroke-miterlimit="10" stroke-dasharray=""/><path fill="none" stroke="rgb(0,0,0)" paint-order="fill" d="M 58.5 634.5 L 58.5 630.5 M 109.5 634.5 L 109.5 630.5 M 160.5 634.5 L 160.5 630.5 M 211.5 634.5 L 211.5 630.5 M 262.5 634.5 L 262.5 630.5 M 314.5 634.5 L 314.5 630.5 M 365.5 634.5 L 365.5 630.5 M 416.5 634.5 L 416.5 630.5 M 467.5 634.5 L 467.5 630.5 M 518.5 634.5 L 518.5 630.5 M 569.5 634.5 L 569.5 630.5 M 620.5 634.5 L 620.5 630.5 M 671.5 634.5 L 671.5 630.5 M 723.5 634.5 L 723.5 630.5 M 774.5 634.5 L 774.5 630.5 M 825.5 634.5 L 825.5 630.5 M 876.5 634.5 L 876.5 630.5 M 927.5 634.5 L 927.5 630.5 M 978.5 634.5 L 978.5 630.5 M 1029.5 634.5 L 1029.5 630.5 M 1080.5 634.5 L 1080.5 630.5 M 1132.5 634.5 L 1132.5 630.5 M 1183.5 634.5 L 1183.5 630.5 M 1234.5 634.5 L 1234.5 630.5 M 1285.5 634.5 L 1285.5 630.5 M 1336.5 634.5 L 1336.5 630.5" stroke-opacity="1" stroke-linejoin="bevel" stroke-miterlimit="10" stroke-dasharray=""/><text fill="rgb(68,68,68)" stroke="none" font-family="helvetica" font-size="11px" font-style="normal" font-weight="normal" text-decoration="normal" x="54.94166660308838" y="648.89013671875" text-anchor="start" dominant-baseline="alphabetic" transform="matrix(1, 0, 0, 1, 0.5, 0.5)" fill-opacity="1">0</text><text fill="rgb(68,68,68)" stroke="none" font-family="helvetica" font-size="11px" font-style="normal" font-weight="normal" text-decoration="normal" x="304.42500591278076" y="648.89013671875" text-anchor="start" dominant-baseline="alphabetic" transform="matrix(1, 0, 0, 1, 0.5, 0.5)" fill-opacity="1">200</text><text fill="rgb(68,68,68)" stroke="none" font-family="helvetica" font-size="11px" font-style="normal" font-weight="normal" text-decoration="normal" x="560.0250120162964" y="648.89013671875" text-anchor="start" dominant-baseline="alphabetic" transform="matrix(1, 0, 0, 1, 0.5, 0.5)" fill-opacity="1">400</text><text fill="rgb(68,68,68)" stroke="none" font-family="helvetica" font-size="11px" font-style="normal" font-weight="normal" text-decoration="normal" x="815.6249876022339" y="648.89013671875" text-anchor="start" dominant-baseline="alphabetic" transform="matrix(1, 0, 0, 1, 0.5, 0.5)" fill-opacity="1">600</text><text fill="rgb(68,68,68)" stroke="none" font-family="helvetica" font-size="11px" font-style="normal" font-weight="normal" text-decoration="normal" x="1071.2250242233276" y="648.89013671875" text-anchor="start" dominant-baseline="alphabetic" transform="matrix(1, 0, 0, 1, 0.5, 0.5)" fill-opacity="1">800</text><text fill="rgb(68,68,68)" stroke="none" font-family="helvetica" font-size="11px" font-style="normal" font-weight="normal" text-decoration="normal" x="1323.7666664123535" y="648.89013671875" text-anchor="start" dominant-baseline="alphabetic" transform="matrix(1, 0, 0, 1, 0.5, 0.5)" fill-opacity="1">1000</text><text fill="rgb(68,68,68)" stroke="none" font-family="helvetica" font-size="15pt" font-style="italic" font-weight="normal" text-decoration="normal" x="666.4416675567627" y="676.06982421875" text-anchor="start" dominant-baseline="alphabetic" transform="matrix(1, 0, 0, 1, 0.5, 0.5)" fill-opacity="1">time(s)</text><path fill="none" stroke="rgb(0,0,0)" paint-order="fill" d="M 58.5 630.5 L 58.5 51.5" stroke-opacity="1" stroke-linejoin="bevel" stroke-miterlimit="10" stroke-dasharray=""/><path fill="none" stroke="rgb(0,0,0)" paint-order="fill" d="M 52.5 551.5 L 60.5 551.5 M 52.5 446.5 L 60.5 446.5 M 52.5 341.5 L 60.5 341.5 M 52.5 235.5 L 60.5 235.5 M 52.5 130.5 L 60.5 130.5" stroke-opacity="1" stroke-linejoin="bevel" stroke-miterlimit="10" stroke-dasharray=""/><path fill="none" stroke="rgb(0,0,0)" paint-order="fill" d="M 54.5 572.5 L 58.5 572.5 M 54.5 593.5 L 58.5 593.5 M 54.5 614.5 L 58.5 614.5 M 54.5 551.5 L 58.5 551.5 M 54.5 530.5 L 58.5 530.5 M 54.5 509.5 L 58.5 509.5 M 54.5 488.5 L 58.5 488.5 M 54.5 467.5 L 58.5 467.5 M 54.5 446.5 L 58.5 446.5 M 54.5 425.5 L 58.5 425.5 M 54.5 404.5 L 58.5 404.5 M 54.5 383.5 L 58.5 383.5 M 54.5 362.5 L 58.5 362.5 M 54.5 341.5 L 58.5 341.5 M 54.5 319.5 L 58.5 319.5 M 54.5 298.5 L 58.5 298.5 M 54.5 277.5 L 58.5 277.5 M 54.5 256.5 L 58.5 256.5 M 54.5 235.5 L 58.5 235.5 M 54.5 214.5 L 58.5 214.5 M 54.5 193.5 L 58.5 193.5 M 54.5 172.5 L 58.5 172.5 M 54.5 151.5 L 58.5 151.5 M 54.5 130.5 L 58.5 130.5 M 54.5 109.5 L 58.5 109.5 M 54.5 88.5 L 58.5 88.5 M 54.5 67.5 L 58.5 67.5" stroke-opacity="1" stroke-linejoin="bevel" stroke-miterlimit="10" stroke-dasharray=""/><text fill="rgb(68,68,68)" stroke="none" font-family="helvetica" font-size="11px" font-style="normal" font-weight="normal" text-decoration="normal" x="34.46666622161865" y="554.9905395507812" text-anchor="start" dominant-baseline="alphabetic" transform="matrix(1, 0, 0, 1, 0.5, 0.5)" fill-opacity="1">2</text><text fill="rgb(68,68,68)" stroke="none" font-family="helvetica" font-size="11px" font-style="normal" font-weight="normal" text-decoration="normal" x="34.46666622161865" y="449.7178039550781" text-anchor="start" dominant-baseline="alphabetic" transform="matrix(1, 0, 0, 1, 0.5, 0.5)" fill-opacity="1">1</text><text fill="rgb(68,68,68)" stroke="none" font-family="helvetica" font-size="11px" font-style="normal" font-weight="normal" text-decoration="normal" x="40.88333320617676" y="344.445068359375" text-anchor="start" dominant-baseline="alphabetic" transform="matrix(1, 0, 0, 1, 0.5, 0.5)" fill-opacity="1">0</text><text fill="rgb(68,68,68)" stroke="none" font-family="helvetica" font-size="11px" font-style="normal" font-weight="normal" text-decoration="normal" x="40.88333320617676" y="239.17234802246094" text-anchor="start" dominant-baseline="alphabetic" transform="matrix(1, 0, 0, 1, 0.5, 0.5)" fill-opacity="1">1</text><text fill="rgb(68,68,68)" stroke="none" font-family="helvetica" font-size="11px" font-style="normal" font-weight="normal" text-decoration="normal" x="40.88333320617676" y="133.8996124267578" text-anchor="start" dominant-baseline="alphabetic" transform="matrix(1, 0, 0, 1, 0.5, 0.5)" fill-opacity="1">2</text><text fill="rgb(68,68,68)" stroke="none" font-family="helvetica" font-size="15pt" font-style="italic" font-weight="normal" text-decoration="normal" x="-11.316666603088379" y="336.076171875" text-anchor="start" dominant-baseline="alphabetic" transform="matrix(6.123233995736766e-17, -1, 1, 6.123233995736766e-17, -313.53333377838135, 367.46666622161865)" fill-opacity="1">students</text><path fill="rgb(255,255,255)" stroke="rgb(229,229,229)" paint-order="fill" d="M 1128.2333374023438 61.5 L 1326.5 61.5 L 1326.5 400.5 L 1128.2333374023438 400.5 L 1128.2333374023438 61.5" fill-opacity="0.9490196078431372" clip-path="url(#QDmZVPvaRtsD)" stroke-opacity="0.5019607843137255" stroke-linejoin="bevel" stroke-miterlimit="10" stroke-dasharray=""/><g clip-path="url(#QDmZVPvaRtsD)"><text fill="rgb(68,68,68)" stroke="none" font-family="helvetica" font-size="13px" font-style="normal" font-weight="normal" text-decoration="normal" x="1162.7333374023438" y="81" text-anchor="start" dominant-baseline="central" transform="matrix(1, 0, 0, 1, 0.5, 0.5)" fill-opacity="1">wavelength</text></g><path fill="rgb(0,255,40)" stroke="none" paint-order="stroke" d="M 1140.2333374023438 73.5 L 1156.2333374023438 73.5 L 1156.2333374023438 89.5 L 1140.2333374023438 89.5 L 1140.2333374023438 73.5" fill-opacity="1" clip-path="url(#QDmZVPvaRtsD)"/><path fill="rgb(216,17,89)" stroke="none" paint-order="stroke" d="M 1140.2333374023438 73.5 L 1156.2333374023438 73.5 L 1156.2333374023438 89.5 L 1140.2333374023438 89.5 L 1140.2333374023438 73.5" fill-opacity="1" clip-path="url(#QDmZVPvaRtsD)"/><g clip-path="url(#QDmZVPvaRtsD)"><text fill="rgb(68,68,68)" stroke="none" font-family="helvetica" font-size="13px" font-style="normal" font-weight="normal" text-decoration="normal" x="1162.7333374023438" y="104" text-anchor="start" dominant-baseline="central" transform="matrix(1, 0, 0, 1, 0.5, 0.5)" fill-opacity="1">solution</text></g><path fill="rgb(251,0,7)" stroke="none" paint-order="stroke" d="M 1140.2333374023438 96.5 L 1156.2333374023438 96.5 L 1156.2333374023438 112.5 L 1140.2333374023438 112.5 L 1140.2333374023438 96.5" fill-opacity="1" clip-path="url(#QDmZVPvaRtsD)"/><path fill="rgb(33,131,128)" stroke="none" paint-order="stroke" d="M 1140.2333374023438 96.5 L 1156.2333374023438 96.5 L 1156.2333374023438 112.5 L 1140.2333374023438 112.5 L 1140.2333374023438 96.5" fill-opacity="1" clip-path="url(#QDmZVPvaRtsD)"/><g clip-path="url(#QDmZVPvaRtsD)"><text fill="rgb(68,68,68)" stroke="none" font-family="helvetica" font-size="13px" font-style="normal" font-weight="normal" text-decoration="normal" x="1162.7333374023438" y="127" text-anchor="start" dominant-baseline="central" transform="matrix(1, 0, 0, 1, 0.5, 0.5)" fill-opacity="1">laser</text></g><path fill="rgb(105,29,48)" stroke="none" paint-order="stroke" d="M 1140.2333374023438 119.5 L 1156.2333374023438 119.5 L 1156.2333374023438 135.5 L 1140.2333374023438 135.5 L 1140.2333374023438 119.5" fill-opacity="1" clip-path="url(#QDmZVPvaRtsD)"/><g clip-path="url(#QDmZVPvaRtsD)"><text fill="rgb(68,68,68)" stroke="none" font-family="helvetica" font-size="13px" font-style="normal" font-weight="normal" text-decoration="normal" x="1162.7333374023438" y="150" text-anchor="start" dominant-baseline="central" transform="matrix(1, 0, 0, 1, 0.5, 0.5)" fill-opacity="1">ruler</text></g><path fill="rgb(255,188,66)" stroke="none" paint-order="stroke" d="M 1140.2333374023438 142.5 L 1156.2333374023438 142.5 L 1156.2333374023438 158.5 L 1140.2333374023438 158.5 L 1140.2333374023438 142.5" fill-opacity="1" clip-path="url(#QDmZVPvaRtsD)"/><g clip-path="url(#QDmZVPvaRtsD)"><text fill="rgb(68,68,68)" stroke="none" font-family="helvetica" font-size="13px" font-style="normal" font-weight="normal" text-decoration="normal" x="1162.7333374023438" y="173" text-anchor="start" dominant-baseline="central" transform="matrix(1, 0, 0, 1, 0.5, 0.5)" fill-opacity="1">restarts</text></g><g clip-path="url(#QDmZVPvaRtsD)"><text fill="rgb(68,68,68)" stroke="none" font-family="helvetica" font-size="13px" font-style="normal" font-weight="normal" text-decoration="normal" x="1162.7333374023438" y="196" text-anchor="start" dominant-baseline="central" transform="matrix(1, 0, 0, 1, 0.5, 0.5)" fill-opacity="1">transmittance_absorbance</text></g><path fill="rgb(162,174,187)" stroke="none" paint-order="stroke" d="M 1140.2333374023438 188.5 L 1156.2333374023438 188.5 L 1156.2333374023438 204.5 L 1140.2333374023438 204.5 L 1140.2333374023438 188.5" fill-opacity="1" clip-path="url(#QDmZVPvaRtsD)"/><g clip-path="url(#QDmZVPvaRtsD)"><text fill="rgb(68,68,68)" stroke="none" font-family="helvetica" font-size="13px" font-style="normal" font-weight="normal" text-decoration="normal" x="1162.7333374023438" y="219" text-anchor="start" dominant-baseline="central" transform="matrix(1, 0, 0, 1, 0.5, 0.5)" fill-opacity="1">magnifier</text></g><path fill="rgb(255,188,66)" stroke="none" paint-order="stroke" d="M 1140.2333374023438 211.5 L 1156.2333374023438 211.5 L 1156.2333374023438 227.5 L 1140.2333374023438 227.5 L 1140.2333374023438 211.5" fill-opacity="1" clip-path="url(#QDmZVPvaRtsD)"/><g clip-path="url(#QDmZVPvaRtsD)"><text fill="rgb(68,68,68)" stroke="none" font-family="helvetica" font-size="13px" font-style="normal" font-weight="normal" text-decoration="normal" x="1162.7333374023438" y="242" text-anchor="start" dominant-baseline="central" transform="matrix(1, 0, 0, 1, 0.5, 0.5)" fill-opacity="1">concentration</text></g><path fill="rgb(115,210,222)" stroke="none" paint-order="stroke" d="M 1140.2333374023438 234.5 L 1156.2333374023438 234.5 L 1156.2333374023438 250.5 L 1140.2333374023438 250.5 L 1140.2333374023438 234.5" fill-opacity="1" clip-path="url(#QDmZVPvaRtsD)"/><g clip-path="url(#QDmZVPvaRtsD)"><text fill="rgb(68,68,68)" stroke="none" font-family="helvetica" font-size="13px" font-style="normal" font-weight="normal" text-decoration="normal" x="1162.7333374023438" y="265" text-anchor="start" dominant-baseline="central" transform="matrix(1, 0, 0, 1, 0.5, 0.5)" fill-opacity="1">flask</text></g><path fill="rgb(28,49,68)" stroke="none" paint-order="stroke" d="M 1140.2333374023438 257.5 L 1156.2333374023438 257.5 L 1156.2333374023438 273.5 L 1140.2333374023438 273.5 L 1140.2333374023438 257.5" fill-opacity="1" clip-path="url(#QDmZVPvaRtsD)"/><g clip-path="url(#QDmZVPvaRtsD)"><text fill="rgb(68,68,68)" stroke="none" font-family="helvetica" font-size="13px" font-style="normal" font-weight="normal" text-decoration="normal" x="1162.7333374023438" y="288" text-anchor="start" dominant-baseline="central" transform="matrix(1, 0, 0, 1, 0.5, 0.5)" fill-opacity="1">pdf</text></g><path fill="rgb(239,185,203)" stroke="none" paint-order="stroke" d="M 1140.2333374023438 280.5 L 1156.2333374023438 280.5 L 1156.2333374023438 296.5 L 1140.2333374023438 296.5 L 1140.2333374023438 280.5" fill-opacity="1" clip-path="url(#QDmZVPvaRtsD)"/><g clip-path="url(#QDmZVPvaRtsD)"><text fill="rgb(68,68,68)" stroke="none" font-family="helvetica" font-size="13px" font-style="normal" font-weight="normal" text-decoration="normal" x="1162.7333374023438" y="311" text-anchor="start" dominant-baseline="central" transform="matrix(1, 0, 0, 1, 0.5, 0.5)" fill-opacity="1">concentrationlab</text></g><g clip-path="url(#QDmZVPvaRtsD)"><text fill="rgb(68,68,68)" stroke="none" font-family="helvetica" font-size="13px" font-style="normal" font-weight="normal" text-decoration="normal" x="1162.7333374023438" y="334" text-anchor="start" dominant-baseline="central" transform="matrix(1, 0, 0, 1, 0.5, 0.5)" fill-opacity="1">wavelength_slider</text></g><path fill="rgb(105,29,48)" stroke="none" paint-order="stroke" d="M 1140.2333374023438 326.5 L 1156.2333374023438 326.5 L 1156.2333374023438 342.5 L 1140.2333374023438 342.5 L 1140.2333374023438 326.5" fill-opacity="1" clip-path="url(#QDmZVPvaRtsD)"/><g clip-path="url(#QDmZVPvaRtsD)"><text fill="rgb(68,68,68)" stroke="none" font-family="helvetica" font-size="13px" font-style="normal" font-weight="normal" text-decoration="normal" x="1162.7333374023438" y="357" text-anchor="start" dominant-baseline="central" transform="matrix(1, 0, 0, 1, 0.5, 0.5)" fill-opacity="1">ruler measuring</text></g><g clip-path="url(#QDmZVPvaRtsD)"><text fill="rgb(68,68,68)" stroke="none" font-family="helvetica" font-size="13px" font-style="normal" font-weight="normal" text-decoration="normal" x="1162.7333374023438" y="380" text-anchor="start" dominant-baseline="central" transform="matrix(1, 0, 0, 1, 0.5, 0.5)" fill-opacity="1">dependent variable</text></g><path fill="rgb(143,45,86)" stroke="none" paint-order="stroke" d="M 1140.2333374023438 372.5 L 1156.2333374023438 372.5 L 1156.2333374023438 388.5 L 1140.2333374023438 388.5 L 1140.2333374023438 372.5" fill-opacity="1" clip-path="url(#QDmZVPvaRtsD)"/><text fill="rgb(68,68,68)" stroke="none" font-family="helvetica" font-size="25pt" font-style="normal" font-weight="bold" text-decoration="normal" x="58" y="38.740885416666664" text-anchor="start" dominant-baseline="alphabetic" transform="matrix(1, 0, 0, 1, 0.5, 0.5)" fill-opacity="1">Timeline for student mwfdr4ys with permutation 3120 for task 1</text></svg>