<svg version="1.1" xmlns="http://www.w3.org/2000/svg" width="1366" height="683"><defs><clipPath id="rwXBSkdhToFT"><path fill="none" stroke="none" d="M 58.5 51.5 L 1336.5 51.5 L 1336.5 630.5 L 58.5 630.5 L 58.5 51.5"/></clipPath><clipPath id="dgriBkQRRsMQ"><path fill="none" stroke="none" d="M 58.5 51.5 L 1336.5 51.5 L 1336.5 630.5 L 58.5 630.5 L 58.5 51.5"/></clipPath><clipPath id="sxlMOIrTgOHr"><path fill="none" stroke="none" d="M 58.5 51.5 L 1336.5 51.5 L 1336.5 630.5 L 58.5 630.5 L 58.5 51.5"/></clipPath><clipPath id="RhxFZpiEsnnc"><path fill="none" stroke="none" d="M 58.5 51.5 L 1336.5 51.5 L 1336.5 630.5 L 58.5 630.5 L 58.5 51.5"/></clipPath><clipPath id="qyssfKXVESrG"><path fill="none" stroke="none" d="M 58.5 51.5 L 1336.5 51.5 L 1336.5 630.5 L 58.5 630.5 L 58.5 51.5"/></clipPath><clipPath id="BzbWRvkrxPXT"><path fill="none" stroke="none" d="M 58.5 51.5 L 1336.5 51.5 L 1336.5 630.5 L 58.5 630.5 L 58.5 51.5"/></clipPath><clipPath id="NizqsGxKavAc"><path fill="none" stroke="none" d="M 58.5 51.5 L 1336.5 51.5 L 1336.5 630.5 L 58.5 630.5 L 58.5 51.5"/></clipPath><clipPath id="vZpFTyHuCpfg"><path fill="none" stroke="none" d="M 58.5 51.5 L 1336.5 51.5 L 1336.5 630.5 L 58.5 630.5 L 58.5 51.5"/></clipPath><clipPath id="wKvHNnXVuaKu"><path fill="none" stroke="none" d="M 58.5 51.5 L 1336.5 51.5 L 1336.5 630.5 L 58.5 630.5 L 58.5 51.5"/></clipPath><clipPath id="XWwJhTTyahSm"><path fill="none" stroke="none" d="M 58.5 51.5 L 1336.5 51.5 L 1336.5 630.5 L 58.5 630.5 L 58.5 51.5"/></clipPath><clipPath id="cZqziPfLwrsp"><path fill="none" stroke="none" d="M 58.5 51.5 L 1336.5 51.5 L 1336.5 630.5 L 58.5 630.5 L 58.5 51.5"/></clipPath><clipPath id="aOweRTxxTySJ"><path fill="none" stroke="none" d="M 58.5 51.5 L 1336.5 51.5 L 1336.5 630.5 L 58.5 630.5 L 58.5 51.5"/></clipPath><clipPath id="AIBeEezOVBaq"><path fill="none" stroke="none" d="M 58.5 51.5 L 1336.5 51.5 L 1336.5 630.5 L 58.5 630.5 L 58.5 51.5"/></clipPath><clipPath id="chKWoRhzNyVI"><path fill="none" stroke="none" d="M 58.5 51.5 L 1336.5 51.5 L 1336.5 630.5 L 58.5 630.5 L 58.5 51.5"/></clipPath><clipPath id="QDfZEtzoOOvU"><path fill="none" stroke="none" d="M 58.5 51.5 L 1336.5 51.5 L 1336.5 630.5 L 58.5 630.5 L 58.5 51.5"/></clipPath><clipPath id="PsmlvcUIykFd"><path fill="none" stroke="none" d="M 58.5 51.5 L 1336.5 51.5 L 1336.5 630.5 L 58.5 630.5 L 58.5 51.5"/></clipPath><clipPath id="GmwqsEibKaoA"><path fill="none" stroke="none" d="M 58.5 51.5 L 1336.5 51.5 L 1336.5 630.5 L 58.5 630.5 L 58.5 51.5"/></clipPath><clipPath id="weELcUKJtsTJ"><path fill="none" stroke="none" d="M 58.5 51.5 L 1336.5 51.5 L 1336.5 630.5 L 58.5 630.5 L 58.5 51.5"/></clipPath><clipPath id="WrMNaDxITQWd"><path fill="none" stroke="none" d="M 58.5 51.5 L 1336.5 51.5 L 1336.5 630.5 L 58.5 630.5 L 58.5 51.5"/></clipPath><clipPath id="JMzwMQrSgmNk"><path fill="none" stroke="none" d="M 58.5 51.5 L 1336.5 51.5 L 1336.5 630.5 L 58.5 630.5 L 58.5 51.5"/></clipPath><clipPath id="XqnIUrfNdeiW"><path fill="none" stroke="none" d="M 58.5 51.5 L 1336.5 51.5 L 1336.5 630.5 L 58.5 630.5 L 58.5 51.5"/></clipPath></defs><path fill="rgb(255,255,255)" stroke="none" paint-order="stroke" d="M 0.5 0.5 L 1366.5 0.5 L 1366.5 683.5 L 0.5 683.5 L 0.5 0.5" fill-opacity="1"/><rect fill="#FFFFFF" stroke="none" x="58" y="51" width="1278" height="579" transform="matrix(1, 0, 0, 1, 0.5, 0.5)"/><path fill="rgb(255,255,255)" stroke="none" paint-order="stroke" d="M 58.5 51.5 L 1336.5 51.5 L 1336.5 630.5 L 58.5 630.5 L 58.5 51.5" fill-opacity="1"/><path fill="none" stroke="rgb(229,229,229)" paint-order="fill" d="M 58.5 51.5 L 1336.5 51.5 L 1336.5 630.5 L 58.5 630.5 L 58.5 51.5" stroke-opacity="1" stroke-linejoin="bevel" stroke-miterlimit="10" stroke-dasharray=""/><path fill="none" stroke="rgb(229,229,229)" paint-order="fill" d="M 314.5 630.5 L 314.5 51.5 M 569.5 630.5 L 569.5 51.5 M 825.5 630.5 L 825.5 51.5 M 1080.5 630.5 L 1080.5 51.5" stroke-opacity="1" stroke-linejoin="bevel" stroke-miterlimit="10" stroke-dasharray="" clip-path="url(#rwXBSkdhToFT)"/><path fill="none" stroke="rgb(229,229,229)" paint-order="fill" d="M 58.5 551.5 L 1336.5 551.5 M 58.5 446.5 L 1336.5 446.5 M 58.5 341.5 L 1336.5 341.5 M 58.5 235.5 L 1336.5 235.5 M 58.5 130.5 L 1336.5 130.5" stroke-opacity="1" stroke-linejoin="bevel" stroke-miterlimit="10" stroke-dasharray="" clip-path="url(#dgriBkQRRsMQ)"/><path fill="rgb(0,255,40)" stroke="none" paint-order="stroke" d="M 58.5 77.81818389892578 L 102.81465148925781 77.81818389892578 L 102.81465148925781 130.45454788208008 L 58.5 130.45454788208008 L 58.5 77.81818389892578" fill-opacity="1" clip-path="url(#sxlMOIrTgOHr)"/><path fill="rgb(40,255,0)" stroke="none" paint-order="stroke" d="M 102.81465148925781 77.81818389892578 L 102.83509948849678 77.81818389892578 L 102.83509948849678 130.45454788208008 L 102.81465148925781 130.45454788208008 L 102.81465148925781 77.81818389892578" fill-opacity="1" clip-path="url(#sxlMOIrTgOHr)"/><path fill="rgb(62,255,0)" stroke="none" paint-order="stroke" d="M 102.83509826660156 77.81818389892578 L 102.87727226689458 77.81818389892578 L 102.87727226689458 130.45454788208008 L 102.83509826660156 130.45454788208008 L 102.83509826660156 77.81818389892578" fill-opacity="1" clip-path="url(#sxlMOIrTgOHr)"/><path fill="rgb(82,255,0)" stroke="none" paint-order="stroke" d="M 102.87727355957031 77.81818389892578 L 102.89899955876172 77.81818389892578 L 102.89899955876172 130.45454788208008 L 102.87727355957031 130.45454788208008 L 102.87727355957031 77.81818389892578" fill-opacity="1" clip-path="url(#sxlMOIrTgOHr)"/><path fill="rgb(101,255,0)" stroke="none" paint-order="stroke" d="M 102.89899444580078 77.81818389892578 L 102.91944244503975 77.81818389892578 L 102.91944244503975 130.45454788208008 L 102.89899444580078 130.45454788208008 L 102.89899444580078 77.81818389892578" fill-opacity="1" clip-path="url(#sxlMOIrTgOHr)"/><path fill="rgb(119,255,0)" stroke="none" paint-order="stroke" d="M 102.91944885253906 77.81818389892578 L 102.94117485173047 77.81818389892578 L 102.94117485173047 130.45454788208008 L 102.91944885253906 130.45454788208008 L 102.91944885253906 77.81818389892578" fill-opacity="1" clip-path="url(#sxlMOIrTgOHr)"/><path fill="rgb(136,255,0)" stroke="none" paint-order="stroke" d="M 102.94116973876953 77.81818389892578 L 102.98334373906255 77.81818389892578 L 102.98334373906255 130.45454788208008 L 102.94116973876953 130.45454788208008 L 102.94116973876953 77.81818389892578" fill-opacity="1" clip-path="url(#sxlMOIrTgOHr)"/><path fill="rgb(166,255,0)" stroke="none" paint-order="stroke" d="M 102.98334503173828 77.81818389892578 L 103.04852303117514 77.81818389892578 L 103.04852303117514 130.45454788208008 L 102.98334503173828 130.45454788208008 L 102.98334503173828 77.81818389892578" fill-opacity="1" clip-path="url(#sxlMOIrTgOHr)"/><path fill="rgb(197,255,0)" stroke="none" paint-order="stroke" d="M 103.04852294921875 77.81818389892578 L 103.09069694951177 77.81818389892578 L 103.09069694951177 130.45454788208008 L 103.04852294921875 130.45454788208008 L 103.04852294921875 77.81818389892578" fill-opacity="1" clip-path="url(#sxlMOIrTgOHr)"/><path fill="rgb(213,255,0)" stroke="none" paint-order="stroke" d="M 103.0906982421875 77.81818389892578 L 103.1124242413789 77.81818389892578 L 103.1124242413789 130.45454788208008 L 103.0906982421875 130.45454788208008 L 103.0906982421875 77.81818389892578" fill-opacity="1" clip-path="url(#sxlMOIrTgOHr)"/><path fill="rgb(228,255,0)" stroke="none" paint-order="stroke" d="M 103.1124267578125 77.81818389892578 L 103.17632675915956 77.81818389892578 L 103.17632675915956 130.45454788208008 L 103.1124267578125 130.45454788208008 L 103.1124267578125 77.81818389892578" fill-opacity="1" clip-path="url(#sxlMOIrTgOHr)"/><path fill="rgb(243,255,0)" stroke="none" paint-order="stroke" d="M 103.17632293701172 77.81818389892578 L 103.21849693730474 77.81818389892578 L 103.21849693730474 130.45454788208008 L 103.17632293701172 130.45454788208008 L 103.17632293701172 77.81818389892578" fill-opacity="1" clip-path="url(#sxlMOIrTgOHr)"/><path fill="rgb(255,251,0)" stroke="none" paint-order="stroke" d="M 103.21849822998047 77.81818389892578 L 103.32457222789526 77.81818389892578 L 103.32457222789526 130.45454788208008 L 103.21849822998047 130.45454788208008 L 103.21849822998047 77.81818389892578" fill-opacity="1" clip-path="url(#sxlMOIrTgOHr)"/><path fill="rgb(255,223,0)" stroke="none" paint-order="stroke" d="M 103.32456970214844 77.81818389892578 L 103.3884697034955 77.81818389892578 L 103.3884697034955 130.45454788208008 L 103.32456970214844 130.45454788208008 L 103.32456970214844 77.81818389892578" fill-opacity="1" clip-path="url(#sxlMOIrTgOHr)"/><path fill="rgb(255,206,0)" stroke="none" paint-order="stroke" d="M 103.38847351074219 77.81818389892578 L 103.4306475110352 77.81818389892578 L 103.4306475110352 130.45454788208008 L 103.38847351074219 130.45454788208008 L 103.38847351074219 77.81818389892578" fill-opacity="1" clip-path="url(#sxlMOIrTgOHr)"/><path fill="rgb(255,190,0)" stroke="none" paint-order="stroke" d="M 103.43064880371094 77.81818389892578 L 103.55972680449486 77.81818389892578 L 103.55972680449486 130.45454788208008 L 103.43064880371094 130.45454788208008 L 103.43064880371094 77.81818389892578" fill-opacity="1" clip-path="url(#sxlMOIrTgOHr)"/><path fill="rgb(255,172,0)" stroke="none" paint-order="stroke" d="M 103.55972290039062 77.81818389892578 L 103.5801708996296 77.81818389892578 L 103.5801708996296 130.45454788208008 L 103.55972290039062 130.45454788208008 L 103.55972290039062 77.81818389892578" fill-opacity="1" clip-path="url(#sxlMOIrTgOHr)"/><path fill="rgb(255,155,0)" stroke="none" paint-order="stroke" d="M 103.58016967773438 77.81818389892578 L 103.6657956764102 77.81818389892578 L 103.6657956764102 130.45454788208008 L 103.58016967773438 130.45454788208008 L 103.58016967773438 77.81818389892578" fill-opacity="1" clip-path="url(#sxlMOIrTgOHr)"/><path fill="rgb(255,118,0)" stroke="none" paint-order="stroke" d="M 103.6657943725586 77.81818389892578 L 103.70796837285161 77.81818389892578 L 103.70796837285161 130.45454788208008 L 103.6657943725586 130.45454788208008 L 103.6657943725586 77.81818389892578" fill-opacity="1" clip-path="url(#sxlMOIrTgOHr)"/><path fill="rgb(255,103,0)" stroke="none" paint-order="stroke" d="M 103.70796966552734 77.81818389892578 L 103.72969566471875 77.81818389892578 L 103.72969566471875 130.45454788208008 L 103.70796966552734 130.45454788208008 L 103.70796966552734 77.81818389892578" fill-opacity="1" clip-path="url(#sxlMOIrTgOHr)"/><path fill="rgb(255,83,0)" stroke="none" paint-order="stroke" d="M 103.72969818115234 77.81818389892578 L 103.77187218144536 77.81818389892578 L 103.77187218144536 130.45454788208008 L 103.72969818115234 130.45454788208008 L 103.72969818115234 77.81818389892578" fill-opacity="1" clip-path="url(#sxlMOIrTgOHr)"/><path fill="rgb(255,61,0)" stroke="none" paint-order="stroke" d="M 103.7718734741211 77.81818389892578 L 103.7935994733125 77.81818389892578 L 103.7935994733125 130.45454788208008 L 103.7718734741211 130.45454788208008 L 103.7718734741211 77.81818389892578" fill-opacity="1" clip-path="url(#sxlMOIrTgOHr)"/><path fill="rgb(255,37,0)" stroke="none" paint-order="stroke" d="M 103.79359436035156 77.81818389892578 L 103.81404235959053 77.81818389892578 L 103.81404235959053 130.45454788208008 L 103.79359436035156 130.45454788208008 L 103.79359436035156 77.81818389892578" fill-opacity="1" clip-path="url(#sxlMOIrTgOHr)"/><path fill="rgb(249,0,0)" stroke="none" paint-order="stroke" d="M 103.81404876708984 77.81818389892578 L 103.83577476628125 77.81818389892578 L 103.83577476628125 130.45454788208008 L 103.81404876708984 130.45454788208008 L 103.81404876708984 77.81818389892578" fill-opacity="1" clip-path="url(#sxlMOIrTgOHr)"/><path fill="rgb(242,0,0)" stroke="none" paint-order="stroke" d="M 103.83576965332031 77.81818389892578 L 103.85621765255928 77.81818389892578 L 103.85621765255928 130.45454788208008 L 103.83576965332031 130.45454788208008 L 103.83576965332031 77.81818389892578" fill-opacity="1" clip-path="url(#sxlMOIrTgOHr)"/><path fill="rgb(235,0,0)" stroke="none" paint-order="stroke" d="M 103.85621643066406 77.81818389892578 L 103.89966842904687 77.81818389892578 L 103.89966842904687 130.45454788208008 L 103.85621643066406 130.45454788208008 L 103.85621643066406 77.81818389892578" fill-opacity="1" clip-path="url(#sxlMOIrTgOHr)"/><path fill="rgb(230,0,0)" stroke="none" paint-order="stroke" d="M 103.89967346191406 77.81818389892578 L 103.92139946110547 77.81818389892578 L 103.92139946110547 130.45454788208008 L 103.89967346191406 130.45454788208008 L 103.89967346191406 77.81818389892578" fill-opacity="1" clip-path="url(#sxlMOIrTgOHr)"/><path fill="rgb(223,0,0)" stroke="none" paint-order="stroke" d="M 103.92139434814453 77.81818389892578 L 103.9418423473835 77.81818389892578 L 103.9418423473835 130.45454788208008 L 103.92139434814453 130.45454788208008 L 103.92139434814453 77.81818389892578" fill-opacity="1" clip-path="url(#sxlMOIrTgOHr)"/><path fill="rgb(209,0,0)" stroke="none" paint-order="stroke" d="M 103.94184875488281 77.81818389892578 L 103.98402275517583 77.81818389892578 L 103.98402275517583 130.45454788208008 L 103.94184875488281 130.45454788208008 L 103.94184875488281 77.81818389892578" fill-opacity="1" clip-path="url(#sxlMOIrTgOHr)"/><path fill="rgb(194,0,0)" stroke="none" paint-order="stroke" d="M 103.98401641845703 77.81818389892578 L 104.02619041875005 77.81818389892578 L 104.02619041875005 130.45454788208008 L 103.98401641845703 130.45454788208008 L 103.98401641845703 77.81818389892578" fill-opacity="1" clip-path="url(#sxlMOIrTgOHr)"/><path fill="rgb(179,0,0)" stroke="none" paint-order="stroke" d="M 104.02619171142578 77.81818389892578 L 104.04791771061718 77.81818389892578 L 104.04791771061718 130.45454788208008 L 104.02619171142578 130.45454788208008 L 104.02619171142578 77.81818389892578" fill-opacity="1" clip-path="url(#sxlMOIrTgOHr)"/><path fill="rgb(166,0,0)" stroke="none" paint-order="stroke" d="M 104.04792022705078 77.81818389892578 L 104.09137222543359 77.81818389892578 L 104.09137222543359 130.45454788208008 L 104.04792022705078 130.45454788208008 L 104.04792022705078 77.81818389892578" fill-opacity="1" clip-path="url(#sxlMOIrTgOHr)"/><path fill="rgb(158,0,0)" stroke="none" paint-order="stroke" d="M 104.09136962890625 77.81818389892578 L 104.11181762814522 77.81818389892578 L 104.11181762814522 130.45454788208008 L 104.09136962890625 130.45454788208008 L 104.09136962890625 77.81818389892578" fill-opacity="1" clip-path="url(#sxlMOIrTgOHr)"/><path fill="rgb(151,0,0)" stroke="none" paint-order="stroke" d="M 104.11181640625 77.81818389892578 L 104.1552684046328 77.81818389892578 L 104.1552684046328 130.45454788208008 L 104.11181640625 130.45454788208008 L 104.11181640625 77.81818389892578" fill-opacity="1" clip-path="url(#sxlMOIrTgOHr)"/><path fill="rgb(143,0,0)" stroke="none" paint-order="stroke" d="M 104.1552734375 77.81818389892578 L 104.17572143673897 77.81818389892578 L 104.17572143673897 130.45454788208008 L 104.1552734375 130.45454788208008 L 104.1552734375 77.81818389892578" fill-opacity="1" clip-path="url(#sxlMOIrTgOHr)"/><path fill="rgb(135,0,0)" stroke="none" paint-order="stroke" d="M 104.17572021484375 77.81818389892578 L 104.21789421513677 77.81818389892578 L 104.21789421513677 130.45454788208008 L 104.17572021484375 130.45454788208008 L 104.17572021484375 77.81818389892578" fill-opacity="1" clip-path="url(#sxlMOIrTgOHr)"/><path fill="rgb(127,0,0)" stroke="none" paint-order="stroke" d="M 104.2178955078125 77.81818389892578 L 104.2396215070039 77.81818389892578 L 104.2396215070039 130.45454788208008 L 104.2178955078125 130.45454788208008 L 104.2178955078125 77.81818389892578" fill-opacity="1" clip-path="url(#sxlMOIrTgOHr)"/><path fill="rgb(119,0,0)" stroke="none" paint-order="stroke" d="M 104.23961639404297 77.81818389892578 L 104.28179039433599 77.81818389892578 L 104.28179039433599 130.45454788208008 L 104.23961639404297 130.45454788208008 L 104.23961639404297 77.81818389892578" fill-opacity="1" clip-path="url(#sxlMOIrTgOHr)"/><path fill="rgb(112,0,0)" stroke="none" paint-order="stroke" d="M 104.28179168701172 77.81818389892578 L 104.32524368539453 77.81818389892578 L 104.32524368539453 130.45454788208008 L 104.28179168701172 130.45454788208008 L 104.28179168701172 77.81818389892578" fill-opacity="1" clip-path="url(#sxlMOIrTgOHr)"/><path fill="rgb(104,0,0)" stroke="none" paint-order="stroke" d="M 104.32524871826172 77.81818389892578 L 104.36742271855474 77.81818389892578 L 104.36742271855474 130.45454788208008 L 104.32524871826172 130.45454788208008 L 104.32524871826172 77.81818389892578" fill-opacity="1" clip-path="url(#sxlMOIrTgOHr)"/><path fill="rgb(0,0,0)" stroke="none" paint-order="stroke" d="M 104.36741638183594 77.81818389892578 L 104.38914238102734 77.81818389892578 L 104.38914238102734 130.45454788208008 L 104.36741638183594 130.45454788208008 L 104.36741638183594 77.81818389892578" fill-opacity="1" clip-path="url(#sxlMOIrTgOHr)"/><path fill="rgb(0,0,0)" stroke="none" paint-order="stroke" d="M 104.38914489746094 77.81818389892578 L 104.43131889775395 77.81818389892578 L 104.43131889775395 130.45454788208008 L 104.38914489746094 130.45454788208008 L 104.38914489746094 77.81818389892578" fill-opacity="1" clip-path="url(#sxlMOIrTgOHr)"/><path fill="rgb(0,0,0)" stroke="none" paint-order="stroke" d="M 104.43132019042969 77.81818389892578 L 104.4734941907227 77.81818389892578 L 104.4734941907227 130.45454788208008 L 104.43132019042969 130.45454788208008 L 104.43132019042969 77.81818389892578" fill-opacity="1" clip-path="url(#sxlMOIrTgOHr)"/><path fill="rgb(0,0,0)" stroke="none" paint-order="stroke" d="M 104.47349548339844 77.81818389892578 L 104.49522148258984 77.81818389892578 L 104.49522148258984 130.45454788208008 L 104.47349548339844 130.45454788208008 L 104.47349548339844 77.81818389892578" fill-opacity="1" clip-path="url(#sxlMOIrTgOHr)"/><path fill="rgb(0,0,0)" stroke="none" paint-order="stroke" d="M 104.4952163696289 77.81818389892578 L 104.55911637097597 77.81818389892578 L 104.55911637097597 130.45454788208008 L 104.4952163696289 130.45454788208008 L 104.4952163696289 77.81818389892578" fill-opacity="1" clip-path="url(#sxlMOIrTgOHr)"/><path fill="rgb(0,0,0)" stroke="none" paint-order="stroke" d="M 104.55912017822266 77.81818389892578 L 106.3253161907196 77.81818389892578 L 106.3253161907196 130.45454788208008 L 104.55912017822266 130.45454788208008 L 104.55912017822266 77.81818389892578" fill-opacity="1" clip-path="url(#sxlMOIrTgOHr)"/><path fill="rgb(0,0,0)" stroke="none" paint-order="stroke" d="M 106.3253173828125 77.81818389892578 L 106.34576538205147 77.81818389892578 L 106.34576538205147 130.45454788208008 L 106.3253173828125 130.45454788208008 L 106.3253173828125 77.81818389892578" fill-opacity="1" clip-path="url(#sxlMOIrTgOHr)"/><path fill="rgb(104,0,0)" stroke="none" paint-order="stroke" d="M 106.34576416015625 77.81818389892578 L 106.36621215939522 77.81818389892578 L 106.36621215939522 130.45454788208008 L 106.34576416015625 130.45454788208008 L 106.34576416015625 77.81818389892578" fill-opacity="1" clip-path="url(#sxlMOIrTgOHr)"/><path fill="rgb(179,0,0)" stroke="none" paint-order="stroke" d="M 106.3662109375 77.81818389892578 L 106.3879369366914 77.81818389892578 L 106.3879369366914 130.45454788208008 L 106.3662109375 130.45454788208008 L 106.3662109375 77.81818389892578" fill-opacity="1" clip-path="url(#sxlMOIrTgOHr)"/><path fill="rgb(216,0,0)" stroke="none" paint-order="stroke" d="M 106.387939453125 77.81818389892578 L 106.4096654523164 77.81818389892578 L 106.4096654523164 130.45454788208008 L 106.387939453125 130.45454788208008 L 106.387939453125 77.81818389892578" fill-opacity="1" clip-path="url(#sxlMOIrTgOHr)"/><path fill="rgb(249,0,0)" stroke="none" paint-order="stroke" d="M 106.40966033935547 77.81818389892578 L 106.43010833859444 77.81818389892578 L 106.43010833859444 130.45454788208008 L 106.40966033935547 130.45454788208008 L 106.40966033935547 77.81818389892578" fill-opacity="1" clip-path="url(#sxlMOIrTgOHr)"/><path fill="rgb(255,83,0)" stroke="none" paint-order="stroke" d="M 106.43011474609375 77.81818389892578 L 106.45184074528515 77.81818389892578 L 106.45184074528515 130.45454788208008 L 106.43011474609375 130.45454788208008 L 106.43011474609375 77.81818389892578" fill-opacity="1" clip-path="url(#sxlMOIrTgOHr)"/><path fill="rgb(255,118,0)" stroke="none" paint-order="stroke" d="M 106.45183563232422 77.81818389892578 L 106.47356163151562 77.81818389892578 L 106.47356163151562 130.45454788208008 L 106.45183563232422 130.45454788208008 L 106.45183563232422 77.81818389892578" fill-opacity="1" clip-path="url(#sxlMOIrTgOHr)"/><path fill="rgb(255,137,0)" stroke="none" paint-order="stroke" d="M 106.47356414794922 77.81818389892578 L 106.49401214718819 77.81818389892578 L 106.49401214718819 130.45454788208008 L 106.47356414794922 130.45454788208008 L 106.47356414794922 77.81818389892578" fill-opacity="1" clip-path="url(#sxlMOIrTgOHr)"/><path fill="rgb(255,155,0)" stroke="none" paint-order="stroke" d="M 106.49401092529297 77.81818389892578 L 106.53746292367578 77.81818389892578 L 106.53746292367578 130.45454788208008 L 106.49401092529297 130.45454788208008 L 106.49401092529297 77.81818389892578" fill-opacity="1" clip-path="url(#sxlMOIrTgOHr)"/><path fill="rgb(255,190,0)" stroke="none" paint-order="stroke" d="M 106.53746032714844 77.81818389892578 L 106.57963432744145 77.81818389892578 L 106.57963432744145 130.45454788208008 L 106.53746032714844 130.45454788208008 L 106.53746032714844 77.81818389892578" fill-opacity="1" clip-path="url(#sxlMOIrTgOHr)"/><path fill="rgb(255,206,0)" stroke="none" paint-order="stroke" d="M 106.57963562011719 77.81818389892578 L 106.60136161930859 77.81818389892578 L 106.60136161930859 130.45454788208008 L 106.57963562011719 130.45454788208008 L 106.57963562011719 77.81818389892578" fill-opacity="1" clip-path="url(#sxlMOIrTgOHr)"/><path fill="rgb(255,223,0)" stroke="none" paint-order="stroke" d="M 106.60136413574219 77.81818389892578 L 106.62181213498116 77.81818389892578 L 106.62181213498116 130.45454788208008 L 106.60136413574219 130.45454788208008 L 106.60136413574219 77.81818389892578" fill-opacity="1" clip-path="url(#sxlMOIrTgOHr)"/><path fill="rgb(255,251,0)" stroke="none" paint-order="stroke" d="M 106.62181091308594 77.81818389892578 L 106.64353691227734 77.81818389892578 L 106.64353691227734 130.45454788208008 L 106.62181091308594 130.45454788208008 L 106.62181091308594 77.81818389892578" fill-opacity="1" clip-path="url(#sxlMOIrTgOHr)"/><path fill="rgb(228,255,0)" stroke="none" paint-order="stroke" d="M 106.64353942871094 77.81818389892578 L 106.66526542790234 77.81818389892578 L 106.66526542790234 130.45454788208008 L 106.64353942871094 130.45454788208008 L 106.64353942871094 77.81818389892578" fill-opacity="1" clip-path="url(#sxlMOIrTgOHr)"/><path fill="rgb(213,255,0)" stroke="none" paint-order="stroke" d="M 106.6652603149414 77.81818389892578 L 106.68570831418037 77.81818389892578 L 106.68570831418037 130.45454788208008 L 106.6652603149414 130.45454788208008 L 106.6652603149414 77.81818389892578" fill-opacity="1" clip-path="url(#sxlMOIrTgOHr)"/><path fill="rgb(166,255,0)" stroke="none" paint-order="stroke" d="M 106.68571472167969 77.81818389892578 L 106.70744072087109 77.81818389892578 L 106.70744072087109 130.45454788208008 L 106.68571472167969 130.45454788208008 L 106.68571472167969 77.81818389892578" fill-opacity="1" clip-path="url(#sxlMOIrTgOHr)"/><path fill="rgb(136,255,0)" stroke="none" paint-order="stroke" d="M 106.70743560791016 77.81818389892578 L 106.72916160710156 77.81818389892578 L 106.72916160710156 130.45454788208008 L 106.70743560791016 130.45454788208008 L 106.70743560791016 77.81818389892578" fill-opacity="1" clip-path="url(#sxlMOIrTgOHr)"/><path fill="rgb(101,255,0)" stroke="none" paint-order="stroke" d="M 106.72916412353516 77.81818389892578 L 106.74961212277412 77.81818389892578 L 106.74961212277412 130.45454788208008 L 106.72916412353516 130.45454788208008 L 106.72916412353516 77.81818389892578" fill-opacity="1" clip-path="url(#sxlMOIrTgOHr)"/><path fill="rgb(14,255,0)" stroke="none" paint-order="stroke" d="M 106.7496109008789 77.81818389892578 L 106.77133690007031 77.81818389892578 L 106.77133690007031 130.45454788208008 L 106.7496109008789 130.45454788208008 L 106.7496109008789 77.81818389892578" fill-opacity="1" clip-path="url(#sxlMOIrTgOHr)"/><path fill="rgb(0,255,169)" stroke="none" paint-order="stroke" d="M 106.7713394165039 77.81818389892578 L 106.79306541569531 77.81818389892578 L 106.79306541569531 130.45454788208008 L 106.7713394165039 130.45454788208008 L 106.7713394165039 77.81818389892578" fill-opacity="1" clip-path="url(#sxlMOIrTgOHr)"/><path fill="rgb(0,204,255)" stroke="none" paint-order="stroke" d="M 106.79306030273438 77.81818389892578 L 106.81350830197334 77.81818389892578 L 106.81350830197334 130.45454788208008 L 106.79306030273438 130.45454788208008 L 106.79306030273438 77.81818389892578" fill-opacity="1" clip-path="url(#sxlMOIrTgOHr)"/><path fill="rgb(0,141,255)" stroke="none" paint-order="stroke" d="M 106.81351470947266 77.81818389892578 L 106.83524070866406 77.81818389892578 L 106.83524070866406 130.45454788208008 L 106.81351470947266 130.45454788208008 L 106.81351470947266 77.81818389892578" fill-opacity="1" clip-path="url(#sxlMOIrTgOHr)"/><path fill="rgb(0,92,255)" stroke="none" paint-order="stroke" d="M 106.83523559570312 77.81818389892578 L 106.85696159489453 77.81818389892578 L 106.85696159489453 130.45454788208008 L 106.83523559570312 130.45454788208008 L 106.83523559570312 77.81818389892578" fill-opacity="1" clip-path="url(#sxlMOIrTgOHr)"/><path fill="rgb(0,33,255)" stroke="none" paint-order="stroke" d="M 106.85696411132812 77.81818389892578 L 106.8774121105671 77.81818389892578 L 106.8774121105671 130.45454788208008 L 106.85696411132812 130.45454788208008 L 106.85696411132812 77.81818389892578" fill-opacity="1" clip-path="url(#sxlMOIrTgOHr)"/><path fill="rgb(9,0,252)" stroke="none" paint-order="stroke" d="M 106.87741088867188 77.81818389892578 L 106.89913688786328 77.81818389892578 L 106.89913688786328 130.45454788208008 L 106.87741088867188 130.45454788208008 L 106.87741088867188 77.81818389892578" fill-opacity="1" clip-path="url(#sxlMOIrTgOHr)"/><path fill="rgb(38,0,240)" stroke="none" paint-order="stroke" d="M 106.89913940429688 77.81818389892578 L 107.60076141357422 77.81818389892578 L 107.60076141357422 130.45454788208008 L 106.89913940429688 130.45454788208008 L 106.89913940429688 77.81818389892578" fill-opacity="1" clip-path="url(#sxlMOIrTgOHr)"/><path fill="rgb(96,0,193)" stroke="none" paint-order="stroke" d="M 107.60076141357422 77.81818389892578 L 107.62248741276562 77.81818389892578 L 107.62248741276562 130.45454788208008 L 107.60076141357422 130.45454788208008 L 107.60076141357422 77.81818389892578" fill-opacity="1" clip-path="url(#sxlMOIrTgOHr)"/><path fill="rgb(105,0,115)" stroke="none" paint-order="stroke" d="M 107.62248229980469 77.81818389892578 L 107.64293029904366 77.81818389892578 L 107.64293029904366 130.45454788208008 L 107.62248229980469 130.45454788208008 L 107.62248229980469 77.81818389892578" fill-opacity="1" clip-path="url(#sxlMOIrTgOHr)"/><path fill="rgb(97,0,97)" stroke="none" paint-order="stroke" d="M 107.64293670654297 77.81818389892578 L 109.68390274047852 77.81818389892578 L 109.68390274047852 130.45454788208008 L 107.64293670654297 130.45454788208008 L 107.64293670654297 77.81818389892578" fill-opacity="1" clip-path="url(#sxlMOIrTgOHr)"/><path fill="rgb(105,0,115)" stroke="none" paint-order="stroke" d="M 109.68389892578125 77.81818389892578 L 109.72735092416406 77.81818389892578 L 109.72735092416406 130.45454788208008 L 109.68389892578125 130.45454788208008 L 109.68389892578125 77.81818389892578" fill-opacity="1" clip-path="url(#sxlMOIrTgOHr)"/><path fill="rgb(111,0,140)" stroke="none" paint-order="stroke" d="M 109.72734832763672 77.81818389892578 L 109.74907432682812 77.81818389892578 L 109.74907432682812 130.45454788208008 L 109.72734832763672 130.45454788208008 L 109.72734832763672 77.81818389892578" fill-opacity="1" clip-path="url(#sxlMOIrTgOHr)"/><path fill="rgb(111,0,154)" stroke="none" paint-order="stroke" d="M 109.74907684326172 77.81818389892578 L 109.76952484250069 77.81818389892578 L 109.76952484250069 130.45454788208008 L 109.74907684326172 130.45454788208008 L 109.74907684326172 77.81818389892578" fill-opacity="1" clip-path="url(#sxlMOIrTgOHr)"/><path fill="rgb(108,0,167)" stroke="none" paint-order="stroke" d="M 109.76952362060547 77.81818389892578 L 109.78997161984444 77.81818389892578 L 109.78997161984444 130.45454788208008 L 109.76952362060547 130.45454788208008 L 109.76952362060547 77.81818389892578" fill-opacity="1" clip-path="url(#sxlMOIrTgOHr)"/><path fill="rgb(72,0,218)" stroke="none" paint-order="stroke" d="M 109.78997039794922 77.81818389892578 L 109.81169639714062 77.81818389892578 L 109.81169639714062 130.45454788208008 L 109.78997039794922 130.45454788208008 L 109.78997039794922 77.81818389892578" fill-opacity="1" clip-path="url(#sxlMOIrTgOHr)"/><path fill="rgb(0,33,255)" stroke="none" paint-order="stroke" d="M 109.81169891357422 77.81818389892578 L 109.83342491276562 77.81818389892578 L 109.83342491276562 130.45454788208008 L 109.81169891357422 130.45454788208008 L 109.81169891357422 77.81818389892578" fill-opacity="1" clip-path="url(#sxlMOIrTgOHr)"/><path fill="rgb(0,141,255)" stroke="none" paint-order="stroke" d="M 109.83342742919922 77.81818389892578 L 109.85515342839062 77.81818389892578 L 109.85515342839062 130.45454788208008 L 109.83342742919922 130.45454788208008 L 109.83342742919922 77.81818389892578" fill-opacity="1" clip-path="url(#sxlMOIrTgOHr)"/><path fill="rgb(0,164,255)" stroke="none" paint-order="stroke" d="M 109.85514831542969 77.81818389892578 L 109.87559631466866 77.81818389892578 L 109.87559631466866 130.45454788208008 L 109.85514831542969 130.45454788208008 L 109.85514831542969 77.81818389892578" fill-opacity="1" clip-path="url(#sxlMOIrTgOHr)"/><path fill="rgb(0,182,255)" stroke="none" paint-order="stroke" d="M 109.87560272216797 77.81818389892578 L 109.89732872135937 77.81818389892578 L 109.89732872135937 130.45454788208008 L 109.87560272216797 130.45454788208008 L 109.87560272216797 77.81818389892578" fill-opacity="1" clip-path="url(#sxlMOIrTgOHr)"/><path fill="rgb(0,226,255)" stroke="none" paint-order="stroke" d="M 109.89732360839844 77.81818389892578 L 109.9177716076374 77.81818389892578 L 109.9177716076374 130.45454788208008 L 109.89732360839844 130.45454788208008 L 109.89732360839844 77.81818389892578" fill-opacity="1" clip-path="url(#sxlMOIrTgOHr)"/><path fill="rgb(0,255,223)" stroke="none" paint-order="stroke" d="M 109.91777038574219 77.81818389892578 L 109.93949638493359 77.81818389892578 L 109.93949638493359 130.45454788208008 L 109.91777038574219 130.45454788208008 L 109.91777038574219 77.81818389892578" fill-opacity="1" clip-path="url(#sxlMOIrTgOHr)"/><path fill="rgb(0,255,110)" stroke="none" paint-order="stroke" d="M 109.93949890136719 77.81818389892578 L 109.96122490055859 77.81818389892578 L 109.96122490055859 130.45454788208008 L 109.93949890136719 130.45454788208008 L 109.93949890136719 77.81818389892578" fill-opacity="1" clip-path="url(#sxlMOIrTgOHr)"/><path fill="rgb(0,255,40)" stroke="none" paint-order="stroke" d="M 109.96122741699219 77.81818389892578 L 109.98167541623116 77.81818389892578 L 109.98167541623116 130.45454788208008 L 109.96122741699219 130.45454788208008 L 109.96122741699219 77.81818389892578" fill-opacity="1" clip-path="url(#sxlMOIrTgOHr)"/><path fill="rgb(14,255,0)" stroke="none" paint-order="stroke" d="M 109.98167419433594 77.81818389892578 L 110.00340019352734 77.81818389892578 L 110.00340019352734 130.45454788208008 L 109.98167419433594 130.45454788208008 L 109.98167419433594 77.81818389892578" fill-opacity="1" clip-path="url(#sxlMOIrTgOHr)"/><path fill="rgb(40,255,0)" stroke="none" paint-order="stroke" d="M 110.00340270996094 77.81818389892578 L 110.04557671025395 77.81818389892578 L 110.04557671025395 130.45454788208008 L 110.00340270996094 130.45454788208008 L 110.00340270996094 77.81818389892578" fill-opacity="1" clip-path="url(#sxlMOIrTgOHr)"/><path fill="rgb(62,255,0)" stroke="none" paint-order="stroke" d="M 110.04557037353516 77.81818389892578 L 110.08902237191796 77.81818389892578 L 110.08902237191796 130.45454788208008 L 110.04557037353516 130.45454788208008 L 110.04557037353516 77.81818389892578" fill-opacity="1" clip-path="url(#sxlMOIrTgOHr)"/><path fill="rgb(82,255,0)" stroke="none" paint-order="stroke" d="M 110.08902740478516 77.81818389892578 L 110.13120140507817 77.81818389892578 L 110.13120140507817 130.45454788208008 L 110.08902740478516 130.45454788208008 L 110.08902740478516 77.81818389892578" fill-opacity="1" clip-path="url(#sxlMOIrTgOHr)"/><path fill="rgb(101,255,0)" stroke="none" paint-order="stroke" d="M 110.1312026977539 77.81818389892578 L 110.21555069833994 77.81818389892578 L 110.21555069833994 130.45454788208008 L 110.1312026977539 130.45454788208008 L 110.1312026977539 77.81818389892578" fill-opacity="1" clip-path="url(#sxlMOIrTgOHr)"/><path fill="rgb(119,255,0)" stroke="none" paint-order="stroke" d="M 110.21554565429688 77.81818389892578 L 110.25899765267968 77.81818389892578 L 110.25899765267968 130.45454788208008 L 110.21554565429688 130.45454788208008 L 110.21554565429688 77.81818389892578" fill-opacity="1" clip-path="url(#sxlMOIrTgOHr)"/><path fill="rgb(136,255,0)" stroke="none" paint-order="stroke" d="M 110.25900268554688 77.81818389892578 L 110.386802688241 77.81818389892578 L 110.386802688241 130.45454788208008 L 110.25900268554688 130.45454788208008 L 110.25900268554688 77.81818389892578" fill-opacity="1" clip-path="url(#sxlMOIrTgOHr)"/><path fill="rgb(149,255,0)" stroke="none" paint-order="stroke" d="M 110.38680267333984 77.81818389892578 L 110.43025467172265 77.81818389892578 L 110.43025467172265 130.45454788208008 L 110.38680267333984 130.45454788208008 L 110.38680267333984 77.81818389892578" fill-opacity="1" clip-path="url(#sxlMOIrTgOHr)"/><path fill="rgb(166,255,0)" stroke="none" paint-order="stroke" d="M 110.43025207519531 77.81818389892578 L 110.47242607548833 77.81818389892578 L 110.47242607548833 130.45454788208008 L 110.43025207519531 130.45454788208008 L 110.43025207519531 77.81818389892578" fill-opacity="1" clip-path="url(#sxlMOIrTgOHr)"/><path fill="rgb(182,255,0)" stroke="none" paint-order="stroke" d="M 110.47242736816406 77.81818389892578 L 110.51460136845708 77.81818389892578 L 110.51460136845708 130.45454788208008 L 110.47242736816406 130.45454788208008 L 110.47242736816406 77.81818389892578" fill-opacity="1" clip-path="url(#sxlMOIrTgOHr)"/><path fill="rgb(197,255,0)" stroke="none" paint-order="stroke" d="M 110.51460266113281 77.81818389892578 L 110.60022865980864 77.81818389892578 L 110.60022865980864 130.45454788208008 L 110.51460266113281 130.45454788208008 L 110.51460266113281 77.81818389892578" fill-opacity="1" clip-path="url(#sxlMOIrTgOHr)"/><path fill="rgb(213,255,0)" stroke="none" paint-order="stroke" d="M 110.60022735595703 77.81818389892578 L 110.62195335514843 77.81818389892578 L 110.62195335514843 130.45454788208008 L 110.60022735595703 130.45454788208008 L 110.60022735595703 77.81818389892578" fill-opacity="1" clip-path="url(#sxlMOIrTgOHr)"/><path fill="rgb(228,255,0)" stroke="none" paint-order="stroke" d="M 110.6219482421875 77.81818389892578 L 110.70629624277353 77.81818389892578 L 110.70629624277353 130.45454788208008 L 110.6219482421875 130.45454788208008 L 110.6219482421875 77.81818389892578" fill-opacity="1" clip-path="url(#sxlMOIrTgOHr)"/><path fill="rgb(243,255,0)" stroke="none" paint-order="stroke" d="M 110.706298828125 77.81818389892578 L 110.7497508265078 77.81818389892578 L 110.7497508265078 130.45454788208008 L 110.706298828125 130.45454788208008 L 110.706298828125 77.81818389892578" fill-opacity="1" clip-path="url(#sxlMOIrTgOHr)"/><path fill="rgb(255,239,0)" stroke="none" paint-order="stroke" d="M 110.74974822998047 77.81818389892578 L 110.81237023323774 77.81818389892578 L 110.81237023323774 130.45454788208008 L 110.74974822998047 130.45454788208008 L 110.74974822998047 77.81818389892578" fill-opacity="1" clip-path="url(#sxlMOIrTgOHr)"/><path fill="rgb(255,223,0)" stroke="none" paint-order="stroke" d="M 110.81237030029297 77.81818389892578 L 110.85454430058599 77.81818389892578 L 110.85454430058599 130.45454788208008 L 110.81237030029297 130.45454788208008 L 110.81237030029297 77.81818389892578" fill-opacity="1" clip-path="url(#sxlMOIrTgOHr)"/><path fill="rgb(255,206,0)" stroke="none" paint-order="stroke" d="M 110.85454559326172 77.81818389892578 L 110.89799759164453 77.81818389892578 L 110.89799759164453 130.45454788208008 L 110.85454559326172 130.45454788208008 L 110.85454559326172 77.81818389892578" fill-opacity="1" clip-path="url(#sxlMOIrTgOHr)"/><path fill="rgb(255,190,0)" stroke="none" paint-order="stroke" d="M 110.89800262451172 77.81818389892578 L 111.02452462911606 77.81818389892578 L 111.02452462911606 130.45454788208008 L 110.89800262451172 130.45454788208008 L 110.89800262451172 77.81818389892578" fill-opacity="1" clip-path="url(#sxlMOIrTgOHr)"/><path fill="rgb(255,155,0)" stroke="none" paint-order="stroke" d="M 111.02452087402344 77.81818389892578 L 111.11014687269926 77.81818389892578 L 111.11014687269926 130.45454788208008 L 111.02452087402344 130.45454788208008 L 111.02452087402344 77.81818389892578" fill-opacity="1" clip-path="url(#sxlMOIrTgOHr)"/><path fill="rgb(255,137,0)" stroke="none" paint-order="stroke" d="M 111.11014556884766 77.81818389892578 L 111.15231956914067 77.81818389892578 L 111.15231956914067 130.45454788208008 L 111.11014556884766 130.45454788208008 L 111.11014556884766 77.81818389892578" fill-opacity="1" clip-path="url(#sxlMOIrTgOHr)"/><path fill="rgb(255,118,0)" stroke="none" paint-order="stroke" d="M 111.1523208618164 77.81818389892578 L 111.23794686049223 77.81818389892578 L 111.23794686049223 130.45454788208008 L 111.1523208618164 130.45454788208008 L 111.1523208618164 77.81818389892578" fill-opacity="1" clip-path="url(#sxlMOIrTgOHr)"/><path fill="rgb(255,103,0)" stroke="none" paint-order="stroke" d="M 111.23794555664062 77.81818389892578 L 111.32357155531645 77.81818389892578 L 111.32357155531645 130.45454788208008 L 111.23794555664062 130.45454788208008 L 111.23794555664062 77.81818389892578" fill-opacity="1" clip-path="url(#sxlMOIrTgOHr)"/><path fill="rgb(255,83,0)" stroke="none" paint-order="stroke" d="M 111.32357025146484 77.81818389892578 L 112.0469182729721 77.81818389892578 L 112.0469182729721 130.45454788208008 L 111.32357025146484 130.45454788208008 L 111.32357025146484 77.81818389892578" fill-opacity="1" clip-path="url(#sxlMOIrTgOHr)"/><path fill="rgb(255,118,0)" stroke="none" paint-order="stroke" d="M 112.04692077636719 77.81818389892578 L 112.0890947766602 77.81818389892578 L 112.0890947766602 130.45454788208008 L 112.04692077636719 130.45454788208008 L 112.04692077636719 77.81818389892578" fill-opacity="1" clip-path="url(#sxlMOIrTgOHr)"/><path fill="rgb(255,137,0)" stroke="none" paint-order="stroke" d="M 112.08909606933594 77.81818389892578 L 112.11082206852734 77.81818389892578 L 112.11082206852734 130.45454788208008 L 112.08909606933594 130.45454788208008 L 112.08909606933594 77.81818389892578" fill-opacity="1" clip-path="url(#sxlMOIrTgOHr)"/><path fill="rgb(255,155,0)" stroke="none" paint-order="stroke" d="M 112.11082458496094 77.81818389892578 L 112.17344658821821 77.81818389892578 L 112.17344658821821 130.45454788208008 L 112.11082458496094 130.45454788208008 L 112.11082458496094 77.81818389892578" fill-opacity="1" clip-path="url(#sxlMOIrTgOHr)"/><path fill="rgb(255,172,0)" stroke="none" paint-order="stroke" d="M 112.17344665527344 77.81818389892578 L 112.21689865365624 77.81818389892578 L 112.21689865365624 130.45454788208008 L 112.17344665527344 130.45454788208008 L 112.17344665527344 77.81818389892578" fill-opacity="1" clip-path="url(#sxlMOIrTgOHr)"/><path fill="rgb(255,190,0)" stroke="none" paint-order="stroke" d="M 112.2168960571289 77.81818389892578 L 112.38687005639076 77.81818389892578 L 112.38687005639076 130.45454788208008 L 112.2168960571289 130.45454788208008 L 112.2168960571289 77.81818389892578" fill-opacity="1" clip-path="url(#sxlMOIrTgOHr)"/><path fill="rgb(255,206,0)" stroke="none" paint-order="stroke" d="M 112.38687133789062 77.81818389892578 L 112.42904533818364 77.81818389892578 L 112.42904533818364 130.45454788208008 L 112.38687133789062 130.45454788208008 L 112.38687133789062 77.81818389892578" fill-opacity="1" clip-path="url(#sxlMOIrTgOHr)"/><path fill="rgb(255,223,0)" stroke="none" paint-order="stroke" d="M 112.42904663085938 77.81818389892578 L 113.36454260349274 77.81818389892578 L 113.36454260349274 130.45454788208008 L 112.42904663085938 130.45454788208008 L 112.42904663085938 77.81818389892578" fill-opacity="1" clip-path="url(#sxlMOIrTgOHr)"/><path fill="rgb(255,206,0)" stroke="none" paint-order="stroke" d="M 113.36454010009766 77.81818389892578 L 114.11089211702347 77.81818389892578 L 114.11089211702347 130.45454788208008 L 113.36454010009766 130.45454788208008 L 113.36454010009766 77.81818389892578" fill-opacity="1" clip-path="url(#sxlMOIrTgOHr)"/><path fill="rgb(255,190,0)" stroke="none" paint-order="stroke" d="M 114.11089324951172 77.81818389892578 L 114.15178924798965 77.81818389892578 L 114.15178924798965 130.45454788208008 L 114.11089324951172 130.45454788208008 L 114.11089324951172 77.81818389892578" fill-opacity="1" clip-path="url(#sxlMOIrTgOHr)"/><path fill="rgb(255,172,0)" stroke="none" paint-order="stroke" d="M 114.15178680419922 77.81818389892578 L 114.30003480613232 77.81818389892578 L 114.30003480613232 130.45454788208008 L 114.15178680419922 130.45454788208008 L 114.15178680419922 77.81818389892578" fill-opacity="1" clip-path="url(#sxlMOIrTgOHr)"/><path fill="rgb(255,155,0)" stroke="none" paint-order="stroke" d="M 114.30003356933594 77.81818389892578 L 114.87513357400894 77.81818389892578 L 114.87513357400894 130.45454788208008 L 114.30003356933594 130.45454788208008 L 114.30003356933594 77.81818389892578" fill-opacity="1" clip-path="url(#sxlMOIrTgOHr)"/><path fill="rgb(255,137,0)" stroke="none" paint-order="stroke" d="M 114.87513732910156 77.81818389892578 L 114.89558532834053 77.81818389892578 L 114.89558532834053 130.45454788208008 L 114.87513732910156 130.45454788208008 L 114.87513732910156 77.81818389892578" fill-opacity="1" clip-path="url(#sxlMOIrTgOHr)"/><path fill="rgb(255,118,0)" stroke="none" paint-order="stroke" d="M 114.89558410644531 77.81818389892578 L 114.93903610482812 77.81818389892578 L 114.93903610482812 130.45454788208008 L 114.89558410644531 130.45454788208008 L 114.89558410644531 77.81818389892578" fill-opacity="1" clip-path="url(#sxlMOIrTgOHr)"/><path fill="rgb(255,83,0)" stroke="none" paint-order="stroke" d="M 114.93903350830078 77.81818389892578 L 114.9812075085938 77.81818389892578 L 114.9812075085938 130.45454788208008 L 114.93903350830078 130.45454788208008 L 114.93903350830078 77.81818389892578" fill-opacity="1" clip-path="url(#sxlMOIrTgOHr)"/><path fill="rgb(255,61,0)" stroke="none" paint-order="stroke" d="M 114.98120880126953 77.81818389892578 L 115.00293480046093 77.81818389892578 L 115.00293480046093 130.45454788208008 L 114.98120880126953 130.45454788208008 L 114.98120880126953 77.81818389892578" fill-opacity="1" clip-path="url(#sxlMOIrTgOHr)"/><path fill="rgb(255,37,0)" stroke="none" paint-order="stroke" d="M 115.00293731689453 77.81818389892578 L 115.06811531633139 77.81818389892578 L 115.06811531633139 130.45454788208008 L 115.00293731689453 130.45454788208008 L 115.00293731689453 77.81818389892578" fill-opacity="1" clip-path="url(#sxlMOIrTgOHr)"/><path fill="rgb(255,9,0)" stroke="none" paint-order="stroke" d="M 115.068115234375 77.81818389892578 L 115.08856323361397 77.81818389892578 L 115.08856323361397 130.45454788208008 L 115.068115234375 130.45454788208008 L 115.068115234375 77.81818389892578" fill-opacity="1" clip-path="url(#sxlMOIrTgOHr)"/><path fill="rgb(249,0,0)" stroke="none" paint-order="stroke" d="M 115.08856201171875 77.81818389892578 L 115.13201401010156 77.81818389892578 L 115.13201401010156 130.45454788208008 L 115.08856201171875 130.45454788208008 L 115.08856201171875 77.81818389892578" fill-opacity="1" clip-path="url(#sxlMOIrTgOHr)"/><path fill="rgb(235,0,0)" stroke="none" paint-order="stroke" d="M 115.13201141357422 77.81818389892578 L 115.19591141492128 77.81818389892578 L 115.19591141492128 130.45454788208008 L 115.13201141357422 130.45454788208008 L 115.13201141357422 77.81818389892578" fill-opacity="1" clip-path="url(#sxlMOIrTgOHr)"/><path fill="rgb(230,0,0)" stroke="none" paint-order="stroke" d="M 115.19591522216797 77.81818389892578 L 115.2150852214545 77.81818389892578 L 115.2150852214545 130.45454788208008 L 115.19591522216797 130.45454788208008 L 115.19591522216797 77.81818389892578" fill-opacity="1" clip-path="url(#sxlMOIrTgOHr)"/><path fill="rgb(223,0,0)" stroke="none" paint-order="stroke" d="M 115.21508026123047 77.81818389892578 L 115.25853225961328 77.81818389892578 L 115.25853225961328 130.45454788208008 L 115.21508026123047 130.45454788208008 L 115.21508026123047 77.81818389892578" fill-opacity="1" clip-path="url(#sxlMOIrTgOHr)"/><path fill="rgb(216,0,0)" stroke="none" paint-order="stroke" d="M 115.25853729248047 77.81818389892578 L 115.27898529171944 77.81818389892578 L 115.27898529171944 130.45454788208008 L 115.25853729248047 130.45454788208008 L 115.25853729248047 77.81818389892578" fill-opacity="1" clip-path="url(#sxlMOIrTgOHr)"/><path fill="rgb(209,0,0)" stroke="none" paint-order="stroke" d="M 115.27898406982422 77.81818389892578 L 115.34288407117128 77.81818389892578 L 115.34288407117128 130.45454788208008 L 115.27898406982422 130.45454788208008 L 115.27898406982422 77.81818389892578" fill-opacity="1" clip-path="url(#sxlMOIrTgOHr)"/><path fill="rgb(194,0,0)" stroke="none" paint-order="stroke" d="M 115.34288024902344 77.81818389892578 L 115.38633224740624 77.81818389892578 L 115.38633224740624 130.45454788208008 L 115.34288024902344 130.45454788208008 L 115.34288024902344 77.81818389892578" fill-opacity="1" clip-path="url(#sxlMOIrTgOHr)"/><path fill="rgb(187,0,0)" stroke="none" paint-order="stroke" d="M 115.38633728027344 77.81818389892578 L 115.4067852795124 77.81818389892578 L 115.4067852795124 130.45454788208008 L 115.38633728027344 130.45454788208008 L 115.38633728027344 77.81818389892578" fill-opacity="1" clip-path="url(#sxlMOIrTgOHr)"/><path fill="rgb(179,0,0)" stroke="none" paint-order="stroke" d="M 115.40678405761719 77.81818389892578 L 115.450236056 77.81818389892578 L 115.450236056 130.45454788208008 L 115.40678405761719 130.45454788208008 L 115.40678405761719 77.81818389892578" fill-opacity="1" clip-path="url(#sxlMOIrTgOHr)"/><path fill="rgb(173,0,0)" stroke="none" paint-order="stroke" d="M 115.45023345947266 77.81818389892578 L 115.47068145871162 77.81818389892578 L 115.47068145871162 130.45454788208008 L 115.45023345947266 130.45454788208008 L 115.45023345947266 77.81818389892578" fill-opacity="1" clip-path="url(#sxlMOIrTgOHr)"/><path fill="rgb(166,0,0)" stroke="none" paint-order="stroke" d="M 115.4706802368164 77.81818389892578 L 115.49240623600781 77.81818389892578 L 115.49240623600781 130.45454788208008 L 115.4706802368164 130.45454788208008 L 115.4706802368164 77.81818389892578" fill-opacity="1" clip-path="url(#sxlMOIrTgOHr)"/><path fill="rgb(143,0,0)" stroke="none" paint-order="stroke" d="M 115.4924087524414 77.81818389892578 L 115.51413475163281 77.81818389892578 L 115.51413475163281 130.45454788208008 L 115.4924087524414 130.45454788208008 L 115.4924087524414 77.81818389892578" fill-opacity="1" clip-path="url(#sxlMOIrTgOHr)"/><path fill="rgb(127,0,0)" stroke="none" paint-order="stroke" d="M 115.5141372680664 77.81818389892578 L 115.53458526730537 77.81818389892578 L 115.53458526730537 130.45454788208008 L 115.5141372680664 130.45454788208008 L 115.5141372680664 77.81818389892578" fill-opacity="1" clip-path="url(#sxlMOIrTgOHr)"/><path fill="rgb(112,0,0)" stroke="none" paint-order="stroke" d="M 115.53458404541016 77.81818389892578 L 115.55631004460156 77.81818389892578 L 115.55631004460156 130.45454788208008 L 115.53458404541016 130.45454788208008 L 115.53458404541016 77.81818389892578" fill-opacity="1" clip-path="url(#sxlMOIrTgOHr)"/><path fill="rgb(0,0,0)" stroke="none" paint-order="stroke" d="M 115.55631256103516 77.81818389892578 L 115.57803856022656 77.81818389892578 L 115.57803856022656 130.45454788208008 L 115.55631256103516 130.45454788208008 L 115.55631256103516 77.81818389892578" fill-opacity="1" clip-path="url(#sxlMOIrTgOHr)"/><path fill="rgb(0,0,0)" stroke="none" paint-order="stroke" d="M 115.57803344726562 77.81818389892578 L 115.5984814465046 77.81818389892578 L 115.5984814465046 130.45454788208008 L 115.57803344726562 130.45454788208008 L 115.57803344726562 77.81818389892578" fill-opacity="1" clip-path="url(#sxlMOIrTgOHr)"/><path fill="rgb(0,0,0)" stroke="none" paint-order="stroke" d="M 115.59848022460938 77.81818389892578 L 115.64065422490239 77.81818389892578 L 115.64065422490239 130.45454788208008 L 115.59848022460938 130.45454788208008 L 115.59848022460938 77.81818389892578" fill-opacity="1" clip-path="url(#sxlMOIrTgOHr)"/><path fill="rgb(0,0,0)" stroke="none" paint-order="stroke" d="M 115.64065551757812 77.81818389892578 L 118.72446942329407 77.81818389892578 L 118.72446942329407 130.45454788208008 L 115.64065551757812 130.45454788208008 L 115.64065551757812 77.81818389892578" fill-opacity="1" clip-path="url(#sxlMOIrTgOHr)"/><path fill="rgb(0,0,0)" stroke="none" paint-order="stroke" d="M 118.72447204589844 77.81818389892578 L 118.74619804508984 77.81818389892578 L 118.74619804508984 130.45454788208008 L 118.72447204589844 130.45454788208008 L 118.72447204589844 77.81818389892578" fill-opacity="1" clip-path="url(#sxlMOIrTgOHr)"/><path fill="rgb(104,0,0)" stroke="none" paint-order="stroke" d="M 118.74620056152344 77.81818389892578 L 118.76792656071484 77.81818389892578 L 118.76792656071484 130.45454788208008 L 118.74620056152344 130.45454788208008 L 118.74620056152344 77.81818389892578" fill-opacity="1" clip-path="url(#sxlMOIrTgOHr)"/><path fill="rgb(119,0,0)" stroke="none" paint-order="stroke" d="M 118.7679214477539 77.81818389892578 L 118.78836944699287 77.81818389892578 L 118.78836944699287 130.45454788208008 L 118.7679214477539 130.45454788208008 L 118.7679214477539 77.81818389892578" fill-opacity="1" clip-path="url(#sxlMOIrTgOHr)"/><path fill="rgb(135,0,0)" stroke="none" paint-order="stroke" d="M 118.78836822509766 77.81818389892578 L 118.81009422428906 77.81818389892578 L 118.81009422428906 130.45454788208008 L 118.78836822509766 130.45454788208008 L 118.78836822509766 77.81818389892578" fill-opacity="1" clip-path="url(#sxlMOIrTgOHr)"/><path fill="rgb(143,0,0)" stroke="none" paint-order="stroke" d="M 118.81009674072266 77.81818389892578 L 118.83182273991406 77.81818389892578 L 118.83182273991406 130.45454788208008 L 118.81009674072266 130.45454788208008 L 118.81009674072266 77.81818389892578" fill-opacity="1" clip-path="url(#sxlMOIrTgOHr)"/><path fill="rgb(151,0,0)" stroke="none" paint-order="stroke" d="M 118.83182525634766 77.81818389892578 L 118.85227325558662 77.81818389892578 L 118.85227325558662 130.45454788208008 L 118.83182525634766 130.45454788208008 L 118.83182525634766 77.81818389892578" fill-opacity="1" clip-path="url(#sxlMOIrTgOHr)"/><path fill="rgb(158,0,0)" stroke="none" paint-order="stroke" d="M 118.8522720336914 77.81818389892578 L 118.87399803288281 77.81818389892578 L 118.87399803288281 130.45454788208008 L 118.8522720336914 130.45454788208008 L 118.8522720336914 77.81818389892578" fill-opacity="1" clip-path="url(#sxlMOIrTgOHr)"/><path fill="rgb(166,0,0)" stroke="none" paint-order="stroke" d="M 118.8740005493164 77.81818389892578 L 118.91617454960942 77.81818389892578 L 118.91617454960942 130.45454788208008 L 118.8740005493164 130.45454788208008 L 118.8740005493164 77.81818389892578" fill-opacity="1" clip-path="url(#sxlMOIrTgOHr)"/><path fill="rgb(173,0,0)" stroke="none" paint-order="stroke" d="M 118.91616821289062 77.81818389892578 L 118.93789421208203 77.81818389892578 L 118.93789421208203 130.45454788208008 L 118.91616821289062 130.45454788208008 L 118.91616821289062 77.81818389892578" fill-opacity="1" clip-path="url(#sxlMOIrTgOHr)"/><path fill="rgb(179,0,0)" stroke="none" paint-order="stroke" d="M 118.93789672851562 77.81818389892578 L 118.9583447277546 77.81818389892578 L 118.9583447277546 130.45454788208008 L 118.93789672851562 130.45454788208008 L 118.93789672851562 77.81818389892578" fill-opacity="1" clip-path="url(#sxlMOIrTgOHr)"/><path fill="rgb(187,0,0)" stroke="none" paint-order="stroke" d="M 118.95834350585938 77.81818389892578 L 118.98006950505078 77.81818389892578 L 118.98006950505078 130.45454788208008 L 118.95834350585938 130.45454788208008 L 118.95834350585938 77.81818389892578" fill-opacity="1" clip-path="url(#sxlMOIrTgOHr)"/><path fill="rgb(194,0,0)" stroke="none" paint-order="stroke" d="M 118.98007202148438 77.81818389892578 L 119.02224602177739 77.81818389892578 L 119.02224602177739 130.45454788208008 L 118.98007202148438 130.45454788208008 L 118.98007202148438 77.81818389892578" fill-opacity="1" clip-path="url(#sxlMOIrTgOHr)"/><path fill="rgb(201,0,0)" stroke="none" paint-order="stroke" d="M 119.02224731445312 77.81818389892578 L 119.06569931283593 77.81818389892578 L 119.06569931283593 130.45454788208008 L 119.02224731445312 130.45454788208008 L 119.02224731445312 77.81818389892578" fill-opacity="1" clip-path="url(#sxlMOIrTgOHr)"/><path fill="rgb(209,0,0)" stroke="none" paint-order="stroke" d="M 119.0656967163086 77.81818389892578 L 119.10787071660161 77.81818389892578 L 119.10787071660161 130.45454788208008 L 119.0656967163086 130.45454788208008 L 119.0656967163086 77.81818389892578" fill-opacity="1" clip-path="url(#sxlMOIrTgOHr)"/><path fill="rgb(223,0,0)" stroke="none" paint-order="stroke" d="M 119.10787200927734 77.81818389892578 L 119.12959800846875 77.81818389892578 L 119.12959800846875 130.45454788208008 L 119.10787200927734 130.45454788208008 L 119.10787200927734 77.81818389892578" fill-opacity="1" clip-path="url(#sxlMOIrTgOHr)"/><path fill="rgb(230,0,0)" stroke="none" paint-order="stroke" d="M 119.12960052490234 77.81818389892578 L 119.15004852414131 77.81818389892578 L 119.15004852414131 130.45454788208008 L 119.12960052490234 130.45454788208008 L 119.12960052490234 77.81818389892578" fill-opacity="1" clip-path="url(#sxlMOIrTgOHr)"/><path fill="rgb(235,0,0)" stroke="none" paint-order="stroke" d="M 119.1500473022461 77.81818389892578 L 119.1717733014375 77.81818389892578 L 119.1717733014375 130.45454788208008 L 119.1500473022461 130.45454788208008 L 119.1500473022461 77.81818389892578" fill-opacity="1" clip-path="url(#sxlMOIrTgOHr)"/><path fill="rgb(242,0,0)" stroke="none" paint-order="stroke" d="M 119.17176818847656 77.81818389892578 L 119.19349418766797 77.81818389892578 L 119.19349418766797 130.45454788208008 L 119.17176818847656 130.45454788208008 L 119.17176818847656 77.81818389892578" fill-opacity="1" clip-path="url(#sxlMOIrTgOHr)"/><path fill="rgb(249,0,0)" stroke="none" paint-order="stroke" d="M 119.19349670410156 77.81818389892578 L 119.21394470334053 77.81818389892578 L 119.21394470334053 130.45454788208008 L 119.19349670410156 130.45454788208008 L 119.19349670410156 77.81818389892578" fill-opacity="1" clip-path="url(#sxlMOIrTgOHr)"/><path fill="rgb(255,61,0)" stroke="none" paint-order="stroke" d="M 119.21394348144531 77.81818389892578 L 119.23566948063672 77.81818389892578 L 119.23566948063672 130.45454788208008 L 119.21394348144531 130.45454788208008 L 119.21394348144531 77.81818389892578" fill-opacity="1" clip-path="url(#sxlMOIrTgOHr)"/><path fill="rgb(255,83,0)" stroke="none" paint-order="stroke" d="M 119.23567199707031 77.81818389892578 L 119.25611999630928 77.81818389892578 L 119.25611999630928 130.45454788208008 L 119.23567199707031 130.45454788208008 L 119.23567199707031 77.81818389892578" fill-opacity="1" clip-path="url(#sxlMOIrTgOHr)"/><path fill="rgb(255,103,0)" stroke="none" paint-order="stroke" d="M 119.25611877441406 77.81818389892578 L 119.27784477360547 77.81818389892578 L 119.27784477360547 130.45454788208008 L 119.25611877441406 130.45454788208008 L 119.25611877441406 77.81818389892578" fill-opacity="1" clip-path="url(#sxlMOIrTgOHr)"/><path fill="rgb(255,118,0)" stroke="none" paint-order="stroke" d="M 119.27784729003906 77.81818389892578 L 119.29957328923047 77.81818389892578 L 119.29957328923047 130.45454788208008 L 119.27784729003906 130.45454788208008 L 119.27784729003906 77.81818389892578" fill-opacity="1" clip-path="url(#sxlMOIrTgOHr)"/><path fill="rgb(255,137,0)" stroke="none" paint-order="stroke" d="M 119.29957580566406 77.81818389892578 L 119.32002380490303 77.81818389892578 L 119.32002380490303 130.45454788208008 L 119.29957580566406 130.45454788208008 L 119.29957580566406 77.81818389892578" fill-opacity="1" clip-path="url(#sxlMOIrTgOHr)"/><path fill="rgb(255,172,0)" stroke="none" paint-order="stroke" d="M 119.32002258300781 77.81818389892578 L 119.34174858219922 77.81818389892578 L 119.34174858219922 130.45454788208008 L 119.32002258300781 130.45454788208008 L 119.32002258300781 77.81818389892578" fill-opacity="1" clip-path="url(#sxlMOIrTgOHr)"/><path fill="rgb(255,190,0)" stroke="none" paint-order="stroke" d="M 119.34174346923828 77.81818389892578 L 119.36346946842968 77.81818389892578 L 119.36346946842968 130.45454788208008 L 119.34174346923828 130.45454788208008 L 119.34174346923828 77.81818389892578" fill-opacity="1" clip-path="url(#sxlMOIrTgOHr)"/><path fill="rgb(255,206,0)" stroke="none" paint-order="stroke" d="M 119.36347198486328 77.81818389892578 L 119.38391998410225 77.81818389892578 L 119.38391998410225 130.45454788208008 L 119.36347198486328 130.45454788208008 L 119.36347198486328 77.81818389892578" fill-opacity="1" clip-path="url(#sxlMOIrTgOHr)"/><path fill="rgb(255,223,0)" stroke="none" paint-order="stroke" d="M 119.38391876220703 77.81818389892578 L 119.4478187635541 77.81818389892578 L 119.4478187635541 130.45454788208008 L 119.38391876220703 130.45454788208008 L 119.38391876220703 77.81818389892578" fill-opacity="1" clip-path="url(#sxlMOIrTgOHr)"/><path fill="rgb(255,251,0)" stroke="none" paint-order="stroke" d="M 119.44782257080078 77.81818389892578 L 119.49127456918359 77.81818389892578 L 119.49127456918359 130.45454788208008 L 119.44782257080078 130.45454788208008 L 119.44782257080078 77.81818389892578" fill-opacity="1" clip-path="url(#sxlMOIrTgOHr)"/><path fill="rgb(243,255,0)" stroke="none" paint-order="stroke" d="M 119.49127197265625 77.81818389892578 L 119.53344597294927 77.81818389892578 L 119.53344597294927 130.45454788208008 L 119.49127197265625 130.45454788208008 L 119.49127197265625 77.81818389892578" fill-opacity="1" clip-path="url(#sxlMOIrTgOHr)"/><path fill="rgb(228,255,0)" stroke="none" paint-order="stroke" d="M 119.533447265625 77.81818389892578 L 119.66124726831913 77.81818389892578 L 119.66124726831913 130.45454788208008 L 119.533447265625 130.45454788208008 L 119.533447265625 77.81818389892578" fill-opacity="1" clip-path="url(#sxlMOIrTgOHr)"/><path fill="rgb(213,255,0)" stroke="none" paint-order="stroke" d="M 119.66124725341797 77.81818389892578 L 119.70342125371099 77.81818389892578 L 119.70342125371099 130.45454788208008 L 119.66124725341797 130.45454788208008 L 119.66124725341797 77.81818389892578" fill-opacity="1" clip-path="url(#sxlMOIrTgOHr)"/><path fill="rgb(197,255,0)" stroke="none" paint-order="stroke" d="M 119.70342254638672 77.81818389892578 L 119.76732254773378 77.81818389892578 L 119.76732254773378 130.45454788208008 L 119.70342254638672 130.45454788208008 L 119.70342254638672 77.81818389892578" fill-opacity="1" clip-path="url(#sxlMOIrTgOHr)"/><path fill="rgb(182,255,0)" stroke="none" paint-order="stroke" d="M 119.76731872558594 77.81818389892578 L 119.80949272587895 77.81818389892578 L 119.80949272587895 130.45454788208008 L 119.76731872558594 130.45454788208008 L 119.76731872558594 77.81818389892578" fill-opacity="1" clip-path="url(#sxlMOIrTgOHr)"/><path fill="rgb(166,255,0)" stroke="none" paint-order="stroke" d="M 119.80949401855469 77.81818389892578 L 119.8963980153203 77.81818389892578 L 119.8963980153203 130.45454788208008 L 119.80949401855469 130.45454788208008 L 119.80949401855469 77.81818389892578" fill-opacity="1" clip-path="url(#sxlMOIrTgOHr)"/><path fill="rgb(149,255,0)" stroke="none" paint-order="stroke" d="M 119.89640045166016 77.81818389892578 L 119.93729645013809 77.81818389892578 L 119.93729645013809 130.45454788208008 L 119.89640045166016 130.45454788208008 L 119.89640045166016 77.81818389892578" fill-opacity="1" clip-path="url(#sxlMOIrTgOHr)"/><path fill="rgb(136,255,0)" stroke="none" paint-order="stroke" d="M 119.93729400634766 77.81818389892578 L 120.70281600952148 77.81818389892578 L 120.70281600952148 130.45454788208008 L 119.93729400634766 130.45454788208008 L 119.93729400634766 77.81818389892578" fill-opacity="1" clip-path="url(#sxlMOIrTgOHr)"/><path fill="rgb(119,255,0)" stroke="none" paint-order="stroke" d="M 120.70281219482422 77.81818389892578 L 120.81016419827938 77.81818389892578 L 120.81016419827938 130.45454788208008 L 120.70281219482422 130.45454788208008 L 120.70281219482422 77.81818389892578" fill-opacity="1" clip-path="url(#sxlMOIrTgOHr)"/><path fill="rgb(101,255,0)" stroke="none" paint-order="stroke" d="M 120.81016540527344 77.81818389892578 L 120.8740654066205 77.81818389892578 L 120.8740654066205 130.45454788208008 L 120.81016540527344 130.45454788208008 L 120.81016540527344 77.81818389892578" fill-opacity="1" clip-path="url(#sxlMOIrTgOHr)"/><path fill="rgb(82,255,0)" stroke="none" paint-order="stroke" d="M 120.87406921386719 77.81818389892578 L 120.98014321178198 77.81818389892578 L 120.98014321178198 130.45454788208008 L 120.87406921386719 130.45454788208008 L 120.87406921386719 77.81818389892578" fill-opacity="1" clip-path="url(#sxlMOIrTgOHr)"/><path fill="rgb(62,255,0)" stroke="none" paint-order="stroke" d="M 120.98014068603516 77.81818389892578 L 121.08621468394995 77.81818389892578 L 121.08621468394995 130.45454788208008 L 120.98014068603516 130.45454788208008 L 120.98014068603516 77.81818389892578" fill-opacity="1" clip-path="url(#sxlMOIrTgOHr)"/><path fill="rgb(40,255,0)" stroke="none" paint-order="stroke" d="M 121.08621978759766 77.81818389892578 L 121.55396777391434 77.81818389892578 L 121.55396777391434 130.45454788208008 L 121.08621978759766 130.45454788208008 L 121.08621978759766 77.81818389892578" fill-opacity="1" clip-path="url(#sxlMOIrTgOHr)"/><path fill="rgb(14,255,0)" stroke="none" paint-order="stroke" d="M 121.55396270751953 77.81818389892578 L 121.66003670543432 77.81818389892578 L 121.66003670543432 130.45454788208008 L 121.55396270751953 130.45454788208008 L 121.55396270751953 77.81818389892578" fill-opacity="1" clip-path="url(#sxlMOIrTgOHr)"/><path fill="rgb(0,255,40)" stroke="none" paint-order="stroke" d="M 121.66004180908203 77.81818389892578 L 129.63348388671875 77.81818389892578 L 129.63348388671875 130.45454788208008 L 121.66004180908203 130.45454788208008 L 121.66004180908203 77.81818389892578" fill-opacity="1" clip-path="url(#sxlMOIrTgOHr)"/><path fill="rgb(143,255,0)" stroke="none" paint-order="stroke" d="M 129.63348388671875 77.81818389892578 L 166.62647247314453 77.81818389892578 L 166.62647247314453 130.45454788208008 L 129.63348388671875 130.45454788208008 L 129.63348388671875 77.81818389892578" fill-opacity="1" clip-path="url(#sxlMOIrTgOHr)"/><path fill="rgb(0,255,40)" stroke="none" paint-order="stroke" d="M 166.62646484375 77.81818389892578 L 188.00357055664062 77.81818389892578 L 188.00357055664062 130.45454788208008 L 166.62646484375 130.45454788208008 L 166.62646484375 77.81818389892578" fill-opacity="1" clip-path="url(#sxlMOIrTgOHr)"/><path fill="rgb(251,0,7)" stroke="none" paint-order="stroke" d="M 58.5 130.4545440673828 L 129.63347625732422 130.4545440673828 L 129.63347625732422 183.0909080505371 L 58.5 183.0909080505371 L 58.5 130.4545440673828" fill-opacity="1" clip-path="url(#RhxFZpiEsnnc)"/><path fill="rgb(62,0,101)" stroke="none" paint-order="stroke" d="M 129.63348388671875 130.4545440673828 L 166.62647247314453 130.4545440673828 L 166.62647247314453 183.0909080505371 L 129.63348388671875 183.0909080505371 L 129.63348388671875 130.4545440673828" fill-opacity="1" clip-path="url(#RhxFZpiEsnnc)"/><path fill="rgb(251,0,7)" stroke="none" paint-order="stroke" d="M 166.62646484375 130.4545440673828 L 188.00357055664062 130.4545440673828 L 188.00357055664062 183.0909080505371 L 166.62646484375 183.0909080505371 L 166.62646484375 130.4545440673828" fill-opacity="1" clip-path="url(#RhxFZpiEsnnc)"/><path fill="rgb(105,29,48)" stroke="none" paint-order="stroke" d="M 92.84752655029297 183.09091186523438 L 92.91142655164003 183.09091186523438 L 92.91142655164003 498.9090881347656 L 92.84752655029297 498.9090881347656 L 92.84752655029297 183.09091186523438" fill-opacity="1" clip-path="url(#qyssfKXVESrG)"/><path fill="rgb(105,29,48)" stroke="none" paint-order="stroke" d="M 166.62646484375 183.09091186523438 L 166.69036484509706 183.09091186523438 L 166.69036484509706 498.9090881347656 L 166.62646484375 498.9090881347656 L 166.62646484375 183.09091186523438" fill-opacity="1" clip-path="url(#qyssfKXVESrG)"/><path fill="rgb(255,188,66)" stroke="none" paint-order="stroke" d="M 145.2864227294922 183.09091186523438 L 147.39895677566528 183.09091186523438 L 147.39895677566528 498.9090881347656 L 145.2864227294922 498.9090881347656 L 145.2864227294922 183.09091186523438" fill-opacity="1" clip-path="url(#BzbWRvkrxPXT)"/><path fill="rgb(255,188,66)" stroke="none" paint-order="stroke" d="M 149.29678344726562 183.09091186523438 L 150.44570541381836 183.09091186523438 L 150.44570541381836 498.9090881347656 L 149.29678344726562 498.9090881347656 L 149.29678344726562 183.09091186523438" fill-opacity="1" clip-path="url(#BzbWRvkrxPXT)"/><path fill="rgb(255,188,66)" stroke="none" paint-order="stroke" d="M 159.44793701171875 183.09091186523438 L 161.3853850364685 183.09091186523438 L 161.3853850364685 498.9090881347656 L 159.44793701171875 498.9090881347656 L 159.44793701171875 183.09091186523438" fill-opacity="1" clip-path="url(#BzbWRvkrxPXT)"/><path fill="rgb(162,174,187)" stroke="none" paint-order="stroke" d="M 166.62646484375 183.09091186523438 L 166.69036484509706 183.09091186523438 L 166.69036484509706 498.9090881347656 L 166.62646484375 498.9090881347656 L 166.62646484375 183.09091186523438" fill-opacity="1" clip-path="url(#NizqsGxKavAc)"/><path fill="rgb(162,174,187)" stroke="none" paint-order="stroke" d="M 78.02912139892578 183.09091186523438 L 78.09302140027285 183.09091186523438 L 78.09302140027285 498.9090881347656 L 78.02912139892578 498.9090881347656 L 78.02912139892578 183.09091186523438" fill-opacity="1" clip-path="url(#vZpFTyHuCpfg)"/><path fill="rgb(162,174,187)" stroke="none" paint-order="stroke" d="M 80.4803237915039 183.09091186523438 L 80.54422379285097 183.09091186523438 L 80.54422379285097 498.9090881347656 L 80.4803237915039 498.9090881347656 L 80.4803237915039 183.09091186523438" fill-opacity="1" clip-path="url(#vZpFTyHuCpfg)"/><path fill="rgb(255,188,66)" stroke="none" paint-order="stroke" d="M 172.77108764648438 183.09091186523438 L 175.6210277080536 183.09091186523438 L 175.6210277080536 498.9090881347656 L 172.77108764648438 498.9090881347656 L 172.77108764648438 183.09091186523438" fill-opacity="1" clip-path="url(#wKvHNnXVuaKu)"/><path fill="rgb(216,17,89)" stroke="none" paint-order="stroke" d="M 100.19219207763672 183.09091186523438 L 100.25609207898378 183.09091186523438 L 100.25609207898378 498.9090881347656 L 100.19219207763672 498.9090881347656 L 100.19219207763672 183.09091186523438" fill-opacity="1" clip-path="url(#XWwJhTTyahSm)"/><path fill="rgb(216,17,89)" stroke="none" paint-order="stroke" d="M 124.77452087402344 183.09091186523438 L 124.8384208753705 183.09091186523438 L 124.8384208753705 498.9090881347656 L 124.77452087402344 498.9090881347656 L 124.77452087402344 183.09091186523438" fill-opacity="1" clip-path="url(#XWwJhTTyahSm)"/><path fill="rgb(33,131,128)" stroke="none" paint-order="stroke" d="M 127.03402709960938 183.09091186523438 L 129.63347911834717 183.09091186523438 L 129.63347911834717 498.9090881347656 L 127.03402709960938 498.9090881347656 L 127.03402709960938 183.09091186523438" fill-opacity="1" clip-path="url(#cZqziPfLwrsp)"/><path fill="rgb(33,131,128)" stroke="none" paint-order="stroke" d="M 166.62646484375 183.09091186523438 L 166.69036484509706 183.09091186523438 L 166.69036484509706 498.9090881347656 L 166.62646484375 498.9090881347656 L 166.62646484375 183.09091186523438" fill-opacity="1" clip-path="url(#cZqziPfLwrsp)"/><path fill="rgb(115,210,222)" stroke="none" paint-order="stroke" d="M 133.73202514648438 183.09091186523438 L 142.9476833343506 183.09091186523438 L 142.9476833343506 498.9090881347656 L 133.73202514648438 498.9090881347656 L 133.73202514648438 183.09091186523438" fill-opacity="1" clip-path="url(#aOweRTxxTySJ)"/><path fill="rgb(28,49,68)" stroke="none" paint-order="stroke" d="M 152.74993896484375 183.09091186523438 L 152.8598469644785 183.09091186523438 L 152.8598469644785 498.9090881347656 L 152.74993896484375 498.9090881347656 L 152.74993896484375 183.09091186523438" fill-opacity="1" clip-path="url(#AIBeEezOVBaq)"/><path fill="rgb(28,49,68)" stroke="none" paint-order="stroke" d="M 153.459228515625 183.09091186523438 L 158.12137269973755 183.09091186523438 L 158.12137269973755 498.9090881347656 L 153.459228515625 498.9090881347656 L 153.459228515625 183.09091186523438" fill-opacity="1" clip-path="url(#AIBeEezOVBaq)"/><path fill="rgb(105,29,48)" stroke="none" paint-order="stroke" d="M 102.29322814941406 183.09091186523438 L 122.53802680969238 183.09091186523438 L 122.53802680969238 498.9090881347656 L 102.29322814941406 498.9090881347656 L 102.29322814941406 183.09091186523438" fill-opacity="1" clip-path="url(#PsmlvcUIykFd)"/><path fill="rgb(143,45,86)" stroke="none" paint-order="stroke" d="M 58.5 551.5454711914062 L 92.84752655029297 551.5454711914062 L 92.84752655029297 604.1818351745605 L 58.5 604.1818351745605 L 58.5 551.5454711914062" fill-opacity="1" clip-path="url(#weELcUKJtsTJ)"/><path fill="rgb(63,136,197)" stroke="none" paint-order="stroke" d="M 92.84752655029297 551.5454711914062 L 166.62646484375 551.5454711914062 L 166.62646484375 604.1818351745605 L 92.84752655029297 604.1818351745605 L 92.84752655029297 551.5454711914062" fill-opacity="1" clip-path="url(#weELcUKJtsTJ)"/><path fill="rgb(143,45,86)" stroke="none" paint-order="stroke" d="M 166.62646484375 551.5454711914062 L 188.00357055664062 551.5454711914062 L 188.00357055664062 604.1818351745605 L 166.62646484375 604.1818351745605 L 166.62646484375 551.5454711914062" fill-opacity="1" clip-path="url(#weELcUKJtsTJ)"/><path fill="none" stroke="rgb(0,0,0)" paint-order="fill" d="M 58.5 77.81818389892578 L 188.00357055664062 77.81818389892578 L 188.00357055664062 604.1818313598633 L 58.5 604.1818313598633 L 58.5 77.81818389892578" stroke-opacity="1" stroke-linejoin="bevel" stroke-miterlimit="10" stroke-dasharray="" clip-path="url(#WrMNaDxITQWd)"/><path fill="none" stroke="rgb(0,0,0)" paint-order="fill" d="M 58.5 630.5 L 1336.5 630.5" stroke-opacity="1" stroke-linejoin="bevel" stroke-miterlimit="10" stroke-dasharray=""/><path fill="none" stroke="rgb(0,0,0)" paint-order="fill" d="M 58.5 636.5 L 58.5 628.5 M 314.5 636.5 L 314.5 628.5 M 569.5 636.5 L 569.5 628.5 M 825.5 636.5 L 825.5 628.5 M 1080.5 636.5 L 1080.5 628.5 M 1336.5 636.5 L 1336.5 628.5" stroke-opacity="1" stroke-linejoin="bevel" stroke-miterlimit="10" stroke-dasharray=""/><path fill="none" stroke="rgb(0,0,0)" paint-order="fill" d="M 58.5 634.5 L 58.5 630.5 M 109.5 634.5 L 109.5 630.5 M 160.5 634.5 L 160.5 630.5 M 211.5 634.5 L 211.5 630.5 M 262.5 634.5 L 262.5 630.5 M 314.5 634.5 L 314.5 630.5 M 365.5 634.5 L 365.5 630.5 M 416.5 634.5 L 416.5 630.5 M 467.5 634.5 L 467.5 630.5 M 518.5 634.5 L 518.5 630.5 M 569.5 634.5 L 569.5 630.5 M 620.5 634.5 L 620.5 630.5 M 671.5 634.5 L 671.5 630.5 M 723.5 634.5 L 723.5 630.5 M 774.5 634.5 L 774.5 630.5 M 825.5 634.5 L 825.5 630.5 M 876.5 634.5 L 876.5 630.5 M 927.5 634.5 L 927.5 630.5 M 978.5 634.5 L 978.5 630.5 M 1029.5 634.5 L 1029.5 630.5 M 1080.5 634.5 L 1080.5 630.5 M 1132.5 634.5 L 1132.5 630.5 M 1183.5 634.5 L 1183.5 630.5 M 1234.5 634.5 L 1234.5 630.5 M 1285.5 634.5 L 1285.5 630.5 M 1336.5 634.5 L 1336.5 630.5" stroke-opacity="1" stroke-linejoin="bevel" stroke-miterlimit="10" stroke-dasharray=""/><text fill="rgb(68,68,68)" stroke="none" font-family="helvetica" font-size="11px" font-style="normal" font-weight="normal" text-decoration="normal" x="54.94166660308838" y="648.89013671875" text-anchor="start" dominant-baseline="alphabetic" transform="matrix(1, 0, 0, 1, 0.5, 0.5)" fill-opacity="1">0</text><text fill="rgb(68,68,68)" stroke="none" font-family="helvetica" font-size="11px" font-style="normal" font-weight="normal" text-decoration="normal" x="304.42500591278076" y="648.89013671875" text-anchor="start" dominant-baseline="alphabetic" transform="matrix(1, 0, 0, 1, 0.5, 0.5)" fill-opacity="1">200</text><text fill="rgb(68,68,68)" stroke="none" font-family="helvetica" font-size="11px" font-style="normal" font-weight="normal" text-decoration="normal" x="560.0250120162964" y="648.89013671875" text-anchor="start" dominant-baseline="alphabetic" transform="matrix(1, 0, 0, 1, 0.5, 0.5)" fill-opacity="1">400</text><text fill="rgb(68,68,68)" stroke="none" font-family="helvetica" font-size="11px" font-style="normal" font-weight="normal" text-decoration="normal" x="815.6249876022339" y="648.89013671875" text-anchor="start" dominant-baseline="alphabetic" transform="matrix(1, 0, 0, 1, 0.5, 0.5)" fill-opacity="1">600</text><text fill="rgb(68,68,68)" stroke="none" font-family="helvetica" font-size="11px" font-style="normal" font-weight="normal" text-decoration="normal" x="1071.2250242233276" y="648.89013671875" text-anchor="start" dominant-baseline="alphabetic" transform="matrix(1, 0, 0, 1, 0.5, 0.5)" fill-opacity="1">800</text><text fill="rgb(68,68,68)" stroke="none" font-family="helvetica" font-size="11px" font-style="normal" font-weight="normal" text-decoration="normal" x="1323.7666664123535" y="648.89013671875" text-anchor="start" dominant-baseline="alphabetic" transform="matrix(1, 0, 0, 1, 0.5, 0.5)" fill-opacity="1">1000</text><text fill="rgb(68,68,68)" stroke="none" font-family="helvetica" font-size="15pt" font-style="italic" font-weight="normal" text-decoration="normal" x="666.4416675567627" y="676.06982421875" text-anchor="start" dominant-baseline="alphabetic" transform="matrix(1, 0, 0, 1, 0.5, 0.5)" fill-opacity="1">time(s)</text><path fill="none" stroke="rgb(0,0,0)" paint-order="fill" d="M 58.5 630.5 L 58.5 51.5" stroke-opacity="1" stroke-linejoin="bevel" stroke-miterlimit="10" stroke-dasharray=""/><path fill="none" stroke="rgb(0,0,0)" paint-order="fill" d="M 52.5 551.5 L 60.5 551.5 M 52.5 446.5 L 60.5 446.5 M 52.5 341.5 L 60.5 341.5 M 52.5 235.5 L 60.5 235.5 M 52.5 130.5 L 60.5 130.5" stroke-opacity="1" stroke-linejoin="bevel" stroke-miterlimit="10" stroke-dasharray=""/><path fill="none" stroke="rgb(0,0,0)" paint-order="fill" d="M 54.5 572.5 L 58.5 572.5 M 54.5 593.5 L 58.5 593.5 M 54.5 614.5 L 58.5 614.5 M 54.5 551.5 L 58.5 551.5 M 54.5 530.5 L 58.5 530.5 M 54.5 509.5 L 58.5 509.5 M 54.5 488.5 L 58.5 488.5 M 54.5 467.5 L 58.5 467.5 M 54.5 446.5 L 58.5 446.5 M 54.5 425.5 L 58.5 425.5 M 54.5 404.5 L 58.5 404.5 M 54.5 383.5 L 58.5 383.5 M 54.5 362.5 L 58.5 362.5 M 54.5 341.5 L 58.5 341.5 M 54.5 319.5 L 58.5 319.5 M 54.5 298.5 L 58.5 298.5 M 54.5 277.5 L 58.5 277.5 M 54.5 256.5 L 58.5 256.5 M 54.5 235.5 L 58.5 235.5 M 54.5 214.5 L 58.5 214.5 M 54.5 193.5 L 58.5 193.5 M 54.5 172.5 L 58.5 172.5 M 54.5 151.5 L 58.5 151.5 M 54.5 130.5 L 58.5 130.5 M 54.5 109.5 L 58.5 109.5 M 54.5 88.5 L 58.5 88.5 M 54.5 67.5 L 58.5 67.5" stroke-opacity="1" stroke-linejoin="bevel" stroke-miterlimit="10" stroke-dasharray=""/><text fill="rgb(68,68,68)" stroke="none" font-family="helvetica" font-size="11px" font-style="normal" font-weight="normal" text-decoration="normal" x="34.46666622161865" y="554.9905395507812" text-anchor="start" dominant-baseline="alphabetic" transform="matrix(1, 0, 0, 1, 0.5, 0.5)" fill-opacity="1">2</text><text fill="rgb(68,68,68)" stroke="none" font-family="helvetica" font-size="11px" font-style="normal" font-weight="normal" text-decoration="normal" x="34.46666622161865" y="449.7178039550781" text-anchor="start" dominant-baseline="alphabetic" transform="matrix(1, 0, 0, 1, 0.5, 0.5)" fill-opacity="1">1</text><text fill="rgb(68,68,68)" stroke="none" font-family="helvetica" font-size="11px" font-style="normal" font-weight="normal" text-decoration="normal" x="40.88333320617676" y="344.445068359375" text-anchor="start" dominant-baseline="alphabetic" transform="matrix(1, 0, 0, 1, 0.5, 0.5)" fill-opacity="1">0</text><text fill="rgb(68,68,68)" stroke="none" font-family="helvetica" font-size="11px" font-style="normal" font-weight="normal" text-decoration="normal" x="40.88333320617676" y="239.17234802246094" text-anchor="start" dominant-baseline="alphabetic" transform="matrix(1, 0, 0, 1, 0.5, 0.5)" fill-opacity="1">1</text><text fill="rgb(68,68,68)" stroke="none" font-family="helvetica" font-size="11px" font-style="normal" font-weight="normal" text-decoration="normal" x="40.88333320617676" y="133.8996124267578" text-anchor="start" dominant-baseline="alphabetic" transform="matrix(1, 0, 0, 1, 0.5, 0.5)" fill-opacity="1">2</text><text fill="rgb(68,68,68)" stroke="none" font-family="helvetica" font-size="15pt" font-style="italic" font-weight="normal" text-decoration="normal" x="-11.316666603088379" y="336.076171875" text-anchor="start" dominant-baseline="alphabetic" transform="matrix(6.123233995736766e-17, -1, 1, 6.123233995736766e-17, -313.53333377838135, 367.46666622161865)" fill-opacity="1">students</text><path fill="rgb(255,255,255)" stroke="rgb(229,229,229)" paint-order="fill" d="M 1128.2333374023438 61.5 L 1326.5 61.5 L 1326.5 400.5 L 1128.2333374023438 400.5 L 1128.2333374023438 61.5" fill-opacity="0.9490196078431372" clip-path="url(#JMzwMQrSgmNk)" stroke-opacity="0.5019607843137255" stroke-linejoin="bevel" stroke-miterlimit="10" stroke-dasharray=""/><text fill="rgb(68,68,68)" stroke="none" font-family="helvetica" font-size="13px" font-style="normal" font-weight="normal" text-decoration="normal" x="1162.7333374023438" y="81" text-anchor="start" dominant-baseline="central" clip-path="url(#JMzwMQrSgmNk)" transform="matrix(1, 0, 0, 1, 0.5, 0.5)" fill-opacity="1">wavelength</text><path fill="rgb(0,255,40)" stroke="none" paint-order="stroke" d="M 1140.2333374023438 73.5 L 1156.2333374023438 73.5 L 1156.2333374023438 89.5 L 1140.2333374023438 89.5 L 1140.2333374023438 73.5" fill-opacity="1" clip-path="url(#JMzwMQrSgmNk)"/><path fill="rgb(216,17,89)" stroke="none" paint-order="stroke" d="M 1140.2333374023438 73.5 L 1156.2333374023438 73.5 L 1156.2333374023438 89.5 L 1140.2333374023438 89.5 L 1140.2333374023438 73.5" fill-opacity="1" clip-path="url(#JMzwMQrSgmNk)"/><text fill="rgb(68,68,68)" stroke="none" font-family="helvetica" font-size="13px" font-style="normal" font-weight="normal" text-decoration="normal" x="1162.7333374023438" y="104" text-anchor="start" dominant-baseline="central" clip-path="url(#JMzwMQrSgmNk)" transform="matrix(1, 0, 0, 1, 0.5, 0.5)" fill-opacity="1">solution</text><path fill="rgb(251,0,7)" stroke="none" paint-order="stroke" d="M 1140.2333374023438 96.5 L 1156.2333374023438 96.5 L 1156.2333374023438 112.5 L 1140.2333374023438 112.5 L 1140.2333374023438 96.5" fill-opacity="1" clip-path="url(#JMzwMQrSgmNk)"/><path fill="rgb(33,131,128)" stroke="none" paint-order="stroke" d="M 1140.2333374023438 96.5 L 1156.2333374023438 96.5 L 1156.2333374023438 112.5 L 1140.2333374023438 112.5 L 1140.2333374023438 96.5" fill-opacity="1" clip-path="url(#JMzwMQrSgmNk)"/><text fill="rgb(68,68,68)" stroke="none" font-family="helvetica" font-size="13px" font-style="normal" font-weight="normal" text-decoration="normal" x="1162.7333374023438" y="127" text-anchor="start" dominant-baseline="central" clip-path="url(#JMzwMQrSgmNk)" transform="matrix(1, 0, 0, 1, 0.5, 0.5)" fill-opacity="1">laser</text><path fill="rgb(105,29,48)" stroke="none" paint-order="stroke" d="M 1140.2333374023438 119.5 L 1156.2333374023438 119.5 L 1156.2333374023438 135.5 L 1140.2333374023438 135.5 L 1140.2333374023438 119.5" fill-opacity="1" clip-path="url(#JMzwMQrSgmNk)"/><text fill="rgb(68,68,68)" stroke="none" font-family="helvetica" font-size="13px" font-style="normal" font-weight="normal" text-decoration="normal" x="1162.7333374023438" y="150" text-anchor="start" dominant-baseline="central" clip-path="url(#JMzwMQrSgmNk)" transform="matrix(1, 0, 0, 1, 0.5, 0.5)" fill-opacity="1">ruler</text><path fill="rgb(255,188,66)" stroke="none" paint-order="stroke" d="M 1140.2333374023438 142.5 L 1156.2333374023438 142.5 L 1156.2333374023438 158.5 L 1140.2333374023438 158.5 L 1140.2333374023438 142.5" fill-opacity="1" clip-path="url(#JMzwMQrSgmNk)"/><text fill="rgb(68,68,68)" stroke="none" font-family="helvetica" font-size="13px" font-style="normal" font-weight="normal" text-decoration="normal" x="1162.7333374023438" y="173" text-anchor="start" dominant-baseline="central" clip-path="url(#JMzwMQrSgmNk)" transform="matrix(1, 0, 0, 1, 0.5, 0.5)" fill-opacity="1">restarts</text><path fill="rgb(162,174,187)" stroke="none" paint-order="stroke" d="M 1140.2333374023438 165.5 L 1156.2333374023438 165.5 L 1156.2333374023438 181.5 L 1140.2333374023438 181.5 L 1140.2333374023438 165.5" fill-opacity="1" clip-path="url(#JMzwMQrSgmNk)"/><text fill="rgb(68,68,68)" stroke="none" font-family="helvetica" font-size="13px" font-style="normal" font-weight="normal" text-decoration="normal" x="1162.7333374023438" y="196" text-anchor="start" dominant-baseline="central" clip-path="url(#JMzwMQrSgmNk)" transform="matrix(1, 0, 0, 1, 0.5, 0.5)" fill-opacity="1">transmittance_absorbance</text><path fill="rgb(162,174,187)" stroke="none" paint-order="stroke" d="M 1140.2333374023438 188.5 L 1156.2333374023438 188.5 L 1156.2333374023438 204.5 L 1140.2333374023438 204.5 L 1140.2333374023438 188.5" fill-opacity="1" clip-path="url(#JMzwMQrSgmNk)"/><text fill="rgb(68,68,68)" stroke="none" font-family="helvetica" font-size="13px" font-style="normal" font-weight="normal" text-decoration="normal" x="1162.7333374023438" y="219" text-anchor="start" dominant-baseline="central" clip-path="url(#JMzwMQrSgmNk)" transform="matrix(1, 0, 0, 1, 0.5, 0.5)" fill-opacity="1">magnifier</text><path fill="rgb(255,188,66)" stroke="none" paint-order="stroke" d="M 1140.2333374023438 211.5 L 1156.2333374023438 211.5 L 1156.2333374023438 227.5 L 1140.2333374023438 227.5 L 1140.2333374023438 211.5" fill-opacity="1" clip-path="url(#JMzwMQrSgmNk)"/><text fill="rgb(68,68,68)" stroke="none" font-family="helvetica" font-size="13px" font-style="normal" font-weight="normal" text-decoration="normal" x="1162.7333374023438" y="242" text-anchor="start" dominant-baseline="central" clip-path="url(#JMzwMQrSgmNk)" transform="matrix(1, 0, 0, 1, 0.5, 0.5)" fill-opacity="1">concentration</text><path fill="rgb(115,210,222)" stroke="none" paint-order="stroke" d="M 1140.2333374023438 234.5 L 1156.2333374023438 234.5 L 1156.2333374023438 250.5 L 1140.2333374023438 250.5 L 1140.2333374023438 234.5" fill-opacity="1" clip-path="url(#JMzwMQrSgmNk)"/><text fill="rgb(68,68,68)" stroke="none" font-family="helvetica" font-size="13px" font-style="normal" font-weight="normal" text-decoration="normal" x="1162.7333374023438" y="265" text-anchor="start" dominant-baseline="central" clip-path="url(#JMzwMQrSgmNk)" transform="matrix(1, 0, 0, 1, 0.5, 0.5)" fill-opacity="1">flask</text><path fill="rgb(28,49,68)" stroke="none" paint-order="stroke" d="M 1140.2333374023438 257.5 L 1156.2333374023438 257.5 L 1156.2333374023438 273.5 L 1140.2333374023438 273.5 L 1140.2333374023438 257.5" fill-opacity="1" clip-path="url(#JMzwMQrSgmNk)"/><text fill="rgb(68,68,68)" stroke="none" font-family="helvetica" font-size="13px" font-style="normal" font-weight="normal" text-decoration="normal" x="1162.7333374023438" y="288" text-anchor="start" dominant-baseline="central" clip-path="url(#JMzwMQrSgmNk)" transform="matrix(1, 0, 0, 1, 0.5, 0.5)" fill-opacity="1">pdf</text><text fill="rgb(68,68,68)" stroke="none" font-family="helvetica" font-size="13px" font-style="normal" font-weight="normal" text-decoration="normal" x="1162.7333374023438" y="311" text-anchor="start" dominant-baseline="central" clip-path="url(#JMzwMQrSgmNk)" transform="matrix(1, 0, 0, 1, 0.5, 0.5)" fill-opacity="1">concentrationlab</text><text fill="rgb(68,68,68)" stroke="none" font-family="helvetica" font-size="13px" font-style="normal" font-weight="normal" text-decoration="normal" x="1162.7333374023438" y="334" text-anchor="start" dominant-baseline="central" clip-path="url(#JMzwMQrSgmNk)" transform="matrix(1, 0, 0, 1, 0.5, 0.5)" fill-opacity="1">wavelength_slider</text><path fill="rgb(105,29,48)" stroke="none" paint-order="stroke" d="M 1140.2333374023438 326.5 L 1156.2333374023438 326.5 L 1156.2333374023438 342.5 L 1140.2333374023438 342.5 L 1140.2333374023438 326.5" fill-opacity="1" clip-path="url(#JMzwMQrSgmNk)"/><text fill="rgb(68,68,68)" stroke="none" font-family="helvetica" font-size="13px" font-style="normal" font-weight="normal" text-decoration="normal" x="1162.7333374023438" y="357" text-anchor="start" dominant-baseline="central" clip-path="url(#JMzwMQrSgmNk)" transform="matrix(1, 0, 0, 1, 0.5, 0.5)" fill-opacity="1">ruler measuring</text><text fill="rgb(68,68,68)" stroke="none" font-family="helvetica" font-size="13px" font-style="normal" font-weight="normal" text-decoration="normal" x="1162.7333374023438" y="380" text-anchor="start" dominant-baseline="central" clip-path="url(#JMzwMQrSgmNk)" transform="matrix(1, 0, 0, 1, 0.5, 0.5)" fill-opacity="1">dependent variable</text><path fill="rgb(143,45,86)" stroke="none" paint-order="stroke" d="M 1140.2333374023438 372.5 L 1156.2333374023438 372.5 L 1156.2333374023438 388.5 L 1140.2333374023438 388.5 L 1140.2333374023438 372.5" fill-opacity="1" clip-path="url(#JMzwMQrSgmNk)"/><text fill="rgb(68,68,68)" stroke="none" font-family="helvetica" font-size="25pt" font-style="normal" font-weight="bold" text-decoration="normal" x="58" y="38.740885416666664" text-anchor="start" dominant-baseline="alphabetic" transform="matrix(1, 0, 0, 1, 0.5, 0.5)" fill-opacity="1">Timeline for student wpszzhxa with permutation 3120 for task 1</text></svg>