<svg version="1.1" xmlns="http://www.w3.org/2000/svg" width="1366" height="683"><defs><clipPath id="DlyKCRIyrrKZ"><path fill="none" stroke="none" d="M 58.5 51.5 L 1336.5 51.5 L 1336.5 630.5 L 58.5 630.5 L 58.5 51.5"/></clipPath><clipPath id="GOTvtgKcdcxm"><path fill="none" stroke="none" d="M 58.5 51.5 L 1336.5 51.5 L 1336.5 630.5 L 58.5 630.5 L 58.5 51.5"/></clipPath><clipPath id="rQRKwpSyWkpR"><path fill="none" stroke="none" d="M 58.5 51.5 L 1336.5 51.5 L 1336.5 630.5 L 58.5 630.5 L 58.5 51.5"/></clipPath><clipPath id="VPaTGRRSCOhh"><path fill="none" stroke="none" d="M 58.5 51.5 L 1336.5 51.5 L 1336.5 630.5 L 58.5 630.5 L 58.5 51.5"/></clipPath><clipPath id="ASetkGGHbkNz"><path fill="none" stroke="none" d="M 58.5 51.5 L 1336.5 51.5 L 1336.5 630.5 L 58.5 630.5 L 58.5 51.5"/></clipPath><clipPath id="EUJudITRuTDp"><path fill="none" stroke="none" d="M 58.5 51.5 L 1336.5 51.5 L 1336.5 630.5 L 58.5 630.5 L 58.5 51.5"/></clipPath><clipPath id="peSbBPsSFcCu"><path fill="none" stroke="none" d="M 58.5 51.5 L 1336.5 51.5 L 1336.5 630.5 L 58.5 630.5 L 58.5 51.5"/></clipPath><clipPath id="kVgZGMHrdgpb"><path fill="none" stroke="none" d="M 58.5 51.5 L 1336.5 51.5 L 1336.5 630.5 L 58.5 630.5 L 58.5 51.5"/></clipPath><clipPath id="CZIUXdtntQuD"><path fill="none" stroke="none" d="M 58.5 51.5 L 1336.5 51.5 L 1336.5 630.5 L 58.5 630.5 L 58.5 51.5"/></clipPath><clipPath id="FWtecJnIUPCx"><path fill="none" stroke="none" d="M 58.5 51.5 L 1336.5 51.5 L 1336.5 630.5 L 58.5 630.5 L 58.5 51.5"/></clipPath><clipPath id="kNZFTCfvGiTv"><path fill="none" stroke="none" d="M 58.5 51.5 L 1336.5 51.5 L 1336.5 630.5 L 58.5 630.5 L 58.5 51.5"/></clipPath><clipPath id="TrBZXEuDybwt"><path fill="none" stroke="none" d="M 58.5 51.5 L 1336.5 51.5 L 1336.5 630.5 L 58.5 630.5 L 58.5 51.5"/></clipPath><clipPath id="KwzIVTeTDvhf"><path fill="none" stroke="none" d="M 58.5 51.5 L 1336.5 51.5 L 1336.5 630.5 L 58.5 630.5 L 58.5 51.5"/></clipPath><clipPath id="wwzthcuZmZgg"><path fill="none" stroke="none" d="M 58.5 51.5 L 1336.5 51.5 L 1336.5 630.5 L 58.5 630.5 L 58.5 51.5"/></clipPath><clipPath id="sOMEvmilMZOB"><path fill="none" stroke="none" d="M 58.5 51.5 L 1336.5 51.5 L 1336.5 630.5 L 58.5 630.5 L 58.5 51.5"/></clipPath><clipPath id="nyTDTdWItTnO"><path fill="none" stroke="none" d="M 58.5 51.5 L 1336.5 51.5 L 1336.5 630.5 L 58.5 630.5 L 58.5 51.5"/></clipPath><clipPath id="sfHmKoJFSvps"><path fill="none" stroke="none" d="M 58.5 51.5 L 1336.5 51.5 L 1336.5 630.5 L 58.5 630.5 L 58.5 51.5"/></clipPath><clipPath id="RsQnrJahDtQP"><path fill="none" stroke="none" d="M 58.5 51.5 L 1336.5 51.5 L 1336.5 630.5 L 58.5 630.5 L 58.5 51.5"/></clipPath><clipPath id="OSulhedEQnSP"><path fill="none" stroke="none" d="M 58.5 51.5 L 1336.5 51.5 L 1336.5 630.5 L 58.5 630.5 L 58.5 51.5"/></clipPath><clipPath id="iuEXcAAkkhEC"><path fill="none" stroke="none" d="M 58.5 51.5 L 1336.5 51.5 L 1336.5 630.5 L 58.5 630.5 L 58.5 51.5"/></clipPath><clipPath id="PwhUHyPwqmEZ"><path fill="none" stroke="none" d="M 58.5 51.5 L 1336.5 51.5 L 1336.5 630.5 L 58.5 630.5 L 58.5 51.5"/></clipPath></defs><path fill="rgb(255,255,255)" stroke="none" paint-order="stroke" d="M 0.5 0.5 L 1366.5 0.5 L 1366.5 683.5 L 0.5 683.5 L 0.5 0.5" fill-opacity="1"/><rect fill="#FFFFFF" stroke="none" x="58" y="51" width="1278" height="579" transform="matrix(1, 0, 0, 1, 0.5, 0.5)"/><path fill="rgb(255,255,255)" stroke="none" paint-order="stroke" d="M 58.5 51.5 L 1336.5 51.5 L 1336.5 630.5 L 58.5 630.5 L 58.5 51.5" fill-opacity="1"/><path fill="none" stroke="rgb(229,229,229)" paint-order="fill" d="M 58.5 51.5 L 1336.5 51.5 L 1336.5 630.5 L 58.5 630.5 L 58.5 51.5" stroke-opacity="1" stroke-linejoin="bevel" stroke-miterlimit="10" stroke-dasharray=""/><path fill="none" stroke="rgb(229,229,229)" paint-order="fill" d="M 314.5 630.5 L 314.5 51.5 M 569.5 630.5 L 569.5 51.5 M 825.5 630.5 L 825.5 51.5 M 1080.5 630.5 L 1080.5 51.5" stroke-opacity="1" stroke-linejoin="bevel" stroke-miterlimit="10" stroke-dasharray="" clip-path="url(#DlyKCRIyrrKZ)"/><path fill="none" stroke="rgb(229,229,229)" paint-order="fill" d="M 58.5 551.5 L 1336.5 551.5 M 58.5 446.5 L 1336.5 446.5 M 58.5 341.5 L 1336.5 341.5 M 58.5 235.5 L 1336.5 235.5 M 58.5 130.5 L 1336.5 130.5" stroke-opacity="1" stroke-linejoin="bevel" stroke-miterlimit="10" stroke-dasharray="" clip-path="url(#GOTvtgKcdcxm)"/><path fill="rgb(0,255,40)" stroke="none" paint-order="stroke" d="M 58.5 77.81818389892578 L 115.60870742797852 77.81818389892578 L 115.60870742797852 130.45454788208008 L 58.5 130.45454788208008 L 58.5 77.81818389892578" fill-opacity="1" clip-path="url(#rQRKwpSyWkpR)"/><path fill="rgb(0,255,97)" stroke="none" paint-order="stroke" d="M 115.60871124267578 77.81818389892578 L 115.6508852429688 77.81818389892578 L 115.6508852429688 130.45454788208008 L 115.60871124267578 130.45454788208008 L 115.60871124267578 77.81818389892578" fill-opacity="1" clip-path="url(#rQRKwpSyWkpR)"/><path fill="rgb(0,255,134)" stroke="none" paint-order="stroke" d="M 115.65087890625 77.81818389892578 L 115.6726049054414 77.81818389892578 L 115.6726049054414 130.45454788208008 L 115.65087890625 130.45454788208008 L 115.65087890625 77.81818389892578" fill-opacity="1" clip-path="url(#rQRKwpSyWkpR)"/><path fill="rgb(0,255,169)" stroke="none" paint-order="stroke" d="M 115.672607421875 77.81818389892578 L 115.73650742322206 77.81818389892578 L 115.73650742322206 130.45454788208008 L 115.672607421875 130.45454788208008 L 115.672607421875 77.81818389892578" fill-opacity="1" clip-path="url(#rQRKwpSyWkpR)"/><path fill="rgb(0,255,202)" stroke="none" paint-order="stroke" d="M 115.73651123046875 77.81818389892578 L 115.77868523076177 77.81818389892578 L 115.77868523076177 130.45454788208008 L 115.73651123046875 130.45454788208008 L 115.73651123046875 77.81818389892578" fill-opacity="1" clip-path="url(#rQRKwpSyWkpR)"/><path fill="rgb(0,250,255)" stroke="none" paint-order="stroke" d="M 115.77867889404297 77.81818389892578 L 115.80040489323437 77.81818389892578 L 115.80040489323437 130.45454788208008 L 115.77867889404297 130.45454788208008 L 115.77867889404297 77.81818389892578" fill-opacity="1" clip-path="url(#rQRKwpSyWkpR)"/><path fill="rgb(0,238,255)" stroke="none" paint-order="stroke" d="M 115.80040740966797 77.81818389892578 L 115.82085540890694 77.81818389892578 L 115.82085540890694 130.45454788208008 L 115.80040740966797 130.45454788208008 L 115.80040740966797 77.81818389892578" fill-opacity="1" clip-path="url(#rQRKwpSyWkpR)"/><path fill="rgb(0,226,255)" stroke="none" paint-order="stroke" d="M 115.82085418701172 77.81818389892578 L 115.86302818730474 77.81818389892578 L 115.86302818730474 130.45454788208008 L 115.82085418701172 130.45454788208008 L 115.82085418701172 77.81818389892578" fill-opacity="1" clip-path="url(#rQRKwpSyWkpR)"/><path fill="rgb(0,213,255)" stroke="none" paint-order="stroke" d="M 115.86302947998047 77.81818389892578 L 115.92820747941732 77.81818389892578 L 115.92820747941732 130.45454788208008 L 115.86302947998047 130.45454788208008 L 115.86302947998047 77.81818389892578" fill-opacity="1" clip-path="url(#rQRKwpSyWkpR)"/><path fill="rgb(0,200,255)" stroke="none" paint-order="stroke" d="M 115.92820739746094 77.81818389892578 L 115.9486553966999 77.81818389892578 L 115.9486553966999 130.45454788208008 L 115.92820739746094 130.45454788208008 L 115.92820739746094 77.81818389892578" fill-opacity="1" clip-path="url(#rQRKwpSyWkpR)"/><path fill="rgb(0,187,255)" stroke="none" paint-order="stroke" d="M 115.94865417480469 77.81818389892578 L 115.96910217404366 77.81818389892578 L 115.96910217404366 130.45454788208008 L 115.94865417480469 130.45454788208008 L 115.94865417480469 77.81818389892578" fill-opacity="1" clip-path="url(#rQRKwpSyWkpR)"/><path fill="rgb(0,173,255)" stroke="none" paint-order="stroke" d="M 115.96910095214844 77.81818389892578 L 116.03427895158529 77.81818389892578 L 116.03427895158529 130.45454788208008 L 115.96910095214844 130.45454788208008 L 115.96910095214844 77.81818389892578" fill-opacity="1" clip-path="url(#rQRKwpSyWkpR)"/><path fill="rgb(0,160,255)" stroke="none" paint-order="stroke" d="M 116.0342788696289 77.81818389892578 L 116.09817887097597 77.81818389892578 L 116.09817887097597 130.45454788208008 L 116.0342788696289 130.45454788208008 L 116.0342788696289 77.81818389892578" fill-opacity="1" clip-path="url(#rQRKwpSyWkpR)"/><path fill="rgb(0,146,255)" stroke="none" paint-order="stroke" d="M 116.09818267822266 77.81818389892578 L 116.16080468147993 77.81818389892578 L 116.16080468147993 130.45454788208008 L 116.09818267822266 130.45454788208008 L 116.09818267822266 77.81818389892578" fill-opacity="1" clip-path="url(#rQRKwpSyWkpR)"/><path fill="rgb(0,132,255)" stroke="none" paint-order="stroke" d="M 116.16080474853516 77.81818389892578 L 116.22598274797201 77.81818389892578 L 116.22598274797201 130.45454788208008 L 116.16080474853516 130.45454788208008 L 116.16080474853516 77.81818389892578" fill-opacity="1" clip-path="url(#rQRKwpSyWkpR)"/><path fill="rgb(0,117,255)" stroke="none" paint-order="stroke" d="M 116.22598266601562 77.81818389892578 L 116.28988266736269 77.81818389892578 L 116.28988266736269 130.45454788208008 L 116.22598266601562 130.45454788208008 L 116.22598266601562 77.81818389892578" fill-opacity="1" clip-path="url(#rQRKwpSyWkpR)"/><path fill="rgb(0,102,255)" stroke="none" paint-order="stroke" d="M 116.28987884521484 77.81818389892578 L 116.39595284312963 77.81818389892578 L 116.39595284312963 130.45454788208008 L 116.28987884521484 130.45454788208008 L 116.28987884521484 77.81818389892578" fill-opacity="1" clip-path="url(#rQRKwpSyWkpR)"/><path fill="rgb(0,86,255)" stroke="none" paint-order="stroke" d="M 116.39595794677734 77.81818389892578 L 116.43813194707036 77.81818389892578 L 116.43813194707036 130.45454788208008 L 116.39595794677734 130.45454788208008 L 116.39595794677734 77.81818389892578" fill-opacity="1" clip-path="url(#rQRKwpSyWkpR)"/><path fill="rgb(0,70,255)" stroke="none" paint-order="stroke" d="M 116.4381332397461 77.81818389892578 L 116.54420723766088 77.81818389892578 L 116.54420723766088 130.45454788208008 L 116.4381332397461 130.45454788208008 L 116.4381332397461 77.81818389892578" fill-opacity="1" clip-path="url(#rQRKwpSyWkpR)"/><path fill="rgb(0,52,255)" stroke="none" paint-order="stroke" d="M 116.54420471191406 77.81818389892578 L 116.6285527125001 77.81818389892578 L 116.6285527125001 130.45454788208008 L 116.54420471191406 130.45454788208008 L 116.54420471191406 77.81818389892578" fill-opacity="1" clip-path="url(#rQRKwpSyWkpR)"/><path fill="rgb(0,26,255)" stroke="none" paint-order="stroke" d="M 116.62855529785156 77.81818389892578 L 116.71418129652739 77.81818389892578 L 116.71418129652739 130.45454788208008 L 116.62855529785156 130.45454788208008 L 116.62855529785156 77.81818389892578" fill-opacity="1" clip-path="url(#rQRKwpSyWkpR)"/><path fill="rgb(0,0,255)" stroke="none" paint-order="stroke" d="M 116.71417999267578 77.81818389892578 L 116.73462799191475 77.81818389892578 L 116.73462799191475 130.45454788208008 L 116.71417999267578 130.45454788208008 L 116.71417999267578 77.81818389892578" fill-opacity="1" clip-path="url(#rQRKwpSyWkpR)"/><path fill="rgb(22,0,247)" stroke="none" paint-order="stroke" d="M 116.73462677001953 77.81818389892578 L 116.77680077031255 77.81818389892578 L 116.77680077031255 130.45454788208008 L 116.73462677001953 130.45454788208008 L 116.73462677001953 77.81818389892578" fill-opacity="1" clip-path="url(#rQRKwpSyWkpR)"/><path fill="rgb(38,0,240)" stroke="none" paint-order="stroke" d="M 116.77680206298828 77.81818389892578 L 116.79852806217968 77.81818389892578 L 116.79852806217968 130.45454788208008 L 116.77680206298828 130.45454788208008 L 116.77680206298828 77.81818389892578" fill-opacity="1" clip-path="url(#rQRKwpSyWkpR)"/><path fill="rgb(51,0,233)" stroke="none" paint-order="stroke" d="M 116.79852294921875 77.81818389892578 L 116.84069694951177 77.81818389892578 L 116.84069694951177 130.45454788208008 L 116.79852294921875 130.45454788208008 L 116.79852294921875 77.81818389892578" fill-opacity="1" clip-path="url(#rQRKwpSyWkpR)"/><path fill="rgb(62,0,226)" stroke="none" paint-order="stroke" d="M 116.8406982421875 77.81818389892578 L 116.8624242413789 77.81818389892578 L 116.8624242413789 130.45454788208008 L 116.8406982421875 130.45454788208008 L 116.8406982421875 77.81818389892578" fill-opacity="1" clip-path="url(#rQRKwpSyWkpR)"/><path fill="rgb(72,0,218)" stroke="none" paint-order="stroke" d="M 116.8624267578125 77.81818389892578 L 116.8841527570039 77.81818389892578 L 116.8841527570039 130.45454788208008 L 116.8624267578125 130.45454788208008 L 116.8624267578125 77.81818389892578" fill-opacity="1" clip-path="url(#rQRKwpSyWkpR)"/><path fill="rgb(80,0,211)" stroke="none" paint-order="stroke" d="M 116.8841552734375 77.81818389892578 L 116.90460327267647 77.81818389892578 L 116.90460327267647 130.45454788208008 L 116.8841552734375 130.45454788208008 L 116.8841552734375 77.81818389892578" fill-opacity="1" clip-path="url(#rQRKwpSyWkpR)"/><path fill="rgb(87,0,203)" stroke="none" paint-order="stroke" d="M 116.90460205078125 77.81818389892578 L 116.94805404916406 77.81818389892578 L 116.94805404916406 130.45454788208008 L 116.90460205078125 130.45454788208008 L 116.90460205078125 77.81818389892578" fill-opacity="1" clip-path="url(#rQRKwpSyWkpR)"/><path fill="rgb(94,0,196)" stroke="none" paint-order="stroke" d="M 116.94805145263672 77.81818389892578 L 116.96849945187569 77.81818389892578 L 116.96849945187569 130.45454788208008 L 116.94805145263672 130.45454788208008 L 116.94805145263672 77.81818389892578" fill-opacity="1" clip-path="url(#rQRKwpSyWkpR)"/><path fill="rgb(99,0,188)" stroke="none" paint-order="stroke" d="M 116.96849822998047 77.81818389892578 L 117.01067223027349 77.81818389892578 L 117.01067223027349 130.45454788208008 L 116.96849822998047 130.45454788208008 L 116.96849822998047 77.81818389892578" fill-opacity="1" clip-path="url(#rQRKwpSyWkpR)"/><path fill="rgb(103,0,180)" stroke="none" paint-order="stroke" d="M 117.01067352294922 77.81818389892578 L 117.03239952214062 77.81818389892578 L 117.03239952214062 130.45454788208008 L 117.01067352294922 130.45454788208008 L 117.01067352294922 77.81818389892578" fill-opacity="1" clip-path="url(#rQRKwpSyWkpR)"/><path fill="rgb(107,0,172)" stroke="none" paint-order="stroke" d="M 117.03240203857422 77.81818389892578 L 117.07457603886724 77.81818389892578 L 117.07457603886724 130.45454788208008 L 117.03240203857422 130.45454788208008 L 117.03240203857422 77.81818389892578" fill-opacity="1" clip-path="url(#rQRKwpSyWkpR)"/><path fill="rgb(109,0,164)" stroke="none" paint-order="stroke" d="M 117.07457733154297 77.81818389892578 L 117.09630333073437 77.81818389892578 L 117.09630333073437 130.45454788208008 L 117.07457733154297 130.45454788208008 L 117.07457733154297 77.81818389892578" fill-opacity="1" clip-path="url(#rQRKwpSyWkpR)"/><path fill="rgb(111,0,156)" stroke="none" paint-order="stroke" d="M 117.09629821777344 77.81818389892578 L 117.13719421625137 77.81818389892578 L 117.13719421625137 130.45454788208008 L 117.09629821777344 130.45454788208008 L 117.09629821777344 77.81818389892578" fill-opacity="1" clip-path="url(#rQRKwpSyWkpR)"/><path fill="rgb(111,0,140)" stroke="none" paint-order="stroke" d="M 117.13719940185547 77.81818389892578 L 117.15892540104687 77.81818389892578 L 117.15892540104687 130.45454788208008 L 117.13719940185547 130.45454788208008 L 117.13719940185547 77.81818389892578" fill-opacity="1" clip-path="url(#rQRKwpSyWkpR)"/><path fill="rgb(110,0,132)" stroke="none" paint-order="stroke" d="M 117.15892028808594 77.81818389892578 L 117.18064628727734 77.81818389892578 L 117.18064628727734 130.45454788208008 L 117.15892028808594 130.45454788208008 L 117.15892028808594 77.81818389892578" fill-opacity="1" clip-path="url(#rQRKwpSyWkpR)"/><path fill="rgb(108,0,123)" stroke="none" paint-order="stroke" d="M 117.18064880371094 77.81818389892578 L 117.20237480290234 77.81818389892578 L 117.20237480290234 130.45454788208008 L 117.18064880371094 130.45454788208008 L 117.18064880371094 77.81818389892578" fill-opacity="1" clip-path="url(#rQRKwpSyWkpR)"/><path fill="rgb(105,0,115)" stroke="none" paint-order="stroke" d="M 117.20237731933594 77.81818389892578 L 117.2228253185749 77.81818389892578 L 117.2228253185749 130.45454788208008 L 117.20237731933594 130.45454788208008 L 117.20237731933594 77.81818389892578" fill-opacity="1" clip-path="url(#rQRKwpSyWkpR)"/><path fill="rgb(100,0,103)" stroke="none" paint-order="stroke" d="M 117.22282409667969 77.81818389892578 L 117.24455009587109 77.81818389892578 L 117.24455009587109 130.45454788208008 L 117.22282409667969 130.45454788208008 L 117.22282409667969 77.81818389892578" fill-opacity="1" clip-path="url(#rQRKwpSyWkpR)"/><path fill="rgb(97,0,97)" stroke="none" paint-order="stroke" d="M 117.24454498291016 77.81818389892578 L 118.51998901367188 77.81818389892578 L 118.51998901367188 130.45454788208008 L 117.24454498291016 130.45454788208008 L 117.24454498291016 77.81818389892578" fill-opacity="1" clip-path="url(#rQRKwpSyWkpR)"/><path fill="rgb(100,0,103)" stroke="none" paint-order="stroke" d="M 118.51998901367188 77.81818389892578 L 118.54043701291084 77.81818389892578 L 118.54043701291084 130.45454788208008 L 118.51998901367188 130.45454788208008 L 118.51998901367188 77.81818389892578" fill-opacity="1" clip-path="url(#rQRKwpSyWkpR)"/><path fill="rgb(105,0,115)" stroke="none" paint-order="stroke" d="M 118.54044342041016 77.81818389892578 L 118.56216941960156 77.81818389892578 L 118.56216941960156 130.45454788208008 L 118.54044342041016 130.45454788208008 L 118.54044342041016 77.81818389892578" fill-opacity="1" clip-path="url(#rQRKwpSyWkpR)"/><path fill="rgb(108,0,123)" stroke="none" paint-order="stroke" d="M 118.56216430664062 77.81818389892578 L 118.5826123058796 77.81818389892578 L 118.5826123058796 130.45454788208008 L 118.56216430664062 130.45454788208008 L 118.56216430664062 77.81818389892578" fill-opacity="1" clip-path="url(#rQRKwpSyWkpR)"/><path fill="rgb(110,0,132)" stroke="none" paint-order="stroke" d="M 118.58261108398438 77.81818389892578 L 118.62478508427739 77.81818389892578 L 118.62478508427739 130.45454788208008 L 118.58261108398438 130.45454788208008 L 118.58261108398438 77.81818389892578" fill-opacity="1" clip-path="url(#rQRKwpSyWkpR)"/><path fill="rgb(111,0,140)" stroke="none" paint-order="stroke" d="M 118.62478637695312 77.81818389892578 L 118.64651237614453 77.81818389892578 L 118.64651237614453 130.45454788208008 L 118.62478637695312 130.45454788208008 L 118.62478637695312 77.81818389892578" fill-opacity="1" clip-path="url(#rQRKwpSyWkpR)"/><path fill="rgb(111,0,148)" stroke="none" paint-order="stroke" d="M 118.64651489257812 77.81818389892578 L 118.68996689096093 77.81818389892578 L 118.68996689096093 130.45454788208008 L 118.64651489257812 130.45454788208008 L 118.64651489257812 77.81818389892578" fill-opacity="1" clip-path="url(#rQRKwpSyWkpR)"/><path fill="rgb(111,0,156)" stroke="none" paint-order="stroke" d="M 118.6899642944336 77.81818389892578 L 118.75130829587579 77.81818389892578 L 118.75130829587579 130.45454788208008 L 118.6899642944336 130.45454788208008 L 118.6899642944336 77.81818389892578" fill-opacity="1" clip-path="url(#rQRKwpSyWkpR)"/><path fill="rgb(109,0,164)" stroke="none" paint-order="stroke" d="M 118.75131225585938 77.81818389892578 L 118.77431625500321 77.81818389892578 L 118.77431625500321 130.45454788208008 L 118.75131225585938 130.45454788208008 L 118.75131225585938 77.81818389892578" fill-opacity="1" clip-path="url(#rQRKwpSyWkpR)"/><path fill="rgb(107,0,172)" stroke="none" paint-order="stroke" d="M 118.7743148803711 77.81818389892578 L 118.81648888066411 77.81818389892578 L 118.81648888066411 130.45454788208008 L 118.7743148803711 130.45454788208008 L 118.7743148803711 77.81818389892578" fill-opacity="1" clip-path="url(#rQRKwpSyWkpR)"/><path fill="rgb(103,0,180)" stroke="none" paint-order="stroke" d="M 118.81649017333984 77.81818389892578 L 118.83821617253125 77.81818389892578 L 118.83821617253125 130.45454788208008 L 118.81649017333984 130.45454788208008 L 118.81649017333984 77.81818389892578" fill-opacity="1" clip-path="url(#rQRKwpSyWkpR)"/><path fill="rgb(99,0,188)" stroke="none" paint-order="stroke" d="M 118.83821105957031 77.81818389892578 L 118.92383705824614 77.81818389892578 L 118.92383705824614 130.45454788208008 L 118.83821105957031 130.45454788208008 L 118.83821105957031 77.81818389892578" fill-opacity="1" clip-path="url(#rQRKwpSyWkpR)"/><path fill="rgb(94,0,196)" stroke="none" paint-order="stroke" d="M 118.92384338378906 77.81818389892578 L 118.98646538704634 77.81818389892578 L 118.98646538704634 130.45454788208008 L 118.92384338378906 130.45454788208008 L 118.92384338378906 77.81818389892578" fill-opacity="1" clip-path="url(#rQRKwpSyWkpR)"/><path fill="rgb(87,0,203)" stroke="none" paint-order="stroke" d="M 118.98646545410156 77.81818389892578 L 119.02991745248437 77.81818389892578 L 119.02991745248437 130.45454788208008 L 118.98646545410156 130.45454788208008 L 118.98646545410156 77.81818389892578" fill-opacity="1" clip-path="url(#rQRKwpSyWkpR)"/><path fill="rgb(72,0,218)" stroke="none" paint-order="stroke" d="M 119.02991485595703 77.81818389892578 L 119.04908485524356 77.81818389892578 L 119.04908485524356 130.45454788208008 L 119.02991485595703 130.45454788208008 L 119.02991485595703 77.81818389892578" fill-opacity="1" clip-path="url(#rQRKwpSyWkpR)"/><path fill="rgb(62,0,226)" stroke="none" paint-order="stroke" d="M 119.04908752441406 77.81818389892578 L 119.07081352360547 77.81818389892578 L 119.07081352360547 130.45454788208008 L 119.04908752441406 130.45454788208008 L 119.04908752441406 77.81818389892578" fill-opacity="1" clip-path="url(#rQRKwpSyWkpR)"/><path fill="rgb(38,0,240)" stroke="none" paint-order="stroke" d="M 119.07080841064453 77.81818389892578 L 119.09381240978837 77.81818389892578 L 119.09381240978837 130.45454788208008 L 119.07080841064453 130.45454788208008 L 119.07080841064453 77.81818389892578" fill-opacity="1" clip-path="url(#rQRKwpSyWkpR)"/><path fill="rgb(22,0,247)" stroke="none" paint-order="stroke" d="M 119.09381103515625 77.81818389892578 L 119.11425903439522 77.81818389892578 L 119.11425903439522 130.45454788208008 L 119.09381103515625 130.45454788208008 L 119.09381103515625 77.81818389892578" fill-opacity="1" clip-path="url(#rQRKwpSyWkpR)"/><path fill="rgb(0,0,255)" stroke="none" paint-order="stroke" d="M 119.11426544189453 77.81818389892578 L 119.1347134411335 77.81818389892578 L 119.1347134411335 130.45454788208008 L 119.11426544189453 130.45454788208008 L 119.11426544189453 77.81818389892578" fill-opacity="1" clip-path="url(#rQRKwpSyWkpR)"/><path fill="rgb(0,26,255)" stroke="none" paint-order="stroke" d="M 119.13471221923828 77.81818389892578 L 119.15516021847725 77.81818389892578 L 119.15516021847725 130.45454788208008 L 119.13471221923828 130.45454788208008 L 119.13471221923828 77.81818389892578" fill-opacity="1" clip-path="url(#rQRKwpSyWkpR)"/><path fill="rgb(0,52,255)" stroke="none" paint-order="stroke" d="M 119.15515899658203 77.81818389892578 L 119.17816299572587 77.81818389892578 L 119.17816299572587 130.45454788208008 L 119.15515899658203 130.45454788208008 L 119.15515899658203 77.81818389892578" fill-opacity="1" clip-path="url(#rQRKwpSyWkpR)"/><path fill="rgb(0,70,255)" stroke="none" paint-order="stroke" d="M 119.17816162109375 77.81818389892578 L 119.24206162244081 77.81818389892578 L 119.24206162244081 130.45454788208008 L 119.17816162109375 130.45454788208008 L 119.17816162109375 77.81818389892578" fill-opacity="1" clip-path="url(#rQRKwpSyWkpR)"/><path fill="rgb(0,86,255)" stroke="none" paint-order="stroke" d="M 119.2420654296875 77.81818389892578 L 119.30596543103456 77.81818389892578 L 119.30596543103456 130.45454788208008 L 119.2420654296875 130.45454788208008 L 119.2420654296875 77.81818389892578" fill-opacity="1" clip-path="url(#rQRKwpSyWkpR)"/><path fill="rgb(0,102,255)" stroke="none" paint-order="stroke" d="M 119.30596160888672 77.81818389892578 L 119.34685760736465 77.81818389892578 L 119.34685760736465 130.45454788208008 L 119.30596160888672 130.45454788208008 L 119.30596160888672 77.81818389892578" fill-opacity="1" clip-path="url(#rQRKwpSyWkpR)"/><path fill="rgb(0,117,255)" stroke="none" paint-order="stroke" d="M 119.34685516357422 77.81818389892578 L 119.36985916271806 77.81818389892578 L 119.36985916271806 130.45454788208008 L 119.34685516357422 130.45454788208008 L 119.34685516357422 77.81818389892578" fill-opacity="1" clip-path="url(#rQRKwpSyWkpR)"/><path fill="rgb(0,132,255)" stroke="none" paint-order="stroke" d="M 119.36986541748047 77.81818389892578 L 119.389035416767 77.81818389892578 L 119.389035416767 130.45454788208008 L 119.36986541748047 130.45454788208008 L 119.36986541748047 77.81818389892578" fill-opacity="1" clip-path="url(#rQRKwpSyWkpR)"/><path fill="rgb(0,146,255)" stroke="none" paint-order="stroke" d="M 119.38903045654297 77.81818389892578 L 119.41075645573437 77.81818389892578 L 119.41075645573437 130.45454788208008 L 119.38903045654297 130.45454788208008 L 119.38903045654297 77.81818389892578" fill-opacity="1" clip-path="url(#rQRKwpSyWkpR)"/><path fill="rgb(0,160,255)" stroke="none" paint-order="stroke" d="M 119.41075897216797 77.81818389892578 L 119.45293297246099 77.81818389892578 L 119.45293297246099 130.45454788208008 L 119.41075897216797 130.45454788208008 L 119.41075897216797 77.81818389892578" fill-opacity="1" clip-path="url(#rQRKwpSyWkpR)"/><path fill="rgb(0,173,255)" stroke="none" paint-order="stroke" d="M 119.45293426513672 77.81818389892578 L 119.47466026432812 77.81818389892578 L 119.47466026432812 130.45454788208008 L 119.45293426513672 130.45454788208008 L 119.45293426513672 77.81818389892578" fill-opacity="1" clip-path="url(#rQRKwpSyWkpR)"/><path fill="rgb(0,187,255)" stroke="none" paint-order="stroke" d="M 119.47465515136719 77.81818389892578 L 119.49638115055859 77.81818389892578 L 119.49638115055859 130.45454788208008 L 119.47465515136719 130.45454788208008 L 119.47465515136719 77.81818389892578" fill-opacity="1" clip-path="url(#rQRKwpSyWkpR)"/><path fill="rgb(0,200,255)" stroke="none" paint-order="stroke" d="M 119.49638366699219 77.81818389892578 L 119.51810966618359 77.81818389892578 L 119.51810966618359 130.45454788208008 L 119.49638366699219 130.45454788208008 L 119.49638366699219 77.81818389892578" fill-opacity="1" clip-path="url(#rQRKwpSyWkpR)"/><path fill="rgb(0,226,255)" stroke="none" paint-order="stroke" d="M 119.51811218261719 77.81818389892578 L 119.53856018185616 77.81818389892578 L 119.53856018185616 130.45454788208008 L 119.51811218261719 130.45454788208008 L 119.51811218261719 77.81818389892578" fill-opacity="1" clip-path="url(#rQRKwpSyWkpR)"/><path fill="rgb(0,238,255)" stroke="none" paint-order="stroke" d="M 119.53855895996094 77.81818389892578 L 119.56028495915234 77.81818389892578 L 119.56028495915234 130.45454788208008 L 119.53855895996094 130.45454788208008 L 119.53855895996094 77.81818389892578" fill-opacity="1" clip-path="url(#rQRKwpSyWkpR)"/><path fill="rgb(0,250,255)" stroke="none" paint-order="stroke" d="M 119.56028747558594 77.81818389892578 L 119.5807354748249 77.81818389892578 L 119.5807354748249 130.45454788208008 L 119.56028747558594 130.45454788208008 L 119.56028747558594 77.81818389892578" fill-opacity="1" clip-path="url(#rQRKwpSyWkpR)"/><path fill="rgb(0,255,234)" stroke="none" paint-order="stroke" d="M 119.58073425292969 77.81818389892578 L 119.60246025212109 77.81818389892578 L 119.60246025212109 130.45454788208008 L 119.58073425292969 130.45454788208008 L 119.58073425292969 77.81818389892578" fill-opacity="1" clip-path="url(#rQRKwpSyWkpR)"/><path fill="rgb(0,255,202)" stroke="none" paint-order="stroke" d="M 119.60245513916016 77.81818389892578 L 119.62418113835156 77.81818389892578 L 119.62418113835156 130.45454788208008 L 119.60245513916016 130.45454788208008 L 119.60245513916016 77.81818389892578" fill-opacity="1" clip-path="url(#rQRKwpSyWkpR)"/><path fill="rgb(0,255,169)" stroke="none" paint-order="stroke" d="M 119.62418365478516 77.81818389892578 L 119.64463165402412 77.81818389892578 L 119.64463165402412 130.45454788208008 L 119.62418365478516 130.45454788208008 L 119.62418365478516 77.81818389892578" fill-opacity="1" clip-path="url(#rQRKwpSyWkpR)"/><path fill="rgb(0,255,134)" stroke="none" paint-order="stroke" d="M 119.6446304321289 77.81818389892578 L 119.66507843136787 77.81818389892578 L 119.66507843136787 130.45454788208008 L 119.6446304321289 130.45454788208008 L 119.6446304321289 77.81818389892578" fill-opacity="1" clip-path="url(#rQRKwpSyWkpR)"/><path fill="rgb(0,255,97)" stroke="none" paint-order="stroke" d="M 119.66507720947266 77.81818389892578 L 119.6880812086165 77.81818389892578 L 119.6880812086165 130.45454788208008 L 119.66507720947266 130.45454788208008 L 119.66507720947266 77.81818389892578" fill-opacity="1" clip-path="url(#rQRKwpSyWkpR)"/><path fill="rgb(8,255,0)" stroke="none" paint-order="stroke" d="M 119.6880874633789 77.81818389892578 L 119.73026146367192 77.81818389892578 L 119.73026146367192 130.45454788208008 L 119.6880874633789 130.45454788208008 L 119.6880874633789 77.81818389892578" fill-opacity="1" clip-path="url(#rQRKwpSyWkpR)"/><path fill="rgb(25,255,0)" stroke="none" paint-order="stroke" d="M 119.73025512695312 77.81818389892578 L 119.75325912609696 77.81818389892578 L 119.75325912609696 130.45454788208008 L 119.73025512695312 130.45454788208008 L 119.73025512695312 77.81818389892578" fill-opacity="1" clip-path="url(#rQRKwpSyWkpR)"/><path fill="rgb(40,255,0)" stroke="none" paint-order="stroke" d="M 119.75326538085938 77.81818389892578 L 119.77243538014591 77.81818389892578 L 119.77243538014591 130.45454788208008 L 119.75326538085938 130.45454788208008 L 119.75326538085938 77.81818389892578" fill-opacity="1" clip-path="url(#rQRKwpSyWkpR)"/><path fill="rgb(53,255,0)" stroke="none" paint-order="stroke" d="M 119.77243041992188 77.81818389892578 L 119.79287841916084 77.81818389892578 L 119.79287841916084 130.45454788208008 L 119.77243041992188 130.45454788208008 L 119.77243041992188 77.81818389892578" fill-opacity="1" clip-path="url(#rQRKwpSyWkpR)"/><path fill="rgb(78,255,0)" stroke="none" paint-order="stroke" d="M 119.79287719726562 77.81818389892578 L 119.81460319645703 77.81818389892578 L 119.81460319645703 130.45454788208008 L 119.79287719726562 130.45454788208008 L 119.79287719726562 77.81818389892578" fill-opacity="1" clip-path="url(#rQRKwpSyWkpR)"/><path fill="rgb(89,255,0)" stroke="none" paint-order="stroke" d="M 119.81460571289062 77.81818389892578 L 119.83633171208203 77.81818389892578 L 119.83633171208203 130.45454788208008 L 119.81460571289062 130.45454788208008 L 119.81460571289062 77.81818389892578" fill-opacity="1" clip-path="url(#rQRKwpSyWkpR)"/><path fill="rgb(101,255,0)" stroke="none" paint-order="stroke" d="M 119.83633422851562 77.81818389892578 L 119.8567822277546 77.81818389892578 L 119.8567822277546 130.45454788208008 L 119.83633422851562 130.45454788208008 L 119.83633422851562 77.81818389892578" fill-opacity="1" clip-path="url(#rQRKwpSyWkpR)"/><path fill="rgb(122,255,0)" stroke="none" paint-order="stroke" d="M 119.85678100585938 77.81818389892578 L 119.87850700505078 77.81818389892578 L 119.87850700505078 130.45454788208008 L 119.85678100585938 130.45454788208008 L 119.85678100585938 77.81818389892578" fill-opacity="1" clip-path="url(#rQRKwpSyWkpR)"/><path fill="rgb(162,255,0)" stroke="none" paint-order="stroke" d="M 119.87850952148438 77.81818389892578 L 119.90023552067578 77.81818389892578 L 119.90023552067578 130.45454788208008 L 119.87850952148438 130.45454788208008 L 119.87850952148438 77.81818389892578" fill-opacity="1" clip-path="url(#rQRKwpSyWkpR)"/><path fill="rgb(182,255,0)" stroke="none" paint-order="stroke" d="M 119.90023040771484 77.81818389892578 L 119.92067840695381 77.81818389892578 L 119.92067840695381 130.45454788208008 L 119.90023040771484 130.45454788208008 L 119.90023040771484 77.81818389892578" fill-opacity="1" clip-path="url(#rQRKwpSyWkpR)"/><path fill="rgb(210,255,0)" stroke="none" paint-order="stroke" d="M 119.9206771850586 77.81818389892578 L 119.94240318425 77.81818389892578 L 119.94240318425 130.45454788208008 L 119.9206771850586 130.45454788208008 L 119.9206771850586 77.81818389892578" fill-opacity="1" clip-path="url(#rQRKwpSyWkpR)"/><path fill="rgb(231,255,0)" stroke="none" paint-order="stroke" d="M 119.9424057006836 77.81818389892578 L 119.96285369992256 77.81818389892578 L 119.96285369992256 130.45454788208008 L 119.9424057006836 130.45454788208008 L 119.9424057006836 77.81818389892578" fill-opacity="1" clip-path="url(#rQRKwpSyWkpR)"/><path fill="rgb(249,255,0)" stroke="none" paint-order="stroke" d="M 119.96285247802734 77.81818389892578 L 119.98457847721875 77.81818389892578 L 119.98457847721875 130.45454788208008 L 119.96285247802734 130.45454788208008 L 119.96285247802734 77.81818389892578" fill-opacity="1" clip-path="url(#rQRKwpSyWkpR)"/><path fill="rgb(255,242,0)" stroke="none" paint-order="stroke" d="M 119.98458099365234 77.81818389892578 L 120.00630699284375 77.81818389892578 L 120.00630699284375 130.45454788208008 L 119.98458099365234 130.45454788208008 L 119.98458099365234 77.81818389892578" fill-opacity="1" clip-path="url(#rQRKwpSyWkpR)"/><path fill="rgb(255,223,0)" stroke="none" paint-order="stroke" d="M 120.00630950927734 77.81818389892578 L 120.02803550846875 77.81818389892578 L 120.02803550846875 130.45454788208008 L 120.00630950927734 130.45454788208008 L 120.00630950927734 77.81818389892578" fill-opacity="1" clip-path="url(#rQRKwpSyWkpR)"/><path fill="rgb(255,213,0)" stroke="none" paint-order="stroke" d="M 120.02803039550781 77.81818389892578 L 120.04847839474678 77.81818389892578 L 120.04847839474678 130.45454788208008 L 120.02803039550781 130.45454788208008 L 120.02803039550781 77.81818389892578" fill-opacity="1" clip-path="url(#rQRKwpSyWkpR)"/><path fill="rgb(255,203,0)" stroke="none" paint-order="stroke" d="M 120.04847717285156 77.81818389892578 L 120.07020317204297 77.81818389892578 L 120.07020317204297 130.45454788208008 L 120.04847717285156 130.45454788208008 L 120.04847717285156 77.81818389892578" fill-opacity="1" clip-path="url(#rQRKwpSyWkpR)"/><path fill="rgb(255,183,0)" stroke="none" paint-order="stroke" d="M 120.07020568847656 77.81818389892578 L 120.09065368771553 77.81818389892578 L 120.09065368771553 130.45454788208008 L 120.07020568847656 130.45454788208008 L 120.07020568847656 77.81818389892578" fill-opacity="1" clip-path="url(#rQRKwpSyWkpR)"/><path fill="rgb(255,162,0)" stroke="none" paint-order="stroke" d="M 120.09065246582031 77.81818389892578 L 120.11237846501172 77.81818389892578 L 120.11237846501172 130.45454788208008 L 120.09065246582031 130.45454788208008 L 120.09065246582031 77.81818389892578" fill-opacity="1" clip-path="url(#rQRKwpSyWkpR)"/><path fill="rgb(255,151,0)" stroke="none" paint-order="stroke" d="M 120.11238098144531 77.81818389892578 L 120.13410698063672 77.81818389892578 L 120.13410698063672 130.45454788208008 L 120.11238098144531 130.45454788208008 L 120.11238098144531 77.81818389892578" fill-opacity="1" clip-path="url(#rQRKwpSyWkpR)"/><path fill="rgb(255,129,0)" stroke="none" paint-order="stroke" d="M 120.13410949707031 77.81818389892578 L 120.15583549626172 77.81818389892578 L 120.15583549626172 130.45454788208008 L 120.13410949707031 130.45454788208008 L 120.13410949707031 77.81818389892578" fill-opacity="1" clip-path="url(#rQRKwpSyWkpR)"/><path fill="rgb(255,107,0)" stroke="none" paint-order="stroke" d="M 120.15583038330078 77.81818389892578 L 120.17627838253975 77.81818389892578 L 120.17627838253975 130.45454788208008 L 120.15583038330078 130.45454788208008 L 120.15583038330078 77.81818389892578" fill-opacity="1" clip-path="url(#rQRKwpSyWkpR)"/><path fill="rgb(255,95,0)" stroke="none" paint-order="stroke" d="M 120.17627716064453 77.81818389892578 L 120.19800315983593 77.81818389892578 L 120.19800315983593 130.45454788208008 L 120.17627716064453 130.45454788208008 L 120.17627716064453 77.81818389892578" fill-opacity="1" clip-path="url(#rQRKwpSyWkpR)"/><path fill="rgb(255,83,0)" stroke="none" paint-order="stroke" d="M 120.19800567626953 77.81818389892578 L 120.24017967656255 77.81818389892578 L 120.24017967656255 130.45454788208008 L 120.19800567626953 130.45454788208008 L 120.19800567626953 77.81818389892578" fill-opacity="1" clip-path="url(#rQRKwpSyWkpR)"/><path fill="rgb(255,66,0)" stroke="none" paint-order="stroke" d="M 120.24018096923828 77.81818389892578 L 120.2823549695313 77.81818389892578 L 120.2823549695313 130.45454788208008 L 120.24018096923828 130.45454788208008 L 120.24018096923828 77.81818389892578" fill-opacity="1" clip-path="url(#rQRKwpSyWkpR)"/><path fill="rgb(255,52,0)" stroke="none" paint-order="stroke" d="M 120.28235626220703 77.81818389892578 L 120.30408226139843 77.81818389892578 L 120.30408226139843 130.45454788208008 L 120.28235626220703 130.45454788208008 L 120.28235626220703 77.81818389892578" fill-opacity="1" clip-path="url(#rQRKwpSyWkpR)"/><path fill="rgb(255,21,0)" stroke="none" paint-order="stroke" d="M 120.3040771484375 77.81818389892578 L 120.34625114873052 77.81818389892578 L 120.34625114873052 130.45454788208008 L 120.3040771484375 130.45454788208008 L 120.3040771484375 77.81818389892578" fill-opacity="1" clip-path="url(#rQRKwpSyWkpR)"/><path fill="rgb(250,0,0)" stroke="none" paint-order="stroke" d="M 120.34625244140625 77.81818389892578 L 120.38842644169927 77.81818389892578 L 120.38842644169927 130.45454788208008 L 120.34625244140625 130.45454788208008 L 120.34625244140625 77.81818389892578" fill-opacity="1" clip-path="url(#rQRKwpSyWkpR)"/><path fill="rgb(246,0,0)" stroke="none" paint-order="stroke" d="M 120.388427734375 77.81818389892578 L 120.4101537335664 77.81818389892578 L 120.4101537335664 130.45454788208008 L 120.388427734375 130.45454788208008 L 120.388427734375 77.81818389892578" fill-opacity="1" clip-path="url(#rQRKwpSyWkpR)"/><path fill="rgb(242,0,0)" stroke="none" paint-order="stroke" d="M 120.41015625 77.81818389892578 L 120.4318822491914 77.81818389892578 L 120.4318822491914 130.45454788208008 L 120.41015625 130.45454788208008 L 120.41015625 77.81818389892578" fill-opacity="1" clip-path="url(#rQRKwpSyWkpR)"/><path fill="rgb(234,0,0)" stroke="none" paint-order="stroke" d="M 120.43187713623047 77.81818389892578 L 120.45232513546944 77.81818389892578 L 120.45232513546944 130.45454788208008 L 120.43187713623047 130.45454788208008 L 120.43187713623047 77.81818389892578" fill-opacity="1" clip-path="url(#rQRKwpSyWkpR)"/><path fill="rgb(230,0,0)" stroke="none" paint-order="stroke" d="M 120.45233154296875 77.81818389892578 L 120.47277954220772 77.81818389892578 L 120.47277954220772 130.45454788208008 L 120.45233154296875 130.45454788208008 L 120.45233154296875 77.81818389892578" fill-opacity="1" clip-path="url(#rQRKwpSyWkpR)"/><path fill="rgb(226,0,0)" stroke="none" paint-order="stroke" d="M 120.4727783203125 77.81818389892578 L 120.51495232060552 77.81818389892578 L 120.51495232060552 130.45454788208008 L 120.4727783203125 130.45454788208008 L 120.4727783203125 77.81818389892578" fill-opacity="1" clip-path="url(#rQRKwpSyWkpR)"/><path fill="rgb(221,0,0)" stroke="none" paint-order="stroke" d="M 120.51495361328125 77.81818389892578 L 120.53795761242509 77.81818389892578 L 120.53795761242509 130.45454788208008 L 120.51495361328125 130.45454788208008 L 120.51495361328125 77.81818389892578" fill-opacity="1" clip-path="url(#rQRKwpSyWkpR)"/><path fill="rgb(217,0,0)" stroke="none" paint-order="stroke" d="M 120.53795623779297 77.81818389892578 L 120.55840423703194 77.81818389892578 L 120.55840423703194 130.45454788208008 L 120.53795623779297 130.45454788208008 L 120.53795623779297 77.81818389892578" fill-opacity="1" clip-path="url(#rQRKwpSyWkpR)"/><path fill="rgb(213,0,0)" stroke="none" paint-order="stroke" d="M 120.55840301513672 77.81818389892578 L 120.58012901432812 77.81818389892578 L 120.58012901432812 130.45454788208008 L 120.55840301513672 130.45454788208008 L 120.55840301513672 77.81818389892578" fill-opacity="1" clip-path="url(#rQRKwpSyWkpR)"/><path fill="rgb(209,0,0)" stroke="none" paint-order="stroke" d="M 120.58013153076172 77.81818389892578 L 120.62230553105474 77.81818389892578 L 120.62230553105474 130.45454788208008 L 120.58013153076172 130.45454788208008 L 120.58013153076172 77.81818389892578" fill-opacity="1" clip-path="url(#rQRKwpSyWkpR)"/><path fill="rgb(200,0,0)" stroke="none" paint-order="stroke" d="M 120.62229919433594 77.81818389892578 L 120.66447319462895 77.81818389892578 L 120.66447319462895 130.45454788208008 L 120.62229919433594 130.45454788208008 L 120.62229919433594 77.81818389892578" fill-opacity="1" clip-path="url(#rQRKwpSyWkpR)"/><path fill="rgb(196,0,0)" stroke="none" paint-order="stroke" d="M 120.66447448730469 77.81818389892578 L 120.68620048649609 77.81818389892578 L 120.68620048649609 130.45454788208008 L 120.66447448730469 130.45454788208008 L 120.66447448730469 77.81818389892578" fill-opacity="1" clip-path="url(#rQRKwpSyWkpR)"/><path fill="rgb(191,0,0)" stroke="none" paint-order="stroke" d="M 120.68620300292969 77.81818389892578 L 120.70792900212109 77.81818389892578 L 120.70792900212109 130.45454788208008 L 120.68620300292969 130.45454788208008 L 120.68620300292969 77.81818389892578" fill-opacity="1" clip-path="url(#rQRKwpSyWkpR)"/><path fill="rgb(187,0,0)" stroke="none" paint-order="stroke" d="M 120.70793151855469 77.81818389892578 L 120.72837951779366 77.81818389892578 L 120.72837951779366 130.45454788208008 L 120.70793151855469 130.45454788208008 L 120.70793151855469 77.81818389892578" fill-opacity="1" clip-path="url(#rQRKwpSyWkpR)"/><path fill="rgb(181,0,0)" stroke="none" paint-order="stroke" d="M 120.72837829589844 77.81818389892578 L 120.77055229619145 77.81818389892578 L 120.77055229619145 130.45454788208008 L 120.72837829589844 130.45454788208008 L 120.72837829589844 77.81818389892578" fill-opacity="1" clip-path="url(#rQRKwpSyWkpR)"/><path fill="rgb(176,0,0)" stroke="none" paint-order="stroke" d="M 120.77055358886719 77.81818389892578 L 120.79227958805859 77.81818389892578 L 120.79227958805859 130.45454788208008 L 120.77055358886719 130.45454788208008 L 120.77055358886719 77.81818389892578" fill-opacity="1" clip-path="url(#rQRKwpSyWkpR)"/><path fill="rgb(172,0,0)" stroke="none" paint-order="stroke" d="M 120.79227447509766 77.81818389892578 L 120.81400047428906 77.81818389892578 L 120.81400047428906 130.45454788208008 L 120.79227447509766 130.45454788208008 L 120.79227447509766 77.81818389892578" fill-opacity="1" clip-path="url(#rQRKwpSyWkpR)"/><path fill="rgb(167,0,0)" stroke="none" paint-order="stroke" d="M 120.81400299072266 77.81818389892578 L 120.83572898991406 77.81818389892578 L 120.83572898991406 130.45454788208008 L 120.81400299072266 130.45454788208008 L 120.81400299072266 77.81818389892578" fill-opacity="1" clip-path="url(#rQRKwpSyWkpR)"/><path fill="rgb(163,0,0)" stroke="none" paint-order="stroke" d="M 120.83573150634766 77.81818389892578 L 120.85617950558662 77.81818389892578 L 120.85617950558662 130.45454788208008 L 120.83573150634766 130.45454788208008 L 120.83573150634766 77.81818389892578" fill-opacity="1" clip-path="url(#rQRKwpSyWkpR)"/><path fill="rgb(158,0,0)" stroke="none" paint-order="stroke" d="M 120.8561782836914 77.81818389892578 L 120.87790428288281 77.81818389892578 L 120.87790428288281 130.45454788208008 L 120.8561782836914 130.45454788208008 L 120.8561782836914 77.81818389892578" fill-opacity="1" clip-path="url(#rQRKwpSyWkpR)"/><path fill="rgb(154,0,0)" stroke="none" paint-order="stroke" d="M 120.87789916992188 77.81818389892578 L 120.89834716916084 77.81818389892578 L 120.89834716916084 130.45454788208008 L 120.87789916992188 130.45454788208008 L 120.87789916992188 77.81818389892578" fill-opacity="1" clip-path="url(#rQRKwpSyWkpR)"/><path fill="rgb(149,0,0)" stroke="none" paint-order="stroke" d="M 120.89835357666016 77.81818389892578 L 120.92007957585156 77.81818389892578 L 120.92007957585156 130.45454788208008 L 120.89835357666016 130.45454788208008 L 120.89835357666016 77.81818389892578" fill-opacity="1" clip-path="url(#rQRKwpSyWkpR)"/><path fill="rgb(144,0,0)" stroke="none" paint-order="stroke" d="M 120.92007446289062 77.81818389892578 L 120.9405224621296 77.81818389892578 L 120.9405224621296 130.45454788208008 L 120.92007446289062 130.45454788208008 L 120.92007446289062 77.81818389892578" fill-opacity="1" clip-path="url(#rQRKwpSyWkpR)"/><path fill="rgb(135,0,0)" stroke="none" paint-order="stroke" d="M 120.94052124023438 77.81818389892578 L 120.96224723942578 77.81818389892578 L 120.96224723942578 130.45454788208008 L 120.94052124023438 130.45454788208008 L 120.94052124023438 77.81818389892578" fill-opacity="1" clip-path="url(#rQRKwpSyWkpR)"/><path fill="rgb(130,0,0)" stroke="none" paint-order="stroke" d="M 120.96224975585938 77.81818389892578 L 120.98269775509834 77.81818389892578 L 120.98269775509834 130.45454788208008 L 120.96224975585938 130.45454788208008 L 120.96224975585938 77.81818389892578" fill-opacity="1" clip-path="url(#rQRKwpSyWkpR)"/><path fill="rgb(125,0,0)" stroke="none" paint-order="stroke" d="M 120.98269653320312 77.81818389892578 L 121.00442253239453 77.81818389892578 L 121.00442253239453 130.45454788208008 L 120.98269653320312 130.45454788208008 L 120.98269653320312 77.81818389892578" fill-opacity="1" clip-path="url(#rQRKwpSyWkpR)"/><path fill="rgb(120,0,0)" stroke="none" paint-order="stroke" d="M 121.00442504882812 77.81818389892578 L 121.02615104801953 77.81818389892578 L 121.02615104801953 130.45454788208008 L 121.00442504882812 130.45454788208008 L 121.00442504882812 77.81818389892578" fill-opacity="1" clip-path="url(#rQRKwpSyWkpR)"/><path fill="rgb(110,0,0)" stroke="none" paint-order="stroke" d="M 121.02615356445312 77.81818389892578 L 121.0466015636921 77.81818389892578 L 121.0466015636921 130.45454788208008 L 121.02615356445312 130.45454788208008 L 121.02615356445312 77.81818389892578" fill-opacity="1" clip-path="url(#rQRKwpSyWkpR)"/><path fill="rgb(105,0,0)" stroke="none" paint-order="stroke" d="M 121.04660034179688 77.81818389892578 L 121.06832634098828 77.81818389892578 L 121.06832634098828 130.45454788208008 L 121.04660034179688 130.45454788208008 L 121.04660034179688 77.81818389892578" fill-opacity="1" clip-path="url(#rQRKwpSyWkpR)"/><path fill="rgb(100,0,0)" stroke="none" paint-order="stroke" d="M 121.06832122802734 77.81818389892578 L 121.09004722721875 77.81818389892578 L 121.09004722721875 130.45454788208008 L 121.06832122802734 130.45454788208008 L 121.06832122802734 77.81818389892578" fill-opacity="1" clip-path="url(#rQRKwpSyWkpR)"/><path fill="rgb(0,0,0)" stroke="none" paint-order="stroke" d="M 121.09004974365234 77.81818389892578 L 121.11049774289131 77.81818389892578 L 121.11049774289131 130.45454788208008 L 121.09004974365234 130.45454788208008 L 121.09004974365234 77.81818389892578" fill-opacity="1" clip-path="url(#rQRKwpSyWkpR)"/><path fill="rgb(0,0,0)" stroke="none" paint-order="stroke" d="M 121.1104965209961 77.81818389892578 L 121.13094452023506 77.81818389892578 L 121.13094452023506 130.45454788208008 L 121.1104965209961 130.45454788208008 L 121.1104965209961 77.81818389892578" fill-opacity="1" clip-path="url(#rQRKwpSyWkpR)"/><path fill="rgb(0,0,0)" stroke="none" paint-order="stroke" d="M 121.13094329833984 77.81818389892578 L 121.15394729748368 77.81818389892578 L 121.15394729748368 130.45454788208008 L 121.13094329833984 130.45454788208008 L 121.13094329833984 77.81818389892578" fill-opacity="1" clip-path="url(#rQRKwpSyWkpR)"/><path fill="rgb(0,0,0)" stroke="none" paint-order="stroke" d="M 121.1539535522461 77.81818389892578 L 121.1756795514375 77.81818389892578 L 121.1756795514375 130.45454788208008 L 121.1539535522461 130.45454788208008 L 121.1539535522461 77.81818389892578" fill-opacity="1" clip-path="url(#rQRKwpSyWkpR)"/><path fill="rgb(0,0,0)" stroke="none" paint-order="stroke" d="M 121.17567443847656 77.81818389892578 L 121.19612243771553 77.81818389892578 L 121.19612243771553 130.45454788208008 L 121.17567443847656 130.45454788208008 L 121.17567443847656 77.81818389892578" fill-opacity="1" clip-path="url(#rQRKwpSyWkpR)"/><path fill="rgb(0,0,0)" stroke="none" paint-order="stroke" d="M 121.19612121582031 77.81818389892578 L 121.21784721501172 77.81818389892578 L 121.21784721501172 130.45454788208008 L 121.19612121582031 130.45454788208008 L 121.19612121582031 77.81818389892578" fill-opacity="1" clip-path="url(#rQRKwpSyWkpR)"/><path fill="rgb(0,0,0)" stroke="none" paint-order="stroke" d="M 121.21784973144531 77.81818389892578 L 121.23957573063672 77.81818389892578 L 121.23957573063672 130.45454788208008 L 121.21784973144531 130.45454788208008 L 121.21784973144531 77.81818389892578" fill-opacity="1" clip-path="url(#rQRKwpSyWkpR)"/><path fill="rgb(0,0,0)" stroke="none" paint-order="stroke" d="M 121.23957824707031 77.81818389892578 L 121.25874824635684 77.81818389892578 L 121.25874824635684 130.45454788208008 L 121.23957824707031 130.45454788208008 L 121.23957824707031 77.81818389892578" fill-opacity="1" clip-path="url(#rQRKwpSyWkpR)"/><path fill="rgb(0,0,0)" stroke="none" paint-order="stroke" d="M 121.25874328613281 77.81818389892578 L 122.64026129245758 77.81818389892578 L 122.64026129245758 130.45454788208008 L 121.25874328613281 130.45454788208008 L 121.25874328613281 77.81818389892578" fill-opacity="1" clip-path="url(#rQRKwpSyWkpR)"/><path fill="rgb(0,0,0)" stroke="none" paint-order="stroke" d="M 122.64026641845703 77.81818389892578 L 122.660714417696 77.81818389892578 L 122.660714417696 130.45454788208008 L 122.64026641845703 130.45454788208008 L 122.64026641845703 77.81818389892578" fill-opacity="1" clip-path="url(#rQRKwpSyWkpR)"/><path fill="rgb(0,0,0)" stroke="none" paint-order="stroke" d="M 122.66071319580078 77.81818389892578 L 122.68243919499218 77.81818389892578 L 122.68243919499218 130.45454788208008 L 122.66071319580078 130.45454788208008 L 122.66071319580078 77.81818389892578" fill-opacity="1" clip-path="url(#rQRKwpSyWkpR)"/><path fill="rgb(135,0,0)" stroke="none" paint-order="stroke" d="M 122.68244171142578 77.81818389892578 L 122.70416771061718 77.81818389892578 L 122.70416771061718 130.45454788208008 L 122.68244171142578 130.45454788208008 L 122.68244171142578 77.81818389892578" fill-opacity="1" clip-path="url(#rQRKwpSyWkpR)"/><path fill="rgb(181,0,0)" stroke="none" paint-order="stroke" d="M 122.70416259765625 77.81818389892578 L 122.72461059689522 77.81818389892578 L 122.72461059689522 130.45454788208008 L 122.70416259765625 130.45454788208008 L 122.70416259765625 77.81818389892578" fill-opacity="1" clip-path="url(#rQRKwpSyWkpR)"/><path fill="rgb(226,0,0)" stroke="none" paint-order="stroke" d="M 122.724609375 77.81818389892578 L 122.7463353741914 77.81818389892578 L 122.7463353741914 130.45454788208008 L 122.724609375 130.45454788208008 L 122.724609375 77.81818389892578" fill-opacity="1" clip-path="url(#rQRKwpSyWkpR)"/><path fill="rgb(255,52,0)" stroke="none" paint-order="stroke" d="M 122.746337890625 77.81818389892578 L 122.76678588986397 77.81818389892578 L 122.76678588986397 130.45454788208008 L 122.746337890625 130.45454788208008 L 122.746337890625 77.81818389892578" fill-opacity="1" clip-path="url(#rQRKwpSyWkpR)"/><path fill="rgb(255,107,0)" stroke="none" paint-order="stroke" d="M 122.76678466796875 77.81818389892578 L 122.78978866711259 77.81818389892578 L 122.78978866711259 130.45454788208008 L 122.76678466796875 130.45454788208008 L 122.76678466796875 77.81818389892578" fill-opacity="1" clip-path="url(#rQRKwpSyWkpR)"/><path fill="rgb(255,118,0)" stroke="none" paint-order="stroke" d="M 122.78978729248047 77.81818389892578 L 122.81023529171944 77.81818389892578 L 122.81023529171944 130.45454788208008 L 122.78978729248047 130.45454788208008 L 122.78978729248047 77.81818389892578" fill-opacity="1" clip-path="url(#rQRKwpSyWkpR)"/><path fill="rgb(255,141,0)" stroke="none" paint-order="stroke" d="M 122.81024169921875 77.81818389892578 L 122.83196769841015 77.81818389892578 L 122.83196769841015 130.45454788208008 L 122.81024169921875 130.45454788208008 L 122.81024169921875 77.81818389892578" fill-opacity="1" clip-path="url(#rQRKwpSyWkpR)"/><path fill="rgb(255,151,0)" stroke="none" paint-order="stroke" d="M 122.83196258544922 77.81818389892578 L 123.25753659009933 77.81818389892578 L 123.25753659009933 130.45454788208008 L 122.83196258544922 130.45454788208008 L 122.83196258544922 77.81818389892578" fill-opacity="1" clip-path="url(#rQRKwpSyWkpR)"/><path fill="rgb(255,162,0)" stroke="none" paint-order="stroke" d="M 123.25753784179688 77.81818389892578 L 123.61793383955956 77.81818389892578 L 123.61793383955956 130.45454788208008 L 123.25753784179688 130.45454788208008 L 123.25753784179688 77.81818389892578" fill-opacity="1" clip-path="url(#rQRKwpSyWkpR)"/><path fill="rgb(255,172,0)" stroke="none" paint-order="stroke" d="M 123.61793518066406 77.81818389892578 L 123.68055718392134 77.81818389892578 L 123.68055718392134 130.45454788208008 L 123.61793518066406 130.45454788208008 L 123.61793518066406 77.81818389892578" fill-opacity="1" clip-path="url(#rQRKwpSyWkpR)"/><path fill="rgb(255,183,0)" stroke="none" paint-order="stroke" d="M 123.68055725097656 77.81818389892578 L 123.70228325016797 77.81818389892578 L 123.70228325016797 130.45454788208008 L 123.68055725097656 130.45454788208008 L 123.68055725097656 77.81818389892578" fill-opacity="1" clip-path="url(#rQRKwpSyWkpR)"/><path fill="rgb(255,193,0)" stroke="none" paint-order="stroke" d="M 123.70228576660156 77.81818389892578 L 123.72401176579297 77.81818389892578 L 123.72401176579297 130.45454788208008 L 123.70228576660156 130.45454788208008 L 123.70228576660156 77.81818389892578" fill-opacity="1" clip-path="url(#rQRKwpSyWkpR)"/><path fill="rgb(255,203,0)" stroke="none" paint-order="stroke" d="M 123.72400665283203 77.81818389892578 L 123.76618065312505 77.81818389892578 L 123.76618065312505 130.45454788208008 L 123.72400665283203 130.45454788208008 L 123.72400665283203 77.81818389892578" fill-opacity="1" clip-path="url(#rQRKwpSyWkpR)"/><path fill="rgb(255,213,0)" stroke="none" paint-order="stroke" d="M 123.76618194580078 77.81818389892578 L 123.78790794499218 77.81818389892578 L 123.78790794499218 130.45454788208008 L 123.76618194580078 130.45454788208008 L 123.76618194580078 77.81818389892578" fill-opacity="1" clip-path="url(#rQRKwpSyWkpR)"/><path fill="rgb(255,232,0)" stroke="none" paint-order="stroke" d="M 123.78791046142578 77.81818389892578 L 123.80708046071231 77.81818389892578 L 123.80708046071231 130.45454788208008 L 123.78791046142578 130.45454788208008 L 123.78791046142578 77.81818389892578" fill-opacity="1" clip-path="url(#rQRKwpSyWkpR)"/><path fill="rgb(255,242,0)" stroke="none" paint-order="stroke" d="M 123.80707550048828 77.81818389892578 L 123.83007949963212 77.81818389892578 L 123.83007949963212 130.45454788208008 L 123.80707550048828 130.45454788208008 L 123.80707550048828 77.81818389892578" fill-opacity="1" clip-path="url(#rQRKwpSyWkpR)"/><path fill="rgb(249,255,0)" stroke="none" paint-order="stroke" d="M 123.83008575439453 77.81818389892578 L 123.85181175358593 77.81818389892578 L 123.85181175358593 130.45454788208008 L 123.83008575439453 130.45454788208008 L 123.83008575439453 77.81818389892578" fill-opacity="1" clip-path="url(#rQRKwpSyWkpR)"/><path fill="rgb(240,255,0)" stroke="none" paint-order="stroke" d="M 123.851806640625 77.81818389892578 L 123.87225463986397 77.81818389892578 L 123.87225463986397 130.45454788208008 L 123.851806640625 130.45454788208008 L 123.851806640625 77.81818389892578" fill-opacity="1" clip-path="url(#rQRKwpSyWkpR)"/><path fill="rgb(231,255,0)" stroke="none" paint-order="stroke" d="M 123.87225341796875 77.81818389892578 L 123.89270141720772 77.81818389892578 L 123.89270141720772 130.45454788208008 L 123.87225341796875 130.45454788208008 L 123.87225341796875 77.81818389892578" fill-opacity="1" clip-path="url(#rQRKwpSyWkpR)"/><path fill="rgb(219,255,0)" stroke="none" paint-order="stroke" d="M 123.8927001953125 77.81818389892578 L 123.9144261945039 77.81818389892578 L 123.9144261945039 130.45454788208008 L 123.8927001953125 130.45454788208008 L 123.8927001953125 77.81818389892578" fill-opacity="1" clip-path="url(#rQRKwpSyWkpR)"/><path fill="rgb(210,255,0)" stroke="none" paint-order="stroke" d="M 123.9144287109375 77.81818389892578 L 123.95660271123052 77.81818389892578 L 123.95660271123052 130.45454788208008 L 123.9144287109375 130.45454788208008 L 123.9144287109375 77.81818389892578" fill-opacity="1" clip-path="url(#rQRKwpSyWkpR)"/><path fill="rgb(201,255,0)" stroke="none" paint-order="stroke" d="M 123.95660400390625 77.81818389892578 L 123.97833000309765 77.81818389892578 L 123.97833000309765 130.45454788208008 L 123.95660400390625 130.45454788208008 L 123.95660400390625 77.81818389892578" fill-opacity="1" clip-path="url(#rQRKwpSyWkpR)"/><path fill="rgb(182,255,0)" stroke="none" paint-order="stroke" d="M 123.97833251953125 77.81818389892578 L 124.00005851872265 77.81818389892578 L 124.00005851872265 130.45454788208008 L 123.97833251953125 130.45454788208008 L 123.97833251953125 77.81818389892578" fill-opacity="1" clip-path="url(#rQRKwpSyWkpR)"/><path fill="rgb(172,255,0)" stroke="none" paint-order="stroke" d="M 124.00005340576172 77.81818389892578 L 124.02050140500069 77.81818389892578 L 124.02050140500069 130.45454788208008 L 124.00005340576172 130.45454788208008 L 124.00005340576172 77.81818389892578" fill-opacity="1" clip-path="url(#rQRKwpSyWkpR)"/><path fill="rgb(162,255,0)" stroke="none" paint-order="stroke" d="M 124.0205078125 77.81818389892578 L 124.0639598108828 77.81818389892578 L 124.0639598108828 130.45454788208008 L 124.0205078125 130.45454788208008 L 124.0205078125 77.81818389892578" fill-opacity="1" clip-path="url(#rQRKwpSyWkpR)"/><path fill="rgb(153,255,0)" stroke="none" paint-order="stroke" d="M 124.06395721435547 77.81818389892578 L 124.08440521359444 77.81818389892578 L 124.08440521359444 130.45454788208008 L 124.06395721435547 130.45454788208008 L 124.06395721435547 77.81818389892578" fill-opacity="1" clip-path="url(#rQRKwpSyWkpR)"/><path fill="rgb(143,255,0)" stroke="none" paint-order="stroke" d="M 124.08440399169922 77.81818389892578 L 124.12657799199224 77.81818389892578 L 124.12657799199224 130.45454788208008 L 124.08440399169922 130.45454788208008 L 124.08440399169922 77.81818389892578" fill-opacity="1" clip-path="url(#rQRKwpSyWkpR)"/><path fill="rgb(132,255,0)" stroke="none" paint-order="stroke" d="M 124.12657928466797 77.81818389892578 L 124.78602731227875 77.81818389892578 L 124.78602731227875 130.45454788208008 L 124.12657928466797 130.45454788208008 L 124.12657928466797 77.81818389892578" fill-opacity="1" clip-path="url(#rQRKwpSyWkpR)"/><path fill="rgb(122,255,0)" stroke="none" paint-order="stroke" d="M 124.78602600097656 77.81818389892578 L 124.95600000023842 77.81818389892578 L 124.95600000023842 130.45454788208008 L 124.78602600097656 130.45454788208008 L 124.78602600097656 77.81818389892578" fill-opacity="1" clip-path="url(#rQRKwpSyWkpR)"/><path fill="rgb(111,255,0)" stroke="none" paint-order="stroke" d="M 124.95600128173828 77.81818389892578 L 125.61417126655579 77.81818389892578 L 125.61417126655579 130.45454788208008 L 124.95600128173828 130.45454788208008 L 124.95600128173828 77.81818389892578" fill-opacity="1" clip-path="url(#rQRKwpSyWkpR)"/><path fill="rgb(101,255,0)" stroke="none" paint-order="stroke" d="M 125.61416625976562 77.81818389892578 L 125.82503625750542 77.81818389892578 L 125.82503625750542 130.45454788208008 L 125.61416625976562 130.45454788208008 L 125.61416625976562 77.81818389892578" fill-opacity="1" clip-path="url(#rQRKwpSyWkpR)"/><path fill="rgb(89,255,0)" stroke="none" paint-order="stroke" d="M 125.82504272460938 77.81818389892578 L 126.39886474609375 77.81818389892578 L 126.39886474609375 130.45454788208008 L 125.82504272460938 130.45454788208008 L 125.82504272460938 77.81818389892578" fill-opacity="1" clip-path="url(#rQRKwpSyWkpR)"/><path fill="rgb(78,255,0)" stroke="none" paint-order="stroke" d="M 126.39886474609375 77.81818389892578 L 126.80526873469353 77.81818389892578 L 126.80526873469353 130.45454788208008 L 126.39886474609375 130.45454788208008 L 126.39886474609375 77.81818389892578" fill-opacity="1" clip-path="url(#rQRKwpSyWkpR)"/><path fill="rgb(66,255,0)" stroke="none" paint-order="stroke" d="M 126.80526733398438 77.81818389892578 L 126.95095933973789 77.81818389892578 L 126.95095933973789 130.45454788208008 L 126.80526733398438 130.45454788208008 L 126.80526733398438 77.81818389892578" fill-opacity="1" clip-path="url(#rQRKwpSyWkpR)"/><path fill="rgb(53,255,0)" stroke="none" paint-order="stroke" d="M 126.95095825195312 77.81818389892578 L 126.99441025033593 77.81818389892578 L 126.99441025033593 130.45454788208008 L 126.95095825195312 130.45454788208008 L 126.95095825195312 77.81818389892578" fill-opacity="1" clip-path="url(#rQRKwpSyWkpR)"/><path fill="rgb(40,255,0)" stroke="none" paint-order="stroke" d="M 126.9944076538086 77.81818389892578 L 127.08003365248442 77.81818389892578 L 127.08003365248442 130.45454788208008 L 126.9944076538086 130.45454788208008 L 126.9944076538086 77.81818389892578" fill-opacity="1" clip-path="url(#rQRKwpSyWkpR)"/><path fill="rgb(25,255,0)" stroke="none" paint-order="stroke" d="M 127.08003234863281 77.81818389892578 L 127.18738435208797 77.81818389892578 L 127.18738435208797 130.45454788208008 L 127.08003234863281 130.45454788208008 L 127.08003234863281 77.81818389892578" fill-opacity="1" clip-path="url(#rQRKwpSyWkpR)"/><path fill="rgb(8,255,0)" stroke="none" paint-order="stroke" d="M 127.18738555908203 77.81818389892578 L 127.52605554461479 77.81818389892578 L 127.52605554461479 130.45454788208008 L 127.18738555908203 130.45454788208008 L 127.18738555908203 77.81818389892578" fill-opacity="1" clip-path="url(#rQRKwpSyWkpR)"/><path fill="rgb(0,255,40)" stroke="none" paint-order="stroke" d="M 127.52605438232422 77.81818389892578 L 127.61040238291025 77.81818389892578 L 127.61040238291025 130.45454788208008 L 127.52605438232422 130.45454788208008 L 127.52605438232422 77.81818389892578" fill-opacity="1" clip-path="url(#rQRKwpSyWkpR)"/><path fill="rgb(0,255,97)" stroke="none" paint-order="stroke" d="M 127.61040496826172 77.81818389892578 L 127.65385696664453 77.81818389892578 L 127.65385696664453 130.45454788208008 L 127.61040496826172 130.45454788208008 L 127.61040496826172 77.81818389892578" fill-opacity="1" clip-path="url(#rQRKwpSyWkpR)"/><path fill="rgb(0,255,134)" stroke="none" paint-order="stroke" d="M 127.65385437011719 77.81818389892578 L 127.67430236935616 77.81818389892578 L 127.67430236935616 130.45454788208008 L 127.65385437011719 130.45454788208008 L 127.65385437011719 77.81818389892578" fill-opacity="1" clip-path="url(#rQRKwpSyWkpR)"/><path fill="rgb(0,255,169)" stroke="none" paint-order="stroke" d="M 127.67430877685547 77.81818389892578 L 127.69603477604687 77.81818389892578 L 127.69603477604687 130.45454788208008 L 127.67430877685547 130.45454788208008 L 127.67430877685547 77.81818389892578" fill-opacity="1" clip-path="url(#rQRKwpSyWkpR)"/><path fill="rgb(0,255,202)" stroke="none" paint-order="stroke" d="M 127.69602966308594 77.81818389892578 L 127.71775566227734 77.81818389892578 L 127.71775566227734 130.45454788208008 L 127.69602966308594 130.45454788208008 L 127.69602966308594 77.81818389892578" fill-opacity="1" clip-path="url(#rQRKwpSyWkpR)"/><path fill="rgb(0,255,234)" stroke="none" paint-order="stroke" d="M 127.71775817871094 77.81818389892578 L 129.56830215454102 77.81818389892578 L 129.56830215454102 130.45454788208008 L 127.71775817871094 130.45454788208008 L 127.71775817871094 77.81818389892578" fill-opacity="1" clip-path="url(#rQRKwpSyWkpR)"/><path fill="rgb(0,255,223)" stroke="none" paint-order="stroke" d="M 129.56829833984375 77.81818389892578 L 129.87501832842827 77.81818389892578 L 129.87501832842827 130.45454788208008 L 129.56829833984375 130.45454788208008 L 129.56829833984375 77.81818389892578" fill-opacity="1" clip-path="url(#rQRKwpSyWkpR)"/><path fill="rgb(0,255,213)" stroke="none" paint-order="stroke" d="M 129.87501525878906 77.81818389892578 L 130.18301326036453 77.81818389892578 L 130.18301326036453 130.45454788208008 L 129.87501525878906 130.45454788208008 L 129.87501525878906 77.81818389892578" fill-opacity="1" clip-path="url(#rQRKwpSyWkpR)"/><path fill="rgb(0,255,202)" stroke="none" paint-order="stroke" d="M 130.18301391601562 77.81818389892578 L 130.4296679198742 77.81818389892578 L 130.4296679198742 130.45454788208008 L 130.18301391601562 130.45454788208008 L 130.18301391601562 77.81818389892578" fill-opacity="1" clip-path="url(#rQRKwpSyWkpR)"/><path fill="rgb(0,255,191)" stroke="none" paint-order="stroke" d="M 130.42967224121094 77.81818389892578 L 130.73511424660683 77.81818389892578 L 130.73511424660683 130.45454788208008 L 130.42967224121094 130.45454788208008 L 130.42967224121094 77.81818389892578" fill-opacity="1" clip-path="url(#rQRKwpSyWkpR)"/><path fill="rgb(0,255,180)" stroke="none" paint-order="stroke" d="M 130.73512268066406 77.81818389892578 L 130.99966868758202 77.81818389892578 L 130.99966868758202 130.45454788208008 L 130.73512268066406 130.45454788208008 L 130.73512268066406 77.81818389892578" fill-opacity="1" clip-path="url(#rQRKwpSyWkpR)"/><path fill="rgb(0,255,169)" stroke="none" paint-order="stroke" d="M 130.99966430664062 77.81818389892578 L 131.27699029445648 77.81818389892578 L 131.27699029445648 130.45454788208008 L 130.99966430664062 130.45454788208008 L 130.99966430664062 77.81818389892578" fill-opacity="1" clip-path="url(#rQRKwpSyWkpR)"/><path fill="rgb(0,255,158)" stroke="none" paint-order="stroke" d="M 131.27699279785156 77.81818389892578 L 131.5632647871971 77.81818389892578 L 131.5632647871971 130.45454788208008 L 131.27699279785156 130.45454788208008 L 131.27699279785156 77.81818389892578" fill-opacity="1" clip-path="url(#rQRKwpSyWkpR)"/><path fill="rgb(0,255,146)" stroke="none" paint-order="stroke" d="M 131.56326293945312 77.81818389892578 L 131.85975894331932 77.81818389892578 L 131.85975894331932 130.45454788208008 L 131.56326293945312 130.45454788208008 L 131.56326293945312 77.81818389892578" fill-opacity="1" clip-path="url(#rQRKwpSyWkpR)"/><path fill="rgb(0,255,134)" stroke="none" paint-order="stroke" d="M 131.85975646972656 77.81818389892578 L 132.188202470541 77.81818389892578 L 132.188202470541 130.45454788208008 L 131.85975646972656 130.45454788208008 L 131.85975646972656 77.81818389892578" fill-opacity="1" clip-path="url(#rQRKwpSyWkpR)"/><path fill="rgb(0,255,122)" stroke="none" paint-order="stroke" d="M 132.18820190429688 77.81818389892578 L 132.42207589745522 77.81818389892578 L 132.42207589745522 130.45454788208008 L 132.18820190429688 130.45454788208008 L 132.18820190429688 77.81818389892578" fill-opacity="1" clip-path="url(#rQRKwpSyWkpR)"/><path fill="rgb(0,255,110)" stroke="none" paint-order="stroke" d="M 132.4220733642578 77.81818389892578 L 132.70834535360336 77.81818389892578 L 132.70834535360336 130.45454788208008 L 132.4220733642578 130.45454788208008 L 132.4220733642578 77.81818389892578" fill-opacity="1" clip-path="url(#rQRKwpSyWkpR)"/><path fill="rgb(0,255,97)" stroke="none" paint-order="stroke" d="M 132.70834350585938 77.81818389892578 L 133.14797550439835 77.81818389892578 L 133.14797550439835 130.45454788208008 L 132.70834350585938 130.45454788208008 L 132.70834350585938 77.81818389892578" fill-opacity="1" clip-path="url(#rQRKwpSyWkpR)"/><path fill="rgb(0,255,84)" stroke="none" paint-order="stroke" d="M 133.14797973632812 77.81818389892578 L 133.7102997303009 77.81818389892578 L 133.7102997303009 130.45454788208008 L 133.14797973632812 130.45454788208008 L 133.14797973632812 77.81818389892578" fill-opacity="1" clip-path="url(#rQRKwpSyWkpR)"/><path fill="rgb(0,255,70)" stroke="none" paint-order="stroke" d="M 133.71029663085938 77.81818389892578 L 134.05791261792183 77.81818389892578 L 134.05791261792183 130.45454788208008 L 133.71029663085938 130.45454788208008 L 133.71029663085938 77.81818389892578" fill-opacity="1" clip-path="url(#rQRKwpSyWkpR)"/><path fill="rgb(0,255,55)" stroke="none" paint-order="stroke" d="M 134.05792236328125 77.81818389892578 L 134.76465636491776 77.81818389892578 L 134.76465636491776 130.45454788208008 L 134.05792236328125 130.45454788208008 L 134.05792236328125 77.81818389892578" fill-opacity="1" clip-path="url(#rQRKwpSyWkpR)"/><path fill="rgb(0,255,40)" stroke="none" paint-order="stroke" d="M 134.7646484375 77.81818389892578 L 135.13271242380142 77.81818389892578 L 135.13271242380142 130.45454788208008 L 134.7646484375 130.45454788208008 L 134.7646484375 77.81818389892578" fill-opacity="1" clip-path="url(#rQRKwpSyWkpR)"/><path fill="rgb(0,255,23)" stroke="none" paint-order="stroke" d="M 135.13272094726562 77.81818389892578 L 135.4496649503708 77.81818389892578 L 135.4496649503708 130.45454788208008 L 135.13272094726562 130.45454788208008 L 135.13272094726562 77.81818389892578" fill-opacity="1" clip-path="url(#rQRKwpSyWkpR)"/><path fill="rgb(0,255,0)" stroke="none" paint-order="stroke" d="M 135.4496612548828 77.81818389892578 L 135.74487924575806 77.81818389892578 L 135.74487924575806 130.45454788208008 L 135.4496612548828 130.45454788208008 L 135.4496612548828 77.81818389892578" fill-opacity="1" clip-path="url(#rQRKwpSyWkpR)"/><path fill="rgb(8,255,0)" stroke="none" paint-order="stroke" d="M 135.744873046875 77.81818389892578 L 136.0720410346985 77.81818389892578 L 136.0720410346985 130.45454788208008 L 135.744873046875 130.45454788208008 L 135.744873046875 77.81818389892578" fill-opacity="1" clip-path="url(#rQRKwpSyWkpR)"/><path fill="rgb(14,255,0)" stroke="none" paint-order="stroke" d="M 136.07203674316406 77.81818389892578 L 136.4094287455082 77.81818389892578 L 136.4094287455082 130.45454788208008 L 136.07203674316406 130.45454788208008 L 136.07203674316406 77.81818389892578" fill-opacity="1" clip-path="url(#rQRKwpSyWkpR)"/><path fill="rgb(20,255,0)" stroke="none" paint-order="stroke" d="M 136.40943908691406 77.81818389892578 L 137.80118107795715 77.81818389892578 L 137.80118107795715 130.45454788208008 L 136.40943908691406 130.45454788208008 L 136.40943908691406 77.81818389892578" fill-opacity="1" clip-path="url(#rQRKwpSyWkpR)"/><path fill="rgb(14,255,0)" stroke="none" paint-order="stroke" d="M 137.80117797851562 77.81818389892578 L 138.90409195423126 77.81818389892578 L 138.90409195423126 130.45454788208008 L 137.80117797851562 130.45454788208008 L 137.80117797851562 77.81818389892578" fill-opacity="1" clip-path="url(#rQRKwpSyWkpR)"/><path fill="rgb(8,255,0)" stroke="none" paint-order="stroke" d="M 138.9040985107422 77.81818389892578 L 139.60955452919006 77.81818389892578 L 139.60955452919006 130.45454788208008 L 138.9040985107422 130.45454788208008 L 138.9040985107422 77.81818389892578" fill-opacity="1" clip-path="url(#rQRKwpSyWkpR)"/><path fill="rgb(251,0,7)" stroke="none" paint-order="stroke" d="M 58.5 130.4545440673828 L 139.60955047607422 130.4545440673828 L 139.60955047607422 183.0909080505371 L 58.5 183.0909080505371 L 58.5 130.4545440673828" fill-opacity="1" clip-path="url(#VPaTGRRSCOhh)"/><path fill="rgb(105,29,48)" stroke="none" paint-order="stroke" d="M 73.61746215820312 183.09091186523438 L 73.68136215955019 183.09091186523438 L 73.68136215955019 498.9090881347656 L 73.61746215820312 498.9090881347656 L 73.61746215820312 183.09091186523438" fill-opacity="1" clip-path="url(#ASetkGGHbkNz)"/><path fill="rgb(255,188,66)" stroke="none" paint-order="stroke" d="M 97.09687805175781 183.09091186523438 L 107.16879558563232 183.09091186523438 L 107.16879558563232 498.9090881347656 L 97.09687805175781 498.9090881347656 L 97.09687805175781 183.09091186523438" fill-opacity="1" clip-path="url(#EUJudITRuTDp)"/><path fill="rgb(162,174,187)" stroke="none" paint-order="stroke" d="M 80.11737060546875 183.09091186523438 L 80.18127060681581 183.09091186523438 L 80.18127060681581 498.9090881347656 L 80.11737060546875 498.9090881347656 L 80.11737060546875 183.09091186523438" fill-opacity="1" clip-path="url(#kVgZGMHrdgpb)"/><path fill="rgb(255,188,66)" stroke="none" paint-order="stroke" d="M 75.77983856201172 183.09091186523438 L 77.50002658367157 183.09091186523438 L 77.50002658367157 498.9090881347656 L 75.77983856201172 498.9090881347656 L 75.77983856201172 183.09091186523438" fill-opacity="1" clip-path="url(#CZIUXdtntQuD)"/><path fill="rgb(216,17,89)" stroke="none" paint-order="stroke" d="M 110.77914428710938 183.09091186523438 L 110.84304428845644 183.09091186523438 L 110.84304428845644 498.9090881347656 L 110.77914428710938 498.9090881347656 L 110.77914428710938 183.09091186523438" fill-opacity="1" clip-path="url(#FWtecJnIUPCx)"/><path fill="rgb(216,17,89)" stroke="none" paint-order="stroke" d="M 110.77914428710938 183.09091186523438 L 110.84304428845644 183.09091186523438 L 110.84304428845644 498.9090881347656 L 110.77914428710938 498.9090881347656 L 110.77914428710938 183.09091186523438" fill-opacity="1" clip-path="url(#FWtecJnIUPCx)"/><path fill="rgb(216,17,89)" stroke="none" paint-order="stroke" d="M 112.92491149902344 183.09091186523438 L 112.9888115003705 183.09091186523438 L 112.9888115003705 498.9090881347656 L 112.92491149902344 498.9090881347656 L 112.92491149902344 183.09091186523438" fill-opacity="1" clip-path="url(#FWtecJnIUPCx)"/><path fill="rgb(216,17,89)" stroke="none" paint-order="stroke" d="M 112.92491149902344 183.09091186523438 L 112.9888115003705 183.09091186523438 L 112.9888115003705 498.9090881347656 L 112.92491149902344 498.9090881347656 L 112.92491149902344 183.09091186523438" fill-opacity="1" clip-path="url(#FWtecJnIUPCx)"/><path fill="rgb(216,17,89)" stroke="none" paint-order="stroke" d="M 114.4086685180664 183.09091186523438 L 114.47256851941347 183.09091186523438 L 114.47256851941347 498.9090881347656 L 114.4086685180664 498.9090881347656 L 114.4086685180664 183.09091186523438" fill-opacity="1" clip-path="url(#FWtecJnIUPCx)"/><path fill="rgb(216,17,89)" stroke="none" paint-order="stroke" d="M 114.4086685180664 183.09091186523438 L 114.47256851941347 183.09091186523438 L 114.47256851941347 498.9090881347656 L 114.4086685180664 498.9090881347656 L 114.4086685180664 183.09091186523438" fill-opacity="1" clip-path="url(#FWtecJnIUPCx)"/><path fill="rgb(115,210,222)" stroke="none" paint-order="stroke" d="M 89.91707611083984 183.09091186523438 L 91.15929210186005 183.09091186523438 L 91.15929210186005 498.9090881347656 L 89.91707611083984 498.9090881347656 L 89.91707611083984 183.09091186523438" fill-opacity="1" clip-path="url(#TrBZXEuDybwt)"/><path fill="rgb(28,49,68)" stroke="none" paint-order="stroke" d="M 82.62736511230469 183.09091186523438 L 83.65487706661224 183.09091186523438 L 83.65487706661224 498.9090881347656 L 82.62736511230469 498.9090881347656 L 82.62736511230469 183.09091186523438" fill-opacity="1" clip-path="url(#KwzIVTeTDvhf)"/><path fill="rgb(28,49,68)" stroke="none" paint-order="stroke" d="M 84.98910522460938 183.09091186523438 L 88.30679321289062 183.09091186523438 L 88.30679321289062 498.9090881347656 L 84.98910522460938 498.9090881347656 L 84.98910522460938 183.09091186523438" fill-opacity="1" clip-path="url(#KwzIVTeTDvhf)"/><path fill="rgb(239,185,203)" stroke="none" paint-order="stroke" d="M 66.21528625488281 183.09091186523438 L 71.13047409057617 183.09091186523438 L 71.13047409057617 498.9090881347656 L 66.21528625488281 498.9090881347656 L 66.21528625488281 183.09091186523438" fill-opacity="1" clip-path="url(#wwzthcuZmZgg)"/><path fill="rgb(105,29,48)" stroke="none" paint-order="stroke" d="M 115.5767593383789 183.09091186523438 L 128.06537532806396 183.09091186523438 L 128.06537532806396 498.9090881347656 L 115.5767593383789 498.9090881347656 L 115.5767593383789 183.09091186523438" fill-opacity="1" clip-path="url(#nyTDTdWItTnO)"/><path fill="rgb(255,188,66)" stroke="none" paint-order="stroke" d="M 99.31548309326172 498.9090881347656 L 102.20504117012024 498.9090881347656 L 102.20504117012024 551.5454521179199 L 99.31548309326172 551.5454521179199 L 99.31548309326172 498.9090881347656" fill-opacity="1" clip-path="url(#sfHmKoJFSvps)"/><path fill="rgb(255,188,66)" stroke="none" paint-order="stroke" d="M 105.1572265625 498.9090881347656 L 139.60955047607422 498.9090881347656 L 139.60955047607422 551.5454521179199 L 105.1572265625 551.5454521179199 L 105.1572265625 498.9090881347656" fill-opacity="1" clip-path="url(#sfHmKoJFSvps)"/><path fill="rgb(143,45,86)" stroke="none" paint-order="stroke" d="M 58.5 551.5454711914062 L 73.61746215820312 551.5454711914062 L 73.61746215820312 604.1818351745605 L 58.5 604.1818351745605 L 58.5 551.5454711914062" fill-opacity="1" clip-path="url(#RsQnrJahDtQP)"/><path fill="rgb(63,136,197)" stroke="none" paint-order="stroke" d="M 73.61746215820312 551.5454711914062 L 80.11737012863159 551.5454711914062 L 80.11737012863159 604.1818351745605 L 73.61746215820312 604.1818351745605 L 73.61746215820312 551.5454711914062" fill-opacity="1" clip-path="url(#RsQnrJahDtQP)"/><path fill="rgb(81,60,99)" stroke="none" paint-order="stroke" d="M 80.11737060546875 551.5454711914062 L 139.60955047607422 551.5454711914062 L 139.60955047607422 604.1818351745605 L 80.11737060546875 604.1818351745605 L 80.11737060546875 551.5454711914062" fill-opacity="1" clip-path="url(#RsQnrJahDtQP)"/><path fill="none" stroke="rgb(0,0,0)" paint-order="fill" d="M 58.5 77.81818389892578 L 139.60955047607422 77.81818389892578 L 139.60955047607422 604.1818313598633 L 58.5 604.1818313598633 L 58.5 77.81818389892578" stroke-opacity="1" stroke-linejoin="bevel" stroke-miterlimit="10" stroke-dasharray="" clip-path="url(#OSulhedEQnSP)"/><path fill="none" stroke="rgb(0,0,0)" paint-order="fill" d="M 58.5 630.5 L 1336.5 630.5" stroke-opacity="1" stroke-linejoin="bevel" stroke-miterlimit="10" stroke-dasharray=""/><path fill="none" stroke="rgb(0,0,0)" paint-order="fill" d="M 58.5 636.5 L 58.5 628.5 M 314.5 636.5 L 314.5 628.5 M 569.5 636.5 L 569.5 628.5 M 825.5 636.5 L 825.5 628.5 M 1080.5 636.5 L 1080.5 628.5 M 1336.5 636.5 L 1336.5 628.5" stroke-opacity="1" stroke-linejoin="bevel" stroke-miterlimit="10" stroke-dasharray=""/><path fill="none" stroke="rgb(0,0,0)" paint-order="fill" d="M 58.5 634.5 L 58.5 630.5 M 109.5 634.5 L 109.5 630.5 M 160.5 634.5 L 160.5 630.5 M 211.5 634.5 L 211.5 630.5 M 262.5 634.5 L 262.5 630.5 M 314.5 634.5 L 314.5 630.5 M 365.5 634.5 L 365.5 630.5 M 416.5 634.5 L 416.5 630.5 M 467.5 634.5 L 467.5 630.5 M 518.5 634.5 L 518.5 630.5 M 569.5 634.5 L 569.5 630.5 M 620.5 634.5 L 620.5 630.5 M 671.5 634.5 L 671.5 630.5 M 723.5 634.5 L 723.5 630.5 M 774.5 634.5 L 774.5 630.5 M 825.5 634.5 L 825.5 630.5 M 876.5 634.5 L 876.5 630.5 M 927.5 634.5 L 927.5 630.5 M 978.5 634.5 L 978.5 630.5 M 1029.5 634.5 L 1029.5 630.5 M 1080.5 634.5 L 1080.5 630.5 M 1132.5 634.5 L 1132.5 630.5 M 1183.5 634.5 L 1183.5 630.5 M 1234.5 634.5 L 1234.5 630.5 M 1285.5 634.5 L 1285.5 630.5 M 1336.5 634.5 L 1336.5 630.5" stroke-opacity="1" stroke-linejoin="bevel" stroke-miterlimit="10" stroke-dasharray=""/><text fill="rgb(68,68,68)" stroke="none" font-family="helvetica" font-size="11px" font-style="normal" font-weight="normal" text-decoration="normal" x="54.94166660308838" y="648.89013671875" text-anchor="start" dominant-baseline="alphabetic" transform="matrix(1, 0, 0, 1, 0.5, 0.5)" fill-opacity="1">0</text><text fill="rgb(68,68,68)" stroke="none" font-family="helvetica" font-size="11px" font-style="normal" font-weight="normal" text-decoration="normal" x="304.42500591278076" y="648.89013671875" text-anchor="start" dominant-baseline="alphabetic" transform="matrix(1, 0, 0, 1, 0.5, 0.5)" fill-opacity="1">200</text><text fill="rgb(68,68,68)" stroke="none" font-family="helvetica" font-size="11px" font-style="normal" font-weight="normal" text-decoration="normal" x="560.0250120162964" y="648.89013671875" text-anchor="start" dominant-baseline="alphabetic" transform="matrix(1, 0, 0, 1, 0.5, 0.5)" fill-opacity="1">400</text><text fill="rgb(68,68,68)" stroke="none" font-family="helvetica" font-size="11px" font-style="normal" font-weight="normal" text-decoration="normal" x="815.6249876022339" y="648.89013671875" text-anchor="start" dominant-baseline="alphabetic" transform="matrix(1, 0, 0, 1, 0.5, 0.5)" fill-opacity="1">600</text><text fill="rgb(68,68,68)" stroke="none" font-family="helvetica" font-size="11px" font-style="normal" font-weight="normal" text-decoration="normal" x="1071.2250242233276" y="648.89013671875" text-anchor="start" dominant-baseline="alphabetic" transform="matrix(1, 0, 0, 1, 0.5, 0.5)" fill-opacity="1">800</text><text fill="rgb(68,68,68)" stroke="none" font-family="helvetica" font-size="11px" font-style="normal" font-weight="normal" text-decoration="normal" x="1323.7666664123535" y="648.89013671875" text-anchor="start" dominant-baseline="alphabetic" transform="matrix(1, 0, 0, 1, 0.5, 0.5)" fill-opacity="1">1000</text><text fill="rgb(68,68,68)" stroke="none" font-family="helvetica" font-size="15pt" font-style="italic" font-weight="normal" text-decoration="normal" x="666.4416675567627" y="676.06982421875" text-anchor="start" dominant-baseline="alphabetic" transform="matrix(1, 0, 0, 1, 0.5, 0.5)" fill-opacity="1">time(s)</text><path fill="none" stroke="rgb(0,0,0)" paint-order="fill" d="M 58.5 630.5 L 58.5 51.5" stroke-opacity="1" stroke-linejoin="bevel" stroke-miterlimit="10" stroke-dasharray=""/><path fill="none" stroke="rgb(0,0,0)" paint-order="fill" d="M 52.5 551.5 L 60.5 551.5 M 52.5 446.5 L 60.5 446.5 M 52.5 341.5 L 60.5 341.5 M 52.5 235.5 L 60.5 235.5 M 52.5 130.5 L 60.5 130.5" stroke-opacity="1" stroke-linejoin="bevel" stroke-miterlimit="10" stroke-dasharray=""/><path fill="none" stroke="rgb(0,0,0)" paint-order="fill" d="M 54.5 572.5 L 58.5 572.5 M 54.5 593.5 L 58.5 593.5 M 54.5 614.5 L 58.5 614.5 M 54.5 551.5 L 58.5 551.5 M 54.5 530.5 L 58.5 530.5 M 54.5 509.5 L 58.5 509.5 M 54.5 488.5 L 58.5 488.5 M 54.5 467.5 L 58.5 467.5 M 54.5 446.5 L 58.5 446.5 M 54.5 425.5 L 58.5 425.5 M 54.5 404.5 L 58.5 404.5 M 54.5 383.5 L 58.5 383.5 M 54.5 362.5 L 58.5 362.5 M 54.5 341.5 L 58.5 341.5 M 54.5 319.5 L 58.5 319.5 M 54.5 298.5 L 58.5 298.5 M 54.5 277.5 L 58.5 277.5 M 54.5 256.5 L 58.5 256.5 M 54.5 235.5 L 58.5 235.5 M 54.5 214.5 L 58.5 214.5 M 54.5 193.5 L 58.5 193.5 M 54.5 172.5 L 58.5 172.5 M 54.5 151.5 L 58.5 151.5 M 54.5 130.5 L 58.5 130.5 M 54.5 109.5 L 58.5 109.5 M 54.5 88.5 L 58.5 88.5 M 54.5 67.5 L 58.5 67.5" stroke-opacity="1" stroke-linejoin="bevel" stroke-miterlimit="10" stroke-dasharray=""/><text fill="rgb(68,68,68)" stroke="none" font-family="helvetica" font-size="11px" font-style="normal" font-weight="normal" text-decoration="normal" x="34.46666622161865" y="554.9905395507812" text-anchor="start" dominant-baseline="alphabetic" transform="matrix(1, 0, 0, 1, 0.5, 0.5)" fill-opacity="1">2</text><text fill="rgb(68,68,68)" stroke="none" font-family="helvetica" font-size="11px" font-style="normal" font-weight="normal" text-decoration="normal" x="34.46666622161865" y="449.7178039550781" text-anchor="start" dominant-baseline="alphabetic" transform="matrix(1, 0, 0, 1, 0.5, 0.5)" fill-opacity="1">1</text><text fill="rgb(68,68,68)" stroke="none" font-family="helvetica" font-size="11px" font-style="normal" font-weight="normal" text-decoration="normal" x="40.88333320617676" y="344.445068359375" text-anchor="start" dominant-baseline="alphabetic" transform="matrix(1, 0, 0, 1, 0.5, 0.5)" fill-opacity="1">0</text><text fill="rgb(68,68,68)" stroke="none" font-family="helvetica" font-size="11px" font-style="normal" font-weight="normal" text-decoration="normal" x="40.88333320617676" y="239.17234802246094" text-anchor="start" dominant-baseline="alphabetic" transform="matrix(1, 0, 0, 1, 0.5, 0.5)" fill-opacity="1">1</text><text fill="rgb(68,68,68)" stroke="none" font-family="helvetica" font-size="11px" font-style="normal" font-weight="normal" text-decoration="normal" x="40.88333320617676" y="133.8996124267578" text-anchor="start" dominant-baseline="alphabetic" transform="matrix(1, 0, 0, 1, 0.5, 0.5)" fill-opacity="1">2</text><text fill="rgb(68,68,68)" stroke="none" font-family="helvetica" font-size="15pt" font-style="italic" font-weight="normal" text-decoration="normal" x="-11.316666603088379" y="336.076171875" text-anchor="start" dominant-baseline="alphabetic" transform="matrix(6.123233995736766e-17, -1, 1, 6.123233995736766e-17, -313.53333377838135, 367.46666622161865)" fill-opacity="1">students</text><path fill="rgb(255,255,255)" stroke="rgb(229,229,229)" paint-order="fill" d="M 1128.2333374023438 61.5 L 1326.5 61.5 L 1326.5 400.5 L 1128.2333374023438 400.5 L 1128.2333374023438 61.5" fill-opacity="0.9490196078431372" clip-path="url(#iuEXcAAkkhEC)" stroke-opacity="0.5019607843137255" stroke-linejoin="bevel" stroke-miterlimit="10" stroke-dasharray=""/><g clip-path="url(#iuEXcAAkkhEC)"><text fill="rgb(68,68,68)" stroke="none" font-family="helvetica" font-size="13px" font-style="normal" font-weight="normal" text-decoration="normal" x="1162.7333374023438" y="81" text-anchor="start" dominant-baseline="central" transform="matrix(1, 0, 0, 1, 0.5, 0.5)" fill-opacity="1">wavelength</text></g><path fill="rgb(0,255,40)" stroke="none" paint-order="stroke" d="M 1140.2333374023438 73.5 L 1156.2333374023438 73.5 L 1156.2333374023438 89.5 L 1140.2333374023438 89.5 L 1140.2333374023438 73.5" fill-opacity="1" clip-path="url(#iuEXcAAkkhEC)"/><path fill="rgb(216,17,89)" stroke="none" paint-order="stroke" d="M 1140.2333374023438 73.5 L 1156.2333374023438 73.5 L 1156.2333374023438 89.5 L 1140.2333374023438 89.5 L 1140.2333374023438 73.5" fill-opacity="1" clip-path="url(#iuEXcAAkkhEC)"/><g clip-path="url(#iuEXcAAkkhEC)"><text fill="rgb(68,68,68)" stroke="none" font-family="helvetica" font-size="13px" font-style="normal" font-weight="normal" text-decoration="normal" x="1162.7333374023438" y="104" text-anchor="start" dominant-baseline="central" transform="matrix(1, 0, 0, 1, 0.5, 0.5)" fill-opacity="1">solution</text></g><path fill="rgb(251,0,7)" stroke="none" paint-order="stroke" d="M 1140.2333374023438 96.5 L 1156.2333374023438 96.5 L 1156.2333374023438 112.5 L 1140.2333374023438 112.5 L 1140.2333374023438 96.5" fill-opacity="1" clip-path="url(#iuEXcAAkkhEC)"/><g clip-path="url(#iuEXcAAkkhEC)"><text fill="rgb(68,68,68)" stroke="none" font-family="helvetica" font-size="13px" font-style="normal" font-weight="normal" text-decoration="normal" x="1162.7333374023438" y="127" text-anchor="start" dominant-baseline="central" transform="matrix(1, 0, 0, 1, 0.5, 0.5)" fill-opacity="1">laser</text></g><path fill="rgb(105,29,48)" stroke="none" paint-order="stroke" d="M 1140.2333374023438 119.5 L 1156.2333374023438 119.5 L 1156.2333374023438 135.5 L 1140.2333374023438 135.5 L 1140.2333374023438 119.5" fill-opacity="1" clip-path="url(#iuEXcAAkkhEC)"/><g clip-path="url(#iuEXcAAkkhEC)"><text fill="rgb(68,68,68)" stroke="none" font-family="helvetica" font-size="13px" font-style="normal" font-weight="normal" text-decoration="normal" x="1162.7333374023438" y="150" text-anchor="start" dominant-baseline="central" transform="matrix(1, 0, 0, 1, 0.5, 0.5)" fill-opacity="1">ruler</text></g><path fill="rgb(255,188,66)" stroke="none" paint-order="stroke" d="M 1140.2333374023438 142.5 L 1156.2333374023438 142.5 L 1156.2333374023438 158.5 L 1140.2333374023438 158.5 L 1140.2333374023438 142.5" fill-opacity="1" clip-path="url(#iuEXcAAkkhEC)"/><g clip-path="url(#iuEXcAAkkhEC)"><text fill="rgb(68,68,68)" stroke="none" font-family="helvetica" font-size="13px" font-style="normal" font-weight="normal" text-decoration="normal" x="1162.7333374023438" y="173" text-anchor="start" dominant-baseline="central" transform="matrix(1, 0, 0, 1, 0.5, 0.5)" fill-opacity="1">restarts</text></g><g clip-path="url(#iuEXcAAkkhEC)"><text fill="rgb(68,68,68)" stroke="none" font-family="helvetica" font-size="13px" font-style="normal" font-weight="normal" text-decoration="normal" x="1162.7333374023438" y="196" text-anchor="start" dominant-baseline="central" transform="matrix(1, 0, 0, 1, 0.5, 0.5)" fill-opacity="1">transmittance_absorbance</text></g><path fill="rgb(162,174,187)" stroke="none" paint-order="stroke" d="M 1140.2333374023438 188.5 L 1156.2333374023438 188.5 L 1156.2333374023438 204.5 L 1140.2333374023438 204.5 L 1140.2333374023438 188.5" fill-opacity="1" clip-path="url(#iuEXcAAkkhEC)"/><g clip-path="url(#iuEXcAAkkhEC)"><text fill="rgb(68,68,68)" stroke="none" font-family="helvetica" font-size="13px" font-style="normal" font-weight="normal" text-decoration="normal" x="1162.7333374023438" y="219" text-anchor="start" dominant-baseline="central" transform="matrix(1, 0, 0, 1, 0.5, 0.5)" fill-opacity="1">magnifier</text></g><path fill="rgb(255,188,66)" stroke="none" paint-order="stroke" d="M 1140.2333374023438 211.5 L 1156.2333374023438 211.5 L 1156.2333374023438 227.5 L 1140.2333374023438 227.5 L 1140.2333374023438 211.5" fill-opacity="1" clip-path="url(#iuEXcAAkkhEC)"/><g clip-path="url(#iuEXcAAkkhEC)"><text fill="rgb(68,68,68)" stroke="none" font-family="helvetica" font-size="13px" font-style="normal" font-weight="normal" text-decoration="normal" x="1162.7333374023438" y="242" text-anchor="start" dominant-baseline="central" transform="matrix(1, 0, 0, 1, 0.5, 0.5)" fill-opacity="1">concentration</text></g><path fill="rgb(115,210,222)" stroke="none" paint-order="stroke" d="M 1140.2333374023438 234.5 L 1156.2333374023438 234.5 L 1156.2333374023438 250.5 L 1140.2333374023438 250.5 L 1140.2333374023438 234.5" fill-opacity="1" clip-path="url(#iuEXcAAkkhEC)"/><g clip-path="url(#iuEXcAAkkhEC)"><text fill="rgb(68,68,68)" stroke="none" font-family="helvetica" font-size="13px" font-style="normal" font-weight="normal" text-decoration="normal" x="1162.7333374023438" y="265" text-anchor="start" dominant-baseline="central" transform="matrix(1, 0, 0, 1, 0.5, 0.5)" fill-opacity="1">flask</text></g><path fill="rgb(28,49,68)" stroke="none" paint-order="stroke" d="M 1140.2333374023438 257.5 L 1156.2333374023438 257.5 L 1156.2333374023438 273.5 L 1140.2333374023438 273.5 L 1140.2333374023438 257.5" fill-opacity="1" clip-path="url(#iuEXcAAkkhEC)"/><g clip-path="url(#iuEXcAAkkhEC)"><text fill="rgb(68,68,68)" stroke="none" font-family="helvetica" font-size="13px" font-style="normal" font-weight="normal" text-decoration="normal" x="1162.7333374023438" y="288" text-anchor="start" dominant-baseline="central" transform="matrix(1, 0, 0, 1, 0.5, 0.5)" fill-opacity="1">pdf</text></g><path fill="rgb(239,185,203)" stroke="none" paint-order="stroke" d="M 1140.2333374023438 280.5 L 1156.2333374023438 280.5 L 1156.2333374023438 296.5 L 1140.2333374023438 296.5 L 1140.2333374023438 280.5" fill-opacity="1" clip-path="url(#iuEXcAAkkhEC)"/><g clip-path="url(#iuEXcAAkkhEC)"><text fill="rgb(68,68,68)" stroke="none" font-family="helvetica" font-size="13px" font-style="normal" font-weight="normal" text-decoration="normal" x="1162.7333374023438" y="311" text-anchor="start" dominant-baseline="central" transform="matrix(1, 0, 0, 1, 0.5, 0.5)" fill-opacity="1">concentrationlab</text></g><g clip-path="url(#iuEXcAAkkhEC)"><text fill="rgb(68,68,68)" stroke="none" font-family="helvetica" font-size="13px" font-style="normal" font-weight="normal" text-decoration="normal" x="1162.7333374023438" y="334" text-anchor="start" dominant-baseline="central" transform="matrix(1, 0, 0, 1, 0.5, 0.5)" fill-opacity="1">wavelength_slider</text></g><path fill="rgb(105,29,48)" stroke="none" paint-order="stroke" d="M 1140.2333374023438 326.5 L 1156.2333374023438 326.5 L 1156.2333374023438 342.5 L 1140.2333374023438 342.5 L 1140.2333374023438 326.5" fill-opacity="1" clip-path="url(#iuEXcAAkkhEC)"/><g clip-path="url(#iuEXcAAkkhEC)"><text fill="rgb(68,68,68)" stroke="none" font-family="helvetica" font-size="13px" font-style="normal" font-weight="normal" text-decoration="normal" x="1162.7333374023438" y="357" text-anchor="start" dominant-baseline="central" transform="matrix(1, 0, 0, 1, 0.5, 0.5)" fill-opacity="1">ruler measuring</text></g><path fill="rgb(255,188,66)" stroke="none" paint-order="stroke" d="M 1140.2333374023438 349.5 L 1156.2333374023438 349.5 L 1156.2333374023438 365.5 L 1140.2333374023438 365.5 L 1140.2333374023438 349.5" fill-opacity="1" clip-path="url(#iuEXcAAkkhEC)"/><g clip-path="url(#iuEXcAAkkhEC)"><text fill="rgb(68,68,68)" stroke="none" font-family="helvetica" font-size="13px" font-style="normal" font-weight="normal" text-decoration="normal" x="1162.7333374023438" y="380" text-anchor="start" dominant-baseline="central" transform="matrix(1, 0, 0, 1, 0.5, 0.5)" fill-opacity="1">dependent variable</text></g><path fill="rgb(143,45,86)" stroke="none" paint-order="stroke" d="M 1140.2333374023438 372.5 L 1156.2333374023438 372.5 L 1156.2333374023438 388.5 L 1140.2333374023438 388.5 L 1140.2333374023438 372.5" fill-opacity="1" clip-path="url(#iuEXcAAkkhEC)"/><text fill="rgb(68,68,68)" stroke="none" font-family="helvetica" font-size="25pt" font-style="normal" font-weight="bold" text-decoration="normal" x="58" y="38.740885416666664" text-anchor="start" dominant-baseline="alphabetic" transform="matrix(1, 0, 0, 1, 0.5, 0.5)" fill-opacity="1">Timeline for student zgs84jfy with permutation 3201 for task 3</text></svg>