<svg version="1.1" xmlns="http://www.w3.org/2000/svg" width="1366" height="683"><defs><clipPath id="qMhFIFVTrQpy"><path fill="none" stroke="none" d="M 58.5 51.5 L 1336.5 51.5 L 1336.5 630.5 L 58.5 630.5 L 58.5 51.5"/></clipPath><clipPath id="kpzqRPzaXEar"><path fill="none" stroke="none" d="M 58.5 51.5 L 1336.5 51.5 L 1336.5 630.5 L 58.5 630.5 L 58.5 51.5"/></clipPath><clipPath id="yxxcBPhlDEvK"><path fill="none" stroke="none" d="M 58.5 51.5 L 1336.5 51.5 L 1336.5 630.5 L 58.5 630.5 L 58.5 51.5"/></clipPath><clipPath id="MCSNREePwapr"><path fill="none" stroke="none" d="M 58.5 51.5 L 1336.5 51.5 L 1336.5 630.5 L 58.5 630.5 L 58.5 51.5"/></clipPath><clipPath id="RPwHAVXFUnkn"><path fill="none" stroke="none" d="M 58.5 51.5 L 1336.5 51.5 L 1336.5 630.5 L 58.5 630.5 L 58.5 51.5"/></clipPath><clipPath id="DPGZxlLyPzfS"><path fill="none" stroke="none" d="M 58.5 51.5 L 1336.5 51.5 L 1336.5 630.5 L 58.5 630.5 L 58.5 51.5"/></clipPath><clipPath id="OIOJoTJHQgPV"><path fill="none" stroke="none" d="M 58.5 51.5 L 1336.5 51.5 L 1336.5 630.5 L 58.5 630.5 L 58.5 51.5"/></clipPath><clipPath id="VVeUfsAaexTM"><path fill="none" stroke="none" d="M 58.5 51.5 L 1336.5 51.5 L 1336.5 630.5 L 58.5 630.5 L 58.5 51.5"/></clipPath><clipPath id="AyomuLKLoGQT"><path fill="none" stroke="none" d="M 58.5 51.5 L 1336.5 51.5 L 1336.5 630.5 L 58.5 630.5 L 58.5 51.5"/></clipPath><clipPath id="aFqeWIPfuQvf"><path fill="none" stroke="none" d="M 58.5 51.5 L 1336.5 51.5 L 1336.5 630.5 L 58.5 630.5 L 58.5 51.5"/></clipPath><clipPath id="kBDUiQXxlNCL"><path fill="none" stroke="none" d="M 58.5 51.5 L 1336.5 51.5 L 1336.5 630.5 L 58.5 630.5 L 58.5 51.5"/></clipPath><clipPath id="EtJbuRpXbAHL"><path fill="none" stroke="none" d="M 58.5 51.5 L 1336.5 51.5 L 1336.5 630.5 L 58.5 630.5 L 58.5 51.5"/></clipPath><clipPath id="yEgRaruAHarJ"><path fill="none" stroke="none" d="M 58.5 51.5 L 1336.5 51.5 L 1336.5 630.5 L 58.5 630.5 L 58.5 51.5"/></clipPath><clipPath id="LXBGTryCFGJp"><path fill="none" stroke="none" d="M 58.5 51.5 L 1336.5 51.5 L 1336.5 630.5 L 58.5 630.5 L 58.5 51.5"/></clipPath><clipPath id="ODbPeKMBvVqn"><path fill="none" stroke="none" d="M 58.5 51.5 L 1336.5 51.5 L 1336.5 630.5 L 58.5 630.5 L 58.5 51.5"/></clipPath><clipPath id="HzRcioAXNyrg"><path fill="none" stroke="none" d="M 58.5 51.5 L 1336.5 51.5 L 1336.5 630.5 L 58.5 630.5 L 58.5 51.5"/></clipPath><clipPath id="ZTkLWvUgUtkT"><path fill="none" stroke="none" d="M 58.5 51.5 L 1336.5 51.5 L 1336.5 630.5 L 58.5 630.5 L 58.5 51.5"/></clipPath><clipPath id="dwqxApMkFwfs"><path fill="none" stroke="none" d="M 58.5 51.5 L 1336.5 51.5 L 1336.5 630.5 L 58.5 630.5 L 58.5 51.5"/></clipPath><clipPath id="gxWehJapnuMZ"><path fill="none" stroke="none" d="M 58.5 51.5 L 1336.5 51.5 L 1336.5 630.5 L 58.5 630.5 L 58.5 51.5"/></clipPath><clipPath id="lbrdOvqvTBgm"><path fill="none" stroke="none" d="M 58.5 51.5 L 1336.5 51.5 L 1336.5 630.5 L 58.5 630.5 L 58.5 51.5"/></clipPath><clipPath id="TQLVDHButxub"><path fill="none" stroke="none" d="M 58.5 51.5 L 1336.5 51.5 L 1336.5 630.5 L 58.5 630.5 L 58.5 51.5"/></clipPath></defs><path fill="rgb(255,255,255)" stroke="none" paint-order="stroke" d="M 0.5 0.5 L 1366.5 0.5 L 1366.5 683.5 L 0.5 683.5 L 0.5 0.5" fill-opacity="1"/><rect fill="#FFFFFF" stroke="none" x="58" y="51" width="1278" height="579" transform="matrix(1, 0, 0, 1, 0.5, 0.5)"/><path fill="rgb(255,255,255)" stroke="none" paint-order="stroke" d="M 58.5 51.5 L 1336.5 51.5 L 1336.5 630.5 L 58.5 630.5 L 58.5 51.5" fill-opacity="1"/><path fill="none" stroke="rgb(229,229,229)" paint-order="fill" d="M 58.5 51.5 L 1336.5 51.5 L 1336.5 630.5 L 58.5 630.5 L 58.5 51.5" stroke-opacity="1" stroke-linejoin="bevel" stroke-miterlimit="10" stroke-dasharray=""/><path fill="none" stroke="rgb(229,229,229)" paint-order="fill" d="M 314.5 630.5 L 314.5 51.5 M 569.5 630.5 L 569.5 51.5 M 825.5 630.5 L 825.5 51.5 M 1080.5 630.5 L 1080.5 51.5" stroke-opacity="1" stroke-linejoin="bevel" stroke-miterlimit="10" stroke-dasharray="" clip-path="url(#qMhFIFVTrQpy)"/><path fill="none" stroke="rgb(229,229,229)" paint-order="fill" d="M 58.5 551.5 L 1336.5 551.5 M 58.5 446.5 L 1336.5 446.5 M 58.5 341.5 L 1336.5 341.5 M 58.5 235.5 L 1336.5 235.5 M 58.5 130.5 L 1336.5 130.5" stroke-opacity="1" stroke-linejoin="bevel" stroke-miterlimit="10" stroke-dasharray="" clip-path="url(#kpzqRPzaXEar)"/><path fill="rgb(0,255,40)" stroke="none" paint-order="stroke" d="M 58.5 77.81818389892578 L 99.58769989013672 77.81818389892578 L 99.58769989013672 130.45454788208008 L 58.5 130.45454788208008 L 58.5 77.81818389892578" fill-opacity="1" clip-path="url(#yxxcBPhlDEvK)"/><path fill="rgb(102,0,183)" stroke="none" paint-order="stroke" d="M 99.58769989013672 77.81818389892578 L 117.81709098815918 77.81818389892578 L 117.81709098815918 130.45454788208008 L 99.58769989013672 130.45454788208008 L 99.58769989013672 77.81818389892578" fill-opacity="1" clip-path="url(#yxxcBPhlDEvK)"/><path fill="rgb(251,0,7)" stroke="none" paint-order="stroke" d="M 58.5 130.4545440673828 L 99.58769989013672 130.4545440673828 L 99.58769989013672 183.0909080505371 L 58.5 183.0909080505371 L 58.5 130.4545440673828" fill-opacity="1" clip-path="url(#MCSNREePwapr)"/><path fill="rgb(255,255,10)" stroke="none" paint-order="stroke" d="M 99.58769989013672 130.4545440673828 L 117.81709098815918 130.4545440673828 L 117.81709098815918 183.0909080505371 L 99.58769989013672 183.0909080505371 L 99.58769989013672 130.4545440673828" fill-opacity="1" clip-path="url(#MCSNREePwapr)"/><path fill="rgb(105,29,48)" stroke="none" paint-order="stroke" d="M 84.84852600097656 183.09091186523438 L 84.91242600232363 183.09091186523438 L 84.91242600232363 498.9090881347656 L 84.84852600097656 498.9090881347656 L 84.84852600097656 183.09091186523438" fill-opacity="1" clip-path="url(#RPwHAVXFUnkn)"/><path fill="rgb(255,188,66)" stroke="none" paint-order="stroke" d="M 71.94711303710938 183.09091186523438 L 76.00092887878418 183.09091186523438 L 76.00092887878418 498.9090881347656 L 71.94711303710938 498.9090881347656 L 71.94711303710938 183.09091186523438" fill-opacity="1" clip-path="url(#DPGZxlLyPzfS)"/><path fill="rgb(255,188,66)" stroke="none" paint-order="stroke" d="M 95.78692626953125 183.09091186523438 L 97.02147424221039 183.09091186523438 L 97.02147424221039 498.9090881347656 L 95.78692626953125 498.9090881347656 L 95.78692626953125 183.09091186523438" fill-opacity="1" clip-path="url(#DPGZxlLyPzfS)"/><path fill="rgb(162,174,187)" stroke="none" paint-order="stroke" d="M 91.8788070678711 183.09091186523438 L 91.94270706921816 183.09091186523438 L 91.94270706921816 498.9090881347656 L 91.8788070678711 498.9090881347656 L 91.8788070678711 183.09091186523438" fill-opacity="1" clip-path="url(#VVeUfsAaexTM)"/><path fill="rgb(255,188,66)" stroke="none" paint-order="stroke" d="M 82.21073150634766 183.09091186523438 L 83.23952150344849 183.09091186523438 L 83.23952150344849 498.9090881347656 L 82.21073150634766 498.9090881347656 L 82.21073150634766 183.09091186523438" fill-opacity="1" clip-path="url(#AyomuLKLoGQT)"/><path fill="rgb(255,188,66)" stroke="none" paint-order="stroke" d="M 83.6229248046875 183.09091186523438 L 84.37438881397247 183.09091186523438 L 84.37438881397247 498.9090881347656 L 83.6229248046875 498.9090881347656 L 83.6229248046875 183.09091186523438" fill-opacity="1" clip-path="url(#AyomuLKLoGQT)"/><path fill="rgb(255,188,66)" stroke="none" paint-order="stroke" d="M 85.63577270507812 183.09091186523438 L 90.6928186416626 183.09091186523438 L 90.6928186416626 498.9090881347656 L 85.63577270507812 498.9090881347656 L 85.63577270507812 183.09091186523438" fill-opacity="1" clip-path="url(#AyomuLKLoGQT)"/><path fill="rgb(216,17,89)" stroke="none" paint-order="stroke" d="M 77.17668914794922 183.09091186523438 L 77.24058914929628 183.09091186523438 L 77.24058914929628 498.9090881347656 L 77.17668914794922 498.9090881347656 L 77.17668914794922 183.09091186523438" fill-opacity="1" clip-path="url(#aFqeWIPfuQvf)"/><path fill="rgb(216,17,89)" stroke="none" paint-order="stroke" d="M 77.17668914794922 183.09091186523438 L 77.24058914929628 183.09091186523438 L 77.24058914929628 498.9090881347656 L 77.17668914794922 498.9090881347656 L 77.17668914794922 183.09091186523438" fill-opacity="1" clip-path="url(#aFqeWIPfuQvf)"/><path fill="rgb(216,17,89)" stroke="none" paint-order="stroke" d="M 79.43619537353516 183.09091186523438 L 79.50009537488222 183.09091186523438 L 79.50009537488222 498.9090881347656 L 79.43619537353516 498.9090881347656 L 79.43619537353516 183.09091186523438" fill-opacity="1" clip-path="url(#aFqeWIPfuQvf)"/><path fill="rgb(216,17,89)" stroke="none" paint-order="stroke" d="M 79.43619537353516 183.09091186523438 L 79.50009537488222 183.09091186523438 L 79.50009537488222 498.9090881347656 L 79.43619537353516 498.9090881347656 L 79.43619537353516 183.09091186523438" fill-opacity="1" clip-path="url(#aFqeWIPfuQvf)"/><path fill="rgb(33,131,128)" stroke="none" paint-order="stroke" d="M 98.17550659179688 183.09091186523438 L 99.58769655227661 183.09091186523438 L 99.58769655227661 498.9090881347656 L 98.17550659179688 498.9090881347656 L 98.17550659179688 183.09091186523438" fill-opacity="1" clip-path="url(#kBDUiQXxlNCL)"/><path fill="rgb(115,210,222)" stroke="none" paint-order="stroke" d="M 107.52152252197266 183.09091186523438 L 107.58542252331972 183.09091186523438 L 107.58542252331972 498.9090881347656 L 107.52152252197266 498.9090881347656 L 107.52152252197266 183.09091186523438" fill-opacity="1" clip-path="url(#EtJbuRpXbAHL)"/><path fill="rgb(115,210,222)" stroke="none" paint-order="stroke" d="M 107.52152252197266 183.09091186523438 L 107.58542252331972 183.09091186523438 L 107.58542252331972 498.9090881347656 L 107.52152252197266 498.9090881347656 L 107.52152252197266 183.09091186523438" fill-opacity="1" clip-path="url(#EtJbuRpXbAHL)"/><path fill="rgb(115,210,222)" stroke="none" paint-order="stroke" d="M 108.16563415527344 183.09091186523438 L 108.2295341566205 183.09091186523438 L 108.2295341566205 498.9090881347656 L 108.16563415527344 498.9090881347656 L 108.16563415527344 183.09091186523438" fill-opacity="1" clip-path="url(#EtJbuRpXbAHL)"/><path fill="rgb(115,210,222)" stroke="none" paint-order="stroke" d="M 108.16563415527344 183.09091186523438 L 108.2295341566205 183.09091186523438 L 108.2295341566205 498.9090881347656 L 108.16563415527344 498.9090881347656 L 108.16563415527344 183.09091186523438" fill-opacity="1" clip-path="url(#EtJbuRpXbAHL)"/><path fill="rgb(115,210,222)" stroke="none" paint-order="stroke" d="M 108.4621353149414 183.09091186523438 L 108.52603531628847 183.09091186523438 L 108.52603531628847 498.9090881347656 L 108.4621353149414 498.9090881347656 L 108.4621353149414 183.09091186523438" fill-opacity="1" clip-path="url(#EtJbuRpXbAHL)"/><path fill="rgb(115,210,222)" stroke="none" paint-order="stroke" d="M 108.4621353149414 183.09091186523438 L 108.52603531628847 183.09091186523438 L 108.52603531628847 498.9090881347656 L 108.4621353149414 498.9090881347656 L 108.4621353149414 183.09091186523438" fill-opacity="1" clip-path="url(#EtJbuRpXbAHL)"/><path fill="rgb(115,210,222)" stroke="none" paint-order="stroke" d="M 109.05001068115234 183.09091186523438 L 109.11391068249941 183.09091186523438 L 109.11391068249941 498.9090881347656 L 109.05001068115234 498.9090881347656 L 109.05001068115234 183.09091186523438" fill-opacity="1" clip-path="url(#EtJbuRpXbAHL)"/><path fill="rgb(115,210,222)" stroke="none" paint-order="stroke" d="M 109.05001068115234 183.09091186523438 L 109.11391068249941 183.09091186523438 L 109.11391068249941 498.9090881347656 L 109.05001068115234 498.9090881347656 L 109.05001068115234 183.09091186523438" fill-opacity="1" clip-path="url(#EtJbuRpXbAHL)"/><path fill="rgb(115,210,222)" stroke="none" paint-order="stroke" d="M 109.19825744628906 183.09091186523438 L 109.26215744763613 183.09091186523438 L 109.26215744763613 498.9090881347656 L 109.19825744628906 498.9090881347656 L 109.19825744628906 183.09091186523438" fill-opacity="1" clip-path="url(#EtJbuRpXbAHL)"/><path fill="rgb(115,210,222)" stroke="none" paint-order="stroke" d="M 109.19825744628906 183.09091186523438 L 109.26215744763613 183.09091186523438 L 109.26215744763613 498.9090881347656 L 109.19825744628906 498.9090881347656 L 109.19825744628906 183.09091186523438" fill-opacity="1" clip-path="url(#EtJbuRpXbAHL)"/><path fill="rgb(115,210,222)" stroke="none" paint-order="stroke" d="M 109.30561065673828 183.09091186523438 L 109.36951065808535 183.09091186523438 L 109.36951065808535 498.9090881347656 L 109.30561065673828 498.9090881347656 L 109.30561065673828 183.09091186523438" fill-opacity="1" clip-path="url(#EtJbuRpXbAHL)"/><path fill="rgb(115,210,222)" stroke="none" paint-order="stroke" d="M 109.30561065673828 183.09091186523438 L 109.36951065808535 183.09091186523438 L 109.36951065808535 498.9090881347656 L 109.30561065673828 498.9090881347656 L 109.30561065673828 183.09091186523438" fill-opacity="1" clip-path="url(#EtJbuRpXbAHL)"/><path fill="rgb(115,210,222)" stroke="none" paint-order="stroke" d="M 109.43341064453125 183.09091186523438 L 109.49731064587831 183.09091186523438 L 109.49731064587831 498.9090881347656 L 109.43341064453125 498.9090881347656 L 109.43341064453125 183.09091186523438" fill-opacity="1" clip-path="url(#EtJbuRpXbAHL)"/><path fill="rgb(115,210,222)" stroke="none" paint-order="stroke" d="M 109.43341064453125 183.09091186523438 L 109.49731064587831 183.09091186523438 L 109.49731064587831 498.9090881347656 L 109.43341064453125 498.9090881347656 L 109.43341064453125 183.09091186523438" fill-opacity="1" clip-path="url(#EtJbuRpXbAHL)"/><path fill="rgb(115,210,222)" stroke="none" paint-order="stroke" d="M 109.58293914794922 183.09091186523438 L 109.64683914929628 183.09091186523438 L 109.64683914929628 498.9090881347656 L 109.58293914794922 498.9090881347656 L 109.58293914794922 183.09091186523438" fill-opacity="1" clip-path="url(#EtJbuRpXbAHL)"/><path fill="rgb(115,210,222)" stroke="none" paint-order="stroke" d="M 109.58293914794922 183.09091186523438 L 109.64683914929628 183.09091186523438 L 109.64683914929628 498.9090881347656 L 109.58293914794922 498.9090881347656 L 109.58293914794922 183.09091186523438" fill-opacity="1" clip-path="url(#EtJbuRpXbAHL)"/><path fill="rgb(115,210,222)" stroke="none" paint-order="stroke" d="M 109.68901062011719 183.09091186523438 L 109.75291062146425 183.09091186523438 L 109.75291062146425 498.9090881347656 L 109.68901062011719 498.9090881347656 L 109.68901062011719 183.09091186523438" fill-opacity="1" clip-path="url(#EtJbuRpXbAHL)"/><path fill="rgb(115,210,222)" stroke="none" paint-order="stroke" d="M 109.68901062011719 183.09091186523438 L 109.75291062146425 183.09091186523438 L 109.75291062146425 498.9090881347656 L 109.68901062011719 498.9090881347656 L 109.68901062011719 183.09091186523438" fill-opacity="1" clip-path="url(#EtJbuRpXbAHL)"/><path fill="rgb(115,210,222)" stroke="none" paint-order="stroke" d="M 109.81681060791016 183.09091186523438 L 109.88071060925722 183.09091186523438 L 109.88071060925722 498.9090881347656 L 109.81681060791016 498.9090881347656 L 109.81681060791016 183.09091186523438" fill-opacity="1" clip-path="url(#EtJbuRpXbAHL)"/><path fill="rgb(115,210,222)" stroke="none" paint-order="stroke" d="M 109.81681060791016 183.09091186523438 L 109.88071060925722 183.09091186523438 L 109.88071060925722 498.9090881347656 L 109.81681060791016 498.9090881347656 L 109.81681060791016 183.09091186523438" fill-opacity="1" clip-path="url(#EtJbuRpXbAHL)"/><path fill="rgb(115,210,222)" stroke="none" paint-order="stroke" d="M 110.83793640136719 183.09091186523438 L 117.81709432601929 183.09091186523438 L 117.81709432601929 498.9090881347656 L 110.83793640136719 498.9090881347656 L 110.83793640136719 183.09091186523438" fill-opacity="1" clip-path="url(#EtJbuRpXbAHL)"/><path fill="rgb(255,188,66)" stroke="none" paint-order="stroke" d="M 72.48387908935547 498.9090881347656 L 72.54522309079766 498.9090881347656 L 72.54522309079766 551.5454521179199 L 72.48387908935547 551.5454521179199 L 72.48387908935547 498.9090881347656" fill-opacity="1" clip-path="url(#ZTkLWvUgUtkT)"/><path fill="rgb(255,188,66)" stroke="none" paint-order="stroke" d="M 72.6960220336914 498.9090881347656 L 72.95034402608871 498.9090881347656 L 72.95034402608871 551.5454521179199 L 72.6960220336914 551.5454521179199 L 72.6960220336914 498.9090881347656" fill-opacity="1" clip-path="url(#ZTkLWvUgUtkT)"/><path fill="rgb(255,188,66)" stroke="none" paint-order="stroke" d="M 73.4398193359375 498.9090881347656 L 75.31336736679077 498.9090881347656 L 75.31336736679077 551.5454521179199 L 73.4398193359375 551.5454521179199 L 73.4398193359375 498.9090881347656" fill-opacity="1" clip-path="url(#ZTkLWvUgUtkT)"/><path fill="rgb(255,188,66)" stroke="none" paint-order="stroke" d="M 75.71849060058594 498.9090881347656 L 96.03613471984863 498.9090881347656 L 96.03613471984863 551.5454521179199 L 75.71849060058594 551.5454521179199 L 75.71849060058594 498.9090881347656" fill-opacity="1" clip-path="url(#ZTkLWvUgUtkT)"/><path fill="rgb(255,188,66)" stroke="none" paint-order="stroke" d="M 96.3786392211914 498.9090881347656 L 117.81708908081055 498.9090881347656 L 117.81708908081055 551.5454521179199 L 96.3786392211914 551.5454521179199 L 96.3786392211914 498.9090881347656" fill-opacity="1" clip-path="url(#ZTkLWvUgUtkT)"/><path fill="rgb(143,45,86)" stroke="none" paint-order="stroke" d="M 58.5 551.5454711914062 L 86.06901550292969 551.5454711914062 L 86.06901550292969 604.1818351745605 L 58.5 604.1818351745605 L 58.5 551.5454711914062" fill-opacity="1" clip-path="url(#dwqxApMkFwfs)"/><path fill="rgb(63,136,197)" stroke="none" paint-order="stroke" d="M 86.06901550292969 551.5454711914062 L 86.32461550831795 551.5454711914062 L 86.32461550831795 604.1818351745605 L 86.06901550292969 604.1818351745605 L 86.06901550292969 551.5454711914062" fill-opacity="1" clip-path="url(#dwqxApMkFwfs)"/><path fill="rgb(143,45,86)" stroke="none" paint-order="stroke" d="M 86.32461547851562 551.5454711914062 L 86.8383714556694 551.5454711914062 L 86.8383714556694 604.1818351745605 L 86.32461547851562 604.1818351745605 L 86.32461547851562 551.5454711914062" fill-opacity="1" clip-path="url(#dwqxApMkFwfs)"/><path fill="rgb(63,136,197)" stroke="none" paint-order="stroke" d="M 86.83837127685547 551.5454711914062 L 88.28634524345398 551.5454711914062 L 88.28634524345398 604.1818351745605 L 86.83837127685547 604.1818351745605 L 86.83837127685547 551.5454711914062" fill-opacity="1" clip-path="url(#dwqxApMkFwfs)"/><path fill="rgb(143,45,86)" stroke="none" paint-order="stroke" d="M 88.28634643554688 551.5454711914062 L 89.20011645555496 551.5454711914062 L 89.20011645555496 604.1818351745605 L 88.28634643554688 604.1818351745605 L 88.28634643554688 551.5454711914062" fill-opacity="1" clip-path="url(#dwqxApMkFwfs)"/><path fill="rgb(63,136,197)" stroke="none" paint-order="stroke" d="M 89.20011901855469 551.5454711914062 L 89.5400670170784 551.5454711914062 L 89.5400670170784 604.1818351745605 L 89.20011901855469 604.1818351745605 L 89.20011901855469 551.5454711914062" fill-opacity="1" clip-path="url(#dwqxApMkFwfs)"/><path fill="rgb(143,45,86)" stroke="none" paint-order="stroke" d="M 89.5400619506836 551.5454711914062 L 90.13944393396378 551.5454711914062 L 90.13944393396378 604.1818351745605 L 89.5400619506836 604.1818351745605 L 89.5400619506836 551.5454711914062" fill-opacity="1" clip-path="url(#dwqxApMkFwfs)"/><path fill="rgb(63,136,197)" stroke="none" paint-order="stroke" d="M 90.13944244384766 551.5454711914062 L 91.87880039215088 551.5454711914062 L 91.87880039215088 604.1818351745605 L 90.13944244384766 604.1818351745605 L 90.13944244384766 551.5454711914062" fill-opacity="1" clip-path="url(#dwqxApMkFwfs)"/><path fill="rgb(81,60,99)" stroke="none" paint-order="stroke" d="M 91.8788070678711 551.5454711914062 L 117.81709480285645 551.5454711914062 L 117.81709480285645 604.1818351745605 L 91.8788070678711 604.1818351745605 L 91.8788070678711 551.5454711914062" fill-opacity="1" clip-path="url(#dwqxApMkFwfs)"/><path fill="none" stroke="rgb(0,0,0)" paint-order="fill" d="M 58.5 77.81818389892578 L 117.81709289550781 77.81818389892578 L 117.81709289550781 604.1818313598633 L 58.5 604.1818313598633 L 58.5 77.81818389892578" stroke-opacity="1" stroke-linejoin="bevel" stroke-miterlimit="10" stroke-dasharray="" clip-path="url(#gxWehJapnuMZ)"/><path fill="none" stroke="rgb(0,0,0)" paint-order="fill" d="M 58.5 630.5 L 1336.5 630.5" stroke-opacity="1" stroke-linejoin="bevel" stroke-miterlimit="10" stroke-dasharray=""/><path fill="none" stroke="rgb(0,0,0)" paint-order="fill" d="M 58.5 636.5 L 58.5 628.5 M 314.5 636.5 L 314.5 628.5 M 569.5 636.5 L 569.5 628.5 M 825.5 636.5 L 825.5 628.5 M 1080.5 636.5 L 1080.5 628.5 M 1336.5 636.5 L 1336.5 628.5" stroke-opacity="1" stroke-linejoin="bevel" stroke-miterlimit="10" stroke-dasharray=""/><path fill="none" stroke="rgb(0,0,0)" paint-order="fill" d="M 58.5 634.5 L 58.5 630.5 M 109.5 634.5 L 109.5 630.5 M 160.5 634.5 L 160.5 630.5 M 211.5 634.5 L 211.5 630.5 M 262.5 634.5 L 262.5 630.5 M 314.5 634.5 L 314.5 630.5 M 365.5 634.5 L 365.5 630.5 M 416.5 634.5 L 416.5 630.5 M 467.5 634.5 L 467.5 630.5 M 518.5 634.5 L 518.5 630.5 M 569.5 634.5 L 569.5 630.5 M 620.5 634.5 L 620.5 630.5 M 671.5 634.5 L 671.5 630.5 M 723.5 634.5 L 723.5 630.5 M 774.5 634.5 L 774.5 630.5 M 825.5 634.5 L 825.5 630.5 M 876.5 634.5 L 876.5 630.5 M 927.5 634.5 L 927.5 630.5 M 978.5 634.5 L 978.5 630.5 M 1029.5 634.5 L 1029.5 630.5 M 1080.5 634.5 L 1080.5 630.5 M 1132.5 634.5 L 1132.5 630.5 M 1183.5 634.5 L 1183.5 630.5 M 1234.5 634.5 L 1234.5 630.5 M 1285.5 634.5 L 1285.5 630.5 M 1336.5 634.5 L 1336.5 630.5" stroke-opacity="1" stroke-linejoin="bevel" stroke-miterlimit="10" stroke-dasharray=""/><text fill="rgb(68,68,68)" stroke="none" font-family="helvetica" font-size="11px" font-style="normal" font-weight="normal" text-decoration="normal" x="54.94166660308838" y="648.89013671875" text-anchor="start" dominant-baseline="alphabetic" transform="matrix(1, 0, 0, 1, 0.5, 0.5)" fill-opacity="1">0</text><text fill="rgb(68,68,68)" stroke="none" font-family="helvetica" font-size="11px" font-style="normal" font-weight="normal" text-decoration="normal" x="304.42500591278076" y="648.89013671875" text-anchor="start" dominant-baseline="alphabetic" transform="matrix(1, 0, 0, 1, 0.5, 0.5)" fill-opacity="1">200</text><text fill="rgb(68,68,68)" stroke="none" font-family="helvetica" font-size="11px" font-style="normal" font-weight="normal" text-decoration="normal" x="560.0250120162964" y="648.89013671875" text-anchor="start" dominant-baseline="alphabetic" transform="matrix(1, 0, 0, 1, 0.5, 0.5)" fill-opacity="1">400</text><text fill="rgb(68,68,68)" stroke="none" font-family="helvetica" font-size="11px" font-style="normal" font-weight="normal" text-decoration="normal" x="815.6249876022339" y="648.89013671875" text-anchor="start" dominant-baseline="alphabetic" transform="matrix(1, 0, 0, 1, 0.5, 0.5)" fill-opacity="1">600</text><text fill="rgb(68,68,68)" stroke="none" font-family="helvetica" font-size="11px" font-style="normal" font-weight="normal" text-decoration="normal" x="1071.2250242233276" y="648.89013671875" text-anchor="start" dominant-baseline="alphabetic" transform="matrix(1, 0, 0, 1, 0.5, 0.5)" fill-opacity="1">800</text><text fill="rgb(68,68,68)" stroke="none" font-family="helvetica" font-size="11px" font-style="normal" font-weight="normal" text-decoration="normal" x="1323.7666664123535" y="648.89013671875" text-anchor="start" dominant-baseline="alphabetic" transform="matrix(1, 0, 0, 1, 0.5, 0.5)" fill-opacity="1">1000</text><text fill="rgb(68,68,68)" stroke="none" font-family="helvetica" font-size="15pt" font-style="italic" font-weight="normal" text-decoration="normal" x="666.4416675567627" y="676.06982421875" text-anchor="start" dominant-baseline="alphabetic" transform="matrix(1, 0, 0, 1, 0.5, 0.5)" fill-opacity="1">time(s)</text><path fill="none" stroke="rgb(0,0,0)" paint-order="fill" d="M 58.5 630.5 L 58.5 51.5" stroke-opacity="1" stroke-linejoin="bevel" stroke-miterlimit="10" stroke-dasharray=""/><path fill="none" stroke="rgb(0,0,0)" paint-order="fill" d="M 52.5 551.5 L 60.5 551.5 M 52.5 446.5 L 60.5 446.5 M 52.5 341.5 L 60.5 341.5 M 52.5 235.5 L 60.5 235.5 M 52.5 130.5 L 60.5 130.5" stroke-opacity="1" stroke-linejoin="bevel" stroke-miterlimit="10" stroke-dasharray=""/><path fill="none" stroke="rgb(0,0,0)" paint-order="fill" d="M 54.5 572.5 L 58.5 572.5 M 54.5 593.5 L 58.5 593.5 M 54.5 614.5 L 58.5 614.5 M 54.5 551.5 L 58.5 551.5 M 54.5 530.5 L 58.5 530.5 M 54.5 509.5 L 58.5 509.5 M 54.5 488.5 L 58.5 488.5 M 54.5 467.5 L 58.5 467.5 M 54.5 446.5 L 58.5 446.5 M 54.5 425.5 L 58.5 425.5 M 54.5 404.5 L 58.5 404.5 M 54.5 383.5 L 58.5 383.5 M 54.5 362.5 L 58.5 362.5 M 54.5 341.5 L 58.5 341.5 M 54.5 319.5 L 58.5 319.5 M 54.5 298.5 L 58.5 298.5 M 54.5 277.5 L 58.5 277.5 M 54.5 256.5 L 58.5 256.5 M 54.5 235.5 L 58.5 235.5 M 54.5 214.5 L 58.5 214.5 M 54.5 193.5 L 58.5 193.5 M 54.5 172.5 L 58.5 172.5 M 54.5 151.5 L 58.5 151.5 M 54.5 130.5 L 58.5 130.5 M 54.5 109.5 L 58.5 109.5 M 54.5 88.5 L 58.5 88.5 M 54.5 67.5 L 58.5 67.5" stroke-opacity="1" stroke-linejoin="bevel" stroke-miterlimit="10" stroke-dasharray=""/><text fill="rgb(68,68,68)" stroke="none" font-family="helvetica" font-size="11px" font-style="normal" font-weight="normal" text-decoration="normal" x="34.46666622161865" y="554.9905395507812" text-anchor="start" dominant-baseline="alphabetic" transform="matrix(1, 0, 0, 1, 0.5, 0.5)" fill-opacity="1">−2</text><text fill="rgb(68,68,68)" stroke="none" font-family="helvetica" font-size="11px" font-style="normal" font-weight="normal" text-decoration="normal" x="34.46666622161865" y="449.7178039550781" text-anchor="start" dominant-baseline="alphabetic" transform="matrix(1, 0, 0, 1, 0.5, 0.5)" fill-opacity="1">−1</text><text fill="rgb(68,68,68)" stroke="none" font-family="helvetica" font-size="11px" font-style="normal" font-weight="normal" text-decoration="normal" x="40.88333320617676" y="344.445068359375" text-anchor="start" dominant-baseline="alphabetic" transform="matrix(1, 0, 0, 1, 0.5, 0.5)" fill-opacity="1">0</text><text fill="rgb(68,68,68)" stroke="none" font-family="helvetica" font-size="11px" font-style="normal" font-weight="normal" text-decoration="normal" x="40.88333320617676" y="239.17234802246094" text-anchor="start" dominant-baseline="alphabetic" transform="matrix(1, 0, 0, 1, 0.5, 0.5)" fill-opacity="1">1</text><text fill="rgb(68,68,68)" stroke="none" font-family="helvetica" font-size="11px" font-style="normal" font-weight="normal" text-decoration="normal" x="40.88333320617676" y="133.8996124267578" text-anchor="start" dominant-baseline="alphabetic" transform="matrix(1, 0, 0, 1, 0.5, 0.5)" fill-opacity="1">2</text><text fill="rgb(68,68,68)" stroke="none" font-family="helvetica" font-size="15pt" font-style="italic" font-weight="normal" text-decoration="normal" x="-11.316666603088379" y="336.076171875" text-anchor="start" dominant-baseline="alphabetic" transform="matrix(6.123233995736766e-17, -1, 1, 6.123233995736766e-17, -313.53333377838135, 367.46666622161865)" fill-opacity="1">students</text><path fill="rgb(255,255,255)" stroke="rgb(229,229,229)" paint-order="fill" d="M 1128.2333374023438 61.5 L 1326.5 61.5 L 1326.5 400.5 L 1128.2333374023438 400.5 L 1128.2333374023438 61.5" fill-opacity="0.9490196078431372" clip-path="url(#lbrdOvqvTBgm)" stroke-opacity="0.5019607843137255" stroke-linejoin="bevel" stroke-miterlimit="10" stroke-dasharray=""/><g clip-path="url(#lbrdOvqvTBgm)"><text fill="rgb(68,68,68)" stroke="none" font-family="helvetica" font-size="13px" font-style="normal" font-weight="normal" text-decoration="normal" x="1162.7333374023438" y="81" text-anchor="start" dominant-baseline="central" transform="matrix(1, 0, 0, 1, 0.5, 0.5)" fill-opacity="1">wavelength</text></g><path fill="rgb(0,255,40)" stroke="none" paint-order="stroke" d="M 1140.2333374023438 73.5 L 1156.2333374023438 73.5 L 1156.2333374023438 89.5 L 1140.2333374023438 89.5 L 1140.2333374023438 73.5" fill-opacity="1" clip-path="url(#lbrdOvqvTBgm)"/><path fill="rgb(216,17,89)" stroke="none" paint-order="stroke" d="M 1140.2333374023438 73.5 L 1156.2333374023438 73.5 L 1156.2333374023438 89.5 L 1140.2333374023438 89.5 L 1140.2333374023438 73.5" fill-opacity="1" clip-path="url(#lbrdOvqvTBgm)"/><g clip-path="url(#lbrdOvqvTBgm)"><text fill="rgb(68,68,68)" stroke="none" font-family="helvetica" font-size="13px" font-style="normal" font-weight="normal" text-decoration="normal" x="1162.7333374023438" y="104" text-anchor="start" dominant-baseline="central" transform="matrix(1, 0, 0, 1, 0.5, 0.5)" fill-opacity="1">solution</text></g><path fill="rgb(251,0,7)" stroke="none" paint-order="stroke" d="M 1140.2333374023438 96.5 L 1156.2333374023438 96.5 L 1156.2333374023438 112.5 L 1140.2333374023438 112.5 L 1140.2333374023438 96.5" fill-opacity="1" clip-path="url(#lbrdOvqvTBgm)"/><path fill="rgb(33,131,128)" stroke="none" paint-order="stroke" d="M 1140.2333374023438 96.5 L 1156.2333374023438 96.5 L 1156.2333374023438 112.5 L 1140.2333374023438 112.5 L 1140.2333374023438 96.5" fill-opacity="1" clip-path="url(#lbrdOvqvTBgm)"/><g clip-path="url(#lbrdOvqvTBgm)"><text fill="rgb(68,68,68)" stroke="none" font-family="helvetica" font-size="13px" font-style="normal" font-weight="normal" text-decoration="normal" x="1162.7333374023438" y="127" text-anchor="start" dominant-baseline="central" transform="matrix(1, 0, 0, 1, 0.5, 0.5)" fill-opacity="1">laser</text></g><path fill="rgb(105,29,48)" stroke="none" paint-order="stroke" d="M 1140.2333374023438 119.5 L 1156.2333374023438 119.5 L 1156.2333374023438 135.5 L 1140.2333374023438 135.5 L 1140.2333374023438 119.5" fill-opacity="1" clip-path="url(#lbrdOvqvTBgm)"/><g clip-path="url(#lbrdOvqvTBgm)"><text fill="rgb(68,68,68)" stroke="none" font-family="helvetica" font-size="13px" font-style="normal" font-weight="normal" text-decoration="normal" x="1162.7333374023438" y="150" text-anchor="start" dominant-baseline="central" transform="matrix(1, 0, 0, 1, 0.5, 0.5)" fill-opacity="1">ruler</text></g><path fill="rgb(255,188,66)" stroke="none" paint-order="stroke" d="M 1140.2333374023438 142.5 L 1156.2333374023438 142.5 L 1156.2333374023438 158.5 L 1140.2333374023438 158.5 L 1140.2333374023438 142.5" fill-opacity="1" clip-path="url(#lbrdOvqvTBgm)"/><g clip-path="url(#lbrdOvqvTBgm)"><text fill="rgb(68,68,68)" stroke="none" font-family="helvetica" font-size="13px" font-style="normal" font-weight="normal" text-decoration="normal" x="1162.7333374023438" y="173" text-anchor="start" dominant-baseline="central" transform="matrix(1, 0, 0, 1, 0.5, 0.5)" fill-opacity="1">restarts</text></g><g clip-path="url(#lbrdOvqvTBgm)"><text fill="rgb(68,68,68)" stroke="none" font-family="helvetica" font-size="13px" font-style="normal" font-weight="normal" text-decoration="normal" x="1162.7333374023438" y="196" text-anchor="start" dominant-baseline="central" transform="matrix(1, 0, 0, 1, 0.5, 0.5)" fill-opacity="1">transmittance_absorbance</text></g><path fill="rgb(162,174,187)" stroke="none" paint-order="stroke" d="M 1140.2333374023438 188.5 L 1156.2333374023438 188.5 L 1156.2333374023438 204.5 L 1140.2333374023438 204.5 L 1140.2333374023438 188.5" fill-opacity="1" clip-path="url(#lbrdOvqvTBgm)"/><g clip-path="url(#lbrdOvqvTBgm)"><text fill="rgb(68,68,68)" stroke="none" font-family="helvetica" font-size="13px" font-style="normal" font-weight="normal" text-decoration="normal" x="1162.7333374023438" y="219" text-anchor="start" dominant-baseline="central" transform="matrix(1, 0, 0, 1, 0.5, 0.5)" fill-opacity="1">magnifier</text></g><path fill="rgb(255,188,66)" stroke="none" paint-order="stroke" d="M 1140.2333374023438 211.5 L 1156.2333374023438 211.5 L 1156.2333374023438 227.5 L 1140.2333374023438 227.5 L 1140.2333374023438 211.5" fill-opacity="1" clip-path="url(#lbrdOvqvTBgm)"/><g clip-path="url(#lbrdOvqvTBgm)"><text fill="rgb(68,68,68)" stroke="none" font-family="helvetica" font-size="13px" font-style="normal" font-weight="normal" text-decoration="normal" x="1162.7333374023438" y="242" text-anchor="start" dominant-baseline="central" transform="matrix(1, 0, 0, 1, 0.5, 0.5)" fill-opacity="1">concentration</text></g><path fill="rgb(115,210,222)" stroke="none" paint-order="stroke" d="M 1140.2333374023438 234.5 L 1156.2333374023438 234.5 L 1156.2333374023438 250.5 L 1140.2333374023438 250.5 L 1140.2333374023438 234.5" fill-opacity="1" clip-path="url(#lbrdOvqvTBgm)"/><g clip-path="url(#lbrdOvqvTBgm)"><text fill="rgb(68,68,68)" stroke="none" font-family="helvetica" font-size="13px" font-style="normal" font-weight="normal" text-decoration="normal" x="1162.7333374023438" y="265" text-anchor="start" dominant-baseline="central" transform="matrix(1, 0, 0, 1, 0.5, 0.5)" fill-opacity="1">flask</text></g><g clip-path="url(#lbrdOvqvTBgm)"><text fill="rgb(68,68,68)" stroke="none" font-family="helvetica" font-size="13px" font-style="normal" font-weight="normal" text-decoration="normal" x="1162.7333374023438" y="288" text-anchor="start" dominant-baseline="central" transform="matrix(1, 0, 0, 1, 0.5, 0.5)" fill-opacity="1">pdf</text></g><g clip-path="url(#lbrdOvqvTBgm)"><text fill="rgb(68,68,68)" stroke="none" font-family="helvetica" font-size="13px" font-style="normal" font-weight="normal" text-decoration="normal" x="1162.7333374023438" y="311" text-anchor="start" dominant-baseline="central" transform="matrix(1, 0, 0, 1, 0.5, 0.5)" fill-opacity="1">concentrationlab</text></g><g clip-path="url(#lbrdOvqvTBgm)"><text fill="rgb(68,68,68)" stroke="none" font-family="helvetica" font-size="13px" font-style="normal" font-weight="normal" text-decoration="normal" x="1162.7333374023438" y="334" text-anchor="start" dominant-baseline="central" transform="matrix(1, 0, 0, 1, 0.5, 0.5)" fill-opacity="1">wavelength_slider</text></g><g clip-path="url(#lbrdOvqvTBgm)"><text fill="rgb(68,68,68)" stroke="none" font-family="helvetica" font-size="13px" font-style="normal" font-weight="normal" text-decoration="normal" x="1162.7333374023438" y="357" text-anchor="start" dominant-baseline="central" transform="matrix(1, 0, 0, 1, 0.5, 0.5)" fill-opacity="1">ruler measuring</text></g><path fill="rgb(255,188,66)" stroke="none" paint-order="stroke" d="M 1140.2333374023438 349.5 L 1156.2333374023438 349.5 L 1156.2333374023438 365.5 L 1140.2333374023438 365.5 L 1140.2333374023438 349.5" fill-opacity="1" clip-path="url(#lbrdOvqvTBgm)"/><g clip-path="url(#lbrdOvqvTBgm)"><text fill="rgb(68,68,68)" stroke="none" font-family="helvetica" font-size="13px" font-style="normal" font-weight="normal" text-decoration="normal" x="1162.7333374023438" y="380" text-anchor="start" dominant-baseline="central" transform="matrix(1, 0, 0, 1, 0.5, 0.5)" fill-opacity="1">dependent variable</text></g><path fill="rgb(143,45,86)" stroke="none" paint-order="stroke" d="M 1140.2333374023438 372.5 L 1156.2333374023438 372.5 L 1156.2333374023438 388.5 L 1140.2333374023438 388.5 L 1140.2333374023438 372.5" fill-opacity="1" clip-path="url(#lbrdOvqvTBgm)"/><text fill="rgb(68,68,68)" stroke="none" font-family="helvetica" font-size="25pt" font-style="normal" font-weight="bold" text-decoration="normal" x="58" y="38.740885416666664" text-anchor="start" dominant-baseline="alphabetic" transform="matrix(1, 0, 0, 1, 0.5, 0.5)" fill-opacity="1">Timeline for student demo with permutation missing for task 3</text></svg>