<svg version="1.1" xmlns="http://www.w3.org/2000/svg" width="1366" height="683"><defs><clipPath id="SlOQBasbLqkZ"><path fill="none" stroke="none" d="M 58.5 51.5 L 1336.5 51.5 L 1336.5 630.5 L 58.5 630.5 L 58.5 51.5"/></clipPath><clipPath id="fTnOITfxDKIN"><path fill="none" stroke="none" d="M 58.5 51.5 L 1336.5 51.5 L 1336.5 630.5 L 58.5 630.5 L 58.5 51.5"/></clipPath><clipPath id="NXKZKLThFIMq"><path fill="none" stroke="none" d="M 58.5 51.5 L 1336.5 51.5 L 1336.5 630.5 L 58.5 630.5 L 58.5 51.5"/></clipPath><clipPath id="gITQvUFEkFnK"><path fill="none" stroke="none" d="M 58.5 51.5 L 1336.5 51.5 L 1336.5 630.5 L 58.5 630.5 L 58.5 51.5"/></clipPath><clipPath id="relgRzBKEOAv"><path fill="none" stroke="none" d="M 58.5 51.5 L 1336.5 51.5 L 1336.5 630.5 L 58.5 630.5 L 58.5 51.5"/></clipPath><clipPath id="IEQKvsbJTcmb"><path fill="none" stroke="none" d="M 58.5 51.5 L 1336.5 51.5 L 1336.5 630.5 L 58.5 630.5 L 58.5 51.5"/></clipPath><clipPath id="TAWPHOACKxDt"><path fill="none" stroke="none" d="M 58.5 51.5 L 1336.5 51.5 L 1336.5 630.5 L 58.5 630.5 L 58.5 51.5"/></clipPath><clipPath id="OPUzpudnsMPd"><path fill="none" stroke="none" d="M 58.5 51.5 L 1336.5 51.5 L 1336.5 630.5 L 58.5 630.5 L 58.5 51.5"/></clipPath><clipPath id="FVuyyatrqDZl"><path fill="none" stroke="none" d="M 58.5 51.5 L 1336.5 51.5 L 1336.5 630.5 L 58.5 630.5 L 58.5 51.5"/></clipPath><clipPath id="RDXGwIGnkSCx"><path fill="none" stroke="none" d="M 58.5 51.5 L 1336.5 51.5 L 1336.5 630.5 L 58.5 630.5 L 58.5 51.5"/></clipPath><clipPath id="qIAzrogBlFCu"><path fill="none" stroke="none" d="M 58.5 51.5 L 1336.5 51.5 L 1336.5 630.5 L 58.5 630.5 L 58.5 51.5"/></clipPath><clipPath id="RBCXUgOTkBDE"><path fill="none" stroke="none" d="M 58.5 51.5 L 1336.5 51.5 L 1336.5 630.5 L 58.5 630.5 L 58.5 51.5"/></clipPath><clipPath id="LJcaBzkrHHHR"><path fill="none" stroke="none" d="M 58.5 51.5 L 1336.5 51.5 L 1336.5 630.5 L 58.5 630.5 L 58.5 51.5"/></clipPath><clipPath id="BbJeOeIcZHMR"><path fill="none" stroke="none" d="M 58.5 51.5 L 1336.5 51.5 L 1336.5 630.5 L 58.5 630.5 L 58.5 51.5"/></clipPath><clipPath id="zHdKOHCnwVLP"><path fill="none" stroke="none" d="M 58.5 51.5 L 1336.5 51.5 L 1336.5 630.5 L 58.5 630.5 L 58.5 51.5"/></clipPath><clipPath id="rwxiRbESxOHM"><path fill="none" stroke="none" d="M 58.5 51.5 L 1336.5 51.5 L 1336.5 630.5 L 58.5 630.5 L 58.5 51.5"/></clipPath><clipPath id="OigOeaQsOZlb"><path fill="none" stroke="none" d="M 58.5 51.5 L 1336.5 51.5 L 1336.5 630.5 L 58.5 630.5 L 58.5 51.5"/></clipPath><clipPath id="FQpiiaPVxnAA"><path fill="none" stroke="none" d="M 58.5 51.5 L 1336.5 51.5 L 1336.5 630.5 L 58.5 630.5 L 58.5 51.5"/></clipPath><clipPath id="bLUZabOCAawf"><path fill="none" stroke="none" d="M 58.5 51.5 L 1336.5 51.5 L 1336.5 630.5 L 58.5 630.5 L 58.5 51.5"/></clipPath><clipPath id="GqTTXFNbUuEQ"><path fill="none" stroke="none" d="M 58.5 51.5 L 1336.5 51.5 L 1336.5 630.5 L 58.5 630.5 L 58.5 51.5"/></clipPath><clipPath id="IgmBvhrWSWki"><path fill="none" stroke="none" d="M 58.5 51.5 L 1336.5 51.5 L 1336.5 630.5 L 58.5 630.5 L 58.5 51.5"/></clipPath></defs><path fill="rgb(255,255,255)" stroke="none" paint-order="stroke" d="M 0.5 0.5 L 1366.5 0.5 L 1366.5 683.5 L 0.5 683.5 L 0.5 0.5" fill-opacity="1"/><rect fill="#FFFFFF" stroke="none" x="58" y="51" width="1278" height="579" transform="matrix(1, 0, 0, 1, 0.5, 0.5)"/><path fill="rgb(255,255,255)" stroke="none" paint-order="stroke" d="M 58.5 51.5 L 1336.5 51.5 L 1336.5 630.5 L 58.5 630.5 L 58.5 51.5" fill-opacity="1"/><path fill="none" stroke="rgb(229,229,229)" paint-order="fill" d="M 58.5 51.5 L 1336.5 51.5 L 1336.5 630.5 L 58.5 630.5 L 58.5 51.5" stroke-opacity="1" stroke-linejoin="bevel" stroke-miterlimit="10" stroke-dasharray=""/><path fill="none" stroke="rgb(229,229,229)" paint-order="fill" d="M 314.5 630.5 L 314.5 51.5 M 569.5 630.5 L 569.5 51.5 M 825.5 630.5 L 825.5 51.5 M 1080.5 630.5 L 1080.5 51.5" stroke-opacity="1" stroke-linejoin="bevel" stroke-miterlimit="10" stroke-dasharray="" clip-path="url(#SlOQBasbLqkZ)"/><path fill="none" stroke="rgb(229,229,229)" paint-order="fill" d="M 58.5 551.5 L 1336.5 551.5 M 58.5 446.5 L 1336.5 446.5 M 58.5 341.5 L 1336.5 341.5 M 58.5 235.5 L 1336.5 235.5 M 58.5 130.5 L 1336.5 130.5" stroke-opacity="1" stroke-linejoin="bevel" stroke-miterlimit="10" stroke-dasharray="" clip-path="url(#fTnOITfxDKIN)"/><path fill="rgb(0,255,40)" stroke="none" paint-order="stroke" d="M 58.5 77.81818389892578 L 97.83044815063477 77.81818389892578 L 97.83044815063477 130.45454788208008 L 58.5 130.45454788208008 L 58.5 77.81818389892578" fill-opacity="1" clip-path="url(#NXKZKLThFIMq)"/><path fill="rgb(58,255,0)" stroke="none" paint-order="stroke" d="M 97.83045196533203 77.81818389892578 L 97.85217796452343 77.81818389892578 L 97.85217796452343 130.45454788208008 L 97.83045196533203 130.45454788208008 L 97.83045196533203 77.81818389892578" fill-opacity="1" clip-path="url(#NXKZKLThFIMq)"/><path fill="rgb(111,255,0)" stroke="none" paint-order="stroke" d="M 97.8521728515625 77.81818389892578 L 98.23557284474373 77.81818389892578 L 98.23557284474373 130.45454788208008 L 97.8521728515625 130.45454788208008 L 97.8521728515625 77.81818389892578" fill-opacity="1" clip-path="url(#NXKZKLThFIMq)"/><path fill="rgb(129,255,0)" stroke="none" paint-order="stroke" d="M 98.2355728149414 77.81818389892578 L 98.81195080280304 77.81818389892578 L 98.81195080280304 130.45454788208008 L 98.2355728149414 130.45454788208008 L 98.2355728149414 77.81818389892578" fill-opacity="1" clip-path="url(#NXKZKLThFIMq)"/><path fill="rgb(111,255,0)" stroke="none" paint-order="stroke" d="M 98.81195068359375 77.81818389892578 L 99.0445466786623 77.81818389892578 L 99.0445466786623 130.45454788208008 L 98.81195068359375 130.45454788208008 L 98.81195068359375 77.81818389892578" fill-opacity="1" clip-path="url(#NXKZKLThFIMq)"/><path fill="rgb(97,255,0)" stroke="none" paint-order="stroke" d="M 99.04454803466797 77.81818389892578 L 99.06883003376424 77.81818389892578 L 99.06883003376424 130.45454788208008 L 99.04454803466797 130.45454788208008 L 99.04454803466797 77.81818389892578" fill-opacity="1" clip-path="url(#NXKZKLThFIMq)"/><path fill="rgb(78,255,0)" stroke="none" paint-order="stroke" d="M 99.06883239746094 77.81818389892578 L 100.94110238552094 77.81818389892578 L 100.94110238552094 130.45454788208008 L 99.06883239746094 130.45454788208008 L 99.06883239746094 77.81818389892578" fill-opacity="1" clip-path="url(#NXKZKLThFIMq)"/><path fill="rgb(58,255,0)" stroke="none" paint-order="stroke" d="M 100.94110107421875 77.81818389892578 L 101.6222750544548 77.81818389892578 L 101.6222750544548 130.45454788208008 L 100.94110107421875 130.45454788208008 L 100.94110107421875 77.81818389892578" fill-opacity="1" clip-path="url(#NXKZKLThFIMq)"/><path fill="rgb(40,255,0)" stroke="none" paint-order="stroke" d="M 101.62227630615234 77.81818389892578 L 102.24082833528519 77.81818389892578 L 102.24082833528519 130.45454788208008 L 101.62227630615234 130.45454788208008 L 101.62227630615234 77.81818389892578" fill-opacity="1" clip-path="url(#NXKZKLThFIMq)"/><path fill="rgb(58,255,0)" stroke="none" paint-order="stroke" d="M 102.24082946777344 77.81818389892578 L 102.28300346806645 77.81818389892578 L 102.28300346806645 130.45454788208008 L 102.24082946777344 130.45454788208008 L 102.24082946777344 77.81818389892578" fill-opacity="1" clip-path="url(#NXKZKLThFIMq)"/><path fill="rgb(78,255,0)" stroke="none" paint-order="stroke" d="M 102.28300476074219 77.81818389892578 L 103.7309787273407 77.81818389892578 L 103.7309787273407 130.45454788208008 L 102.28300476074219 130.45454788208008 L 102.28300476074219 77.81818389892578" fill-opacity="1" clip-path="url(#NXKZKLThFIMq)"/><path fill="rgb(40,255,0)" stroke="none" paint-order="stroke" d="M 103.73097229003906 77.81818389892578 L 104.1999982893467 77.81818389892578 L 104.1999982893467 130.45454788208008 L 103.73097229003906 130.45454788208008 L 103.73097229003906 77.81818389892578" fill-opacity="1" clip-path="url(#NXKZKLThFIMq)"/><path fill="rgb(58,255,0)" stroke="none" paint-order="stroke" d="M 104.20000457763672 77.81818389892578 L 104.32780458033085 77.81818389892578 L 104.32780458033085 130.45454788208008 L 104.20000457763672 130.45454788208008 L 104.20000457763672 77.81818389892578" fill-opacity="1" clip-path="url(#NXKZKLThFIMq)"/><path fill="rgb(78,255,0)" stroke="none" paint-order="stroke" d="M 104.32780456542969 77.81818389892578 L 104.79555255174637 77.81818389892578 L 104.79555255174637 130.45454788208008 L 104.32780456542969 130.45454788208008 L 104.32780456542969 77.81818389892578" fill-opacity="1" clip-path="url(#NXKZKLThFIMq)"/><path fill="rgb(58,255,0)" stroke="none" paint-order="stroke" d="M 104.79554748535156 77.81818389892578 L 176.05426788330078 77.81818389892578 L 176.05426788330078 130.45454788208008 L 104.79554748535156 130.45454788208008 L 104.79554748535156 77.81818389892578" fill-opacity="1" clip-path="url(#NXKZKLThFIMq)"/><path fill="rgb(53,255,0)" stroke="none" paint-order="stroke" d="M 176.0542755126953 77.81818389892578 L 190.93530750274658 77.81818389892578 L 190.93530750274658 130.45454788208008 L 176.0542755126953 130.45454788208008 L 176.0542755126953 77.81818389892578" fill-opacity="1" clip-path="url(#NXKZKLThFIMq)"/><path fill="rgb(159,255,0)" stroke="none" paint-order="stroke" d="M 190.935302734375 77.81818389892578 L 196.78726482391357 77.81818389892578 L 196.78726482391357 130.45454788208008 L 190.935302734375 130.45454788208008 L 190.935302734375 77.81818389892578" fill-opacity="1" clip-path="url(#NXKZKLThFIMq)"/><path fill="rgb(0,255,40)" stroke="none" paint-order="stroke" d="M 196.78726196289062 77.81818389892578 L 202.3082218170166 77.81818389892578 L 202.3082218170166 130.45454788208008 L 196.78726196289062 130.45454788208008 L 196.78726196289062 77.81818389892578" fill-opacity="1" clip-path="url(#NXKZKLThFIMq)"/><path fill="rgb(14,255,0)" stroke="none" paint-order="stroke" d="M 202.3082275390625 77.81818389892578 L 202.32867553830147 77.81818389892578 L 202.32867553830147 130.45454788208008 L 202.3082275390625 130.45454788208008 L 202.3082275390625 77.81818389892578" fill-opacity="1" clip-path="url(#NXKZKLThFIMq)"/><path fill="rgb(40,255,0)" stroke="none" paint-order="stroke" d="M 202.32867431640625 77.81818389892578 L 204.61373829841614 77.81818389892578 L 204.61373829841614 130.45454788208008 L 202.32867431640625 130.45454788208008 L 202.32867431640625 77.81818389892578" fill-opacity="1" clip-path="url(#NXKZKLThFIMq)"/><path fill="rgb(44,255,0)" stroke="none" paint-order="stroke" d="M 204.61373901367188 77.81818389892578 L 204.94090700149536 77.81818389892578 L 204.94090700149536 130.45454788208008 L 204.61373901367188 130.45454788208008 L 204.61373901367188 77.81818389892578" fill-opacity="1" clip-path="url(#NXKZKLThFIMq)"/><path fill="rgb(49,255,0)" stroke="none" paint-order="stroke" d="M 204.94090270996094 77.81818389892578 L 205.8508387207985 77.81818389892578 L 205.8508387207985 130.45454788208008 L 204.94090270996094 130.45454788208008 L 204.94090270996094 77.81818389892578" fill-opacity="1" clip-path="url(#NXKZKLThFIMq)"/><path fill="rgb(53,255,0)" stroke="none" paint-order="stroke" d="M 205.85084533691406 77.81818389892578 L 456.75291442871094 77.81818389892578 L 456.75291442871094 130.45454788208008 L 205.85084533691406 130.45454788208008 L 205.85084533691406 77.81818389892578" fill-opacity="1" clip-path="url(#NXKZKLThFIMq)"/><path fill="rgb(102,0,183)" stroke="none" paint-order="stroke" d="M 456.7529296875 77.81818389892578 L 475.08328437805176 77.81818389892578 L 475.08328437805176 130.45454788208008 L 456.7529296875 130.45454788208008 L 456.7529296875 77.81818389892578" fill-opacity="1" clip-path="url(#NXKZKLThFIMq)"/><path fill="rgb(42,0,238)" stroke="none" paint-order="stroke" d="M 475.0832824707031 77.81818389892578 L 491.43401527404785 77.81818389892578 L 491.43401527404785 130.45454788208008 L 475.0832824707031 130.45454788208008 L 475.0832824707031 77.81818389892578" fill-opacity="1" clip-path="url(#NXKZKLThFIMq)"/><path fill="rgb(33,0,243)" stroke="none" paint-order="stroke" d="M 491.4339904785156 77.81818389892578 L 491.455716477707 77.81818389892578 L 491.455716477707 130.45454788208008 L 491.4339904785156 130.45454788208008 L 491.4339904785156 77.81818389892578" fill-opacity="1" clip-path="url(#NXKZKLThFIMq)"/><path fill="rgb(9,0,252)" stroke="none" paint-order="stroke" d="M 491.4557189941406 77.81818389892578 L 491.477444993332 77.81818389892578 L 491.477444993332 130.45454788208008 L 491.4557189941406 130.45454788208008 L 491.4557189941406 77.81818389892578" fill-opacity="1" clip-path="url(#NXKZKLThFIMq)"/><path fill="rgb(0,64,255)" stroke="none" paint-order="stroke" d="M 491.4774475097656 77.81818389892578 L 491.499173508957 77.81818389892578 L 491.499173508957 130.45454788208008 L 491.4774475097656 130.45454788208008 L 491.4774475097656 77.81818389892578" fill-opacity="1" clip-path="url(#NXKZKLThFIMq)"/><path fill="rgb(0,137,255)" stroke="none" paint-order="stroke" d="M 491.4991760253906 77.81818389892578 L 491.520902024582 77.81818389892578 L 491.520902024582 130.45454788208008 L 491.4991760253906 130.45454788208008 L 491.4991760253906 77.81818389892578" fill-opacity="1" clip-path="url(#NXKZKLThFIMq)"/><path fill="rgb(0,155,255)" stroke="none" paint-order="stroke" d="M 491.5209045410156 77.81818389892578 L 491.5413525402546 77.81818389892578 L 491.5413525402546 130.45454788208008 L 491.5209045410156 130.45454788208008 L 491.5209045410156 77.81818389892578" fill-opacity="1" clip-path="url(#NXKZKLThFIMq)"/><path fill="rgb(0,196,255)" stroke="none" paint-order="stroke" d="M 491.5413513183594 77.81818389892578 L 492.00909930467606 77.81818389892578 L 492.00909930467606 130.45454788208008 L 491.5413513183594 130.45454788208008 L 491.5413513183594 77.81818389892578" fill-opacity="1" clip-path="url(#NXKZKLThFIMq)"/><path fill="rgb(0,238,255)" stroke="none" paint-order="stroke" d="M 492.00909423828125 77.81818389892578 L 492.0320982374251 77.81818389892578 L 492.0320982374251 130.45454788208008 L 492.00909423828125 130.45454788208008 L 492.00909423828125 77.81818389892578" fill-opacity="1" clip-path="url(#NXKZKLThFIMq)"/><path fill="rgb(0,255,255)" stroke="none" paint-order="stroke" d="M 492.0321044921875 77.81818389892578 L 492.05255249142647 77.81818389892578 L 492.05255249142647 130.45454788208008 L 492.0321044921875 130.45454788208008 L 492.0321044921875 77.81818389892578" fill-opacity="1" clip-path="url(#NXKZKLThFIMq)"/><path fill="rgb(0,255,146)" stroke="none" paint-order="stroke" d="M 492.05255126953125 77.81818389892578 L 492.0729992687702 77.81818389892578 L 492.0729992687702 130.45454788208008 L 492.05255126953125 130.45454788208008 L 492.05255126953125 77.81818389892578" fill-opacity="1" clip-path="url(#NXKZKLThFIMq)"/><path fill="rgb(0,255,23)" stroke="none" paint-order="stroke" d="M 492.072998046875 77.81818389892578 L 492.0947240460664 77.81818389892578 L 492.0947240460664 130.45454788208008 L 492.072998046875 130.45454788208008 L 492.072998046875 77.81818389892578" fill-opacity="1" clip-path="url(#NXKZKLThFIMq)"/><path fill="rgb(44,255,0)" stroke="none" paint-order="stroke" d="M 492.0947265625 77.81818389892578 L 492.11517456173897 77.81818389892578 L 492.11517456173897 130.45454788208008 L 492.0947265625 130.45454788208008 L 492.0947265625 77.81818389892578" fill-opacity="1" clip-path="url(#NXKZKLThFIMq)"/><path fill="rgb(66,255,0)" stroke="none" paint-order="stroke" d="M 492.11517333984375 77.81818389892578 L 494.73251724243164 77.81818389892578 L 494.73251724243164 130.45454788208008 L 492.11517333984375 130.45454788208008 L 492.11517333984375 77.81818389892578" fill-opacity="1" clip-path="url(#NXKZKLThFIMq)"/><path fill="rgb(62,255,0)" stroke="none" paint-order="stroke" d="M 494.7325134277344 77.81818389892578 L 495.0724614262581 77.81818389892578 L 495.0724614262581 130.45454788208008 L 494.7325134277344 130.45454788208008 L 494.7325134277344 77.81818389892578" fill-opacity="1" clip-path="url(#NXKZKLThFIMq)"/><path fill="rgb(58,255,0)" stroke="none" paint-order="stroke" d="M 495.0724792480469 77.81818389892578 L 495.5900692343712 77.81818389892578 L 495.5900692343712 130.45454788208008 L 495.0724792480469 130.45454788208008 L 495.0724792480469 77.81818389892578" fill-opacity="1" clip-path="url(#NXKZKLThFIMq)"/><path fill="rgb(53,255,0)" stroke="none" paint-order="stroke" d="M 495.5900573730469 77.81818389892578 L 650.4312591552734 77.81818389892578 L 650.4312591552734 130.45454788208008 L 495.5900573730469 130.45454788208008 L 495.5900573730469 77.81818389892578" fill-opacity="1" clip-path="url(#NXKZKLThFIMq)"/><path fill="rgb(159,255,0)" stroke="none" paint-order="stroke" d="M 650.4312744140625 77.81818389892578 L 700.0854072570801 77.81818389892578 L 700.0854072570801 130.45454788208008 L 650.4312744140625 130.45454788208008 L 650.4312744140625 77.81818389892578" fill-opacity="1" clip-path="url(#NXKZKLThFIMq)"/><path fill="rgb(156,255,0)" stroke="none" paint-order="stroke" d="M 700.0853881835938 77.81818389892578 L 700.5301321744919 77.81818389892578 L 700.5301321744919 130.45454788208008 L 700.0853881835938 130.45454788208008 L 700.0853881835938 77.81818389892578" fill-opacity="1" clip-path="url(#NXKZKLThFIMq)"/><path fill="rgb(153,255,0)" stroke="none" paint-order="stroke" d="M 700.5301513671875 77.81818389892578 L 700.8317593634129 77.81818389892578 L 700.8317593634129 130.45454788208008 L 700.5301513671875 130.45454788208008 L 700.5301513671875 77.81818389892578" fill-opacity="1" clip-path="url(#NXKZKLThFIMq)"/><path fill="rgb(149,255,0)" stroke="none" paint-order="stroke" d="M 700.8317260742188 77.81818389892578 L 700.985086068511 77.81818389892578 L 700.985086068511 130.45454788208008 L 700.8317260742188 130.45454788208008 L 700.8317260742188 77.81818389892578" fill-opacity="1" clip-path="url(#NXKZKLThFIMq)"/><path fill="rgb(146,255,0)" stroke="none" paint-order="stroke" d="M 700.985107421875 77.81818389892578 L 701.1870314180851 77.81818389892578 L 701.1870314180851 130.45454788208008 L 700.985107421875 130.45454788208008 L 700.985107421875 77.81818389892578" fill-opacity="1" clip-path="url(#NXKZKLThFIMq)"/><path fill="rgb(143,255,0)" stroke="none" paint-order="stroke" d="M 701.18701171875 77.81818389892578 L 701.376155719161 77.81818389892578 L 701.376155719161 130.45454788208008 L 701.18701171875 130.45454788208008 L 701.18701171875 77.81818389892578" fill-opacity="1" clip-path="url(#NXKZKLThFIMq)"/><path fill="rgb(139,255,0)" stroke="none" paint-order="stroke" d="M 701.3761596679688 77.81818389892578 L 701.5793616622686 77.81818389892578 L 701.5793616622686 130.45454788208008 L 701.3761596679688 130.45454788208008 L 701.3761596679688 77.81818389892578" fill-opacity="1" clip-path="url(#NXKZKLThFIMq)"/><path fill="rgb(136,255,0)" stroke="none" paint-order="stroke" d="M 701.579345703125 77.81818389892578 L 701.8183317035437 77.81818389892578 L 701.8183317035437 130.45454788208008 L 701.579345703125 130.45454788208008 L 701.579345703125 77.81818389892578" fill-opacity="1" clip-path="url(#NXKZKLThFIMq)"/><path fill="rgb(132,255,0)" stroke="none" paint-order="stroke" d="M 701.818359375 77.81818389892578 L 701.994723379612 77.81818389892578 L 701.994723379612 130.45454788208008 L 701.818359375 130.45454788208008 L 701.818359375 77.81818389892578" fill-opacity="1" clip-path="url(#NXKZKLThFIMq)"/><path fill="rgb(129,255,0)" stroke="none" paint-order="stroke" d="M 701.9947509765625 77.81818389892578 L 702.2362929731607 77.81818389892578 L 702.2362929731607 130.45454788208008 L 701.9947509765625 130.45454788208008 L 701.9947509765625 77.81818389892578" fill-opacity="1" clip-path="url(#NXKZKLThFIMq)"/><path fill="rgb(126,255,0)" stroke="none" paint-order="stroke" d="M 702.2362670898438 77.81818389892578 L 702.4624730944633 77.81818389892578 L 702.4624730944633 130.45454788208008 L 702.2362670898438 130.45454788208008 L 702.2362670898438 77.81818389892578" fill-opacity="1" clip-path="url(#NXKZKLThFIMq)"/><path fill="rgb(122,255,0)" stroke="none" paint-order="stroke" d="M 702.4624633789062 77.81818389892578 L 702.6912253797054 77.81818389892578 L 702.6912253797054 130.45454788208008 L 702.4624633789062 130.45454788208008 L 702.4624633789062 77.81818389892578" fill-opacity="1" clip-path="url(#NXKZKLThFIMq)"/><path fill="rgb(119,255,0)" stroke="none" paint-order="stroke" d="M 702.6912231445312 77.81818389892578 L 702.9072051495314 77.81818389892578 L 702.9072051495314 130.45454788208008 L 702.6912231445312 130.45454788208008 L 702.6912231445312 77.81818389892578" fill-opacity="1" clip-path="url(#NXKZKLThFIMq)"/><path fill="rgb(115,255,0)" stroke="none" paint-order="stroke" d="M 702.9072265625 77.81818389892578 L 703.1359885632992 77.81818389892578 L 703.1359885632992 130.45454788208008 L 702.9072265625 130.45454788208008 L 702.9072265625 77.81818389892578" fill-opacity="1" clip-path="url(#NXKZKLThFIMq)"/><path fill="rgb(111,255,0)" stroke="none" paint-order="stroke" d="M 703.135986328125 77.81818389892578 L 703.3609143346548 77.81818389892578 L 703.3609143346548 130.45454788208008 L 703.135986328125 130.45454788208008 L 703.135986328125 77.81818389892578" fill-opacity="1" clip-path="url(#NXKZKLThFIMq)"/><path fill="rgb(108,255,0)" stroke="none" paint-order="stroke" d="M 703.3609008789062 77.81818389892578 L 703.5896628797054 77.81818389892578 L 703.5896628797054 130.45454788208008 L 703.3609008789062 130.45454788208008 L 703.3609008789062 77.81818389892578" fill-opacity="1" clip-path="url(#NXKZKLThFIMq)"/><path fill="rgb(104,255,0)" stroke="none" paint-order="stroke" d="M 703.5896606445312 77.81818389892578 L 703.8286466449499 77.81818389892578 L 703.8286466449499 130.45454788208008 L 703.5896606445312 130.45454788208008 L 703.5896606445312 77.81818389892578" fill-opacity="1" clip-path="url(#NXKZKLThFIMq)"/><path fill="rgb(101,255,0)" stroke="none" paint-order="stroke" d="M 703.8286743164062 77.81818389892578 L 704.0561583191156 77.81818389892578 L 704.0561583191156 130.45454788208008 L 703.8286743164062 130.45454788208008 L 703.8286743164062 77.81818389892578" fill-opacity="1" clip-path="url(#NXKZKLThFIMq)"/><path fill="rgb(97,255,0)" stroke="none" paint-order="stroke" d="M 704.05615234375 77.81818389892578 L 704.2964163422585 77.81818389892578 L 704.2964163422585 130.45454788208008 L 704.05615234375 130.45454788208008 L 704.05615234375 77.81818389892578" fill-opacity="1" clip-path="url(#NXKZKLThFIMq)"/><path fill="rgb(93,255,0)" stroke="none" paint-order="stroke" d="M 704.29638671875 77.81818389892578 L 704.5123687237501 77.81818389892578 L 704.5123687237501 130.45454788208008 L 704.29638671875 130.45454788208008 L 704.29638671875 77.81818389892578" fill-opacity="1" clip-path="url(#NXKZKLThFIMq)"/><path fill="rgb(89,255,0)" stroke="none" paint-order="stroke" d="M 704.5123901367188 77.81818389892578 L 704.7411521375179 77.81818389892578 L 704.7411521375179 130.45454788208008 L 704.5123901367188 130.45454788208008 L 704.5123901367188 77.81818389892578" fill-opacity="1" clip-path="url(#NXKZKLThFIMq)"/><path fill="rgb(86,255,0)" stroke="none" paint-order="stroke" d="M 704.7411499023438 77.81818389892578 L 704.9673559069633 77.81818389892578 L 704.9673559069633 130.45454788208008 L 704.7411499023438 130.45454788208008 L 704.7411499023438 77.81818389892578" fill-opacity="1" clip-path="url(#NXKZKLThFIMq)"/><path fill="rgb(82,255,0)" stroke="none" paint-order="stroke" d="M 704.9673461914062 77.81818389892578 L 705.1948301941156 77.81818389892578 L 705.1948301941156 130.45454788208008 L 704.9673461914062 130.45454788208008 L 704.9673461914062 77.81818389892578" fill-opacity="1" clip-path="url(#NXKZKLThFIMq)"/><path fill="rgb(78,255,0)" stroke="none" paint-order="stroke" d="M 705.19482421875 77.81818389892578 L 705.3967482149601 77.81818389892578 L 705.3967482149601 130.45454788208008 L 705.19482421875 130.45454788208008 L 705.19482421875 77.81818389892578" fill-opacity="1" clip-path="url(#NXKZKLThFIMq)"/><path fill="rgb(74,255,0)" stroke="none" paint-order="stroke" d="M 705.3967895507812 77.81818389892578 L 705.6383315473795 77.81818389892578 L 705.6383315473795 130.45454788208008 L 705.3967895507812 130.45454788208008 L 705.3967895507812 77.81818389892578" fill-opacity="1" clip-path="url(#NXKZKLThFIMq)"/><path fill="rgb(70,255,0)" stroke="none" paint-order="stroke" d="M 705.6383056640625 77.81818389892578 L 705.8517316579819 77.81818389892578 L 705.8517316579819 130.45454788208008 L 705.6383056640625 130.45454788208008 L 705.6383056640625 77.81818389892578" fill-opacity="1" clip-path="url(#NXKZKLThFIMq)"/><path fill="rgb(66,255,0)" stroke="none" paint-order="stroke" d="M 705.8517456054688 77.81818389892578 L 706.1546316146851 77.81818389892578 L 706.1546316146851 130.45454788208008 L 705.8517456054688 130.45454788208008 L 705.8517456054688 77.81818389892578" fill-opacity="1" clip-path="url(#NXKZKLThFIMq)"/><path fill="rgb(62,255,0)" stroke="none" paint-order="stroke" d="M 706.1546020507812 77.81818389892578 L 706.6364080607891 77.81818389892578 L 706.6364080607891 130.45454788208008 L 706.1546020507812 130.45454788208008 L 706.1546020507812 77.81818389892578" fill-opacity="1" clip-path="url(#NXKZKLThFIMq)"/><path fill="rgb(58,255,0)" stroke="none" paint-order="stroke" d="M 706.6364135742188 77.81818389892578 L 706.9252415597439 77.81818389892578 L 706.9252415597439 130.45454788208008 L 706.6364135742188 130.45454788208008 L 706.6364135742188 77.81818389892578" fill-opacity="1" clip-path="url(#NXKZKLThFIMq)"/><path fill="rgb(53,255,0)" stroke="none" paint-order="stroke" d="M 706.9252319335938 77.81818389892578 L 707.4325979351997 77.81818389892578 L 707.4325979351997 130.45454788208008 L 706.9252319335938 130.45454788208008 L 706.9252319335938 77.81818389892578" fill-opacity="1" clip-path="url(#NXKZKLThFIMq)"/><path fill="rgb(49,255,0)" stroke="none" paint-order="stroke" d="M 707.4326171875 77.81818389892578 L 709.0250052213669 77.81818389892578 L 709.0250052213669 130.45454788208008 L 707.4326171875 130.45454788208008 L 707.4326171875 77.81818389892578" fill-opacity="1" clip-path="url(#NXKZKLThFIMq)"/><path fill="rgb(53,255,0)" stroke="none" paint-order="stroke" d="M 709.0250244140625 77.81818389892578 L 849.4772186279297 77.81818389892578 L 849.4772186279297 130.45454788208008 L 709.0250244140625 130.45454788208008 L 709.0250244140625 77.81818389892578" fill-opacity="1" clip-path="url(#NXKZKLThFIMq)"/><path fill="rgb(42,0,238)" stroke="none" paint-order="stroke" d="M 849.4772338867188 77.81818389892578 L 870.3840351104736 77.81818389892578 L 870.3840351104736 130.45454788208008 L 849.4772338867188 130.45454788208008 L 849.4772338867188 77.81818389892578" fill-opacity="1" clip-path="url(#NXKZKLThFIMq)"/><path fill="rgb(9,0,252)" stroke="none" paint-order="stroke" d="M 870.384033203125 77.81818389892578 L 870.4057592023164 77.81818389892578 L 870.4057592023164 130.45454788208008 L 870.384033203125 130.45454788208008 L 870.384033203125 77.81818389892578" fill-opacity="1" clip-path="url(#NXKZKLThFIMq)"/><path fill="rgb(0,86,255)" stroke="none" paint-order="stroke" d="M 870.40576171875 77.81818389892578 L 870.4274877179414 77.81818389892578 L 870.4274877179414 130.45454788208008 L 870.40576171875 130.45454788208008 L 870.40576171875 77.81818389892578" fill-opacity="1" clip-path="url(#NXKZKLThFIMq)"/><path fill="rgb(0,196,255)" stroke="none" paint-order="stroke" d="M 870.4274291992188 77.81818389892578 L 870.4708811976016 77.81818389892578 L 870.4708811976016 130.45454788208008 L 870.4274291992188 130.45454788208008 L 870.4274291992188 77.81818389892578" fill-opacity="1" clip-path="url(#NXKZKLThFIMq)"/><path fill="rgb(0,238,255)" stroke="none" paint-order="stroke" d="M 870.4708862304688 77.81818389892578 L 871.0217042565346 77.81818389892578 L 871.0217042565346 130.45454788208008 L 870.4708862304688 130.45454788208008 L 870.4708862304688 77.81818389892578" fill-opacity="1" clip-path="url(#NXKZKLThFIMq)"/><path fill="rgb(0,255,255)" stroke="none" paint-order="stroke" d="M 871.021728515625 77.81818389892578 L 871.0447325147688 77.81818389892578 L 871.0447325147688 130.45454788208008 L 871.021728515625 130.45454788208008 L 871.021728515625 77.81818389892578" fill-opacity="1" clip-path="url(#NXKZKLThFIMq)"/><path fill="rgb(0,255,202)" stroke="none" paint-order="stroke" d="M 871.0447387695312 77.81818389892578 L 871.5342127680779 77.81818389892578 L 871.5342127680779 130.45454788208008 L 871.0447387695312 130.45454788208008 L 871.0447387695312 77.81818389892578" fill-opacity="1" clip-path="url(#NXKZKLThFIMq)"/><path fill="rgb(0,255,146)" stroke="none" paint-order="stroke" d="M 871.5341796875 77.81818389892578 L 871.554627686739 77.81818389892578 L 871.554627686739 130.45454788208008 L 871.5341796875 130.45454788208008 L 871.5341796875 77.81818389892578" fill-opacity="1" clip-path="url(#NXKZKLThFIMq)"/><path fill="rgb(0,255,97)" stroke="none" paint-order="stroke" d="M 871.5546264648438 77.81818389892578 L 871.5980784632266 77.81818389892578 L 871.5980784632266 130.45454788208008 L 871.5546264648438 130.45454788208008 L 871.5546264648438 77.81818389892578" fill-opacity="1" clip-path="url(#NXKZKLThFIMq)"/><path fill="rgb(0,255,23)" stroke="none" paint-order="stroke" d="M 871.5980834960938 77.81818389892578 L 871.874131500721 77.81818389892578 L 871.874131500721 130.45454788208008 L 871.5980834960938 130.45454788208008 L 871.5980834960938 77.81818389892578" fill-opacity="1" clip-path="url(#NXKZKLThFIMq)"/><path fill="rgb(20,255,0)" stroke="none" paint-order="stroke" d="M 871.8741455078125 77.81818389892578 L 874.6640195846558 77.81818389892578 L 874.6640195846558 130.45454788208008 L 871.8741455078125 130.45454788208008 L 871.8741455078125 77.81818389892578" fill-opacity="1" clip-path="url(#NXKZKLThFIMq)"/><path fill="rgb(44,255,0)" stroke="none" paint-order="stroke" d="M 874.6640014648438 77.81818389892578 L 876.8493814468384 77.81818389892578 L 876.8493814468384 130.45454788208008 L 874.6640014648438 130.45454788208008 L 874.6640014648438 77.81818389892578" fill-opacity="1" clip-path="url(#NXKZKLThFIMq)"/><path fill="rgb(49,255,0)" stroke="none" paint-order="stroke" d="M 876.8494262695312 77.81818389892578 L 877.2788342833519 77.81818389892578 L 877.2788342833519 130.45454788208008 L 876.8494262695312 130.45454788208008 L 876.8494262695312 77.81818389892578" fill-opacity="1" clip-path="url(#NXKZKLThFIMq)"/><path fill="rgb(53,255,0)" stroke="none" paint-order="stroke" d="M 877.27880859375 77.81818389892578 L 883.3109683990479 77.81818389892578 L 883.3109683990479 130.45454788208008 L 877.27880859375 130.45454788208008 L 877.27880859375 77.81818389892578" fill-opacity="1" clip-path="url(#NXKZKLThFIMq)"/><path fill="rgb(251,0,7)" stroke="none" paint-order="stroke" d="M 58.5 130.4545440673828 L 190.935302734375 130.4545440673828 L 190.935302734375 183.0909080505371 L 58.5 183.0909080505371 L 58.5 130.4545440673828" fill-opacity="1" clip-path="url(#gITQvUFEkFnK)"/><path fill="rgb(251,0,7)" stroke="none" paint-order="stroke" d="M 190.935302734375 130.4545440673828 L 196.78726482391357 130.4545440673828 L 196.78726482391357 183.0909080505371 L 190.935302734375 183.0909080505371 L 190.935302734375 130.4545440673828" fill-opacity="1" clip-path="url(#gITQvUFEkFnK)"/><path fill="rgb(251,0,7)" stroke="none" paint-order="stroke" d="M 196.78726196289062 130.4545440673828 L 456.7528991699219 130.4545440673828 L 456.7528991699219 183.0909080505371 L 196.78726196289062 183.0909080505371 L 196.78726196289062 130.4545440673828" fill-opacity="1" clip-path="url(#gITQvUFEkFnK)"/><path fill="rgb(255,255,10)" stroke="none" paint-order="stroke" d="M 456.7529296875 130.4545440673828 L 475.08328437805176 130.4545440673828 L 475.08328437805176 183.0909080505371 L 456.7529296875 183.0909080505371 L 456.7529296875 130.4545440673828" fill-opacity="1" clip-path="url(#gITQvUFEkFnK)"/><path fill="rgb(56,126,34)" stroke="none" paint-order="stroke" d="M 475.0832824707031 130.4545440673828 L 650.4312744140625 130.4545440673828 L 650.4312744140625 183.0909080505371 L 475.0832824707031 183.0909080505371 L 475.0832824707031 130.4545440673828" fill-opacity="1" clip-path="url(#gITQvUFEkFnK)"/><path fill="rgb(237,115,111)" stroke="none" paint-order="stroke" d="M 650.4312744140625 130.4545440673828 L 654.9055523872375 130.4545440673828 L 654.9055523872375 183.0909080505371 L 650.4312744140625 183.0909080505371 L 650.4312744140625 130.4545440673828" fill-opacity="1" clip-path="url(#gITQvUFEkFnK)"/><path fill="rgb(251,0,7)" stroke="none" paint-order="stroke" d="M 654.905517578125 130.4545440673828 L 849.4771881103516 130.4545440673828 L 849.4771881103516 183.0909080505371 L 654.905517578125 183.0909080505371 L 654.905517578125 130.4545440673828" fill-opacity="1" clip-path="url(#gITQvUFEkFnK)"/><path fill="rgb(56,126,34)" stroke="none" paint-order="stroke" d="M 849.4772338867188 130.4545440673828 L 883.3110046386719 130.4545440673828 L 883.3110046386719 183.0909080505371 L 849.4772338867188 183.0909080505371 L 849.4772338867188 130.4545440673828" fill-opacity="1" clip-path="url(#gITQvUFEkFnK)"/><path fill="rgb(105,29,48)" stroke="none" paint-order="stroke" d="M 158.03192138671875 183.09091186523438 L 158.09582138806581 183.09091186523438 L 158.09582138806581 498.9090881347656 L 158.03192138671875 498.9090881347656 L 158.03192138671875 183.09091186523438" fill-opacity="1" clip-path="url(#relgRzBKEOAv)"/><path fill="rgb(255,188,66)" stroke="none" paint-order="stroke" d="M 110.35612487792969 183.09091186523438 L 114.21185088157654 183.09091186523438 L 114.21185088157654 498.9090881347656 L 110.35612487792969 498.9090881347656 L 110.35612487792969 183.09091186523438" fill-opacity="1" clip-path="url(#IEQKvsbJTcmb)"/><path fill="rgb(255,188,66)" stroke="none" paint-order="stroke" d="M 851.65234375 183.09091186523438 L 855.1770677566528 183.09091186523438 L 855.1770677566528 498.9090881347656 L 851.65234375 498.9090881347656 L 851.65234375 183.09091186523438" fill-opacity="1" clip-path="url(#IEQKvsbJTcmb)"/><path fill="rgb(162,174,187)" stroke="none" paint-order="stroke" d="M 229.60630798339844 183.09091186523438 L 229.6702079847455 183.09091186523438 L 229.6702079847455 498.9090881347656 L 229.60630798339844 498.9090881347656 L 229.60630798339844 183.09091186523438" fill-opacity="1" clip-path="url(#OPUzpudnsMPd)"/><path fill="rgb(216,17,89)" stroke="none" paint-order="stroke" d="M 95.99652099609375 183.09091186523438 L 96.06042099744081 183.09091186523438 L 96.06042099744081 498.9090881347656 L 95.99652099609375 498.9090881347656 L 95.99652099609375 183.09091186523438" fill-opacity="1" clip-path="url(#RDXGwIGnkSCx)"/><path fill="rgb(33,131,128)" stroke="none" paint-order="stroke" d="M 143.92279052734375 183.09091186523438 L 148.10824060440063 183.09091186523438 L 148.10824060440063 498.9090881347656 L 143.92279052734375 498.9090881347656 L 143.92279052734375 183.09091186523438" fill-opacity="1" clip-path="url(#qIAzrogBlFCu)"/><path fill="rgb(33,131,128)" stroke="none" paint-order="stroke" d="M 188.12881469726562 183.09091186523438 L 190.935302734375 183.09091186523438 L 190.935302734375 498.9090881347656 L 188.12881469726562 498.9090881347656 L 188.12881469726562 183.09091186523438" fill-opacity="1" clip-path="url(#qIAzrogBlFCu)"/><path fill="rgb(33,131,128)" stroke="none" paint-order="stroke" d="M 192.45101928710938 183.09091186523438 L 196.78727340698242 183.09091186523438 L 196.78727340698242 498.9090881347656 L 192.45101928710938 498.9090881347656 L 192.45101928710938 183.09091186523438" fill-opacity="1" clip-path="url(#qIAzrogBlFCu)"/><path fill="rgb(33,131,128)" stroke="none" paint-order="stroke" d="M 454.4013977050781 183.09091186523438 L 456.75291776657104 183.09091186523438 L 456.75291776657104 498.9090881347656 L 454.4013977050781 498.9090881347656 L 454.4013977050781 183.09091186523438" fill-opacity="1" clip-path="url(#qIAzrogBlFCu)"/><path fill="rgb(33,131,128)" stroke="none" paint-order="stroke" d="M 458.75042724609375 183.09091186523438 L 460.7096012830734 183.09091186523438 L 460.7096012830734 498.9090881347656 L 458.75042724609375 498.9090881347656 L 458.75042724609375 183.09091186523438" fill-opacity="1" clip-path="url(#qIAzrogBlFCu)"/><path fill="rgb(33,131,128)" stroke="none" paint-order="stroke" d="M 473.0487060546875 183.09091186523438 L 475.08328199386597 183.09091186523438 L 475.08328199386597 498.9090881347656 L 473.0487060546875 498.9090881347656 L 473.0487060546875 183.09091186523438" fill-opacity="1" clip-path="url(#qIAzrogBlFCu)"/><path fill="rgb(33,131,128)" stroke="none" paint-order="stroke" d="M 648.5640869140625 183.09091186523438 L 650.431244969368 183.09091186523438 L 650.431244969368 498.9090881347656 L 648.5640869140625 498.9090881347656 L 648.5640869140625 183.09091186523438" fill-opacity="1" clip-path="url(#qIAzrogBlFCu)"/><path fill="rgb(33,131,128)" stroke="none" paint-order="stroke" d="M 652.7444458007812 183.09091186523438 L 654.9055438041687 183.09091186523438 L 654.9055438041687 498.9090881347656 L 652.7444458007812 498.9090881347656 L 652.7444458007812 183.09091186523438" fill-opacity="1" clip-path="url(#qIAzrogBlFCu)"/><path fill="rgb(33,131,128)" stroke="none" paint-order="stroke" d="M 847.6943969726562 183.09091186523438 L 849.4772069454193 183.09091186523438 L 849.4772069454193 498.9090881347656 L 847.6943969726562 498.9090881347656 L 847.6943969726562 183.09091186523438" fill-opacity="1" clip-path="url(#qIAzrogBlFCu)"/><path fill="rgb(115,210,222)" stroke="none" paint-order="stroke" d="M 148.10696411132812 183.09091186523438 L 156.25038051605225 183.09091186523438 L 156.25038051605225 498.9090881347656 L 148.10696411132812 498.9090881347656 L 148.10696411132812 183.09091186523438" fill-opacity="1" clip-path="url(#RBCXUgOTkBDE)"/><path fill="rgb(115,210,222)" stroke="none" paint-order="stroke" d="M 160.2288055419922 183.09091186523438 L 168.20735931396484 183.09091186523438 L 168.20735931396484 498.9090881347656 L 160.2288055419922 498.9090881347656 L 160.2288055419922 183.09091186523438" fill-opacity="1" clip-path="url(#RBCXUgOTkBDE)"/><path fill="rgb(115,210,222)" stroke="none" paint-order="stroke" d="M 171.31417846679688 183.09091186523438 L 171.37807846814394 183.09091186523438 L 171.37807846814394 498.9090881347656 L 171.31417846679688 498.9090881347656 L 171.31417846679688 183.09091186523438" fill-opacity="1" clip-path="url(#RBCXUgOTkBDE)"/><path fill="rgb(115,210,222)" stroke="none" paint-order="stroke" d="M 171.31417846679688 183.09091186523438 L 171.37807846814394 183.09091186523438 L 171.37807846814394 498.9090881347656 L 171.31417846679688 498.9090881347656 L 171.31417846679688 183.09091186523438" fill-opacity="1" clip-path="url(#RBCXUgOTkBDE)"/><path fill="rgb(115,210,222)" stroke="none" paint-order="stroke" d="M 172.20111083984375 183.09091186523438 L 172.26501084119081 183.09091186523438 L 172.26501084119081 498.9090881347656 L 172.20111083984375 498.9090881347656 L 172.20111083984375 183.09091186523438" fill-opacity="1" clip-path="url(#RBCXUgOTkBDE)"/><path fill="rgb(115,210,222)" stroke="none" paint-order="stroke" d="M 172.20111083984375 183.09091186523438 L 172.26501084119081 183.09091186523438 L 172.26501084119081 498.9090881347656 L 172.20111083984375 498.9090881347656 L 172.20111083984375 183.09091186523438" fill-opacity="1" clip-path="url(#RBCXUgOTkBDE)"/><path fill="rgb(115,210,222)" stroke="none" paint-order="stroke" d="M 172.50143432617188 183.09091186523438 L 172.56533432751894 183.09091186523438 L 172.56533432751894 498.9090881347656 L 172.50143432617188 498.9090881347656 L 172.50143432617188 183.09091186523438" fill-opacity="1" clip-path="url(#RBCXUgOTkBDE)"/><path fill="rgb(115,210,222)" stroke="none" paint-order="stroke" d="M 172.50143432617188 183.09091186523438 L 172.56533432751894 183.09091186523438 L 172.56533432751894 498.9090881347656 L 172.50143432617188 498.9090881347656 L 172.50143432617188 183.09091186523438" fill-opacity="1" clip-path="url(#RBCXUgOTkBDE)"/><path fill="rgb(115,210,222)" stroke="none" paint-order="stroke" d="M 172.95895385742188 183.09091186523438 L 173.02285385876894 183.09091186523438 L 173.02285385876894 498.9090881347656 L 172.95895385742188 498.9090881347656 L 172.95895385742188 183.09091186523438" fill-opacity="1" clip-path="url(#RBCXUgOTkBDE)"/><path fill="rgb(115,210,222)" stroke="none" paint-order="stroke" d="M 172.95895385742188 183.09091186523438 L 173.02285385876894 183.09091186523438 L 173.02285385876894 498.9090881347656 L 172.95895385742188 498.9090881347656 L 172.95895385742188 183.09091186523438" fill-opacity="1" clip-path="url(#RBCXUgOTkBDE)"/><path fill="rgb(115,210,222)" stroke="none" paint-order="stroke" d="M 173.868896484375 183.09091186523438 L 173.93279648572206 183.09091186523438 L 173.93279648572206 498.9090881347656 L 173.868896484375 498.9090881347656 L 173.868896484375 183.09091186523438" fill-opacity="1" clip-path="url(#RBCXUgOTkBDE)"/><path fill="rgb(115,210,222)" stroke="none" paint-order="stroke" d="M 173.868896484375 183.09091186523438 L 173.93279648572206 183.09091186523438 L 173.93279648572206 498.9090881347656 L 173.868896484375 498.9090881347656 L 173.868896484375 183.09091186523438" fill-opacity="1" clip-path="url(#RBCXUgOTkBDE)"/><path fill="rgb(115,210,222)" stroke="none" paint-order="stroke" d="M 345.2282409667969 183.09091186523438 L 372.76147270202637 183.09091186523438 L 372.76147270202637 498.9090881347656 L 345.2282409667969 498.9090881347656 L 345.2282409667969 183.09091186523438" fill-opacity="1" clip-path="url(#RBCXUgOTkBDE)"/><path fill="rgb(115,210,222)" stroke="none" paint-order="stroke" d="M 384.4743347167969 183.09091186523438 L 396.1437530517578 183.09091186523438 L 396.1437530517578 498.9090881347656 L 384.4743347167969 498.9090881347656 L 384.4743347167969 183.09091186523438" fill-opacity="1" clip-path="url(#RBCXUgOTkBDE)"/><path fill="rgb(115,210,222)" stroke="none" paint-order="stroke" d="M 409.3467712402344 183.09091186523438 L 413.91817712783813 183.09091186523438 L 413.91817712783813 498.9090881347656 L 409.3467712402344 498.9090881347656 L 409.3467712402344 183.09091186523438" fill-opacity="1" clip-path="url(#RBCXUgOTkBDE)"/><path fill="rgb(115,210,222)" stroke="none" paint-order="stroke" d="M 512.5810546875 183.09091186523438 L 518.6464428901672 183.09091186523438 L 518.6464428901672 498.9090881347656 L 512.5810546875 498.9090881347656 L 512.5810546875 183.09091186523438" fill-opacity="1" clip-path="url(#RBCXUgOTkBDE)"/><path fill="rgb(115,210,222)" stroke="none" paint-order="stroke" d="M 520.307861328125 183.09091186523438 L 521.2037393450737 183.09091186523438 L 521.2037393450737 498.9090881347656 L 520.307861328125 498.9090881347656 L 520.307861328125 183.09091186523438" fill-opacity="1" clip-path="url(#RBCXUgOTkBDE)"/><path fill="rgb(115,210,222)" stroke="none" paint-order="stroke" d="M 560.6032104492188 183.09091186523438 L 567.481406211853 183.09091186523438 L 567.481406211853 498.9090881347656 L 560.6032104492188 498.9090881347656 L 560.6032104492188 183.09091186523438" fill-opacity="1" clip-path="url(#RBCXUgOTkBDE)"/><path fill="rgb(115,210,222)" stroke="none" paint-order="stroke" d="M 630.5213012695312 183.09091186523438 L 631.5577592849731 183.09091186523438 L 631.5577592849731 498.9090881347656 L 630.5213012695312 498.9090881347656 L 630.5213012695312 183.09091186523438" fill-opacity="1" clip-path="url(#RBCXUgOTkBDE)"/><path fill="rgb(115,210,222)" stroke="none" paint-order="stroke" d="M 664.4176635742188 183.09091186523438 L 665.4004455804825 183.09091186523438 L 665.4004455804825 498.9090881347656 L 664.4176635742188 498.9090881347656 L 664.4176635742188 183.09091186523438" fill-opacity="1" clip-path="url(#RBCXUgOTkBDE)"/><path fill="rgb(115,210,222)" stroke="none" paint-order="stroke" d="M 865.3627319335938 183.09091186523438 L 868.0490880012512 183.09091186523438 L 868.0490880012512 498.9090881347656 L 865.3627319335938 498.9090881347656 L 865.3627319335938 183.09091186523438" fill-opacity="1" clip-path="url(#RBCXUgOTkBDE)"/><path fill="rgb(28,49,68)" stroke="none" paint-order="stroke" d="M 211.59034729003906 183.09091186523438 L 226.05219554901123 183.09091186523438 L 226.05219554901123 498.9090881347656 L 211.59034729003906 498.9090881347656 L 211.59034729003906 183.09091186523438" fill-opacity="1" clip-path="url(#LJcaBzkrHHHR)"/><path fill="rgb(28,49,68)" stroke="none" paint-order="stroke" d="M 232.18658447265625 183.09091186523438 L 243.0955924987793 183.09091186523438 L 243.0955924987793 498.9090881347656 L 232.18658447265625 498.9090881347656 L 232.18658447265625 183.09091186523438" fill-opacity="1" clip-path="url(#LJcaBzkrHHHR)"/><path fill="rgb(28,49,68)" stroke="none" paint-order="stroke" d="M 299.2023620605469 183.09091186523438 L 300.8548160791397 183.09091186523438 L 300.8548160791397 498.9090881347656 L 299.2023620605469 498.9090881347656 L 299.2023620605469 183.09091186523438" fill-opacity="1" clip-path="url(#LJcaBzkrHHHR)"/><path fill="rgb(28,49,68)" stroke="none" paint-order="stroke" d="M 399.4691162109375 183.09091186523438 L 403.14720010757446 183.09091186523438 L 403.14720010757446 498.9090881347656 L 399.4691162109375 498.9090881347656 L 399.4691162109375 183.09091186523438" fill-opacity="1" clip-path="url(#LJcaBzkrHHHR)"/><path fill="rgb(28,49,68)" stroke="none" paint-order="stroke" d="M 497.9300842285156 183.09091186523438 L 500.19470024108887 183.09091186523438 L 500.19470024108887 498.9090881347656 L 497.9300842285156 498.9090881347656 L 497.9300842285156 183.09091186523438" fill-opacity="1" clip-path="url(#LJcaBzkrHHHR)"/><path fill="rgb(28,49,68)" stroke="none" paint-order="stroke" d="M 523.1002807617188 183.09091186523438 L 535.1633224487305 183.09091186523438 L 535.1633224487305 498.9090881347656 L 523.1002807617188 498.9090881347656 L 523.1002807617188 183.09091186523438" fill-opacity="1" clip-path="url(#LJcaBzkrHHHR)"/><path fill="rgb(28,49,68)" stroke="none" paint-order="stroke" d="M 572.2815551757812 183.09091186523438 L 575.467609167099 183.09091186523438 L 575.467609167099 498.9090881347656 L 572.2815551757812 498.9090881347656 L 572.2815551757812 183.09091186523438" fill-opacity="1" clip-path="url(#LJcaBzkrHHHR)"/><path fill="rgb(28,49,68)" stroke="none" paint-order="stroke" d="M 627.7646484375 183.09091186523438 L 628.788326382637 183.09091186523438 L 628.788326382637 498.9090881347656 L 627.7646484375 498.9090881347656 L 627.7646484375 183.09091186523438" fill-opacity="1" clip-path="url(#LJcaBzkrHHHR)"/><path fill="rgb(28,49,68)" stroke="none" paint-order="stroke" d="M 671.1770629882812 183.09091186523438 L 681.9876651763916 183.09091186523438 L 681.9876651763916 498.9090881347656 L 671.1770629882812 498.9090881347656 L 671.1770629882812 183.09091186523438" fill-opacity="1" clip-path="url(#LJcaBzkrHHHR)"/><path fill="rgb(28,49,68)" stroke="none" paint-order="stroke" d="M 683.9110107421875 183.09091186523438 L 694.7727327346802 183.09091186523438 L 694.7727327346802 498.9090881347656 L 683.9110107421875 498.9090881347656 L 683.9110107421875 183.09091186523438" fill-opacity="1" clip-path="url(#LJcaBzkrHHHR)"/><path fill="rgb(28,49,68)" stroke="none" paint-order="stroke" d="M 711.5401000976562 183.09091186523438 L 717.293655872345 183.09091186523438 L 717.293655872345 498.9090881347656 L 711.5401000976562 498.9090881347656 L 711.5401000976562 183.09091186523438" fill-opacity="1" clip-path="url(#LJcaBzkrHHHR)"/><path fill="rgb(28,49,68)" stroke="none" paint-order="stroke" d="M 731.7120361328125 183.09091186523438 L 733.1395621299744 183.09091186523438 L 733.1395621299744 498.9090881347656 L 731.7120361328125 498.9090881347656 L 731.7120361328125 183.09091186523438" fill-opacity="1" clip-path="url(#LJcaBzkrHHHR)"/><path fill="rgb(28,49,68)" stroke="none" paint-order="stroke" d="M 856.3924560546875 183.09091186523438 L 859.8174960613251 183.09091186523438 L 859.8174960613251 498.9090881347656 L 856.3924560546875 498.9090881347656 L 856.3924560546875 183.09091186523438" fill-opacity="1" clip-path="url(#LJcaBzkrHHHR)"/><path fill="rgb(28,49,68)" stroke="none" paint-order="stroke" d="M 860.8181762695312 183.09091186523438 L 862.5115262269974 183.09091186523438 L 862.5115262269974 498.9090881347656 L 860.8181762695312 498.9090881347656 L 860.8181762695312 183.09091186523438" fill-opacity="1" clip-path="url(#LJcaBzkrHHHR)"/><path fill="rgb(28,49,68)" stroke="none" paint-order="stroke" d="M 881.9320068359375 183.09091186523438 L 883.310968875885 183.09091186523438 L 883.310968875885 498.9090881347656 L 881.9320068359375 498.9090881347656 L 881.9320068359375 183.09091186523438" fill-opacity="1" clip-path="url(#LJcaBzkrHHHR)"/><path fill="rgb(239,185,203)" stroke="none" paint-order="stroke" d="M 82.02030944824219 183.09091186523438 L 93.40984535217285 183.09091186523438 L 93.40984535217285 498.9090881347656 L 82.02030944824219 498.9090881347656 L 82.02030944824219 183.09091186523438" fill-opacity="1" clip-path="url(#BbJeOeIcZHMR)"/><path fill="rgb(239,185,203)" stroke="none" paint-order="stroke" d="M 119.76220703125 183.09091186523438 L 141.43325233459473 183.09091186523438 L 141.43325233459473 498.9090881347656 L 119.76220703125 498.9090881347656 L 119.76220703125 183.09091186523438" fill-opacity="1" clip-path="url(#BbJeOeIcZHMR)"/><path fill="rgb(239,185,203)" stroke="none" paint-order="stroke" d="M 180.59500122070312 183.09091186523438 L 185.6124291419983 183.09091186523438 L 185.6124291419983 498.9090881347656 L 180.59500122070312 498.9090881347656 L 180.59500122070312 183.09091186523438" fill-opacity="1" clip-path="url(#BbJeOeIcZHMR)"/><path fill="rgb(239,185,203)" stroke="none" paint-order="stroke" d="M 245.89569091796875 183.09091186523438 L 293.239200592041 183.09091186523438 L 293.239200592041 498.9090881347656 L 245.89569091796875 498.9090881347656 L 245.89569091796875 183.09091186523438" fill-opacity="1" clip-path="url(#BbJeOeIcZHMR)"/><path fill="rgb(239,185,203)" stroke="none" paint-order="stroke" d="M 316.5179748535156 183.09091186523438 L 340.38590240478516 183.09091186523438 L 340.38590240478516 498.9090881347656 L 316.5179748535156 498.9090881347656 L 316.5179748535156 183.09091186523438" fill-opacity="1" clip-path="url(#BbJeOeIcZHMR)"/><path fill="rgb(239,185,203)" stroke="none" paint-order="stroke" d="M 428.6087951660156 183.09091186523438 L 452.1163272857666 183.09091186523438 L 452.1163272857666 498.9090881347656 L 428.6087951660156 498.9090881347656 L 428.6087951660156 183.09091186523438" fill-opacity="1" clip-path="url(#BbJeOeIcZHMR)"/><path fill="rgb(239,185,203)" stroke="none" paint-order="stroke" d="M 463.2898864746094 183.09091186523438 L 470.80708265304565 183.09091186523438 L 470.80708265304565 498.9090881347656 L 463.2898864746094 498.9090881347656 L 463.2898864746094 183.09091186523438" fill-opacity="1" clip-path="url(#BbJeOeIcZHMR)"/><path fill="rgb(239,185,203)" stroke="none" paint-order="stroke" d="M 483.87078857421875 183.09091186523438 L 489.2588367462158 183.09091186523438 L 489.2588367462158 498.9090881347656 L 483.87078857421875 498.9090881347656 L 483.87078857421875 183.09091186523438" fill-opacity="1" clip-path="url(#BbJeOeIcZHMR)"/><path fill="rgb(239,185,203)" stroke="none" paint-order="stroke" d="M 504.5194396972656 183.09091186523438 L 510.0276198387146 183.09091186523438 L 510.0276198387146 498.9090881347656 L 504.5194396972656 498.9090881347656 L 504.5194396972656 183.09091186523438" fill-opacity="1" clip-path="url(#BbJeOeIcZHMR)"/><path fill="rgb(239,185,203)" stroke="none" paint-order="stroke" d="M 538.31103515625 183.09091186523438 L 542.5386590957642 183.09091186523438 L 542.5386590957642 498.9090881347656 L 538.31103515625 498.9090881347656 L 538.31103515625 183.09091186523438" fill-opacity="1" clip-path="url(#BbJeOeIcZHMR)"/><path fill="rgb(239,185,203)" stroke="none" paint-order="stroke" d="M 579.1763916015625 183.09091186523438 L 582.1068456172943 183.09091186523438 L 582.1068456172943 498.9090881347656 L 579.1763916015625 498.9090881347656 L 579.1763916015625 183.09091186523438" fill-opacity="1" clip-path="url(#BbJeOeIcZHMR)"/><path fill="rgb(239,185,203)" stroke="none" paint-order="stroke" d="M 609.1224365234375 183.09091186523438 L 624.0980405807495 183.09091186523438 L 624.0980405807495 498.9090881347656 L 609.1224365234375 498.9090881347656 L 609.1224365234375 183.09091186523438" fill-opacity="1" clip-path="url(#BbJeOeIcZHMR)"/><path fill="rgb(239,185,203)" stroke="none" paint-order="stroke" d="M 634.6683959960938 183.09091186523438 L 646.5052318572998 183.09091186523438 L 646.5052318572998 498.9090881347656 L 634.6683959960938 498.9090881347656 L 634.6683959960938 183.09091186523438" fill-opacity="1" clip-path="url(#BbJeOeIcZHMR)"/><path fill="rgb(239,185,203)" stroke="none" paint-order="stroke" d="M 658.4366455078125 183.09091186523438 L 662.2795915603638 183.09091186523438 L 662.2795915603638 498.9090881347656 L 658.4366455078125 498.9090881347656 L 658.4366455078125 183.09091186523438" fill-opacity="1" clip-path="url(#BbJeOeIcZHMR)"/><path fill="rgb(239,185,203)" stroke="none" paint-order="stroke" d="M 735.1256103515625 183.09091186523438 L 845.8873138427734 183.09091186523438 L 845.8873138427734 498.9090881347656 L 735.1256103515625 498.9090881347656 L 735.1256103515625 183.09091186523438" fill-opacity="1" clip-path="url(#BbJeOeIcZHMR)"/><path fill="rgb(105,29,48)" stroke="none" paint-order="stroke" d="M 97.6016845703125 183.09091186523438 L 105.59046268463135 183.09091186523438 L 105.59046268463135 498.9090881347656 L 97.6016845703125 498.9090881347656 L 97.6016845703125 183.09091186523438" fill-opacity="1" clip-path="url(#rwxiRbESxOHM)"/><path fill="rgb(105,29,48)" stroke="none" paint-order="stroke" d="M 202.0832977294922 183.09091186523438 L 203.30889976024628 183.09091186523438 L 203.30889976024628 498.9090881347656 L 202.0832977294922 498.9090881347656 L 202.0832977294922 183.09091186523438" fill-opacity="1" clip-path="url(#rwxiRbESxOHM)"/><path fill="rgb(105,29,48)" stroke="none" paint-order="stroke" d="M 491.2806396484375 183.09091186523438 L 493.08773159980774 183.09091186523438 L 493.08773159980774 498.9090881347656 L 491.2806396484375 498.9090881347656 L 491.2806396484375 183.09091186523438" fill-opacity="1" clip-path="url(#rwxiRbESxOHM)"/><path fill="rgb(105,29,48)" stroke="none" paint-order="stroke" d="M 870.1871948242188 183.09091186523438 L 875.5969686508179 183.09091186523438 L 875.5969686508179 498.9090881347656 L 870.1871948242188 498.9090881347656 L 870.1871948242188 183.09091186523438" fill-opacity="1" clip-path="url(#rwxiRbESxOHM)"/><path fill="rgb(255,188,66)" stroke="none" paint-order="stroke" d="M 112.61180114746094 498.9090881347656 L 851.9462738037109 498.9090881347656 L 851.9462738037109 551.5454521179199 L 112.61180114746094 551.5454521179199 L 112.61180114746094 498.9090881347656" fill-opacity="1" clip-path="url(#OigOeaQsOZlb)"/><path fill="rgb(255,188,66)" stroke="none" paint-order="stroke" d="M 852.7271728515625 498.9090881347656 L 883.3109912872314 498.9090881347656 L 883.3109912872314 551.5454521179199 L 852.7271728515625 551.5454521179199 L 852.7271728515625 498.9090881347656" fill-opacity="1" clip-path="url(#OigOeaQsOZlb)"/><path fill="rgb(143,45,86)" stroke="none" paint-order="stroke" d="M 58.5 551.5454711914062 L 158.03192138671875 551.5454711914062 L 158.03192138671875 604.1818351745605 L 58.5 604.1818351745605 L 58.5 551.5454711914062" fill-opacity="1" clip-path="url(#FQpiiaPVxnAA)"/><path fill="rgb(63,136,197)" stroke="none" paint-order="stroke" d="M 158.03192138671875 551.5454711914062 L 229.60630798339844 551.5454711914062 L 229.60630798339844 604.1818351745605 L 158.03192138671875 604.1818351745605 L 158.03192138671875 551.5454711914062" fill-opacity="1" clip-path="url(#FQpiiaPVxnAA)"/><path fill="rgb(81,60,99)" stroke="none" paint-order="stroke" d="M 229.60630798339844 551.5454711914062 L 883.3109588623047 551.5454711914062 L 883.3109588623047 604.1818351745605 L 229.60630798339844 604.1818351745605 L 229.60630798339844 551.5454711914062" fill-opacity="1" clip-path="url(#FQpiiaPVxnAA)"/><path fill="none" stroke="rgb(0,0,0)" paint-order="fill" d="M 58.5 77.81818389892578 L 883.3109741210938 77.81818389892578 L 883.3109741210938 604.1818313598633 L 58.5 604.1818313598633 L 58.5 77.81818389892578" stroke-opacity="1" stroke-linejoin="bevel" stroke-miterlimit="10" stroke-dasharray="" clip-path="url(#bLUZabOCAawf)"/><path fill="none" stroke="rgb(0,0,0)" paint-order="fill" d="M 58.5 630.5 L 1336.5 630.5" stroke-opacity="1" stroke-linejoin="bevel" stroke-miterlimit="10" stroke-dasharray=""/><path fill="none" stroke="rgb(0,0,0)" paint-order="fill" d="M 58.5 636.5 L 58.5 628.5 M 314.5 636.5 L 314.5 628.5 M 569.5 636.5 L 569.5 628.5 M 825.5 636.5 L 825.5 628.5 M 1080.5 636.5 L 1080.5 628.5 M 1336.5 636.5 L 1336.5 628.5" stroke-opacity="1" stroke-linejoin="bevel" stroke-miterlimit="10" stroke-dasharray=""/><path fill="none" stroke="rgb(0,0,0)" paint-order="fill" d="M 58.5 634.5 L 58.5 630.5 M 109.5 634.5 L 109.5 630.5 M 160.5 634.5 L 160.5 630.5 M 211.5 634.5 L 211.5 630.5 M 262.5 634.5 L 262.5 630.5 M 314.5 634.5 L 314.5 630.5 M 365.5 634.5 L 365.5 630.5 M 416.5 634.5 L 416.5 630.5 M 467.5 634.5 L 467.5 630.5 M 518.5 634.5 L 518.5 630.5 M 569.5 634.5 L 569.5 630.5 M 620.5 634.5 L 620.5 630.5 M 671.5 634.5 L 671.5 630.5 M 723.5 634.5 L 723.5 630.5 M 774.5 634.5 L 774.5 630.5 M 825.5 634.5 L 825.5 630.5 M 876.5 634.5 L 876.5 630.5 M 927.5 634.5 L 927.5 630.5 M 978.5 634.5 L 978.5 630.5 M 1029.5 634.5 L 1029.5 630.5 M 1080.5 634.5 L 1080.5 630.5 M 1132.5 634.5 L 1132.5 630.5 M 1183.5 634.5 L 1183.5 630.5 M 1234.5 634.5 L 1234.5 630.5 M 1285.5 634.5 L 1285.5 630.5 M 1336.5 634.5 L 1336.5 630.5" stroke-opacity="1" stroke-linejoin="bevel" stroke-miterlimit="10" stroke-dasharray=""/><text fill="rgb(68,68,68)" stroke="none" font-family="helvetica" font-size="11px" font-style="normal" font-weight="normal" text-decoration="normal" x="54.94166660308838" y="648.89013671875" text-anchor="start" dominant-baseline="alphabetic" transform="matrix(1, 0, 0, 1, 0.5, 0.5)" fill-opacity="1">0</text><text fill="rgb(68,68,68)" stroke="none" font-family="helvetica" font-size="11px" font-style="normal" font-weight="normal" text-decoration="normal" x="304.42500591278076" y="648.89013671875" text-anchor="start" dominant-baseline="alphabetic" transform="matrix(1, 0, 0, 1, 0.5, 0.5)" fill-opacity="1">200</text><text fill="rgb(68,68,68)" stroke="none" font-family="helvetica" font-size="11px" font-style="normal" font-weight="normal" text-decoration="normal" x="560.0250120162964" y="648.89013671875" text-anchor="start" dominant-baseline="alphabetic" transform="matrix(1, 0, 0, 1, 0.5, 0.5)" fill-opacity="1">400</text><text fill="rgb(68,68,68)" stroke="none" font-family="helvetica" font-size="11px" font-style="normal" font-weight="normal" text-decoration="normal" x="815.6249876022339" y="648.89013671875" text-anchor="start" dominant-baseline="alphabetic" transform="matrix(1, 0, 0, 1, 0.5, 0.5)" fill-opacity="1">600</text><text fill="rgb(68,68,68)" stroke="none" font-family="helvetica" font-size="11px" font-style="normal" font-weight="normal" text-decoration="normal" x="1071.2250242233276" y="648.89013671875" text-anchor="start" dominant-baseline="alphabetic" transform="matrix(1, 0, 0, 1, 0.5, 0.5)" fill-opacity="1">800</text><text fill="rgb(68,68,68)" stroke="none" font-family="helvetica" font-size="11px" font-style="normal" font-weight="normal" text-decoration="normal" x="1323.7666664123535" y="648.89013671875" text-anchor="start" dominant-baseline="alphabetic" transform="matrix(1, 0, 0, 1, 0.5, 0.5)" fill-opacity="1">1000</text><text fill="rgb(68,68,68)" stroke="none" font-family="helvetica" font-size="15pt" font-style="italic" font-weight="normal" text-decoration="normal" x="666.4416675567627" y="676.06982421875" text-anchor="start" dominant-baseline="alphabetic" transform="matrix(1, 0, 0, 1, 0.5, 0.5)" fill-opacity="1">time(s)</text><path fill="none" stroke="rgb(0,0,0)" paint-order="fill" d="M 58.5 630.5 L 58.5 51.5" stroke-opacity="1" stroke-linejoin="bevel" stroke-miterlimit="10" stroke-dasharray=""/><path fill="none" stroke="rgb(0,0,0)" paint-order="fill" d="M 52.5 551.5 L 60.5 551.5 M 52.5 446.5 L 60.5 446.5 M 52.5 341.5 L 60.5 341.5 M 52.5 235.5 L 60.5 235.5 M 52.5 130.5 L 60.5 130.5" stroke-opacity="1" stroke-linejoin="bevel" stroke-miterlimit="10" stroke-dasharray=""/><path fill="none" stroke="rgb(0,0,0)" paint-order="fill" d="M 54.5 572.5 L 58.5 572.5 M 54.5 593.5 L 58.5 593.5 M 54.5 614.5 L 58.5 614.5 M 54.5 551.5 L 58.5 551.5 M 54.5 530.5 L 58.5 530.5 M 54.5 509.5 L 58.5 509.5 M 54.5 488.5 L 58.5 488.5 M 54.5 467.5 L 58.5 467.5 M 54.5 446.5 L 58.5 446.5 M 54.5 425.5 L 58.5 425.5 M 54.5 404.5 L 58.5 404.5 M 54.5 383.5 L 58.5 383.5 M 54.5 362.5 L 58.5 362.5 M 54.5 341.5 L 58.5 341.5 M 54.5 319.5 L 58.5 319.5 M 54.5 298.5 L 58.5 298.5 M 54.5 277.5 L 58.5 277.5 M 54.5 256.5 L 58.5 256.5 M 54.5 235.5 L 58.5 235.5 M 54.5 214.5 L 58.5 214.5 M 54.5 193.5 L 58.5 193.5 M 54.5 172.5 L 58.5 172.5 M 54.5 151.5 L 58.5 151.5 M 54.5 130.5 L 58.5 130.5 M 54.5 109.5 L 58.5 109.5 M 54.5 88.5 L 58.5 88.5 M 54.5 67.5 L 58.5 67.5" stroke-opacity="1" stroke-linejoin="bevel" stroke-miterlimit="10" stroke-dasharray=""/><text fill="rgb(68,68,68)" stroke="none" font-family="helvetica" font-size="11px" font-style="normal" font-weight="normal" text-decoration="normal" x="34.46666622161865" y="554.9905395507812" text-anchor="start" dominant-baseline="alphabetic" transform="matrix(1, 0, 0, 1, 0.5, 0.5)" fill-opacity="1">2</text><text fill="rgb(68,68,68)" stroke="none" font-family="helvetica" font-size="11px" font-style="normal" font-weight="normal" text-decoration="normal" x="34.46666622161865" y="449.7178039550781" text-anchor="start" dominant-baseline="alphabetic" transform="matrix(1, 0, 0, 1, 0.5, 0.5)" fill-opacity="1">1</text><text fill="rgb(68,68,68)" stroke="none" font-family="helvetica" font-size="11px" font-style="normal" font-weight="normal" text-decoration="normal" x="40.88333320617676" y="344.445068359375" text-anchor="start" dominant-baseline="alphabetic" transform="matrix(1, 0, 0, 1, 0.5, 0.5)" fill-opacity="1">0</text><text fill="rgb(68,68,68)" stroke="none" font-family="helvetica" font-size="11px" font-style="normal" font-weight="normal" text-decoration="normal" x="40.88333320617676" y="239.17234802246094" text-anchor="start" dominant-baseline="alphabetic" transform="matrix(1, 0, 0, 1, 0.5, 0.5)" fill-opacity="1">1</text><text fill="rgb(68,68,68)" stroke="none" font-family="helvetica" font-size="11px" font-style="normal" font-weight="normal" text-decoration="normal" x="40.88333320617676" y="133.8996124267578" text-anchor="start" dominant-baseline="alphabetic" transform="matrix(1, 0, 0, 1, 0.5, 0.5)" fill-opacity="1">2</text><text fill="rgb(68,68,68)" stroke="none" font-family="helvetica" font-size="15pt" font-style="italic" font-weight="normal" text-decoration="normal" x="-11.316666603088379" y="336.076171875" text-anchor="start" dominant-baseline="alphabetic" transform="matrix(6.123233995736766e-17, -1, 1, 6.123233995736766e-17, -313.53333377838135, 367.46666622161865)" fill-opacity="1">students</text><path fill="rgb(255,255,255)" stroke="rgb(229,229,229)" paint-order="fill" d="M 1128.2333374023438 61.5 L 1326.5 61.5 L 1326.5 400.5 L 1128.2333374023438 400.5 L 1128.2333374023438 61.5" fill-opacity="0.9490196078431372" clip-path="url(#GqTTXFNbUuEQ)" stroke-opacity="0.5019607843137255" stroke-linejoin="bevel" stroke-miterlimit="10" stroke-dasharray=""/><text fill="rgb(68,68,68)" stroke="none" font-family="helvetica" font-size="13px" font-style="normal" font-weight="normal" text-decoration="normal" x="1162.7333374023438" y="81" text-anchor="start" dominant-baseline="central" clip-path="url(#GqTTXFNbUuEQ)" transform="matrix(1, 0, 0, 1, 0.5, 0.5)" fill-opacity="1">wavelength</text><path fill="rgb(0,255,40)" stroke="none" paint-order="stroke" d="M 1140.2333374023438 73.5 L 1156.2333374023438 73.5 L 1156.2333374023438 89.5 L 1140.2333374023438 89.5 L 1140.2333374023438 73.5" fill-opacity="1" clip-path="url(#GqTTXFNbUuEQ)"/><path fill="rgb(216,17,89)" stroke="none" paint-order="stroke" d="M 1140.2333374023438 73.5 L 1156.2333374023438 73.5 L 1156.2333374023438 89.5 L 1140.2333374023438 89.5 L 1140.2333374023438 73.5" fill-opacity="1" clip-path="url(#GqTTXFNbUuEQ)"/><text fill="rgb(68,68,68)" stroke="none" font-family="helvetica" font-size="13px" font-style="normal" font-weight="normal" text-decoration="normal" x="1162.7333374023438" y="104" text-anchor="start" dominant-baseline="central" clip-path="url(#GqTTXFNbUuEQ)" transform="matrix(1, 0, 0, 1, 0.5, 0.5)" fill-opacity="1">solution</text><path fill="rgb(251,0,7)" stroke="none" paint-order="stroke" d="M 1140.2333374023438 96.5 L 1156.2333374023438 96.5 L 1156.2333374023438 112.5 L 1140.2333374023438 112.5 L 1140.2333374023438 96.5" fill-opacity="1" clip-path="url(#GqTTXFNbUuEQ)"/><path fill="rgb(33,131,128)" stroke="none" paint-order="stroke" d="M 1140.2333374023438 96.5 L 1156.2333374023438 96.5 L 1156.2333374023438 112.5 L 1140.2333374023438 112.5 L 1140.2333374023438 96.5" fill-opacity="1" clip-path="url(#GqTTXFNbUuEQ)"/><text fill="rgb(68,68,68)" stroke="none" font-family="helvetica" font-size="13px" font-style="normal" font-weight="normal" text-decoration="normal" x="1162.7333374023438" y="127" text-anchor="start" dominant-baseline="central" clip-path="url(#GqTTXFNbUuEQ)" transform="matrix(1, 0, 0, 1, 0.5, 0.5)" fill-opacity="1">laser</text><path fill="rgb(105,29,48)" stroke="none" paint-order="stroke" d="M 1140.2333374023438 119.5 L 1156.2333374023438 119.5 L 1156.2333374023438 135.5 L 1140.2333374023438 135.5 L 1140.2333374023438 119.5" fill-opacity="1" clip-path="url(#GqTTXFNbUuEQ)"/><text fill="rgb(68,68,68)" stroke="none" font-family="helvetica" font-size="13px" font-style="normal" font-weight="normal" text-decoration="normal" x="1162.7333374023438" y="150" text-anchor="start" dominant-baseline="central" clip-path="url(#GqTTXFNbUuEQ)" transform="matrix(1, 0, 0, 1, 0.5, 0.5)" fill-opacity="1">ruler</text><path fill="rgb(255,188,66)" stroke="none" paint-order="stroke" d="M 1140.2333374023438 142.5 L 1156.2333374023438 142.5 L 1156.2333374023438 158.5 L 1140.2333374023438 158.5 L 1140.2333374023438 142.5" fill-opacity="1" clip-path="url(#GqTTXFNbUuEQ)"/><text fill="rgb(68,68,68)" stroke="none" font-family="helvetica" font-size="13px" font-style="normal" font-weight="normal" text-decoration="normal" x="1162.7333374023438" y="173" text-anchor="start" dominant-baseline="central" clip-path="url(#GqTTXFNbUuEQ)" transform="matrix(1, 0, 0, 1, 0.5, 0.5)" fill-opacity="1">restarts</text><text fill="rgb(68,68,68)" stroke="none" font-family="helvetica" font-size="13px" font-style="normal" font-weight="normal" text-decoration="normal" x="1162.7333374023438" y="196" text-anchor="start" dominant-baseline="central" clip-path="url(#GqTTXFNbUuEQ)" transform="matrix(1, 0, 0, 1, 0.5, 0.5)" fill-opacity="1">transmittance_absorbance</text><path fill="rgb(162,174,187)" stroke="none" paint-order="stroke" d="M 1140.2333374023438 188.5 L 1156.2333374023438 188.5 L 1156.2333374023438 204.5 L 1140.2333374023438 204.5 L 1140.2333374023438 188.5" fill-opacity="1" clip-path="url(#GqTTXFNbUuEQ)"/><text fill="rgb(68,68,68)" stroke="none" font-family="helvetica" font-size="13px" font-style="normal" font-weight="normal" text-decoration="normal" x="1162.7333374023438" y="219" text-anchor="start" dominant-baseline="central" clip-path="url(#GqTTXFNbUuEQ)" transform="matrix(1, 0, 0, 1, 0.5, 0.5)" fill-opacity="1">magnifier</text><text fill="rgb(68,68,68)" stroke="none" font-family="helvetica" font-size="13px" font-style="normal" font-weight="normal" text-decoration="normal" x="1162.7333374023438" y="242" text-anchor="start" dominant-baseline="central" clip-path="url(#GqTTXFNbUuEQ)" transform="matrix(1, 0, 0, 1, 0.5, 0.5)" fill-opacity="1">concentration</text><path fill="rgb(115,210,222)" stroke="none" paint-order="stroke" d="M 1140.2333374023438 234.5 L 1156.2333374023438 234.5 L 1156.2333374023438 250.5 L 1140.2333374023438 250.5 L 1140.2333374023438 234.5" fill-opacity="1" clip-path="url(#GqTTXFNbUuEQ)"/><text fill="rgb(68,68,68)" stroke="none" font-family="helvetica" font-size="13px" font-style="normal" font-weight="normal" text-decoration="normal" x="1162.7333374023438" y="265" text-anchor="start" dominant-baseline="central" clip-path="url(#GqTTXFNbUuEQ)" transform="matrix(1, 0, 0, 1, 0.5, 0.5)" fill-opacity="1">flask</text><path fill="rgb(28,49,68)" stroke="none" paint-order="stroke" d="M 1140.2333374023438 257.5 L 1156.2333374023438 257.5 L 1156.2333374023438 273.5 L 1140.2333374023438 273.5 L 1140.2333374023438 257.5" fill-opacity="1" clip-path="url(#GqTTXFNbUuEQ)"/><text fill="rgb(68,68,68)" stroke="none" font-family="helvetica" font-size="13px" font-style="normal" font-weight="normal" text-decoration="normal" x="1162.7333374023438" y="288" text-anchor="start" dominant-baseline="central" clip-path="url(#GqTTXFNbUuEQ)" transform="matrix(1, 0, 0, 1, 0.5, 0.5)" fill-opacity="1">pdf</text><path fill="rgb(239,185,203)" stroke="none" paint-order="stroke" d="M 1140.2333374023438 280.5 L 1156.2333374023438 280.5 L 1156.2333374023438 296.5 L 1140.2333374023438 296.5 L 1140.2333374023438 280.5" fill-opacity="1" clip-path="url(#GqTTXFNbUuEQ)"/><text fill="rgb(68,68,68)" stroke="none" font-family="helvetica" font-size="13px" font-style="normal" font-weight="normal" text-decoration="normal" x="1162.7333374023438" y="311" text-anchor="start" dominant-baseline="central" clip-path="url(#GqTTXFNbUuEQ)" transform="matrix(1, 0, 0, 1, 0.5, 0.5)" fill-opacity="1">concentrationlab</text><text fill="rgb(68,68,68)" stroke="none" font-family="helvetica" font-size="13px" font-style="normal" font-weight="normal" text-decoration="normal" x="1162.7333374023438" y="334" text-anchor="start" dominant-baseline="central" clip-path="url(#GqTTXFNbUuEQ)" transform="matrix(1, 0, 0, 1, 0.5, 0.5)" fill-opacity="1">wavelength_slider</text><path fill="rgb(105,29,48)" stroke="none" paint-order="stroke" d="M 1140.2333374023438 326.5 L 1156.2333374023438 326.5 L 1156.2333374023438 342.5 L 1140.2333374023438 342.5 L 1140.2333374023438 326.5" fill-opacity="1" clip-path="url(#GqTTXFNbUuEQ)"/><text fill="rgb(68,68,68)" stroke="none" font-family="helvetica" font-size="13px" font-style="normal" font-weight="normal" text-decoration="normal" x="1162.7333374023438" y="357" text-anchor="start" dominant-baseline="central" clip-path="url(#GqTTXFNbUuEQ)" transform="matrix(1, 0, 0, 1, 0.5, 0.5)" fill-opacity="1">ruler measuring</text><path fill="rgb(255,188,66)" stroke="none" paint-order="stroke" d="M 1140.2333374023438 349.5 L 1156.2333374023438 349.5 L 1156.2333374023438 365.5 L 1140.2333374023438 365.5 L 1140.2333374023438 349.5" fill-opacity="1" clip-path="url(#GqTTXFNbUuEQ)"/><text fill="rgb(68,68,68)" stroke="none" font-family="helvetica" font-size="13px" font-style="normal" font-weight="normal" text-decoration="normal" x="1162.7333374023438" y="380" text-anchor="start" dominant-baseline="central" clip-path="url(#GqTTXFNbUuEQ)" transform="matrix(1, 0, 0, 1, 0.5, 0.5)" fill-opacity="1">dependent variable</text><path fill="rgb(143,45,86)" stroke="none" paint-order="stroke" d="M 1140.2333374023438 372.5 L 1156.2333374023438 372.5 L 1156.2333374023438 388.5 L 1140.2333374023438 388.5 L 1140.2333374023438 372.5" fill-opacity="1" clip-path="url(#GqTTXFNbUuEQ)"/><text fill="rgb(68,68,68)" stroke="none" font-family="helvetica" font-size="25pt" font-style="normal" font-weight="bold" text-decoration="normal" x="58" y="38.740885416666664" text-anchor="start" dominant-baseline="alphabetic" transform="matrix(1, 0, 0, 1, 0.5, 0.5)" fill-opacity="1">Timeline for student 786zpupn with permutation missing for task 2</text></svg>