<svg version="1.1" xmlns="http://www.w3.org/2000/svg" width="1366" height="683"><defs><clipPath id="WnOOhymplwqw"><path fill="none" stroke="none" d="M 58.5 51.5 L 1336.5 51.5 L 1336.5 630.5 L 58.5 630.5 L 58.5 51.5"/></clipPath><clipPath id="ILTHExtMlOKA"><path fill="none" stroke="none" d="M 58.5 51.5 L 1336.5 51.5 L 1336.5 630.5 L 58.5 630.5 L 58.5 51.5"/></clipPath><clipPath id="ZAvyfXUndpbt"><path fill="none" stroke="none" d="M 58.5 51.5 L 1336.5 51.5 L 1336.5 630.5 L 58.5 630.5 L 58.5 51.5"/></clipPath><clipPath id="hETrDRsalMcm"><path fill="none" stroke="none" d="M 58.5 51.5 L 1336.5 51.5 L 1336.5 630.5 L 58.5 630.5 L 58.5 51.5"/></clipPath><clipPath id="HarDVqIcdfQt"><path fill="none" stroke="none" d="M 58.5 51.5 L 1336.5 51.5 L 1336.5 630.5 L 58.5 630.5 L 58.5 51.5"/></clipPath><clipPath id="USXVKONoZIud"><path fill="none" stroke="none" d="M 58.5 51.5 L 1336.5 51.5 L 1336.5 630.5 L 58.5 630.5 L 58.5 51.5"/></clipPath><clipPath id="vbiqITyvhJyf"><path fill="none" stroke="none" d="M 58.5 51.5 L 1336.5 51.5 L 1336.5 630.5 L 58.5 630.5 L 58.5 51.5"/></clipPath><clipPath id="lwztmfpwGkNy"><path fill="none" stroke="none" d="M 58.5 51.5 L 1336.5 51.5 L 1336.5 630.5 L 58.5 630.5 L 58.5 51.5"/></clipPath><clipPath id="uQCMTvQnxLyI"><path fill="none" stroke="none" d="M 58.5 51.5 L 1336.5 51.5 L 1336.5 630.5 L 58.5 630.5 L 58.5 51.5"/></clipPath><clipPath id="GlVVDeNBItMv"><path fill="none" stroke="none" d="M 58.5 51.5 L 1336.5 51.5 L 1336.5 630.5 L 58.5 630.5 L 58.5 51.5"/></clipPath><clipPath id="qnPfoiTKoigT"><path fill="none" stroke="none" d="M 58.5 51.5 L 1336.5 51.5 L 1336.5 630.5 L 58.5 630.5 L 58.5 51.5"/></clipPath><clipPath id="GyzwliqAzOAB"><path fill="none" stroke="none" d="M 58.5 51.5 L 1336.5 51.5 L 1336.5 630.5 L 58.5 630.5 L 58.5 51.5"/></clipPath><clipPath id="OfQfdXKQXTDz"><path fill="none" stroke="none" d="M 58.5 51.5 L 1336.5 51.5 L 1336.5 630.5 L 58.5 630.5 L 58.5 51.5"/></clipPath><clipPath id="ZlKpUTFkLZIE"><path fill="none" stroke="none" d="M 58.5 51.5 L 1336.5 51.5 L 1336.5 630.5 L 58.5 630.5 L 58.5 51.5"/></clipPath><clipPath id="IgLPNABmdAhq"><path fill="none" stroke="none" d="M 58.5 51.5 L 1336.5 51.5 L 1336.5 630.5 L 58.5 630.5 L 58.5 51.5"/></clipPath><clipPath id="THurmTtUNGkm"><path fill="none" stroke="none" d="M 58.5 51.5 L 1336.5 51.5 L 1336.5 630.5 L 58.5 630.5 L 58.5 51.5"/></clipPath><clipPath id="mlFoJxqhODWG"><path fill="none" stroke="none" d="M 58.5 51.5 L 1336.5 51.5 L 1336.5 630.5 L 58.5 630.5 L 58.5 51.5"/></clipPath><clipPath id="WwfteVPhZbTR"><path fill="none" stroke="none" d="M 58.5 51.5 L 1336.5 51.5 L 1336.5 630.5 L 58.5 630.5 L 58.5 51.5"/></clipPath><clipPath id="fFhRXZiROGGy"><path fill="none" stroke="none" d="M 58.5 51.5 L 1336.5 51.5 L 1336.5 630.5 L 58.5 630.5 L 58.5 51.5"/></clipPath><clipPath id="iuUgTOKXVNHi"><path fill="none" stroke="none" d="M 58.5 51.5 L 1336.5 51.5 L 1336.5 630.5 L 58.5 630.5 L 58.5 51.5"/></clipPath><clipPath id="DxTBxOqkVXZe"><path fill="none" stroke="none" d="M 58.5 51.5 L 1336.5 51.5 L 1336.5 630.5 L 58.5 630.5 L 58.5 51.5"/></clipPath></defs><path fill="rgb(255,255,255)" stroke="none" paint-order="stroke" d="M 0.5 0.5 L 1366.5 0.5 L 1366.5 683.5 L 0.5 683.5 L 0.5 0.5" fill-opacity="1"/><rect fill="#FFFFFF" stroke="none" x="58" y="51" width="1278" height="579" transform="matrix(1, 0, 0, 1, 0.5, 0.5)"/><path fill="rgb(255,255,255)" stroke="none" paint-order="stroke" d="M 58.5 51.5 L 1336.5 51.5 L 1336.5 630.5 L 58.5 630.5 L 58.5 51.5" fill-opacity="1"/><path fill="none" stroke="rgb(229,229,229)" paint-order="fill" d="M 58.5 51.5 L 1336.5 51.5 L 1336.5 630.5 L 58.5 630.5 L 58.5 51.5" stroke-opacity="1" stroke-linejoin="bevel" stroke-miterlimit="10" stroke-dasharray=""/><path fill="none" stroke="rgb(229,229,229)" paint-order="fill" d="M 314.5 630.5 L 314.5 51.5 M 569.5 630.5 L 569.5 51.5 M 825.5 630.5 L 825.5 51.5 M 1080.5 630.5 L 1080.5 51.5" stroke-opacity="1" stroke-linejoin="bevel" stroke-miterlimit="10" stroke-dasharray="" clip-path="url(#WnOOhymplwqw)"/><path fill="none" stroke="rgb(229,229,229)" paint-order="fill" d="M 58.5 551.5 L 1336.5 551.5 M 58.5 446.5 L 1336.5 446.5 M 58.5 341.5 L 1336.5 341.5 M 58.5 235.5 L 1336.5 235.5 M 58.5 130.5 L 1336.5 130.5" stroke-opacity="1" stroke-linejoin="bevel" stroke-miterlimit="10" stroke-dasharray="" clip-path="url(#ILTHExtMlOKA)"/><path fill="rgb(0,255,40)" stroke="none" paint-order="stroke" d="M 58.5 77.81818389892578 L 110.37274169921875 77.81818389892578 L 110.37274169921875 130.45454788208008 L 58.5 130.45454788208008 L 58.5 77.81818389892578" fill-opacity="1" clip-path="url(#ZAvyfXUndpbt)"/><path fill="rgb(0,255,0)" stroke="none" paint-order="stroke" d="M 110.37274169921875 77.81818389892578 L 110.47881569713354 77.81818389892578 L 110.47881569713354 130.45454788208008 L 110.37274169921875 130.45454788208008 L 110.37274169921875 77.81818389892578" fill-opacity="1" clip-path="url(#ZAvyfXUndpbt)"/><path fill="rgb(62,255,0)" stroke="none" paint-order="stroke" d="M 110.47881317138672 77.81818389892578 L 110.49926117062569 77.81818389892578 L 110.49926117062569 130.45454788208008 L 110.47881317138672 130.45454788208008 L 110.47881317138672 77.81818389892578" fill-opacity="1" clip-path="url(#ZAvyfXUndpbt)"/><path fill="rgb(126,255,0)" stroke="none" paint-order="stroke" d="M 110.499267578125 77.81818389892578 L 110.52227157726884 77.81818389892578 L 110.52227157726884 130.45454788208008 L 110.499267578125 130.45454788208008 L 110.499267578125 77.81818389892578" fill-opacity="1" clip-path="url(#ZAvyfXUndpbt)"/><path fill="rgb(201,255,0)" stroke="none" paint-order="stroke" d="M 110.52227020263672 77.81818389892578 L 110.54271820187569 77.81818389892578 L 110.54271820187569 130.45454788208008 L 110.52227020263672 130.45454788208008 L 110.52227020263672 77.81818389892578" fill-opacity="1" clip-path="url(#ZAvyfXUndpbt)"/><path fill="rgb(234,255,0)" stroke="none" paint-order="stroke" d="M 110.54271697998047 77.81818389892578 L 110.56316497921944 77.81818389892578 L 110.56316497921944 130.45454788208008 L 110.54271697998047 130.45454788208008 L 110.54271697998047 77.81818389892578" fill-opacity="1" clip-path="url(#ZAvyfXUndpbt)"/><path fill="rgb(255,248,0)" stroke="none" paint-order="stroke" d="M 110.56316375732422 77.81818389892578 L 110.60661575570703 77.81818389892578 L 110.60661575570703 130.45454788208008 L 110.56316375732422 130.45454788208008 L 110.56316375732422 77.81818389892578" fill-opacity="1" clip-path="url(#ZAvyfXUndpbt)"/><path fill="rgb(255,239,0)" stroke="none" paint-order="stroke" d="M 110.60661315917969 77.81818389892578 L 110.62706115841866 77.81818389892578 L 110.62706115841866 130.45454788208008 L 110.60661315917969 130.45454788208008 L 110.60661315917969 77.81818389892578" fill-opacity="1" clip-path="url(#ZAvyfXUndpbt)"/><path fill="rgb(255,213,0)" stroke="none" paint-order="stroke" d="M 110.62706756591797 77.81818389892578 L 110.64751556515694 77.81818389892578 L 110.64751556515694 130.45454788208008 L 110.62706756591797 130.45454788208008 L 110.62706756591797 77.81818389892578" fill-opacity="1" clip-path="url(#ZAvyfXUndpbt)"/><path fill="rgb(255,172,0)" stroke="none" paint-order="stroke" d="M 110.64751434326172 77.81818389892578 L 110.67051834240556 77.81818389892578 L 110.67051834240556 130.45454788208008 L 110.64751434326172 130.45454788208008 L 110.64751434326172 77.81818389892578" fill-opacity="1" clip-path="url(#ZAvyfXUndpbt)"/><path fill="rgb(255,122,0)" stroke="none" paint-order="stroke" d="M 110.67051696777344 77.81818389892578 L 110.6909649670124 77.81818389892578 L 110.6909649670124 130.45454788208008 L 110.67051696777344 130.45454788208008 L 110.67051696777344 77.81818389892578" fill-opacity="1" clip-path="url(#ZAvyfXUndpbt)"/><path fill="rgb(255,78,0)" stroke="none" paint-order="stroke" d="M 110.69096374511719 77.81818389892578 L 110.71268974430859 77.81818389892578 L 110.71268974430859 130.45454788208008 L 110.69096374511719 130.45454788208008 L 110.69096374511719 77.81818389892578" fill-opacity="1" clip-path="url(#ZAvyfXUndpbt)"/><path fill="rgb(255,52,0)" stroke="none" paint-order="stroke" d="M 110.71269226074219 77.81818389892578 L 110.73441825993359 77.81818389892578 L 110.73441825993359 130.45454788208008 L 110.71269226074219 130.45454788208008 L 110.71269226074219 77.81818389892578" fill-opacity="1" clip-path="url(#ZAvyfXUndpbt)"/><path fill="rgb(255,37,0)" stroke="none" paint-order="stroke" d="M 110.73441314697266 77.81818389892578 L 110.75486114621162 77.81818389892578 L 110.75486114621162 130.45454788208008 L 110.73441314697266 130.45454788208008 L 110.73441314697266 77.81818389892578" fill-opacity="1" clip-path="url(#ZAvyfXUndpbt)"/><path fill="rgb(255,0,0)" stroke="none" paint-order="stroke" d="M 110.75486755371094 77.81818389892578 L 110.7753155529499 77.81818389892578 L 110.7753155529499 130.45454788208008 L 110.75486755371094 130.45454788208008 L 110.75486755371094 77.81818389892578" fill-opacity="1" clip-path="url(#ZAvyfXUndpbt)"/><path fill="rgb(244,0,0)" stroke="none" paint-order="stroke" d="M 110.77531433105469 77.81818389892578 L 110.79831833019853 77.81818389892578 L 110.79831833019853 130.45454788208008 L 110.77531433105469 130.45454788208008 L 110.77531433105469 77.81818389892578" fill-opacity="1" clip-path="url(#ZAvyfXUndpbt)"/><path fill="rgb(235,0,0)" stroke="none" paint-order="stroke" d="M 110.7983169555664 77.81818389892578 L 110.82004295475781 77.81818389892578 L 110.82004295475781 130.45454788208008 L 110.7983169555664 130.45454788208008 L 110.7983169555664 77.81818389892578" fill-opacity="1" clip-path="url(#ZAvyfXUndpbt)"/><path fill="rgb(227,0,0)" stroke="none" paint-order="stroke" d="M 110.8200454711914 77.81818389892578 L 110.84049347043037 77.81818389892578 L 110.84049347043037 130.45454788208008 L 110.8200454711914 130.45454788208008 L 110.8200454711914 77.81818389892578" fill-opacity="1" clip-path="url(#ZAvyfXUndpbt)"/><path fill="rgb(220,0,0)" stroke="none" paint-order="stroke" d="M 110.84049224853516 77.81818389892578 L 110.86221824772656 77.81818389892578 L 110.86221824772656 130.45454788208008 L 110.84049224853516 130.45454788208008 L 110.84049224853516 77.81818389892578" fill-opacity="1" clip-path="url(#ZAvyfXUndpbt)"/><path fill="rgb(207,0,0)" stroke="none" paint-order="stroke" d="M 110.86221313476562 77.81818389892578 L 110.88521713390946 77.81818389892578 L 110.88521713390946 130.45454788208008 L 110.86221313476562 130.45454788208008 L 110.86221313476562 77.81818389892578" fill-opacity="1" clip-path="url(#ZAvyfXUndpbt)"/><path fill="rgb(203,0,0)" stroke="none" paint-order="stroke" d="M 110.88522338867188 77.81818389892578 L 110.90439338795841 77.81818389892578 L 110.90439338795841 130.45454788208008 L 110.88522338867188 130.45454788208008 L 110.88522338867188 77.81818389892578" fill-opacity="1" clip-path="url(#ZAvyfXUndpbt)"/><path fill="rgb(191,0,0)" stroke="none" paint-order="stroke" d="M 110.90438842773438 77.81818389892578 L 110.92483642697334 77.81818389892578 L 110.92483642697334 130.45454788208008 L 110.90438842773438 130.45454788208008 L 110.90438842773438 77.81818389892578" fill-opacity="1" clip-path="url(#ZAvyfXUndpbt)"/><path fill="rgb(178,0,0)" stroke="none" paint-order="stroke" d="M 110.92483520507812 77.81818389892578 L 110.94656120426953 77.81818389892578 L 110.94656120426953 130.45454788208008 L 110.92483520507812 130.45454788208008 L 110.92483520507812 77.81818389892578" fill-opacity="1" clip-path="url(#ZAvyfXUndpbt)"/><path fill="rgb(130,0,0)" stroke="none" paint-order="stroke" d="M 110.94656372070312 77.81818389892578 L 110.96828971989453 77.81818389892578 L 110.96828971989453 130.45454788208008 L 110.94656372070312 130.45454788208008 L 110.94656372070312 77.81818389892578" fill-opacity="1" clip-path="url(#ZAvyfXUndpbt)"/><path fill="rgb(105,0,0)" stroke="none" paint-order="stroke" d="M 110.96829223632812 77.81818389892578 L 110.9887402355671 77.81818389892578 L 110.9887402355671 130.45454788208008 L 110.96829223632812 130.45454788208008 L 110.96829223632812 77.81818389892578" fill-opacity="1" clip-path="url(#ZAvyfXUndpbt)"/><path fill="rgb(0,0,0)" stroke="none" paint-order="stroke" d="M 110.98873901367188 77.81818389892578 L 111.01046501286328 77.81818389892578 L 111.01046501286328 130.45454788208008 L 110.98873901367188 130.45454788208008 L 110.98873901367188 77.81818389892578" fill-opacity="1" clip-path="url(#ZAvyfXUndpbt)"/><path fill="rgb(0,0,0)" stroke="none" paint-order="stroke" d="M 111.01046752929688 77.81818389892578 L 111.03219352848828 77.81818389892578 L 111.03219352848828 130.45454788208008 L 111.01046752929688 130.45454788208008 L 111.01046752929688 77.81818389892578" fill-opacity="1" clip-path="url(#ZAvyfXUndpbt)"/><path fill="rgb(0,0,0)" stroke="none" paint-order="stroke" d="M 111.03218841552734 77.81818389892578 L 111.07436241582036 77.81818389892578 L 111.07436241582036 130.45454788208008 L 111.03218841552734 130.45454788208008 L 111.03218841552734 77.81818389892578" fill-opacity="1" clip-path="url(#ZAvyfXUndpbt)"/><path fill="rgb(0,0,0)" stroke="none" paint-order="stroke" d="M 111.0743637084961 77.81818389892578 L 111.0960897076875 77.81818389892578 L 111.0960897076875 130.45454788208008 L 111.0743637084961 130.45454788208008 L 111.0743637084961 77.81818389892578" fill-opacity="1" clip-path="url(#ZAvyfXUndpbt)"/><path fill="rgb(0,0,0)" stroke="none" paint-order="stroke" d="M 111.0960922241211 77.81818389892578 L 111.1395442225039 77.81818389892578 L 111.1395442225039 130.45454788208008 L 111.0960922241211 130.45454788208008 L 111.0960922241211 77.81818389892578" fill-opacity="1" clip-path="url(#ZAvyfXUndpbt)"/><path fill="rgb(0,0,0)" stroke="none" paint-order="stroke" d="M 111.13954162597656 77.81818389892578 L 111.16126762516797 77.81818389892578 L 111.16126762516797 130.45454788208008 L 111.13954162597656 130.45454788208008 L 111.13954162597656 77.81818389892578" fill-opacity="1" clip-path="url(#ZAvyfXUndpbt)"/><path fill="rgb(0,0,0)" stroke="none" paint-order="stroke" d="M 111.16127014160156 77.81818389892578 L 112.7165961265564 77.81818389892578 L 112.7165961265564 130.45454788208008 L 111.16127014160156 130.45454788208008 L 111.16127014160156 77.81818389892578" fill-opacity="1" clip-path="url(#ZAvyfXUndpbt)"/><path fill="rgb(0,0,0)" stroke="none" paint-order="stroke" d="M 112.71659088134766 77.81818389892578 L 112.73703888058662 77.81818389892578 L 112.73703888058662 130.45454788208008 L 112.71659088134766 130.45454788208008 L 112.71659088134766 77.81818389892578" fill-opacity="1" clip-path="url(#ZAvyfXUndpbt)"/><path fill="rgb(0,0,0)" stroke="none" paint-order="stroke" d="M 112.73704528808594 77.81818389892578 L 112.75877128727734 77.81818389892578 L 112.75877128727734 130.45454788208008 L 112.73704528808594 130.45454788208008 L 112.73704528808594 77.81818389892578" fill-opacity="1" clip-path="url(#ZAvyfXUndpbt)"/><path fill="rgb(115,0,0)" stroke="none" paint-order="stroke" d="M 112.7587661743164 77.81818389892578 L 112.77793617360294 77.81818389892578 L 112.77793617360294 130.45454788208008 L 112.7587661743164 130.45454788208008 L 112.7587661743164 77.81818389892578" fill-opacity="1" clip-path="url(#ZAvyfXUndpbt)"/><path fill="rgb(135,0,0)" stroke="none" paint-order="stroke" d="M 112.77793884277344 77.81818389892578 L 112.80094284191728 77.81818389892578 L 112.80094284191728 130.45454788208008 L 112.77793884277344 130.45454788208008 L 112.77793884277344 77.81818389892578" fill-opacity="1" clip-path="url(#ZAvyfXUndpbt)"/><path fill="rgb(138,0,0)" stroke="none" paint-order="stroke" d="M 112.80094146728516 77.81818389892578 L 112.92874146997929 77.81818389892578 L 112.92874146997929 130.45454788208008 L 112.80094146728516 130.45454788208008 L 112.80094146728516 77.81818389892578" fill-opacity="1" clip-path="url(#ZAvyfXUndpbt)"/><path fill="rgb(143,0,0)" stroke="none" paint-order="stroke" d="M 112.92874145507812 77.81818389892578 L 112.95174545422196 77.81818389892578 L 112.95174545422196 130.45454788208008 L 112.92874145507812 130.45454788208008 L 112.92874145507812 77.81818389892578" fill-opacity="1" clip-path="url(#ZAvyfXUndpbt)"/><path fill="rgb(148,0,0)" stroke="none" paint-order="stroke" d="M 112.95174407958984 77.81818389892578 L 112.96963607892394 77.81818389892578 L 112.96963607892394 130.45454788208008 L 112.95174407958984 130.45454788208008 L 112.95174407958984 77.81818389892578" fill-opacity="1" clip-path="url(#ZAvyfXUndpbt)"/><path fill="rgb(152,0,0)" stroke="none" paint-order="stroke" d="M 112.96963500976562 77.81818389892578 L 112.99263900890946 77.81818389892578 L 112.99263900890946 130.45454788208008 L 112.96963500976562 130.45454788208008 L 112.96963500976562 77.81818389892578" fill-opacity="1" clip-path="url(#ZAvyfXUndpbt)"/><path fill="rgb(166,0,0)" stroke="none" paint-order="stroke" d="M 112.99264526367188 77.81818389892578 L 113.01309326291084 77.81818389892578 L 113.01309326291084 130.45454788208008 L 112.99264526367188 130.45454788208008 L 112.99264526367188 77.81818389892578" fill-opacity="1" clip-path="url(#ZAvyfXUndpbt)"/><path fill="rgb(169,0,0)" stroke="none" paint-order="stroke" d="M 113.01309204101562 77.81818389892578 L 113.03481804020703 77.81818389892578 L 113.03481804020703 130.45454788208008 L 113.01309204101562 130.45454788208008 L 113.01309204101562 77.81818389892578" fill-opacity="1" clip-path="url(#ZAvyfXUndpbt)"/><path fill="rgb(178,0,0)" stroke="none" paint-order="stroke" d="M 113.0348129272461 77.81818389892578 L 113.05526092648506 77.81818389892578 L 113.05526092648506 130.45454788208008 L 113.0348129272461 130.45454788208008 L 113.0348129272461 77.81818389892578" fill-opacity="1" clip-path="url(#ZAvyfXUndpbt)"/><path fill="rgb(182,0,0)" stroke="none" paint-order="stroke" d="M 113.05526733398438 77.81818389892578 L 113.07699333317578 77.81818389892578 L 113.07699333317578 130.45454788208008 L 113.05526733398438 130.45454788208008 L 113.05526733398438 77.81818389892578" fill-opacity="1" clip-path="url(#ZAvyfXUndpbt)"/><path fill="rgb(187,0,0)" stroke="none" paint-order="stroke" d="M 113.07698822021484 77.81818389892578 L 113.09743621945381 77.81818389892578 L 113.09743621945381 130.45454788208008 L 113.07698822021484 130.45454788208008 L 113.07698822021484 77.81818389892578" fill-opacity="1" clip-path="url(#ZAvyfXUndpbt)"/><path fill="rgb(191,0,0)" stroke="none" paint-order="stroke" d="M 113.0974349975586 77.81818389892578 L 113.12299499846995 77.81818389892578 L 113.12299499846995 130.45454788208008 L 113.0974349975586 130.45454788208008 L 113.0974349975586 77.81818389892578" fill-opacity="1" clip-path="url(#ZAvyfXUndpbt)"/><path fill="rgb(198,0,0)" stroke="none" paint-order="stroke" d="M 113.12300109863281 77.81818389892578 L 113.14217109791934 77.81818389892578 L 113.14217109791934 130.45454788208008 L 113.12300109863281 130.45454788208008 L 113.12300109863281 77.81818389892578" fill-opacity="1" clip-path="url(#ZAvyfXUndpbt)"/><path fill="rgb(203,0,0)" stroke="none" paint-order="stroke" d="M 113.14216613769531 77.81818389892578 L 113.16133613698184 77.81818389892578 L 113.16133613698184 130.45454788208008 L 113.14216613769531 130.45454788208008 L 113.14216613769531 77.81818389892578" fill-opacity="1" clip-path="url(#ZAvyfXUndpbt)"/><path fill="rgb(224,0,0)" stroke="none" paint-order="stroke" d="M 113.16133880615234 77.81818389892578 L 113.18434280529618 77.81818389892578 L 113.18434280529618 130.45454788208008 L 113.16133880615234 130.45454788208008 L 113.16133880615234 77.81818389892578" fill-opacity="1" clip-path="url(#ZAvyfXUndpbt)"/><path fill="rgb(235,0,0)" stroke="none" paint-order="stroke" d="M 113.18434143066406 77.81818389892578 L 113.20478942990303 77.81818389892578 L 113.20478942990303 130.45454788208008 L 113.18434143066406 130.45454788208008 L 113.18434143066406 77.81818389892578" fill-opacity="1" clip-path="url(#ZAvyfXUndpbt)"/><path fill="rgb(252,0,0)" stroke="none" paint-order="stroke" d="M 113.20478820800781 77.81818389892578 L 113.22523620724678 77.81818389892578 L 113.22523620724678 130.45454788208008 L 113.20478820800781 130.45454788208008 L 113.20478820800781 77.81818389892578" fill-opacity="1" clip-path="url(#ZAvyfXUndpbt)"/><path fill="rgb(255,66,0)" stroke="none" paint-order="stroke" d="M 113.22523498535156 77.81818389892578 L 113.24696098454297 77.81818389892578 L 113.24696098454297 130.45454788208008 L 113.22523498535156 130.45454788208008 L 113.22523498535156 77.81818389892578" fill-opacity="1" clip-path="url(#ZAvyfXUndpbt)"/><path fill="rgb(255,122,0)" stroke="none" paint-order="stroke" d="M 113.24696350097656 77.81818389892578 L 113.26868950016797 77.81818389892578 L 113.26868950016797 130.45454788208008 L 113.24696350097656 130.45454788208008 L 113.24696350097656 77.81818389892578" fill-opacity="1" clip-path="url(#ZAvyfXUndpbt)"/><path fill="rgb(255,172,0)" stroke="none" paint-order="stroke" d="M 113.26869201660156 77.81818389892578 L 113.29041801579297 77.81818389892578 L 113.29041801579297 130.45454788208008 L 113.26869201660156 130.45454788208008 L 113.26869201660156 77.81818389892578" fill-opacity="1" clip-path="url(#ZAvyfXUndpbt)"/><path fill="rgb(255,239,0)" stroke="none" paint-order="stroke" d="M 113.29041290283203 77.81818389892578 L 113.30958290211856 77.81818389892578 L 113.30958290211856 130.45454788208008 L 113.29041290283203 130.45454788208008 L 113.29041290283203 77.81818389892578" fill-opacity="1" clip-path="url(#ZAvyfXUndpbt)"/><path fill="rgb(225,255,0)" stroke="none" paint-order="stroke" d="M 113.30958557128906 77.81818389892578 L 113.3325895704329 77.81818389892578 L 113.3325895704329 130.45454788208008 L 113.30958557128906 130.45454788208008 L 113.30958557128906 77.81818389892578" fill-opacity="1" clip-path="url(#ZAvyfXUndpbt)"/><path fill="rgb(182,255,0)" stroke="none" paint-order="stroke" d="M 113.33258819580078 77.81818389892578 L 113.35431419499218 77.81818389892578 L 113.35431419499218 130.45454788208008 L 113.33258819580078 130.45454788208008 L 113.33258819580078 77.81818389892578" fill-opacity="1" clip-path="url(#ZAvyfXUndpbt)"/><path fill="rgb(146,255,0)" stroke="none" paint-order="stroke" d="M 113.35431671142578 77.81818389892578 L 113.37476471066475 77.81818389892578 L 113.37476471066475 130.45454788208008 L 113.35431671142578 130.45454788208008 L 113.35431671142578 77.81818389892578" fill-opacity="1" clip-path="url(#ZAvyfXUndpbt)"/><path fill="rgb(104,255,0)" stroke="none" paint-order="stroke" d="M 113.37476348876953 77.81818389892578 L 113.39648948796093 77.81818389892578 L 113.39648948796093 130.45454788208008 L 113.37476348876953 130.45454788208008 L 113.37476348876953 77.81818389892578" fill-opacity="1" clip-path="url(#ZAvyfXUndpbt)"/><path fill="rgb(82,255,0)" stroke="none" paint-order="stroke" d="M 113.39649200439453 77.81818389892578 L 113.41821800358593 77.81818389892578 L 113.41821800358593 130.45454788208008 L 113.39649200439453 130.45454788208008 L 113.39649200439453 77.81818389892578" fill-opacity="1" clip-path="url(#ZAvyfXUndpbt)"/><path fill="rgb(62,255,0)" stroke="none" paint-order="stroke" d="M 113.418212890625 77.81818389892578 L 113.43866088986397 77.81818389892578 L 113.43866088986397 130.45454788208008 L 113.418212890625 130.45454788208008 L 113.418212890625 77.81818389892578" fill-opacity="1" clip-path="url(#ZAvyfXUndpbt)"/><path fill="rgb(0,255,0)" stroke="none" paint-order="stroke" d="M 113.43866729736328 77.81818389892578 L 113.45911529660225 77.81818389892578 L 113.45911529660225 130.45454788208008 L 113.43866729736328 130.45454788208008 L 113.43866729736328 77.81818389892578" fill-opacity="1" clip-path="url(#ZAvyfXUndpbt)"/><path fill="rgb(0,255,84)" stroke="none" paint-order="stroke" d="M 113.45911407470703 77.81818389892578 L 113.48211807385087 77.81818389892578 L 113.48211807385087 130.45454788208008 L 113.45911407470703 130.45454788208008 L 113.45911407470703 77.81818389892578" fill-opacity="1" clip-path="url(#ZAvyfXUndpbt)"/><path fill="rgb(0,255,255)" stroke="none" paint-order="stroke" d="M 113.48211669921875 77.81818389892578 L 113.50256469845772 77.81818389892578 L 113.50256469845772 130.45454788208008 L 113.48211669921875 130.45454788208008 L 113.48211669921875 77.81818389892578" fill-opacity="1" clip-path="url(#ZAvyfXUndpbt)"/><path fill="rgb(0,246,255)" stroke="none" paint-order="stroke" d="M 113.5025634765625 77.81818389892578 L 113.52301147580147 77.81818389892578 L 113.52301147580147 130.45454788208008 L 113.5025634765625 130.45454788208008 L 113.5025634765625 77.81818389892578" fill-opacity="1" clip-path="url(#ZAvyfXUndpbt)"/><path fill="rgb(0,182,255)" stroke="none" paint-order="stroke" d="M 113.52301025390625 77.81818389892578 L 113.54473625309765 77.81818389892578 L 113.54473625309765 130.45454788208008 L 113.52301025390625 130.45454788208008 L 113.52301025390625 77.81818389892578" fill-opacity="1" clip-path="url(#ZAvyfXUndpbt)"/><path fill="rgb(0,132,255)" stroke="none" paint-order="stroke" d="M 113.54473876953125 77.81818389892578 L 113.56646476872265 77.81818389892578 L 113.56646476872265 130.45454788208008 L 113.54473876953125 130.45454788208008 L 113.54473876953125 77.81818389892578" fill-opacity="1" clip-path="url(#ZAvyfXUndpbt)"/><path fill="rgb(0,58,255)" stroke="none" paint-order="stroke" d="M 113.56646728515625 77.81818389892578 L 113.58819328434765 77.81818389892578 L 113.58819328434765 130.45454788208008 L 113.56646728515625 130.45454788208008 L 113.56646728515625 77.81818389892578" fill-opacity="1" clip-path="url(#ZAvyfXUndpbt)"/><path fill="rgb(9,0,252)" stroke="none" paint-order="stroke" d="M 113.58818817138672 77.81818389892578 L 113.60863617062569 77.81818389892578 L 113.60863617062569 130.45454788208008 L 113.58818817138672 130.45454788208008 L 113.58818817138672 77.81818389892578" fill-opacity="1" clip-path="url(#ZAvyfXUndpbt)"/><path fill="rgb(72,0,218)" stroke="none" paint-order="stroke" d="M 113.60863494873047 77.81818389892578 L 113.63163894787431 77.81818389892578 L 113.63163894787431 130.45454788208008 L 113.60863494873047 130.45454788208008 L 113.60863494873047 77.81818389892578" fill-opacity="1" clip-path="url(#ZAvyfXUndpbt)"/><path fill="rgb(87,0,203)" stroke="none" paint-order="stroke" d="M 113.63164520263672 77.81818389892578 L 113.65209320187569 77.81818389892578 L 113.65209320187569 130.45454788208008 L 113.63164520263672 130.45454788208008 L 113.63164520263672 77.81818389892578" fill-opacity="1" clip-path="url(#ZAvyfXUndpbt)"/><path fill="rgb(106,0,175)" stroke="none" paint-order="stroke" d="M 113.65209197998047 77.81818389892578 L 113.67253997921944 77.81818389892578 L 113.67253997921944 130.45454788208008 L 113.65209197998047 130.45454788208008 L 113.65209197998047 77.81818389892578" fill-opacity="1" clip-path="url(#ZAvyfXUndpbt)"/><path fill="rgb(108,0,167)" stroke="none" paint-order="stroke" d="M 113.67253875732422 77.81818389892578 L 113.69426475651562 77.81818389892578 L 113.69426475651562 130.45454788208008 L 113.67253875732422 130.45454788208008 L 113.67253875732422 77.81818389892578" fill-opacity="1" clip-path="url(#ZAvyfXUndpbt)"/><path fill="rgb(111,0,143)" stroke="none" paint-order="stroke" d="M 113.69426727294922 77.81818389892578 L 113.7185492720455 77.81818389892578 L 113.7185492720455 130.45454788208008 L 113.69426727294922 130.45454788208008 L 113.69426727294922 77.81818389892578" fill-opacity="1" clip-path="url(#ZAvyfXUndpbt)"/><path fill="rgb(104,0,112)" stroke="none" paint-order="stroke" d="M 113.71854400634766 77.81818389892578 L 113.73643600568175 77.81818389892578 L 113.73643600568175 130.45454788208008 L 113.71854400634766 130.45454788208008 L 113.71854400634766 77.81818389892578" fill-opacity="1" clip-path="url(#ZAvyfXUndpbt)"/><path fill="rgb(100,0,103)" stroke="none" paint-order="stroke" d="M 113.73643493652344 77.81818389892578 L 113.75943893566728 77.81818389892578 L 113.75943893566728 130.45454788208008 L 113.73643493652344 130.45454788208008 L 113.73643493652344 77.81818389892578" fill-opacity="1" clip-path="url(#ZAvyfXUndpbt)"/><path fill="rgb(97,0,97)" stroke="none" paint-order="stroke" d="M 113.75944519042969 77.81818389892578 L 114.54797118902206 77.81818389892578 L 114.54797118902206 130.45454788208008 L 113.75944519042969 130.45454788208008 L 113.75944519042969 77.81818389892578" fill-opacity="1" clip-path="url(#ZAvyfXUndpbt)"/><path fill="rgb(109,0,126)" stroke="none" paint-order="stroke" d="M 114.54796600341797 77.81818389892578 L 114.5671360027045 77.81818389892578 L 114.5671360027045 130.45454788208008 L 114.54796600341797 130.45454788208008 L 114.54796600341797 77.81818389892578" fill-opacity="1" clip-path="url(#ZAvyfXUndpbt)"/><path fill="rgb(106,0,175)" stroke="none" paint-order="stroke" d="M 114.567138671875 77.81818389892578 L 114.5888646710664 77.81818389892578 L 114.5888646710664 130.45454788208008 L 114.567138671875 130.45454788208008 L 114.567138671875 77.81818389892578" fill-opacity="1" clip-path="url(#ZAvyfXUndpbt)"/><path fill="rgb(87,0,203)" stroke="none" paint-order="stroke" d="M 114.5888671875 77.81818389892578 L 114.6105931866914 77.81818389892578 L 114.6105931866914 130.45454788208008 L 114.5888671875 130.45454788208008 L 114.5888671875 77.81818389892578" fill-opacity="1" clip-path="url(#ZAvyfXUndpbt)"/><path fill="rgb(28,0,245)" stroke="none" paint-order="stroke" d="M 114.61058807373047 77.81818389892578 L 114.63231407292187 77.81818389892578 L 114.63231407292187 130.45454788208008 L 114.61058807373047 130.45454788208008 L 114.61058807373047 77.81818389892578" fill-opacity="1" clip-path="url(#ZAvyfXUndpbt)"/><path fill="rgb(0,58,255)" stroke="none" paint-order="stroke" d="M 114.63231658935547 77.81818389892578 L 114.65276458859444 77.81818389892578 L 114.65276458859444 130.45454788208008 L 114.63231658935547 130.45454788208008 L 114.63231658935547 77.81818389892578" fill-opacity="1" clip-path="url(#ZAvyfXUndpbt)"/><path fill="rgb(0,117,255)" stroke="none" paint-order="stroke" d="M 114.65276336669922 77.81818389892578 L 114.67448936589062 77.81818389892578 L 114.67448936589062 130.45454788208008 L 114.65276336669922 130.45454788208008 L 114.65276336669922 77.81818389892578" fill-opacity="1" clip-path="url(#ZAvyfXUndpbt)"/><path fill="rgb(0,160,255)" stroke="none" paint-order="stroke" d="M 114.67449188232422 77.81818389892578 L 114.69493988156319 77.81818389892578 L 114.69493988156319 130.45454788208008 L 114.67449188232422 130.45454788208008 L 114.67449188232422 77.81818389892578" fill-opacity="1" clip-path="url(#ZAvyfXUndpbt)"/><path fill="rgb(0,196,255)" stroke="none" paint-order="stroke" d="M 114.69493865966797 77.81818389892578 L 114.71538665890694 77.81818389892578 L 114.71538665890694 130.45454788208008 L 114.69493865966797 130.45454788208008 L 114.69493865966797 77.81818389892578" fill-opacity="1" clip-path="url(#ZAvyfXUndpbt)"/><path fill="rgb(0,246,255)" stroke="none" paint-order="stroke" d="M 114.71538543701172 77.81818389892578 L 114.73838943615556 77.81818389892578 L 114.73838943615556 130.45454788208008 L 114.71538543701172 130.45454788208008 L 114.71538543701172 77.81818389892578" fill-opacity="1" clip-path="url(#ZAvyfXUndpbt)"/><path fill="rgb(0,255,191)" stroke="none" paint-order="stroke" d="M 114.73838806152344 77.81818389892578 L 114.7588360607624 77.81818389892578 L 114.7588360607624 130.45454788208008 L 114.73838806152344 130.45454788208008 L 114.73838806152344 77.81818389892578" fill-opacity="1" clip-path="url(#ZAvyfXUndpbt)"/><path fill="rgb(0,255,158)" stroke="none" paint-order="stroke" d="M 114.75883483886719 77.81818389892578 L 114.86618684232235 77.81818389892578 L 114.86618684232235 130.45454788208008 L 114.75883483886719 130.45454788208008 L 114.75883483886719 77.81818389892578" fill-opacity="1" clip-path="url(#ZAvyfXUndpbt)"/><path fill="rgb(0,255,122)" stroke="none" paint-order="stroke" d="M 114.8661880493164 77.81818389892578 L 114.97354005277157 77.81818389892578 L 114.97354005277157 130.45454788208008 L 114.8661880493164 130.45454788208008 L 114.8661880493164 77.81818389892578" fill-opacity="1" clip-path="url(#ZAvyfXUndpbt)"/><path fill="rgb(0,255,40)" stroke="none" paint-order="stroke" d="M 114.97354125976562 77.81818389892578 L 114.99526725895703 77.81818389892578 L 114.99526725895703 130.45454788208008 L 114.97354125976562 130.45454788208008 L 114.97354125976562 77.81818389892578" fill-opacity="1" clip-path="url(#ZAvyfXUndpbt)"/><path fill="rgb(49,255,0)" stroke="none" paint-order="stroke" d="M 114.99526977539062 77.81818389892578 L 115.01443977467716 77.81818389892578 L 115.01443977467716 130.45454788208008 L 114.99526977539062 130.45454788208008 L 114.99526977539062 77.81818389892578" fill-opacity="1" clip-path="url(#ZAvyfXUndpbt)"/><path fill="rgb(93,255,0)" stroke="none" paint-order="stroke" d="M 115.01443481445312 77.81818389892578 L 115.03616081364453 77.81818389892578 L 115.03616081364453 130.45454788208008 L 115.01443481445312 130.45454788208008 L 115.01443481445312 77.81818389892578" fill-opacity="1" clip-path="url(#ZAvyfXUndpbt)"/><path fill="rgb(104,255,0)" stroke="none" paint-order="stroke" d="M 115.03616333007812 77.81818389892578 L 115.07961532846093 77.81818389892578 L 115.07961532846093 130.45454788208008 L 115.03616333007812 130.45454788208008 L 115.03616333007812 77.81818389892578" fill-opacity="1" clip-path="url(#ZAvyfXUndpbt)"/><path fill="rgb(126,255,0)" stroke="none" paint-order="stroke" d="M 115.0796127319336 77.81818389892578 L 115.101338731125 77.81818389892578 L 115.101338731125 130.45454788208008 L 115.0796127319336 130.45454788208008 L 115.0796127319336 77.81818389892578" fill-opacity="1" clip-path="url(#ZAvyfXUndpbt)"/><path fill="rgb(136,255,0)" stroke="none" paint-order="stroke" d="M 115.1013412475586 77.81818389892578 L 115.12178924679756 77.81818389892578 L 115.12178924679756 130.45454788208008 L 115.1013412475586 130.45454788208008 L 115.1013412475586 77.81818389892578" fill-opacity="1" clip-path="url(#ZAvyfXUndpbt)"/><path fill="rgb(146,255,0)" stroke="none" paint-order="stroke" d="M 115.12178802490234 77.81818389892578 L 115.16396202519536 77.81818389892578 L 115.16396202519536 130.45454788208008 L 115.12178802490234 130.45454788208008 L 115.12178802490234 77.81818389892578" fill-opacity="1" clip-path="url(#ZAvyfXUndpbt)"/><path fill="rgb(153,255,0)" stroke="none" paint-order="stroke" d="M 115.1639633178711 77.81818389892578 L 115.18441131711006 77.81818389892578 L 115.18441131711006 130.45454788208008 L 115.1639633178711 130.45454788208008 L 115.1639633178711 77.81818389892578" fill-opacity="1" clip-path="url(#ZAvyfXUndpbt)"/><path fill="rgb(172,255,0)" stroke="none" paint-order="stroke" d="M 115.18441009521484 77.81818389892578 L 115.20613609440625 77.81818389892578 L 115.20613609440625 130.45454788208008 L 115.18441009521484 130.45454788208008 L 115.18441009521484 77.81818389892578" fill-opacity="1" clip-path="url(#ZAvyfXUndpbt)"/><path fill="rgb(182,255,0)" stroke="none" paint-order="stroke" d="M 115.20613861083984 77.81818389892578 L 115.22786461003125 77.81818389892578 L 115.22786461003125 130.45454788208008 L 115.20613861083984 130.45454788208008 L 115.20613861083984 77.81818389892578" fill-opacity="1" clip-path="url(#ZAvyfXUndpbt)"/><path fill="rgb(201,255,0)" stroke="none" paint-order="stroke" d="M 115.22786712646484 77.81818389892578 L 115.24831512570381 77.81818389892578 L 115.24831512570381 130.45454788208008 L 115.22786712646484 130.45454788208008 L 115.22786712646484 77.81818389892578" fill-opacity="1" clip-path="url(#ZAvyfXUndpbt)"/><path fill="rgb(210,255,0)" stroke="none" paint-order="stroke" d="M 115.2483139038086 77.81818389892578 L 115.40550790727139 77.81818389892578 L 115.40550790727139 130.45454788208008 L 115.2483139038086 130.45454788208008 L 115.2483139038086 77.81818389892578" fill-opacity="1" clip-path="url(#ZAvyfXUndpbt)"/><path fill="rgb(216,255,0)" stroke="none" paint-order="stroke" d="M 115.40550231933594 77.81818389892578 L 115.4221163187176 77.81818389892578 L 115.4221163187176 130.45454788208008 L 115.40550231933594 130.45454788208008 L 115.40550231933594 77.81818389892578" fill-opacity="1" clip-path="url(#ZAvyfXUndpbt)"/><path fill="rgb(225,255,0)" stroke="none" paint-order="stroke" d="M 115.422119140625 77.81818389892578 L 115.44128913991153 77.81818389892578 L 115.44128913991153 130.45454788208008 L 115.422119140625 130.45454788208008 L 115.422119140625 77.81818389892578" fill-opacity="1" clip-path="url(#ZAvyfXUndpbt)"/><path fill="rgb(234,255,0)" stroke="none" paint-order="stroke" d="M 115.44129180908203 77.81818389892578 L 115.461739808321 77.81818389892578 L 115.461739808321 130.45454788208008 L 115.44129180908203 130.45454788208008 L 115.44129180908203 77.81818389892578" fill-opacity="1" clip-path="url(#ZAvyfXUndpbt)"/><path fill="rgb(252,255,0)" stroke="none" paint-order="stroke" d="M 115.46173858642578 77.81818389892578 L 115.48346458561718 77.81818389892578 L 115.48346458561718 130.45454788208008 L 115.46173858642578 130.45454788208008 L 115.46173858642578 77.81818389892578" fill-opacity="1" clip-path="url(#ZAvyfXUndpbt)"/><path fill="rgb(255,248,0)" stroke="none" paint-order="stroke" d="M 115.48346710205078 77.81818389892578 L 115.50519310124218 77.81818389892578 L 115.50519310124218 130.45454788208008 L 115.48346710205078 130.45454788208008 L 115.48346710205078 77.81818389892578" fill-opacity="1" clip-path="url(#ZAvyfXUndpbt)"/><path fill="rgb(255,239,0)" stroke="none" paint-order="stroke" d="M 115.50518798828125 77.81818389892578 L 115.52563598752022 77.81818389892578 L 115.52563598752022 130.45454788208008 L 115.50518798828125 130.45454788208008 L 115.50518798828125 77.81818389892578" fill-opacity="1" clip-path="url(#ZAvyfXUndpbt)"/><path fill="rgb(255,232,0)" stroke="none" paint-order="stroke" d="M 115.525634765625 77.81818389892578 L 115.54608276486397 77.81818389892578 L 115.54608276486397 130.45454788208008 L 115.525634765625 130.45454788208008 L 115.525634765625 77.81818389892578" fill-opacity="1" clip-path="url(#ZAvyfXUndpbt)"/><path fill="rgb(255,223,0)" stroke="none" paint-order="stroke" d="M 115.54608917236328 77.81818389892578 L 115.56781517155468 77.81818389892578 L 115.56781517155468 130.45454788208008 L 115.54608917236328 130.45454788208008 L 115.54608917236328 77.81818389892578" fill-opacity="1" clip-path="url(#ZAvyfXUndpbt)"/><path fill="rgb(255,203,0)" stroke="none" paint-order="stroke" d="M 115.56781005859375 77.81818389892578 L 115.58953605778515 77.81818389892578 L 115.58953605778515 130.45454788208008 L 115.56781005859375 130.45454788208008 L 115.56781005859375 77.81818389892578" fill-opacity="1" clip-path="url(#ZAvyfXUndpbt)"/><path fill="rgb(255,183,0)" stroke="none" paint-order="stroke" d="M 115.58953857421875 77.81818389892578 L 115.61126457341015 77.81818389892578 L 115.61126457341015 130.45454788208008 L 115.58953857421875 130.45454788208008 L 115.58953857421875 77.81818389892578" fill-opacity="1" clip-path="url(#ZAvyfXUndpbt)"/><path fill="rgb(255,165,0)" stroke="none" paint-order="stroke" d="M 115.61126708984375 77.81818389892578 L 115.65344109013677 77.81818389892578 L 115.65344109013677 130.45454788208008 L 115.61126708984375 130.45454788208008 L 115.61126708984375 77.81818389892578" fill-opacity="1" clip-path="url(#ZAvyfXUndpbt)"/><path fill="rgb(255,155,0)" stroke="none" paint-order="stroke" d="M 115.65343475341797 77.81818389892578 L 115.67388275265694 77.81818389892578 L 115.67388275265694 130.45454788208008 L 115.65343475341797 130.45454788208008 L 115.65343475341797 77.81818389892578" fill-opacity="1" clip-path="url(#ZAvyfXUndpbt)"/><path fill="rgb(255,144,0)" stroke="none" paint-order="stroke" d="M 115.67388916015625 77.81818389892578 L 115.69689315930009 77.81818389892578 L 115.69689315930009 130.45454788208008 L 115.67388916015625 130.45454788208008 L 115.67388916015625 77.81818389892578" fill-opacity="1" clip-path="url(#ZAvyfXUndpbt)"/><path fill="rgb(255,122,0)" stroke="none" paint-order="stroke" d="M 115.69689178466797 77.81818389892578 L 115.73906578496099 77.81818389892578 L 115.73906578496099 130.45454788208008 L 115.69689178466797 130.45454788208008 L 115.69689178466797 77.81818389892578" fill-opacity="1" clip-path="url(#ZAvyfXUndpbt)"/><path fill="rgb(255,91,0)" stroke="none" paint-order="stroke" d="M 115.73906707763672 77.81818389892578 L 115.78251907601953 77.81818389892578 L 115.78251907601953 130.45454788208008 L 115.73906707763672 130.45454788208008 L 115.73906707763672 77.81818389892578" fill-opacity="1" clip-path="url(#ZAvyfXUndpbt)"/><path fill="rgb(255,78,0)" stroke="none" paint-order="stroke" d="M 115.78251647949219 77.81818389892578 L 116.20936846733093 77.81818389892578 L 116.20936846733093 130.45454788208008 L 115.78251647949219 130.45454788208008 L 115.78251647949219 77.81818389892578" fill-opacity="1" clip-path="url(#ZAvyfXUndpbt)"/><path fill="rgb(255,21,0)" stroke="none" paint-order="stroke" d="M 116.20936584472656 77.81818389892578 L 116.22981384396553 77.81818389892578 L 116.22981384396553 130.45454788208008 L 116.20936584472656 130.45454788208008 L 116.20936584472656 77.81818389892578" fill-opacity="1" clip-path="url(#ZAvyfXUndpbt)"/><path fill="rgb(248,0,0)" stroke="none" paint-order="stroke" d="M 116.22981262207031 77.81818389892578 L 116.25026062130928 77.81818389892578 L 116.25026062130928 130.45454788208008 L 116.22981262207031 130.45454788208008 L 116.22981262207031 77.81818389892578" fill-opacity="1" clip-path="url(#ZAvyfXUndpbt)"/><path fill="rgb(244,0,0)" stroke="none" paint-order="stroke" d="M 116.2502670288086 77.81818389892578 L 116.89054501056671 77.81818389892578 L 116.89054501056671 130.45454788208008 L 116.2502670288086 130.45454788208008 L 116.2502670288086 77.81818389892578" fill-opacity="1" clip-path="url(#ZAvyfXUndpbt)"/><path fill="rgb(255,0,0)" stroke="none" paint-order="stroke" d="M 116.89054107666016 77.81818389892578 L 116.90971107594669 77.81818389892578 L 116.90971107594669 130.45454788208008 L 116.89054107666016 130.45454788208008 L 116.89054107666016 77.81818389892578" fill-opacity="1" clip-path="url(#ZAvyfXUndpbt)"/><path fill="rgb(255,78,0)" stroke="none" paint-order="stroke" d="M 116.90971374511719 77.81818389892578 L 116.93143974430859 77.81818389892578 L 116.93143974430859 130.45454788208008 L 116.90971374511719 130.45454788208008 L 116.90971374511719 77.81818389892578" fill-opacity="1" clip-path="url(#ZAvyfXUndpbt)"/><path fill="rgb(255,111,0)" stroke="none" paint-order="stroke" d="M 116.93143463134766 77.81818389892578 L 116.95316063053906 77.81818389892578 L 116.95316063053906 130.45454788208008 L 116.93143463134766 130.45454788208008 L 116.93143463134766 77.81818389892578" fill-opacity="1" clip-path="url(#ZAvyfXUndpbt)"/><path fill="rgb(255,155,0)" stroke="none" paint-order="stroke" d="M 116.95316314697266 77.81818389892578 L 116.97488914616406 77.81818389892578 L 116.97488914616406 130.45454788208008 L 116.95316314697266 130.45454788208008 L 116.95316314697266 77.81818389892578" fill-opacity="1" clip-path="url(#ZAvyfXUndpbt)"/><path fill="rgb(255,172,0)" stroke="none" paint-order="stroke" d="M 116.97489166259766 77.81818389892578 L 116.99661766178906 77.81818389892578 L 116.99661766178906 130.45454788208008 L 116.97489166259766 130.45454788208008 L 116.97489166259766 77.81818389892578" fill-opacity="1" clip-path="url(#ZAvyfXUndpbt)"/><path fill="rgb(255,183,0)" stroke="none" paint-order="stroke" d="M 116.99661254882812 77.81818389892578 L 117.10268654674292 77.81818389892578 L 117.10268654674292 130.45454788208008 L 116.99661254882812 130.45454788208008 L 116.99661254882812 77.81818389892578" fill-opacity="1" clip-path="url(#ZAvyfXUndpbt)"/><path fill="rgb(255,203,0)" stroke="none" paint-order="stroke" d="M 117.10269165039062 77.81818389892578 L 117.1231396496296 77.81818389892578 L 117.1231396496296 130.45454788208008 L 117.10269165039062 130.45454788208008 L 117.10269165039062 77.81818389892578" fill-opacity="1" clip-path="url(#ZAvyfXUndpbt)"/><path fill="rgb(255,213,0)" stroke="none" paint-order="stroke" d="M 117.12313842773438 77.81818389892578 L 117.14486442692578 77.81818389892578 L 117.14486442692578 130.45454788208008 L 117.12313842773438 130.45454788208008 L 117.12313842773438 77.81818389892578" fill-opacity="1" clip-path="url(#ZAvyfXUndpbt)"/><path fill="rgb(255,223,0)" stroke="none" paint-order="stroke" d="M 117.14486694335938 77.81818389892578 L 117.48609295487404 77.81818389892578 L 117.48609295487404 130.45454788208008 L 117.14486694335938 130.45454788208008 L 117.14486694335938 77.81818389892578" fill-opacity="1" clip-path="url(#ZAvyfXUndpbt)"/><path fill="rgb(255,248,0)" stroke="none" paint-order="stroke" d="M 117.48609161376953 77.81818389892578 L 117.5065396130085 77.81818389892578 L 117.5065396130085 130.45454788208008 L 117.48609161376953 130.45454788208008 L 117.48609161376953 77.81818389892578" fill-opacity="1" clip-path="url(#ZAvyfXUndpbt)"/><path fill="rgb(234,255,0)" stroke="none" paint-order="stroke" d="M 117.50653839111328 77.81818389892578 L 117.52698639035225 77.81818389892578 L 117.52698639035225 130.45454788208008 L 117.50653839111328 130.45454788208008 L 117.50653839111328 77.81818389892578" fill-opacity="1" clip-path="url(#ZAvyfXUndpbt)"/><path fill="rgb(225,255,0)" stroke="none" paint-order="stroke" d="M 117.52698516845703 77.81818389892578 L 117.59344116598368 77.81818389892578 L 117.59344116598368 130.45454788208008 L 117.52698516845703 130.45454788208008 L 117.52698516845703 77.81818389892578" fill-opacity="1" clip-path="url(#ZAvyfXUndpbt)"/><path fill="rgb(216,255,0)" stroke="none" paint-order="stroke" d="M 117.59344482421875 77.81818389892578 L 117.61389282345772 77.81818389892578 L 117.61389282345772 130.45454788208008 L 117.59344482421875 130.45454788208008 L 117.59344482421875 77.81818389892578" fill-opacity="1" clip-path="url(#ZAvyfXUndpbt)"/><path fill="rgb(201,255,0)" stroke="none" paint-order="stroke" d="M 117.6138916015625 77.81818389892578 L 117.6356176007539 77.81818389892578 L 117.6356176007539 130.45454788208008 L 117.6138916015625 130.45454788208008 L 117.6138916015625 77.81818389892578" fill-opacity="1" clip-path="url(#ZAvyfXUndpbt)"/><path fill="rgb(172,255,0)" stroke="none" paint-order="stroke" d="M 117.63561248779297 77.81818389892578 L 118.08163449168205 77.81818389892578 L 118.08163449168205 130.45454788208008 L 117.63561248779297 130.45454788208008 L 117.63561248779297 77.81818389892578" fill-opacity="1" clip-path="url(#ZAvyfXUndpbt)"/><path fill="rgb(153,255,0)" stroke="none" paint-order="stroke" d="M 118.08163452148438 77.81818389892578 L 118.10336052067578 77.81818389892578 L 118.10336052067578 130.45454788208008 L 118.08163452148438 130.45454788208008 L 118.08163452148438 77.81818389892578" fill-opacity="1" clip-path="url(#ZAvyfXUndpbt)"/><path fill="rgb(104,255,0)" stroke="none" paint-order="stroke" d="M 118.10336303710938 77.81818389892578 L 118.14425903558731 77.81818389892578 L 118.14425903558731 130.45454788208008 L 118.10336303710938 130.45454788208008 L 118.10336303710938 77.81818389892578" fill-opacity="1" clip-path="url(#ZAvyfXUndpbt)"/><path fill="rgb(93,255,0)" stroke="none" paint-order="stroke" d="M 118.14425659179688 77.81818389892578 L 118.38068659603596 77.81818389892578 L 118.38068659603596 130.45454788208008 L 118.14425659179688 130.45454788208008 L 118.14425659179688 77.81818389892578" fill-opacity="1" clip-path="url(#ZAvyfXUndpbt)"/><path fill="rgb(74,255,0)" stroke="none" paint-order="stroke" d="M 118.38069152832031 77.81818389892578 L 118.40113952755928 77.81818389892578 L 118.40113952755928 130.45454788208008 L 118.38069152832031 130.45454788208008 L 118.38069152832031 77.81818389892578" fill-opacity="1" clip-path="url(#ZAvyfXUndpbt)"/><path fill="rgb(62,255,0)" stroke="none" paint-order="stroke" d="M 118.40113830566406 77.81818389892578 L 118.42158630490303 77.81818389892578 L 118.42158630490303 130.45454788208008 L 118.40113830566406 130.45454788208008 L 118.40113830566406 77.81818389892578" fill-opacity="1" clip-path="url(#ZAvyfXUndpbt)"/><path fill="rgb(20,255,0)" stroke="none" paint-order="stroke" d="M 118.42158508300781 77.81818389892578 L 118.44331108219922 77.81818389892578 L 118.44331108219922 130.45454788208008 L 118.42158508300781 130.45454788208008 L 118.42158508300781 77.81818389892578" fill-opacity="1" clip-path="url(#ZAvyfXUndpbt)"/><path fill="rgb(0,255,0)" stroke="none" paint-order="stroke" d="M 118.44331359863281 77.81818389892578 L 118.80626559257507 77.81818389892578 L 118.80626559257507 130.45454788208008 L 118.44331359863281 130.45454788208008 L 118.44331359863281 77.81818389892578" fill-opacity="1" clip-path="url(#ZAvyfXUndpbt)"/><path fill="rgb(35,255,0)" stroke="none" paint-order="stroke" d="M 118.80626678466797 77.81818389892578 L 118.82799278385937 77.81818389892578 L 118.82799278385937 130.45454788208008 L 118.80626678466797 130.45454788208008 L 118.80626678466797 77.81818389892578" fill-opacity="1" clip-path="url(#ZAvyfXUndpbt)"/><path fill="rgb(62,255,0)" stroke="none" paint-order="stroke" d="M 118.82798767089844 77.81818389892578 L 118.8484356701374 77.81818389892578 L 118.8484356701374 130.45454788208008 L 118.82798767089844 130.45454788208008 L 118.82798767089844 77.81818389892578" fill-opacity="1" clip-path="url(#ZAvyfXUndpbt)"/><path fill="rgb(104,255,0)" stroke="none" paint-order="stroke" d="M 118.84843444824219 77.81818389892578 L 118.87016044743359 77.81818389892578 L 118.87016044743359 130.45454788208008 L 118.84843444824219 130.45454788208008 L 118.84843444824219 77.81818389892578" fill-opacity="1" clip-path="url(#ZAvyfXUndpbt)"/><path fill="rgb(136,255,0)" stroke="none" paint-order="stroke" d="M 118.87016296386719 77.81818389892578 L 118.89061096310616 77.81818389892578 L 118.89061096310616 130.45454788208008 L 118.87016296386719 130.45454788208008 L 118.87016296386719 77.81818389892578" fill-opacity="1" clip-path="url(#ZAvyfXUndpbt)"/><path fill="rgb(201,255,0)" stroke="none" paint-order="stroke" d="M 118.89060974121094 77.81818389892578 L 118.91233574040234 77.81818389892578 L 118.91233574040234 130.45454788208008 L 118.89060974121094 130.45454788208008 L 118.89060974121094 77.81818389892578" fill-opacity="1" clip-path="url(#ZAvyfXUndpbt)"/><path fill="rgb(255,223,0)" stroke="none" paint-order="stroke" d="M 118.91233825683594 77.81818389892578 L 118.9327862560749 77.81818389892578 L 118.9327862560749 130.45454788208008 L 118.91233825683594 130.45454788208008 L 118.91233825683594 77.81818389892578" fill-opacity="1" clip-path="url(#ZAvyfXUndpbt)"/><path fill="rgb(255,155,0)" stroke="none" paint-order="stroke" d="M 118.93278503417969 77.81818389892578 L 118.95451103337109 77.81818389892578 L 118.95451103337109 130.45454788208008 L 118.93278503417969 130.45454788208008 L 118.93278503417969 77.81818389892578" fill-opacity="1" clip-path="url(#ZAvyfXUndpbt)"/><path fill="rgb(255,111,0)" stroke="none" paint-order="stroke" d="M 118.95451354980469 77.81818389892578 L 118.97623954899609 77.81818389892578 L 118.97623954899609 130.45454788208008 L 118.95451354980469 130.45454788208008 L 118.95451354980469 77.81818389892578" fill-opacity="1" clip-path="url(#ZAvyfXUndpbt)"/><path fill="rgb(255,66,0)" stroke="none" paint-order="stroke" d="M 118.97623443603516 77.81818389892578 L 118.99668243527412 77.81818389892578 L 118.99668243527412 130.45454788208008 L 118.97623443603516 130.45454788208008 L 118.97623443603516 77.81818389892578" fill-opacity="1" clip-path="url(#ZAvyfXUndpbt)"/><path fill="rgb(255,52,0)" stroke="none" paint-order="stroke" d="M 118.99668884277344 77.81818389892578 L 119.04014084115624 77.81818389892578 L 119.04014084115624 130.45454788208008 L 118.99668884277344 130.45454788208008 L 118.99668884277344 77.81818389892578" fill-opacity="1" clip-path="url(#ZAvyfXUndpbt)"/><path fill="rgb(255,37,0)" stroke="none" paint-order="stroke" d="M 119.0401382446289 77.81818389892578 L 119.8503902554512 77.81818389892578 L 119.8503902554512 130.45454788208008 L 119.0401382446289 130.45454788208008 L 119.0401382446289 77.81818389892578" fill-opacity="1" clip-path="url(#ZAvyfXUndpbt)"/><path fill="rgb(255,21,0)" stroke="none" paint-order="stroke" d="M 119.85038757324219 77.81818389892578 L 119.87083557248116 77.81818389892578 L 119.87083557248116 130.45454788208008 L 119.85038757324219 130.45454788208008 L 119.85038757324219 77.81818389892578" fill-opacity="1" clip-path="url(#ZAvyfXUndpbt)"/><path fill="rgb(255,0,0)" stroke="none" paint-order="stroke" d="M 119.87083435058594 77.81818389892578 L 119.89383834972978 77.81818389892578 L 119.89383834972978 130.45454788208008 L 119.87083435058594 130.45454788208008 L 119.87083435058594 77.81818389892578" fill-opacity="1" clip-path="url(#ZAvyfXUndpbt)"/><path fill="rgb(252,0,0)" stroke="none" paint-order="stroke" d="M 119.89384460449219 77.81818389892578 L 119.91301460377872 77.81818389892578 L 119.91301460377872 130.45454788208008 L 119.89384460449219 130.45454788208008 L 119.89384460449219 77.81818389892578" fill-opacity="1" clip-path="url(#ZAvyfXUndpbt)"/><path fill="rgb(248,0,0)" stroke="none" paint-order="stroke" d="M 119.91300964355469 77.81818389892578 L 119.93473564274609 77.81818389892578 L 119.93473564274609 130.45454788208008 L 119.91300964355469 130.45454788208008 L 119.91300964355469 77.81818389892578" fill-opacity="1" clip-path="url(#ZAvyfXUndpbt)"/><path fill="rgb(244,0,0)" stroke="none" paint-order="stroke" d="M 119.93473815917969 77.81818389892578 L 120.33986416459084 77.81818389892578 L 120.33986416459084 130.45454788208008 L 119.93473815917969 130.45454788208008 L 119.93473815917969 77.81818389892578" fill-opacity="1" clip-path="url(#ZAvyfXUndpbt)"/><path fill="rgb(248,0,0)" stroke="none" paint-order="stroke" d="M 120.3398666381836 77.81818389892578 L 120.38204063847661 77.81818389892578 L 120.38204063847661 130.45454788208008 L 120.3398666381836 130.45454788208008 L 120.3398666381836 77.81818389892578" fill-opacity="1" clip-path="url(#ZAvyfXUndpbt)"/><path fill="rgb(252,0,0)" stroke="none" paint-order="stroke" d="M 120.38203430175781 77.81818389892578 L 120.40248230099678 77.81818389892578 L 120.40248230099678 130.45454788208008 L 120.38203430175781 130.45454788208008 L 120.38203430175781 77.81818389892578" fill-opacity="1" clip-path="url(#ZAvyfXUndpbt)"/><path fill="rgb(255,0,0)" stroke="none" paint-order="stroke" d="M 120.4024887084961 77.81818389892578 L 120.46894470602274 77.81818389892578 L 120.46894470602274 130.45454788208008 L 120.4024887084961 130.45454788208008 L 120.4024887084961 77.81818389892578" fill-opacity="1" clip-path="url(#ZAvyfXUndpbt)"/><path fill="rgb(255,21,0)" stroke="none" paint-order="stroke" d="M 120.46894073486328 77.81818389892578 L 120.48811073414981 77.81818389892578 L 120.48811073414981 130.45454788208008 L 120.46894073486328 130.45454788208008 L 120.46894073486328 77.81818389892578" fill-opacity="1" clip-path="url(#ZAvyfXUndpbt)"/><path fill="rgb(255,37,0)" stroke="none" paint-order="stroke" d="M 120.48811340332031 77.81818389892578 L 120.51111740246415 77.81818389892578 L 120.51111740246415 130.45454788208008 L 120.48811340332031 130.45454788208008 L 120.48811340332031 77.81818389892578" fill-opacity="1" clip-path="url(#ZAvyfXUndpbt)"/><path fill="rgb(255,52,0)" stroke="none" paint-order="stroke" d="M 120.51111602783203 77.81818389892578 L 120.53028602711856 77.81818389892578 L 120.53028602711856 130.45454788208008 L 120.51111602783203 130.45454788208008 L 120.51111602783203 77.81818389892578" fill-opacity="1" clip-path="url(#ZAvyfXUndpbt)"/><path fill="rgb(255,66,0)" stroke="none" paint-order="stroke" d="M 120.53028869628906 77.81818389892578 L 120.57374069467187 77.81818389892578 L 120.57374069467187 130.45454788208008 L 120.53028869628906 130.45454788208008 L 120.53028869628906 77.81818389892578" fill-opacity="1" clip-path="url(#ZAvyfXUndpbt)"/><path fill="rgb(255,78,0)" stroke="none" paint-order="stroke" d="M 120.57373809814453 77.81818389892578 L 120.59546409733593 77.81818389892578 L 120.59546409733593 130.45454788208008 L 120.57373809814453 130.45454788208008 L 120.57373809814453 77.81818389892578" fill-opacity="1" clip-path="url(#ZAvyfXUndpbt)"/><path fill="rgb(255,99,0)" stroke="none" paint-order="stroke" d="M 120.59546661376953 77.81818389892578 L 120.6159146130085 77.81818389892578 L 120.6159146130085 130.45454788208008 L 120.59546661376953 130.45454788208008 L 120.59546661376953 77.81818389892578" fill-opacity="1" clip-path="url(#ZAvyfXUndpbt)"/><path fill="rgb(255,122,0)" stroke="none" paint-order="stroke" d="M 120.61591339111328 77.81818389892578 L 120.65936538949609 77.81818389892578 L 120.65936538949609 130.45454788208008 L 120.61591339111328 130.45454788208008 L 120.61591339111328 77.81818389892578" fill-opacity="1" clip-path="url(#ZAvyfXUndpbt)"/><path fill="rgb(255,133,0)" stroke="none" paint-order="stroke" d="M 120.65936279296875 77.81818389892578 L 121.83128881454468 77.81818389892578 L 121.83128881454468 130.45454788208008 L 120.65936279296875 130.45454788208008 L 120.65936279296875 77.81818389892578" fill-opacity="1" clip-path="url(#ZAvyfXUndpbt)"/><path fill="rgb(255,122,0)" stroke="none" paint-order="stroke" d="M 121.83129119873047 77.81818389892578 L 122.59809118509293 77.81818389892578 L 122.59809118509293 130.45454788208008 L 121.83129119873047 130.45454788208008 L 121.83129119873047 77.81818389892578" fill-opacity="1" clip-path="url(#ZAvyfXUndpbt)"/><path fill="rgb(255,99,0)" stroke="none" paint-order="stroke" d="M 122.59809112548828 77.81818389892578 L 122.61853912472725 77.81818389892578 L 122.61853912472725 130.45454788208008 L 122.59809112548828 130.45454788208008 L 122.59809112548828 77.81818389892578" fill-opacity="1" clip-path="url(#ZAvyfXUndpbt)"/><path fill="rgb(255,91,0)" stroke="none" paint-order="stroke" d="M 122.61853790283203 77.81818389892578 L 175.44977951049805 77.81818389892578 L 175.44977951049805 130.45454788208008 L 122.61853790283203 130.45454788208008 L 122.61853790283203 77.81818389892578" fill-opacity="1" clip-path="url(#ZAvyfXUndpbt)"/><path fill="rgb(0,255,40)" stroke="none" paint-order="stroke" d="M 175.4497833251953 77.81818389892578 L 198.86402130126953 77.81818389892578 L 198.86402130126953 130.45454788208008 L 175.4497833251953 130.45454788208008 L 175.4497833251953 77.81818389892578" fill-opacity="1" clip-path="url(#ZAvyfXUndpbt)"/><path fill="rgb(0,255,0)" stroke="none" paint-order="stroke" d="M 198.864013671875 77.81818389892578 L 198.88446167111397 77.81818389892578 L 198.88446167111397 130.45454788208008 L 198.864013671875 130.45454788208008 L 198.864013671875 77.81818389892578" fill-opacity="1" clip-path="url(#ZAvyfXUndpbt)"/><path fill="rgb(104,255,0)" stroke="none" paint-order="stroke" d="M 198.88446044921875 77.81818389892578 L 198.90618644841015 77.81818389892578 L 198.90618644841015 130.45454788208008 L 198.88446044921875 130.45454788208008 L 198.88446044921875 77.81818389892578" fill-opacity="1" clip-path="url(#ZAvyfXUndpbt)"/><path fill="rgb(153,255,0)" stroke="none" paint-order="stroke" d="M 198.90618896484375 77.81818389892578 L 198.92663696408272 77.81818389892578 L 198.92663696408272 130.45454788208008 L 198.90618896484375 130.45454788208008 L 198.90618896484375 77.81818389892578" fill-opacity="1" clip-path="url(#ZAvyfXUndpbt)"/><path fill="rgb(210,255,0)" stroke="none" paint-order="stroke" d="M 198.9266357421875 77.81818389892578 L 198.94708374142647 77.81818389892578 L 198.94708374142647 130.45454788208008 L 198.9266357421875 130.45454788208008 L 198.9266357421875 77.81818389892578" fill-opacity="1" clip-path="url(#ZAvyfXUndpbt)"/><path fill="rgb(243,255,0)" stroke="none" paint-order="stroke" d="M 198.94708251953125 77.81818389892578 L 198.9700865186751 77.81818389892578 L 198.9700865186751 130.45454788208008 L 198.94708251953125 130.45454788208008 L 198.94708251953125 77.81818389892578" fill-opacity="1" clip-path="url(#ZAvyfXUndpbt)"/><path fill="rgb(255,248,0)" stroke="none" paint-order="stroke" d="M 198.9700927734375 77.81818389892578 L 198.99054077267647 77.81818389892578 L 198.99054077267647 130.45454788208008 L 198.9700927734375 130.45454788208008 L 198.9700927734375 77.81818389892578" fill-opacity="1" clip-path="url(#ZAvyfXUndpbt)"/><path fill="rgb(255,232,0)" stroke="none" paint-order="stroke" d="M 198.99053955078125 77.81818389892578 L 199.03399154916406 77.81818389892578 L 199.03399154916406 130.45454788208008 L 198.99053955078125 130.45454788208008 L 198.99053955078125 77.81818389892578" fill-opacity="1" clip-path="url(#ZAvyfXUndpbt)"/><path fill="rgb(255,223,0)" stroke="none" paint-order="stroke" d="M 199.03399658203125 77.81818389892578 L 199.07744858041406 77.81818389892578 L 199.07744858041406 130.45454788208008 L 199.03399658203125 130.45454788208008 L 199.03399658203125 77.81818389892578" fill-opacity="1" clip-path="url(#ZAvyfXUndpbt)"/><path fill="rgb(255,183,0)" stroke="none" paint-order="stroke" d="M 199.0774383544922 77.81818389892578 L 199.09788635373116 77.81818389892578 L 199.09788635373116 130.45454788208008 L 199.0774383544922 130.45454788208008 L 199.0774383544922 77.81818389892578" fill-opacity="1" clip-path="url(#ZAvyfXUndpbt)"/><path fill="rgb(255,155,0)" stroke="none" paint-order="stroke" d="M 199.09788513183594 77.81818389892578 L 199.11961113102734 77.81818389892578 L 199.11961113102734 130.45454788208008 L 199.09788513183594 130.45454788208008 L 199.09788513183594 77.81818389892578" fill-opacity="1" clip-path="url(#ZAvyfXUndpbt)"/><path fill="rgb(255,144,0)" stroke="none" paint-order="stroke" d="M 199.11961364746094 77.81818389892578 L 199.1400616466999 77.81818389892578 L 199.1400616466999 130.45454788208008 L 199.11961364746094 130.45454788208008 L 199.11961364746094 77.81818389892578" fill-opacity="1" clip-path="url(#ZAvyfXUndpbt)"/><path fill="rgb(255,122,0)" stroke="none" paint-order="stroke" d="M 199.1400604248047 77.81818389892578 L 199.16050842404366 77.81818389892578 L 199.16050842404366 130.45454788208008 L 199.1400604248047 130.45454788208008 L 199.1400604248047 77.81818389892578" fill-opacity="1" clip-path="url(#ZAvyfXUndpbt)"/><path fill="rgb(255,99,0)" stroke="none" paint-order="stroke" d="M 199.16050720214844 77.81818389892578 L 199.18223320133984 77.81818389892578 L 199.18223320133984 130.45454788208008 L 199.16050720214844 130.45454788208008 L 199.16050720214844 77.81818389892578" fill-opacity="1" clip-path="url(#ZAvyfXUndpbt)"/><path fill="rgb(255,78,0)" stroke="none" paint-order="stroke" d="M 199.18223571777344 77.81818389892578 L 199.2026837170124 77.81818389892578 L 199.2026837170124 130.45454788208008 L 199.18223571777344 130.45454788208008 L 199.18223571777344 77.81818389892578" fill-opacity="1" clip-path="url(#ZAvyfXUndpbt)"/><path fill="rgb(252,0,0)" stroke="none" paint-order="stroke" d="M 199.2026824951172 77.81818389892578 L 199.22568649426103 77.81818389892578 L 199.22568649426103 130.45454788208008 L 199.2026824951172 130.45454788208008 L 199.2026824951172 77.81818389892578" fill-opacity="1" clip-path="url(#ZAvyfXUndpbt)"/><path fill="rgb(235,0,0)" stroke="none" paint-order="stroke" d="M 199.22569274902344 77.81818389892578 L 199.24741874821484 77.81818389892578 L 199.24741874821484 130.45454788208008 L 199.22569274902344 130.45454788208008 L 199.22569274902344 77.81818389892578" fill-opacity="1" clip-path="url(#ZAvyfXUndpbt)"/><path fill="rgb(227,0,0)" stroke="none" paint-order="stroke" d="M 199.24742126464844 77.81818389892578 L 200.0359472632408 77.81818389892578 L 200.0359472632408 130.45454788208008 L 199.24742126464844 130.45454788208008 L 199.24742126464844 77.81818389892578" fill-opacity="1" clip-path="url(#ZAvyfXUndpbt)"/><path fill="rgb(235,0,0)" stroke="none" paint-order="stroke" d="M 200.03594970703125 77.81818389892578 L 200.05511970631778 77.81818389892578 L 200.05511970631778 130.45454788208008 L 200.03594970703125 130.45454788208008 L 200.03594970703125 77.81818389892578" fill-opacity="1" clip-path="url(#ZAvyfXUndpbt)"/><path fill="rgb(239,0,0)" stroke="none" paint-order="stroke" d="M 200.05511474609375 77.81818389892578 L 200.0781187452376 77.81818389892578 L 200.0781187452376 130.45454788208008 L 200.05511474609375 130.45454788208008 L 200.05511474609375 77.81818389892578" fill-opacity="1" clip-path="url(#ZAvyfXUndpbt)"/><path fill="rgb(244,0,0)" stroke="none" paint-order="stroke" d="M 200.078125 77.81818389892578 L 200.35545098781586 77.81818389892578 L 200.35545098781586 130.45454788208008 L 200.078125 130.45454788208008 L 200.078125 77.81818389892578" fill-opacity="1" clip-path="url(#ZAvyfXUndpbt)"/><path fill="rgb(252,0,0)" stroke="none" paint-order="stroke" d="M 200.35543823242188 77.81818389892578 L 200.3746082317084 77.81818389892578 L 200.3746082317084 130.45454788208008 L 200.35543823242188 130.45454788208008 L 200.35543823242188 77.81818389892578" fill-opacity="1" clip-path="url(#ZAvyfXUndpbt)"/><path fill="rgb(255,37,0)" stroke="none" paint-order="stroke" d="M 200.37461853027344 77.81818389892578 L 200.39634452946484 77.81818389892578 L 200.39634452946484 130.45454788208008 L 200.37461853027344 130.45454788208008 L 200.37461853027344 77.81818389892578" fill-opacity="1" clip-path="url(#ZAvyfXUndpbt)"/><path fill="rgb(255,78,0)" stroke="none" paint-order="stroke" d="M 200.39634704589844 77.81818389892578 L 200.41807304508984 77.81818389892578 L 200.41807304508984 130.45454788208008 L 200.39634704589844 130.45454788208008 L 200.39634704589844 77.81818389892578" fill-opacity="1" clip-path="url(#ZAvyfXUndpbt)"/><path fill="rgb(255,99,0)" stroke="none" paint-order="stroke" d="M 200.41806030273438 77.81818389892578 L 200.46151230111718 77.81818389892578 L 200.46151230111718 130.45454788208008 L 200.41806030273438 130.45454788208008 L 200.41806030273438 77.81818389892578" fill-opacity="1" clip-path="url(#ZAvyfXUndpbt)"/><path fill="rgb(255,111,0)" stroke="none" paint-order="stroke" d="M 200.46151733398438 77.81818389892578 L 201.0583433508873 77.81818389892578 L 201.0583433508873 130.45454788208008 L 200.46151733398438 130.45454788208008 L 200.46151733398438 77.81818389892578" fill-opacity="1" clip-path="url(#ZAvyfXUndpbt)"/><path fill="rgb(255,99,0)" stroke="none" paint-order="stroke" d="M 201.058349609375 77.81818389892578 L 201.07879760861397 77.81818389892578 L 201.07879760861397 130.45454788208008 L 201.058349609375 130.45454788208008 L 201.058349609375 77.81818389892578" fill-opacity="1" clip-path="url(#ZAvyfXUndpbt)"/><path fill="rgb(255,66,0)" stroke="none" paint-order="stroke" d="M 201.07879638671875 77.81818389892578 L 201.10052238591015 77.81818389892578 L 201.10052238591015 130.45454788208008 L 201.07879638671875 130.45454788208008 L 201.07879638671875 77.81818389892578" fill-opacity="1" clip-path="url(#ZAvyfXUndpbt)"/><path fill="rgb(255,21,0)" stroke="none" paint-order="stroke" d="M 201.10052490234375 77.81818389892578 L 201.12225090153515 77.81818389892578 L 201.12225090153515 130.45454788208008 L 201.10052490234375 130.45454788208008 L 201.10052490234375 77.81818389892578" fill-opacity="1" clip-path="url(#ZAvyfXUndpbt)"/><path fill="rgb(255,0,0)" stroke="none" paint-order="stroke" d="M 201.1222381591797 77.81818389892578 L 201.14140815846622 77.81818389892578 L 201.14140815846622 130.45454788208008 L 201.1222381591797 130.45454788208008 L 201.1222381591797 77.81818389892578" fill-opacity="1" clip-path="url(#ZAvyfXUndpbt)"/><path fill="rgb(252,0,0)" stroke="none" paint-order="stroke" d="M 201.14141845703125 77.81818389892578 L 202.76831245422363 77.81818389892578 L 202.76831245422363 130.45454788208008 L 201.14141845703125 130.45454788208008 L 201.14141845703125 77.81818389892578" fill-opacity="1" clip-path="url(#ZAvyfXUndpbt)"/><path fill="rgb(251,0,7)" stroke="none" paint-order="stroke" d="M 58.5 130.4545440673828 L 202.768310546875 130.4545440673828 L 202.768310546875 183.0909080505371 L 58.5 183.0909080505371 L 58.5 130.4545440673828" fill-opacity="1" clip-path="url(#hETrDRsalMcm)"/><path fill="rgb(105,29,48)" stroke="none" paint-order="stroke" d="M 95.14409637451172 183.09091186523438 L 95.20799637585878 183.09091186523438 L 95.20799637585878 498.9090881347656 L 95.14409637451172 498.9090881347656 L 95.14409637451172 183.09091186523438" fill-opacity="1" clip-path="url(#HarDVqIcdfQt)"/><path fill="rgb(105,29,48)" stroke="none" paint-order="stroke" d="M 98.83112335205078 183.09091186523438 L 98.89502335339785 183.09091186523438 L 98.89502335339785 498.9090881347656 L 98.83112335205078 498.9090881347656 L 98.83112335205078 183.09091186523438" fill-opacity="1" clip-path="url(#HarDVqIcdfQt)"/><path fill="rgb(105,29,48)" stroke="none" paint-order="stroke" d="M 104.48627471923828 183.09091186523438 L 104.55017472058535 183.09091186523438 L 104.55017472058535 498.9090881347656 L 104.48627471923828 498.9090881347656 L 104.48627471923828 183.09091186523438" fill-opacity="1" clip-path="url(#HarDVqIcdfQt)"/><path fill="rgb(255,188,66)" stroke="none" paint-order="stroke" d="M 150.57862854003906 183.09091186523438 L 153.21258664131165 183.09091186523438 L 153.21258664131165 498.9090881347656 L 150.57862854003906 498.9090881347656 L 150.57862854003906 183.09091186523438" fill-opacity="1" clip-path="url(#USXVKONoZIud)"/><path fill="rgb(255,188,66)" stroke="none" paint-order="stroke" d="M 154.1570281982422 183.09091186523438 L 155.32895421981812 183.09091186523438 L 155.32895421981812 498.9090881347656 L 154.1570281982422 498.9090881347656 L 154.1570281982422 183.09091186523438" fill-opacity="1" clip-path="url(#USXVKONoZIud)"/><path fill="rgb(255,188,66)" stroke="none" paint-order="stroke" d="M 155.94622802734375 183.09091186523438 L 161.63716220855713 183.09091186523438 L 161.63716220855713 498.9090881347656 L 155.94622802734375 498.9090881347656 L 155.94622802734375 183.09091186523438" fill-opacity="1" clip-path="url(#USXVKONoZIud)"/><path fill="rgb(255,188,66)" stroke="none" paint-order="stroke" d="M 170.21893310546875 183.09091186523438 L 171.27839505672455 183.09091186523438 L 171.27839505672455 498.9090881347656 L 170.21893310546875 498.9090881347656 L 170.21893310546875 183.09091186523438" fill-opacity="1" clip-path="url(#USXVKONoZIud)"/><path fill="rgb(255,188,66)" stroke="none" paint-order="stroke" d="M 172.927001953125 183.09091186523438 L 173.47781997919083 183.09091186523438 L 173.47781997919083 498.9090881347656 L 172.927001953125 498.9090881347656 L 172.927001953125 183.09091186523438" fill-opacity="1" clip-path="url(#USXVKONoZIud)"/><path fill="rgb(162,174,187)" stroke="none" paint-order="stroke" d="M 66.79933166503906 183.09091186523438 L 66.86323166638613 183.09091186523438 L 66.86323166638613 498.9090881347656 L 66.79933166503906 498.9090881347656 L 66.79933166503906 183.09091186523438" fill-opacity="1" clip-path="url(#lwztmfpwGkNy)"/><path fill="rgb(162,174,187)" stroke="none" paint-order="stroke" d="M 68.0159912109375 183.09091186523438 L 68.07989121228456 183.09091186523438 L 68.07989121228456 498.9090881347656 L 68.0159912109375 498.9090881347656 L 68.0159912109375 183.09091186523438" fill-opacity="1" clip-path="url(#lwztmfpwGkNy)"/><path fill="rgb(162,174,187)" stroke="none" paint-order="stroke" d="M 102.62422943115234 183.09091186523438 L 102.68812943249941 183.09091186523438 L 102.68812943249941 498.9090881347656 L 102.62422943115234 498.9090881347656 L 102.62422943115234 183.09091186523438" fill-opacity="1" clip-path="url(#lwztmfpwGkNy)"/><path fill="rgb(162,174,187)" stroke="none" paint-order="stroke" d="M 142.75343322753906 183.09091186523438 L 142.81733322888613 183.09091186523438 L 142.81733322888613 498.9090881347656 L 142.75343322753906 498.9090881347656 L 142.75343322753906 183.09091186523438" fill-opacity="1" clip-path="url(#lwztmfpwGkNy)"/><path fill="rgb(162,174,187)" stroke="none" paint-order="stroke" d="M 143.9394073486328 183.09091186523438 L 144.00330734997988 183.09091186523438 L 144.00330734997988 498.9090881347656 L 143.9394073486328 498.9090881347656 L 143.9394073486328 183.09091186523438" fill-opacity="1" clip-path="url(#lwztmfpwGkNy)"/><path fill="rgb(255,188,66)" stroke="none" paint-order="stroke" d="M 69.60326385498047 183.09091186523438 L 71.27744388580322 183.09091186523438 L 71.27744388580322 498.9090881347656 L 69.60326385498047 498.9090881347656 L 69.60326385498047 183.09091186523438" fill-opacity="1" clip-path="url(#uQCMTvQnxLyI)"/><path fill="rgb(255,188,66)" stroke="none" paint-order="stroke" d="M 71.9662857055664 183.09091186523438 L 75.12294578552246 183.09091186523438 L 75.12294578552246 498.9090881347656 L 71.9662857055664 498.9090881347656 L 71.9662857055664 183.09091186523438" fill-opacity="1" clip-path="url(#uQCMTvQnxLyI)"/><path fill="rgb(216,17,89)" stroke="none" paint-order="stroke" d="M 109.10624694824219 183.09091186523438 L 109.17014694958925 183.09091186523438 L 109.17014694958925 498.9090881347656 L 109.10624694824219 498.9090881347656 L 109.10624694824219 183.09091186523438" fill-opacity="1" clip-path="url(#GlVVDeNBItMv)"/><path fill="rgb(216,17,89)" stroke="none" paint-order="stroke" d="M 109.10624694824219 183.09091186523438 L 109.17014694958925 183.09091186523438 L 109.17014694958925 498.9090881347656 L 109.10624694824219 498.9090881347656 L 109.10624694824219 183.09091186523438" fill-opacity="1" clip-path="url(#GlVVDeNBItMv)"/><path fill="rgb(216,17,89)" stroke="none" paint-order="stroke" d="M 175.4497833251953 183.09091186523438 L 175.51368332654238 183.09091186523438 L 175.51368332654238 498.9090881347656 L 175.4497833251953 498.9090881347656 L 175.4497833251953 183.09091186523438" fill-opacity="1" clip-path="url(#GlVVDeNBItMv)"/><path fill="rgb(216,17,89)" stroke="none" paint-order="stroke" d="M 177.87286376953125 183.09091186523438 L 177.93676377087831 183.09091186523438 L 177.93676377087831 498.9090881347656 L 177.87286376953125 498.9090881347656 L 177.87286376953125 183.09091186523438" fill-opacity="1" clip-path="url(#GlVVDeNBItMv)"/><path fill="rgb(33,131,128)" stroke="none" paint-order="stroke" d="M 132.10256958007812 183.09091186523438 L 139.63126754760742 183.09091186523438 L 139.63126754760742 498.9090881347656 L 132.10256958007812 498.9090881347656 L 132.10256958007812 183.09091186523438" fill-opacity="1" clip-path="url(#qnPfoiTKoigT)"/><path fill="rgb(115,210,222)" stroke="none" paint-order="stroke" d="M 125.6128921508789 183.09091186523438 L 131.16963624954224 183.09091186523438 L 131.16963624954224 498.9090881347656 L 125.6128921508789 498.9090881347656 L 125.6128921508789 183.09091186523438" fill-opacity="1" clip-path="url(#GyzwliqAzOAB)"/><path fill="rgb(115,210,222)" stroke="none" paint-order="stroke" d="M 146.5912628173828 183.09091186523438 L 149.38880491256714 183.09091186523438 L 149.38880491256714 498.9090881347656 L 146.5912628173828 498.9090881347656 L 146.5912628173828 183.09091186523438" fill-opacity="1" clip-path="url(#GyzwliqAzOAB)"/><path fill="rgb(28,49,68)" stroke="none" paint-order="stroke" d="M 162.4998016357422 183.09091186523438 L 169.45851182937622 183.09091186523438 L 169.45851182937622 498.9090881347656 L 162.4998016357422 498.9090881347656 L 162.4998016357422 183.09091186523438" fill-opacity="1" clip-path="url(#OfQfdXKQXTDz)"/><path fill="rgb(239,185,203)" stroke="none" paint-order="stroke" d="M 78.80614471435547 183.09091186523438 L 92.98427677154541 183.09091186523438 L 92.98427677154541 498.9090881347656 L 78.80614471435547 498.9090881347656 L 78.80614471435547 183.09091186523438" fill-opacity="1" clip-path="url(#ZlKpUTFkLZIE)"/><path fill="rgb(105,29,48)" stroke="none" paint-order="stroke" d="M 110.21554565429688 183.09091186523438 L 123.18468952178955 183.09091186523438 L 123.18468952178955 498.9090881347656 L 110.21554565429688 498.9090881347656 L 110.21554565429688 183.09091186523438" fill-opacity="1" clip-path="url(#THurmTtUNGkm)"/><path fill="rgb(105,29,48)" stroke="none" paint-order="stroke" d="M 198.73365783691406 183.09091186523438 L 202.76830387115479 183.09091186523438 L 202.76830387115479 498.9090881347656 L 198.73365783691406 498.9090881347656 L 198.73365783691406 183.09091186523438" fill-opacity="1" clip-path="url(#THurmTtUNGkm)"/><path fill="rgb(255,188,66)" stroke="none" paint-order="stroke" d="M 157.63063049316406 498.9090881347656 L 157.65235649235547 498.9090881347656 L 157.65235649235547 551.5454521179199 L 157.63063049316406 551.5454521179199 L 157.63063049316406 498.9090881347656" fill-opacity="1" clip-path="url(#mlFoJxqhODWG)"/><path fill="rgb(255,188,66)" stroke="none" paint-order="stroke" d="M 158.35653686523438 498.9090881347656 L 158.46261086314917 498.9090881347656 L 158.46261086314917 551.5454521179199 L 158.35653686523438 551.5454521179199 L 158.35653686523438 498.9090881347656" fill-opacity="1" clip-path="url(#mlFoJxqhODWG)"/><path fill="rgb(255,188,66)" stroke="none" paint-order="stroke" d="M 158.9520721435547 498.9090881347656 L 170.38761615753174 498.9090881347656 L 170.38761615753174 551.5454521179199 L 158.9520721435547 551.5454521179199 L 158.9520721435547 498.9090881347656" fill-opacity="1" clip-path="url(#mlFoJxqhODWG)"/><path fill="rgb(143,45,86)" stroke="none" paint-order="stroke" d="M 58.5 551.5454711914062 L 202.768310546875 551.5454711914062 L 202.768310546875 604.1818351745605 L 58.5 604.1818351745605 L 58.5 551.5454711914062" fill-opacity="1" clip-path="url(#WwfteVPhZbTR)"/><path fill="none" stroke="rgb(0,0,0)" paint-order="fill" d="M 58.5 77.81818389892578 L 202.768310546875 77.81818389892578 L 202.768310546875 604.1818313598633 L 58.5 604.1818313598633 L 58.5 77.81818389892578" stroke-opacity="1" stroke-linejoin="bevel" stroke-miterlimit="10" stroke-dasharray="" clip-path="url(#fFhRXZiROGGy)"/><path fill="none" stroke="rgb(0,0,0)" paint-order="fill" d="M 58.5 630.5 L 1336.5 630.5" stroke-opacity="1" stroke-linejoin="bevel" stroke-miterlimit="10" stroke-dasharray=""/><path fill="none" stroke="rgb(0,0,0)" paint-order="fill" d="M 58.5 636.5 L 58.5 628.5 M 314.5 636.5 L 314.5 628.5 M 569.5 636.5 L 569.5 628.5 M 825.5 636.5 L 825.5 628.5 M 1080.5 636.5 L 1080.5 628.5 M 1336.5 636.5 L 1336.5 628.5" stroke-opacity="1" stroke-linejoin="bevel" stroke-miterlimit="10" stroke-dasharray=""/><path fill="none" stroke="rgb(0,0,0)" paint-order="fill" d="M 58.5 634.5 L 58.5 630.5 M 109.5 634.5 L 109.5 630.5 M 160.5 634.5 L 160.5 630.5 M 211.5 634.5 L 211.5 630.5 M 262.5 634.5 L 262.5 630.5 M 314.5 634.5 L 314.5 630.5 M 365.5 634.5 L 365.5 630.5 M 416.5 634.5 L 416.5 630.5 M 467.5 634.5 L 467.5 630.5 M 518.5 634.5 L 518.5 630.5 M 569.5 634.5 L 569.5 630.5 M 620.5 634.5 L 620.5 630.5 M 671.5 634.5 L 671.5 630.5 M 723.5 634.5 L 723.5 630.5 M 774.5 634.5 L 774.5 630.5 M 825.5 634.5 L 825.5 630.5 M 876.5 634.5 L 876.5 630.5 M 927.5 634.5 L 927.5 630.5 M 978.5 634.5 L 978.5 630.5 M 1029.5 634.5 L 1029.5 630.5 M 1080.5 634.5 L 1080.5 630.5 M 1132.5 634.5 L 1132.5 630.5 M 1183.5 634.5 L 1183.5 630.5 M 1234.5 634.5 L 1234.5 630.5 M 1285.5 634.5 L 1285.5 630.5 M 1336.5 634.5 L 1336.5 630.5" stroke-opacity="1" stroke-linejoin="bevel" stroke-miterlimit="10" stroke-dasharray=""/><text fill="rgb(68,68,68)" stroke="none" font-family="helvetica" font-size="11px" font-style="normal" font-weight="normal" text-decoration="normal" x="54.94166660308838" y="648.89013671875" text-anchor="start" dominant-baseline="alphabetic" transform="matrix(1, 0, 0, 1, 0.5, 0.5)" fill-opacity="1">0</text><text fill="rgb(68,68,68)" stroke="none" font-family="helvetica" font-size="11px" font-style="normal" font-weight="normal" text-decoration="normal" x="304.42500591278076" y="648.89013671875" text-anchor="start" dominant-baseline="alphabetic" transform="matrix(1, 0, 0, 1, 0.5, 0.5)" fill-opacity="1">200</text><text fill="rgb(68,68,68)" stroke="none" font-family="helvetica" font-size="11px" font-style="normal" font-weight="normal" text-decoration="normal" x="560.0250120162964" y="648.89013671875" text-anchor="start" dominant-baseline="alphabetic" transform="matrix(1, 0, 0, 1, 0.5, 0.5)" fill-opacity="1">400</text><text fill="rgb(68,68,68)" stroke="none" font-family="helvetica" font-size="11px" font-style="normal" font-weight="normal" text-decoration="normal" x="815.6249876022339" y="648.89013671875" text-anchor="start" dominant-baseline="alphabetic" transform="matrix(1, 0, 0, 1, 0.5, 0.5)" fill-opacity="1">600</text><text fill="rgb(68,68,68)" stroke="none" font-family="helvetica" font-size="11px" font-style="normal" font-weight="normal" text-decoration="normal" x="1071.2250242233276" y="648.89013671875" text-anchor="start" dominant-baseline="alphabetic" transform="matrix(1, 0, 0, 1, 0.5, 0.5)" fill-opacity="1">800</text><text fill="rgb(68,68,68)" stroke="none" font-family="helvetica" font-size="11px" font-style="normal" font-weight="normal" text-decoration="normal" x="1323.7666664123535" y="648.89013671875" text-anchor="start" dominant-baseline="alphabetic" transform="matrix(1, 0, 0, 1, 0.5, 0.5)" fill-opacity="1">1000</text><text fill="rgb(68,68,68)" stroke="none" font-family="helvetica" font-size="15pt" font-style="italic" font-weight="normal" text-decoration="normal" x="666.4416675567627" y="676.06982421875" text-anchor="start" dominant-baseline="alphabetic" transform="matrix(1, 0, 0, 1, 0.5, 0.5)" fill-opacity="1">time(s)</text><path fill="none" stroke="rgb(0,0,0)" paint-order="fill" d="M 58.5 630.5 L 58.5 51.5" stroke-opacity="1" stroke-linejoin="bevel" stroke-miterlimit="10" stroke-dasharray=""/><path fill="none" stroke="rgb(0,0,0)" paint-order="fill" d="M 52.5 551.5 L 60.5 551.5 M 52.5 446.5 L 60.5 446.5 M 52.5 341.5 L 60.5 341.5 M 52.5 235.5 L 60.5 235.5 M 52.5 130.5 L 60.5 130.5" stroke-opacity="1" stroke-linejoin="bevel" stroke-miterlimit="10" stroke-dasharray=""/><path fill="none" stroke="rgb(0,0,0)" paint-order="fill" d="M 54.5 572.5 L 58.5 572.5 M 54.5 593.5 L 58.5 593.5 M 54.5 614.5 L 58.5 614.5 M 54.5 551.5 L 58.5 551.5 M 54.5 530.5 L 58.5 530.5 M 54.5 509.5 L 58.5 509.5 M 54.5 488.5 L 58.5 488.5 M 54.5 467.5 L 58.5 467.5 M 54.5 446.5 L 58.5 446.5 M 54.5 425.5 L 58.5 425.5 M 54.5 404.5 L 58.5 404.5 M 54.5 383.5 L 58.5 383.5 M 54.5 362.5 L 58.5 362.5 M 54.5 341.5 L 58.5 341.5 M 54.5 319.5 L 58.5 319.5 M 54.5 298.5 L 58.5 298.5 M 54.5 277.5 L 58.5 277.5 M 54.5 256.5 L 58.5 256.5 M 54.5 235.5 L 58.5 235.5 M 54.5 214.5 L 58.5 214.5 M 54.5 193.5 L 58.5 193.5 M 54.5 172.5 L 58.5 172.5 M 54.5 151.5 L 58.5 151.5 M 54.5 130.5 L 58.5 130.5 M 54.5 109.5 L 58.5 109.5 M 54.5 88.5 L 58.5 88.5 M 54.5 67.5 L 58.5 67.5" stroke-opacity="1" stroke-linejoin="bevel" stroke-miterlimit="10" stroke-dasharray=""/><text fill="rgb(68,68,68)" stroke="none" font-family="helvetica" font-size="11px" font-style="normal" font-weight="normal" text-decoration="normal" x="34.46666622161865" y="554.9905395507812" text-anchor="start" dominant-baseline="alphabetic" transform="matrix(1, 0, 0, 1, 0.5, 0.5)" fill-opacity="1">2</text><text fill="rgb(68,68,68)" stroke="none" font-family="helvetica" font-size="11px" font-style="normal" font-weight="normal" text-decoration="normal" x="34.46666622161865" y="449.7178039550781" text-anchor="start" dominant-baseline="alphabetic" transform="matrix(1, 0, 0, 1, 0.5, 0.5)" fill-opacity="1">1</text><text fill="rgb(68,68,68)" stroke="none" font-family="helvetica" font-size="11px" font-style="normal" font-weight="normal" text-decoration="normal" x="40.88333320617676" y="344.445068359375" text-anchor="start" dominant-baseline="alphabetic" transform="matrix(1, 0, 0, 1, 0.5, 0.5)" fill-opacity="1">0</text><text fill="rgb(68,68,68)" stroke="none" font-family="helvetica" font-size="11px" font-style="normal" font-weight="normal" text-decoration="normal" x="40.88333320617676" y="239.17234802246094" text-anchor="start" dominant-baseline="alphabetic" transform="matrix(1, 0, 0, 1, 0.5, 0.5)" fill-opacity="1">1</text><text fill="rgb(68,68,68)" stroke="none" font-family="helvetica" font-size="11px" font-style="normal" font-weight="normal" text-decoration="normal" x="40.88333320617676" y="133.8996124267578" text-anchor="start" dominant-baseline="alphabetic" transform="matrix(1, 0, 0, 1, 0.5, 0.5)" fill-opacity="1">2</text><text fill="rgb(68,68,68)" stroke="none" font-family="helvetica" font-size="15pt" font-style="italic" font-weight="normal" text-decoration="normal" x="-11.316666603088379" y="336.076171875" text-anchor="start" dominant-baseline="alphabetic" transform="matrix(6.123233995736766e-17, -1, 1, 6.123233995736766e-17, -313.53333377838135, 367.46666622161865)" fill-opacity="1">students</text><path fill="rgb(255,255,255)" stroke="rgb(229,229,229)" paint-order="fill" d="M 1128.2333374023438 61.5 L 1326.5 61.5 L 1326.5 400.5 L 1128.2333374023438 400.5 L 1128.2333374023438 61.5" fill-opacity="0.9490196078431372" clip-path="url(#iuUgTOKXVNHi)" stroke-opacity="0.5019607843137255" stroke-linejoin="bevel" stroke-miterlimit="10" stroke-dasharray=""/><text fill="rgb(68,68,68)" stroke="none" font-family="helvetica" font-size="13px" font-style="normal" font-weight="normal" text-decoration="normal" x="1162.7333374023438" y="81" text-anchor="start" dominant-baseline="central" clip-path="url(#iuUgTOKXVNHi)" transform="matrix(1, 0, 0, 1, 0.5, 0.5)" fill-opacity="1">wavelength</text><path fill="rgb(0,255,40)" stroke="none" paint-order="stroke" d="M 1140.2333374023438 73.5 L 1156.2333374023438 73.5 L 1156.2333374023438 89.5 L 1140.2333374023438 89.5 L 1140.2333374023438 73.5" fill-opacity="1" clip-path="url(#iuUgTOKXVNHi)"/><path fill="rgb(216,17,89)" stroke="none" paint-order="stroke" d="M 1140.2333374023438 73.5 L 1156.2333374023438 73.5 L 1156.2333374023438 89.5 L 1140.2333374023438 89.5 L 1140.2333374023438 73.5" fill-opacity="1" clip-path="url(#iuUgTOKXVNHi)"/><text fill="rgb(68,68,68)" stroke="none" font-family="helvetica" font-size="13px" font-style="normal" font-weight="normal" text-decoration="normal" x="1162.7333374023438" y="104" text-anchor="start" dominant-baseline="central" clip-path="url(#iuUgTOKXVNHi)" transform="matrix(1, 0, 0, 1, 0.5, 0.5)" fill-opacity="1">solution</text><path fill="rgb(251,0,7)" stroke="none" paint-order="stroke" d="M 1140.2333374023438 96.5 L 1156.2333374023438 96.5 L 1156.2333374023438 112.5 L 1140.2333374023438 112.5 L 1140.2333374023438 96.5" fill-opacity="1" clip-path="url(#iuUgTOKXVNHi)"/><path fill="rgb(33,131,128)" stroke="none" paint-order="stroke" d="M 1140.2333374023438 96.5 L 1156.2333374023438 96.5 L 1156.2333374023438 112.5 L 1140.2333374023438 112.5 L 1140.2333374023438 96.5" fill-opacity="1" clip-path="url(#iuUgTOKXVNHi)"/><text fill="rgb(68,68,68)" stroke="none" font-family="helvetica" font-size="13px" font-style="normal" font-weight="normal" text-decoration="normal" x="1162.7333374023438" y="127" text-anchor="start" dominant-baseline="central" clip-path="url(#iuUgTOKXVNHi)" transform="matrix(1, 0, 0, 1, 0.5, 0.5)" fill-opacity="1">laser</text><path fill="rgb(105,29,48)" stroke="none" paint-order="stroke" d="M 1140.2333374023438 119.5 L 1156.2333374023438 119.5 L 1156.2333374023438 135.5 L 1140.2333374023438 135.5 L 1140.2333374023438 119.5" fill-opacity="1" clip-path="url(#iuUgTOKXVNHi)"/><text fill="rgb(68,68,68)" stroke="none" font-family="helvetica" font-size="13px" font-style="normal" font-weight="normal" text-decoration="normal" x="1162.7333374023438" y="150" text-anchor="start" dominant-baseline="central" clip-path="url(#iuUgTOKXVNHi)" transform="matrix(1, 0, 0, 1, 0.5, 0.5)" fill-opacity="1">ruler</text><path fill="rgb(255,188,66)" stroke="none" paint-order="stroke" d="M 1140.2333374023438 142.5 L 1156.2333374023438 142.5 L 1156.2333374023438 158.5 L 1140.2333374023438 158.5 L 1140.2333374023438 142.5" fill-opacity="1" clip-path="url(#iuUgTOKXVNHi)"/><text fill="rgb(68,68,68)" stroke="none" font-family="helvetica" font-size="13px" font-style="normal" font-weight="normal" text-decoration="normal" x="1162.7333374023438" y="173" text-anchor="start" dominant-baseline="central" clip-path="url(#iuUgTOKXVNHi)" transform="matrix(1, 0, 0, 1, 0.5, 0.5)" fill-opacity="1">restarts</text><text fill="rgb(68,68,68)" stroke="none" font-family="helvetica" font-size="13px" font-style="normal" font-weight="normal" text-decoration="normal" x="1162.7333374023438" y="196" text-anchor="start" dominant-baseline="central" clip-path="url(#iuUgTOKXVNHi)" transform="matrix(1, 0, 0, 1, 0.5, 0.5)" fill-opacity="1">transmittance_absorbance</text><path fill="rgb(162,174,187)" stroke="none" paint-order="stroke" d="M 1140.2333374023438 188.5 L 1156.2333374023438 188.5 L 1156.2333374023438 204.5 L 1140.2333374023438 204.5 L 1140.2333374023438 188.5" fill-opacity="1" clip-path="url(#iuUgTOKXVNHi)"/><text fill="rgb(68,68,68)" stroke="none" font-family="helvetica" font-size="13px" font-style="normal" font-weight="normal" text-decoration="normal" x="1162.7333374023438" y="219" text-anchor="start" dominant-baseline="central" clip-path="url(#iuUgTOKXVNHi)" transform="matrix(1, 0, 0, 1, 0.5, 0.5)" fill-opacity="1">magnifier</text><path fill="rgb(255,188,66)" stroke="none" paint-order="stroke" d="M 1140.2333374023438 211.5 L 1156.2333374023438 211.5 L 1156.2333374023438 227.5 L 1140.2333374023438 227.5 L 1140.2333374023438 211.5" fill-opacity="1" clip-path="url(#iuUgTOKXVNHi)"/><text fill="rgb(68,68,68)" stroke="none" font-family="helvetica" font-size="13px" font-style="normal" font-weight="normal" text-decoration="normal" x="1162.7333374023438" y="242" text-anchor="start" dominant-baseline="central" clip-path="url(#iuUgTOKXVNHi)" transform="matrix(1, 0, 0, 1, 0.5, 0.5)" fill-opacity="1">concentration</text><path fill="rgb(115,210,222)" stroke="none" paint-order="stroke" d="M 1140.2333374023438 234.5 L 1156.2333374023438 234.5 L 1156.2333374023438 250.5 L 1140.2333374023438 250.5 L 1140.2333374023438 234.5" fill-opacity="1" clip-path="url(#iuUgTOKXVNHi)"/><text fill="rgb(68,68,68)" stroke="none" font-family="helvetica" font-size="13px" font-style="normal" font-weight="normal" text-decoration="normal" x="1162.7333374023438" y="265" text-anchor="start" dominant-baseline="central" clip-path="url(#iuUgTOKXVNHi)" transform="matrix(1, 0, 0, 1, 0.5, 0.5)" fill-opacity="1">flask</text><path fill="rgb(28,49,68)" stroke="none" paint-order="stroke" d="M 1140.2333374023438 257.5 L 1156.2333374023438 257.5 L 1156.2333374023438 273.5 L 1140.2333374023438 273.5 L 1140.2333374023438 257.5" fill-opacity="1" clip-path="url(#iuUgTOKXVNHi)"/><text fill="rgb(68,68,68)" stroke="none" font-family="helvetica" font-size="13px" font-style="normal" font-weight="normal" text-decoration="normal" x="1162.7333374023438" y="288" text-anchor="start" dominant-baseline="central" clip-path="url(#iuUgTOKXVNHi)" transform="matrix(1, 0, 0, 1, 0.5, 0.5)" fill-opacity="1">pdf</text><path fill="rgb(239,185,203)" stroke="none" paint-order="stroke" d="M 1140.2333374023438 280.5 L 1156.2333374023438 280.5 L 1156.2333374023438 296.5 L 1140.2333374023438 296.5 L 1140.2333374023438 280.5" fill-opacity="1" clip-path="url(#iuUgTOKXVNHi)"/><text fill="rgb(68,68,68)" stroke="none" font-family="helvetica" font-size="13px" font-style="normal" font-weight="normal" text-decoration="normal" x="1162.7333374023438" y="311" text-anchor="start" dominant-baseline="central" clip-path="url(#iuUgTOKXVNHi)" transform="matrix(1, 0, 0, 1, 0.5, 0.5)" fill-opacity="1">concentrationlab</text><text fill="rgb(68,68,68)" stroke="none" font-family="helvetica" font-size="13px" font-style="normal" font-weight="normal" text-decoration="normal" x="1162.7333374023438" y="334" text-anchor="start" dominant-baseline="central" clip-path="url(#iuUgTOKXVNHi)" transform="matrix(1, 0, 0, 1, 0.5, 0.5)" fill-opacity="1">wavelength_slider</text><path fill="rgb(105,29,48)" stroke="none" paint-order="stroke" d="M 1140.2333374023438 326.5 L 1156.2333374023438 326.5 L 1156.2333374023438 342.5 L 1140.2333374023438 342.5 L 1140.2333374023438 326.5" fill-opacity="1" clip-path="url(#iuUgTOKXVNHi)"/><text fill="rgb(68,68,68)" stroke="none" font-family="helvetica" font-size="13px" font-style="normal" font-weight="normal" text-decoration="normal" x="1162.7333374023438" y="357" text-anchor="start" dominant-baseline="central" clip-path="url(#iuUgTOKXVNHi)" transform="matrix(1, 0, 0, 1, 0.5, 0.5)" fill-opacity="1">ruler measuring</text><path fill="rgb(255,188,66)" stroke="none" paint-order="stroke" d="M 1140.2333374023438 349.5 L 1156.2333374023438 349.5 L 1156.2333374023438 365.5 L 1140.2333374023438 365.5 L 1140.2333374023438 349.5" fill-opacity="1" clip-path="url(#iuUgTOKXVNHi)"/><text fill="rgb(68,68,68)" stroke="none" font-family="helvetica" font-size="13px" font-style="normal" font-weight="normal" text-decoration="normal" x="1162.7333374023438" y="380" text-anchor="start" dominant-baseline="central" clip-path="url(#iuUgTOKXVNHi)" transform="matrix(1, 0, 0, 1, 0.5, 0.5)" fill-opacity="1">dependent variable</text><path fill="rgb(143,45,86)" stroke="none" paint-order="stroke" d="M 1140.2333374023438 372.5 L 1156.2333374023438 372.5 L 1156.2333374023438 388.5 L 1140.2333374023438 388.5 L 1140.2333374023438 372.5" fill-opacity="1" clip-path="url(#iuUgTOKXVNHi)"/><text fill="rgb(68,68,68)" stroke="none" font-family="helvetica" font-size="25pt" font-style="normal" font-weight="bold" text-decoration="normal" x="58" y="38.740885416666664" text-anchor="start" dominant-baseline="alphabetic" transform="matrix(1, 0, 0, 1, 0.5, 0.5)" fill-opacity="1">Timeline for student xmh5qd3z with permutation 0321 for task 1</text></svg>