<svg version="1.1" xmlns="http://www.w3.org/2000/svg" width="1366" height="683"><defs><clipPath id="OrOzCidyQfFI"><path fill="none" stroke="none" d="M 58.5 51.5 L 1336.5 51.5 L 1336.5 630.5 L 58.5 630.5 L 58.5 51.5"/></clipPath><clipPath id="iThVxyWflRqI"><path fill="none" stroke="none" d="M 58.5 51.5 L 1336.5 51.5 L 1336.5 630.5 L 58.5 630.5 L 58.5 51.5"/></clipPath><clipPath id="lTguxUifJVGs"><path fill="none" stroke="none" d="M 58.5 51.5 L 1336.5 51.5 L 1336.5 630.5 L 58.5 630.5 L 58.5 51.5"/></clipPath><clipPath id="LwsNmubTbDBp"><path fill="none" stroke="none" d="M 58.5 51.5 L 1336.5 51.5 L 1336.5 630.5 L 58.5 630.5 L 58.5 51.5"/></clipPath><clipPath id="ISAFiWfEfHeb"><path fill="none" stroke="none" d="M 58.5 51.5 L 1336.5 51.5 L 1336.5 630.5 L 58.5 630.5 L 58.5 51.5"/></clipPath><clipPath id="BkdDkTWQxQTB"><path fill="none" stroke="none" d="M 58.5 51.5 L 1336.5 51.5 L 1336.5 630.5 L 58.5 630.5 L 58.5 51.5"/></clipPath><clipPath id="DGXSIEvnotpt"><path fill="none" stroke="none" d="M 58.5 51.5 L 1336.5 51.5 L 1336.5 630.5 L 58.5 630.5 L 58.5 51.5"/></clipPath><clipPath id="hJknEMptZTrs"><path fill="none" stroke="none" d="M 58.5 51.5 L 1336.5 51.5 L 1336.5 630.5 L 58.5 630.5 L 58.5 51.5"/></clipPath><clipPath id="vhukNaDSOpOd"><path fill="none" stroke="none" d="M 58.5 51.5 L 1336.5 51.5 L 1336.5 630.5 L 58.5 630.5 L 58.5 51.5"/></clipPath><clipPath id="WbnvUwbQWzEH"><path fill="none" stroke="none" d="M 58.5 51.5 L 1336.5 51.5 L 1336.5 630.5 L 58.5 630.5 L 58.5 51.5"/></clipPath><clipPath id="iBEQAVFiebcQ"><path fill="none" stroke="none" d="M 58.5 51.5 L 1336.5 51.5 L 1336.5 630.5 L 58.5 630.5 L 58.5 51.5"/></clipPath><clipPath id="SLEVqmdWnHEm"><path fill="none" stroke="none" d="M 58.5 51.5 L 1336.5 51.5 L 1336.5 630.5 L 58.5 630.5 L 58.5 51.5"/></clipPath><clipPath id="iPFQVUyowJWK"><path fill="none" stroke="none" d="M 58.5 51.5 L 1336.5 51.5 L 1336.5 630.5 L 58.5 630.5 L 58.5 51.5"/></clipPath><clipPath id="uxANmzsFRSwx"><path fill="none" stroke="none" d="M 58.5 51.5 L 1336.5 51.5 L 1336.5 630.5 L 58.5 630.5 L 58.5 51.5"/></clipPath><clipPath id="tMscCrGWyTKB"><path fill="none" stroke="none" d="M 58.5 51.5 L 1336.5 51.5 L 1336.5 630.5 L 58.5 630.5 L 58.5 51.5"/></clipPath><clipPath id="HmZBIieUfWtc"><path fill="none" stroke="none" d="M 58.5 51.5 L 1336.5 51.5 L 1336.5 630.5 L 58.5 630.5 L 58.5 51.5"/></clipPath><clipPath id="crRQxRgiSdXJ"><path fill="none" stroke="none" d="M 58.5 51.5 L 1336.5 51.5 L 1336.5 630.5 L 58.5 630.5 L 58.5 51.5"/></clipPath><clipPath id="lefbmMvpMymn"><path fill="none" stroke="none" d="M 58.5 51.5 L 1336.5 51.5 L 1336.5 630.5 L 58.5 630.5 L 58.5 51.5"/></clipPath><clipPath id="aXetTIAVZaDS"><path fill="none" stroke="none" d="M 58.5 51.5 L 1336.5 51.5 L 1336.5 630.5 L 58.5 630.5 L 58.5 51.5"/></clipPath><clipPath id="VgRZJnFbdzRO"><path fill="none" stroke="none" d="M 58.5 51.5 L 1336.5 51.5 L 1336.5 630.5 L 58.5 630.5 L 58.5 51.5"/></clipPath><clipPath id="uzxuSmblTDuF"><path fill="none" stroke="none" d="M 58.5 51.5 L 1336.5 51.5 L 1336.5 630.5 L 58.5 630.5 L 58.5 51.5"/></clipPath></defs><path fill="rgb(255,255,255)" stroke="none" paint-order="stroke" d="M 0.5 0.5 L 1366.5 0.5 L 1366.5 683.5 L 0.5 683.5 L 0.5 0.5" fill-opacity="1"/><rect fill="#FFFFFF" stroke="none" x="58" y="51" width="1278" height="579" transform="matrix(1, 0, 0, 1, 0.5, 0.5)"/><path fill="rgb(255,255,255)" stroke="none" paint-order="stroke" d="M 58.5 51.5 L 1336.5 51.5 L 1336.5 630.5 L 58.5 630.5 L 58.5 51.5" fill-opacity="1"/><path fill="none" stroke="rgb(229,229,229)" paint-order="fill" d="M 58.5 51.5 L 1336.5 51.5 L 1336.5 630.5 L 58.5 630.5 L 58.5 51.5" stroke-opacity="1" stroke-linejoin="bevel" stroke-miterlimit="10" stroke-dasharray=""/><path fill="none" stroke="rgb(229,229,229)" paint-order="fill" d="M 314.5 630.5 L 314.5 51.5 M 569.5 630.5 L 569.5 51.5 M 825.5 630.5 L 825.5 51.5 M 1080.5 630.5 L 1080.5 51.5" stroke-opacity="1" stroke-linejoin="bevel" stroke-miterlimit="10" stroke-dasharray="" clip-path="url(#OrOzCidyQfFI)"/><path fill="none" stroke="rgb(229,229,229)" paint-order="fill" d="M 58.5 551.5 L 1336.5 551.5 M 58.5 446.5 L 1336.5 446.5 M 58.5 341.5 L 1336.5 341.5 M 58.5 235.5 L 1336.5 235.5 M 58.5 130.5 L 1336.5 130.5" stroke-opacity="1" stroke-linejoin="bevel" stroke-miterlimit="10" stroke-dasharray="" clip-path="url(#iThVxyWflRqI)"/><path fill="rgb(0,255,40)" stroke="none" paint-order="stroke" d="M 58.5 77.81818389892578 L 184.14656829833984 77.81818389892578 L 184.14656829833984 130.45454788208008 L 58.5 130.45454788208008 L 58.5 77.81818389892578" fill-opacity="1" clip-path="url(#lTguxUifJVGs)"/><path fill="rgb(159,255,0)" stroke="none" paint-order="stroke" d="M 184.14657592773438 77.81818389892578 L 188.34991788864136 77.81818389892578 L 188.34991788864136 130.45454788208008 L 184.14657592773438 130.45454788208008 L 184.14657592773438 77.81818389892578" fill-opacity="1" clip-path="url(#lTguxUifJVGs)"/><path fill="rgb(0,255,40)" stroke="none" paint-order="stroke" d="M 188.34991455078125 77.81818389892578 L 220.23984909057617 77.81818389892578 L 220.23984909057617 130.45454788208008 L 188.34991455078125 130.45454788208008 L 188.34991455078125 77.81818389892578" fill-opacity="1" clip-path="url(#lTguxUifJVGs)"/><path fill="rgb(49,255,0)" stroke="none" paint-order="stroke" d="M 220.23985290527344 77.81818389892578 L 220.44049890339375 77.81818389892578 L 220.44049890339375 130.45454788208008 L 220.23985290527344 130.45454788208008 L 220.23985290527344 77.81818389892578" fill-opacity="1" clip-path="url(#lTguxUifJVGs)"/><path fill="rgb(62,255,0)" stroke="none" paint-order="stroke" d="M 220.44049072265625 77.81818389892578 L 220.759990721941 77.81818389892578 L 220.759990721941 130.45454788208008 L 220.44049072265625 130.45454788208008 L 220.44049072265625 77.81818389892578" fill-opacity="1" clip-path="url(#lTguxUifJVGs)"/><path fill="rgb(78,255,0)" stroke="none" paint-order="stroke" d="M 220.75999450683594 77.81818389892578 L 220.91718851029873 77.81818389892578 L 220.91718851029873 130.45454788208008 L 220.75999450683594 130.45454788208008 L 220.75999450683594 77.81818389892578" fill-opacity="1" clip-path="url(#lTguxUifJVGs)"/><path fill="rgb(93,255,0)" stroke="none" paint-order="stroke" d="M 220.9171905517578 77.81818389892578 L 221.516572535038 77.81818389892578 L 221.516572535038 130.45454788208008 L 220.9171905517578 130.45454788208008 L 220.9171905517578 77.81818389892578" fill-opacity="1" clip-path="url(#lTguxUifJVGs)"/><path fill="rgb(78,255,0)" stroke="none" paint-order="stroke" d="M 221.51657104492188 77.81818389892578 L 221.71721704304218 77.81818389892578 L 221.71721704304218 130.45454788208008 L 221.51657104492188 130.45454788208008 L 221.51657104492188 77.81818389892578" fill-opacity="1" clip-path="url(#lTguxUifJVGs)"/><path fill="rgb(62,255,0)" stroke="none" paint-order="stroke" d="M 221.7172088623047 77.81818389892578 L 221.7849428653717 77.81818389892578 L 221.7849428653717 130.45454788208008 L 221.7172088623047 130.45454788208008 L 221.7172088623047 77.81818389892578" fill-opacity="1" clip-path="url(#lTguxUifJVGs)"/><path fill="rgb(49,255,0)" stroke="none" paint-order="stroke" d="M 221.78494262695312 77.81818389892578 L 222.27313861250877 77.81818389892578 L 222.27313861250877 130.45454788208008 L 221.78494262695312 130.45454788208008 L 221.78494262695312 77.81818389892578" fill-opacity="1" clip-path="url(#lTguxUifJVGs)"/><path fill="rgb(30,255,0)" stroke="none" paint-order="stroke" d="M 222.2731475830078 77.81818389892578 L 223.4195135831833 77.81818389892578 L 223.4195135831833 130.45454788208008 L 222.2731475830078 130.45454788208008 L 222.2731475830078 77.81818389892578" fill-opacity="1" clip-path="url(#lTguxUifJVGs)"/><path fill="rgb(49,255,0)" stroke="none" paint-order="stroke" d="M 223.4195098876953 77.81818389892578 L 223.69683587551117 77.81818389892578 L 223.69683587551117 130.45454788208008 L 223.4195098876953 130.45454788208008 L 223.4195098876953 77.81818389892578" fill-opacity="1" clip-path="url(#lTguxUifJVGs)"/><path fill="rgb(62,255,0)" stroke="none" paint-order="stroke" d="M 223.69683837890625 77.81818389892578 L 224.21954035758972 77.81818389892578 L 224.21954035758972 130.45454788208008 L 223.69683837890625 130.45454788208008 L 223.69683837890625 77.81818389892578" fill-opacity="1" clip-path="url(#lTguxUifJVGs)"/><path fill="rgb(78,255,0)" stroke="none" paint-order="stroke" d="M 224.21954345703125 77.81818389892578 L 225.22277343273163 77.81818389892578 L 225.22277343273163 130.45454788208008 L 224.21954345703125 130.45454788208008 L 224.21954345703125 77.81818389892578" fill-opacity="1" clip-path="url(#lTguxUifJVGs)"/><path fill="rgb(62,255,0)" stroke="none" paint-order="stroke" d="M 225.22276306152344 77.81818389892578 L 225.42979906499386 77.81818389892578 L 225.42979906499386 130.45454788208008 L 225.22276306152344 130.45454788208008 L 225.22276306152344 77.81818389892578" fill-opacity="1" clip-path="url(#lTguxUifJVGs)"/><path fill="rgb(49,255,0)" stroke="none" paint-order="stroke" d="M 225.4298095703125 77.81818389892578 L 227.0618156194687 77.81818389892578 L 227.0618156194687 130.45454788208008 L 225.4298095703125 130.45454788208008 L 225.4298095703125 77.81818389892578" fill-opacity="1" clip-path="url(#lTguxUifJVGs)"/><path fill="rgb(53,255,0)" stroke="none" paint-order="stroke" d="M 227.0618133544922 77.81818389892578 L 256.4634819030762 77.81818389892578 L 256.4634819030762 130.45454788208008 L 227.0618133544922 130.45454788208008 L 227.0618133544922 77.81818389892578" fill-opacity="1" clip-path="url(#lTguxUifJVGs)"/><path fill="rgb(255,176,0)" stroke="none" paint-order="stroke" d="M 256.4634704589844 77.81818389892578 L 256.47625045944005 77.81818389892578 L 256.47625045944005 130.45454788208008 L 256.4634704589844 130.45454788208008 L 256.4634704589844 77.81818389892578" fill-opacity="1" clip-path="url(#lTguxUifJVGs)"/><path fill="rgb(190,0,0)" stroke="none" paint-order="stroke" d="M 256.47625732421875 77.81818389892578 L 256.5018173251301 77.81818389892578 L 256.5018173251301 130.45454788208008 L 256.47625732421875 130.45454788208008 L 256.47625732421875 77.81818389892578" fill-opacity="1" clip-path="url(#lTguxUifJVGs)"/><path fill="rgb(0,0,0)" stroke="none" paint-order="stroke" d="M 256.5018310546875 77.81818389892578 L 260.2335910797119 77.81818389892578 L 260.2335910797119 130.45454788208008 L 256.5018310546875 130.45454788208008 L 256.5018310546875 77.81818389892578" fill-opacity="1" clip-path="url(#lTguxUifJVGs)"/><path fill="rgb(110,0,0)" stroke="none" paint-order="stroke" d="M 260.23358154296875 77.81818389892578 L 260.24508354254067 77.81818389892578 L 260.24508354254067 130.45454788208008 L 260.23358154296875 130.45454788208008 L 260.23358154296875 77.81818389892578" fill-opacity="1" clip-path="url(#lTguxUifJVGs)"/><path fill="rgb(122,0,0)" stroke="none" paint-order="stroke" d="M 260.2450866699219 77.81818389892578 L 260.27064667083323 77.81818389892578 L 260.27064667083323 130.45454788208008 L 260.2450866699219 130.45454788208008 L 260.2450866699219 77.81818389892578" fill-opacity="1" clip-path="url(#lTguxUifJVGs)"/><path fill="rgb(152,0,0)" stroke="none" paint-order="stroke" d="M 260.2706298828125 77.81818389892578 L 260.2949118819088 77.81818389892578 L 260.2949118819088 130.45454788208008 L 260.2706298828125 130.45454788208008 L 260.2706298828125 77.81818389892578" fill-opacity="1" clip-path="url(#lTguxUifJVGs)"/><path fill="rgb(187,0,0)" stroke="none" paint-order="stroke" d="M 260.294921875 77.81818389892578 L 260.31792587414384 77.81818389892578 L 260.31792587414384 130.45454788208008 L 260.294921875 130.45454788208008 L 260.294921875 77.81818389892578" fill-opacity="1" clip-path="url(#lTguxUifJVGs)"/><path fill="rgb(213,0,0)" stroke="none" paint-order="stroke" d="M 260.31793212890625 77.81818389892578 L 260.33965812809765 77.81818389892578 L 260.33965812809765 130.45454788208008 L 260.31793212890625 130.45454788208008 L 260.31793212890625 77.81818389892578" fill-opacity="1" clip-path="url(#lTguxUifJVGs)"/><path fill="rgb(250,0,0)" stroke="none" paint-order="stroke" d="M 260.33966064453125 77.81818389892578 L 260.35755264386535 77.81818389892578 L 260.35755264386535 130.45454788208008 L 260.33966064453125 130.45454788208008 L 260.33966064453125 77.81818389892578" fill-opacity="1" clip-path="url(#lTguxUifJVGs)"/><path fill="rgb(255,95,0)" stroke="none" paint-order="stroke" d="M 260.3575439453125 77.81818389892578 L 260.3716019457206 77.81818389892578 L 260.3716019457206 130.45454788208008 L 260.3575439453125 130.45454788208008 L 260.3575439453125 77.81818389892578" fill-opacity="1" clip-path="url(#lTguxUifJVGs)"/><path fill="rgb(255,165,0)" stroke="none" paint-order="stroke" d="M 260.3716125488281 77.81818389892578 L 260.3920605480671 77.81818389892578 L 260.3920605480671 130.45454788208008 L 260.3716125488281 130.45454788208008 L 260.3716125488281 77.81818389892578" fill-opacity="1" clip-path="url(#lTguxUifJVGs)"/><path fill="rgb(255,229,0)" stroke="none" paint-order="stroke" d="M 260.3920593261719 77.81818389892578 L 260.4137853253633 77.81818389892578 L 260.4137853253633 130.45454788208008 L 260.3920593261719 130.45454788208008 L 260.3920593261719 77.81818389892578" fill-opacity="1" clip-path="url(#lTguxUifJVGs)"/><path fill="rgb(225,255,0)" stroke="none" paint-order="stroke" d="M 260.4137878417969 77.81818389892578 L 260.43423584103584 77.81818389892578 L 260.43423584103584 130.45454788208008 L 260.4137878417969 130.45454788208008 L 260.4137878417969 77.81818389892578" fill-opacity="1" clip-path="url(#lTguxUifJVGs)"/><path fill="rgb(166,255,0)" stroke="none" paint-order="stroke" d="M 260.4342346191406 77.81818389892578 L 260.455960618332 77.81818389892578 L 260.455960618332 130.45454788208008 L 260.4342346191406 130.45454788208008 L 260.4342346191406 77.81818389892578" fill-opacity="1" clip-path="url(#lTguxUifJVGs)"/><path fill="rgb(115,255,0)" stroke="none" paint-order="stroke" d="M 260.4559631347656 77.81818389892578 L 260.477689133957 77.81818389892578 L 260.477689133957 130.45454788208008 L 260.4559631347656 130.45454788208008 L 260.4559631347656 77.81818389892578" fill-opacity="1" clip-path="url(#lTguxUifJVGs)"/><path fill="rgb(58,255,0)" stroke="none" paint-order="stroke" d="M 260.4776611328125 77.81818389892578 L 260.4993871320039 77.81818389892578 L 260.4993871320039 130.45454788208008 L 260.4776611328125 130.45454788208008 L 260.4776611328125 77.81818389892578" fill-opacity="1" clip-path="url(#lTguxUifJVGs)"/><path fill="rgb(20,255,0)" stroke="none" paint-order="stroke" d="M 260.4993896484375 77.81818389892578 L 260.51983764767647 77.81818389892578 L 260.51983764767647 130.45454788208008 L 260.4993896484375 130.45454788208008 L 260.4993896484375 77.81818389892578" fill-opacity="1" clip-path="url(#lTguxUifJVGs)"/><path fill="rgb(0,255,0)" stroke="none" paint-order="stroke" d="M 260.51983642578125 77.81818389892578 L 261.05787444114685 77.81818389892578 L 261.05787444114685 130.45454788208008 L 260.51983642578125 130.45454788208008 L 260.51983642578125 77.81818389892578" fill-opacity="1" clip-path="url(#lTguxUifJVGs)"/><path fill="rgb(0,255,70)" stroke="none" paint-order="stroke" d="M 261.0578918457031 77.81818389892578 L 261.0847298465669 77.81818389892578 L 261.0847298465669 130.45454788208008 L 261.0578918457031 130.45454788208008 L 261.0578918457031 77.81818389892578" fill-opacity="1" clip-path="url(#lTguxUifJVGs)"/><path fill="rgb(0,255,122)" stroke="none" paint-order="stroke" d="M 261.084716796875 77.81818389892578 L 261.1217787973583 77.81818389892578 L 261.1217787973583 130.45454788208008 L 261.084716796875 130.45454788208008 L 261.084716796875 77.81818389892578" fill-opacity="1" clip-path="url(#lTguxUifJVGs)"/><path fill="rgb(0,255,169)" stroke="none" paint-order="stroke" d="M 261.1217956542969 77.81818389892578 L 261.1409656535834 77.81818389892578 L 261.1409656535834 130.45454788208008 L 261.1217956542969 130.45454788208008 L 261.1217956542969 77.81818389892578" fill-opacity="1" clip-path="url(#lTguxUifJVGs)"/><path fill="rgb(0,255,202)" stroke="none" paint-order="stroke" d="M 261.1409606933594 77.81818389892578 L 261.17930069193244 77.81818389892578 L 261.17930069193244 130.45454788208008 L 261.1409606933594 130.45454788208008 L 261.1409606933594 77.81818389892578" fill-opacity="1" clip-path="url(#lTguxUifJVGs)"/><path fill="rgb(0,255,244)" stroke="none" paint-order="stroke" d="M 261.1792907714844 77.81818389892578 L 261.20357277058065 77.81818389892578 L 261.20357277058065 130.45454788208008 L 261.1792907714844 130.45454788208008 L 261.1792907714844 77.81818389892578" fill-opacity="1" clip-path="url(#lTguxUifJVGs)"/><path fill="rgb(0,242,255)" stroke="none" paint-order="stroke" d="M 261.2035827636719 77.81818389892578 L 261.2457567639649 77.81818389892578 L 261.2457567639649 130.45454788208008 L 261.2035827636719 130.45454788208008 L 261.2035827636719 77.81818389892578" fill-opacity="1" clip-path="url(#lTguxUifJVGs)"/><path fill="rgb(0,226,255)" stroke="none" paint-order="stroke" d="M 261.2457580566406 77.81818389892578 L 261.2662060558796 77.81818389892578 L 261.2662060558796 130.45454788208008 L 261.2457580566406 130.45454788208008 L 261.2457580566406 77.81818389892578" fill-opacity="1" clip-path="url(#lTguxUifJVGs)"/><path fill="rgb(0,213,255)" stroke="none" paint-order="stroke" d="M 261.2662048339844 77.81818389892578 L 261.29559883475304 77.81818389892578 L 261.29559883475304 130.45454788208008 L 261.2662048339844 130.45454788208008 L 261.2662048339844 77.81818389892578" fill-opacity="1" clip-path="url(#lTguxUifJVGs)"/><path fill="rgb(0,196,255)" stroke="none" paint-order="stroke" d="M 261.29559326171875 77.81818389892578 L 261.34926926344633 77.81818389892578 L 261.34926926344633 130.45454788208008 L 261.29559326171875 130.45454788208008 L 261.29559326171875 77.81818389892578" fill-opacity="1" clip-path="url(#lTguxUifJVGs)"/><path fill="rgb(0,178,255)" stroke="none" paint-order="stroke" d="M 261.3492736816406 77.81818389892578 L 261.38250168040395 77.81818389892578 L 261.38250168040395 130.45454788208008 L 261.3492736816406 130.45454788208008 L 261.3492736816406 77.81818389892578" fill-opacity="1" clip-path="url(#lTguxUifJVGs)"/><path fill="rgb(0,160,255)" stroke="none" paint-order="stroke" d="M 261.38250732421875 77.81818389892578 L 261.44385132566094 77.81818389892578 L 261.44385132566094 130.45454788208008 L 261.38250732421875 130.45454788208008 L 261.38250732421875 77.81818389892578" fill-opacity="1" clip-path="url(#lTguxUifJVGs)"/><path fill="rgb(0,146,255)" stroke="none" paint-order="stroke" d="M 261.44384765625 77.81818389892578 L 261.49880165606737 77.81818389892578 L 261.49880165606737 130.45454788208008 L 261.44384765625 130.45454788208008 L 261.44384765625 77.81818389892578" fill-opacity="1" clip-path="url(#lTguxUifJVGs)"/><path fill="rgb(0,127,255)" stroke="none" paint-order="stroke" d="M 261.4988098144531 77.81818389892578 L 261.5512078143656 77.81818389892578 L 261.5512078143656 130.45454788208008 L 261.4988098144531 130.45454788208008 L 261.4988098144531 77.81818389892578" fill-opacity="1" clip-path="url(#lTguxUifJVGs)"/><path fill="rgb(0,107,255)" stroke="none" paint-order="stroke" d="M 261.55120849609375 77.81818389892578 L 261.6368344947696 77.81818389892578 L 261.6368344947696 130.45454788208008 L 261.55120849609375 130.45454788208008 L 261.55120849609375 77.81818389892578" fill-opacity="1" clip-path="url(#lTguxUifJVGs)"/><path fill="rgb(0,86,255)" stroke="none" paint-order="stroke" d="M 261.6368103027344 77.81818389892578 L 261.6802623011172 77.81818389892578 L 261.6802623011172 130.45454788208008 L 261.6368103027344 130.45454788208008 L 261.6368103027344 77.81818389892578" fill-opacity="1" clip-path="url(#lTguxUifJVGs)"/><path fill="rgb(0,70,255)" stroke="none" paint-order="stroke" d="M 261.6802673339844 77.81818389892578 L 261.7646153345704 77.81818389892578 L 261.7646153345704 130.45454788208008 L 261.6802673339844 130.45454788208008 L 261.6802673339844 77.81818389892578" fill-opacity="1" clip-path="url(#lTguxUifJVGs)"/><path fill="rgb(0,46,255)" stroke="none" paint-order="stroke" d="M 261.7646179199219 77.81818389892578 L 261.8067919202149 77.81818389892578 L 261.8067919202149 130.45454788208008 L 261.7646179199219 130.45454788208008 L 261.7646179199219 77.81818389892578" fill-opacity="1" clip-path="url(#lTguxUifJVGs)"/><path fill="rgb(0,19,255)" stroke="none" paint-order="stroke" d="M 261.8067932128906 77.81818389892578 L 261.861747212708 77.81818389892578 L 261.861747212708 130.45454788208008 L 261.8067932128906 130.45454788208008 L 261.8067932128906 77.81818389892578" fill-opacity="1" clip-path="url(#lTguxUifJVGs)"/><path fill="rgb(16,0,250)" stroke="none" paint-order="stroke" d="M 261.86175537109375 77.81818389892578 L 261.9090413711965 77.81818389892578 L 261.9090413711965 130.45454788208008 L 261.86175537109375 130.45454788208008 L 261.86175537109375 77.81818389892578" fill-opacity="1" clip-path="url(#lTguxUifJVGs)"/><path fill="rgb(33,0,243)" stroke="none" paint-order="stroke" d="M 261.9090270996094 77.81818389892578 L 261.9269190989435 77.81818389892578 L 261.9269190989435 130.45454788208008 L 261.9090270996094 130.45454788208008 L 261.9090270996094 77.81818389892578" fill-opacity="1" clip-path="url(#lTguxUifJVGs)"/><path fill="rgb(51,0,233)" stroke="none" paint-order="stroke" d="M 261.92694091796875 77.81818389892578 L 262.010010920465 77.81818389892578 L 262.010010920465 130.45454788208008 L 261.92694091796875 130.45454788208008 L 261.92694091796875 77.81818389892578" fill-opacity="1" clip-path="url(#lTguxUifJVGs)"/><path fill="rgb(65,0,223)" stroke="none" paint-order="stroke" d="M 262.010009765625 77.81818389892578 L 262.0342917647213 77.81818389892578 L 262.0342917647213 130.45454788208008 L 262.010009765625 130.45454788208008 L 262.010009765625 77.81818389892578" fill-opacity="1" clip-path="url(#lTguxUifJVGs)"/><path fill="rgb(77,0,213)" stroke="none" paint-order="stroke" d="M 262.0342712402344 77.81818389892578 L 262.104561239481 77.81818389892578 L 262.104561239481 130.45454788208008 L 262.0342712402344 130.45454788208008 L 262.0342712402344 77.81818389892578" fill-opacity="1" clip-path="url(#lTguxUifJVGs)"/><path fill="rgb(85,0,206)" stroke="none" paint-order="stroke" d="M 262.1045837402344 77.81818389892578 L 262.16848374158144 77.81818389892578 L 262.16848374158144 130.45454788208008 L 262.1045837402344 130.45454788208008 L 262.1045837402344 77.81818389892578" fill-opacity="1" clip-path="url(#lTguxUifJVGs)"/><path fill="rgb(94,0,196)" stroke="none" paint-order="stroke" d="M 262.16845703125 77.81818389892578 L 262.2119090296328 77.81818389892578 L 262.2119090296328 130.45454788208008 L 262.16845703125 130.45454788208008 L 262.16845703125 77.81818389892578" fill-opacity="1" clip-path="url(#lTguxUifJVGs)"/><path fill="rgb(101,0,185)" stroke="none" paint-order="stroke" d="M 262.2119140625 77.81818389892578 L 262.2975400611758 77.81818389892578 L 262.2975400611758 130.45454788208008 L 262.2119140625 130.45454788208008 L 262.2119140625 77.81818389892578" fill-opacity="1" clip-path="url(#lTguxUifJVGs)"/><path fill="rgb(106,0,175)" stroke="none" paint-order="stroke" d="M 262.29754638671875 77.81818389892578 L 262.50074838101864 77.81818389892578 L 262.50074838101864 130.45454788208008 L 262.29754638671875 130.45454788208008 L 262.29754638671875 77.81818389892578" fill-opacity="1" clip-path="url(#lTguxUifJVGs)"/><path fill="rgb(101,0,185)" stroke="none" paint-order="stroke" d="M 262.5007629394531 77.81818389892578 L 262.53271294012666 77.81818389892578 L 262.53271294012666 130.45454788208008 L 262.5007629394531 130.45454788208008 L 262.5007629394531 77.81818389892578" fill-opacity="1" clip-path="url(#lTguxUifJVGs)"/><path fill="rgb(94,0,196)" stroke="none" paint-order="stroke" d="M 262.53271484375 77.81818389892578 L 262.5442168433219 77.81818389892578 L 262.5442168433219 130.45454788208008 L 262.53271484375 130.45454788208008 L 262.53271484375 77.81818389892578" fill-opacity="1" clip-path="url(#lTguxUifJVGs)"/><path fill="rgb(77,0,213)" stroke="none" paint-order="stroke" d="M 262.544189453125 77.81818389892578 L 262.5684714522213 77.81818389892578 L 262.5684714522213 130.45454788208008 L 262.544189453125 130.45454788208008 L 262.544189453125 77.81818389892578" fill-opacity="1" clip-path="url(#lTguxUifJVGs)"/><path fill="rgb(65,0,223)" stroke="none" paint-order="stroke" d="M 262.5684814453125 77.81818389892578 L 262.58509544469416 77.81818389892578 L 262.58509544469416 130.45454788208008 L 262.5684814453125 130.45454788208008 L 262.5684814453125 77.81818389892578" fill-opacity="1" clip-path="url(#lTguxUifJVGs)"/><path fill="rgb(51,0,233)" stroke="none" paint-order="stroke" d="M 262.5850830078125 77.81818389892578 L 262.60808700695634 77.81818389892578 L 262.60808700695634 130.45454788208008 L 262.5850830078125 130.45454788208008 L 262.5850830078125 77.81818389892578" fill-opacity="1" clip-path="url(#lTguxUifJVGs)"/><path fill="rgb(16,0,250)" stroke="none" paint-order="stroke" d="M 262.60809326171875 77.81818389892578 L 262.6285412609577 77.81818389892578 L 262.6285412609577 130.45454788208008 L 262.60809326171875 130.45454788208008 L 262.60809326171875 77.81818389892578" fill-opacity="1" clip-path="url(#lTguxUifJVGs)"/><path fill="rgb(0,19,255)" stroke="none" paint-order="stroke" d="M 262.6285400390625 77.81818389892578 L 262.6502660382539 77.81818389892578 L 262.6502660382539 130.45454788208008 L 262.6285400390625 130.45454788208008 L 262.6285400390625 77.81818389892578" fill-opacity="1" clip-path="url(#lTguxUifJVGs)"/><path fill="rgb(0,70,255)" stroke="none" paint-order="stroke" d="M 262.6502685546875 77.81818389892578 L 262.68988655507565 77.81818389892578 L 262.68988655507565 130.45454788208008 L 262.6502685546875 130.45454788208008 L 262.6502685546875 77.81818389892578" fill-opacity="1" clip-path="url(#lTguxUifJVGs)"/><path fill="rgb(0,86,255)" stroke="none" paint-order="stroke" d="M 262.68988037109375 77.81818389892578 L 262.71799637191 77.81818389892578 L 262.71799637191 130.45454788208008 L 262.68988037109375 130.45454788208008 L 262.68988037109375 77.81818389892578" fill-opacity="1" clip-path="url(#lTguxUifJVGs)"/><path fill="rgb(0,107,255)" stroke="none" paint-order="stroke" d="M 262.718017578125 77.81818389892578 L 262.74357757903636 77.81818389892578 L 262.74357757903636 130.45454788208008 L 262.718017578125 130.45454788208008 L 262.718017578125 77.81818389892578" fill-opacity="1" clip-path="url(#lTguxUifJVGs)"/><path fill="rgb(0,127,255)" stroke="none" paint-order="stroke" d="M 262.7435607910156 77.81818389892578 L 262.78573479130864 77.81818389892578 L 262.78573479130864 130.45454788208008 L 262.7435607910156 130.45454788208008 L 262.7435607910156 77.81818389892578" fill-opacity="1" clip-path="url(#lTguxUifJVGs)"/><path fill="rgb(0,146,255)" stroke="none" paint-order="stroke" d="M 262.7857360839844 77.81818389892578 L 262.7997940843925 77.81818389892578 L 262.7997940843925 130.45454788208008 L 262.7857360839844 130.45454788208008 L 262.7857360839844 77.81818389892578" fill-opacity="1" clip-path="url(#lTguxUifJVGs)"/><path fill="rgb(0,160,255)" stroke="none" paint-order="stroke" d="M 262.7998046875 77.81818389892578 L 262.8432566858828 77.81818389892578 L 262.8432566858828 130.45454788208008 L 262.7998046875 130.45454788208008 L 262.7998046875 77.81818389892578" fill-opacity="1" clip-path="url(#lTguxUifJVGs)"/><path fill="rgb(0,178,255)" stroke="none" paint-order="stroke" d="M 262.84326171875 77.81818389892578 L 262.88287971913815 77.81818389892578 L 262.88287971913815 130.45454788208008 L 262.84326171875 130.45454788208008 L 262.84326171875 77.81818389892578" fill-opacity="1" clip-path="url(#lTguxUifJVGs)"/><path fill="rgb(0,196,255)" stroke="none" paint-order="stroke" d="M 262.88287353515625 77.81818389892578 L 262.9288815334439 77.81818389892578 L 262.9288815334439 130.45454788208008 L 262.88287353515625 130.45454788208008 L 262.88287353515625 77.81818389892578" fill-opacity="1" clip-path="url(#lTguxUifJVGs)"/><path fill="rgb(0,213,255)" stroke="none" paint-order="stroke" d="M 262.92889404296875 77.81818389892578 L 262.9493420422077 77.81818389892578 L 262.9493420422077 130.45454788208008 L 262.92889404296875 130.45454788208008 L 262.92889404296875 77.81818389892578" fill-opacity="1" clip-path="url(#lTguxUifJVGs)"/><path fill="rgb(0,226,255)" stroke="none" paint-order="stroke" d="M 262.9493408203125 77.81818389892578 L 262.99918282032013 77.81818389892578 L 262.99918282032013 130.45454788208008 L 262.9493408203125 130.45454788208008 L 262.9493408203125 77.81818389892578" fill-opacity="1" clip-path="url(#lTguxUifJVGs)"/><path fill="rgb(0,242,255)" stroke="none" paint-order="stroke" d="M 262.9991760253906 77.81818389892578 L 263.0528520271182 77.81818389892578 L 263.0528520271182 130.45454788208008 L 262.9991760253906 130.45454788208008 L 262.9991760253906 77.81818389892578" fill-opacity="1" clip-path="url(#lTguxUifJVGs)"/><path fill="rgb(0,255,244)" stroke="none" paint-order="stroke" d="M 263.0528564453125 77.81818389892578 L 263.1065324470401 77.81818389892578 L 263.1065324470401 130.45454788208008 L 263.0528564453125 130.45454788208008 L 263.0528564453125 77.81818389892578" fill-opacity="1" clip-path="url(#lTguxUifJVGs)"/><path fill="rgb(0,255,202)" stroke="none" paint-order="stroke" d="M 263.1065368652344 77.81818389892578 L 263.1806608662009 77.81818389892578 L 263.1806608662009 130.45454788208008 L 263.1065368652344 130.45454788208008 L 263.1065368652344 77.81818389892578" fill-opacity="1" clip-path="url(#lTguxUifJVGs)"/><path fill="rgb(0,255,169)" stroke="none" paint-order="stroke" d="M 263.1806335449219 77.81818389892578 L 263.22664154320955 77.81818389892578 L 263.22664154320955 130.45454788208008 L 263.1806335449219 130.45454788208008 L 263.1806335449219 77.81818389892578" fill-opacity="1" clip-path="url(#lTguxUifJVGs)"/><path fill="rgb(0,255,122)" stroke="none" paint-order="stroke" d="M 263.2266540527344 77.81818389892578 L 263.29822205007076 77.81818389892578 L 263.29822205007076 130.45454788208008 L 263.2266540527344 130.45454788208008 L 263.2266540527344 77.81818389892578" fill-opacity="1" clip-path="url(#lTguxUifJVGs)"/><path fill="rgb(0,255,70)" stroke="none" paint-order="stroke" d="M 263.2982177734375 77.81818389892578 L 263.37234177440405 77.81818389892578 L 263.37234177440405 130.45454788208008 L 263.2982177734375 130.45454788208008 L 263.2982177734375 77.81818389892578" fill-opacity="1" clip-path="url(#lTguxUifJVGs)"/><path fill="rgb(0,255,0)" stroke="none" paint-order="stroke" d="M 263.3723449707031 77.81818389892578 L 263.4720289707184 77.81818389892578 L 263.4720289707184 130.45454788208008 L 263.3723449707031 130.45454788208008 L 263.3723449707031 77.81818389892578" fill-opacity="1" clip-path="url(#lTguxUifJVGs)"/><path fill="rgb(20,255,0)" stroke="none" paint-order="stroke" d="M 263.4720153808594 77.81818389892578 L 263.5755333825946 77.81818389892578 L 263.5755333825946 130.45454788208008 L 263.4720153808594 130.45454788208008 L 263.4720153808594 77.81818389892578" fill-opacity="1" clip-path="url(#lTguxUifJVGs)"/><path fill="rgb(40,255,0)" stroke="none" paint-order="stroke" d="M 263.5755615234375 77.81818389892578 L 263.64073952287436 77.81818389892578 L 263.64073952287436 130.45454788208008 L 263.5755615234375 130.45454788208008 L 263.5755615234375 77.81818389892578" fill-opacity="1" clip-path="url(#lTguxUifJVGs)"/><path fill="rgb(58,255,0)" stroke="none" paint-order="stroke" d="M 263.6407165527344 77.81818389892578 L 263.71228455007076 77.81818389892578 L 263.71228455007076 130.45454788208008 L 263.6407165527344 130.45454788208008 L 263.6407165527344 77.81818389892578" fill-opacity="1" clip-path="url(#lTguxUifJVGs)"/><path fill="rgb(74,255,0)" stroke="none" paint-order="stroke" d="M 263.7122802734375 77.81818389892578 L 264.3666162490845 77.81818389892578 L 264.3666162490845 130.45454788208008 L 263.7122802734375 130.45454788208008 L 263.7122802734375 77.81818389892578" fill-opacity="1" clip-path="url(#lTguxUifJVGs)"/><path fill="rgb(58,255,0)" stroke="none" paint-order="stroke" d="M 264.36663818359375 77.81818389892578 L 264.6401301920414 77.81818389892578 L 264.6401301920414 130.45454788208008 L 264.36663818359375 130.45454788208008 L 264.36663818359375 77.81818389892578" fill-opacity="1" clip-path="url(#lTguxUifJVGs)"/><path fill="rgb(40,255,0)" stroke="none" paint-order="stroke" d="M 264.64013671875 77.81818389892578 L 264.8241687119007 77.81818389892578 L 264.8241687119007 130.45454788208008 L 264.64013671875 130.45454788208008 L 264.64013671875 77.81818389892578" fill-opacity="1" clip-path="url(#lTguxUifJVGs)"/><path fill="rgb(20,255,0)" stroke="none" paint-order="stroke" d="M 264.82415771484375 77.81818389892578 L 265.80310571193695 77.81818389892578 L 265.80310571193695 130.45454788208008 L 264.82415771484375 130.45454788208008 L 264.82415771484375 77.81818389892578" fill-opacity="1" clip-path="url(#lTguxUifJVGs)"/><path fill="rgb(25,255,0)" stroke="none" paint-order="stroke" d="M 265.8031005859375 77.81818389892578 L 266.002468585968 77.81818389892578 L 266.002468585968 130.45454788208008 L 265.8031005859375 130.45454788208008 L 265.8031005859375 77.81818389892578" fill-opacity="1" clip-path="url(#lTguxUifJVGs)"/><path fill="rgb(30,255,0)" stroke="none" paint-order="stroke" d="M 266.0024719238281 77.81818389892578 L 266.23634591698647 77.81818389892578 L 266.23634591698647 130.45454788208008 L 266.0024719238281 130.45454788208008 L 266.0024719238281 77.81818389892578" fill-opacity="1" clip-path="url(#lTguxUifJVGs)"/><path fill="rgb(35,255,0)" stroke="none" paint-order="stroke" d="M 266.2363586425781 77.81818389892578 L 266.62998265028 77.81818389892578 L 266.62998265028 130.45454788208008 L 266.2363586425781 130.45454788208008 L 266.2363586425781 77.81818389892578" fill-opacity="1" clip-path="url(#lTguxUifJVGs)"/><path fill="rgb(40,255,0)" stroke="none" paint-order="stroke" d="M 266.6299743652344 77.81818389892578 L 266.8472343683243 77.81818389892578 L 266.8472343683243 130.45454788208008 L 266.6299743652344 130.45454788208008 L 266.6299743652344 77.81818389892578" fill-opacity="1" clip-path="url(#lTguxUifJVGs)"/><path fill="rgb(44,255,0)" stroke="none" paint-order="stroke" d="M 266.84722900390625 77.81818389892578 L 267.1117750108242 77.81818389892578 L 267.1117750108242 130.45454788208008 L 266.84722900390625 130.45454788208008 L 266.84722900390625 77.81818389892578" fill-opacity="1" clip-path="url(#lTguxUifJVGs)"/><path fill="rgb(49,255,0)" stroke="none" paint-order="stroke" d="M 267.1117858886719 77.81818389892578 L 267.79295986890793 77.81818389892578 L 267.79295986890793 130.45454788208008 L 267.1117858886719 130.45454788208008 L 267.1117858886719 77.81818389892578" fill-opacity="1" clip-path="url(#lTguxUifJVGs)"/><path fill="rgb(53,255,0)" stroke="none" paint-order="stroke" d="M 267.7929382324219 77.81818389892578 L 279.84192180633545 77.81818389892578 L 279.84192180633545 130.45454788208008 L 267.7929382324219 130.45454788208008 L 267.7929382324219 77.81818389892578" fill-opacity="1" clip-path="url(#lTguxUifJVGs)"/><path fill="rgb(143,255,0)" stroke="none" paint-order="stroke" d="M 279.8419189453125 77.81818389892578 L 282.02090883255005 77.81818389892578 L 282.02090883255005 130.45454788208008 L 279.8419189453125 130.45454788208008 L 279.8419189453125 77.81818389892578" fill-opacity="1" clip-path="url(#lTguxUifJVGs)"/><path fill="rgb(0,255,40)" stroke="none" paint-order="stroke" d="M 282.02093505859375 77.81818389892578 L 526.4537658691406 77.81818389892578 L 526.4537658691406 130.45454788208008 L 282.02093505859375 130.45454788208008 L 282.02093505859375 77.81818389892578" fill-opacity="1" clip-path="url(#lTguxUifJVGs)"/><path fill="rgb(30,255,0)" stroke="none" paint-order="stroke" d="M 526.4537353515625 77.81818389892578 L 527.1272413730621 77.81818389892578 L 527.1272413730621 130.45454788208008 L 526.4537353515625 130.45454788208008 L 526.4537353515625 77.81818389892578" fill-opacity="1" clip-path="url(#lTguxUifJVGs)"/><path fill="rgb(49,255,0)" stroke="none" paint-order="stroke" d="M 527.1272583007812 77.81818389892578 L 527.2218303009868 77.81818389892578 L 527.2218303009868 130.45454788208008 L 527.1272583007812 130.45454788208008 L 527.1272583007812 77.81818389892578" fill-opacity="1" clip-path="url(#lTguxUifJVGs)"/><path fill="rgb(62,255,0)" stroke="none" paint-order="stroke" d="M 527.2218627929688 77.81818389892578 L 527.2755387946963 77.81818389892578 L 527.2755387946963 130.45454788208008 L 527.2218627929688 130.45454788208008 L 527.2218627929688 77.81818389892578" fill-opacity="1" clip-path="url(#lTguxUifJVGs)"/><path fill="rgb(78,255,0)" stroke="none" paint-order="stroke" d="M 527.2755126953125 77.81818389892578 L 527.3266326971352 77.81818389892578 L 527.3266326971352 130.45454788208008 L 527.2755126953125 130.45454788208008 L 527.2755126953125 77.81818389892578" fill-opacity="1" clip-path="url(#lTguxUifJVGs)"/><path fill="rgb(93,255,0)" stroke="none" paint-order="stroke" d="M 527.32666015625 77.81818389892578 L 527.3816141560674 77.81818389892578 L 527.3816141560674 130.45454788208008 L 527.32666015625 130.45454788208008 L 527.32666015625 77.81818389892578" fill-opacity="1" clip-path="url(#lTguxUifJVGs)"/><path fill="rgb(108,255,0)" stroke="none" paint-order="stroke" d="M 527.381591796875 77.81818389892578 L 527.4033177960664 77.81818389892578 L 527.4033177960664 130.45454788208008 L 527.381591796875 130.45454788208008 L 527.381591796875 77.81818389892578" fill-opacity="1" clip-path="url(#lTguxUifJVGs)"/><path fill="rgb(119,255,0)" stroke="none" paint-order="stroke" d="M 527.4033203125 77.81818389892578 L 527.445494312793 77.81818389892578 L 527.445494312793 130.45454788208008 L 527.4033203125 130.45454788208008 L 527.4033203125 77.81818389892578" fill-opacity="1" clip-path="url(#lTguxUifJVGs)"/><path fill="rgb(132,255,0)" stroke="none" paint-order="stroke" d="M 527.4454956054688 77.81818389892578 L 527.4915036037564 77.81818389892578 L 527.4915036037564 130.45454788208008 L 527.4454956054688 130.45454788208008 L 527.4454956054688 77.81818389892578" fill-opacity="1" clip-path="url(#lTguxUifJVGs)"/><path fill="rgb(146,255,0)" stroke="none" paint-order="stroke" d="M 527.4915161132812 77.81818389892578 L 527.584810115397 77.81818389892578 L 527.584810115397 130.45454788208008 L 527.4915161132812 130.45454788208008 L 527.4915161132812 77.81818389892578" fill-opacity="1" clip-path="url(#lTguxUifJVGs)"/><path fill="rgb(159,255,0)" stroke="none" paint-order="stroke" d="M 527.5847778320312 77.81818389892578 L 527.6384538337588 77.81818389892578 L 527.6384538337588 130.45454788208008 L 527.5847778320312 130.45454788208008 L 527.5847778320312 77.81818389892578" fill-opacity="1" clip-path="url(#lTguxUifJVGs)"/><path fill="rgb(169,255,0)" stroke="none" paint-order="stroke" d="M 527.6384887695312 77.81818389892578 L 527.6908867694438 77.81818389892578 L 527.6908867694438 130.45454788208008 L 527.6384887695312 130.45454788208008 L 527.6384887695312 77.81818389892578" fill-opacity="1" clip-path="url(#lTguxUifJVGs)"/><path fill="rgb(182,255,0)" stroke="none" paint-order="stroke" d="M 527.6908569335938 77.81818389892578 L 528.3260229229927 77.81818389892578 L 528.3260229229927 130.45454788208008 L 527.6908569335938 130.45454788208008 L 527.6908569335938 77.81818389892578" fill-opacity="1" clip-path="url(#lTguxUifJVGs)"/><path fill="rgb(169,255,0)" stroke="none" paint-order="stroke" d="M 528.3260498046875 77.81818389892578 L 528.404007807374 77.81818389892578 L 528.404007807374 130.45454788208008 L 528.3260498046875 130.45454788208008 L 528.3260498046875 77.81818389892578" fill-opacity="1" clip-path="url(#lTguxUifJVGs)"/><path fill="rgb(159,255,0)" stroke="none" paint-order="stroke" d="M 528.4039916992188 77.81818389892578 L 528.4308297000825 77.81818389892578 L 528.4308297000825 130.45454788208008 L 528.4039916992188 130.45454788208008 L 528.4039916992188 77.81818389892578" fill-opacity="1" clip-path="url(#lTguxUifJVGs)"/><path fill="rgb(146,255,0)" stroke="none" paint-order="stroke" d="M 528.4308471679688 77.81818389892578 L 528.488357167691 77.81818389892578 L 528.488357167691 130.45454788208008 L 528.4308471679688 130.45454788208008 L 528.4308471679688 77.81818389892578" fill-opacity="1" clip-path="url(#lTguxUifJVGs)"/><path fill="rgb(132,255,0)" stroke="none" paint-order="stroke" d="M 528.4883422851562 77.81818389892578 L 528.5420182868838 77.81818389892578 L 528.5420182868838 130.45454788208008 L 528.4883422851562 130.45454788208008 L 528.4883422851562 77.81818389892578" fill-opacity="1" clip-path="url(#lTguxUifJVGs)"/><path fill="rgb(119,255,0)" stroke="none" paint-order="stroke" d="M 528.5419921875 77.81818389892578 L 528.6161161884665 77.81818389892578 L 528.6161161884665 130.45454788208008 L 528.5419921875 130.45454788208008 L 528.5419921875 77.81818389892578" fill-opacity="1" clip-path="url(#lTguxUifJVGs)"/><path fill="rgb(108,255,0)" stroke="none" paint-order="stroke" d="M 528.6161499023438 77.81818389892578 L 528.6915519014001 77.81818389892578 L 528.6915519014001 130.45454788208008 L 528.6161499023438 130.45454788208008 L 528.6161499023438 77.81818389892578" fill-opacity="1" clip-path="url(#lTguxUifJVGs)"/><path fill="rgb(93,255,0)" stroke="none" paint-order="stroke" d="M 528.6915283203125 77.81818389892578 L 528.8410543203354 77.81818389892578 L 528.8410543203354 130.45454788208008 L 528.6915283203125 130.45454788208008 L 528.6915283203125 77.81818389892578" fill-opacity="1" clip-path="url(#lTguxUifJVGs)"/><path fill="rgb(78,255,0)" stroke="none" paint-order="stroke" d="M 528.841064453125 77.81818389892578 L 531.7203984260559 77.81818389892578 L 531.7203984260559 130.45454788208008 L 528.841064453125 130.45454788208008 L 528.841064453125 77.81818389892578" fill-opacity="1" clip-path="url(#lTguxUifJVGs)"/><path fill="rgb(251,0,7)" stroke="none" paint-order="stroke" d="M 58.5 130.4545440673828 L 184.14656829833984 130.4545440673828 L 184.14656829833984 183.0909080505371 L 58.5 183.0909080505371 L 58.5 130.4545440673828" fill-opacity="1" clip-path="url(#LwsNmubTbDBp)"/><path fill="rgb(251,0,7)" stroke="none" paint-order="stroke" d="M 184.14657592773438 130.4545440673828 L 188.34991788864136 130.4545440673828 L 188.34991788864136 183.0909080505371 L 184.14657592773438 183.0909080505371 L 184.14657592773438 130.4545440673828" fill-opacity="1" clip-path="url(#LwsNmubTbDBp)"/><path fill="rgb(251,0,7)" stroke="none" paint-order="stroke" d="M 188.34991455078125 130.4545440673828 L 279.84193420410156 130.4545440673828 L 279.84193420410156 183.0909080505371 L 188.34991455078125 183.0909080505371 L 188.34991455078125 130.4545440673828" fill-opacity="1" clip-path="url(#LwsNmubTbDBp)"/><path fill="rgb(62,0,101)" stroke="none" paint-order="stroke" d="M 279.8419189453125 130.4545440673828 L 282.02090883255005 130.4545440673828 L 282.02090883255005 183.0909080505371 L 279.8419189453125 183.0909080505371 L 279.8419189453125 130.4545440673828" fill-opacity="1" clip-path="url(#LwsNmubTbDBp)"/><path fill="rgb(251,0,7)" stroke="none" paint-order="stroke" d="M 282.02093505859375 130.4545440673828 L 531.7204132080078 130.4545440673828 L 531.7204132080078 183.0909080505371 L 282.02093505859375 183.0909080505371 L 282.02093505859375 130.4545440673828" fill-opacity="1" clip-path="url(#LwsNmubTbDBp)"/><path fill="rgb(105,29,48)" stroke="none" paint-order="stroke" d="M 110.93505859375 183.09091186523438 L 110.99895859509706 183.09091186523438 L 110.99895859509706 498.9090881347656 L 110.93505859375 498.9090881347656 L 110.93505859375 183.09091186523438" fill-opacity="1" clip-path="url(#ISAFiWfEfHeb)"/><path fill="rgb(162,174,187)" stroke="none" paint-order="stroke" d="M 116.0560073852539 183.09091186523438 L 116.11990738660097 183.09091186523438 L 116.11990738660097 498.9090881347656 L 116.0560073852539 498.9090881347656 L 116.0560073852539 183.09091186523438" fill-opacity="1" clip-path="url(#hJknEMptZTrs)"/><path fill="rgb(255,188,66)" stroke="none" paint-order="stroke" d="M 61.03171920776367 183.09091186523438 L 61.03299720771611 183.09091186523438 L 61.03299720771611 498.9090881347656 L 61.03171920776367 498.9090881347656 L 61.03171920776367 183.09091186523438" fill-opacity="1" clip-path="url(#vhukNaDSOpOd)"/><path fill="rgb(216,17,89)" stroke="none" paint-order="stroke" d="M 170.83619689941406 183.09091186523438 L 170.90009690076113 183.09091186523438 L 170.90009690076113 498.9090881347656 L 170.83619689941406 498.9090881347656 L 170.83619689941406 183.09091186523438" fill-opacity="1" clip-path="url(#WbnvUwbQWzEH)"/><path fill="rgb(216,17,89)" stroke="none" paint-order="stroke" d="M 170.83619689941406 183.09091186523438 L 170.90009690076113 183.09091186523438 L 170.90009690076113 498.9090881347656 L 170.83619689941406 498.9090881347656 L 170.83619689941406 183.09091186523438" fill-opacity="1" clip-path="url(#WbnvUwbQWzEH)"/><path fill="rgb(216,17,89)" stroke="none" paint-order="stroke" d="M 171.81130981445312 183.09091186523438 L 171.8752098158002 183.09091186523438 L 171.8752098158002 498.9090881347656 L 171.81130981445312 498.9090881347656 L 171.81130981445312 183.09091186523438" fill-opacity="1" clip-path="url(#WbnvUwbQWzEH)"/><path fill="rgb(216,17,89)" stroke="none" paint-order="stroke" d="M 171.81130981445312 183.09091186523438 L 171.8752098158002 183.09091186523438 L 171.8752098158002 498.9090881347656 L 171.81130981445312 498.9090881347656 L 171.81130981445312 183.09091186523438" fill-opacity="1" clip-path="url(#WbnvUwbQWzEH)"/><path fill="rgb(216,17,89)" stroke="none" paint-order="stroke" d="M 218.79315185546875 183.09091186523438 L 218.85705185681581 183.09091186523438 L 218.85705185681581 498.9090881347656 L 218.79315185546875 498.9090881347656 L 218.79315185546875 183.09091186523438" fill-opacity="1" clip-path="url(#WbnvUwbQWzEH)"/><path fill="rgb(216,17,89)" stroke="none" paint-order="stroke" d="M 218.79315185546875 183.09091186523438 L 218.85705185681581 183.09091186523438 L 218.85705185681581 498.9090881347656 L 218.79315185546875 498.9090881347656 L 218.79315185546875 183.09091186523438" fill-opacity="1" clip-path="url(#WbnvUwbQWzEH)"/><path fill="rgb(33,131,128)" stroke="none" paint-order="stroke" d="M 182.6589813232422 183.09091186523438 L 184.14657330513 183.09091186523438 L 184.14657330513 498.9090881347656 L 182.6589813232422 498.9090881347656 L 182.6589813232422 183.09091186523438" fill-opacity="1" clip-path="url(#iBEQAVFiebcQ)"/><path fill="rgb(33,131,128)" stroke="none" paint-order="stroke" d="M 187.38119506835938 183.09091186523438 L 188.34991908073425 183.09091186523438 L 188.34991908073425 498.9090881347656 L 187.38119506835938 498.9090881347656 L 187.38119506835938 183.09091186523438" fill-opacity="1" clip-path="url(#iBEQAVFiebcQ)"/><path fill="rgb(33,131,128)" stroke="none" paint-order="stroke" d="M 231.11434936523438 183.09091186523438 L 232.06518137454987 183.09091186523438 L 232.06518137454987 498.9090881347656 L 231.11434936523438 498.9090881347656 L 231.11434936523438 183.09091186523438" fill-opacity="1" clip-path="url(#iBEQAVFiebcQ)"/><path fill="rgb(33,131,128)" stroke="none" paint-order="stroke" d="M 278.1856384277344 183.09091186523438 L 279.84192645549774 183.09091186523438 L 279.84192645549774 498.9090881347656 L 278.1856384277344 498.9090881347656 L 278.1856384277344 183.09091186523438" fill-opacity="1" clip-path="url(#iBEQAVFiebcQ)"/><path fill="rgb(33,131,128)" stroke="none" paint-order="stroke" d="M 281.0240783691406 183.09091186523438 L 282.0209183692932 183.09091186523438 L 282.0209183692932 498.9090881347656 L 281.0240783691406 498.9090881347656 L 281.0240783691406 183.09091186523438" fill-opacity="1" clip-path="url(#iBEQAVFiebcQ)"/><path fill="rgb(115,210,222)" stroke="none" paint-order="stroke" d="M 173.7155303955078 183.09091186523438 L 174.75582242012024 183.09091186523438 L 174.75582242012024 498.9090881347656 L 173.7155303955078 498.9090881347656 L 173.7155303955078 183.09091186523438" fill-opacity="1" clip-path="url(#SLEVqmdWnHEm)"/><path fill="rgb(115,210,222)" stroke="none" paint-order="stroke" d="M 180.21800231933594 183.09091186523438 L 180.79438030719757 183.09091186523438 L 180.79438030719757 498.9090881347656 L 180.21800231933594 498.9090881347656 L 180.21800231933594 183.09091186523438" fill-opacity="1" clip-path="url(#SLEVqmdWnHEm)"/><path fill="rgb(115,210,222)" stroke="none" paint-order="stroke" d="M 185.1510772705078 183.09091186523438 L 186.95689129829407 183.09091186523438 L 186.95689129829407 498.9090881347656 L 185.1510772705078 498.9090881347656 L 185.1510772705078 183.09091186523438" fill-opacity="1" clip-path="url(#SLEVqmdWnHEm)"/><path fill="rgb(115,210,222)" stroke="none" paint-order="stroke" d="M 234.68124389648438 183.09091186523438 L 235.54517191648483 183.09091186523438 L 235.54517191648483 498.9090881347656 L 234.68124389648438 498.9090881347656 L 234.68124389648438 183.09091186523438" fill-opacity="1" clip-path="url(#SLEVqmdWnHEm)"/><path fill="rgb(115,210,222)" stroke="none" paint-order="stroke" d="M 273.7152099609375 183.09091186523438 L 273.77910996228456 183.09091186523438 L 273.77910996228456 498.9090881347656 L 273.7152099609375 498.9090881347656 L 273.7152099609375 183.09091186523438" fill-opacity="1" clip-path="url(#SLEVqmdWnHEm)"/><path fill="rgb(115,210,222)" stroke="none" paint-order="stroke" d="M 273.7152099609375 183.09091186523438 L 273.77910996228456 183.09091186523438 L 273.77910996228456 498.9090881347656 L 273.7152099609375 498.9090881347656 L 273.7152099609375 183.09091186523438" fill-opacity="1" clip-path="url(#SLEVqmdWnHEm)"/><path fill="rgb(115,210,222)" stroke="none" paint-order="stroke" d="M 274.17401123046875 183.09091186523438 L 274.2379112318158 183.09091186523438 L 274.2379112318158 498.9090881347656 L 274.17401123046875 498.9090881347656 L 274.17401123046875 183.09091186523438" fill-opacity="1" clip-path="url(#SLEVqmdWnHEm)"/><path fill="rgb(115,210,222)" stroke="none" paint-order="stroke" d="M 274.17401123046875 183.09091186523438 L 274.2379112318158 183.09091186523438 L 274.2379112318158 498.9090881347656 L 274.17401123046875 498.9090881347656 L 274.17401123046875 183.09091186523438" fill-opacity="1" clip-path="url(#SLEVqmdWnHEm)"/><path fill="rgb(115,210,222)" stroke="none" paint-order="stroke" d="M 274.67498779296875 183.09091186523438 L 277.84059381484985 183.09091186523438 L 277.84059381484985 498.9090881347656 L 274.67498779296875 498.9090881347656 L 274.67498779296875 183.09091186523438" fill-opacity="1" clip-path="url(#SLEVqmdWnHEm)"/><path fill="rgb(115,210,222)" stroke="none" paint-order="stroke" d="M 529.7676391601562 183.09091186523438 L 531.7204231023788 183.09091186523438 L 531.7204231023788 498.9090881347656 L 529.7676391601562 498.9090881347656 L 529.7676391601562 183.09091186523438" fill-opacity="1" clip-path="url(#SLEVqmdWnHEm)"/><path fill="rgb(28,49,68)" stroke="none" paint-order="stroke" d="M 233.09524536132812 183.09091186523438 L 234.162375330925 183.09091186523438 L 234.162375330925 498.9090881347656 L 233.09524536132812 498.9090881347656 L 233.09524536132812 183.09091186523438" fill-opacity="1" clip-path="url(#iPFQVUyowJWK)"/><path fill="rgb(239,185,203)" stroke="none" paint-order="stroke" d="M 62.68033981323242 183.09091186523438 L 106.92086410522461 183.09091186523438 L 106.92086410522461 498.9090881347656 L 62.68033981323242 498.9090881347656 L 62.68033981323242 183.09091186523438" fill-opacity="1" clip-path="url(#uxANmzsFRSwx)"/><path fill="rgb(239,185,203)" stroke="none" paint-order="stroke" d="M 124.43202209472656 183.09091186523438 L 169.05722427368164 183.09091186523438 L 169.05722427368164 498.9090881347656 L 124.43202209472656 498.9090881347656 L 124.43202209472656 183.09091186523438" fill-opacity="1" clip-path="url(#uxANmzsFRSwx)"/><path fill="rgb(239,185,203)" stroke="none" paint-order="stroke" d="M 175.49578857421875 183.09091186523438 L 179.29656052589417 183.09091186523438 L 179.29656052589417 498.9090881347656 L 175.49578857421875 498.9090881347656 L 175.49578857421875 183.09091186523438" fill-opacity="1" clip-path="url(#uxANmzsFRSwx)"/><path fill="rgb(239,185,203)" stroke="none" paint-order="stroke" d="M 189.20872497558594 183.09091186523438 L 215.48440551757812 183.09091186523438 L 215.48440551757812 498.9090881347656 L 189.20872497558594 498.9090881347656 L 189.20872497558594 183.09091186523438" fill-opacity="1" clip-path="url(#uxANmzsFRSwx)"/><path fill="rgb(239,185,203)" stroke="none" paint-order="stroke" d="M 238.0487823486328 183.09091186523438 L 251.4179401397705 183.09091186523438 L 251.4179401397705 498.9090881347656 L 238.0487823486328 498.9090881347656 L 238.0487823486328 183.09091186523438" fill-opacity="1" clip-path="url(#uxANmzsFRSwx)"/><path fill="rgb(239,185,203)" stroke="none" paint-order="stroke" d="M 283.12255859375 183.09091186523438 L 522.7513885498047 183.09091186523438 L 522.7513885498047 498.9090881347656 L 283.12255859375 498.9090881347656 L 283.12255859375 183.09091186523438" fill-opacity="1" clip-path="url(#uxANmzsFRSwx)"/><path fill="rgb(105,29,48)" stroke="none" paint-order="stroke" d="M 220.0724334716797 183.09091186523438 L 226.11098337173462 183.09091186523438 L 226.11098337173462 498.9090881347656 L 220.0724334716797 498.9090881347656 L 220.0724334716797 183.09091186523438" fill-opacity="1" clip-path="url(#HmZBIieUfWtc)"/><path fill="rgb(105,29,48)" stroke="none" paint-order="stroke" d="M 256.4455871582031 183.09091186523438 L 256.6142831593752 183.09091186523438 L 256.6142831593752 498.9090881347656 L 256.4455871582031 498.9090881347656 L 256.4455871582031 183.09091186523438" fill-opacity="1" clip-path="url(#HmZBIieUfWtc)"/><path fill="rgb(105,29,48)" stroke="none" paint-order="stroke" d="M 260.2080078125 183.09091186523438 L 265.0989136695862 183.09091186523438 L 265.0989136695862 498.9090881347656 L 260.2080078125 498.9090881347656 L 260.2080078125 183.09091186523438" fill-opacity="1" clip-path="url(#HmZBIieUfWtc)"/><path fill="rgb(105,29,48)" stroke="none" paint-order="stroke" d="M 526.3400268554688 183.09091186523438 L 528.9075288772583 183.09091186523438 L 528.9075288772583 498.9090881347656 L 526.3400268554688 498.9090881347656 L 526.3400268554688 183.09091186523438" fill-opacity="1" clip-path="url(#HmZBIieUfWtc)"/><path fill="rgb(143,45,86)" stroke="none" paint-order="stroke" d="M 58.5 551.5454711914062 L 110.93506240844727 551.5454711914062 L 110.93506240844727 604.1818351745605 L 58.5 604.1818351745605 L 58.5 551.5454711914062" fill-opacity="1" clip-path="url(#lefbmMvpMymn)"/><path fill="rgb(63,136,197)" stroke="none" paint-order="stroke" d="M 110.93505859375 551.5454711914062 L 116.05600452423096 551.5454711914062 L 116.05600452423096 604.1818351745605 L 110.93505859375 604.1818351745605 L 110.93505859375 551.5454711914062" fill-opacity="1" clip-path="url(#lefbmMvpMymn)"/><path fill="rgb(81,60,99)" stroke="none" paint-order="stroke" d="M 116.0560073852539 551.5454711914062 L 531.7204055786133 551.5454711914062 L 531.7204055786133 604.1818351745605 L 116.0560073852539 604.1818351745605 L 116.0560073852539 551.5454711914062" fill-opacity="1" clip-path="url(#lefbmMvpMymn)"/><path fill="none" stroke="rgb(0,0,0)" paint-order="fill" d="M 58.5 77.81818389892578 L 531.7203979492188 77.81818389892578 L 531.7203979492188 604.1818313598633 L 58.5 604.1818313598633 L 58.5 77.81818389892578" stroke-opacity="1" stroke-linejoin="bevel" stroke-miterlimit="10" stroke-dasharray="" clip-path="url(#aXetTIAVZaDS)"/><path fill="none" stroke="rgb(0,0,0)" paint-order="fill" d="M 58.5 630.5 L 1336.5 630.5" stroke-opacity="1" stroke-linejoin="bevel" stroke-miterlimit="10" stroke-dasharray=""/><path fill="none" stroke="rgb(0,0,0)" paint-order="fill" d="M 58.5 636.5 L 58.5 628.5 M 314.5 636.5 L 314.5 628.5 M 569.5 636.5 L 569.5 628.5 M 825.5 636.5 L 825.5 628.5 M 1080.5 636.5 L 1080.5 628.5 M 1336.5 636.5 L 1336.5 628.5" stroke-opacity="1" stroke-linejoin="bevel" stroke-miterlimit="10" stroke-dasharray=""/><path fill="none" stroke="rgb(0,0,0)" paint-order="fill" d="M 58.5 634.5 L 58.5 630.5 M 109.5 634.5 L 109.5 630.5 M 160.5 634.5 L 160.5 630.5 M 211.5 634.5 L 211.5 630.5 M 262.5 634.5 L 262.5 630.5 M 314.5 634.5 L 314.5 630.5 M 365.5 634.5 L 365.5 630.5 M 416.5 634.5 L 416.5 630.5 M 467.5 634.5 L 467.5 630.5 M 518.5 634.5 L 518.5 630.5 M 569.5 634.5 L 569.5 630.5 M 620.5 634.5 L 620.5 630.5 M 671.5 634.5 L 671.5 630.5 M 723.5 634.5 L 723.5 630.5 M 774.5 634.5 L 774.5 630.5 M 825.5 634.5 L 825.5 630.5 M 876.5 634.5 L 876.5 630.5 M 927.5 634.5 L 927.5 630.5 M 978.5 634.5 L 978.5 630.5 M 1029.5 634.5 L 1029.5 630.5 M 1080.5 634.5 L 1080.5 630.5 M 1132.5 634.5 L 1132.5 630.5 M 1183.5 634.5 L 1183.5 630.5 M 1234.5 634.5 L 1234.5 630.5 M 1285.5 634.5 L 1285.5 630.5 M 1336.5 634.5 L 1336.5 630.5" stroke-opacity="1" stroke-linejoin="bevel" stroke-miterlimit="10" stroke-dasharray=""/><text fill="rgb(68,68,68)" stroke="none" font-family="helvetica" font-size="11px" font-style="normal" font-weight="normal" text-decoration="normal" x="54.94166660308838" y="648.89013671875" text-anchor="start" dominant-baseline="alphabetic" transform="matrix(1, 0, 0, 1, 0.5, 0.5)" fill-opacity="1">0</text><text fill="rgb(68,68,68)" stroke="none" font-family="helvetica" font-size="11px" font-style="normal" font-weight="normal" text-decoration="normal" x="304.42500591278076" y="648.89013671875" text-anchor="start" dominant-baseline="alphabetic" transform="matrix(1, 0, 0, 1, 0.5, 0.5)" fill-opacity="1">200</text><text fill="rgb(68,68,68)" stroke="none" font-family="helvetica" font-size="11px" font-style="normal" font-weight="normal" text-decoration="normal" x="560.0250120162964" y="648.89013671875" text-anchor="start" dominant-baseline="alphabetic" transform="matrix(1, 0, 0, 1, 0.5, 0.5)" fill-opacity="1">400</text><text fill="rgb(68,68,68)" stroke="none" font-family="helvetica" font-size="11px" font-style="normal" font-weight="normal" text-decoration="normal" x="815.6249876022339" y="648.89013671875" text-anchor="start" dominant-baseline="alphabetic" transform="matrix(1, 0, 0, 1, 0.5, 0.5)" fill-opacity="1">600</text><text fill="rgb(68,68,68)" stroke="none" font-family="helvetica" font-size="11px" font-style="normal" font-weight="normal" text-decoration="normal" x="1071.2250242233276" y="648.89013671875" text-anchor="start" dominant-baseline="alphabetic" transform="matrix(1, 0, 0, 1, 0.5, 0.5)" fill-opacity="1">800</text><text fill="rgb(68,68,68)" stroke="none" font-family="helvetica" font-size="11px" font-style="normal" font-weight="normal" text-decoration="normal" x="1323.7666664123535" y="648.89013671875" text-anchor="start" dominant-baseline="alphabetic" transform="matrix(1, 0, 0, 1, 0.5, 0.5)" fill-opacity="1">1000</text><text fill="rgb(68,68,68)" stroke="none" font-family="helvetica" font-size="15pt" font-style="italic" font-weight="normal" text-decoration="normal" x="666.4416675567627" y="676.06982421875" text-anchor="start" dominant-baseline="alphabetic" transform="matrix(1, 0, 0, 1, 0.5, 0.5)" fill-opacity="1">time(s)</text><path fill="none" stroke="rgb(0,0,0)" paint-order="fill" d="M 58.5 630.5 L 58.5 51.5" stroke-opacity="1" stroke-linejoin="bevel" stroke-miterlimit="10" stroke-dasharray=""/><path fill="none" stroke="rgb(0,0,0)" paint-order="fill" d="M 52.5 551.5 L 60.5 551.5 M 52.5 446.5 L 60.5 446.5 M 52.5 341.5 L 60.5 341.5 M 52.5 235.5 L 60.5 235.5 M 52.5 130.5 L 60.5 130.5" stroke-opacity="1" stroke-linejoin="bevel" stroke-miterlimit="10" stroke-dasharray=""/><path fill="none" stroke="rgb(0,0,0)" paint-order="fill" d="M 54.5 572.5 L 58.5 572.5 M 54.5 593.5 L 58.5 593.5 M 54.5 614.5 L 58.5 614.5 M 54.5 551.5 L 58.5 551.5 M 54.5 530.5 L 58.5 530.5 M 54.5 509.5 L 58.5 509.5 M 54.5 488.5 L 58.5 488.5 M 54.5 467.5 L 58.5 467.5 M 54.5 446.5 L 58.5 446.5 M 54.5 425.5 L 58.5 425.5 M 54.5 404.5 L 58.5 404.5 M 54.5 383.5 L 58.5 383.5 M 54.5 362.5 L 58.5 362.5 M 54.5 341.5 L 58.5 341.5 M 54.5 319.5 L 58.5 319.5 M 54.5 298.5 L 58.5 298.5 M 54.5 277.5 L 58.5 277.5 M 54.5 256.5 L 58.5 256.5 M 54.5 235.5 L 58.5 235.5 M 54.5 214.5 L 58.5 214.5 M 54.5 193.5 L 58.5 193.5 M 54.5 172.5 L 58.5 172.5 M 54.5 151.5 L 58.5 151.5 M 54.5 130.5 L 58.5 130.5 M 54.5 109.5 L 58.5 109.5 M 54.5 88.5 L 58.5 88.5 M 54.5 67.5 L 58.5 67.5" stroke-opacity="1" stroke-linejoin="bevel" stroke-miterlimit="10" stroke-dasharray=""/><text fill="rgb(68,68,68)" stroke="none" font-family="helvetica" font-size="11px" font-style="normal" font-weight="normal" text-decoration="normal" x="34.46666622161865" y="554.9905395507812" text-anchor="start" dominant-baseline="alphabetic" transform="matrix(1, 0, 0, 1, 0.5, 0.5)" fill-opacity="1">2</text><text fill="rgb(68,68,68)" stroke="none" font-family="helvetica" font-size="11px" font-style="normal" font-weight="normal" text-decoration="normal" x="34.46666622161865" y="449.7178039550781" text-anchor="start" dominant-baseline="alphabetic" transform="matrix(1, 0, 0, 1, 0.5, 0.5)" fill-opacity="1">1</text><text fill="rgb(68,68,68)" stroke="none" font-family="helvetica" font-size="11px" font-style="normal" font-weight="normal" text-decoration="normal" x="40.88333320617676" y="344.445068359375" text-anchor="start" dominant-baseline="alphabetic" transform="matrix(1, 0, 0, 1, 0.5, 0.5)" fill-opacity="1">0</text><text fill="rgb(68,68,68)" stroke="none" font-family="helvetica" font-size="11px" font-style="normal" font-weight="normal" text-decoration="normal" x="40.88333320617676" y="239.17234802246094" text-anchor="start" dominant-baseline="alphabetic" transform="matrix(1, 0, 0, 1, 0.5, 0.5)" fill-opacity="1">1</text><text fill="rgb(68,68,68)" stroke="none" font-family="helvetica" font-size="11px" font-style="normal" font-weight="normal" text-decoration="normal" x="40.88333320617676" y="133.8996124267578" text-anchor="start" dominant-baseline="alphabetic" transform="matrix(1, 0, 0, 1, 0.5, 0.5)" fill-opacity="1">2</text><text fill="rgb(68,68,68)" stroke="none" font-family="helvetica" font-size="15pt" font-style="italic" font-weight="normal" text-decoration="normal" x="-11.316666603088379" y="336.076171875" text-anchor="start" dominant-baseline="alphabetic" transform="matrix(6.123233995736766e-17, -1, 1, 6.123233995736766e-17, -313.53333377838135, 367.46666622161865)" fill-opacity="1">students</text><path fill="rgb(255,255,255)" stroke="rgb(229,229,229)" paint-order="fill" d="M 1128.2333374023438 61.5 L 1326.5 61.5 L 1326.5 400.5 L 1128.2333374023438 400.5 L 1128.2333374023438 61.5" fill-opacity="0.9490196078431372" clip-path="url(#VgRZJnFbdzRO)" stroke-opacity="0.5019607843137255" stroke-linejoin="bevel" stroke-miterlimit="10" stroke-dasharray=""/><g clip-path="url(#VgRZJnFbdzRO)"><text fill="rgb(68,68,68)" stroke="none" font-family="helvetica" font-size="13px" font-style="normal" font-weight="normal" text-decoration="normal" x="1162.7333374023438" y="81" text-anchor="start" dominant-baseline="central" transform="matrix(1, 0, 0, 1, 0.5, 0.5)" fill-opacity="1">wavelength</text></g><path fill="rgb(0,255,40)" stroke="none" paint-order="stroke" d="M 1140.2333374023438 73.5 L 1156.2333374023438 73.5 L 1156.2333374023438 89.5 L 1140.2333374023438 89.5 L 1140.2333374023438 73.5" fill-opacity="1" clip-path="url(#VgRZJnFbdzRO)"/><path fill="rgb(216,17,89)" stroke="none" paint-order="stroke" d="M 1140.2333374023438 73.5 L 1156.2333374023438 73.5 L 1156.2333374023438 89.5 L 1140.2333374023438 89.5 L 1140.2333374023438 73.5" fill-opacity="1" clip-path="url(#VgRZJnFbdzRO)"/><g clip-path="url(#VgRZJnFbdzRO)"><text fill="rgb(68,68,68)" stroke="none" font-family="helvetica" font-size="13px" font-style="normal" font-weight="normal" text-decoration="normal" x="1162.7333374023438" y="104" text-anchor="start" dominant-baseline="central" transform="matrix(1, 0, 0, 1, 0.5, 0.5)" fill-opacity="1">solution</text></g><path fill="rgb(251,0,7)" stroke="none" paint-order="stroke" d="M 1140.2333374023438 96.5 L 1156.2333374023438 96.5 L 1156.2333374023438 112.5 L 1140.2333374023438 112.5 L 1140.2333374023438 96.5" fill-opacity="1" clip-path="url(#VgRZJnFbdzRO)"/><path fill="rgb(33,131,128)" stroke="none" paint-order="stroke" d="M 1140.2333374023438 96.5 L 1156.2333374023438 96.5 L 1156.2333374023438 112.5 L 1140.2333374023438 112.5 L 1140.2333374023438 96.5" fill-opacity="1" clip-path="url(#VgRZJnFbdzRO)"/><g clip-path="url(#VgRZJnFbdzRO)"><text fill="rgb(68,68,68)" stroke="none" font-family="helvetica" font-size="13px" font-style="normal" font-weight="normal" text-decoration="normal" x="1162.7333374023438" y="127" text-anchor="start" dominant-baseline="central" transform="matrix(1, 0, 0, 1, 0.5, 0.5)" fill-opacity="1">laser</text></g><path fill="rgb(105,29,48)" stroke="none" paint-order="stroke" d="M 1140.2333374023438 119.5 L 1156.2333374023438 119.5 L 1156.2333374023438 135.5 L 1140.2333374023438 135.5 L 1140.2333374023438 119.5" fill-opacity="1" clip-path="url(#VgRZJnFbdzRO)"/><g clip-path="url(#VgRZJnFbdzRO)"><text fill="rgb(68,68,68)" stroke="none" font-family="helvetica" font-size="13px" font-style="normal" font-weight="normal" text-decoration="normal" x="1162.7333374023438" y="150" text-anchor="start" dominant-baseline="central" transform="matrix(1, 0, 0, 1, 0.5, 0.5)" fill-opacity="1">ruler</text></g><g clip-path="url(#VgRZJnFbdzRO)"><text fill="rgb(68,68,68)" stroke="none" font-family="helvetica" font-size="13px" font-style="normal" font-weight="normal" text-decoration="normal" x="1162.7333374023438" y="173" text-anchor="start" dominant-baseline="central" transform="matrix(1, 0, 0, 1, 0.5, 0.5)" fill-opacity="1">restarts</text></g><g clip-path="url(#VgRZJnFbdzRO)"><text fill="rgb(68,68,68)" stroke="none" font-family="helvetica" font-size="13px" font-style="normal" font-weight="normal" text-decoration="normal" x="1162.7333374023438" y="196" text-anchor="start" dominant-baseline="central" transform="matrix(1, 0, 0, 1, 0.5, 0.5)" fill-opacity="1">transmittance_absorbance</text></g><path fill="rgb(162,174,187)" stroke="none" paint-order="stroke" d="M 1140.2333374023438 188.5 L 1156.2333374023438 188.5 L 1156.2333374023438 204.5 L 1140.2333374023438 204.5 L 1140.2333374023438 188.5" fill-opacity="1" clip-path="url(#VgRZJnFbdzRO)"/><g clip-path="url(#VgRZJnFbdzRO)"><text fill="rgb(68,68,68)" stroke="none" font-family="helvetica" font-size="13px" font-style="normal" font-weight="normal" text-decoration="normal" x="1162.7333374023438" y="219" text-anchor="start" dominant-baseline="central" transform="matrix(1, 0, 0, 1, 0.5, 0.5)" fill-opacity="1">magnifier</text></g><path fill="rgb(255,188,66)" stroke="none" paint-order="stroke" d="M 1140.2333374023438 211.5 L 1156.2333374023438 211.5 L 1156.2333374023438 227.5 L 1140.2333374023438 227.5 L 1140.2333374023438 211.5" fill-opacity="1" clip-path="url(#VgRZJnFbdzRO)"/><g clip-path="url(#VgRZJnFbdzRO)"><text fill="rgb(68,68,68)" stroke="none" font-family="helvetica" font-size="13px" font-style="normal" font-weight="normal" text-decoration="normal" x="1162.7333374023438" y="242" text-anchor="start" dominant-baseline="central" transform="matrix(1, 0, 0, 1, 0.5, 0.5)" fill-opacity="1">concentration</text></g><path fill="rgb(115,210,222)" stroke="none" paint-order="stroke" d="M 1140.2333374023438 234.5 L 1156.2333374023438 234.5 L 1156.2333374023438 250.5 L 1140.2333374023438 250.5 L 1140.2333374023438 234.5" fill-opacity="1" clip-path="url(#VgRZJnFbdzRO)"/><g clip-path="url(#VgRZJnFbdzRO)"><text fill="rgb(68,68,68)" stroke="none" font-family="helvetica" font-size="13px" font-style="normal" font-weight="normal" text-decoration="normal" x="1162.7333374023438" y="265" text-anchor="start" dominant-baseline="central" transform="matrix(1, 0, 0, 1, 0.5, 0.5)" fill-opacity="1">flask</text></g><path fill="rgb(28,49,68)" stroke="none" paint-order="stroke" d="M 1140.2333374023438 257.5 L 1156.2333374023438 257.5 L 1156.2333374023438 273.5 L 1140.2333374023438 273.5 L 1140.2333374023438 257.5" fill-opacity="1" clip-path="url(#VgRZJnFbdzRO)"/><g clip-path="url(#VgRZJnFbdzRO)"><text fill="rgb(68,68,68)" stroke="none" font-family="helvetica" font-size="13px" font-style="normal" font-weight="normal" text-decoration="normal" x="1162.7333374023438" y="288" text-anchor="start" dominant-baseline="central" transform="matrix(1, 0, 0, 1, 0.5, 0.5)" fill-opacity="1">pdf</text></g><path fill="rgb(239,185,203)" stroke="none" paint-order="stroke" d="M 1140.2333374023438 280.5 L 1156.2333374023438 280.5 L 1156.2333374023438 296.5 L 1140.2333374023438 296.5 L 1140.2333374023438 280.5" fill-opacity="1" clip-path="url(#VgRZJnFbdzRO)"/><g clip-path="url(#VgRZJnFbdzRO)"><text fill="rgb(68,68,68)" stroke="none" font-family="helvetica" font-size="13px" font-style="normal" font-weight="normal" text-decoration="normal" x="1162.7333374023438" y="311" text-anchor="start" dominant-baseline="central" transform="matrix(1, 0, 0, 1, 0.5, 0.5)" fill-opacity="1">concentrationlab</text></g><g clip-path="url(#VgRZJnFbdzRO)"><text fill="rgb(68,68,68)" stroke="none" font-family="helvetica" font-size="13px" font-style="normal" font-weight="normal" text-decoration="normal" x="1162.7333374023438" y="334" text-anchor="start" dominant-baseline="central" transform="matrix(1, 0, 0, 1, 0.5, 0.5)" fill-opacity="1">wavelength_slider</text></g><path fill="rgb(105,29,48)" stroke="none" paint-order="stroke" d="M 1140.2333374023438 326.5 L 1156.2333374023438 326.5 L 1156.2333374023438 342.5 L 1140.2333374023438 342.5 L 1140.2333374023438 326.5" fill-opacity="1" clip-path="url(#VgRZJnFbdzRO)"/><g clip-path="url(#VgRZJnFbdzRO)"><text fill="rgb(68,68,68)" stroke="none" font-family="helvetica" font-size="13px" font-style="normal" font-weight="normal" text-decoration="normal" x="1162.7333374023438" y="357" text-anchor="start" dominant-baseline="central" transform="matrix(1, 0, 0, 1, 0.5, 0.5)" fill-opacity="1">ruler measuring</text></g><g clip-path="url(#VgRZJnFbdzRO)"><text fill="rgb(68,68,68)" stroke="none" font-family="helvetica" font-size="13px" font-style="normal" font-weight="normal" text-decoration="normal" x="1162.7333374023438" y="380" text-anchor="start" dominant-baseline="central" transform="matrix(1, 0, 0, 1, 0.5, 0.5)" fill-opacity="1">dependent variable</text></g><path fill="rgb(143,45,86)" stroke="none" paint-order="stroke" d="M 1140.2333374023438 372.5 L 1156.2333374023438 372.5 L 1156.2333374023438 388.5 L 1140.2333374023438 388.5 L 1140.2333374023438 372.5" fill-opacity="1" clip-path="url(#VgRZJnFbdzRO)"/><text fill="rgb(68,68,68)" stroke="none" font-family="helvetica" font-size="25pt" font-style="normal" font-weight="bold" text-decoration="normal" x="58" y="38.740885416666664" text-anchor="start" dominant-baseline="alphabetic" transform="matrix(1, 0, 0, 1, 0.5, 0.5)" fill-opacity="1">Timeline for student nj859xxh with permutation 2013 for task 2</text></svg>