<svg version="1.1" xmlns="http://www.w3.org/2000/svg" width="1366" height="683"><defs><clipPath id="JkXipOGwBpCc"><path fill="none" stroke="none" d="M 58.5 51.5 L 1336.5 51.5 L 1336.5 630.5 L 58.5 630.5 L 58.5 51.5"/></clipPath><clipPath id="CzMUXZkSNGVi"><path fill="none" stroke="none" d="M 58.5 51.5 L 1336.5 51.5 L 1336.5 630.5 L 58.5 630.5 L 58.5 51.5"/></clipPath><clipPath id="IQAlTqrBzhsX"><path fill="none" stroke="none" d="M 58.5 51.5 L 1336.5 51.5 L 1336.5 630.5 L 58.5 630.5 L 58.5 51.5"/></clipPath><clipPath id="MLkDQGefInOH"><path fill="none" stroke="none" d="M 58.5 51.5 L 1336.5 51.5 L 1336.5 630.5 L 58.5 630.5 L 58.5 51.5"/></clipPath><clipPath id="lCGpSaZCPklZ"><path fill="none" stroke="none" d="M 58.5 51.5 L 1336.5 51.5 L 1336.5 630.5 L 58.5 630.5 L 58.5 51.5"/></clipPath><clipPath id="FbMeyGlDMFiK"><path fill="none" stroke="none" d="M 58.5 51.5 L 1336.5 51.5 L 1336.5 630.5 L 58.5 630.5 L 58.5 51.5"/></clipPath><clipPath id="QtLgTnfTSFRW"><path fill="none" stroke="none" d="M 58.5 51.5 L 1336.5 51.5 L 1336.5 630.5 L 58.5 630.5 L 58.5 51.5"/></clipPath><clipPath id="VVfbRuqfALyv"><path fill="none" stroke="none" d="M 58.5 51.5 L 1336.5 51.5 L 1336.5 630.5 L 58.5 630.5 L 58.5 51.5"/></clipPath><clipPath id="EfTHBXtWUMFc"><path fill="none" stroke="none" d="M 58.5 51.5 L 1336.5 51.5 L 1336.5 630.5 L 58.5 630.5 L 58.5 51.5"/></clipPath><clipPath id="KuJDMWhbumdU"><path fill="none" stroke="none" d="M 58.5 51.5 L 1336.5 51.5 L 1336.5 630.5 L 58.5 630.5 L 58.5 51.5"/></clipPath><clipPath id="sdbVbnnoEaSt"><path fill="none" stroke="none" d="M 58.5 51.5 L 1336.5 51.5 L 1336.5 630.5 L 58.5 630.5 L 58.5 51.5"/></clipPath><clipPath id="fTSZshuruIbG"><path fill="none" stroke="none" d="M 58.5 51.5 L 1336.5 51.5 L 1336.5 630.5 L 58.5 630.5 L 58.5 51.5"/></clipPath><clipPath id="PTLDOLWvkqoN"><path fill="none" stroke="none" d="M 58.5 51.5 L 1336.5 51.5 L 1336.5 630.5 L 58.5 630.5 L 58.5 51.5"/></clipPath><clipPath id="EXTLevCFQRyN"><path fill="none" stroke="none" d="M 58.5 51.5 L 1336.5 51.5 L 1336.5 630.5 L 58.5 630.5 L 58.5 51.5"/></clipPath><clipPath id="TqZaOeNoTeTo"><path fill="none" stroke="none" d="M 58.5 51.5 L 1336.5 51.5 L 1336.5 630.5 L 58.5 630.5 L 58.5 51.5"/></clipPath><clipPath id="gayKNEmvJOfc"><path fill="none" stroke="none" d="M 58.5 51.5 L 1336.5 51.5 L 1336.5 630.5 L 58.5 630.5 L 58.5 51.5"/></clipPath><clipPath id="kanhNwPWsDUH"><path fill="none" stroke="none" d="M 58.5 51.5 L 1336.5 51.5 L 1336.5 630.5 L 58.5 630.5 L 58.5 51.5"/></clipPath><clipPath id="QmXWbIfDFPIh"><path fill="none" stroke="none" d="M 58.5 51.5 L 1336.5 51.5 L 1336.5 630.5 L 58.5 630.5 L 58.5 51.5"/></clipPath><clipPath id="HXlTLroNxLUO"><path fill="none" stroke="none" d="M 58.5 51.5 L 1336.5 51.5 L 1336.5 630.5 L 58.5 630.5 L 58.5 51.5"/></clipPath><clipPath id="VqkfTZGWIDLs"><path fill="none" stroke="none" d="M 58.5 51.5 L 1336.5 51.5 L 1336.5 630.5 L 58.5 630.5 L 58.5 51.5"/></clipPath><clipPath id="ghRDwhnzmSzE"><path fill="none" stroke="none" d="M 58.5 51.5 L 1336.5 51.5 L 1336.5 630.5 L 58.5 630.5 L 58.5 51.5"/></clipPath></defs><path fill="rgb(255,255,255)" stroke="none" paint-order="stroke" d="M 0.5 0.5 L 1366.5 0.5 L 1366.5 683.5 L 0.5 683.5 L 0.5 0.5" fill-opacity="1"/><rect fill="#FFFFFF" stroke="none" x="58" y="51" width="1278" height="579" transform="matrix(1, 0, 0, 1, 0.5, 0.5)"/><path fill="rgb(255,255,255)" stroke="none" paint-order="stroke" d="M 58.5 51.5 L 1336.5 51.5 L 1336.5 630.5 L 58.5 630.5 L 58.5 51.5" fill-opacity="1"/><path fill="none" stroke="rgb(229,229,229)" paint-order="fill" d="M 58.5 51.5 L 1336.5 51.5 L 1336.5 630.5 L 58.5 630.5 L 58.5 51.5" stroke-opacity="1" stroke-linejoin="bevel" stroke-miterlimit="10" stroke-dasharray=""/><path fill="none" stroke="rgb(229,229,229)" paint-order="fill" d="M 314.5 630.5 L 314.5 51.5 M 569.5 630.5 L 569.5 51.5 M 825.5 630.5 L 825.5 51.5 M 1080.5 630.5 L 1080.5 51.5" stroke-opacity="1" stroke-linejoin="bevel" stroke-miterlimit="10" stroke-dasharray="" clip-path="url(#JkXipOGwBpCc)"/><path fill="none" stroke="rgb(229,229,229)" paint-order="fill" d="M 58.5 551.5 L 1336.5 551.5 M 58.5 446.5 L 1336.5 446.5 M 58.5 341.5 L 1336.5 341.5 M 58.5 235.5 L 1336.5 235.5 M 58.5 130.5 L 1336.5 130.5" stroke-opacity="1" stroke-linejoin="bevel" stroke-miterlimit="10" stroke-dasharray="" clip-path="url(#CzMUXZkSNGVi)"/><path fill="rgb(0,255,40)" stroke="none" paint-order="stroke" d="M 58.5 77.81818389892578 L 302.02545166015625 77.81818389892578 L 302.02545166015625 130.45454788208008 L 58.5 130.45454788208008 L 58.5 77.81818389892578" fill-opacity="1" clip-path="url(#IQAlTqrBzhsX)"/><path fill="rgb(0,255,146)" stroke="none" paint-order="stroke" d="M 302.02545166015625 77.81818389892578 L 302.1110776588321 77.81818389892578 L 302.1110776588321 130.45454788208008 L 302.02545166015625 130.45454788208008 L 302.02545166015625 77.81818389892578" fill-opacity="1" clip-path="url(#IQAlTqrBzhsX)"/><path fill="rgb(0,255,191)" stroke="none" paint-order="stroke" d="M 302.111083984375 77.81818389892578 L 302.13153198361397 77.81818389892578 L 302.13153198361397 130.45454788208008 L 302.111083984375 130.45454788208008 L 302.111083984375 77.81818389892578" fill-opacity="1" clip-path="url(#IQAlTqrBzhsX)"/><path fill="rgb(0,255,234)" stroke="none" paint-order="stroke" d="M 302.13153076171875 77.81818389892578 L 302.1967087611556 77.81818389892578 L 302.1967087611556 130.45454788208008 L 302.13153076171875 130.45454788208008 L 302.13153076171875 77.81818389892578" fill-opacity="1" clip-path="url(#IQAlTqrBzhsX)"/><path fill="rgb(0,246,255)" stroke="none" paint-order="stroke" d="M 302.19671630859375 77.81818389892578 L 302.21844230778515 77.81818389892578 L 302.21844230778515 130.45454788208008 L 302.19671630859375 130.45454788208008 L 302.19671630859375 77.81818389892578" fill-opacity="1" clip-path="url(#IQAlTqrBzhsX)"/><path fill="rgb(0,230,255)" stroke="none" paint-order="stroke" d="M 302.21844482421875 77.81818389892578 L 302.26061882451177 77.81818389892578 L 302.26061882451177 130.45454788208008 L 302.21844482421875 130.45454788208008 L 302.21844482421875 77.81818389892578" fill-opacity="1" clip-path="url(#IQAlTqrBzhsX)"/><path fill="rgb(0,196,255)" stroke="none" paint-order="stroke" d="M 302.2606201171875 77.81818389892578 L 302.85616809129715 77.81818389892578 L 302.85616809129715 130.45454788208008 L 302.2606201171875 130.45454788208008 L 302.2606201171875 77.81818389892578" fill-opacity="1" clip-path="url(#IQAlTqrBzhsX)"/><path fill="rgb(0,230,255)" stroke="none" paint-order="stroke" d="M 302.8561706542969 77.81818389892578 L 302.92007065564394 77.81818389892578 L 302.92007065564394 130.45454788208008 L 302.8561706542969 130.45454788208008 L 302.8561706542969 77.81818389892578" fill-opacity="1" clip-path="url(#IQAlTqrBzhsX)"/><path fill="rgb(0,246,255)" stroke="none" paint-order="stroke" d="M 302.9200439453125 77.81818389892578 L 302.9634959436953 77.81818389892578 L 302.9634959436953 130.45454788208008 L 302.9200439453125 130.45454788208008 L 302.9200439453125 77.81818389892578" fill-opacity="1" clip-path="url(#IQAlTqrBzhsX)"/><path fill="rgb(0,255,234)" stroke="none" paint-order="stroke" d="M 302.9635009765625 77.81818389892578 L 303.19737496972084 77.81818389892578 L 303.19737496972084 130.45454788208008 L 302.9635009765625 130.45454788208008 L 302.9635009765625 77.81818389892578" fill-opacity="1" clip-path="url(#IQAlTqrBzhsX)"/><path fill="rgb(0,255,191)" stroke="none" paint-order="stroke" d="M 303.1973876953125 77.81818389892578 L 303.2830136939883 77.81818389892578 L 303.2830136939883 130.45454788208008 L 303.1973876953125 130.45454788208008 L 303.1973876953125 77.81818389892578" fill-opacity="1" clip-path="url(#IQAlTqrBzhsX)"/><path fill="rgb(0,255,146)" stroke="none" paint-order="stroke" d="M 303.28302001953125 77.81818389892578 L 303.6446940302849 77.81818389892578 L 303.6446940302849 130.45454788208008 L 303.28302001953125 130.45454788208008 L 303.28302001953125 77.81818389892578" fill-opacity="1" clip-path="url(#IQAlTqrBzhsX)"/><path fill="rgb(0,255,40)" stroke="none" paint-order="stroke" d="M 303.6446838378906 77.81818389892578 L 303.77248384058475 77.81818389892578 L 303.77248384058475 130.45454788208008 L 303.6446838378906 130.45454788208008 L 303.6446838378906 77.81818389892578" fill-opacity="1" clip-path="url(#IQAlTqrBzhsX)"/><path fill="rgb(8,255,0)" stroke="none" paint-order="stroke" d="M 303.7724914550781 77.81818389892578 L 303.81466545537114 77.81818389892578 L 303.81466545537114 130.45454788208008 L 303.7724914550781 130.45454788208008 L 303.7724914550781 77.81818389892578" fill-opacity="1" clip-path="url(#IQAlTqrBzhsX)"/><path fill="rgb(30,255,0)" stroke="none" paint-order="stroke" d="M 303.8146667480469 77.81818389892578 L 303.9437447488308 77.81818389892578 L 303.9437447488308 130.45454788208008 L 303.8146667480469 130.45454788208008 L 303.8146667480469 77.81818389892578" fill-opacity="1" clip-path="url(#IQAlTqrBzhsX)"/><path fill="rgb(49,255,0)" stroke="none" paint-order="stroke" d="M 303.9437255859375 77.81818389892578 L 304.00762558728456 77.81818389892578 L 304.00762558728456 130.45454788208008 L 303.9437255859375 130.45454788208008 L 303.9437255859375 77.81818389892578" fill-opacity="1" clip-path="url(#IQAlTqrBzhsX)"/><path fill="rgb(66,255,0)" stroke="none" paint-order="stroke" d="M 304.00762939453125 77.81818389892578 L 309.4595775604248 77.81818389892578 L 309.4595775604248 130.45454788208008 L 304.00762939453125 130.45454788208008 L 304.00762939453125 77.81818389892578" fill-opacity="1" clip-path="url(#IQAlTqrBzhsX)"/><path fill="rgb(58,255,0)" stroke="none" paint-order="stroke" d="M 309.4595947265625 77.81818389892578 L 309.6078427284956 77.81818389892578 L 309.6078427284956 130.45454788208008 L 309.4595947265625 130.45454788208008 L 309.4595947265625 77.81818389892578" fill-opacity="1" clip-path="url(#IQAlTqrBzhsX)"/><path fill="rgb(40,255,0)" stroke="none" paint-order="stroke" d="M 309.6078186035156 77.81818389892578 L 309.821244597435 77.81818389892578 L 309.821244597435 130.45454788208008 L 309.6078186035156 130.45454788208008 L 309.6078186035156 77.81818389892578" fill-opacity="1" clip-path="url(#IQAlTqrBzhsX)"/><path fill="rgb(20,255,0)" stroke="none" paint-order="stroke" d="M 309.8212585449219 77.81818389892578 L 310.63023257255554 77.81818389892578 L 310.63023257255554 130.45454788208008 L 309.8212585449219 130.45454788208008 L 309.8212585449219 77.81818389892578" fill-opacity="1" clip-path="url(#IQAlTqrBzhsX)"/><path fill="rgb(40,255,0)" stroke="none" paint-order="stroke" d="M 310.6302185058594 77.81818389892578 L 310.69539650529623 77.81818389892578 L 310.69539650529623 130.45454788208008 L 310.6302185058594 130.45454788208008 L 310.6302185058594 77.81818389892578" fill-opacity="1" clip-path="url(#IQAlTqrBzhsX)"/><path fill="rgb(58,255,0)" stroke="none" paint-order="stroke" d="M 310.6954040527344 77.81818389892578 L 310.80147805064917 77.81818389892578 L 310.80147805064917 130.45454788208008 L 310.6954040527344 130.45454788208008 L 310.6954040527344 77.81818389892578" fill-opacity="1" clip-path="url(#IQAlTqrBzhsX)"/><path fill="rgb(74,255,0)" stroke="none" paint-order="stroke" d="M 310.8014831542969 77.81818389892578 L 310.86538315564394 77.81818389892578 L 310.86538315564394 130.45454788208008 L 310.8014831542969 130.45454788208008 L 310.8014831542969 77.81818389892578" fill-opacity="1" clip-path="url(#IQAlTqrBzhsX)"/><path fill="rgb(89,255,0)" stroke="none" paint-order="stroke" d="M 310.8653869628906 77.81818389892578 L 311.78043496608734 77.81818389892578 L 311.78043496608734 130.45454788208008 L 310.8653869628906 130.45454788208008 L 310.8653869628906 77.81818389892578" fill-opacity="1" clip-path="url(#IQAlTqrBzhsX)"/><path fill="rgb(74,255,0)" stroke="none" paint-order="stroke" d="M 311.7804260253906 77.81818389892578 L 313.42265605926514 77.81818389892578 L 313.42265605926514 130.45454788208008 L 311.7804260253906 130.45454788208008 L 311.7804260253906 77.81818389892578" fill-opacity="1" clip-path="url(#IQAlTqrBzhsX)"/><path fill="rgb(70,255,0)" stroke="none" paint-order="stroke" d="M 313.42266845703125 77.81818389892578 L 313.9108644425869 77.81818389892578 L 313.9108644425869 130.45454788208008 L 313.42266845703125 130.45454788208008 L 313.42266845703125 77.81818389892578" fill-opacity="1" clip-path="url(#IQAlTqrBzhsX)"/><path fill="rgb(66,255,0)" stroke="none" paint-order="stroke" d="M 313.9108581542969 77.81818389892578 L 314.160068154335 77.81818389892578 L 314.160068154335 130.45454788208008 L 313.9108581542969 130.45454788208008 L 313.9108581542969 77.81818389892578" fill-opacity="1" clip-path="url(#IQAlTqrBzhsX)"/><path fill="rgb(62,255,0)" stroke="none" paint-order="stroke" d="M 314.1600646972656 77.81818389892578 L 314.37604670226574 77.81818389892578 L 314.37604670226574 130.45454788208008 L 314.1600646972656 130.45454788208008 L 314.1600646972656 77.81818389892578" fill-opacity="1" clip-path="url(#IQAlTqrBzhsX)"/><path fill="rgb(58,255,0)" stroke="none" paint-order="stroke" d="M 314.37603759765625 77.81818389892578 L 314.57540559768677 77.81818389892578 L 314.57540559768677 130.45454788208008 L 314.37603759765625 130.45454788208008 L 314.37603759765625 77.81818389892578" fill-opacity="1" clip-path="url(#IQAlTqrBzhsX)"/><path fill="rgb(53,255,0)" stroke="none" paint-order="stroke" d="M 314.5754089355469 77.81818389892578 L 319.0177369117737 77.81818389892578 L 319.0177369117737 130.45454788208008 L 314.5754089355469 130.45454788208008 L 314.5754089355469 77.81818389892578" fill-opacity="1" clip-path="url(#IQAlTqrBzhsX)"/><path fill="rgb(251,0,7)" stroke="none" paint-order="stroke" d="M 58.5 130.4545440673828 L 319.0177307128906 130.4545440673828 L 319.0177307128906 183.0909080505371 L 58.5 183.0909080505371 L 58.5 130.4545440673828" fill-opacity="1" clip-path="url(#MLkDQGefInOH)"/><path fill="rgb(105,29,48)" stroke="none" paint-order="stroke" d="M 298.337158203125 183.09091186523438 L 298.40105820447206 183.09091186523438 L 298.40105820447206 498.9090881347656 L 298.337158203125 498.9090881347656 L 298.337158203125 183.09091186523438" fill-opacity="1" clip-path="url(#lCGpSaZCPklZ)"/><path fill="rgb(255,188,66)" stroke="none" paint-order="stroke" d="M 135.20172119140625 183.09091186523438 L 138.19479727745056 183.09091186523438 L 138.19479727745056 498.9090881347656 L 135.20172119140625 498.9090881347656 L 135.20172119140625 183.09091186523438" fill-opacity="1" clip-path="url(#FbMeyGlDMFiK)"/><path fill="rgb(216,17,89)" stroke="none" paint-order="stroke" d="M 300.5800476074219 183.09091186523438 L 300.64394760876894 183.09091186523438 L 300.64394760876894 498.9090881347656 L 300.5800476074219 498.9090881347656 L 300.5800476074219 183.09091186523438" fill-opacity="1" clip-path="url(#KuJDMWhbumdU)"/><path fill="rgb(33,131,128)" stroke="none" paint-order="stroke" d="M 259.39776611328125 183.09091186523438 L 263.02217411994934 183.09091186523438 L 263.02217411994934 498.9090881347656 L 259.39776611328125 498.9090881347656 L 259.39776611328125 183.09091186523438" fill-opacity="1" clip-path="url(#sdbVbnnoEaSt)"/><path fill="rgb(28,49,68)" stroke="none" paint-order="stroke" d="M 140.53482055664062 183.09091186523438 L 146.8455843925476 183.09091186523438 L 146.8455843925476 498.9090881347656 L 140.53482055664062 498.9090881347656 L 140.53482055664062 183.09091186523438" fill-opacity="1" clip-path="url(#PTLDOLWvkqoN)"/><path fill="rgb(28,49,68)" stroke="none" paint-order="stroke" d="M 148.48397827148438 183.09091186523438 L 148.94150227308273 183.09091186523438 L 148.94150227308273 498.9090881347656 L 148.48397827148438 498.9090881347656 L 148.48397827148438 183.09091186523438" fill-opacity="1" clip-path="url(#PTLDOLWvkqoN)"/><path fill="rgb(28,49,68)" stroke="none" paint-order="stroke" d="M 251.64413452148438 183.09091186523438 L 257.9753465652466 183.09091186523438 L 257.9753465652466 498.9090881347656 L 251.64413452148438 498.9090881347656 L 251.64413452148438 183.09091186523438" fill-opacity="1" clip-path="url(#PTLDOLWvkqoN)"/><path fill="rgb(28,49,68)" stroke="none" paint-order="stroke" d="M 277.3971252441406 183.09091186523438 L 278.4399732351303 183.09091186523438 L 278.4399732351303 498.9090881347656 L 277.3971252441406 498.9090881347656 L 277.3971252441406 183.09091186523438" fill-opacity="1" clip-path="url(#PTLDOLWvkqoN)"/><path fill="rgb(239,185,203)" stroke="none" paint-order="stroke" d="M 65.03441619873047 183.09091186523438 L 132.8297576904297 183.09091186523438 L 132.8297576904297 498.9090881347656 L 65.03441619873047 498.9090881347656 L 65.03441619873047 183.09091186523438" fill-opacity="1" clip-path="url(#EXTLevCFQRyN)"/><path fill="rgb(239,185,203)" stroke="none" paint-order="stroke" d="M 152.16334533691406 183.09091186523438 L 247.73729705810547 183.09091186523438 L 247.73729705810547 498.9090881347656 L 152.16334533691406 498.9090881347656 L 152.16334533691406 183.09091186523438" fill-opacity="1" clip-path="url(#EXTLevCFQRyN)"/><path fill="rgb(239,185,203)" stroke="none" paint-order="stroke" d="M 282.267578125 183.09091186523438 L 291.74011421203613 183.09091186523438 L 291.74011421203613 498.9090881347656 L 282.267578125 498.9090881347656 L 282.267578125 183.09091186523438" fill-opacity="1" clip-path="url(#EXTLevCFQRyN)"/><path fill="rgb(105,29,48)" stroke="none" paint-order="stroke" d="M 301.8899841308594 183.09091186523438 L 304.7003061771393 183.09091186523438 L 304.7003061771393 498.9090881347656 L 301.8899841308594 498.9090881347656 L 301.8899841308594 183.09091186523438" fill-opacity="1" clip-path="url(#gayKNEmvJOfc)"/><path fill="rgb(105,29,48)" stroke="none" paint-order="stroke" d="M 308.2889404296875 183.09091186523438 L 312.4961166381836 183.09091186523438 L 312.4961166381836 498.9090881347656 L 308.2889404296875 498.9090881347656 L 308.2889404296875 183.09091186523438" fill-opacity="1" clip-path="url(#gayKNEmvJOfc)"/><path fill="rgb(255,188,66)" stroke="none" paint-order="stroke" d="M 137.27207946777344 498.9090881347656 L 319.0177307128906 498.9090881347656 L 319.0177307128906 551.5454521179199 L 137.27207946777344 551.5454521179199 L 137.27207946777344 498.9090881347656" fill-opacity="1" clip-path="url(#kanhNwPWsDUH)"/><path fill="rgb(143,45,86)" stroke="none" paint-order="stroke" d="M 58.5 551.5454711914062 L 298.33714294433594 551.5454711914062 L 298.33714294433594 604.1818351745605 L 58.5 604.1818351745605 L 58.5 551.5454711914062" fill-opacity="1" clip-path="url(#QmXWbIfDFPIh)"/><path fill="rgb(63,136,197)" stroke="none" paint-order="stroke" d="M 298.337158203125 551.5454711914062 L 319.0177536010742 551.5454711914062 L 319.0177536010742 604.1818351745605 L 298.337158203125 604.1818351745605 L 298.337158203125 551.5454711914062" fill-opacity="1" clip-path="url(#QmXWbIfDFPIh)"/><path fill="none" stroke="rgb(0,0,0)" paint-order="fill" d="M 58.5 77.81818389892578 L 319.0177307128906 77.81818389892578 L 319.0177307128906 604.1818313598633 L 58.5 604.1818313598633 L 58.5 77.81818389892578" stroke-opacity="1" stroke-linejoin="bevel" stroke-miterlimit="10" stroke-dasharray="" clip-path="url(#HXlTLroNxLUO)"/><path fill="none" stroke="rgb(0,0,0)" paint-order="fill" d="M 58.5 630.5 L 1336.5 630.5" stroke-opacity="1" stroke-linejoin="bevel" stroke-miterlimit="10" stroke-dasharray=""/><path fill="none" stroke="rgb(0,0,0)" paint-order="fill" d="M 58.5 636.5 L 58.5 628.5 M 314.5 636.5 L 314.5 628.5 M 569.5 636.5 L 569.5 628.5 M 825.5 636.5 L 825.5 628.5 M 1080.5 636.5 L 1080.5 628.5 M 1336.5 636.5 L 1336.5 628.5" stroke-opacity="1" stroke-linejoin="bevel" stroke-miterlimit="10" stroke-dasharray=""/><path fill="none" stroke="rgb(0,0,0)" paint-order="fill" d="M 58.5 634.5 L 58.5 630.5 M 109.5 634.5 L 109.5 630.5 M 160.5 634.5 L 160.5 630.5 M 211.5 634.5 L 211.5 630.5 M 262.5 634.5 L 262.5 630.5 M 314.5 634.5 L 314.5 630.5 M 365.5 634.5 L 365.5 630.5 M 416.5 634.5 L 416.5 630.5 M 467.5 634.5 L 467.5 630.5 M 518.5 634.5 L 518.5 630.5 M 569.5 634.5 L 569.5 630.5 M 620.5 634.5 L 620.5 630.5 M 671.5 634.5 L 671.5 630.5 M 723.5 634.5 L 723.5 630.5 M 774.5 634.5 L 774.5 630.5 M 825.5 634.5 L 825.5 630.5 M 876.5 634.5 L 876.5 630.5 M 927.5 634.5 L 927.5 630.5 M 978.5 634.5 L 978.5 630.5 M 1029.5 634.5 L 1029.5 630.5 M 1080.5 634.5 L 1080.5 630.5 M 1132.5 634.5 L 1132.5 630.5 M 1183.5 634.5 L 1183.5 630.5 M 1234.5 634.5 L 1234.5 630.5 M 1285.5 634.5 L 1285.5 630.5 M 1336.5 634.5 L 1336.5 630.5" stroke-opacity="1" stroke-linejoin="bevel" stroke-miterlimit="10" stroke-dasharray=""/><text fill="rgb(68,68,68)" stroke="none" font-family="helvetica" font-size="11px" font-style="normal" font-weight="normal" text-decoration="normal" x="54.94166660308838" y="648.89013671875" text-anchor="start" dominant-baseline="alphabetic" transform="matrix(1, 0, 0, 1, 0.5, 0.5)" fill-opacity="1">0</text><text fill="rgb(68,68,68)" stroke="none" font-family="helvetica" font-size="11px" font-style="normal" font-weight="normal" text-decoration="normal" x="304.42500591278076" y="648.89013671875" text-anchor="start" dominant-baseline="alphabetic" transform="matrix(1, 0, 0, 1, 0.5, 0.5)" fill-opacity="1">200</text><text fill="rgb(68,68,68)" stroke="none" font-family="helvetica" font-size="11px" font-style="normal" font-weight="normal" text-decoration="normal" x="560.0250120162964" y="648.89013671875" text-anchor="start" dominant-baseline="alphabetic" transform="matrix(1, 0, 0, 1, 0.5, 0.5)" fill-opacity="1">400</text><text fill="rgb(68,68,68)" stroke="none" font-family="helvetica" font-size="11px" font-style="normal" font-weight="normal" text-decoration="normal" x="815.6249876022339" y="648.89013671875" text-anchor="start" dominant-baseline="alphabetic" transform="matrix(1, 0, 0, 1, 0.5, 0.5)" fill-opacity="1">600</text><text fill="rgb(68,68,68)" stroke="none" font-family="helvetica" font-size="11px" font-style="normal" font-weight="normal" text-decoration="normal" x="1071.2250242233276" y="648.89013671875" text-anchor="start" dominant-baseline="alphabetic" transform="matrix(1, 0, 0, 1, 0.5, 0.5)" fill-opacity="1">800</text><text fill="rgb(68,68,68)" stroke="none" font-family="helvetica" font-size="11px" font-style="normal" font-weight="normal" text-decoration="normal" x="1323.7666664123535" y="648.89013671875" text-anchor="start" dominant-baseline="alphabetic" transform="matrix(1, 0, 0, 1, 0.5, 0.5)" fill-opacity="1">1000</text><text fill="rgb(68,68,68)" stroke="none" font-family="helvetica" font-size="15pt" font-style="italic" font-weight="normal" text-decoration="normal" x="666.4416675567627" y="676.06982421875" text-anchor="start" dominant-baseline="alphabetic" transform="matrix(1, 0, 0, 1, 0.5, 0.5)" fill-opacity="1">time(s)</text><path fill="none" stroke="rgb(0,0,0)" paint-order="fill" d="M 58.5 630.5 L 58.5 51.5" stroke-opacity="1" stroke-linejoin="bevel" stroke-miterlimit="10" stroke-dasharray=""/><path fill="none" stroke="rgb(0,0,0)" paint-order="fill" d="M 52.5 551.5 L 60.5 551.5 M 52.5 446.5 L 60.5 446.5 M 52.5 341.5 L 60.5 341.5 M 52.5 235.5 L 60.5 235.5 M 52.5 130.5 L 60.5 130.5" stroke-opacity="1" stroke-linejoin="bevel" stroke-miterlimit="10" stroke-dasharray=""/><path fill="none" stroke="rgb(0,0,0)" paint-order="fill" d="M 54.5 572.5 L 58.5 572.5 M 54.5 593.5 L 58.5 593.5 M 54.5 614.5 L 58.5 614.5 M 54.5 551.5 L 58.5 551.5 M 54.5 530.5 L 58.5 530.5 M 54.5 509.5 L 58.5 509.5 M 54.5 488.5 L 58.5 488.5 M 54.5 467.5 L 58.5 467.5 M 54.5 446.5 L 58.5 446.5 M 54.5 425.5 L 58.5 425.5 M 54.5 404.5 L 58.5 404.5 M 54.5 383.5 L 58.5 383.5 M 54.5 362.5 L 58.5 362.5 M 54.5 341.5 L 58.5 341.5 M 54.5 319.5 L 58.5 319.5 M 54.5 298.5 L 58.5 298.5 M 54.5 277.5 L 58.5 277.5 M 54.5 256.5 L 58.5 256.5 M 54.5 235.5 L 58.5 235.5 M 54.5 214.5 L 58.5 214.5 M 54.5 193.5 L 58.5 193.5 M 54.5 172.5 L 58.5 172.5 M 54.5 151.5 L 58.5 151.5 M 54.5 130.5 L 58.5 130.5 M 54.5 109.5 L 58.5 109.5 M 54.5 88.5 L 58.5 88.5 M 54.5 67.5 L 58.5 67.5" stroke-opacity="1" stroke-linejoin="bevel" stroke-miterlimit="10" stroke-dasharray=""/><text fill="rgb(68,68,68)" stroke="none" font-family="helvetica" font-size="11px" font-style="normal" font-weight="normal" text-decoration="normal" x="34.46666622161865" y="554.9905395507812" text-anchor="start" dominant-baseline="alphabetic" transform="matrix(1, 0, 0, 1, 0.5, 0.5)" fill-opacity="1">−2</text><text fill="rgb(68,68,68)" stroke="none" font-family="helvetica" font-size="11px" font-style="normal" font-weight="normal" text-decoration="normal" x="34.46666622161865" y="449.7178039550781" text-anchor="start" dominant-baseline="alphabetic" transform="matrix(1, 0, 0, 1, 0.5, 0.5)" fill-opacity="1">−1</text><text fill="rgb(68,68,68)" stroke="none" font-family="helvetica" font-size="11px" font-style="normal" font-weight="normal" text-decoration="normal" x="40.88333320617676" y="344.445068359375" text-anchor="start" dominant-baseline="alphabetic" transform="matrix(1, 0, 0, 1, 0.5, 0.5)" fill-opacity="1">0</text><text fill="rgb(68,68,68)" stroke="none" font-family="helvetica" font-size="11px" font-style="normal" font-weight="normal" text-decoration="normal" x="40.88333320617676" y="239.17234802246094" text-anchor="start" dominant-baseline="alphabetic" transform="matrix(1, 0, 0, 1, 0.5, 0.5)" fill-opacity="1">1</text><text fill="rgb(68,68,68)" stroke="none" font-family="helvetica" font-size="11px" font-style="normal" font-weight="normal" text-decoration="normal" x="40.88333320617676" y="133.8996124267578" text-anchor="start" dominant-baseline="alphabetic" transform="matrix(1, 0, 0, 1, 0.5, 0.5)" fill-opacity="1">2</text><text fill="rgb(68,68,68)" stroke="none" font-family="helvetica" font-size="15pt" font-style="italic" font-weight="normal" text-decoration="normal" x="-11.316666603088379" y="336.076171875" text-anchor="start" dominant-baseline="alphabetic" transform="matrix(6.123233995736766e-17, -1, 1, 6.123233995736766e-17, -313.53333377838135, 367.46666622161865)" fill-opacity="1">students</text><path fill="rgb(255,255,255)" stroke="rgb(229,229,229)" paint-order="fill" d="M 1128.2333374023438 61.5 L 1326.5 61.5 L 1326.5 400.5 L 1128.2333374023438 400.5 L 1128.2333374023438 61.5" fill-opacity="0.9490196078431372" clip-path="url(#VqkfTZGWIDLs)" stroke-opacity="0.5019607843137255" stroke-linejoin="bevel" stroke-miterlimit="10" stroke-dasharray=""/><text fill="rgb(68,68,68)" stroke="none" font-family="helvetica" font-size="13px" font-style="normal" font-weight="normal" text-decoration="normal" x="1162.7333374023438" y="81" text-anchor="start" dominant-baseline="central" clip-path="url(#VqkfTZGWIDLs)" transform="matrix(1, 0, 0, 1, 0.5, 0.5)" fill-opacity="1">wavelength</text><path fill="rgb(0,255,40)" stroke="none" paint-order="stroke" d="M 1140.2333374023438 73.5 L 1156.2333374023438 73.5 L 1156.2333374023438 89.5 L 1140.2333374023438 89.5 L 1140.2333374023438 73.5" fill-opacity="1" clip-path="url(#VqkfTZGWIDLs)"/><path fill="rgb(216,17,89)" stroke="none" paint-order="stroke" d="M 1140.2333374023438 73.5 L 1156.2333374023438 73.5 L 1156.2333374023438 89.5 L 1140.2333374023438 89.5 L 1140.2333374023438 73.5" fill-opacity="1" clip-path="url(#VqkfTZGWIDLs)"/><text fill="rgb(68,68,68)" stroke="none" font-family="helvetica" font-size="13px" font-style="normal" font-weight="normal" text-decoration="normal" x="1162.7333374023438" y="104" text-anchor="start" dominant-baseline="central" clip-path="url(#VqkfTZGWIDLs)" transform="matrix(1, 0, 0, 1, 0.5, 0.5)" fill-opacity="1">solution</text><path fill="rgb(251,0,7)" stroke="none" paint-order="stroke" d="M 1140.2333374023438 96.5 L 1156.2333374023438 96.5 L 1156.2333374023438 112.5 L 1140.2333374023438 112.5 L 1140.2333374023438 96.5" fill-opacity="1" clip-path="url(#VqkfTZGWIDLs)"/><path fill="rgb(33,131,128)" stroke="none" paint-order="stroke" d="M 1140.2333374023438 96.5 L 1156.2333374023438 96.5 L 1156.2333374023438 112.5 L 1140.2333374023438 112.5 L 1140.2333374023438 96.5" fill-opacity="1" clip-path="url(#VqkfTZGWIDLs)"/><text fill="rgb(68,68,68)" stroke="none" font-family="helvetica" font-size="13px" font-style="normal" font-weight="normal" text-decoration="normal" x="1162.7333374023438" y="127" text-anchor="start" dominant-baseline="central" clip-path="url(#VqkfTZGWIDLs)" transform="matrix(1, 0, 0, 1, 0.5, 0.5)" fill-opacity="1">laser</text><path fill="rgb(105,29,48)" stroke="none" paint-order="stroke" d="M 1140.2333374023438 119.5 L 1156.2333374023438 119.5 L 1156.2333374023438 135.5 L 1140.2333374023438 135.5 L 1140.2333374023438 119.5" fill-opacity="1" clip-path="url(#VqkfTZGWIDLs)"/><text fill="rgb(68,68,68)" stroke="none" font-family="helvetica" font-size="13px" font-style="normal" font-weight="normal" text-decoration="normal" x="1162.7333374023438" y="150" text-anchor="start" dominant-baseline="central" clip-path="url(#VqkfTZGWIDLs)" transform="matrix(1, 0, 0, 1, 0.5, 0.5)" fill-opacity="1">ruler</text><path fill="rgb(255,188,66)" stroke="none" paint-order="stroke" d="M 1140.2333374023438 142.5 L 1156.2333374023438 142.5 L 1156.2333374023438 158.5 L 1140.2333374023438 158.5 L 1140.2333374023438 142.5" fill-opacity="1" clip-path="url(#VqkfTZGWIDLs)"/><text fill="rgb(68,68,68)" stroke="none" font-family="helvetica" font-size="13px" font-style="normal" font-weight="normal" text-decoration="normal" x="1162.7333374023438" y="173" text-anchor="start" dominant-baseline="central" clip-path="url(#VqkfTZGWIDLs)" transform="matrix(1, 0, 0, 1, 0.5, 0.5)" fill-opacity="1">restarts</text><text fill="rgb(68,68,68)" stroke="none" font-family="helvetica" font-size="13px" font-style="normal" font-weight="normal" text-decoration="normal" x="1162.7333374023438" y="196" text-anchor="start" dominant-baseline="central" clip-path="url(#VqkfTZGWIDLs)" transform="matrix(1, 0, 0, 1, 0.5, 0.5)" fill-opacity="1">transmittance_absorbance</text><text fill="rgb(68,68,68)" stroke="none" font-family="helvetica" font-size="13px" font-style="normal" font-weight="normal" text-decoration="normal" x="1162.7333374023438" y="219" text-anchor="start" dominant-baseline="central" clip-path="url(#VqkfTZGWIDLs)" transform="matrix(1, 0, 0, 1, 0.5, 0.5)" fill-opacity="1">magnifier</text><text fill="rgb(68,68,68)" stroke="none" font-family="helvetica" font-size="13px" font-style="normal" font-weight="normal" text-decoration="normal" x="1162.7333374023438" y="242" text-anchor="start" dominant-baseline="central" clip-path="url(#VqkfTZGWIDLs)" transform="matrix(1, 0, 0, 1, 0.5, 0.5)" fill-opacity="1">concentration</text><text fill="rgb(68,68,68)" stroke="none" font-family="helvetica" font-size="13px" font-style="normal" font-weight="normal" text-decoration="normal" x="1162.7333374023438" y="265" text-anchor="start" dominant-baseline="central" clip-path="url(#VqkfTZGWIDLs)" transform="matrix(1, 0, 0, 1, 0.5, 0.5)" fill-opacity="1">flask</text><path fill="rgb(28,49,68)" stroke="none" paint-order="stroke" d="M 1140.2333374023438 257.5 L 1156.2333374023438 257.5 L 1156.2333374023438 273.5 L 1140.2333374023438 273.5 L 1140.2333374023438 257.5" fill-opacity="1" clip-path="url(#VqkfTZGWIDLs)"/><text fill="rgb(68,68,68)" stroke="none" font-family="helvetica" font-size="13px" font-style="normal" font-weight="normal" text-decoration="normal" x="1162.7333374023438" y="288" text-anchor="start" dominant-baseline="central" clip-path="url(#VqkfTZGWIDLs)" transform="matrix(1, 0, 0, 1, 0.5, 0.5)" fill-opacity="1">pdf</text><path fill="rgb(239,185,203)" stroke="none" paint-order="stroke" d="M 1140.2333374023438 280.5 L 1156.2333374023438 280.5 L 1156.2333374023438 296.5 L 1140.2333374023438 296.5 L 1140.2333374023438 280.5" fill-opacity="1" clip-path="url(#VqkfTZGWIDLs)"/><text fill="rgb(68,68,68)" stroke="none" font-family="helvetica" font-size="13px" font-style="normal" font-weight="normal" text-decoration="normal" x="1162.7333374023438" y="311" text-anchor="start" dominant-baseline="central" clip-path="url(#VqkfTZGWIDLs)" transform="matrix(1, 0, 0, 1, 0.5, 0.5)" fill-opacity="1">concentrationlab</text><text fill="rgb(68,68,68)" stroke="none" font-family="helvetica" font-size="13px" font-style="normal" font-weight="normal" text-decoration="normal" x="1162.7333374023438" y="334" text-anchor="start" dominant-baseline="central" clip-path="url(#VqkfTZGWIDLs)" transform="matrix(1, 0, 0, 1, 0.5, 0.5)" fill-opacity="1">wavelength_slider</text><path fill="rgb(105,29,48)" stroke="none" paint-order="stroke" d="M 1140.2333374023438 326.5 L 1156.2333374023438 326.5 L 1156.2333374023438 342.5 L 1140.2333374023438 342.5 L 1140.2333374023438 326.5" fill-opacity="1" clip-path="url(#VqkfTZGWIDLs)"/><text fill="rgb(68,68,68)" stroke="none" font-family="helvetica" font-size="13px" font-style="normal" font-weight="normal" text-decoration="normal" x="1162.7333374023438" y="357" text-anchor="start" dominant-baseline="central" clip-path="url(#VqkfTZGWIDLs)" transform="matrix(1, 0, 0, 1, 0.5, 0.5)" fill-opacity="1">ruler measuring</text><path fill="rgb(255,188,66)" stroke="none" paint-order="stroke" d="M 1140.2333374023438 349.5 L 1156.2333374023438 349.5 L 1156.2333374023438 365.5 L 1140.2333374023438 365.5 L 1140.2333374023438 349.5" fill-opacity="1" clip-path="url(#VqkfTZGWIDLs)"/><text fill="rgb(68,68,68)" stroke="none" font-family="helvetica" font-size="13px" font-style="normal" font-weight="normal" text-decoration="normal" x="1162.7333374023438" y="380" text-anchor="start" dominant-baseline="central" clip-path="url(#VqkfTZGWIDLs)" transform="matrix(1, 0, 0, 1, 0.5, 0.5)" fill-opacity="1">dependent variable</text><path fill="rgb(143,45,86)" stroke="none" paint-order="stroke" d="M 1140.2333374023438 372.5 L 1156.2333374023438 372.5 L 1156.2333374023438 388.5 L 1140.2333374023438 388.5 L 1140.2333374023438 372.5" fill-opacity="1" clip-path="url(#VqkfTZGWIDLs)"/><text fill="rgb(68,68,68)" stroke="none" font-family="helvetica" font-size="25pt" font-style="normal" font-weight="bold" text-decoration="normal" x="58" y="38.740885416666664" text-anchor="start" dominant-baseline="alphabetic" transform="matrix(1, 0, 0, 1, 0.5, 0.5)" fill-opacity="1">Timeline for student k7p5eryf with permutation 2310 for task 2</text></svg>