<svg version="1.1" xmlns="http://www.w3.org/2000/svg" width="1366" height="683"><defs><clipPath id="IDWtWaNCGpfR"><path fill="none" stroke="none" d="M 58.5 51.5 L 1336.5 51.5 L 1336.5 630.5 L 58.5 630.5 L 58.5 51.5"/></clipPath><clipPath id="wAMhtWyskwNy"><path fill="none" stroke="none" d="M 58.5 51.5 L 1336.5 51.5 L 1336.5 630.5 L 58.5 630.5 L 58.5 51.5"/></clipPath><clipPath id="sknJGLnZAUDd"><path fill="none" stroke="none" d="M 58.5 51.5 L 1336.5 51.5 L 1336.5 630.5 L 58.5 630.5 L 58.5 51.5"/></clipPath><clipPath id="ZotaodKPGwCo"><path fill="none" stroke="none" d="M 58.5 51.5 L 1336.5 51.5 L 1336.5 630.5 L 58.5 630.5 L 58.5 51.5"/></clipPath><clipPath id="uKiPmORmQasR"><path fill="none" stroke="none" d="M 58.5 51.5 L 1336.5 51.5 L 1336.5 630.5 L 58.5 630.5 L 58.5 51.5"/></clipPath><clipPath id="zclAvshbeMih"><path fill="none" stroke="none" d="M 58.5 51.5 L 1336.5 51.5 L 1336.5 630.5 L 58.5 630.5 L 58.5 51.5"/></clipPath><clipPath id="zcivpmBUnXnR"><path fill="none" stroke="none" d="M 58.5 51.5 L 1336.5 51.5 L 1336.5 630.5 L 58.5 630.5 L 58.5 51.5"/></clipPath><clipPath id="tWrkecZSgdRi"><path fill="none" stroke="none" d="M 58.5 51.5 L 1336.5 51.5 L 1336.5 630.5 L 58.5 630.5 L 58.5 51.5"/></clipPath><clipPath id="ComBmAXHdgAG"><path fill="none" stroke="none" d="M 58.5 51.5 L 1336.5 51.5 L 1336.5 630.5 L 58.5 630.5 L 58.5 51.5"/></clipPath><clipPath id="zNgebWngLqzN"><path fill="none" stroke="none" d="M 58.5 51.5 L 1336.5 51.5 L 1336.5 630.5 L 58.5 630.5 L 58.5 51.5"/></clipPath><clipPath id="HVBiJolFsKAD"><path fill="none" stroke="none" d="M 58.5 51.5 L 1336.5 51.5 L 1336.5 630.5 L 58.5 630.5 L 58.5 51.5"/></clipPath><clipPath id="JxSXZGvxaRSp"><path fill="none" stroke="none" d="M 58.5 51.5 L 1336.5 51.5 L 1336.5 630.5 L 58.5 630.5 L 58.5 51.5"/></clipPath><clipPath id="gSxmgPNTnlno"><path fill="none" stroke="none" d="M 58.5 51.5 L 1336.5 51.5 L 1336.5 630.5 L 58.5 630.5 L 58.5 51.5"/></clipPath><clipPath id="HdiSuJUyaKRH"><path fill="none" stroke="none" d="M 58.5 51.5 L 1336.5 51.5 L 1336.5 630.5 L 58.5 630.5 L 58.5 51.5"/></clipPath><clipPath id="QiCJkEOFUqRn"><path fill="none" stroke="none" d="M 58.5 51.5 L 1336.5 51.5 L 1336.5 630.5 L 58.5 630.5 L 58.5 51.5"/></clipPath><clipPath id="UuKlrgOUPIQq"><path fill="none" stroke="none" d="M 58.5 51.5 L 1336.5 51.5 L 1336.5 630.5 L 58.5 630.5 L 58.5 51.5"/></clipPath><clipPath id="rmyyKPQZDJiN"><path fill="none" stroke="none" d="M 58.5 51.5 L 1336.5 51.5 L 1336.5 630.5 L 58.5 630.5 L 58.5 51.5"/></clipPath><clipPath id="SQBlIpGGthcn"><path fill="none" stroke="none" d="M 58.5 51.5 L 1336.5 51.5 L 1336.5 630.5 L 58.5 630.5 L 58.5 51.5"/></clipPath><clipPath id="McmTZwWJOQsy"><path fill="none" stroke="none" d="M 58.5 51.5 L 1336.5 51.5 L 1336.5 630.5 L 58.5 630.5 L 58.5 51.5"/></clipPath><clipPath id="TLgPQzRTrwbT"><path fill="none" stroke="none" d="M 58.5 51.5 L 1336.5 51.5 L 1336.5 630.5 L 58.5 630.5 L 58.5 51.5"/></clipPath><clipPath id="FNISmmRqkrna"><path fill="none" stroke="none" d="M 58.5 51.5 L 1336.5 51.5 L 1336.5 630.5 L 58.5 630.5 L 58.5 51.5"/></clipPath></defs><path fill="rgb(255,255,255)" stroke="none" paint-order="stroke" d="M 0.5 0.5 L 1366.5 0.5 L 1366.5 683.5 L 0.5 683.5 L 0.5 0.5" fill-opacity="1"/><rect fill="#FFFFFF" stroke="none" x="58" y="51" width="1278" height="579" transform="matrix(1, 0, 0, 1, 0.5, 0.5)"/><path fill="rgb(255,255,255)" stroke="none" paint-order="stroke" d="M 58.5 51.5 L 1336.5 51.5 L 1336.5 630.5 L 58.5 630.5 L 58.5 51.5" fill-opacity="1"/><path fill="none" stroke="rgb(229,229,229)" paint-order="fill" d="M 58.5 51.5 L 1336.5 51.5 L 1336.5 630.5 L 58.5 630.5 L 58.5 51.5" stroke-opacity="1" stroke-linejoin="bevel" stroke-miterlimit="10" stroke-dasharray=""/><path fill="none" stroke="rgb(229,229,229)" paint-order="fill" d="M 314.5 630.5 L 314.5 51.5 M 569.5 630.5 L 569.5 51.5 M 825.5 630.5 L 825.5 51.5 M 1080.5 630.5 L 1080.5 51.5" stroke-opacity="1" stroke-linejoin="bevel" stroke-miterlimit="10" stroke-dasharray="" clip-path="url(#IDWtWaNCGpfR)"/><path fill="none" stroke="rgb(229,229,229)" paint-order="fill" d="M 58.5 551.5 L 1336.5 551.5 M 58.5 446.5 L 1336.5 446.5 M 58.5 341.5 L 1336.5 341.5 M 58.5 235.5 L 1336.5 235.5 M 58.5 130.5 L 1336.5 130.5" stroke-opacity="1" stroke-linejoin="bevel" stroke-miterlimit="10" stroke-dasharray="" clip-path="url(#wAMhtWyskwNy)"/><path fill="rgb(0,255,40)" stroke="none" paint-order="stroke" d="M 58.5 77.81818389892578 L 265.17559814453125 77.81818389892578 L 265.17559814453125 130.45454788208008 L 58.5 130.45454788208008 L 58.5 77.81818389892578" fill-opacity="1" clip-path="url(#sknJGLnZAUDd)"/><path fill="rgb(0,255,110)" stroke="none" paint-order="stroke" d="M 265.17559814453125 77.81818389892578 L 265.1960461437702 77.81818389892578 L 265.1960461437702 130.45454788208008 L 265.17559814453125 130.45454788208008 L 265.17559814453125 77.81818389892578" fill-opacity="1" clip-path="url(#sknJGLnZAUDd)"/><path fill="rgb(0,255,169)" stroke="none" paint-order="stroke" d="M 265.196044921875 77.81818389892578 L 265.2177709210664 77.81818389892578 L 265.2177709210664 130.45454788208008 L 265.196044921875 130.45454788208008 L 265.196044921875 77.81818389892578" fill-opacity="1" clip-path="url(#sknJGLnZAUDd)"/><path fill="rgb(0,255,213)" stroke="none" paint-order="stroke" d="M 265.2177734375 77.81818389892578 L 265.23822143673897 77.81818389892578 L 265.23822143673897 130.45454788208008 L 265.2177734375 130.45454788208008 L 265.2177734375 77.81818389892578" fill-opacity="1" clip-path="url(#sknJGLnZAUDd)"/><path fill="rgb(0,230,255)" stroke="none" paint-order="stroke" d="M 265.23822021484375 77.81818389892578 L 265.25994621403515 77.81818389892578 L 265.25994621403515 130.45454788208008 L 265.23822021484375 130.45454788208008 L 265.23822021484375 77.81818389892578" fill-opacity="1" clip-path="url(#sknJGLnZAUDd)"/><path fill="rgb(0,213,255)" stroke="none" paint-order="stroke" d="M 265.25994873046875 77.81818389892578 L 265.2829527296126 77.81818389892578 L 265.2829527296126 130.45454788208008 L 265.25994873046875 130.45454788208008 L 265.25994873046875 77.81818389892578" fill-opacity="1" clip-path="url(#sknJGLnZAUDd)"/><path fill="rgb(0,169,255)" stroke="none" paint-order="stroke" d="M 265.282958984375 77.81818389892578 L 265.30340698361397 77.81818389892578 L 265.30340698361397 130.45454788208008 L 265.282958984375 130.45454788208008 L 265.282958984375 77.81818389892578" fill-opacity="1" clip-path="url(#sknJGLnZAUDd)"/><path fill="rgb(0,127,255)" stroke="none" paint-order="stroke" d="M 265.30340576171875 77.81818389892578 L 265.3238537609577 77.81818389892578 L 265.3238537609577 130.45454788208008 L 265.30340576171875 130.45454788208008 L 265.30340576171875 77.81818389892578" fill-opacity="1" clip-path="url(#sknJGLnZAUDd)"/><path fill="rgb(0,81,255)" stroke="none" paint-order="stroke" d="M 265.3238525390625 77.81818389892578 L 265.3455785382539 77.81818389892578 L 265.3455785382539 130.45454788208008 L 265.3238525390625 130.45454788208008 L 265.3238525390625 77.81818389892578" fill-opacity="1" clip-path="url(#sknJGLnZAUDd)"/><path fill="rgb(0,26,255)" stroke="none" paint-order="stroke" d="M 265.3455810546875 77.81818389892578 L 265.3673070538789 77.81818389892578 L 265.3673070538789 130.45454788208008 L 265.3455810546875 130.45454788208008 L 265.3455810546875 77.81818389892578" fill-opacity="1" clip-path="url(#sknJGLnZAUDd)"/><path fill="rgb(58,0,228)" stroke="none" paint-order="stroke" d="M 265.3673095703125 77.81818389892578 L 265.38775756955147 77.81818389892578 L 265.38775756955147 130.45454788208008 L 265.3673095703125 130.45454788208008 L 265.3673095703125 77.81818389892578" fill-opacity="1" clip-path="url(#sknJGLnZAUDd)"/><path fill="rgb(75,0,216)" stroke="none" paint-order="stroke" d="M 265.38775634765625 77.81818389892578 L 265.40948234684765 77.81818389892578 L 265.40948234684765 130.45454788208008 L 265.38775634765625 130.45454788208008 L 265.38775634765625 77.81818389892578" fill-opacity="1" clip-path="url(#sknJGLnZAUDd)"/><path fill="rgb(103,0,180)" stroke="none" paint-order="stroke" d="M 265.40948486328125 77.81818389892578 L 265.43121086247265 77.81818389892578 L 265.43121086247265 130.45454788208008 L 265.40948486328125 130.45454788208008 L 265.40948486328125 77.81818389892578" fill-opacity="1" clip-path="url(#sknJGLnZAUDd)"/><path fill="rgb(108,0,170)" stroke="none" paint-order="stroke" d="M 265.43121337890625 77.81818389892578 L 265.4516613781452 77.81818389892578 L 265.4516613781452 130.45454788208008 L 265.43121337890625 130.45454788208008 L 265.43121337890625 77.81818389892578" fill-opacity="1" clip-path="url(#sknJGLnZAUDd)"/><path fill="rgb(111,0,156)" stroke="none" paint-order="stroke" d="M 265.45166015625 77.81818389892578 L 265.4733861554414 77.81818389892578 L 265.4733861554414 130.45454788208008 L 265.45166015625 130.45454788208008 L 265.45166015625 77.81818389892578" fill-opacity="1" clip-path="url(#sknJGLnZAUDd)"/><path fill="rgb(110,0,132)" stroke="none" paint-order="stroke" d="M 265.473388671875 77.81818389892578 L 265.49383667111397 77.81818389892578 L 265.49383667111397 130.45454788208008 L 265.473388671875 130.45454788208008 L 265.473388671875 77.81818389892578" fill-opacity="1" clip-path="url(#sknJGLnZAUDd)"/><path fill="rgb(106,0,118)" stroke="none" paint-order="stroke" d="M 265.49383544921875 77.81818389892578 L 265.51556144841015 77.81818389892578 L 265.51556144841015 130.45454788208008 L 265.49383544921875 130.45454788208008 L 265.49383544921875 77.81818389892578" fill-opacity="1" clip-path="url(#sknJGLnZAUDd)"/><path fill="rgb(102,0,106)" stroke="none" paint-order="stroke" d="M 265.51556396484375 77.81818389892578 L 265.53728996403515 77.81818389892578 L 265.53728996403515 130.45454788208008 L 265.51556396484375 130.45454788208008 L 265.51556396484375 77.81818389892578" fill-opacity="1" clip-path="url(#sknJGLnZAUDd)"/><path fill="rgb(97,0,97)" stroke="none" paint-order="stroke" d="M 265.53729248046875 77.81818389892578 L 269.11569237709045 77.81818389892578 L 269.11569237709045 130.45454788208008 L 265.53729248046875 130.45454788208008 L 265.53729248046875 77.81818389892578" fill-opacity="1" clip-path="url(#sknJGLnZAUDd)"/><path fill="rgb(103,0,109)" stroke="none" paint-order="stroke" d="M 269.1156921386719 77.81818389892578 L 269.13614013791084 77.81818389892578 L 269.13614013791084 130.45454788208008 L 269.1156921386719 130.45454788208008 L 269.1156921386719 77.81818389892578" fill-opacity="1" clip-path="url(#sknJGLnZAUDd)"/><path fill="rgb(111,0,135)" stroke="none" paint-order="stroke" d="M 269.1361389160156 77.81818389892578 L 269.15914291515946 77.81818389892578 L 269.15914291515946 130.45454788208008 L 269.1361389160156 130.45454788208008 L 269.1361389160156 77.81818389892578" fill-opacity="1" clip-path="url(#sknJGLnZAUDd)"/><path fill="rgb(111,0,148)" stroke="none" paint-order="stroke" d="M 269.15911865234375 77.81818389892578 L 269.1795666515827 77.81818389892578 L 269.1795666515827 130.45454788208008 L 269.15911865234375 130.45454788208008 L 269.15911865234375 77.81818389892578" fill-opacity="1" clip-path="url(#sknJGLnZAUDd)"/><path fill="rgb(110,0,162)" stroke="none" paint-order="stroke" d="M 269.1795654296875 77.81818389892578 L 269.2012914288789 77.81818389892578 L 269.2012914288789 130.45454788208008 L 269.1795654296875 130.45454788208008 L 269.1795654296875 77.81818389892578" fill-opacity="1" clip-path="url(#sknJGLnZAUDd)"/><path fill="rgb(107,0,172)" stroke="none" paint-order="stroke" d="M 269.2012939453125 77.81818389892578 L 269.22174194455147 77.81818389892578 L 269.22174194455147 130.45454788208008 L 269.2012939453125 130.45454788208008 L 269.2012939453125 77.81818389892578" fill-opacity="1" clip-path="url(#sknJGLnZAUDd)"/><path fill="rgb(92,0,198)" stroke="none" paint-order="stroke" d="M 269.22174072265625 77.81818389892578 L 269.24346672184765 77.81818389892578 L 269.24346672184765 130.45454788208008 L 269.22174072265625 130.45454788208008 L 269.22174072265625 77.81818389892578" fill-opacity="1" clip-path="url(#sknJGLnZAUDd)"/><path fill="rgb(83,0,208)" stroke="none" paint-order="stroke" d="M 269.24346923828125 77.81818389892578 L 269.2639172375202 77.81818389892578 L 269.2639172375202 130.45454788208008 L 269.24346923828125 130.45454788208008 L 269.24346923828125 77.81818389892578" fill-opacity="1" clip-path="url(#sknJGLnZAUDd)"/><path fill="rgb(69,0,221)" stroke="none" paint-order="stroke" d="M 269.263916015625 77.81818389892578 L 269.2856420148164 77.81818389892578 L 269.2856420148164 130.45454788208008 L 269.263916015625 130.45454788208008 L 269.263916015625 77.81818389892578" fill-opacity="1" clip-path="url(#sknJGLnZAUDd)"/><path fill="rgb(0,0,255)" stroke="none" paint-order="stroke" d="M 269.28564453125 77.81818389892578 L 269.3073705304414 77.81818389892578 L 269.3073705304414 130.45454788208008 L 269.28564453125 130.45454788208008 L 269.28564453125 77.81818389892578" fill-opacity="1" clip-path="url(#sknJGLnZAUDd)"/><path fill="rgb(0,33,255)" stroke="none" paint-order="stroke" d="M 269.307373046875 77.81818389892578 L 269.32782104611397 77.81818389892578 L 269.32782104611397 130.45454788208008 L 269.307373046875 130.45454788208008 L 269.307373046875 77.81818389892578" fill-opacity="1" clip-path="url(#sknJGLnZAUDd)"/><path fill="rgb(0,112,255)" stroke="none" paint-order="stroke" d="M 269.32781982421875 77.81818389892578 L 269.34954582341015 77.81818389892578 L 269.34954582341015 130.45454788208008 L 269.32781982421875 130.45454788208008 L 269.32781982421875 77.81818389892578" fill-opacity="1" clip-path="url(#sknJGLnZAUDd)"/><path fill="rgb(255,200,0)" stroke="none" paint-order="stroke" d="M 269.34954833984375 77.81818389892578 L 269.3725523389876 77.81818389892578 L 269.3725523389876 130.45454788208008 L 269.34954833984375 130.45454788208008 L 269.34954833984375 77.81818389892578" fill-opacity="1" clip-path="url(#sknJGLnZAUDd)"/><path fill="rgb(0,0,0)" stroke="none" paint-order="stroke" d="M 269.37255859375 77.81818389892578 L 271.3534586429596 77.81818389892578 L 271.3534586429596 130.45454788208008 L 269.37255859375 130.45454788208008 L 269.37255859375 77.81818389892578" fill-opacity="1" clip-path="url(#sknJGLnZAUDd)"/><path fill="rgb(0,0,0)" stroke="none" paint-order="stroke" d="M 271.35345458984375 77.81818389892578 L 271.3726245891303 77.81818389892578 L 271.3726245891303 130.45454788208008 L 271.35345458984375 130.45454788208008 L 271.35345458984375 77.81818389892578" fill-opacity="1" clip-path="url(#sknJGLnZAUDd)"/><path fill="rgb(97,0,0)" stroke="none" paint-order="stroke" d="M 271.37261962890625 77.81818389892578 L 271.39434562809765 77.81818389892578 L 271.39434562809765 130.45454788208008 L 271.37261962890625 130.45454788208008 L 271.37261962890625 77.81818389892578" fill-opacity="1" clip-path="url(#sknJGLnZAUDd)"/><path fill="rgb(143,0,0)" stroke="none" paint-order="stroke" d="M 271.39434814453125 77.81818389892578 L 271.4147961437702 77.81818389892578 L 271.4147961437702 130.45454788208008 L 271.39434814453125 130.45454788208008 L 271.39434814453125 77.81818389892578" fill-opacity="1" clip-path="url(#sknJGLnZAUDd)"/><path fill="rgb(185,0,0)" stroke="none" paint-order="stroke" d="M 271.414794921875 77.81818389892578 L 271.4365209210664 77.81818389892578 L 271.4365209210664 130.45454788208008 L 271.414794921875 130.45454788208008 L 271.414794921875 77.81818389892578" fill-opacity="1" clip-path="url(#sknJGLnZAUDd)"/><path fill="rgb(206,0,0)" stroke="none" paint-order="stroke" d="M 271.4365234375 77.81818389892578 L 271.45697143673897 77.81818389892578 L 271.45697143673897 130.45454788208008 L 271.4365234375 130.45454788208008 L 271.4365234375 77.81818389892578" fill-opacity="1" clip-path="url(#sknJGLnZAUDd)"/><path fill="rgb(211,0,0)" stroke="none" paint-order="stroke" d="M 271.45697021484375 77.81818389892578 L 271.4799742139876 77.81818389892578 L 271.4799742139876 130.45454788208008 L 271.45697021484375 130.45454788208008 L 271.45697021484375 77.81818389892578" fill-opacity="1" clip-path="url(#sknJGLnZAUDd)"/><path fill="rgb(224,0,0)" stroke="none" paint-order="stroke" d="M 271.47998046875 77.81818389892578 L 271.49915046803653 77.81818389892578 L 271.49915046803653 130.45454788208008 L 271.47998046875 130.45454788208008 L 271.47998046875 77.81818389892578" fill-opacity="1" clip-path="url(#sknJGLnZAUDd)"/><path fill="rgb(244,0,0)" stroke="none" paint-order="stroke" d="M 271.4991455078125 77.81818389892578 L 271.5208715070039 77.81818389892578 L 271.5208715070039 130.45454788208008 L 271.4991455078125 130.45454788208008 L 271.4991455078125 77.81818389892578" fill-opacity="1" clip-path="url(#sknJGLnZAUDd)"/><path fill="rgb(255,37,0)" stroke="none" paint-order="stroke" d="M 271.5208740234375 77.81818389892578 L 271.5426000226289 77.81818389892578 L 271.5426000226289 130.45454788208008 L 271.5208740234375 130.45454788208008 L 271.5208740234375 77.81818389892578" fill-opacity="1" clip-path="url(#sknJGLnZAUDd)"/><path fill="rgb(255,83,0)" stroke="none" paint-order="stroke" d="M 271.5426025390625 77.81818389892578 L 271.5643285382539 77.81818389892578 L 271.5643285382539 130.45454788208008 L 271.5426025390625 130.45454788208008 L 271.5426025390625 77.81818389892578" fill-opacity="1" clip-path="url(#sknJGLnZAUDd)"/><path fill="rgb(255,118,0)" stroke="none" paint-order="stroke" d="M 271.5643310546875 77.81818389892578 L 271.5860570538789 77.81818389892578 L 271.5860570538789 130.45454788208008 L 271.5643310546875 130.45454788208008 L 271.5643310546875 77.81818389892578" fill-opacity="1" clip-path="url(#sknJGLnZAUDd)"/><path fill="rgb(255,133,0)" stroke="none" paint-order="stroke" d="M 271.5860595703125 77.81818389892578 L 271.60650756955147 77.81818389892578 L 271.60650756955147 130.45454788208008 L 271.5860595703125 130.45454788208008 L 271.5860595703125 77.81818389892578" fill-opacity="1" clip-path="url(#sknJGLnZAUDd)"/><path fill="rgb(255,151,0)" stroke="none" paint-order="stroke" d="M 271.60650634765625 77.81818389892578 L 271.64868034794927 77.81818389892578 L 271.64868034794927 130.45454788208008 L 271.60650634765625 130.45454788208008 L 271.60650634765625 77.81818389892578" fill-opacity="1" clip-path="url(#sknJGLnZAUDd)"/><path fill="rgb(255,169,0)" stroke="none" paint-order="stroke" d="M 271.648681640625 77.81818389892578 L 271.66912963986397 77.81818389892578 L 271.66912963986397 130.45454788208008 L 271.648681640625 130.45454788208008 L 271.648681640625 77.81818389892578" fill-opacity="1" clip-path="url(#sknJGLnZAUDd)"/><path fill="rgb(255,183,0)" stroke="none" paint-order="stroke" d="M 271.66912841796875 77.81818389892578 L 271.71258041635156 77.81818389892578 L 271.71258041635156 130.45454788208008 L 271.66912841796875 130.45454788208008 L 271.66912841796875 77.81818389892578" fill-opacity="1" clip-path="url(#sknJGLnZAUDd)"/><path fill="rgb(255,200,0)" stroke="none" paint-order="stroke" d="M 271.71258544921875 77.81818389892578 L 272.18288946151733 77.81818389892578 L 272.18288946151733 130.45454788208008 L 271.71258544921875 130.45454788208008 L 271.71258544921875 77.81818389892578" fill-opacity="1" clip-path="url(#sknJGLnZAUDd)"/><path fill="rgb(252,255,0)" stroke="none" paint-order="stroke" d="M 272.1828918457031 77.81818389892578 L 272.20206184498966 77.81818389892578 L 272.20206184498966 130.45454788208008 L 272.1828918457031 130.45454788208008 L 272.1828918457031 77.81818389892578" fill-opacity="1" clip-path="url(#sknJGLnZAUDd)"/><path fill="rgb(210,255,0)" stroke="none" paint-order="stroke" d="M 272.2020568847656 77.81818389892578 L 272.22506088390946 77.81818389892578 L 272.22506088390946 130.45454788208008 L 272.2020568847656 130.45454788208008 L 272.2020568847656 77.81818389892578" fill-opacity="1" clip-path="url(#sknJGLnZAUDd)"/><path fill="rgb(194,255,0)" stroke="none" paint-order="stroke" d="M 272.2250671386719 77.81818389892578 L 272.2467931378633 77.81818389892578 L 272.2467931378633 130.45454788208008 L 272.2250671386719 130.45454788208008 L 272.2250671386719 77.81818389892578" fill-opacity="1" clip-path="url(#sknJGLnZAUDd)"/><path fill="rgb(179,255,0)" stroke="none" paint-order="stroke" d="M 272.24676513671875 77.81818389892578 L 272.2672131359577 77.81818389892578 L 272.2672131359577 130.45454788208008 L 272.24676513671875 130.45454788208008 L 272.24676513671875 77.81818389892578" fill-opacity="1" clip-path="url(#sknJGLnZAUDd)"/><path fill="rgb(166,255,0)" stroke="none" paint-order="stroke" d="M 272.2672119140625 77.81818389892578 L 272.29021591320634 77.81818389892578 L 272.29021591320634 130.45454788208008 L 272.2672119140625 130.45454788208008 L 272.2672119140625 77.81818389892578" fill-opacity="1" clip-path="url(#sknJGLnZAUDd)"/><path fill="rgb(149,255,0)" stroke="none" paint-order="stroke" d="M 272.29022216796875 77.81818389892578 L 272.3298401683569 77.81818389892578 L 272.3298401683569 130.45454788208008 L 272.29022216796875 130.45454788208008 L 272.29022216796875 77.81818389892578" fill-opacity="1" clip-path="url(#sknJGLnZAUDd)"/><path fill="rgb(136,255,0)" stroke="none" paint-order="stroke" d="M 272.329833984375 77.81818389892578 L 272.35028198361397 77.81818389892578 L 272.35028198361397 130.45454788208008 L 272.329833984375 130.45454788208008 L 272.329833984375 77.81818389892578" fill-opacity="1" clip-path="url(#sknJGLnZAUDd)"/><path fill="rgb(119,255,0)" stroke="none" paint-order="stroke" d="M 272.35028076171875 77.81818389892578 L 272.75924077630043 77.81818389892578 L 272.75924077630043 130.45454788208008 L 272.35028076171875 130.45454788208008 L 272.35028076171875 77.81818389892578" fill-opacity="1" clip-path="url(#sknJGLnZAUDd)"/><path fill="rgb(136,255,0)" stroke="none" paint-order="stroke" d="M 272.7592468261719 77.81818389892578 L 272.777138825506 77.81818389892578 L 272.777138825506 130.45454788208008 L 272.7592468261719 130.45454788208008 L 272.7592468261719 77.81818389892578" fill-opacity="1" clip-path="url(#sknJGLnZAUDd)"/><path fill="rgb(166,255,0)" stroke="none" paint-order="stroke" d="M 272.77716064453125 77.81818389892578 L 272.8001646436751 77.81818389892578 L 272.8001646436751 130.45454788208008 L 272.77716064453125 130.45454788208008 L 272.77716064453125 77.81818389892578" fill-opacity="1" clip-path="url(#sknJGLnZAUDd)"/><path fill="rgb(222,255,0)" stroke="none" paint-order="stroke" d="M 272.8001403808594 77.81818389892578 L 272.82058838009834 77.81818389892578 L 272.82058838009834 130.45454788208008 L 272.8001403808594 130.45454788208008 L 272.8001403808594 77.81818389892578" fill-opacity="1" clip-path="url(#sknJGLnZAUDd)"/><path fill="rgb(237,255,0)" stroke="none" paint-order="stroke" d="M 272.8205871582031 77.81818389892578 L 272.8423131573945 77.81818389892578 L 272.8423131573945 130.45454788208008 L 272.8205871582031 130.45454788208008 L 272.8205871582031 77.81818389892578" fill-opacity="1" clip-path="url(#sknJGLnZAUDd)"/><path fill="rgb(252,255,0)" stroke="none" paint-order="stroke" d="M 272.8423156738281 77.81818389892578 L 272.8640416730195 77.81818389892578 L 272.8640416730195 130.45454788208008 L 272.8423156738281 130.45454788208008 L 272.8423156738281 77.81818389892578" fill-opacity="1" clip-path="url(#sknJGLnZAUDd)"/><path fill="rgb(255,245,0)" stroke="none" paint-order="stroke" d="M 272.8640441894531 77.81818389892578 L 272.8844921886921 77.81818389892578 L 272.8844921886921 130.45454788208008 L 272.8640441894531 130.45454788208008 L 272.8640441894531 77.81818389892578" fill-opacity="1" clip-path="url(#sknJGLnZAUDd)"/><path fill="rgb(255,216,0)" stroke="none" paint-order="stroke" d="M 272.8844909667969 77.81818389892578 L 272.9062169659883 77.81818389892578 L 272.9062169659883 130.45454788208008 L 272.8844909667969 130.45454788208008 L 272.8844909667969 77.81818389892578" fill-opacity="1" clip-path="url(#sknJGLnZAUDd)"/><path fill="rgb(255,200,0)" stroke="none" paint-order="stroke" d="M 272.9062194824219 77.81818389892578 L 272.9279454816133 77.81818389892578 L 272.9279454816133 130.45454788208008 L 272.9062194824219 130.45454788208008 L 272.9062194824219 77.81818389892578" fill-opacity="1" clip-path="url(#sknJGLnZAUDd)"/><path fill="rgb(255,133,0)" stroke="none" paint-order="stroke" d="M 272.9279479980469 77.81818389892578 L 272.94839599728584 77.81818389892578 L 272.94839599728584 130.45454788208008 L 272.9279479980469 130.45454788208008 L 272.9279479980469 77.81818389892578" fill-opacity="1" clip-path="url(#sknJGLnZAUDd)"/><path fill="rgb(255,61,0)" stroke="none" paint-order="stroke" d="M 272.9483947753906 77.81818389892578 L 272.97139877453446 77.81818389892578 L 272.97139877453446 130.45454788208008 L 272.9483947753906 130.45454788208008 L 272.9483947753906 77.81818389892578" fill-opacity="1" clip-path="url(#sknJGLnZAUDd)"/><path fill="rgb(255,15,0)" stroke="none" paint-order="stroke" d="M 272.9714050292969 77.81818389892578 L 272.9905750285834 77.81818389892578 L 272.9905750285834 130.45454788208008 L 272.9714050292969 130.45454788208008 L 272.9714050292969 77.81818389892578" fill-opacity="1" clip-path="url(#sknJGLnZAUDd)"/><path fill="rgb(250,0,0)" stroke="none" paint-order="stroke" d="M 272.9905700683594 77.81818389892578 L 273.0761960670352 77.81818389892578 L 273.0761960670352 130.45454788208008 L 272.9905700683594 130.45454788208008 L 272.9905700683594 77.81818389892578" fill-opacity="1" clip-path="url(#sknJGLnZAUDd)"/><path fill="rgb(255,61,0)" stroke="none" paint-order="stroke" d="M 273.0762023925781 77.81818389892578 L 273.0979283917695 77.81818389892578 L 273.0979283917695 130.45454788208008 L 273.0762023925781 130.45454788208008 L 273.0762023925781 77.81818389892578" fill-opacity="1" clip-path="url(#sknJGLnZAUDd)"/><path fill="rgb(255,83,0)" stroke="none" paint-order="stroke" d="M 273.0979309082031 77.81818389892578 L 273.14010490849614 77.81818389892578 L 273.14010490849614 130.45454788208008 L 273.0979309082031 130.45454788208008 L 273.0979309082031 77.81818389892578" fill-opacity="1" clip-path="url(#sknJGLnZAUDd)"/><path fill="rgb(255,118,0)" stroke="none" paint-order="stroke" d="M 273.1401062011719 77.81818389892578 L 273.1822802014649 77.81818389892578 L 273.1822802014649 130.45454788208008 L 273.1401062011719 130.45454788208008 L 273.1401062011719 77.81818389892578" fill-opacity="1" clip-path="url(#sknJGLnZAUDd)"/><path fill="rgb(255,133,0)" stroke="none" paint-order="stroke" d="M 273.1822814941406 77.81818389892578 L 273.204007493332 77.81818389892578 L 273.204007493332 130.45454788208008 L 273.1822814941406 130.45454788208008 L 273.1822814941406 77.81818389892578" fill-opacity="1" clip-path="url(#sknJGLnZAUDd)"/><path fill="rgb(255,151,0)" stroke="none" paint-order="stroke" d="M 273.2040100097656 77.81818389892578 L 273.2666320130229 77.81818389892578 L 273.2666320130229 130.45454788208008 L 273.2040100097656 130.45454788208008 L 273.2040100097656 77.81818389892578" fill-opacity="1" clip-path="url(#sknJGLnZAUDd)"/><path fill="rgb(255,169,0)" stroke="none" paint-order="stroke" d="M 273.2666320800781 77.81818389892578 L 273.2909140791744 77.81818389892578 L 273.2909140791744 130.45454788208008 L 273.2666320800781 130.45454788208008 L 273.2666320800781 77.81818389892578" fill-opacity="1" clip-path="url(#sknJGLnZAUDd)"/><path fill="rgb(255,183,0)" stroke="none" paint-order="stroke" d="M 273.2908935546875 77.81818389892578 L 273.33178955316544 77.81818389892578 L 273.33178955316544 130.45454788208008 L 273.2908935546875 130.45454788208008 L 273.2908935546875 77.81818389892578" fill-opacity="1" clip-path="url(#sknJGLnZAUDd)"/><path fill="rgb(255,200,0)" stroke="none" paint-order="stroke" d="M 273.331787109375 77.81818389892578 L 273.35223510861397 77.81818389892578 L 273.35223510861397 130.45454788208008 L 273.331787109375 130.45454788208008 L 273.331787109375 77.81818389892578" fill-opacity="1" clip-path="url(#sknJGLnZAUDd)"/><path fill="rgb(255,216,0)" stroke="none" paint-order="stroke" d="M 273.35223388671875 77.81818389892578 L 273.4595858901739 77.81818389892578 L 273.4595858901739 130.45454788208008 L 273.35223388671875 130.45454788208008 L 273.35223388671875 77.81818389892578" fill-opacity="1" clip-path="url(#sknJGLnZAUDd)"/><path fill="rgb(255,229,0)" stroke="none" paint-order="stroke" d="M 273.4595947265625 77.81818389892578 L 273.5017687268555 77.81818389892578 L 273.5017687268555 130.45454788208008 L 273.4595947265625 130.45454788208008 L 273.4595947265625 77.81818389892578" fill-opacity="1" clip-path="url(#sknJGLnZAUDd)"/><path fill="rgb(255,245,0)" stroke="none" paint-order="stroke" d="M 273.50177001953125 77.81818389892578 L 273.5669480189681 77.81818389892578 L 273.5669480189681 130.45454788208008 L 273.50177001953125 130.45454788208008 L 273.50177001953125 77.81818389892578" fill-opacity="1" clip-path="url(#sknJGLnZAUDd)"/><path fill="rgb(252,255,0)" stroke="none" paint-order="stroke" d="M 273.56695556640625 77.81818389892578 L 273.6078515648842 77.81818389892578 L 273.6078515648842 130.45454788208008 L 273.56695556640625 130.45454788208008 L 273.56695556640625 77.81818389892578" fill-opacity="1" clip-path="url(#sknJGLnZAUDd)"/><path fill="rgb(237,255,0)" stroke="none" paint-order="stroke" d="M 273.60784912109375 77.81818389892578 L 273.99380511045456 77.81818389892578 L 273.99380511045456 130.45454788208008 L 273.60784912109375 130.45454788208008 L 273.60784912109375 77.81818389892578" fill-opacity="1" clip-path="url(#sknJGLnZAUDd)"/><path fill="rgb(222,255,0)" stroke="none" paint-order="stroke" d="M 273.9938049316406 77.81818389892578 L 274.0998789295554 77.81818389892578 L 274.0998789295554 130.45454788208008 L 273.9938049316406 130.45454788208008 L 273.9938049316406 77.81818389892578" fill-opacity="1" clip-path="url(#sknJGLnZAUDd)"/><path fill="rgb(210,255,0)" stroke="none" paint-order="stroke" d="M 274.0998840332031 77.81818389892578 L 274.2059580311179 77.81818389892578 L 274.2059580311179 130.45454788208008 L 274.0998840332031 130.45454788208008 L 274.0998840332031 77.81818389892578" fill-opacity="1" clip-path="url(#sknJGLnZAUDd)"/><path fill="rgb(194,255,0)" stroke="none" paint-order="stroke" d="M 274.2059631347656 77.81818389892578 L 274.86668914556503 77.81818389892578 L 274.86668914556503 130.45454788208008 L 274.2059631347656 130.45454788208008 L 274.2059631347656 77.81818389892578" fill-opacity="1" clip-path="url(#sknJGLnZAUDd)"/><path fill="rgb(210,255,0)" stroke="none" paint-order="stroke" d="M 274.8666687011719 77.81818389892578 L 275.03664270043373 77.81818389892578 L 275.03664270043373 130.45454788208008 L 274.8666687011719 130.45454788208008 L 274.8666687011719 77.81818389892578" fill-opacity="1" clip-path="url(#sknJGLnZAUDd)"/><path fill="rgb(222,255,0)" stroke="none" paint-order="stroke" d="M 275.0366516113281 77.81818389892578 L 275.0570996105671 77.81818389892578 L 275.0570996105671 130.45454788208008 L 275.0366516113281 130.45454788208008 L 275.0366516113281 77.81818389892578" fill-opacity="1" clip-path="url(#sknJGLnZAUDd)"/><path fill="rgb(237,255,0)" stroke="none" paint-order="stroke" d="M 275.0570983886719 77.81818389892578 L 276.1651244163513 77.81818389892578 L 276.1651244163513 130.45454788208008 L 275.0570983886719 130.45454788208008 L 275.0570983886719 77.81818389892578" fill-opacity="1" clip-path="url(#sknJGLnZAUDd)"/><path fill="rgb(252,255,0)" stroke="none" paint-order="stroke" d="M 276.1651306152344 77.81818389892578 L 276.1843006145209 77.81818389892578 L 276.1843006145209 130.45454788208008 L 276.1651306152344 130.45454788208008 L 276.1651306152344 77.81818389892578" fill-opacity="1" clip-path="url(#sknJGLnZAUDd)"/><path fill="rgb(255,245,0)" stroke="none" paint-order="stroke" d="M 276.1842956542969 77.81818389892578 L 276.74022567272186 77.81818389892578 L 276.74022567272186 130.45454788208008 L 276.1842956542969 130.45454788208008 L 276.1842956542969 77.81818389892578" fill-opacity="1" clip-path="url(#sknJGLnZAUDd)"/><path fill="rgb(252,255,0)" stroke="none" paint-order="stroke" d="M 276.740234375 77.81818389892578 L 276.82330437749624 77.81818389892578 L 276.82330437749624 130.45454788208008 L 276.740234375 130.45454788208008 L 276.740234375 77.81818389892578" fill-opacity="1" clip-path="url(#sknJGLnZAUDd)"/><path fill="rgb(237,255,0)" stroke="none" paint-order="stroke" d="M 276.82330322265625 77.81818389892578 L 276.9089292213321 77.81818389892578 L 276.9089292213321 130.45454788208008 L 276.82330322265625 130.45454788208008 L 276.82330322265625 77.81818389892578" fill-opacity="1" clip-path="url(#sknJGLnZAUDd)"/><path fill="rgb(222,255,0)" stroke="none" paint-order="stroke" d="M 276.908935546875 77.81818389892578 L 276.97411354631186 77.81818389892578 L 276.97411354631186 130.45454788208008 L 276.908935546875 130.45454788208008 L 276.908935546875 77.81818389892578" fill-opacity="1" clip-path="url(#sknJGLnZAUDd)"/><path fill="rgb(210,255,0)" stroke="none" paint-order="stroke" d="M 276.9740905761719 77.81818389892578 L 278.0616686344147 77.81818389892578 L 278.0616686344147 130.45454788208008 L 276.9740905761719 130.45454788208008 L 276.9740905761719 77.81818389892578" fill-opacity="1" clip-path="url(#sknJGLnZAUDd)"/><path fill="rgb(222,255,0)" stroke="none" paint-order="stroke" d="M 278.0616760253906 77.81818389892578 L 278.08084602467716 77.81818389892578 L 278.08084602467716 130.45454788208008 L 278.0616760253906 130.45454788208008 L 278.0616760253906 77.81818389892578" fill-opacity="1" clip-path="url(#sknJGLnZAUDd)"/><path fill="rgb(237,255,0)" stroke="none" paint-order="stroke" d="M 278.0808410644531 77.81818389892578 L 278.61376708745956 77.81818389892578 L 278.61376708745956 130.45454788208008 L 278.0808410644531 130.45454788208008 L 278.0808410644531 77.81818389892578" fill-opacity="1" clip-path="url(#sknJGLnZAUDd)"/><path fill="rgb(255,229,0)" stroke="none" paint-order="stroke" d="M 278.61376953125 77.81818389892578 L 278.63421753048897 77.81818389892578 L 278.63421753048897 130.45454788208008 L 278.61376953125 130.45454788208008 L 278.61376953125 77.81818389892578" fill-opacity="1" clip-path="url(#sknJGLnZAUDd)"/><path fill="rgb(255,169,0)" stroke="none" paint-order="stroke" d="M 278.63421630859375 77.81818389892578 L 278.6546643078327 77.81818389892578 L 278.6546643078327 130.45454788208008 L 278.63421630859375 130.45454788208008 L 278.63421630859375 77.81818389892578" fill-opacity="1" clip-path="url(#sknJGLnZAUDd)"/><path fill="rgb(255,151,0)" stroke="none" paint-order="stroke" d="M 278.6546630859375 77.81818389892578 L 279.8061411380768 77.81818389892578 L 279.8061411380768 130.45454788208008 L 278.6546630859375 130.45454788208008 L 278.6546630859375 77.81818389892578" fill-opacity="1" clip-path="url(#sknJGLnZAUDd)"/><path fill="rgb(255,183,0)" stroke="none" paint-order="stroke" d="M 279.80615234375 77.81818389892578 L 279.87005234509706 77.81818389892578 L 279.87005234509706 130.45454788208008 L 279.80615234375 130.45454788208008 L 279.80615234375 77.81818389892578" fill-opacity="1" clip-path="url(#sknJGLnZAUDd)"/><path fill="rgb(255,216,0)" stroke="none" paint-order="stroke" d="M 279.87005615234375 77.81818389892578 L 279.9556821510196 77.81818389892578 L 279.9556821510196 130.45454788208008 L 279.87005615234375 130.45454788208008 L 279.87005615234375 77.81818389892578" fill-opacity="1" clip-path="url(#sknJGLnZAUDd)"/><path fill="rgb(255,245,0)" stroke="none" paint-order="stroke" d="M 279.9556884765625 77.81818389892578 L 280.0183104798198 77.81818389892578 L 280.0183104798198 130.45454788208008 L 279.9556884765625 130.45454788208008 L 279.9556884765625 77.81818389892578" fill-opacity="1" clip-path="url(#sknJGLnZAUDd)"/><path fill="rgb(252,255,0)" stroke="none" paint-order="stroke" d="M 280.018310546875 77.81818389892578 L 280.04131454601884 77.81818389892578 L 280.04131454601884 130.45454788208008 L 280.018310546875 130.45454788208008 L 280.018310546875 77.81818389892578" fill-opacity="1" clip-path="url(#sknJGLnZAUDd)"/><path fill="rgb(237,255,0)" stroke="none" paint-order="stroke" d="M 280.0412902832031 77.81818389892578 L 280.1039122864604 77.81818389892578 L 280.1039122864604 130.45454788208008 L 280.0412902832031 130.45454788208008 L 280.0412902832031 77.81818389892578" fill-opacity="1" clip-path="url(#sknJGLnZAUDd)"/><path fill="rgb(210,255,0)" stroke="none" paint-order="stroke" d="M 280.1039123535156 77.81818389892578 L 280.1690903529525 77.81818389892578 L 280.1690903529525 130.45454788208008 L 280.1039123535156 130.45454788208008 L 280.1039123535156 77.81818389892578" fill-opacity="1" clip-path="url(#sknJGLnZAUDd)"/><path fill="rgb(194,255,0)" stroke="none" paint-order="stroke" d="M 280.1690979003906 77.81818389892578 L 280.18826789967716 77.81818389892578 L 280.18826789967716 130.45454788208008 L 280.1690979003906 130.45454788208008 L 280.1690979003906 77.81818389892578" fill-opacity="1" clip-path="url(#sknJGLnZAUDd)"/><path fill="rgb(179,255,0)" stroke="none" paint-order="stroke" d="M 280.1882629394531 77.81818389892578 L 280.48859295248985 77.81818389892578 L 280.48859295248985 130.45454788208008 L 280.1882629394531 130.45454788208008 L 280.1882629394531 77.81818389892578" fill-opacity="1" clip-path="url(#sknJGLnZAUDd)"/><path fill="rgb(166,255,0)" stroke="none" paint-order="stroke" d="M 280.48858642578125 77.81818389892578 L 280.5294824242592 77.81818389892578 L 280.5294824242592 130.45454788208008 L 280.48858642578125 130.45454788208008 L 280.48858642578125 77.81818389892578" fill-opacity="1" clip-path="url(#sknJGLnZAUDd)"/><path fill="rgb(149,255,0)" stroke="none" paint-order="stroke" d="M 280.5295104980469 77.81818389892578 L 280.8937405049801 77.81818389892578 L 280.8937405049801 130.45454788208008 L 280.5295104980469 130.45454788208008 L 280.5295104980469 77.81818389892578" fill-opacity="1" clip-path="url(#sknJGLnZAUDd)"/><path fill="rgb(166,255,0)" stroke="none" paint-order="stroke" d="M 280.89373779296875 77.81818389892578 L 280.9141857922077 77.81818389892578 L 280.9141857922077 130.45454788208008 L 280.89373779296875 130.45454788208008 L 280.89373779296875 77.81818389892578" fill-opacity="1" clip-path="url(#sknJGLnZAUDd)"/><path fill="rgb(179,255,0)" stroke="none" paint-order="stroke" d="M 280.9141845703125 77.81818389892578 L 280.9768065735698 77.81818389892578 L 280.9768065735698 130.45454788208008 L 280.9141845703125 130.45454788208008 L 280.9141845703125 77.81818389892578" fill-opacity="1" clip-path="url(#sknJGLnZAUDd)"/><path fill="rgb(194,255,0)" stroke="none" paint-order="stroke" d="M 280.976806640625 77.81818389892578 L 281.04070664197206 77.81818389892578 L 281.04070664197206 130.45454788208008 L 280.976806640625 130.45454788208008 L 280.976806640625 77.81818389892578" fill-opacity="1" clip-path="url(#sknJGLnZAUDd)"/><path fill="rgb(210,255,0)" stroke="none" paint-order="stroke" d="M 281.04071044921875 77.81818389892578 L 281.1493404507637 77.81818389892578 L 281.1493404507637 130.45454788208008 L 281.04071044921875 130.45454788208008 L 281.04071044921875 77.81818389892578" fill-opacity="1" clip-path="url(#sknJGLnZAUDd)"/><path fill="rgb(222,255,0)" stroke="none" paint-order="stroke" d="M 281.1493225097656 77.81818389892578 L 287.53676652908325 77.81818389892578 L 287.53676652908325 130.45454788208008 L 281.1493225097656 130.45454788208008 L 281.1493225097656 77.81818389892578" fill-opacity="1" clip-path="url(#sknJGLnZAUDd)"/><path fill="rgb(201,255,0)" stroke="none" paint-order="stroke" d="M 287.5367736816406 77.81818389892578 L 287.5993956848979 77.81818389892578 L 287.5993956848979 130.45454788208008 L 287.5367736816406 130.45454788208008 L 287.5367736816406 77.81818389892578" fill-opacity="1" clip-path="url(#sknJGLnZAUDd)"/><path fill="rgb(185,255,0)" stroke="none" paint-order="stroke" d="M 287.5993957519531 77.81818389892578 L 287.62239975109696 77.81818389892578 L 287.62239975109696 130.45454788208008 L 287.5993957519531 130.45454788208008 L 287.5993957519531 77.81818389892578" fill-opacity="1" clip-path="url(#sknJGLnZAUDd)"/><path fill="rgb(169,255,0)" stroke="none" paint-order="stroke" d="M 287.6224060058594 77.81818389892578 L 287.6658580042422 77.81818389892578 L 287.6658580042422 130.45454788208008 L 287.6224060058594 130.45454788208008 L 287.6224060058594 77.81818389892578" fill-opacity="1" clip-path="url(#sknJGLnZAUDd)"/><path fill="rgb(156,255,0)" stroke="none" paint-order="stroke" d="M 287.6658630371094 77.81818389892578 L 287.68631103634834 77.81818389892578 L 287.68631103634834 130.45454788208008 L 287.6658630371094 130.45454788208008 L 287.6658630371094 77.81818389892578" fill-opacity="1" clip-path="url(#sknJGLnZAUDd)"/><path fill="rgb(139,255,0)" stroke="none" paint-order="stroke" d="M 287.6863098144531 77.81818389892578 L 287.75148781389 77.81818389892578 L 287.75148781389 130.45454788208008 L 287.6863098144531 130.45454788208008 L 287.6863098144531 77.81818389892578" fill-opacity="1" clip-path="url(#sknJGLnZAUDd)"/><path fill="rgb(108,255,0)" stroke="none" paint-order="stroke" d="M 287.75146484375 77.81818389892578 L 287.77191284298897 77.81818389892578 L 287.77191284298897 130.45454788208008 L 287.75146484375 130.45454788208008 L 287.75146484375 77.81818389892578" fill-opacity="1" clip-path="url(#sknJGLnZAUDd)"/><path fill="rgb(89,255,0)" stroke="none" paint-order="stroke" d="M 287.77191162109375 77.81818389892578 L 287.79363762028515 77.81818389892578 L 287.79363762028515 130.45454788208008 L 287.77191162109375 130.45454788208008 L 287.77191162109375 77.81818389892578" fill-opacity="1" clip-path="url(#sknJGLnZAUDd)"/><path fill="rgb(74,255,0)" stroke="none" paint-order="stroke" d="M 287.79364013671875 77.81818389892578 L 287.8345361351967 77.81818389892578 L 287.8345361351967 130.45454788208008 L 287.79364013671875 130.45454788208008 L 287.79364013671875 77.81818389892578" fill-opacity="1" clip-path="url(#sknJGLnZAUDd)"/><path fill="rgb(53,255,0)" stroke="none" paint-order="stroke" d="M 287.83453369140625 77.81818389892578 L 287.87670769169927 77.81818389892578 L 287.87670769169927 130.45454788208008 L 287.83453369140625 130.45454788208008 L 287.83453369140625 77.81818389892578" fill-opacity="1" clip-path="url(#sknJGLnZAUDd)"/><path fill="rgb(30,255,0)" stroke="none" paint-order="stroke" d="M 287.876708984375 77.81818389892578 L 288.1974869966507 77.81818389892578 L 288.1974869966507 130.45454788208008 L 287.876708984375 130.45454788208008 L 287.876708984375 77.81818389892578" fill-opacity="1" clip-path="url(#sknJGLnZAUDd)"/><path fill="rgb(53,255,0)" stroke="none" paint-order="stroke" d="M 288.197509765625 77.81818389892578 L 288.21795776486397 77.81818389892578 L 288.21795776486397 130.45454788208008 L 288.197509765625 130.45454788208008 L 288.197509765625 77.81818389892578" fill-opacity="1" clip-path="url(#sknJGLnZAUDd)"/><path fill="rgb(74,255,0)" stroke="none" paint-order="stroke" d="M 288.21795654296875 77.81818389892578 L 288.26140854135156 77.81818389892578 L 288.26140854135156 130.45454788208008 L 288.21795654296875 130.45454788208008 L 288.21795654296875 77.81818389892578" fill-opacity="1" clip-path="url(#sknJGLnZAUDd)"/><path fill="rgb(89,255,0)" stroke="none" paint-order="stroke" d="M 288.2613830566406 77.81818389892578 L 288.28438705578446 77.81818389892578 L 288.28438705578446 130.45454788208008 L 288.2613830566406 130.45454788208008 L 288.2613830566406 77.81818389892578" fill-opacity="1" clip-path="url(#sknJGLnZAUDd)"/><path fill="rgb(108,255,0)" stroke="none" paint-order="stroke" d="M 288.2843933105469 77.81818389892578 L 288.34701531380415 77.81818389892578 L 288.34701531380415 130.45454788208008 L 288.2843933105469 130.45454788208008 L 288.2843933105469 77.81818389892578" fill-opacity="1" clip-path="url(#sknJGLnZAUDd)"/><path fill="rgb(122,255,0)" stroke="none" paint-order="stroke" d="M 288.3470153808594 77.81818389892578 L 288.8377673923969 77.81818389892578 L 288.8377673923969 130.45454788208008 L 288.3470153808594 130.45454788208008 L 288.3470153808594 77.81818389892578" fill-opacity="1" clip-path="url(#sknJGLnZAUDd)"/><path fill="rgb(139,255,0)" stroke="none" paint-order="stroke" d="M 288.8377685546875 77.81818389892578 L 288.8991125561297 77.81818389892578 L 288.8991125561297 130.45454788208008 L 288.8377685546875 130.45454788208008 L 288.8377685546875 77.81818389892578" fill-opacity="1" clip-path="url(#sknJGLnZAUDd)"/><path fill="rgb(169,255,0)" stroke="none" paint-order="stroke" d="M 288.89910888671875 77.81818389892578 L 288.94383888691664 77.81818389892578 L 288.94383888691664 130.45454788208008 L 288.89910888671875 130.45454788208008 L 288.89910888671875 77.81818389892578" fill-opacity="1" clip-path="url(#sknJGLnZAUDd)"/><path fill="rgb(185,255,0)" stroke="none" paint-order="stroke" d="M 288.94384765625 77.81818389892578 L 288.96301765553653 77.81818389892578 L 288.96301765553653 130.45454788208008 L 288.94384765625 130.45454788208008 L 288.94384765625 77.81818389892578" fill-opacity="1" clip-path="url(#sknJGLnZAUDd)"/><path fill="rgb(228,255,0)" stroke="none" paint-order="stroke" d="M 288.9630126953125 77.81818389892578 L 288.9872946944088 77.81818389892578 L 288.9872946944088 130.45454788208008 L 288.9630126953125 130.45454788208008 L 288.9630126953125 77.81818389892578" fill-opacity="1" clip-path="url(#sknJGLnZAUDd)"/><path fill="rgb(240,255,0)" stroke="none" paint-order="stroke" d="M 288.9873046875 77.81818389892578 L 289.00647468678653 77.81818389892578 L 289.00647468678653 130.45454788208008 L 288.9873046875 130.45454788208008 L 288.9873046875 77.81818389892578" fill-opacity="1" clip-path="url(#sknJGLnZAUDd)"/><path fill="rgb(255,255,0)" stroke="none" paint-order="stroke" d="M 289.0064697265625 77.81818389892578 L 289.02691772580147 77.81818389892578 L 289.02691772580147 130.45454788208008 L 289.0064697265625 130.45454788208008 L 289.0064697265625 77.81818389892578" fill-opacity="1" clip-path="url(#sknJGLnZAUDd)"/><path fill="rgb(255,226,0)" stroke="none" paint-order="stroke" d="M 289.02691650390625 77.81818389892578 L 289.0908165052533 77.81818389892578 L 289.0908165052533 130.45454788208008 L 289.02691650390625 130.45454788208008 L 289.02691650390625 77.81818389892578" fill-opacity="1" clip-path="url(#sknJGLnZAUDd)"/><path fill="rgb(255,210,0)" stroke="none" paint-order="stroke" d="M 289.0908203125 77.81818389892578 L 289.53939831256866 77.81818389892578 L 289.53939831256866 130.45454788208008 L 289.0908203125 130.45454788208008 L 289.0908203125 77.81818389892578" fill-opacity="1" clip-path="url(#sknJGLnZAUDd)"/><path fill="rgb(255,226,0)" stroke="none" paint-order="stroke" d="M 289.5393981933594 77.81818389892578 L 289.55984619259834 77.81818389892578 L 289.55984619259834 130.45454788208008 L 289.5393981933594 130.45454788208008 L 289.5393981933594 77.81818389892578" fill-opacity="1" clip-path="url(#sknJGLnZAUDd)"/><path fill="rgb(255,239,0)" stroke="none" paint-order="stroke" d="M 289.5598449707031 77.81818389892578 L 289.5815709698945 77.81818389892578 L 289.5815709698945 130.45454788208008 L 289.5598449707031 130.45454788208008 L 289.5598449707031 77.81818389892578" fill-opacity="1" clip-path="url(#sknJGLnZAUDd)"/><path fill="rgb(255,255,0)" stroke="none" paint-order="stroke" d="M 289.5815734863281 77.81818389892578 L 289.6032994855195 77.81818389892578 L 289.6032994855195 130.45454788208008 L 289.5815734863281 130.45454788208008 L 289.5815734863281 77.81818389892578" fill-opacity="1" clip-path="url(#sknJGLnZAUDd)"/><path fill="rgb(240,255,0)" stroke="none" paint-order="stroke" d="M 289.6033020019531 77.81818389892578 L 289.6237500011921 77.81818389892578 L 289.6237500011921 130.45454788208008 L 289.6033020019531 130.45454788208008 L 289.6033020019531 77.81818389892578" fill-opacity="1" clip-path="url(#sknJGLnZAUDd)"/><path fill="rgb(228,255,0)" stroke="none" paint-order="stroke" d="M 289.6237487792969 77.81818389892578 L 289.64419677853584 77.81818389892578 L 289.64419677853584 130.45454788208008 L 289.6237487792969 130.45454788208008 L 289.6237487792969 77.81818389892578" fill-opacity="1" clip-path="url(#sknJGLnZAUDd)"/><path fill="rgb(213,255,0)" stroke="none" paint-order="stroke" d="M 289.6441955566406 77.81818389892578 L 289.665921555832 77.81818389892578 L 289.665921555832 130.45454788208008 L 289.6441955566406 130.45454788208008 L 289.6441955566406 77.81818389892578" fill-opacity="1" clip-path="url(#sknJGLnZAUDd)"/><path fill="rgb(201,255,0)" stroke="none" paint-order="stroke" d="M 289.6659240722656 77.81818389892578 L 289.7311020717025 77.81818389892578 L 289.7311020717025 130.45454788208008 L 289.6659240722656 130.45454788208008 L 289.6659240722656 77.81818389892578" fill-opacity="1" clip-path="url(#sknJGLnZAUDd)"/><path fill="rgb(185,255,0)" stroke="none" paint-order="stroke" d="M 289.7311096191406 77.81818389892578 L 289.7515576183796 77.81818389892578 L 289.7515576183796 130.45454788208008 L 289.7311096191406 130.45454788208008 L 289.7311096191406 77.81818389892578" fill-opacity="1" clip-path="url(#sknJGLnZAUDd)"/><path fill="rgb(169,255,0)" stroke="none" paint-order="stroke" d="M 289.7515563964844 77.81818389892578 L 289.7937303967774 77.81818389892578 L 289.7937303967774 130.45454788208008 L 289.7515563964844 130.45454788208008 L 289.7515563964844 77.81818389892578" fill-opacity="1" clip-path="url(#sknJGLnZAUDd)"/><path fill="rgb(156,255,0)" stroke="none" paint-order="stroke" d="M 289.7937316894531 77.81818389892578 L 289.8154576886445 77.81818389892578 L 289.8154576886445 130.45454788208008 L 289.7937316894531 130.45454788208008 L 289.7937316894531 77.81818389892578" fill-opacity="1" clip-path="url(#sknJGLnZAUDd)"/><path fill="rgb(139,255,0)" stroke="none" paint-order="stroke" d="M 289.8154296875 77.81818389892578 L 290.4352596998215 77.81818389892578 L 290.4352596998215 130.45454788208008 L 289.8154296875 130.45454788208008 L 289.8154296875 77.81818389892578" fill-opacity="1" clip-path="url(#sknJGLnZAUDd)"/><path fill="rgb(156,255,0)" stroke="none" paint-order="stroke" d="M 290.4352722167969 77.81818389892578 L 291.56374621391296 77.81818389892578 L 291.56374621391296 130.45454788208008 L 290.4352722167969 130.45454788208008 L 290.4352722167969 77.81818389892578" fill-opacity="1" clip-path="url(#sknJGLnZAUDd)"/><path fill="rgb(169,255,0)" stroke="none" paint-order="stroke" d="M 291.5637512207031 77.81818389892578 L 291.60464721918106 77.81818389892578 L 291.60464721918106 130.45454788208008 L 291.5637512207031 130.45454788208008 L 291.5637512207031 77.81818389892578" fill-opacity="1" clip-path="url(#sknJGLnZAUDd)"/><path fill="rgb(185,255,0)" stroke="none" paint-order="stroke" d="M 291.6046447753906 77.81818389892578 L 291.6250927746296 77.81818389892578 L 291.6250927746296 130.45454788208008 L 291.6046447753906 130.45454788208008 L 291.6046447753906 77.81818389892578" fill-opacity="1" clip-path="url(#sknJGLnZAUDd)"/><path fill="rgb(201,255,0)" stroke="none" paint-order="stroke" d="M 291.6250915527344 77.81818389892578 L 291.6672655530274 77.81818389892578 L 291.6672655530274 130.45454788208008 L 291.6250915527344 130.45454788208008 L 291.6250915527344 77.81818389892578" fill-opacity="1" clip-path="url(#sknJGLnZAUDd)"/><path fill="rgb(228,255,0)" stroke="none" paint-order="stroke" d="M 291.6672668457031 77.81818389892578 L 292.2231968641281 77.81818389892578 L 292.2231968641281 130.45454788208008 L 291.6672668457031 130.45454788208008 L 291.6672668457031 77.81818389892578" fill-opacity="1" clip-path="url(#sknJGLnZAUDd)"/><path fill="rgb(240,255,0)" stroke="none" paint-order="stroke" d="M 292.22320556640625 77.81818389892578 L 292.26537956669927 77.81818389892578 L 292.26537956669927 130.45454788208008 L 292.22320556640625 130.45454788208008 L 292.22320556640625 77.81818389892578" fill-opacity="1" clip-path="url(#sknJGLnZAUDd)"/><path fill="rgb(255,148,0)" stroke="none" paint-order="stroke" d="M 292.265380859375 77.81818389892578 L 292.28582885861397 77.81818389892578 L 292.28582885861397 130.45454788208008 L 292.265380859375 130.45454788208008 L 292.265380859375 77.81818389892578" fill-opacity="1" clip-path="url(#sknJGLnZAUDd)"/><path fill="rgb(255,111,0)" stroke="none" paint-order="stroke" d="M 292.28582763671875 77.81818389892578 L 292.310109635815 77.81818389892578 L 292.310109635815 130.45454788208008 L 292.28582763671875 130.45454788208008 L 292.28582763671875 77.81818389892578" fill-opacity="1" clip-path="url(#sknJGLnZAUDd)"/><path fill="rgb(255,95,0)" stroke="none" paint-order="stroke" d="M 292.3100891113281 77.81818389892578 L 292.3279811106622 77.81818389892578 L 292.3279811106622 130.45454788208008 L 292.3100891113281 130.45454788208008 L 292.3100891113281 77.81818389892578" fill-opacity="1" clip-path="url(#sknJGLnZAUDd)"/><path fill="rgb(255,74,0)" stroke="none" paint-order="stroke" d="M 292.3280029296875 77.81818389892578 L 292.3701769299805 77.81818389892578 L 292.3701769299805 130.45454788208008 L 292.3280029296875 130.45454788208008 L 292.3280029296875 77.81818389892578" fill-opacity="1" clip-path="url(#sknJGLnZAUDd)"/><path fill="rgb(255,52,0)" stroke="none" paint-order="stroke" d="M 292.37017822265625 77.81818389892578 L 292.9682822227478 77.81818389892578 L 292.9682822227478 130.45454788208008 L 292.37017822265625 130.45454788208008 L 292.37017822265625 77.81818389892578" fill-opacity="1" clip-path="url(#sknJGLnZAUDd)"/><path fill="rgb(255,32,0)" stroke="none" paint-order="stroke" d="M 292.96826171875 77.81818389892578 L 293.0743357166648 77.81818389892578 L 293.0743357166648 130.45454788208008 L 292.96826171875 130.45454788208008 L 292.96826171875 77.81818389892578" fill-opacity="1" clip-path="url(#sknJGLnZAUDd)"/><path fill="rgb(255,52,0)" stroke="none" paint-order="stroke" d="M 293.0743408203125 77.81818389892578 L 293.11523681879044 77.81818389892578 L 293.11523681879044 130.45454788208008 L 293.0743408203125 130.45454788208008 L 293.0743408203125 77.81818389892578" fill-opacity="1" clip-path="url(#sknJGLnZAUDd)"/><path fill="rgb(255,74,0)" stroke="none" paint-order="stroke" d="M 293.115234375 77.81818389892578 L 293.1369603741914 77.81818389892578 L 293.1369603741914 130.45454788208008 L 293.115234375 130.45454788208008 L 293.115234375 77.81818389892578" fill-opacity="1" clip-path="url(#sknJGLnZAUDd)"/><path fill="rgb(255,95,0)" stroke="none" paint-order="stroke" d="M 293.136962890625 77.81818389892578 L 293.20086289197206 77.81818389892578 L 293.20086289197206 130.45454788208008 L 293.136962890625 130.45454788208008 L 293.136962890625 77.81818389892578" fill-opacity="1" clip-path="url(#sknJGLnZAUDd)"/><path fill="rgb(255,111,0)" stroke="none" paint-order="stroke" d="M 293.20086669921875 77.81818389892578 L 293.22259269841015 77.81818389892578 L 293.22259269841015 130.45454788208008 L 293.20086669921875 130.45454788208008 L 293.20086669921875 77.81818389892578" fill-opacity="1" clip-path="url(#sknJGLnZAUDd)"/><path fill="rgb(255,129,0)" stroke="none" paint-order="stroke" d="M 293.22259521484375 77.81818389892578 L 293.2864952161908 77.81818389892578 L 293.2864952161908 130.45454788208008 L 293.22259521484375 130.45454788208008 L 293.22259521484375 77.81818389892578" fill-opacity="1" clip-path="url(#sknJGLnZAUDd)"/><path fill="rgb(255,162,0)" stroke="none" paint-order="stroke" d="M 293.2864990234375 77.81818389892578 L 293.4155770242214 77.81818389892578 L 293.4155770242214 130.45454788208008 L 293.2864990234375 130.45454788208008 L 293.2864990234375 77.81818389892578" fill-opacity="1" clip-path="url(#sknJGLnZAUDd)"/><path fill="rgb(255,179,0)" stroke="none" paint-order="stroke" d="M 293.4155578613281 77.81818389892578 L 293.43472786061466 77.81818389892578 L 293.43472786061466 130.45454788208008 L 293.4155578613281 130.45454788208008 L 293.4155578613281 77.81818389892578" fill-opacity="1" clip-path="url(#sknJGLnZAUDd)"/><path fill="rgb(255,193,0)" stroke="none" paint-order="stroke" d="M 293.43475341796875 77.81818389892578 L 293.8833314180374 77.81818389892578 L 293.8833314180374 130.45454788208008 L 293.43475341796875 130.45454788208008 L 293.43475341796875 77.81818389892578" fill-opacity="1" clip-path="url(#sknJGLnZAUDd)"/><path fill="rgb(255,210,0)" stroke="none" paint-order="stroke" d="M 293.8833312988281 77.81818389892578 L 293.9459533020854 77.81818389892578 L 293.9459533020854 130.45454788208008 L 293.8833312988281 130.45454788208008 L 293.8833312988281 77.81818389892578" fill-opacity="1" clip-path="url(#sknJGLnZAUDd)"/><path fill="rgb(255,226,0)" stroke="none" paint-order="stroke" d="M 293.9459533691406 77.81818389892578 L 294.07630936801434 77.81818389892578 L 294.07630936801434 130.45454788208008 L 293.9459533691406 130.45454788208008 L 293.9459533691406 77.81818389892578" fill-opacity="1" clip-path="url(#sknJGLnZAUDd)"/><path fill="rgb(255,239,0)" stroke="none" paint-order="stroke" d="M 294.0762939453125 77.81818389892578 L 294.09674194455147 77.81818389892578 L 294.09674194455147 130.45454788208008 L 294.0762939453125 130.45454788208008 L 294.0762939453125 77.81818389892578" fill-opacity="1" clip-path="url(#sknJGLnZAUDd)"/><path fill="rgb(255,255,0)" stroke="none" paint-order="stroke" d="M 294.09674072265625 77.81818389892578 L 294.13891472294927 77.81818389892578 L 294.13891472294927 130.45454788208008 L 294.09674072265625 130.45454788208008 L 294.09674072265625 77.81818389892578" fill-opacity="1" clip-path="url(#sknJGLnZAUDd)"/><path fill="rgb(240,255,0)" stroke="none" paint-order="stroke" d="M 294.138916015625 77.81818389892578 L 294.1606420148164 77.81818389892578 L 294.1606420148164 130.45454788208008 L 294.138916015625 130.45454788208008 L 294.138916015625 77.81818389892578" fill-opacity="1" clip-path="url(#sknJGLnZAUDd)"/><path fill="rgb(228,255,0)" stroke="none" paint-order="stroke" d="M 294.16064453125 77.81818389892578 L 295.0756925344467 77.81818389892578 L 295.0756925344467 130.45454788208008 L 294.16064453125 130.45454788208008 L 294.16064453125 77.81818389892578" fill-opacity="1" clip-path="url(#sknJGLnZAUDd)"/><path fill="rgb(240,255,0)" stroke="none" paint-order="stroke" d="M 295.07568359375 77.81818389892578 L 295.0974095929414 77.81818389892578 L 295.0974095929414 130.45454788208008 L 295.07568359375 130.45454788208008 L 295.07568359375 77.81818389892578" fill-opacity="1" clip-path="url(#sknJGLnZAUDd)"/><path fill="rgb(255,255,0)" stroke="none" paint-order="stroke" d="M 295.097412109375 77.81818389892578 L 295.139586109668 77.81818389892578 L 295.139586109668 130.45454788208008 L 295.097412109375 130.45454788208008 L 295.097412109375 77.81818389892578" fill-opacity="1" clip-path="url(#sknJGLnZAUDd)"/><path fill="rgb(255,239,0)" stroke="none" paint-order="stroke" d="M 295.13958740234375 77.81818389892578 L 295.18176140263677 77.81818389892578 L 295.18176140263677 130.45454788208008 L 295.13958740234375 130.45454788208008 L 295.13958740234375 77.81818389892578" fill-opacity="1" clip-path="url(#sknJGLnZAUDd)"/><path fill="rgb(255,226,0)" stroke="none" paint-order="stroke" d="M 295.1817626953125 77.81818389892578 L 295.24566269665956 77.81818389892578 L 295.24566269665956 130.45454788208008 L 295.1817626953125 130.45454788208008 L 295.1817626953125 77.81818389892578" fill-opacity="1" clip-path="url(#sknJGLnZAUDd)"/><path fill="rgb(255,210,0)" stroke="none" paint-order="stroke" d="M 295.24566650390625 77.81818389892578 L 295.26739250309765 77.81818389892578 L 295.26739250309765 130.45454788208008 L 295.24566650390625 130.45454788208008 L 295.24566650390625 77.81818389892578" fill-opacity="1" clip-path="url(#sknJGLnZAUDd)"/><path fill="rgb(255,193,0)" stroke="none" paint-order="stroke" d="M 295.26739501953125 77.81818389892578 L 295.8846690058708 77.81818389892578 L 295.8846690058708 130.45454788208008 L 295.26739501953125 130.45454788208008 L 295.26739501953125 77.81818389892578" fill-opacity="1" clip-path="url(#sknJGLnZAUDd)"/><path fill="rgb(255,210,0)" stroke="none" paint-order="stroke" d="M 295.8846740722656 77.81818389892578 L 295.92684807255864 77.81818389892578 L 295.92684807255864 130.45454788208008 L 295.8846740722656 130.45454788208008 L 295.8846740722656 77.81818389892578" fill-opacity="1" clip-path="url(#sknJGLnZAUDd)"/><path fill="rgb(255,226,0)" stroke="none" paint-order="stroke" d="M 295.9268493652344 77.81818389892578 L 296.1198273599148 77.81818389892578 L 296.1198273599148 130.45454788208008 L 295.9268493652344 130.45454788208008 L 295.9268493652344 77.81818389892578" fill-opacity="1" clip-path="url(#sknJGLnZAUDd)"/><path fill="rgb(255,239,0)" stroke="none" paint-order="stroke" d="M 296.11981201171875 77.81818389892578 L 296.76008999347687 77.81818389892578 L 296.76008999347687 130.45454788208008 L 296.11981201171875 130.45454788208008 L 296.11981201171875 77.81818389892578" fill-opacity="1" clip-path="url(#sknJGLnZAUDd)"/><path fill="rgb(255,255,0)" stroke="none" paint-order="stroke" d="M 296.7601013183594 77.81818389892578 L 296.8648973181844 77.81818389892578 L 296.8648973181844 130.45454788208008 L 296.7601013183594 130.45454788208008 L 296.7601013183594 77.81818389892578" fill-opacity="1" clip-path="url(#sknJGLnZAUDd)"/><path fill="rgb(240,255,0)" stroke="none" paint-order="stroke" d="M 296.8648986816406 77.81818389892578 L 296.8853466808796 77.81818389892578 L 296.8853466808796 130.45454788208008 L 296.8648986816406 130.45454788208008 L 296.8648986816406 77.81818389892578" fill-opacity="1" clip-path="url(#sknJGLnZAUDd)"/><path fill="rgb(228,255,0)" stroke="none" paint-order="stroke" d="M 296.8853454589844 77.81818389892578 L 297.03614945709705 77.81818389892578 L 297.03614945709705 130.45454788208008 L 296.8853454589844 130.45454788208008 L 296.8853454589844 77.81818389892578" fill-opacity="1" clip-path="url(#sknJGLnZAUDd)"/><path fill="rgb(213,255,0)" stroke="none" paint-order="stroke" d="M 297.0361328125 77.81818389892578 L 297.6968588232994 77.81818389892578 L 297.6968588232994 130.45454788208008 L 297.0361328125 130.45454788208008 L 297.0361328125 77.81818389892578" fill-opacity="1" clip-path="url(#sknJGLnZAUDd)"/><path fill="rgb(228,255,0)" stroke="none" paint-order="stroke" d="M 297.6968688964844 77.81818389892578 L 298.0163688957691 77.81818389892578 L 298.0163688957691 130.45454788208008 L 297.6968688964844 130.45454788208008 L 297.6968688964844 77.81818389892578" fill-opacity="1" clip-path="url(#sknJGLnZAUDd)"/><path fill="rgb(240,255,0)" stroke="none" paint-order="stroke" d="M 298.016357421875 77.81818389892578 L 298.0777014233172 77.81818389892578 L 298.0777014233172 130.45454788208008 L 298.016357421875 130.45454788208008 L 298.016357421875 77.81818389892578" fill-opacity="1" clip-path="url(#sknJGLnZAUDd)"/><path fill="rgb(255,255,0)" stroke="none" paint-order="stroke" d="M 298.0777282714844 77.81818389892578 L 299.08095824718475 77.81818389892578 L 299.08095824718475 130.45454788208008 L 298.0777282714844 130.45454788208008 L 298.0777282714844 77.81818389892578" fill-opacity="1" clip-path="url(#sknJGLnZAUDd)"/><path fill="rgb(255,226,0)" stroke="none" paint-order="stroke" d="M 299.0809326171875 77.81818389892578 L 299.93208062648773 77.81818389892578 L 299.93208062648773 130.45454788208008 L 299.0809326171875 130.45454788208008 L 299.0809326171875 77.81818389892578" fill-opacity="1" clip-path="url(#sknJGLnZAUDd)"/><path fill="rgb(255,239,0)" stroke="none" paint-order="stroke" d="M 299.9320983886719 77.81818389892578 L 299.95254638791084 77.81818389892578 L 299.95254638791084 130.45454788208008 L 299.9320983886719 130.45454788208008 L 299.9320983886719 77.81818389892578" fill-opacity="1" clip-path="url(#sknJGLnZAUDd)"/><path fill="rgb(255,255,0)" stroke="none" paint-order="stroke" d="M 299.9525451660156 77.81818389892578 L 299.99471916630864 77.81818389892578 L 299.99471916630864 130.45454788208008 L 299.9525451660156 130.45454788208008 L 299.9525451660156 77.81818389892578" fill-opacity="1" clip-path="url(#sknJGLnZAUDd)"/><path fill="rgb(240,255,0)" stroke="none" paint-order="stroke" d="M 299.9947204589844 77.81818389892578 L 300.0164464581758 77.81818389892578 L 300.0164464581758 130.45454788208008 L 299.9947204589844 130.45454788208008 L 299.9947204589844 77.81818389892578" fill-opacity="1" clip-path="url(#sknJGLnZAUDd)"/><path fill="rgb(228,255,0)" stroke="none" paint-order="stroke" d="M 300.0164489746094 77.81818389892578 L 300.07907097786665 77.81818389892578 L 300.07907097786665 130.45454788208008 L 300.0164489746094 130.45454788208008 L 300.0164489746094 77.81818389892578" fill-opacity="1" clip-path="url(#sknJGLnZAUDd)"/><path fill="rgb(213,255,0)" stroke="none" paint-order="stroke" d="M 300.0790710449219 77.81818389892578 L 300.1007970441133 77.81818389892578 L 300.1007970441133 130.45454788208008 L 300.0790710449219 130.45454788208008 L 300.0790710449219 77.81818389892578" fill-opacity="1" clip-path="url(#sknJGLnZAUDd)"/><path fill="rgb(201,255,0)" stroke="none" paint-order="stroke" d="M 300.1007995605469 77.81818389892578 L 300.1442515589297 77.81818389892578 L 300.1442515589297 130.45454788208008 L 300.1007995605469 130.45454788208008 L 300.1007995605469 77.81818389892578" fill-opacity="1" clip-path="url(#sknJGLnZAUDd)"/><path fill="rgb(185,255,0)" stroke="none" paint-order="stroke" d="M 300.14422607421875 77.81818389892578 L 300.18640007451177 77.81818389892578 L 300.18640007451177 130.45454788208008 L 300.14422607421875 130.45454788208008 L 300.14422607421875 77.81818389892578" fill-opacity="1" clip-path="url(#sknJGLnZAUDd)"/><path fill="rgb(169,255,0)" stroke="none" paint-order="stroke" d="M 300.1864013671875 77.81818389892578 L 300.7410533428192 77.81818389892578 L 300.7410533428192 130.45454788208008 L 300.1864013671875 130.45454788208008 L 300.1864013671875 77.81818389892578" fill-opacity="1" clip-path="url(#sknJGLnZAUDd)"/><path fill="rgb(185,255,0)" stroke="none" paint-order="stroke" d="M 300.7410583496094 77.81818389892578 L 300.76150634884834 77.81818389892578 L 300.76150634884834 130.45454788208008 L 300.7410583496094 130.45454788208008 L 300.7410583496094 77.81818389892578" fill-opacity="1" clip-path="url(#sknJGLnZAUDd)"/><path fill="rgb(201,255,0)" stroke="none" paint-order="stroke" d="M 300.7615051269531 77.81818389892578 L 300.80367912724614 77.81818389892578 L 300.80367912724614 130.45454788208008 L 300.7615051269531 130.45454788208008 L 300.7615051269531 77.81818389892578" fill-opacity="1" clip-path="url(#sknJGLnZAUDd)"/><path fill="rgb(213,255,0)" stroke="none" paint-order="stroke" d="M 300.8036804199219 77.81818389892578 L 300.8254064191133 77.81818389892578 L 300.8254064191133 130.45454788208008 L 300.8036804199219 130.45454788208008 L 300.8036804199219 77.81818389892578" fill-opacity="1" clip-path="url(#sknJGLnZAUDd)"/><path fill="rgb(228,255,0)" stroke="none" paint-order="stroke" d="M 300.8254089355469 77.81818389892578 L 302.6376129388809 77.81818389892578 L 302.6376129388809 130.45454788208008 L 300.8254089355469 130.45454788208008 L 300.8254089355469 77.81818389892578" fill-opacity="1" clip-path="url(#sknJGLnZAUDd)"/><path fill="rgb(240,255,0)" stroke="none" paint-order="stroke" d="M 302.6376037597656 77.81818389892578 L 302.65677375905216 77.81818389892578 L 302.65677375905216 130.45454788208008 L 302.6376037597656 130.45454788208008 L 302.6376037597656 77.81818389892578" fill-opacity="1" clip-path="url(#sknJGLnZAUDd)"/><path fill="rgb(255,255,0)" stroke="none" paint-order="stroke" d="M 302.65679931640625 77.81818389892578 L 302.7206993177533 77.81818389892578 L 302.7206993177533 130.45454788208008 L 302.65679931640625 130.45454788208008 L 302.65679931640625 77.81818389892578" fill-opacity="1" clip-path="url(#sknJGLnZAUDd)"/><path fill="rgb(255,239,0)" stroke="none" paint-order="stroke" d="M 302.720703125 77.81818389892578 L 302.78715912252665 77.81818389892578 L 302.78715912252665 130.45454788208008 L 302.720703125 130.45454788208008 L 302.720703125 77.81818389892578" fill-opacity="1" clip-path="url(#sknJGLnZAUDd)"/><path fill="rgb(255,226,0)" stroke="none" paint-order="stroke" d="M 302.7871398925781 77.81818389892578 L 302.91366189718246 77.81818389892578 L 302.91366189718246 130.45454788208008 L 302.7871398925781 130.45454788208008 L 302.7871398925781 77.81818389892578" fill-opacity="1" clip-path="url(#sknJGLnZAUDd)"/><path fill="rgb(255,210,0)" stroke="none" paint-order="stroke" d="M 302.9136657714844 77.81818389892578 L 303.29834377765656 77.81818389892578 L 303.29834377765656 130.45454788208008 L 302.9136657714844 130.45454788208008 L 302.9136657714844 77.81818389892578" fill-opacity="1" clip-path="url(#sknJGLnZAUDd)"/><path fill="rgb(255,226,0)" stroke="none" paint-order="stroke" d="M 303.29833984375 77.81818389892578 L 303.3609618470073 77.81818389892578 L 303.3609618470073 130.45454788208008 L 303.29833984375 130.45454788208008 L 303.29833984375 77.81818389892578" fill-opacity="1" clip-path="url(#sknJGLnZAUDd)"/><path fill="rgb(255,239,0)" stroke="none" paint-order="stroke" d="M 303.3609619140625 77.81818389892578 L 303.4031359143555 77.81818389892578 L 303.4031359143555 130.45454788208008 L 303.3609619140625 130.45454788208008 L 303.3609619140625 77.81818389892578" fill-opacity="1" clip-path="url(#sknJGLnZAUDd)"/><path fill="rgb(255,255,0)" stroke="none" paint-order="stroke" d="M 303.40313720703125 77.81818389892578 L 303.44531120732427 77.81818389892578 L 303.44531120732427 130.45454788208008 L 303.40313720703125 130.45454788208008 L 303.40313720703125 77.81818389892578" fill-opacity="1" clip-path="url(#sknJGLnZAUDd)"/><path fill="rgb(240,255,0)" stroke="none" paint-order="stroke" d="M 303.4453125 77.81818389892578 L 303.48620849847794 77.81818389892578 L 303.48620849847794 130.45454788208008 L 303.4453125 130.45454788208008 L 303.4453125 77.81818389892578" fill-opacity="1" clip-path="url(#sknJGLnZAUDd)"/><path fill="rgb(228,255,0)" stroke="none" paint-order="stroke" d="M 303.4862060546875 77.81818389892578 L 303.63828805088997 77.81818389892578 L 303.63828805088997 130.45454788208008 L 303.4862060546875 130.45454788208008 L 303.4862060546875 77.81818389892578" fill-opacity="1" clip-path="url(#sknJGLnZAUDd)"/><path fill="rgb(213,255,0)" stroke="none" paint-order="stroke" d="M 303.6383056640625 77.81818389892578 L 303.67920166254044 77.81818389892578 L 303.67920166254044 130.45454788208008 L 303.6383056640625 130.45454788208008 L 303.6383056640625 77.81818389892578" fill-opacity="1" clip-path="url(#sknJGLnZAUDd)"/><path fill="rgb(201,255,0)" stroke="none" paint-order="stroke" d="M 303.67919921875 77.81818389892578 L 303.9782512187958 77.81818389892578 L 303.9782512187958 130.45454788208008 L 303.67919921875 130.45454788208008 L 303.67919921875 77.81818389892578" fill-opacity="1" clip-path="url(#sknJGLnZAUDd)"/><path fill="rgb(213,255,0)" stroke="none" paint-order="stroke" d="M 303.9782409667969 77.81818389892578 L 304.2760149538517 77.81818389892578 L 304.2760149538517 130.45454788208008 L 303.9782409667969 130.45454788208008 L 303.9782409667969 77.81818389892578" fill-opacity="1" clip-path="url(#sknJGLnZAUDd)"/><path fill="rgb(228,255,0)" stroke="none" paint-order="stroke" d="M 304.2760009765625 77.81818389892578 L 305.17443495988846 77.81818389892578 L 305.17443495988846 130.45454788208008 L 304.2760009765625 130.45454788208008 L 304.2760009765625 77.81818389892578" fill-opacity="1" clip-path="url(#sknJGLnZAUDd)"/><path fill="rgb(251,0,7)" stroke="none" paint-order="stroke" d="M 58.5 130.4545440673828 L 305.17445373535156 130.4545440673828 L 305.17445373535156 183.0909080505371 L 58.5 183.0909080505371 L 58.5 130.4545440673828" fill-opacity="1" clip-path="url(#ZotaodKPGwCo)"/><path fill="rgb(105,29,48)" stroke="none" paint-order="stroke" d="M 201.91844177246094 183.09091186523438 L 201.982341773808 183.09091186523438 L 201.982341773808 498.9090881347656 L 201.91844177246094 498.9090881347656 L 201.91844177246094 183.09091186523438" fill-opacity="1" clip-path="url(#uKiPmORmQasR)"/><path fill="rgb(255,188,66)" stroke="none" paint-order="stroke" d="M 232.59043884277344 183.09091186523438 L 234.5496128797531 183.09091186523438 L 234.5496128797531 498.9090881347656 L 232.59043884277344 498.9090881347656 L 232.59043884277344 183.09091186523438" fill-opacity="1" clip-path="url(#zclAvshbeMih)"/><path fill="rgb(162,174,187)" stroke="none" paint-order="stroke" d="M 227.72509765625 183.09091186523438 L 227.78899765759706 183.09091186523438 L 227.78899765759706 498.9090881347656 L 227.72509765625 498.9090881347656 L 227.72509765625 183.09091186523438" fill-opacity="1" clip-path="url(#tWrkecZSgdRi)"/><path fill="rgb(216,17,89)" stroke="none" paint-order="stroke" d="M 263.50653076171875 183.09091186523438 L 263.5704307630658 183.09091186523438 L 263.5704307630658 498.9090881347656 L 263.50653076171875 498.9090881347656 L 263.50653076171875 183.09091186523438" fill-opacity="1" clip-path="url(#zNgebWngLqzN)"/><path fill="rgb(33,131,128)" stroke="none" paint-order="stroke" d="M 240.54598999023438 183.09091186523438 L 241.20415997505188 183.09091186523438 L 241.20415997505188 498.9090881347656 L 240.54598999023438 498.9090881347656 L 240.54598999023438 183.09091186523438" fill-opacity="1" clip-path="url(#HVBiJolFsKAD)"/><path fill="rgb(115,210,222)" stroke="none" paint-order="stroke" d="M 250.0709228515625 183.09091186523438 L 256.17209482192993 183.09091186523438 L 256.17209482192993 498.9090881347656 L 250.0709228515625 498.9090881347656 L 250.0709228515625 183.09091186523438" fill-opacity="1" clip-path="url(#JxSXZGvxaRSp)"/><path fill="rgb(28,49,68)" stroke="none" paint-order="stroke" d="M 237.2512969970703 183.09091186523438 L 238.47434294223785 183.09091186523438 L 238.47434294223785 498.9090881347656 L 237.2512969970703 498.9090881347656 L 237.2512969970703 183.09091186523438" fill-opacity="1" clip-path="url(#gSxmgPNTnlno)"/><path fill="rgb(239,185,203)" stroke="none" paint-order="stroke" d="M 65.49066162109375 183.09091186523438 L 198.9547576904297 183.09091186523438 L 198.9547576904297 498.9090881347656 L 65.49066162109375 498.9090881347656 L 65.49066162109375 183.09091186523438" fill-opacity="1" clip-path="url(#HdiSuJUyaKRH)"/><path fill="rgb(239,185,203)" stroke="none" paint-order="stroke" d="M 209.8024139404297 183.09091186523438 L 224.7332878112793 183.09091186523438 L 224.7332878112793 498.9090881347656 L 209.8024139404297 498.9090881347656 L 209.8024139404297 183.09091186523438" fill-opacity="1" clip-path="url(#HdiSuJUyaKRH)"/><path fill="rgb(105,29,48)" stroke="none" paint-order="stroke" d="M 264.8075256347656 183.09091186523438 L 266.9775695800781 183.09091186523438 L 266.9775695800781 498.9090881347656 L 264.8075256347656 498.9090881347656 L 264.8075256347656 183.09091186523438" fill-opacity="1" clip-path="url(#UuKlrgOUPIQq)"/><path fill="rgb(105,29,48)" stroke="none" paint-order="stroke" d="M 268.8191833496094 183.09091186523438 L 282.14361095428467 183.09091186523438 L 282.14361095428467 498.9090881347656 L 268.8191833496094 498.9090881347656 L 268.8191833496094 183.09091186523438" fill-opacity="1" clip-path="url(#UuKlrgOUPIQq)"/><path fill="rgb(105,29,48)" stroke="none" paint-order="stroke" d="M 287.0115051269531 183.09091186523438 L 305.17444038391113 183.09091186523438 L 305.17444038391113 498.9090881347656 L 287.0115051269531 498.9090881347656 L 287.0115051269531 183.09091186523438" fill-opacity="1" clip-path="url(#UuKlrgOUPIQq)"/><path fill="rgb(255,188,66)" stroke="none" paint-order="stroke" d="M 232.93167114257812 498.9090881347656 L 233.081197142601 498.9090881347656 L 233.081197142601 551.5454521179199 L 232.93167114257812 551.5454521179199 L 232.93167114257812 498.9090881347656" fill-opacity="1" clip-path="url(#rmyyKPQZDJiN)"/><path fill="rgb(255,188,66)" stroke="none" paint-order="stroke" d="M 233.89016723632812 498.9090881347656 L 305.17445373535156 498.9090881347656 L 305.17445373535156 551.5454521179199 L 233.89016723632812 551.5454521179199 L 233.89016723632812 498.9090881347656" fill-opacity="1" clip-path="url(#rmyyKPQZDJiN)"/><path fill="rgb(143,45,86)" stroke="none" paint-order="stroke" d="M 58.5 551.5454711914062 L 201.91844177246094 551.5454711914062 L 201.91844177246094 604.1818351745605 L 58.5 604.1818351745605 L 58.5 551.5454711914062" fill-opacity="1" clip-path="url(#SQBlIpGGthcn)"/><path fill="rgb(63,136,197)" stroke="none" paint-order="stroke" d="M 201.91844177246094 551.5454711914062 L 227.72509574890137 551.5454711914062 L 227.72509574890137 604.1818351745605 L 201.91844177246094 604.1818351745605 L 201.91844177246094 551.5454711914062" fill-opacity="1" clip-path="url(#SQBlIpGGthcn)"/><path fill="rgb(81,60,99)" stroke="none" paint-order="stroke" d="M 227.72509765625 551.5454711914062 L 305.17445373535156 551.5454711914062 L 305.17445373535156 604.1818351745605 L 227.72509765625 604.1818351745605 L 227.72509765625 551.5454711914062" fill-opacity="1" clip-path="url(#SQBlIpGGthcn)"/><path fill="none" stroke="rgb(0,0,0)" paint-order="fill" d="M 58.5 77.81818389892578 L 305.17445373535156 77.81818389892578 L 305.17445373535156 604.1818313598633 L 58.5 604.1818313598633 L 58.5 77.81818389892578" stroke-opacity="1" stroke-linejoin="bevel" stroke-miterlimit="10" stroke-dasharray="" clip-path="url(#McmTZwWJOQsy)"/><path fill="none" stroke="rgb(0,0,0)" paint-order="fill" d="M 58.5 630.5 L 1336.5 630.5" stroke-opacity="1" stroke-linejoin="bevel" stroke-miterlimit="10" stroke-dasharray=""/><path fill="none" stroke="rgb(0,0,0)" paint-order="fill" d="M 58.5 636.5 L 58.5 628.5 M 314.5 636.5 L 314.5 628.5 M 569.5 636.5 L 569.5 628.5 M 825.5 636.5 L 825.5 628.5 M 1080.5 636.5 L 1080.5 628.5 M 1336.5 636.5 L 1336.5 628.5" stroke-opacity="1" stroke-linejoin="bevel" stroke-miterlimit="10" stroke-dasharray=""/><path fill="none" stroke="rgb(0,0,0)" paint-order="fill" d="M 58.5 634.5 L 58.5 630.5 M 109.5 634.5 L 109.5 630.5 M 160.5 634.5 L 160.5 630.5 M 211.5 634.5 L 211.5 630.5 M 262.5 634.5 L 262.5 630.5 M 314.5 634.5 L 314.5 630.5 M 365.5 634.5 L 365.5 630.5 M 416.5 634.5 L 416.5 630.5 M 467.5 634.5 L 467.5 630.5 M 518.5 634.5 L 518.5 630.5 M 569.5 634.5 L 569.5 630.5 M 620.5 634.5 L 620.5 630.5 M 671.5 634.5 L 671.5 630.5 M 723.5 634.5 L 723.5 630.5 M 774.5 634.5 L 774.5 630.5 M 825.5 634.5 L 825.5 630.5 M 876.5 634.5 L 876.5 630.5 M 927.5 634.5 L 927.5 630.5 M 978.5 634.5 L 978.5 630.5 M 1029.5 634.5 L 1029.5 630.5 M 1080.5 634.5 L 1080.5 630.5 M 1132.5 634.5 L 1132.5 630.5 M 1183.5 634.5 L 1183.5 630.5 M 1234.5 634.5 L 1234.5 630.5 M 1285.5 634.5 L 1285.5 630.5 M 1336.5 634.5 L 1336.5 630.5" stroke-opacity="1" stroke-linejoin="bevel" stroke-miterlimit="10" stroke-dasharray=""/><text fill="rgb(68,68,68)" stroke="none" font-family="helvetica" font-size="11px" font-style="normal" font-weight="normal" text-decoration="normal" x="54.94166660308838" y="648.89013671875" text-anchor="start" dominant-baseline="alphabetic" transform="matrix(1, 0, 0, 1, 0.5, 0.5)" fill-opacity="1">0</text><text fill="rgb(68,68,68)" stroke="none" font-family="helvetica" font-size="11px" font-style="normal" font-weight="normal" text-decoration="normal" x="304.42500591278076" y="648.89013671875" text-anchor="start" dominant-baseline="alphabetic" transform="matrix(1, 0, 0, 1, 0.5, 0.5)" fill-opacity="1">200</text><text fill="rgb(68,68,68)" stroke="none" font-family="helvetica" font-size="11px" font-style="normal" font-weight="normal" text-decoration="normal" x="560.0250120162964" y="648.89013671875" text-anchor="start" dominant-baseline="alphabetic" transform="matrix(1, 0, 0, 1, 0.5, 0.5)" fill-opacity="1">400</text><text fill="rgb(68,68,68)" stroke="none" font-family="helvetica" font-size="11px" font-style="normal" font-weight="normal" text-decoration="normal" x="815.6249876022339" y="648.89013671875" text-anchor="start" dominant-baseline="alphabetic" transform="matrix(1, 0, 0, 1, 0.5, 0.5)" fill-opacity="1">600</text><text fill="rgb(68,68,68)" stroke="none" font-family="helvetica" font-size="11px" font-style="normal" font-weight="normal" text-decoration="normal" x="1071.2250242233276" y="648.89013671875" text-anchor="start" dominant-baseline="alphabetic" transform="matrix(1, 0, 0, 1, 0.5, 0.5)" fill-opacity="1">800</text><text fill="rgb(68,68,68)" stroke="none" font-family="helvetica" font-size="11px" font-style="normal" font-weight="normal" text-decoration="normal" x="1323.7666664123535" y="648.89013671875" text-anchor="start" dominant-baseline="alphabetic" transform="matrix(1, 0, 0, 1, 0.5, 0.5)" fill-opacity="1">1000</text><text fill="rgb(68,68,68)" stroke="none" font-family="helvetica" font-size="15pt" font-style="italic" font-weight="normal" text-decoration="normal" x="666.4416675567627" y="676.06982421875" text-anchor="start" dominant-baseline="alphabetic" transform="matrix(1, 0, 0, 1, 0.5, 0.5)" fill-opacity="1">time(s)</text><path fill="none" stroke="rgb(0,0,0)" paint-order="fill" d="M 58.5 630.5 L 58.5 51.5" stroke-opacity="1" stroke-linejoin="bevel" stroke-miterlimit="10" stroke-dasharray=""/><path fill="none" stroke="rgb(0,0,0)" paint-order="fill" d="M 52.5 551.5 L 60.5 551.5 M 52.5 446.5 L 60.5 446.5 M 52.5 341.5 L 60.5 341.5 M 52.5 235.5 L 60.5 235.5 M 52.5 130.5 L 60.5 130.5" stroke-opacity="1" stroke-linejoin="bevel" stroke-miterlimit="10" stroke-dasharray=""/><path fill="none" stroke="rgb(0,0,0)" paint-order="fill" d="M 54.5 572.5 L 58.5 572.5 M 54.5 593.5 L 58.5 593.5 M 54.5 614.5 L 58.5 614.5 M 54.5 551.5 L 58.5 551.5 M 54.5 530.5 L 58.5 530.5 M 54.5 509.5 L 58.5 509.5 M 54.5 488.5 L 58.5 488.5 M 54.5 467.5 L 58.5 467.5 M 54.5 446.5 L 58.5 446.5 M 54.5 425.5 L 58.5 425.5 M 54.5 404.5 L 58.5 404.5 M 54.5 383.5 L 58.5 383.5 M 54.5 362.5 L 58.5 362.5 M 54.5 341.5 L 58.5 341.5 M 54.5 319.5 L 58.5 319.5 M 54.5 298.5 L 58.5 298.5 M 54.5 277.5 L 58.5 277.5 M 54.5 256.5 L 58.5 256.5 M 54.5 235.5 L 58.5 235.5 M 54.5 214.5 L 58.5 214.5 M 54.5 193.5 L 58.5 193.5 M 54.5 172.5 L 58.5 172.5 M 54.5 151.5 L 58.5 151.5 M 54.5 130.5 L 58.5 130.5 M 54.5 109.5 L 58.5 109.5 M 54.5 88.5 L 58.5 88.5 M 54.5 67.5 L 58.5 67.5" stroke-opacity="1" stroke-linejoin="bevel" stroke-miterlimit="10" stroke-dasharray=""/><text fill="rgb(68,68,68)" stroke="none" font-family="helvetica" font-size="11px" font-style="normal" font-weight="normal" text-decoration="normal" x="34.46666622161865" y="554.9905395507812" text-anchor="start" dominant-baseline="alphabetic" transform="matrix(1, 0, 0, 1, 0.5, 0.5)" fill-opacity="1">2</text><text fill="rgb(68,68,68)" stroke="none" font-family="helvetica" font-size="11px" font-style="normal" font-weight="normal" text-decoration="normal" x="34.46666622161865" y="449.7178039550781" text-anchor="start" dominant-baseline="alphabetic" transform="matrix(1, 0, 0, 1, 0.5, 0.5)" fill-opacity="1">1</text><text fill="rgb(68,68,68)" stroke="none" font-family="helvetica" font-size="11px" font-style="normal" font-weight="normal" text-decoration="normal" x="40.88333320617676" y="344.445068359375" text-anchor="start" dominant-baseline="alphabetic" transform="matrix(1, 0, 0, 1, 0.5, 0.5)" fill-opacity="1">0</text><text fill="rgb(68,68,68)" stroke="none" font-family="helvetica" font-size="11px" font-style="normal" font-weight="normal" text-decoration="normal" x="40.88333320617676" y="239.17234802246094" text-anchor="start" dominant-baseline="alphabetic" transform="matrix(1, 0, 0, 1, 0.5, 0.5)" fill-opacity="1">1</text><text fill="rgb(68,68,68)" stroke="none" font-family="helvetica" font-size="11px" font-style="normal" font-weight="normal" text-decoration="normal" x="40.88333320617676" y="133.8996124267578" text-anchor="start" dominant-baseline="alphabetic" transform="matrix(1, 0, 0, 1, 0.5, 0.5)" fill-opacity="1">2</text><text fill="rgb(68,68,68)" stroke="none" font-family="helvetica" font-size="15pt" font-style="italic" font-weight="normal" text-decoration="normal" x="-11.316666603088379" y="336.076171875" text-anchor="start" dominant-baseline="alphabetic" transform="matrix(6.123233995736766e-17, -1, 1, 6.123233995736766e-17, -313.53333377838135, 367.46666622161865)" fill-opacity="1">students</text><path fill="rgb(255,255,255)" stroke="rgb(229,229,229)" paint-order="fill" d="M 1128.2333374023438 61.5 L 1326.5 61.5 L 1326.5 400.5 L 1128.2333374023438 400.5 L 1128.2333374023438 61.5" fill-opacity="0.9490196078431372" clip-path="url(#TLgPQzRTrwbT)" stroke-opacity="0.5019607843137255" stroke-linejoin="bevel" stroke-miterlimit="10" stroke-dasharray=""/><text fill="rgb(68,68,68)" stroke="none" font-family="helvetica" font-size="13px" font-style="normal" font-weight="normal" text-decoration="normal" x="1162.7333374023438" y="81" text-anchor="start" dominant-baseline="central" clip-path="url(#TLgPQzRTrwbT)" transform="matrix(1, 0, 0, 1, 0.5, 0.5)" fill-opacity="1">wavelength</text><path fill="rgb(0,255,40)" stroke="none" paint-order="stroke" d="M 1140.2333374023438 73.5 L 1156.2333374023438 73.5 L 1156.2333374023438 89.5 L 1140.2333374023438 89.5 L 1140.2333374023438 73.5" fill-opacity="1" clip-path="url(#TLgPQzRTrwbT)"/><path fill="rgb(216,17,89)" stroke="none" paint-order="stroke" d="M 1140.2333374023438 73.5 L 1156.2333374023438 73.5 L 1156.2333374023438 89.5 L 1140.2333374023438 89.5 L 1140.2333374023438 73.5" fill-opacity="1" clip-path="url(#TLgPQzRTrwbT)"/><text fill="rgb(68,68,68)" stroke="none" font-family="helvetica" font-size="13px" font-style="normal" font-weight="normal" text-decoration="normal" x="1162.7333374023438" y="104" text-anchor="start" dominant-baseline="central" clip-path="url(#TLgPQzRTrwbT)" transform="matrix(1, 0, 0, 1, 0.5, 0.5)" fill-opacity="1">solution</text><path fill="rgb(251,0,7)" stroke="none" paint-order="stroke" d="M 1140.2333374023438 96.5 L 1156.2333374023438 96.5 L 1156.2333374023438 112.5 L 1140.2333374023438 112.5 L 1140.2333374023438 96.5" fill-opacity="1" clip-path="url(#TLgPQzRTrwbT)"/><path fill="rgb(33,131,128)" stroke="none" paint-order="stroke" d="M 1140.2333374023438 96.5 L 1156.2333374023438 96.5 L 1156.2333374023438 112.5 L 1140.2333374023438 112.5 L 1140.2333374023438 96.5" fill-opacity="1" clip-path="url(#TLgPQzRTrwbT)"/><text fill="rgb(68,68,68)" stroke="none" font-family="helvetica" font-size="13px" font-style="normal" font-weight="normal" text-decoration="normal" x="1162.7333374023438" y="127" text-anchor="start" dominant-baseline="central" clip-path="url(#TLgPQzRTrwbT)" transform="matrix(1, 0, 0, 1, 0.5, 0.5)" fill-opacity="1">laser</text><path fill="rgb(105,29,48)" stroke="none" paint-order="stroke" d="M 1140.2333374023438 119.5 L 1156.2333374023438 119.5 L 1156.2333374023438 135.5 L 1140.2333374023438 135.5 L 1140.2333374023438 119.5" fill-opacity="1" clip-path="url(#TLgPQzRTrwbT)"/><text fill="rgb(68,68,68)" stroke="none" font-family="helvetica" font-size="13px" font-style="normal" font-weight="normal" text-decoration="normal" x="1162.7333374023438" y="150" text-anchor="start" dominant-baseline="central" clip-path="url(#TLgPQzRTrwbT)" transform="matrix(1, 0, 0, 1, 0.5, 0.5)" fill-opacity="1">ruler</text><path fill="rgb(255,188,66)" stroke="none" paint-order="stroke" d="M 1140.2333374023438 142.5 L 1156.2333374023438 142.5 L 1156.2333374023438 158.5 L 1140.2333374023438 158.5 L 1140.2333374023438 142.5" fill-opacity="1" clip-path="url(#TLgPQzRTrwbT)"/><text fill="rgb(68,68,68)" stroke="none" font-family="helvetica" font-size="13px" font-style="normal" font-weight="normal" text-decoration="normal" x="1162.7333374023438" y="173" text-anchor="start" dominant-baseline="central" clip-path="url(#TLgPQzRTrwbT)" transform="matrix(1, 0, 0, 1, 0.5, 0.5)" fill-opacity="1">restarts</text><text fill="rgb(68,68,68)" stroke="none" font-family="helvetica" font-size="13px" font-style="normal" font-weight="normal" text-decoration="normal" x="1162.7333374023438" y="196" text-anchor="start" dominant-baseline="central" clip-path="url(#TLgPQzRTrwbT)" transform="matrix(1, 0, 0, 1, 0.5, 0.5)" fill-opacity="1">transmittance_absorbance</text><path fill="rgb(162,174,187)" stroke="none" paint-order="stroke" d="M 1140.2333374023438 188.5 L 1156.2333374023438 188.5 L 1156.2333374023438 204.5 L 1140.2333374023438 204.5 L 1140.2333374023438 188.5" fill-opacity="1" clip-path="url(#TLgPQzRTrwbT)"/><text fill="rgb(68,68,68)" stroke="none" font-family="helvetica" font-size="13px" font-style="normal" font-weight="normal" text-decoration="normal" x="1162.7333374023438" y="219" text-anchor="start" dominant-baseline="central" clip-path="url(#TLgPQzRTrwbT)" transform="matrix(1, 0, 0, 1, 0.5, 0.5)" fill-opacity="1">magnifier</text><text fill="rgb(68,68,68)" stroke="none" font-family="helvetica" font-size="13px" font-style="normal" font-weight="normal" text-decoration="normal" x="1162.7333374023438" y="242" text-anchor="start" dominant-baseline="central" clip-path="url(#TLgPQzRTrwbT)" transform="matrix(1, 0, 0, 1, 0.5, 0.5)" fill-opacity="1">concentration</text><path fill="rgb(115,210,222)" stroke="none" paint-order="stroke" d="M 1140.2333374023438 234.5 L 1156.2333374023438 234.5 L 1156.2333374023438 250.5 L 1140.2333374023438 250.5 L 1140.2333374023438 234.5" fill-opacity="1" clip-path="url(#TLgPQzRTrwbT)"/><text fill="rgb(68,68,68)" stroke="none" font-family="helvetica" font-size="13px" font-style="normal" font-weight="normal" text-decoration="normal" x="1162.7333374023438" y="265" text-anchor="start" dominant-baseline="central" clip-path="url(#TLgPQzRTrwbT)" transform="matrix(1, 0, 0, 1, 0.5, 0.5)" fill-opacity="1">flask</text><path fill="rgb(28,49,68)" stroke="none" paint-order="stroke" d="M 1140.2333374023438 257.5 L 1156.2333374023438 257.5 L 1156.2333374023438 273.5 L 1140.2333374023438 273.5 L 1140.2333374023438 257.5" fill-opacity="1" clip-path="url(#TLgPQzRTrwbT)"/><text fill="rgb(68,68,68)" stroke="none" font-family="helvetica" font-size="13px" font-style="normal" font-weight="normal" text-decoration="normal" x="1162.7333374023438" y="288" text-anchor="start" dominant-baseline="central" clip-path="url(#TLgPQzRTrwbT)" transform="matrix(1, 0, 0, 1, 0.5, 0.5)" fill-opacity="1">pdf</text><path fill="rgb(239,185,203)" stroke="none" paint-order="stroke" d="M 1140.2333374023438 280.5 L 1156.2333374023438 280.5 L 1156.2333374023438 296.5 L 1140.2333374023438 296.5 L 1140.2333374023438 280.5" fill-opacity="1" clip-path="url(#TLgPQzRTrwbT)"/><text fill="rgb(68,68,68)" stroke="none" font-family="helvetica" font-size="13px" font-style="normal" font-weight="normal" text-decoration="normal" x="1162.7333374023438" y="311" text-anchor="start" dominant-baseline="central" clip-path="url(#TLgPQzRTrwbT)" transform="matrix(1, 0, 0, 1, 0.5, 0.5)" fill-opacity="1">concentrationlab</text><text fill="rgb(68,68,68)" stroke="none" font-family="helvetica" font-size="13px" font-style="normal" font-weight="normal" text-decoration="normal" x="1162.7333374023438" y="334" text-anchor="start" dominant-baseline="central" clip-path="url(#TLgPQzRTrwbT)" transform="matrix(1, 0, 0, 1, 0.5, 0.5)" fill-opacity="1">wavelength_slider</text><path fill="rgb(105,29,48)" stroke="none" paint-order="stroke" d="M 1140.2333374023438 326.5 L 1156.2333374023438 326.5 L 1156.2333374023438 342.5 L 1140.2333374023438 342.5 L 1140.2333374023438 326.5" fill-opacity="1" clip-path="url(#TLgPQzRTrwbT)"/><text fill="rgb(68,68,68)" stroke="none" font-family="helvetica" font-size="13px" font-style="normal" font-weight="normal" text-decoration="normal" x="1162.7333374023438" y="357" text-anchor="start" dominant-baseline="central" clip-path="url(#TLgPQzRTrwbT)" transform="matrix(1, 0, 0, 1, 0.5, 0.5)" fill-opacity="1">ruler measuring</text><path fill="rgb(255,188,66)" stroke="none" paint-order="stroke" d="M 1140.2333374023438 349.5 L 1156.2333374023438 349.5 L 1156.2333374023438 365.5 L 1140.2333374023438 365.5 L 1140.2333374023438 349.5" fill-opacity="1" clip-path="url(#TLgPQzRTrwbT)"/><text fill="rgb(68,68,68)" stroke="none" font-family="helvetica" font-size="13px" font-style="normal" font-weight="normal" text-decoration="normal" x="1162.7333374023438" y="380" text-anchor="start" dominant-baseline="central" clip-path="url(#TLgPQzRTrwbT)" transform="matrix(1, 0, 0, 1, 0.5, 0.5)" fill-opacity="1">dependent variable</text><path fill="rgb(143,45,86)" stroke="none" paint-order="stroke" d="M 1140.2333374023438 372.5 L 1156.2333374023438 372.5 L 1156.2333374023438 388.5 L 1140.2333374023438 388.5 L 1140.2333374023438 372.5" fill-opacity="1" clip-path="url(#TLgPQzRTrwbT)"/><text fill="rgb(68,68,68)" stroke="none" font-family="helvetica" font-size="25pt" font-style="normal" font-weight="bold" text-decoration="normal" x="58" y="38.740885416666664" text-anchor="start" dominant-baseline="alphabetic" transform="matrix(1, 0, 0, 1, 0.5, 0.5)" fill-opacity="1">Timeline for student jx3yyy26 with permutation 3120 for task 3</text></svg>