<svg version="1.1" xmlns="http://www.w3.org/2000/svg" width="1366" height="683"><defs><clipPath id="itaHkegqMzHx"><path fill="none" stroke="none" d="M 58.5 51.5 L 1336.5 51.5 L 1336.5 630.5 L 58.5 630.5 L 58.5 51.5"/></clipPath><clipPath id="XCgQLnFvgthh"><path fill="none" stroke="none" d="M 58.5 51.5 L 1336.5 51.5 L 1336.5 630.5 L 58.5 630.5 L 58.5 51.5"/></clipPath><clipPath id="vLLrzBVCdiri"><path fill="none" stroke="none" d="M 58.5 51.5 L 1336.5 51.5 L 1336.5 630.5 L 58.5 630.5 L 58.5 51.5"/></clipPath><clipPath id="xggmcwMgUFQc"><path fill="none" stroke="none" d="M 58.5 51.5 L 1336.5 51.5 L 1336.5 630.5 L 58.5 630.5 L 58.5 51.5"/></clipPath><clipPath id="aVUrUrcOKTSu"><path fill="none" stroke="none" d="M 58.5 51.5 L 1336.5 51.5 L 1336.5 630.5 L 58.5 630.5 L 58.5 51.5"/></clipPath><clipPath id="vGFnzmBgyZLS"><path fill="none" stroke="none" d="M 58.5 51.5 L 1336.5 51.5 L 1336.5 630.5 L 58.5 630.5 L 58.5 51.5"/></clipPath><clipPath id="gWbsRUSKcWUE"><path fill="none" stroke="none" d="M 58.5 51.5 L 1336.5 51.5 L 1336.5 630.5 L 58.5 630.5 L 58.5 51.5"/></clipPath><clipPath id="UdRWJIiMNqDO"><path fill="none" stroke="none" d="M 58.5 51.5 L 1336.5 51.5 L 1336.5 630.5 L 58.5 630.5 L 58.5 51.5"/></clipPath><clipPath id="bcwJalUUSFzN"><path fill="none" stroke="none" d="M 58.5 51.5 L 1336.5 51.5 L 1336.5 630.5 L 58.5 630.5 L 58.5 51.5"/></clipPath><clipPath id="pkkheDuvvDvW"><path fill="none" stroke="none" d="M 58.5 51.5 L 1336.5 51.5 L 1336.5 630.5 L 58.5 630.5 L 58.5 51.5"/></clipPath><clipPath id="GGNgMIdBFXkm"><path fill="none" stroke="none" d="M 58.5 51.5 L 1336.5 51.5 L 1336.5 630.5 L 58.5 630.5 L 58.5 51.5"/></clipPath><clipPath id="bFIuGUMKXkfT"><path fill="none" stroke="none" d="M 58.5 51.5 L 1336.5 51.5 L 1336.5 630.5 L 58.5 630.5 L 58.5 51.5"/></clipPath><clipPath id="hltIyJSRpToy"><path fill="none" stroke="none" d="M 58.5 51.5 L 1336.5 51.5 L 1336.5 630.5 L 58.5 630.5 L 58.5 51.5"/></clipPath><clipPath id="naLdPgHTXiaz"><path fill="none" stroke="none" d="M 58.5 51.5 L 1336.5 51.5 L 1336.5 630.5 L 58.5 630.5 L 58.5 51.5"/></clipPath><clipPath id="vOaDDHVqCKyv"><path fill="none" stroke="none" d="M 58.5 51.5 L 1336.5 51.5 L 1336.5 630.5 L 58.5 630.5 L 58.5 51.5"/></clipPath><clipPath id="uwXTDFkTMnMl"><path fill="none" stroke="none" d="M 58.5 51.5 L 1336.5 51.5 L 1336.5 630.5 L 58.5 630.5 L 58.5 51.5"/></clipPath><clipPath id="LCxVMbbgJzsP"><path fill="none" stroke="none" d="M 58.5 51.5 L 1336.5 51.5 L 1336.5 630.5 L 58.5 630.5 L 58.5 51.5"/></clipPath><clipPath id="oKWbUvbhRNJL"><path fill="none" stroke="none" d="M 58.5 51.5 L 1336.5 51.5 L 1336.5 630.5 L 58.5 630.5 L 58.5 51.5"/></clipPath><clipPath id="ceHvgBSNSTPR"><path fill="none" stroke="none" d="M 58.5 51.5 L 1336.5 51.5 L 1336.5 630.5 L 58.5 630.5 L 58.5 51.5"/></clipPath><clipPath id="uBqTVEgkiHmO"><path fill="none" stroke="none" d="M 58.5 51.5 L 1336.5 51.5 L 1336.5 630.5 L 58.5 630.5 L 58.5 51.5"/></clipPath><clipPath id="wOSWBdyKpZaM"><path fill="none" stroke="none" d="M 58.5 51.5 L 1336.5 51.5 L 1336.5 630.5 L 58.5 630.5 L 58.5 51.5"/></clipPath></defs><path fill="rgb(255,255,255)" stroke="none" paint-order="stroke" d="M 0.5 0.5 L 1366.5 0.5 L 1366.5 683.5 L 0.5 683.5 L 0.5 0.5" fill-opacity="1"/><rect fill="#FFFFFF" stroke="none" x="58" y="51" width="1278" height="579" transform="matrix(1, 0, 0, 1, 0.5, 0.5)"/><path fill="rgb(255,255,255)" stroke="none" paint-order="stroke" d="M 58.5 51.5 L 1336.5 51.5 L 1336.5 630.5 L 58.5 630.5 L 58.5 51.5" fill-opacity="1"/><path fill="none" stroke="rgb(229,229,229)" paint-order="fill" d="M 58.5 51.5 L 1336.5 51.5 L 1336.5 630.5 L 58.5 630.5 L 58.5 51.5" stroke-opacity="1" stroke-linejoin="bevel" stroke-miterlimit="10" stroke-dasharray=""/><path fill="none" stroke="rgb(229,229,229)" paint-order="fill" d="M 314.5 630.5 L 314.5 51.5 M 569.5 630.5 L 569.5 51.5 M 825.5 630.5 L 825.5 51.5 M 1080.5 630.5 L 1080.5 51.5" stroke-opacity="1" stroke-linejoin="bevel" stroke-miterlimit="10" stroke-dasharray="" clip-path="url(#itaHkegqMzHx)"/><path fill="none" stroke="rgb(229,229,229)" paint-order="fill" d="M 58.5 551.5 L 1336.5 551.5 M 58.5 446.5 L 1336.5 446.5 M 58.5 341.5 L 1336.5 341.5 M 58.5 235.5 L 1336.5 235.5 M 58.5 130.5 L 1336.5 130.5" stroke-opacity="1" stroke-linejoin="bevel" stroke-miterlimit="10" stroke-dasharray="" clip-path="url(#XCgQLnFvgthh)"/><path fill="rgb(0,255,40)" stroke="none" paint-order="stroke" d="M 58.5 77.81818389892578 L 94.16642379760742 77.81818389892578 L 94.16642379760742 130.45454788208008 L 58.5 130.45454788208008 L 58.5 77.81818389892578" fill-opacity="1" clip-path="url(#vLLrzBVCdiri)"/><path fill="rgb(143,255,0)" stroke="none" paint-order="stroke" d="M 94.16642761230469 77.81818389892578 L 146.4979705810547 77.81818389892578 L 146.4979705810547 130.45454788208008 L 94.16642761230469 130.45454788208008 L 94.16642761230469 77.81818389892578" fill-opacity="1" clip-path="url(#vLLrzBVCdiri)"/><path fill="rgb(126,255,0)" stroke="none" paint-order="stroke" d="M 146.4979705810547 77.81818389892578 L 146.51841858029366 77.81818389892578 L 146.51841858029366 130.45454788208008 L 146.4979705810547 130.45454788208008 L 146.4979705810547 77.81818389892578" fill-opacity="1" clip-path="url(#vLLrzBVCdiri)"/><path fill="rgb(86,255,0)" stroke="none" paint-order="stroke" d="M 146.51841735839844 77.81818389892578 L 146.5388653576374 77.81818389892578 L 146.5388653576374 130.45454788208008 L 146.51841735839844 130.45454788208008 L 146.51841735839844 77.81818389892578" fill-opacity="1" clip-path="url(#vLLrzBVCdiri)"/><path fill="rgb(0,255,84)" stroke="none" paint-order="stroke" d="M 146.5388641357422 77.81818389892578 L 146.5605901349336 77.81818389892578 L 146.5605901349336 130.45454788208008 L 146.5388641357422 130.45454788208008 L 146.5388641357422 77.81818389892578" fill-opacity="1" clip-path="url(#vLLrzBVCdiri)"/><path fill="rgb(0,246,255)" stroke="none" paint-order="stroke" d="M 146.5605926513672 77.81818389892578 L 146.5823186505586 77.81818389892578 L 146.5823186505586 130.45454788208008 L 146.5605926513672 130.45454788208008 L 146.5605926513672 77.81818389892578" fill-opacity="1" clip-path="url(#vLLrzBVCdiri)"/><path fill="rgb(0,160,255)" stroke="none" paint-order="stroke" d="M 146.5823211669922 77.81818389892578 L 146.6040471661836 77.81818389892578 L 146.6040471661836 130.45454788208008 L 146.5823211669922 130.45454788208008 L 146.5823211669922 77.81818389892578" fill-opacity="1" clip-path="url(#vLLrzBVCdiri)"/><path fill="rgb(0,40,255)" stroke="none" paint-order="stroke" d="M 146.60403442382812 77.81818389892578 L 146.6244824230671 77.81818389892578 L 146.6244824230671 130.45454788208008 L 146.60403442382812 130.45454788208008 L 146.60403442382812 77.81818389892578" fill-opacity="1" clip-path="url(#vLLrzBVCdiri)"/><path fill="rgb(92,0,198)" stroke="none" paint-order="stroke" d="M 146.62449645996094 77.81818389892578 L 146.64622245915234 77.81818389892578 L 146.64622245915234 130.45454788208008 L 146.62449645996094 130.45454788208008 L 146.62449645996094 77.81818389892578" fill-opacity="1" clip-path="url(#vLLrzBVCdiri)"/><path fill="rgb(107,0,120)" stroke="none" paint-order="stroke" d="M 146.64620971679688 77.81818389892578 L 146.66665771603584 77.81818389892578 L 146.66665771603584 130.45454788208008 L 146.64620971679688 130.45454788208008 L 146.64620971679688 77.81818389892578" fill-opacity="1" clip-path="url(#vLLrzBVCdiri)"/><path fill="rgb(97,0,97)" stroke="none" paint-order="stroke" d="M 146.66665649414062 77.81818389892578 L 147.94210052490234 77.81818389892578 L 147.94210052490234 130.45454788208008 L 146.66665649414062 130.45454788208008 L 146.66665649414062 77.81818389892578" fill-opacity="1" clip-path="url(#vLLrzBVCdiri)"/><path fill="rgb(100,0,103)" stroke="none" paint-order="stroke" d="M 147.94210815429688 77.81818389892578 L 148.09035615622997 77.81818389892578 L 148.09035615622997 130.45454788208008 L 147.94210815429688 130.45454788208008 L 147.94210815429688 77.81818389892578" fill-opacity="1" clip-path="url(#vLLrzBVCdiri)"/><path fill="rgb(104,0,112)" stroke="none" paint-order="stroke" d="M 148.09036254882812 77.81818389892578 L 148.239888548851 77.81818389892578 L 148.239888548851 130.45454788208008 L 148.09036254882812 130.45454788208008 L 148.09036254882812 77.81818389892578" fill-opacity="1" clip-path="url(#vLLrzBVCdiri)"/><path fill="rgb(107,0,120)" stroke="none" paint-order="stroke" d="M 148.23988342285156 77.81818389892578 L 148.26160942204297 77.81818389892578 L 148.26160942204297 130.45454788208008 L 148.23988342285156 130.45454788208008 L 148.23988342285156 77.81818389892578" fill-opacity="1" clip-path="url(#vLLrzBVCdiri)"/><path fill="rgb(111,0,137)" stroke="none" paint-order="stroke" d="M 148.26161193847656 77.81818389892578 L 148.28205993771553 77.81818389892578 L 148.28205993771553 130.45454788208008 L 148.26161193847656 130.45454788208008 L 148.26161193847656 77.81818389892578" fill-opacity="1" clip-path="url(#vLLrzBVCdiri)"/><path fill="rgb(111,0,151)" stroke="none" paint-order="stroke" d="M 148.2820587158203 77.81818389892578 L 148.30378471501172 77.81818389892578 L 148.30378471501172 130.45454788208008 L 148.2820587158203 130.45454788208008 L 148.2820587158203 77.81818389892578" fill-opacity="1" clip-path="url(#vLLrzBVCdiri)"/><path fill="rgb(108,0,167)" stroke="none" paint-order="stroke" d="M 148.3037872314453 77.81818389892578 L 148.34596123173833 77.81818389892578 L 148.34596123173833 130.45454788208008 L 148.3037872314453 130.45454788208008 L 148.3037872314453 77.81818389892578" fill-opacity="1" clip-path="url(#vLLrzBVCdiri)"/><path fill="rgb(106,0,175)" stroke="none" paint-order="stroke" d="M 148.34596252441406 77.81818389892578 L 149.1114845275879 77.81818389892578 L 149.1114845275879 130.45454788208008 L 148.34596252441406 130.45454788208008 L 148.34596252441406 77.81818389892578" fill-opacity="1" clip-path="url(#vLLrzBVCdiri)"/><path fill="rgb(97,0,190)" stroke="none" paint-order="stroke" d="M 149.11148071289062 77.81818389892578 L 149.1319287121296 77.81818389892578 L 149.1319287121296 130.45454788208008 L 149.11148071289062 130.45454788208008 L 149.11148071289062 77.81818389892578" fill-opacity="1" clip-path="url(#vLLrzBVCdiri)"/><path fill="rgb(92,0,198)" stroke="none" paint-order="stroke" d="M 149.13192749023438 77.81818389892578 L 149.1741014905274 77.81818389892578 L 149.1741014905274 130.45454788208008 L 149.13192749023438 130.45454788208008 L 149.13192749023438 77.81818389892578" fill-opacity="1" clip-path="url(#vLLrzBVCdiri)"/><path fill="rgb(87,0,203)" stroke="none" paint-order="stroke" d="M 149.17410278320312 77.81818389892578 L 149.76965075731277 77.81818389892578 L 149.76965075731277 130.45454788208008 L 149.17410278320312 130.45454788208008 L 149.17410278320312 77.81818389892578" fill-opacity="1" clip-path="url(#vLLrzBVCdiri)"/><path fill="rgb(92,0,198)" stroke="none" paint-order="stroke" d="M 149.7696533203125 77.81818389892578 L 149.79010131955147 77.81818389892578 L 149.79010131955147 130.45454788208008 L 149.7696533203125 130.45454788208008 L 149.7696533203125 77.81818389892578" fill-opacity="1" clip-path="url(#vLLrzBVCdiri)"/><path fill="rgb(97,0,190)" stroke="none" paint-order="stroke" d="M 149.79010009765625 77.81818389892578 L 149.81182609684765 77.81818389892578 L 149.81182609684765 130.45454788208008 L 149.79010009765625 130.45454788208008 L 149.79010009765625 77.81818389892578" fill-opacity="1" clip-path="url(#vLLrzBVCdiri)"/><path fill="rgb(102,0,183)" stroke="none" paint-order="stroke" d="M 149.81182861328125 77.81818389892578 L 149.83227661252022 77.81818389892578 L 149.83227661252022 130.45454788208008 L 149.81182861328125 130.45454788208008 L 149.81182861328125 77.81818389892578" fill-opacity="1" clip-path="url(#vLLrzBVCdiri)"/><path fill="rgb(106,0,175)" stroke="none" paint-order="stroke" d="M 149.832275390625 77.81818389892578 L 149.8757273890078 77.81818389892578 L 149.8757273890078 130.45454788208008 L 149.832275390625 130.45454788208008 L 149.832275390625 77.81818389892578" fill-opacity="1" clip-path="url(#vLLrzBVCdiri)"/><path fill="rgb(108,0,167)" stroke="none" paint-order="stroke" d="M 149.87571716308594 77.81818389892578 L 149.9383391663432 77.81818389892578 L 149.9383391663432 130.45454788208008 L 149.87571716308594 130.45454788208008 L 149.87571716308594 77.81818389892578" fill-opacity="1" clip-path="url(#vLLrzBVCdiri)"/><path fill="rgb(110,0,159)" stroke="none" paint-order="stroke" d="M 149.93833923339844 77.81818389892578 L 149.98179123178124 77.81818389892578 L 149.98179123178124 130.45454788208008 L 149.93833923339844 130.45454788208008 L 149.93833923339844 77.81818389892578" fill-opacity="1" clip-path="url(#vLLrzBVCdiri)"/><path fill="rgb(111,0,151)" stroke="none" paint-order="stroke" d="M 149.98179626464844 77.81818389892578 L 171.15314483642578 77.81818389892578 L 171.15314483642578 130.45454788208008 L 149.98179626464844 130.45454788208008 L 149.98179626464844 77.81818389892578" fill-opacity="1" clip-path="url(#vLLrzBVCdiri)"/><path fill="rgb(111,0,154)" stroke="none" paint-order="stroke" d="M 171.15313720703125 77.81818389892578 L 208.51163482666016 77.81818389892578 L 208.51163482666016 130.45454788208008 L 171.15313720703125 130.45454788208008 L 171.15313720703125 77.81818389892578" fill-opacity="1" clip-path="url(#vLLrzBVCdiri)"/><path fill="rgb(251,0,7)" stroke="none" paint-order="stroke" d="M 58.5 130.4545440673828 L 94.16642379760742 130.4545440673828 L 94.16642379760742 183.0909080505371 L 58.5 183.0909080505371 L 58.5 130.4545440673828" fill-opacity="1" clip-path="url(#xggmcwMgUFQc)"/><path fill="rgb(62,0,101)" stroke="none" paint-order="stroke" d="M 94.16642761230469 130.4545440673828 L 208.5116424560547 130.4545440673828 L 208.5116424560547 183.0909080505371 L 94.16642761230469 183.0909080505371 L 94.16642761230469 130.4545440673828" fill-opacity="1" clip-path="url(#xggmcwMgUFQc)"/><path fill="rgb(105,29,48)" stroke="none" paint-order="stroke" d="M 187.18182373046875 183.09091186523438 L 187.24572373181581 183.09091186523438 L 187.24572373181581 498.9090881347656 L 187.18182373046875 498.9090881347656 L 187.18182373046875 183.09091186523438" fill-opacity="1" clip-path="url(#aVUrUrcOKTSu)"/><path fill="rgb(255,188,66)" stroke="none" paint-order="stroke" d="M 104.3508071899414 183.09091186523438 L 108.26532125473022 183.09091186523438 L 108.26532125473022 498.9090881347656 L 104.3508071899414 498.9090881347656 L 104.3508071899414 183.09091186523438" fill-opacity="1" clip-path="url(#vGFnzmBgyZLS)"/><path fill="rgb(255,188,66)" stroke="none" paint-order="stroke" d="M 118.33212280273438 183.09091186523438 L 121.433828830719 183.09091186523438 L 121.433828830719 498.9090881347656 L 118.33212280273438 498.9090881347656 L 118.33212280273438 183.09091186523438" fill-opacity="1" clip-path="url(#vGFnzmBgyZLS)"/><path fill="rgb(255,188,66)" stroke="none" paint-order="stroke" d="M 131.2833709716797 183.09091186523438 L 135.18510508537292 183.09091186523438 L 135.18510508537292 498.9090881347656 L 131.2833709716797 498.9090881347656 L 131.2833709716797 183.09091186523438" fill-opacity="1" clip-path="url(#vGFnzmBgyZLS)"/><path fill="rgb(255,188,66)" stroke="none" paint-order="stroke" d="M 135.64007568359375 183.09091186523438 L 140.0926275253296 183.09091186523438 L 140.0926275253296 498.9090881347656 L 135.64007568359375 498.9090881347656 L 135.64007568359375 183.09091186523438" fill-opacity="1" clip-path="url(#vGFnzmBgyZLS)"/><path fill="rgb(162,174,187)" stroke="none" paint-order="stroke" d="M 157.75970458984375 183.09091186523438 L 157.82360459119081 183.09091186523438 L 157.82360459119081 498.9090881347656 L 157.75970458984375 498.9090881347656 L 157.75970458984375 183.09091186523438" fill-opacity="1" clip-path="url(#UdRWJIiMNqDO)"/><path fill="rgb(162,174,187)" stroke="none" paint-order="stroke" d="M 158.72076416015625 183.09091186523438 L 158.78466416150331 183.09091186523438 L 158.78466416150331 498.9090881347656 L 158.72076416015625 498.9090881347656 L 158.72076416015625 183.09091186523438" fill-opacity="1" clip-path="url(#UdRWJIiMNqDO)"/><path fill="rgb(162,174,187)" stroke="none" paint-order="stroke" d="M 159.35464477539062 183.09091186523438 L 159.4185447767377 183.09091186523438 L 159.4185447767377 498.9090881347656 L 159.35464477539062 498.9090881347656 L 159.35464477539062 183.09091186523438" fill-opacity="1" clip-path="url(#UdRWJIiMNqDO)"/><path fill="rgb(216,17,89)" stroke="none" paint-order="stroke" d="M 77.71601104736328 183.09091186523438 L 77.77991104871035 183.09091186523438 L 77.77991104871035 498.9090881347656 L 77.71601104736328 498.9090881347656 L 77.71601104736328 183.09091186523438" fill-opacity="1" clip-path="url(#pkkheDuvvDvW)"/><path fill="rgb(216,17,89)" stroke="none" paint-order="stroke" d="M 77.71601104736328 183.09091186523438 L 77.77991104871035 183.09091186523438 L 77.77991104871035 498.9090881347656 L 77.71601104736328 498.9090881347656 L 77.71601104736328 183.09091186523438" fill-opacity="1" clip-path="url(#pkkheDuvvDvW)"/><path fill="rgb(216,17,89)" stroke="none" paint-order="stroke" d="M 78.80997467041016 183.09091186523438 L 78.87387467175722 183.09091186523438 L 78.87387467175722 498.9090881347656 L 78.80997467041016 498.9090881347656 L 78.80997467041016 183.09091186523438" fill-opacity="1" clip-path="url(#pkkheDuvvDvW)"/><path fill="rgb(216,17,89)" stroke="none" paint-order="stroke" d="M 78.80997467041016 183.09091186523438 L 78.87387467175722 183.09091186523438 L 78.87387467175722 498.9090881347656 L 78.80997467041016 498.9090881347656 L 78.80997467041016 183.09091186523438" fill-opacity="1" clip-path="url(#pkkheDuvvDvW)"/><path fill="rgb(216,17,89)" stroke="none" paint-order="stroke" d="M 80.34357452392578 183.09091186523438 L 80.40747452527285 183.09091186523438 L 80.40747452527285 498.9090881347656 L 80.34357452392578 498.9090881347656 L 80.34357452392578 183.09091186523438" fill-opacity="1" clip-path="url(#pkkheDuvvDvW)"/><path fill="rgb(216,17,89)" stroke="none" paint-order="stroke" d="M 80.34357452392578 183.09091186523438 L 80.40747452527285 183.09091186523438 L 80.40747452527285 498.9090881347656 L 80.34357452392578 498.9090881347656 L 80.34357452392578 183.09091186523438" fill-opacity="1" clip-path="url(#pkkheDuvvDvW)"/><path fill="rgb(216,17,89)" stroke="none" paint-order="stroke" d="M 81.72381591796875 183.09091186523438 L 81.78771591931581 183.09091186523438 L 81.78771591931581 498.9090881347656 L 81.72381591796875 498.9090881347656 L 81.72381591796875 183.09091186523438" fill-opacity="1" clip-path="url(#pkkheDuvvDvW)"/><path fill="rgb(216,17,89)" stroke="none" paint-order="stroke" d="M 145.3170928955078 183.09091186523438 L 145.38099289685488 183.09091186523438 L 145.38099289685488 498.9090881347656 L 145.3170928955078 498.9090881347656 L 145.3170928955078 183.09091186523438" fill-opacity="1" clip-path="url(#pkkheDuvvDvW)"/><path fill="rgb(33,131,128)" stroke="none" paint-order="stroke" d="M 89.42632293701172 183.09091186523438 L 94.16642475128174 183.09091186523438 L 94.16642475128174 498.9090881347656 L 89.42632293701172 498.9090881347656 L 89.42632293701172 183.09091186523438" fill-opacity="1" clip-path="url(#GGNgMIdBFXkm)"/><path fill="rgb(33,131,128)" stroke="none" paint-order="stroke" d="M 175.7488250732422 183.09091186523438 L 187.18564701080322 183.09091186523438 L 187.18564701080322 498.9090881347656 L 175.7488250732422 498.9090881347656 L 175.7488250732422 183.09091186523438" fill-opacity="1" clip-path="url(#GGNgMIdBFXkm)"/><path fill="rgb(115,210,222)" stroke="none" paint-order="stroke" d="M 154.81646728515625 183.09091186523438 L 156.5941653251648 183.09091186523438 L 156.5941653251648 498.9090881347656 L 154.81646728515625 498.9090881347656 L 154.81646728515625 183.09091186523438" fill-opacity="1" clip-path="url(#bFIuGUMKXkfT)"/><path fill="rgb(115,210,222)" stroke="none" paint-order="stroke" d="M 197.21923828125 183.09091186523438 L 208.51164627075195 183.09091186523438 L 208.51164627075195 498.9090881347656 L 197.21923828125 498.9090881347656 L 197.21923828125 183.09091186523438" fill-opacity="1" clip-path="url(#bFIuGUMKXkfT)"/><path fill="rgb(28,49,68)" stroke="none" paint-order="stroke" d="M 82.41521453857422 183.09091186523438 L 82.65420053899288 183.09091186523438 L 82.65420053899288 498.9090881347656 L 82.41521453857422 498.9090881347656 L 82.41521453857422 183.09091186523438" fill-opacity="1" clip-path="url(#hltIyJSRpToy)"/><path fill="rgb(28,49,68)" stroke="none" paint-order="stroke" d="M 83.1078872680664 183.09091186523438 L 87.56171703338623 183.09091186523438 L 87.56171703338623 498.9090881347656 L 83.1078872680664 498.9090881347656 L 83.1078872680664 183.09091186523438" fill-opacity="1" clip-path="url(#hltIyJSRpToy)"/><path fill="rgb(28,49,68)" stroke="none" paint-order="stroke" d="M 98.04515075683594 183.09091186523438 L 103.74630880355835 183.09091186523438 L 103.74630880355835 498.9090881347656 L 98.04515075683594 498.9090881347656 L 98.04515075683594 183.09091186523438" fill-opacity="1" clip-path="url(#hltIyJSRpToy)"/><path fill="rgb(28,49,68)" stroke="none" paint-order="stroke" d="M 109.28388977050781 183.09091186523438 L 114.99271583557129 183.09091186523438 L 114.99271583557129 498.9090881347656 L 109.28388977050781 498.9090881347656 L 109.28388977050781 183.09091186523438" fill-opacity="1" clip-path="url(#hltIyJSRpToy)"/><path fill="rgb(28,49,68)" stroke="none" paint-order="stroke" d="M 123.15785217285156 183.09091186523438 L 125.24738216400146 183.09091186523438 L 125.24738216400146 498.9090881347656 L 123.15785217285156 498.9090881347656 L 123.15785217285156 183.09091186523438" fill-opacity="1" clip-path="url(#hltIyJSRpToy)"/><path fill="rgb(28,49,68)" stroke="none" paint-order="stroke" d="M 126.01929473876953 183.09091186523438 L 127.54778277873993 183.09091186523438 L 127.54778277873993 498.9090881347656 L 126.01929473876953 498.9090881347656 L 126.01929473876953 183.09091186523438" fill-opacity="1" clip-path="url(#hltIyJSRpToy)"/><path fill="rgb(28,49,68)" stroke="none" paint-order="stroke" d="M 128.24557495117188 183.09091186523438 L 128.66092494130135 183.09091186523438 L 128.66092494130135 498.9090881347656 L 128.24557495117188 498.9090881347656 L 128.24557495117188 183.09091186523438" fill-opacity="1" clip-path="url(#hltIyJSRpToy)"/><path fill="rgb(28,49,68)" stroke="none" paint-order="stroke" d="M 129.01492309570312 183.09091186523438 L 129.69481909275055 183.09091186523438 L 129.69481909275055 498.9090881347656 L 129.01492309570312 498.9090881347656 L 129.01492309570312 183.09091186523438" fill-opacity="1" clip-path="url(#hltIyJSRpToy)"/><path fill="rgb(105,29,48)" stroke="none" paint-order="stroke" d="M 146.43917846679688 183.09091186523438 L 152.4432225227356 183.09091186523438 L 152.4432225227356 498.9090881347656 L 146.43917846679688 498.9090881347656 L 146.43917846679688 183.09091186523438" fill-opacity="1" clip-path="url(#uwXTDFkTMnMl)"/><path fill="rgb(255,188,66)" stroke="none" paint-order="stroke" d="M 105.69014739990234 498.9090881347656 L 208.51163482666016 498.9090881347656 L 208.51163482666016 551.5454521179199 L 105.69014739990234 551.5454521179199 L 105.69014739990234 498.9090881347656" fill-opacity="1" clip-path="url(#LCxVMbbgJzsP)"/><path fill="rgb(143,45,86)" stroke="none" paint-order="stroke" d="M 58.5 551.5454711914062 L 187.18182373046875 551.5454711914062 L 187.18182373046875 604.1818351745605 L 58.5 604.1818351745605 L 58.5 551.5454711914062" fill-opacity="1" clip-path="url(#oKWbUvbhRNJL)"/><path fill="rgb(81,60,99)" stroke="none" paint-order="stroke" d="M 187.18182373046875 551.5454711914062 L 208.51164436340332 551.5454711914062 L 208.51164436340332 604.1818351745605 L 187.18182373046875 604.1818351745605 L 187.18182373046875 551.5454711914062" fill-opacity="1" clip-path="url(#oKWbUvbhRNJL)"/><path fill="none" stroke="rgb(0,0,0)" paint-order="fill" d="M 58.5 77.81818389892578 L 208.5116424560547 77.81818389892578 L 208.5116424560547 604.1818313598633 L 58.5 604.1818313598633 L 58.5 77.81818389892578" stroke-opacity="1" stroke-linejoin="bevel" stroke-miterlimit="10" stroke-dasharray="" clip-path="url(#ceHvgBSNSTPR)"/><path fill="none" stroke="rgb(0,0,0)" paint-order="fill" d="M 58.5 630.5 L 1336.5 630.5" stroke-opacity="1" stroke-linejoin="bevel" stroke-miterlimit="10" stroke-dasharray=""/><path fill="none" stroke="rgb(0,0,0)" paint-order="fill" d="M 58.5 636.5 L 58.5 628.5 M 314.5 636.5 L 314.5 628.5 M 569.5 636.5 L 569.5 628.5 M 825.5 636.5 L 825.5 628.5 M 1080.5 636.5 L 1080.5 628.5 M 1336.5 636.5 L 1336.5 628.5" stroke-opacity="1" stroke-linejoin="bevel" stroke-miterlimit="10" stroke-dasharray=""/><path fill="none" stroke="rgb(0,0,0)" paint-order="fill" d="M 58.5 634.5 L 58.5 630.5 M 109.5 634.5 L 109.5 630.5 M 160.5 634.5 L 160.5 630.5 M 211.5 634.5 L 211.5 630.5 M 262.5 634.5 L 262.5 630.5 M 314.5 634.5 L 314.5 630.5 M 365.5 634.5 L 365.5 630.5 M 416.5 634.5 L 416.5 630.5 M 467.5 634.5 L 467.5 630.5 M 518.5 634.5 L 518.5 630.5 M 569.5 634.5 L 569.5 630.5 M 620.5 634.5 L 620.5 630.5 M 671.5 634.5 L 671.5 630.5 M 723.5 634.5 L 723.5 630.5 M 774.5 634.5 L 774.5 630.5 M 825.5 634.5 L 825.5 630.5 M 876.5 634.5 L 876.5 630.5 M 927.5 634.5 L 927.5 630.5 M 978.5 634.5 L 978.5 630.5 M 1029.5 634.5 L 1029.5 630.5 M 1080.5 634.5 L 1080.5 630.5 M 1132.5 634.5 L 1132.5 630.5 M 1183.5 634.5 L 1183.5 630.5 M 1234.5 634.5 L 1234.5 630.5 M 1285.5 634.5 L 1285.5 630.5 M 1336.5 634.5 L 1336.5 630.5" stroke-opacity="1" stroke-linejoin="bevel" stroke-miterlimit="10" stroke-dasharray=""/><text fill="rgb(68,68,68)" stroke="none" font-family="helvetica" font-size="11px" font-style="normal" font-weight="normal" text-decoration="normal" x="54.94166660308838" y="648.89013671875" text-anchor="start" dominant-baseline="alphabetic" transform="matrix(1, 0, 0, 1, 0.5, 0.5)" fill-opacity="1">0</text><text fill="rgb(68,68,68)" stroke="none" font-family="helvetica" font-size="11px" font-style="normal" font-weight="normal" text-decoration="normal" x="304.42500591278076" y="648.89013671875" text-anchor="start" dominant-baseline="alphabetic" transform="matrix(1, 0, 0, 1, 0.5, 0.5)" fill-opacity="1">200</text><text fill="rgb(68,68,68)" stroke="none" font-family="helvetica" font-size="11px" font-style="normal" font-weight="normal" text-decoration="normal" x="560.0250120162964" y="648.89013671875" text-anchor="start" dominant-baseline="alphabetic" transform="matrix(1, 0, 0, 1, 0.5, 0.5)" fill-opacity="1">400</text><text fill="rgb(68,68,68)" stroke="none" font-family="helvetica" font-size="11px" font-style="normal" font-weight="normal" text-decoration="normal" x="815.6249876022339" y="648.89013671875" text-anchor="start" dominant-baseline="alphabetic" transform="matrix(1, 0, 0, 1, 0.5, 0.5)" fill-opacity="1">600</text><text fill="rgb(68,68,68)" stroke="none" font-family="helvetica" font-size="11px" font-style="normal" font-weight="normal" text-decoration="normal" x="1071.2250242233276" y="648.89013671875" text-anchor="start" dominant-baseline="alphabetic" transform="matrix(1, 0, 0, 1, 0.5, 0.5)" fill-opacity="1">800</text><text fill="rgb(68,68,68)" stroke="none" font-family="helvetica" font-size="11px" font-style="normal" font-weight="normal" text-decoration="normal" x="1323.7666664123535" y="648.89013671875" text-anchor="start" dominant-baseline="alphabetic" transform="matrix(1, 0, 0, 1, 0.5, 0.5)" fill-opacity="1">1000</text><text fill="rgb(68,68,68)" stroke="none" font-family="helvetica" font-size="15pt" font-style="italic" font-weight="normal" text-decoration="normal" x="666.4416675567627" y="676.06982421875" text-anchor="start" dominant-baseline="alphabetic" transform="matrix(1, 0, 0, 1, 0.5, 0.5)" fill-opacity="1">time(s)</text><path fill="none" stroke="rgb(0,0,0)" paint-order="fill" d="M 58.5 630.5 L 58.5 51.5" stroke-opacity="1" stroke-linejoin="bevel" stroke-miterlimit="10" stroke-dasharray=""/><path fill="none" stroke="rgb(0,0,0)" paint-order="fill" d="M 52.5 551.5 L 60.5 551.5 M 52.5 446.5 L 60.5 446.5 M 52.5 341.5 L 60.5 341.5 M 52.5 235.5 L 60.5 235.5 M 52.5 130.5 L 60.5 130.5" stroke-opacity="1" stroke-linejoin="bevel" stroke-miterlimit="10" stroke-dasharray=""/><path fill="none" stroke="rgb(0,0,0)" paint-order="fill" d="M 54.5 572.5 L 58.5 572.5 M 54.5 593.5 L 58.5 593.5 M 54.5 614.5 L 58.5 614.5 M 54.5 551.5 L 58.5 551.5 M 54.5 530.5 L 58.5 530.5 M 54.5 509.5 L 58.5 509.5 M 54.5 488.5 L 58.5 488.5 M 54.5 467.5 L 58.5 467.5 M 54.5 446.5 L 58.5 446.5 M 54.5 425.5 L 58.5 425.5 M 54.5 404.5 L 58.5 404.5 M 54.5 383.5 L 58.5 383.5 M 54.5 362.5 L 58.5 362.5 M 54.5 341.5 L 58.5 341.5 M 54.5 319.5 L 58.5 319.5 M 54.5 298.5 L 58.5 298.5 M 54.5 277.5 L 58.5 277.5 M 54.5 256.5 L 58.5 256.5 M 54.5 235.5 L 58.5 235.5 M 54.5 214.5 L 58.5 214.5 M 54.5 193.5 L 58.5 193.5 M 54.5 172.5 L 58.5 172.5 M 54.5 151.5 L 58.5 151.5 M 54.5 130.5 L 58.5 130.5 M 54.5 109.5 L 58.5 109.5 M 54.5 88.5 L 58.5 88.5 M 54.5 67.5 L 58.5 67.5" stroke-opacity="1" stroke-linejoin="bevel" stroke-miterlimit="10" stroke-dasharray=""/><text fill="rgb(68,68,68)" stroke="none" font-family="helvetica" font-size="11px" font-style="normal" font-weight="normal" text-decoration="normal" x="34.46666622161865" y="554.9905395507812" text-anchor="start" dominant-baseline="alphabetic" transform="matrix(1, 0, 0, 1, 0.5, 0.5)" fill-opacity="1">−2</text><text fill="rgb(68,68,68)" stroke="none" font-family="helvetica" font-size="11px" font-style="normal" font-weight="normal" text-decoration="normal" x="34.46666622161865" y="449.7178039550781" text-anchor="start" dominant-baseline="alphabetic" transform="matrix(1, 0, 0, 1, 0.5, 0.5)" fill-opacity="1">−1</text><text fill="rgb(68,68,68)" stroke="none" font-family="helvetica" font-size="11px" font-style="normal" font-weight="normal" text-decoration="normal" x="40.88333320617676" y="344.445068359375" text-anchor="start" dominant-baseline="alphabetic" transform="matrix(1, 0, 0, 1, 0.5, 0.5)" fill-opacity="1">0</text><text fill="rgb(68,68,68)" stroke="none" font-family="helvetica" font-size="11px" font-style="normal" font-weight="normal" text-decoration="normal" x="40.88333320617676" y="239.17234802246094" text-anchor="start" dominant-baseline="alphabetic" transform="matrix(1, 0, 0, 1, 0.5, 0.5)" fill-opacity="1">1</text><text fill="rgb(68,68,68)" stroke="none" font-family="helvetica" font-size="11px" font-style="normal" font-weight="normal" text-decoration="normal" x="40.88333320617676" y="133.8996124267578" text-anchor="start" dominant-baseline="alphabetic" transform="matrix(1, 0, 0, 1, 0.5, 0.5)" fill-opacity="1">2</text><text fill="rgb(68,68,68)" stroke="none" font-family="helvetica" font-size="15pt" font-style="italic" font-weight="normal" text-decoration="normal" x="-11.316666603088379" y="336.076171875" text-anchor="start" dominant-baseline="alphabetic" transform="matrix(6.123233995736766e-17, -1, 1, 6.123233995736766e-17, -313.53333377838135, 367.46666622161865)" fill-opacity="1">students</text><path fill="rgb(255,255,255)" stroke="rgb(229,229,229)" paint-order="fill" d="M 1128.2333374023438 61.5 L 1326.5 61.5 L 1326.5 400.5 L 1128.2333374023438 400.5 L 1128.2333374023438 61.5" fill-opacity="0.9490196078431372" clip-path="url(#uBqTVEgkiHmO)" stroke-opacity="0.5019607843137255" stroke-linejoin="bevel" stroke-miterlimit="10" stroke-dasharray=""/><text fill="rgb(68,68,68)" stroke="none" font-family="helvetica" font-size="13px" font-style="normal" font-weight="normal" text-decoration="normal" x="1162.7333374023438" y="81" text-anchor="start" dominant-baseline="central" clip-path="url(#uBqTVEgkiHmO)" transform="matrix(1, 0, 0, 1, 0.5, 0.5)" fill-opacity="1">wavelength</text><path fill="rgb(0,255,40)" stroke="none" paint-order="stroke" d="M 1140.2333374023438 73.5 L 1156.2333374023438 73.5 L 1156.2333374023438 89.5 L 1140.2333374023438 89.5 L 1140.2333374023438 73.5" fill-opacity="1" clip-path="url(#uBqTVEgkiHmO)"/><path fill="rgb(216,17,89)" stroke="none" paint-order="stroke" d="M 1140.2333374023438 73.5 L 1156.2333374023438 73.5 L 1156.2333374023438 89.5 L 1140.2333374023438 89.5 L 1140.2333374023438 73.5" fill-opacity="1" clip-path="url(#uBqTVEgkiHmO)"/><text fill="rgb(68,68,68)" stroke="none" font-family="helvetica" font-size="13px" font-style="normal" font-weight="normal" text-decoration="normal" x="1162.7333374023438" y="104" text-anchor="start" dominant-baseline="central" clip-path="url(#uBqTVEgkiHmO)" transform="matrix(1, 0, 0, 1, 0.5, 0.5)" fill-opacity="1">solution</text><path fill="rgb(251,0,7)" stroke="none" paint-order="stroke" d="M 1140.2333374023438 96.5 L 1156.2333374023438 96.5 L 1156.2333374023438 112.5 L 1140.2333374023438 112.5 L 1140.2333374023438 96.5" fill-opacity="1" clip-path="url(#uBqTVEgkiHmO)"/><path fill="rgb(33,131,128)" stroke="none" paint-order="stroke" d="M 1140.2333374023438 96.5 L 1156.2333374023438 96.5 L 1156.2333374023438 112.5 L 1140.2333374023438 112.5 L 1140.2333374023438 96.5" fill-opacity="1" clip-path="url(#uBqTVEgkiHmO)"/><text fill="rgb(68,68,68)" stroke="none" font-family="helvetica" font-size="13px" font-style="normal" font-weight="normal" text-decoration="normal" x="1162.7333374023438" y="127" text-anchor="start" dominant-baseline="central" clip-path="url(#uBqTVEgkiHmO)" transform="matrix(1, 0, 0, 1, 0.5, 0.5)" fill-opacity="1">laser</text><path fill="rgb(105,29,48)" stroke="none" paint-order="stroke" d="M 1140.2333374023438 119.5 L 1156.2333374023438 119.5 L 1156.2333374023438 135.5 L 1140.2333374023438 135.5 L 1140.2333374023438 119.5" fill-opacity="1" clip-path="url(#uBqTVEgkiHmO)"/><text fill="rgb(68,68,68)" stroke="none" font-family="helvetica" font-size="13px" font-style="normal" font-weight="normal" text-decoration="normal" x="1162.7333374023438" y="150" text-anchor="start" dominant-baseline="central" clip-path="url(#uBqTVEgkiHmO)" transform="matrix(1, 0, 0, 1, 0.5, 0.5)" fill-opacity="1">ruler</text><path fill="rgb(255,188,66)" stroke="none" paint-order="stroke" d="M 1140.2333374023438 142.5 L 1156.2333374023438 142.5 L 1156.2333374023438 158.5 L 1140.2333374023438 158.5 L 1140.2333374023438 142.5" fill-opacity="1" clip-path="url(#uBqTVEgkiHmO)"/><text fill="rgb(68,68,68)" stroke="none" font-family="helvetica" font-size="13px" font-style="normal" font-weight="normal" text-decoration="normal" x="1162.7333374023438" y="173" text-anchor="start" dominant-baseline="central" clip-path="url(#uBqTVEgkiHmO)" transform="matrix(1, 0, 0, 1, 0.5, 0.5)" fill-opacity="1">restarts</text><text fill="rgb(68,68,68)" stroke="none" font-family="helvetica" font-size="13px" font-style="normal" font-weight="normal" text-decoration="normal" x="1162.7333374023438" y="196" text-anchor="start" dominant-baseline="central" clip-path="url(#uBqTVEgkiHmO)" transform="matrix(1, 0, 0, 1, 0.5, 0.5)" fill-opacity="1">transmittance_absorbance</text><path fill="rgb(162,174,187)" stroke="none" paint-order="stroke" d="M 1140.2333374023438 188.5 L 1156.2333374023438 188.5 L 1156.2333374023438 204.5 L 1140.2333374023438 204.5 L 1140.2333374023438 188.5" fill-opacity="1" clip-path="url(#uBqTVEgkiHmO)"/><text fill="rgb(68,68,68)" stroke="none" font-family="helvetica" font-size="13px" font-style="normal" font-weight="normal" text-decoration="normal" x="1162.7333374023438" y="219" text-anchor="start" dominant-baseline="central" clip-path="url(#uBqTVEgkiHmO)" transform="matrix(1, 0, 0, 1, 0.5, 0.5)" fill-opacity="1">magnifier</text><text fill="rgb(68,68,68)" stroke="none" font-family="helvetica" font-size="13px" font-style="normal" font-weight="normal" text-decoration="normal" x="1162.7333374023438" y="242" text-anchor="start" dominant-baseline="central" clip-path="url(#uBqTVEgkiHmO)" transform="matrix(1, 0, 0, 1, 0.5, 0.5)" fill-opacity="1">concentration</text><path fill="rgb(115,210,222)" stroke="none" paint-order="stroke" d="M 1140.2333374023438 234.5 L 1156.2333374023438 234.5 L 1156.2333374023438 250.5 L 1140.2333374023438 250.5 L 1140.2333374023438 234.5" fill-opacity="1" clip-path="url(#uBqTVEgkiHmO)"/><text fill="rgb(68,68,68)" stroke="none" font-family="helvetica" font-size="13px" font-style="normal" font-weight="normal" text-decoration="normal" x="1162.7333374023438" y="265" text-anchor="start" dominant-baseline="central" clip-path="url(#uBqTVEgkiHmO)" transform="matrix(1, 0, 0, 1, 0.5, 0.5)" fill-opacity="1">flask</text><path fill="rgb(28,49,68)" stroke="none" paint-order="stroke" d="M 1140.2333374023438 257.5 L 1156.2333374023438 257.5 L 1156.2333374023438 273.5 L 1140.2333374023438 273.5 L 1140.2333374023438 257.5" fill-opacity="1" clip-path="url(#uBqTVEgkiHmO)"/><text fill="rgb(68,68,68)" stroke="none" font-family="helvetica" font-size="13px" font-style="normal" font-weight="normal" text-decoration="normal" x="1162.7333374023438" y="288" text-anchor="start" dominant-baseline="central" clip-path="url(#uBqTVEgkiHmO)" transform="matrix(1, 0, 0, 1, 0.5, 0.5)" fill-opacity="1">pdf</text><text fill="rgb(68,68,68)" stroke="none" font-family="helvetica" font-size="13px" font-style="normal" font-weight="normal" text-decoration="normal" x="1162.7333374023438" y="311" text-anchor="start" dominant-baseline="central" clip-path="url(#uBqTVEgkiHmO)" transform="matrix(1, 0, 0, 1, 0.5, 0.5)" fill-opacity="1">concentrationlab</text><text fill="rgb(68,68,68)" stroke="none" font-family="helvetica" font-size="13px" font-style="normal" font-weight="normal" text-decoration="normal" x="1162.7333374023438" y="334" text-anchor="start" dominant-baseline="central" clip-path="url(#uBqTVEgkiHmO)" transform="matrix(1, 0, 0, 1, 0.5, 0.5)" fill-opacity="1">wavelength_slider</text><path fill="rgb(105,29,48)" stroke="none" paint-order="stroke" d="M 1140.2333374023438 326.5 L 1156.2333374023438 326.5 L 1156.2333374023438 342.5 L 1140.2333374023438 342.5 L 1140.2333374023438 326.5" fill-opacity="1" clip-path="url(#uBqTVEgkiHmO)"/><text fill="rgb(68,68,68)" stroke="none" font-family="helvetica" font-size="13px" font-style="normal" font-weight="normal" text-decoration="normal" x="1162.7333374023438" y="357" text-anchor="start" dominant-baseline="central" clip-path="url(#uBqTVEgkiHmO)" transform="matrix(1, 0, 0, 1, 0.5, 0.5)" fill-opacity="1">ruler measuring</text><path fill="rgb(255,188,66)" stroke="none" paint-order="stroke" d="M 1140.2333374023438 349.5 L 1156.2333374023438 349.5 L 1156.2333374023438 365.5 L 1140.2333374023438 365.5 L 1140.2333374023438 349.5" fill-opacity="1" clip-path="url(#uBqTVEgkiHmO)"/><text fill="rgb(68,68,68)" stroke="none" font-family="helvetica" font-size="13px" font-style="normal" font-weight="normal" text-decoration="normal" x="1162.7333374023438" y="380" text-anchor="start" dominant-baseline="central" clip-path="url(#uBqTVEgkiHmO)" transform="matrix(1, 0, 0, 1, 0.5, 0.5)" fill-opacity="1">dependent variable</text><path fill="rgb(143,45,86)" stroke="none" paint-order="stroke" d="M 1140.2333374023438 372.5 L 1156.2333374023438 372.5 L 1156.2333374023438 388.5 L 1140.2333374023438 388.5 L 1140.2333374023438 372.5" fill-opacity="1" clip-path="url(#uBqTVEgkiHmO)"/><text fill="rgb(68,68,68)" stroke="none" font-family="helvetica" font-size="25pt" font-style="normal" font-weight="bold" text-decoration="normal" x="58" y="38.740885416666664" text-anchor="start" dominant-baseline="alphabetic" transform="matrix(1, 0, 0, 1, 0.5, 0.5)" fill-opacity="1">Timeline for student urwu33jd with permutation 3210 for task 1</text></svg>