<svg version="1.1" xmlns="http://www.w3.org/2000/svg" width="1366" height="683"><defs><clipPath id="SdTepDMEqEOG"><path fill="none" stroke="none" d="M 58.5 51.5 L 1336.5 51.5 L 1336.5 630.5 L 58.5 630.5 L 58.5 51.5"/></clipPath><clipPath id="hdDttcWHCkKZ"><path fill="none" stroke="none" d="M 58.5 51.5 L 1336.5 51.5 L 1336.5 630.5 L 58.5 630.5 L 58.5 51.5"/></clipPath><clipPath id="CrNNbgobdsHv"><path fill="none" stroke="none" d="M 58.5 51.5 L 1336.5 51.5 L 1336.5 630.5 L 58.5 630.5 L 58.5 51.5"/></clipPath><clipPath id="yEiKIuBTZFtl"><path fill="none" stroke="none" d="M 58.5 51.5 L 1336.5 51.5 L 1336.5 630.5 L 58.5 630.5 L 58.5 51.5"/></clipPath><clipPath id="VCmrvZpxqQJp"><path fill="none" stroke="none" d="M 58.5 51.5 L 1336.5 51.5 L 1336.5 630.5 L 58.5 630.5 L 58.5 51.5"/></clipPath><clipPath id="bPqoCXmPdsmK"><path fill="none" stroke="none" d="M 58.5 51.5 L 1336.5 51.5 L 1336.5 630.5 L 58.5 630.5 L 58.5 51.5"/></clipPath><clipPath id="VWJpooJZrzdW"><path fill="none" stroke="none" d="M 58.5 51.5 L 1336.5 51.5 L 1336.5 630.5 L 58.5 630.5 L 58.5 51.5"/></clipPath><clipPath id="sdzlIDfgSVNG"><path fill="none" stroke="none" d="M 58.5 51.5 L 1336.5 51.5 L 1336.5 630.5 L 58.5 630.5 L 58.5 51.5"/></clipPath><clipPath id="ZCgRcAxrOvVW"><path fill="none" stroke="none" d="M 58.5 51.5 L 1336.5 51.5 L 1336.5 630.5 L 58.5 630.5 L 58.5 51.5"/></clipPath><clipPath id="HaurEctfLTsk"><path fill="none" stroke="none" d="M 58.5 51.5 L 1336.5 51.5 L 1336.5 630.5 L 58.5 630.5 L 58.5 51.5"/></clipPath><clipPath id="iBebKmKZBcLU"><path fill="none" stroke="none" d="M 58.5 51.5 L 1336.5 51.5 L 1336.5 630.5 L 58.5 630.5 L 58.5 51.5"/></clipPath><clipPath id="EEbGSggvnNfl"><path fill="none" stroke="none" d="M 58.5 51.5 L 1336.5 51.5 L 1336.5 630.5 L 58.5 630.5 L 58.5 51.5"/></clipPath><clipPath id="IRTAfXTFIRSe"><path fill="none" stroke="none" d="M 58.5 51.5 L 1336.5 51.5 L 1336.5 630.5 L 58.5 630.5 L 58.5 51.5"/></clipPath><clipPath id="oUEkyPELataT"><path fill="none" stroke="none" d="M 58.5 51.5 L 1336.5 51.5 L 1336.5 630.5 L 58.5 630.5 L 58.5 51.5"/></clipPath><clipPath id="xOKSwNbTsrwt"><path fill="none" stroke="none" d="M 58.5 51.5 L 1336.5 51.5 L 1336.5 630.5 L 58.5 630.5 L 58.5 51.5"/></clipPath><clipPath id="oHJKVgzuQdZk"><path fill="none" stroke="none" d="M 58.5 51.5 L 1336.5 51.5 L 1336.5 630.5 L 58.5 630.5 L 58.5 51.5"/></clipPath><clipPath id="vyzKGQErUzaz"><path fill="none" stroke="none" d="M 58.5 51.5 L 1336.5 51.5 L 1336.5 630.5 L 58.5 630.5 L 58.5 51.5"/></clipPath><clipPath id="hVfiGleRNbQI"><path fill="none" stroke="none" d="M 58.5 51.5 L 1336.5 51.5 L 1336.5 630.5 L 58.5 630.5 L 58.5 51.5"/></clipPath><clipPath id="xTZtJLXpoiDE"><path fill="none" stroke="none" d="M 58.5 51.5 L 1336.5 51.5 L 1336.5 630.5 L 58.5 630.5 L 58.5 51.5"/></clipPath><clipPath id="fkRgbRwfvnTH"><path fill="none" stroke="none" d="M 58.5 51.5 L 1336.5 51.5 L 1336.5 630.5 L 58.5 630.5 L 58.5 51.5"/></clipPath><clipPath id="KRBikqvaTebo"><path fill="none" stroke="none" d="M 58.5 51.5 L 1336.5 51.5 L 1336.5 630.5 L 58.5 630.5 L 58.5 51.5"/></clipPath></defs><path fill="rgb(255,255,255)" stroke="none" paint-order="stroke" d="M 0.5 0.5 L 1366.5 0.5 L 1366.5 683.5 L 0.5 683.5 L 0.5 0.5" fill-opacity="1"/><rect fill="#FFFFFF" stroke="none" x="58" y="51" width="1278" height="579" transform="matrix(1, 0, 0, 1, 0.5, 0.5)"/><path fill="rgb(255,255,255)" stroke="none" paint-order="stroke" d="M 58.5 51.5 L 1336.5 51.5 L 1336.5 630.5 L 58.5 630.5 L 58.5 51.5" fill-opacity="1"/><path fill="none" stroke="rgb(229,229,229)" paint-order="fill" d="M 58.5 51.5 L 1336.5 51.5 L 1336.5 630.5 L 58.5 630.5 L 58.5 51.5" stroke-opacity="1" stroke-linejoin="bevel" stroke-miterlimit="10" stroke-dasharray=""/><path fill="none" stroke="rgb(229,229,229)" paint-order="fill" d="M 314.5 630.5 L 314.5 51.5 M 569.5 630.5 L 569.5 51.5 M 825.5 630.5 L 825.5 51.5 M 1080.5 630.5 L 1080.5 51.5" stroke-opacity="1" stroke-linejoin="bevel" stroke-miterlimit="10" stroke-dasharray="" clip-path="url(#SdTepDMEqEOG)"/><path fill="none" stroke="rgb(229,229,229)" paint-order="fill" d="M 58.5 551.5 L 1336.5 551.5 M 58.5 446.5 L 1336.5 446.5 M 58.5 341.5 L 1336.5 341.5 M 58.5 235.5 L 1336.5 235.5 M 58.5 130.5 L 1336.5 130.5" stroke-opacity="1" stroke-linejoin="bevel" stroke-miterlimit="10" stroke-dasharray="" clip-path="url(#hdDttcWHCkKZ)"/><path fill="rgb(0,255,40)" stroke="none" paint-order="stroke" d="M 58.5 77.81818389892578 L 252.74066162109375 77.81818389892578 L 252.74066162109375 130.45454788208008 L 58.5 130.45454788208008 L 58.5 77.81818389892578" fill-opacity="1" clip-path="url(#CrNNbgobdsHv)"/><path fill="rgb(159,255,0)" stroke="none" paint-order="stroke" d="M 252.74066162109375 77.81818389892578 L 266.0625333786011 77.81818389892578 L 266.0625333786011 130.45454788208008 L 252.74066162109375 130.45454788208008 L 252.74066162109375 77.81818389892578" fill-opacity="1" clip-path="url(#CrNNbgobdsHv)"/><path fill="rgb(166,255,0)" stroke="none" paint-order="stroke" d="M 266.0625305175781 77.81818389892578 L 266.10342651605606 77.81818389892578 L 266.10342651605606 130.45454788208008 L 266.0625305175781 130.45454788208008 L 266.0625305175781 77.81818389892578" fill-opacity="1" clip-path="url(#CrNNbgobdsHv)"/><path fill="rgb(175,255,0)" stroke="none" paint-order="stroke" d="M 266.1034240722656 77.81818389892578 L 266.1686020717025 77.81818389892578 L 266.1686020717025 130.45454788208008 L 266.1034240722656 130.45454788208008 L 266.1034240722656 77.81818389892578" fill-opacity="1" clip-path="url(#CrNNbgobdsHv)"/><path fill="rgb(185,255,0)" stroke="none" paint-order="stroke" d="M 266.1686096191406 77.81818389892578 L 266.190335618332 77.81818389892578 L 266.190335618332 130.45454788208008 L 266.1686096191406 130.45454788208008 L 266.1686096191406 77.81818389892578" fill-opacity="1" clip-path="url(#CrNNbgobdsHv)"/><path fill="rgb(194,255,0)" stroke="none" paint-order="stroke" d="M 266.1903381347656 77.81818389892578 L 266.2107861340046 77.81818389892578 L 266.2107861340046 130.45454788208008 L 266.1903381347656 130.45454788208008 L 266.1903381347656 77.81818389892578" fill-opacity="1" clip-path="url(#CrNNbgobdsHv)"/><path fill="rgb(204,255,0)" stroke="none" paint-order="stroke" d="M 266.2107849121094 77.81818389892578 L 266.23123291134834 77.81818389892578 L 266.23123291134834 130.45454788208008 L 266.2107849121094 130.45454788208008 L 266.2107849121094 77.81818389892578" fill-opacity="1" clip-path="url(#CrNNbgobdsHv)"/><path fill="rgb(213,255,0)" stroke="none" paint-order="stroke" d="M 266.2312316894531 77.81818389892578 L 266.2516796886921 77.81818389892578 L 266.2516796886921 130.45454788208008 L 266.2312316894531 130.45454788208008 L 266.2312316894531 77.81818389892578" fill-opacity="1" clip-path="url(#CrNNbgobdsHv)"/><path fill="rgb(222,255,0)" stroke="none" paint-order="stroke" d="M 266.2516784667969 77.81818389892578 L 266.7232604622841 77.81818389892578 L 266.7232604622841 130.45454788208008 L 266.2516784667969 130.45454788208008 L 266.2516784667969 77.81818389892578" fill-opacity="1" clip-path="url(#CrNNbgobdsHv)"/><path fill="rgb(231,255,0)" stroke="none" paint-order="stroke" d="M 266.7232666015625 77.81818389892578 L 266.74243660084903 77.81818389892578 L 266.74243660084903 130.45454788208008 L 266.7232666015625 130.45454788208008 L 266.7232666015625 77.81818389892578" fill-opacity="1" clip-path="url(#CrNNbgobdsHv)"/><path fill="rgb(255,242,0)" stroke="none" paint-order="stroke" d="M 266.742431640625 77.81818389892578 L 266.7641576398164 77.81818389892578 L 266.7641576398164 130.45454788208008 L 266.742431640625 130.45454788208008 L 266.742431640625 77.81818389892578" fill-opacity="1" clip-path="url(#CrNNbgobdsHv)"/><path fill="rgb(255,223,0)" stroke="none" paint-order="stroke" d="M 266.76416015625 77.81818389892578 L 266.7858861554414 77.81818389892578 L 266.7858861554414 130.45454788208008 L 266.76416015625 130.45454788208008 L 266.76416015625 77.81818389892578" fill-opacity="1" clip-path="url(#CrNNbgobdsHv)"/><path fill="rgb(255,213,0)" stroke="none" paint-order="stroke" d="M 266.785888671875 77.81818389892578 L 266.8101706709713 77.81818389892578 L 266.8101706709713 130.45454788208008 L 266.785888671875 130.45454788208008 L 266.785888671875 77.81818389892578" fill-opacity="1" clip-path="url(#CrNNbgobdsHv)"/><path fill="rgb(255,203,0)" stroke="none" paint-order="stroke" d="M 266.8101806640625 77.81818389892578 L 266.82935066334903 77.81818389892578 L 266.82935066334903 130.45454788208008 L 266.8101806640625 130.45454788208008 L 266.8101806640625 77.81818389892578" fill-opacity="1" clip-path="url(#CrNNbgobdsHv)"/><path fill="rgb(255,193,0)" stroke="none" paint-order="stroke" d="M 266.829345703125 77.81818389892578 L 266.84979370236397 77.81818389892578 L 266.84979370236397 130.45454788208008 L 266.829345703125 130.45454788208008 L 266.829345703125 77.81818389892578" fill-opacity="1" clip-path="url(#CrNNbgobdsHv)"/><path fill="rgb(255,172,0)" stroke="none" paint-order="stroke" d="M 266.84979248046875 77.81818389892578 L 266.8702404797077 77.81818389892578 L 266.8702404797077 130.45454788208008 L 266.84979248046875 130.45454788208008 L 266.84979248046875 77.81818389892578" fill-opacity="1" clip-path="url(#CrNNbgobdsHv)"/><path fill="rgb(255,137,0)" stroke="none" paint-order="stroke" d="M 266.8702392578125 77.81818389892578 L 266.8919652570039 77.81818389892578 L 266.8919652570039 130.45454788208008 L 266.8702392578125 130.45454788208008 L 266.8702392578125 77.81818389892578" fill-opacity="1" clip-path="url(#CrNNbgobdsHv)"/><path fill="rgb(255,103,0)" stroke="none" paint-order="stroke" d="M 266.8919677734375 77.81818389892578 L 266.9136937726289 77.81818389892578 L 266.9136937726289 130.45454788208008 L 266.8919677734375 130.45454788208008 L 266.8919677734375 77.81818389892578" fill-opacity="1" clip-path="url(#CrNNbgobdsHv)"/><path fill="rgb(255,66,0)" stroke="none" paint-order="stroke" d="M 266.9136962890625 77.81818389892578 L 266.93414428830147 77.81818389892578 L 266.93414428830147 130.45454788208008 L 266.9136962890625 130.45454788208008 L 266.9136962890625 77.81818389892578" fill-opacity="1" clip-path="url(#CrNNbgobdsHv)"/><path fill="rgb(255,52,0)" stroke="none" paint-order="stroke" d="M 266.93414306640625 77.81818389892578 L 266.95586906559765 77.81818389892578 L 266.95586906559765 130.45454788208008 L 266.93414306640625 130.45454788208008 L 266.93414306640625 77.81818389892578" fill-opacity="1" clip-path="url(#CrNNbgobdsHv)"/><path fill="rgb(255,21,0)" stroke="none" paint-order="stroke" d="M 266.95587158203125 77.81818389892578 L 266.9763195812702 77.81818389892578 L 266.9763195812702 130.45454788208008 L 266.95587158203125 130.45454788208008 L 266.95587158203125 77.81818389892578" fill-opacity="1" clip-path="url(#CrNNbgobdsHv)"/><path fill="rgb(250,0,0)" stroke="none" paint-order="stroke" d="M 266.976318359375 77.81818389892578 L 266.99932235851884 77.81818389892578 L 266.99932235851884 130.45454788208008 L 266.976318359375 130.45454788208008 L 266.976318359375 77.81818389892578" fill-opacity="1" clip-path="url(#CrNNbgobdsHv)"/><path fill="rgb(238,0,0)" stroke="none" paint-order="stroke" d="M 266.9992980957031 77.81818389892578 L 267.0197460949421 77.81818389892578 L 267.0197460949421 130.45454788208008 L 266.9992980957031 130.45454788208008 L 266.9992980957031 77.81818389892578" fill-opacity="1" clip-path="url(#CrNNbgobdsHv)"/><path fill="rgb(230,0,0)" stroke="none" paint-order="stroke" d="M 267.0197448730469 77.81818389892578 L 267.0414708722383 77.81818389892578 L 267.0414708722383 130.45454788208008 L 267.0197448730469 130.45454788208008 L 267.0197448730469 77.81818389892578" fill-opacity="1" clip-path="url(#CrNNbgobdsHv)"/><path fill="rgb(221,0,0)" stroke="none" paint-order="stroke" d="M 267.0414733886719 77.81818389892578 L 267.0631993878633 77.81818389892578 L 267.0631993878633 130.45454788208008 L 267.0414733886719 130.45454788208008 L 267.0414733886719 77.81818389892578" fill-opacity="1" clip-path="url(#CrNNbgobdsHv)"/><path fill="rgb(211,0,0)" stroke="none" paint-order="stroke" d="M 267.0632019042969 77.81818389892578 L 267.10793190449476 77.81818389892578 L 267.10793190449476 130.45454788208008 L 267.0632019042969 130.45454788208008 L 267.0632019042969 77.81818389892578" fill-opacity="1" clip-path="url(#CrNNbgobdsHv)"/><path fill="rgb(207,0,0)" stroke="none" paint-order="stroke" d="M 267.1079406738281 77.81818389892578 L 267.12711067311466 77.81818389892578 L 267.12711067311466 130.45454788208008 L 267.1079406738281 130.45454788208008 L 267.1079406738281 77.81818389892578" fill-opacity="1" clip-path="url(#CrNNbgobdsHv)"/><path fill="rgb(181,0,0)" stroke="none" paint-order="stroke" d="M 267.1271057128906 77.81818389892578 L 267.1475537121296 77.81818389892578 L 267.1475537121296 130.45454788208008 L 267.1271057128906 130.45454788208008 L 267.1271057128906 77.81818389892578" fill-opacity="1" clip-path="url(#CrNNbgobdsHv)"/><path fill="rgb(144,0,0)" stroke="none" paint-order="stroke" d="M 267.1475524902344 77.81818389892578 L 267.1692784894258 77.81818389892578 L 267.1692784894258 130.45454788208008 L 267.1475524902344 130.45454788208008 L 267.1475524902344 77.81818389892578" fill-opacity="1" clip-path="url(#CrNNbgobdsHv)"/><path fill="rgb(130,0,0)" stroke="none" paint-order="stroke" d="M 267.1692810058594 77.81818389892578 L 267.1910070050508 77.81818389892578 L 267.1910070050508 130.45454788208008 L 267.1692810058594 130.45454788208008 L 267.1692810058594 77.81818389892578" fill-opacity="1" clip-path="url(#CrNNbgobdsHv)"/><path fill="rgb(119,0,0)" stroke="none" paint-order="stroke" d="M 267.1910095214844 77.81818389892578 L 267.2127355206758 77.81818389892578 L 267.2127355206758 130.45454788208008 L 267.1910095214844 130.45454788208008 L 267.1910095214844 77.81818389892578" fill-opacity="1" clip-path="url(#CrNNbgobdsHv)"/><path fill="rgb(114,0,0)" stroke="none" paint-order="stroke" d="M 267.2127380371094 77.81818389892578 L 267.23318603634834 77.81818389892578 L 267.23318603634834 130.45454788208008 L 267.2127380371094 130.45454788208008 L 267.2127380371094 77.81818389892578" fill-opacity="1" clip-path="url(#CrNNbgobdsHv)"/><path fill="rgb(0,0,0)" stroke="none" paint-order="stroke" d="M 267.2331848144531 77.81818389892578 L 267.2549108136445 77.81818389892578 L 267.2549108136445 130.45454788208008 L 267.2331848144531 130.45454788208008 L 267.2331848144531 77.81818389892578" fill-opacity="1" clip-path="url(#CrNNbgobdsHv)"/><path fill="rgb(0,0,0)" stroke="none" paint-order="stroke" d="M 267.2549133300781 77.81818389892578 L 267.2753613293171 77.81818389892578 L 267.2753613293171 130.45454788208008 L 267.2549133300781 130.45454788208008 L 267.2549133300781 77.81818389892578" fill-opacity="1" clip-path="url(#CrNNbgobdsHv)"/><path fill="rgb(0,0,0)" stroke="none" paint-order="stroke" d="M 267.2753601074219 77.81818389892578 L 267.2970861066133 77.81818389892578 L 267.2970861066133 130.45454788208008 L 267.2753601074219 130.45454788208008 L 267.2753601074219 77.81818389892578" fill-opacity="1" clip-path="url(#CrNNbgobdsHv)"/><path fill="rgb(0,0,0)" stroke="none" paint-order="stroke" d="M 267.2970886230469 77.81818389892578 L 267.3188146222383 77.81818389892578 L 267.3188146222383 130.45454788208008 L 267.2970886230469 130.45454788208008 L 267.2970886230469 77.81818389892578" fill-opacity="1" clip-path="url(#CrNNbgobdsHv)"/><path fill="rgb(0,0,0)" stroke="none" paint-order="stroke" d="M 267.3188171386719 77.81818389892578 L 267.33926513791084 77.81818389892578 L 267.33926513791084 130.45454788208008 L 267.3188171386719 130.45454788208008 L 267.3188171386719 77.81818389892578" fill-opacity="1" clip-path="url(#CrNNbgobdsHv)"/><path fill="rgb(0,0,0)" stroke="none" paint-order="stroke" d="M 267.3392639160156 77.81818389892578 L 272.8985638618469 77.81818389892578 L 272.8985638618469 130.45454788208008 L 267.3392639160156 130.45454788208008 L 267.3392639160156 77.81818389892578" fill-opacity="1" clip-path="url(#CrNNbgobdsHv)"/><path fill="rgb(0,0,0)" stroke="none" paint-order="stroke" d="M 272.8985595703125 77.81818389892578 L 272.9407335706055 77.81818389892578 L 272.9407335706055 130.45454788208008 L 272.8985595703125 130.45454788208008 L 272.8985595703125 77.81818389892578" fill-opacity="1" clip-path="url(#CrNNbgobdsHv)"/><path fill="rgb(0,0,0)" stroke="none" paint-order="stroke" d="M 272.94073486328125 77.81818389892578 L 272.9611828625202 77.81818389892578 L 272.9611828625202 130.45454788208008 L 272.94073486328125 130.45454788208008 L 272.94073486328125 77.81818389892578" fill-opacity="1" clip-path="url(#CrNNbgobdsHv)"/><path fill="rgb(0,0,0)" stroke="none" paint-order="stroke" d="M 272.961181640625 77.81818389892578 L 272.9829076398164 77.81818389892578 L 272.9829076398164 130.45454788208008 L 272.961181640625 130.45454788208008 L 272.961181640625 77.81818389892578" fill-opacity="1" clip-path="url(#CrNNbgobdsHv)"/><path fill="rgb(0,0,0)" stroke="none" paint-order="stroke" d="M 272.98291015625 77.81818389892578 L 273.0263621546328 77.81818389892578 L 273.0263621546328 130.45454788208008 L 272.98291015625 130.45454788208008 L 272.98291015625 77.81818389892578" fill-opacity="1" clip-path="url(#CrNNbgobdsHv)"/><path fill="rgb(0,0,0)" stroke="none" paint-order="stroke" d="M 273.0263671875 77.81818389892578 L 273.04681518673897 77.81818389892578 L 273.04681518673897 130.45454788208008 L 273.0263671875 130.45454788208008 L 273.0263671875 77.81818389892578" fill-opacity="1" clip-path="url(#CrNNbgobdsHv)"/><path fill="rgb(109,0,0)" stroke="none" paint-order="stroke" d="M 273.04681396484375 77.81818389892578 L 273.06853996403515 77.81818389892578 L 273.06853996403515 130.45454788208008 L 273.04681396484375 130.45454788208008 L 273.04681396484375 77.81818389892578" fill-opacity="1" clip-path="url(#CrNNbgobdsHv)"/><path fill="rgb(133,0,0)" stroke="none" paint-order="stroke" d="M 273.06854248046875 77.81818389892578 L 273.09026847966015 77.81818389892578 L 273.09026847966015 130.45454788208008 L 273.06854248046875 130.45454788208008 L 273.06854248046875 77.81818389892578" fill-opacity="1" clip-path="url(#CrNNbgobdsHv)"/><path fill="rgb(163,0,0)" stroke="none" paint-order="stroke" d="M 273.09027099609375 77.81818389892578 L 273.1107189953327 77.81818389892578 L 273.1107189953327 130.45454788208008 L 273.09027099609375 130.45454788208008 L 273.09027099609375 77.81818389892578" fill-opacity="1" clip-path="url(#CrNNbgobdsHv)"/><path fill="rgb(172,0,0)" stroke="none" paint-order="stroke" d="M 273.1107177734375 77.81818389892578 L 273.1324437726289 77.81818389892578 L 273.1324437726289 130.45454788208008 L 273.1107177734375 130.45454788208008 L 273.1107177734375 77.81818389892578" fill-opacity="1" clip-path="url(#CrNNbgobdsHv)"/><path fill="rgb(181,0,0)" stroke="none" paint-order="stroke" d="M 273.1324462890625 77.81818389892578 L 273.1541722882539 77.81818389892578 L 273.1541722882539 130.45454788208008 L 273.1324462890625 130.45454788208008 L 273.1324462890625 77.81818389892578" fill-opacity="1" clip-path="url(#CrNNbgobdsHv)"/><path fill="rgb(190,0,0)" stroke="none" paint-order="stroke" d="M 273.1541442871094 77.81818389892578 L 273.17459228634834 77.81818389892578 L 273.17459228634834 130.45454788208008 L 273.1541442871094 130.45454788208008 L 273.1541442871094 77.81818389892578" fill-opacity="1" clip-path="url(#CrNNbgobdsHv)"/><path fill="rgb(194,0,0)" stroke="none" paint-order="stroke" d="M 273.1745910644531 77.81818389892578 L 273.1963170636445 77.81818389892578 L 273.1963170636445 130.45454788208008 L 273.1745910644531 130.45454788208008 L 273.1745910644531 77.81818389892578" fill-opacity="1" clip-path="url(#CrNNbgobdsHv)"/><path fill="rgb(203,0,0)" stroke="none" paint-order="stroke" d="M 273.1963195800781 77.81818389892578 L 273.2180455792695 77.81818389892578 L 273.2180455792695 130.45454788208008 L 273.1963195800781 130.45454788208008 L 273.1963195800781 77.81818389892578" fill-opacity="1" clip-path="url(#CrNNbgobdsHv)"/><path fill="rgb(207,0,0)" stroke="none" paint-order="stroke" d="M 273.2180480957031 77.81818389892578 L 273.2384960949421 77.81818389892578 L 273.2384960949421 130.45454788208008 L 273.2180480957031 130.45454788208008 L 273.2180480957031 77.81818389892578" fill-opacity="1" clip-path="url(#CrNNbgobdsHv)"/><path fill="rgb(211,0,0)" stroke="none" paint-order="stroke" d="M 273.2384948730469 77.81818389892578 L 273.2614988721907 77.81818389892578 L 273.2614988721907 130.45454788208008 L 273.2384948730469 130.45454788208008 L 273.2384948730469 77.81818389892578" fill-opacity="1" clip-path="url(#CrNNbgobdsHv)"/><path fill="rgb(216,0,0)" stroke="none" paint-order="stroke" d="M 273.2615051269531 77.81818389892578 L 273.2819531261921 77.81818389892578 L 273.2819531261921 130.45454788208008 L 273.2615051269531 130.45454788208008 L 273.2615051269531 77.81818389892578" fill-opacity="1" clip-path="url(#CrNNbgobdsHv)"/><path fill="rgb(220,0,0)" stroke="none" paint-order="stroke" d="M 273.2819519042969 77.81818389892578 L 273.3241259045899 77.81818389892578 L 273.3241259045899 130.45454788208008 L 273.2819519042969 130.45454788208008 L 273.2819519042969 77.81818389892578" fill-opacity="1" clip-path="url(#CrNNbgobdsHv)"/><path fill="rgb(224,0,0)" stroke="none" paint-order="stroke" d="M 273.3241271972656 77.81818389892578 L 273.345853196457 77.81818389892578 L 273.345853196457 130.45454788208008 L 273.3241271972656 130.45454788208008 L 273.3241271972656 77.81818389892578" fill-opacity="1" clip-path="url(#CrNNbgobdsHv)"/><path fill="rgb(232,0,0)" stroke="none" paint-order="stroke" d="M 273.3458557128906 77.81818389892578 L 273.3663037121296 77.81818389892578 L 273.3663037121296 130.45454788208008 L 273.3458557128906 130.45454788208008 L 273.3458557128906 77.81818389892578" fill-opacity="1" clip-path="url(#CrNNbgobdsHv)"/><path fill="rgb(237,0,0)" stroke="none" paint-order="stroke" d="M 273.3663024902344 77.81818389892578 L 273.38675048947334 77.81818389892578 L 273.38675048947334 130.45454788208008 L 273.3663024902344 130.45454788208008 L 273.3663024902344 77.81818389892578" fill-opacity="1" clip-path="url(#CrNNbgobdsHv)"/><path fill="rgb(242,0,0)" stroke="none" paint-order="stroke" d="M 273.3867492675781 77.81818389892578 L 273.43020126596093 77.81818389892578 L 273.43020126596093 130.45454788208008 L 273.3867492675781 130.45454788208008 L 273.3867492675781 77.81818389892578" fill-opacity="1" clip-path="url(#CrNNbgobdsHv)"/><path fill="rgb(246,0,0)" stroke="none" paint-order="stroke" d="M 273.4302062988281 77.81818389892578 L 273.4519322980195 77.81818389892578 L 273.4519322980195 130.45454788208008 L 273.4302062988281 130.45454788208008 L 273.4302062988281 77.81818389892578" fill-opacity="1" clip-path="url(#CrNNbgobdsHv)"/><path fill="rgb(250,0,0)" stroke="none" paint-order="stroke" d="M 273.4519348144531 77.81818389892578 L 273.4723828136921 77.81818389892578 L 273.4723828136921 130.45454788208008 L 273.4519348144531 130.45454788208008 L 273.4519348144531 77.81818389892578" fill-opacity="1" clip-path="url(#CrNNbgobdsHv)"/><path fill="rgb(255,0,0)" stroke="none" paint-order="stroke" d="M 273.4723815917969 77.81818389892578 L 273.49282959103584 77.81818389892578 L 273.49282959103584 130.45454788208008 L 273.4723815917969 130.45454788208008 L 273.4723815917969 77.81818389892578" fill-opacity="1" clip-path="url(#CrNNbgobdsHv)"/><path fill="rgb(255,21,0)" stroke="none" paint-order="stroke" d="M 273.4928283691406 77.81818389892578 L 273.514554368332 77.81818389892578 L 273.514554368332 130.45454788208008 L 273.4928283691406 130.45454788208008 L 273.4928283691406 77.81818389892578" fill-opacity="1" clip-path="url(#CrNNbgobdsHv)"/><path fill="rgb(255,37,0)" stroke="none" paint-order="stroke" d="M 273.5145568847656 77.81818389892578 L 273.536282883957 77.81818389892578 L 273.536282883957 130.45454788208008 L 273.5145568847656 130.45454788208008 L 273.5145568847656 77.81818389892578" fill-opacity="1" clip-path="url(#CrNNbgobdsHv)"/><path fill="rgb(255,52,0)" stroke="none" paint-order="stroke" d="M 273.5362854003906 77.81818389892578 L 273.5810154005885 77.81818389892578 L 273.5810154005885 130.45454788208008 L 273.5362854003906 130.45454788208008 L 273.5362854003906 77.81818389892578" fill-opacity="1" clip-path="url(#CrNNbgobdsHv)"/><path fill="rgb(255,66,0)" stroke="none" paint-order="stroke" d="M 273.5810241699219 77.81818389892578 L 273.60147216916084 77.81818389892578 L 273.60147216916084 130.45454788208008 L 273.5810241699219 130.45454788208008 L 273.5810241699219 77.81818389892578" fill-opacity="1" clip-path="url(#CrNNbgobdsHv)"/><path fill="rgb(255,78,0)" stroke="none" paint-order="stroke" d="M 273.6014709472656 77.81818389892578 L 273.623196946457 77.81818389892578 L 273.623196946457 130.45454788208008 L 273.6014709472656 130.45454788208008 L 273.6014709472656 77.81818389892578" fill-opacity="1" clip-path="url(#CrNNbgobdsHv)"/><path fill="rgb(255,91,0)" stroke="none" paint-order="stroke" d="M 273.6231689453125 77.81818389892578 L 273.64233894459903 77.81818389892578 L 273.64233894459903 130.45454788208008 L 273.6231689453125 130.45454788208008 L 273.6231689453125 77.81818389892578" fill-opacity="1" clip-path="url(#CrNNbgobdsHv)"/><path fill="rgb(255,103,0)" stroke="none" paint-order="stroke" d="M 273.6423645019531 77.81818389892578 L 273.6640905011445 77.81818389892578 L 273.6640905011445 130.45454788208008 L 273.6423645019531 130.45454788208008 L 273.6423645019531 77.81818389892578" fill-opacity="1" clip-path="url(#CrNNbgobdsHv)"/><path fill="rgb(255,126,0)" stroke="none" paint-order="stroke" d="M 273.6640930175781 77.81818389892578 L 273.70626701787114 77.81818389892578 L 273.70626701787114 130.45454788208008 L 273.6640930175781 130.45454788208008 L 273.6640930175781 77.81818389892578" fill-opacity="1" clip-path="url(#CrNNbgobdsHv)"/><path fill="rgb(255,148,0)" stroke="none" paint-order="stroke" d="M 273.7062683105469 77.81818389892578 L 273.7279943097383 77.81818389892578 L 273.7279943097383 130.45454788208008 L 273.7062683105469 130.45454788208008 L 273.7062683105469 77.81818389892578" fill-opacity="1" clip-path="url(#CrNNbgobdsHv)"/><path fill="rgb(255,158,0)" stroke="none" paint-order="stroke" d="M 273.72796630859375 77.81818389892578 L 273.74969230778515 77.81818389892578 L 273.74969230778515 130.45454788208008 L 273.72796630859375 130.45454788208008 L 273.72796630859375 77.81818389892578" fill-opacity="1" clip-path="url(#CrNNbgobdsHv)"/><path fill="rgb(255,169,0)" stroke="none" paint-order="stroke" d="M 273.74969482421875 77.81818389892578 L 273.7701428234577 77.81818389892578 L 273.7701428234577 130.45454788208008 L 273.74969482421875 130.45454788208008 L 273.74969482421875 77.81818389892578" fill-opacity="1" clip-path="url(#CrNNbgobdsHv)"/><path fill="rgb(255,190,0)" stroke="none" paint-order="stroke" d="M 273.7701416015625 77.81818389892578 L 273.7918676007539 77.81818389892578 L 273.7918676007539 130.45454788208008 L 273.7701416015625 130.45454788208008 L 273.7701416015625 77.81818389892578" fill-opacity="1" clip-path="url(#CrNNbgobdsHv)"/><path fill="rgb(255,210,0)" stroke="none" paint-order="stroke" d="M 273.7918701171875 77.81818389892578 L 273.8135961163789 77.81818389892578 L 273.8135961163789 130.45454788208008 L 273.7918701171875 130.45454788208008 L 273.7918701171875 77.81818389892578" fill-opacity="1" clip-path="url(#CrNNbgobdsHv)"/><path fill="rgb(255,242,0)" stroke="none" paint-order="stroke" d="M 273.8135986328125 77.81818389892578 L 273.83404663205147 77.81818389892578 L 273.83404663205147 130.45454788208008 L 273.8135986328125 130.45454788208008 L 273.8135986328125 77.81818389892578" fill-opacity="1" clip-path="url(#CrNNbgobdsHv)"/><path fill="rgb(240,255,0)" stroke="none" paint-order="stroke" d="M 273.83404541015625 77.81818389892578 L 273.85577140934765 77.81818389892578 L 273.85577140934765 130.45454788208008 L 273.83404541015625 130.45454788208008 L 273.83404541015625 77.81818389892578" fill-opacity="1" clip-path="url(#CrNNbgobdsHv)"/><path fill="rgb(222,255,0)" stroke="none" paint-order="stroke" d="M 273.85577392578125 77.81818389892578 L 273.87749992497265 77.81818389892578 L 273.87749992497265 130.45454788208008 L 273.85577392578125 130.45454788208008 L 273.85577392578125 77.81818389892578" fill-opacity="1" clip-path="url(#CrNNbgobdsHv)"/><path fill="rgb(213,255,0)" stroke="none" paint-order="stroke" d="M 273.87750244140625 77.81818389892578 L 273.9017844405025 77.81818389892578 L 273.9017844405025 130.45454788208008 L 273.87750244140625 130.45454788208008 L 273.87750244140625 77.81818389892578" fill-opacity="1" clip-path="url(#CrNNbgobdsHv)"/><path fill="rgb(204,255,0)" stroke="none" paint-order="stroke" d="M 273.90179443359375 77.81818389892578 L 273.9209644328803 77.81818389892578 L 273.9209644328803 130.45454788208008 L 273.90179443359375 130.45454788208008 L 273.90179443359375 77.81818389892578" fill-opacity="1" clip-path="url(#CrNNbgobdsHv)"/><path fill="rgb(194,255,0)" stroke="none" paint-order="stroke" d="M 273.92095947265625 77.81818389892578 L 273.9605774730444 77.81818389892578 L 273.9605774730444 130.45454788208008 L 273.92095947265625 130.45454788208008 L 273.92095947265625 77.81818389892578" fill-opacity="1" clip-path="url(#CrNNbgobdsHv)"/><path fill="rgb(185,255,0)" stroke="none" paint-order="stroke" d="M 273.9605712890625 77.81818389892578 L 275.02897930145264 77.81818389892578 L 275.02897930145264 130.45454788208008 L 273.9605712890625 130.45454788208008 L 273.9605712890625 77.81818389892578" fill-opacity="1" clip-path="url(#CrNNbgobdsHv)"/><path fill="rgb(169,255,0)" stroke="none" paint-order="stroke" d="M 275.02899169921875 77.81818389892578 L 275.0698876976967 77.81818389892578 L 275.0698876976967 130.45454788208008 L 275.02899169921875 130.45454788208008 L 275.02899169921875 77.81818389892578" fill-opacity="1" clip-path="url(#CrNNbgobdsHv)"/><path fill="rgb(159,255,0)" stroke="none" paint-order="stroke" d="M 275.06988525390625 77.81818389892578 L 275.09161125309765 77.81818389892578 L 275.09161125309765 130.45454788208008 L 275.06988525390625 130.45454788208008 L 275.06988525390625 77.81818389892578" fill-opacity="1" clip-path="url(#CrNNbgobdsHv)"/><path fill="rgb(139,255,0)" stroke="none" paint-order="stroke" d="M 275.09161376953125 77.81818389892578 L 275.1120617687702 77.81818389892578 L 275.1120617687702 130.45454788208008 L 275.09161376953125 130.45454788208008 L 275.09161376953125 77.81818389892578" fill-opacity="1" clip-path="url(#CrNNbgobdsHv)"/><path fill="rgb(119,255,0)" stroke="none" paint-order="stroke" d="M 275.112060546875 77.81818389892578 L 275.1337865460664 77.81818389892578 L 275.1337865460664 130.45454788208008 L 275.112060546875 130.45454788208008 L 275.112060546875 77.81818389892578" fill-opacity="1" clip-path="url(#CrNNbgobdsHv)"/><path fill="rgb(97,255,0)" stroke="none" paint-order="stroke" d="M 275.1337890625 77.81818389892578 L 275.1555150616914 77.81818389892578 L 275.1555150616914 130.45454788208008 L 275.1337890625 130.45454788208008 L 275.1337890625 77.81818389892578" fill-opacity="1" clip-path="url(#CrNNbgobdsHv)"/><path fill="rgb(74,255,0)" stroke="none" paint-order="stroke" d="M 275.155517578125 77.81818389892578 L 275.17596557736397 77.81818389892578 L 275.17596557736397 130.45454788208008 L 275.155517578125 130.45454788208008 L 275.155517578125 77.81818389892578" fill-opacity="1" clip-path="url(#CrNNbgobdsHv)"/><path fill="rgb(62,255,0)" stroke="none" paint-order="stroke" d="M 275.17596435546875 77.81818389892578 L 275.19769035466015 77.81818389892578 L 275.19769035466015 130.45454788208008 L 275.17596435546875 130.45454788208008 L 275.17596435546875 77.81818389892578" fill-opacity="1" clip-path="url(#CrNNbgobdsHv)"/><path fill="rgb(49,255,0)" stroke="none" paint-order="stroke" d="M 275.19769287109375 77.81818389892578 L 275.21941887028515 77.81818389892578 L 275.21941887028515 130.45454788208008 L 275.19769287109375 130.45454788208008 L 275.19769287109375 77.81818389892578" fill-opacity="1" clip-path="url(#CrNNbgobdsHv)"/><path fill="rgb(35,255,0)" stroke="none" paint-order="stroke" d="M 275.2193908691406 77.81818389892578 L 275.2398388683796 77.81818389892578 L 275.2398388683796 130.45454788208008 L 275.2193908691406 130.45454788208008 L 275.2193908691406 77.81818389892578" fill-opacity="1" clip-path="url(#CrNNbgobdsHv)"/><path fill="rgb(20,255,0)" stroke="none" paint-order="stroke" d="M 275.2398681640625 77.81818389892578 L 275.41239815950394 77.81818389892578 L 275.41239815950394 130.45454788208008 L 275.2398681640625 130.45454788208008 L 275.2398681640625 77.81818389892578" fill-opacity="1" clip-path="url(#CrNNbgobdsHv)"/><path fill="rgb(0,255,0)" stroke="none" paint-order="stroke" d="M 275.4123840332031 77.81818389892578 L 275.4341100323945 77.81818389892578 L 275.4341100323945 130.45454788208008 L 275.4123840332031 130.45454788208008 L 275.4123840332031 77.81818389892578" fill-opacity="1" clip-path="url(#CrNNbgobdsHv)"/><path fill="rgb(0,255,55)" stroke="none" paint-order="stroke" d="M 275.4341125488281 77.81818389892578 L 275.45328254811466 77.81818389892578 L 275.45328254811466 130.45454788208008 L 275.4341125488281 130.45454788208008 L 275.4341125488281 77.81818389892578" fill-opacity="1" clip-path="url(#CrNNbgobdsHv)"/><path fill="rgb(0,255,97)" stroke="none" paint-order="stroke" d="M 275.4532775878906 77.81818389892578 L 275.475003587082 77.81818389892578 L 275.475003587082 130.45454788208008 L 275.4532775878906 130.45454788208008 L 275.4532775878906 77.81818389892578" fill-opacity="1" clip-path="url(#CrNNbgobdsHv)"/><path fill="rgb(0,255,169)" stroke="none" paint-order="stroke" d="M 275.4750061035156 77.81818389892578 L 275.4954541027546 77.81818389892578 L 275.4954541027546 130.45454788208008 L 275.4750061035156 130.45454788208008 L 275.4750061035156 77.81818389892578" fill-opacity="1" clip-path="url(#CrNNbgobdsHv)"/><path fill="rgb(0,255,202)" stroke="none" paint-order="stroke" d="M 275.4954528808594 77.81818389892578 L 275.5171788800508 77.81818389892578 L 275.5171788800508 130.45454788208008 L 275.4954528808594 130.45454788208008 L 275.4954528808594 77.81818389892578" fill-opacity="1" clip-path="url(#CrNNbgobdsHv)"/><path fill="rgb(0,246,255)" stroke="none" paint-order="stroke" d="M 275.5171813964844 77.81818389892578 L 275.5389073956758 77.81818389892578 L 275.5389073956758 130.45454788208008 L 275.5171813964844 130.45454788208008 L 275.5171813964844 77.81818389892578" fill-opacity="1" clip-path="url(#CrNNbgobdsHv)"/><path fill="rgb(0,234,255)" stroke="none" paint-order="stroke" d="M 275.5389099121094 77.81818389892578 L 275.5810839124024 77.81818389892578 L 275.5810839124024 130.45454788208008 L 275.5389099121094 130.45454788208008 L 275.5389099121094 77.81818389892578" fill-opacity="1" clip-path="url(#CrNNbgobdsHv)"/><path fill="rgb(0,209,255)" stroke="none" paint-order="stroke" d="M 275.5810852050781 77.81818389892578 L 275.6028112042695 77.81818389892578 L 275.6028112042695 130.45454788208008 L 275.5810852050781 130.45454788208008 L 275.5810852050781 77.81818389892578" fill-opacity="1" clip-path="url(#CrNNbgobdsHv)"/><path fill="rgb(0,182,255)" stroke="none" paint-order="stroke" d="M 275.6028137207031 77.81818389892578 L 275.6245397198945 77.81818389892578 L 275.6245397198945 130.45454788208008 L 275.6028137207031 130.45454788208008 L 275.6028137207031 77.81818389892578" fill-opacity="1" clip-path="url(#CrNNbgobdsHv)"/><path fill="rgb(0,155,255)" stroke="none" paint-order="stroke" d="M 275.6245422363281 77.81818389892578 L 275.66799423471093 77.81818389892578 L 275.66799423471093 130.45454788208008 L 275.6245422363281 130.45454788208008 L 275.6245422363281 77.81818389892578" fill-opacity="1" clip-path="url(#CrNNbgobdsHv)"/><path fill="rgb(0,141,255)" stroke="none" paint-order="stroke" d="M 275.66796875 77.81818389892578 L 275.6896947491914 77.81818389892578 L 275.6896947491914 130.45454788208008 L 275.66796875 130.45454788208008 L 275.66796875 77.81818389892578" fill-opacity="1" clip-path="url(#CrNNbgobdsHv)"/><path fill="rgb(0,112,255)" stroke="none" paint-order="stroke" d="M 275.689697265625 77.81818389892578 L 275.70886726491153 77.81818389892578 L 275.70886726491153 130.45454788208008 L 275.689697265625 130.45454788208008 L 275.689697265625 77.81818389892578" fill-opacity="1" clip-path="url(#CrNNbgobdsHv)"/><path fill="rgb(0,64,255)" stroke="none" paint-order="stroke" d="M 275.7088928222656 77.81818389892578 L 275.730618821457 77.81818389892578 L 275.730618821457 130.45454788208008 L 275.7088928222656 130.45454788208008 L 275.7088928222656 77.81818389892578" fill-opacity="1" clip-path="url(#CrNNbgobdsHv)"/><path fill="rgb(0,0,255)" stroke="none" paint-order="stroke" d="M 275.7305908203125 77.81818389892578 L 275.7523168195039 77.81818389892578 L 275.7523168195039 130.45454788208008 L 275.7305908203125 130.45454788208008 L 275.7305908203125 77.81818389892578" fill-opacity="1" clip-path="url(#CrNNbgobdsHv)"/><path fill="rgb(55,0,230)" stroke="none" paint-order="stroke" d="M 275.7523193359375 77.81818389892578 L 275.77276733517647 77.81818389892578 L 275.77276733517647 130.45454788208008 L 275.7523193359375 130.45454788208008 L 275.7523193359375 77.81818389892578" fill-opacity="1" clip-path="url(#CrNNbgobdsHv)"/><path fill="rgb(83,0,208)" stroke="none" paint-order="stroke" d="M 275.77276611328125 77.81818389892578 L 275.79449211247265 77.81818389892578 L 275.79449211247265 130.45454788208008 L 275.77276611328125 130.45454788208008 L 275.77276611328125 77.81818389892578" fill-opacity="1" clip-path="url(#CrNNbgobdsHv)"/><path fill="rgb(101,0,185)" stroke="none" paint-order="stroke" d="M 275.79449462890625 77.81818389892578 L 275.81622062809765 77.81818389892578 L 275.81622062809765 130.45454788208008 L 275.79449462890625 130.45454788208008 L 275.79449462890625 77.81818389892578" fill-opacity="1" clip-path="url(#CrNNbgobdsHv)"/><path fill="rgb(108,0,170)" stroke="none" paint-order="stroke" d="M 275.81622314453125 77.81818389892578 L 275.8366711437702 77.81818389892578 L 275.8366711437702 130.45454788208008 L 275.81622314453125 130.45454788208008 L 275.81622314453125 77.81818389892578" fill-opacity="1" clip-path="url(#CrNNbgobdsHv)"/><path fill="rgb(111,0,154)" stroke="none" paint-order="stroke" d="M 275.836669921875 77.81818389892578 L 275.8583959210664 77.81818389892578 L 275.8583959210664 130.45454788208008 L 275.836669921875 130.45454788208008 L 275.836669921875 77.81818389892578" fill-opacity="1" clip-path="url(#CrNNbgobdsHv)"/><path fill="rgb(111,0,146)" stroke="none" paint-order="stroke" d="M 275.8583984375 77.81818389892578 L 275.8801244366914 77.81818389892578 L 275.8801244366914 130.45454788208008 L 275.8583984375 130.45454788208008 L 275.8583984375 77.81818389892578" fill-opacity="1" clip-path="url(#CrNNbgobdsHv)"/><path fill="rgb(107,0,120)" stroke="none" paint-order="stroke" d="M 275.880126953125 77.81818389892578 L 275.90057495236397 77.81818389892578 L 275.90057495236397 130.45454788208008 L 275.880126953125 130.45454788208008 L 275.880126953125 77.81818389892578" fill-opacity="1" clip-path="url(#CrNNbgobdsHv)"/><path fill="rgb(104,0,112)" stroke="none" paint-order="stroke" d="M 275.90057373046875 77.81818389892578 L 275.92229972966015 77.81818389892578 L 275.92229972966015 130.45454788208008 L 275.90057373046875 130.45454788208008 L 275.90057373046875 77.81818389892578" fill-opacity="1" clip-path="url(#CrNNbgobdsHv)"/><path fill="rgb(100,0,103)" stroke="none" paint-order="stroke" d="M 275.92230224609375 77.81818389892578 L 275.94402824528515 77.81818389892578 L 275.94402824528515 130.45454788208008 L 275.92230224609375 130.45454788208008 L 275.92230224609375 77.81818389892578" fill-opacity="1" clip-path="url(#CrNNbgobdsHv)"/><path fill="rgb(97,0,97)" stroke="none" paint-order="stroke" d="M 275.94403076171875 77.81818389892578 L 278.58437871932983 77.81818389892578 L 278.58437871932983 130.45454788208008 L 275.94403076171875 130.45454788208008 L 275.94403076171875 77.81818389892578" fill-opacity="1" clip-path="url(#CrNNbgobdsHv)"/><path fill="rgb(102,0,106)" stroke="none" paint-order="stroke" d="M 278.5843811035156 77.81818389892578 L 278.6048291027546 77.81818389892578 L 278.6048291027546 130.45454788208008 L 278.5843811035156 130.45454788208008 L 278.5843811035156 77.81818389892578" fill-opacity="1" clip-path="url(#CrNNbgobdsHv)"/><path fill="rgb(105,0,115)" stroke="none" paint-order="stroke" d="M 278.6048278808594 77.81818389892578 L 278.6265538800508 77.81818389892578 L 278.6265538800508 130.45454788208008 L 278.6048278808594 130.45454788208008 L 278.6048278808594 77.81818389892578" fill-opacity="1" clip-path="url(#CrNNbgobdsHv)"/><path fill="rgb(108,0,123)" stroke="none" paint-order="stroke" d="M 278.6265563964844 77.81818389892578 L 278.6482823956758 77.81818389892578 L 278.6482823956758 130.45454788208008 L 278.6265563964844 130.45454788208008 L 278.6265563964844 77.81818389892578" fill-opacity="1" clip-path="url(#CrNNbgobdsHv)"/><path fill="rgb(94,0,196)" stroke="none" paint-order="stroke" d="M 278.6482849121094 77.81818389892578 L 278.66873291134834 77.81818389892578 L 278.66873291134834 130.45454788208008 L 278.6482849121094 130.45454788208008 L 278.6482849121094 77.81818389892578" fill-opacity="1" clip-path="url(#CrNNbgobdsHv)"/><path fill="rgb(0,33,255)" stroke="none" paint-order="stroke" d="M 278.6687316894531 77.81818389892578 L 278.6904576886445 77.81818389892578 L 278.6904576886445 130.45454788208008 L 278.6687316894531 130.45454788208008 L 278.6687316894531 77.81818389892578" fill-opacity="1" clip-path="url(#CrNNbgobdsHv)"/><path fill="rgb(0,250,255)" stroke="none" paint-order="stroke" d="M 278.6904602050781 77.81818389892578 L 278.7121862042695 77.81818389892578 L 278.7121862042695 130.45454788208008 L 278.6904602050781 130.45454788208008 L 278.6904602050781 77.81818389892578" fill-opacity="1" clip-path="url(#CrNNbgobdsHv)"/><path fill="rgb(8,255,0)" stroke="none" paint-order="stroke" d="M 278.7121887207031 77.81818389892578 L 278.7339147198945 77.81818389892578 L 278.7339147198945 130.45454788208008 L 278.7121887207031 130.45454788208008 L 278.7121887207031 77.81818389892578" fill-opacity="1" clip-path="url(#CrNNbgobdsHv)"/><path fill="rgb(89,255,0)" stroke="none" paint-order="stroke" d="M 278.7339172363281 77.81818389892578 L 278.7543652355671 77.81818389892578 L 278.7543652355671 130.45454788208008 L 278.7339172363281 130.45454788208008 L 278.7339172363281 77.81818389892578" fill-opacity="1" clip-path="url(#CrNNbgobdsHv)"/><path fill="rgb(122,255,0)" stroke="none" paint-order="stroke" d="M 278.7543640136719 77.81818389892578 L 278.7760900128633 77.81818389892578 L 278.7760900128633 130.45454788208008 L 278.7543640136719 130.45454788208008 L 278.7543640136719 77.81818389892578" fill-opacity="1" clip-path="url(#CrNNbgobdsHv)"/><path fill="rgb(132,255,0)" stroke="none" paint-order="stroke" d="M 278.7760925292969 77.81818389892578 L 278.79654052853584 77.81818389892578 L 278.79654052853584 130.45454788208008 L 278.7760925292969 130.45454788208008 L 278.7760925292969 77.81818389892578" fill-opacity="1" clip-path="url(#CrNNbgobdsHv)"/><path fill="rgb(143,255,0)" stroke="none" paint-order="stroke" d="M 278.7965393066406 77.81818389892578 L 278.818265305832 77.81818389892578 L 278.818265305832 130.45454788208008 L 278.7965393066406 130.45454788208008 L 278.7965393066406 77.81818389892578" fill-opacity="1" clip-path="url(#CrNNbgobdsHv)"/><path fill="rgb(153,255,0)" stroke="none" paint-order="stroke" d="M 278.8182678222656 77.81818389892578 L 278.86171982064843 77.81818389892578 L 278.86171982064843 130.45454788208008 L 278.8182678222656 130.45454788208008 L 278.8182678222656 77.81818389892578" fill-opacity="1" clip-path="url(#CrNNbgobdsHv)"/><path fill="rgb(162,255,0)" stroke="none" paint-order="stroke" d="M 278.8616943359375 77.81818389892578 L 278.88214233517647 77.81818389892578 L 278.88214233517647 130.45454788208008 L 278.8616943359375 130.45454788208008 L 278.8616943359375 77.81818389892578" fill-opacity="1" clip-path="url(#CrNNbgobdsHv)"/><path fill="rgb(182,255,0)" stroke="none" paint-order="stroke" d="M 278.88214111328125 77.81818389892578 L 307.89913177490234 77.81818389892578 L 307.89913177490234 130.45454788208008 L 278.88214111328125 130.45454788208008 L 278.88214111328125 77.81818389892578" fill-opacity="1" clip-path="url(#CrNNbgobdsHv)"/><path fill="rgb(251,0,7)" stroke="none" paint-order="stroke" d="M 58.5 130.4545440673828 L 252.74066162109375 130.4545440673828 L 252.74066162109375 183.0909080505371 L 58.5 183.0909080505371 L 58.5 130.4545440673828" fill-opacity="1" clip-path="url(#yEiKIuBTZFtl)"/><path fill="rgb(237,115,111)" stroke="none" paint-order="stroke" d="M 252.74066162109375 130.4545440673828 L 307.89914321899414 130.4545440673828 L 307.89914321899414 183.0909080505371 L 252.74066162109375 183.0909080505371 L 252.74066162109375 130.4545440673828" fill-opacity="1" clip-path="url(#yEiKIuBTZFtl)"/><path fill="rgb(105,29,48)" stroke="none" paint-order="stroke" d="M 261.5141296386719 183.09091186523438 L 261.57802964001894 183.09091186523438 L 261.57802964001894 498.9090881347656 L 261.5141296386719 498.9090881347656 L 261.5141296386719 183.09091186523438" fill-opacity="1" clip-path="url(#VCmrvZpxqQJp)"/><path fill="rgb(162,174,187)" stroke="none" paint-order="stroke" d="M 271.1349182128906 183.09091186523438 L 271.1988182142377 183.09091186523438 L 271.1988182142377 498.9090881347656 L 271.1349182128906 498.9090881347656 L 271.1349182128906 183.09091186523438" fill-opacity="1" clip-path="url(#sdzlIDfgSVNG)"/><path fill="rgb(216,17,89)" stroke="none" paint-order="stroke" d="M 256.7752990722656 183.09091186523438 L 256.8391990736127 183.09091186523438 L 256.8391990736127 498.9090881347656 L 256.7752990722656 498.9090881347656 L 256.7752990722656 183.09091186523438" fill-opacity="1" clip-path="url(#HaurEctfLTsk)"/><path fill="rgb(216,17,89)" stroke="none" paint-order="stroke" d="M 256.7752990722656 183.09091186523438 L 256.8391990736127 183.09091186523438 L 256.8391990736127 498.9090881347656 L 256.7752990722656 498.9090881347656 L 256.7752990722656 183.09091186523438" fill-opacity="1" clip-path="url(#HaurEctfLTsk)"/><path fill="rgb(216,17,89)" stroke="none" paint-order="stroke" d="M 258.6769714355469 183.09091186523438 L 258.74087143689394 183.09091186523438 L 258.74087143689394 498.9090881347656 L 258.6769714355469 498.9090881347656 L 258.6769714355469 183.09091186523438" fill-opacity="1" clip-path="url(#HaurEctfLTsk)"/><path fill="rgb(216,17,89)" stroke="none" paint-order="stroke" d="M 264.0995178222656 183.09091186523438 L 264.1634178236127 183.09091186523438 L 264.1634178236127 498.9090881347656 L 264.0995178222656 498.9090881347656 L 264.0995178222656 183.09091186523438" fill-opacity="1" clip-path="url(#HaurEctfLTsk)"/><path fill="rgb(33,131,128)" stroke="none" paint-order="stroke" d="M 186.4073486328125 183.09091186523438 L 189.24195265769958 183.09091186523438 L 189.24195265769958 498.9090881347656 L 186.4073486328125 498.9090881347656 L 186.4073486328125 183.09091186523438" fill-opacity="1" clip-path="url(#iBebKmKZBcLU)"/><path fill="rgb(33,131,128)" stroke="none" paint-order="stroke" d="M 250.37252807617188 183.09091186523438 L 252.7406620979309 183.09091186523438 L 252.7406620979309 498.9090881347656 L 250.37252807617188 498.9090881347656 L 250.37252807617188 183.09091186523438" fill-opacity="1" clip-path="url(#iBebKmKZBcLU)"/><path fill="rgb(115,210,222)" stroke="none" paint-order="stroke" d="M 287.33868408203125 183.09091186523438 L 288.50166404247284 183.09091186523438 L 288.50166404247284 498.9090881347656 L 287.33868408203125 498.9090881347656 L 287.33868408203125 183.09091186523438" fill-opacity="1" clip-path="url(#EEbGSggvnNfl)"/><path fill="rgb(115,210,222)" stroke="none" paint-order="stroke" d="M 297.66107177734375 183.09091186523438 L 297.7249717786908 183.09091186523438 L 297.7249717786908 498.9090881347656 L 297.66107177734375 498.9090881347656 L 297.66107177734375 183.09091186523438" fill-opacity="1" clip-path="url(#EEbGSggvnNfl)"/><path fill="rgb(115,210,222)" stroke="none" paint-order="stroke" d="M 297.66107177734375 183.09091186523438 L 297.7249717786908 183.09091186523438 L 297.7249717786908 498.9090881347656 L 297.66107177734375 498.9090881347656 L 297.66107177734375 183.09091186523438" fill-opacity="1" clip-path="url(#EEbGSggvnNfl)"/><path fill="rgb(115,210,222)" stroke="none" paint-order="stroke" d="M 297.9345703125 183.09091186523438 L 297.99847031384706 183.09091186523438 L 297.99847031384706 498.9090881347656 L 297.9345703125 498.9090881347656 L 297.9345703125 183.09091186523438" fill-opacity="1" clip-path="url(#EEbGSggvnNfl)"/><path fill="rgb(115,210,222)" stroke="none" paint-order="stroke" d="M 297.9345703125 183.09091186523438 L 297.99847031384706 183.09091186523438 L 297.99847031384706 498.9090881347656 L 297.9345703125 498.9090881347656 L 297.9345703125 183.09091186523438" fill-opacity="1" clip-path="url(#EEbGSggvnNfl)"/><path fill="rgb(115,210,222)" stroke="none" paint-order="stroke" d="M 298.1824951171875 183.09091186523438 L 298.24639511853456 183.09091186523438 L 298.24639511853456 498.9090881347656 L 298.1824951171875 498.9090881347656 L 298.1824951171875 183.09091186523438" fill-opacity="1" clip-path="url(#EEbGSggvnNfl)"/><path fill="rgb(115,210,222)" stroke="none" paint-order="stroke" d="M 298.1824951171875 183.09091186523438 L 298.24639511853456 183.09091186523438 L 298.24639511853456 498.9090881347656 L 298.1824951171875 498.9090881347656 L 298.1824951171875 183.09091186523438" fill-opacity="1" clip-path="url(#EEbGSggvnNfl)"/><path fill="rgb(115,210,222)" stroke="none" paint-order="stroke" d="M 298.42022705078125 183.09091186523438 L 298.4841270521283 183.09091186523438 L 298.4841270521283 498.9090881347656 L 298.42022705078125 498.9090881347656 L 298.42022705078125 183.09091186523438" fill-opacity="1" clip-path="url(#EEbGSggvnNfl)"/><path fill="rgb(115,210,222)" stroke="none" paint-order="stroke" d="M 298.42022705078125 183.09091186523438 L 298.4841270521283 183.09091186523438 L 298.4841270521283 498.9090881347656 L 298.42022705078125 498.9090881347656 L 298.42022705078125 183.09091186523438" fill-opacity="1" clip-path="url(#EEbGSggvnNfl)"/><path fill="rgb(115,210,222)" stroke="none" paint-order="stroke" d="M 298.6758117675781 183.09091186523438 L 298.7397117689252 183.09091186523438 L 298.7397117689252 498.9090881347656 L 298.6758117675781 498.9090881347656 L 298.6758117675781 183.09091186523438" fill-opacity="1" clip-path="url(#EEbGSggvnNfl)"/><path fill="rgb(115,210,222)" stroke="none" paint-order="stroke" d="M 298.6758117675781 183.09091186523438 L 298.7397117689252 183.09091186523438 L 298.7397117689252 498.9090881347656 L 298.6758117675781 498.9090881347656 L 298.6758117675781 183.09091186523438" fill-opacity="1" clip-path="url(#EEbGSggvnNfl)"/><path fill="rgb(115,210,222)" stroke="none" paint-order="stroke" d="M 298.898193359375 183.09091186523438 L 298.96209336072206 183.09091186523438 L 298.96209336072206 498.9090881347656 L 298.898193359375 498.9090881347656 L 298.898193359375 183.09091186523438" fill-opacity="1" clip-path="url(#EEbGSggvnNfl)"/><path fill="rgb(115,210,222)" stroke="none" paint-order="stroke" d="M 298.898193359375 183.09091186523438 L 298.96209336072206 183.09091186523438 L 298.96209336072206 498.9090881347656 L 298.898193359375 498.9090881347656 L 298.898193359375 183.09091186523438" fill-opacity="1" clip-path="url(#EEbGSggvnNfl)"/><path fill="rgb(115,210,222)" stroke="none" paint-order="stroke" d="M 299.17169189453125 183.09091186523438 L 299.2355918958783 183.09091186523438 L 299.2355918958783 498.9090881347656 L 299.17169189453125 498.9090881347656 L 299.17169189453125 183.09091186523438" fill-opacity="1" clip-path="url(#EEbGSggvnNfl)"/><path fill="rgb(115,210,222)" stroke="none" paint-order="stroke" d="M 299.17169189453125 183.09091186523438 L 299.2355918958783 183.09091186523438 L 299.2355918958783 498.9090881347656 L 299.17169189453125 498.9090881347656 L 299.17169189453125 183.09091186523438" fill-opacity="1" clip-path="url(#EEbGSggvnNfl)"/><path fill="rgb(115,210,222)" stroke="none" paint-order="stroke" d="M 299.5346374511719 183.09091186523438 L 299.59853745251894 183.09091186523438 L 299.59853745251894 498.9090881347656 L 299.5346374511719 498.9090881347656 L 299.5346374511719 183.09091186523438" fill-opacity="1" clip-path="url(#EEbGSggvnNfl)"/><path fill="rgb(115,210,222)" stroke="none" paint-order="stroke" d="M 299.5346374511719 183.09091186523438 L 299.59853745251894 183.09091186523438 L 299.59853745251894 498.9090881347656 L 299.5346374511719 498.9090881347656 L 299.5346374511719 183.09091186523438" fill-opacity="1" clip-path="url(#EEbGSggvnNfl)"/><path fill="rgb(115,210,222)" stroke="none" paint-order="stroke" d="M 299.7812805175781 183.09091186523438 L 299.8451805189252 183.09091186523438 L 299.8451805189252 498.9090881347656 L 299.7812805175781 498.9090881347656 L 299.7812805175781 183.09091186523438" fill-opacity="1" clip-path="url(#EEbGSggvnNfl)"/><path fill="rgb(115,210,222)" stroke="none" paint-order="stroke" d="M 299.7812805175781 183.09091186523438 L 299.8451805189252 183.09091186523438 L 299.8451805189252 498.9090881347656 L 299.7812805175781 498.9090881347656 L 299.7812805175781 183.09091186523438" fill-opacity="1" clip-path="url(#EEbGSggvnNfl)"/><path fill="rgb(115,210,222)" stroke="none" paint-order="stroke" d="M 299.9908752441406 183.09091186523438 L 300.0547752454877 183.09091186523438 L 300.0547752454877 498.9090881347656 L 299.9908752441406 498.9090881347656 L 299.9908752441406 183.09091186523438" fill-opacity="1" clip-path="url(#EEbGSggvnNfl)"/><path fill="rgb(115,210,222)" stroke="none" paint-order="stroke" d="M 299.9908752441406 183.09091186523438 L 300.0547752454877 183.09091186523438 L 300.0547752454877 498.9090881347656 L 299.9908752441406 498.9090881347656 L 299.9908752441406 183.09091186523438" fill-opacity="1" clip-path="url(#EEbGSggvnNfl)"/><path fill="rgb(115,210,222)" stroke="none" paint-order="stroke" d="M 300.2132568359375 183.09091186523438 L 300.27715683728456 183.09091186523438 L 300.27715683728456 498.9090881347656 L 300.2132568359375 498.9090881347656 L 300.2132568359375 183.09091186523438" fill-opacity="1" clip-path="url(#EEbGSggvnNfl)"/><path fill="rgb(115,210,222)" stroke="none" paint-order="stroke" d="M 300.2132568359375 183.09091186523438 L 300.27715683728456 183.09091186523438 L 300.27715683728456 498.9090881347656 L 300.2132568359375 498.9090881347656 L 300.2132568359375 183.09091186523438" fill-opacity="1" clip-path="url(#EEbGSggvnNfl)"/><path fill="rgb(115,210,222)" stroke="none" paint-order="stroke" d="M 300.477783203125 183.09091186523438 L 300.54168320447206 183.09091186523438 L 300.54168320447206 498.9090881347656 L 300.477783203125 498.9090881347656 L 300.477783203125 183.09091186523438" fill-opacity="1" clip-path="url(#EEbGSggvnNfl)"/><path fill="rgb(115,210,222)" stroke="none" paint-order="stroke" d="M 300.477783203125 183.09091186523438 L 300.54168320447206 183.09091186523438 L 300.54168320447206 498.9090881347656 L 300.477783203125 498.9090881347656 L 300.477783203125 183.09091186523438" fill-opacity="1" clip-path="url(#EEbGSggvnNfl)"/><path fill="rgb(115,210,222)" stroke="none" paint-order="stroke" d="M 300.6988830566406 183.09091186523438 L 300.7627830579877 183.09091186523438 L 300.7627830579877 498.9090881347656 L 300.6988830566406 498.9090881347656 L 300.6988830566406 183.09091186523438" fill-opacity="1" clip-path="url(#EEbGSggvnNfl)"/><path fill="rgb(115,210,222)" stroke="none" paint-order="stroke" d="M 300.6988830566406 183.09091186523438 L 300.7627830579877 183.09091186523438 L 300.7627830579877 498.9090881347656 L 300.6988830566406 498.9090881347656 L 300.6988830566406 183.09091186523438" fill-opacity="1" clip-path="url(#EEbGSggvnNfl)"/><path fill="rgb(115,210,222)" stroke="none" paint-order="stroke" d="M 300.9289245605469 183.09091186523438 L 300.99282456189394 183.09091186523438 L 300.99282456189394 498.9090881347656 L 300.9289245605469 498.9090881347656 L 300.9289245605469 183.09091186523438" fill-opacity="1" clip-path="url(#EEbGSggvnNfl)"/><path fill="rgb(115,210,222)" stroke="none" paint-order="stroke" d="M 300.9289245605469 183.09091186523438 L 300.99282456189394 183.09091186523438 L 300.99282456189394 498.9090881347656 L 300.9289245605469 498.9090881347656 L 300.9289245605469 183.09091186523438" fill-opacity="1" clip-path="url(#EEbGSggvnNfl)"/><path fill="rgb(115,210,222)" stroke="none" paint-order="stroke" d="M 301.169189453125 183.09091186523438 L 301.23308945447206 183.09091186523438 L 301.23308945447206 498.9090881347656 L 301.169189453125 498.9090881347656 L 301.169189453125 183.09091186523438" fill-opacity="1" clip-path="url(#EEbGSggvnNfl)"/><path fill="rgb(115,210,222)" stroke="none" paint-order="stroke" d="M 301.169189453125 183.09091186523438 L 301.23308945447206 183.09091186523438 L 301.23308945447206 498.9090881347656 L 301.169189453125 498.9090881347656 L 301.169189453125 183.09091186523438" fill-opacity="1" clip-path="url(#EEbGSggvnNfl)"/><path fill="rgb(115,210,222)" stroke="none" paint-order="stroke" d="M 301.4503479003906 183.09091186523438 L 301.5142479017377 183.09091186523438 L 301.5142479017377 498.9090881347656 L 301.4503479003906 498.9090881347656 L 301.4503479003906 183.09091186523438" fill-opacity="1" clip-path="url(#EEbGSggvnNfl)"/><path fill="rgb(115,210,222)" stroke="none" paint-order="stroke" d="M 301.4503479003906 183.09091186523438 L 301.5142479017377 183.09091186523438 L 301.5142479017377 498.9090881347656 L 301.4503479003906 498.9090881347656 L 301.4503479003906 183.09091186523438" fill-opacity="1" clip-path="url(#EEbGSggvnNfl)"/><path fill="rgb(115,210,222)" stroke="none" paint-order="stroke" d="M 301.697021484375 183.09091186523438 L 301.76092148572206 183.09091186523438 L 301.76092148572206 498.9090881347656 L 301.697021484375 498.9090881347656 L 301.697021484375 183.09091186523438" fill-opacity="1" clip-path="url(#EEbGSggvnNfl)"/><path fill="rgb(115,210,222)" stroke="none" paint-order="stroke" d="M 301.697021484375 183.09091186523438 L 301.76092148572206 183.09091186523438 L 301.76092148572206 498.9090881347656 L 301.697021484375 498.9090881347656 L 301.697021484375 183.09091186523438" fill-opacity="1" clip-path="url(#EEbGSggvnNfl)"/><path fill="rgb(115,210,222)" stroke="none" paint-order="stroke" d="M 301.94622802734375 183.09091186523438 L 302.0101280286908 183.09091186523438 L 302.0101280286908 498.9090881347656 L 301.94622802734375 498.9090881347656 L 301.94622802734375 183.09091186523438" fill-opacity="1" clip-path="url(#EEbGSggvnNfl)"/><path fill="rgb(115,210,222)" stroke="none" paint-order="stroke" d="M 301.94622802734375 183.09091186523438 L 302.0101280286908 183.09091186523438 L 302.0101280286908 498.9090881347656 L 301.94622802734375 498.9090881347656 L 301.94622802734375 183.09091186523438" fill-opacity="1" clip-path="url(#EEbGSggvnNfl)"/><path fill="rgb(115,210,222)" stroke="none" paint-order="stroke" d="M 302.1571044921875 183.09091186523438 L 302.22100449353456 183.09091186523438 L 302.22100449353456 498.9090881347656 L 302.1571044921875 498.9090881347656 L 302.1571044921875 183.09091186523438" fill-opacity="1" clip-path="url(#EEbGSggvnNfl)"/><path fill="rgb(115,210,222)" stroke="none" paint-order="stroke" d="M 302.1571044921875 183.09091186523438 L 302.22100449353456 183.09091186523438 L 302.22100449353456 498.9090881347656 L 302.1571044921875 498.9090881347656 L 302.1571044921875 183.09091186523438" fill-opacity="1" clip-path="url(#EEbGSggvnNfl)"/><path fill="rgb(115,210,222)" stroke="none" paint-order="stroke" d="M 303.7916564941406 183.09091186523438 L 303.8555564954877 183.09091186523438 L 303.8555564954877 498.9090881347656 L 303.7916564941406 498.9090881347656 L 303.7916564941406 183.09091186523438" fill-opacity="1" clip-path="url(#EEbGSggvnNfl)"/><path fill="rgb(115,210,222)" stroke="none" paint-order="stroke" d="M 303.7916564941406 183.09091186523438 L 303.8555564954877 183.09091186523438 L 303.8555564954877 498.9090881347656 L 303.7916564941406 498.9090881347656 L 303.7916564941406 183.09091186523438" fill-opacity="1" clip-path="url(#EEbGSggvnNfl)"/><path fill="rgb(115,210,222)" stroke="none" paint-order="stroke" d="M 304.0306396484375 183.09091186523438 L 304.09453964978456 183.09091186523438 L 304.09453964978456 498.9090881347656 L 304.0306396484375 498.9090881347656 L 304.0306396484375 183.09091186523438" fill-opacity="1" clip-path="url(#EEbGSggvnNfl)"/><path fill="rgb(115,210,222)" stroke="none" paint-order="stroke" d="M 304.0306396484375 183.09091186523438 L 304.09453964978456 183.09091186523438 L 304.09453964978456 498.9090881347656 L 304.0306396484375 498.9090881347656 L 304.0306396484375 183.09091186523438" fill-opacity="1" clip-path="url(#EEbGSggvnNfl)"/><path fill="rgb(115,210,222)" stroke="none" paint-order="stroke" d="M 304.27728271484375 183.09091186523438 L 304.3411827161908 183.09091186523438 L 304.3411827161908 498.9090881347656 L 304.27728271484375 498.9090881347656 L 304.27728271484375 183.09091186523438" fill-opacity="1" clip-path="url(#EEbGSggvnNfl)"/><path fill="rgb(115,210,222)" stroke="none" paint-order="stroke" d="M 304.27728271484375 183.09091186523438 L 304.3411827161908 183.09091186523438 L 304.3411827161908 498.9090881347656 L 304.27728271484375 498.9090881347656 L 304.27728271484375 183.09091186523438" fill-opacity="1" clip-path="url(#EEbGSggvnNfl)"/><path fill="rgb(115,210,222)" stroke="none" paint-order="stroke" d="M 304.4715576171875 183.09091186523438 L 304.53545761853456 183.09091186523438 L 304.53545761853456 498.9090881347656 L 304.4715576171875 498.9090881347656 L 304.4715576171875 183.09091186523438" fill-opacity="1" clip-path="url(#EEbGSggvnNfl)"/><path fill="rgb(115,210,222)" stroke="none" paint-order="stroke" d="M 304.4715576171875 183.09091186523438 L 304.53545761853456 183.09091186523438 L 304.53545761853456 498.9090881347656 L 304.4715576171875 498.9090881347656 L 304.4715576171875 183.09091186523438" fill-opacity="1" clip-path="url(#EEbGSggvnNfl)"/><path fill="rgb(115,210,222)" stroke="none" paint-order="stroke" d="M 304.719482421875 183.09091186523438 L 304.78338242322206 183.09091186523438 L 304.78338242322206 498.9090881347656 L 304.719482421875 498.9090881347656 L 304.719482421875 183.09091186523438" fill-opacity="1" clip-path="url(#EEbGSggvnNfl)"/><path fill="rgb(115,210,222)" stroke="none" paint-order="stroke" d="M 304.719482421875 183.09091186523438 L 304.78338242322206 183.09091186523438 L 304.78338242322206 498.9090881347656 L 304.719482421875 498.9090881347656 L 304.719482421875 183.09091186523438" fill-opacity="1" clip-path="url(#EEbGSggvnNfl)"/><path fill="rgb(115,210,222)" stroke="none" paint-order="stroke" d="M 305.22174072265625 183.09091186523438 L 305.2856407240033 183.09091186523438 L 305.2856407240033 498.9090881347656 L 305.22174072265625 498.9090881347656 L 305.22174072265625 183.09091186523438" fill-opacity="1" clip-path="url(#EEbGSggvnNfl)"/><path fill="rgb(115,210,222)" stroke="none" paint-order="stroke" d="M 305.22174072265625 183.09091186523438 L 305.2856407240033 183.09091186523438 L 305.2856407240033 498.9090881347656 L 305.22174072265625 498.9090881347656 L 305.22174072265625 183.09091186523438" fill-opacity="1" clip-path="url(#EEbGSggvnNfl)"/><path fill="rgb(115,210,222)" stroke="none" paint-order="stroke" d="M 305.4249267578125 183.09091186523438 L 305.48882675915956 183.09091186523438 L 305.48882675915956 498.9090881347656 L 305.4249267578125 498.9090881347656 L 305.4249267578125 183.09091186523438" fill-opacity="1" clip-path="url(#EEbGSggvnNfl)"/><path fill="rgb(115,210,222)" stroke="none" paint-order="stroke" d="M 305.4249267578125 183.09091186523438 L 305.48882675915956 183.09091186523438 L 305.48882675915956 498.9090881347656 L 305.4249267578125 498.9090881347656 L 305.4249267578125 183.09091186523438" fill-opacity="1" clip-path="url(#EEbGSggvnNfl)"/><path fill="rgb(115,210,222)" stroke="none" paint-order="stroke" d="M 305.6907653808594 183.09091186523438 L 305.75466538220644 183.09091186523438 L 305.75466538220644 498.9090881347656 L 305.6907653808594 498.9090881347656 L 305.6907653808594 183.09091186523438" fill-opacity="1" clip-path="url(#EEbGSggvnNfl)"/><path fill="rgb(115,210,222)" stroke="none" paint-order="stroke" d="M 305.6907653808594 183.09091186523438 L 305.75466538220644 183.09091186523438 L 305.75466538220644 498.9090881347656 L 305.6907653808594 498.9090881347656 L 305.6907653808594 183.09091186523438" fill-opacity="1" clip-path="url(#EEbGSggvnNfl)"/><path fill="rgb(115,210,222)" stroke="none" paint-order="stroke" d="M 305.8926696777344 183.09091186523438 L 305.95656967908144 183.09091186523438 L 305.95656967908144 498.9090881347656 L 305.8926696777344 498.9090881347656 L 305.8926696777344 183.09091186523438" fill-opacity="1" clip-path="url(#EEbGSggvnNfl)"/><path fill="rgb(115,210,222)" stroke="none" paint-order="stroke" d="M 305.8926696777344 183.09091186523438 L 305.95656967908144 183.09091186523438 L 305.95656967908144 498.9090881347656 L 305.8926696777344 498.9090881347656 L 305.8926696777344 183.09091186523438" fill-opacity="1" clip-path="url(#EEbGSggvnNfl)"/><path fill="rgb(115,210,222)" stroke="none" paint-order="stroke" d="M 306.1687316894531 183.09091186523438 L 306.2326316908002 183.09091186523438 L 306.2326316908002 498.9090881347656 L 306.1687316894531 498.9090881347656 L 306.1687316894531 183.09091186523438" fill-opacity="1" clip-path="url(#EEbGSggvnNfl)"/><path fill="rgb(115,210,222)" stroke="none" paint-order="stroke" d="M 306.1687316894531 183.09091186523438 L 306.2326316908002 183.09091186523438 L 306.2326316908002 498.9090881347656 L 306.1687316894531 498.9090881347656 L 306.1687316894531 183.09091186523438" fill-opacity="1" clip-path="url(#EEbGSggvnNfl)"/><path fill="rgb(115,210,222)" stroke="none" paint-order="stroke" d="M 306.40899658203125 183.09091186523438 L 306.4728965833783 183.09091186523438 L 306.4728965833783 498.9090881347656 L 306.40899658203125 498.9090881347656 L 306.40899658203125 183.09091186523438" fill-opacity="1" clip-path="url(#EEbGSggvnNfl)"/><path fill="rgb(115,210,222)" stroke="none" paint-order="stroke" d="M 306.40899658203125 183.09091186523438 L 306.4728965833783 183.09091186523438 L 306.4728965833783 498.9090881347656 L 306.40899658203125 498.9090881347656 L 306.40899658203125 183.09091186523438" fill-opacity="1" clip-path="url(#EEbGSggvnNfl)"/><path fill="rgb(115,210,222)" stroke="none" paint-order="stroke" d="M 306.6275329589844 183.09091186523438 L 306.69143296033144 183.09091186523438 L 306.69143296033144 498.9090881347656 L 306.6275329589844 498.9090881347656 L 306.6275329589844 183.09091186523438" fill-opacity="1" clip-path="url(#EEbGSggvnNfl)"/><path fill="rgb(115,210,222)" stroke="none" paint-order="stroke" d="M 306.6275329589844 183.09091186523438 L 306.69143296033144 183.09091186523438 L 306.69143296033144 498.9090881347656 L 306.6275329589844 498.9090881347656 L 306.6275329589844 183.09091186523438" fill-opacity="1" clip-path="url(#EEbGSggvnNfl)"/><path fill="rgb(115,210,222)" stroke="none" paint-order="stroke" d="M 306.86651611328125 183.09091186523438 L 306.9304161146283 183.09091186523438 L 306.9304161146283 498.9090881347656 L 306.86651611328125 498.9090881347656 L 306.86651611328125 183.09091186523438" fill-opacity="1" clip-path="url(#EEbGSggvnNfl)"/><path fill="rgb(115,210,222)" stroke="none" paint-order="stroke" d="M 306.86651611328125 183.09091186523438 L 306.9304161146283 183.09091186523438 L 306.9304161146283 498.9090881347656 L 306.86651611328125 498.9090881347656 L 306.86651611328125 183.09091186523438" fill-opacity="1" clip-path="url(#EEbGSggvnNfl)"/><path fill="rgb(28,49,68)" stroke="none" paint-order="stroke" d="M 248.0452880859375 183.09091186523438 L 248.76224607229233 183.09091186523438 L 248.76224607229233 498.9090881347656 L 248.0452880859375 498.9090881347656 L 248.0452880859375 183.09091186523438" fill-opacity="1" clip-path="url(#IRTAfXTFIRSe)"/><path fill="rgb(28,49,68)" stroke="none" paint-order="stroke" d="M 282.1730041503906 183.09091186523438 L 283.76283609867096 183.09091186523438 L 283.76283609867096 498.9090881347656 L 282.1730041503906 498.9090881347656 L 282.1730041503906 183.09091186523438" fill-opacity="1" clip-path="url(#IRTAfXTFIRSe)"/><path fill="rgb(239,185,203)" stroke="none" paint-order="stroke" d="M 64.42736434936523 183.09091186523438 L 183.59830856323242 183.09091186523438 L 183.59830856323242 498.9090881347656 L 64.42736434936523 498.9090881347656 L 64.42736434936523 183.09091186523438" fill-opacity="1" clip-path="url(#oUEkyPELataT)"/><path fill="rgb(239,185,203)" stroke="none" paint-order="stroke" d="M 196.3770294189453 183.09091186523438 L 246.272705078125 183.09091186523438 L 246.272705078125 498.9090881347656 L 196.3770294189453 498.9090881347656 L 196.3770294189453 183.09091186523438" fill-opacity="1" clip-path="url(#oUEkyPELataT)"/><path fill="rgb(239,185,203)" stroke="none" paint-order="stroke" d="M 289.96881103515625 183.09091186523438 L 293.43858098983765 183.09091186523438 L 293.43858098983765 498.9090881347656 L 289.96881103515625 498.9090881347656 L 289.96881103515625 183.09091186523438" fill-opacity="1" clip-path="url(#oUEkyPELataT)"/><path fill="rgb(105,29,48)" stroke="none" paint-order="stroke" d="M 265.3928527832031 183.09091186523438 L 268.07026267051697 183.09091186523438 L 268.07026267051697 498.9090881347656 L 265.3928527832031 498.9090881347656 L 265.3928527832031 183.09091186523438" fill-opacity="1" clip-path="url(#oHJKVgzuQdZk)"/><path fill="rgb(105,29,48)" stroke="none" paint-order="stroke" d="M 272.7388000488281 183.09091186523438 L 273.96184599399567 183.09091186523438 L 273.96184599399567 498.9090881347656 L 272.7388000488281 498.9090881347656 L 272.7388000488281 183.09091186523438" fill-opacity="1" clip-path="url(#oHJKVgzuQdZk)"/><path fill="rgb(105,29,48)" stroke="none" paint-order="stroke" d="M 274.8296203613281 183.09091186523438 L 276.7875163555145 183.09091186523438 L 276.7875163555145 498.9090881347656 L 274.8296203613281 498.9090881347656 L 274.8296203613281 183.09091186523438" fill-opacity="1" clip-path="url(#oHJKVgzuQdZk)"/><path fill="rgb(105,29,48)" stroke="none" paint-order="stroke" d="M 278.4987487792969 183.09091186523438 L 278.8885387778282 183.09091186523438 L 278.8885387778282 498.9090881347656 L 278.4987487792969 498.9090881347656 L 278.4987487792969 183.09091186523438" fill-opacity="1" clip-path="url(#oHJKVgzuQdZk)"/><path fill="rgb(143,45,86)" stroke="none" paint-order="stroke" d="M 58.5 551.5454711914062 L 261.5141296386719 551.5454711914062 L 261.5141296386719 604.1818351745605 L 58.5 604.1818351745605 L 58.5 551.5454711914062" fill-opacity="1" clip-path="url(#hVfiGleRNbQI)"/><path fill="rgb(63,136,197)" stroke="none" paint-order="stroke" d="M 261.5141296386719 551.5454711914062 L 271.13491344451904 551.5454711914062 L 271.13491344451904 604.1818351745605 L 261.5141296386719 604.1818351745605 L 261.5141296386719 551.5454711914062" fill-opacity="1" clip-path="url(#hVfiGleRNbQI)"/><path fill="rgb(81,60,99)" stroke="none" paint-order="stroke" d="M 271.1349182128906 551.5454711914062 L 307.89914321899414 551.5454711914062 L 307.89914321899414 604.1818351745605 L 271.1349182128906 604.1818351745605 L 271.1349182128906 551.5454711914062" fill-opacity="1" clip-path="url(#hVfiGleRNbQI)"/><path fill="none" stroke="rgb(0,0,0)" paint-order="fill" d="M 58.5 77.81818389892578 L 307.8991394042969 77.81818389892578 L 307.8991394042969 604.1818313598633 L 58.5 604.1818313598633 L 58.5 77.81818389892578" stroke-opacity="1" stroke-linejoin="bevel" stroke-miterlimit="10" stroke-dasharray="" clip-path="url(#xTZtJLXpoiDE)"/><path fill="none" stroke="rgb(0,0,0)" paint-order="fill" d="M 58.5 630.5 L 1336.5 630.5" stroke-opacity="1" stroke-linejoin="bevel" stroke-miterlimit="10" stroke-dasharray=""/><path fill="none" stroke="rgb(0,0,0)" paint-order="fill" d="M 58.5 636.5 L 58.5 628.5 M 314.5 636.5 L 314.5 628.5 M 569.5 636.5 L 569.5 628.5 M 825.5 636.5 L 825.5 628.5 M 1080.5 636.5 L 1080.5 628.5 M 1336.5 636.5 L 1336.5 628.5" stroke-opacity="1" stroke-linejoin="bevel" stroke-miterlimit="10" stroke-dasharray=""/><path fill="none" stroke="rgb(0,0,0)" paint-order="fill" d="M 58.5 634.5 L 58.5 630.5 M 109.5 634.5 L 109.5 630.5 M 160.5 634.5 L 160.5 630.5 M 211.5 634.5 L 211.5 630.5 M 262.5 634.5 L 262.5 630.5 M 314.5 634.5 L 314.5 630.5 M 365.5 634.5 L 365.5 630.5 M 416.5 634.5 L 416.5 630.5 M 467.5 634.5 L 467.5 630.5 M 518.5 634.5 L 518.5 630.5 M 569.5 634.5 L 569.5 630.5 M 620.5 634.5 L 620.5 630.5 M 671.5 634.5 L 671.5 630.5 M 723.5 634.5 L 723.5 630.5 M 774.5 634.5 L 774.5 630.5 M 825.5 634.5 L 825.5 630.5 M 876.5 634.5 L 876.5 630.5 M 927.5 634.5 L 927.5 630.5 M 978.5 634.5 L 978.5 630.5 M 1029.5 634.5 L 1029.5 630.5 M 1080.5 634.5 L 1080.5 630.5 M 1132.5 634.5 L 1132.5 630.5 M 1183.5 634.5 L 1183.5 630.5 M 1234.5 634.5 L 1234.5 630.5 M 1285.5 634.5 L 1285.5 630.5 M 1336.5 634.5 L 1336.5 630.5" stroke-opacity="1" stroke-linejoin="bevel" stroke-miterlimit="10" stroke-dasharray=""/><text fill="rgb(68,68,68)" stroke="none" font-family="helvetica" font-size="11px" font-style="normal" font-weight="normal" text-decoration="normal" x="54.94166660308838" y="648.89013671875" text-anchor="start" dominant-baseline="alphabetic" transform="matrix(1, 0, 0, 1, 0.5, 0.5)" fill-opacity="1">0</text><text fill="rgb(68,68,68)" stroke="none" font-family="helvetica" font-size="11px" font-style="normal" font-weight="normal" text-decoration="normal" x="304.42500591278076" y="648.89013671875" text-anchor="start" dominant-baseline="alphabetic" transform="matrix(1, 0, 0, 1, 0.5, 0.5)" fill-opacity="1">200</text><text fill="rgb(68,68,68)" stroke="none" font-family="helvetica" font-size="11px" font-style="normal" font-weight="normal" text-decoration="normal" x="560.0250120162964" y="648.89013671875" text-anchor="start" dominant-baseline="alphabetic" transform="matrix(1, 0, 0, 1, 0.5, 0.5)" fill-opacity="1">400</text><text fill="rgb(68,68,68)" stroke="none" font-family="helvetica" font-size="11px" font-style="normal" font-weight="normal" text-decoration="normal" x="815.6249876022339" y="648.89013671875" text-anchor="start" dominant-baseline="alphabetic" transform="matrix(1, 0, 0, 1, 0.5, 0.5)" fill-opacity="1">600</text><text fill="rgb(68,68,68)" stroke="none" font-family="helvetica" font-size="11px" font-style="normal" font-weight="normal" text-decoration="normal" x="1071.2250242233276" y="648.89013671875" text-anchor="start" dominant-baseline="alphabetic" transform="matrix(1, 0, 0, 1, 0.5, 0.5)" fill-opacity="1">800</text><text fill="rgb(68,68,68)" stroke="none" font-family="helvetica" font-size="11px" font-style="normal" font-weight="normal" text-decoration="normal" x="1323.7666664123535" y="648.89013671875" text-anchor="start" dominant-baseline="alphabetic" transform="matrix(1, 0, 0, 1, 0.5, 0.5)" fill-opacity="1">1000</text><text fill="rgb(68,68,68)" stroke="none" font-family="helvetica" font-size="15pt" font-style="italic" font-weight="normal" text-decoration="normal" x="666.4416675567627" y="676.06982421875" text-anchor="start" dominant-baseline="alphabetic" transform="matrix(1, 0, 0, 1, 0.5, 0.5)" fill-opacity="1">time(s)</text><path fill="none" stroke="rgb(0,0,0)" paint-order="fill" d="M 58.5 630.5 L 58.5 51.5" stroke-opacity="1" stroke-linejoin="bevel" stroke-miterlimit="10" stroke-dasharray=""/><path fill="none" stroke="rgb(0,0,0)" paint-order="fill" d="M 52.5 551.5 L 60.5 551.5 M 52.5 446.5 L 60.5 446.5 M 52.5 341.5 L 60.5 341.5 M 52.5 235.5 L 60.5 235.5 M 52.5 130.5 L 60.5 130.5" stroke-opacity="1" stroke-linejoin="bevel" stroke-miterlimit="10" stroke-dasharray=""/><path fill="none" stroke="rgb(0,0,0)" paint-order="fill" d="M 54.5 572.5 L 58.5 572.5 M 54.5 593.5 L 58.5 593.5 M 54.5 614.5 L 58.5 614.5 M 54.5 551.5 L 58.5 551.5 M 54.5 530.5 L 58.5 530.5 M 54.5 509.5 L 58.5 509.5 M 54.5 488.5 L 58.5 488.5 M 54.5 467.5 L 58.5 467.5 M 54.5 446.5 L 58.5 446.5 M 54.5 425.5 L 58.5 425.5 M 54.5 404.5 L 58.5 404.5 M 54.5 383.5 L 58.5 383.5 M 54.5 362.5 L 58.5 362.5 M 54.5 341.5 L 58.5 341.5 M 54.5 319.5 L 58.5 319.5 M 54.5 298.5 L 58.5 298.5 M 54.5 277.5 L 58.5 277.5 M 54.5 256.5 L 58.5 256.5 M 54.5 235.5 L 58.5 235.5 M 54.5 214.5 L 58.5 214.5 M 54.5 193.5 L 58.5 193.5 M 54.5 172.5 L 58.5 172.5 M 54.5 151.5 L 58.5 151.5 M 54.5 130.5 L 58.5 130.5 M 54.5 109.5 L 58.5 109.5 M 54.5 88.5 L 58.5 88.5 M 54.5 67.5 L 58.5 67.5" stroke-opacity="1" stroke-linejoin="bevel" stroke-miterlimit="10" stroke-dasharray=""/><text fill="rgb(68,68,68)" stroke="none" font-family="helvetica" font-size="11px" font-style="normal" font-weight="normal" text-decoration="normal" x="34.46666622161865" y="554.9905395507812" text-anchor="start" dominant-baseline="alphabetic" transform="matrix(1, 0, 0, 1, 0.5, 0.5)" fill-opacity="1">2</text><text fill="rgb(68,68,68)" stroke="none" font-family="helvetica" font-size="11px" font-style="normal" font-weight="normal" text-decoration="normal" x="34.46666622161865" y="449.7178039550781" text-anchor="start" dominant-baseline="alphabetic" transform="matrix(1, 0, 0, 1, 0.5, 0.5)" fill-opacity="1">1</text><text fill="rgb(68,68,68)" stroke="none" font-family="helvetica" font-size="11px" font-style="normal" font-weight="normal" text-decoration="normal" x="40.88333320617676" y="344.445068359375" text-anchor="start" dominant-baseline="alphabetic" transform="matrix(1, 0, 0, 1, 0.5, 0.5)" fill-opacity="1">0</text><text fill="rgb(68,68,68)" stroke="none" font-family="helvetica" font-size="11px" font-style="normal" font-weight="normal" text-decoration="normal" x="40.88333320617676" y="239.17234802246094" text-anchor="start" dominant-baseline="alphabetic" transform="matrix(1, 0, 0, 1, 0.5, 0.5)" fill-opacity="1">1</text><text fill="rgb(68,68,68)" stroke="none" font-family="helvetica" font-size="11px" font-style="normal" font-weight="normal" text-decoration="normal" x="40.88333320617676" y="133.8996124267578" text-anchor="start" dominant-baseline="alphabetic" transform="matrix(1, 0, 0, 1, 0.5, 0.5)" fill-opacity="1">2</text><text fill="rgb(68,68,68)" stroke="none" font-family="helvetica" font-size="15pt" font-style="italic" font-weight="normal" text-decoration="normal" x="-11.316666603088379" y="336.076171875" text-anchor="start" dominant-baseline="alphabetic" transform="matrix(6.123233995736766e-17, -1, 1, 6.123233995736766e-17, -313.53333377838135, 367.46666622161865)" fill-opacity="1">students</text><path fill="rgb(255,255,255)" stroke="rgb(229,229,229)" paint-order="fill" d="M 1128.2333374023438 61.5 L 1326.5 61.5 L 1326.5 400.5 L 1128.2333374023438 400.5 L 1128.2333374023438 61.5" fill-opacity="0.9490196078431372" clip-path="url(#fkRgbRwfvnTH)" stroke-opacity="0.5019607843137255" stroke-linejoin="bevel" stroke-miterlimit="10" stroke-dasharray=""/><text fill="rgb(68,68,68)" stroke="none" font-family="helvetica" font-size="13px" font-style="normal" font-weight="normal" text-decoration="normal" x="1162.7333374023438" y="81" text-anchor="start" dominant-baseline="central" clip-path="url(#fkRgbRwfvnTH)" transform="matrix(1, 0, 0, 1, 0.5, 0.5)" fill-opacity="1">wavelength</text><path fill="rgb(0,255,40)" stroke="none" paint-order="stroke" d="M 1140.2333374023438 73.5 L 1156.2333374023438 73.5 L 1156.2333374023438 89.5 L 1140.2333374023438 89.5 L 1140.2333374023438 73.5" fill-opacity="1" clip-path="url(#fkRgbRwfvnTH)"/><path fill="rgb(216,17,89)" stroke="none" paint-order="stroke" d="M 1140.2333374023438 73.5 L 1156.2333374023438 73.5 L 1156.2333374023438 89.5 L 1140.2333374023438 89.5 L 1140.2333374023438 73.5" fill-opacity="1" clip-path="url(#fkRgbRwfvnTH)"/><text fill="rgb(68,68,68)" stroke="none" font-family="helvetica" font-size="13px" font-style="normal" font-weight="normal" text-decoration="normal" x="1162.7333374023438" y="104" text-anchor="start" dominant-baseline="central" clip-path="url(#fkRgbRwfvnTH)" transform="matrix(1, 0, 0, 1, 0.5, 0.5)" fill-opacity="1">solution</text><path fill="rgb(251,0,7)" stroke="none" paint-order="stroke" d="M 1140.2333374023438 96.5 L 1156.2333374023438 96.5 L 1156.2333374023438 112.5 L 1140.2333374023438 112.5 L 1140.2333374023438 96.5" fill-opacity="1" clip-path="url(#fkRgbRwfvnTH)"/><path fill="rgb(33,131,128)" stroke="none" paint-order="stroke" d="M 1140.2333374023438 96.5 L 1156.2333374023438 96.5 L 1156.2333374023438 112.5 L 1140.2333374023438 112.5 L 1140.2333374023438 96.5" fill-opacity="1" clip-path="url(#fkRgbRwfvnTH)"/><text fill="rgb(68,68,68)" stroke="none" font-family="helvetica" font-size="13px" font-style="normal" font-weight="normal" text-decoration="normal" x="1162.7333374023438" y="127" text-anchor="start" dominant-baseline="central" clip-path="url(#fkRgbRwfvnTH)" transform="matrix(1, 0, 0, 1, 0.5, 0.5)" fill-opacity="1">laser</text><path fill="rgb(105,29,48)" stroke="none" paint-order="stroke" d="M 1140.2333374023438 119.5 L 1156.2333374023438 119.5 L 1156.2333374023438 135.5 L 1140.2333374023438 135.5 L 1140.2333374023438 119.5" fill-opacity="1" clip-path="url(#fkRgbRwfvnTH)"/><text fill="rgb(68,68,68)" stroke="none" font-family="helvetica" font-size="13px" font-style="normal" font-weight="normal" text-decoration="normal" x="1162.7333374023438" y="150" text-anchor="start" dominant-baseline="central" clip-path="url(#fkRgbRwfvnTH)" transform="matrix(1, 0, 0, 1, 0.5, 0.5)" fill-opacity="1">ruler</text><text fill="rgb(68,68,68)" stroke="none" font-family="helvetica" font-size="13px" font-style="normal" font-weight="normal" text-decoration="normal" x="1162.7333374023438" y="173" text-anchor="start" dominant-baseline="central" clip-path="url(#fkRgbRwfvnTH)" transform="matrix(1, 0, 0, 1, 0.5, 0.5)" fill-opacity="1">restarts</text><text fill="rgb(68,68,68)" stroke="none" font-family="helvetica" font-size="13px" font-style="normal" font-weight="normal" text-decoration="normal" x="1162.7333374023438" y="196" text-anchor="start" dominant-baseline="central" clip-path="url(#fkRgbRwfvnTH)" transform="matrix(1, 0, 0, 1, 0.5, 0.5)" fill-opacity="1">transmittance_absorbance</text><path fill="rgb(162,174,187)" stroke="none" paint-order="stroke" d="M 1140.2333374023438 188.5 L 1156.2333374023438 188.5 L 1156.2333374023438 204.5 L 1140.2333374023438 204.5 L 1140.2333374023438 188.5" fill-opacity="1" clip-path="url(#fkRgbRwfvnTH)"/><text fill="rgb(68,68,68)" stroke="none" font-family="helvetica" font-size="13px" font-style="normal" font-weight="normal" text-decoration="normal" x="1162.7333374023438" y="219" text-anchor="start" dominant-baseline="central" clip-path="url(#fkRgbRwfvnTH)" transform="matrix(1, 0, 0, 1, 0.5, 0.5)" fill-opacity="1">magnifier</text><text fill="rgb(68,68,68)" stroke="none" font-family="helvetica" font-size="13px" font-style="normal" font-weight="normal" text-decoration="normal" x="1162.7333374023438" y="242" text-anchor="start" dominant-baseline="central" clip-path="url(#fkRgbRwfvnTH)" transform="matrix(1, 0, 0, 1, 0.5, 0.5)" fill-opacity="1">concentration</text><path fill="rgb(115,210,222)" stroke="none" paint-order="stroke" d="M 1140.2333374023438 234.5 L 1156.2333374023438 234.5 L 1156.2333374023438 250.5 L 1140.2333374023438 250.5 L 1140.2333374023438 234.5" fill-opacity="1" clip-path="url(#fkRgbRwfvnTH)"/><text fill="rgb(68,68,68)" stroke="none" font-family="helvetica" font-size="13px" font-style="normal" font-weight="normal" text-decoration="normal" x="1162.7333374023438" y="265" text-anchor="start" dominant-baseline="central" clip-path="url(#fkRgbRwfvnTH)" transform="matrix(1, 0, 0, 1, 0.5, 0.5)" fill-opacity="1">flask</text><path fill="rgb(28,49,68)" stroke="none" paint-order="stroke" d="M 1140.2333374023438 257.5 L 1156.2333374023438 257.5 L 1156.2333374023438 273.5 L 1140.2333374023438 273.5 L 1140.2333374023438 257.5" fill-opacity="1" clip-path="url(#fkRgbRwfvnTH)"/><text fill="rgb(68,68,68)" stroke="none" font-family="helvetica" font-size="13px" font-style="normal" font-weight="normal" text-decoration="normal" x="1162.7333374023438" y="288" text-anchor="start" dominant-baseline="central" clip-path="url(#fkRgbRwfvnTH)" transform="matrix(1, 0, 0, 1, 0.5, 0.5)" fill-opacity="1">pdf</text><path fill="rgb(239,185,203)" stroke="none" paint-order="stroke" d="M 1140.2333374023438 280.5 L 1156.2333374023438 280.5 L 1156.2333374023438 296.5 L 1140.2333374023438 296.5 L 1140.2333374023438 280.5" fill-opacity="1" clip-path="url(#fkRgbRwfvnTH)"/><text fill="rgb(68,68,68)" stroke="none" font-family="helvetica" font-size="13px" font-style="normal" font-weight="normal" text-decoration="normal" x="1162.7333374023438" y="311" text-anchor="start" dominant-baseline="central" clip-path="url(#fkRgbRwfvnTH)" transform="matrix(1, 0, 0, 1, 0.5, 0.5)" fill-opacity="1">concentrationlab</text><text fill="rgb(68,68,68)" stroke="none" font-family="helvetica" font-size="13px" font-style="normal" font-weight="normal" text-decoration="normal" x="1162.7333374023438" y="334" text-anchor="start" dominant-baseline="central" clip-path="url(#fkRgbRwfvnTH)" transform="matrix(1, 0, 0, 1, 0.5, 0.5)" fill-opacity="1">wavelength_slider</text><path fill="rgb(105,29,48)" stroke="none" paint-order="stroke" d="M 1140.2333374023438 326.5 L 1156.2333374023438 326.5 L 1156.2333374023438 342.5 L 1140.2333374023438 342.5 L 1140.2333374023438 326.5" fill-opacity="1" clip-path="url(#fkRgbRwfvnTH)"/><text fill="rgb(68,68,68)" stroke="none" font-family="helvetica" font-size="13px" font-style="normal" font-weight="normal" text-decoration="normal" x="1162.7333374023438" y="357" text-anchor="start" dominant-baseline="central" clip-path="url(#fkRgbRwfvnTH)" transform="matrix(1, 0, 0, 1, 0.5, 0.5)" fill-opacity="1">ruler measuring</text><text fill="rgb(68,68,68)" stroke="none" font-family="helvetica" font-size="13px" font-style="normal" font-weight="normal" text-decoration="normal" x="1162.7333374023438" y="380" text-anchor="start" dominant-baseline="central" clip-path="url(#fkRgbRwfvnTH)" transform="matrix(1, 0, 0, 1, 0.5, 0.5)" fill-opacity="1">dependent variable</text><path fill="rgb(143,45,86)" stroke="none" paint-order="stroke" d="M 1140.2333374023438 372.5 L 1156.2333374023438 372.5 L 1156.2333374023438 388.5 L 1140.2333374023438 388.5 L 1140.2333374023438 372.5" fill-opacity="1" clip-path="url(#fkRgbRwfvnTH)"/><text fill="rgb(68,68,68)" stroke="none" font-family="helvetica" font-size="25pt" font-style="normal" font-weight="bold" text-decoration="normal" x="58" y="38.740885416666664" text-anchor="start" dominant-baseline="alphabetic" transform="matrix(1, 0, 0, 1, 0.5, 0.5)" fill-opacity="1">Timeline for student pqd874qd with permutation missing for task 3</text></svg>