<svg version="1.1" xmlns="http://www.w3.org/2000/svg" width="1366" height="683"><defs><clipPath id="INLuepnqPUtW"><path fill="none" stroke="none" d="M 58.5 51.5 L 1336.5 51.5 L 1336.5 630.5 L 58.5 630.5 L 58.5 51.5"/></clipPath><clipPath id="scIAiyZbxvLr"><path fill="none" stroke="none" d="M 58.5 51.5 L 1336.5 51.5 L 1336.5 630.5 L 58.5 630.5 L 58.5 51.5"/></clipPath><clipPath id="sSiTzArCTame"><path fill="none" stroke="none" d="M 58.5 51.5 L 1336.5 51.5 L 1336.5 630.5 L 58.5 630.5 L 58.5 51.5"/></clipPath><clipPath id="IFpLAckBAsBi"><path fill="none" stroke="none" d="M 58.5 51.5 L 1336.5 51.5 L 1336.5 630.5 L 58.5 630.5 L 58.5 51.5"/></clipPath><clipPath id="GZcDRTuIkrzI"><path fill="none" stroke="none" d="M 58.5 51.5 L 1336.5 51.5 L 1336.5 630.5 L 58.5 630.5 L 58.5 51.5"/></clipPath><clipPath id="JPxJukmhpVAs"><path fill="none" stroke="none" d="M 58.5 51.5 L 1336.5 51.5 L 1336.5 630.5 L 58.5 630.5 L 58.5 51.5"/></clipPath><clipPath id="gCyDUtADTNCf"><path fill="none" stroke="none" d="M 58.5 51.5 L 1336.5 51.5 L 1336.5 630.5 L 58.5 630.5 L 58.5 51.5"/></clipPath><clipPath id="TJTkvQWpQtuv"><path fill="none" stroke="none" d="M 58.5 51.5 L 1336.5 51.5 L 1336.5 630.5 L 58.5 630.5 L 58.5 51.5"/></clipPath><clipPath id="PhuIeyizePFL"><path fill="none" stroke="none" d="M 58.5 51.5 L 1336.5 51.5 L 1336.5 630.5 L 58.5 630.5 L 58.5 51.5"/></clipPath><clipPath id="NsTUBaxwkbEf"><path fill="none" stroke="none" d="M 58.5 51.5 L 1336.5 51.5 L 1336.5 630.5 L 58.5 630.5 L 58.5 51.5"/></clipPath><clipPath id="oRsFPUrFhPRX"><path fill="none" stroke="none" d="M 58.5 51.5 L 1336.5 51.5 L 1336.5 630.5 L 58.5 630.5 L 58.5 51.5"/></clipPath><clipPath id="swRhTWkWnnEe"><path fill="none" stroke="none" d="M 58.5 51.5 L 1336.5 51.5 L 1336.5 630.5 L 58.5 630.5 L 58.5 51.5"/></clipPath><clipPath id="BHSFfvzXsofL"><path fill="none" stroke="none" d="M 58.5 51.5 L 1336.5 51.5 L 1336.5 630.5 L 58.5 630.5 L 58.5 51.5"/></clipPath><clipPath id="vOsZzpLzKMco"><path fill="none" stroke="none" d="M 58.5 51.5 L 1336.5 51.5 L 1336.5 630.5 L 58.5 630.5 L 58.5 51.5"/></clipPath><clipPath id="rZtbyGiqdnNx"><path fill="none" stroke="none" d="M 58.5 51.5 L 1336.5 51.5 L 1336.5 630.5 L 58.5 630.5 L 58.5 51.5"/></clipPath><clipPath id="VTUJOIlhPssL"><path fill="none" stroke="none" d="M 58.5 51.5 L 1336.5 51.5 L 1336.5 630.5 L 58.5 630.5 L 58.5 51.5"/></clipPath><clipPath id="DdFMPwypoNhw"><path fill="none" stroke="none" d="M 58.5 51.5 L 1336.5 51.5 L 1336.5 630.5 L 58.5 630.5 L 58.5 51.5"/></clipPath><clipPath id="vSeQWSvxhbSr"><path fill="none" stroke="none" d="M 58.5 51.5 L 1336.5 51.5 L 1336.5 630.5 L 58.5 630.5 L 58.5 51.5"/></clipPath><clipPath id="QKtrufuhybIm"><path fill="none" stroke="none" d="M 58.5 51.5 L 1336.5 51.5 L 1336.5 630.5 L 58.5 630.5 L 58.5 51.5"/></clipPath><clipPath id="rcFLrKnMTqWX"><path fill="none" stroke="none" d="M 58.5 51.5 L 1336.5 51.5 L 1336.5 630.5 L 58.5 630.5 L 58.5 51.5"/></clipPath><clipPath id="MwwTipRCusld"><path fill="none" stroke="none" d="M 58.5 51.5 L 1336.5 51.5 L 1336.5 630.5 L 58.5 630.5 L 58.5 51.5"/></clipPath></defs><path fill="rgb(255,255,255)" stroke="none" paint-order="stroke" d="M 0.5 0.5 L 1366.5 0.5 L 1366.5 683.5 L 0.5 683.5 L 0.5 0.5" fill-opacity="1"/><rect fill="#FFFFFF" stroke="none" x="58" y="51" width="1278" height="579" transform="matrix(1, 0, 0, 1, 0.5, 0.5)"/><path fill="rgb(255,255,255)" stroke="none" paint-order="stroke" d="M 58.5 51.5 L 1336.5 51.5 L 1336.5 630.5 L 58.5 630.5 L 58.5 51.5" fill-opacity="1"/><path fill="none" stroke="rgb(229,229,229)" paint-order="fill" d="M 58.5 51.5 L 1336.5 51.5 L 1336.5 630.5 L 58.5 630.5 L 58.5 51.5" stroke-opacity="1" stroke-linejoin="bevel" stroke-miterlimit="10" stroke-dasharray=""/><path fill="none" stroke="rgb(229,229,229)" paint-order="fill" d="M 314.5 630.5 L 314.5 51.5 M 569.5 630.5 L 569.5 51.5 M 825.5 630.5 L 825.5 51.5 M 1080.5 630.5 L 1080.5 51.5" stroke-opacity="1" stroke-linejoin="bevel" stroke-miterlimit="10" stroke-dasharray="" clip-path="url(#INLuepnqPUtW)"/><path fill="none" stroke="rgb(229,229,229)" paint-order="fill" d="M 58.5 551.5 L 1336.5 551.5 M 58.5 446.5 L 1336.5 446.5 M 58.5 341.5 L 1336.5 341.5 M 58.5 235.5 L 1336.5 235.5 M 58.5 130.5 L 1336.5 130.5" stroke-opacity="1" stroke-linejoin="bevel" stroke-miterlimit="10" stroke-dasharray="" clip-path="url(#scIAiyZbxvLr)"/><path fill="rgb(0,255,40)" stroke="none" paint-order="stroke" d="M 58.5 77.81818389892578 L 93.88143157958984 77.81818389892578 L 93.88143157958984 130.45454788208008 L 58.5 130.45454788208008 L 58.5 77.81818389892578" fill-opacity="1" clip-path="url(#sSiTzArCTame)"/><path fill="rgb(14,255,0)" stroke="none" paint-order="stroke" d="M 93.88143157958984 77.81818389892578 L 93.90187957882881 77.81818389892578 L 93.90187957882881 130.45454788208008 L 93.88143157958984 130.45454788208008 L 93.88143157958984 77.81818389892578" fill-opacity="1" clip-path="url(#sSiTzArCTame)"/><path fill="rgb(40,255,0)" stroke="none" paint-order="stroke" d="M 93.9018783569336 77.81818389892578 L 93.93766235560179 77.81818389892578 L 93.93766235560179 130.45454788208008 L 93.9018783569336 130.45454788208008 L 93.9018783569336 77.81818389892578" fill-opacity="1" clip-path="url(#sSiTzArCTame)"/><path fill="rgb(58,255,0)" stroke="none" paint-order="stroke" d="M 93.93766021728516 77.81818389892578 L 94.00922821462154 77.81818389892578 L 94.00922821462154 130.45454788208008 L 93.93766021728516 130.45454788208008 L 93.93766021728516 77.81818389892578" fill-opacity="1" clip-path="url(#sSiTzArCTame)"/><path fill="rgb(78,255,0)" stroke="none" paint-order="stroke" d="M 94.00923156738281 77.81818389892578 L 94.05268356576562 77.81818389892578 L 94.05268356576562 130.45454788208008 L 94.00923156738281 130.45454788208008 L 94.00923156738281 77.81818389892578" fill-opacity="1" clip-path="url(#sSiTzArCTame)"/><path fill="rgb(97,255,0)" stroke="none" paint-order="stroke" d="M 94.05268096923828 77.81818389892578 L 94.0948549695313 77.81818389892578 L 94.0948549695313 130.45454788208008 L 94.05268096923828 130.45454788208008 L 94.05268096923828 77.81818389892578" fill-opacity="1" clip-path="url(#sSiTzArCTame)"/><path fill="rgb(111,255,0)" stroke="none" paint-order="stroke" d="M 94.09485626220703 77.81818389892578 L 94.115304261446 77.81818389892578 L 94.115304261446 130.45454788208008 L 94.09485626220703 130.45454788208008 L 94.09485626220703 77.81818389892578" fill-opacity="1" clip-path="url(#sSiTzArCTame)"/><path fill="rgb(129,255,0)" stroke="none" paint-order="stroke" d="M 94.11530303955078 77.81818389892578 L 94.15875503793359 77.81818389892578 L 94.15875503793359 130.45454788208008 L 94.11530303955078 130.45454788208008 L 94.11530303955078 77.81818389892578" fill-opacity="1" clip-path="url(#sSiTzArCTame)"/><path fill="rgb(146,255,0)" stroke="none" paint-order="stroke" d="M 94.15875244140625 77.81818389892578 L 94.17920044064522 77.81818389892578 L 94.17920044064522 130.45454788208008 L 94.15875244140625 130.45454788208008 L 94.15875244140625 77.81818389892578" fill-opacity="1" clip-path="url(#sSiTzArCTame)"/><path fill="rgb(159,255,0)" stroke="none" paint-order="stroke" d="M 94.17920684814453 77.81818389892578 L 94.20093284733593 77.81818389892578 L 94.20093284733593 130.45454788208008 L 94.17920684814453 130.45454788208008 L 94.17920684814453 77.81818389892578" fill-opacity="1" clip-path="url(#sSiTzArCTame)"/><path fill="rgb(175,255,0)" stroke="none" paint-order="stroke" d="M 94.200927734375 77.81818389892578 L 94.2226537335664 77.81818389892578 L 94.2226537335664 130.45454788208008 L 94.200927734375 130.45454788208008 L 94.200927734375 77.81818389892578" fill-opacity="1" clip-path="url(#sSiTzArCTame)"/><path fill="rgb(191,255,0)" stroke="none" paint-order="stroke" d="M 94.22265625 77.81818389892578 L 94.26483025029302 77.81818389892578 L 94.26483025029302 130.45454788208008 L 94.22265625 130.45454788208008 L 94.22265625 77.81818389892578" fill-opacity="1" clip-path="url(#sSiTzArCTame)"/><path fill="rgb(204,255,0)" stroke="none" paint-order="stroke" d="M 94.26483154296875 77.81818389892578 L 94.30700554326177 77.81818389892578 L 94.30700554326177 130.45454788208008 L 94.26483154296875 130.45454788208008 L 94.26483154296875 77.81818389892578" fill-opacity="1" clip-path="url(#sSiTzArCTame)"/><path fill="rgb(219,255,0)" stroke="none" paint-order="stroke" d="M 94.3070068359375 77.81818389892578 L 94.41435883939266 77.81818389892578 L 94.41435883939266 130.45454788208008 L 94.3070068359375 130.45454788208008 L 94.3070068359375 77.81818389892578" fill-opacity="1" clip-path="url(#sSiTzArCTame)"/><path fill="rgb(231,255,0)" stroke="none" paint-order="stroke" d="M 94.41435241699219 77.81818389892578 L 94.44119041785598 77.81818389892578 L 94.44119041785598 130.45454788208008 L 94.41435241699219 130.45454788208008 L 94.41435241699219 77.81818389892578" fill-opacity="1" clip-path="url(#sSiTzArCTame)"/><path fill="rgb(246,255,0)" stroke="none" paint-order="stroke" d="M 94.44119262695312 77.81818389892578 L 94.4782546274364 77.81818389892578 L 94.4782546274364 130.45454788208008 L 94.44119262695312 130.45454788208008 L 94.44119262695312 77.81818389892578" fill-opacity="1" clip-path="url(#sSiTzArCTame)"/><path fill="rgb(255,248,0)" stroke="none" paint-order="stroke" d="M 94.47825622558594 77.81818389892578 L 94.49998222477734 77.81818389892578 L 94.49998222477734 130.45454788208008 L 94.47825622558594 130.45454788208008 L 94.47825622558594 77.81818389892578" fill-opacity="1" clip-path="url(#sSiTzArCTame)"/><path fill="rgb(255,235,0)" stroke="none" paint-order="stroke" d="M 94.49998474121094 77.81818389892578 L 94.5204327404499 77.81818389892578 L 94.5204327404499 130.45454788208008 L 94.49998474121094 130.45454788208008 L 94.49998474121094 77.81818389892578" fill-opacity="1" clip-path="url(#sSiTzArCTame)"/><path fill="rgb(255,203,0)" stroke="none" paint-order="stroke" d="M 94.52043151855469 77.81818389892578 L 94.54215751774609 77.81818389892578 L 94.54215751774609 130.45454788208008 L 94.52043151855469 130.45454788208008 L 94.52043151855469 77.81818389892578" fill-opacity="1" clip-path="url(#sSiTzArCTame)"/><path fill="rgb(255,190,0)" stroke="none" paint-order="stroke" d="M 94.54215240478516 77.81818389892578 L 94.565156403929 77.81818389892578 L 94.565156403929 130.45454788208008 L 94.54215240478516 130.45454788208008 L 94.54215240478516 77.81818389892578" fill-opacity="1" clip-path="url(#sSiTzArCTame)"/><path fill="rgb(255,172,0)" stroke="none" paint-order="stroke" d="M 94.5651626586914 77.81818389892578 L 94.58433265797794 77.81818389892578 L 94.58433265797794 130.45454788208008 L 94.5651626586914 130.45454788208008 L 94.5651626586914 77.81818389892578" fill-opacity="1" clip-path="url(#sSiTzArCTame)"/><path fill="rgb(255,141,0)" stroke="none" paint-order="stroke" d="M 94.5843276977539 77.81818389892578 L 94.62650169804692 77.81818389892578 L 94.62650169804692 130.45454788208008 L 94.5843276977539 130.45454788208008 L 94.5843276977539 77.81818389892578" fill-opacity="1" clip-path="url(#sSiTzArCTame)"/><path fill="rgb(255,122,0)" stroke="none" paint-order="stroke" d="M 94.62650299072266 77.81818389892578 L 94.66995498910546 77.81818389892578 L 94.66995498910546 130.45454788208008 L 94.62650299072266 130.45454788208008 L 94.62650299072266 77.81818389892578" fill-opacity="1" clip-path="url(#sSiTzArCTame)"/><path fill="rgb(255,107,0)" stroke="none" paint-order="stroke" d="M 94.66995239257812 77.81818389892578 L 94.92427438497543 77.81818389892578 L 94.92427438497543 130.45454788208008 L 94.66995239257812 130.45454788208008 L 94.66995239257812 77.81818389892578" fill-opacity="1" clip-path="url(#sSiTzArCTame)"/><path fill="rgb(255,87,0)" stroke="none" paint-order="stroke" d="M 94.92427825927734 77.81818389892578 L 94.98817826062441 77.81818389892578 L 94.98817826062441 130.45454788208008 L 94.92427825927734 130.45454788208008 L 94.92427825927734 77.81818389892578" fill-opacity="1" clip-path="url(#sSiTzArCTame)"/><path fill="rgb(255,66,0)" stroke="none" paint-order="stroke" d="M 94.98817443847656 77.81818389892578 L 95.3076744377613 77.81818389892578 L 95.3076744377613 130.45454788208008 L 94.98817443847656 130.45454788208008 L 94.98817443847656 77.81818389892578" fill-opacity="1" clip-path="url(#sSiTzArCTame)"/><path fill="rgb(255,47,0)" stroke="none" paint-order="stroke" d="M 95.30767822265625 77.81818389892578 L 95.3728562220931 77.81818389892578 L 95.3728562220931 130.45454788208008 L 95.30767822265625 130.45454788208008 L 95.30767822265625 77.81818389892578" fill-opacity="1" clip-path="url(#sSiTzArCTame)"/><path fill="rgb(255,21,0)" stroke="none" paint-order="stroke" d="M 95.37285614013672 77.81818389892578 L 95.45848213881254 77.81818389892578 L 95.45848213881254 130.45454788208008 L 95.37285614013672 130.45454788208008 L 95.37285614013672 77.81818389892578" fill-opacity="1" clip-path="url(#sSiTzArCTame)"/><path fill="rgb(252,0,0)" stroke="none" paint-order="stroke" d="M 95.45848083496094 77.81818389892578 L 95.4789288341999 77.81818389892578 L 95.4789288341999 130.45454788208008 L 95.45848083496094 130.45454788208008 L 95.45848083496094 77.81818389892578" fill-opacity="1" clip-path="url(#sSiTzArCTame)"/><path fill="rgb(246,0,0)" stroke="none" paint-order="stroke" d="M 95.47892761230469 77.81818389892578 L 95.5211016125977 77.81818389892578 L 95.5211016125977 130.45454788208008 L 95.47892761230469 130.45454788208008 L 95.47892761230469 77.81818389892578" fill-opacity="1" clip-path="url(#sSiTzArCTame)"/><path fill="rgb(239,0,0)" stroke="none" paint-order="stroke" d="M 95.52110290527344 77.81818389892578 L 95.81887689232826 77.81818389892578 L 95.81887689232826 130.45454788208008 L 95.52110290527344 130.45454788208008 L 95.52110290527344 77.81818389892578" fill-opacity="1" clip-path="url(#sSiTzArCTame)"/><path fill="rgb(232,0,0)" stroke="none" paint-order="stroke" d="M 95.81887817382812 77.81818389892578 L 95.84188217297196 77.81818389892578 L 95.84188217297196 130.45454788208008 L 95.81887817382812 130.45454788208008 L 95.81887817382812 77.81818389892578" fill-opacity="1" clip-path="url(#sSiTzArCTame)"/><path fill="rgb(227,0,0)" stroke="none" paint-order="stroke" d="M 95.84188079833984 77.81818389892578 L 95.86488479748368 77.81818389892578 L 95.86488479748368 130.45454788208008 L 95.84188079833984 130.45454788208008 L 95.84188079833984 77.81818389892578" fill-opacity="1" clip-path="url(#sSiTzArCTame)"/><path fill="rgb(220,0,0)" stroke="none" paint-order="stroke" d="M 95.86488342285156 77.81818389892578 L 95.88533142209053 77.81818389892578 L 95.88533142209053 130.45454788208008 L 95.86488342285156 130.45454788208008 L 95.86488342285156 77.81818389892578" fill-opacity="1" clip-path="url(#sSiTzArCTame)"/><path fill="rgb(213,0,0)" stroke="none" paint-order="stroke" d="M 95.88533020019531 77.81818389892578 L 95.90705619938672 77.81818389892578 L 95.90705619938672 130.45454788208008 L 95.88533020019531 130.45454788208008 L 95.88533020019531 77.81818389892578" fill-opacity="1" clip-path="url(#sSiTzArCTame)"/><path fill="rgb(207,0,0)" stroke="none" paint-order="stroke" d="M 95.90705871582031 77.81818389892578 L 95.94795471429825 77.81818389892578 L 95.94795471429825 130.45454788208008 L 95.90705871582031 130.45454788208008 L 95.90705871582031 77.81818389892578" fill-opacity="1" clip-path="url(#sSiTzArCTame)"/><path fill="rgb(200,0,0)" stroke="none" paint-order="stroke" d="M 95.94795227050781 77.81818389892578 L 95.96967826969922 77.81818389892578 L 95.96967826969922 130.45454788208008 L 95.94795227050781 130.45454788208008 L 95.94795227050781 77.81818389892578" fill-opacity="1" clip-path="url(#sSiTzArCTame)"/><path fill="rgb(194,0,0)" stroke="none" paint-order="stroke" d="M 95.96968078613281 77.81818389892578 L 96.03230278939009 77.81818389892578 L 96.03230278939009 130.45454788208008 L 95.96968078613281 130.45454788208008 L 95.96968078613281 77.81818389892578" fill-opacity="1" clip-path="url(#sSiTzArCTame)"/><path fill="rgb(187,0,0)" stroke="none" paint-order="stroke" d="M 96.03230285644531 77.81818389892578 L 96.07575485482812 77.81818389892578 L 96.07575485482812 130.45454788208008 L 96.03230285644531 130.45454788208008 L 96.03230285644531 77.81818389892578" fill-opacity="1" clip-path="url(#sSiTzArCTame)"/><path fill="rgb(179,0,0)" stroke="none" paint-order="stroke" d="M 96.07575225830078 77.81818389892578 L 96.1179262585938 77.81818389892578 L 96.1179262585938 130.45454788208008 L 96.07575225830078 130.45454788208008 L 96.07575225830078 77.81818389892578" fill-opacity="1" clip-path="url(#sSiTzArCTame)"/><path fill="rgb(173,0,0)" stroke="none" paint-order="stroke" d="M 96.11792755126953 77.81818389892578 L 96.13965355046093 77.81818389892578 L 96.13965355046093 130.45454788208008 L 96.11792755126953 130.45454788208008 L 96.11792755126953 77.81818389892578" fill-opacity="1" clip-path="url(#sSiTzArCTame)"/><path fill="rgb(166,0,0)" stroke="none" paint-order="stroke" d="M 96.13965606689453 77.81818389892578 L 96.22400406748056 77.81818389892578 L 96.22400406748056 130.45454788208008 L 96.13965606689453 130.45454788208008 L 96.13965606689453 77.81818389892578" fill-opacity="1" clip-path="url(#sSiTzArCTame)"/><path fill="rgb(158,0,0)" stroke="none" paint-order="stroke" d="M 96.22400665283203 77.81818389892578 L 96.244454652071 77.81818389892578 L 96.244454652071 130.45454788208008 L 96.22400665283203 130.45454788208008 L 96.22400665283203 77.81818389892578" fill-opacity="1" clip-path="url(#sSiTzArCTame)"/><path fill="rgb(152,0,0)" stroke="none" paint-order="stroke" d="M 96.24445343017578 77.81818389892578 L 96.28918343037367 77.81818389892578 L 96.28918343037367 130.45454788208008 L 96.24445343017578 130.45454788208008 L 96.24445343017578 77.81818389892578" fill-opacity="1" clip-path="url(#sSiTzArCTame)"/><path fill="rgb(137,0,0)" stroke="none" paint-order="stroke" d="M 96.2891845703125 77.81818389892578 L 96.60868456959724 77.81818389892578 L 96.60868456959724 130.45454788208008 L 96.2891845703125 130.45454788208008 L 96.2891845703125 77.81818389892578" fill-opacity="1" clip-path="url(#sSiTzArCTame)"/><path fill="rgb(122,0,0)" stroke="none" paint-order="stroke" d="M 96.60868072509766 77.81818389892578 L 96.65085472539067 77.81818389892578 L 96.65085472539067 130.45454788208008 L 96.60868072509766 130.45454788208008 L 96.60868072509766 77.81818389892578" fill-opacity="1" clip-path="url(#sSiTzArCTame)"/><path fill="rgb(107,0,0)" stroke="none" paint-order="stroke" d="M 96.6508560180664 77.81818389892578 L 96.69430801644921 77.81818389892578 L 96.69430801644921 130.45454788208008 L 96.6508560180664 130.45454788208008 L 96.6508560180664 77.81818389892578" fill-opacity="1" clip-path="url(#sSiTzArCTame)"/><path fill="rgb(99,0,0)" stroke="none" paint-order="stroke" d="M 96.69430541992188 77.81818389892578 L 96.71475341916084 77.81818389892578 L 96.71475341916084 130.45454788208008 L 96.69430541992188 130.45454788208008 L 96.69430541992188 77.81818389892578" fill-opacity="1" clip-path="url(#sSiTzArCTame)"/><path fill="rgb(0,0,0)" stroke="none" paint-order="stroke" d="M 96.71475219726562 77.81818389892578 L 96.73647819645703 77.81818389892578 L 96.73647819645703 130.45454788208008 L 96.71475219726562 130.45454788208008 L 96.71475219726562 77.81818389892578" fill-opacity="1" clip-path="url(#sSiTzArCTame)"/><path fill="rgb(0,0,0)" stroke="none" paint-order="stroke" d="M 96.73648071289062 77.81818389892578 L 96.7569287121296 77.81818389892578 L 96.7569287121296 130.45454788208008 L 96.73648071289062 130.45454788208008 L 96.73648071289062 77.81818389892578" fill-opacity="1" clip-path="url(#sSiTzArCTame)"/><path fill="rgb(0,0,0)" stroke="none" paint-order="stroke" d="M 96.75692749023438 77.81818389892578 L 96.77865348942578 77.81818389892578 L 96.77865348942578 130.45454788208008 L 96.75692749023438 130.45454788208008 L 96.75692749023438 77.81818389892578" fill-opacity="1" clip-path="url(#sSiTzArCTame)"/><path fill="rgb(0,0,0)" stroke="none" paint-order="stroke" d="M 96.77865600585938 77.81818389892578 L 98.077103972435 77.81818389892578 L 98.077103972435 130.45454788208008 L 96.77865600585938 130.45454788208008 L 96.77865600585938 77.81818389892578" fill-opacity="1" clip-path="url(#sSiTzArCTame)"/><path fill="rgb(107,0,0)" stroke="none" paint-order="stroke" d="M 98.07710266113281 77.81818389892578 L 98.10010666027665 77.81818389892578 L 98.10010666027665 130.45454788208008 L 98.07710266113281 130.45454788208008 L 98.07710266113281 77.81818389892578" fill-opacity="1" clip-path="url(#sSiTzArCTame)"/><path fill="rgb(152,0,0)" stroke="none" paint-order="stroke" d="M 98.10010528564453 77.81818389892578 L 98.12183128483593 77.81818389892578 L 98.12183128483593 130.45454788208008 L 98.10010528564453 130.45454788208008 L 98.10010528564453 77.81818389892578" fill-opacity="1" clip-path="url(#sSiTzArCTame)"/><path fill="rgb(179,0,0)" stroke="none" paint-order="stroke" d="M 98.12183380126953 77.81818389892578 L 98.14867180213332 77.81818389892578 L 98.14867180213332 130.45454788208008 L 98.12183380126953 130.45454788208008 L 98.12183380126953 77.81818389892578" fill-opacity="1" clip-path="url(#sSiTzArCTame)"/><path fill="rgb(200,0,0)" stroke="none" paint-order="stroke" d="M 98.14867401123047 77.81818389892578 L 98.167844010517 77.81818389892578 L 98.167844010517 130.45454788208008 L 98.14867401123047 130.45454788208008 L 98.14867401123047 77.81818389892578" fill-opacity="1" clip-path="url(#sSiTzArCTame)"/><path fill="rgb(232,0,0)" stroke="none" paint-order="stroke" d="M 98.16783905029297 77.81818389892578 L 98.18828704953194 77.81818389892578 L 98.18828704953194 130.45454788208008 L 98.16783905029297 130.45454788208008 L 98.16783905029297 77.81818389892578" fill-opacity="1" clip-path="url(#sSiTzArCTame)"/><path fill="rgb(255,66,0)" stroke="none" paint-order="stroke" d="M 98.18829345703125 77.81818389892578 L 98.20618545636535 77.81818389892578 L 98.20618545636535 130.45454788208008 L 98.18829345703125 130.45454788208008 L 98.18829345703125 77.81818389892578" fill-opacity="1" clip-path="url(#sSiTzArCTame)"/><path fill="rgb(255,122,0)" stroke="none" paint-order="stroke" d="M 98.20618438720703 77.81818389892578 L 98.22918838635087 77.81818389892578 L 98.22918838635087 130.45454788208008 L 98.20618438720703 130.45454788208008 L 98.20618438720703 77.81818389892578" fill-opacity="1" clip-path="url(#sSiTzArCTame)"/><path fill="rgb(255,219,0)" stroke="none" paint-order="stroke" d="M 98.22918701171875 77.81818389892578 L 98.24835701100528 77.81818389892578 L 98.24835701100528 130.45454788208008 L 98.22918701171875 130.45454788208008 L 98.22918701171875 77.81818389892578" fill-opacity="1" clip-path="url(#sSiTzArCTame)"/><path fill="rgb(246,255,0)" stroke="none" paint-order="stroke" d="M 98.24835968017578 77.81818389892578 L 98.27136367931962 77.81818389892578 L 98.27136367931962 130.45454788208008 L 98.24835968017578 130.45454788208008 L 98.24835968017578 77.81818389892578" fill-opacity="1" clip-path="url(#sSiTzArCTame)"/><path fill="rgb(204,255,0)" stroke="none" paint-order="stroke" d="M 98.2713623046875 77.81818389892578 L 98.29053230397403 77.81818389892578 L 98.29053230397403 130.45454788208008 L 98.2713623046875 130.45454788208008 L 98.2713623046875 77.81818389892578" fill-opacity="1" clip-path="url(#sSiTzArCTame)"/><path fill="rgb(191,255,0)" stroke="none" paint-order="stroke" d="M 98.29052734375 77.81818389892578 L 98.3122533429414 77.81818389892578 L 98.3122533429414 130.45454788208008 L 98.29052734375 130.45454788208008 L 98.29052734375 77.81818389892578" fill-opacity="1" clip-path="url(#sSiTzArCTame)"/><path fill="rgb(159,255,0)" stroke="none" paint-order="stroke" d="M 98.312255859375 77.81818389892578 L 98.3339818585664 77.81818389892578 L 98.3339818585664 130.45454788208008 L 98.312255859375 130.45454788208008 L 98.312255859375 77.81818389892578" fill-opacity="1" clip-path="url(#sSiTzArCTame)"/><path fill="rgb(111,255,0)" stroke="none" paint-order="stroke" d="M 98.333984375 77.81818389892578 L 98.3557103741914 77.81818389892578 L 98.3557103741914 130.45454788208008 L 98.333984375 130.45454788208008 L 98.333984375 77.81818389892578" fill-opacity="1" clip-path="url(#sSiTzArCTame)"/><path fill="rgb(14,255,0)" stroke="none" paint-order="stroke" d="M 98.35570526123047 77.81818389892578 L 98.37615326046944 77.81818389892578 L 98.37615326046944 130.45454788208008 L 98.35570526123047 130.45454788208008 L 98.35570526123047 77.81818389892578" fill-opacity="1" clip-path="url(#sSiTzArCTame)"/><path fill="rgb(0,255,110)" stroke="none" paint-order="stroke" d="M 98.37615966796875 77.81818389892578 L 98.39788566716015 77.81818389892578 L 98.39788566716015 130.45454788208008 L 98.37615966796875 130.45454788208008 L 98.37615966796875 77.81818389892578" fill-opacity="1" clip-path="url(#sSiTzArCTame)"/><path fill="rgb(0,230,255)" stroke="none" paint-order="stroke" d="M 98.39788055419922 77.81818389892578 L 98.41960655339062 77.81818389892578 L 98.41960655339062 130.45454788208008 L 98.39788055419922 130.45454788208008 L 98.39788055419922 77.81818389892578" fill-opacity="1" clip-path="url(#sSiTzArCTame)"/><path fill="rgb(0,191,255)" stroke="none" paint-order="stroke" d="M 98.41960906982422 77.81818389892578 L 98.44005706906319 77.81818389892578 L 98.44005706906319 130.45454788208008 L 98.41960906982422 130.45454788208008 L 98.41960906982422 77.81818389892578" fill-opacity="1" clip-path="url(#sSiTzArCTame)"/><path fill="rgb(0,151,255)" stroke="none" paint-order="stroke" d="M 98.44005584716797 77.81818389892578 L 98.46178184635937 77.81818389892578 L 98.46178184635937 130.45454788208008 L 98.44005584716797 130.45454788208008 L 98.44005584716797 77.81818389892578" fill-opacity="1" clip-path="url(#sSiTzArCTame)"/><path fill="rgb(0,102,255)" stroke="none" paint-order="stroke" d="M 98.46178436279297 77.81818389892578 L 98.48606636188924 77.81818389892578 L 98.48606636188924 130.45454788208008 L 98.46178436279297 130.45454788208008 L 98.46178436279297 77.81818389892578" fill-opacity="1" clip-path="url(#sSiTzArCTame)"/><path fill="rgb(0,52,255)" stroke="none" paint-order="stroke" d="M 98.4860610961914 77.81818389892578 L 98.51545509696007 77.81818389892578 L 98.51545509696007 130.45454788208008 L 98.4860610961914 130.45454788208008 L 98.4860610961914 77.81818389892578" fill-opacity="1" clip-path="url(#sSiTzArCTame)"/><path fill="rgb(42,0,238)" stroke="none" paint-order="stroke" d="M 98.51545715332031 77.81818389892578 L 98.55635315179825 77.81818389892578 L 98.55635315179825 130.45454788208008 L 98.51545715332031 130.45454788208008 L 98.51545715332031 77.81818389892578" fill-opacity="1" clip-path="url(#sSiTzArCTame)"/><path fill="rgb(75,0,216)" stroke="none" paint-order="stroke" d="M 98.55635070800781 77.81818389892578 L 98.57807670719922 77.81818389892578 L 98.57807670719922 130.45454788208008 L 98.55635070800781 130.45454788208008 L 98.55635070800781 77.81818389892578" fill-opacity="1" clip-path="url(#sSiTzArCTame)"/><path fill="rgb(87,0,203)" stroke="none" paint-order="stroke" d="M 98.57807922363281 77.81818389892578 L 98.59980522282422 77.81818389892578 L 98.59980522282422 130.45454788208008 L 98.57807922363281 130.45454788208008 L 98.57807922363281 77.81818389892578" fill-opacity="1" clip-path="url(#sSiTzArCTame)"/><path fill="rgb(103,0,180)" stroke="none" paint-order="stroke" d="M 98.59980773925781 77.81818389892578 L 98.62281173840165 77.81818389892578 L 98.62281173840165 130.45454788208008 L 98.59980773925781 130.45454788208008 L 98.59980773925781 77.81818389892578" fill-opacity="1" clip-path="url(#sSiTzArCTame)"/><path fill="rgb(108,0,167)" stroke="none" paint-order="stroke" d="M 98.62281036376953 77.81818389892578 L 98.64581436291337 77.81818389892578 L 98.64581436291337 130.45454788208008 L 98.62281036376953 130.45454788208008 L 98.62281036376953 77.81818389892578" fill-opacity="1" clip-path="url(#sSiTzArCTame)"/><path fill="rgb(110,0,132)" stroke="none" paint-order="stroke" d="M 98.64581298828125 77.81818389892578 L 98.67520698904991 77.81818389892578 L 98.67520698904991 130.45454788208008 L 98.64581298828125 130.45454788208008 L 98.64581298828125 77.81818389892578" fill-opacity="1" clip-path="url(#sSiTzArCTame)"/><path fill="rgb(106,0,118)" stroke="none" paint-order="stroke" d="M 98.67520904541016 77.81818389892578 L 98.69949104450643 77.81818389892578 L 98.69949104450643 130.45454788208008 L 98.67520904541016 130.45454788208008 L 98.67520904541016 77.81818389892578" fill-opacity="1" clip-path="url(#sSiTzArCTame)"/><path fill="rgb(97,0,97)" stroke="none" paint-order="stroke" d="M 98.69949340820312 77.81818389892578 L 99.69633340835571 77.81818389892578 L 99.69633340835571 130.45454788208008 L 98.69949340820312 130.45454788208008 L 98.69949340820312 77.81818389892578" fill-opacity="1" clip-path="url(#sSiTzArCTame)"/><path fill="rgb(100,0,103)" stroke="none" paint-order="stroke" d="M 99.69632720947266 77.81818389892578 L 99.76022721081972 77.81818389892578 L 99.76022721081972 130.45454788208008 L 99.69632720947266 130.45454788208008 L 99.69632720947266 77.81818389892578" fill-opacity="1" clip-path="url(#sSiTzArCTame)"/><path fill="rgb(106,0,118)" stroke="none" paint-order="stroke" d="M 99.7602310180664 77.81818389892578 L 99.78067901730537 77.81818389892578 L 99.78067901730537 130.45454788208008 L 99.7602310180664 130.45454788208008 L 99.7602310180664 77.81818389892578" fill-opacity="1" clip-path="url(#sSiTzArCTame)"/><path fill="rgb(110,0,132)" stroke="none" paint-order="stroke" d="M 99.78067779541016 77.81818389892578 L 99.80240379460156 77.81818389892578 L 99.80240379460156 130.45454788208008 L 99.78067779541016 130.45454788208008 L 99.78067779541016 77.81818389892578" fill-opacity="1" clip-path="url(#sSiTzArCTame)"/><path fill="rgb(111,0,143)" stroke="none" paint-order="stroke" d="M 99.80240631103516 77.81818389892578 L 99.82668831013143 77.81818389892578 L 99.82668831013143 130.45454788208008 L 99.80240631103516 130.45454788208008 L 99.80240631103516 77.81818389892578" fill-opacity="1" clip-path="url(#sSiTzArCTame)"/><path fill="rgb(111,0,156)" stroke="none" paint-order="stroke" d="M 99.8266830444336 77.81818389892578 L 99.88802704587579 77.81818389892578 L 99.88802704587579 130.45454788208008 L 99.8266830444336 130.45454788208008 L 99.8266830444336 77.81818389892578" fill-opacity="1" clip-path="url(#sSiTzArCTame)"/><path fill="rgb(108,0,167)" stroke="none" paint-order="stroke" d="M 99.88803100585938 77.81818389892578 L 99.90847900509834 77.81818389892578 L 99.90847900509834 130.45454788208008 L 99.88803100585938 130.45454788208008 L 99.88803100585938 77.81818389892578" fill-opacity="1" clip-path="url(#sSiTzArCTame)"/><path fill="rgb(103,0,180)" stroke="none" paint-order="stroke" d="M 99.90847778320312 77.81818389892578 L 99.93403778411448 77.81818389892578 L 99.93403778411448 130.45454788208008 L 99.90847778320312 130.45454788208008 L 99.90847778320312 77.81818389892578" fill-opacity="1" clip-path="url(#sSiTzArCTame)"/><path fill="rgb(96,0,193)" stroke="none" paint-order="stroke" d="M 99.93403625488281 77.81818389892578 L 99.97237625345588 77.81818389892578 L 99.97237625345588 130.45454788208008 L 99.93403625488281 130.45454788208008 L 99.93403625488281 77.81818389892578" fill-opacity="1" clip-path="url(#sSiTzArCTame)"/><path fill="rgb(87,0,203)" stroke="none" paint-order="stroke" d="M 99.97238159179688 77.81818389892578 L 100.50530761480331 77.81818389892578 L 100.50530761480331 130.45454788208008 L 99.97238159179688 130.45454788208008 L 99.97238159179688 77.81818389892578" fill-opacity="1" clip-path="url(#sSiTzArCTame)"/><path fill="rgb(75,0,216)" stroke="none" paint-order="stroke" d="M 100.50530242919922 77.81818389892578 L 100.63310243189335 77.81818389892578 L 100.63310243189335 130.45454788208008 L 100.50530242919922 130.45454788208008 L 100.50530242919922 77.81818389892578" fill-opacity="1" clip-path="url(#sSiTzArCTame)"/><path fill="rgb(58,0,228)" stroke="none" paint-order="stroke" d="M 100.63310241699219 77.81818389892578 L 100.65610641613603 77.81818389892578 L 100.65610641613603 130.45454788208008 L 100.63310241699219 130.45454788208008 L 100.63310241699219 77.81818389892578" fill-opacity="1" clip-path="url(#sSiTzArCTame)"/><path fill="rgb(42,0,238)" stroke="none" paint-order="stroke" d="M 100.6561050415039 77.81818389892578 L 100.6829430423677 77.81818389892578 L 100.6829430423677 130.45454788208008 L 100.6561050415039 130.45454788208008 L 100.6561050415039 77.81818389892578" fill-opacity="1" clip-path="url(#sSiTzArCTame)"/><path fill="rgb(16,0,250)" stroke="none" paint-order="stroke" d="M 100.68294525146484 77.81818389892578 L 100.72000725194812 77.81818389892578 L 100.72000725194812 130.45454788208008 L 100.68294525146484 130.45454788208008 L 100.68294525146484 77.81818389892578" fill-opacity="1" clip-path="url(#sSiTzArCTame)"/><path fill="rgb(0,26,255)" stroke="none" paint-order="stroke" d="M 100.72000885009766 77.81818389892578 L 101.12257885932922 77.81818389892578 L 101.12257885932922 130.45454788208008 L 100.72000885009766 130.45454788208008 L 100.72000885009766 77.81818389892578" fill-opacity="1" clip-path="url(#sSiTzArCTame)"/><path fill="rgb(0,52,255)" stroke="none" paint-order="stroke" d="M 101.1225814819336 77.81818389892578 L 101.18775948137045 77.81818389892578 L 101.18775948137045 130.45454788208008 L 101.1225814819336 130.45454788208008 L 101.1225814819336 77.81818389892578" fill-opacity="1" clip-path="url(#sSiTzArCTame)"/><path fill="rgb(0,81,255)" stroke="none" paint-order="stroke" d="M 101.18775939941406 77.81818389892578 L 101.25165940076113 77.81818389892578 L 101.25165940076113 130.45454788208008 L 101.18775939941406 130.45454788208008 L 101.18775939941406 77.81818389892578" fill-opacity="1" clip-path="url(#sSiTzArCTame)"/><path fill="rgb(0,102,255)" stroke="none" paint-order="stroke" d="M 101.25165557861328 77.81818389892578 L 101.33600357919931 77.81818389892578 L 101.33600357919931 130.45454788208008 L 101.25165557861328 130.45454788208008 L 101.25165557861328 77.81818389892578" fill-opacity="1" clip-path="url(#sSiTzArCTame)"/><path fill="rgb(0,127,255)" stroke="none" paint-order="stroke" d="M 101.33600616455078 77.81818389892578 L 101.35901016369462 77.81818389892578 L 101.35901016369462 130.45454788208008 L 101.33600616455078 130.45454788208008 L 101.33600616455078 77.81818389892578" fill-opacity="1" clip-path="url(#sSiTzArCTame)"/><path fill="rgb(0,151,255)" stroke="none" paint-order="stroke" d="M 101.3590087890625 77.81818389892578 L 101.38712478987873 77.81818389892578 L 101.38712478987873 130.45454788208008 L 101.3590087890625 130.45454788208008 L 101.3590087890625 77.81818389892578" fill-opacity="1" clip-path="url(#sSiTzArCTame)"/><path fill="rgb(0,169,255)" stroke="none" paint-order="stroke" d="M 101.38712310791016 77.81818389892578 L 101.4446331076324 77.81818389892578 L 101.4446331076324 130.45454788208008 L 101.38712310791016 130.45454788208008 L 101.38712310791016 77.81818389892578" fill-opacity="1" clip-path="url(#sSiTzArCTame)"/><path fill="rgb(0,191,255)" stroke="none" paint-order="stroke" d="M 101.44463348388672 77.81818389892578 L 101.50981148332357 77.81818389892578 L 101.50981148332357 130.45454788208008 L 101.44463348388672 130.45454788208008 L 101.44463348388672 77.81818389892578" fill-opacity="1" clip-path="url(#sSiTzArCTame)"/><path fill="rgb(0,213,255)" stroke="none" paint-order="stroke" d="M 101.50981140136719 77.81818389892578 L 101.80502939224243 77.81818389892578 L 101.80502939224243 130.45454788208008 L 101.50981140136719 130.45454788208008 L 101.50981140136719 77.81818389892578" fill-opacity="1" clip-path="url(#sSiTzArCTame)"/><path fill="rgb(0,230,255)" stroke="none" paint-order="stroke" d="M 101.8050308227539 77.81818389892578 L 101.9111048206687 77.81818389892578 L 101.9111048206687 130.45454788208008 L 101.8050308227539 130.45454788208008 L 101.8050308227539 77.81818389892578" fill-opacity="1" clip-path="url(#sSiTzArCTame)"/><path fill="rgb(0,250,255)" stroke="none" paint-order="stroke" d="M 101.91110229492188 77.81818389892578 L 101.93282829411328 77.81818389892578 L 101.93282829411328 130.45454788208008 L 101.91110229492188 130.45454788208008 L 101.91110229492188 77.81818389892578" fill-opacity="1" clip-path="url(#sSiTzArCTame)"/><path fill="rgb(0,255,213)" stroke="none" paint-order="stroke" d="M 101.93283081054688 77.81818389892578 L 101.97628280892968 77.81818389892578 L 101.97628280892968 130.45454788208008 L 101.93283081054688 130.45454788208008 L 101.93283081054688 77.81818389892578" fill-opacity="1" clip-path="url(#sSiTzArCTame)"/><path fill="rgb(0,255,169)" stroke="none" paint-order="stroke" d="M 101.97628021240234 77.81818389892578 L 101.99672821164131 77.81818389892578 L 101.99672821164131 130.45454788208008 L 101.97628021240234 130.45454788208008 L 101.97628021240234 77.81818389892578" fill-opacity="1" clip-path="url(#sSiTzArCTame)"/><path fill="rgb(0,255,110)" stroke="none" paint-order="stroke" d="M 101.9967269897461 77.81818389892578 L 102.12580499053001 77.81818389892578 L 102.12580499053001 130.45454788208008 L 101.9967269897461 130.45454788208008 L 101.9967269897461 77.81818389892578" fill-opacity="1" clip-path="url(#sSiTzArCTame)"/><path fill="rgb(0,255,40)" stroke="none" paint-order="stroke" d="M 102.12580871582031 77.81818389892578 L 102.25233072042465 77.81818389892578 L 102.25233072042465 130.45454788208008 L 102.12580871582031 130.45454788208008 L 102.12580871582031 77.81818389892578" fill-opacity="1" clip-path="url(#sSiTzArCTame)"/><path fill="rgb(14,255,0)" stroke="none" paint-order="stroke" d="M 102.25232696533203 77.81818389892578 L 102.42230096459389 77.81818389892578 L 102.42230096459389 130.45454788208008 L 102.25232696533203 130.45454788208008 L 102.25232696533203 77.81818389892578" fill-opacity="1" clip-path="url(#sSiTzArCTame)"/><path fill="rgb(40,255,0)" stroke="none" paint-order="stroke" d="M 102.42230224609375 77.81818389892578 L 102.80570223927498 77.81818389892578 L 102.80570223927498 130.45454788208008 L 102.42230224609375 130.45454788208008 L 102.42230224609375 77.81818389892578" fill-opacity="1" clip-path="url(#sSiTzArCTame)"/><path fill="rgb(58,255,0)" stroke="none" paint-order="stroke" d="M 102.80570220947266 77.81818389892578 L 102.8287062086165 77.81818389892578 L 102.8287062086165 130.45454788208008 L 102.80570220947266 130.45454788208008 L 102.80570220947266 77.81818389892578" fill-opacity="1" clip-path="url(#sSiTzArCTame)"/><path fill="rgb(78,255,0)" stroke="none" paint-order="stroke" d="M 102.82870483398438 77.81818389892578 L 102.85043083317578 77.81818389892578 L 102.85043083317578 130.45454788208008 L 102.82870483398438 130.45454788208008 L 102.82870483398438 77.81818389892578" fill-opacity="1" clip-path="url(#sSiTzArCTame)"/><path fill="rgb(97,255,0)" stroke="none" paint-order="stroke" d="M 102.85043334960938 77.81818389892578 L 102.87215934880078 77.81818389892578 L 102.87215934880078 130.45454788208008 L 102.85043334960938 130.45454788208008 L 102.85043334960938 77.81818389892578" fill-opacity="1" clip-path="url(#sSiTzArCTame)"/><path fill="rgb(129,255,0)" stroke="none" paint-order="stroke" d="M 102.87216186523438 77.81818389892578 L 102.89516586437821 77.81818389892578 L 102.89516586437821 130.45454788208008 L 102.87216186523438 130.45454788208008 L 102.87216186523438 77.81818389892578" fill-opacity="1" clip-path="url(#sSiTzArCTame)"/><path fill="rgb(146,255,0)" stroke="none" paint-order="stroke" d="M 102.8951644897461 77.81818389892578 L 102.91433448903263 77.81818389892578 L 102.91433448903263 130.45454788208008 L 102.8951644897461 130.45454788208008 L 102.8951644897461 77.81818389892578" fill-opacity="1" clip-path="url(#sSiTzArCTame)"/><path fill="rgb(159,255,0)" stroke="none" paint-order="stroke" d="M 102.91433715820312 77.81818389892578 L 102.95651115849614 77.81818389892578 L 102.95651115849614 130.45454788208008 L 102.91433715820312 130.45454788208008 L 102.91433715820312 77.81818389892578" fill-opacity="1" clip-path="url(#sSiTzArCTame)"/><path fill="rgb(191,255,0)" stroke="none" paint-order="stroke" d="M 102.95650482177734 77.81818389892578 L 102.97695282101631 77.81818389892578 L 102.97695282101631 130.45454788208008 L 102.95650482177734 130.45454788208008 L 102.95650482177734 77.81818389892578" fill-opacity="1" clip-path="url(#sSiTzArCTame)"/><path fill="rgb(219,255,0)" stroke="none" paint-order="stroke" d="M 102.97695922851562 77.81818389892578 L 103.00251922942698 77.81818389892578 L 103.00251922942698 130.45454788208008 L 102.97695922851562 130.45454788208008 L 102.97695922851562 77.81818389892578" fill-opacity="1" clip-path="url(#sSiTzArCTame)"/><path fill="rgb(231,255,0)" stroke="none" paint-order="stroke" d="M 103.00251770019531 77.81818389892578 L 103.02296569943428 77.81818389892578 L 103.02296569943428 130.45454788208008 L 103.00251770019531 130.45454788208008 L 103.00251770019531 77.81818389892578" fill-opacity="1" clip-path="url(#sSiTzArCTame)"/><path fill="rgb(246,255,0)" stroke="none" paint-order="stroke" d="M 103.02296447753906 77.81818389892578 L 103.06258247792721 77.81818389892578 L 103.06258247792721 130.45454788208008 L 103.02296447753906 130.45454788208008 L 103.02296447753906 77.81818389892578" fill-opacity="1" clip-path="url(#sSiTzArCTame)"/><path fill="rgb(255,248,0)" stroke="none" paint-order="stroke" d="M 103.06258392333984 77.81818389892578 L 103.08430992253125 77.81818389892578 L 103.08430992253125 130.45454788208008 L 103.06258392333984 130.45454788208008 L 103.06258392333984 77.81818389892578" fill-opacity="1" clip-path="url(#sSiTzArCTame)"/><path fill="rgb(255,235,0)" stroke="none" paint-order="stroke" d="M 103.08430480957031 77.81818389892578 L 103.10475280880928 77.81818389892578 L 103.10475280880928 130.45454788208008 L 103.08430480957031 130.45454788208008 L 103.08430480957031 77.81818389892578" fill-opacity="1" clip-path="url(#sSiTzArCTame)"/><path fill="rgb(255,203,0)" stroke="none" paint-order="stroke" d="M 103.1047592163086 77.81818389892578 L 103.1264852155 77.81818389892578 L 103.1264852155 130.45454788208008 L 103.1047592163086 130.45454788208008 L 103.1047592163086 77.81818389892578" fill-opacity="1" clip-path="url(#sSiTzArCTame)"/><path fill="rgb(255,190,0)" stroke="none" paint-order="stroke" d="M 103.12648010253906 77.81818389892578 L 103.14820610173047 77.81818389892578 L 103.14820610173047 130.45454788208008 L 103.12648010253906 130.45454788208008 L 103.12648010253906 77.81818389892578" fill-opacity="1" clip-path="url(#sSiTzArCTame)"/><path fill="rgb(255,172,0)" stroke="none" paint-order="stroke" d="M 103.14820861816406 77.81818389892578 L 103.16865661740303 77.81818389892578 L 103.16865661740303 130.45454788208008 L 103.14820861816406 130.45454788208008 L 103.14820861816406 77.81818389892578" fill-opacity="1" clip-path="url(#sSiTzArCTame)"/><path fill="rgb(255,155,0)" stroke="none" paint-order="stroke" d="M 103.16865539550781 77.81818389892578 L 103.19038139469922 77.81818389892578 L 103.19038139469922 130.45454788208008 L 103.16865539550781 130.45454788208008 L 103.16865539550781 77.81818389892578" fill-opacity="1" clip-path="url(#sSiTzArCTame)"/><path fill="rgb(255,141,0)" stroke="none" paint-order="stroke" d="M 103.19038391113281 77.81818389892578 L 103.23255791142583 77.81818389892578 L 103.23255791142583 130.45454788208008 L 103.19038391113281 130.45454788208008 L 103.19038391113281 77.81818389892578" fill-opacity="1" clip-path="url(#sSiTzArCTame)"/><path fill="rgb(255,122,0)" stroke="none" paint-order="stroke" d="M 103.23255920410156 77.81818389892578 L 103.2645092047751 77.81818389892578 L 103.2645092047751 130.45454788208008 L 103.23255920410156 130.45454788208008 L 103.23255920410156 77.81818389892578" fill-opacity="1" clip-path="url(#sSiTzArCTame)"/><path fill="rgb(255,66,0)" stroke="none" paint-order="stroke" d="M 103.2645034790039 77.81818389892578 L 103.31817948073149 77.81818389892578 L 103.31817948073149 130.45454788208008 L 103.2645034790039 130.45454788208008 L 103.2645034790039 77.81818389892578" fill-opacity="1" clip-path="url(#sSiTzArCTame)"/><path fill="rgb(255,21,0)" stroke="none" paint-order="stroke" d="M 103.31818389892578 77.81818389892578 L 103.33863189816475 77.81818389892578 L 103.33863189816475 130.45454788208008 L 103.31818389892578 130.45454788208008 L 103.31818389892578 77.81818389892578" fill-opacity="1" clip-path="url(#sSiTzArCTame)"/><path fill="rgb(246,0,0)" stroke="none" paint-order="stroke" d="M 103.33863067626953 77.81818389892578 L 103.38208267465234 77.81818389892578 L 103.38208267465234 130.45454788208008 L 103.33863067626953 130.45454788208008 L 103.33863067626953 77.81818389892578" fill-opacity="1" clip-path="url(#sSiTzArCTame)"/><path fill="rgb(239,0,0)" stroke="none" paint-order="stroke" d="M 103.382080078125 77.81818389892578 L 103.40508407726884 77.81818389892578 L 103.40508407726884 130.45454788208008 L 103.382080078125 130.45454788208008 L 103.382080078125 77.81818389892578" fill-opacity="1" clip-path="url(#sSiTzArCTame)"/><path fill="rgb(227,0,0)" stroke="none" paint-order="stroke" d="M 103.40508270263672 77.81818389892578 L 103.42553070187569 77.81818389892578 L 103.42553070187569 130.45454788208008 L 103.40508270263672 130.45454788208008 L 103.40508270263672 77.81818389892578" fill-opacity="1" clip-path="url(#sSiTzArCTame)"/><path fill="rgb(220,0,0)" stroke="none" paint-order="stroke" d="M 103.425537109375 77.81818389892578 L 103.4472631085664 77.81818389892578 L 103.4472631085664 130.45454788208008 L 103.425537109375 130.45454788208008 L 103.425537109375 77.81818389892578" fill-opacity="1" clip-path="url(#sSiTzArCTame)"/><path fill="rgb(207,0,0)" stroke="none" paint-order="stroke" d="M 103.44725799560547 77.81818389892578 L 103.46898399479687 77.81818389892578 L 103.46898399479687 130.45454788208008 L 103.44725799560547 130.45454788208008 L 103.44725799560547 77.81818389892578" fill-opacity="1" clip-path="url(#sSiTzArCTame)"/><path fill="rgb(200,0,0)" stroke="none" paint-order="stroke" d="M 103.46898651123047 77.81818389892578 L 103.50860451161861 77.81818389892578 L 103.50860451161861 130.45454788208008 L 103.46898651123047 130.45454788208008 L 103.46898651123047 77.81818389892578" fill-opacity="1" clip-path="url(#sSiTzArCTame)"/><path fill="rgb(194,0,0)" stroke="none" paint-order="stroke" d="M 103.50860595703125 77.81818389892578 L 103.55205795541406 77.81818389892578 L 103.55205795541406 130.45454788208008 L 103.50860595703125 130.45454788208008 L 103.50860595703125 77.81818389892578" fill-opacity="1" clip-path="url(#sSiTzArCTame)"/><path fill="rgb(187,0,0)" stroke="none" paint-order="stroke" d="M 103.55205535888672 77.81818389892578 L 103.57250335812569 77.81818389892578 L 103.57250335812569 130.45454788208008 L 103.55205535888672 130.45454788208008 L 103.55205535888672 77.81818389892578" fill-opacity="1" clip-path="url(#sSiTzArCTame)"/><path fill="rgb(179,0,0)" stroke="none" paint-order="stroke" d="M 103.57250213623047 77.81818389892578 L 103.61595413461328 77.81818389892578 L 103.61595413461328 130.45454788208008 L 103.57250213623047 130.45454788208008 L 103.57250213623047 77.81818389892578" fill-opacity="1" clip-path="url(#sSiTzArCTame)"/><path fill="rgb(173,0,0)" stroke="none" paint-order="stroke" d="M 103.61595916748047 77.81818389892578 L 103.72075516730547 77.81818389892578 L 103.72075516730547 130.45454788208008 L 103.61595916748047 130.45454788208008 L 103.61595916748047 77.81818389892578" fill-opacity="1" clip-path="url(#sSiTzArCTame)"/><path fill="rgb(166,0,0)" stroke="none" paint-order="stroke" d="M 103.72074890136719 77.81818389892578 L 103.74375290051103 77.81818389892578 L 103.74375290051103 130.45454788208008 L 103.72074890136719 130.45454788208008 L 103.72074890136719 77.81818389892578" fill-opacity="1" clip-path="url(#sSiTzArCTame)"/><path fill="rgb(158,0,0)" stroke="none" paint-order="stroke" d="M 103.74375915527344 77.81818389892578 L 103.7642071545124 77.81818389892578 L 103.7642071545124 130.45454788208008 L 103.74375915527344 130.45454788208008 L 103.74375915527344 77.81818389892578" fill-opacity="1" clip-path="url(#sSiTzArCTame)"/><path fill="rgb(144,0,0)" stroke="none" paint-order="stroke" d="M 103.76420593261719 77.81818389892578 L 103.80893593281507 77.81818389892578 L 103.80893593281507 130.45454788208008 L 103.76420593261719 130.45454788208008 L 103.76420593261719 77.81818389892578" fill-opacity="1" clip-path="url(#sSiTzArCTame)"/><path fill="rgb(137,0,0)" stroke="none" paint-order="stroke" d="M 103.8089370727539 77.81818389892578 L 103.84983307123184 77.81818389892578 L 103.84983307123184 130.45454788208008 L 103.8089370727539 130.45454788208008 L 103.8089370727539 77.81818389892578" fill-opacity="1" clip-path="url(#sSiTzArCTame)"/><path fill="rgb(130,0,0)" stroke="none" paint-order="stroke" d="M 103.8498306274414 77.81818389892578 L 103.87155662663281 77.81818389892578 L 103.87155662663281 130.45454788208008 L 103.8498306274414 130.45454788208008 L 103.8498306274414 77.81818389892578" fill-opacity="1" clip-path="url(#sSiTzArCTame)"/><path fill="rgb(115,0,0)" stroke="none" paint-order="stroke" d="M 103.8715591430664 77.81818389892578 L 103.89328514225781 77.81818389892578 L 103.89328514225781 130.45454788208008 L 103.8715591430664 130.45454788208008 L 103.8715591430664 77.81818389892578" fill-opacity="1" clip-path="url(#sSiTzArCTame)"/><path fill="rgb(99,0,0)" stroke="none" paint-order="stroke" d="M 103.89328002929688 77.81818389892578 L 103.91756202839315 77.81818389892578 L 103.91756202839315 130.45454788208008 L 103.89328002929688 130.45454788208008 L 103.89328002929688 77.81818389892578" fill-opacity="1" clip-path="url(#sSiTzArCTame)"/><path fill="rgb(0,0,0)" stroke="none" paint-order="stroke" d="M 103.91756439208984 77.81818389892578 L 103.93673439137638 77.81818389892578 L 103.93673439137638 130.45454788208008 L 103.91756439208984 130.45454788208008 L 103.91756439208984 77.81818389892578" fill-opacity="1" clip-path="url(#sSiTzArCTame)"/><path fill="rgb(0,0,0)" stroke="none" paint-order="stroke" d="M 103.93673706054688 77.81818389892578 L 103.97763305902481 77.81818389892578 L 103.97763305902481 130.45454788208008 L 103.93673706054688 130.45454788208008 L 103.93673706054688 77.81818389892578" fill-opacity="1" clip-path="url(#sSiTzArCTame)"/><path fill="rgb(0,0,0)" stroke="none" paint-order="stroke" d="M 103.97763061523438 77.81818389892578 L 104.00319061614573 77.81818389892578 L 104.00319061614573 130.45454788208008 L 103.97763061523438 130.45454788208008 L 103.97763061523438 77.81818389892578" fill-opacity="1" clip-path="url(#sSiTzArCTame)"/><path fill="rgb(0,0,0)" stroke="none" paint-order="stroke" d="M 104.00318908691406 77.81818389892578 L 104.0223590862006 77.81818389892578 L 104.0223590862006 130.45454788208008 L 104.00318908691406 130.45454788208008 L 104.00318908691406 77.81818389892578" fill-opacity="1" clip-path="url(#sSiTzArCTame)"/><path fill="rgb(0,0,0)" stroke="none" paint-order="stroke" d="M 104.0223617553711 77.81818389892578 L 104.04280975461006 77.81818389892578 L 104.04280975461006 130.45454788208008 L 104.0223617553711 130.45454788208008 L 104.0223617553711 77.81818389892578" fill-opacity="1" clip-path="url(#sSiTzArCTame)"/><path fill="rgb(0,0,0)" stroke="none" paint-order="stroke" d="M 104.04280853271484 77.81818389892578 L 105.10610449314117 77.81818389892578 L 105.10610449314117 130.45454788208008 L 104.04280853271484 130.45454788208008 L 104.04280853271484 77.81818389892578" fill-opacity="1" clip-path="url(#sSiTzArCTame)"/><path fill="rgb(115,0,0)" stroke="none" paint-order="stroke" d="M 105.1061019897461 77.81818389892578 L 105.1278279889375 77.81818389892578 L 105.1278279889375 130.45454788208008 L 105.1061019897461 130.45454788208008 L 105.1061019897461 77.81818389892578" fill-opacity="1" clip-path="url(#sSiTzArCTame)"/><path fill="rgb(152,0,0)" stroke="none" paint-order="stroke" d="M 105.1278305053711 77.81818389892578 L 105.1495565045625 77.81818389892578 L 105.1495565045625 130.45454788208008 L 105.1278305053711 130.45454788208008 L 105.1278305053711 77.81818389892578" fill-opacity="1" clip-path="url(#sSiTzArCTame)"/><path fill="rgb(194,0,0)" stroke="none" paint-order="stroke" d="M 105.1495590209961 77.81818389892578 L 105.72338104248047 77.81818389892578 L 105.72338104248047 130.45454788208008 L 105.1495590209961 130.45454788208008 L 105.1495590209961 77.81818389892578" fill-opacity="1" clip-path="url(#sSiTzArCTame)"/><path fill="rgb(187,0,0)" stroke="none" paint-order="stroke" d="M 105.72338104248047 77.81818389892578 L 105.74638504162431 77.81818389892578 L 105.74638504162431 130.45454788208008 L 105.72338104248047 130.45454788208008 L 105.72338104248047 77.81818389892578" fill-opacity="1" clip-path="url(#sSiTzArCTame)"/><path fill="rgb(179,0,0)" stroke="none" paint-order="stroke" d="M 105.74638366699219 77.81818389892578 L 105.77066566608846 77.81818389892578 L 105.77066566608846 130.45454788208008 L 105.74638366699219 130.45454788208008 L 105.74638366699219 77.81818389892578" fill-opacity="1" clip-path="url(#sSiTzArCTame)"/><path fill="rgb(173,0,0)" stroke="none" paint-order="stroke" d="M 105.77066040039062 77.81818389892578 L 105.7949423994869 77.81818389892578 L 105.7949423994869 130.45454788208008 L 105.77066040039062 130.45454788208008 L 105.77066040039062 77.81818389892578" fill-opacity="1" clip-path="url(#sSiTzArCTame)"/><path fill="rgb(166,0,0)" stroke="none" paint-order="stroke" d="M 105.7949447631836 77.81818389892578 L 105.83072876185179 77.81818389892578 L 105.83072876185179 130.45454788208008 L 105.7949447631836 130.45454788208008 L 105.7949447631836 77.81818389892578" fill-opacity="1" clip-path="url(#sSiTzArCTame)"/><path fill="rgb(158,0,0)" stroke="none" paint-order="stroke" d="M 105.83072662353516 77.81818389892578 L 105.87417862191796 77.81818389892578 L 105.87417862191796 130.45454788208008 L 105.83072662353516 130.45454788208008 L 105.83072662353516 77.81818389892578" fill-opacity="1" clip-path="url(#sSiTzArCTame)"/><path fill="rgb(152,0,0)" stroke="none" paint-order="stroke" d="M 105.87418365478516 77.81818389892578 L 106.38282763957977 77.81818389892578 L 106.38282763957977 130.45454788208008 L 105.87418365478516 130.45454788208008 L 105.87418365478516 77.81818389892578" fill-opacity="1" clip-path="url(#sSiTzArCTame)"/><path fill="rgb(158,0,0)" stroke="none" paint-order="stroke" d="M 106.38282775878906 77.81818389892578 L 106.4058317579329 77.81818389892578 L 106.4058317579329 130.45454788208008 L 106.38282775878906 130.45454788208008 L 106.38282775878906 77.81818389892578" fill-opacity="1" clip-path="url(#sSiTzArCTame)"/><path fill="rgb(166,0,0)" stroke="none" paint-order="stroke" d="M 106.40583038330078 77.81818389892578 L 106.42627838253975 77.81818389892578 L 106.42627838253975 130.45454788208008 L 106.40583038330078 130.45454788208008 L 106.40583038330078 77.81818389892578" fill-opacity="1" clip-path="url(#sSiTzArCTame)"/><path fill="rgb(173,0,0)" stroke="none" paint-order="stroke" d="M 106.42627716064453 77.81818389892578 L 106.44800315983593 77.81818389892578 L 106.44800315983593 130.45454788208008 L 106.42627716064453 130.45454788208008 L 106.42627716064453 77.81818389892578" fill-opacity="1" clip-path="url(#sSiTzArCTame)"/><path fill="rgb(179,0,0)" stroke="none" paint-order="stroke" d="M 106.44800567626953 77.81818389892578 L 106.49017967656255 77.81818389892578 L 106.49017967656255 130.45454788208008 L 106.44800567626953 130.45454788208008 L 106.44800567626953 77.81818389892578" fill-opacity="1" clip-path="url(#sSiTzArCTame)"/><path fill="rgb(187,0,0)" stroke="none" paint-order="stroke" d="M 106.49018096923828 77.81818389892578 L 106.6192589700222 77.81818389892578 L 106.6192589700222 130.45454788208008 L 106.49018096923828 130.45454788208008 L 106.49018096923828 77.81818389892578" fill-opacity="1" clip-path="url(#sSiTzArCTame)"/><path fill="rgb(194,0,0)" stroke="none" paint-order="stroke" d="M 106.61925506591797 77.81818389892578 L 106.66142906621099 77.81818389892578 L 106.66142906621099 130.45454788208008 L 106.61925506591797 130.45454788208008 L 106.61925506591797 77.81818389892578" fill-opacity="1" clip-path="url(#sSiTzArCTame)"/><path fill="rgb(207,0,0)" stroke="none" paint-order="stroke" d="M 106.66143035888672 77.81818389892578 L 106.70360435917974 77.81818389892578 L 106.70360435917974 130.45454788208008 L 106.66143035888672 130.45454788208008 L 106.66143035888672 77.81818389892578" fill-opacity="1" clip-path="url(#sSiTzArCTame)"/><path fill="rgb(213,0,0)" stroke="none" paint-order="stroke" d="M 106.70360565185547 77.81818389892578 L 106.72405365109444 77.81818389892578 L 106.72405365109444 130.45454788208008 L 106.70360565185547 130.45454788208008 L 106.70360565185547 77.81818389892578" fill-opacity="1" clip-path="url(#sSiTzArCTame)"/><path fill="rgb(232,0,0)" stroke="none" paint-order="stroke" d="M 106.72405242919922 77.81818389892578 L 106.74705642834306 77.81818389892578 L 106.74705642834306 130.45454788208008 L 106.72405242919922 130.45454788208008 L 106.72405242919922 77.81818389892578" fill-opacity="1" clip-path="url(#sSiTzArCTame)"/><path fill="rgb(246,0,0)" stroke="none" paint-order="stroke" d="M 106.74705505371094 77.81818389892578 L 106.76878105290234 77.81818389892578 L 106.76878105290234 130.45454788208008 L 106.74705505371094 130.45454788208008 L 106.74705505371094 77.81818389892578" fill-opacity="1" clip-path="url(#sSiTzArCTame)"/><path fill="rgb(252,0,0)" stroke="none" paint-order="stroke" d="M 106.76878356933594 77.81818389892578 L 107.02310556173325 77.81818389892578 L 107.02310556173325 130.45454788208008 L 106.76878356933594 130.45454788208008 L 106.76878356933594 77.81818389892578" fill-opacity="1" clip-path="url(#sSiTzArCTame)"/><path fill="rgb(255,47,0)" stroke="none" paint-order="stroke" d="M 107.02310180664062 77.81818389892578 L 107.04482780583203 77.81818389892578 L 107.04482780583203 130.45454788208008 L 107.02310180664062 130.45454788208008 L 107.02310180664062 77.81818389892578" fill-opacity="1" clip-path="url(#sSiTzArCTame)"/><path fill="rgb(255,87,0)" stroke="none" paint-order="stroke" d="M 107.04483032226562 77.81818389892578 L 107.06783432140946 77.81818389892578 L 107.06783432140946 130.45454788208008 L 107.04483032226562 130.45454788208008 L 107.04483032226562 77.81818389892578" fill-opacity="1" clip-path="url(#sSiTzArCTame)"/><path fill="rgb(255,107,0)" stroke="none" paint-order="stroke" d="M 107.06783294677734 77.81818389892578 L 107.08828094601631 77.81818389892578 L 107.08828094601631 130.45454788208008 L 107.06783294677734 130.45454788208008 L 107.06783294677734 77.81818389892578" fill-opacity="1" clip-path="url(#sSiTzArCTame)"/><path fill="rgb(255,122,0)" stroke="none" paint-order="stroke" d="M 107.0882797241211 77.81818389892578 L 109.32861375808716 77.81818389892578 L 109.32861375808716 130.45454788208008 L 107.0882797241211 130.45454788208008 L 107.0882797241211 77.81818389892578" fill-opacity="1" clip-path="url(#sSiTzArCTame)"/><path fill="rgb(0,255,40)" stroke="none" paint-order="stroke" d="M 109.32861328125 77.81818389892578 L 127.17204856872559 77.81818389892578 L 127.17204856872559 130.45454788208008 L 109.32861328125 130.45454788208008 L 109.32861328125 77.81818389892578" fill-opacity="1" clip-path="url(#sSiTzArCTame)"/><path fill="rgb(14,255,0)" stroke="none" paint-order="stroke" d="M 127.17205047607422 77.81818389892578 L 127.19377647526562 77.81818389892578 L 127.19377647526562 130.45454788208008 L 127.17205047607422 130.45454788208008 L 127.17205047607422 77.81818389892578" fill-opacity="1" clip-path="url(#sSiTzArCTame)"/><path fill="rgb(40,255,0)" stroke="none" paint-order="stroke" d="M 127.19377899169922 77.81818389892578 L 127.21550499089062 77.81818389892578 L 127.21550499089062 130.45454788208008 L 127.19377899169922 130.45454788208008 L 127.19377899169922 77.81818389892578" fill-opacity="1" clip-path="url(#sSiTzArCTame)"/><path fill="rgb(111,255,0)" stroke="none" paint-order="stroke" d="M 127.21550750732422 77.81818389892578 L 127.23723350651562 77.81818389892578 L 127.23723350651562 130.45454788208008 L 127.21550750732422 130.45454788208008 L 127.21550750732422 77.81818389892578" fill-opacity="1" clip-path="url(#sSiTzArCTame)"/><path fill="rgb(231,255,0)" stroke="none" paint-order="stroke" d="M 127.23722839355469 77.81818389892578 L 127.25895439274609 77.81818389892578 L 127.25895439274609 130.45454788208008 L 127.23722839355469 130.45454788208008 L 127.23722839355469 77.81818389892578" fill-opacity="1" clip-path="url(#sSiTzArCTame)"/><path fill="rgb(255,190,0)" stroke="none" paint-order="stroke" d="M 127.25895690917969 77.81818389892578 L 127.28068290837109 77.81818389892578 L 127.28068290837109 130.45454788208008 L 127.25895690917969 130.45454788208008 L 127.25895690917969 77.81818389892578" fill-opacity="1" clip-path="url(#sSiTzArCTame)"/><path fill="rgb(232,0,0)" stroke="none" paint-order="stroke" d="M 127.28068542480469 77.81818389892578 L 127.30113342404366 77.81818389892578 L 127.30113342404366 130.45454788208008 L 127.28068542480469 130.45454788208008 L 127.28068542480469 77.81818389892578" fill-opacity="1" clip-path="url(#sSiTzArCTame)"/><path fill="rgb(130,0,0)" stroke="none" paint-order="stroke" d="M 127.30113220214844 77.81818389892578 L 127.32285820133984 77.81818389892578 L 127.32285820133984 130.45454788208008 L 127.30113220214844 130.45454788208008 L 127.30113220214844 77.81818389892578" fill-opacity="1" clip-path="url(#sSiTzArCTame)"/><path fill="rgb(0,0,0)" stroke="none" paint-order="stroke" d="M 127.3228530883789 77.81818389892578 L 127.34585708752275 77.81818389892578 L 127.34585708752275 130.45454788208008 L 127.3228530883789 130.45454788208008 L 127.3228530883789 77.81818389892578" fill-opacity="1" clip-path="url(#sSiTzArCTame)"/><path fill="rgb(0,0,0)" stroke="none" paint-order="stroke" d="M 127.34586334228516 77.81818389892578 L 142.55278491973877 77.81818389892578 L 142.55278491973877 130.45454788208008 L 127.34586334228516 130.45454788208008 L 127.34586334228516 77.81818389892578" fill-opacity="1" clip-path="url(#sSiTzArCTame)"/><path fill="rgb(251,0,7)" stroke="none" paint-order="stroke" d="M 58.5 130.4545440673828 L 142.5527801513672 130.4545440673828 L 142.5527801513672 183.0909080505371 L 58.5 183.0909080505371 L 58.5 130.4545440673828" fill-opacity="1" clip-path="url(#IFpLAckBAsBi)"/><path fill="rgb(105,29,48)" stroke="none" paint-order="stroke" d="M 75.45011138916016 183.09091186523438 L 75.51401139050722 183.09091186523438 L 75.51401139050722 498.9090881347656 L 75.45011138916016 498.9090881347656 L 75.45011138916016 183.09091186523438" fill-opacity="1" clip-path="url(#GZcDRTuIkrzI)"/><path fill="rgb(105,29,48)" stroke="none" paint-order="stroke" d="M 77.02461242675781 183.09091186523438 L 77.08851242810488 183.09091186523438 L 77.08851242810488 498.9090881347656 L 77.02461242675781 498.9090881347656 L 77.02461242675781 183.09091186523438" fill-opacity="1" clip-path="url(#GZcDRTuIkrzI)"/><path fill="rgb(105,29,48)" stroke="none" paint-order="stroke" d="M 77.64443969726562 183.09091186523438 L 77.70833969861269 183.09091186523438 L 77.70833969861269 498.9090881347656 L 77.64443969726562 498.9090881347656 L 77.64443969726562 183.09091186523438" fill-opacity="1" clip-path="url(#GZcDRTuIkrzI)"/><path fill="rgb(255,188,66)" stroke="none" paint-order="stroke" d="M 138.8823699951172 183.09091186523438 L 140.45175397396088 183.09091186523438 L 140.45175397396088 498.9090881347656 L 138.8823699951172 498.9090881347656 L 138.8823699951172 183.09091186523438" fill-opacity="1" clip-path="url(#JPxJukmhpVAs)"/><path fill="rgb(255,188,66)" stroke="none" paint-order="stroke" d="M 142.214111328125 183.09091186523438 L 142.27801132947206 183.09091186523438 L 142.27801132947206 498.9090881347656 L 142.214111328125 498.9090881347656 L 142.214111328125 183.09091186523438" fill-opacity="1" clip-path="url(#JPxJukmhpVAs)"/><path fill="rgb(216,17,89)" stroke="none" paint-order="stroke" d="M 90.530517578125 183.09091186523438 L 90.59441757947206 183.09091186523438 L 90.59441757947206 498.9090881347656 L 90.530517578125 498.9090881347656 L 90.530517578125 183.09091186523438" fill-opacity="1" clip-path="url(#NsTUBaxwkbEf)"/><path fill="rgb(216,17,89)" stroke="none" paint-order="stroke" d="M 90.530517578125 183.09091186523438 L 90.59441757947206 183.09091186523438 L 90.59441757947206 498.9090881347656 L 90.530517578125 498.9090881347656 L 90.530517578125 183.09091186523438" fill-opacity="1" clip-path="url(#NsTUBaxwkbEf)"/><path fill="rgb(216,17,89)" stroke="none" paint-order="stroke" d="M 109.32861328125 183.09091186523438 L 109.39251328259706 183.09091186523438 L 109.39251328259706 498.9090881347656 L 109.32861328125 498.9090881347656 L 109.32861328125 183.09091186523438" fill-opacity="1" clip-path="url(#NsTUBaxwkbEf)"/><path fill="rgb(216,17,89)" stroke="none" paint-order="stroke" d="M 112.5300064086914 183.09091186523438 L 112.59390641003847 183.09091186523438 L 112.59390641003847 498.9090881347656 L 112.5300064086914 498.9090881347656 L 112.5300064086914 183.09091186523438" fill-opacity="1" clip-path="url(#NsTUBaxwkbEf)"/><path fill="rgb(115,210,222)" stroke="none" paint-order="stroke" d="M 114.5185775756836 183.09091186523438 L 123.99494743347168 183.09091186523438 L 123.99494743347168 498.9090881347656 L 114.5185775756836 498.9090881347656 L 114.5185775756836 183.09091186523438" fill-opacity="1" clip-path="url(#swRhTWkWnnEe)"/><path fill="rgb(115,210,222)" stroke="none" paint-order="stroke" d="M 131.7830810546875 183.09091186523438 L 137.4228949546814 183.09091186523438 L 137.4228949546814 498.9090881347656 L 131.7830810546875 498.9090881347656 L 131.7830810546875 183.09091186523438" fill-opacity="1" clip-path="url(#swRhTWkWnnEe)"/><path fill="rgb(28,49,68)" stroke="none" paint-order="stroke" d="M 73.03597259521484 183.09091186523438 L 74.10565865039825 183.09091186523438 L 74.10565865039825 498.9090881347656 L 73.03597259521484 498.9090881347656 L 73.03597259521484 183.09091186523438" fill-opacity="1" clip-path="url(#BHSFfvzXsofL)"/><path fill="rgb(28,49,68)" stroke="none" paint-order="stroke" d="M 80.0892562866211 183.09091186523438 L 81.80177628993988 183.09091186523438 L 81.80177628993988 498.9090881347656 L 80.0892562866211 498.9090881347656 L 80.0892562866211 183.09091186523438" fill-opacity="1" clip-path="url(#BHSFfvzXsofL)"/><path fill="rgb(28,49,68)" stroke="none" paint-order="stroke" d="M 83.32643127441406 183.09091186523438 L 88.45121145248413 183.09091186523438 L 88.45121145248413 498.9090881347656 L 83.32643127441406 498.9090881347656 L 83.32643127441406 183.09091186523438" fill-opacity="1" clip-path="url(#BHSFfvzXsofL)"/><path fill="rgb(105,29,48)" stroke="none" paint-order="stroke" d="M 93.75874328613281 183.09091186523438 L 107.48190689086914 183.09091186523438 L 107.48190689086914 498.9090881347656 L 93.75874328613281 498.9090881347656 L 93.75874328613281 183.09091186523438" fill-opacity="1" clip-path="url(#VTUJOIlhPssL)"/><path fill="rgb(105,29,48)" stroke="none" paint-order="stroke" d="M 127.04297637939453 183.09091186523438 L 129.0315443277359 183.09091186523438 L 129.0315443277359 498.9090881347656 L 127.04297637939453 498.9090881347656 L 127.04297637939453 183.09091186523438" fill-opacity="1" clip-path="url(#VTUJOIlhPssL)"/><path fill="rgb(143,45,86)" stroke="none" paint-order="stroke" d="M 58.5 551.5454711914062 L 75.45011329650879 551.5454711914062 L 75.45011329650879 604.1818351745605 L 58.5 604.1818351745605 L 58.5 551.5454711914062" fill-opacity="1" clip-path="url(#vSeQWSvxhbSr)"/><path fill="rgb(63,136,197)" stroke="none" paint-order="stroke" d="M 75.45011138916016 551.5454711914062 L 77.02460741996765 551.5454711914062 L 77.02460741996765 604.1818351745605 L 75.45011138916016 604.1818351745605 L 75.45011138916016 551.5454711914062" fill-opacity="1" clip-path="url(#vSeQWSvxhbSr)"/><path fill="rgb(143,45,86)" stroke="none" paint-order="stroke" d="M 77.02461242675781 551.5454711914062 L 77.64444243907928 551.5454711914062 L 77.64444243907928 604.1818351745605 L 77.02461242675781 604.1818351745605 L 77.02461242675781 551.5454711914062" fill-opacity="1" clip-path="url(#vSeQWSvxhbSr)"/><path fill="rgb(63,136,197)" stroke="none" paint-order="stroke" d="M 77.64443969726562 551.5454711914062 L 142.5527801513672 551.5454711914062 L 142.5527801513672 604.1818351745605 L 77.64443969726562 604.1818351745605 L 77.64443969726562 551.5454711914062" fill-opacity="1" clip-path="url(#vSeQWSvxhbSr)"/><path fill="none" stroke="rgb(0,0,0)" paint-order="fill" d="M 58.5 77.81818389892578 L 142.5527801513672 77.81818389892578 L 142.5527801513672 604.1818313598633 L 58.5 604.1818313598633 L 58.5 77.81818389892578" stroke-opacity="1" stroke-linejoin="bevel" stroke-miterlimit="10" stroke-dasharray="" clip-path="url(#QKtrufuhybIm)"/><path fill="none" stroke="rgb(0,0,0)" paint-order="fill" d="M 58.5 630.5 L 1336.5 630.5" stroke-opacity="1" stroke-linejoin="bevel" stroke-miterlimit="10" stroke-dasharray=""/><path fill="none" stroke="rgb(0,0,0)" paint-order="fill" d="M 58.5 636.5 L 58.5 628.5 M 314.5 636.5 L 314.5 628.5 M 569.5 636.5 L 569.5 628.5 M 825.5 636.5 L 825.5 628.5 M 1080.5 636.5 L 1080.5 628.5 M 1336.5 636.5 L 1336.5 628.5" stroke-opacity="1" stroke-linejoin="bevel" stroke-miterlimit="10" stroke-dasharray=""/><path fill="none" stroke="rgb(0,0,0)" paint-order="fill" d="M 58.5 634.5 L 58.5 630.5 M 109.5 634.5 L 109.5 630.5 M 160.5 634.5 L 160.5 630.5 M 211.5 634.5 L 211.5 630.5 M 262.5 634.5 L 262.5 630.5 M 314.5 634.5 L 314.5 630.5 M 365.5 634.5 L 365.5 630.5 M 416.5 634.5 L 416.5 630.5 M 467.5 634.5 L 467.5 630.5 M 518.5 634.5 L 518.5 630.5 M 569.5 634.5 L 569.5 630.5 M 620.5 634.5 L 620.5 630.5 M 671.5 634.5 L 671.5 630.5 M 723.5 634.5 L 723.5 630.5 M 774.5 634.5 L 774.5 630.5 M 825.5 634.5 L 825.5 630.5 M 876.5 634.5 L 876.5 630.5 M 927.5 634.5 L 927.5 630.5 M 978.5 634.5 L 978.5 630.5 M 1029.5 634.5 L 1029.5 630.5 M 1080.5 634.5 L 1080.5 630.5 M 1132.5 634.5 L 1132.5 630.5 M 1183.5 634.5 L 1183.5 630.5 M 1234.5 634.5 L 1234.5 630.5 M 1285.5 634.5 L 1285.5 630.5 M 1336.5 634.5 L 1336.5 630.5" stroke-opacity="1" stroke-linejoin="bevel" stroke-miterlimit="10" stroke-dasharray=""/><text fill="rgb(68,68,68)" stroke="none" font-family="helvetica" font-size="11px" font-style="normal" font-weight="normal" text-decoration="normal" x="54.94166660308838" y="648.89013671875" text-anchor="start" dominant-baseline="alphabetic" transform="matrix(1, 0, 0, 1, 0.5, 0.5)" fill-opacity="1">0</text><text fill="rgb(68,68,68)" stroke="none" font-family="helvetica" font-size="11px" font-style="normal" font-weight="normal" text-decoration="normal" x="304.42500591278076" y="648.89013671875" text-anchor="start" dominant-baseline="alphabetic" transform="matrix(1, 0, 0, 1, 0.5, 0.5)" fill-opacity="1">200</text><text fill="rgb(68,68,68)" stroke="none" font-family="helvetica" font-size="11px" font-style="normal" font-weight="normal" text-decoration="normal" x="560.0250120162964" y="648.89013671875" text-anchor="start" dominant-baseline="alphabetic" transform="matrix(1, 0, 0, 1, 0.5, 0.5)" fill-opacity="1">400</text><text fill="rgb(68,68,68)" stroke="none" font-family="helvetica" font-size="11px" font-style="normal" font-weight="normal" text-decoration="normal" x="815.6249876022339" y="648.89013671875" text-anchor="start" dominant-baseline="alphabetic" transform="matrix(1, 0, 0, 1, 0.5, 0.5)" fill-opacity="1">600</text><text fill="rgb(68,68,68)" stroke="none" font-family="helvetica" font-size="11px" font-style="normal" font-weight="normal" text-decoration="normal" x="1071.2250242233276" y="648.89013671875" text-anchor="start" dominant-baseline="alphabetic" transform="matrix(1, 0, 0, 1, 0.5, 0.5)" fill-opacity="1">800</text><text fill="rgb(68,68,68)" stroke="none" font-family="helvetica" font-size="11px" font-style="normal" font-weight="normal" text-decoration="normal" x="1323.7666664123535" y="648.89013671875" text-anchor="start" dominant-baseline="alphabetic" transform="matrix(1, 0, 0, 1, 0.5, 0.5)" fill-opacity="1">1000</text><text fill="rgb(68,68,68)" stroke="none" font-family="helvetica" font-size="15pt" font-style="italic" font-weight="normal" text-decoration="normal" x="666.4416675567627" y="676.06982421875" text-anchor="start" dominant-baseline="alphabetic" transform="matrix(1, 0, 0, 1, 0.5, 0.5)" fill-opacity="1">time(s)</text><path fill="none" stroke="rgb(0,0,0)" paint-order="fill" d="M 58.5 630.5 L 58.5 51.5" stroke-opacity="1" stroke-linejoin="bevel" stroke-miterlimit="10" stroke-dasharray=""/><path fill="none" stroke="rgb(0,0,0)" paint-order="fill" d="M 52.5 551.5 L 60.5 551.5 M 52.5 446.5 L 60.5 446.5 M 52.5 341.5 L 60.5 341.5 M 52.5 235.5 L 60.5 235.5 M 52.5 130.5 L 60.5 130.5" stroke-opacity="1" stroke-linejoin="bevel" stroke-miterlimit="10" stroke-dasharray=""/><path fill="none" stroke="rgb(0,0,0)" paint-order="fill" d="M 54.5 572.5 L 58.5 572.5 M 54.5 593.5 L 58.5 593.5 M 54.5 614.5 L 58.5 614.5 M 54.5 551.5 L 58.5 551.5 M 54.5 530.5 L 58.5 530.5 M 54.5 509.5 L 58.5 509.5 M 54.5 488.5 L 58.5 488.5 M 54.5 467.5 L 58.5 467.5 M 54.5 446.5 L 58.5 446.5 M 54.5 425.5 L 58.5 425.5 M 54.5 404.5 L 58.5 404.5 M 54.5 383.5 L 58.5 383.5 M 54.5 362.5 L 58.5 362.5 M 54.5 341.5 L 58.5 341.5 M 54.5 319.5 L 58.5 319.5 M 54.5 298.5 L 58.5 298.5 M 54.5 277.5 L 58.5 277.5 M 54.5 256.5 L 58.5 256.5 M 54.5 235.5 L 58.5 235.5 M 54.5 214.5 L 58.5 214.5 M 54.5 193.5 L 58.5 193.5 M 54.5 172.5 L 58.5 172.5 M 54.5 151.5 L 58.5 151.5 M 54.5 130.5 L 58.5 130.5 M 54.5 109.5 L 58.5 109.5 M 54.5 88.5 L 58.5 88.5 M 54.5 67.5 L 58.5 67.5" stroke-opacity="1" stroke-linejoin="bevel" stroke-miterlimit="10" stroke-dasharray=""/><text fill="rgb(68,68,68)" stroke="none" font-family="helvetica" font-size="11px" font-style="normal" font-weight="normal" text-decoration="normal" x="34.46666622161865" y="554.9905395507812" text-anchor="start" dominant-baseline="alphabetic" transform="matrix(1, 0, 0, 1, 0.5, 0.5)" fill-opacity="1">2</text><text fill="rgb(68,68,68)" stroke="none" font-family="helvetica" font-size="11px" font-style="normal" font-weight="normal" text-decoration="normal" x="34.46666622161865" y="449.7178039550781" text-anchor="start" dominant-baseline="alphabetic" transform="matrix(1, 0, 0, 1, 0.5, 0.5)" fill-opacity="1">1</text><text fill="rgb(68,68,68)" stroke="none" font-family="helvetica" font-size="11px" font-style="normal" font-weight="normal" text-decoration="normal" x="40.88333320617676" y="344.445068359375" text-anchor="start" dominant-baseline="alphabetic" transform="matrix(1, 0, 0, 1, 0.5, 0.5)" fill-opacity="1">0</text><text fill="rgb(68,68,68)" stroke="none" font-family="helvetica" font-size="11px" font-style="normal" font-weight="normal" text-decoration="normal" x="40.88333320617676" y="239.17234802246094" text-anchor="start" dominant-baseline="alphabetic" transform="matrix(1, 0, 0, 1, 0.5, 0.5)" fill-opacity="1">1</text><text fill="rgb(68,68,68)" stroke="none" font-family="helvetica" font-size="11px" font-style="normal" font-weight="normal" text-decoration="normal" x="40.88333320617676" y="133.8996124267578" text-anchor="start" dominant-baseline="alphabetic" transform="matrix(1, 0, 0, 1, 0.5, 0.5)" fill-opacity="1">2</text><text fill="rgb(68,68,68)" stroke="none" font-family="helvetica" font-size="15pt" font-style="italic" font-weight="normal" text-decoration="normal" x="-11.316666603088379" y="336.076171875" text-anchor="start" dominant-baseline="alphabetic" transform="matrix(6.123233995736766e-17, -1, 1, 6.123233995736766e-17, -313.53333377838135, 367.46666622161865)" fill-opacity="1">students</text><path fill="rgb(255,255,255)" stroke="rgb(229,229,229)" paint-order="fill" d="M 1128.2333374023438 61.5 L 1326.5 61.5 L 1326.5 400.5 L 1128.2333374023438 400.5 L 1128.2333374023438 61.5" fill-opacity="0.9490196078431372" clip-path="url(#rcFLrKnMTqWX)" stroke-opacity="0.5019607843137255" stroke-linejoin="bevel" stroke-miterlimit="10" stroke-dasharray=""/><text fill="rgb(68,68,68)" stroke="none" font-family="helvetica" font-size="13px" font-style="normal" font-weight="normal" text-decoration="normal" x="1162.7333374023438" y="81" text-anchor="start" dominant-baseline="central" clip-path="url(#rcFLrKnMTqWX)" transform="matrix(1, 0, 0, 1, 0.5, 0.5)" fill-opacity="1">wavelength</text><path fill="rgb(0,255,40)" stroke="none" paint-order="stroke" d="M 1140.2333374023438 73.5 L 1156.2333374023438 73.5 L 1156.2333374023438 89.5 L 1140.2333374023438 89.5 L 1140.2333374023438 73.5" fill-opacity="1" clip-path="url(#rcFLrKnMTqWX)"/><path fill="rgb(216,17,89)" stroke="none" paint-order="stroke" d="M 1140.2333374023438 73.5 L 1156.2333374023438 73.5 L 1156.2333374023438 89.5 L 1140.2333374023438 89.5 L 1140.2333374023438 73.5" fill-opacity="1" clip-path="url(#rcFLrKnMTqWX)"/><text fill="rgb(68,68,68)" stroke="none" font-family="helvetica" font-size="13px" font-style="normal" font-weight="normal" text-decoration="normal" x="1162.7333374023438" y="104" text-anchor="start" dominant-baseline="central" clip-path="url(#rcFLrKnMTqWX)" transform="matrix(1, 0, 0, 1, 0.5, 0.5)" fill-opacity="1">solution</text><path fill="rgb(251,0,7)" stroke="none" paint-order="stroke" d="M 1140.2333374023438 96.5 L 1156.2333374023438 96.5 L 1156.2333374023438 112.5 L 1140.2333374023438 112.5 L 1140.2333374023438 96.5" fill-opacity="1" clip-path="url(#rcFLrKnMTqWX)"/><text fill="rgb(68,68,68)" stroke="none" font-family="helvetica" font-size="13px" font-style="normal" font-weight="normal" text-decoration="normal" x="1162.7333374023438" y="127" text-anchor="start" dominant-baseline="central" clip-path="url(#rcFLrKnMTqWX)" transform="matrix(1, 0, 0, 1, 0.5, 0.5)" fill-opacity="1">laser</text><path fill="rgb(105,29,48)" stroke="none" paint-order="stroke" d="M 1140.2333374023438 119.5 L 1156.2333374023438 119.5 L 1156.2333374023438 135.5 L 1140.2333374023438 135.5 L 1140.2333374023438 119.5" fill-opacity="1" clip-path="url(#rcFLrKnMTqWX)"/><text fill="rgb(68,68,68)" stroke="none" font-family="helvetica" font-size="13px" font-style="normal" font-weight="normal" text-decoration="normal" x="1162.7333374023438" y="150" text-anchor="start" dominant-baseline="central" clip-path="url(#rcFLrKnMTqWX)" transform="matrix(1, 0, 0, 1, 0.5, 0.5)" fill-opacity="1">ruler</text><path fill="rgb(255,188,66)" stroke="none" paint-order="stroke" d="M 1140.2333374023438 142.5 L 1156.2333374023438 142.5 L 1156.2333374023438 158.5 L 1140.2333374023438 158.5 L 1140.2333374023438 142.5" fill-opacity="1" clip-path="url(#rcFLrKnMTqWX)"/><text fill="rgb(68,68,68)" stroke="none" font-family="helvetica" font-size="13px" font-style="normal" font-weight="normal" text-decoration="normal" x="1162.7333374023438" y="173" text-anchor="start" dominant-baseline="central" clip-path="url(#rcFLrKnMTqWX)" transform="matrix(1, 0, 0, 1, 0.5, 0.5)" fill-opacity="1">restarts</text><text fill="rgb(68,68,68)" stroke="none" font-family="helvetica" font-size="13px" font-style="normal" font-weight="normal" text-decoration="normal" x="1162.7333374023438" y="196" text-anchor="start" dominant-baseline="central" clip-path="url(#rcFLrKnMTqWX)" transform="matrix(1, 0, 0, 1, 0.5, 0.5)" fill-opacity="1">transmittance_absorbance</text><text fill="rgb(68,68,68)" stroke="none" font-family="helvetica" font-size="13px" font-style="normal" font-weight="normal" text-decoration="normal" x="1162.7333374023438" y="219" text-anchor="start" dominant-baseline="central" clip-path="url(#rcFLrKnMTqWX)" transform="matrix(1, 0, 0, 1, 0.5, 0.5)" fill-opacity="1">magnifier</text><text fill="rgb(68,68,68)" stroke="none" font-family="helvetica" font-size="13px" font-style="normal" font-weight="normal" text-decoration="normal" x="1162.7333374023438" y="242" text-anchor="start" dominant-baseline="central" clip-path="url(#rcFLrKnMTqWX)" transform="matrix(1, 0, 0, 1, 0.5, 0.5)" fill-opacity="1">concentration</text><path fill="rgb(115,210,222)" stroke="none" paint-order="stroke" d="M 1140.2333374023438 234.5 L 1156.2333374023438 234.5 L 1156.2333374023438 250.5 L 1140.2333374023438 250.5 L 1140.2333374023438 234.5" fill-opacity="1" clip-path="url(#rcFLrKnMTqWX)"/><text fill="rgb(68,68,68)" stroke="none" font-family="helvetica" font-size="13px" font-style="normal" font-weight="normal" text-decoration="normal" x="1162.7333374023438" y="265" text-anchor="start" dominant-baseline="central" clip-path="url(#rcFLrKnMTqWX)" transform="matrix(1, 0, 0, 1, 0.5, 0.5)" fill-opacity="1">flask</text><path fill="rgb(28,49,68)" stroke="none" paint-order="stroke" d="M 1140.2333374023438 257.5 L 1156.2333374023438 257.5 L 1156.2333374023438 273.5 L 1140.2333374023438 273.5 L 1140.2333374023438 257.5" fill-opacity="1" clip-path="url(#rcFLrKnMTqWX)"/><text fill="rgb(68,68,68)" stroke="none" font-family="helvetica" font-size="13px" font-style="normal" font-weight="normal" text-decoration="normal" x="1162.7333374023438" y="288" text-anchor="start" dominant-baseline="central" clip-path="url(#rcFLrKnMTqWX)" transform="matrix(1, 0, 0, 1, 0.5, 0.5)" fill-opacity="1">pdf</text><text fill="rgb(68,68,68)" stroke="none" font-family="helvetica" font-size="13px" font-style="normal" font-weight="normal" text-decoration="normal" x="1162.7333374023438" y="311" text-anchor="start" dominant-baseline="central" clip-path="url(#rcFLrKnMTqWX)" transform="matrix(1, 0, 0, 1, 0.5, 0.5)" fill-opacity="1">concentrationlab</text><text fill="rgb(68,68,68)" stroke="none" font-family="helvetica" font-size="13px" font-style="normal" font-weight="normal" text-decoration="normal" x="1162.7333374023438" y="334" text-anchor="start" dominant-baseline="central" clip-path="url(#rcFLrKnMTqWX)" transform="matrix(1, 0, 0, 1, 0.5, 0.5)" fill-opacity="1">wavelength_slider</text><path fill="rgb(105,29,48)" stroke="none" paint-order="stroke" d="M 1140.2333374023438 326.5 L 1156.2333374023438 326.5 L 1156.2333374023438 342.5 L 1140.2333374023438 342.5 L 1140.2333374023438 326.5" fill-opacity="1" clip-path="url(#rcFLrKnMTqWX)"/><text fill="rgb(68,68,68)" stroke="none" font-family="helvetica" font-size="13px" font-style="normal" font-weight="normal" text-decoration="normal" x="1162.7333374023438" y="357" text-anchor="start" dominant-baseline="central" clip-path="url(#rcFLrKnMTqWX)" transform="matrix(1, 0, 0, 1, 0.5, 0.5)" fill-opacity="1">ruler measuring</text><text fill="rgb(68,68,68)" stroke="none" font-family="helvetica" font-size="13px" font-style="normal" font-weight="normal" text-decoration="normal" x="1162.7333374023438" y="380" text-anchor="start" dominant-baseline="central" clip-path="url(#rcFLrKnMTqWX)" transform="matrix(1, 0, 0, 1, 0.5, 0.5)" fill-opacity="1">dependent variable</text><path fill="rgb(143,45,86)" stroke="none" paint-order="stroke" d="M 1140.2333374023438 372.5 L 1156.2333374023438 372.5 L 1156.2333374023438 388.5 L 1140.2333374023438 388.5 L 1140.2333374023438 372.5" fill-opacity="1" clip-path="url(#rcFLrKnMTqWX)"/><text fill="rgb(68,68,68)" stroke="none" font-family="helvetica" font-size="25pt" font-style="normal" font-weight="bold" text-decoration="normal" x="58" y="38.740885416666664" text-anchor="start" dominant-baseline="alphabetic" transform="matrix(1, 0, 0, 1, 0.5, 0.5)" fill-opacity="1">Timeline for student n238pypu with permutation missing for task 1</text></svg>