<svg version="1.1" xmlns="http://www.w3.org/2000/svg" width="1366" height="683"><defs><clipPath id="ItsMXxWrsNku"><path fill="none" stroke="none" d="M 58.5 51.5 L 1336.5 51.5 L 1336.5 630.5 L 58.5 630.5 L 58.5 51.5"/></clipPath><clipPath id="onhBzPbQvZrX"><path fill="none" stroke="none" d="M 58.5 51.5 L 1336.5 51.5 L 1336.5 630.5 L 58.5 630.5 L 58.5 51.5"/></clipPath><clipPath id="WnLgPpzMlKNh"><path fill="none" stroke="none" d="M 58.5 51.5 L 1336.5 51.5 L 1336.5 630.5 L 58.5 630.5 L 58.5 51.5"/></clipPath><clipPath id="XofbgGivaRdS"><path fill="none" stroke="none" d="M 58.5 51.5 L 1336.5 51.5 L 1336.5 630.5 L 58.5 630.5 L 58.5 51.5"/></clipPath><clipPath id="DreUJZTlPDFZ"><path fill="none" stroke="none" d="M 58.5 51.5 L 1336.5 51.5 L 1336.5 630.5 L 58.5 630.5 L 58.5 51.5"/></clipPath><clipPath id="ylSNKBDzTCZB"><path fill="none" stroke="none" d="M 58.5 51.5 L 1336.5 51.5 L 1336.5 630.5 L 58.5 630.5 L 58.5 51.5"/></clipPath><clipPath id="HERHheZKEUPx"><path fill="none" stroke="none" d="M 58.5 51.5 L 1336.5 51.5 L 1336.5 630.5 L 58.5 630.5 L 58.5 51.5"/></clipPath><clipPath id="IsaLzosatsfu"><path fill="none" stroke="none" d="M 58.5 51.5 L 1336.5 51.5 L 1336.5 630.5 L 58.5 630.5 L 58.5 51.5"/></clipPath><clipPath id="VGZoFpTZGNuh"><path fill="none" stroke="none" d="M 58.5 51.5 L 1336.5 51.5 L 1336.5 630.5 L 58.5 630.5 L 58.5 51.5"/></clipPath><clipPath id="QgpSCrKrNTEQ"><path fill="none" stroke="none" d="M 58.5 51.5 L 1336.5 51.5 L 1336.5 630.5 L 58.5 630.5 L 58.5 51.5"/></clipPath><clipPath id="pqWGXnFrMnbb"><path fill="none" stroke="none" d="M 58.5 51.5 L 1336.5 51.5 L 1336.5 630.5 L 58.5 630.5 L 58.5 51.5"/></clipPath><clipPath id="yaCGpNgeFQMe"><path fill="none" stroke="none" d="M 58.5 51.5 L 1336.5 51.5 L 1336.5 630.5 L 58.5 630.5 L 58.5 51.5"/></clipPath><clipPath id="LtCtEfoUNsMe"><path fill="none" stroke="none" d="M 58.5 51.5 L 1336.5 51.5 L 1336.5 630.5 L 58.5 630.5 L 58.5 51.5"/></clipPath><clipPath id="GClvsklmusdS"><path fill="none" stroke="none" d="M 58.5 51.5 L 1336.5 51.5 L 1336.5 630.5 L 58.5 630.5 L 58.5 51.5"/></clipPath><clipPath id="FRzCIpaTUacR"><path fill="none" stroke="none" d="M 58.5 51.5 L 1336.5 51.5 L 1336.5 630.5 L 58.5 630.5 L 58.5 51.5"/></clipPath><clipPath id="aFHUmLamFlGf"><path fill="none" stroke="none" d="M 58.5 51.5 L 1336.5 51.5 L 1336.5 630.5 L 58.5 630.5 L 58.5 51.5"/></clipPath><clipPath id="aMCClBphTqNa"><path fill="none" stroke="none" d="M 58.5 51.5 L 1336.5 51.5 L 1336.5 630.5 L 58.5 630.5 L 58.5 51.5"/></clipPath><clipPath id="iWzKoNxxxTWR"><path fill="none" stroke="none" d="M 58.5 51.5 L 1336.5 51.5 L 1336.5 630.5 L 58.5 630.5 L 58.5 51.5"/></clipPath><clipPath id="qoszNZoWTnHH"><path fill="none" stroke="none" d="M 58.5 51.5 L 1336.5 51.5 L 1336.5 630.5 L 58.5 630.5 L 58.5 51.5"/></clipPath><clipPath id="PVrTHyAwEqLy"><path fill="none" stroke="none" d="M 58.5 51.5 L 1336.5 51.5 L 1336.5 630.5 L 58.5 630.5 L 58.5 51.5"/></clipPath><clipPath id="QGHmJAMcpJXg"><path fill="none" stroke="none" d="M 58.5 51.5 L 1336.5 51.5 L 1336.5 630.5 L 58.5 630.5 L 58.5 51.5"/></clipPath></defs><path fill="rgb(255,255,255)" stroke="none" paint-order="stroke" d="M 0.5 0.5 L 1366.5 0.5 L 1366.5 683.5 L 0.5 683.5 L 0.5 0.5" fill-opacity="1"/><rect fill="#FFFFFF" stroke="none" x="58" y="51" width="1278" height="579" transform="matrix(1, 0, 0, 1, 0.5, 0.5)"/><path fill="rgb(255,255,255)" stroke="none" paint-order="stroke" d="M 58.5 51.5 L 1336.5 51.5 L 1336.5 630.5 L 58.5 630.5 L 58.5 51.5" fill-opacity="1"/><path fill="none" stroke="rgb(229,229,229)" paint-order="fill" d="M 58.5 51.5 L 1336.5 51.5 L 1336.5 630.5 L 58.5 630.5 L 58.5 51.5" stroke-opacity="1" stroke-linejoin="bevel" stroke-miterlimit="10" stroke-dasharray=""/><path fill="none" stroke="rgb(229,229,229)" paint-order="fill" d="M 314.5 630.5 L 314.5 51.5 M 569.5 630.5 L 569.5 51.5 M 825.5 630.5 L 825.5 51.5 M 1080.5 630.5 L 1080.5 51.5" stroke-opacity="1" stroke-linejoin="bevel" stroke-miterlimit="10" stroke-dasharray="" clip-path="url(#ItsMXxWrsNku)"/><path fill="none" stroke="rgb(229,229,229)" paint-order="fill" d="M 58.5 551.5 L 1336.5 551.5 M 58.5 446.5 L 1336.5 446.5 M 58.5 341.5 L 1336.5 341.5 M 58.5 235.5 L 1336.5 235.5 M 58.5 130.5 L 1336.5 130.5" stroke-opacity="1" stroke-linejoin="bevel" stroke-miterlimit="10" stroke-dasharray="" clip-path="url(#onhBzPbQvZrX)"/><path fill="rgb(0,255,40)" stroke="none" paint-order="stroke" d="M 58.5 77.81818389892578 L 84.43317604064941 77.81818389892578 L 84.43317604064941 130.45454788208008 L 58.5 130.45454788208008 L 58.5 77.81818389892578" fill-opacity="1" clip-path="url(#WnLgPpzMlKNh)"/><path fill="rgb(141,0,0)" stroke="none" paint-order="stroke" d="M 84.43317413330078 77.81818389892578 L 86.02172815799713 77.81818389892578 L 86.02172815799713 130.45454788208008 L 84.43317413330078 130.45454788208008 L 84.43317413330078 77.81818389892578" fill-opacity="1" clip-path="url(#WnLgPpzMlKNh)"/><path fill="rgb(140,0,0)" stroke="none" paint-order="stroke" d="M 86.021728515625 77.81818389892578 L 86.05112251639366 77.81818389892578 L 86.05112251639366 130.45454788208008 L 86.021728515625 130.45454788208008 L 86.021728515625 77.81818389892578" fill-opacity="1" clip-path="url(#WnLgPpzMlKNh)"/><path fill="rgb(129,0,0)" stroke="none" paint-order="stroke" d="M 86.0511245727539 77.81818389892578 L 86.09457657113671 77.81818389892578 L 86.09457657113671 130.45454788208008 L 86.0511245727539 130.45454788208008 L 86.0511245727539 77.81818389892578" fill-opacity="1" clip-path="url(#WnLgPpzMlKNh)"/><path fill="rgb(122,0,0)" stroke="none" paint-order="stroke" d="M 86.09457397460938 77.81818389892578 L 86.11629997380078 77.81818389892578 L 86.11629997380078 130.45454788208008 L 86.09457397460938 130.45454788208008 L 86.09457397460938 77.81818389892578" fill-opacity="1" clip-path="url(#WnLgPpzMlKNh)"/><path fill="rgb(110,0,0)" stroke="none" paint-order="stroke" d="M 86.11630249023438 77.81818389892578 L 86.13675048947334 77.81818389892578 L 86.13675048947334 130.45454788208008 L 86.11630249023438 130.45454788208008 L 86.11630249023438 77.81818389892578" fill-opacity="1" clip-path="url(#WnLgPpzMlKNh)"/><path fill="rgb(99,0,0)" stroke="none" paint-order="stroke" d="M 86.13674926757812 77.81818389892578 L 86.1571972668171 77.81818389892578 L 86.1571972668171 130.45454788208008 L 86.13674926757812 130.45454788208008 L 86.13674926757812 77.81818389892578" fill-opacity="1" clip-path="url(#WnLgPpzMlKNh)"/><path fill="rgb(0,0,0)" stroke="none" paint-order="stroke" d="M 86.15719604492188 77.81818389892578 L 86.17892204411328 77.81818389892578 L 86.17892204411328 130.45454788208008 L 86.15719604492188 130.45454788208008 L 86.15719604492188 77.81818389892578" fill-opacity="1" clip-path="url(#WnLgPpzMlKNh)"/><path fill="rgb(0,0,0)" stroke="none" paint-order="stroke" d="M 86.17892456054688 77.81818389892578 L 86.20065055973828 77.81818389892578 L 86.20065055973828 130.45454788208008 L 86.17892456054688 130.45454788208008 L 86.17892456054688 77.81818389892578" fill-opacity="1" clip-path="url(#WnLgPpzMlKNh)"/><path fill="rgb(0,0,0)" stroke="none" paint-order="stroke" d="M 86.20065307617188 77.81818389892578 L 86.22237907536328 77.81818389892578 L 86.22237907536328 130.45454788208008 L 86.20065307617188 130.45454788208008 L 86.20065307617188 77.81818389892578" fill-opacity="1" clip-path="url(#WnLgPpzMlKNh)"/><path fill="rgb(0,0,0)" stroke="none" paint-order="stroke" d="M 86.22237396240234 77.81818389892578 L 86.24282196164131 77.81818389892578 L 86.24282196164131 130.45454788208008 L 86.22237396240234 130.45454788208008 L 86.22237396240234 77.81818389892578" fill-opacity="1" clip-path="url(#WnLgPpzMlKNh)"/><path fill="rgb(0,0,0)" stroke="none" paint-order="stroke" d="M 86.2428207397461 77.81818389892578 L 86.27477074041963 77.81818389892578 L 86.27477074041963 130.45454788208008 L 86.2428207397461 130.45454788208008 L 86.2428207397461 77.81818389892578" fill-opacity="1" clip-path="url(#WnLgPpzMlKNh)"/><path fill="rgb(0,0,0)" stroke="none" paint-order="stroke" d="M 86.27477264404297 77.81818389892578 L 88.41670060157776 77.81818389892578 L 88.41670060157776 130.45454788208008 L 86.27477264404297 130.45454788208008 L 86.27477264404297 77.81818389892578" fill-opacity="1" clip-path="url(#WnLgPpzMlKNh)"/><path fill="rgb(0,0,0)" stroke="none" paint-order="stroke" d="M 88.41670227050781 77.81818389892578 L 88.43970626965165 77.81818389892578 L 88.43970626965165 130.45454788208008 L 88.41670227050781 130.45454788208008 L 88.41670227050781 77.81818389892578" fill-opacity="1" clip-path="url(#WnLgPpzMlKNh)"/><path fill="rgb(0,0,0)" stroke="none" paint-order="stroke" d="M 88.43970489501953 77.81818389892578 L 88.4601528942585 77.81818389892578 L 88.4601528942585 130.45454788208008 L 88.43970489501953 130.45454788208008 L 88.43970489501953 77.81818389892578" fill-opacity="1" clip-path="url(#WnLgPpzMlKNh)"/><path fill="rgb(0,0,0)" stroke="none" paint-order="stroke" d="M 88.46015167236328 77.81818389892578 L 88.48059967160225 77.81818389892578 L 88.48059967160225 130.45454788208008 L 88.46015167236328 130.45454788208008 L 88.46015167236328 77.81818389892578" fill-opacity="1" clip-path="url(#WnLgPpzMlKNh)"/><path fill="rgb(110,0,0)" stroke="none" paint-order="stroke" d="M 88.48059844970703 77.81818389892578 L 88.49976844899356 77.81818389892578 L 88.49976844899356 130.45454788208008 L 88.48059844970703 130.45454788208008 L 88.48059844970703 77.81818389892578" fill-opacity="1" clip-path="url(#WnLgPpzMlKNh)"/><path fill="rgb(144,0,0)" stroke="none" paint-order="stroke" d="M 88.49977111816406 77.81818389892578 L 88.52149711735547 77.81818389892578 L 88.52149711735547 130.45454788208008 L 88.49977111816406 130.45454788208008 L 88.49977111816406 77.81818389892578" fill-opacity="1" clip-path="url(#WnLgPpzMlKNh)"/><path fill="rgb(182,0,0)" stroke="none" paint-order="stroke" d="M 88.52149963378906 77.81818389892578 L 88.54322563298047 77.81818389892578 L 88.54322563298047 130.45454788208008 L 88.52149963378906 130.45454788208008 L 88.52149963378906 77.81818389892578" fill-opacity="1" clip-path="url(#WnLgPpzMlKNh)"/><path fill="rgb(227,0,0)" stroke="none" paint-order="stroke" d="M 88.54322052001953 77.81818389892578 L 88.56494651921093 77.81818389892578 L 88.56494651921093 130.45454788208008 L 88.54322052001953 130.45454788208008 L 88.54322052001953 77.81818389892578" fill-opacity="1" clip-path="url(#WnLgPpzMlKNh)"/><path fill="rgb(255,27,0)" stroke="none" paint-order="stroke" d="M 88.56494903564453 77.81818389892578 L 88.5853970348835 77.81818389892578 L 88.5853970348835 130.45454788208008 L 88.56494903564453 130.45454788208008 L 88.56494903564453 77.81818389892578" fill-opacity="1" clip-path="url(#WnLgPpzMlKNh)"/><path fill="rgb(255,118,0)" stroke="none" paint-order="stroke" d="M 88.58539581298828 77.81818389892578 L 88.60712181217968 77.81818389892578 L 88.60712181217968 130.45454788208008 L 88.58539581298828 130.45454788208008 L 88.58539581298828 77.81818389892578" fill-opacity="1" clip-path="url(#WnLgPpzMlKNh)"/><path fill="rgb(255,183,0)" stroke="none" paint-order="stroke" d="M 88.60712432861328 77.81818389892578 L 88.62757232785225 77.81818389892578 L 88.62757232785225 130.45454788208008 L 88.60712432861328 130.45454788208008 L 88.60712432861328 77.81818389892578" fill-opacity="1" clip-path="url(#WnLgPpzMlKNh)"/><path fill="rgb(255,239,0)" stroke="none" paint-order="stroke" d="M 88.62757110595703 77.81818389892578 L 88.64929710514843 77.81818389892578 L 88.64929710514843 130.45454788208008 L 88.62757110595703 130.45454788208008 L 88.62757110595703 77.81818389892578" fill-opacity="1" clip-path="url(#WnLgPpzMlKNh)"/><path fill="rgb(216,255,0)" stroke="none" paint-order="stroke" d="M 88.64929962158203 77.81818389892578 L 88.67102562077343 77.81818389892578 L 88.67102562077343 130.45454788208008 L 88.64929962158203 130.45454788208008 L 88.64929962158203 77.81818389892578" fill-opacity="1" clip-path="url(#WnLgPpzMlKNh)"/><path fill="rgb(172,255,0)" stroke="none" paint-order="stroke" d="M 88.6710205078125 77.81818389892578 L 88.69146850705147 77.81818389892578 L 88.69146850705147 130.45454788208008 L 88.6710205078125 130.45454788208008 L 88.6710205078125 77.81818389892578" fill-opacity="1" clip-path="url(#WnLgPpzMlKNh)"/><path fill="rgb(126,255,0)" stroke="none" paint-order="stroke" d="M 88.69147491455078 77.81818389892578 L 88.71320091374218 77.81818389892578 L 88.71320091374218 130.45454788208008 L 88.69147491455078 130.45454788208008 L 88.69147491455078 77.81818389892578" fill-opacity="1" clip-path="url(#WnLgPpzMlKNh)"/><path fill="rgb(89,255,0)" stroke="none" paint-order="stroke" d="M 88.71319580078125 77.81818389892578 L 88.73492179997265 77.81818389892578 L 88.73492179997265 130.45454788208008 L 88.71319580078125 130.45454788208008 L 88.71319580078125 77.81818389892578" fill-opacity="1" clip-path="url(#WnLgPpzMlKNh)"/><path fill="rgb(30,255,0)" stroke="none" paint-order="stroke" d="M 88.73492431640625 77.81818389892578 L 88.75537231564522 77.81818389892578 L 88.75537231564522 130.45454788208008 L 88.73492431640625 130.45454788208008 L 88.73492431640625 77.81818389892578" fill-opacity="1" clip-path="url(#WnLgPpzMlKNh)"/><path fill="rgb(0,255,180)" stroke="none" paint-order="stroke" d="M 88.75537109375 77.81818389892578 L 88.7770970929414 77.81818389892578 L 88.7770970929414 130.45454788208008 L 88.75537109375 130.45454788208008 L 88.75537109375 77.81818389892578" fill-opacity="1" clip-path="url(#WnLgPpzMlKNh)"/><path fill="rgb(0,242,255)" stroke="none" paint-order="stroke" d="M 88.777099609375 77.81818389892578 L 88.7988256085664 77.81818389892578 L 88.7988256085664 130.45454788208008 L 88.777099609375 130.45454788208008 L 88.777099609375 77.81818389892578" fill-opacity="1" clip-path="url(#WnLgPpzMlKNh)"/><path fill="rgb(0,196,255)" stroke="none" paint-order="stroke" d="M 88.79882049560547 77.81818389892578 L 88.85760849714279 77.81818389892578 L 88.85760849714279 130.45454788208008 L 88.79882049560547 130.45454788208008 L 88.79882049560547 77.81818389892578" fill-opacity="1" clip-path="url(#WnLgPpzMlKNh)"/><path fill="rgb(0,182,255)" stroke="none" paint-order="stroke" d="M 88.85761260986328 77.81818389892578 L 89.51322662830353 77.81818389892578 L 89.51322662830353 130.45454788208008 L 88.85761260986328 130.45454788208008 L 88.85761260986328 77.81818389892578" fill-opacity="1" clip-path="url(#WnLgPpzMlKNh)"/><path fill="rgb(0,164,255)" stroke="none" paint-order="stroke" d="M 89.51322937011719 77.81818389892578 L 89.67297936975956 77.81818389892578 L 89.67297936975956 130.45454788208008 L 89.51322937011719 130.45454788208008 L 89.51322937011719 77.81818389892578" fill-opacity="1" clip-path="url(#WnLgPpzMlKNh)"/><path fill="rgb(0,151,255)" stroke="none" paint-order="stroke" d="M 89.6729736328125 77.81818389892578 L 89.75859963148832 77.81818389892578 L 89.75859963148832 130.45454788208008 L 89.6729736328125 130.45454788208008 L 89.6729736328125 77.81818389892578" fill-opacity="1" clip-path="url(#WnLgPpzMlKNh)"/><path fill="rgb(0,132,255)" stroke="none" paint-order="stroke" d="M 89.75859832763672 77.81818389892578 L 89.8122743293643 77.81818389892578 L 89.8122743293643 130.45454788208008 L 89.75859832763672 130.45454788208008 L 89.75859832763672 77.81818389892578" fill-opacity="1" clip-path="url(#WnLgPpzMlKNh)"/><path fill="rgb(0,117,255)" stroke="none" paint-order="stroke" d="M 89.8122787475586 77.81818389892578 L 89.82250274717808 77.81818389892578 L 89.82250274717808 130.45454788208008 L 89.8122787475586 130.45454788208008 L 89.8122787475586 77.81818389892578" fill-opacity="1" clip-path="url(#WnLgPpzMlKNh)"/><path fill="rgb(0,97,255)" stroke="none" paint-order="stroke" d="M 89.82250213623047 77.81818389892578 L 89.84422813542187 77.81818389892578 L 89.84422813542187 130.45454788208008 L 89.82250213623047 130.45454788208008 L 89.82250213623047 77.81818389892578" fill-opacity="1" clip-path="url(#WnLgPpzMlKNh)"/><path fill="rgb(0,81,255)" stroke="none" paint-order="stroke" d="M 89.84423065185547 77.81818389892578 L 89.86467865109444 77.81818389892578 L 89.86467865109444 130.45454788208008 L 89.84423065185547 130.45454788208008 L 89.84423065185547 77.81818389892578" fill-opacity="1" clip-path="url(#WnLgPpzMlKNh)"/><path fill="rgb(0,40,255)" stroke="none" paint-order="stroke" d="M 89.86467742919922 77.81818389892578 L 89.90557342767715 77.81818389892578 L 89.90557342767715 130.45454788208008 L 89.86467742919922 130.45454788208008 L 89.86467742919922 77.81818389892578" fill-opacity="1" clip-path="url(#WnLgPpzMlKNh)"/><path fill="rgb(38,0,240)" stroke="none" paint-order="stroke" d="M 89.90557098388672 77.81818389892578 L 89.92729698307812 77.81818389892578 L 89.92729698307812 130.45454788208008 L 89.90557098388672 130.45454788208008 L 89.90557098388672 77.81818389892578" fill-opacity="1" clip-path="url(#WnLgPpzMlKNh)"/><path fill="rgb(65,0,223)" stroke="none" paint-order="stroke" d="M 89.92729949951172 77.81818389892578 L 89.94902549870312 77.81818389892578 L 89.94902549870312 130.45454788208008 L 89.92729949951172 130.45454788208008 L 89.92729949951172 77.81818389892578" fill-opacity="1" clip-path="url(#WnLgPpzMlKNh)"/><path fill="rgb(83,0,208)" stroke="none" paint-order="stroke" d="M 89.94902038574219 77.81818389892578 L 89.96946838498116 77.81818389892578 L 89.96946838498116 130.45454788208008 L 89.94902038574219 130.45454788208008 L 89.94902038574219 77.81818389892578" fill-opacity="1" clip-path="url(#WnLgPpzMlKNh)"/><path fill="rgb(103,0,180)" stroke="none" paint-order="stroke" d="M 89.96947479248047 77.81818389892578 L 89.99120079167187 77.81818389892578 L 89.99120079167187 130.45454788208008 L 89.96947479248047 130.45454788208008 L 89.96947479248047 77.81818389892578" fill-opacity="1" clip-path="url(#WnLgPpzMlKNh)"/><path fill="rgb(111,0,154)" stroke="none" paint-order="stroke" d="M 89.99119567871094 77.81818389892578 L 90.01292167790234 77.81818389892578 L 90.01292167790234 130.45454788208008 L 89.99119567871094 130.45454788208008 L 89.99119567871094 77.81818389892578" fill-opacity="1" clip-path="url(#WnLgPpzMlKNh)"/><path fill="rgb(108,0,123)" stroke="none" paint-order="stroke" d="M 90.01292419433594 77.81818389892578 L 90.0333721935749 77.81818389892578 L 90.0333721935749 130.45454788208008 L 90.01292419433594 130.45454788208008 L 90.01292419433594 77.81818389892578" fill-opacity="1" clip-path="url(#WnLgPpzMlKNh)"/><path fill="rgb(100,0,103)" stroke="none" paint-order="stroke" d="M 90.03337097167969 77.81818389892578 L 90.05509697087109 77.81818389892578 L 90.05509697087109 130.45454788208008 L 90.03337097167969 130.45454788208008 L 90.03337097167969 77.81818389892578" fill-opacity="1" clip-path="url(#WnLgPpzMlKNh)"/><path fill="rgb(97,0,97)" stroke="none" paint-order="stroke" d="M 90.05509948730469 77.81818389892578 L 91.75995147228241 77.81818389892578 L 91.75995147228241 130.45454788208008 L 90.05509948730469 130.45454788208008 L 90.05509948730469 77.81818389892578" fill-opacity="1" clip-path="url(#WnLgPpzMlKNh)"/><path fill="rgb(100,0,103)" stroke="none" paint-order="stroke" d="M 91.75994873046875 77.81818389892578 L 91.78423072956502 77.81818389892578 L 91.78423072956502 130.45454788208008 L 91.75994873046875 130.45454788208008 L 91.75994873046875 77.81818389892578" fill-opacity="1" clip-path="url(#WnLgPpzMlKNh)"/><path fill="rgb(111,0,135)" stroke="none" paint-order="stroke" d="M 91.78423309326172 77.81818389892578 L 91.80212509259582 77.81818389892578 L 91.80212509259582 130.45454788208008 L 91.78423309326172 130.45454788208008 L 91.78423309326172 77.81818389892578" fill-opacity="1" clip-path="url(#WnLgPpzMlKNh)"/><path fill="rgb(103,0,180)" stroke="none" paint-order="stroke" d="M 91.8021240234375 77.81818389892578 L 91.82257202267647 77.81818389892578 L 91.82257202267647 130.45454788208008 L 91.8021240234375 130.45454788208008 L 91.8021240234375 77.81818389892578" fill-opacity="1" clip-path="url(#WnLgPpzMlKNh)"/><path fill="rgb(51,0,233)" stroke="none" paint-order="stroke" d="M 91.82257080078125 77.81818389892578 L 91.84429679997265 77.81818389892578 L 91.84429679997265 130.45454788208008 L 91.82257080078125 130.45454788208008 L 91.82257080078125 77.81818389892578" fill-opacity="1" clip-path="url(#WnLgPpzMlKNh)"/><path fill="rgb(0,81,255)" stroke="none" paint-order="stroke" d="M 91.84429931640625 77.81818389892578 L 91.86602531559765 77.81818389892578 L 91.86602531559765 130.45454788208008 L 91.84429931640625 130.45454788208008 L 91.84429931640625 77.81818389892578" fill-opacity="1" clip-path="url(#WnLgPpzMlKNh)"/><path fill="rgb(0,151,255)" stroke="none" paint-order="stroke" d="M 91.86602020263672 77.81818389892578 L 91.88646820187569 77.81818389892578 L 91.88646820187569 130.45454788208008 L 91.86602020263672 130.45454788208008 L 91.86602020263672 77.81818389892578" fill-opacity="1" clip-path="url(#WnLgPpzMlKNh)"/><path fill="rgb(0,196,255)" stroke="none" paint-order="stroke" d="M 91.886474609375 77.81818389892578 L 91.9082006085664 77.81818389892578 L 91.9082006085664 130.45454788208008 L 91.886474609375 130.45454788208008 L 91.886474609375 77.81818389892578" fill-opacity="1" clip-path="url(#WnLgPpzMlKNh)"/><path fill="rgb(0,213,255)" stroke="none" paint-order="stroke" d="M 91.90819549560547 77.81818389892578 L 91.94781349599361 77.81818389892578 L 91.94781349599361 130.45454788208008 L 91.90819549560547 130.45454788208008 L 91.90819549560547 77.81818389892578" fill-opacity="1" clip-path="url(#WnLgPpzMlKNh)"/><path fill="rgb(0,226,255)" stroke="none" paint-order="stroke" d="M 91.94781494140625 77.81818389892578 L 92.27242693305016 77.81818389892578 L 92.27242693305016 130.45454788208008 L 91.94781494140625 130.45454788208008 L 91.94781494140625 77.81818389892578" fill-opacity="1" clip-path="url(#WnLgPpzMlKNh)"/><path fill="rgb(0,242,255)" stroke="none" paint-order="stroke" d="M 92.27243041992188 77.81818389892578 L 92.33505242317915 77.81818389892578 L 92.33505242317915 130.45454788208008 L 92.27243041992188 130.45454788208008 L 92.27243041992188 77.81818389892578" fill-opacity="1" clip-path="url(#WnLgPpzMlKNh)"/><path fill="rgb(0,255,213)" stroke="none" paint-order="stroke" d="M 92.33505249023438 77.81818389892578 L 92.35805648937821 77.81818389892578 L 92.35805648937821 130.45454788208008 L 92.33505249023438 130.45454788208008 L 92.33505249023438 77.81818389892578" fill-opacity="1" clip-path="url(#WnLgPpzMlKNh)"/><path fill="rgb(0,255,180)" stroke="none" paint-order="stroke" d="M 92.3580551147461 77.81818389892578 L 92.37850311398506 77.81818389892578 L 92.37850311398506 130.45454788208008 L 92.3580551147461 130.45454788208008 L 92.3580551147461 77.81818389892578" fill-opacity="1" clip-path="url(#WnLgPpzMlKNh)"/><path fill="rgb(0,255,97)" stroke="none" paint-order="stroke" d="M 92.37850189208984 77.81818389892578 L 92.39894989132881 77.81818389892578 L 92.39894989132881 130.45454788208008 L 92.37850189208984 130.45454788208008 L 92.37850189208984 77.81818389892578" fill-opacity="1" clip-path="url(#WnLgPpzMlKNh)"/><path fill="rgb(30,255,0)" stroke="none" paint-order="stroke" d="M 92.3989486694336 77.81818389892578 L 92.420674668625 77.81818389892578 L 92.420674668625 130.45454788208008 L 92.3989486694336 130.45454788208008 L 92.3989486694336 77.81818389892578" fill-opacity="1" clip-path="url(#WnLgPpzMlKNh)"/><path fill="rgb(62,255,0)" stroke="none" paint-order="stroke" d="M 92.4206771850586 77.81818389892578 L 92.44112518429756 77.81818389892578 L 92.44112518429756 130.45454788208008 L 92.4206771850586 130.45454788208008 L 92.4206771850586 77.81818389892578" fill-opacity="1" clip-path="url(#WnLgPpzMlKNh)"/><path fill="rgb(101,255,0)" stroke="none" paint-order="stroke" d="M 92.44112396240234 77.81818389892578 L 92.46157196164131 77.81818389892578 L 92.46157196164131 130.45454788208008 L 92.44112396240234 130.45454788208008 L 92.44112396240234 77.81818389892578" fill-opacity="1" clip-path="url(#WnLgPpzMlKNh)"/><path fill="rgb(126,255,0)" stroke="none" paint-order="stroke" d="M 92.4615707397461 77.81818389892578 L 92.4832967389375 77.81818389892578 L 92.4832967389375 130.45454788208008 L 92.4615707397461 130.45454788208008 L 92.4615707397461 77.81818389892578" fill-opacity="1" clip-path="url(#WnLgPpzMlKNh)"/><path fill="rgb(149,255,0)" stroke="none" paint-order="stroke" d="M 92.4832992553711 77.81818389892578 L 92.52547325566411 77.81818389892578 L 92.52547325566411 130.45454788208008 L 92.4832992553711 130.45454788208008 L 92.4832992553711 77.81818389892578" fill-opacity="1" clip-path="url(#WnLgPpzMlKNh)"/><path fill="rgb(162,255,0)" stroke="none" paint-order="stroke" d="M 92.52547454833984 77.81818389892578 L 92.54592254757881 77.81818389892578 L 92.54592254757881 130.45454788208008 L 92.52547454833984 130.45454788208008 L 92.52547454833984 77.81818389892578" fill-opacity="1" clip-path="url(#WnLgPpzMlKNh)"/><path fill="rgb(185,255,0)" stroke="none" paint-order="stroke" d="M 92.5459213256836 77.81818389892578 L 92.5893733240664 77.81818389892578 L 92.5893733240664 130.45454788208008 L 92.5459213256836 130.45454788208008 L 92.5459213256836 77.81818389892578" fill-opacity="1" clip-path="url(#WnLgPpzMlKNh)"/><path fill="rgb(194,255,0)" stroke="none" paint-order="stroke" d="M 92.58937072753906 77.81818389892578 L 92.6213207282126 77.81818389892578 L 92.6213207282126 130.45454788208008 L 92.58937072753906 130.45454788208008 L 92.58937072753906 77.81818389892578" fill-opacity="1" clip-path="url(#WnLgPpzMlKNh)"/><path fill="rgb(207,255,0)" stroke="none" paint-order="stroke" d="M 92.62132263183594 77.81818389892578 L 92.685222633183 77.81818389892578 L 92.685222633183 130.45454788208008 L 92.62132263183594 130.45454788208008 L 92.62132263183594 77.81818389892578" fill-opacity="1" clip-path="url(#WnLgPpzMlKNh)"/><path fill="rgb(216,255,0)" stroke="none" paint-order="stroke" d="M 92.68521881103516 77.81818389892578 L 92.78106880933046 77.81818389892578 L 92.78106880933046 130.45454788208008 L 92.68521881103516 130.45454788208008 L 92.68521881103516 77.81818389892578" fill-opacity="1" clip-path="url(#WnLgPpzMlKNh)"/><path fill="rgb(228,255,0)" stroke="none" paint-order="stroke" d="M 92.78107452392578 77.81818389892578 L 92.81302452459931 77.81818389892578 L 92.81302452459931 130.45454788208008 L 92.78107452392578 130.45454788208008 L 92.78107452392578 77.81818389892578" fill-opacity="1" clip-path="url(#WnLgPpzMlKNh)"/><path fill="rgb(237,255,0)" stroke="none" paint-order="stroke" d="M 92.81301879882812 77.81818389892578 L 92.86541679874063 77.81818389892578 L 92.86541679874063 130.45454788208008 L 92.81301879882812 130.45454788208008 L 92.81301879882812 77.81818389892578" fill-opacity="1" clip-path="url(#WnLgPpzMlKNh)"/><path fill="rgb(249,255,0)" stroke="none" paint-order="stroke" d="M 92.86541748046875 77.81818389892578 L 92.92037148028612 77.81818389892578 L 92.92037148028612 130.45454788208008 L 92.86541748046875 130.45454788208008 L 92.86541748046875 77.81818389892578" fill-opacity="1" clip-path="url(#WnLgPpzMlKNh)"/><path fill="rgb(255,251,0)" stroke="none" paint-order="stroke" d="M 92.92037200927734 77.81818389892578 L 92.96254600957036 77.81818389892578 L 92.96254600957036 130.45454788208008 L 92.92037200927734 130.45454788208008 L 92.92037200927734 77.81818389892578" fill-opacity="1" clip-path="url(#WnLgPpzMlKNh)"/><path fill="rgb(255,239,0)" stroke="none" paint-order="stroke" d="M 92.9625473022461 77.81818389892578 L 92.99449730291963 77.81818389892578 L 92.99449730291963 130.45454788208008 L 92.9625473022461 130.45454788208008 L 92.9625473022461 77.81818389892578" fill-opacity="1" clip-path="url(#WnLgPpzMlKNh)"/><path fill="rgb(255,229,0)" stroke="none" paint-order="stroke" d="M 92.99449920654297 77.81818389892578 L 93.01494720578194 77.81818389892578 L 93.01494720578194 130.45454788208008 L 92.99449920654297 130.45454788208008 L 92.99449920654297 77.81818389892578" fill-opacity="1" clip-path="url(#WnLgPpzMlKNh)"/><path fill="rgb(255,216,0)" stroke="none" paint-order="stroke" d="M 93.01494598388672 77.81818389892578 L 93.03794998303056 77.81818389892578 L 93.03794998303056 130.45454788208008 L 93.01494598388672 130.45454788208008 L 93.01494598388672 77.81818389892578" fill-opacity="1" clip-path="url(#WnLgPpzMlKNh)"/><path fill="rgb(255,206,0)" stroke="none" paint-order="stroke" d="M 93.03794860839844 77.81818389892578 L 93.0583966076374 77.81818389892578 L 93.0583966076374 130.45454788208008 L 93.03794860839844 130.45454788208008 L 93.03794860839844 77.81818389892578" fill-opacity="1" clip-path="url(#WnLgPpzMlKNh)"/><path fill="rgb(255,193,0)" stroke="none" paint-order="stroke" d="M 93.05839538574219 77.81818389892578 L 93.07884338498116 77.81818389892578 L 93.07884338498116 130.45454788208008 L 93.05839538574219 130.45454788208008 L 93.05839538574219 77.81818389892578" fill-opacity="1" clip-path="url(#WnLgPpzMlKNh)"/><path fill="rgb(255,169,0)" stroke="none" paint-order="stroke" d="M 93.07884979248047 77.81818389892578 L 93.10057579167187 77.81818389892578 L 93.10057579167187 130.45454788208008 L 93.07884979248047 130.45454788208008 L 93.07884979248047 77.81818389892578" fill-opacity="1" clip-path="url(#WnLgPpzMlKNh)"/><path fill="rgb(255,144,0)" stroke="none" paint-order="stroke" d="M 93.10057067871094 77.81818389892578 L 93.12229667790234 77.81818389892578 L 93.12229667790234 130.45454788208008 L 93.10057067871094 130.45454788208008 L 93.10057067871094 77.81818389892578" fill-opacity="1" clip-path="url(#WnLgPpzMlKNh)"/><path fill="rgb(255,91,0)" stroke="none" paint-order="stroke" d="M 93.12229919433594 77.81818389892578 L 93.1427471935749 77.81818389892578 L 93.1427471935749 130.45454788208008 L 93.12229919433594 130.45454788208008 L 93.12229919433594 77.81818389892578" fill-opacity="1" clip-path="url(#WnLgPpzMlKNh)"/><path fill="rgb(255,47,0)" stroke="none" paint-order="stroke" d="M 93.14274597167969 77.81818389892578 L 93.16447197087109 77.81818389892578 L 93.16447197087109 130.45454788208008 L 93.14274597167969 130.45454788208008 L 93.14274597167969 77.81818389892578" fill-opacity="1" clip-path="url(#WnLgPpzMlKNh)"/><path fill="rgb(252,0,0)" stroke="none" paint-order="stroke" d="M 93.16447448730469 77.81818389892578 L 93.18620048649609 77.81818389892578 L 93.18620048649609 130.45454788208008 L 93.16447448730469 130.45454788208008 L 93.16447448730469 77.81818389892578" fill-opacity="1" clip-path="url(#WnLgPpzMlKNh)"/><path fill="rgb(242,0,0)" stroke="none" paint-order="stroke" d="M 93.18619537353516 77.81818389892578 L 93.20664337277412 77.81818389892578 L 93.20664337277412 130.45454788208008 L 93.18619537353516 130.45454788208008 L 93.18619537353516 77.81818389892578" fill-opacity="1" clip-path="url(#WnLgPpzMlKNh)"/><path fill="rgb(232,0,0)" stroke="none" paint-order="stroke" d="M 93.20664978027344 77.81818389892578 L 93.22837577946484 77.81818389892578 L 93.22837577946484 130.45454788208008 L 93.20664978027344 130.45454788208008 L 93.20664978027344 77.81818389892578" fill-opacity="1" clip-path="url(#WnLgPpzMlKNh)"/><path fill="rgb(223,0,0)" stroke="none" paint-order="stroke" d="M 93.2283706665039 77.81818389892578 L 93.25009666569531 77.81818389892578 L 93.25009666569531 130.45454788208008 L 93.2283706665039 130.45454788208008 L 93.2283706665039 77.81818389892578" fill-opacity="1" clip-path="url(#WnLgPpzMlKNh)"/><path fill="rgb(217,0,0)" stroke="none" paint-order="stroke" d="M 93.2500991821289 77.81818389892578 L 93.28204918280244 77.81818389892578 L 93.28204918280244 130.45454788208008 L 93.2500991821289 130.45454788208008 L 93.2500991821289 77.81818389892578" fill-opacity="1" clip-path="url(#WnLgPpzMlKNh)"/><path fill="rgb(213,0,0)" stroke="none" paint-order="stroke" d="M 93.28205108642578 77.81818389892578 L 93.54020708799362 77.81818389892578 L 93.54020708799362 130.45454788208008 L 93.28205108642578 130.45454788208008 L 93.28205108642578 77.81818389892578" fill-opacity="1" clip-path="url(#WnLgPpzMlKNh)"/><path fill="rgb(251,0,7)" stroke="none" paint-order="stroke" d="M 58.5 130.4545440673828 L 93.54020309448242 130.4545440673828 L 93.54020309448242 183.0909080505371 L 58.5 183.0909080505371 L 58.5 130.4545440673828" fill-opacity="1" clip-path="url(#XofbgGivaRdS)"/><path fill="rgb(105,29,48)" stroke="none" paint-order="stroke" d="M 63.30527877807617 183.09091186523438 L 63.36917877942324 183.09091186523438 L 63.36917877942324 498.9090881347656 L 63.30527877807617 498.9090881347656 L 63.30527877807617 183.09091186523438" fill-opacity="1" clip-path="url(#DreUJZTlPDFZ)"/><path fill="rgb(216,17,89)" stroke="none" paint-order="stroke" d="M 83.72132873535156 183.09091186523438 L 83.78522873669863 183.09091186523438 L 83.78522873669863 498.9090881347656 L 83.72132873535156 498.9090881347656 L 83.72132873535156 183.09091186523438" fill-opacity="1" clip-path="url(#QgpSCrKrNTEQ)"/><path fill="rgb(115,210,222)" stroke="none" paint-order="stroke" d="M 70.84164428710938 183.09091186523438 L 80.62217807769775 183.09091186523438 L 80.62217807769775 498.9090881347656 L 70.84164428710938 498.9090881347656 L 70.84164428710938 183.09091186523438" fill-opacity="1" clip-path="url(#yaCGpNgeFQMe)"/><path fill="rgb(28,49,68)" stroke="none" paint-order="stroke" d="M 67.13544464111328 183.09091186523438 L 70.12213063240051 183.09091186523438 L 70.12213063240051 498.9090881347656 L 67.13544464111328 498.9090881347656 L 67.13544464111328 183.09091186523438" fill-opacity="1" clip-path="url(#LtCtEfoUNsMe)"/><path fill="rgb(105,29,48)" stroke="none" paint-order="stroke" d="M 84.43317413330078 183.09091186523438 L 84.54308213293552 183.09091186523438 L 84.54308213293552 498.9090881347656 L 84.43317413330078 498.9090881347656 L 84.43317413330078 183.09091186523438" fill-opacity="1" clip-path="url(#aFHUmLamFlGf)"/><path fill="rgb(105,29,48)" stroke="none" paint-order="stroke" d="M 85.5833740234375 183.09091186523438 L 93.5402021408081 183.09091186523438 L 93.5402021408081 498.9090881347656 L 85.5833740234375 498.9090881347656 L 85.5833740234375 183.09091186523438" fill-opacity="1" clip-path="url(#aFHUmLamFlGf)"/><path fill="rgb(143,45,86)" stroke="none" paint-order="stroke" d="M 58.5 551.5454711914062 L 63.30528020858765 551.5454711914062 L 63.30528020858765 604.1818351745605 L 58.5 604.1818351745605 L 58.5 551.5454711914062" fill-opacity="1" clip-path="url(#iWzKoNxxxTWR)"/><path fill="rgb(63,136,197)" stroke="none" paint-order="stroke" d="M 63.30527877807617 551.5454711914062 L 93.54020309448242 551.5454711914062 L 93.54020309448242 604.1818351745605 L 63.30527877807617 604.1818351745605 L 63.30527877807617 551.5454711914062" fill-opacity="1" clip-path="url(#iWzKoNxxxTWR)"/><path fill="none" stroke="rgb(0,0,0)" paint-order="fill" d="M 58.5 77.81818389892578 L 93.54020309448242 77.81818389892578 L 93.54020309448242 604.1818313598633 L 58.5 604.1818313598633 L 58.5 77.81818389892578" stroke-opacity="1" stroke-linejoin="bevel" stroke-miterlimit="10" stroke-dasharray="" clip-path="url(#qoszNZoWTnHH)"/><path fill="none" stroke="rgb(0,0,0)" paint-order="fill" d="M 58.5 630.5 L 1336.5 630.5" stroke-opacity="1" stroke-linejoin="bevel" stroke-miterlimit="10" stroke-dasharray=""/><path fill="none" stroke="rgb(0,0,0)" paint-order="fill" d="M 58.5 636.5 L 58.5 628.5 M 314.5 636.5 L 314.5 628.5 M 569.5 636.5 L 569.5 628.5 M 825.5 636.5 L 825.5 628.5 M 1080.5 636.5 L 1080.5 628.5 M 1336.5 636.5 L 1336.5 628.5" stroke-opacity="1" stroke-linejoin="bevel" stroke-miterlimit="10" stroke-dasharray=""/><path fill="none" stroke="rgb(0,0,0)" paint-order="fill" d="M 58.5 634.5 L 58.5 630.5 M 109.5 634.5 L 109.5 630.5 M 160.5 634.5 L 160.5 630.5 M 211.5 634.5 L 211.5 630.5 M 262.5 634.5 L 262.5 630.5 M 314.5 634.5 L 314.5 630.5 M 365.5 634.5 L 365.5 630.5 M 416.5 634.5 L 416.5 630.5 M 467.5 634.5 L 467.5 630.5 M 518.5 634.5 L 518.5 630.5 M 569.5 634.5 L 569.5 630.5 M 620.5 634.5 L 620.5 630.5 M 671.5 634.5 L 671.5 630.5 M 723.5 634.5 L 723.5 630.5 M 774.5 634.5 L 774.5 630.5 M 825.5 634.5 L 825.5 630.5 M 876.5 634.5 L 876.5 630.5 M 927.5 634.5 L 927.5 630.5 M 978.5 634.5 L 978.5 630.5 M 1029.5 634.5 L 1029.5 630.5 M 1080.5 634.5 L 1080.5 630.5 M 1132.5 634.5 L 1132.5 630.5 M 1183.5 634.5 L 1183.5 630.5 M 1234.5 634.5 L 1234.5 630.5 M 1285.5 634.5 L 1285.5 630.5 M 1336.5 634.5 L 1336.5 630.5" stroke-opacity="1" stroke-linejoin="bevel" stroke-miterlimit="10" stroke-dasharray=""/><text fill="rgb(68,68,68)" stroke="none" font-family="helvetica" font-size="11px" font-style="normal" font-weight="normal" text-decoration="normal" x="54.94166660308838" y="648.89013671875" text-anchor="start" dominant-baseline="alphabetic" transform="matrix(1, 0, 0, 1, 0.5, 0.5)" fill-opacity="1">0</text><text fill="rgb(68,68,68)" stroke="none" font-family="helvetica" font-size="11px" font-style="normal" font-weight="normal" text-decoration="normal" x="304.42500591278076" y="648.89013671875" text-anchor="start" dominant-baseline="alphabetic" transform="matrix(1, 0, 0, 1, 0.5, 0.5)" fill-opacity="1">200</text><text fill="rgb(68,68,68)" stroke="none" font-family="helvetica" font-size="11px" font-style="normal" font-weight="normal" text-decoration="normal" x="560.0250120162964" y="648.89013671875" text-anchor="start" dominant-baseline="alphabetic" transform="matrix(1, 0, 0, 1, 0.5, 0.5)" fill-opacity="1">400</text><text fill="rgb(68,68,68)" stroke="none" font-family="helvetica" font-size="11px" font-style="normal" font-weight="normal" text-decoration="normal" x="815.6249876022339" y="648.89013671875" text-anchor="start" dominant-baseline="alphabetic" transform="matrix(1, 0, 0, 1, 0.5, 0.5)" fill-opacity="1">600</text><text fill="rgb(68,68,68)" stroke="none" font-family="helvetica" font-size="11px" font-style="normal" font-weight="normal" text-decoration="normal" x="1071.2250242233276" y="648.89013671875" text-anchor="start" dominant-baseline="alphabetic" transform="matrix(1, 0, 0, 1, 0.5, 0.5)" fill-opacity="1">800</text><text fill="rgb(68,68,68)" stroke="none" font-family="helvetica" font-size="11px" font-style="normal" font-weight="normal" text-decoration="normal" x="1323.7666664123535" y="648.89013671875" text-anchor="start" dominant-baseline="alphabetic" transform="matrix(1, 0, 0, 1, 0.5, 0.5)" fill-opacity="1">1000</text><text fill="rgb(68,68,68)" stroke="none" font-family="helvetica" font-size="15pt" font-style="italic" font-weight="normal" text-decoration="normal" x="666.4416675567627" y="676.06982421875" text-anchor="start" dominant-baseline="alphabetic" transform="matrix(1, 0, 0, 1, 0.5, 0.5)" fill-opacity="1">time(s)</text><path fill="none" stroke="rgb(0,0,0)" paint-order="fill" d="M 58.5 630.5 L 58.5 51.5" stroke-opacity="1" stroke-linejoin="bevel" stroke-miterlimit="10" stroke-dasharray=""/><path fill="none" stroke="rgb(0,0,0)" paint-order="fill" d="M 52.5 551.5 L 60.5 551.5 M 52.5 446.5 L 60.5 446.5 M 52.5 341.5 L 60.5 341.5 M 52.5 235.5 L 60.5 235.5 M 52.5 130.5 L 60.5 130.5" stroke-opacity="1" stroke-linejoin="bevel" stroke-miterlimit="10" stroke-dasharray=""/><path fill="none" stroke="rgb(0,0,0)" paint-order="fill" d="M 54.5 572.5 L 58.5 572.5 M 54.5 593.5 L 58.5 593.5 M 54.5 614.5 L 58.5 614.5 M 54.5 551.5 L 58.5 551.5 M 54.5 530.5 L 58.5 530.5 M 54.5 509.5 L 58.5 509.5 M 54.5 488.5 L 58.5 488.5 M 54.5 467.5 L 58.5 467.5 M 54.5 446.5 L 58.5 446.5 M 54.5 425.5 L 58.5 425.5 M 54.5 404.5 L 58.5 404.5 M 54.5 383.5 L 58.5 383.5 M 54.5 362.5 L 58.5 362.5 M 54.5 341.5 L 58.5 341.5 M 54.5 319.5 L 58.5 319.5 M 54.5 298.5 L 58.5 298.5 M 54.5 277.5 L 58.5 277.5 M 54.5 256.5 L 58.5 256.5 M 54.5 235.5 L 58.5 235.5 M 54.5 214.5 L 58.5 214.5 M 54.5 193.5 L 58.5 193.5 M 54.5 172.5 L 58.5 172.5 M 54.5 151.5 L 58.5 151.5 M 54.5 130.5 L 58.5 130.5 M 54.5 109.5 L 58.5 109.5 M 54.5 88.5 L 58.5 88.5 M 54.5 67.5 L 58.5 67.5" stroke-opacity="1" stroke-linejoin="bevel" stroke-miterlimit="10" stroke-dasharray=""/><text fill="rgb(68,68,68)" stroke="none" font-family="helvetica" font-size="11px" font-style="normal" font-weight="normal" text-decoration="normal" x="34.46666622161865" y="554.9905395507812" text-anchor="start" dominant-baseline="alphabetic" transform="matrix(1, 0, 0, 1, 0.5, 0.5)" fill-opacity="1">−2</text><text fill="rgb(68,68,68)" stroke="none" font-family="helvetica" font-size="11px" font-style="normal" font-weight="normal" text-decoration="normal" x="34.46666622161865" y="449.7178039550781" text-anchor="start" dominant-baseline="alphabetic" transform="matrix(1, 0, 0, 1, 0.5, 0.5)" fill-opacity="1">−1</text><text fill="rgb(68,68,68)" stroke="none" font-family="helvetica" font-size="11px" font-style="normal" font-weight="normal" text-decoration="normal" x="40.88333320617676" y="344.445068359375" text-anchor="start" dominant-baseline="alphabetic" transform="matrix(1, 0, 0, 1, 0.5, 0.5)" fill-opacity="1">0</text><text fill="rgb(68,68,68)" stroke="none" font-family="helvetica" font-size="11px" font-style="normal" font-weight="normal" text-decoration="normal" x="40.88333320617676" y="239.17234802246094" text-anchor="start" dominant-baseline="alphabetic" transform="matrix(1, 0, 0, 1, 0.5, 0.5)" fill-opacity="1">1</text><text fill="rgb(68,68,68)" stroke="none" font-family="helvetica" font-size="11px" font-style="normal" font-weight="normal" text-decoration="normal" x="40.88333320617676" y="133.8996124267578" text-anchor="start" dominant-baseline="alphabetic" transform="matrix(1, 0, 0, 1, 0.5, 0.5)" fill-opacity="1">2</text><text fill="rgb(68,68,68)" stroke="none" font-family="helvetica" font-size="15pt" font-style="italic" font-weight="normal" text-decoration="normal" x="-11.316666603088379" y="336.076171875" text-anchor="start" dominant-baseline="alphabetic" transform="matrix(6.123233995736766e-17, -1, 1, 6.123233995736766e-17, -313.53333377838135, 367.46666622161865)" fill-opacity="1">students</text><path fill="rgb(255,255,255)" stroke="rgb(229,229,229)" paint-order="fill" d="M 1128.2333374023438 61.5 L 1326.5 61.5 L 1326.5 400.5 L 1128.2333374023438 400.5 L 1128.2333374023438 61.5" fill-opacity="0.9490196078431372" clip-path="url(#PVrTHyAwEqLy)" stroke-opacity="0.5019607843137255" stroke-linejoin="bevel" stroke-miterlimit="10" stroke-dasharray=""/><text fill="rgb(68,68,68)" stroke="none" font-family="helvetica" font-size="13px" font-style="normal" font-weight="normal" text-decoration="normal" x="1162.7333374023438" y="81" text-anchor="start" dominant-baseline="central" clip-path="url(#PVrTHyAwEqLy)" transform="matrix(1, 0, 0, 1, 0.5, 0.5)" fill-opacity="1">wavelength</text><path fill="rgb(0,255,40)" stroke="none" paint-order="stroke" d="M 1140.2333374023438 73.5 L 1156.2333374023438 73.5 L 1156.2333374023438 89.5 L 1140.2333374023438 89.5 L 1140.2333374023438 73.5" fill-opacity="1" clip-path="url(#PVrTHyAwEqLy)"/><path fill="rgb(216,17,89)" stroke="none" paint-order="stroke" d="M 1140.2333374023438 73.5 L 1156.2333374023438 73.5 L 1156.2333374023438 89.5 L 1140.2333374023438 89.5 L 1140.2333374023438 73.5" fill-opacity="1" clip-path="url(#PVrTHyAwEqLy)"/><text fill="rgb(68,68,68)" stroke="none" font-family="helvetica" font-size="13px" font-style="normal" font-weight="normal" text-decoration="normal" x="1162.7333374023438" y="104" text-anchor="start" dominant-baseline="central" clip-path="url(#PVrTHyAwEqLy)" transform="matrix(1, 0, 0, 1, 0.5, 0.5)" fill-opacity="1">solution</text><path fill="rgb(251,0,7)" stroke="none" paint-order="stroke" d="M 1140.2333374023438 96.5 L 1156.2333374023438 96.5 L 1156.2333374023438 112.5 L 1140.2333374023438 112.5 L 1140.2333374023438 96.5" fill-opacity="1" clip-path="url(#PVrTHyAwEqLy)"/><text fill="rgb(68,68,68)" stroke="none" font-family="helvetica" font-size="13px" font-style="normal" font-weight="normal" text-decoration="normal" x="1162.7333374023438" y="127" text-anchor="start" dominant-baseline="central" clip-path="url(#PVrTHyAwEqLy)" transform="matrix(1, 0, 0, 1, 0.5, 0.5)" fill-opacity="1">laser</text><path fill="rgb(105,29,48)" stroke="none" paint-order="stroke" d="M 1140.2333374023438 119.5 L 1156.2333374023438 119.5 L 1156.2333374023438 135.5 L 1140.2333374023438 135.5 L 1140.2333374023438 119.5" fill-opacity="1" clip-path="url(#PVrTHyAwEqLy)"/><text fill="rgb(68,68,68)" stroke="none" font-family="helvetica" font-size="13px" font-style="normal" font-weight="normal" text-decoration="normal" x="1162.7333374023438" y="150" text-anchor="start" dominant-baseline="central" clip-path="url(#PVrTHyAwEqLy)" transform="matrix(1, 0, 0, 1, 0.5, 0.5)" fill-opacity="1">ruler</text><text fill="rgb(68,68,68)" stroke="none" font-family="helvetica" font-size="13px" font-style="normal" font-weight="normal" text-decoration="normal" x="1162.7333374023438" y="173" text-anchor="start" dominant-baseline="central" clip-path="url(#PVrTHyAwEqLy)" transform="matrix(1, 0, 0, 1, 0.5, 0.5)" fill-opacity="1">restarts</text><text fill="rgb(68,68,68)" stroke="none" font-family="helvetica" font-size="13px" font-style="normal" font-weight="normal" text-decoration="normal" x="1162.7333374023438" y="196" text-anchor="start" dominant-baseline="central" clip-path="url(#PVrTHyAwEqLy)" transform="matrix(1, 0, 0, 1, 0.5, 0.5)" fill-opacity="1">transmittance_absorbance</text><text fill="rgb(68,68,68)" stroke="none" font-family="helvetica" font-size="13px" font-style="normal" font-weight="normal" text-decoration="normal" x="1162.7333374023438" y="219" text-anchor="start" dominant-baseline="central" clip-path="url(#PVrTHyAwEqLy)" transform="matrix(1, 0, 0, 1, 0.5, 0.5)" fill-opacity="1">magnifier</text><text fill="rgb(68,68,68)" stroke="none" font-family="helvetica" font-size="13px" font-style="normal" font-weight="normal" text-decoration="normal" x="1162.7333374023438" y="242" text-anchor="start" dominant-baseline="central" clip-path="url(#PVrTHyAwEqLy)" transform="matrix(1, 0, 0, 1, 0.5, 0.5)" fill-opacity="1">concentration</text><path fill="rgb(115,210,222)" stroke="none" paint-order="stroke" d="M 1140.2333374023438 234.5 L 1156.2333374023438 234.5 L 1156.2333374023438 250.5 L 1140.2333374023438 250.5 L 1140.2333374023438 234.5" fill-opacity="1" clip-path="url(#PVrTHyAwEqLy)"/><text fill="rgb(68,68,68)" stroke="none" font-family="helvetica" font-size="13px" font-style="normal" font-weight="normal" text-decoration="normal" x="1162.7333374023438" y="265" text-anchor="start" dominant-baseline="central" clip-path="url(#PVrTHyAwEqLy)" transform="matrix(1, 0, 0, 1, 0.5, 0.5)" fill-opacity="1">flask</text><path fill="rgb(28,49,68)" stroke="none" paint-order="stroke" d="M 1140.2333374023438 257.5 L 1156.2333374023438 257.5 L 1156.2333374023438 273.5 L 1140.2333374023438 273.5 L 1140.2333374023438 257.5" fill-opacity="1" clip-path="url(#PVrTHyAwEqLy)"/><text fill="rgb(68,68,68)" stroke="none" font-family="helvetica" font-size="13px" font-style="normal" font-weight="normal" text-decoration="normal" x="1162.7333374023438" y="288" text-anchor="start" dominant-baseline="central" clip-path="url(#PVrTHyAwEqLy)" transform="matrix(1, 0, 0, 1, 0.5, 0.5)" fill-opacity="1">pdf</text><text fill="rgb(68,68,68)" stroke="none" font-family="helvetica" font-size="13px" font-style="normal" font-weight="normal" text-decoration="normal" x="1162.7333374023438" y="311" text-anchor="start" dominant-baseline="central" clip-path="url(#PVrTHyAwEqLy)" transform="matrix(1, 0, 0, 1, 0.5, 0.5)" fill-opacity="1">concentrationlab</text><text fill="rgb(68,68,68)" stroke="none" font-family="helvetica" font-size="13px" font-style="normal" font-weight="normal" text-decoration="normal" x="1162.7333374023438" y="334" text-anchor="start" dominant-baseline="central" clip-path="url(#PVrTHyAwEqLy)" transform="matrix(1, 0, 0, 1, 0.5, 0.5)" fill-opacity="1">wavelength_slider</text><path fill="rgb(105,29,48)" stroke="none" paint-order="stroke" d="M 1140.2333374023438 326.5 L 1156.2333374023438 326.5 L 1156.2333374023438 342.5 L 1140.2333374023438 342.5 L 1140.2333374023438 326.5" fill-opacity="1" clip-path="url(#PVrTHyAwEqLy)"/><text fill="rgb(68,68,68)" stroke="none" font-family="helvetica" font-size="13px" font-style="normal" font-weight="normal" text-decoration="normal" x="1162.7333374023438" y="357" text-anchor="start" dominant-baseline="central" clip-path="url(#PVrTHyAwEqLy)" transform="matrix(1, 0, 0, 1, 0.5, 0.5)" fill-opacity="1">ruler measuring</text><text fill="rgb(68,68,68)" stroke="none" font-family="helvetica" font-size="13px" font-style="normal" font-weight="normal" text-decoration="normal" x="1162.7333374023438" y="380" text-anchor="start" dominant-baseline="central" clip-path="url(#PVrTHyAwEqLy)" transform="matrix(1, 0, 0, 1, 0.5, 0.5)" fill-opacity="1">dependent variable</text><path fill="rgb(143,45,86)" stroke="none" paint-order="stroke" d="M 1140.2333374023438 372.5 L 1156.2333374023438 372.5 L 1156.2333374023438 388.5 L 1140.2333374023438 388.5 L 1140.2333374023438 372.5" fill-opacity="1" clip-path="url(#PVrTHyAwEqLy)"/><text fill="rgb(68,68,68)" stroke="none" font-family="helvetica" font-size="25pt" font-style="normal" font-weight="bold" text-decoration="normal" x="58" y="38.740885416666664" text-anchor="start" dominant-baseline="alphabetic" transform="matrix(1, 0, 0, 1, 0.5, 0.5)" fill-opacity="1">Timeline for student akzsmgnj with permutation missing for task 3</text></svg>