<svg version="1.1" xmlns="http://www.w3.org/2000/svg" width="1366" height="683"><defs><clipPath id="tTLwzJmuiZmz"><path fill="none" stroke="none" d="M 58.5 51.5 L 1336.5 51.5 L 1336.5 630.5 L 58.5 630.5 L 58.5 51.5"/></clipPath><clipPath id="mDDNGTviUnWX"><path fill="none" stroke="none" d="M 58.5 51.5 L 1336.5 51.5 L 1336.5 630.5 L 58.5 630.5 L 58.5 51.5"/></clipPath><clipPath id="TZmKaEuowygz"><path fill="none" stroke="none" d="M 58.5 51.5 L 1336.5 51.5 L 1336.5 630.5 L 58.5 630.5 L 58.5 51.5"/></clipPath><clipPath id="DTCXhznsLaKk"><path fill="none" stroke="none" d="M 58.5 51.5 L 1336.5 51.5 L 1336.5 630.5 L 58.5 630.5 L 58.5 51.5"/></clipPath><clipPath id="OsCuGiZdvgVo"><path fill="none" stroke="none" d="M 58.5 51.5 L 1336.5 51.5 L 1336.5 630.5 L 58.5 630.5 L 58.5 51.5"/></clipPath><clipPath id="pTWZWRTfMwVl"><path fill="none" stroke="none" d="M 58.5 51.5 L 1336.5 51.5 L 1336.5 630.5 L 58.5 630.5 L 58.5 51.5"/></clipPath><clipPath id="bpDUvWXSAffI"><path fill="none" stroke="none" d="M 58.5 51.5 L 1336.5 51.5 L 1336.5 630.5 L 58.5 630.5 L 58.5 51.5"/></clipPath><clipPath id="viKxrLOTaFXg"><path fill="none" stroke="none" d="M 58.5 51.5 L 1336.5 51.5 L 1336.5 630.5 L 58.5 630.5 L 58.5 51.5"/></clipPath><clipPath id="nRwnWeKJUOKI"><path fill="none" stroke="none" d="M 58.5 51.5 L 1336.5 51.5 L 1336.5 630.5 L 58.5 630.5 L 58.5 51.5"/></clipPath><clipPath id="GSJJmmWAmtwn"><path fill="none" stroke="none" d="M 58.5 51.5 L 1336.5 51.5 L 1336.5 630.5 L 58.5 630.5 L 58.5 51.5"/></clipPath><clipPath id="xKKfePiZtJIm"><path fill="none" stroke="none" d="M 58.5 51.5 L 1336.5 51.5 L 1336.5 630.5 L 58.5 630.5 L 58.5 51.5"/></clipPath><clipPath id="CHmCydQXJDXU"><path fill="none" stroke="none" d="M 58.5 51.5 L 1336.5 51.5 L 1336.5 630.5 L 58.5 630.5 L 58.5 51.5"/></clipPath><clipPath id="nSZVfgePAxxp"><path fill="none" stroke="none" d="M 58.5 51.5 L 1336.5 51.5 L 1336.5 630.5 L 58.5 630.5 L 58.5 51.5"/></clipPath><clipPath id="qsHxhNIcpeNJ"><path fill="none" stroke="none" d="M 58.5 51.5 L 1336.5 51.5 L 1336.5 630.5 L 58.5 630.5 L 58.5 51.5"/></clipPath><clipPath id="PcmwvbAmsDtv"><path fill="none" stroke="none" d="M 58.5 51.5 L 1336.5 51.5 L 1336.5 630.5 L 58.5 630.5 L 58.5 51.5"/></clipPath><clipPath id="gvZDihMdbaKs"><path fill="none" stroke="none" d="M 58.5 51.5 L 1336.5 51.5 L 1336.5 630.5 L 58.5 630.5 L 58.5 51.5"/></clipPath><clipPath id="HUcxiVVMIegH"><path fill="none" stroke="none" d="M 58.5 51.5 L 1336.5 51.5 L 1336.5 630.5 L 58.5 630.5 L 58.5 51.5"/></clipPath><clipPath id="zHMTmofkKsRG"><path fill="none" stroke="none" d="M 58.5 51.5 L 1336.5 51.5 L 1336.5 630.5 L 58.5 630.5 L 58.5 51.5"/></clipPath><clipPath id="TTIeEICiyoXZ"><path fill="none" stroke="none" d="M 58.5 51.5 L 1336.5 51.5 L 1336.5 630.5 L 58.5 630.5 L 58.5 51.5"/></clipPath><clipPath id="aiOMsLCgNszG"><path fill="none" stroke="none" d="M 58.5 51.5 L 1336.5 51.5 L 1336.5 630.5 L 58.5 630.5 L 58.5 51.5"/></clipPath><clipPath id="TlNBwEZQKcxN"><path fill="none" stroke="none" d="M 58.5 51.5 L 1336.5 51.5 L 1336.5 630.5 L 58.5 630.5 L 58.5 51.5"/></clipPath></defs><path fill="rgb(255,255,255)" stroke="none" paint-order="stroke" d="M 0.5 0.5 L 1366.5 0.5 L 1366.5 683.5 L 0.5 683.5 L 0.5 0.5" fill-opacity="1"/><rect fill="#FFFFFF" stroke="none" x="58" y="51" width="1278" height="579" transform="matrix(1, 0, 0, 1, 0.5, 0.5)"/><path fill="rgb(255,255,255)" stroke="none" paint-order="stroke" d="M 58.5 51.5 L 1336.5 51.5 L 1336.5 630.5 L 58.5 630.5 L 58.5 51.5" fill-opacity="1"/><path fill="none" stroke="rgb(229,229,229)" paint-order="fill" d="M 58.5 51.5 L 1336.5 51.5 L 1336.5 630.5 L 58.5 630.5 L 58.5 51.5" stroke-opacity="1" stroke-linejoin="bevel" stroke-miterlimit="10" stroke-dasharray=""/><path fill="none" stroke="rgb(229,229,229)" paint-order="fill" d="M 314.5 630.5 L 314.5 51.5 M 569.5 630.5 L 569.5 51.5 M 825.5 630.5 L 825.5 51.5 M 1080.5 630.5 L 1080.5 51.5" stroke-opacity="1" stroke-linejoin="bevel" stroke-miterlimit="10" stroke-dasharray="" clip-path="url(#tTLwzJmuiZmz)"/><path fill="none" stroke="rgb(229,229,229)" paint-order="fill" d="M 58.5 551.5 L 1336.5 551.5 M 58.5 446.5 L 1336.5 446.5 M 58.5 341.5 L 1336.5 341.5 M 58.5 235.5 L 1336.5 235.5 M 58.5 130.5 L 1336.5 130.5" stroke-opacity="1" stroke-linejoin="bevel" stroke-miterlimit="10" stroke-dasharray="" clip-path="url(#mDDNGTviUnWX)"/><path fill="rgb(0,255,40)" stroke="none" paint-order="stroke" d="M 58.5 77.81818389892578 L 154.99539184570312 77.81818389892578 L 154.99539184570312 130.45454788208008 L 58.5 130.45454788208008 L 58.5 77.81818389892578" fill-opacity="1" clip-path="url(#TZmKaEuowygz)"/><path fill="rgb(102,0,183)" stroke="none" paint-order="stroke" d="M 154.99539184570312 77.81818389892578 L 170.7237377166748 77.81818389892578 L 170.7237377166748 130.45454788208008 L 154.99539184570312 130.45454788208008 L 154.99539184570312 77.81818389892578" fill-opacity="1" clip-path="url(#TZmKaEuowygz)"/><path fill="rgb(159,255,0)" stroke="none" paint-order="stroke" d="M 170.72373962402344 77.81818389892578 L 178.78536319732666 77.81818389892578 L 178.78536319732666 130.45454788208008 L 170.72373962402344 130.45454788208008 L 170.72373962402344 77.81818389892578" fill-opacity="1" clip-path="url(#TZmKaEuowygz)"/><path fill="rgb(0,255,40)" stroke="none" paint-order="stroke" d="M 178.7853546142578 77.81818389892578 L 189.55122661590576 77.81818389892578 L 189.55122661590576 130.45454788208008 L 178.7853546142578 130.45454788208008 L 178.7853546142578 77.81818389892578" fill-opacity="1" clip-path="url(#TZmKaEuowygz)"/><path fill="rgb(42,0,238)" stroke="none" paint-order="stroke" d="M 189.55123901367188 77.81818389892578 L 193.6267809867859 77.81818389892578 L 193.6267809867859 130.45454788208008 L 189.55123901367188 130.45454788208008 L 189.55123901367188 77.81818389892578" fill-opacity="1" clip-path="url(#TZmKaEuowygz)"/><path fill="rgb(251,0,7)" stroke="none" paint-order="stroke" d="M 58.5 130.4545440673828 L 154.99539184570312 130.4545440673828 L 154.99539184570312 183.0909080505371 L 58.5 183.0909080505371 L 58.5 130.4545440673828" fill-opacity="1" clip-path="url(#DTCXhznsLaKk)"/><path fill="rgb(255,255,10)" stroke="none" paint-order="stroke" d="M 154.99539184570312 130.4545440673828 L 170.7237377166748 130.4545440673828 L 170.7237377166748 183.0909080505371 L 154.99539184570312 183.0909080505371 L 154.99539184570312 130.4545440673828" fill-opacity="1" clip-path="url(#DTCXhznsLaKk)"/><path fill="rgb(251,0,7)" stroke="none" paint-order="stroke" d="M 170.72373962402344 130.4545440673828 L 178.78536319732666 130.4545440673828 L 178.78536319732666 183.0909080505371 L 170.72373962402344 183.0909080505371 L 170.72373962402344 130.4545440673828" fill-opacity="1" clip-path="url(#DTCXhznsLaKk)"/><path fill="rgb(251,0,7)" stroke="none" paint-order="stroke" d="M 178.7853546142578 130.4545440673828 L 189.55122661590576 130.4545440673828 L 189.55122661590576 183.0909080505371 L 178.7853546142578 183.0909080505371 L 178.7853546142578 130.4545440673828" fill-opacity="1" clip-path="url(#DTCXhznsLaKk)"/><path fill="rgb(56,126,34)" stroke="none" paint-order="stroke" d="M 189.55123901367188 130.4545440673828 L 193.6267809867859 130.4545440673828 L 193.6267809867859 183.0909080505371 L 189.55123901367188 183.0909080505371 L 189.55123901367188 130.4545440673828" fill-opacity="1" clip-path="url(#DTCXhznsLaKk)"/><path fill="rgb(105,29,48)" stroke="none" paint-order="stroke" d="M 77.58565521240234 183.09091186523438 L 77.64955521374941 183.09091186523438 L 77.64955521374941 498.9090881347656 L 77.58565521240234 498.9090881347656 L 77.58565521240234 183.09091186523438" fill-opacity="1" clip-path="url(#OsCuGiZdvgVo)"/><path fill="rgb(105,29,48)" stroke="none" paint-order="stroke" d="M 159.3520965576172 183.09091186523438 L 159.41599655896425 183.09091186523438 L 159.41599655896425 498.9090881347656 L 159.3520965576172 498.9090881347656 L 159.3520965576172 183.09091186523438" fill-opacity="1" clip-path="url(#OsCuGiZdvgVo)"/><path fill="rgb(105,29,48)" stroke="none" paint-order="stroke" d="M 160.23135375976562 183.09091186523438 L 160.2952537611127 183.09091186523438 L 160.2952537611127 498.9090881347656 L 160.23135375976562 498.9090881347656 L 160.23135375976562 183.09091186523438" fill-opacity="1" clip-path="url(#OsCuGiZdvgVo)"/><path fill="rgb(105,29,48)" stroke="none" paint-order="stroke" d="M 178.7853546142578 183.09091186523438 L 178.84925461560488 183.09091186523438 L 178.84925461560488 498.9090881347656 L 178.7853546142578 498.9090881347656 L 178.7853546142578 183.09091186523438" fill-opacity="1" clip-path="url(#OsCuGiZdvgVo)"/><path fill="rgb(105,29,48)" stroke="none" paint-order="stroke" d="M 184.09544372558594 183.09091186523438 L 184.159343726933 183.09091186523438 L 184.159343726933 498.9090881347656 L 184.09544372558594 498.9090881347656 L 184.09544372558594 183.09091186523438" fill-opacity="1" clip-path="url(#OsCuGiZdvgVo)"/><path fill="rgb(255,188,66)" stroke="none" paint-order="stroke" d="M 119.92323303222656 183.09091186523438 L 120.56478905677795 183.09091186523438 L 120.56478905677795 498.9090881347656 L 119.92323303222656 498.9090881347656 L 119.92323303222656 183.09091186523438" fill-opacity="1" clip-path="url(#pTWZWRTfMwVl)"/><path fill="rgb(255,188,66)" stroke="none" paint-order="stroke" d="M 121.17823028564453 183.09091186523438 L 122.64154028892517 183.09091186523438 L 122.64154028892517 498.9090881347656 L 121.17823028564453 498.9090881347656 L 121.17823028564453 183.09091186523438" fill-opacity="1" clip-path="url(#pTWZWRTfMwVl)"/><path fill="rgb(255,188,66)" stroke="none" paint-order="stroke" d="M 122.92398071289062 183.09091186523438 L 123.56809270381927 183.09091186523438 L 123.56809270381927 498.9090881347656 L 122.92398071289062 498.9090881347656 L 122.92398071289062 183.09091186523438" fill-opacity="1" clip-path="url(#pTWZWRTfMwVl)"/><path fill="rgb(255,188,66)" stroke="none" paint-order="stroke" d="M 124.00260925292969 183.09091186523438 L 129.20279121398926 183.09091186523438 L 129.20279121398926 498.9090881347656 L 124.00260925292969 498.9090881347656 L 124.00260925292969 183.09091186523438" fill-opacity="1" clip-path="url(#pTWZWRTfMwVl)"/><path fill="rgb(162,174,187)" stroke="none" paint-order="stroke" d="M 178.7853546142578 183.09091186523438 L 178.84925461560488 183.09091186523438 L 178.84925461560488 498.9090881347656 L 178.7853546142578 498.9090881347656 L 178.7853546142578 183.09091186523438" fill-opacity="1" clip-path="url(#bpDUvWXSAffI)"/><path fill="rgb(255,188,66)" stroke="none" paint-order="stroke" d="M 76.7447280883789 183.09091186523438 L 76.78818008676171 183.09091186523438 L 76.78818008676171 498.9090881347656 L 76.7447280883789 498.9090881347656 L 76.7447280883789 183.09091186523438" fill-opacity="1" clip-path="url(#nRwnWeKJUOKI)"/><path fill="rgb(255,188,66)" stroke="none" paint-order="stroke" d="M 162.15858459472656 183.09091186523438 L 163.2039885520935 183.09091186523438 L 163.2039885520935 498.9090881347656 L 162.15858459472656 498.9090881347656 L 162.15858459472656 183.09091186523438" fill-opacity="1" clip-path="url(#nRwnWeKJUOKI)"/><path fill="rgb(255,188,66)" stroke="none" paint-order="stroke" d="M 163.81358337402344 183.09091186523438 L 166.99708127975464 183.09091186523438 L 166.99708127975464 498.9090881347656 L 163.81358337402344 498.9090881347656 L 163.81358337402344 183.09091186523438" fill-opacity="1" clip-path="url(#nRwnWeKJUOKI)"/><path fill="rgb(33,131,128)" stroke="none" paint-order="stroke" d="M 91.94014739990234 183.09091186523438 L 92.6673293709755 183.09091186523438 L 92.6673293709755 498.9090881347656 L 91.94014739990234 498.9090881347656 L 91.94014739990234 183.09091186523438" fill-opacity="1" clip-path="url(#xKKfePiZtJIm)"/><path fill="rgb(33,131,128)" stroke="none" paint-order="stroke" d="M 153.7467803955078 183.09091186523438 L 154.9953863620758 183.09091186523438 L 154.9953863620758 498.9090881347656 L 153.7467803955078 498.9090881347656 L 153.7467803955078 183.09091186523438" fill-opacity="1" clip-path="url(#xKKfePiZtJIm)"/><path fill="rgb(33,131,128)" stroke="none" paint-order="stroke" d="M 168.16134643554688 183.09091186523438 L 170.7237365245819 183.09091186523438 L 170.7237365245819 498.9090881347656 L 168.16134643554688 498.9090881347656 L 168.16134643554688 183.09091186523438" fill-opacity="1" clip-path="url(#xKKfePiZtJIm)"/><path fill="rgb(33,131,128)" stroke="none" paint-order="stroke" d="M 178.7853546142578 183.09091186523438 L 178.84925461560488 183.09091186523438 L 178.84925461560488 498.9090881347656 L 178.7853546142578 498.9090881347656 L 178.7853546142578 183.09091186523438" fill-opacity="1" clip-path="url(#xKKfePiZtJIm)"/><path fill="rgb(33,131,128)" stroke="none" paint-order="stroke" d="M 187.8105926513672 183.09091186523438 L 189.55122864246368 183.09091186523438 L 189.55122864246368 498.9090881347656 L 187.8105926513672 498.9090881347656 L 187.8105926513672 183.09091186523438" fill-opacity="1" clip-path="url(#xKKfePiZtJIm)"/><path fill="rgb(115,210,222)" stroke="none" paint-order="stroke" d="M 142.0850372314453 183.09091186523438 L 148.743417263031 183.09091186523438 L 148.743417263031 498.9090881347656 L 142.0850372314453 498.9090881347656 L 142.0850372314453 183.09091186523438" fill-opacity="1" clip-path="url(#CHmCydQXJDXU)"/><path fill="rgb(115,210,222)" stroke="none" paint-order="stroke" d="M 149.56134033203125 183.09091186523438 L 152.57742023468018 183.09091186523438 L 152.57742023468018 498.9090881347656 L 149.56134033203125 498.9090881347656 L 149.56134033203125 183.09091186523438" fill-opacity="1" clip-path="url(#CHmCydQXJDXU)"/><path fill="rgb(28,49,68)" stroke="none" paint-order="stroke" d="M 79.46814727783203 183.09091186523438 L 80.0879772901535 183.09091186523438 L 80.0879772901535 498.9090881347656 L 79.46814727783203 498.9090881347656 L 79.46814727783203 183.09091186523438" fill-opacity="1" clip-path="url(#nSZVfgePAxxp)"/><path fill="rgb(28,49,68)" stroke="none" paint-order="stroke" d="M 130.6788787841797 183.09091186523438 L 131.83291280269623 183.09091186523438 L 131.83291280269623 498.9090881347656 L 130.6788787841797 498.9090881347656 L 130.6788787841797 183.09091186523438" fill-opacity="1" clip-path="url(#nSZVfgePAxxp)"/><path fill="rgb(28,49,68)" stroke="none" paint-order="stroke" d="M 133.2029266357422 183.09091186523438 L 133.76141262054443 183.09091186523438 L 133.76141262054443 498.9090881347656 L 133.2029266357422 498.9090881347656 L 133.2029266357422 183.09091186523438" fill-opacity="1" clip-path="url(#nSZVfgePAxxp)"/><path fill="rgb(28,49,68)" stroke="none" paint-order="stroke" d="M 156.1954345703125 183.09091186523438 L 158.62619066238403 183.09091186523438 L 158.62619066238403 498.9090881347656 L 156.1954345703125 498.9090881347656 L 156.1954345703125 183.09091186523438" fill-opacity="1" clip-path="url(#nSZVfgePAxxp)"/><path fill="rgb(28,49,68)" stroke="none" paint-order="stroke" d="M 171.5736083984375 183.09091186523438 L 174.18584036827087 183.09091186523438 L 174.18584036827087 498.9090881347656 L 171.5736083984375 498.9090881347656 L 171.5736083984375 183.09091186523438" fill-opacity="1" clip-path="url(#nSZVfgePAxxp)"/><path fill="rgb(28,49,68)" stroke="none" paint-order="stroke" d="M 192.33726501464844 183.09091186523438 L 192.4011650159955 183.09091186523438 L 192.4011650159955 498.9090881347656 L 192.33726501464844 498.9090881347656 L 192.33726501464844 183.09091186523438" fill-opacity="1" clip-path="url(#nSZVfgePAxxp)"/><path fill="rgb(239,185,203)" stroke="none" paint-order="stroke" d="M 81.23690032958984 183.09091186523438 L 85.82108640670776 183.09091186523438 L 85.82108640670776 498.9090881347656 L 81.23690032958984 498.9090881347656 L 81.23690032958984 183.09091186523438" fill-opacity="1" clip-path="url(#qsHxhNIcpeNJ)"/><path fill="rgb(143,45,86)" stroke="none" paint-order="stroke" d="M 58.5 551.5454711914062 L 77.58565139770508 551.5454711914062 L 77.58565139770508 604.1818351745605 L 58.5 604.1818351745605 L 58.5 551.5454711914062" fill-opacity="1" clip-path="url(#zHMTmofkKsRG)"/><path fill="rgb(63,136,197)" stroke="none" paint-order="stroke" d="M 77.58565521240234 551.5454711914062 L 159.3520965576172 551.5454711914062 L 159.3520965576172 604.1818351745605 L 77.58565521240234 604.1818351745605 L 77.58565521240234 551.5454711914062" fill-opacity="1" clip-path="url(#zHMTmofkKsRG)"/><path fill="rgb(143,45,86)" stroke="none" paint-order="stroke" d="M 159.3520965576172 551.5454711914062 L 160.23136055469513 551.5454711914062 L 160.23136055469513 604.1818351745605 L 159.3520965576172 604.1818351745605 L 159.3520965576172 551.5454711914062" fill-opacity="1" clip-path="url(#zHMTmofkKsRG)"/><path fill="rgb(63,136,197)" stroke="none" paint-order="stroke" d="M 160.23135375976562 551.5454711914062 L 163.1924798488617 551.5454711914062 L 163.1924798488617 604.1818351745605 L 160.23135375976562 604.1818351745605 L 160.23135375976562 551.5454711914062" fill-opacity="1" clip-path="url(#zHMTmofkKsRG)"/><path fill="rgb(143,45,86)" stroke="none" paint-order="stroke" d="M 163.19248962402344 551.5454711914062 L 163.20399162359536 551.5454711914062 L 163.20399162359536 604.1818351745605 L 163.19248962402344 604.1818351745605 L 163.19248962402344 551.5454711914062" fill-opacity="1" clip-path="url(#zHMTmofkKsRG)"/><path fill="rgb(63,136,197)" stroke="none" paint-order="stroke" d="M 163.2039794921875 551.5454711914062 L 164.44875144958496 551.5454711914062 L 164.44875144958496 604.1818351745605 L 163.2039794921875 604.1818351745605 L 163.2039794921875 551.5454711914062" fill-opacity="1" clip-path="url(#zHMTmofkKsRG)"/><path fill="rgb(143,45,86)" stroke="none" paint-order="stroke" d="M 164.44876098632812 551.5454711914062 L 164.7899869978428 551.5454711914062 L 164.7899869978428 604.1818351745605 L 164.44876098632812 604.1818351745605 L 164.44876098632812 551.5454711914062" fill-opacity="1" clip-path="url(#zHMTmofkKsRG)"/><path fill="rgb(63,136,197)" stroke="none" paint-order="stroke" d="M 164.78997802734375 551.5454711914062 L 178.78535556793213 551.5454711914062 L 178.78535556793213 604.1818351745605 L 164.78997802734375 604.1818351745605 L 164.78997802734375 551.5454711914062" fill-opacity="1" clip-path="url(#zHMTmofkKsRG)"/><path fill="rgb(143,45,86)" stroke="none" paint-order="stroke" d="M 178.7853546142578 551.5454711914062 L 184.09544467926025 551.5454711914062 L 184.09544467926025 604.1818351745605 L 178.7853546142578 604.1818351745605 L 178.7853546142578 551.5454711914062" fill-opacity="1" clip-path="url(#zHMTmofkKsRG)"/><path fill="rgb(63,136,197)" stroke="none" paint-order="stroke" d="M 184.09544372558594 551.5454711914062 L 193.62676811218262 551.5454711914062 L 193.62676811218262 604.1818351745605 L 184.09544372558594 604.1818351745605 L 184.09544372558594 551.5454711914062" fill-opacity="1" clip-path="url(#zHMTmofkKsRG)"/><path fill="none" stroke="rgb(0,0,0)" paint-order="fill" d="M 58.5 77.81818389892578 L 193.62677001953125 77.81818389892578 L 193.62677001953125 604.1818313598633 L 58.5 604.1818313598633 L 58.5 77.81818389892578" stroke-opacity="1" stroke-linejoin="bevel" stroke-miterlimit="10" stroke-dasharray="" clip-path="url(#TTIeEICiyoXZ)"/><path fill="none" stroke="rgb(0,0,0)" paint-order="fill" d="M 58.5 630.5 L 1336.5 630.5" stroke-opacity="1" stroke-linejoin="bevel" stroke-miterlimit="10" stroke-dasharray=""/><path fill="none" stroke="rgb(0,0,0)" paint-order="fill" d="M 58.5 636.5 L 58.5 628.5 M 314.5 636.5 L 314.5 628.5 M 569.5 636.5 L 569.5 628.5 M 825.5 636.5 L 825.5 628.5 M 1080.5 636.5 L 1080.5 628.5 M 1336.5 636.5 L 1336.5 628.5" stroke-opacity="1" stroke-linejoin="bevel" stroke-miterlimit="10" stroke-dasharray=""/><path fill="none" stroke="rgb(0,0,0)" paint-order="fill" d="M 58.5 634.5 L 58.5 630.5 M 109.5 634.5 L 109.5 630.5 M 160.5 634.5 L 160.5 630.5 M 211.5 634.5 L 211.5 630.5 M 262.5 634.5 L 262.5 630.5 M 314.5 634.5 L 314.5 630.5 M 365.5 634.5 L 365.5 630.5 M 416.5 634.5 L 416.5 630.5 M 467.5 634.5 L 467.5 630.5 M 518.5 634.5 L 518.5 630.5 M 569.5 634.5 L 569.5 630.5 M 620.5 634.5 L 620.5 630.5 M 671.5 634.5 L 671.5 630.5 M 723.5 634.5 L 723.5 630.5 M 774.5 634.5 L 774.5 630.5 M 825.5 634.5 L 825.5 630.5 M 876.5 634.5 L 876.5 630.5 M 927.5 634.5 L 927.5 630.5 M 978.5 634.5 L 978.5 630.5 M 1029.5 634.5 L 1029.5 630.5 M 1080.5 634.5 L 1080.5 630.5 M 1132.5 634.5 L 1132.5 630.5 M 1183.5 634.5 L 1183.5 630.5 M 1234.5 634.5 L 1234.5 630.5 M 1285.5 634.5 L 1285.5 630.5 M 1336.5 634.5 L 1336.5 630.5" stroke-opacity="1" stroke-linejoin="bevel" stroke-miterlimit="10" stroke-dasharray=""/><text fill="rgb(68,68,68)" stroke="none" font-family="helvetica" font-size="11px" font-style="normal" font-weight="normal" text-decoration="normal" x="54.94166660308838" y="648.89013671875" text-anchor="start" dominant-baseline="alphabetic" transform="matrix(1, 0, 0, 1, 0.5, 0.5)" fill-opacity="1">0</text><text fill="rgb(68,68,68)" stroke="none" font-family="helvetica" font-size="11px" font-style="normal" font-weight="normal" text-decoration="normal" x="304.42500591278076" y="648.89013671875" text-anchor="start" dominant-baseline="alphabetic" transform="matrix(1, 0, 0, 1, 0.5, 0.5)" fill-opacity="1">200</text><text fill="rgb(68,68,68)" stroke="none" font-family="helvetica" font-size="11px" font-style="normal" font-weight="normal" text-decoration="normal" x="560.0250120162964" y="648.89013671875" text-anchor="start" dominant-baseline="alphabetic" transform="matrix(1, 0, 0, 1, 0.5, 0.5)" fill-opacity="1">400</text><text fill="rgb(68,68,68)" stroke="none" font-family="helvetica" font-size="11px" font-style="normal" font-weight="normal" text-decoration="normal" x="815.6249876022339" y="648.89013671875" text-anchor="start" dominant-baseline="alphabetic" transform="matrix(1, 0, 0, 1, 0.5, 0.5)" fill-opacity="1">600</text><text fill="rgb(68,68,68)" stroke="none" font-family="helvetica" font-size="11px" font-style="normal" font-weight="normal" text-decoration="normal" x="1071.2250242233276" y="648.89013671875" text-anchor="start" dominant-baseline="alphabetic" transform="matrix(1, 0, 0, 1, 0.5, 0.5)" fill-opacity="1">800</text><text fill="rgb(68,68,68)" stroke="none" font-family="helvetica" font-size="11px" font-style="normal" font-weight="normal" text-decoration="normal" x="1323.7666664123535" y="648.89013671875" text-anchor="start" dominant-baseline="alphabetic" transform="matrix(1, 0, 0, 1, 0.5, 0.5)" fill-opacity="1">1000</text><text fill="rgb(68,68,68)" stroke="none" font-family="helvetica" font-size="15pt" font-style="italic" font-weight="normal" text-decoration="normal" x="666.4416675567627" y="676.06982421875" text-anchor="start" dominant-baseline="alphabetic" transform="matrix(1, 0, 0, 1, 0.5, 0.5)" fill-opacity="1">time(s)</text><path fill="none" stroke="rgb(0,0,0)" paint-order="fill" d="M 58.5 630.5 L 58.5 51.5" stroke-opacity="1" stroke-linejoin="bevel" stroke-miterlimit="10" stroke-dasharray=""/><path fill="none" stroke="rgb(0,0,0)" paint-order="fill" d="M 52.5 551.5 L 60.5 551.5 M 52.5 446.5 L 60.5 446.5 M 52.5 341.5 L 60.5 341.5 M 52.5 235.5 L 60.5 235.5 M 52.5 130.5 L 60.5 130.5" stroke-opacity="1" stroke-linejoin="bevel" stroke-miterlimit="10" stroke-dasharray=""/><path fill="none" stroke="rgb(0,0,0)" paint-order="fill" d="M 54.5 572.5 L 58.5 572.5 M 54.5 593.5 L 58.5 593.5 M 54.5 614.5 L 58.5 614.5 M 54.5 551.5 L 58.5 551.5 M 54.5 530.5 L 58.5 530.5 M 54.5 509.5 L 58.5 509.5 M 54.5 488.5 L 58.5 488.5 M 54.5 467.5 L 58.5 467.5 M 54.5 446.5 L 58.5 446.5 M 54.5 425.5 L 58.5 425.5 M 54.5 404.5 L 58.5 404.5 M 54.5 383.5 L 58.5 383.5 M 54.5 362.5 L 58.5 362.5 M 54.5 341.5 L 58.5 341.5 M 54.5 319.5 L 58.5 319.5 M 54.5 298.5 L 58.5 298.5 M 54.5 277.5 L 58.5 277.5 M 54.5 256.5 L 58.5 256.5 M 54.5 235.5 L 58.5 235.5 M 54.5 214.5 L 58.5 214.5 M 54.5 193.5 L 58.5 193.5 M 54.5 172.5 L 58.5 172.5 M 54.5 151.5 L 58.5 151.5 M 54.5 130.5 L 58.5 130.5 M 54.5 109.5 L 58.5 109.5 M 54.5 88.5 L 58.5 88.5 M 54.5 67.5 L 58.5 67.5" stroke-opacity="1" stroke-linejoin="bevel" stroke-miterlimit="10" stroke-dasharray=""/><text fill="rgb(68,68,68)" stroke="none" font-family="helvetica" font-size="11px" font-style="normal" font-weight="normal" text-decoration="normal" x="34.46666622161865" y="554.9905395507812" text-anchor="start" dominant-baseline="alphabetic" transform="matrix(1, 0, 0, 1, 0.5, 0.5)" fill-opacity="1">−2</text><text fill="rgb(68,68,68)" stroke="none" font-family="helvetica" font-size="11px" font-style="normal" font-weight="normal" text-decoration="normal" x="34.46666622161865" y="449.7178039550781" text-anchor="start" dominant-baseline="alphabetic" transform="matrix(1, 0, 0, 1, 0.5, 0.5)" fill-opacity="1">−1</text><text fill="rgb(68,68,68)" stroke="none" font-family="helvetica" font-size="11px" font-style="normal" font-weight="normal" text-decoration="normal" x="40.88333320617676" y="344.445068359375" text-anchor="start" dominant-baseline="alphabetic" transform="matrix(1, 0, 0, 1, 0.5, 0.5)" fill-opacity="1">0</text><text fill="rgb(68,68,68)" stroke="none" font-family="helvetica" font-size="11px" font-style="normal" font-weight="normal" text-decoration="normal" x="40.88333320617676" y="239.17234802246094" text-anchor="start" dominant-baseline="alphabetic" transform="matrix(1, 0, 0, 1, 0.5, 0.5)" fill-opacity="1">1</text><text fill="rgb(68,68,68)" stroke="none" font-family="helvetica" font-size="11px" font-style="normal" font-weight="normal" text-decoration="normal" x="40.88333320617676" y="133.8996124267578" text-anchor="start" dominant-baseline="alphabetic" transform="matrix(1, 0, 0, 1, 0.5, 0.5)" fill-opacity="1">2</text><text fill="rgb(68,68,68)" stroke="none" font-family="helvetica" font-size="15pt" font-style="italic" font-weight="normal" text-decoration="normal" x="-11.316666603088379" y="336.076171875" text-anchor="start" dominant-baseline="alphabetic" transform="matrix(6.123233995736766e-17, -1, 1, 6.123233995736766e-17, -313.53333377838135, 367.46666622161865)" fill-opacity="1">students</text><path fill="rgb(255,255,255)" stroke="rgb(229,229,229)" paint-order="fill" d="M 1128.2333374023438 61.5 L 1326.5 61.5 L 1326.5 400.5 L 1128.2333374023438 400.5 L 1128.2333374023438 61.5" fill-opacity="0.9490196078431372" clip-path="url(#aiOMsLCgNszG)" stroke-opacity="0.5019607843137255" stroke-linejoin="bevel" stroke-miterlimit="10" stroke-dasharray=""/><text fill="rgb(68,68,68)" stroke="none" font-family="helvetica" font-size="13px" font-style="normal" font-weight="normal" text-decoration="normal" x="1162.7333374023438" y="81" text-anchor="start" dominant-baseline="central" clip-path="url(#aiOMsLCgNszG)" transform="matrix(1, 0, 0, 1, 0.5, 0.5)" fill-opacity="1">wavelength</text><path fill="rgb(0,255,40)" stroke="none" paint-order="stroke" d="M 1140.2333374023438 73.5 L 1156.2333374023438 73.5 L 1156.2333374023438 89.5 L 1140.2333374023438 89.5 L 1140.2333374023438 73.5" fill-opacity="1" clip-path="url(#aiOMsLCgNszG)"/><text fill="rgb(68,68,68)" stroke="none" font-family="helvetica" font-size="13px" font-style="normal" font-weight="normal" text-decoration="normal" x="1162.7333374023438" y="104" text-anchor="start" dominant-baseline="central" clip-path="url(#aiOMsLCgNszG)" transform="matrix(1, 0, 0, 1, 0.5, 0.5)" fill-opacity="1">solution</text><path fill="rgb(251,0,7)" stroke="none" paint-order="stroke" d="M 1140.2333374023438 96.5 L 1156.2333374023438 96.5 L 1156.2333374023438 112.5 L 1140.2333374023438 112.5 L 1140.2333374023438 96.5" fill-opacity="1" clip-path="url(#aiOMsLCgNszG)"/><path fill="rgb(33,131,128)" stroke="none" paint-order="stroke" d="M 1140.2333374023438 96.5 L 1156.2333374023438 96.5 L 1156.2333374023438 112.5 L 1140.2333374023438 112.5 L 1140.2333374023438 96.5" fill-opacity="1" clip-path="url(#aiOMsLCgNszG)"/><text fill="rgb(68,68,68)" stroke="none" font-family="helvetica" font-size="13px" font-style="normal" font-weight="normal" text-decoration="normal" x="1162.7333374023438" y="127" text-anchor="start" dominant-baseline="central" clip-path="url(#aiOMsLCgNszG)" transform="matrix(1, 0, 0, 1, 0.5, 0.5)" fill-opacity="1">laser</text><path fill="rgb(105,29,48)" stroke="none" paint-order="stroke" d="M 1140.2333374023438 119.5 L 1156.2333374023438 119.5 L 1156.2333374023438 135.5 L 1140.2333374023438 135.5 L 1140.2333374023438 119.5" fill-opacity="1" clip-path="url(#aiOMsLCgNszG)"/><text fill="rgb(68,68,68)" stroke="none" font-family="helvetica" font-size="13px" font-style="normal" font-weight="normal" text-decoration="normal" x="1162.7333374023438" y="150" text-anchor="start" dominant-baseline="central" clip-path="url(#aiOMsLCgNszG)" transform="matrix(1, 0, 0, 1, 0.5, 0.5)" fill-opacity="1">ruler</text><path fill="rgb(255,188,66)" stroke="none" paint-order="stroke" d="M 1140.2333374023438 142.5 L 1156.2333374023438 142.5 L 1156.2333374023438 158.5 L 1140.2333374023438 158.5 L 1140.2333374023438 142.5" fill-opacity="1" clip-path="url(#aiOMsLCgNszG)"/><text fill="rgb(68,68,68)" stroke="none" font-family="helvetica" font-size="13px" font-style="normal" font-weight="normal" text-decoration="normal" x="1162.7333374023438" y="173" text-anchor="start" dominant-baseline="central" clip-path="url(#aiOMsLCgNszG)" transform="matrix(1, 0, 0, 1, 0.5, 0.5)" fill-opacity="1">restarts</text><path fill="rgb(162,174,187)" stroke="none" paint-order="stroke" d="M 1140.2333374023438 165.5 L 1156.2333374023438 165.5 L 1156.2333374023438 181.5 L 1140.2333374023438 181.5 L 1140.2333374023438 165.5" fill-opacity="1" clip-path="url(#aiOMsLCgNszG)"/><text fill="rgb(68,68,68)" stroke="none" font-family="helvetica" font-size="13px" font-style="normal" font-weight="normal" text-decoration="normal" x="1162.7333374023438" y="196" text-anchor="start" dominant-baseline="central" clip-path="url(#aiOMsLCgNszG)" transform="matrix(1, 0, 0, 1, 0.5, 0.5)" fill-opacity="1">transmittance_absorbance</text><text fill="rgb(68,68,68)" stroke="none" font-family="helvetica" font-size="13px" font-style="normal" font-weight="normal" text-decoration="normal" x="1162.7333374023438" y="219" text-anchor="start" dominant-baseline="central" clip-path="url(#aiOMsLCgNszG)" transform="matrix(1, 0, 0, 1, 0.5, 0.5)" fill-opacity="1">magnifier</text><path fill="rgb(255,188,66)" stroke="none" paint-order="stroke" d="M 1140.2333374023438 211.5 L 1156.2333374023438 211.5 L 1156.2333374023438 227.5 L 1140.2333374023438 227.5 L 1140.2333374023438 211.5" fill-opacity="1" clip-path="url(#aiOMsLCgNszG)"/><text fill="rgb(68,68,68)" stroke="none" font-family="helvetica" font-size="13px" font-style="normal" font-weight="normal" text-decoration="normal" x="1162.7333374023438" y="242" text-anchor="start" dominant-baseline="central" clip-path="url(#aiOMsLCgNszG)" transform="matrix(1, 0, 0, 1, 0.5, 0.5)" fill-opacity="1">concentration</text><path fill="rgb(115,210,222)" stroke="none" paint-order="stroke" d="M 1140.2333374023438 234.5 L 1156.2333374023438 234.5 L 1156.2333374023438 250.5 L 1140.2333374023438 250.5 L 1140.2333374023438 234.5" fill-opacity="1" clip-path="url(#aiOMsLCgNszG)"/><text fill="rgb(68,68,68)" stroke="none" font-family="helvetica" font-size="13px" font-style="normal" font-weight="normal" text-decoration="normal" x="1162.7333374023438" y="265" text-anchor="start" dominant-baseline="central" clip-path="url(#aiOMsLCgNszG)" transform="matrix(1, 0, 0, 1, 0.5, 0.5)" fill-opacity="1">flask</text><path fill="rgb(28,49,68)" stroke="none" paint-order="stroke" d="M 1140.2333374023438 257.5 L 1156.2333374023438 257.5 L 1156.2333374023438 273.5 L 1140.2333374023438 273.5 L 1140.2333374023438 257.5" fill-opacity="1" clip-path="url(#aiOMsLCgNszG)"/><text fill="rgb(68,68,68)" stroke="none" font-family="helvetica" font-size="13px" font-style="normal" font-weight="normal" text-decoration="normal" x="1162.7333374023438" y="288" text-anchor="start" dominant-baseline="central" clip-path="url(#aiOMsLCgNszG)" transform="matrix(1, 0, 0, 1, 0.5, 0.5)" fill-opacity="1">pdf</text><path fill="rgb(239,185,203)" stroke="none" paint-order="stroke" d="M 1140.2333374023438 280.5 L 1156.2333374023438 280.5 L 1156.2333374023438 296.5 L 1140.2333374023438 296.5 L 1140.2333374023438 280.5" fill-opacity="1" clip-path="url(#aiOMsLCgNszG)"/><text fill="rgb(68,68,68)" stroke="none" font-family="helvetica" font-size="13px" font-style="normal" font-weight="normal" text-decoration="normal" x="1162.7333374023438" y="311" text-anchor="start" dominant-baseline="central" clip-path="url(#aiOMsLCgNszG)" transform="matrix(1, 0, 0, 1, 0.5, 0.5)" fill-opacity="1">concentrationlab</text><text fill="rgb(68,68,68)" stroke="none" font-family="helvetica" font-size="13px" font-style="normal" font-weight="normal" text-decoration="normal" x="1162.7333374023438" y="334" text-anchor="start" dominant-baseline="central" clip-path="url(#aiOMsLCgNszG)" transform="matrix(1, 0, 0, 1, 0.5, 0.5)" fill-opacity="1">wavelength_slider</text><text fill="rgb(68,68,68)" stroke="none" font-family="helvetica" font-size="13px" font-style="normal" font-weight="normal" text-decoration="normal" x="1162.7333374023438" y="357" text-anchor="start" dominant-baseline="central" clip-path="url(#aiOMsLCgNszG)" transform="matrix(1, 0, 0, 1, 0.5, 0.5)" fill-opacity="1">ruler measuring</text><text fill="rgb(68,68,68)" stroke="none" font-family="helvetica" font-size="13px" font-style="normal" font-weight="normal" text-decoration="normal" x="1162.7333374023438" y="380" text-anchor="start" dominant-baseline="central" clip-path="url(#aiOMsLCgNszG)" transform="matrix(1, 0, 0, 1, 0.5, 0.5)" fill-opacity="1">dependent variable</text><path fill="rgb(143,45,86)" stroke="none" paint-order="stroke" d="M 1140.2333374023438 372.5 L 1156.2333374023438 372.5 L 1156.2333374023438 388.5 L 1140.2333374023438 388.5 L 1140.2333374023438 372.5" fill-opacity="1" clip-path="url(#aiOMsLCgNszG)"/><text fill="rgb(68,68,68)" stroke="none" font-family="helvetica" font-size="25pt" font-style="normal" font-weight="bold" text-decoration="normal" x="58" y="38.740885416666664" text-anchor="start" dominant-baseline="alphabetic" transform="matrix(1, 0, 0, 1, 0.5, 0.5)" fill-opacity="1">Timeline for student akzsmgnj with permutation missing for task 2</text></svg>