<svg version="1.1" xmlns="http://www.w3.org/2000/svg" width="1366" height="683"><defs><clipPath id="ukhdbIkyHLkt"><path fill="none" stroke="none" d="M 58.5 51.5 L 1336.5 51.5 L 1336.5 630.5 L 58.5 630.5 L 58.5 51.5"/></clipPath><clipPath id="RpBKdTkwTEmH"><path fill="none" stroke="none" d="M 58.5 51.5 L 1336.5 51.5 L 1336.5 630.5 L 58.5 630.5 L 58.5 51.5"/></clipPath><clipPath id="sWiUiswadtqw"><path fill="none" stroke="none" d="M 58.5 51.5 L 1336.5 51.5 L 1336.5 630.5 L 58.5 630.5 L 58.5 51.5"/></clipPath><clipPath id="TBAalWLmtGdu"><path fill="none" stroke="none" d="M 58.5 51.5 L 1336.5 51.5 L 1336.5 630.5 L 58.5 630.5 L 58.5 51.5"/></clipPath><clipPath id="DSNKQPmbzbTx"><path fill="none" stroke="none" d="M 58.5 51.5 L 1336.5 51.5 L 1336.5 630.5 L 58.5 630.5 L 58.5 51.5"/></clipPath><clipPath id="tUGSPdGRziKe"><path fill="none" stroke="none" d="M 58.5 51.5 L 1336.5 51.5 L 1336.5 630.5 L 58.5 630.5 L 58.5 51.5"/></clipPath><clipPath id="vwrAxyldLhXP"><path fill="none" stroke="none" d="M 58.5 51.5 L 1336.5 51.5 L 1336.5 630.5 L 58.5 630.5 L 58.5 51.5"/></clipPath><clipPath id="dSAhlrwvMgNT"><path fill="none" stroke="none" d="M 58.5 51.5 L 1336.5 51.5 L 1336.5 630.5 L 58.5 630.5 L 58.5 51.5"/></clipPath><clipPath id="yRCHRmWTxLrG"><path fill="none" stroke="none" d="M 58.5 51.5 L 1336.5 51.5 L 1336.5 630.5 L 58.5 630.5 L 58.5 51.5"/></clipPath><clipPath id="TvZMrSISiedS"><path fill="none" stroke="none" d="M 58.5 51.5 L 1336.5 51.5 L 1336.5 630.5 L 58.5 630.5 L 58.5 51.5"/></clipPath><clipPath id="ONnKKLldqFzv"><path fill="none" stroke="none" d="M 58.5 51.5 L 1336.5 51.5 L 1336.5 630.5 L 58.5 630.5 L 58.5 51.5"/></clipPath><clipPath id="oFLgbKSBKETo"><path fill="none" stroke="none" d="M 58.5 51.5 L 1336.5 51.5 L 1336.5 630.5 L 58.5 630.5 L 58.5 51.5"/></clipPath><clipPath id="HOfTipKFmfHX"><path fill="none" stroke="none" d="M 58.5 51.5 L 1336.5 51.5 L 1336.5 630.5 L 58.5 630.5 L 58.5 51.5"/></clipPath><clipPath id="hQqdRKaxszWR"><path fill="none" stroke="none" d="M 58.5 51.5 L 1336.5 51.5 L 1336.5 630.5 L 58.5 630.5 L 58.5 51.5"/></clipPath><clipPath id="HoQVEnZEdRXW"><path fill="none" stroke="none" d="M 58.5 51.5 L 1336.5 51.5 L 1336.5 630.5 L 58.5 630.5 L 58.5 51.5"/></clipPath><clipPath id="TMmoENyZdSZC"><path fill="none" stroke="none" d="M 58.5 51.5 L 1336.5 51.5 L 1336.5 630.5 L 58.5 630.5 L 58.5 51.5"/></clipPath><clipPath id="AFBOtqNDckLT"><path fill="none" stroke="none" d="M 58.5 51.5 L 1336.5 51.5 L 1336.5 630.5 L 58.5 630.5 L 58.5 51.5"/></clipPath><clipPath id="JaQwNEgEdHuF"><path fill="none" stroke="none" d="M 58.5 51.5 L 1336.5 51.5 L 1336.5 630.5 L 58.5 630.5 L 58.5 51.5"/></clipPath><clipPath id="nmuEzVqvqJfC"><path fill="none" stroke="none" d="M 58.5 51.5 L 1336.5 51.5 L 1336.5 630.5 L 58.5 630.5 L 58.5 51.5"/></clipPath><clipPath id="xVsGwGNDrpTr"><path fill="none" stroke="none" d="M 58.5 51.5 L 1336.5 51.5 L 1336.5 630.5 L 58.5 630.5 L 58.5 51.5"/></clipPath><clipPath id="qtzOxLEbnTzO"><path fill="none" stroke="none" d="M 58.5 51.5 L 1336.5 51.5 L 1336.5 630.5 L 58.5 630.5 L 58.5 51.5"/></clipPath></defs><path fill="rgb(255,255,255)" stroke="none" paint-order="stroke" d="M 0.5 0.5 L 1366.5 0.5 L 1366.5 683.5 L 0.5 683.5 L 0.5 0.5" fill-opacity="1"/><rect fill="#FFFFFF" stroke="none" x="58" y="51" width="1278" height="579" transform="matrix(1, 0, 0, 1, 0.5, 0.5)"/><path fill="rgb(255,255,255)" stroke="none" paint-order="stroke" d="M 58.5 51.5 L 1336.5 51.5 L 1336.5 630.5 L 58.5 630.5 L 58.5 51.5" fill-opacity="1"/><path fill="none" stroke="rgb(229,229,229)" paint-order="fill" d="M 58.5 51.5 L 1336.5 51.5 L 1336.5 630.5 L 58.5 630.5 L 58.5 51.5" stroke-opacity="1" stroke-linejoin="bevel" stroke-miterlimit="10" stroke-dasharray=""/><path fill="none" stroke="rgb(229,229,229)" paint-order="fill" d="M 314.5 630.5 L 314.5 51.5 M 569.5 630.5 L 569.5 51.5 M 825.5 630.5 L 825.5 51.5 M 1080.5 630.5 L 1080.5 51.5" stroke-opacity="1" stroke-linejoin="bevel" stroke-miterlimit="10" stroke-dasharray="" clip-path="url(#ukhdbIkyHLkt)"/><path fill="none" stroke="rgb(229,229,229)" paint-order="fill" d="M 58.5 551.5 L 1336.5 551.5 M 58.5 446.5 L 1336.5 446.5 M 58.5 341.5 L 1336.5 341.5 M 58.5 235.5 L 1336.5 235.5 M 58.5 130.5 L 1336.5 130.5" stroke-opacity="1" stroke-linejoin="bevel" stroke-miterlimit="10" stroke-dasharray="" clip-path="url(#RpBKdTkwTEmH)"/><path fill="rgb(0,255,40)" stroke="none" paint-order="stroke" d="M 58.5 77.81818389892578 L 71.87554836273193 77.81818389892578 L 71.87554836273193 130.45454788208008 L 58.5 130.45454788208008 L 58.5 77.81818389892578" fill-opacity="1" clip-path="url(#sWiUiswadtqw)"/><path fill="rgb(0,255,97)" stroke="none" paint-order="stroke" d="M 71.87554931640625 77.81818389892578 L 71.93817131966352 77.81818389892578 L 71.93817131966352 130.45454788208008 L 71.87554931640625 130.45454788208008 L 71.87554931640625 77.81818389892578" fill-opacity="1" clip-path="url(#sWiUiswadtqw)"/><path fill="rgb(0,255,40)" stroke="none" paint-order="stroke" d="M 71.93817138671875 77.81818389892578 L 71.95989738591015 77.81818389892578 L 71.95989738591015 130.45454788208008 L 71.93817138671875 130.45454788208008 L 71.93817138671875 77.81818389892578" fill-opacity="1" clip-path="url(#sWiUiswadtqw)"/><path fill="rgb(111,255,0)" stroke="none" paint-order="stroke" d="M 71.95989227294922 77.81818389892578 L 71.98034027218819 77.81818389892578 L 71.98034027218819 130.45454788208008 L 71.95989227294922 130.45454788208008 L 71.95989227294922 77.81818389892578" fill-opacity="1" clip-path="url(#sWiUiswadtqw)"/><path fill="rgb(210,255,0)" stroke="none" paint-order="stroke" d="M 71.9803466796875 77.81818389892578 L 72.0020726788789 77.81818389892578 L 72.0020726788789 130.45454788208008 L 71.9803466796875 130.45454788208008 L 71.9803466796875 77.81818389892578" fill-opacity="1" clip-path="url(#sWiUiswadtqw)"/><path fill="rgb(255,213,0)" stroke="none" paint-order="stroke" d="M 72.00206756591797 77.81818389892578 L 72.02379356510937 77.81818389892578 L 72.02379356510937 130.45454788208008 L 72.00206756591797 130.45454788208008 L 72.00206756591797 77.81818389892578" fill-opacity="1" clip-path="url(#sWiUiswadtqw)"/><path fill="rgb(255,83,0)" stroke="none" paint-order="stroke" d="M 72.02379608154297 77.81818389892578 L 72.04424408078194 77.81818389892578 L 72.04424408078194 130.45454788208008 L 72.02379608154297 130.45454788208008 L 72.02379608154297 77.81818389892578" fill-opacity="1" clip-path="url(#sWiUiswadtqw)"/><path fill="rgb(238,0,0)" stroke="none" paint-order="stroke" d="M 72.04424285888672 77.81818389892578 L 72.06596885807812 77.81818389892578 L 72.06596885807812 130.45454788208008 L 72.04424285888672 130.45454788208008 L 72.04424285888672 77.81818389892578" fill-opacity="1" clip-path="url(#sWiUiswadtqw)"/><path fill="rgb(196,0,0)" stroke="none" paint-order="stroke" d="M 72.06597137451172 77.81818389892578 L 72.08769737370312 77.81818389892578 L 72.08769737370312 130.45454788208008 L 72.06597137451172 130.45454788208008 L 72.06597137451172 77.81818389892578" fill-opacity="1" clip-path="url(#sWiUiswadtqw)"/><path fill="rgb(154,0,0)" stroke="none" paint-order="stroke" d="M 72.08769226074219 77.81818389892578 L 72.10941825993359 77.81818389892578 L 72.10941825993359 130.45454788208008 L 72.08769226074219 130.45454788208008 L 72.08769226074219 77.81818389892578" fill-opacity="1" clip-path="url(#sWiUiswadtqw)"/><path fill="rgb(100,0,0)" stroke="none" paint-order="stroke" d="M 72.10942077636719 77.81818389892578 L 72.12986877560616 77.81818389892578 L 72.12986877560616 130.45454788208008 L 72.10942077636719 130.45454788208008 L 72.10942077636719 77.81818389892578" fill-opacity="1" clip-path="url(#sWiUiswadtqw)"/><path fill="rgb(0,0,0)" stroke="none" paint-order="stroke" d="M 72.12986755371094 77.81818389892578 L 72.14903755299747 77.81818389892578 L 72.14903755299747 130.45454788208008 L 72.12986755371094 130.45454788208008 L 72.12986755371094 77.81818389892578" fill-opacity="1" clip-path="url(#sWiUiswadtqw)"/><path fill="rgb(0,0,0)" stroke="none" paint-order="stroke" d="M 72.14904022216797 77.81818389892578 L 72.59634020924568 77.81818389892578 L 72.59634020924568 130.45454788208008 L 72.14904022216797 130.45454788208008 L 72.14904022216797 77.81818389892578" fill-opacity="1" clip-path="url(#sWiUiswadtqw)"/><path fill="rgb(0,0,0)" stroke="none" paint-order="stroke" d="M 72.5963363647461 77.81818389892578 L 72.6180623639375 77.81818389892578 L 72.6180623639375 130.45454788208008 L 72.5963363647461 130.45454788208008 L 72.5963363647461 77.81818389892578" fill-opacity="1" clip-path="url(#sWiUiswadtqw)"/><path fill="rgb(0,0,0)" stroke="none" paint-order="stroke" d="M 72.6180648803711 77.81818389892578 L 72.6397908795625 77.81818389892578 L 72.6397908795625 130.45454788208008 L 72.6180648803711 130.45454788208008 L 72.6180648803711 77.81818389892578" fill-opacity="1" clip-path="url(#sWiUiswadtqw)"/><path fill="rgb(0,0,0)" stroke="none" paint-order="stroke" d="M 72.6397933959961 77.81818389892578 L 72.66024139523506 77.81818389892578 L 72.66024139523506 130.45454788208008 L 72.6397933959961 130.45454788208008 L 72.6397933959961 77.81818389892578" fill-opacity="1" clip-path="url(#sWiUiswadtqw)"/><path fill="rgb(110,0,0)" stroke="none" paint-order="stroke" d="M 72.66024017333984 77.81818389892578 L 72.68068817257881 77.81818389892578 L 72.68068817257881 130.45454788208008 L 72.66024017333984 130.45454788208008 L 72.66024017333984 77.81818389892578" fill-opacity="1" clip-path="url(#sWiUiswadtqw)"/><path fill="rgb(144,0,0)" stroke="none" paint-order="stroke" d="M 72.6806869506836 77.81818389892578 L 72.702412949875 77.81818389892578 L 72.702412949875 130.45454788208008 L 72.6806869506836 130.45454788208008 L 72.6806869506836 77.81818389892578" fill-opacity="1" clip-path="url(#sWiUiswadtqw)"/><path fill="rgb(176,0,0)" stroke="none" paint-order="stroke" d="M 72.7024154663086 77.81818389892578 L 72.7241414655 77.81818389892578 L 72.7241414655 130.45454788208008 L 72.7024154663086 130.45454788208008 L 72.7024154663086 77.81818389892578" fill-opacity="1" clip-path="url(#sWiUiswadtqw)"/><path fill="rgb(200,0,0)" stroke="none" paint-order="stroke" d="M 72.72413635253906 77.81818389892578 L 72.74586235173047 77.81818389892578 L 72.74586235173047 130.45454788208008 L 72.72413635253906 130.45454788208008 L 72.72413635253906 77.81818389892578" fill-opacity="1" clip-path="url(#sWiUiswadtqw)"/><path fill="rgb(209,0,0)" stroke="none" paint-order="stroke" d="M 72.74586486816406 77.81818389892578 L 72.76759086735547 77.81818389892578 L 72.76759086735547 130.45454788208008 L 72.74586486816406 130.45454788208008 L 72.74586486816406 77.81818389892578" fill-opacity="1" clip-path="url(#sWiUiswadtqw)"/><path fill="rgb(217,0,0)" stroke="none" paint-order="stroke" d="M 72.76759338378906 77.81818389892578 L 72.78931938298047 77.81818389892578 L 72.78931938298047 130.45454788208008 L 72.76759338378906 130.45454788208008 L 72.76759338378906 77.81818389892578" fill-opacity="1" clip-path="url(#sWiUiswadtqw)"/><path fill="rgb(221,0,0)" stroke="none" paint-order="stroke" d="M 72.78931427001953 77.81818389892578 L 72.8097622692585 77.81818389892578 L 72.8097622692585 130.45454788208008 L 72.78931427001953 130.45454788208008 L 72.78931427001953 77.81818389892578" fill-opacity="1" clip-path="url(#sWiUiswadtqw)"/><path fill="rgb(226,0,0)" stroke="none" paint-order="stroke" d="M 72.80976867675781 77.81818389892578 L 72.83021667599678 77.81818389892578 L 72.83021667599678 130.45454788208008 L 72.80976867675781 130.45454788208008 L 72.80976867675781 77.81818389892578" fill-opacity="1" clip-path="url(#sWiUiswadtqw)"/><path fill="rgb(234,0,0)" stroke="none" paint-order="stroke" d="M 72.83021545410156 77.81818389892578 L 73.2992414534092 77.81818389892578 L 73.2992414534092 130.45454788208008 L 72.83021545410156 130.45454788208008 L 72.83021545410156 77.81818389892578" fill-opacity="1" clip-path="url(#sWiUiswadtqw)"/><path fill="rgb(230,0,0)" stroke="none" paint-order="stroke" d="M 73.29924011230469 77.81818389892578 L 73.31841011159122 77.81818389892578 L 73.31841011159122 130.45454788208008 L 73.29924011230469 130.45454788208008 L 73.29924011230469 77.81818389892578" fill-opacity="1" clip-path="url(#sWiUiswadtqw)"/><path fill="rgb(217,0,0)" stroke="none" paint-order="stroke" d="M 73.31841278076172 77.81818389892578 L 73.34013877995312 77.81818389892578 L 73.34013877995312 130.45454788208008 L 73.31841278076172 130.45454788208008 L 73.31841278076172 77.81818389892578" fill-opacity="1" clip-path="url(#sWiUiswadtqw)"/><path fill="rgb(209,0,0)" stroke="none" paint-order="stroke" d="M 73.34013366699219 77.81818389892578 L 73.36058166623116 77.81818389892578 L 73.36058166623116 130.45454788208008 L 73.34013366699219 130.45454788208008 L 73.34013366699219 77.81818389892578" fill-opacity="1" clip-path="url(#sWiUiswadtqw)"/><path fill="rgb(187,0,0)" stroke="none" paint-order="stroke" d="M 73.36058044433594 77.81818389892578 L 73.38230644352734 77.81818389892578 L 73.38230644352734 130.45454788208008 L 73.36058044433594 130.45454788208008 L 73.36058044433594 77.81818389892578" fill-opacity="1" clip-path="url(#sWiUiswadtqw)"/><path fill="rgb(181,0,0)" stroke="none" paint-order="stroke" d="M 73.38230895996094 77.81818389892578 L 74.34847694635391 77.81818389892578 L 74.34847694635391 130.45454788208008 L 73.38230895996094 130.45454788208008 L 73.38230895996094 77.81818389892578" fill-opacity="1" clip-path="url(#sWiUiswadtqw)"/><path fill="rgb(179,0,0)" stroke="none" paint-order="stroke" d="M 74.34848022460938 77.81818389892578 L 74.60408022999763 77.81818389892578 L 74.60408022999763 130.45454788208008 L 74.34848022460938 130.45454788208008 L 74.34848022460938 77.81818389892578" fill-opacity="1" clip-path="url(#sWiUiswadtqw)"/><path fill="rgb(178,0,0)" stroke="none" paint-order="stroke" d="M 74.60408020019531 77.81818389892578 L 74.8072821944952 77.81818389892578 L 74.8072821944952 130.45454788208008 L 74.60408020019531 130.45454788208008 L 74.60408020019531 77.81818389892578" fill-opacity="1" clip-path="url(#sWiUiswadtqw)"/><path fill="rgb(176,0,0)" stroke="none" paint-order="stroke" d="M 74.80728149414062 77.81818389892578 L 75.01303949952126 77.81818389892578 L 75.01303949952126 130.45454788208008 L 74.80728149414062 130.45454788208008 L 74.80728149414062 77.81818389892578" fill-opacity="1" clip-path="url(#sWiUiswadtqw)"/><path fill="rgb(175,0,0)" stroke="none" paint-order="stroke" d="M 75.0130386352539 77.81818389892578 L 99.38705444335938 77.81818389892578 L 99.38705444335938 130.45454788208008 L 75.0130386352539 130.45454788208008 L 75.0130386352539 77.81818389892578" fill-opacity="1" clip-path="url(#sWiUiswadtqw)"/><path fill="rgb(102,0,183)" stroke="none" paint-order="stroke" d="M 99.38705444335938 77.81818389892578 L 120.23379135131836 77.81818389892578 L 120.23379135131836 130.45454788208008 L 99.38705444335938 130.45454788208008 L 99.38705444335938 77.81818389892578" fill-opacity="1" clip-path="url(#sWiUiswadtqw)"/><path fill="rgb(0,255,40)" stroke="none" paint-order="stroke" d="M 120.2337875366211 77.81818389892578 L 133.8342638015747 77.81818389892578 L 133.8342638015747 130.45454788208008 L 120.2337875366211 130.45454788208008 L 120.2337875366211 77.81818389892578" fill-opacity="1" clip-path="url(#sWiUiswadtqw)"/><path fill="rgb(251,0,7)" stroke="none" paint-order="stroke" d="M 58.5 130.4545440673828 L 99.38705444335938 130.4545440673828 L 99.38705444335938 183.0909080505371 L 58.5 183.0909080505371 L 58.5 130.4545440673828" fill-opacity="1" clip-path="url(#TBAalWLmtGdu)"/><path fill="rgb(255,255,10)" stroke="none" paint-order="stroke" d="M 99.38705444335938 130.4545440673828 L 120.23379135131836 130.4545440673828 L 120.23379135131836 183.0909080505371 L 99.38705444335938 183.0909080505371 L 99.38705444335938 130.4545440673828" fill-opacity="1" clip-path="url(#TBAalWLmtGdu)"/><path fill="rgb(251,0,7)" stroke="none" paint-order="stroke" d="M 120.2337875366211 130.4545440673828 L 133.8342638015747 130.4545440673828 L 133.8342638015747 183.0909080505371 L 120.2337875366211 183.0909080505371 L 120.2337875366211 130.4545440673828" fill-opacity="1" clip-path="url(#TBAalWLmtGdu)"/><path fill="rgb(105,29,48)" stroke="none" paint-order="stroke" d="M 75.74405670166016 183.09091186523438 L 75.80795670300722 183.09091186523438 L 75.80795670300722 498.9090881347656 L 75.74405670166016 498.9090881347656 L 75.74405670166016 183.09091186523438" fill-opacity="1" clip-path="url(#DSNKQPmbzbTx)"/><path fill="rgb(105,29,48)" stroke="none" paint-order="stroke" d="M 76.84313201904297 183.09091186523438 L 76.90703202039003 183.09091186523438 L 76.90703202039003 498.9090881347656 L 76.84313201904297 498.9090881347656 L 76.84313201904297 183.09091186523438" fill-opacity="1" clip-path="url(#DSNKQPmbzbTx)"/><path fill="rgb(105,29,48)" stroke="none" paint-order="stroke" d="M 77.1754150390625 183.09091186523438 L 77.23931504040956 183.09091186523438 L 77.23931504040956 498.9090881347656 L 77.1754150390625 498.9090881347656 L 77.1754150390625 183.09091186523438" fill-opacity="1" clip-path="url(#DSNKQPmbzbTx)"/><path fill="rgb(105,29,48)" stroke="none" paint-order="stroke" d="M 77.69172668457031 183.09091186523438 L 77.75562668591738 183.09091186523438 L 77.75562668591738 498.9090881347656 L 77.69172668457031 498.9090881347656 L 77.69172668457031 183.09091186523438" fill-opacity="1" clip-path="url(#DSNKQPmbzbTx)"/><path fill="rgb(105,29,48)" stroke="none" paint-order="stroke" d="M 83.71749877929688 183.09091186523438 L 83.78139878064394 183.09091186523438 L 83.78139878064394 498.9090881347656 L 83.71749877929688 498.9090881347656 L 83.71749877929688 183.09091186523438" fill-opacity="1" clip-path="url(#DSNKQPmbzbTx)"/><path fill="rgb(105,29,48)" stroke="none" paint-order="stroke" d="M 84.14306640625 183.09091186523438 L 84.20696640759706 183.09091186523438 L 84.20696640759706 498.9090881347656 L 84.14306640625 498.9090881347656 L 84.14306640625 183.09091186523438" fill-opacity="1" clip-path="url(#DSNKQPmbzbTx)"/><path fill="rgb(105,29,48)" stroke="none" paint-order="stroke" d="M 86.57894134521484 183.09091186523438 L 86.64284134656191 183.09091186523438 L 86.64284134656191 498.9090881347656 L 86.57894134521484 498.9090881347656 L 86.57894134521484 183.09091186523438" fill-opacity="1" clip-path="url(#DSNKQPmbzbTx)"/><path fill="rgb(105,29,48)" stroke="none" paint-order="stroke" d="M 120.2337875366211 183.09091186523438 L 120.29768753796816 183.09091186523438 L 120.29768753796816 498.9090881347656 L 120.2337875366211 498.9090881347656 L 120.2337875366211 183.09091186523438" fill-opacity="1" clip-path="url(#DSNKQPmbzbTx)"/><path fill="rgb(255,188,66)" stroke="none" paint-order="stroke" d="M 104.41087341308594 183.09091186523438 L 105.50228536128998 183.09091186523438 L 105.50228536128998 498.9090881347656 L 104.41087341308594 498.9090881347656 L 104.41087341308594 183.09091186523438" fill-opacity="1" clip-path="url(#tUGSPdGRziKe)"/><path fill="rgb(255,188,66)" stroke="none" paint-order="stroke" d="M 108.79696655273438 183.09091186523438 L 113.98692464828491 183.09091186523438 L 113.98692464828491 498.9090881347656 L 108.79696655273438 498.9090881347656 L 108.79696655273438 183.09091186523438" fill-opacity="1" clip-path="url(#tUGSPdGRziKe)"/><path fill="rgb(162,174,187)" stroke="none" paint-order="stroke" d="M 120.2337875366211 183.09091186523438 L 120.29768753796816 183.09091186523438 L 120.29768753796816 498.9090881347656 L 120.2337875366211 498.9090881347656 L 120.2337875366211 183.09091186523438" fill-opacity="1" clip-path="url(#vwrAxyldLhXP)"/><path fill="rgb(255,188,66)" stroke="none" paint-order="stroke" d="M 80.1084213256836 183.09091186523438 L 81.83244335651398 183.09091186523438 L 81.83244335651398 498.9090881347656 L 80.1084213256836 498.9090881347656 L 80.1084213256836 183.09091186523438" fill-opacity="1" clip-path="url(#yRCHRmWTxLrG)"/><path fill="rgb(255,188,66)" stroke="none" paint-order="stroke" d="M 85.04534149169922 183.09091186523438 L 85.55398547649384 183.09091186523438 L 85.55398547649384 498.9090881347656 L 85.04534149169922 498.9090881347656 L 85.04534149169922 183.09091186523438" fill-opacity="1" clip-path="url(#yRCHRmWTxLrG)"/><path fill="rgb(255,188,66)" stroke="none" paint-order="stroke" d="M 88.27867889404297 183.09091186523438 L 92.45646095275879 183.09091186523438 L 92.45646095275879 498.9090881347656 L 88.27867889404297 498.9090881347656 L 88.27867889404297 183.09091186523438" fill-opacity="1" clip-path="url(#yRCHRmWTxLrG)"/><path fill="rgb(255,188,66)" stroke="none" paint-order="stroke" d="M 94.73896789550781 183.09091186523438 L 96.44254183769226 183.09091186523438 L 96.44254183769226 498.9090881347656 L 94.73896789550781 498.9090881347656 L 94.73896789550781 183.09091186523438" fill-opacity="1" clip-path="url(#yRCHRmWTxLrG)"/><path fill="rgb(255,188,66)" stroke="none" paint-order="stroke" d="M 100.49507904052734 183.09091186523438 L 102.0772430896759 183.09091186523438 L 102.0772430896759 498.9090881347656 L 100.49507904052734 498.9090881347656 L 100.49507904052734 183.09091186523438" fill-opacity="1" clip-path="url(#yRCHRmWTxLrG)"/><path fill="rgb(216,17,89)" stroke="none" paint-order="stroke" d="M 70.62694549560547 183.09091186523438 L 70.69084549695253 183.09091186523438 L 70.69084549695253 498.9090881347656 L 70.62694549560547 498.9090881347656 L 70.62694549560547 183.09091186523438" fill-opacity="1" clip-path="url(#TvZMrSISiedS)"/><path fill="rgb(216,17,89)" stroke="none" paint-order="stroke" d="M 70.62694549560547 183.09091186523438 L 70.69084549695253 183.09091186523438 L 70.69084549695253 498.9090881347656 L 70.62694549560547 498.9090881347656 L 70.62694549560547 183.09091186523438" fill-opacity="1" clip-path="url(#TvZMrSISiedS)"/><path fill="rgb(216,17,89)" stroke="none" paint-order="stroke" d="M 120.2337875366211 183.09091186523438 L 120.29768753796816 183.09091186523438 L 120.29768753796816 498.9090881347656 L 120.2337875366211 498.9090881347656 L 120.2337875366211 183.09091186523438" fill-opacity="1" clip-path="url(#TvZMrSISiedS)"/><path fill="rgb(33,131,128)" stroke="none" paint-order="stroke" d="M 98.08221435546875 183.09091186523438 L 99.38705229759216 183.09091186523438 L 99.38705229759216 498.9090881347656 L 98.08221435546875 498.9090881347656 L 98.08221435546875 183.09091186523438" fill-opacity="1" clip-path="url(#ONnKKLldqFzv)"/><path fill="rgb(33,131,128)" stroke="none" paint-order="stroke" d="M 120.2337875366211 183.09091186523438 L 120.29768753796816 183.09091186523438 L 120.29768753796816 498.9090881347656 L 120.2337875366211 498.9090881347656 L 120.2337875366211 183.09091186523438" fill-opacity="1" clip-path="url(#ONnKKLldqFzv)"/><path fill="rgb(28,49,68)" stroke="none" paint-order="stroke" d="M 67.67604064941406 183.09091186523438 L 69.54192066192627 183.09091186523438 L 69.54192066192627 498.9090881347656 L 67.67604064941406 498.9090881347656 L 67.67604064941406 183.09091186523438" fill-opacity="1" clip-path="url(#HOfTipKFmfHX)"/><path fill="rgb(28,49,68)" stroke="none" paint-order="stroke" d="M 93.34978485107422 183.09091186523438 L 93.69228884577751 183.09091186523438 L 93.69228884577751 498.9090881347656 L 93.34978485107422 498.9090881347656 L 93.34978485107422 183.09091186523438" fill-opacity="1" clip-path="url(#HOfTipKFmfHX)"/><path fill="rgb(239,185,203)" stroke="none" paint-order="stroke" d="M 123.87736511230469 183.09091186523438 L 133.8342628479004 183.09091186523438 L 133.8342628479004 498.9090881347656 L 123.87736511230469 498.9090881347656 L 123.87736511230469 183.09091186523438" fill-opacity="1" clip-path="url(#hQqdRKaxszWR)"/><path fill="rgb(105,29,48)" stroke="none" paint-order="stroke" d="M 71.7848129272461 183.09091186523438 L 73.65324890613556 183.09091186523438 L 73.65324890613556 498.9090881347656 L 71.7848129272461 498.9090881347656 L 71.7848129272461 183.09091186523438" fill-opacity="1" clip-path="url(#TMmoENyZdSZC)"/><path fill="rgb(255,188,66)" stroke="none" paint-order="stroke" d="M 109.64556121826172 498.9090881347656 L 110.05068722367287 498.9090881347656 L 110.05068722367287 551.5454521179199 L 109.64556121826172 551.5454521179199 L 109.64556121826172 498.9090881347656" fill-opacity="1" clip-path="url(#AFBOtqNDckLT)"/><path fill="rgb(255,188,66)" stroke="none" paint-order="stroke" d="M 110.45325469970703 498.9090881347656 L 111.45137268304825 498.9090881347656 L 111.45137268304825 551.5454521179199 L 110.45325469970703 551.5454521179199 L 110.45325469970703 498.9090881347656" fill-opacity="1" clip-path="url(#AFBOtqNDckLT)"/><path fill="rgb(143,45,86)" stroke="none" paint-order="stroke" d="M 58.5 551.5454711914062 L 75.74405479431152 551.5454711914062 L 75.74405479431152 604.1818351745605 L 58.5 604.1818351745605 L 58.5 551.5454711914062" fill-opacity="1" clip-path="url(#JaQwNEgEdHuF)"/><path fill="rgb(63,136,197)" stroke="none" paint-order="stroke" d="M 75.74405670166016 551.5454711914062 L 76.84313666820526 551.5454711914062 L 76.84313666820526 604.1818351745605 L 75.74405670166016 604.1818351745605 L 75.74405670166016 551.5454711914062" fill-opacity="1" clip-path="url(#JaQwNEgEdHuF)"/><path fill="rgb(143,45,86)" stroke="none" paint-order="stroke" d="M 76.84313201904297 551.5454711914062 L 77.17541202902794 551.5454711914062 L 77.17541202902794 604.1818351745605 L 76.84313201904297 604.1818351745605 L 76.84313201904297 551.5454711914062" fill-opacity="1" clip-path="url(#JaQwNEgEdHuF)"/><path fill="rgb(63,136,197)" stroke="none" paint-order="stroke" d="M 77.1754150390625 551.5454711914062 L 77.69172704219818 551.5454711914062 L 77.69172704219818 604.1818351745605 L 77.1754150390625 604.1818351745605 L 77.1754150390625 551.5454711914062" fill-opacity="1" clip-path="url(#JaQwNEgEdHuF)"/><path fill="rgb(143,45,86)" stroke="none" paint-order="stroke" d="M 77.69172668457031 551.5454711914062 L 88.5074405670166 551.5454711914062 L 88.5074405670166 604.1818351745605 L 77.69172668457031 604.1818351745605 L 77.69172668457031 551.5454711914062" fill-opacity="1" clip-path="url(#JaQwNEgEdHuF)"/><path fill="rgb(63,136,197)" stroke="none" paint-order="stroke" d="M 88.50743865966797 551.5454711914062 L 88.65824265778065 551.5454711914062 L 88.65824265778065 604.1818351745605 L 88.50743865966797 604.1818351745605 L 88.50743865966797 551.5454711914062" fill-opacity="1" clip-path="url(#JaQwNEgEdHuF)"/><path fill="rgb(143,45,86)" stroke="none" paint-order="stroke" d="M 88.65824127197266 551.5454711914062 L 88.76431526988745 551.5454711914062 L 88.76431526988745 604.1818351745605 L 88.65824127197266 604.1818351745605 L 88.65824127197266 551.5454711914062" fill-opacity="1" clip-path="url(#JaQwNEgEdHuF)"/><path fill="rgb(63,136,197)" stroke="none" paint-order="stroke" d="M 88.76432037353516 551.5454711914062 L 90.44105637073517 551.5454711914062 L 90.44105637073517 604.1818351745605 L 88.76432037353516 604.1818351745605 L 88.76432037353516 551.5454711914062" fill-opacity="1" clip-path="url(#JaQwNEgEdHuF)"/><path fill="rgb(143,45,86)" stroke="none" paint-order="stroke" d="M 90.44105529785156 551.5454711914062 L 91.65132129192352 551.5454711914062 L 91.65132129192352 604.1818351745605 L 90.44105529785156 604.1818351745605 L 90.44105529785156 551.5454711914062" fill-opacity="1" clip-path="url(#JaQwNEgEdHuF)"/><path fill="rgb(63,136,197)" stroke="none" paint-order="stroke" d="M 91.65132141113281 551.5454711914062 L 92.43729138374329 551.5454711914062 L 92.43729138374329 604.1818351745605 L 91.65132141113281 604.1818351745605 L 91.65132141113281 551.5454711914062" fill-opacity="1" clip-path="url(#JaQwNEgEdHuF)"/><path fill="rgb(143,45,86)" stroke="none" paint-order="stroke" d="M 92.43728637695312 551.5454711914062 L 92.45645637623966 551.5454711914062 L 92.45645637623966 604.1818351745605 L 92.43728637695312 604.1818351745605 L 92.43728637695312 551.5454711914062" fill-opacity="1" clip-path="url(#JaQwNEgEdHuF)"/><path fill="rgb(63,136,197)" stroke="none" paint-order="stroke" d="M 92.45645904541016 551.5454711914062 L 95.36902093887329 551.5454711914062 L 95.36902093887329 604.1818351745605 L 92.45645904541016 604.1818351745605 L 92.45645904541016 551.5454711914062" fill-opacity="1" clip-path="url(#JaQwNEgEdHuF)"/><path fill="rgb(143,45,86)" stroke="none" paint-order="stroke" d="M 95.3690185546875 551.5454711914062 L 100.80946445465088 551.5454711914062 L 100.80946445465088 604.1818351745605 L 95.3690185546875 604.1818351745605 L 95.3690185546875 551.5454711914062" fill-opacity="1" clip-path="url(#JaQwNEgEdHuF)"/><path fill="rgb(63,136,197)" stroke="none" paint-order="stroke" d="M 100.8094711303711 551.5454711914062 L 101.91238510608673 551.5454711914062 L 101.91238510608673 604.1818351745605 L 100.8094711303711 604.1818351745605 L 100.8094711303711 551.5454711914062" fill-opacity="1" clip-path="url(#JaQwNEgEdHuF)"/><path fill="rgb(143,45,86)" stroke="none" paint-order="stroke" d="M 101.91238403320312 551.5454711914062 L 133.8342685699463 551.5454711914062 L 133.8342685699463 604.1818351745605 L 101.91238403320312 604.1818351745605 L 101.91238403320312 551.5454711914062" fill-opacity="1" clip-path="url(#JaQwNEgEdHuF)"/><path fill="none" stroke="rgb(0,0,0)" paint-order="fill" d="M 58.5 77.81818389892578 L 133.83426666259766 77.81818389892578 L 133.83426666259766 604.1818313598633 L 58.5 604.1818313598633 L 58.5 77.81818389892578" stroke-opacity="1" stroke-linejoin="bevel" stroke-miterlimit="10" stroke-dasharray="" clip-path="url(#nmuEzVqvqJfC)"/><path fill="none" stroke="rgb(0,0,0)" paint-order="fill" d="M 58.5 630.5 L 1336.5 630.5" stroke-opacity="1" stroke-linejoin="bevel" stroke-miterlimit="10" stroke-dasharray=""/><path fill="none" stroke="rgb(0,0,0)" paint-order="fill" d="M 58.5 636.5 L 58.5 628.5 M 314.5 636.5 L 314.5 628.5 M 569.5 636.5 L 569.5 628.5 M 825.5 636.5 L 825.5 628.5 M 1080.5 636.5 L 1080.5 628.5 M 1336.5 636.5 L 1336.5 628.5" stroke-opacity="1" stroke-linejoin="bevel" stroke-miterlimit="10" stroke-dasharray=""/><path fill="none" stroke="rgb(0,0,0)" paint-order="fill" d="M 58.5 634.5 L 58.5 630.5 M 109.5 634.5 L 109.5 630.5 M 160.5 634.5 L 160.5 630.5 M 211.5 634.5 L 211.5 630.5 M 262.5 634.5 L 262.5 630.5 M 314.5 634.5 L 314.5 630.5 M 365.5 634.5 L 365.5 630.5 M 416.5 634.5 L 416.5 630.5 M 467.5 634.5 L 467.5 630.5 M 518.5 634.5 L 518.5 630.5 M 569.5 634.5 L 569.5 630.5 M 620.5 634.5 L 620.5 630.5 M 671.5 634.5 L 671.5 630.5 M 723.5 634.5 L 723.5 630.5 M 774.5 634.5 L 774.5 630.5 M 825.5 634.5 L 825.5 630.5 M 876.5 634.5 L 876.5 630.5 M 927.5 634.5 L 927.5 630.5 M 978.5 634.5 L 978.5 630.5 M 1029.5 634.5 L 1029.5 630.5 M 1080.5 634.5 L 1080.5 630.5 M 1132.5 634.5 L 1132.5 630.5 M 1183.5 634.5 L 1183.5 630.5 M 1234.5 634.5 L 1234.5 630.5 M 1285.5 634.5 L 1285.5 630.5 M 1336.5 634.5 L 1336.5 630.5" stroke-opacity="1" stroke-linejoin="bevel" stroke-miterlimit="10" stroke-dasharray=""/><text fill="rgb(68,68,68)" stroke="none" font-family="helvetica" font-size="11px" font-style="normal" font-weight="normal" text-decoration="normal" x="54.94166660308838" y="648.89013671875" text-anchor="start" dominant-baseline="alphabetic" transform="matrix(1, 0, 0, 1, 0.5, 0.5)" fill-opacity="1">0</text><text fill="rgb(68,68,68)" stroke="none" font-family="helvetica" font-size="11px" font-style="normal" font-weight="normal" text-decoration="normal" x="304.42500591278076" y="648.89013671875" text-anchor="start" dominant-baseline="alphabetic" transform="matrix(1, 0, 0, 1, 0.5, 0.5)" fill-opacity="1">200</text><text fill="rgb(68,68,68)" stroke="none" font-family="helvetica" font-size="11px" font-style="normal" font-weight="normal" text-decoration="normal" x="560.0250120162964" y="648.89013671875" text-anchor="start" dominant-baseline="alphabetic" transform="matrix(1, 0, 0, 1, 0.5, 0.5)" fill-opacity="1">400</text><text fill="rgb(68,68,68)" stroke="none" font-family="helvetica" font-size="11px" font-style="normal" font-weight="normal" text-decoration="normal" x="815.6249876022339" y="648.89013671875" text-anchor="start" dominant-baseline="alphabetic" transform="matrix(1, 0, 0, 1, 0.5, 0.5)" fill-opacity="1">600</text><text fill="rgb(68,68,68)" stroke="none" font-family="helvetica" font-size="11px" font-style="normal" font-weight="normal" text-decoration="normal" x="1071.2250242233276" y="648.89013671875" text-anchor="start" dominant-baseline="alphabetic" transform="matrix(1, 0, 0, 1, 0.5, 0.5)" fill-opacity="1">800</text><text fill="rgb(68,68,68)" stroke="none" font-family="helvetica" font-size="11px" font-style="normal" font-weight="normal" text-decoration="normal" x="1323.7666664123535" y="648.89013671875" text-anchor="start" dominant-baseline="alphabetic" transform="matrix(1, 0, 0, 1, 0.5, 0.5)" fill-opacity="1">1000</text><text fill="rgb(68,68,68)" stroke="none" font-family="helvetica" font-size="15pt" font-style="italic" font-weight="normal" text-decoration="normal" x="666.4416675567627" y="676.06982421875" text-anchor="start" dominant-baseline="alphabetic" transform="matrix(1, 0, 0, 1, 0.5, 0.5)" fill-opacity="1">time(s)</text><path fill="none" stroke="rgb(0,0,0)" paint-order="fill" d="M 58.5 630.5 L 58.5 51.5" stroke-opacity="1" stroke-linejoin="bevel" stroke-miterlimit="10" stroke-dasharray=""/><path fill="none" stroke="rgb(0,0,0)" paint-order="fill" d="M 52.5 551.5 L 60.5 551.5 M 52.5 446.5 L 60.5 446.5 M 52.5 341.5 L 60.5 341.5 M 52.5 235.5 L 60.5 235.5 M 52.5 130.5 L 60.5 130.5" stroke-opacity="1" stroke-linejoin="bevel" stroke-miterlimit="10" stroke-dasharray=""/><path fill="none" stroke="rgb(0,0,0)" paint-order="fill" d="M 54.5 572.5 L 58.5 572.5 M 54.5 593.5 L 58.5 593.5 M 54.5 614.5 L 58.5 614.5 M 54.5 551.5 L 58.5 551.5 M 54.5 530.5 L 58.5 530.5 M 54.5 509.5 L 58.5 509.5 M 54.5 488.5 L 58.5 488.5 M 54.5 467.5 L 58.5 467.5 M 54.5 446.5 L 58.5 446.5 M 54.5 425.5 L 58.5 425.5 M 54.5 404.5 L 58.5 404.5 M 54.5 383.5 L 58.5 383.5 M 54.5 362.5 L 58.5 362.5 M 54.5 341.5 L 58.5 341.5 M 54.5 319.5 L 58.5 319.5 M 54.5 298.5 L 58.5 298.5 M 54.5 277.5 L 58.5 277.5 M 54.5 256.5 L 58.5 256.5 M 54.5 235.5 L 58.5 235.5 M 54.5 214.5 L 58.5 214.5 M 54.5 193.5 L 58.5 193.5 M 54.5 172.5 L 58.5 172.5 M 54.5 151.5 L 58.5 151.5 M 54.5 130.5 L 58.5 130.5 M 54.5 109.5 L 58.5 109.5 M 54.5 88.5 L 58.5 88.5 M 54.5 67.5 L 58.5 67.5" stroke-opacity="1" stroke-linejoin="bevel" stroke-miterlimit="10" stroke-dasharray=""/><text fill="rgb(68,68,68)" stroke="none" font-family="helvetica" font-size="11px" font-style="normal" font-weight="normal" text-decoration="normal" x="34.46666622161865" y="554.9905395507812" text-anchor="start" dominant-baseline="alphabetic" transform="matrix(1, 0, 0, 1, 0.5, 0.5)" fill-opacity="1">−2</text><text fill="rgb(68,68,68)" stroke="none" font-family="helvetica" font-size="11px" font-style="normal" font-weight="normal" text-decoration="normal" x="34.46666622161865" y="449.7178039550781" text-anchor="start" dominant-baseline="alphabetic" transform="matrix(1, 0, 0, 1, 0.5, 0.5)" fill-opacity="1">−1</text><text fill="rgb(68,68,68)" stroke="none" font-family="helvetica" font-size="11px" font-style="normal" font-weight="normal" text-decoration="normal" x="40.88333320617676" y="344.445068359375" text-anchor="start" dominant-baseline="alphabetic" transform="matrix(1, 0, 0, 1, 0.5, 0.5)" fill-opacity="1">0</text><text fill="rgb(68,68,68)" stroke="none" font-family="helvetica" font-size="11px" font-style="normal" font-weight="normal" text-decoration="normal" x="40.88333320617676" y="239.17234802246094" text-anchor="start" dominant-baseline="alphabetic" transform="matrix(1, 0, 0, 1, 0.5, 0.5)" fill-opacity="1">1</text><text fill="rgb(68,68,68)" stroke="none" font-family="helvetica" font-size="11px" font-style="normal" font-weight="normal" text-decoration="normal" x="40.88333320617676" y="133.8996124267578" text-anchor="start" dominant-baseline="alphabetic" transform="matrix(1, 0, 0, 1, 0.5, 0.5)" fill-opacity="1">2</text><text fill="rgb(68,68,68)" stroke="none" font-family="helvetica" font-size="15pt" font-style="italic" font-weight="normal" text-decoration="normal" x="-11.316666603088379" y="336.076171875" text-anchor="start" dominant-baseline="alphabetic" transform="matrix(6.123233995736766e-17, -1, 1, 6.123233995736766e-17, -313.53333377838135, 367.46666622161865)" fill-opacity="1">students</text><path fill="rgb(255,255,255)" stroke="rgb(229,229,229)" paint-order="fill" d="M 1128.2333374023438 61.5 L 1326.5 61.5 L 1326.5 400.5 L 1128.2333374023438 400.5 L 1128.2333374023438 61.5" fill-opacity="0.9490196078431372" clip-path="url(#xVsGwGNDrpTr)" stroke-opacity="0.5019607843137255" stroke-linejoin="bevel" stroke-miterlimit="10" stroke-dasharray=""/><g clip-path="url(#xVsGwGNDrpTr)"><text fill="rgb(68,68,68)" stroke="none" font-family="helvetica" font-size="13px" font-style="normal" font-weight="normal" text-decoration="normal" x="1162.7333374023438" y="81" text-anchor="start" dominant-baseline="central" transform="matrix(1, 0, 0, 1, 0.5, 0.5)" fill-opacity="1">wavelength</text></g><path fill="rgb(0,255,40)" stroke="none" paint-order="stroke" d="M 1140.2333374023438 73.5 L 1156.2333374023438 73.5 L 1156.2333374023438 89.5 L 1140.2333374023438 89.5 L 1140.2333374023438 73.5" fill-opacity="1" clip-path="url(#xVsGwGNDrpTr)"/><path fill="rgb(216,17,89)" stroke="none" paint-order="stroke" d="M 1140.2333374023438 73.5 L 1156.2333374023438 73.5 L 1156.2333374023438 89.5 L 1140.2333374023438 89.5 L 1140.2333374023438 73.5" fill-opacity="1" clip-path="url(#xVsGwGNDrpTr)"/><g clip-path="url(#xVsGwGNDrpTr)"><text fill="rgb(68,68,68)" stroke="none" font-family="helvetica" font-size="13px" font-style="normal" font-weight="normal" text-decoration="normal" x="1162.7333374023438" y="104" text-anchor="start" dominant-baseline="central" transform="matrix(1, 0, 0, 1, 0.5, 0.5)" fill-opacity="1">solution</text></g><path fill="rgb(251,0,7)" stroke="none" paint-order="stroke" d="M 1140.2333374023438 96.5 L 1156.2333374023438 96.5 L 1156.2333374023438 112.5 L 1140.2333374023438 112.5 L 1140.2333374023438 96.5" fill-opacity="1" clip-path="url(#xVsGwGNDrpTr)"/><path fill="rgb(33,131,128)" stroke="none" paint-order="stroke" d="M 1140.2333374023438 96.5 L 1156.2333374023438 96.5 L 1156.2333374023438 112.5 L 1140.2333374023438 112.5 L 1140.2333374023438 96.5" fill-opacity="1" clip-path="url(#xVsGwGNDrpTr)"/><g clip-path="url(#xVsGwGNDrpTr)"><text fill="rgb(68,68,68)" stroke="none" font-family="helvetica" font-size="13px" font-style="normal" font-weight="normal" text-decoration="normal" x="1162.7333374023438" y="127" text-anchor="start" dominant-baseline="central" transform="matrix(1, 0, 0, 1, 0.5, 0.5)" fill-opacity="1">laser</text></g><path fill="rgb(105,29,48)" stroke="none" paint-order="stroke" d="M 1140.2333374023438 119.5 L 1156.2333374023438 119.5 L 1156.2333374023438 135.5 L 1140.2333374023438 135.5 L 1140.2333374023438 119.5" fill-opacity="1" clip-path="url(#xVsGwGNDrpTr)"/><g clip-path="url(#xVsGwGNDrpTr)"><text fill="rgb(68,68,68)" stroke="none" font-family="helvetica" font-size="13px" font-style="normal" font-weight="normal" text-decoration="normal" x="1162.7333374023438" y="150" text-anchor="start" dominant-baseline="central" transform="matrix(1, 0, 0, 1, 0.5, 0.5)" fill-opacity="1">ruler</text></g><path fill="rgb(255,188,66)" stroke="none" paint-order="stroke" d="M 1140.2333374023438 142.5 L 1156.2333374023438 142.5 L 1156.2333374023438 158.5 L 1140.2333374023438 158.5 L 1140.2333374023438 142.5" fill-opacity="1" clip-path="url(#xVsGwGNDrpTr)"/><g clip-path="url(#xVsGwGNDrpTr)"><text fill="rgb(68,68,68)" stroke="none" font-family="helvetica" font-size="13px" font-style="normal" font-weight="normal" text-decoration="normal" x="1162.7333374023438" y="173" text-anchor="start" dominant-baseline="central" transform="matrix(1, 0, 0, 1, 0.5, 0.5)" fill-opacity="1">restarts</text></g><path fill="rgb(162,174,187)" stroke="none" paint-order="stroke" d="M 1140.2333374023438 165.5 L 1156.2333374023438 165.5 L 1156.2333374023438 181.5 L 1140.2333374023438 181.5 L 1140.2333374023438 165.5" fill-opacity="1" clip-path="url(#xVsGwGNDrpTr)"/><g clip-path="url(#xVsGwGNDrpTr)"><text fill="rgb(68,68,68)" stroke="none" font-family="helvetica" font-size="13px" font-style="normal" font-weight="normal" text-decoration="normal" x="1162.7333374023438" y="196" text-anchor="start" dominant-baseline="central" transform="matrix(1, 0, 0, 1, 0.5, 0.5)" fill-opacity="1">transmittance_absorbance</text></g><g clip-path="url(#xVsGwGNDrpTr)"><text fill="rgb(68,68,68)" stroke="none" font-family="helvetica" font-size="13px" font-style="normal" font-weight="normal" text-decoration="normal" x="1162.7333374023438" y="219" text-anchor="start" dominant-baseline="central" transform="matrix(1, 0, 0, 1, 0.5, 0.5)" fill-opacity="1">magnifier</text></g><path fill="rgb(255,188,66)" stroke="none" paint-order="stroke" d="M 1140.2333374023438 211.5 L 1156.2333374023438 211.5 L 1156.2333374023438 227.5 L 1140.2333374023438 227.5 L 1140.2333374023438 211.5" fill-opacity="1" clip-path="url(#xVsGwGNDrpTr)"/><g clip-path="url(#xVsGwGNDrpTr)"><text fill="rgb(68,68,68)" stroke="none" font-family="helvetica" font-size="13px" font-style="normal" font-weight="normal" text-decoration="normal" x="1162.7333374023438" y="242" text-anchor="start" dominant-baseline="central" transform="matrix(1, 0, 0, 1, 0.5, 0.5)" fill-opacity="1">concentration</text></g><g clip-path="url(#xVsGwGNDrpTr)"><text fill="rgb(68,68,68)" stroke="none" font-family="helvetica" font-size="13px" font-style="normal" font-weight="normal" text-decoration="normal" x="1162.7333374023438" y="265" text-anchor="start" dominant-baseline="central" transform="matrix(1, 0, 0, 1, 0.5, 0.5)" fill-opacity="1">flask</text></g><path fill="rgb(28,49,68)" stroke="none" paint-order="stroke" d="M 1140.2333374023438 257.5 L 1156.2333374023438 257.5 L 1156.2333374023438 273.5 L 1140.2333374023438 273.5 L 1140.2333374023438 257.5" fill-opacity="1" clip-path="url(#xVsGwGNDrpTr)"/><g clip-path="url(#xVsGwGNDrpTr)"><text fill="rgb(68,68,68)" stroke="none" font-family="helvetica" font-size="13px" font-style="normal" font-weight="normal" text-decoration="normal" x="1162.7333374023438" y="288" text-anchor="start" dominant-baseline="central" transform="matrix(1, 0, 0, 1, 0.5, 0.5)" fill-opacity="1">pdf</text></g><path fill="rgb(239,185,203)" stroke="none" paint-order="stroke" d="M 1140.2333374023438 280.5 L 1156.2333374023438 280.5 L 1156.2333374023438 296.5 L 1140.2333374023438 296.5 L 1140.2333374023438 280.5" fill-opacity="1" clip-path="url(#xVsGwGNDrpTr)"/><g clip-path="url(#xVsGwGNDrpTr)"><text fill="rgb(68,68,68)" stroke="none" font-family="helvetica" font-size="13px" font-style="normal" font-weight="normal" text-decoration="normal" x="1162.7333374023438" y="311" text-anchor="start" dominant-baseline="central" transform="matrix(1, 0, 0, 1, 0.5, 0.5)" fill-opacity="1">concentrationlab</text></g><g clip-path="url(#xVsGwGNDrpTr)"><text fill="rgb(68,68,68)" stroke="none" font-family="helvetica" font-size="13px" font-style="normal" font-weight="normal" text-decoration="normal" x="1162.7333374023438" y="334" text-anchor="start" dominant-baseline="central" transform="matrix(1, 0, 0, 1, 0.5, 0.5)" fill-opacity="1">wavelength_slider</text></g><path fill="rgb(105,29,48)" stroke="none" paint-order="stroke" d="M 1140.2333374023438 326.5 L 1156.2333374023438 326.5 L 1156.2333374023438 342.5 L 1140.2333374023438 342.5 L 1140.2333374023438 326.5" fill-opacity="1" clip-path="url(#xVsGwGNDrpTr)"/><g clip-path="url(#xVsGwGNDrpTr)"><text fill="rgb(68,68,68)" stroke="none" font-family="helvetica" font-size="13px" font-style="normal" font-weight="normal" text-decoration="normal" x="1162.7333374023438" y="357" text-anchor="start" dominant-baseline="central" transform="matrix(1, 0, 0, 1, 0.5, 0.5)" fill-opacity="1">ruler measuring</text></g><path fill="rgb(255,188,66)" stroke="none" paint-order="stroke" d="M 1140.2333374023438 349.5 L 1156.2333374023438 349.5 L 1156.2333374023438 365.5 L 1140.2333374023438 365.5 L 1140.2333374023438 349.5" fill-opacity="1" clip-path="url(#xVsGwGNDrpTr)"/><g clip-path="url(#xVsGwGNDrpTr)"><text fill="rgb(68,68,68)" stroke="none" font-family="helvetica" font-size="13px" font-style="normal" font-weight="normal" text-decoration="normal" x="1162.7333374023438" y="380" text-anchor="start" dominant-baseline="central" transform="matrix(1, 0, 0, 1, 0.5, 0.5)" fill-opacity="1">dependent variable</text></g><path fill="rgb(143,45,86)" stroke="none" paint-order="stroke" d="M 1140.2333374023438 372.5 L 1156.2333374023438 372.5 L 1156.2333374023438 388.5 L 1140.2333374023438 388.5 L 1140.2333374023438 372.5" fill-opacity="1" clip-path="url(#xVsGwGNDrpTr)"/><text fill="rgb(68,68,68)" stroke="none" font-family="helvetica" font-size="25pt" font-style="normal" font-weight="bold" text-decoration="normal" x="58" y="38.740885416666664" text-anchor="start" dominant-baseline="alphabetic" transform="matrix(1, 0, 0, 1, 0.5, 0.5)" fill-opacity="1">Timeline for student f3h5amf9 with permutation missing for task 1</text></svg>