<svg version="1.1" xmlns="http://www.w3.org/2000/svg" width="1366" height="683"><defs><clipPath id="nVOyNVtHJXZm"><path fill="none" stroke="none" d="M 58.5 51.5 L 1336.5 51.5 L 1336.5 630.5 L 58.5 630.5 L 58.5 51.5"/></clipPath><clipPath id="gFmDnooNHTKn"><path fill="none" stroke="none" d="M 58.5 51.5 L 1336.5 51.5 L 1336.5 630.5 L 58.5 630.5 L 58.5 51.5"/></clipPath><clipPath id="TPTHoMAtIhKu"><path fill="none" stroke="none" d="M 58.5 51.5 L 1336.5 51.5 L 1336.5 630.5 L 58.5 630.5 L 58.5 51.5"/></clipPath><clipPath id="xKmOquTPTcUZ"><path fill="none" stroke="none" d="M 58.5 51.5 L 1336.5 51.5 L 1336.5 630.5 L 58.5 630.5 L 58.5 51.5"/></clipPath><clipPath id="doXCtKxyTRTy"><path fill="none" stroke="none" d="M 58.5 51.5 L 1336.5 51.5 L 1336.5 630.5 L 58.5 630.5 L 58.5 51.5"/></clipPath><clipPath id="BdVHZvClwZdO"><path fill="none" stroke="none" d="M 58.5 51.5 L 1336.5 51.5 L 1336.5 630.5 L 58.5 630.5 L 58.5 51.5"/></clipPath><clipPath id="MCRVCmrmxWDn"><path fill="none" stroke="none" d="M 58.5 51.5 L 1336.5 51.5 L 1336.5 630.5 L 58.5 630.5 L 58.5 51.5"/></clipPath><clipPath id="HDhUvWiRRBuH"><path fill="none" stroke="none" d="M 58.5 51.5 L 1336.5 51.5 L 1336.5 630.5 L 58.5 630.5 L 58.5 51.5"/></clipPath><clipPath id="kTvkDGWNsfay"><path fill="none" stroke="none" d="M 58.5 51.5 L 1336.5 51.5 L 1336.5 630.5 L 58.5 630.5 L 58.5 51.5"/></clipPath><clipPath id="xzOguFkyOqJM"><path fill="none" stroke="none" d="M 58.5 51.5 L 1336.5 51.5 L 1336.5 630.5 L 58.5 630.5 L 58.5 51.5"/></clipPath><clipPath id="oDFuZxAMXXUU"><path fill="none" stroke="none" d="M 58.5 51.5 L 1336.5 51.5 L 1336.5 630.5 L 58.5 630.5 L 58.5 51.5"/></clipPath><clipPath id="UItTIUPTwTlz"><path fill="none" stroke="none" d="M 58.5 51.5 L 1336.5 51.5 L 1336.5 630.5 L 58.5 630.5 L 58.5 51.5"/></clipPath><clipPath id="KUblrmHQlIzE"><path fill="none" stroke="none" d="M 58.5 51.5 L 1336.5 51.5 L 1336.5 630.5 L 58.5 630.5 L 58.5 51.5"/></clipPath><clipPath id="QXukZcbaRqDg"><path fill="none" stroke="none" d="M 58.5 51.5 L 1336.5 51.5 L 1336.5 630.5 L 58.5 630.5 L 58.5 51.5"/></clipPath><clipPath id="kawcrOQubiwa"><path fill="none" stroke="none" d="M 58.5 51.5 L 1336.5 51.5 L 1336.5 630.5 L 58.5 630.5 L 58.5 51.5"/></clipPath><clipPath id="EJkfTfEklvlG"><path fill="none" stroke="none" d="M 58.5 51.5 L 1336.5 51.5 L 1336.5 630.5 L 58.5 630.5 L 58.5 51.5"/></clipPath><clipPath id="HnPNlaIUfHEM"><path fill="none" stroke="none" d="M 58.5 51.5 L 1336.5 51.5 L 1336.5 630.5 L 58.5 630.5 L 58.5 51.5"/></clipPath><clipPath id="LiwrZUEWrHkI"><path fill="none" stroke="none" d="M 58.5 51.5 L 1336.5 51.5 L 1336.5 630.5 L 58.5 630.5 L 58.5 51.5"/></clipPath><clipPath id="CrwoKoxLegnW"><path fill="none" stroke="none" d="M 58.5 51.5 L 1336.5 51.5 L 1336.5 630.5 L 58.5 630.5 L 58.5 51.5"/></clipPath><clipPath id="yUzTmfQkAJrJ"><path fill="none" stroke="none" d="M 58.5 51.5 L 1336.5 51.5 L 1336.5 630.5 L 58.5 630.5 L 58.5 51.5"/></clipPath><clipPath id="QSCdngMwSylZ"><path fill="none" stroke="none" d="M 58.5 51.5 L 1336.5 51.5 L 1336.5 630.5 L 58.5 630.5 L 58.5 51.5"/></clipPath></defs><path fill="rgb(255,255,255)" stroke="none" paint-order="stroke" d="M 0.5 0.5 L 1366.5 0.5 L 1366.5 683.5 L 0.5 683.5 L 0.5 0.5" fill-opacity="1"/><rect fill="#FFFFFF" stroke="none" x="58" y="51" width="1278" height="579" transform="matrix(1, 0, 0, 1, 0.5, 0.5)"/><path fill="rgb(255,255,255)" stroke="none" paint-order="stroke" d="M 58.5 51.5 L 1336.5 51.5 L 1336.5 630.5 L 58.5 630.5 L 58.5 51.5" fill-opacity="1"/><path fill="none" stroke="rgb(229,229,229)" paint-order="fill" d="M 58.5 51.5 L 1336.5 51.5 L 1336.5 630.5 L 58.5 630.5 L 58.5 51.5" stroke-opacity="1" stroke-linejoin="bevel" stroke-miterlimit="10" stroke-dasharray=""/><path fill="none" stroke="rgb(229,229,229)" paint-order="fill" d="M 314.5 630.5 L 314.5 51.5 M 569.5 630.5 L 569.5 51.5 M 825.5 630.5 L 825.5 51.5 M 1080.5 630.5 L 1080.5 51.5" stroke-opacity="1" stroke-linejoin="bevel" stroke-miterlimit="10" stroke-dasharray="" clip-path="url(#nVOyNVtHJXZm)"/><path fill="none" stroke="rgb(229,229,229)" paint-order="fill" d="M 58.5 551.5 L 1336.5 551.5 M 58.5 446.5 L 1336.5 446.5 M 58.5 341.5 L 1336.5 341.5 M 58.5 235.5 L 1336.5 235.5 M 58.5 130.5 L 1336.5 130.5" stroke-opacity="1" stroke-linejoin="bevel" stroke-miterlimit="10" stroke-dasharray="" clip-path="url(#gFmDnooNHTKn)"/><path fill="rgb(0,255,40)" stroke="none" paint-order="stroke" d="M 58.5 77.81818389892578 L 258.8916778564453 77.81818389892578 L 258.8916778564453 130.45454788208008 L 58.5 130.45454788208008 L 58.5 77.81818389892578" fill-opacity="1" clip-path="url(#TPTHoMAtIhKu)"/><path fill="rgb(159,255,0)" stroke="none" paint-order="stroke" d="M 258.8916931152344 77.81818389892578 L 282.30209732055664 77.81818389892578 L 282.30209732055664 130.45454788208008 L 258.8916931152344 130.45454788208008 L 258.8916931152344 77.81818389892578" fill-opacity="1" clip-path="url(#TPTHoMAtIhKu)"/><path fill="rgb(162,255,0)" stroke="none" paint-order="stroke" d="M 282.3020935058594 77.81818389892578 L 282.32254150509834 77.81818389892578 L 282.32254150509834 130.45454788208008 L 282.3020935058594 130.45454788208008 L 282.3020935058594 77.81818389892578" fill-opacity="1" clip-path="url(#TPTHoMAtIhKu)"/><path fill="rgb(172,255,0)" stroke="none" paint-order="stroke" d="M 282.3225402832031 77.81818389892578 L 282.3442662823945 77.81818389892578 L 282.3442662823945 130.45454788208008 L 282.3225402832031 130.45454788208008 L 282.3225402832031 77.81818389892578" fill-opacity="1" clip-path="url(#TPTHoMAtIhKu)"/><path fill="rgb(182,255,0)" stroke="none" paint-order="stroke" d="M 282.3442687988281 77.81818389892578 L 282.38644279912114 77.81818389892578 L 282.38644279912114 130.45454788208008 L 282.3442687988281 130.45454788208008 L 282.3442687988281 77.81818389892578" fill-opacity="1" clip-path="url(#TPTHoMAtIhKu)"/><path fill="rgb(201,255,0)" stroke="none" paint-order="stroke" d="M 282.3864440917969 77.81818389892578 L 282.4081700909883 77.81818389892578 L 282.4081700909883 130.45454788208008 L 282.3864440917969 130.45454788208008 L 282.3864440917969 77.81818389892578" fill-opacity="1" clip-path="url(#TPTHoMAtIhKu)"/><path fill="rgb(210,255,0)" stroke="none" paint-order="stroke" d="M 282.40814208984375 77.81818389892578 L 282.4720420911908 77.81818389892578 L 282.4720420911908 130.45454788208008 L 282.40814208984375 130.45454788208008 L 282.40814208984375 77.81818389892578" fill-opacity="1" clip-path="url(#TPTHoMAtIhKu)"/><path fill="rgb(219,255,0)" stroke="none" paint-order="stroke" d="M 282.4720458984375 77.81818389892578 L 282.5142198987305 77.81818389892578 L 282.5142198987305 130.45454788208008 L 282.4720458984375 130.45454788208008 L 282.4720458984375 77.81818389892578" fill-opacity="1" clip-path="url(#TPTHoMAtIhKu)"/><path fill="rgb(225,255,0)" stroke="none" paint-order="stroke" d="M 282.51422119140625 77.81818389892578 L 282.66374719142914 77.81818389892578 L 282.66374719142914 130.45454788208008 L 282.51422119140625 130.45454788208008 L 282.51422119140625 77.81818389892578" fill-opacity="1" clip-path="url(#TPTHoMAtIhKu)"/><path fill="rgb(219,255,0)" stroke="none" paint-order="stroke" d="M 282.66375732421875 77.81818389892578 L 282.6842053234577 77.81818389892578 L 282.6842053234577 130.45454788208008 L 282.66375732421875 130.45454788208008 L 282.66375732421875 77.81818389892578" fill-opacity="1" clip-path="url(#TPTHoMAtIhKu)"/><path fill="rgb(210,255,0)" stroke="none" paint-order="stroke" d="M 282.6842041015625 77.81818389892578 L 282.7059301007539 77.81818389892578 L 282.7059301007539 130.45454788208008 L 282.6842041015625 130.45454788208008 L 282.6842041015625 77.81818389892578" fill-opacity="1" clip-path="url(#TPTHoMAtIhKu)"/><path fill="rgb(191,255,0)" stroke="none" paint-order="stroke" d="M 282.7059326171875 77.81818389892578 L 282.7276586163789 77.81818389892578 L 282.7276586163789 130.45454788208008 L 282.7059326171875 130.45454788208008 L 282.7059326171875 77.81818389892578" fill-opacity="1" clip-path="url(#TPTHoMAtIhKu)"/><path fill="rgb(162,255,0)" stroke="none" paint-order="stroke" d="M 282.7276611328125 77.81818389892578 L 282.7493871320039 77.81818389892578 L 282.7493871320039 130.45454788208008 L 282.7276611328125 130.45454788208008 L 282.7276611328125 77.81818389892578" fill-opacity="1" clip-path="url(#TPTHoMAtIhKu)"/><path fill="rgb(146,255,0)" stroke="none" paint-order="stroke" d="M 282.7493896484375 77.81818389892578 L 282.76983764767647 77.81818389892578 L 282.76983764767647 130.45454788208008 L 282.7493896484375 130.45454788208008 L 282.7493896484375 77.81818389892578" fill-opacity="1" clip-path="url(#TPTHoMAtIhKu)"/><path fill="rgb(136,255,0)" stroke="none" paint-order="stroke" d="M 282.76983642578125 77.81818389892578 L 282.7902844250202 77.81818389892578 L 282.7902844250202 130.45454788208008 L 282.76983642578125 130.45454788208008 L 282.76983642578125 77.81818389892578" fill-opacity="1" clip-path="url(#TPTHoMAtIhKu)"/><path fill="rgb(115,255,0)" stroke="none" paint-order="stroke" d="M 282.790283203125 77.81818389892578 L 282.81328720226884 77.81818389892578 L 282.81328720226884 130.45454788208008 L 282.790283203125 130.45454788208008 L 282.790283203125 77.81818389892578" fill-opacity="1" clip-path="url(#TPTHoMAtIhKu)"/><path fill="rgb(104,255,0)" stroke="none" paint-order="stroke" d="M 282.81329345703125 77.81818389892578 L 282.8337414562702 77.81818389892578 L 282.8337414562702 130.45454788208008 L 282.81329345703125 130.45454788208008 L 282.81329345703125 77.81818389892578" fill-opacity="1" clip-path="url(#TPTHoMAtIhKu)"/><path fill="rgb(93,255,0)" stroke="none" paint-order="stroke" d="M 282.833740234375 77.81818389892578 L 282.8554662335664 77.81818389892578 L 282.8554662335664 130.45454788208008 L 282.833740234375 130.45454788208008 L 282.833740234375 77.81818389892578" fill-opacity="1" clip-path="url(#TPTHoMAtIhKu)"/><path fill="rgb(82,255,0)" stroke="none" paint-order="stroke" d="M 282.85546875 77.81818389892578 L 282.87847274914384 77.81818389892578 L 282.87847274914384 130.45454788208008 L 282.85546875 130.45454788208008 L 282.85546875 77.81818389892578" fill-opacity="1" clip-path="url(#TPTHoMAtIhKu)"/><path fill="rgb(74,255,0)" stroke="none" paint-order="stroke" d="M 282.8784484863281 77.81818389892578 L 282.89761848561466 77.81818389892578 L 282.89761848561466 130.45454788208008 L 282.8784484863281 130.45454788208008 L 282.8784484863281 77.81818389892578" fill-opacity="1" clip-path="url(#TPTHoMAtIhKu)"/><path fill="rgb(62,255,0)" stroke="none" paint-order="stroke" d="M 282.89764404296875 77.81818389892578 L 282.93981804326177 77.81818389892578 L 282.93981804326177 130.45454788208008 L 282.89764404296875 130.45454788208008 L 282.89764404296875 77.81818389892578" fill-opacity="1" clip-path="url(#TPTHoMAtIhKu)"/><path fill="rgb(49,255,0)" stroke="none" paint-order="stroke" d="M 282.9397888183594 77.81818389892578 L 283.00496681779623 77.81818389892578 L 283.00496681779623 130.45454788208008 L 282.9397888183594 130.45454788208008 L 282.9397888183594 77.81818389892578" fill-opacity="1" clip-path="url(#TPTHoMAtIhKu)"/><path fill="rgb(20,255,0)" stroke="none" paint-order="stroke" d="M 283.0049743652344 77.81818389892578 L 283.11104836314917 77.81818389892578 L 283.11104836314917 130.45454788208008 L 283.0049743652344 130.45454788208008 L 283.0049743652344 77.81818389892578" fill-opacity="1" clip-path="url(#TPTHoMAtIhKu)"/><path fill="rgb(0,255,0)" stroke="none" paint-order="stroke" d="M 283.1110534667969 77.81818389892578 L 283.8561274409294 77.81818389892578 L 283.8561274409294 130.45454788208008 L 283.1110534667969 130.45454788208008 L 283.1110534667969 77.81818389892578" fill-opacity="1" clip-path="url(#TPTHoMAtIhKu)"/><path fill="rgb(20,255,0)" stroke="none" paint-order="stroke" d="M 283.85614013671875 77.81818389892578 L 283.89959213510156 77.81818389892578 L 283.89959213510156 130.45454788208008 L 283.85614013671875 130.45454788208008 L 283.85614013671875 77.81818389892578" fill-opacity="1" clip-path="url(#TPTHoMAtIhKu)"/><path fill="rgb(35,255,0)" stroke="none" paint-order="stroke" d="M 283.89959716796875 77.81818389892578 L 284.0261191725731 77.81818389892578 L 284.0261191725731 130.45454788208008 L 283.89959716796875 130.45454788208008 L 283.89959716796875 77.81818389892578" fill-opacity="1" clip-path="url(#TPTHoMAtIhKu)"/><path fill="rgb(49,255,0)" stroke="none" paint-order="stroke" d="M 284.0260925292969 77.81818389892578 L 284.153892531991 77.81818389892578 L 284.153892531991 130.45454788208008 L 284.0260925292969 130.45454788208008 L 284.0260925292969 77.81818389892578" fill-opacity="1" clip-path="url(#TPTHoMAtIhKu)"/><path fill="rgb(62,255,0)" stroke="none" paint-order="stroke" d="M 284.1539001464844 77.81818389892578 L 288.1361482143402 77.81818389892578 L 288.1361482143402 130.45454788208008 L 284.1539001464844 130.45454788208008 L 284.1539001464844 77.81818389892578" fill-opacity="1" clip-path="url(#TPTHoMAtIhKu)"/><path fill="rgb(58,255,0)" stroke="none" paint-order="stroke" d="M 288.1361389160156 77.81818389892578 L 288.43007892370224 77.81818389892578 L 288.43007892370224 130.45454788208008 L 288.1361389160156 130.45454788208008 L 288.1361389160156 77.81818389892578" fill-opacity="1" clip-path="url(#TPTHoMAtIhKu)"/><path fill="rgb(53,255,0)" stroke="none" paint-order="stroke" d="M 288.4300842285156 77.81818389892578 L 326.4735870361328 77.81818389892578 L 326.4735870361328 130.45454788208008 L 288.4300842285156 130.45454788208008 L 288.4300842285156 77.81818389892578" fill-opacity="1" clip-path="url(#TPTHoMAtIhKu)"/><path fill="rgb(42,0,238)" stroke="none" paint-order="stroke" d="M 326.4736022949219 77.81818389892578 L 335.45921993255615 77.81818389892578 L 335.45921993255615 130.45454788208008 L 326.4736022949219 130.45454788208008 L 326.4736022949219 77.81818389892578" fill-opacity="1" clip-path="url(#TPTHoMAtIhKu)"/><path fill="rgb(9,0,252)" stroke="none" paint-order="stroke" d="M 335.459228515625 77.81818389892578 L 335.48223251476884 77.81818389892578 L 335.48223251476884 130.45454788208008 L 335.459228515625 130.45454788208008 L 335.459228515625 77.81818389892578" fill-opacity="1" clip-path="url(#TPTHoMAtIhKu)"/><path fill="rgb(0,40,255)" stroke="none" paint-order="stroke" d="M 335.4822082519531 77.81818389892578 L 335.5077682528645 77.81818389892578 L 335.5077682528645 130.45454788208008 L 335.4822082519531 130.45454788208008 L 335.4822082519531 77.81818389892578" fill-opacity="1" clip-path="url(#TPTHoMAtIhKu)"/><path fill="rgb(0,52,255)" stroke="none" paint-order="stroke" d="M 335.5077819824219 77.81818389892578 L 335.54484398290515 77.81818389892578 L 335.54484398290515 130.45454788208008 L 335.5077819824219 130.45454788208008 L 335.5077819824219 77.81818389892578" fill-opacity="1" clip-path="url(#TPTHoMAtIhKu)"/><path fill="rgb(0,86,255)" stroke="none" paint-order="stroke" d="M 335.5448303222656 77.81818389892578 L 335.5652783215046 77.81818389892578 L 335.5652783215046 130.45454788208008 L 335.5448303222656 130.45454788208008 L 335.5448303222656 77.81818389892578" fill-opacity="1" clip-path="url(#TPTHoMAtIhKu)"/><path fill="rgb(0,117,255)" stroke="none" paint-order="stroke" d="M 335.5652770996094 77.81818389892578 L 335.5870030988008 77.81818389892578 L 335.5870030988008 130.45454788208008 L 335.5652770996094 130.45454788208008 L 335.5652770996094 77.81818389892578" fill-opacity="1" clip-path="url(#TPTHoMAtIhKu)"/><path fill="rgb(0,132,255)" stroke="none" paint-order="stroke" d="M 335.5870056152344 77.81818389892578 L 335.60745361447334 77.81818389892578 L 335.60745361447334 130.45454788208008 L 335.5870056152344 130.45454788208008 L 335.5870056152344 77.81818389892578" fill-opacity="1" clip-path="url(#TPTHoMAtIhKu)"/><path fill="rgb(0,146,255)" stroke="none" paint-order="stroke" d="M 335.6074523925781 77.81818389892578 L 335.63045639172196 77.81818389892578 L 335.63045639172196 130.45454788208008 L 335.6074523925781 130.45454788208008 L 335.6074523925781 77.81818389892578" fill-opacity="1" clip-path="url(#TPTHoMAtIhKu)"/><path fill="rgb(0,155,255)" stroke="none" paint-order="stroke" d="M 335.6304626464844 77.81818389892578 L 335.65091064572334 77.81818389892578 L 335.65091064572334 130.45454788208008 L 335.6304626464844 130.45454788208008 L 335.6304626464844 77.81818389892578" fill-opacity="1" clip-path="url(#TPTHoMAtIhKu)"/><path fill="rgb(0,182,255)" stroke="none" paint-order="stroke" d="M 335.6509094238281 77.81818389892578 L 335.6713574230671 77.81818389892578 L 335.6713574230671 130.45454788208008 L 335.6509094238281 130.45454788208008 L 335.6509094238281 77.81818389892578" fill-opacity="1" clip-path="url(#TPTHoMAtIhKu)"/><path fill="rgb(0,196,255)" stroke="none" paint-order="stroke" d="M 335.6713562011719 77.81818389892578 L 335.6930822003633 77.81818389892578 L 335.6930822003633 130.45454788208008 L 335.6713562011719 130.45454788208008 L 335.6713562011719 77.81818389892578" fill-opacity="1" clip-path="url(#TPTHoMAtIhKu)"/><path fill="rgb(0,221,255)" stroke="none" paint-order="stroke" d="M 335.6930847167969 77.81818389892578 L 335.7148107159883 77.81818389892578 L 335.7148107159883 130.45454788208008 L 335.6930847167969 130.45454788208008 L 335.6930847167969 77.81818389892578" fill-opacity="1" clip-path="url(#TPTHoMAtIhKu)"/><path fill="rgb(0,234,255)" stroke="none" paint-order="stroke" d="M 335.7148132324219 77.81818389892578 L 335.73526123166084 77.81818389892578 L 335.73526123166084 130.45454788208008 L 335.7148132324219 130.45454788208008 L 335.7148132324219 77.81818389892578" fill-opacity="1" clip-path="url(#TPTHoMAtIhKu)"/><path fill="rgb(0,246,255)" stroke="none" paint-order="stroke" d="M 335.7352600097656 77.81818389892578 L 335.756986008957 77.81818389892578 L 335.756986008957 130.45454788208008 L 335.7352600097656 130.45454788208008 L 335.7352600097656 77.81818389892578" fill-opacity="1" clip-path="url(#TPTHoMAtIhKu)"/><path fill="rgb(0,255,223)" stroke="none" paint-order="stroke" d="M 335.7569885253906 77.81818389892578 L 335.7774365246296 77.81818389892578 L 335.7774365246296 130.45454788208008 L 335.7569885253906 130.45454788208008 L 335.7569885253906 77.81818389892578" fill-opacity="1" clip-path="url(#TPTHoMAtIhKu)"/><path fill="rgb(0,255,191)" stroke="none" paint-order="stroke" d="M 335.7774353027344 77.81818389892578 L 335.8004393018782 77.81818389892578 L 335.8004393018782 130.45454788208008 L 335.7774353027344 130.45454788208008 L 335.7774353027344 77.81818389892578" fill-opacity="1" clip-path="url(#TPTHoMAtIhKu)"/><path fill="rgb(0,255,158)" stroke="none" paint-order="stroke" d="M 335.8004455566406 77.81818389892578 L 335.8208935558796 77.81818389892578 L 335.8208935558796 130.45454788208008 L 335.8004455566406 130.45454788208008 L 335.8004455566406 77.81818389892578" fill-opacity="1" clip-path="url(#TPTHoMAtIhKu)"/><path fill="rgb(0,255,122)" stroke="none" paint-order="stroke" d="M 335.8208923339844 77.81818389892578 L 335.8426183331758 77.81818389892578 L 335.8426183331758 130.45454788208008 L 335.8208923339844 130.45454788208008 L 335.8208923339844 77.81818389892578" fill-opacity="1" clip-path="url(#TPTHoMAtIhKu)"/><path fill="rgb(0,255,84)" stroke="none" paint-order="stroke" d="M 335.8426208496094 77.81818389892578 L 335.8643468488008 77.81818389892578 L 335.8643468488008 130.45454788208008 L 335.8426208496094 130.45454788208008 L 335.8426208496094 77.81818389892578" fill-opacity="1" clip-path="url(#TPTHoMAtIhKu)"/><path fill="rgb(0,255,40)" stroke="none" paint-order="stroke" d="M 335.8643493652344 77.81818389892578 L 335.88479736447334 77.81818389892578 L 335.88479736447334 130.45454788208008 L 335.8643493652344 130.45454788208008 L 335.8643493652344 77.81818389892578" fill-opacity="1" clip-path="url(#TPTHoMAtIhKu)"/><path fill="rgb(0,255,0)" stroke="none" paint-order="stroke" d="M 335.8847961425781 77.81818389892578 L 335.9065221417695 77.81818389892578 L 335.9065221417695 130.45454788208008 L 335.8847961425781 130.45454788208008 L 335.8847961425781 77.81818389892578" fill-opacity="1" clip-path="url(#TPTHoMAtIhKu)"/><path fill="rgb(20,255,0)" stroke="none" paint-order="stroke" d="M 335.9065246582031 77.81818389892578 L 335.94869865849614 77.81818389892578 L 335.94869865849614 130.45454788208008 L 335.9065246582031 130.45454788208008 L 335.9065246582031 77.81818389892578" fill-opacity="1" clip-path="url(#TPTHoMAtIhKu)"/><path fill="rgb(35,255,0)" stroke="none" paint-order="stroke" d="M 335.9486999511719 77.81818389892578 L 336.0343259498477 77.81818389892578 L 336.0343259498477 130.45454788208008 L 335.9486999511719 130.45454788208008 L 335.9486999511719 77.81818389892578" fill-opacity="1" clip-path="url(#TPTHoMAtIhKu)"/><path fill="rgb(49,255,0)" stroke="none" paint-order="stroke" d="M 336.0343017578125 77.81818389892578 L 336.09820175915956 77.81818389892578 L 336.09820175915956 130.45454788208008 L 336.0343017578125 130.45454788208008 L 336.0343017578125 77.81818389892578" fill-opacity="1" clip-path="url(#TPTHoMAtIhKu)"/><path fill="rgb(62,255,0)" stroke="none" paint-order="stroke" d="M 336.09820556640625 77.81818389892578 L 336.11993156559765 77.81818389892578 L 336.11993156559765 130.45454788208008 L 336.09820556640625 130.45454788208008 L 336.09820556640625 77.81818389892578" fill-opacity="1" clip-path="url(#TPTHoMAtIhKu)"/><path fill="rgb(74,255,0)" stroke="none" paint-order="stroke" d="M 336.11993408203125 77.81818389892578 L 336.16210808232427 77.81818389892578 L 336.16210808232427 130.45454788208008 L 336.11993408203125 130.45454788208008 L 336.11993408203125 77.81818389892578" fill-opacity="1" clip-path="url(#TPTHoMAtIhKu)"/><path fill="rgb(86,255,0)" stroke="none" paint-order="stroke" d="M 336.162109375 77.81818389892578 L 336.3116353750229 77.81818389892578 L 336.3116353750229 130.45454788208008 L 336.162109375 130.45454788208008 L 336.162109375 77.81818389892578" fill-opacity="1" clip-path="url(#TPTHoMAtIhKu)"/><path fill="rgb(97,255,0)" stroke="none" paint-order="stroke" d="M 336.3116455078125 77.81818389892578 L 337.0145455002785 77.81818389892578 L 337.0145455002785 130.45454788208008 L 336.3116455078125 130.45454788208008 L 336.3116455078125 77.81818389892578" fill-opacity="1" clip-path="url(#TPTHoMAtIhKu)"/><path fill="rgb(86,255,0)" stroke="none" paint-order="stroke" d="M 337.0145263671875 77.81818389892578 L 337.0579783655703 77.81818389892578 L 337.0579783655703 130.45454788208008 L 337.0145263671875 130.45454788208008 L 337.0145263671875 77.81818389892578" fill-opacity="1" clip-path="url(#TPTHoMAtIhKu)"/><path fill="rgb(74,255,0)" stroke="none" paint-order="stroke" d="M 337.0579833984375 77.81818389892578 L 337.1193273998797 77.81818389892578 L 337.1193273998797 130.45454788208008 L 337.0579833984375 130.45454788208008 L 337.0579833984375 77.81818389892578" fill-opacity="1" clip-path="url(#TPTHoMAtIhKu)"/><path fill="rgb(62,255,0)" stroke="none" paint-order="stroke" d="M 337.11932373046875 77.81818389892578 L 337.2905757278204 77.81818389892578 L 337.2905757278204 130.45454788208008 L 337.11932373046875 130.45454788208008 L 337.11932373046875 77.81818389892578" fill-opacity="1" clip-path="url(#TPTHoMAtIhKu)"/><path fill="rgb(49,255,0)" stroke="none" paint-order="stroke" d="M 337.29058837890625 77.81818389892578 L 339.8989863395691 77.81818389892578 L 339.8989863395691 130.45454788208008 L 337.29058837890625 130.45454788208008 L 337.29058837890625 77.81818389892578" fill-opacity="1" clip-path="url(#TPTHoMAtIhKu)"/><path fill="rgb(53,255,0)" stroke="none" paint-order="stroke" d="M 339.89898681640625 77.81818389892578 L 380.2019958496094 77.81818389892578 L 380.2019958496094 130.45454788208008 L 339.89898681640625 130.45454788208008 L 339.89898681640625 77.81818389892578" fill-opacity="1" clip-path="url(#TPTHoMAtIhKu)"/><path fill="rgb(159,255,0)" stroke="none" paint-order="stroke" d="M 380.2019958496094 77.81818389892578 L 384.2711477279663 77.81818389892578 L 384.2711477279663 130.45454788208008 L 380.2019958496094 130.45454788208008 L 380.2019958496094 77.81818389892578" fill-opacity="1" clip-path="url(#TPTHoMAtIhKu)"/><path fill="rgb(156,255,0)" stroke="none" paint-order="stroke" d="M 384.2711486816406 77.81818389892578 L 384.39894868433475 77.81818389892578 L 384.39894868433475 130.45454788208008 L 384.2711486816406 130.45454788208008 L 384.2711486816406 77.81818389892578" fill-opacity="1" clip-path="url(#TPTHoMAtIhKu)"/><path fill="rgb(153,255,0)" stroke="none" paint-order="stroke" d="M 384.3989562988281 77.81818389892578 L 384.52675630152225 77.81818389892578 L 384.52675630152225 130.45454788208008 L 384.3989562988281 130.45454788208008 L 384.3989562988281 77.81818389892578" fill-opacity="1" clip-path="url(#TPTHoMAtIhKu)"/><path fill="rgb(149,255,0)" stroke="none" paint-order="stroke" d="M 384.5267333984375 77.81818389892578 L 384.65453340113163 77.81818389892578 L 384.65453340113163 130.45454788208008 L 384.5267333984375 130.45454788208008 L 384.5267333984375 77.81818389892578" fill-opacity="1" clip-path="url(#TPTHoMAtIhKu)"/><path fill="rgb(146,255,0)" stroke="none" paint-order="stroke" d="M 384.654541015625 77.81818389892578 L 384.78234101831913 77.81818389892578 L 384.78234101831913 130.45454788208008 L 384.654541015625 130.45454788208008 L 384.654541015625 77.81818389892578" fill-opacity="1" clip-path="url(#TPTHoMAtIhKu)"/><path fill="rgb(143,255,0)" stroke="none" paint-order="stroke" d="M 384.7823486328125 77.81818389892578 L 384.91014863550663 77.81818389892578 L 384.91014863550663 130.45454788208008 L 384.7823486328125 130.45454788208008 L 384.7823486328125 77.81818389892578" fill-opacity="1" clip-path="url(#TPTHoMAtIhKu)"/><path fill="rgb(139,255,0)" stroke="none" paint-order="stroke" d="M 384.91015625 77.81818389892578 L 385.03795625269413 77.81818389892578 L 385.03795625269413 130.45454788208008 L 384.91015625 130.45454788208008 L 384.91015625 77.81818389892578" fill-opacity="1" clip-path="url(#TPTHoMAtIhKu)"/><path fill="rgb(136,255,0)" stroke="none" paint-order="stroke" d="M 385.0379333496094 77.81818389892578 L 385.1657333523035 77.81818389892578 L 385.1657333523035 130.45454788208008 L 385.0379333496094 130.45454788208008 L 385.0379333496094 77.81818389892578" fill-opacity="1" clip-path="url(#TPTHoMAtIhKu)"/><path fill="rgb(132,255,0)" stroke="none" paint-order="stroke" d="M 385.1657409667969 77.81818389892578 L 385.293540969491 77.81818389892578 L 385.293540969491 130.45454788208008 L 385.1657409667969 130.45454788208008 L 385.1657409667969 77.81818389892578" fill-opacity="1" clip-path="url(#TPTHoMAtIhKu)"/><path fill="rgb(129,255,0)" stroke="none" paint-order="stroke" d="M 385.2935485839844 77.81818389892578 L 385.44307458400726 77.81818389892578 L 385.44307458400726 130.45454788208008 L 385.2935485839844 130.45454788208008 L 385.2935485839844 77.81818389892578" fill-opacity="1" clip-path="url(#TPTHoMAtIhKu)"/><path fill="rgb(126,255,0)" stroke="none" paint-order="stroke" d="M 385.4430847167969 77.81818389892578 L 385.54915871471167 77.81818389892578 L 385.54915871471167 130.45454788208008 L 385.4430847167969 130.45454788208008 L 385.4430847167969 77.81818389892578" fill-opacity="1" clip-path="url(#TPTHoMAtIhKu)"/><path fill="rgb(122,255,0)" stroke="none" paint-order="stroke" d="M 385.54913330078125 77.81818389892578 L 385.69865930080414 77.81818389892578 L 385.69865930080414 130.45454788208008 L 385.54913330078125 130.45454788208008 L 385.54913330078125 77.81818389892578" fill-opacity="1" clip-path="url(#TPTHoMAtIhKu)"/><path fill="rgb(119,255,0)" stroke="none" paint-order="stroke" d="M 385.69866943359375 77.81818389892578 L 385.80474343150854 77.81818389892578 L 385.80474343150854 130.45454788208008 L 385.69866943359375 130.45454788208008 L 385.69866943359375 77.81818389892578" fill-opacity="1" clip-path="url(#TPTHoMAtIhKu)"/><path fill="rgb(115,255,0)" stroke="none" paint-order="stroke" d="M 385.80474853515625 77.81818389892578 L 385.9325485378504 77.81818389892578 L 385.9325485378504 130.45454788208008 L 385.80474853515625 130.45454788208008 L 385.80474853515625 77.81818389892578" fill-opacity="1" clip-path="url(#TPTHoMAtIhKu)"/><path fill="rgb(111,255,0)" stroke="none" paint-order="stroke" d="M 385.93255615234375 77.81818389892578 L 386.0603561550379 77.81818389892578 L 386.0603561550379 130.45454788208008 L 385.93255615234375 130.45454788208008 L 385.93255615234375 77.81818389892578" fill-opacity="1" clip-path="url(#TPTHoMAtIhKu)"/><path fill="rgb(108,255,0)" stroke="none" paint-order="stroke" d="M 386.0603332519531 77.81818389892578 L 386.18813325464725 77.81818389892578 L 386.18813325464725 130.45454788208008 L 386.0603332519531 130.45454788208008 L 386.0603332519531 77.81818389892578" fill-opacity="1" clip-path="url(#TPTHoMAtIhKu)"/><path fill="rgb(104,255,0)" stroke="none" paint-order="stroke" d="M 386.1881408691406 77.81818389892578 L 386.3376668691635 77.81818389892578 L 386.3376668691635 130.45454788208008 L 386.1881408691406 130.45454788208008 L 386.1881408691406 77.81818389892578" fill-opacity="1" clip-path="url(#TPTHoMAtIhKu)"/><path fill="rgb(101,255,0)" stroke="none" paint-order="stroke" d="M 386.3376770019531 77.81818389892578 L 386.4437509998679 77.81818389892578 L 386.4437509998679 130.45454788208008 L 386.3376770019531 130.45454788208008 L 386.3376770019531 77.81818389892578" fill-opacity="1" clip-path="url(#TPTHoMAtIhKu)"/><path fill="rgb(97,255,0)" stroke="none" paint-order="stroke" d="M 386.4437561035156 77.81818389892578 L 386.57155610620975 77.81818389892578 L 386.57155610620975 130.45454788208008 L 386.4437561035156 130.45454788208008 L 386.4437561035156 77.81818389892578" fill-opacity="1" clip-path="url(#TPTHoMAtIhKu)"/><path fill="rgb(93,255,0)" stroke="none" paint-order="stroke" d="M 386.571533203125 77.81818389892578 L 386.69933320581913 77.81818389892578 L 386.69933320581913 130.45454788208008 L 386.571533203125 130.45454788208008 L 386.571533203125 77.81818389892578" fill-opacity="1" clip-path="url(#TPTHoMAtIhKu)"/><path fill="rgb(89,255,0)" stroke="none" paint-order="stroke" d="M 386.6993408203125 77.81818389892578 L 386.82714082300663 77.81818389892578 L 386.82714082300663 130.45454788208008 L 386.6993408203125 130.45454788208008 L 386.6993408203125 77.81818389892578" fill-opacity="1" clip-path="url(#TPTHoMAtIhKu)"/><path fill="rgb(86,255,0)" stroke="none" paint-order="stroke" d="M 386.8271484375 77.81818389892578 L 386.95494844019413 77.81818389892578 L 386.95494844019413 130.45454788208008 L 386.8271484375 130.45454788208008 L 386.8271484375 77.81818389892578" fill-opacity="1" clip-path="url(#TPTHoMAtIhKu)"/><path fill="rgb(82,255,0)" stroke="none" paint-order="stroke" d="M 386.9549560546875 77.81818389892578 L 387.08275605738163 77.81818389892578 L 387.08275605738163 130.45454788208008 L 386.9549560546875 130.45454788208008 L 386.9549560546875 77.81818389892578" fill-opacity="1" clip-path="url(#TPTHoMAtIhKu)"/><path fill="rgb(78,255,0)" stroke="none" paint-order="stroke" d="M 387.0827331542969 77.81818389892578 L 387.210533156991 77.81818389892578 L 387.210533156991 130.45454788208008 L 387.0827331542969 130.45454788208008 L 387.0827331542969 77.81818389892578" fill-opacity="1" clip-path="url(#TPTHoMAtIhKu)"/><path fill="rgb(74,255,0)" stroke="none" paint-order="stroke" d="M 387.2105407714844 77.81818389892578 L 387.7703047990799 77.81818389892578 L 387.7703047990799 130.45454788208008 L 387.2105407714844 130.45454788208008 L 387.2105407714844 77.81818389892578" fill-opacity="1" clip-path="url(#TPTHoMAtIhKu)"/><path fill="rgb(70,255,0)" stroke="none" paint-order="stroke" d="M 387.77032470703125 77.81818389892578 L 388.1486127078533 77.81818389892578 L 388.1486127078533 130.45454788208008 L 387.77032470703125 130.45454788208008 L 387.77032470703125 77.81818389892578" fill-opacity="1" clip-path="url(#TPTHoMAtIhKu)"/><path fill="rgb(66,255,0)" stroke="none" paint-order="stroke" d="M 388.1485900878906 77.81818389892578 L 388.3875760883093 77.81818389892578 L 388.3875760883093 130.45454788208008 L 388.1485900878906 130.45454788208008 L 388.1485900878906 77.81818389892578" fill-opacity="1" clip-path="url(#TPTHoMAtIhKu)"/><path fill="rgb(62,255,0)" stroke="none" paint-order="stroke" d="M 388.3875732421875 77.81818389892578 L 388.6252812445164 77.81818389892578 L 388.6252812445164 130.45454788208008 L 388.3875732421875 130.45454788208008 L 388.3875732421875 77.81818389892578" fill-opacity="1" clip-path="url(#TPTHoMAtIhKu)"/><path fill="rgb(58,255,0)" stroke="none" paint-order="stroke" d="M 388.62530517578125 77.81818389892578 L 388.9205231666565 77.81818389892578 L 388.9205231666565 130.45454788208008 L 388.62530517578125 130.45454788208008 L 388.62530517578125 77.81818389892578" fill-opacity="1" clip-path="url(#TPTHoMAtIhKu)"/><path fill="rgb(53,255,0)" stroke="none" paint-order="stroke" d="M 388.9205017089844 77.81818389892578 L 525.8045196533203 77.81818389892578 L 525.8045196533203 130.45454788208008 L 388.9205017089844 130.45454788208008 L 388.9205017089844 77.81818389892578" fill-opacity="1" clip-path="url(#TPTHoMAtIhKu)"/><path fill="rgb(42,0,238)" stroke="none" paint-order="stroke" d="M 525.8045043945312 77.81818389892578 L 528.0921244621277 77.81818389892578 L 528.0921244621277 130.45454788208008 L 525.8045043945312 130.45454788208008 L 525.8045043945312 77.81818389892578" fill-opacity="1" clip-path="url(#TPTHoMAtIhKu)"/><path fill="rgb(0,19,255)" stroke="none" paint-order="stroke" d="M 528.0921630859375 77.81818389892578 L 528.1138890851289 77.81818389892578 L 528.1138890851289 130.45454788208008 L 528.0921630859375 130.45454788208008 L 528.0921630859375 77.81818389892578" fill-opacity="1" clip-path="url(#TPTHoMAtIhKu)"/><path fill="rgb(0,40,255)" stroke="none" paint-order="stroke" d="M 528.1138916015625 77.81818389892578 L 528.1356176007539 77.81818389892578 L 528.1356176007539 130.45454788208008 L 528.1138916015625 130.45454788208008 L 528.1138916015625 77.81818389892578" fill-opacity="1" clip-path="url(#TPTHoMAtIhKu)"/><path fill="rgb(0,52,255)" stroke="none" paint-order="stroke" d="M 528.1356201171875 77.81818389892578 L 528.1573461163789 77.81818389892578 L 528.1573461163789 130.45454788208008 L 528.1356201171875 130.45454788208008 L 528.1356201171875 77.81818389892578" fill-opacity="1" clip-path="url(#TPTHoMAtIhKu)"/><path fill="rgb(0,70,255)" stroke="none" paint-order="stroke" d="M 528.1573486328125 77.81818389892578 L 528.1995226331055 77.81818389892578 L 528.1995226331055 130.45454788208008 L 528.1573486328125 130.45454788208008 L 528.1573486328125 77.81818389892578" fill-opacity="1" clip-path="url(#TPTHoMAtIhKu)"/><path fill="rgb(0,86,255)" stroke="none" paint-order="stroke" d="M 528.1995239257812 77.81818389892578 L 528.2212499249727 77.81818389892578 L 528.2212499249727 130.45454788208008 L 528.1995239257812 130.45454788208008 L 528.1995239257812 77.81818389892578" fill-opacity="1" clip-path="url(#TPTHoMAtIhKu)"/><path fill="rgb(0,102,255)" stroke="none" paint-order="stroke" d="M 528.2212524414062 77.81818389892578 L 528.2417004406452 77.81818389892578 L 528.2417004406452 130.45454788208008 L 528.2212524414062 130.45454788208008 L 528.2212524414062 77.81818389892578" fill-opacity="1" clip-path="url(#TPTHoMAtIhKu)"/><path fill="rgb(0,117,255)" stroke="none" paint-order="stroke" d="M 528.24169921875 77.81818389892578 L 528.2634252179414 77.81818389892578 L 528.2634252179414 130.45454788208008 L 528.24169921875 130.45454788208008 L 528.24169921875 77.81818389892578" fill-opacity="1" clip-path="url(#TPTHoMAtIhKu)"/><path fill="rgb(0,132,255)" stroke="none" paint-order="stroke" d="M 528.263427734375 77.81818389892578 L 528.305601734668 77.81818389892578 L 528.305601734668 130.45454788208008 L 528.263427734375 130.45454788208008 L 528.263427734375 77.81818389892578" fill-opacity="1" clip-path="url(#TPTHoMAtIhKu)"/><path fill="rgb(0,146,255)" stroke="none" paint-order="stroke" d="M 528.3056030273438 77.81818389892578 L 528.3912290260196 77.81818389892578 L 528.3912290260196 130.45454788208008 L 528.3056030273438 130.45454788208008 L 528.3056030273438 77.81818389892578" fill-opacity="1" clip-path="url(#TPTHoMAtIhKu)"/><path fill="rgb(0,155,255)" stroke="none" paint-order="stroke" d="M 528.3912353515625 77.81818389892578 L 528.4334093518555 77.81818389892578 L 528.4334093518555 130.45454788208008 L 528.3912353515625 130.45454788208008 L 528.3912353515625 77.81818389892578" fill-opacity="1" clip-path="url(#TPTHoMAtIhKu)"/><path fill="rgb(0,169,255)" stroke="none" paint-order="stroke" d="M 528.433349609375 77.81818389892578 L 528.475523609668 77.81818389892578 L 528.475523609668 130.45454788208008 L 528.433349609375 130.45454788208008 L 528.433349609375 77.81818389892578" fill-opacity="1" clip-path="url(#TPTHoMAtIhKu)"/><path fill="rgb(0,182,255)" stroke="none" paint-order="stroke" d="M 528.4755249023438 77.81818389892578 L 528.4972509015352 77.81818389892578 L 528.4972509015352 130.45454788208008 L 528.4755249023438 130.45454788208008 L 528.4755249023438 77.81818389892578" fill-opacity="1" clip-path="url(#TPTHoMAtIhKu)"/><path fill="rgb(0,196,255)" stroke="none" paint-order="stroke" d="M 528.4972534179688 77.81818389892578 L 528.5828794166446 77.81818389892578 L 528.5828794166446 130.45454788208008 L 528.4972534179688 130.45454788208008 L 528.4972534179688 77.81818389892578" fill-opacity="1" clip-path="url(#TPTHoMAtIhKu)"/><path fill="rgb(0,209,255)" stroke="none" paint-order="stroke" d="M 528.5828857421875 77.81818389892578 L 528.6902377456427 77.81818389892578 L 528.6902377456427 130.45454788208008 L 528.5828857421875 130.45454788208008 L 528.5828857421875 77.81818389892578" fill-opacity="1" clip-path="url(#TPTHoMAtIhKu)"/><path fill="rgb(0,221,255)" stroke="none" paint-order="stroke" d="M 528.6902465820312 77.81818389892578 L 528.7119725812227 77.81818389892578 L 528.7119725812227 130.45454788208008 L 528.6902465820312 130.45454788208008 L 528.6902465820312 77.81818389892578" fill-opacity="1" clip-path="url(#TPTHoMAtIhKu)"/><path fill="rgb(0,234,255)" stroke="none" paint-order="stroke" d="M 528.7119750976562 77.81818389892578 L 528.8193271011114 77.81818389892578 L 528.8193271011114 130.45454788208008 L 528.7119750976562 130.45454788208008 L 528.7119750976562 77.81818389892578" fill-opacity="1" clip-path="url(#TPTHoMAtIhKu)"/><path fill="rgb(0,246,255)" stroke="none" paint-order="stroke" d="M 528.8193359375 77.81818389892578 L 528.861509937793 77.81818389892578 L 528.861509937793 130.45454788208008 L 528.8193359375 130.45454788208008 L 528.8193359375 77.81818389892578" fill-opacity="1" clip-path="url(#TPTHoMAtIhKu)"/><path fill="rgb(0,255,255)" stroke="none" paint-order="stroke" d="M 528.8615112304688 77.81818389892578 L 528.9254112318158 77.81818389892578 L 528.9254112318158 130.45454788208008 L 528.8615112304688 130.45454788208008 L 528.8615112304688 77.81818389892578" fill-opacity="1" clip-path="url(#TPTHoMAtIhKu)"/><path fill="rgb(0,255,223)" stroke="none" paint-order="stroke" d="M 528.9254150390625 77.81818389892578 L 528.9880370423198 77.81818389892578 L 528.9880370423198 130.45454788208008 L 528.9254150390625 130.45454788208008 L 528.9254150390625 77.81818389892578" fill-opacity="1" clip-path="url(#TPTHoMAtIhKu)"/><path fill="rgb(0,255,191)" stroke="none" paint-order="stroke" d="M 528.988037109375 77.81818389892578 L 529.0327671095729 77.81818389892578 L 529.0327671095729 130.45454788208008 L 528.988037109375 130.45454788208008 L 528.988037109375 77.81818389892578" fill-opacity="1" clip-path="url(#TPTHoMAtIhKu)"/><path fill="rgb(0,255,158)" stroke="none" paint-order="stroke" d="M 529.0327758789062 77.81818389892578 L 529.0749498791993 77.81818389892578 L 529.0749498791993 130.45454788208008 L 529.0327758789062 130.45454788208008 L 529.0327758789062 77.81818389892578" fill-opacity="1" clip-path="url(#TPTHoMAtIhKu)"/><path fill="rgb(0,255,122)" stroke="none" paint-order="stroke" d="M 529.074951171875 77.81818389892578 L 529.0966771710664 77.81818389892578 L 529.0966771710664 130.45454788208008 L 529.074951171875 130.45454788208008 L 529.074951171875 77.81818389892578" fill-opacity="1" clip-path="url(#TPTHoMAtIhKu)"/><path fill="rgb(0,255,84)" stroke="none" paint-order="stroke" d="M 529.0966796875 77.81818389892578 L 529.1375756859779 77.81818389892578 L 529.1375756859779 130.45454788208008 L 529.0966796875 130.45454788208008 L 529.0966796875 77.81818389892578" fill-opacity="1" clip-path="url(#TPTHoMAtIhKu)"/><path fill="rgb(0,255,40)" stroke="none" paint-order="stroke" d="M 529.1375732421875 77.81818389892578 L 529.1835812404752 77.81818389892578 L 529.1835812404752 130.45454788208008 L 529.1375732421875 130.45454788208008 L 529.1375732421875 77.81818389892578" fill-opacity="1" clip-path="url(#TPTHoMAtIhKu)"/><path fill="rgb(0,255,0)" stroke="none" paint-order="stroke" d="M 529.18359375 77.81818389892578 L 529.2436597496271 77.81818389892578 L 529.2436597496271 130.45454788208008 L 529.18359375 130.45454788208008 L 529.18359375 77.81818389892578" fill-opacity="1" clip-path="url(#TPTHoMAtIhKu)"/><path fill="rgb(20,255,0)" stroke="none" paint-order="stroke" d="M 529.24365234375 77.81818389892578 L 529.285826344043 77.81818389892578 L 529.285826344043 130.45454788208008 L 529.24365234375 130.45454788208008 L 529.24365234375 77.81818389892578" fill-opacity="1" clip-path="url(#TPTHoMAtIhKu)"/><path fill="rgb(35,255,0)" stroke="none" paint-order="stroke" d="M 529.2858276367188 77.81818389892578 L 529.3931796401739 77.81818389892578 L 529.3931796401739 130.45454788208008 L 529.2858276367188 130.45454788208008 L 529.2858276367188 77.81818389892578" fill-opacity="1" clip-path="url(#TPTHoMAtIhKu)"/><path fill="rgb(49,255,0)" stroke="none" paint-order="stroke" d="M 529.3931884765625 77.81818389892578 L 529.4992624744773 77.81818389892578 L 529.4992624744773 130.45454788208008 L 529.3931884765625 130.45454788208008 L 529.3931884765625 77.81818389892578" fill-opacity="1" clip-path="url(#TPTHoMAtIhKu)"/><path fill="rgb(62,255,0)" stroke="none" paint-order="stroke" d="M 529.4992065429688 77.81818389892578 L 529.5426585413516 77.81818389892578 L 529.5426585413516 130.45454788208008 L 529.4992065429688 130.45454788208008 L 529.4992065429688 77.81818389892578" fill-opacity="1" clip-path="url(#TPTHoMAtIhKu)"/><path fill="rgb(74,255,0)" stroke="none" paint-order="stroke" d="M 529.5426635742188 77.81818389892578 L 529.5848375745118 77.81818389892578 L 529.5848375745118 130.45454788208008 L 529.5426635742188 130.45454788208008 L 529.5426635742188 77.81818389892578" fill-opacity="1" clip-path="url(#TPTHoMAtIhKu)"/><path fill="rgb(86,255,0)" stroke="none" paint-order="stroke" d="M 529.5848388671875 77.81818389892578 L 529.6909128651023 77.81818389892578 L 529.6909128651023 130.45454788208008 L 529.5848388671875 130.45454788208008 L 529.5848388671875 77.81818389892578" fill-opacity="1" clip-path="url(#TPTHoMAtIhKu)"/><path fill="rgb(97,255,0)" stroke="none" paint-order="stroke" d="M 529.69091796875 77.81818389892578 L 530.0321439802647 77.81818389892578 L 530.0321439802647 130.45454788208008 L 529.69091796875 130.45454788208008 L 529.69091796875 77.81818389892578" fill-opacity="1" clip-path="url(#TPTHoMAtIhKu)"/><path fill="rgb(86,255,0)" stroke="none" paint-order="stroke" d="M 530.0321655273438 77.81818389892578 L 530.0756175257266 77.81818389892578 L 530.0756175257266 130.45454788208008 L 530.0321655273438 130.45454788208008 L 530.0321655273438 77.81818389892578" fill-opacity="1" clip-path="url(#TPTHoMAtIhKu)"/><path fill="rgb(74,255,0)" stroke="none" paint-order="stroke" d="M 530.0756225585938 77.81818389892578 L 530.2443185597658 77.81818389892578 L 530.2443185597658 130.45454788208008 L 530.0756225585938 130.45454788208008 L 530.0756225585938 77.81818389892578" fill-opacity="1" clip-path="url(#TPTHoMAtIhKu)"/><path fill="rgb(62,255,0)" stroke="none" paint-order="stroke" d="M 530.2443237304688 77.81818389892578 L 530.3312277272344 77.81818389892578 L 530.3312277272344 130.45454788208008 L 530.2443237304688 130.45454788208008 L 530.2443237304688 77.81818389892578" fill-opacity="1" clip-path="url(#TPTHoMAtIhKu)"/><path fill="rgb(49,255,0)" stroke="none" paint-order="stroke" d="M 530.3312377929688 77.81818389892578 L 530.4155857935548 77.81818389892578 L 530.4155857935548 130.45454788208008 L 530.3312377929688 130.45454788208008 L 530.3312377929688 77.81818389892578" fill-opacity="1" clip-path="url(#TPTHoMAtIhKu)"/><path fill="rgb(35,255,0)" stroke="none" paint-order="stroke" d="M 530.4155883789062 77.81818389892578 L 530.459040377289 77.81818389892578 L 530.459040377289 130.45454788208008 L 530.4155883789062 130.45454788208008 L 530.4155883789062 77.81818389892578" fill-opacity="1" clip-path="url(#TPTHoMAtIhKu)"/><path fill="rgb(20,255,0)" stroke="none" paint-order="stroke" d="M 530.458984375 77.81818389892578 L 530.5650583729148 77.81818389892578 L 530.5650583729148 130.45454788208008 L 530.458984375 130.45454788208008 L 530.458984375 77.81818389892578" fill-opacity="1" clip-path="url(#TPTHoMAtIhKu)"/><path fill="rgb(0,255,0)" stroke="none" paint-order="stroke" d="M 530.5650634765625 77.81818389892578 L 530.6072374768555 77.81818389892578 L 530.6072374768555 130.45454788208008 L 530.5650634765625 130.45454788208008 L 530.5650634765625 77.81818389892578" fill-opacity="1" clip-path="url(#TPTHoMAtIhKu)"/><path fill="rgb(0,255,40)" stroke="none" paint-order="stroke" d="M 530.6072387695312 77.81818389892578 L 530.6928647682071 77.81818389892578 L 530.6928647682071 130.45454788208008 L 530.6072387695312 130.45454788208008 L 530.6072387695312 77.81818389892578" fill-opacity="1" clip-path="url(#TPTHoMAtIhKu)"/><path fill="rgb(0,255,84)" stroke="none" paint-order="stroke" d="M 530.69287109375 77.81818389892578 L 531.2449671030045 77.81818389892578 L 531.2449671030045 130.45454788208008 L 530.69287109375 130.45454788208008 L 530.69287109375 77.81818389892578" fill-opacity="1" clip-path="url(#TPTHoMAtIhKu)"/><path fill="rgb(0,255,40)" stroke="none" paint-order="stroke" d="M 531.2449951171875 77.81818389892578 L 531.3293431177735 77.81818389892578 L 531.3293431177735 130.45454788208008 L 531.2449951171875 130.45454788208008 L 531.2449951171875 77.81818389892578" fill-opacity="1" clip-path="url(#TPTHoMAtIhKu)"/><path fill="rgb(0,255,0)" stroke="none" paint-order="stroke" d="M 531.329345703125 77.81818389892578 L 531.9466196894646 77.81818389892578 L 531.9466196894646 130.45454788208008 L 531.329345703125 130.45454788208008 L 531.329345703125 77.81818389892578" fill-opacity="1" clip-path="url(#TPTHoMAtIhKu)"/><path fill="rgb(20,255,0)" stroke="none" paint-order="stroke" d="M 531.9465942382812 77.81818389892578 L 531.990046236664 77.81818389892578 L 531.990046236664 130.45454788208008 L 531.9465942382812 130.45454788208008 L 531.9465942382812 77.81818389892578" fill-opacity="1" clip-path="url(#TPTHoMAtIhKu)"/><path fill="rgb(35,255,0)" stroke="none" paint-order="stroke" d="M 531.9900512695312 77.81818389892578 L 532.096125267446 77.81818389892578 L 532.096125267446 130.45454788208008 L 531.9900512695312 130.45454788208008 L 531.9900512695312 77.81818389892578" fill-opacity="1" clip-path="url(#TPTHoMAtIhKu)"/><path fill="rgb(49,255,0)" stroke="none" paint-order="stroke" d="M 532.0961303710938 77.81818389892578 L 532.1817563697696 77.81818389892578 L 532.1817563697696 130.45454788208008 L 532.0961303710938 130.45454788208008 L 532.0961303710938 77.81818389892578" fill-opacity="1" clip-path="url(#TPTHoMAtIhKu)"/><path fill="rgb(62,255,0)" stroke="none" paint-order="stroke" d="M 532.1817626953125 77.81818389892578 L 532.2878366932273 77.81818389892578 L 532.2878366932273 130.45454788208008 L 532.1817626953125 130.45454788208008 L 532.1817626953125 77.81818389892578" fill-opacity="1" clip-path="url(#TPTHoMAtIhKu)"/><path fill="rgb(74,255,0)" stroke="none" paint-order="stroke" d="M 532.287841796875 77.81818389892578 L 533.956909775734 77.81818389892578 L 533.956909775734 130.45454788208008 L 532.287841796875 130.45454788208008 L 532.287841796875 77.81818389892578" fill-opacity="1" clip-path="url(#TPTHoMAtIhKu)"/><path fill="rgb(70,255,0)" stroke="none" paint-order="stroke" d="M 533.9569091796875 77.81818389892578 L 534.1549991816282 77.81818389892578 L 534.1549991816282 130.45454788208008 L 533.9569091796875 130.45454788208008 L 533.9569091796875 77.81818389892578" fill-opacity="1" clip-path="url(#TPTHoMAtIhKu)"/><path fill="rgb(66,255,0)" stroke="none" paint-order="stroke" d="M 534.1549682617188 77.81818389892578 L 534.3568922579288 77.81818389892578 L 534.3568922579288 130.45454788208008 L 534.1549682617188 130.45454788208008 L 534.1549682617188 77.81818389892578" fill-opacity="1" clip-path="url(#TPTHoMAtIhKu)"/><path fill="rgb(62,255,0)" stroke="none" paint-order="stroke" d="M 534.35693359375 77.81818389892578 L 534.5575795918703 77.81818389892578 L 534.5575795918703 130.45454788208008 L 534.35693359375 130.45454788208008 L 534.35693359375 77.81818389892578" fill-opacity="1" clip-path="url(#TPTHoMAtIhKu)"/><path fill="rgb(58,255,0)" stroke="none" paint-order="stroke" d="M 534.5575561523438 77.81818389892578 L 534.7978201508522 77.81818389892578 L 534.7978201508522 130.45454788208008 L 534.5575561523438 130.45454788208008 L 534.5575561523438 77.81818389892578" fill-opacity="1" clip-path="url(#TPTHoMAtIhKu)"/><path fill="rgb(53,255,0)" stroke="none" paint-order="stroke" d="M 534.7977905273438 77.81818389892578 L 596.8523597717285 77.81818389892578 L 596.8523597717285 130.45454788208008 L 534.7977905273438 130.45454788208008 L 534.7977905273438 77.81818389892578" fill-opacity="1" clip-path="url(#TPTHoMAtIhKu)"/><path fill="rgb(251,0,7)" stroke="none" paint-order="stroke" d="M 58.5 130.4545440673828 L 258.8916778564453 130.4545440673828 L 258.8916778564453 183.0909080505371 L 58.5 183.0909080505371 L 58.5 130.4545440673828" fill-opacity="1" clip-path="url(#xKmOquTPTcUZ)"/><path fill="rgb(251,0,7)" stroke="none" paint-order="stroke" d="M 258.8916931152344 130.4545440673828 L 326.4736099243164 130.4545440673828 L 326.4736099243164 183.0909080505371 L 258.8916931152344 183.0909080505371 L 258.8916931152344 130.4545440673828" fill-opacity="1" clip-path="url(#xKmOquTPTcUZ)"/><path fill="rgb(56,126,34)" stroke="none" paint-order="stroke" d="M 326.4736022949219 130.4545440673828 L 380.20199966430664 130.4545440673828 L 380.20199966430664 183.0909080505371 L 326.4736022949219 183.0909080505371 L 326.4736022949219 130.4545440673828" fill-opacity="1" clip-path="url(#xKmOquTPTcUZ)"/><path fill="rgb(251,0,7)" stroke="none" paint-order="stroke" d="M 380.2019958496094 130.4545440673828 L 525.8045349121094 130.4545440673828 L 525.8045349121094 183.0909080505371 L 380.2019958496094 183.0909080505371 L 380.2019958496094 130.4545440673828" fill-opacity="1" clip-path="url(#xKmOquTPTcUZ)"/><path fill="rgb(56,126,34)" stroke="none" paint-order="stroke" d="M 525.8045043945312 130.4545440673828 L 596.8523559570312 130.4545440673828 L 596.8523559570312 183.0909080505371 L 525.8045043945312 183.0909080505371 L 525.8045043945312 130.4545440673828" fill-opacity="1" clip-path="url(#xKmOquTPTcUZ)"/><path fill="rgb(105,29,48)" stroke="none" paint-order="stroke" d="M 289.7489929199219 183.09091186523438 L 289.81289292126894 183.09091186523438 L 289.81289292126894 498.9090881347656 L 289.7489929199219 498.9090881347656 L 289.7489929199219 183.09091186523438" fill-opacity="1" clip-path="url(#doXCtKxyTRTy)"/><path fill="rgb(255,188,66)" stroke="none" paint-order="stroke" d="M 265.51171875 183.09091186523438 L 267.03253877162933 183.09091186523438 L 267.03253877162933 498.9090881347656 L 265.51171875 498.9090881347656 L 265.51171875 183.09091186523438" fill-opacity="1" clip-path="url(#BdVHZvClwZdO)"/><path fill="rgb(255,188,66)" stroke="none" paint-order="stroke" d="M 269.3431701660156 183.09091186523438 L 272.2646782398224 183.09091186523438 L 272.2646782398224 498.9090881347656 L 269.3431701660156 498.9090881347656 L 269.3431701660156 183.09091186523438" fill-opacity="1" clip-path="url(#BdVHZvClwZdO)"/><path fill="rgb(162,174,187)" stroke="none" paint-order="stroke" d="M 268.22747802734375 183.09091186523438 L 268.2913780286908 183.09091186523438 L 268.2913780286908 498.9090881347656 L 268.22747802734375 498.9090881347656 L 268.22747802734375 183.09091186523438" fill-opacity="1" clip-path="url(#HDhUvWiRRBuH)"/><path fill="rgb(216,17,89)" stroke="none" paint-order="stroke" d="M 279.36651611328125 183.09091186523438 L 279.4304161146283 183.09091186523438 L 279.4304161146283 498.9090881347656 L 279.36651611328125 498.9090881347656 L 279.36651611328125 183.09091186523438" fill-opacity="1" clip-path="url(#xzOguFkyOqJM)"/><path fill="rgb(216,17,89)" stroke="none" paint-order="stroke" d="M 279.36651611328125 183.09091186523438 L 279.4304161146283 183.09091186523438 L 279.4304161146283 498.9090881347656 L 279.36651611328125 498.9090881347656 L 279.36651611328125 183.09091186523438" fill-opacity="1" clip-path="url(#xzOguFkyOqJM)"/><path fill="rgb(33,131,128)" stroke="none" paint-order="stroke" d="M 256.84686279296875 183.09091186523438 L 258.89166283607483 183.09091186523438 L 258.89166283607483 498.9090881347656 L 256.84686279296875 498.9090881347656 L 256.84686279296875 183.09091186523438" fill-opacity="1" clip-path="url(#oDFuZxAMXXUU)"/><path fill="rgb(33,131,128)" stroke="none" paint-order="stroke" d="M 324.0735168457031 183.09091186523438 L 326.4736008644104 183.09091186523438 L 326.4736008644104 498.9090881347656 L 324.0735168457031 498.9090881347656 L 324.0735168457031 183.09091186523438" fill-opacity="1" clip-path="url(#oDFuZxAMXXUU)"/><path fill="rgb(33,131,128)" stroke="none" paint-order="stroke" d="M 376.6325378417969 183.09091186523438 L 380.20199179649353 183.09091186523438 L 380.20199179649353 498.9090881347656 L 376.6325378417969 498.9090881347656 L 376.6325378417969 183.09091186523438" fill-opacity="1" clip-path="url(#oDFuZxAMXXUU)"/><path fill="rgb(33,131,128)" stroke="none" paint-order="stroke" d="M 522.4459228515625 183.09091186523438 L 525.804506778717 183.09091186523438 L 525.804506778717 498.9090881347656 L 522.4459228515625 498.9090881347656 L 522.4459228515625 183.09091186523438" fill-opacity="1" clip-path="url(#oDFuZxAMXXUU)"/><path fill="rgb(115,210,222)" stroke="none" paint-order="stroke" d="M 309.7547912597656 183.09091186523438 L 320.0337448120117 183.09091186523438 L 320.0337448120117 498.9090881347656 L 309.7547912597656 498.9090881347656 L 309.7547912597656 183.09091186523438" fill-opacity="1" clip-path="url(#UItTIUPTwTlz)"/><path fill="rgb(115,210,222)" stroke="none" paint-order="stroke" d="M 329.0858154296875 183.09091186523438 L 331.3926055431366 183.09091186523438 L 331.3926055431366 498.9090881347656 L 329.0858154296875 498.9090881347656 L 329.0858154296875 183.09091186523438" fill-opacity="1" clip-path="url(#UItTIUPTwTlz)"/><path fill="rgb(115,210,222)" stroke="none" paint-order="stroke" d="M 364.4289245605469 183.09091186523438 L 367.7184965610504 183.09091186523438 L 367.7184965610504 498.9090881347656 L 364.4289245605469 498.9090881347656 L 364.4289245605469 183.09091186523438" fill-opacity="1" clip-path="url(#UItTIUPTwTlz)"/><path fill="rgb(115,210,222)" stroke="none" paint-order="stroke" d="M 395.9150085449219 183.09091186523438 L 397.2709665298462 183.09091186523438 L 397.2709665298462 498.9090881347656 L 395.9150085449219 498.9090881347656 L 395.9150085449219 183.09091186523438" fill-opacity="1" clip-path="url(#UItTIUPTwTlz)"/><path fill="rgb(115,210,222)" stroke="none" paint-order="stroke" d="M 398.1655578613281 183.09091186523438 L 398.2294578626752 183.09091186523438 L 398.2294578626752 498.9090881347656 L 398.1655578613281 498.9090881347656 L 398.1655578613281 183.09091186523438" fill-opacity="1" clip-path="url(#UItTIUPTwTlz)"/><path fill="rgb(115,210,222)" stroke="none" paint-order="stroke" d="M 398.1655578613281 183.09091186523438 L 398.2294578626752 183.09091186523438 L 398.2294578626752 498.9090881347656 L 398.1655578613281 498.9090881347656 L 398.1655578613281 183.09091186523438" fill-opacity="1" clip-path="url(#UItTIUPTwTlz)"/><path fill="rgb(115,210,222)" stroke="none" paint-order="stroke" d="M 398.7994384765625 183.09091186523438 L 398.86333847790956 183.09091186523438 L 398.86333847790956 498.9090881347656 L 398.7994384765625 498.9090881347656 L 398.7994384765625 183.09091186523438" fill-opacity="1" clip-path="url(#UItTIUPTwTlz)"/><path fill="rgb(115,210,222)" stroke="none" paint-order="stroke" d="M 398.7994384765625 183.09091186523438 L 398.86333847790956 183.09091186523438 L 398.86333847790956 498.9090881347656 L 398.7994384765625 498.9090881347656 L 398.7994384765625 183.09091186523438" fill-opacity="1" clip-path="url(#UItTIUPTwTlz)"/><path fill="rgb(115,210,222)" stroke="none" paint-order="stroke" d="M 398.99114990234375 183.09091186523438 L 399.0550499036908 183.09091186523438 L 399.0550499036908 498.9090881347656 L 398.99114990234375 498.9090881347656 L 398.99114990234375 183.09091186523438" fill-opacity="1" clip-path="url(#UItTIUPTwTlz)"/><path fill="rgb(115,210,222)" stroke="none" paint-order="stroke" d="M 398.99114990234375 183.09091186523438 L 399.0550499036908 183.09091186523438 L 399.0550499036908 498.9090881347656 L 398.99114990234375 498.9090881347656 L 398.99114990234375 183.09091186523438" fill-opacity="1" clip-path="url(#UItTIUPTwTlz)"/><path fill="rgb(115,210,222)" stroke="none" paint-order="stroke" d="M 399.1853942871094 183.09091186523438 L 399.24929428845644 183.09091186523438 L 399.24929428845644 498.9090881347656 L 399.1853942871094 498.9090881347656 L 399.1853942871094 183.09091186523438" fill-opacity="1" clip-path="url(#UItTIUPTwTlz)"/><path fill="rgb(115,210,222)" stroke="none" paint-order="stroke" d="M 399.1853942871094 183.09091186523438 L 399.24929428845644 183.09091186523438 L 399.24929428845644 498.9090881347656 L 399.1853942871094 498.9090881347656 L 399.1853942871094 183.09091186523438" fill-opacity="1" clip-path="url(#UItTIUPTwTlz)"/><path fill="rgb(115,210,222)" stroke="none" paint-order="stroke" d="M 399.3771057128906 183.09091186523438 L 399.4410057142377 183.09091186523438 L 399.4410057142377 498.9090881347656 L 399.3771057128906 498.9090881347656 L 399.3771057128906 183.09091186523438" fill-opacity="1" clip-path="url(#UItTIUPTwTlz)"/><path fill="rgb(115,210,222)" stroke="none" paint-order="stroke" d="M 399.3771057128906 183.09091186523438 L 399.4410057142377 183.09091186523438 L 399.4410057142377 498.9090881347656 L 399.3771057128906 498.9090881347656 L 399.3771057128906 183.09091186523438" fill-opacity="1" clip-path="url(#UItTIUPTwTlz)"/><path fill="rgb(115,210,222)" stroke="none" paint-order="stroke" d="M 420.8513488769531 183.09091186523438 L 421.8954749107361 183.09091186523438 L 421.8954749107361 498.9090881347656 L 420.8513488769531 498.9090881347656 L 420.8513488769531 183.09091186523438" fill-opacity="1" clip-path="url(#UItTIUPTwTlz)"/><path fill="rgb(115,210,222)" stroke="none" paint-order="stroke" d="M 433.0076904296875 183.09091186523438 L 440.0737524032593 183.09091186523438 L 440.0737524032593 498.9090881347656 L 433.0076904296875 498.9090881347656 L 433.0076904296875 183.09091186523438" fill-opacity="1" clip-path="url(#UItTIUPTwTlz)"/><path fill="rgb(115,210,222)" stroke="none" paint-order="stroke" d="M 445.6598815917969 183.09091186523438 L 450.4728298187256 183.09091186523438 L 450.4728298187256 498.9090881347656 L 445.6598815917969 498.9090881347656 L 445.6598815917969 183.09091186523438" fill-opacity="1" clip-path="url(#UItTIUPTwTlz)"/><path fill="rgb(115,210,222)" stroke="none" paint-order="stroke" d="M 465.0254211425781 183.09091186523438 L 466.0222611427307 183.09091186523438 L 466.0222611427307 498.9090881347656 L 465.0254211425781 498.9090881347656 L 465.0254211425781 183.09091186523438" fill-opacity="1" clip-path="url(#UItTIUPTwTlz)"/><path fill="rgb(115,210,222)" stroke="none" paint-order="stroke" d="M 473.7158203125 183.09091186523438 L 476.6245481967926 183.09091186523438 L 476.6245481967926 498.9090881347656 L 473.7158203125 498.9090881347656 L 473.7158203125 183.09091186523438" fill-opacity="1" clip-path="url(#UItTIUPTwTlz)"/><path fill="rgb(115,210,222)" stroke="none" paint-order="stroke" d="M 553.8323364257812 183.09091186523438 L 561.7316546440125 183.09091186523438 L 561.7316546440125 498.9090881347656 L 553.8323364257812 498.9090881347656 L 553.8323364257812 183.09091186523438" fill-opacity="1" clip-path="url(#UItTIUPTwTlz)"/><path fill="rgb(115,210,222)" stroke="none" paint-order="stroke" d="M 578.8159790039062 183.09091186523438 L 580.0083529949188 183.09091186523438 L 580.0083529949188 498.9090881347656 L 578.8159790039062 498.9090881347656 L 578.8159790039062 183.09091186523438" fill-opacity="1" clip-path="url(#UItTIUPTwTlz)"/><path fill="rgb(28,49,68)" stroke="none" paint-order="stroke" d="M 261.07196044921875 183.09091186523438 L 264.0394763946533 183.09091186523438 L 264.0394763946533 498.9090881347656 L 261.07196044921875 498.9090881347656 L 261.07196044921875 183.09091186523438" fill-opacity="1" clip-path="url(#KUblrmHQlIzE)"/><path fill="rgb(28,49,68)" stroke="none" paint-order="stroke" d="M 297.2431945800781 183.09091186523438 L 304.65048265457153 183.09091186523438 L 304.65048265457153 498.9090881347656 L 297.2431945800781 498.9090881347656 L 297.2431945800781 183.09091186523438" fill-opacity="1" clip-path="url(#KUblrmHQlIzE)"/><path fill="rgb(28,49,68)" stroke="none" paint-order="stroke" d="M 371.4809265136719 183.09091186523438 L 375.29064440727234 183.09091186523438 L 375.29064440727234 498.9090881347656 L 371.4809265136719 498.9090881347656 L 371.4809265136719 183.09091186523438" fill-opacity="1" clip-path="url(#KUblrmHQlIzE)"/><path fill="rgb(28,49,68)" stroke="none" paint-order="stroke" d="M 401.5101013183594 183.09091186523438 L 404.65909337997437 183.09091186523438 L 404.65909337997437 498.9090881347656 L 401.5101013183594 498.9090881347656 L 401.5101013183594 183.09091186523438" fill-opacity="1" clip-path="url(#KUblrmHQlIzE)"/><path fill="rgb(28,49,68)" stroke="none" paint-order="stroke" d="M 413.97698974609375 183.09091186523438 L 415.6805636882782 183.09091186523438 L 415.6805636882782 498.9090881347656 L 413.97698974609375 498.9090881347656 L 413.97698974609375 183.09091186523438" fill-opacity="1" clip-path="url(#KUblrmHQlIzE)"/><path fill="rgb(28,49,68)" stroke="none" paint-order="stroke" d="M 454.8614807128906 183.09091186523438 L 462.9167146682739 183.09091186523438 L 462.9167146682739 498.9090881347656 L 454.8614807128906 498.9090881347656 L 454.8614807128906 183.09091186523438" fill-opacity="1" clip-path="url(#KUblrmHQlIzE)"/><path fill="rgb(28,49,68)" stroke="none" paint-order="stroke" d="M 480.7435302734375 183.09091186523438 L 495.8188180923462 183.09091186523438 L 495.8188180923462 498.9090881347656 L 480.7435302734375 498.9090881347656 L 480.7435302734375 183.09091186523438" fill-opacity="1" clip-path="url(#KUblrmHQlIzE)"/><path fill="rgb(28,49,68)" stroke="none" paint-order="stroke" d="M 540.4797973632812 183.09091186523438 L 546.0416531562805 183.09091186523438 L 546.0416531562805 498.9090881347656 L 540.4797973632812 498.9090881347656 L 540.4797973632812 183.09091186523438" fill-opacity="1" clip-path="url(#KUblrmHQlIzE)"/><path fill="rgb(28,49,68)" stroke="none" paint-order="stroke" d="M 564.2850952148438 183.09091186523438 L 565.9171012639999 183.09091186523438 L 565.9171012639999 498.9090881347656 L 564.2850952148438 498.9090881347656 L 564.2850952148438 183.09091186523438" fill-opacity="1" clip-path="url(#KUblrmHQlIzE)"/><path fill="rgb(239,185,203)" stroke="none" paint-order="stroke" d="M 66.40187072753906 183.09091186523438 L 253.59181213378906 183.09091186523438 L 253.59181213378906 498.9090881347656 L 66.40187072753906 498.9090881347656 L 66.40187072753906 183.09091186523438" fill-opacity="1" clip-path="url(#QXukZcbaRqDg)"/><path fill="rgb(105,29,48)" stroke="none" paint-order="stroke" d="M 281.90716552734375 183.09091186523438 L 286.72778129577637 183.09091186523438 L 286.72778129577637 498.9090881347656 L 281.90716552734375 498.9090881347656 L 281.90716552734375 183.09091186523438" fill-opacity="1" clip-path="url(#EJkfTfEklvlG)"/><path fill="rgb(105,29,48)" stroke="none" paint-order="stroke" d="M 335.0068054199219 183.09091186523438 L 338.0982873439789 183.09091186523438 L 338.0982873439789 498.9090881347656 L 335.0068054199219 498.9090881347656 L 335.0068054199219 183.09091186523438" fill-opacity="1" clip-path="url(#EJkfTfEklvlG)"/><path fill="rgb(105,29,48)" stroke="none" paint-order="stroke" d="M 527.7113037109375 183.09091186523438 L 532.7798519134521 183.09091186523438 L 532.7798519134521 498.9090881347656 L 527.7113037109375 498.9090881347656 L 527.7113037109375 183.09091186523438" fill-opacity="1" clip-path="url(#EJkfTfEklvlG)"/><path fill="rgb(255,188,66)" stroke="none" paint-order="stroke" d="M 266.7782287597656 498.9090881347656 L 596.8523864746094 498.9090881347656 L 596.8523864746094 551.5454521179199 L 266.7782287597656 551.5454521179199 L 266.7782287597656 498.9090881347656" fill-opacity="1" clip-path="url(#HnPNlaIUfHEM)"/><path fill="rgb(143,45,86)" stroke="none" paint-order="stroke" d="M 58.5 551.5454711914062 L 289.7489929199219 551.5454711914062 L 289.7489929199219 604.1818351745605 L 58.5 604.1818351745605 L 58.5 551.5454711914062" fill-opacity="1" clip-path="url(#LiwrZUEWrHkI)"/><path fill="rgb(81,60,99)" stroke="none" paint-order="stroke" d="M 289.7489929199219 551.5454711914062 L 596.8523864746094 551.5454711914062 L 596.8523864746094 604.1818351745605 L 289.7489929199219 604.1818351745605 L 289.7489929199219 551.5454711914062" fill-opacity="1" clip-path="url(#LiwrZUEWrHkI)"/><path fill="none" stroke="rgb(0,0,0)" paint-order="fill" d="M 58.5 77.81818389892578 L 596.8524169921875 77.81818389892578 L 596.8524169921875 604.1818313598633 L 58.5 604.1818313598633 L 58.5 77.81818389892578" stroke-opacity="1" stroke-linejoin="bevel" stroke-miterlimit="10" stroke-dasharray="" clip-path="url(#CrwoKoxLegnW)"/><path fill="none" stroke="rgb(0,0,0)" paint-order="fill" d="M 58.5 630.5 L 1336.5 630.5" stroke-opacity="1" stroke-linejoin="bevel" stroke-miterlimit="10" stroke-dasharray=""/><path fill="none" stroke="rgb(0,0,0)" paint-order="fill" d="M 58.5 636.5 L 58.5 628.5 M 314.5 636.5 L 314.5 628.5 M 569.5 636.5 L 569.5 628.5 M 825.5 636.5 L 825.5 628.5 M 1080.5 636.5 L 1080.5 628.5 M 1336.5 636.5 L 1336.5 628.5" stroke-opacity="1" stroke-linejoin="bevel" stroke-miterlimit="10" stroke-dasharray=""/><path fill="none" stroke="rgb(0,0,0)" paint-order="fill" d="M 58.5 634.5 L 58.5 630.5 M 109.5 634.5 L 109.5 630.5 M 160.5 634.5 L 160.5 630.5 M 211.5 634.5 L 211.5 630.5 M 262.5 634.5 L 262.5 630.5 M 314.5 634.5 L 314.5 630.5 M 365.5 634.5 L 365.5 630.5 M 416.5 634.5 L 416.5 630.5 M 467.5 634.5 L 467.5 630.5 M 518.5 634.5 L 518.5 630.5 M 569.5 634.5 L 569.5 630.5 M 620.5 634.5 L 620.5 630.5 M 671.5 634.5 L 671.5 630.5 M 723.5 634.5 L 723.5 630.5 M 774.5 634.5 L 774.5 630.5 M 825.5 634.5 L 825.5 630.5 M 876.5 634.5 L 876.5 630.5 M 927.5 634.5 L 927.5 630.5 M 978.5 634.5 L 978.5 630.5 M 1029.5 634.5 L 1029.5 630.5 M 1080.5 634.5 L 1080.5 630.5 M 1132.5 634.5 L 1132.5 630.5 M 1183.5 634.5 L 1183.5 630.5 M 1234.5 634.5 L 1234.5 630.5 M 1285.5 634.5 L 1285.5 630.5 M 1336.5 634.5 L 1336.5 630.5" stroke-opacity="1" stroke-linejoin="bevel" stroke-miterlimit="10" stroke-dasharray=""/><text fill="rgb(68,68,68)" stroke="none" font-family="helvetica" font-size="11px" font-style="normal" font-weight="normal" text-decoration="normal" x="54.94166660308838" y="648.89013671875" text-anchor="start" dominant-baseline="alphabetic" transform="matrix(1, 0, 0, 1, 0.5, 0.5)" fill-opacity="1">0</text><text fill="rgb(68,68,68)" stroke="none" font-family="helvetica" font-size="11px" font-style="normal" font-weight="normal" text-decoration="normal" x="304.42500591278076" y="648.89013671875" text-anchor="start" dominant-baseline="alphabetic" transform="matrix(1, 0, 0, 1, 0.5, 0.5)" fill-opacity="1">200</text><text fill="rgb(68,68,68)" stroke="none" font-family="helvetica" font-size="11px" font-style="normal" font-weight="normal" text-decoration="normal" x="560.0250120162964" y="648.89013671875" text-anchor="start" dominant-baseline="alphabetic" transform="matrix(1, 0, 0, 1, 0.5, 0.5)" fill-opacity="1">400</text><text fill="rgb(68,68,68)" stroke="none" font-family="helvetica" font-size="11px" font-style="normal" font-weight="normal" text-decoration="normal" x="815.6249876022339" y="648.89013671875" text-anchor="start" dominant-baseline="alphabetic" transform="matrix(1, 0, 0, 1, 0.5, 0.5)" fill-opacity="1">600</text><text fill="rgb(68,68,68)" stroke="none" font-family="helvetica" font-size="11px" font-style="normal" font-weight="normal" text-decoration="normal" x="1071.2250242233276" y="648.89013671875" text-anchor="start" dominant-baseline="alphabetic" transform="matrix(1, 0, 0, 1, 0.5, 0.5)" fill-opacity="1">800</text><text fill="rgb(68,68,68)" stroke="none" font-family="helvetica" font-size="11px" font-style="normal" font-weight="normal" text-decoration="normal" x="1323.7666664123535" y="648.89013671875" text-anchor="start" dominant-baseline="alphabetic" transform="matrix(1, 0, 0, 1, 0.5, 0.5)" fill-opacity="1">1000</text><text fill="rgb(68,68,68)" stroke="none" font-family="helvetica" font-size="15pt" font-style="italic" font-weight="normal" text-decoration="normal" x="666.4416675567627" y="676.06982421875" text-anchor="start" dominant-baseline="alphabetic" transform="matrix(1, 0, 0, 1, 0.5, 0.5)" fill-opacity="1">time(s)</text><path fill="none" stroke="rgb(0,0,0)" paint-order="fill" d="M 58.5 630.5 L 58.5 51.5" stroke-opacity="1" stroke-linejoin="bevel" stroke-miterlimit="10" stroke-dasharray=""/><path fill="none" stroke="rgb(0,0,0)" paint-order="fill" d="M 52.5 551.5 L 60.5 551.5 M 52.5 446.5 L 60.5 446.5 M 52.5 341.5 L 60.5 341.5 M 52.5 235.5 L 60.5 235.5 M 52.5 130.5 L 60.5 130.5" stroke-opacity="1" stroke-linejoin="bevel" stroke-miterlimit="10" stroke-dasharray=""/><path fill="none" stroke="rgb(0,0,0)" paint-order="fill" d="M 54.5 572.5 L 58.5 572.5 M 54.5 593.5 L 58.5 593.5 M 54.5 614.5 L 58.5 614.5 M 54.5 551.5 L 58.5 551.5 M 54.5 530.5 L 58.5 530.5 M 54.5 509.5 L 58.5 509.5 M 54.5 488.5 L 58.5 488.5 M 54.5 467.5 L 58.5 467.5 M 54.5 446.5 L 58.5 446.5 M 54.5 425.5 L 58.5 425.5 M 54.5 404.5 L 58.5 404.5 M 54.5 383.5 L 58.5 383.5 M 54.5 362.5 L 58.5 362.5 M 54.5 341.5 L 58.5 341.5 M 54.5 319.5 L 58.5 319.5 M 54.5 298.5 L 58.5 298.5 M 54.5 277.5 L 58.5 277.5 M 54.5 256.5 L 58.5 256.5 M 54.5 235.5 L 58.5 235.5 M 54.5 214.5 L 58.5 214.5 M 54.5 193.5 L 58.5 193.5 M 54.5 172.5 L 58.5 172.5 M 54.5 151.5 L 58.5 151.5 M 54.5 130.5 L 58.5 130.5 M 54.5 109.5 L 58.5 109.5 M 54.5 88.5 L 58.5 88.5 M 54.5 67.5 L 58.5 67.5" stroke-opacity="1" stroke-linejoin="bevel" stroke-miterlimit="10" stroke-dasharray=""/><text fill="rgb(68,68,68)" stroke="none" font-family="helvetica" font-size="11px" font-style="normal" font-weight="normal" text-decoration="normal" x="34.46666622161865" y="554.9905395507812" text-anchor="start" dominant-baseline="alphabetic" transform="matrix(1, 0, 0, 1, 0.5, 0.5)" fill-opacity="1">2</text><text fill="rgb(68,68,68)" stroke="none" font-family="helvetica" font-size="11px" font-style="normal" font-weight="normal" text-decoration="normal" x="34.46666622161865" y="449.7178039550781" text-anchor="start" dominant-baseline="alphabetic" transform="matrix(1, 0, 0, 1, 0.5, 0.5)" fill-opacity="1">1</text><text fill="rgb(68,68,68)" stroke="none" font-family="helvetica" font-size="11px" font-style="normal" font-weight="normal" text-decoration="normal" x="40.88333320617676" y="344.445068359375" text-anchor="start" dominant-baseline="alphabetic" transform="matrix(1, 0, 0, 1, 0.5, 0.5)" fill-opacity="1">0</text><text fill="rgb(68,68,68)" stroke="none" font-family="helvetica" font-size="11px" font-style="normal" font-weight="normal" text-decoration="normal" x="40.88333320617676" y="239.17234802246094" text-anchor="start" dominant-baseline="alphabetic" transform="matrix(1, 0, 0, 1, 0.5, 0.5)" fill-opacity="1">1</text><text fill="rgb(68,68,68)" stroke="none" font-family="helvetica" font-size="11px" font-style="normal" font-weight="normal" text-decoration="normal" x="40.88333320617676" y="133.8996124267578" text-anchor="start" dominant-baseline="alphabetic" transform="matrix(1, 0, 0, 1, 0.5, 0.5)" fill-opacity="1">2</text><text fill="rgb(68,68,68)" stroke="none" font-family="helvetica" font-size="15pt" font-style="italic" font-weight="normal" text-decoration="normal" x="-11.316666603088379" y="336.076171875" text-anchor="start" dominant-baseline="alphabetic" transform="matrix(6.123233995736766e-17, -1, 1, 6.123233995736766e-17, -313.53333377838135, 367.46666622161865)" fill-opacity="1">students</text><path fill="rgb(255,255,255)" stroke="rgb(229,229,229)" paint-order="fill" d="M 1128.2333374023438 61.5 L 1326.5 61.5 L 1326.5 400.5 L 1128.2333374023438 400.5 L 1128.2333374023438 61.5" fill-opacity="0.9490196078431372" clip-path="url(#yUzTmfQkAJrJ)" stroke-opacity="0.5019607843137255" stroke-linejoin="bevel" stroke-miterlimit="10" stroke-dasharray=""/><g clip-path="url(#yUzTmfQkAJrJ)"><text fill="rgb(68,68,68)" stroke="none" font-family="helvetica" font-size="13px" font-style="normal" font-weight="normal" text-decoration="normal" x="1162.7333374023438" y="81" text-anchor="start" dominant-baseline="central" transform="matrix(1, 0, 0, 1, 0.5, 0.5)" fill-opacity="1">wavelength</text></g><path fill="rgb(0,255,40)" stroke="none" paint-order="stroke" d="M 1140.2333374023438 73.5 L 1156.2333374023438 73.5 L 1156.2333374023438 89.5 L 1140.2333374023438 89.5 L 1140.2333374023438 73.5" fill-opacity="1" clip-path="url(#yUzTmfQkAJrJ)"/><path fill="rgb(216,17,89)" stroke="none" paint-order="stroke" d="M 1140.2333374023438 73.5 L 1156.2333374023438 73.5 L 1156.2333374023438 89.5 L 1140.2333374023438 89.5 L 1140.2333374023438 73.5" fill-opacity="1" clip-path="url(#yUzTmfQkAJrJ)"/><g clip-path="url(#yUzTmfQkAJrJ)"><text fill="rgb(68,68,68)" stroke="none" font-family="helvetica" font-size="13px" font-style="normal" font-weight="normal" text-decoration="normal" x="1162.7333374023438" y="104" text-anchor="start" dominant-baseline="central" transform="matrix(1, 0, 0, 1, 0.5, 0.5)" fill-opacity="1">solution</text></g><path fill="rgb(251,0,7)" stroke="none" paint-order="stroke" d="M 1140.2333374023438 96.5 L 1156.2333374023438 96.5 L 1156.2333374023438 112.5 L 1140.2333374023438 112.5 L 1140.2333374023438 96.5" fill-opacity="1" clip-path="url(#yUzTmfQkAJrJ)"/><path fill="rgb(33,131,128)" stroke="none" paint-order="stroke" d="M 1140.2333374023438 96.5 L 1156.2333374023438 96.5 L 1156.2333374023438 112.5 L 1140.2333374023438 112.5 L 1140.2333374023438 96.5" fill-opacity="1" clip-path="url(#yUzTmfQkAJrJ)"/><g clip-path="url(#yUzTmfQkAJrJ)"><text fill="rgb(68,68,68)" stroke="none" font-family="helvetica" font-size="13px" font-style="normal" font-weight="normal" text-decoration="normal" x="1162.7333374023438" y="127" text-anchor="start" dominant-baseline="central" transform="matrix(1, 0, 0, 1, 0.5, 0.5)" fill-opacity="1">laser</text></g><path fill="rgb(105,29,48)" stroke="none" paint-order="stroke" d="M 1140.2333374023438 119.5 L 1156.2333374023438 119.5 L 1156.2333374023438 135.5 L 1140.2333374023438 135.5 L 1140.2333374023438 119.5" fill-opacity="1" clip-path="url(#yUzTmfQkAJrJ)"/><g clip-path="url(#yUzTmfQkAJrJ)"><text fill="rgb(68,68,68)" stroke="none" font-family="helvetica" font-size="13px" font-style="normal" font-weight="normal" text-decoration="normal" x="1162.7333374023438" y="150" text-anchor="start" dominant-baseline="central" transform="matrix(1, 0, 0, 1, 0.5, 0.5)" fill-opacity="1">ruler</text></g><path fill="rgb(255,188,66)" stroke="none" paint-order="stroke" d="M 1140.2333374023438 142.5 L 1156.2333374023438 142.5 L 1156.2333374023438 158.5 L 1140.2333374023438 158.5 L 1140.2333374023438 142.5" fill-opacity="1" clip-path="url(#yUzTmfQkAJrJ)"/><g clip-path="url(#yUzTmfQkAJrJ)"><text fill="rgb(68,68,68)" stroke="none" font-family="helvetica" font-size="13px" font-style="normal" font-weight="normal" text-decoration="normal" x="1162.7333374023438" y="173" text-anchor="start" dominant-baseline="central" transform="matrix(1, 0, 0, 1, 0.5, 0.5)" fill-opacity="1">restarts</text></g><g clip-path="url(#yUzTmfQkAJrJ)"><text fill="rgb(68,68,68)" stroke="none" font-family="helvetica" font-size="13px" font-style="normal" font-weight="normal" text-decoration="normal" x="1162.7333374023438" y="196" text-anchor="start" dominant-baseline="central" transform="matrix(1, 0, 0, 1, 0.5, 0.5)" fill-opacity="1">transmittance_absorbance</text></g><path fill="rgb(162,174,187)" stroke="none" paint-order="stroke" d="M 1140.2333374023438 188.5 L 1156.2333374023438 188.5 L 1156.2333374023438 204.5 L 1140.2333374023438 204.5 L 1140.2333374023438 188.5" fill-opacity="1" clip-path="url(#yUzTmfQkAJrJ)"/><g clip-path="url(#yUzTmfQkAJrJ)"><text fill="rgb(68,68,68)" stroke="none" font-family="helvetica" font-size="13px" font-style="normal" font-weight="normal" text-decoration="normal" x="1162.7333374023438" y="219" text-anchor="start" dominant-baseline="central" transform="matrix(1, 0, 0, 1, 0.5, 0.5)" fill-opacity="1">magnifier</text></g><g clip-path="url(#yUzTmfQkAJrJ)"><text fill="rgb(68,68,68)" stroke="none" font-family="helvetica" font-size="13px" font-style="normal" font-weight="normal" text-decoration="normal" x="1162.7333374023438" y="242" text-anchor="start" dominant-baseline="central" transform="matrix(1, 0, 0, 1, 0.5, 0.5)" fill-opacity="1">concentration</text></g><path fill="rgb(115,210,222)" stroke="none" paint-order="stroke" d="M 1140.2333374023438 234.5 L 1156.2333374023438 234.5 L 1156.2333374023438 250.5 L 1140.2333374023438 250.5 L 1140.2333374023438 234.5" fill-opacity="1" clip-path="url(#yUzTmfQkAJrJ)"/><g clip-path="url(#yUzTmfQkAJrJ)"><text fill="rgb(68,68,68)" stroke="none" font-family="helvetica" font-size="13px" font-style="normal" font-weight="normal" text-decoration="normal" x="1162.7333374023438" y="265" text-anchor="start" dominant-baseline="central" transform="matrix(1, 0, 0, 1, 0.5, 0.5)" fill-opacity="1">flask</text></g><path fill="rgb(28,49,68)" stroke="none" paint-order="stroke" d="M 1140.2333374023438 257.5 L 1156.2333374023438 257.5 L 1156.2333374023438 273.5 L 1140.2333374023438 273.5 L 1140.2333374023438 257.5" fill-opacity="1" clip-path="url(#yUzTmfQkAJrJ)"/><g clip-path="url(#yUzTmfQkAJrJ)"><text fill="rgb(68,68,68)" stroke="none" font-family="helvetica" font-size="13px" font-style="normal" font-weight="normal" text-decoration="normal" x="1162.7333374023438" y="288" text-anchor="start" dominant-baseline="central" transform="matrix(1, 0, 0, 1, 0.5, 0.5)" fill-opacity="1">pdf</text></g><path fill="rgb(239,185,203)" stroke="none" paint-order="stroke" d="M 1140.2333374023438 280.5 L 1156.2333374023438 280.5 L 1156.2333374023438 296.5 L 1140.2333374023438 296.5 L 1140.2333374023438 280.5" fill-opacity="1" clip-path="url(#yUzTmfQkAJrJ)"/><g clip-path="url(#yUzTmfQkAJrJ)"><text fill="rgb(68,68,68)" stroke="none" font-family="helvetica" font-size="13px" font-style="normal" font-weight="normal" text-decoration="normal" x="1162.7333374023438" y="311" text-anchor="start" dominant-baseline="central" transform="matrix(1, 0, 0, 1, 0.5, 0.5)" fill-opacity="1">concentrationlab</text></g><g clip-path="url(#yUzTmfQkAJrJ)"><text fill="rgb(68,68,68)" stroke="none" font-family="helvetica" font-size="13px" font-style="normal" font-weight="normal" text-decoration="normal" x="1162.7333374023438" y="334" text-anchor="start" dominant-baseline="central" transform="matrix(1, 0, 0, 1, 0.5, 0.5)" fill-opacity="1">wavelength_slider</text></g><path fill="rgb(105,29,48)" stroke="none" paint-order="stroke" d="M 1140.2333374023438 326.5 L 1156.2333374023438 326.5 L 1156.2333374023438 342.5 L 1140.2333374023438 342.5 L 1140.2333374023438 326.5" fill-opacity="1" clip-path="url(#yUzTmfQkAJrJ)"/><g clip-path="url(#yUzTmfQkAJrJ)"><text fill="rgb(68,68,68)" stroke="none" font-family="helvetica" font-size="13px" font-style="normal" font-weight="normal" text-decoration="normal" x="1162.7333374023438" y="357" text-anchor="start" dominant-baseline="central" transform="matrix(1, 0, 0, 1, 0.5, 0.5)" fill-opacity="1">ruler measuring</text></g><path fill="rgb(255,188,66)" stroke="none" paint-order="stroke" d="M 1140.2333374023438 349.5 L 1156.2333374023438 349.5 L 1156.2333374023438 365.5 L 1140.2333374023438 365.5 L 1140.2333374023438 349.5" fill-opacity="1" clip-path="url(#yUzTmfQkAJrJ)"/><g clip-path="url(#yUzTmfQkAJrJ)"><text fill="rgb(68,68,68)" stroke="none" font-family="helvetica" font-size="13px" font-style="normal" font-weight="normal" text-decoration="normal" x="1162.7333374023438" y="380" text-anchor="start" dominant-baseline="central" transform="matrix(1, 0, 0, 1, 0.5, 0.5)" fill-opacity="1">dependent variable</text></g><path fill="rgb(143,45,86)" stroke="none" paint-order="stroke" d="M 1140.2333374023438 372.5 L 1156.2333374023438 372.5 L 1156.2333374023438 388.5 L 1140.2333374023438 388.5 L 1140.2333374023438 372.5" fill-opacity="1" clip-path="url(#yUzTmfQkAJrJ)"/><text fill="rgb(68,68,68)" stroke="none" font-family="helvetica" font-size="25pt" font-style="normal" font-weight="bold" text-decoration="normal" x="58" y="38.740885416666664" text-anchor="start" dominant-baseline="alphabetic" transform="matrix(1, 0, 0, 1, 0.5, 0.5)" fill-opacity="1">Timeline for student u5ebbg3v with permutation missing for task 2</text></svg>