<svg version="1.1" xmlns="http://www.w3.org/2000/svg" width="1366" height="683"><defs><clipPath id="SmFVyRChxXdo"><path fill="none" stroke="none" d="M 58.5 51.5 L 1336.5 51.5 L 1336.5 630.5 L 58.5 630.5 L 58.5 51.5"/></clipPath><clipPath id="mnmTJhhMsClF"><path fill="none" stroke="none" d="M 58.5 51.5 L 1336.5 51.5 L 1336.5 630.5 L 58.5 630.5 L 58.5 51.5"/></clipPath><clipPath id="Jxqerhxqkaws"><path fill="none" stroke="none" d="M 58.5 51.5 L 1336.5 51.5 L 1336.5 630.5 L 58.5 630.5 L 58.5 51.5"/></clipPath><clipPath id="TdBIxTtvWoSW"><path fill="none" stroke="none" d="M 58.5 51.5 L 1336.5 51.5 L 1336.5 630.5 L 58.5 630.5 L 58.5 51.5"/></clipPath><clipPath id="eKyVwIwfWxSU"><path fill="none" stroke="none" d="M 58.5 51.5 L 1336.5 51.5 L 1336.5 630.5 L 58.5 630.5 L 58.5 51.5"/></clipPath><clipPath id="wMRPaMhaTUvo"><path fill="none" stroke="none" d="M 58.5 51.5 L 1336.5 51.5 L 1336.5 630.5 L 58.5 630.5 L 58.5 51.5"/></clipPath><clipPath id="LZMlxETfymHu"><path fill="none" stroke="none" d="M 58.5 51.5 L 1336.5 51.5 L 1336.5 630.5 L 58.5 630.5 L 58.5 51.5"/></clipPath><clipPath id="efUohMxBtJGl"><path fill="none" stroke="none" d="M 58.5 51.5 L 1336.5 51.5 L 1336.5 630.5 L 58.5 630.5 L 58.5 51.5"/></clipPath><clipPath id="lHcslrQBblkN"><path fill="none" stroke="none" d="M 58.5 51.5 L 1336.5 51.5 L 1336.5 630.5 L 58.5 630.5 L 58.5 51.5"/></clipPath><clipPath id="dsrZSFtatPrD"><path fill="none" stroke="none" d="M 58.5 51.5 L 1336.5 51.5 L 1336.5 630.5 L 58.5 630.5 L 58.5 51.5"/></clipPath><clipPath id="coEAMlzrShhZ"><path fill="none" stroke="none" d="M 58.5 51.5 L 1336.5 51.5 L 1336.5 630.5 L 58.5 630.5 L 58.5 51.5"/></clipPath><clipPath id="SxxxzsEyPEoi"><path fill="none" stroke="none" d="M 58.5 51.5 L 1336.5 51.5 L 1336.5 630.5 L 58.5 630.5 L 58.5 51.5"/></clipPath><clipPath id="GtSUfRwlUkdJ"><path fill="none" stroke="none" d="M 58.5 51.5 L 1336.5 51.5 L 1336.5 630.5 L 58.5 630.5 L 58.5 51.5"/></clipPath><clipPath id="HtZpUnTzIErU"><path fill="none" stroke="none" d="M 58.5 51.5 L 1336.5 51.5 L 1336.5 630.5 L 58.5 630.5 L 58.5 51.5"/></clipPath><clipPath id="tuRFFdOZNasw"><path fill="none" stroke="none" d="M 58.5 51.5 L 1336.5 51.5 L 1336.5 630.5 L 58.5 630.5 L 58.5 51.5"/></clipPath><clipPath id="eoKLANkZQPxU"><path fill="none" stroke="none" d="M 58.5 51.5 L 1336.5 51.5 L 1336.5 630.5 L 58.5 630.5 L 58.5 51.5"/></clipPath><clipPath id="KAiCaoDVvMCz"><path fill="none" stroke="none" d="M 58.5 51.5 L 1336.5 51.5 L 1336.5 630.5 L 58.5 630.5 L 58.5 51.5"/></clipPath><clipPath id="QvDrRSSBtSOz"><path fill="none" stroke="none" d="M 58.5 51.5 L 1336.5 51.5 L 1336.5 630.5 L 58.5 630.5 L 58.5 51.5"/></clipPath><clipPath id="esDrmUuPteyN"><path fill="none" stroke="none" d="M 58.5 51.5 L 1336.5 51.5 L 1336.5 630.5 L 58.5 630.5 L 58.5 51.5"/></clipPath><clipPath id="fkARAqoEaHqx"><path fill="none" stroke="none" d="M 58.5 51.5 L 1336.5 51.5 L 1336.5 630.5 L 58.5 630.5 L 58.5 51.5"/></clipPath><clipPath id="TdSmLkcbTLus"><path fill="none" stroke="none" d="M 58.5 51.5 L 1336.5 51.5 L 1336.5 630.5 L 58.5 630.5 L 58.5 51.5"/></clipPath></defs><path fill="rgb(255,255,255)" stroke="none" paint-order="stroke" d="M 0.5 0.5 L 1366.5 0.5 L 1366.5 683.5 L 0.5 683.5 L 0.5 0.5" fill-opacity="1"/><rect fill="#FFFFFF" stroke="none" x="58" y="51" width="1278" height="579" transform="matrix(1, 0, 0, 1, 0.5, 0.5)"/><path fill="rgb(255,255,255)" stroke="none" paint-order="stroke" d="M 58.5 51.5 L 1336.5 51.5 L 1336.5 630.5 L 58.5 630.5 L 58.5 51.5" fill-opacity="1"/><path fill="none" stroke="rgb(229,229,229)" paint-order="fill" d="M 58.5 51.5 L 1336.5 51.5 L 1336.5 630.5 L 58.5 630.5 L 58.5 51.5" stroke-opacity="1" stroke-linejoin="bevel" stroke-miterlimit="10" stroke-dasharray=""/><path fill="none" stroke="rgb(229,229,229)" paint-order="fill" d="M 314.5 630.5 L 314.5 51.5 M 569.5 630.5 L 569.5 51.5 M 825.5 630.5 L 825.5 51.5 M 1080.5 630.5 L 1080.5 51.5" stroke-opacity="1" stroke-linejoin="bevel" stroke-miterlimit="10" stroke-dasharray="" clip-path="url(#SmFVyRChxXdo)"/><path fill="none" stroke="rgb(229,229,229)" paint-order="fill" d="M 58.5 551.5 L 1336.5 551.5 M 58.5 446.5 L 1336.5 446.5 M 58.5 341.5 L 1336.5 341.5 M 58.5 235.5 L 1336.5 235.5 M 58.5 130.5 L 1336.5 130.5" stroke-opacity="1" stroke-linejoin="bevel" stroke-miterlimit="10" stroke-dasharray="" clip-path="url(#mnmTJhhMsClF)"/><path fill="rgb(0,255,40)" stroke="none" paint-order="stroke" d="M 58.5 77.81818389892578 L 199.60781860351562 77.81818389892578 L 199.60781860351562 130.45454788208008 L 58.5 130.45454788208008 L 58.5 77.81818389892578" fill-opacity="1" clip-path="url(#Jxqerhxqkaws)"/><path fill="rgb(8,255,0)" stroke="none" paint-order="stroke" d="M 199.60781860351562 77.81818389892578 L 199.62187660392374 77.81818389892578 L 199.62187660392374 130.45454788208008 L 199.60781860351562 130.45454788208008 L 199.60781860351562 77.81818389892578" fill-opacity="1" clip-path="url(#Jxqerhxqkaws)"/><path fill="rgb(30,255,0)" stroke="none" paint-order="stroke" d="M 199.6218719482422 77.81818389892578 L 199.6435979474336 77.81818389892578 L 199.6435979474336 130.45454788208008 L 199.6218719482422 130.45454788208008 L 199.6218719482422 77.81818389892578" fill-opacity="1" clip-path="url(#Jxqerhxqkaws)"/><path fill="rgb(44,255,0)" stroke="none" paint-order="stroke" d="M 199.6436004638672 77.81818389892578 L 199.66916046477854 77.81818389892578 L 199.66916046477854 130.45454788208008 L 199.6436004638672 130.45454788208008 L 199.6436004638672 77.81818389892578" fill-opacity="1" clip-path="url(#Jxqerhxqkaws)"/><path fill="rgb(62,255,0)" stroke="none" paint-order="stroke" d="M 199.66915893554688 77.81818389892578 L 199.69088493473828 77.81818389892578 L 199.69088493473828 130.45454788208008 L 199.66915893554688 130.45454788208008 L 199.66915893554688 77.81818389892578" fill-opacity="1" clip-path="url(#Jxqerhxqkaws)"/><path fill="rgb(74,255,0)" stroke="none" paint-order="stroke" d="M 199.69088745117188 77.81818389892578 L 199.71133545041084 77.81818389892578 L 199.71133545041084 130.45454788208008 L 199.69088745117188 130.45454788208008 L 199.69088745117188 77.81818389892578" fill-opacity="1" clip-path="url(#Jxqerhxqkaws)"/><path fill="rgb(89,255,0)" stroke="none" paint-order="stroke" d="M 199.71133422851562 77.81818389892578 L 199.74328422918916 77.81818389892578 L 199.74328422918916 130.45454788208008 L 199.71133422851562 130.45454788208008 L 199.71133422851562 77.81818389892578" fill-opacity="1" clip-path="url(#Jxqerhxqkaws)"/><path fill="rgb(104,255,0)" stroke="none" paint-order="stroke" d="M 199.7432861328125 77.81818389892578 L 199.76245613209903 77.81818389892578 L 199.76245613209903 130.45454788208008 L 199.7432861328125 130.45454788208008 L 199.7432861328125 77.81818389892578" fill-opacity="1" clip-path="url(#Jxqerhxqkaws)"/><path fill="rgb(115,255,0)" stroke="none" paint-order="stroke" d="M 199.762451171875 77.81818389892578 L 199.77267517149448 77.81818389892578 L 199.77267517149448 130.45454788208008 L 199.762451171875 130.45454788208008 L 199.762451171875 77.81818389892578" fill-opacity="1" clip-path="url(#Jxqerhxqkaws)"/><path fill="rgb(129,255,0)" stroke="none" paint-order="stroke" d="M 199.77267456054688 77.81818389892578 L 199.79440055973828 77.81818389892578 L 199.79440055973828 130.45454788208008 L 199.77267456054688 130.45454788208008 L 199.77267456054688 77.81818389892578" fill-opacity="1" clip-path="url(#Jxqerhxqkaws)"/><path fill="rgb(139,255,0)" stroke="none" paint-order="stroke" d="M 199.79440307617188 77.81818389892578 L 199.80462707579136 77.81818389892578 L 199.80462707579136 130.45454788208008 L 199.79440307617188 130.45454788208008 L 199.79440307617188 77.81818389892578" fill-opacity="1" clip-path="url(#Jxqerhxqkaws)"/><path fill="rgb(153,255,0)" stroke="none" paint-order="stroke" d="M 199.80462646484375 77.81818389892578 L 199.8135724645108 77.81818389892578 L 199.8135724645108 130.45454788208008 L 199.80462646484375 130.45454788208008 L 199.80462646484375 77.81818389892578" fill-opacity="1" clip-path="url(#Jxqerhxqkaws)"/><path fill="rgb(166,255,0)" stroke="none" paint-order="stroke" d="M 199.81356811523438 77.81818389892578 L 199.8250701148063 77.81818389892578 L 199.8250701148063 130.45454788208008 L 199.81356811523438 130.45454788208008 L 199.81356811523438 77.81818389892578" fill-opacity="1" clip-path="url(#Jxqerhxqkaws)"/><path fill="rgb(175,255,0)" stroke="none" paint-order="stroke" d="M 199.8250732421875 77.81818389892578 L 199.83657524175942 77.81818389892578 L 199.83657524175942 130.45454788208008 L 199.8250732421875 130.45454788208008 L 199.8250732421875 77.81818389892578" fill-opacity="1" clip-path="url(#Jxqerhxqkaws)"/><path fill="rgb(188,255,0)" stroke="none" paint-order="stroke" d="M 199.83657836914062 77.81818389892578 L 199.8570263683796 77.81818389892578 L 199.8570263683796 130.45454788208008 L 199.83657836914062 130.45454788208008 L 199.83657836914062 77.81818389892578" fill-opacity="1" clip-path="url(#Jxqerhxqkaws)"/><path fill="rgb(197,255,0)" stroke="none" paint-order="stroke" d="M 199.85702514648438 77.81818389892578 L 199.86597114615142 77.81818389892578 L 199.86597114615142 130.45454788208008 L 199.85702514648438 130.45454788208008 L 199.85702514648438 77.81818389892578" fill-opacity="1" clip-path="url(#Jxqerhxqkaws)"/><path fill="rgb(210,255,0)" stroke="none" paint-order="stroke" d="M 199.865966796875 77.81818389892578 L 199.87619079649448 77.81818389892578 L 199.87619079649448 130.45454788208008 L 199.865966796875 130.45454788208008 L 199.865966796875 77.81818389892578" fill-opacity="1" clip-path="url(#Jxqerhxqkaws)"/><path fill="rgb(222,255,0)" stroke="none" paint-order="stroke" d="M 199.87619018554688 77.81818389892578 L 199.90047218464315 77.81818389892578 L 199.90047218464315 130.45454788208008 L 199.87619018554688 130.45454788208008 L 199.87619018554688 77.81818389892578" fill-opacity="1" clip-path="url(#Jxqerhxqkaws)"/><path fill="rgb(231,255,0)" stroke="none" paint-order="stroke" d="M 199.90048217773438 77.81818389892578 L 199.9285981785506 77.81818389892578 L 199.9285981785506 130.45454788208008 L 199.90048217773438 130.45454788208008 L 199.90048217773438 77.81818389892578" fill-opacity="1" clip-path="url(#Jxqerhxqkaws)"/><path fill="rgb(243,255,0)" stroke="none" paint-order="stroke" d="M 199.9285888671875 77.81818389892578 L 200.25192287564278 77.81818389892578 L 200.25192287564278 130.45454788208008 L 199.9285888671875 130.45454788208008 L 199.9285888671875 77.81818389892578" fill-opacity="1" clip-path="url(#Jxqerhxqkaws)"/><path fill="rgb(231,255,0)" stroke="none" paint-order="stroke" d="M 200.25192260742188 77.81818389892578 L 200.26853660680354 77.81818389892578 L 200.26853660680354 130.45454788208008 L 200.25192260742188 130.45454788208008 L 200.25192260742188 77.81818389892578" fill-opacity="1" clip-path="url(#Jxqerhxqkaws)"/><path fill="rgb(222,255,0)" stroke="none" paint-order="stroke" d="M 200.26853942871094 77.81818389892578 L 200.27876342833042 77.81818389892578 L 200.27876342833042 130.45454788208008 L 200.26853942871094 130.45454788208008 L 200.26853942871094 77.81818389892578" fill-opacity="1" clip-path="url(#Jxqerhxqkaws)"/><path fill="rgb(210,255,0)" stroke="none" paint-order="stroke" d="M 200.2787628173828 77.81818389892578 L 200.29921081662178 77.81818389892578 L 200.29921081662178 130.45454788208008 L 200.2787628173828 130.45454788208008 L 200.2787628173828 77.81818389892578" fill-opacity="1" clip-path="url(#Jxqerhxqkaws)"/><path fill="rgb(197,255,0)" stroke="none" paint-order="stroke" d="M 200.29920959472656 77.81818389892578 L 200.30943359434605 77.81818389892578 L 200.30943359434605 130.45454788208008 L 200.29920959472656 130.45454788208008 L 200.29920959472656 77.81818389892578" fill-opacity="1" clip-path="url(#Jxqerhxqkaws)"/><path fill="rgb(175,255,0)" stroke="none" paint-order="stroke" d="M 200.30943298339844 77.81818389892578 L 200.31965698301792 77.81818389892578 L 200.31965698301792 130.45454788208008 L 200.30943298339844 130.45454788208008 L 200.30943298339844 77.81818389892578" fill-opacity="1" clip-path="url(#Jxqerhxqkaws)"/><path fill="rgb(166,255,0)" stroke="none" paint-order="stroke" d="M 200.3196563720703 77.81818389892578 L 200.33115837164223 77.81818389892578 L 200.33115837164223 130.45454788208008 L 200.3196563720703 130.45454788208008 L 200.3196563720703 77.81818389892578" fill-opacity="1" clip-path="url(#Jxqerhxqkaws)"/><path fill="rgb(153,255,0)" stroke="none" paint-order="stroke" d="M 200.33116149902344 77.81818389892578 L 200.35033149830997 77.81818389892578 L 200.35033149830997 130.45454788208008 L 200.33116149902344 130.45454788208008 L 200.33116149902344 77.81818389892578" fill-opacity="1" clip-path="url(#Jxqerhxqkaws)"/><path fill="rgb(129,255,0)" stroke="none" paint-order="stroke" d="M 200.35032653808594 77.81818389892578 L 200.36182853765786 77.81818389892578 L 200.36182853765786 130.45454788208008 L 200.35032653808594 130.45454788208008 L 200.35032653808594 77.81818389892578" fill-opacity="1" clip-path="url(#Jxqerhxqkaws)"/><path fill="rgb(115,255,0)" stroke="none" paint-order="stroke" d="M 200.36183166503906 77.81818389892578 L 200.38227966427803 77.81818389892578 L 200.38227966427803 130.45454788208008 L 200.36183166503906 130.45454788208008 L 200.36183166503906 77.81818389892578" fill-opacity="1" clip-path="url(#Jxqerhxqkaws)"/><path fill="rgb(104,255,0)" stroke="none" paint-order="stroke" d="M 200.3822784423828 77.81818389892578 L 200.3925024420023 77.81818389892578 L 200.3925024420023 130.45454788208008 L 200.3822784423828 130.45454788208008 L 200.3822784423828 77.81818389892578" fill-opacity="1" clip-path="url(#Jxqerhxqkaws)"/><path fill="rgb(89,255,0)" stroke="none" paint-order="stroke" d="M 200.3925018310547 77.81818389892578 L 200.4142278302461 77.81818389892578 L 200.4142278302461 130.45454788208008 L 200.3925018310547 130.45454788208008 L 200.3925018310547 77.81818389892578" fill-opacity="1" clip-path="url(#Jxqerhxqkaws)"/><path fill="rgb(74,255,0)" stroke="none" paint-order="stroke" d="M 200.4142303466797 77.81818389892578 L 200.4653503485024 77.81818389892578 L 200.4653503485024 130.45454788208008 L 200.4142303466797 130.45454788208008 L 200.4142303466797 77.81818389892578" fill-opacity="1" clip-path="url(#Jxqerhxqkaws)"/><path fill="rgb(62,255,0)" stroke="none" paint-order="stroke" d="M 200.46534729003906 77.81818389892578 L 200.9407632946968 77.81818389892578 L 200.9407632946968 130.45454788208008 L 200.46534729003906 130.45454788208008 L 200.46534729003906 77.81818389892578" fill-opacity="1" clip-path="url(#Jxqerhxqkaws)"/><path fill="rgb(44,255,0)" stroke="none" paint-order="stroke" d="M 200.94076538085938 77.81818389892578 L 201.05450738221407 77.81818389892578 L 201.05450738221407 130.45454788208008 L 200.94076538085938 130.45454788208008 L 200.94076538085938 77.81818389892578" fill-opacity="1" clip-path="url(#Jxqerhxqkaws)"/><path fill="rgb(30,255,0)" stroke="none" paint-order="stroke" d="M 201.05450439453125 77.81818389892578 L 201.11584839597344 77.81818389892578 L 201.11584839597344 130.45454788208008 L 201.05450439453125 130.45454788208008 L 201.05450439453125 77.81818389892578" fill-opacity="1" clip-path="url(#Jxqerhxqkaws)"/><path fill="rgb(8,255,0)" stroke="none" paint-order="stroke" d="M 201.11585998535156 77.81818389892578 L 201.89416199922562 77.81818389892578 L 201.89416199922562 130.45454788208008 L 201.11585998535156 130.45454788208008 L 201.11585998535156 77.81818389892578" fill-opacity="1" clip-path="url(#Jxqerhxqkaws)"/><path fill="rgb(0,255,40)" stroke="none" paint-order="stroke" d="M 201.89414978027344 77.81818389892578 L 201.9324897788465 77.81818389892578 L 201.9324897788465 130.45454788208008 L 201.89414978027344 130.45454788208008 L 201.89414978027344 77.81818389892578" fill-opacity="1" clip-path="url(#Jxqerhxqkaws)"/><path fill="rgb(0,255,97)" stroke="none" paint-order="stroke" d="M 201.9324951171875 77.81818389892578 L 201.94527511764318 77.81818389892578 L 201.94527511764318 130.45454788208008 L 201.9324951171875 130.45454788208008 L 201.9324951171875 77.81818389892578" fill-opacity="1" clip-path="url(#Jxqerhxqkaws)"/><path fill="rgb(0,255,146)" stroke="none" paint-order="stroke" d="M 201.94528198242188 77.81818389892578 L 201.96317398175597 77.81818389892578 L 201.96317398175597 130.45454788208008 L 201.94528198242188 130.45454788208008 L 201.94528198242188 77.81818389892578" fill-opacity="1" clip-path="url(#Jxqerhxqkaws)"/><path fill="rgb(0,255,180)" stroke="none" paint-order="stroke" d="M 201.96316528320312 77.81818389892578 L 201.9836132824421 77.81818389892578 L 201.9836132824421 130.45454788208008 L 201.96316528320312 130.45454788208008 L 201.96316528320312 77.81818389892578" fill-opacity="1" clip-path="url(#Jxqerhxqkaws)"/><path fill="rgb(0,255,223)" stroke="none" paint-order="stroke" d="M 201.98361206054688 77.81818389892578 L 202.62516808509827 77.81818389892578 L 202.62516808509827 130.45454788208008 L 201.98361206054688 130.45454788208008 L 201.98361206054688 77.81818389892578" fill-opacity="1" clip-path="url(#Jxqerhxqkaws)"/><path fill="rgb(0,255,180)" stroke="none" paint-order="stroke" d="M 202.6251678466797 77.81818389892578 L 202.68651184812188 77.81818389892578 L 202.68651184812188 130.45454788208008 L 202.6251678466797 130.45454788208008 L 202.6251678466797 77.81818389892578" fill-opacity="1" clip-path="url(#Jxqerhxqkaws)"/><path fill="rgb(0,255,146)" stroke="none" paint-order="stroke" d="M 202.6865234375 77.81818389892578 L 202.76831543445587 77.81818389892578 L 202.76831543445587 130.45454788208008 L 202.6865234375 130.45454788208008 L 202.6865234375 77.81818389892578" fill-opacity="1" clip-path="url(#Jxqerhxqkaws)"/><path fill="rgb(0,255,97)" stroke="none" paint-order="stroke" d="M 202.768310546875 77.81818389892578 L 202.80920654535294 77.81818389892578 L 202.80920654535294 130.45454788208008 L 202.768310546875 130.45454788208008 L 202.768310546875 77.81818389892578" fill-opacity="1" clip-path="url(#Jxqerhxqkaws)"/><path fill="rgb(0,255,40)" stroke="none" paint-order="stroke" d="M 202.8092041015625 77.81818389892578 L 202.85010010004044 77.81818389892578 L 202.85010010004044 130.45454788208008 L 202.8092041015625 130.45454788208008 L 202.8092041015625 77.81818389892578" fill-opacity="1" clip-path="url(#Jxqerhxqkaws)"/><path fill="rgb(8,255,0)" stroke="none" paint-order="stroke" d="M 202.85009765625 77.81818389892578 L 204.42331564426422 77.81818389892578 L 204.42331564426422 130.45454788208008 L 202.85009765625 130.45454788208008 L 202.85009765625 77.81818389892578" fill-opacity="1" clip-path="url(#Jxqerhxqkaws)"/><path fill="rgb(251,0,7)" stroke="none" paint-order="stroke" d="M 58.5 130.4545440673828 L 204.42332458496094 130.4545440673828 L 204.42332458496094 183.0909080505371 L 58.5 183.0909080505371 L 58.5 130.4545440673828" fill-opacity="1" clip-path="url(#TdBIxTtvWoSW)"/><path fill="rgb(105,29,48)" stroke="none" paint-order="stroke" d="M 184.7127227783203 183.09091186523438 L 184.77662277966738 183.09091186523438 L 184.77662277966738 498.9090881347656 L 184.7127227783203 498.9090881347656 L 184.7127227783203 183.09091186523438" fill-opacity="1" clip-path="url(#eKyVwIwfWxSU)"/><path fill="rgb(162,174,187)" stroke="none" paint-order="stroke" d="M 196.54444885253906 183.09091186523438 L 196.60834885388613 183.09091186523438 L 196.60834885388613 498.9090881347656 L 196.54444885253906 498.9090881347656 L 196.54444885253906 183.09091186523438" fill-opacity="1" clip-path="url(#efUohMxBtJGl)"/><path fill="rgb(216,17,89)" stroke="none" paint-order="stroke" d="M 198.14321899414062 183.09091186523438 L 198.2071189954877 183.09091186523438 L 198.2071189954877 498.9090881347656 L 198.14321899414062 498.9090881347656 L 198.14321899414062 183.09091186523438" fill-opacity="1" clip-path="url(#dsrZSFtatPrD)"/><path fill="rgb(216,17,89)" stroke="none" paint-order="stroke" d="M 198.14321899414062 183.09091186523438 L 198.2071189954877 183.09091186523438 L 198.2071189954877 498.9090881347656 L 198.14321899414062 498.9090881347656 L 198.14321899414062 183.09091186523438" fill-opacity="1" clip-path="url(#dsrZSFtatPrD)"/><path fill="rgb(33,131,128)" stroke="none" paint-order="stroke" d="M 179.76174926757812 183.09091186523438 L 183.08710527420044 183.09091186523438 L 183.08710527420044 498.9090881347656 L 179.76174926757812 498.9090881347656 L 179.76174926757812 183.09091186523438" fill-opacity="1" clip-path="url(#coEAMlzrShhZ)"/><path fill="rgb(115,210,222)" stroke="none" paint-order="stroke" d="M 186.71279907226562 183.09091186523438 L 187.48598909378052 183.09091186523438 L 187.48598909378052 498.9090881347656 L 186.71279907226562 498.9090881347656 L 186.71279907226562 183.09091186523438" fill-opacity="1" clip-path="url(#SxxxzsEyPEoi)"/><path fill="rgb(115,210,222)" stroke="none" paint-order="stroke" d="M 188.1479949951172 183.09091186523438 L 192.53536891937256 183.09091186523438 L 192.53536891937256 498.9090881347656 L 188.1479949951172 498.9090881347656 L 188.1479949951172 183.09091186523438" fill-opacity="1" clip-path="url(#SxxxzsEyPEoi)"/><path fill="rgb(239,185,203)" stroke="none" paint-order="stroke" d="M 61.73717498779297 183.09091186523438 L 177.2108612060547 183.09091186523438 L 177.2108612060547 498.9090881347656 L 61.73717498779297 498.9090881347656 L 61.73717498779297 183.09091186523438" fill-opacity="1" clip-path="url(#HtZpUnTzIErU)"/><path fill="rgb(105,29,48)" stroke="none" paint-order="stroke" d="M 199.33432006835938 183.09091186523438 L 204.4233160018921 183.09091186523438 L 204.4233160018921 498.9090881347656 L 199.33432006835938 498.9090881347656 L 199.33432006835938 183.09091186523438" fill-opacity="1" clip-path="url(#eoKLANkZQPxU)"/><path fill="rgb(143,45,86)" stroke="none" paint-order="stroke" d="M 58.5 551.5454711914062 L 184.7127227783203 551.5454711914062 L 184.7127227783203 604.1818351745605 L 58.5 604.1818351745605 L 58.5 551.5454711914062" fill-opacity="1" clip-path="url(#QvDrRSSBtSOz)"/><path fill="rgb(63,136,197)" stroke="none" paint-order="stroke" d="M 184.7127227783203 551.5454711914062 L 196.54444694519043 551.5454711914062 L 196.54444694519043 604.1818351745605 L 184.7127227783203 604.1818351745605 L 184.7127227783203 551.5454711914062" fill-opacity="1" clip-path="url(#QvDrRSSBtSOz)"/><path fill="rgb(81,60,99)" stroke="none" paint-order="stroke" d="M 196.54444885253906 551.5454711914062 L 204.42331886291504 551.5454711914062 L 204.42331886291504 604.1818351745605 L 196.54444885253906 604.1818351745605 L 196.54444885253906 551.5454711914062" fill-opacity="1" clip-path="url(#QvDrRSSBtSOz)"/><path fill="none" stroke="rgb(0,0,0)" paint-order="fill" d="M 58.5 77.81818389892578 L 204.42332458496094 77.81818389892578 L 204.42332458496094 604.1818313598633 L 58.5 604.1818313598633 L 58.5 77.81818389892578" stroke-opacity="1" stroke-linejoin="bevel" stroke-miterlimit="10" stroke-dasharray="" clip-path="url(#esDrmUuPteyN)"/><path fill="none" stroke="rgb(0,0,0)" paint-order="fill" d="M 58.5 630.5 L 1336.5 630.5" stroke-opacity="1" stroke-linejoin="bevel" stroke-miterlimit="10" stroke-dasharray=""/><path fill="none" stroke="rgb(0,0,0)" paint-order="fill" d="M 58.5 636.5 L 58.5 628.5 M 314.5 636.5 L 314.5 628.5 M 569.5 636.5 L 569.5 628.5 M 825.5 636.5 L 825.5 628.5 M 1080.5 636.5 L 1080.5 628.5 M 1336.5 636.5 L 1336.5 628.5" stroke-opacity="1" stroke-linejoin="bevel" stroke-miterlimit="10" stroke-dasharray=""/><path fill="none" stroke="rgb(0,0,0)" paint-order="fill" d="M 58.5 634.5 L 58.5 630.5 M 109.5 634.5 L 109.5 630.5 M 160.5 634.5 L 160.5 630.5 M 211.5 634.5 L 211.5 630.5 M 262.5 634.5 L 262.5 630.5 M 314.5 634.5 L 314.5 630.5 M 365.5 634.5 L 365.5 630.5 M 416.5 634.5 L 416.5 630.5 M 467.5 634.5 L 467.5 630.5 M 518.5 634.5 L 518.5 630.5 M 569.5 634.5 L 569.5 630.5 M 620.5 634.5 L 620.5 630.5 M 671.5 634.5 L 671.5 630.5 M 723.5 634.5 L 723.5 630.5 M 774.5 634.5 L 774.5 630.5 M 825.5 634.5 L 825.5 630.5 M 876.5 634.5 L 876.5 630.5 M 927.5 634.5 L 927.5 630.5 M 978.5 634.5 L 978.5 630.5 M 1029.5 634.5 L 1029.5 630.5 M 1080.5 634.5 L 1080.5 630.5 M 1132.5 634.5 L 1132.5 630.5 M 1183.5 634.5 L 1183.5 630.5 M 1234.5 634.5 L 1234.5 630.5 M 1285.5 634.5 L 1285.5 630.5 M 1336.5 634.5 L 1336.5 630.5" stroke-opacity="1" stroke-linejoin="bevel" stroke-miterlimit="10" stroke-dasharray=""/><text fill="rgb(68,68,68)" stroke="none" font-family="helvetica" font-size="11px" font-style="normal" font-weight="normal" text-decoration="normal" x="54.94166660308838" y="648.89013671875" text-anchor="start" dominant-baseline="alphabetic" transform="matrix(1, 0, 0, 1, 0.5, 0.5)" fill-opacity="1">0</text><text fill="rgb(68,68,68)" stroke="none" font-family="helvetica" font-size="11px" font-style="normal" font-weight="normal" text-decoration="normal" x="304.42500591278076" y="648.89013671875" text-anchor="start" dominant-baseline="alphabetic" transform="matrix(1, 0, 0, 1, 0.5, 0.5)" fill-opacity="1">200</text><text fill="rgb(68,68,68)" stroke="none" font-family="helvetica" font-size="11px" font-style="normal" font-weight="normal" text-decoration="normal" x="560.0250120162964" y="648.89013671875" text-anchor="start" dominant-baseline="alphabetic" transform="matrix(1, 0, 0, 1, 0.5, 0.5)" fill-opacity="1">400</text><text fill="rgb(68,68,68)" stroke="none" font-family="helvetica" font-size="11px" font-style="normal" font-weight="normal" text-decoration="normal" x="815.6249876022339" y="648.89013671875" text-anchor="start" dominant-baseline="alphabetic" transform="matrix(1, 0, 0, 1, 0.5, 0.5)" fill-opacity="1">600</text><text fill="rgb(68,68,68)" stroke="none" font-family="helvetica" font-size="11px" font-style="normal" font-weight="normal" text-decoration="normal" x="1071.2250242233276" y="648.89013671875" text-anchor="start" dominant-baseline="alphabetic" transform="matrix(1, 0, 0, 1, 0.5, 0.5)" fill-opacity="1">800</text><text fill="rgb(68,68,68)" stroke="none" font-family="helvetica" font-size="11px" font-style="normal" font-weight="normal" text-decoration="normal" x="1323.7666664123535" y="648.89013671875" text-anchor="start" dominant-baseline="alphabetic" transform="matrix(1, 0, 0, 1, 0.5, 0.5)" fill-opacity="1">1000</text><text fill="rgb(68,68,68)" stroke="none" font-family="helvetica" font-size="15pt" font-style="italic" font-weight="normal" text-decoration="normal" x="666.4416675567627" y="676.06982421875" text-anchor="start" dominant-baseline="alphabetic" transform="matrix(1, 0, 0, 1, 0.5, 0.5)" fill-opacity="1">time(s)</text><path fill="none" stroke="rgb(0,0,0)" paint-order="fill" d="M 58.5 630.5 L 58.5 51.5" stroke-opacity="1" stroke-linejoin="bevel" stroke-miterlimit="10" stroke-dasharray=""/><path fill="none" stroke="rgb(0,0,0)" paint-order="fill" d="M 52.5 551.5 L 60.5 551.5 M 52.5 446.5 L 60.5 446.5 M 52.5 341.5 L 60.5 341.5 M 52.5 235.5 L 60.5 235.5 M 52.5 130.5 L 60.5 130.5" stroke-opacity="1" stroke-linejoin="bevel" stroke-miterlimit="10" stroke-dasharray=""/><path fill="none" stroke="rgb(0,0,0)" paint-order="fill" d="M 54.5 572.5 L 58.5 572.5 M 54.5 593.5 L 58.5 593.5 M 54.5 614.5 L 58.5 614.5 M 54.5 551.5 L 58.5 551.5 M 54.5 530.5 L 58.5 530.5 M 54.5 509.5 L 58.5 509.5 M 54.5 488.5 L 58.5 488.5 M 54.5 467.5 L 58.5 467.5 M 54.5 446.5 L 58.5 446.5 M 54.5 425.5 L 58.5 425.5 M 54.5 404.5 L 58.5 404.5 M 54.5 383.5 L 58.5 383.5 M 54.5 362.5 L 58.5 362.5 M 54.5 341.5 L 58.5 341.5 M 54.5 319.5 L 58.5 319.5 M 54.5 298.5 L 58.5 298.5 M 54.5 277.5 L 58.5 277.5 M 54.5 256.5 L 58.5 256.5 M 54.5 235.5 L 58.5 235.5 M 54.5 214.5 L 58.5 214.5 M 54.5 193.5 L 58.5 193.5 M 54.5 172.5 L 58.5 172.5 M 54.5 151.5 L 58.5 151.5 M 54.5 130.5 L 58.5 130.5 M 54.5 109.5 L 58.5 109.5 M 54.5 88.5 L 58.5 88.5 M 54.5 67.5 L 58.5 67.5" stroke-opacity="1" stroke-linejoin="bevel" stroke-miterlimit="10" stroke-dasharray=""/><text fill="rgb(68,68,68)" stroke="none" font-family="helvetica" font-size="11px" font-style="normal" font-weight="normal" text-decoration="normal" x="34.46666622161865" y="554.9905395507812" text-anchor="start" dominant-baseline="alphabetic" transform="matrix(1, 0, 0, 1, 0.5, 0.5)" fill-opacity="1">−2</text><text fill="rgb(68,68,68)" stroke="none" font-family="helvetica" font-size="11px" font-style="normal" font-weight="normal" text-decoration="normal" x="34.46666622161865" y="449.7178039550781" text-anchor="start" dominant-baseline="alphabetic" transform="matrix(1, 0, 0, 1, 0.5, 0.5)" fill-opacity="1">−1</text><text fill="rgb(68,68,68)" stroke="none" font-family="helvetica" font-size="11px" font-style="normal" font-weight="normal" text-decoration="normal" x="40.88333320617676" y="344.445068359375" text-anchor="start" dominant-baseline="alphabetic" transform="matrix(1, 0, 0, 1, 0.5, 0.5)" fill-opacity="1">0</text><text fill="rgb(68,68,68)" stroke="none" font-family="helvetica" font-size="11px" font-style="normal" font-weight="normal" text-decoration="normal" x="40.88333320617676" y="239.17234802246094" text-anchor="start" dominant-baseline="alphabetic" transform="matrix(1, 0, 0, 1, 0.5, 0.5)" fill-opacity="1">1</text><text fill="rgb(68,68,68)" stroke="none" font-family="helvetica" font-size="11px" font-style="normal" font-weight="normal" text-decoration="normal" x="40.88333320617676" y="133.8996124267578" text-anchor="start" dominant-baseline="alphabetic" transform="matrix(1, 0, 0, 1, 0.5, 0.5)" fill-opacity="1">2</text><text fill="rgb(68,68,68)" stroke="none" font-family="helvetica" font-size="15pt" font-style="italic" font-weight="normal" text-decoration="normal" x="-11.316666603088379" y="336.076171875" text-anchor="start" dominant-baseline="alphabetic" transform="matrix(6.123233995736766e-17, -1, 1, 6.123233995736766e-17, -313.53333377838135, 367.46666622161865)" fill-opacity="1">students</text><path fill="rgb(255,255,255)" stroke="rgb(229,229,229)" paint-order="fill" d="M 1128.2333374023438 61.5 L 1326.5 61.5 L 1326.5 400.5 L 1128.2333374023438 400.5 L 1128.2333374023438 61.5" fill-opacity="0.9490196078431372" clip-path="url(#fkARAqoEaHqx)" stroke-opacity="0.5019607843137255" stroke-linejoin="bevel" stroke-miterlimit="10" stroke-dasharray=""/><g clip-path="url(#fkARAqoEaHqx)"><text fill="rgb(68,68,68)" stroke="none" font-family="helvetica" font-size="13px" font-style="normal" font-weight="normal" text-decoration="normal" x="1162.7333374023438" y="81" text-anchor="start" dominant-baseline="central" transform="matrix(1, 0, 0, 1, 0.5, 0.5)" fill-opacity="1">wavelength</text></g><path fill="rgb(0,255,40)" stroke="none" paint-order="stroke" d="M 1140.2333374023438 73.5 L 1156.2333374023438 73.5 L 1156.2333374023438 89.5 L 1140.2333374023438 89.5 L 1140.2333374023438 73.5" fill-opacity="1" clip-path="url(#fkARAqoEaHqx)"/><path fill="rgb(216,17,89)" stroke="none" paint-order="stroke" d="M 1140.2333374023438 73.5 L 1156.2333374023438 73.5 L 1156.2333374023438 89.5 L 1140.2333374023438 89.5 L 1140.2333374023438 73.5" fill-opacity="1" clip-path="url(#fkARAqoEaHqx)"/><g clip-path="url(#fkARAqoEaHqx)"><text fill="rgb(68,68,68)" stroke="none" font-family="helvetica" font-size="13px" font-style="normal" font-weight="normal" text-decoration="normal" x="1162.7333374023438" y="104" text-anchor="start" dominant-baseline="central" transform="matrix(1, 0, 0, 1, 0.5, 0.5)" fill-opacity="1">solution</text></g><path fill="rgb(251,0,7)" stroke="none" paint-order="stroke" d="M 1140.2333374023438 96.5 L 1156.2333374023438 96.5 L 1156.2333374023438 112.5 L 1140.2333374023438 112.5 L 1140.2333374023438 96.5" fill-opacity="1" clip-path="url(#fkARAqoEaHqx)"/><path fill="rgb(33,131,128)" stroke="none" paint-order="stroke" d="M 1140.2333374023438 96.5 L 1156.2333374023438 96.5 L 1156.2333374023438 112.5 L 1140.2333374023438 112.5 L 1140.2333374023438 96.5" fill-opacity="1" clip-path="url(#fkARAqoEaHqx)"/><g clip-path="url(#fkARAqoEaHqx)"><text fill="rgb(68,68,68)" stroke="none" font-family="helvetica" font-size="13px" font-style="normal" font-weight="normal" text-decoration="normal" x="1162.7333374023438" y="127" text-anchor="start" dominant-baseline="central" transform="matrix(1, 0, 0, 1, 0.5, 0.5)" fill-opacity="1">laser</text></g><path fill="rgb(105,29,48)" stroke="none" paint-order="stroke" d="M 1140.2333374023438 119.5 L 1156.2333374023438 119.5 L 1156.2333374023438 135.5 L 1140.2333374023438 135.5 L 1140.2333374023438 119.5" fill-opacity="1" clip-path="url(#fkARAqoEaHqx)"/><g clip-path="url(#fkARAqoEaHqx)"><text fill="rgb(68,68,68)" stroke="none" font-family="helvetica" font-size="13px" font-style="normal" font-weight="normal" text-decoration="normal" x="1162.7333374023438" y="150" text-anchor="start" dominant-baseline="central" transform="matrix(1, 0, 0, 1, 0.5, 0.5)" fill-opacity="1">ruler</text></g><g clip-path="url(#fkARAqoEaHqx)"><text fill="rgb(68,68,68)" stroke="none" font-family="helvetica" font-size="13px" font-style="normal" font-weight="normal" text-decoration="normal" x="1162.7333374023438" y="173" text-anchor="start" dominant-baseline="central" transform="matrix(1, 0, 0, 1, 0.5, 0.5)" fill-opacity="1">restarts</text></g><g clip-path="url(#fkARAqoEaHqx)"><text fill="rgb(68,68,68)" stroke="none" font-family="helvetica" font-size="13px" font-style="normal" font-weight="normal" text-decoration="normal" x="1162.7333374023438" y="196" text-anchor="start" dominant-baseline="central" transform="matrix(1, 0, 0, 1, 0.5, 0.5)" fill-opacity="1">transmittance_absorbance</text></g><path fill="rgb(162,174,187)" stroke="none" paint-order="stroke" d="M 1140.2333374023438 188.5 L 1156.2333374023438 188.5 L 1156.2333374023438 204.5 L 1140.2333374023438 204.5 L 1140.2333374023438 188.5" fill-opacity="1" clip-path="url(#fkARAqoEaHqx)"/><g clip-path="url(#fkARAqoEaHqx)"><text fill="rgb(68,68,68)" stroke="none" font-family="helvetica" font-size="13px" font-style="normal" font-weight="normal" text-decoration="normal" x="1162.7333374023438" y="219" text-anchor="start" dominant-baseline="central" transform="matrix(1, 0, 0, 1, 0.5, 0.5)" fill-opacity="1">magnifier</text></g><g clip-path="url(#fkARAqoEaHqx)"><text fill="rgb(68,68,68)" stroke="none" font-family="helvetica" font-size="13px" font-style="normal" font-weight="normal" text-decoration="normal" x="1162.7333374023438" y="242" text-anchor="start" dominant-baseline="central" transform="matrix(1, 0, 0, 1, 0.5, 0.5)" fill-opacity="1">concentration</text></g><path fill="rgb(115,210,222)" stroke="none" paint-order="stroke" d="M 1140.2333374023438 234.5 L 1156.2333374023438 234.5 L 1156.2333374023438 250.5 L 1140.2333374023438 250.5 L 1140.2333374023438 234.5" fill-opacity="1" clip-path="url(#fkARAqoEaHqx)"/><g clip-path="url(#fkARAqoEaHqx)"><text fill="rgb(68,68,68)" stroke="none" font-family="helvetica" font-size="13px" font-style="normal" font-weight="normal" text-decoration="normal" x="1162.7333374023438" y="265" text-anchor="start" dominant-baseline="central" transform="matrix(1, 0, 0, 1, 0.5, 0.5)" fill-opacity="1">flask</text></g><g clip-path="url(#fkARAqoEaHqx)"><text fill="rgb(68,68,68)" stroke="none" font-family="helvetica" font-size="13px" font-style="normal" font-weight="normal" text-decoration="normal" x="1162.7333374023438" y="288" text-anchor="start" dominant-baseline="central" transform="matrix(1, 0, 0, 1, 0.5, 0.5)" fill-opacity="1">pdf</text></g><path fill="rgb(239,185,203)" stroke="none" paint-order="stroke" d="M 1140.2333374023438 280.5 L 1156.2333374023438 280.5 L 1156.2333374023438 296.5 L 1140.2333374023438 296.5 L 1140.2333374023438 280.5" fill-opacity="1" clip-path="url(#fkARAqoEaHqx)"/><g clip-path="url(#fkARAqoEaHqx)"><text fill="rgb(68,68,68)" stroke="none" font-family="helvetica" font-size="13px" font-style="normal" font-weight="normal" text-decoration="normal" x="1162.7333374023438" y="311" text-anchor="start" dominant-baseline="central" transform="matrix(1, 0, 0, 1, 0.5, 0.5)" fill-opacity="1">concentrationlab</text></g><g clip-path="url(#fkARAqoEaHqx)"><text fill="rgb(68,68,68)" stroke="none" font-family="helvetica" font-size="13px" font-style="normal" font-weight="normal" text-decoration="normal" x="1162.7333374023438" y="334" text-anchor="start" dominant-baseline="central" transform="matrix(1, 0, 0, 1, 0.5, 0.5)" fill-opacity="1">wavelength_slider</text></g><path fill="rgb(105,29,48)" stroke="none" paint-order="stroke" d="M 1140.2333374023438 326.5 L 1156.2333374023438 326.5 L 1156.2333374023438 342.5 L 1140.2333374023438 342.5 L 1140.2333374023438 326.5" fill-opacity="1" clip-path="url(#fkARAqoEaHqx)"/><g clip-path="url(#fkARAqoEaHqx)"><text fill="rgb(68,68,68)" stroke="none" font-family="helvetica" font-size="13px" font-style="normal" font-weight="normal" text-decoration="normal" x="1162.7333374023438" y="357" text-anchor="start" dominant-baseline="central" transform="matrix(1, 0, 0, 1, 0.5, 0.5)" fill-opacity="1">ruler measuring</text></g><g clip-path="url(#fkARAqoEaHqx)"><text fill="rgb(68,68,68)" stroke="none" font-family="helvetica" font-size="13px" font-style="normal" font-weight="normal" text-decoration="normal" x="1162.7333374023438" y="380" text-anchor="start" dominant-baseline="central" transform="matrix(1, 0, 0, 1, 0.5, 0.5)" fill-opacity="1">dependent variable</text></g><path fill="rgb(143,45,86)" stroke="none" paint-order="stroke" d="M 1140.2333374023438 372.5 L 1156.2333374023438 372.5 L 1156.2333374023438 388.5 L 1140.2333374023438 388.5 L 1140.2333374023438 372.5" fill-opacity="1" clip-path="url(#fkARAqoEaHqx)"/><text fill="rgb(68,68,68)" stroke="none" font-family="helvetica" font-size="25pt" font-style="normal" font-weight="bold" text-decoration="normal" x="58" y="38.740885416666664" text-anchor="start" dominant-baseline="alphabetic" transform="matrix(1, 0, 0, 1, 0.5, 0.5)" fill-opacity="1">Timeline for student qvna6pyz with permutation 0132 for task 3</text></svg>