<svg version="1.1" xmlns="http://www.w3.org/2000/svg" width="1366" height="683"><defs><clipPath id="KvydGAOhKaMh"><path fill="none" stroke="none" d="M 58.5 51.5 L 1336.5 51.5 L 1336.5 630.5 L 58.5 630.5 L 58.5 51.5"/></clipPath><clipPath id="onXPUTVnDOOb"><path fill="none" stroke="none" d="M 58.5 51.5 L 1336.5 51.5 L 1336.5 630.5 L 58.5 630.5 L 58.5 51.5"/></clipPath><clipPath id="bQUpCxkSsKgV"><path fill="none" stroke="none" d="M 58.5 51.5 L 1336.5 51.5 L 1336.5 630.5 L 58.5 630.5 L 58.5 51.5"/></clipPath><clipPath id="ARthvNNIvwKX"><path fill="none" stroke="none" d="M 58.5 51.5 L 1336.5 51.5 L 1336.5 630.5 L 58.5 630.5 L 58.5 51.5"/></clipPath><clipPath id="MBeDCLBRDuOn"><path fill="none" stroke="none" d="M 58.5 51.5 L 1336.5 51.5 L 1336.5 630.5 L 58.5 630.5 L 58.5 51.5"/></clipPath><clipPath id="rTbeqwVMZJig"><path fill="none" stroke="none" d="M 58.5 51.5 L 1336.5 51.5 L 1336.5 630.5 L 58.5 630.5 L 58.5 51.5"/></clipPath><clipPath id="faVTDTPrgaMn"><path fill="none" stroke="none" d="M 58.5 51.5 L 1336.5 51.5 L 1336.5 630.5 L 58.5 630.5 L 58.5 51.5"/></clipPath><clipPath id="VDKuAlvAGAMS"><path fill="none" stroke="none" d="M 58.5 51.5 L 1336.5 51.5 L 1336.5 630.5 L 58.5 630.5 L 58.5 51.5"/></clipPath><clipPath id="nIwBaPTbQwqP"><path fill="none" stroke="none" d="M 58.5 51.5 L 1336.5 51.5 L 1336.5 630.5 L 58.5 630.5 L 58.5 51.5"/></clipPath><clipPath id="HmyRnwOpvpsM"><path fill="none" stroke="none" d="M 58.5 51.5 L 1336.5 51.5 L 1336.5 630.5 L 58.5 630.5 L 58.5 51.5"/></clipPath><clipPath id="RlpNoXfRmsyP"><path fill="none" stroke="none" d="M 58.5 51.5 L 1336.5 51.5 L 1336.5 630.5 L 58.5 630.5 L 58.5 51.5"/></clipPath><clipPath id="nHTOVFCmpfli"><path fill="none" stroke="none" d="M 58.5 51.5 L 1336.5 51.5 L 1336.5 630.5 L 58.5 630.5 L 58.5 51.5"/></clipPath><clipPath id="SwEvKDbQmBDV"><path fill="none" stroke="none" d="M 58.5 51.5 L 1336.5 51.5 L 1336.5 630.5 L 58.5 630.5 L 58.5 51.5"/></clipPath><clipPath id="SwDTAupbLDiN"><path fill="none" stroke="none" d="M 58.5 51.5 L 1336.5 51.5 L 1336.5 630.5 L 58.5 630.5 L 58.5 51.5"/></clipPath><clipPath id="GddhBPkSkVKo"><path fill="none" stroke="none" d="M 58.5 51.5 L 1336.5 51.5 L 1336.5 630.5 L 58.5 630.5 L 58.5 51.5"/></clipPath><clipPath id="AqhcsKWTLVxo"><path fill="none" stroke="none" d="M 58.5 51.5 L 1336.5 51.5 L 1336.5 630.5 L 58.5 630.5 L 58.5 51.5"/></clipPath><clipPath id="LUVduWVxDqMd"><path fill="none" stroke="none" d="M 58.5 51.5 L 1336.5 51.5 L 1336.5 630.5 L 58.5 630.5 L 58.5 51.5"/></clipPath><clipPath id="dTSxvDgNymZk"><path fill="none" stroke="none" d="M 58.5 51.5 L 1336.5 51.5 L 1336.5 630.5 L 58.5 630.5 L 58.5 51.5"/></clipPath><clipPath id="BGuOZIhvhBCH"><path fill="none" stroke="none" d="M 58.5 51.5 L 1336.5 51.5 L 1336.5 630.5 L 58.5 630.5 L 58.5 51.5"/></clipPath><clipPath id="IVbmOCvdMKXc"><path fill="none" stroke="none" d="M 58.5 51.5 L 1336.5 51.5 L 1336.5 630.5 L 58.5 630.5 L 58.5 51.5"/></clipPath><clipPath id="wBSGSWQZzOzQ"><path fill="none" stroke="none" d="M 58.5 51.5 L 1336.5 51.5 L 1336.5 630.5 L 58.5 630.5 L 58.5 51.5"/></clipPath></defs><path fill="rgb(255,255,255)" stroke="none" paint-order="stroke" d="M 0.5 0.5 L 1366.5 0.5 L 1366.5 683.5 L 0.5 683.5 L 0.5 0.5" fill-opacity="1"/><rect fill="#FFFFFF" stroke="none" x="58" y="51" width="1278" height="579" transform="matrix(1, 0, 0, 1, 0.5, 0.5)"/><path fill="rgb(255,255,255)" stroke="none" paint-order="stroke" d="M 58.5 51.5 L 1336.5 51.5 L 1336.5 630.5 L 58.5 630.5 L 58.5 51.5" fill-opacity="1"/><path fill="none" stroke="rgb(229,229,229)" paint-order="fill" d="M 58.5 51.5 L 1336.5 51.5 L 1336.5 630.5 L 58.5 630.5 L 58.5 51.5" stroke-opacity="1" stroke-linejoin="bevel" stroke-miterlimit="10" stroke-dasharray=""/><path fill="none" stroke="rgb(229,229,229)" paint-order="fill" d="M 314.5 630.5 L 314.5 51.5 M 569.5 630.5 L 569.5 51.5 M 825.5 630.5 L 825.5 51.5 M 1080.5 630.5 L 1080.5 51.5" stroke-opacity="1" stroke-linejoin="bevel" stroke-miterlimit="10" stroke-dasharray="" clip-path="url(#KvydGAOhKaMh)"/><path fill="none" stroke="rgb(229,229,229)" paint-order="fill" d="M 58.5 551.5 L 1336.5 551.5 M 58.5 446.5 L 1336.5 446.5 M 58.5 341.5 L 1336.5 341.5 M 58.5 235.5 L 1336.5 235.5 M 58.5 130.5 L 1336.5 130.5" stroke-opacity="1" stroke-linejoin="bevel" stroke-miterlimit="10" stroke-dasharray="" clip-path="url(#onXPUTVnDOOb)"/><path fill="rgb(0,255,40)" stroke="none" paint-order="stroke" d="M 58.5 77.81818389892578 L 283.1353454589844 77.81818389892578 L 283.1353454589844 130.45454788208008 L 58.5 130.45454788208008 L 58.5 77.81818389892578" fill-opacity="1" clip-path="url(#bQUpCxkSsKgV)"/><path fill="rgb(0,255,55)" stroke="none" paint-order="stroke" d="M 283.1353454589844 77.81818389892578 L 283.33854745328426 77.81818389892578 L 283.33854745328426 130.45454788208008 L 283.1353454589844 130.45454788208008 L 283.1353454589844 77.81818389892578" fill-opacity="1" clip-path="url(#bQUpCxkSsKgV)"/><path fill="rgb(0,255,70)" stroke="none" paint-order="stroke" d="M 283.3385314941406 77.81818389892578 L 283.5238415002823 77.81818389892578 L 283.5238415002823 130.45454788208008 L 283.3385314941406 130.45454788208008 L 283.3385314941406 77.81818389892578" fill-opacity="1" clip-path="url(#bQUpCxkSsKgV)"/><path fill="rgb(0,255,84)" stroke="none" paint-order="stroke" d="M 283.52386474609375 77.81818389892578 L 283.69895075261593 77.81818389892578 L 283.69895075261593 130.45454788208008 L 283.52386474609375 130.45454788208008 L 283.52386474609375 77.81818389892578" fill-opacity="1" clip-path="url(#bQUpCxkSsKgV)"/><path fill="rgb(0,255,97)" stroke="none" paint-order="stroke" d="M 283.6989440917969 77.81818389892578 L 283.8868100941181 77.81818389892578 L 283.8868100941181 130.45454788208008 L 283.6989440917969 130.45454788208008 L 283.6989440917969 77.81818389892578" fill-opacity="1" clip-path="url(#bQUpCxkSsKgV)"/><path fill="rgb(0,255,110)" stroke="none" paint-order="stroke" d="M 283.8868103027344 77.81818389892578 L 284.1040703058243 77.81818389892578 L 284.1040703058243 130.45454788208008 L 283.8868103027344 130.45454788208008 L 283.8868103027344 77.81818389892578" fill-opacity="1" clip-path="url(#bQUpCxkSsKgV)"/><path fill="rgb(0,255,122)" stroke="none" paint-order="stroke" d="M 284.10406494140625 77.81818389892578 L 284.29576493799686 77.81818389892578 L 284.29576493799686 130.45454788208008 L 284.10406494140625 130.45454788208008 L 284.10406494140625 77.81818389892578" fill-opacity="1" clip-path="url(#bQUpCxkSsKgV)"/><path fill="rgb(0,255,134)" stroke="none" paint-order="stroke" d="M 284.2957763671875 77.81818389892578 L 284.5117583721876 77.81818389892578 L 284.5117583721876 130.45454788208008 L 284.2957763671875 130.45454788208008 L 284.2957763671875 77.81818389892578" fill-opacity="1" clip-path="url(#bQUpCxkSsKgV)"/><path fill="rgb(0,255,146)" stroke="none" paint-order="stroke" d="M 284.5117492675781 77.81818389892578 L 284.6983372718096 77.81818389892578 L 284.6983372718096 130.45454788208008 L 284.5117492675781 130.45454788208008 L 284.5117492675781 77.81818389892578" fill-opacity="1" clip-path="url(#bQUpCxkSsKgV)"/><path fill="rgb(0,255,158)" stroke="none" paint-order="stroke" d="M 284.6983337402344 77.81818389892578 L 284.8861997425556 77.81818389892578 L 284.8861997425556 130.45454788208008 L 284.6983337402344 130.45454788208008 L 284.6983337402344 77.81818389892578" fill-opacity="1" clip-path="url(#bQUpCxkSsKgV)"/><path fill="rgb(0,255,169)" stroke="none" paint-order="stroke" d="M 284.8861999511719 77.81818389892578 L 286.2753859758377 77.81818389892578 L 286.2753859758377 130.45454788208008 L 284.8861999511719 130.45454788208008 L 284.8861999511719 77.81818389892578" fill-opacity="1" clip-path="url(#bQUpCxkSsKgV)"/><path fill="rgb(0,255,134)" stroke="none" paint-order="stroke" d="M 286.275390625 77.81818389892578 L 286.29456062428653 77.81818389892578 L 286.29456062428653 130.45454788208008 L 286.275390625 130.45454788208008 L 286.275390625 77.81818389892578" fill-opacity="1" clip-path="url(#bQUpCxkSsKgV)"/><path fill="rgb(0,255,84)" stroke="none" paint-order="stroke" d="M 286.2945556640625 77.81818389892578 L 286.3162816632539 77.81818389892578 L 286.3162816632539 130.45454788208008 L 286.2945556640625 130.45454788208008 L 286.2945556640625 77.81818389892578" fill-opacity="1" clip-path="url(#bQUpCxkSsKgV)"/><path fill="rgb(14,255,0)" stroke="none" paint-order="stroke" d="M 286.3162841796875 77.81818389892578 L 286.33673217892647 77.81818389892578 L 286.33673217892647 130.45454788208008 L 286.3162841796875 130.45454788208008 L 286.3162841796875 77.81818389892578" fill-opacity="1" clip-path="url(#bQUpCxkSsKgV)"/><path fill="rgb(35,255,0)" stroke="none" paint-order="stroke" d="M 286.33673095703125 77.81818389892578 L 286.3597349561751 77.81818389892578 L 286.3597349561751 130.45454788208008 L 286.33673095703125 130.45454788208008 L 286.33673095703125 77.81818389892578" fill-opacity="1" clip-path="url(#bQUpCxkSsKgV)"/><path fill="rgb(53,255,0)" stroke="none" paint-order="stroke" d="M 286.3597412109375 77.81818389892578 L 286.38018921017647 77.81818389892578 L 286.38018921017647 130.45454788208008 L 286.3597412109375 130.45454788208008 L 286.3597412109375 77.81818389892578" fill-opacity="1" clip-path="url(#bQUpCxkSsKgV)"/><path fill="rgb(86,255,0)" stroke="none" paint-order="stroke" d="M 286.38018798828125 77.81818389892578 L 286.40191398747265 77.81818389892578 L 286.40191398747265 130.45454788208008 L 286.38018798828125 130.45454788208008 L 286.38018798828125 77.81818389892578" fill-opacity="1" clip-path="url(#bQUpCxkSsKgV)"/><path fill="rgb(101,255,0)" stroke="none" paint-order="stroke" d="M 286.40191650390625 77.81818389892578 L 286.42364250309765 77.81818389892578 L 286.42364250309765 130.45454788208008 L 286.40191650390625 130.45454788208008 L 286.40191650390625 77.81818389892578" fill-opacity="1" clip-path="url(#bQUpCxkSsKgV)"/><path fill="rgb(115,255,0)" stroke="none" paint-order="stroke" d="M 286.42364501953125 77.81818389892578 L 286.46581901982427 77.81818389892578 L 286.46581901982427 130.45454788208008 L 286.42364501953125 130.45454788208008 L 286.42364501953125 77.81818389892578" fill-opacity="1" clip-path="url(#bQUpCxkSsKgV)"/><path fill="rgb(126,255,0)" stroke="none" paint-order="stroke" d="M 286.4658203125 77.81818389892578 L 286.507994312793 77.81818389892578 L 286.507994312793 130.45454788208008 L 286.4658203125 130.45454788208008 L 286.4658203125 77.81818389892578" fill-opacity="1" clip-path="url(#bQUpCxkSsKgV)"/><path fill="rgb(153,255,0)" stroke="none" paint-order="stroke" d="M 286.5079650878906 77.81818389892578 L 286.5718650892377 77.81818389892578 L 286.5718650892377 130.45454788208008 L 286.5079650878906 130.45454788208008 L 286.5079650878906 77.81818389892578" fill-opacity="1" clip-path="url(#bQUpCxkSsKgV)"/><path fill="rgb(166,255,0)" stroke="none" paint-order="stroke" d="M 286.5718688964844 77.81818389892578 L 287.38212090730667 77.81818389892578 L 287.38212090730667 130.45454788208008 L 286.5718688964844 130.45454788208008 L 286.5718688964844 77.81818389892578" fill-opacity="1" clip-path="url(#bQUpCxkSsKgV)"/><path fill="rgb(179,255,0)" stroke="none" paint-order="stroke" d="M 287.38214111328125 77.81818389892578 L 287.4664891138673 77.81818389892578 L 287.4664891138673 130.45454788208008 L 287.38214111328125 130.45454788208008 L 287.38214111328125 77.81818389892578" fill-opacity="1" clip-path="url(#bQUpCxkSsKgV)"/><path fill="rgb(191,255,0)" stroke="none" paint-order="stroke" d="M 287.46649169921875 77.81818389892578 L 287.50994369760156 77.81818389892578 L 287.50994369760156 130.45454788208008 L 287.46649169921875 130.45454788208008 L 287.46649169921875 77.81818389892578" fill-opacity="1" clip-path="url(#bQUpCxkSsKgV)"/><path fill="rgb(204,255,0)" stroke="none" paint-order="stroke" d="M 287.5099182128906 77.81818389892578 L 287.55209221318364 77.81818389892578 L 287.55209221318364 130.45454788208008 L 287.5099182128906 130.45454788208008 L 287.5099182128906 77.81818389892578" fill-opacity="1" clip-path="url(#bQUpCxkSsKgV)"/><path fill="rgb(213,255,0)" stroke="none" paint-order="stroke" d="M 287.5520935058594 77.81818389892578 L 287.65816750377417 77.81818389892578 L 287.65816750377417 130.45454788208008 L 287.5520935058594 130.45454788208008 L 287.5520935058594 77.81818389892578" fill-opacity="1" clip-path="url(#bQUpCxkSsKgV)"/><path fill="rgb(225,255,0)" stroke="none" paint-order="stroke" d="M 287.6581726074219 77.81818389892578 L 287.7437986060977 77.81818389892578 L 287.7437986060977 130.45454788208008 L 287.6581726074219 130.45454788208008 L 287.6581726074219 77.81818389892578" fill-opacity="1" clip-path="url(#bQUpCxkSsKgV)"/><path fill="rgb(237,255,0)" stroke="none" paint-order="stroke" d="M 287.7438049316406 77.81818389892578 L 288.12976092100143 77.81818389892578 L 288.12976092100143 130.45454788208008 L 287.7438049316406 130.45454788208008 L 287.7438049316406 77.81818389892578" fill-opacity="1" clip-path="url(#bQUpCxkSsKgV)"/><path fill="rgb(213,255,0)" stroke="none" paint-order="stroke" d="M 288.1297607421875 77.81818389892578 L 288.1911047436297 77.81818389892578 L 288.1911047436297 130.45454788208008 L 288.1297607421875 130.45454788208008 L 288.1297607421875 77.81818389892578" fill-opacity="1" clip-path="url(#bQUpCxkSsKgV)"/><path fill="rgb(204,255,0)" stroke="none" paint-order="stroke" d="M 288.19110107421875 77.81818389892578 L 288.21282707341015 77.81818389892578 L 288.21282707341015 130.45454788208008 L 288.19110107421875 130.45454788208008 L 288.19110107421875 77.81818389892578" fill-opacity="1" clip-path="url(#bQUpCxkSsKgV)"/><path fill="rgb(191,255,0)" stroke="none" paint-order="stroke" d="M 288.21282958984375 77.81818389892578 L 288.31890358775854 77.81818389892578 L 288.31890358775854 130.45454788208008 L 288.21282958984375 130.45454788208008 L 288.21282958984375 77.81818389892578" fill-opacity="1" clip-path="url(#bQUpCxkSsKgV)"/><path fill="rgb(179,255,0)" stroke="none" paint-order="stroke" d="M 288.31890869140625 77.81818389892578 L 288.36236068978906 77.81818389892578 L 288.36236068978906 130.45454788208008 L 288.31890869140625 130.45454788208008 L 288.31890869140625 77.81818389892578" fill-opacity="1" clip-path="url(#bQUpCxkSsKgV)"/><path fill="rgb(166,255,0)" stroke="none" paint-order="stroke" d="M 288.36236572265625 77.81818389892578 L 288.49144372344017 77.81818389892578 L 288.49144372344017 130.45454788208008 L 288.36236572265625 130.45454788208008 L 288.36236572265625 77.81818389892578" fill-opacity="1" clip-path="url(#bQUpCxkSsKgV)"/><path fill="rgb(153,255,0)" stroke="none" paint-order="stroke" d="M 288.4914245605469 77.81818389892578 L 288.5323205590248 77.81818389892578 L 288.5323205590248 130.45454788208008 L 288.4914245605469 130.45454788208008 L 288.4914245605469 77.81818389892578" fill-opacity="1" clip-path="url(#bQUpCxkSsKgV)"/><path fill="rgb(126,255,0)" stroke="none" paint-order="stroke" d="M 288.5323181152344 77.81818389892578 L 288.6166661158204 77.81818389892578 L 288.6166661158204 130.45454788208008 L 288.5323181152344 130.45454788208008 L 288.5323181152344 77.81818389892578" fill-opacity="1" clip-path="url(#bQUpCxkSsKgV)"/><path fill="rgb(115,255,0)" stroke="none" paint-order="stroke" d="M 288.6166687011719 77.81818389892578 L 290.25634264945984 77.81818389892578 L 290.25634264945984 130.45454788208008 L 288.6166687011719 130.45454788208008 L 288.6166687011719 77.81818389892578" fill-opacity="1" clip-path="url(#bQUpCxkSsKgV)"/><path fill="rgb(101,255,0)" stroke="none" paint-order="stroke" d="M 290.25634765625 77.81818389892578 L 290.57584765553474 77.81818389892578 L 290.57584765553474 130.45454788208008 L 290.25634765625 130.45454788208008 L 290.25634765625 77.81818389892578" fill-opacity="1" clip-path="url(#bQUpCxkSsKgV)"/><path fill="rgb(86,255,0)" stroke="none" paint-order="stroke" d="M 290.57586669921875 77.81818389892578 L 290.68194069713354 77.81818389892578 L 290.68194069713354 130.45454788208008 L 290.57586669921875 130.45454788208008 L 290.57586669921875 77.81818389892578" fill-opacity="1" clip-path="url(#bQUpCxkSsKgV)"/><path fill="rgb(70,255,0)" stroke="none" paint-order="stroke" d="M 290.6819152832031 77.81818389892578 L 290.80971528589725 77.81818389892578 L 290.80971528589725 130.45454788208008 L 290.6819152832031 130.45454788208008 L 290.6819152832031 77.81818389892578" fill-opacity="1" clip-path="url(#bQUpCxkSsKgV)"/><path fill="rgb(53,255,0)" stroke="none" paint-order="stroke" d="M 290.8097229003906 77.81818389892578 L 291.6199749112129 77.81818389892578 L 291.6199749112129 130.45454788208008 L 290.8097229003906 130.45454788208008 L 290.8097229003906 77.81818389892578" fill-opacity="1" clip-path="url(#bQUpCxkSsKgV)"/><path fill="rgb(35,255,0)" stroke="none" paint-order="stroke" d="M 291.6199951171875 77.81818389892578 L 293.90761518478394 77.81818389892578 L 293.90761518478394 130.45454788208008 L 291.6199951171875 130.45454788208008 L 291.6199951171875 77.81818389892578" fill-opacity="1" clip-path="url(#bQUpCxkSsKgV)"/><path fill="rgb(30,255,0)" stroke="none" paint-order="stroke" d="M 293.9075927734375 77.81818389892578 L 294.1235747784376 77.81818389892578 L 294.1235747784376 130.45454788208008 L 293.9075927734375 130.45454788208008 L 293.9075927734375 77.81818389892578" fill-opacity="1" clip-path="url(#bQUpCxkSsKgV)"/><path fill="rgb(25,255,0)" stroke="none" paint-order="stroke" d="M 294.12359619140625 77.81818389892578 L 294.5478921830654 77.81818389892578 L 294.5478921830654 130.45454788208008 L 294.12359619140625 130.45454788208008 L 294.12359619140625 77.81818389892578" fill-opacity="1" clip-path="url(#bQUpCxkSsKgV)"/><path fill="rgb(20,255,0)" stroke="none" paint-order="stroke" d="M 294.5478820800781 77.81818389892578 L 294.8865520656109 77.81818389892578 L 294.8865520656109 130.45454788208008 L 294.5478820800781 130.45454788208008 L 294.5478820800781 77.81818389892578" fill-opacity="1" clip-path="url(#bQUpCxkSsKgV)"/><path fill="rgb(14,255,0)" stroke="none" paint-order="stroke" d="M 294.88653564453125 77.81818389892578 L 295.0910156518221 77.81818389892578 L 295.0910156518221 130.45454788208008 L 294.88653564453125 130.45454788208008 L 294.88653564453125 77.81818389892578" fill-opacity="1" clip-path="url(#bQUpCxkSsKgV)"/><path fill="rgb(8,255,0)" stroke="none" paint-order="stroke" d="M 295.0910339355469 77.81818389892578 L 295.3696379363537 77.81818389892578 L 295.3696379363537 130.45454788208008 L 295.0910339355469 130.45454788208008 L 295.0910339355469 77.81818389892578" fill-opacity="1" clip-path="url(#bQUpCxkSsKgV)"/><path fill="rgb(0,255,0)" stroke="none" paint-order="stroke" d="M 295.36962890625 77.81818389892578 L 295.7453609108925 77.81818389892578 L 295.7453609108925 130.45454788208008 L 295.36962890625 130.45454788208008 L 295.36962890625 77.81818389892578" fill-opacity="1" clip-path="url(#bQUpCxkSsKgV)"/><path fill="rgb(0,255,23)" stroke="none" paint-order="stroke" d="M 295.745361328125 77.81818389892578 L 295.9370613247156 77.81818389892578 L 295.9370613247156 130.45454788208008 L 295.745361328125 130.45454788208008 L 295.745361328125 77.81818389892578" fill-opacity="1" clip-path="url(#bQUpCxkSsKgV)"/><path fill="rgb(0,255,40)" stroke="none" paint-order="stroke" d="M 295.93707275390625 77.81818389892578 L 296.13644075393677 77.81818389892578 L 296.13644075393677 130.45454788208008 L 295.93707275390625 130.45454788208008 L 295.93707275390625 77.81818389892578" fill-opacity="1" clip-path="url(#bQUpCxkSsKgV)"/><path fill="rgb(0,255,55)" stroke="none" paint-order="stroke" d="M 296.1364440917969 77.81818389892578 L 296.3230320960283 77.81818389892578 L 296.3230320960283 130.45454788208008 L 296.1364440917969 130.45454788208008 L 296.1364440917969 77.81818389892578" fill-opacity="1" clip-path="url(#bQUpCxkSsKgV)"/><path fill="rgb(0,255,70)" stroke="none" paint-order="stroke" d="M 296.3230285644531 77.81818389892578 L 296.71281856298447 77.81818389892578 L 296.71281856298447 130.45454788208008 L 296.3230285644531 130.45454788208008 L 296.3230285644531 77.81818389892578" fill-opacity="1" clip-path="url(#bQUpCxkSsKgV)"/><path fill="rgb(0,255,84)" stroke="none" paint-order="stroke" d="M 296.7127990722656 77.81818389892578 L 296.9160010665655 77.81818389892578 L 296.9160010665655 130.45454788208008 L 296.7127990722656 130.45454788208008 L 296.7127990722656 77.81818389892578" fill-opacity="1" clip-path="url(#bQUpCxkSsKgV)"/><path fill="rgb(0,255,97)" stroke="none" paint-order="stroke" d="M 296.916015625 77.81818389892578 L 297.1064376235008 77.81818389892578 L 297.1064376235008 130.45454788208008 L 296.916015625 130.45454788208008 L 296.916015625 77.81818389892578" fill-opacity="1" clip-path="url(#bQUpCxkSsKgV)"/><path fill="rgb(0,255,110)" stroke="none" paint-order="stroke" d="M 297.1064453125 77.81818389892578 L 297.3083693087101 77.81818389892578 L 297.3083693087101 130.45454788208008 L 297.1064453125 130.45454788208008 L 297.1064453125 77.81818389892578" fill-opacity="1" clip-path="url(#bQUpCxkSsKgV)"/><path fill="rgb(0,255,122)" stroke="none" paint-order="stroke" d="M 297.308349609375 77.81818389892578 L 297.5089956074953 77.81818389892578 L 297.5089956074953 130.45454788208008 L 297.308349609375 130.45454788208008 L 297.308349609375 77.81818389892578" fill-opacity="1" clip-path="url(#bQUpCxkSsKgV)"/><path fill="rgb(0,255,134)" stroke="none" paint-order="stroke" d="M 297.5090026855469 77.81818389892578 L 297.6955906897783 77.81818389892578 L 297.6955906897783 130.45454788208008 L 297.5090026855469 130.45454788208008 L 297.5090026855469 77.81818389892578" fill-opacity="1" clip-path="url(#bQUpCxkSsKgV)"/><path fill="rgb(0,255,146)" stroke="none" paint-order="stroke" d="M 297.6955871582031 77.81818389892578 L 298.0866551697254 77.81818389892578 L 298.0866551697254 130.45454788208008 L 297.6955871582031 130.45454788208008 L 297.6955871582031 77.81818389892578" fill-opacity="1" clip-path="url(#bQUpCxkSsKgV)"/><path fill="rgb(0,255,158)" stroke="none" paint-order="stroke" d="M 298.086669921875 77.81818389892578 L 298.2898719161749 77.81818389892578 L 298.2898719161749 130.45454788208008 L 298.086669921875 130.45454788208008 L 298.086669921875 77.81818389892578" fill-opacity="1" clip-path="url(#bQUpCxkSsKgV)"/><path fill="rgb(0,255,169)" stroke="none" paint-order="stroke" d="M 298.28985595703125 77.81818389892578 L 298.4956139624119 77.81818389892578 L 298.4956139624119 130.45454788208008 L 298.28985595703125 130.45454788208008 L 298.28985595703125 77.81818389892578" fill-opacity="1" clip-path="url(#bQUpCxkSsKgV)"/><path fill="rgb(0,255,180)" stroke="none" paint-order="stroke" d="M 298.49560546875 77.81818389892578 L 298.6962514668703 77.81818389892578 L 298.6962514668703 130.45454788208008 L 298.49560546875 130.45454788208008 L 298.49560546875 77.81818389892578" fill-opacity="1" clip-path="url(#bQUpCxkSsKgV)"/><path fill="rgb(0,255,191)" stroke="none" paint-order="stroke" d="M 298.6962585449219 77.81818389892578 L 298.88156855106354 77.81818389892578 L 298.88156855106354 130.45454788208008 L 298.6962585449219 130.45454788208008 L 298.6962585449219 77.81818389892578" fill-opacity="1" clip-path="url(#bQUpCxkSsKgV)"/><path fill="rgb(0,255,202)" stroke="none" paint-order="stroke" d="M 298.8815612792969 77.81818389892578 L 299.0898752808571 77.81818389892578 L 299.0898752808571 130.45454788208008 L 298.8815612792969 130.45454788208008 L 298.8815612792969 77.81818389892578" fill-opacity="1" clip-path="url(#bQUpCxkSsKgV)"/><path fill="rgb(0,255,213)" stroke="none" paint-order="stroke" d="M 299.08990478515625 77.81818389892578 L 299.3046087920666 77.81818389892578 L 299.3046087920666 130.45454788208008 L 299.08990478515625 130.45454788208008 L 299.08990478515625 77.81818389892578" fill-opacity="1" clip-path="url(#bQUpCxkSsKgV)"/><path fill="rgb(0,255,223)" stroke="none" paint-order="stroke" d="M 299.3045959472656 77.81818389892578 L 299.50524194538593 77.81818389892578 L 299.50524194538593 130.45454788208008 L 299.3045959472656 130.45454788208008 L 299.3045959472656 77.81818389892578" fill-opacity="1" clip-path="url(#bQUpCxkSsKgV)"/><path fill="rgb(0,255,234)" stroke="none" paint-order="stroke" d="M 299.5052490234375 77.81818389892578 L 299.7135630249977 77.81818389892578 L 299.7135630249977 130.45454788208008 L 299.5052490234375 130.45454788208008 L 299.5052490234375 77.81818389892578" fill-opacity="1" clip-path="url(#bQUpCxkSsKgV)"/><path fill="rgb(0,255,244)" stroke="none" paint-order="stroke" d="M 299.71356201171875 77.81818389892578 L 300.1007960140705 77.81818389892578 L 300.1007960140705 130.45454788208008 L 299.71356201171875 130.45454788208008 L 299.71356201171875 77.81818389892578" fill-opacity="1" clip-path="url(#bQUpCxkSsKgV)"/><path fill="rgb(0,255,255)" stroke="none" paint-order="stroke" d="M 300.1007995605469 77.81818389892578 L 300.3960175514221 77.81818389892578 L 300.3960175514221 130.45454788208008 L 300.1007995605469 130.45454788208008 L 300.1007995605469 77.81818389892578" fill-opacity="1" clip-path="url(#bQUpCxkSsKgV)"/><path fill="rgb(0,250,255)" stroke="none" paint-order="stroke" d="M 300.39599609375 77.81818389892578 L 300.62987008690834 77.81818389892578 L 300.62987008690834 130.45454788208008 L 300.39599609375 130.45454788208008 L 300.39599609375 77.81818389892578" fill-opacity="1" clip-path="url(#bQUpCxkSsKgV)"/><path fill="rgb(0,246,255)" stroke="none" paint-order="stroke" d="M 300.6298828125 77.81818389892578 L 300.89442881941795 77.81818389892578 L 300.89442881941795 130.45454788208008 L 300.6298828125 130.45454788208008 L 300.6298828125 77.81818389892578" fill-opacity="1" clip-path="url(#bQUpCxkSsKgV)"/><path fill="rgb(0,242,255)" stroke="none" paint-order="stroke" d="M 300.8944396972656 77.81818389892578 L 301.1807116866112 77.81818389892578 L 301.1807116866112 130.45454788208008 L 300.8944396972656 130.45454788208008 L 300.8944396972656 77.81818389892578" fill-opacity="1" clip-path="url(#bQUpCxkSsKgV)"/><path fill="rgb(0,238,255)" stroke="none" paint-order="stroke" d="M 301.1806945800781 77.81818389892578 L 301.47463458776474 77.81818389892578 L 301.47463458776474 130.45454788208008 L 301.1806945800781 130.45454788208008 L 301.1806945800781 77.81818389892578" fill-opacity="1" clip-path="url(#bQUpCxkSsKgV)"/><path fill="rgb(0,234,255)" stroke="none" paint-order="stroke" d="M 301.4746398925781 77.81818389892578 L 301.76857990026474 77.81818389892578 L 301.76857990026474 130.45454788208008 L 301.4746398925781 130.45454788208008 L 301.4746398925781 77.81818389892578" fill-opacity="1" clip-path="url(#bQUpCxkSsKgV)"/><path fill="rgb(0,230,255)" stroke="none" paint-order="stroke" d="M 301.7685852050781 77.81818389892578 L 302.0983092188835 77.81818389892578 L 302.0983092188835 130.45454788208008 L 301.7685852050781 130.45454788208008 L 301.7685852050781 77.81818389892578" fill-opacity="1" clip-path="url(#bQUpCxkSsKgV)"/><path fill="rgb(0,226,255)" stroke="none" paint-order="stroke" d="M 302.0982971191406 77.81818389892578 L 302.3666771054268 77.81818389892578 L 302.3666771054268 130.45454788208008 L 302.0982971191406 130.45454788208008 L 302.0982971191406 77.81818389892578" fill-opacity="1" clip-path="url(#bQUpCxkSsKgV)"/><path fill="rgb(0,221,255)" stroke="none" paint-order="stroke" d="M 302.3666687011719 77.81818389892578 L 302.582650706172 77.81818389892578 L 302.582650706172 130.45454788208008 L 302.3666687011719 130.45454788208008 L 302.3666687011719 77.81818389892578" fill-opacity="1" clip-path="url(#bQUpCxkSsKgV)"/><path fill="rgb(0,217,255)" stroke="none" paint-order="stroke" d="M 302.5826721191406 77.81818389892578 L 306.22880601882935 77.81818389892578 L 306.22880601882935 130.45454788208008 L 302.5826721191406 130.45454788208008 L 302.5826721191406 77.81818389892578" fill-opacity="1" clip-path="url(#bQUpCxkSsKgV)"/><path fill="rgb(0,221,255)" stroke="none" paint-order="stroke" d="M 306.2287902832031 77.81818389892578 L 306.33230828493834 77.81818389892578 L 306.33230828493834 130.45454788208008 L 306.2287902832031 130.45454788208008 L 306.2287902832031 77.81818389892578" fill-opacity="1" clip-path="url(#bQUpCxkSsKgV)"/><path fill="rgb(0,238,255)" stroke="none" paint-order="stroke" d="M 306.3323059082031 77.81818389892578 L 306.37575790658593 77.81818389892578 L 306.37575790658593 130.45454788208008 L 306.3323059082031 130.45454788208008 L 306.3323059082031 77.81818389892578" fill-opacity="1" clip-path="url(#bQUpCxkSsKgV)"/><path fill="rgb(0,255,255)" stroke="none" paint-order="stroke" d="M 306.3757629394531 77.81818389892578 L 306.4818369373679 77.81818389892578 L 306.4818369373679 130.45454788208008 L 306.3757629394531 130.45454788208008 L 306.3757629394531 77.81818389892578" fill-opacity="1" clip-path="url(#bQUpCxkSsKgV)"/><path fill="rgb(0,255,213)" stroke="none" paint-order="stroke" d="M 306.4818420410156 77.81818389892578 L 306.52401604130864 77.81818389892578 L 306.52401604130864 130.45454788208008 L 306.4818420410156 130.45454788208008 L 306.4818420410156 77.81818389892578" fill-opacity="1" clip-path="url(#bQUpCxkSsKgV)"/><path fill="rgb(0,255,169)" stroke="none" paint-order="stroke" d="M 306.5240173339844 77.81818389892578 L 306.6530953347683 77.81818389892578 L 306.6530953347683 130.45454788208008 L 306.5240173339844 130.45454788208008 L 306.5240173339844 77.81818389892578" fill-opacity="1" clip-path="url(#bQUpCxkSsKgV)"/><path fill="rgb(0,255,134)" stroke="none" paint-order="stroke" d="M 306.6531066894531 77.81818389892578 L 306.73873268812895 77.81818389892578 L 306.73873268812895 130.45454788208008 L 306.6531066894531 130.45454788208008 L 306.6531066894531 77.81818389892578" fill-opacity="1" clip-path="url(#bQUpCxkSsKgV)"/><path fill="rgb(0,255,84)" stroke="none" paint-order="stroke" d="M 306.73870849609375 77.81818389892578 L 306.88567849993706 77.81818389892578 L 306.88567849993706 130.45454788208008 L 306.73870849609375 130.45454788208008 L 306.73870849609375 77.81818389892578" fill-opacity="1" clip-path="url(#bQUpCxkSsKgV)"/><path fill="rgb(0,255,23)" stroke="none" paint-order="stroke" d="M 306.88568115234375 77.81818389892578 L 306.92913315072656 77.81818389892578 L 306.92913315072656 130.45454788208008 L 306.88568115234375 130.45454788208008 L 306.88568115234375 77.81818389892578" fill-opacity="1" clip-path="url(#bQUpCxkSsKgV)"/><path fill="rgb(20,255,0)" stroke="none" paint-order="stroke" d="M 306.92913818359375 77.81818389892578 L 307.07866418361664 77.81818389892578 L 307.07866418361664 130.45454788208008 L 306.92913818359375 130.45454788208008 L 306.92913818359375 77.81818389892578" fill-opacity="1" clip-path="url(#bQUpCxkSsKgV)"/><path fill="rgb(58,255,0)" stroke="none" paint-order="stroke" d="M 307.07867431640625 77.81818389892578 L 307.1630223169923 77.81818389892578 L 307.1630223169923 130.45454788208008 L 307.07867431640625 130.45454788208008 L 307.07867431640625 77.81818389892578" fill-opacity="1" clip-path="url(#bQUpCxkSsKgV)"/><path fill="rgb(74,255,0)" stroke="none" paint-order="stroke" d="M 307.16302490234375 77.81818389892578 L 307.18475090153515 77.81818389892578 L 307.18475090153515 130.45454788208008 L 307.16302490234375 130.45454788208008 L 307.16302490234375 77.81818389892578" fill-opacity="1" clip-path="url(#bQUpCxkSsKgV)"/><path fill="rgb(86,255,0)" stroke="none" paint-order="stroke" d="M 307.18475341796875 77.81818389892578 L 307.27165741473436 77.81818389892578 L 307.27165741473436 130.45454788208008 L 307.18475341796875 130.45454788208008 L 307.18475341796875 77.81818389892578" fill-opacity="1" clip-path="url(#bQUpCxkSsKgV)"/><path fill="rgb(101,255,0)" stroke="none" paint-order="stroke" d="M 307.2716369628906 77.81818389892578 L 307.31253296136856 77.81818389892578 L 307.31253296136856 130.45454788208008 L 307.2716369628906 130.45454788208008 L 307.2716369628906 77.81818389892578" fill-opacity="1" clip-path="url(#bQUpCxkSsKgV)"/><path fill="rgb(115,255,0)" stroke="none" paint-order="stroke" d="M 307.3125305175781 77.81818389892578 L 307.35470451787114 77.81818389892578 L 307.35470451787114 130.45454788208008 L 307.3125305175781 130.45454788208008 L 307.3125305175781 77.81818389892578" fill-opacity="1" clip-path="url(#bQUpCxkSsKgV)"/><path fill="rgb(143,255,0)" stroke="none" paint-order="stroke" d="M 307.3547058105469 77.81818389892578 L 307.4403318092227 77.81818389892578 L 307.4403318092227 130.45454788208008 L 307.3547058105469 130.45454788208008 L 307.3547058105469 77.81818389892578" fill-opacity="1" clip-path="url(#bQUpCxkSsKgV)"/><path fill="rgb(156,255,0)" stroke="none" paint-order="stroke" d="M 307.4403381347656 77.81818389892578 L 307.4607861340046 77.81818389892578 L 307.4607861340046 130.45454788208008 L 307.4403381347656 130.45454788208008 L 307.4403381347656 77.81818389892578" fill-opacity="1" clip-path="url(#bQUpCxkSsKgV)"/><path fill="rgb(182,255,0)" stroke="none" paint-order="stroke" d="M 307.4607849121094 77.81818389892578 L 307.52596291154623 77.81818389892578 L 307.52596291154623 130.45454788208008 L 307.4607849121094 130.45454788208008 L 307.4607849121094 77.81818389892578" fill-opacity="1" clip-path="url(#bQUpCxkSsKgV)"/><path fill="rgb(191,255,0)" stroke="none" paint-order="stroke" d="M 307.5259704589844 77.81818389892578 L 307.58859246224165 77.81818389892578 L 307.58859246224165 130.45454788208008 L 307.5259704589844 130.45454788208008 L 307.5259704589844 77.81818389892578" fill-opacity="1" clip-path="url(#bQUpCxkSsKgV)"/><path fill="rgb(204,255,0)" stroke="none" paint-order="stroke" d="M 307.5885925292969 77.81818389892578 L 307.6320445276797 77.81818389892578 L 307.6320445276797 130.45454788208008 L 307.5885925292969 130.45454788208008 L 307.5885925292969 77.81818389892578" fill-opacity="1" clip-path="url(#bQUpCxkSsKgV)"/><path fill="rgb(216,255,0)" stroke="none" paint-order="stroke" d="M 307.6320495605469 77.81818389892578 L 307.6742235608399 77.81818389892578 L 307.6742235608399 130.45454788208008 L 307.6320495605469 130.45454788208008 L 307.6320495605469 77.81818389892578" fill-opacity="1" clip-path="url(#bQUpCxkSsKgV)"/><path fill="rgb(228,255,0)" stroke="none" paint-order="stroke" d="M 307.6742248535156 77.81818389892578 L 307.75985085219145 77.81818389892578 L 307.75985085219145 130.45454788208008 L 307.6742248535156 130.45454788208008 L 307.6742248535156 77.81818389892578" fill-opacity="1" clip-path="url(#bQUpCxkSsKgV)"/><path fill="rgb(240,255,0)" stroke="none" paint-order="stroke" d="M 307.7598571777344 77.81818389892578 L 307.86593117564917 77.81818389892578 L 307.86593117564917 130.45454788208008 L 307.7598571777344 130.45454788208008 L 307.7598571777344 77.81818389892578" fill-opacity="1" clip-path="url(#bQUpCxkSsKgV)"/><path fill="rgb(252,255,0)" stroke="none" paint-order="stroke" d="M 307.86590576171875 77.81818389892578 L 307.9515317603946 77.81818389892578 L 307.9515317603946 130.45454788208008 L 307.86590576171875 130.45454788208008 L 307.86590576171875 77.81818389892578" fill-opacity="1" clip-path="url(#bQUpCxkSsKgV)"/><path fill="rgb(255,245,0)" stroke="none" paint-order="stroke" d="M 307.9515380859375 77.81818389892578 L 310.0768520832062 77.81818389892578 L 310.0768520832062 130.45454788208008 L 307.9515380859375 130.45454788208008 L 307.9515380859375 77.81818389892578" fill-opacity="1" clip-path="url(#bQUpCxkSsKgV)"/><path fill="rgb(255,248,0)" stroke="none" paint-order="stroke" d="M 310.07684326171875 77.81818389892578 L 310.26087525486946 77.81818389892578 L 310.26087525486946 130.45454788208008 L 310.07684326171875 130.45454788208008 L 310.07684326171875 77.81818389892578" fill-opacity="1" clip-path="url(#bQUpCxkSsKgV)"/><path fill="rgb(255,251,0)" stroke="none" paint-order="stroke" d="M 310.2608947753906 77.81818389892578 L 310.4474827796221 77.81818389892578 L 310.4474827796221 130.45454788208008 L 310.2608947753906 130.45454788208008 L 310.2608947753906 77.81818389892578" fill-opacity="1" clip-path="url(#bQUpCxkSsKgV)"/><path fill="rgb(255,255,0)" stroke="none" paint-order="stroke" d="M 310.4474792480469 77.81818389892578 L 310.6353452503681 77.81818389892578 L 310.6353452503681 130.45454788208008 L 310.4474792480469 130.45454788208008 L 310.4474792480469 77.81818389892578" fill-opacity="1" clip-path="url(#bQUpCxkSsKgV)"/><path fill="rgb(252,255,0)" stroke="none" paint-order="stroke" d="M 310.6353454589844 77.81818389892578 L 310.8372694551945 77.81818389892578 L 310.8372694551945 130.45454788208008 L 310.6353454589844 130.45454788208008 L 310.6353454589844 77.81818389892578" fill-opacity="1" clip-path="url(#bQUpCxkSsKgV)"/><path fill="rgb(249,255,0)" stroke="none" paint-order="stroke" d="M 310.8372802734375 77.81818389892578 L 311.00853227078915 77.81818389892578 L 311.00853227078915 130.45454788208008 L 310.8372802734375 130.45454788208008 L 310.8372802734375 77.81818389892578" fill-opacity="1" clip-path="url(#bQUpCxkSsKgV)"/><path fill="rgb(246,255,0)" stroke="none" paint-order="stroke" d="M 311.0085144042969 77.81818389892578 L 311.1951024085283 77.81818389892578 L 311.1951024085283 130.45454788208008 L 311.0085144042969 130.45454788208008 L 311.0085144042969 77.81818389892578" fill-opacity="1" clip-path="url(#bQUpCxkSsKgV)"/><path fill="rgb(243,255,0)" stroke="none" paint-order="stroke" d="M 311.1950988769531 77.81818389892578 L 311.40213488042355 77.81818389892578 L 311.40213488042355 130.45454788208008 L 311.1950988769531 130.45454788208008 L 311.1950988769531 77.81818389892578" fill-opacity="1" clip-path="url(#bQUpCxkSsKgV)"/><path fill="rgb(240,255,0)" stroke="none" paint-order="stroke" d="M 311.4021301269531 77.81818389892578 L 311.60277612507343 77.81818389892578 L 311.60277612507343 130.45454788208008 L 311.4021301269531 130.45454788208008 L 311.4021301269531 77.81818389892578" fill-opacity="1" clip-path="url(#bQUpCxkSsKgV)"/><path fill="rgb(237,255,0)" stroke="none" paint-order="stroke" d="M 311.602783203125 77.81818389892578 L 312.2724552154541 77.81818389892578 L 312.2724552154541 130.45454788208008 L 311.602783203125 130.45454788208008 L 311.602783203125 77.81818389892578" fill-opacity="1" clip-path="url(#bQUpCxkSsKgV)"/><path fill="rgb(234,255,0)" stroke="none" paint-order="stroke" d="M 312.2724609375 77.81818389892578 L 312.7555449306965 77.81818389892578 L 312.7555449306965 130.45454788208008 L 312.2724609375 130.45454788208008 L 312.2724609375 77.81818389892578" fill-opacity="1" clip-path="url(#bQUpCxkSsKgV)"/><path fill="rgb(231,255,0)" stroke="none" paint-order="stroke" d="M 312.75555419921875 77.81818389892578 L 313.00604221224785 77.81818389892578 L 313.00604221224785 130.45454788208008 L 312.75555419921875 130.45454788208008 L 312.75555419921875 77.81818389892578" fill-opacity="1" clip-path="url(#bQUpCxkSsKgV)"/><path fill="rgb(228,255,0)" stroke="none" paint-order="stroke" d="M 313.00604248046875 77.81818389892578 L 313.25908648967743 77.81818389892578 L 313.25908648967743 130.45454788208008 L 313.00604248046875 130.45454788208008 L 313.00604248046875 77.81818389892578" fill-opacity="1" clip-path="url(#bQUpCxkSsKgV)"/><path fill="rgb(225,255,0)" stroke="none" paint-order="stroke" d="M 313.2590637207031 77.81818389892578 L 330.6615905761719 77.81818389892578 L 330.6615905761719 130.45454788208008 L 313.2590637207031 130.45454788208008 L 313.2590637207031 77.81818389892578" fill-opacity="1" clip-path="url(#bQUpCxkSsKgV)"/><path fill="rgb(159,255,0)" stroke="none" paint-order="stroke" d="M 330.6615905761719 77.81818389892578 L 347.331823348999 77.81818389892578 L 347.331823348999 130.45454788208008 L 330.6615905761719 130.45454788208008 L 330.6615905761719 77.81818389892578" fill-opacity="1" clip-path="url(#bQUpCxkSsKgV)"/><path fill="rgb(110,0,132)" stroke="none" paint-order="stroke" d="M 347.33184814453125 77.81818389892578 L 352.18185806274414 77.81818389892578 L 352.18185806274414 130.45454788208008 L 347.33184814453125 130.45454788208008 L 347.33184814453125 77.81818389892578" fill-opacity="1" clip-path="url(#bQUpCxkSsKgV)"/><path fill="rgb(102,0,183)" stroke="none" paint-order="stroke" d="M 352.1818542480469 77.81818389892578 L 354.57043623924255 77.81818389892578 L 354.57043623924255 130.45454788208008 L 352.1818542480469 130.45454788208008 L 352.1818542480469 77.81818389892578" fill-opacity="1" clip-path="url(#bQUpCxkSsKgV)"/><path fill="rgb(42,0,238)" stroke="none" paint-order="stroke" d="M 354.5704345703125 77.81818389892578 L 356.7852084636688 77.81818389892578 L 356.7852084636688 130.45454788208008 L 354.5704345703125 130.45454788208008 L 354.5704345703125 77.81818389892578" fill-opacity="1" clip-path="url(#bQUpCxkSsKgV)"/><path fill="rgb(0,0,0)" stroke="none" paint-order="stroke" d="M 356.7851867675781 77.81818389892578 L 358.79931473731995 77.81818389892578 L 358.79931473731995 130.45454788208008 L 356.7851867675781 130.45454788208008 L 356.7851867675781 77.81818389892578" fill-opacity="1" clip-path="url(#bQUpCxkSsKgV)"/><path fill="rgb(251,0,7)" stroke="none" paint-order="stroke" d="M 58.5 130.4545440673828 L 330.6615905761719 130.4545440673828 L 330.6615905761719 183.0909080505371 L 58.5 183.0909080505371 L 58.5 130.4545440673828" fill-opacity="1" clip-path="url(#ARthvNNIvwKX)"/><path fill="rgb(251,0,7)" stroke="none" paint-order="stroke" d="M 330.6615905761719 130.4545440673828 L 342.67479038238525 130.4545440673828 L 342.67479038238525 183.0909080505371 L 330.6615905761719 183.0909080505371 L 330.6615905761719 130.4545440673828" fill-opacity="1" clip-path="url(#ARthvNNIvwKX)"/><path fill="rgb(237,115,111)" stroke="none" paint-order="stroke" d="M 342.6748046875 130.4545440673828 L 347.33183670043945 130.4545440673828 L 347.33183670043945 183.0909080505371 L 342.6748046875 183.0909080505371 L 342.6748046875 130.4545440673828" fill-opacity="1" clip-path="url(#ARthvNNIvwKX)"/><path fill="rgb(252,105,8)" stroke="none" paint-order="stroke" d="M 347.33184814453125 130.4545440673828 L 352.18185806274414 130.4545440673828 L 352.18185806274414 183.0909080505371 L 347.33184814453125 183.0909080505371 L 347.33184814453125 130.4545440673828" fill-opacity="1" clip-path="url(#ARthvNNIvwKX)"/><path fill="rgb(255,255,10)" stroke="none" paint-order="stroke" d="M 352.1818542480469 130.4545440673828 L 354.57043623924255 130.4545440673828 L 354.57043623924255 183.0909080505371 L 352.1818542480469 183.0909080505371 L 352.1818542480469 130.4545440673828" fill-opacity="1" clip-path="url(#ARthvNNIvwKX)"/><path fill="rgb(56,126,34)" stroke="none" paint-order="stroke" d="M 354.5704345703125 130.4545440673828 L 356.7852084636688 130.4545440673828 L 356.7852084636688 183.0909080505371 L 354.5704345703125 183.0909080505371 L 354.5704345703125 130.4545440673828" fill-opacity="1" clip-path="url(#ARthvNNIvwKX)"/><path fill="rgb(27,121,255)" stroke="none" paint-order="stroke" d="M 356.7851867675781 130.4545440673828 L 358.79931473731995 130.4545440673828 L 358.79931473731995 183.0909080505371 L 356.7851867675781 183.0909080505371 L 356.7851867675781 130.4545440673828" fill-opacity="1" clip-path="url(#ARthvNNIvwKX)"/><path fill="rgb(105,29,48)" stroke="none" paint-order="stroke" d="M 228.5430145263672 183.09091186523438 L 228.60691452771425 183.09091186523438 L 228.60691452771425 498.9090881347656 L 228.5430145263672 498.9090881347656 L 228.5430145263672 183.09091186523438" fill-opacity="1" clip-path="url(#MBeDCLBRDuOn)"/><path fill="rgb(255,188,66)" stroke="none" paint-order="stroke" d="M 91.38421630859375 183.09091186523438 L 97.37420225143433 183.09091186523438 L 97.37420225143433 498.9090881347656 L 91.38421630859375 498.9090881347656 L 91.38421630859375 183.09091186523438" fill-opacity="1" clip-path="url(#rTbeqwVMZJig)"/><path fill="rgb(162,174,187)" stroke="none" paint-order="stroke" d="M 304.2977294921875 183.09091186523438 L 304.36162949353456 183.09091186523438 L 304.36162949353456 498.9090881347656 L 304.2977294921875 498.9090881347656 L 304.2977294921875 183.09091186523438" fill-opacity="1" clip-path="url(#VDKuAlvAGAMS)"/><path fill="rgb(216,17,89)" stroke="none" paint-order="stroke" d="M 281.1480407714844 183.09091186523438 L 281.21194077283144 183.09091186523438 L 281.21194077283144 498.9090881347656 L 281.1480407714844 498.9090881347656 L 281.1480407714844 183.09091186523438" fill-opacity="1" clip-path="url(#HmyRnwOpvpsM)"/><path fill="rgb(33,131,128)" stroke="none" paint-order="stroke" d="M 328.48773193359375 183.09091186523438 L 330.6616098880768 183.09091186523438 L 330.6616098880768 498.9090881347656 L 328.48773193359375 498.9090881347656 L 328.48773193359375 183.09091186523438" fill-opacity="1" clip-path="url(#RlpNoXfRmsyP)"/><path fill="rgb(33,131,128)" stroke="none" paint-order="stroke" d="M 341.2894592285156 183.09091186523438 L 342.6748112440109 183.09091186523438 L 342.6748112440109 498.9090881347656 L 341.2894592285156 498.9090881347656 L 341.2894592285156 183.09091186523438" fill-opacity="1" clip-path="url(#RlpNoXfRmsyP)"/><path fill="rgb(33,131,128)" stroke="none" paint-order="stroke" d="M 343.7240295410156 183.09091186523438 L 347.3318235874176 183.09091186523438 L 347.3318235874176 498.9090881347656 L 343.7240295410156 498.9090881347656 L 343.7240295410156 183.09091186523438" fill-opacity="1" clip-path="url(#RlpNoXfRmsyP)"/><path fill="rgb(33,131,128)" stroke="none" paint-order="stroke" d="M 350.5076599121094 183.09091186523438 L 352.18183994293213 183.09091186523438 L 352.18183994293213 498.9090881347656 L 350.5076599121094 498.9090881347656 L 350.5076599121094 183.09091186523438" fill-opacity="1" clip-path="url(#RlpNoXfRmsyP)"/><path fill="rgb(33,131,128)" stroke="none" paint-order="stroke" d="M 353.41766357421875 183.09091186523438 L 354.570419549942 183.09091186523438 L 354.570419549942 498.9090881347656 L 353.41766357421875 498.9090881347656 L 353.41766357421875 183.09091186523438" fill-opacity="1" clip-path="url(#RlpNoXfRmsyP)"/><path fill="rgb(33,131,128)" stroke="none" paint-order="stroke" d="M 355.7896423339844 183.09091186523438 L 356.78520435094833 183.09091186523438 L 356.78520435094833 498.9090881347656 L 355.7896423339844 498.9090881347656 L 355.7896423339844 183.09091186523438" fill-opacity="1" clip-path="url(#RlpNoXfRmsyP)"/><path fill="rgb(33,131,128)" stroke="none" paint-order="stroke" d="M 357.7897033691406 183.09091186523438 L 358.7993233203888 183.09091186523438 L 358.7993233203888 498.9090881347656 L 357.7897033691406 498.9090881347656 L 357.7897033691406 183.09091186523438" fill-opacity="1" clip-path="url(#RlpNoXfRmsyP)"/><path fill="rgb(115,210,222)" stroke="none" paint-order="stroke" d="M 232.61216735839844 183.09091186523438 L 233.56299936771393 183.09091186523438 L 233.56299936771393 498.9090881347656 L 232.61216735839844 498.9090881347656 L 232.61216735839844 183.09091186523438" fill-opacity="1" clip-path="url(#nHTOVFCmpfli)"/><path fill="rgb(115,210,222)" stroke="none" paint-order="stroke" d="M 245.43817138671875 183.09091186523438 L 248.96417331695557 183.09091186523438 L 248.96417331695557 498.9090881347656 L 245.43817138671875 498.9090881347656 L 245.43817138671875 183.09091186523438" fill-opacity="1" clip-path="url(#nHTOVFCmpfli)"/><path fill="rgb(115,210,222)" stroke="none" paint-order="stroke" d="M 250.2715606689453 183.09091186523438 L 250.33546067029238 183.09091186523438 L 250.33546067029238 498.9090881347656 L 250.2715606689453 498.9090881347656 L 250.2715606689453 183.09091186523438" fill-opacity="1" clip-path="url(#nHTOVFCmpfli)"/><path fill="rgb(115,210,222)" stroke="none" paint-order="stroke" d="M 250.2715606689453 183.09091186523438 L 250.33546067029238 183.09091186523438 L 250.33546067029238 498.9090881347656 L 250.2715606689453 498.9090881347656 L 250.2715606689453 183.09091186523438" fill-opacity="1" clip-path="url(#nHTOVFCmpfli)"/><path fill="rgb(115,210,222)" stroke="none" paint-order="stroke" d="M 250.4901123046875 183.09091186523438 L 250.55401230603456 183.09091186523438 L 250.55401230603456 498.9090881347656 L 250.4901123046875 498.9090881347656 L 250.4901123046875 183.09091186523438" fill-opacity="1" clip-path="url(#nHTOVFCmpfli)"/><path fill="rgb(115,210,222)" stroke="none" paint-order="stroke" d="M 250.4901123046875 183.09091186523438 L 250.55401230603456 183.09091186523438 L 250.55401230603456 498.9090881347656 L 250.4901123046875 498.9090881347656 L 250.4901123046875 183.09091186523438" fill-opacity="1" clip-path="url(#nHTOVFCmpfli)"/><path fill="rgb(115,210,222)" stroke="none" paint-order="stroke" d="M 250.694580078125 183.09091186523438 L 250.75848007947206 183.09091186523438 L 250.75848007947206 498.9090881347656 L 250.694580078125 498.9090881347656 L 250.694580078125 183.09091186523438" fill-opacity="1" clip-path="url(#nHTOVFCmpfli)"/><path fill="rgb(115,210,222)" stroke="none" paint-order="stroke" d="M 250.694580078125 183.09091186523438 L 250.75848007947206 183.09091186523438 L 250.75848007947206 498.9090881347656 L 250.694580078125 498.9090881347656 L 250.694580078125 183.09091186523438" fill-opacity="1" clip-path="url(#nHTOVFCmpfli)"/><path fill="rgb(115,210,222)" stroke="none" paint-order="stroke" d="M 250.88629150390625 183.09091186523438 L 250.95019150525331 183.09091186523438 L 250.95019150525331 498.9090881347656 L 250.88629150390625 498.9090881347656 L 250.88629150390625 183.09091186523438" fill-opacity="1" clip-path="url(#nHTOVFCmpfli)"/><path fill="rgb(115,210,222)" stroke="none" paint-order="stroke" d="M 250.88629150390625 183.09091186523438 L 250.95019150525331 183.09091186523438 L 250.95019150525331 498.9090881347656 L 250.88629150390625 498.9090881347656 L 250.88629150390625 183.09091186523438" fill-opacity="1" clip-path="url(#nHTOVFCmpfli)"/><path fill="rgb(115,210,222)" stroke="none" paint-order="stroke" d="M 251.07159423828125 183.09091186523438 L 251.13549423962831 183.09091186523438 L 251.13549423962831 498.9090881347656 L 251.07159423828125 498.9090881347656 L 251.07159423828125 183.09091186523438" fill-opacity="1" clip-path="url(#nHTOVFCmpfli)"/><path fill="rgb(115,210,222)" stroke="none" paint-order="stroke" d="M 251.07159423828125 183.09091186523438 L 251.13549423962831 183.09091186523438 L 251.13549423962831 498.9090881347656 L 251.07159423828125 498.9090881347656 L 251.07159423828125 183.09091186523438" fill-opacity="1" clip-path="url(#nHTOVFCmpfli)"/><path fill="rgb(115,210,222)" stroke="none" paint-order="stroke" d="M 251.2569122314453 183.09091186523438 L 251.32081223279238 183.09091186523438 L 251.32081223279238 498.9090881347656 L 251.2569122314453 498.9090881347656 L 251.2569122314453 183.09091186523438" fill-opacity="1" clip-path="url(#nHTOVFCmpfli)"/><path fill="rgb(115,210,222)" stroke="none" paint-order="stroke" d="M 251.2569122314453 183.09091186523438 L 251.32081223279238 183.09091186523438 L 251.32081223279238 498.9090881347656 L 251.2569122314453 498.9090881347656 L 251.2569122314453 183.09091186523438" fill-opacity="1" clip-path="url(#nHTOVFCmpfli)"/><path fill="rgb(115,210,222)" stroke="none" paint-order="stroke" d="M 251.47671508789062 183.09091186523438 L 251.5406150892377 183.09091186523438 L 251.5406150892377 498.9090881347656 L 251.47671508789062 498.9090881347656 L 251.47671508789062 183.09091186523438" fill-opacity="1" clip-path="url(#nHTOVFCmpfli)"/><path fill="rgb(115,210,222)" stroke="none" paint-order="stroke" d="M 251.47671508789062 183.09091186523438 L 251.5406150892377 183.09091186523438 L 251.5406150892377 498.9090881347656 L 251.47671508789062 498.9090881347656 L 251.47671508789062 183.09091186523438" fill-opacity="1" clip-path="url(#nHTOVFCmpfli)"/><path fill="rgb(115,210,222)" stroke="none" paint-order="stroke" d="M 251.739990234375 183.09091186523438 L 251.80389023572206 183.09091186523438 L 251.80389023572206 498.9090881347656 L 251.739990234375 498.9090881347656 L 251.739990234375 183.09091186523438" fill-opacity="1" clip-path="url(#nHTOVFCmpfli)"/><path fill="rgb(115,210,222)" stroke="none" paint-order="stroke" d="M 251.739990234375 183.09091186523438 L 251.80389023572206 183.09091186523438 L 251.80389023572206 498.9090881347656 L 251.739990234375 498.9090881347656 L 251.739990234375 183.09091186523438" fill-opacity="1" clip-path="url(#nHTOVFCmpfli)"/><path fill="rgb(115,210,222)" stroke="none" paint-order="stroke" d="M 272.7579650878906 183.09091186523438 L 272.8218650892377 183.09091186523438 L 272.8218650892377 498.9090881347656 L 272.7579650878906 498.9090881347656 L 272.7579650878906 183.09091186523438" fill-opacity="1" clip-path="url(#nHTOVFCmpfli)"/><path fill="rgb(115,210,222)" stroke="none" paint-order="stroke" d="M 272.7579650878906 183.09091186523438 L 272.8218650892377 183.09091186523438 L 272.8218650892377 498.9090881347656 L 272.7579650878906 498.9090881347656 L 272.7579650878906 183.09091186523438" fill-opacity="1" clip-path="url(#nHTOVFCmpfli)"/><path fill="rgb(115,210,222)" stroke="none" paint-order="stroke" d="M 272.95989990234375 183.09091186523438 L 273.0237999036908 183.09091186523438 L 273.0237999036908 498.9090881347656 L 272.95989990234375 498.9090881347656 L 272.95989990234375 183.09091186523438" fill-opacity="1" clip-path="url(#nHTOVFCmpfli)"/><path fill="rgb(115,210,222)" stroke="none" paint-order="stroke" d="M 272.95989990234375 183.09091186523438 L 273.0237999036908 183.09091186523438 L 273.0237999036908 498.9090881347656 L 272.95989990234375 498.9090881347656 L 272.95989990234375 183.09091186523438" fill-opacity="1" clip-path="url(#nHTOVFCmpfli)"/><path fill="rgb(115,210,222)" stroke="none" paint-order="stroke" d="M 273.146484375 183.09091186523438 L 273.21038437634706 183.09091186523438 L 273.21038437634706 498.9090881347656 L 273.146484375 498.9090881347656 L 273.146484375 183.09091186523438" fill-opacity="1" clip-path="url(#nHTOVFCmpfli)"/><path fill="rgb(115,210,222)" stroke="none" paint-order="stroke" d="M 273.146484375 183.09091186523438 L 273.21038437634706 183.09091186523438 L 273.21038437634706 498.9090881347656 L 273.146484375 498.9090881347656 L 273.146484375 183.09091186523438" fill-opacity="1" clip-path="url(#nHTOVFCmpfli)"/><path fill="rgb(115,210,222)" stroke="none" paint-order="stroke" d="M 273.7637634277344 183.09091186523438 L 273.82766342908144 183.09091186523438 L 273.82766342908144 498.9090881347656 L 273.7637634277344 498.9090881347656 L 273.7637634277344 183.09091186523438" fill-opacity="1" clip-path="url(#nHTOVFCmpfli)"/><path fill="rgb(115,210,222)" stroke="none" paint-order="stroke" d="M 273.7637634277344 183.09091186523438 L 273.82766342908144 183.09091186523438 L 273.82766342908144 498.9090881347656 L 273.7637634277344 498.9090881347656 L 273.7637634277344 183.09091186523438" fill-opacity="1" clip-path="url(#nHTOVFCmpfli)"/><path fill="rgb(115,210,222)" stroke="none" paint-order="stroke" d="M 273.88134765625 183.09091186523438 L 273.94524765759706 183.09091186523438 L 273.94524765759706 498.9090881347656 L 273.88134765625 498.9090881347656 L 273.88134765625 183.09091186523438" fill-opacity="1" clip-path="url(#nHTOVFCmpfli)"/><path fill="rgb(115,210,222)" stroke="none" paint-order="stroke" d="M 273.88134765625 183.09091186523438 L 273.94524765759706 183.09091186523438 L 273.94524765759706 498.9090881347656 L 273.88134765625 498.9090881347656 L 273.88134765625 183.09091186523438" fill-opacity="1" clip-path="url(#nHTOVFCmpfli)"/><path fill="rgb(115,210,222)" stroke="none" paint-order="stroke" d="M 274.02960205078125 183.09091186523438 L 274.0935020521283 183.09091186523438 L 274.0935020521283 498.9090881347656 L 274.02960205078125 498.9090881347656 L 274.02960205078125 183.09091186523438" fill-opacity="1" clip-path="url(#nHTOVFCmpfli)"/><path fill="rgb(115,210,222)" stroke="none" paint-order="stroke" d="M 274.02960205078125 183.09091186523438 L 274.0935020521283 183.09091186523438 L 274.0935020521283 498.9090881347656 L 274.02960205078125 498.9090881347656 L 274.02960205078125 183.09091186523438" fill-opacity="1" clip-path="url(#nHTOVFCmpfli)"/><path fill="rgb(115,210,222)" stroke="none" paint-order="stroke" d="M 274.1369323730469 183.09091186523438 L 274.20083237439394 183.09091186523438 L 274.20083237439394 498.9090881347656 L 274.1369323730469 498.9090881347656 L 274.1369323730469 183.09091186523438" fill-opacity="1" clip-path="url(#nHTOVFCmpfli)"/><path fill="rgb(115,210,222)" stroke="none" paint-order="stroke" d="M 274.1369323730469 183.09091186523438 L 274.20083237439394 183.09091186523438 L 274.20083237439394 498.9090881347656 L 274.1369323730469 498.9090881347656 L 274.1369323730469 183.09091186523438" fill-opacity="1" clip-path="url(#nHTOVFCmpfli)"/><path fill="rgb(115,210,222)" stroke="none" paint-order="stroke" d="M 274.2647399902344 183.09091186523438 L 274.32863999158144 183.09091186523438 L 274.32863999158144 498.9090881347656 L 274.2647399902344 498.9090881347656 L 274.2647399902344 183.09091186523438" fill-opacity="1" clip-path="url(#nHTOVFCmpfli)"/><path fill="rgb(115,210,222)" stroke="none" paint-order="stroke" d="M 274.2647399902344 183.09091186523438 L 274.32863999158144 183.09091186523438 L 274.32863999158144 498.9090881347656 L 274.2647399902344 498.9090881347656 L 274.2647399902344 183.09091186523438" fill-opacity="1" clip-path="url(#nHTOVFCmpfli)"/><path fill="rgb(115,210,222)" stroke="none" paint-order="stroke" d="M 274.4129943847656 183.09091186523438 L 274.4768943861127 183.09091186523438 L 274.4768943861127 498.9090881347656 L 274.4129943847656 498.9090881347656 L 274.4129943847656 183.09091186523438" fill-opacity="1" clip-path="url(#nHTOVFCmpfli)"/><path fill="rgb(115,210,222)" stroke="none" paint-order="stroke" d="M 274.4129943847656 183.09091186523438 L 274.4768943861127 183.09091186523438 L 274.4768943861127 498.9090881347656 L 274.4129943847656 498.9090881347656 L 274.4129943847656 183.09091186523438" fill-opacity="1" clip-path="url(#nHTOVFCmpfli)"/><path fill="rgb(115,210,222)" stroke="none" paint-order="stroke" d="M 274.5408020019531 183.09091186523438 L 274.6047020033002 183.09091186523438 L 274.6047020033002 498.9090881347656 L 274.5408020019531 498.9090881347656 L 274.5408020019531 183.09091186523438" fill-opacity="1" clip-path="url(#nHTOVFCmpfli)"/><path fill="rgb(115,210,222)" stroke="none" paint-order="stroke" d="M 274.5408020019531 183.09091186523438 L 274.6047020033002 183.09091186523438 L 274.6047020033002 498.9090881347656 L 274.5408020019531 498.9090881347656 L 274.5408020019531 183.09091186523438" fill-opacity="1" clip-path="url(#nHTOVFCmpfli)"/><path fill="rgb(115,210,222)" stroke="none" paint-order="stroke" d="M 274.6685791015625 183.09091186523438 L 274.73247910290956 183.09091186523438 L 274.73247910290956 498.9090881347656 L 274.6685791015625 498.9090881347656 L 274.6685791015625 183.09091186523438" fill-opacity="1" clip-path="url(#nHTOVFCmpfli)"/><path fill="rgb(115,210,222)" stroke="none" paint-order="stroke" d="M 274.6685791015625 183.09091186523438 L 274.73247910290956 183.09091186523438 L 274.73247910290956 498.9090881347656 L 274.6685791015625 498.9090881347656 L 274.6685791015625 183.09091186523438" fill-opacity="1" clip-path="url(#nHTOVFCmpfli)"/><path fill="rgb(115,210,222)" stroke="none" paint-order="stroke" d="M 274.79766845703125 183.09091186523438 L 274.8615684583783 183.09091186523438 L 274.8615684583783 498.9090881347656 L 274.79766845703125 498.9090881347656 L 274.79766845703125 183.09091186523438" fill-opacity="1" clip-path="url(#nHTOVFCmpfli)"/><path fill="rgb(115,210,222)" stroke="none" paint-order="stroke" d="M 274.79766845703125 183.09091186523438 L 274.8615684583783 183.09091186523438 L 274.8615684583783 498.9090881347656 L 274.79766845703125 498.9090881347656 L 274.79766845703125 183.09091186523438" fill-opacity="1" clip-path="url(#nHTOVFCmpfli)"/><path fill="rgb(115,210,222)" stroke="none" paint-order="stroke" d="M 274.905029296875 183.09091186523438 L 274.96892929822206 183.09091186523438 L 274.96892929822206 498.9090881347656 L 274.905029296875 498.9090881347656 L 274.905029296875 183.09091186523438" fill-opacity="1" clip-path="url(#nHTOVFCmpfli)"/><path fill="rgb(115,210,222)" stroke="none" paint-order="stroke" d="M 274.905029296875 183.09091186523438 L 274.96892929822206 183.09091186523438 L 274.96892929822206 498.9090881347656 L 274.905029296875 498.9090881347656 L 274.905029296875 183.09091186523438" fill-opacity="1" clip-path="url(#nHTOVFCmpfli)"/><path fill="rgb(115,210,222)" stroke="none" paint-order="stroke" d="M 275.052001953125 183.09091186523438 L 275.11590195447206 183.09091186523438 L 275.11590195447206 498.9090881347656 L 275.052001953125 498.9090881347656 L 275.052001953125 183.09091186523438" fill-opacity="1" clip-path="url(#nHTOVFCmpfli)"/><path fill="rgb(115,210,222)" stroke="none" paint-order="stroke" d="M 275.052001953125 183.09091186523438 L 275.11590195447206 183.09091186523438 L 275.11590195447206 498.9090881347656 L 275.052001953125 498.9090881347656 L 275.052001953125 183.09091186523438" fill-opacity="1" clip-path="url(#nHTOVFCmpfli)"/><path fill="rgb(115,210,222)" stroke="none" paint-order="stroke" d="M 275.1797790527344 183.09091186523438 L 275.24367905408144 183.09091186523438 L 275.24367905408144 498.9090881347656 L 275.1797790527344 498.9090881347656 L 275.1797790527344 183.09091186523438" fill-opacity="1" clip-path="url(#nHTOVFCmpfli)"/><path fill="rgb(115,210,222)" stroke="none" paint-order="stroke" d="M 275.1797790527344 183.09091186523438 L 275.24367905408144 183.09091186523438 L 275.24367905408144 498.9090881347656 L 275.1797790527344 498.9090881347656 L 275.1797790527344 183.09091186523438" fill-opacity="1" clip-path="url(#nHTOVFCmpfli)"/><path fill="rgb(115,210,222)" stroke="none" paint-order="stroke" d="M 275.3075866699219 183.09091186523438 L 275.37148667126894 183.09091186523438 L 275.37148667126894 498.9090881347656 L 275.3075866699219 498.9090881347656 L 275.3075866699219 183.09091186523438" fill-opacity="1" clip-path="url(#nHTOVFCmpfli)"/><path fill="rgb(115,210,222)" stroke="none" paint-order="stroke" d="M 275.3075866699219 183.09091186523438 L 275.37148667126894 183.09091186523438 L 275.37148667126894 498.9090881347656 L 275.3075866699219 498.9090881347656 L 275.3075866699219 183.09091186523438" fill-opacity="1" clip-path="url(#nHTOVFCmpfli)"/><path fill="rgb(115,210,222)" stroke="none" paint-order="stroke" d="M 275.4353942871094 183.09091186523438 L 275.49929428845644 183.09091186523438 L 275.49929428845644 498.9090881347656 L 275.4353942871094 498.9090881347656 L 275.4353942871094 183.09091186523438" fill-opacity="1" clip-path="url(#nHTOVFCmpfli)"/><path fill="rgb(115,210,222)" stroke="none" paint-order="stroke" d="M 275.4353942871094 183.09091186523438 L 275.49929428845644 183.09091186523438 L 275.49929428845644 498.9090881347656 L 275.4353942871094 498.9090881347656 L 275.4353942871094 183.09091186523438" fill-opacity="1" clip-path="url(#nHTOVFCmpfli)"/><path fill="rgb(115,210,222)" stroke="none" paint-order="stroke" d="M 276.57025146484375 183.09091186523438 L 278.765855550766 183.09091186523438 L 278.765855550766 498.9090881347656 L 276.57025146484375 498.9090881347656 L 276.57025146484375 183.09091186523438" fill-opacity="1" clip-path="url(#nHTOVFCmpfli)"/><path fill="rgb(28,49,68)" stroke="none" paint-order="stroke" d="M 89.28190612792969 183.09091186523438 L 90.44488608837128 183.09091186523438 L 90.44488608837128 498.9090881347656 L 89.28190612792969 498.9090881347656 L 89.28190612792969 183.09091186523438" fill-opacity="1" clip-path="url(#SwEvKDbQmBDV)"/><path fill="rgb(28,49,68)" stroke="none" paint-order="stroke" d="M 230.44723510742188 183.09091186523438 L 230.91114911437035 183.09091186523438 L 230.91114911437035 498.9090881347656 L 230.44723510742188 498.9090881347656 L 230.44723510742188 183.09091186523438" fill-opacity="1" clip-path="url(#SwEvKDbQmBDV)"/><path fill="rgb(239,185,203)" stroke="none" paint-order="stroke" d="M 63.8203125 183.09091186523438 L 86.85370635986328 183.09091186523438 L 86.85370635986328 498.9090881347656 L 63.8203125 498.9090881347656 L 63.8203125 183.09091186523438" fill-opacity="1" clip-path="url(#SwDTAupbLDiN)"/><path fill="rgb(239,185,203)" stroke="none" paint-order="stroke" d="M 100.0107192993164 183.09091186523438 L 209.02411651611328 183.09091186523438 L 209.02411651611328 498.9090881347656 L 100.0107192993164 498.9090881347656 L 100.0107192993164 183.09091186523438" fill-opacity="1" clip-path="url(#SwDTAupbLDiN)"/><path fill="rgb(239,185,203)" stroke="none" paint-order="stroke" d="M 234.78221130371094 183.09091186523438 L 242.33263540267944 183.09091186523438 L 242.33263540267944 498.9090881347656 L 234.78221130371094 498.9090881347656 L 234.78221130371094 183.09091186523438" fill-opacity="1" clip-path="url(#SwDTAupbLDiN)"/><path fill="rgb(239,185,203)" stroke="none" paint-order="stroke" d="M 262.5378112792969 183.09091186523438 L 270.26204347610474 183.09091186523438 L 270.26204347610474 498.9090881347656 L 262.5378112792969 498.9090881347656 L 262.5378112792969 183.09091186523438" fill-opacity="1" clip-path="url(#SwDTAupbLDiN)"/><path fill="rgb(239,185,203)" stroke="none" paint-order="stroke" d="M 319.3436279296875 183.09091186523438 L 326.5847759246826 183.09091186523438 L 326.5847759246826 498.9090881347656 L 319.3436279296875 498.9090881347656 L 319.3436279296875 183.09091186523438" fill-opacity="1" clip-path="url(#SwDTAupbLDiN)"/><path fill="rgb(239,185,203)" stroke="none" paint-order="stroke" d="M 333.3581848144531 183.09091186523438 L 339.4465765953064 183.09091186523438 L 339.4465765953064 498.9090881347656 L 333.3581848144531 498.9090881347656 L 333.3581848144531 183.09091186523438" fill-opacity="1" clip-path="url(#SwDTAupbLDiN)"/><path fill="rgb(105,29,48)" stroke="none" paint-order="stroke" d="M 286.1808166503906 183.09091186523438 L 292.14013051986694 183.09091186523438 L 292.14013051986694 498.9090881347656 L 286.1808166503906 498.9090881347656 L 286.1808166503906 183.09091186523438" fill-opacity="1" clip-path="url(#AqhcsKWTLVxo)"/><path fill="rgb(105,29,48)" stroke="none" paint-order="stroke" d="M 306.03326416015625 183.09091186523438 L 308.8078022003174 183.09091186523438 L 308.8078022003174 498.9090881347656 L 306.03326416015625 498.9090881347656 L 306.03326416015625 183.09091186523438" fill-opacity="1" clip-path="url(#AqhcsKWTLVxo)"/><path fill="rgb(255,188,66)" stroke="none" paint-order="stroke" d="M 93.1031265258789 498.9090881347656 L 96.06297445297241 498.9090881347656 L 96.06297445297241 551.5454521179199 L 93.1031265258789 551.5454521179199 L 93.1031265258789 498.9090881347656" fill-opacity="1" clip-path="url(#LUVduWVxDqMd)"/><path fill="rgb(143,45,86)" stroke="none" paint-order="stroke" d="M 58.5 551.5454711914062 L 228.5430145263672 551.5454711914062 L 228.5430145263672 604.1818351745605 L 58.5 604.1818351745605 L 58.5 551.5454711914062" fill-opacity="1" clip-path="url(#dTSxvDgNymZk)"/><path fill="rgb(63,136,197)" stroke="none" paint-order="stroke" d="M 228.5430145263672 551.5454711914062 L 304.29774475097656 551.5454711914062 L 304.29774475097656 604.1818351745605 L 228.5430145263672 604.1818351745605 L 228.5430145263672 551.5454711914062" fill-opacity="1" clip-path="url(#dTSxvDgNymZk)"/><path fill="rgb(81,60,99)" stroke="none" paint-order="stroke" d="M 304.2977294921875 551.5454711914062 L 358.79931640625 551.5454711914062 L 358.79931640625 604.1818351745605 L 304.2977294921875 604.1818351745605 L 304.2977294921875 551.5454711914062" fill-opacity="1" clip-path="url(#dTSxvDgNymZk)"/><path fill="none" stroke="rgb(0,0,0)" paint-order="fill" d="M 58.5 77.81818389892578 L 358.79931640625 77.81818389892578 L 358.79931640625 604.1818313598633 L 58.5 604.1818313598633 L 58.5 77.81818389892578" stroke-opacity="1" stroke-linejoin="bevel" stroke-miterlimit="10" stroke-dasharray="" clip-path="url(#BGuOZIhvhBCH)"/><path fill="none" stroke="rgb(0,0,0)" paint-order="fill" d="M 58.5 630.5 L 1336.5 630.5" stroke-opacity="1" stroke-linejoin="bevel" stroke-miterlimit="10" stroke-dasharray=""/><path fill="none" stroke="rgb(0,0,0)" paint-order="fill" d="M 58.5 636.5 L 58.5 628.5 M 314.5 636.5 L 314.5 628.5 M 569.5 636.5 L 569.5 628.5 M 825.5 636.5 L 825.5 628.5 M 1080.5 636.5 L 1080.5 628.5 M 1336.5 636.5 L 1336.5 628.5" stroke-opacity="1" stroke-linejoin="bevel" stroke-miterlimit="10" stroke-dasharray=""/><path fill="none" stroke="rgb(0,0,0)" paint-order="fill" d="M 58.5 634.5 L 58.5 630.5 M 109.5 634.5 L 109.5 630.5 M 160.5 634.5 L 160.5 630.5 M 211.5 634.5 L 211.5 630.5 M 262.5 634.5 L 262.5 630.5 M 314.5 634.5 L 314.5 630.5 M 365.5 634.5 L 365.5 630.5 M 416.5 634.5 L 416.5 630.5 M 467.5 634.5 L 467.5 630.5 M 518.5 634.5 L 518.5 630.5 M 569.5 634.5 L 569.5 630.5 M 620.5 634.5 L 620.5 630.5 M 671.5 634.5 L 671.5 630.5 M 723.5 634.5 L 723.5 630.5 M 774.5 634.5 L 774.5 630.5 M 825.5 634.5 L 825.5 630.5 M 876.5 634.5 L 876.5 630.5 M 927.5 634.5 L 927.5 630.5 M 978.5 634.5 L 978.5 630.5 M 1029.5 634.5 L 1029.5 630.5 M 1080.5 634.5 L 1080.5 630.5 M 1132.5 634.5 L 1132.5 630.5 M 1183.5 634.5 L 1183.5 630.5 M 1234.5 634.5 L 1234.5 630.5 M 1285.5 634.5 L 1285.5 630.5 M 1336.5 634.5 L 1336.5 630.5" stroke-opacity="1" stroke-linejoin="bevel" stroke-miterlimit="10" stroke-dasharray=""/><text fill="rgb(68,68,68)" stroke="none" font-family="helvetica" font-size="11px" font-style="normal" font-weight="normal" text-decoration="normal" x="54.94166660308838" y="648.89013671875" text-anchor="start" dominant-baseline="alphabetic" transform="matrix(1, 0, 0, 1, 0.5, 0.5)" fill-opacity="1">0</text><text fill="rgb(68,68,68)" stroke="none" font-family="helvetica" font-size="11px" font-style="normal" font-weight="normal" text-decoration="normal" x="304.42500591278076" y="648.89013671875" text-anchor="start" dominant-baseline="alphabetic" transform="matrix(1, 0, 0, 1, 0.5, 0.5)" fill-opacity="1">200</text><text fill="rgb(68,68,68)" stroke="none" font-family="helvetica" font-size="11px" font-style="normal" font-weight="normal" text-decoration="normal" x="560.0250120162964" y="648.89013671875" text-anchor="start" dominant-baseline="alphabetic" transform="matrix(1, 0, 0, 1, 0.5, 0.5)" fill-opacity="1">400</text><text fill="rgb(68,68,68)" stroke="none" font-family="helvetica" font-size="11px" font-style="normal" font-weight="normal" text-decoration="normal" x="815.6249876022339" y="648.89013671875" text-anchor="start" dominant-baseline="alphabetic" transform="matrix(1, 0, 0, 1, 0.5, 0.5)" fill-opacity="1">600</text><text fill="rgb(68,68,68)" stroke="none" font-family="helvetica" font-size="11px" font-style="normal" font-weight="normal" text-decoration="normal" x="1071.2250242233276" y="648.89013671875" text-anchor="start" dominant-baseline="alphabetic" transform="matrix(1, 0, 0, 1, 0.5, 0.5)" fill-opacity="1">800</text><text fill="rgb(68,68,68)" stroke="none" font-family="helvetica" font-size="11px" font-style="normal" font-weight="normal" text-decoration="normal" x="1323.7666664123535" y="648.89013671875" text-anchor="start" dominant-baseline="alphabetic" transform="matrix(1, 0, 0, 1, 0.5, 0.5)" fill-opacity="1">1000</text><text fill="rgb(68,68,68)" stroke="none" font-family="helvetica" font-size="15pt" font-style="italic" font-weight="normal" text-decoration="normal" x="666.4416675567627" y="676.06982421875" text-anchor="start" dominant-baseline="alphabetic" transform="matrix(1, 0, 0, 1, 0.5, 0.5)" fill-opacity="1">time(s)</text><path fill="none" stroke="rgb(0,0,0)" paint-order="fill" d="M 58.5 630.5 L 58.5 51.5" stroke-opacity="1" stroke-linejoin="bevel" stroke-miterlimit="10" stroke-dasharray=""/><path fill="none" stroke="rgb(0,0,0)" paint-order="fill" d="M 52.5 551.5 L 60.5 551.5 M 52.5 446.5 L 60.5 446.5 M 52.5 341.5 L 60.5 341.5 M 52.5 235.5 L 60.5 235.5 M 52.5 130.5 L 60.5 130.5" stroke-opacity="1" stroke-linejoin="bevel" stroke-miterlimit="10" stroke-dasharray=""/><path fill="none" stroke="rgb(0,0,0)" paint-order="fill" d="M 54.5 572.5 L 58.5 572.5 M 54.5 593.5 L 58.5 593.5 M 54.5 614.5 L 58.5 614.5 M 54.5 551.5 L 58.5 551.5 M 54.5 530.5 L 58.5 530.5 M 54.5 509.5 L 58.5 509.5 M 54.5 488.5 L 58.5 488.5 M 54.5 467.5 L 58.5 467.5 M 54.5 446.5 L 58.5 446.5 M 54.5 425.5 L 58.5 425.5 M 54.5 404.5 L 58.5 404.5 M 54.5 383.5 L 58.5 383.5 M 54.5 362.5 L 58.5 362.5 M 54.5 341.5 L 58.5 341.5 M 54.5 319.5 L 58.5 319.5 M 54.5 298.5 L 58.5 298.5 M 54.5 277.5 L 58.5 277.5 M 54.5 256.5 L 58.5 256.5 M 54.5 235.5 L 58.5 235.5 M 54.5 214.5 L 58.5 214.5 M 54.5 193.5 L 58.5 193.5 M 54.5 172.5 L 58.5 172.5 M 54.5 151.5 L 58.5 151.5 M 54.5 130.5 L 58.5 130.5 M 54.5 109.5 L 58.5 109.5 M 54.5 88.5 L 58.5 88.5 M 54.5 67.5 L 58.5 67.5" stroke-opacity="1" stroke-linejoin="bevel" stroke-miterlimit="10" stroke-dasharray=""/><text fill="rgb(68,68,68)" stroke="none" font-family="helvetica" font-size="11px" font-style="normal" font-weight="normal" text-decoration="normal" x="34.46666622161865" y="554.9905395507812" text-anchor="start" dominant-baseline="alphabetic" transform="matrix(1, 0, 0, 1, 0.5, 0.5)" fill-opacity="1">2</text><text fill="rgb(68,68,68)" stroke="none" font-family="helvetica" font-size="11px" font-style="normal" font-weight="normal" text-decoration="normal" x="34.46666622161865" y="449.7178039550781" text-anchor="start" dominant-baseline="alphabetic" transform="matrix(1, 0, 0, 1, 0.5, 0.5)" fill-opacity="1">1</text><text fill="rgb(68,68,68)" stroke="none" font-family="helvetica" font-size="11px" font-style="normal" font-weight="normal" text-decoration="normal" x="40.88333320617676" y="344.445068359375" text-anchor="start" dominant-baseline="alphabetic" transform="matrix(1, 0, 0, 1, 0.5, 0.5)" fill-opacity="1">0</text><text fill="rgb(68,68,68)" stroke="none" font-family="helvetica" font-size="11px" font-style="normal" font-weight="normal" text-decoration="normal" x="40.88333320617676" y="239.17234802246094" text-anchor="start" dominant-baseline="alphabetic" transform="matrix(1, 0, 0, 1, 0.5, 0.5)" fill-opacity="1">1</text><text fill="rgb(68,68,68)" stroke="none" font-family="helvetica" font-size="11px" font-style="normal" font-weight="normal" text-decoration="normal" x="40.88333320617676" y="133.8996124267578" text-anchor="start" dominant-baseline="alphabetic" transform="matrix(1, 0, 0, 1, 0.5, 0.5)" fill-opacity="1">2</text><text fill="rgb(68,68,68)" stroke="none" font-family="helvetica" font-size="15pt" font-style="italic" font-weight="normal" text-decoration="normal" x="-11.316666603088379" y="336.076171875" text-anchor="start" dominant-baseline="alphabetic" transform="matrix(6.123233995736766e-17, -1, 1, 6.123233995736766e-17, -313.53333377838135, 367.46666622161865)" fill-opacity="1">students</text><path fill="rgb(255,255,255)" stroke="rgb(229,229,229)" paint-order="fill" d="M 1128.2333374023438 61.5 L 1326.5 61.5 L 1326.5 400.5 L 1128.2333374023438 400.5 L 1128.2333374023438 61.5" fill-opacity="0.9490196078431372" clip-path="url(#IVbmOCvdMKXc)" stroke-opacity="0.5019607843137255" stroke-linejoin="bevel" stroke-miterlimit="10" stroke-dasharray=""/><text fill="rgb(68,68,68)" stroke="none" font-family="helvetica" font-size="13px" font-style="normal" font-weight="normal" text-decoration="normal" x="1162.7333374023438" y="81" text-anchor="start" dominant-baseline="central" clip-path="url(#IVbmOCvdMKXc)" transform="matrix(1, 0, 0, 1, 0.5, 0.5)" fill-opacity="1">wavelength</text><path fill="rgb(0,255,40)" stroke="none" paint-order="stroke" d="M 1140.2333374023438 73.5 L 1156.2333374023438 73.5 L 1156.2333374023438 89.5 L 1140.2333374023438 89.5 L 1140.2333374023438 73.5" fill-opacity="1" clip-path="url(#IVbmOCvdMKXc)"/><path fill="rgb(216,17,89)" stroke="none" paint-order="stroke" d="M 1140.2333374023438 73.5 L 1156.2333374023438 73.5 L 1156.2333374023438 89.5 L 1140.2333374023438 89.5 L 1140.2333374023438 73.5" fill-opacity="1" clip-path="url(#IVbmOCvdMKXc)"/><text fill="rgb(68,68,68)" stroke="none" font-family="helvetica" font-size="13px" font-style="normal" font-weight="normal" text-decoration="normal" x="1162.7333374023438" y="104" text-anchor="start" dominant-baseline="central" clip-path="url(#IVbmOCvdMKXc)" transform="matrix(1, 0, 0, 1, 0.5, 0.5)" fill-opacity="1">solution</text><path fill="rgb(251,0,7)" stroke="none" paint-order="stroke" d="M 1140.2333374023438 96.5 L 1156.2333374023438 96.5 L 1156.2333374023438 112.5 L 1140.2333374023438 112.5 L 1140.2333374023438 96.5" fill-opacity="1" clip-path="url(#IVbmOCvdMKXc)"/><path fill="rgb(33,131,128)" stroke="none" paint-order="stroke" d="M 1140.2333374023438 96.5 L 1156.2333374023438 96.5 L 1156.2333374023438 112.5 L 1140.2333374023438 112.5 L 1140.2333374023438 96.5" fill-opacity="1" clip-path="url(#IVbmOCvdMKXc)"/><text fill="rgb(68,68,68)" stroke="none" font-family="helvetica" font-size="13px" font-style="normal" font-weight="normal" text-decoration="normal" x="1162.7333374023438" y="127" text-anchor="start" dominant-baseline="central" clip-path="url(#IVbmOCvdMKXc)" transform="matrix(1, 0, 0, 1, 0.5, 0.5)" fill-opacity="1">laser</text><path fill="rgb(105,29,48)" stroke="none" paint-order="stroke" d="M 1140.2333374023438 119.5 L 1156.2333374023438 119.5 L 1156.2333374023438 135.5 L 1140.2333374023438 135.5 L 1140.2333374023438 119.5" fill-opacity="1" clip-path="url(#IVbmOCvdMKXc)"/><text fill="rgb(68,68,68)" stroke="none" font-family="helvetica" font-size="13px" font-style="normal" font-weight="normal" text-decoration="normal" x="1162.7333374023438" y="150" text-anchor="start" dominant-baseline="central" clip-path="url(#IVbmOCvdMKXc)" transform="matrix(1, 0, 0, 1, 0.5, 0.5)" fill-opacity="1">ruler</text><path fill="rgb(255,188,66)" stroke="none" paint-order="stroke" d="M 1140.2333374023438 142.5 L 1156.2333374023438 142.5 L 1156.2333374023438 158.5 L 1140.2333374023438 158.5 L 1140.2333374023438 142.5" fill-opacity="1" clip-path="url(#IVbmOCvdMKXc)"/><text fill="rgb(68,68,68)" stroke="none" font-family="helvetica" font-size="13px" font-style="normal" font-weight="normal" text-decoration="normal" x="1162.7333374023438" y="173" text-anchor="start" dominant-baseline="central" clip-path="url(#IVbmOCvdMKXc)" transform="matrix(1, 0, 0, 1, 0.5, 0.5)" fill-opacity="1">restarts</text><text fill="rgb(68,68,68)" stroke="none" font-family="helvetica" font-size="13px" font-style="normal" font-weight="normal" text-decoration="normal" x="1162.7333374023438" y="196" text-anchor="start" dominant-baseline="central" clip-path="url(#IVbmOCvdMKXc)" transform="matrix(1, 0, 0, 1, 0.5, 0.5)" fill-opacity="1">transmittance_absorbance</text><path fill="rgb(162,174,187)" stroke="none" paint-order="stroke" d="M 1140.2333374023438 188.5 L 1156.2333374023438 188.5 L 1156.2333374023438 204.5 L 1140.2333374023438 204.5 L 1140.2333374023438 188.5" fill-opacity="1" clip-path="url(#IVbmOCvdMKXc)"/><text fill="rgb(68,68,68)" stroke="none" font-family="helvetica" font-size="13px" font-style="normal" font-weight="normal" text-decoration="normal" x="1162.7333374023438" y="219" text-anchor="start" dominant-baseline="central" clip-path="url(#IVbmOCvdMKXc)" transform="matrix(1, 0, 0, 1, 0.5, 0.5)" fill-opacity="1">magnifier</text><text fill="rgb(68,68,68)" stroke="none" font-family="helvetica" font-size="13px" font-style="normal" font-weight="normal" text-decoration="normal" x="1162.7333374023438" y="242" text-anchor="start" dominant-baseline="central" clip-path="url(#IVbmOCvdMKXc)" transform="matrix(1, 0, 0, 1, 0.5, 0.5)" fill-opacity="1">concentration</text><path fill="rgb(115,210,222)" stroke="none" paint-order="stroke" d="M 1140.2333374023438 234.5 L 1156.2333374023438 234.5 L 1156.2333374023438 250.5 L 1140.2333374023438 250.5 L 1140.2333374023438 234.5" fill-opacity="1" clip-path="url(#IVbmOCvdMKXc)"/><text fill="rgb(68,68,68)" stroke="none" font-family="helvetica" font-size="13px" font-style="normal" font-weight="normal" text-decoration="normal" x="1162.7333374023438" y="265" text-anchor="start" dominant-baseline="central" clip-path="url(#IVbmOCvdMKXc)" transform="matrix(1, 0, 0, 1, 0.5, 0.5)" fill-opacity="1">flask</text><path fill="rgb(28,49,68)" stroke="none" paint-order="stroke" d="M 1140.2333374023438 257.5 L 1156.2333374023438 257.5 L 1156.2333374023438 273.5 L 1140.2333374023438 273.5 L 1140.2333374023438 257.5" fill-opacity="1" clip-path="url(#IVbmOCvdMKXc)"/><text fill="rgb(68,68,68)" stroke="none" font-family="helvetica" font-size="13px" font-style="normal" font-weight="normal" text-decoration="normal" x="1162.7333374023438" y="288" text-anchor="start" dominant-baseline="central" clip-path="url(#IVbmOCvdMKXc)" transform="matrix(1, 0, 0, 1, 0.5, 0.5)" fill-opacity="1">pdf</text><path fill="rgb(239,185,203)" stroke="none" paint-order="stroke" d="M 1140.2333374023438 280.5 L 1156.2333374023438 280.5 L 1156.2333374023438 296.5 L 1140.2333374023438 296.5 L 1140.2333374023438 280.5" fill-opacity="1" clip-path="url(#IVbmOCvdMKXc)"/><text fill="rgb(68,68,68)" stroke="none" font-family="helvetica" font-size="13px" font-style="normal" font-weight="normal" text-decoration="normal" x="1162.7333374023438" y="311" text-anchor="start" dominant-baseline="central" clip-path="url(#IVbmOCvdMKXc)" transform="matrix(1, 0, 0, 1, 0.5, 0.5)" fill-opacity="1">concentrationlab</text><text fill="rgb(68,68,68)" stroke="none" font-family="helvetica" font-size="13px" font-style="normal" font-weight="normal" text-decoration="normal" x="1162.7333374023438" y="334" text-anchor="start" dominant-baseline="central" clip-path="url(#IVbmOCvdMKXc)" transform="matrix(1, 0, 0, 1, 0.5, 0.5)" fill-opacity="1">wavelength_slider</text><path fill="rgb(105,29,48)" stroke="none" paint-order="stroke" d="M 1140.2333374023438 326.5 L 1156.2333374023438 326.5 L 1156.2333374023438 342.5 L 1140.2333374023438 342.5 L 1140.2333374023438 326.5" fill-opacity="1" clip-path="url(#IVbmOCvdMKXc)"/><text fill="rgb(68,68,68)" stroke="none" font-family="helvetica" font-size="13px" font-style="normal" font-weight="normal" text-decoration="normal" x="1162.7333374023438" y="357" text-anchor="start" dominant-baseline="central" clip-path="url(#IVbmOCvdMKXc)" transform="matrix(1, 0, 0, 1, 0.5, 0.5)" fill-opacity="1">ruler measuring</text><path fill="rgb(255,188,66)" stroke="none" paint-order="stroke" d="M 1140.2333374023438 349.5 L 1156.2333374023438 349.5 L 1156.2333374023438 365.5 L 1140.2333374023438 365.5 L 1140.2333374023438 349.5" fill-opacity="1" clip-path="url(#IVbmOCvdMKXc)"/><text fill="rgb(68,68,68)" stroke="none" font-family="helvetica" font-size="13px" font-style="normal" font-weight="normal" text-decoration="normal" x="1162.7333374023438" y="380" text-anchor="start" dominant-baseline="central" clip-path="url(#IVbmOCvdMKXc)" transform="matrix(1, 0, 0, 1, 0.5, 0.5)" fill-opacity="1">dependent variable</text><path fill="rgb(143,45,86)" stroke="none" paint-order="stroke" d="M 1140.2333374023438 372.5 L 1156.2333374023438 372.5 L 1156.2333374023438 388.5 L 1140.2333374023438 388.5 L 1140.2333374023438 372.5" fill-opacity="1" clip-path="url(#IVbmOCvdMKXc)"/><text fill="rgb(68,68,68)" stroke="none" font-family="helvetica" font-size="25pt" font-style="normal" font-weight="bold" text-decoration="normal" x="58" y="38.740885416666664" text-anchor="start" dominant-baseline="alphabetic" transform="matrix(1, 0, 0, 1, 0.5, 0.5)" fill-opacity="1">Timeline for student p6mkaa4e with permutation 0213 for task 3</text></svg>