<svg version="1.1" xmlns="http://www.w3.org/2000/svg" width="1366" height="683"><defs><clipPath id="UCHUSOcXZZgW"><path fill="none" stroke="none" d="M 58.5 51.5 L 1336.5 51.5 L 1336.5 630.5 L 58.5 630.5 L 58.5 51.5"/></clipPath><clipPath id="yffITcUfasxu"><path fill="none" stroke="none" d="M 58.5 51.5 L 1336.5 51.5 L 1336.5 630.5 L 58.5 630.5 L 58.5 51.5"/></clipPath><clipPath id="FvoiFBDJFcbH"><path fill="none" stroke="none" d="M 58.5 51.5 L 1336.5 51.5 L 1336.5 630.5 L 58.5 630.5 L 58.5 51.5"/></clipPath><clipPath id="wOBgTxLcNloy"><path fill="none" stroke="none" d="M 58.5 51.5 L 1336.5 51.5 L 1336.5 630.5 L 58.5 630.5 L 58.5 51.5"/></clipPath><clipPath id="CgxqMxInZaUp"><path fill="none" stroke="none" d="M 58.5 51.5 L 1336.5 51.5 L 1336.5 630.5 L 58.5 630.5 L 58.5 51.5"/></clipPath><clipPath id="IvscpzGcKnpC"><path fill="none" stroke="none" d="M 58.5 51.5 L 1336.5 51.5 L 1336.5 630.5 L 58.5 630.5 L 58.5 51.5"/></clipPath><clipPath id="cFkVieukSwUz"><path fill="none" stroke="none" d="M 58.5 51.5 L 1336.5 51.5 L 1336.5 630.5 L 58.5 630.5 L 58.5 51.5"/></clipPath><clipPath id="bUQxlFfRPaQJ"><path fill="none" stroke="none" d="M 58.5 51.5 L 1336.5 51.5 L 1336.5 630.5 L 58.5 630.5 L 58.5 51.5"/></clipPath><clipPath id="AQyaxCIcnmhT"><path fill="none" stroke="none" d="M 58.5 51.5 L 1336.5 51.5 L 1336.5 630.5 L 58.5 630.5 L 58.5 51.5"/></clipPath><clipPath id="NSfdWSyMBgne"><path fill="none" stroke="none" d="M 58.5 51.5 L 1336.5 51.5 L 1336.5 630.5 L 58.5 630.5 L 58.5 51.5"/></clipPath><clipPath id="GdUhpOcELPrF"><path fill="none" stroke="none" d="M 58.5 51.5 L 1336.5 51.5 L 1336.5 630.5 L 58.5 630.5 L 58.5 51.5"/></clipPath><clipPath id="vkfmbGmcPzWW"><path fill="none" stroke="none" d="M 58.5 51.5 L 1336.5 51.5 L 1336.5 630.5 L 58.5 630.5 L 58.5 51.5"/></clipPath><clipPath id="CRylPUJmwVlI"><path fill="none" stroke="none" d="M 58.5 51.5 L 1336.5 51.5 L 1336.5 630.5 L 58.5 630.5 L 58.5 51.5"/></clipPath><clipPath id="fTgkZuQOhwEh"><path fill="none" stroke="none" d="M 58.5 51.5 L 1336.5 51.5 L 1336.5 630.5 L 58.5 630.5 L 58.5 51.5"/></clipPath><clipPath id="diOxItgEycTS"><path fill="none" stroke="none" d="M 58.5 51.5 L 1336.5 51.5 L 1336.5 630.5 L 58.5 630.5 L 58.5 51.5"/></clipPath><clipPath id="kBQyndZtnMLs"><path fill="none" stroke="none" d="M 58.5 51.5 L 1336.5 51.5 L 1336.5 630.5 L 58.5 630.5 L 58.5 51.5"/></clipPath><clipPath id="yMRuZUzaWhTf"><path fill="none" stroke="none" d="M 58.5 51.5 L 1336.5 51.5 L 1336.5 630.5 L 58.5 630.5 L 58.5 51.5"/></clipPath><clipPath id="ynfuMFlKrMgy"><path fill="none" stroke="none" d="M 58.5 51.5 L 1336.5 51.5 L 1336.5 630.5 L 58.5 630.5 L 58.5 51.5"/></clipPath><clipPath id="pZUcUkHSEAtC"><path fill="none" stroke="none" d="M 58.5 51.5 L 1336.5 51.5 L 1336.5 630.5 L 58.5 630.5 L 58.5 51.5"/></clipPath><clipPath id="fqVsmtcIfUcM"><path fill="none" stroke="none" d="M 58.5 51.5 L 1336.5 51.5 L 1336.5 630.5 L 58.5 630.5 L 58.5 51.5"/></clipPath><clipPath id="rsRoKxBZTIip"><path fill="none" stroke="none" d="M 58.5 51.5 L 1336.5 51.5 L 1336.5 630.5 L 58.5 630.5 L 58.5 51.5"/></clipPath></defs><path fill="rgb(255,255,255)" stroke="none" paint-order="stroke" d="M 0.5 0.5 L 1366.5 0.5 L 1366.5 683.5 L 0.5 683.5 L 0.5 0.5" fill-opacity="1"/><rect fill="#FFFFFF" stroke="none" x="58" y="51" width="1278" height="579" transform="matrix(1, 0, 0, 1, 0.5, 0.5)"/><path fill="rgb(255,255,255)" stroke="none" paint-order="stroke" d="M 58.5 51.5 L 1336.5 51.5 L 1336.5 630.5 L 58.5 630.5 L 58.5 51.5" fill-opacity="1"/><path fill="none" stroke="rgb(229,229,229)" paint-order="fill" d="M 58.5 51.5 L 1336.5 51.5 L 1336.5 630.5 L 58.5 630.5 L 58.5 51.5" stroke-opacity="1" stroke-linejoin="bevel" stroke-miterlimit="10" stroke-dasharray=""/><path fill="none" stroke="rgb(229,229,229)" paint-order="fill" d="M 314.5 630.5 L 314.5 51.5 M 569.5 630.5 L 569.5 51.5 M 825.5 630.5 L 825.5 51.5 M 1080.5 630.5 L 1080.5 51.5" stroke-opacity="1" stroke-linejoin="bevel" stroke-miterlimit="10" stroke-dasharray="" clip-path="url(#UCHUSOcXZZgW)"/><path fill="none" stroke="rgb(229,229,229)" paint-order="fill" d="M 58.5 551.5 L 1336.5 551.5 M 58.5 446.5 L 1336.5 446.5 M 58.5 341.5 L 1336.5 341.5 M 58.5 235.5 L 1336.5 235.5 M 58.5 130.5 L 1336.5 130.5" stroke-opacity="1" stroke-linejoin="bevel" stroke-miterlimit="10" stroke-dasharray="" clip-path="url(#yffITcUfasxu)"/><path fill="rgb(0,255,40)" stroke="none" paint-order="stroke" d="M 58.5 77.81818389892578 L 102.17565155029297 77.81818389892578 L 102.17565155029297 130.45454788208008 L 58.5 130.45454788208008 L 58.5 77.81818389892578" fill-opacity="1" clip-path="url(#FvoiFBDJFcbH)"/><path fill="rgb(0,209,255)" stroke="none" paint-order="stroke" d="M 102.17565155029297 77.81818389892578 L 102.28555954992771 77.81818389892578 L 102.28555954992771 130.45454788208008 L 102.17565155029297 130.45454788208008 L 102.17565155029297 77.81818389892578" fill-opacity="1" clip-path="url(#FvoiFBDJFcbH)"/><path fill="rgb(0,226,255)" stroke="none" paint-order="stroke" d="M 102.28556060791016 77.81818389892578 L 102.30728660710156 77.81818389892578 L 102.30728660710156 130.45454788208008 L 102.28556060791016 130.45454788208008 L 102.28556060791016 77.81818389892578" fill-opacity="1" clip-path="url(#FvoiFBDJFcbH)"/><path fill="rgb(0,255,213)" stroke="none" paint-order="stroke" d="M 102.30728149414062 77.81818389892578 L 102.3277294933796 77.81818389892578 L 102.3277294933796 130.45454788208008 L 102.30728149414062 130.45454788208008 L 102.30728149414062 77.81818389892578" fill-opacity="1" clip-path="url(#FvoiFBDJFcbH)"/><path fill="rgb(159,255,0)" stroke="none" paint-order="stroke" d="M 102.32772827148438 77.81818389892578 L 102.34945427067578 77.81818389892578 L 102.34945427067578 130.45454788208008 L 102.32772827148438 130.45454788208008 L 102.32772827148438 77.81818389892578" fill-opacity="1" clip-path="url(#FvoiFBDJFcbH)"/><path fill="rgb(255,196,0)" stroke="none" paint-order="stroke" d="M 102.34945678710938 77.81818389892578 L 102.37118278630078 77.81818389892578 L 102.37118278630078 130.45454788208008 L 102.34945678710938 130.45454788208008 L 102.34945678710938 77.81818389892578" fill-opacity="1" clip-path="url(#FvoiFBDJFcbH)"/><path fill="rgb(135,0,0)" stroke="none" paint-order="stroke" d="M 102.37118530273438 77.81818389892578 L 102.39163330197334 77.81818389892578 L 102.39163330197334 130.45454788208008 L 102.37118530273438 130.45454788208008 L 102.37118530273438 77.81818389892578" fill-opacity="1" clip-path="url(#FvoiFBDJFcbH)"/><path fill="rgb(0,0,0)" stroke="none" paint-order="stroke" d="M 102.39163208007812 77.81818389892578 L 103.47793209552765 77.81818389892578 L 103.47793209552765 130.45454788208008 L 102.39163208007812 130.45454788208008 L 102.39163208007812 77.81818389892578" fill-opacity="1" clip-path="url(#FvoiFBDJFcbH)"/><path fill="rgb(0,0,0)" stroke="none" paint-order="stroke" d="M 103.47793579101562 77.81818389892578 L 103.52010979130864 77.81818389892578 L 103.52010979130864 130.45454788208008 L 103.47793579101562 130.45454788208008 L 103.47793579101562 77.81818389892578" fill-opacity="1" clip-path="url(#FvoiFBDJFcbH)"/><path fill="rgb(0,0,0)" stroke="none" paint-order="stroke" d="M 103.52010345458984 77.81818389892578 L 103.56355545297265 77.81818389892578 L 103.56355545297265 130.45454788208008 L 103.52010345458984 130.45454788208008 L 103.52010345458984 77.81818389892578" fill-opacity="1" clip-path="url(#FvoiFBDJFcbH)"/><path fill="rgb(0,0,0)" stroke="none" paint-order="stroke" d="M 103.56356048583984 77.81818389892578 L 103.58400848507881 77.81818389892578 L 103.58400848507881 130.45454788208008 L 103.56356048583984 130.45454788208008 L 103.56356048583984 77.81818389892578" fill-opacity="1" clip-path="url(#FvoiFBDJFcbH)"/><path fill="rgb(197,0,0)" stroke="none" paint-order="stroke" d="M 103.5840072631836 77.81818389892578 L 103.605733262375 77.81818389892578 L 103.605733262375 130.45454788208008 L 103.5840072631836 130.45454788208008 L 103.5840072631836 77.81818389892578" fill-opacity="1" clip-path="url(#FvoiFBDJFcbH)"/><path fill="rgb(255,57,0)" stroke="none" paint-order="stroke" d="M 103.6057357788086 77.81818389892578 L 103.627461778 77.81818389892578 L 103.627461778 130.45454788208008 L 103.6057357788086 130.45454788208008 L 103.6057357788086 77.81818389892578" fill-opacity="1" clip-path="url(#FvoiFBDJFcbH)"/><path fill="rgb(240,255,0)" stroke="none" paint-order="stroke" d="M 103.62745666503906 77.81818389892578 L 103.64790466427803 77.81818389892578 L 103.64790466427803 130.45454788208008 L 103.62745666503906 130.45454788208008 L 103.62745666503906 77.81818389892578" fill-opacity="1" clip-path="url(#FvoiFBDJFcbH)"/><path fill="rgb(70,255,0)" stroke="none" paint-order="stroke" d="M 103.64790344238281 77.81818389892578 L 103.7974294424057 77.81818389892578 L 103.7974294424057 130.45454788208008 L 103.64790344238281 130.45454788208008 L 103.64790344238281 77.81818389892578" fill-opacity="1" clip-path="url(#FvoiFBDJFcbH)"/><path fill="rgb(53,255,0)" stroke="none" paint-order="stroke" d="M 103.79743194580078 77.81818389892578 L 103.92523194849491 77.81818389892578 L 103.92523194849491 130.45454788208008 L 103.79743194580078 130.45454788208008 L 103.79743194580078 77.81818389892578" fill-opacity="1" clip-path="url(#FvoiFBDJFcbH)"/><path fill="rgb(35,255,0)" stroke="none" paint-order="stroke" d="M 103.92523193359375 77.81818389892578 L 279.3831329345703 77.81818389892578 L 279.3831329345703 130.45454788208008 L 103.92523193359375 130.45454788208008 L 103.92523193359375 77.81818389892578" fill-opacity="1" clip-path="url(#FvoiFBDJFcbH)"/><path fill="rgb(251,0,7)" stroke="none" paint-order="stroke" d="M 58.5 130.4545440673828 L 279.3831329345703 130.4545440673828 L 279.3831329345703 183.0909080505371 L 58.5 183.0909080505371 L 58.5 130.4545440673828" fill-opacity="1" clip-path="url(#wOBgTxLcNloy)"/><path fill="rgb(105,29,48)" stroke="none" paint-order="stroke" d="M 91.58358764648438 183.09091186523438 L 91.64748764783144 183.09091186523438 L 91.64748764783144 498.9090881347656 L 91.58358764648438 498.9090881347656 L 91.58358764648438 183.09091186523438" fill-opacity="1" clip-path="url(#CgxqMxInZaUp)"/><path fill="rgb(255,188,66)" stroke="none" paint-order="stroke" d="M 249.71563720703125 183.09091186523438 L 252.09271717071533 183.09091186523438 L 252.09271717071533 498.9090881347656 L 249.71563720703125 498.9090881347656 L 249.71563720703125 183.09091186523438" fill-opacity="1" clip-path="url(#IvscpzGcKnpC)"/><path fill="rgb(255,188,66)" stroke="none" paint-order="stroke" d="M 253.3502655029297 183.09091186523438 L 256.72546339035034 183.09091186523438 L 256.72546339035034 498.9090881347656 L 253.3502655029297 498.9090881347656 L 253.3502655029297 183.09091186523438" fill-opacity="1" clip-path="url(#IvscpzGcKnpC)"/><path fill="rgb(255,188,66)" stroke="none" paint-order="stroke" d="M 267.8018798828125 183.09091186523438 L 271.67549777030945 183.09091186523438 L 271.67549777030945 498.9090881347656 L 267.8018798828125 498.9090881347656 L 267.8018798828125 183.09091186523438" fill-opacity="1" clip-path="url(#IvscpzGcKnpC)"/><path fill="rgb(255,188,66)" stroke="none" paint-order="stroke" d="M 86.77830505371094 183.09091186523438 L 87.29206103086472 183.09091186523438 L 87.29206103086472 498.9090881347656 L 86.77830505371094 498.9090881347656 L 86.77830505371094 183.09091186523438" fill-opacity="1" clip-path="url(#AQyaxCIcnmhT)"/><path fill="rgb(255,188,66)" stroke="none" paint-order="stroke" d="M 88.09848022460938 183.09091186523438 L 89.06209224462509 183.09091186523438 L 89.06209224462509 498.9090881347656 L 88.09848022460938 498.9090881347656 L 88.09848022460938 183.09091186523438" fill-opacity="1" clip-path="url(#AQyaxCIcnmhT)"/><path fill="rgb(255,188,66)" stroke="none" paint-order="stroke" d="M 89.61290740966797 183.09091186523438 L 90.16500341892242 183.09091186523438 L 90.16500341892242 498.9090881347656 L 89.61290740966797 498.9090881347656 L 89.61290740966797 183.09091186523438" fill-opacity="1" clip-path="url(#AQyaxCIcnmhT)"/><path fill="rgb(255,188,66)" stroke="none" paint-order="stroke" d="M 92.92548370361328 183.09091186523438 L 97.13777160644531 183.09091186523438 L 97.13777160644531 498.9090881347656 L 92.92548370361328 498.9090881347656 L 92.92548370361328 183.09091186523438" fill-opacity="1" clip-path="url(#AQyaxCIcnmhT)"/><path fill="rgb(255,188,66)" stroke="none" paint-order="stroke" d="M 275.8481750488281 183.09091186523438 L 278.6993930339813 183.09091186523438 L 278.6993930339813 498.9090881347656 L 275.8481750488281 498.9090881347656 L 275.8481750488281 183.09091186523438" fill-opacity="1" clip-path="url(#AQyaxCIcnmhT)"/><path fill="rgb(255,188,66)" stroke="none" paint-order="stroke" d="M 278.9422302246094 183.09091186523438 L 279.3831402361393 183.09091186523438 L 279.3831402361393 498.9090881347656 L 278.9422302246094 498.9090881347656 L 278.9422302246094 183.09091186523438" fill-opacity="1" clip-path="url(#AQyaxCIcnmhT)"/><path fill="rgb(216,17,89)" stroke="none" paint-order="stroke" d="M 99.96598815917969 183.09091186523438 L 100.02988816052675 183.09091186523438 L 100.02988816052675 498.9090881347656 L 99.96598815917969 498.9090881347656 L 99.96598815917969 183.09091186523438" fill-opacity="1" clip-path="url(#NSfdWSyMBgne)"/><path fill="rgb(216,17,89)" stroke="none" paint-order="stroke" d="M 99.96598815917969 183.09091186523438 L 100.02988816052675 183.09091186523438 L 100.02988816052675 498.9090881347656 L 99.96598815917969 498.9090881347656 L 99.96598815917969 183.09091186523438" fill-opacity="1" clip-path="url(#NSfdWSyMBgne)"/><path fill="rgb(33,131,128)" stroke="none" paint-order="stroke" d="M 105.50867462158203 183.09091186523438 L 106.90680658817291 183.09091186523438 L 106.90680658817291 498.9090881347656 L 105.50867462158203 498.9090881347656 L 105.50867462158203 183.09091186523438" fill-opacity="1" clip-path="url(#GdUhpOcELPrF)"/><path fill="rgb(28,49,68)" stroke="none" paint-order="stroke" d="M 259.1485595703125 183.09091186523438 L 260.8546895980835 183.09091186523438 L 260.8546895980835 498.9090881347656 L 259.1485595703125 498.9090881347656 L 259.1485595703125 183.09091186523438" fill-opacity="1" clip-path="url(#CRylPUJmwVlI)"/><path fill="rgb(28,49,68)" stroke="none" paint-order="stroke" d="M 262.173583984375 183.09091186523438 L 264.80882000923157 183.09091186523438 L 264.80882000923157 498.9090881347656 L 262.173583984375 498.9090881347656 L 262.173583984375 183.09091186523438" fill-opacity="1" clip-path="url(#CRylPUJmwVlI)"/><path fill="rgb(239,185,203)" stroke="none" paint-order="stroke" d="M 67.15333557128906 183.09091186523438 L 79.1716480255127 183.09091186523438 L 79.1716480255127 498.9090881347656 L 67.15333557128906 498.9090881347656 L 67.15333557128906 183.09091186523438" fill-opacity="1" clip-path="url(#fTgkZuQOhwEh)"/><path fill="rgb(239,185,203)" stroke="none" paint-order="stroke" d="M 109.97783660888672 183.09091186523438 L 243.8036117553711 183.09091186523438 L 243.8036117553711 498.9090881347656 L 109.97783660888672 498.9090881347656 L 109.97783660888672 183.09091186523438" fill-opacity="1" clip-path="url(#fTgkZuQOhwEh)"/><path fill="rgb(105,29,48)" stroke="none" paint-order="stroke" d="M 102.17565155029297 183.09091186523438 L 104.2690155506134 183.09091186523438 L 104.2690155506134 498.9090881347656 L 102.17565155029297 498.9090881347656 L 102.17565155029297 183.09091186523438" fill-opacity="1" clip-path="url(#kBQyndZtnMLs)"/><path fill="rgb(255,188,66)" stroke="none" paint-order="stroke" d="M 254.3138885498047 498.9090881347656 L 255.20721054077148 498.9090881347656 L 255.20721054077148 551.5454521179199 L 254.3138885498047 551.5454521179199 L 254.3138885498047 498.9090881347656" fill-opacity="1" clip-path="url(#yMRuZUzaWhTf)"/><path fill="rgb(255,188,66)" stroke="none" paint-order="stroke" d="M 255.65451049804688 498.9090881347656 L 279.3831367492676 498.9090881347656 L 279.3831367492676 551.5454521179199 L 255.65451049804688 551.5454521179199 L 255.65451049804688 498.9090881347656" fill-opacity="1" clip-path="url(#yMRuZUzaWhTf)"/><path fill="rgb(143,45,86)" stroke="none" paint-order="stroke" d="M 58.5 551.5454711914062 L 93.70634460449219 551.5454711914062 L 93.70634460449219 604.1818351745605 L 58.5 604.1818351745605 L 58.5 551.5454711914062" fill-opacity="1" clip-path="url(#ynfuMFlKrMgy)"/><path fill="rgb(63,136,197)" stroke="none" paint-order="stroke" d="M 93.70634460449219 551.5454711914062 L 94.81309258937836 551.5454711914062 L 94.81309258937836 604.1818351745605 L 93.70634460449219 604.1818351745605 L 93.70634460449219 551.5454711914062" fill-opacity="1" clip-path="url(#ynfuMFlKrMgy)"/><path fill="rgb(143,45,86)" stroke="none" paint-order="stroke" d="M 94.81309509277344 551.5454711914062 L 96.47321712970734 551.5454711914062 L 96.47321712970734 604.1818351745605 L 94.81309509277344 604.1818351745605 L 94.81309509277344 551.5454711914062" fill-opacity="1" clip-path="url(#ynfuMFlKrMgy)"/><path fill="rgb(63,136,197)" stroke="none" paint-order="stroke" d="M 96.47321319580078 551.5454711914062 L 276.0283737182617 551.5454711914062 L 276.0283737182617 604.1818351745605 L 96.47321319580078 604.1818351745605 L 96.47321319580078 551.5454711914062" fill-opacity="1" clip-path="url(#ynfuMFlKrMgy)"/><path fill="rgb(143,45,86)" stroke="none" paint-order="stroke" d="M 276.02838134765625 551.5454711914062 L 277.4341813325882 551.5454711914062 L 277.4341813325882 604.1818351745605 L 276.02838134765625 604.1818351745605 L 276.02838134765625 551.5454711914062" fill-opacity="1" clip-path="url(#ynfuMFlKrMgy)"/><path fill="rgb(63,136,197)" stroke="none" paint-order="stroke" d="M 277.4341735839844 551.5454711914062 L 277.49807358533144 551.5454711914062 L 277.49807358533144 604.1818351745605 L 277.4341735839844 604.1818351745605 L 277.4341735839844 551.5454711914062" fill-opacity="1" clip-path="url(#ynfuMFlKrMgy)"/><path fill="rgb(143,45,86)" stroke="none" paint-order="stroke" d="M 277.4980773925781 551.5454711914062 L 277.92365139722824 551.5454711914062 L 277.92365139722824 604.1818351745605 L 277.4980773925781 604.1818351745605 L 277.4980773925781 551.5454711914062" fill-opacity="1" clip-path="url(#ynfuMFlKrMgy)"/><path fill="rgb(63,136,197)" stroke="none" paint-order="stroke" d="M 277.92364501953125 551.5454711914062 L 278.6904450058937 551.5454711914062 L 278.6904450058937 604.1818351745605 L 277.92364501953125 604.1818351745605 L 277.92364501953125 551.5454711914062" fill-opacity="1" clip-path="url(#ynfuMFlKrMgy)"/><path fill="rgb(143,45,86)" stroke="none" paint-order="stroke" d="M 278.6904602050781 551.5454711914062 L 278.6994062047452 551.5454711914062 L 278.6994062047452 604.1818351745605 L 278.6904602050781 604.1818351745605 L 278.6904602050781 551.5454711914062" fill-opacity="1" clip-path="url(#ynfuMFlKrMgy)"/><path fill="rgb(63,136,197)" stroke="none" paint-order="stroke" d="M 278.69940185546875 551.5454711914062 L 279.3831318616867 551.5454711914062 L 279.3831318616867 604.1818351745605 L 278.69940185546875 604.1818351745605 L 278.69940185546875 551.5454711914062" fill-opacity="1" clip-path="url(#ynfuMFlKrMgy)"/><path fill="none" stroke="rgb(0,0,0)" paint-order="fill" d="M 58.5 77.81818389892578 L 279.3831329345703 77.81818389892578 L 279.3831329345703 604.1818313598633 L 58.5 604.1818313598633 L 58.5 77.81818389892578" stroke-opacity="1" stroke-linejoin="bevel" stroke-miterlimit="10" stroke-dasharray="" clip-path="url(#pZUcUkHSEAtC)"/><path fill="none" stroke="rgb(0,0,0)" paint-order="fill" d="M 58.5 630.5 L 1336.5 630.5" stroke-opacity="1" stroke-linejoin="bevel" stroke-miterlimit="10" stroke-dasharray=""/><path fill="none" stroke="rgb(0,0,0)" paint-order="fill" d="M 58.5 636.5 L 58.5 628.5 M 314.5 636.5 L 314.5 628.5 M 569.5 636.5 L 569.5 628.5 M 825.5 636.5 L 825.5 628.5 M 1080.5 636.5 L 1080.5 628.5 M 1336.5 636.5 L 1336.5 628.5" stroke-opacity="1" stroke-linejoin="bevel" stroke-miterlimit="10" stroke-dasharray=""/><path fill="none" stroke="rgb(0,0,0)" paint-order="fill" d="M 58.5 634.5 L 58.5 630.5 M 109.5 634.5 L 109.5 630.5 M 160.5 634.5 L 160.5 630.5 M 211.5 634.5 L 211.5 630.5 M 262.5 634.5 L 262.5 630.5 M 314.5 634.5 L 314.5 630.5 M 365.5 634.5 L 365.5 630.5 M 416.5 634.5 L 416.5 630.5 M 467.5 634.5 L 467.5 630.5 M 518.5 634.5 L 518.5 630.5 M 569.5 634.5 L 569.5 630.5 M 620.5 634.5 L 620.5 630.5 M 671.5 634.5 L 671.5 630.5 M 723.5 634.5 L 723.5 630.5 M 774.5 634.5 L 774.5 630.5 M 825.5 634.5 L 825.5 630.5 M 876.5 634.5 L 876.5 630.5 M 927.5 634.5 L 927.5 630.5 M 978.5 634.5 L 978.5 630.5 M 1029.5 634.5 L 1029.5 630.5 M 1080.5 634.5 L 1080.5 630.5 M 1132.5 634.5 L 1132.5 630.5 M 1183.5 634.5 L 1183.5 630.5 M 1234.5 634.5 L 1234.5 630.5 M 1285.5 634.5 L 1285.5 630.5 M 1336.5 634.5 L 1336.5 630.5" stroke-opacity="1" stroke-linejoin="bevel" stroke-miterlimit="10" stroke-dasharray=""/><text fill="rgb(68,68,68)" stroke="none" font-family="helvetica" font-size="11px" font-style="normal" font-weight="normal" text-decoration="normal" x="54.94166660308838" y="648.89013671875" text-anchor="start" dominant-baseline="alphabetic" transform="matrix(1, 0, 0, 1, 0.5, 0.5)" fill-opacity="1">0</text><text fill="rgb(68,68,68)" stroke="none" font-family="helvetica" font-size="11px" font-style="normal" font-weight="normal" text-decoration="normal" x="304.42500591278076" y="648.89013671875" text-anchor="start" dominant-baseline="alphabetic" transform="matrix(1, 0, 0, 1, 0.5, 0.5)" fill-opacity="1">200</text><text fill="rgb(68,68,68)" stroke="none" font-family="helvetica" font-size="11px" font-style="normal" font-weight="normal" text-decoration="normal" x="560.0250120162964" y="648.89013671875" text-anchor="start" dominant-baseline="alphabetic" transform="matrix(1, 0, 0, 1, 0.5, 0.5)" fill-opacity="1">400</text><text fill="rgb(68,68,68)" stroke="none" font-family="helvetica" font-size="11px" font-style="normal" font-weight="normal" text-decoration="normal" x="815.6249876022339" y="648.89013671875" text-anchor="start" dominant-baseline="alphabetic" transform="matrix(1, 0, 0, 1, 0.5, 0.5)" fill-opacity="1">600</text><text fill="rgb(68,68,68)" stroke="none" font-family="helvetica" font-size="11px" font-style="normal" font-weight="normal" text-decoration="normal" x="1071.2250242233276" y="648.89013671875" text-anchor="start" dominant-baseline="alphabetic" transform="matrix(1, 0, 0, 1, 0.5, 0.5)" fill-opacity="1">800</text><text fill="rgb(68,68,68)" stroke="none" font-family="helvetica" font-size="11px" font-style="normal" font-weight="normal" text-decoration="normal" x="1323.7666664123535" y="648.89013671875" text-anchor="start" dominant-baseline="alphabetic" transform="matrix(1, 0, 0, 1, 0.5, 0.5)" fill-opacity="1">1000</text><text fill="rgb(68,68,68)" stroke="none" font-family="helvetica" font-size="15pt" font-style="italic" font-weight="normal" text-decoration="normal" x="666.4416675567627" y="676.06982421875" text-anchor="start" dominant-baseline="alphabetic" transform="matrix(1, 0, 0, 1, 0.5, 0.5)" fill-opacity="1">time(s)</text><path fill="none" stroke="rgb(0,0,0)" paint-order="fill" d="M 58.5 630.5 L 58.5 51.5" stroke-opacity="1" stroke-linejoin="bevel" stroke-miterlimit="10" stroke-dasharray=""/><path fill="none" stroke="rgb(0,0,0)" paint-order="fill" d="M 52.5 551.5 L 60.5 551.5 M 52.5 446.5 L 60.5 446.5 M 52.5 341.5 L 60.5 341.5 M 52.5 235.5 L 60.5 235.5 M 52.5 130.5 L 60.5 130.5" stroke-opacity="1" stroke-linejoin="bevel" stroke-miterlimit="10" stroke-dasharray=""/><path fill="none" stroke="rgb(0,0,0)" paint-order="fill" d="M 54.5 572.5 L 58.5 572.5 M 54.5 593.5 L 58.5 593.5 M 54.5 614.5 L 58.5 614.5 M 54.5 551.5 L 58.5 551.5 M 54.5 530.5 L 58.5 530.5 M 54.5 509.5 L 58.5 509.5 M 54.5 488.5 L 58.5 488.5 M 54.5 467.5 L 58.5 467.5 M 54.5 446.5 L 58.5 446.5 M 54.5 425.5 L 58.5 425.5 M 54.5 404.5 L 58.5 404.5 M 54.5 383.5 L 58.5 383.5 M 54.5 362.5 L 58.5 362.5 M 54.5 341.5 L 58.5 341.5 M 54.5 319.5 L 58.5 319.5 M 54.5 298.5 L 58.5 298.5 M 54.5 277.5 L 58.5 277.5 M 54.5 256.5 L 58.5 256.5 M 54.5 235.5 L 58.5 235.5 M 54.5 214.5 L 58.5 214.5 M 54.5 193.5 L 58.5 193.5 M 54.5 172.5 L 58.5 172.5 M 54.5 151.5 L 58.5 151.5 M 54.5 130.5 L 58.5 130.5 M 54.5 109.5 L 58.5 109.5 M 54.5 88.5 L 58.5 88.5 M 54.5 67.5 L 58.5 67.5" stroke-opacity="1" stroke-linejoin="bevel" stroke-miterlimit="10" stroke-dasharray=""/><text fill="rgb(68,68,68)" stroke="none" font-family="helvetica" font-size="11px" font-style="normal" font-weight="normal" text-decoration="normal" x="34.46666622161865" y="554.9905395507812" text-anchor="start" dominant-baseline="alphabetic" transform="matrix(1, 0, 0, 1, 0.5, 0.5)" fill-opacity="1">−2</text><text fill="rgb(68,68,68)" stroke="none" font-family="helvetica" font-size="11px" font-style="normal" font-weight="normal" text-decoration="normal" x="34.46666622161865" y="449.7178039550781" text-anchor="start" dominant-baseline="alphabetic" transform="matrix(1, 0, 0, 1, 0.5, 0.5)" fill-opacity="1">−1</text><text fill="rgb(68,68,68)" stroke="none" font-family="helvetica" font-size="11px" font-style="normal" font-weight="normal" text-decoration="normal" x="40.88333320617676" y="344.445068359375" text-anchor="start" dominant-baseline="alphabetic" transform="matrix(1, 0, 0, 1, 0.5, 0.5)" fill-opacity="1">0</text><text fill="rgb(68,68,68)" stroke="none" font-family="helvetica" font-size="11px" font-style="normal" font-weight="normal" text-decoration="normal" x="40.88333320617676" y="239.17234802246094" text-anchor="start" dominant-baseline="alphabetic" transform="matrix(1, 0, 0, 1, 0.5, 0.5)" fill-opacity="1">1</text><text fill="rgb(68,68,68)" stroke="none" font-family="helvetica" font-size="11px" font-style="normal" font-weight="normal" text-decoration="normal" x="40.88333320617676" y="133.8996124267578" text-anchor="start" dominant-baseline="alphabetic" transform="matrix(1, 0, 0, 1, 0.5, 0.5)" fill-opacity="1">2</text><text fill="rgb(68,68,68)" stroke="none" font-family="helvetica" font-size="15pt" font-style="italic" font-weight="normal" text-decoration="normal" x="-11.316666603088379" y="336.076171875" text-anchor="start" dominant-baseline="alphabetic" transform="matrix(6.123233995736766e-17, -1, 1, 6.123233995736766e-17, -313.53333377838135, 367.46666622161865)" fill-opacity="1">students</text><path fill="rgb(255,255,255)" stroke="rgb(229,229,229)" paint-order="fill" d="M 1128.2333374023438 61.5 L 1326.5 61.5 L 1326.5 400.5 L 1128.2333374023438 400.5 L 1128.2333374023438 61.5" fill-opacity="0.9490196078431372" clip-path="url(#fqVsmtcIfUcM)" stroke-opacity="0.5019607843137255" stroke-linejoin="bevel" stroke-miterlimit="10" stroke-dasharray=""/><g clip-path="url(#fqVsmtcIfUcM)"><text fill="rgb(68,68,68)" stroke="none" font-family="helvetica" font-size="13px" font-style="normal" font-weight="normal" text-decoration="normal" x="1162.7333374023438" y="81" text-anchor="start" dominant-baseline="central" transform="matrix(1, 0, 0, 1, 0.5, 0.5)" fill-opacity="1">wavelength</text></g><path fill="rgb(0,255,40)" stroke="none" paint-order="stroke" d="M 1140.2333374023438 73.5 L 1156.2333374023438 73.5 L 1156.2333374023438 89.5 L 1140.2333374023438 89.5 L 1140.2333374023438 73.5" fill-opacity="1" clip-path="url(#fqVsmtcIfUcM)"/><path fill="rgb(216,17,89)" stroke="none" paint-order="stroke" d="M 1140.2333374023438 73.5 L 1156.2333374023438 73.5 L 1156.2333374023438 89.5 L 1140.2333374023438 89.5 L 1140.2333374023438 73.5" fill-opacity="1" clip-path="url(#fqVsmtcIfUcM)"/><g clip-path="url(#fqVsmtcIfUcM)"><text fill="rgb(68,68,68)" stroke="none" font-family="helvetica" font-size="13px" font-style="normal" font-weight="normal" text-decoration="normal" x="1162.7333374023438" y="104" text-anchor="start" dominant-baseline="central" transform="matrix(1, 0, 0, 1, 0.5, 0.5)" fill-opacity="1">solution</text></g><path fill="rgb(251,0,7)" stroke="none" paint-order="stroke" d="M 1140.2333374023438 96.5 L 1156.2333374023438 96.5 L 1156.2333374023438 112.5 L 1140.2333374023438 112.5 L 1140.2333374023438 96.5" fill-opacity="1" clip-path="url(#fqVsmtcIfUcM)"/><path fill="rgb(33,131,128)" stroke="none" paint-order="stroke" d="M 1140.2333374023438 96.5 L 1156.2333374023438 96.5 L 1156.2333374023438 112.5 L 1140.2333374023438 112.5 L 1140.2333374023438 96.5" fill-opacity="1" clip-path="url(#fqVsmtcIfUcM)"/><g clip-path="url(#fqVsmtcIfUcM)"><text fill="rgb(68,68,68)" stroke="none" font-family="helvetica" font-size="13px" font-style="normal" font-weight="normal" text-decoration="normal" x="1162.7333374023438" y="127" text-anchor="start" dominant-baseline="central" transform="matrix(1, 0, 0, 1, 0.5, 0.5)" fill-opacity="1">laser</text></g><path fill="rgb(105,29,48)" stroke="none" paint-order="stroke" d="M 1140.2333374023438 119.5 L 1156.2333374023438 119.5 L 1156.2333374023438 135.5 L 1140.2333374023438 135.5 L 1140.2333374023438 119.5" fill-opacity="1" clip-path="url(#fqVsmtcIfUcM)"/><g clip-path="url(#fqVsmtcIfUcM)"><text fill="rgb(68,68,68)" stroke="none" font-family="helvetica" font-size="13px" font-style="normal" font-weight="normal" text-decoration="normal" x="1162.7333374023438" y="150" text-anchor="start" dominant-baseline="central" transform="matrix(1, 0, 0, 1, 0.5, 0.5)" fill-opacity="1">ruler</text></g><path fill="rgb(255,188,66)" stroke="none" paint-order="stroke" d="M 1140.2333374023438 142.5 L 1156.2333374023438 142.5 L 1156.2333374023438 158.5 L 1140.2333374023438 158.5 L 1140.2333374023438 142.5" fill-opacity="1" clip-path="url(#fqVsmtcIfUcM)"/><g clip-path="url(#fqVsmtcIfUcM)"><text fill="rgb(68,68,68)" stroke="none" font-family="helvetica" font-size="13px" font-style="normal" font-weight="normal" text-decoration="normal" x="1162.7333374023438" y="173" text-anchor="start" dominant-baseline="central" transform="matrix(1, 0, 0, 1, 0.5, 0.5)" fill-opacity="1">restarts</text></g><g clip-path="url(#fqVsmtcIfUcM)"><text fill="rgb(68,68,68)" stroke="none" font-family="helvetica" font-size="13px" font-style="normal" font-weight="normal" text-decoration="normal" x="1162.7333374023438" y="196" text-anchor="start" dominant-baseline="central" transform="matrix(1, 0, 0, 1, 0.5, 0.5)" fill-opacity="1">transmittance_absorbance</text></g><g clip-path="url(#fqVsmtcIfUcM)"><text fill="rgb(68,68,68)" stroke="none" font-family="helvetica" font-size="13px" font-style="normal" font-weight="normal" text-decoration="normal" x="1162.7333374023438" y="219" text-anchor="start" dominant-baseline="central" transform="matrix(1, 0, 0, 1, 0.5, 0.5)" fill-opacity="1">magnifier</text></g><path fill="rgb(255,188,66)" stroke="none" paint-order="stroke" d="M 1140.2333374023438 211.5 L 1156.2333374023438 211.5 L 1156.2333374023438 227.5 L 1140.2333374023438 227.5 L 1140.2333374023438 211.5" fill-opacity="1" clip-path="url(#fqVsmtcIfUcM)"/><g clip-path="url(#fqVsmtcIfUcM)"><text fill="rgb(68,68,68)" stroke="none" font-family="helvetica" font-size="13px" font-style="normal" font-weight="normal" text-decoration="normal" x="1162.7333374023438" y="242" text-anchor="start" dominant-baseline="central" transform="matrix(1, 0, 0, 1, 0.5, 0.5)" fill-opacity="1">concentration</text></g><g clip-path="url(#fqVsmtcIfUcM)"><text fill="rgb(68,68,68)" stroke="none" font-family="helvetica" font-size="13px" font-style="normal" font-weight="normal" text-decoration="normal" x="1162.7333374023438" y="265" text-anchor="start" dominant-baseline="central" transform="matrix(1, 0, 0, 1, 0.5, 0.5)" fill-opacity="1">flask</text></g><path fill="rgb(28,49,68)" stroke="none" paint-order="stroke" d="M 1140.2333374023438 257.5 L 1156.2333374023438 257.5 L 1156.2333374023438 273.5 L 1140.2333374023438 273.5 L 1140.2333374023438 257.5" fill-opacity="1" clip-path="url(#fqVsmtcIfUcM)"/><g clip-path="url(#fqVsmtcIfUcM)"><text fill="rgb(68,68,68)" stroke="none" font-family="helvetica" font-size="13px" font-style="normal" font-weight="normal" text-decoration="normal" x="1162.7333374023438" y="288" text-anchor="start" dominant-baseline="central" transform="matrix(1, 0, 0, 1, 0.5, 0.5)" fill-opacity="1">pdf</text></g><path fill="rgb(239,185,203)" stroke="none" paint-order="stroke" d="M 1140.2333374023438 280.5 L 1156.2333374023438 280.5 L 1156.2333374023438 296.5 L 1140.2333374023438 296.5 L 1140.2333374023438 280.5" fill-opacity="1" clip-path="url(#fqVsmtcIfUcM)"/><g clip-path="url(#fqVsmtcIfUcM)"><text fill="rgb(68,68,68)" stroke="none" font-family="helvetica" font-size="13px" font-style="normal" font-weight="normal" text-decoration="normal" x="1162.7333374023438" y="311" text-anchor="start" dominant-baseline="central" transform="matrix(1, 0, 0, 1, 0.5, 0.5)" fill-opacity="1">concentrationlab</text></g><g clip-path="url(#fqVsmtcIfUcM)"><text fill="rgb(68,68,68)" stroke="none" font-family="helvetica" font-size="13px" font-style="normal" font-weight="normal" text-decoration="normal" x="1162.7333374023438" y="334" text-anchor="start" dominant-baseline="central" transform="matrix(1, 0, 0, 1, 0.5, 0.5)" fill-opacity="1">wavelength_slider</text></g><path fill="rgb(105,29,48)" stroke="none" paint-order="stroke" d="M 1140.2333374023438 326.5 L 1156.2333374023438 326.5 L 1156.2333374023438 342.5 L 1140.2333374023438 342.5 L 1140.2333374023438 326.5" fill-opacity="1" clip-path="url(#fqVsmtcIfUcM)"/><g clip-path="url(#fqVsmtcIfUcM)"><text fill="rgb(68,68,68)" stroke="none" font-family="helvetica" font-size="13px" font-style="normal" font-weight="normal" text-decoration="normal" x="1162.7333374023438" y="357" text-anchor="start" dominant-baseline="central" transform="matrix(1, 0, 0, 1, 0.5, 0.5)" fill-opacity="1">ruler measuring</text></g><path fill="rgb(255,188,66)" stroke="none" paint-order="stroke" d="M 1140.2333374023438 349.5 L 1156.2333374023438 349.5 L 1156.2333374023438 365.5 L 1140.2333374023438 365.5 L 1140.2333374023438 349.5" fill-opacity="1" clip-path="url(#fqVsmtcIfUcM)"/><g clip-path="url(#fqVsmtcIfUcM)"><text fill="rgb(68,68,68)" stroke="none" font-family="helvetica" font-size="13px" font-style="normal" font-weight="normal" text-decoration="normal" x="1162.7333374023438" y="380" text-anchor="start" dominant-baseline="central" transform="matrix(1, 0, 0, 1, 0.5, 0.5)" fill-opacity="1">dependent variable</text></g><path fill="rgb(143,45,86)" stroke="none" paint-order="stroke" d="M 1140.2333374023438 372.5 L 1156.2333374023438 372.5 L 1156.2333374023438 388.5 L 1140.2333374023438 388.5 L 1140.2333374023438 372.5" fill-opacity="1" clip-path="url(#fqVsmtcIfUcM)"/><text fill="rgb(68,68,68)" stroke="none" font-family="helvetica" font-size="25pt" font-style="normal" font-weight="bold" text-decoration="normal" x="58" y="38.740885416666664" text-anchor="start" dominant-baseline="alphabetic" transform="matrix(1, 0, 0, 1, 0.5, 0.5)" fill-opacity="1">Timeline for student p6ut882m with permutation 0231 for task 3</text></svg>