<svg version="1.1" xmlns="http://www.w3.org/2000/svg" width="1366" height="683"><defs><clipPath id="HUrfUwKbeocN"><path fill="none" stroke="none" d="M 58.5 51.5 L 1336.5 51.5 L 1336.5 630.5 L 58.5 630.5 L 58.5 51.5"/></clipPath><clipPath id="ZwoZKcnXdzQn"><path fill="none" stroke="none" d="M 58.5 51.5 L 1336.5 51.5 L 1336.5 630.5 L 58.5 630.5 L 58.5 51.5"/></clipPath><clipPath id="oexVOgsnQhZQ"><path fill="none" stroke="none" d="M 58.5 51.5 L 1336.5 51.5 L 1336.5 630.5 L 58.5 630.5 L 58.5 51.5"/></clipPath><clipPath id="dkGCbSXDprWv"><path fill="none" stroke="none" d="M 58.5 51.5 L 1336.5 51.5 L 1336.5 630.5 L 58.5 630.5 L 58.5 51.5"/></clipPath><clipPath id="qEWbHIPQvuOW"><path fill="none" stroke="none" d="M 58.5 51.5 L 1336.5 51.5 L 1336.5 630.5 L 58.5 630.5 L 58.5 51.5"/></clipPath><clipPath id="feHgMnwyksfz"><path fill="none" stroke="none" d="M 58.5 51.5 L 1336.5 51.5 L 1336.5 630.5 L 58.5 630.5 L 58.5 51.5"/></clipPath><clipPath id="kxeDxuicdJmF"><path fill="none" stroke="none" d="M 58.5 51.5 L 1336.5 51.5 L 1336.5 630.5 L 58.5 630.5 L 58.5 51.5"/></clipPath><clipPath id="ItweKFZIeLtZ"><path fill="none" stroke="none" d="M 58.5 51.5 L 1336.5 51.5 L 1336.5 630.5 L 58.5 630.5 L 58.5 51.5"/></clipPath><clipPath id="obQnZQaEFvHK"><path fill="none" stroke="none" d="M 58.5 51.5 L 1336.5 51.5 L 1336.5 630.5 L 58.5 630.5 L 58.5 51.5"/></clipPath><clipPath id="DHXaLPRpvsSr"><path fill="none" stroke="none" d="M 58.5 51.5 L 1336.5 51.5 L 1336.5 630.5 L 58.5 630.5 L 58.5 51.5"/></clipPath><clipPath id="CVSAFMIkasic"><path fill="none" stroke="none" d="M 58.5 51.5 L 1336.5 51.5 L 1336.5 630.5 L 58.5 630.5 L 58.5 51.5"/></clipPath><clipPath id="TrnAuBytIqyi"><path fill="none" stroke="none" d="M 58.5 51.5 L 1336.5 51.5 L 1336.5 630.5 L 58.5 630.5 L 58.5 51.5"/></clipPath><clipPath id="PEcUpfTJBTNd"><path fill="none" stroke="none" d="M 58.5 51.5 L 1336.5 51.5 L 1336.5 630.5 L 58.5 630.5 L 58.5 51.5"/></clipPath><clipPath id="oDgLvELLzrvT"><path fill="none" stroke="none" d="M 58.5 51.5 L 1336.5 51.5 L 1336.5 630.5 L 58.5 630.5 L 58.5 51.5"/></clipPath><clipPath id="UXLoFLHTkewz"><path fill="none" stroke="none" d="M 58.5 51.5 L 1336.5 51.5 L 1336.5 630.5 L 58.5 630.5 L 58.5 51.5"/></clipPath><clipPath id="MnNLrxtsLiHL"><path fill="none" stroke="none" d="M 58.5 51.5 L 1336.5 51.5 L 1336.5 630.5 L 58.5 630.5 L 58.5 51.5"/></clipPath><clipPath id="JdIzZvQSKpAE"><path fill="none" stroke="none" d="M 58.5 51.5 L 1336.5 51.5 L 1336.5 630.5 L 58.5 630.5 L 58.5 51.5"/></clipPath><clipPath id="BosJIetspwnX"><path fill="none" stroke="none" d="M 58.5 51.5 L 1336.5 51.5 L 1336.5 630.5 L 58.5 630.5 L 58.5 51.5"/></clipPath><clipPath id="vaTQUnaIPKIT"><path fill="none" stroke="none" d="M 58.5 51.5 L 1336.5 51.5 L 1336.5 630.5 L 58.5 630.5 L 58.5 51.5"/></clipPath><clipPath id="xRoqlbMdAAwy"><path fill="none" stroke="none" d="M 58.5 51.5 L 1336.5 51.5 L 1336.5 630.5 L 58.5 630.5 L 58.5 51.5"/></clipPath><clipPath id="gLKTQAzUuqID"><path fill="none" stroke="none" d="M 58.5 51.5 L 1336.5 51.5 L 1336.5 630.5 L 58.5 630.5 L 58.5 51.5"/></clipPath></defs><path fill="rgb(255,255,255)" stroke="none" paint-order="stroke" d="M 0.5 0.5 L 1366.5 0.5 L 1366.5 683.5 L 0.5 683.5 L 0.5 0.5" fill-opacity="1"/><rect fill="#FFFFFF" stroke="none" x="58" y="51" width="1278" height="579" transform="matrix(1, 0, 0, 1, 0.5, 0.5)"/><path fill="rgb(255,255,255)" stroke="none" paint-order="stroke" d="M 58.5 51.5 L 1336.5 51.5 L 1336.5 630.5 L 58.5 630.5 L 58.5 51.5" fill-opacity="1"/><path fill="none" stroke="rgb(229,229,229)" paint-order="fill" d="M 58.5 51.5 L 1336.5 51.5 L 1336.5 630.5 L 58.5 630.5 L 58.5 51.5" stroke-opacity="1" stroke-linejoin="bevel" stroke-miterlimit="10" stroke-dasharray=""/><path fill="none" stroke="rgb(229,229,229)" paint-order="fill" d="M 314.5 630.5 L 314.5 51.5 M 569.5 630.5 L 569.5 51.5 M 825.5 630.5 L 825.5 51.5 M 1080.5 630.5 L 1080.5 51.5" stroke-opacity="1" stroke-linejoin="bevel" stroke-miterlimit="10" stroke-dasharray="" clip-path="url(#HUrfUwKbeocN)"/><path fill="none" stroke="rgb(229,229,229)" paint-order="fill" d="M 58.5 551.5 L 1336.5 551.5 M 58.5 446.5 L 1336.5 446.5 M 58.5 341.5 L 1336.5 341.5 M 58.5 235.5 L 1336.5 235.5 M 58.5 130.5 L 1336.5 130.5" stroke-opacity="1" stroke-linejoin="bevel" stroke-miterlimit="10" stroke-dasharray="" clip-path="url(#ZwoZKcnXdzQn)"/><path fill="rgb(0,255,40)" stroke="none" paint-order="stroke" d="M 58.5 77.81818389892578 L 206.60614013671875 77.81818389892578 L 206.60614013671875 130.45454788208008 L 58.5 130.45454788208008 L 58.5 77.81818389892578" fill-opacity="1" clip-path="url(#oexVOgsnQhZQ)"/><path fill="rgb(0,255,23)" stroke="none" paint-order="stroke" d="M 206.60614013671875 77.81818389892578 L 206.7914501428604 77.81818389892578 L 206.7914501428604 130.45454788208008 L 206.60614013671875 130.45454788208008 L 206.60614013671875 77.81818389892578" fill-opacity="1" clip-path="url(#oexVOgsnQhZQ)"/><path fill="rgb(0,255,0)" stroke="none" paint-order="stroke" d="M 206.7914581298828 77.81818389892578 L 206.97037813067436 77.81818389892578 L 206.97037813067436 130.45454788208008 L 206.7914581298828 130.45454788208008 L 206.7914581298828 77.81818389892578" fill-opacity="1" clip-path="url(#oexVOgsnQhZQ)"/><path fill="rgb(8,255,0)" stroke="none" paint-order="stroke" d="M 206.97036743164062 77.81818389892578 L 207.14034143090248 77.81818389892578 L 207.14034143090248 130.45454788208008 L 206.97036743164062 130.45454788208008 L 206.97036743164062 77.81818389892578" fill-opacity="1" clip-path="url(#oexVOgsnQhZQ)"/><path fill="rgb(14,255,0)" stroke="none" paint-order="stroke" d="M 207.14035034179688 77.81818389892578 L 207.28220833837986 77.81818389892578 L 207.28220833837986 130.45454788208008 L 207.14035034179688 130.45454788208008 L 207.14035034179688 77.81818389892578" fill-opacity="1" clip-path="url(#oexVOgsnQhZQ)"/><path fill="rgb(20,255,0)" stroke="none" paint-order="stroke" d="M 207.28221130371094 77.81818389892578 L 207.45346330106258 77.81818389892578 L 207.45346330106258 130.45454788208008 L 207.28221130371094 130.45454788208008 L 207.28221130371094 77.81818389892578" fill-opacity="1" clip-path="url(#oexVOgsnQhZQ)"/><path fill="rgb(25,255,0)" stroke="none" paint-order="stroke" d="M 207.45346069335938 77.81818389892578 L 207.57742669433355 77.81818389892578 L 207.57742669433355 130.45454788208008 L 207.45346069335938 130.45454788208008 L 207.45346069335938 77.81818389892578" fill-opacity="1" clip-path="url(#oexVOgsnQhZQ)"/><path fill="rgb(30,255,0)" stroke="none" paint-order="stroke" d="M 207.57742309570312 77.81818389892578 L 207.7461190968752 77.81818389892578 L 207.7461190968752 130.45454788208008 L 207.57742309570312 130.45454788208008 L 207.57742309570312 77.81818389892578" fill-opacity="1" clip-path="url(#oexVOgsnQhZQ)"/><path fill="rgb(35,255,0)" stroke="none" paint-order="stroke" d="M 207.74612426757812 77.81818389892578 L 207.87264627218246 77.81818389892578 L 207.87264627218246 130.45454788208008 L 207.74612426757812 130.45454788208008 L 207.74612426757812 77.81818389892578" fill-opacity="1" clip-path="url(#oexVOgsnQhZQ)"/><path fill="rgb(40,255,0)" stroke="none" paint-order="stroke" d="M 207.8726348876953 77.81818389892578 L 208.03238488733768 77.81818389892578 L 208.03238488733768 130.45454788208008 L 207.8726348876953 130.45454788208008 L 207.8726348876953 77.81818389892578" fill-opacity="1" clip-path="url(#oexVOgsnQhZQ)"/><path fill="rgb(44,255,0)" stroke="none" paint-order="stroke" d="M 208.0323944091797 77.81818389892578 L 208.18319840729237 77.81818389892578 L 208.18319840729237 130.45454788208008 L 208.0323944091797 130.45454788208008 L 208.0323944091797 77.81818389892578" fill-opacity="1" clip-path="url(#oexVOgsnQhZQ)"/><path fill="rgb(49,255,0)" stroke="none" paint-order="stroke" d="M 208.18319702148438 77.81818389892578 L 208.62921902537346 77.81818389892578 L 208.62921902537346 130.45454788208008 L 208.18319702148438 130.45454788208008 L 208.18319702148438 77.81818389892578" fill-opacity="1" clip-path="url(#oexVOgsnQhZQ)"/><path fill="rgb(53,255,0)" stroke="none" paint-order="stroke" d="M 208.62921142578125 77.81818389892578 L 209.08417943120003 77.81818389892578 L 209.08417943120003 130.45454788208008 L 208.62921142578125 130.45454788208008 L 208.62921142578125 77.81818389892578" fill-opacity="1" clip-path="url(#oexVOgsnQhZQ)"/><path fill="rgb(58,255,0)" stroke="none" paint-order="stroke" d="M 209.0841827392578 77.81818389892578 L 210.23438274860382 77.81818389892578 L 210.23438274860382 130.45454788208008 L 209.0841827392578 130.45454788208008 L 209.0841827392578 77.81818389892578" fill-opacity="1" clip-path="url(#oexVOgsnQhZQ)"/><path fill="rgb(53,255,0)" stroke="none" paint-order="stroke" d="M 210.23439025878906 77.81818389892578 L 327.94202423095703 77.81818389892578 L 327.94202423095703 130.45454788208008 L 210.23439025878906 130.45454788208008 L 210.23439025878906 77.81818389892578" fill-opacity="1" clip-path="url(#oexVOgsnQhZQ)"/><path fill="rgb(42,0,238)" stroke="none" paint-order="stroke" d="M 327.9420166015625 77.81818389892578 L 331.1612985134125 77.81818389892578 L 331.1612985134125 130.45454788208008 L 327.9420166015625 130.45454788208008 L 327.9420166015625 77.81818389892578" fill-opacity="1" clip-path="url(#oexVOgsnQhZQ)"/><path fill="rgb(38,0,240)" stroke="none" paint-order="stroke" d="M 331.1612854003906 77.81818389892578 L 331.28908540308475 77.81818389892578 L 331.28908540308475 130.45454788208008 L 331.1612854003906 130.45454788208008 L 331.1612854003906 77.81818389892578" fill-opacity="1" clip-path="url(#oexVOgsnQhZQ)"/><path fill="rgb(33,0,243)" stroke="none" paint-order="stroke" d="M 331.2890930175781 77.81818389892578 L 331.41689302027225 77.81818389892578 L 331.41689302027225 130.45454788208008 L 331.2890930175781 130.45454788208008 L 331.2890930175781 77.81818389892578" fill-opacity="1" clip-path="url(#oexVOgsnQhZQ)"/><path fill="rgb(28,0,245)" stroke="none" paint-order="stroke" d="M 331.4169006347656 77.81818389892578 L 331.5651486366987 77.81818389892578 L 331.5651486366987 130.45454788208008 L 331.4169006347656 130.45454788208008 L 331.4169006347656 77.81818389892578" fill-opacity="1" clip-path="url(#oexVOgsnQhZQ)"/><path fill="rgb(22,0,247)" stroke="none" paint-order="stroke" d="M 331.5651550292969 77.81818389892578 L 331.692955031991 77.81818389892578 L 331.692955031991 130.45454788208008 L 331.5651550292969 130.45454788208008 L 331.5651550292969 77.81818389892578" fill-opacity="1" clip-path="url(#oexVOgsnQhZQ)"/><path fill="rgb(16,0,250)" stroke="none" paint-order="stroke" d="M 331.6929626464844 77.81818389892578 L 331.80031464993954 77.81818389892578 L 331.80031464993954 130.45454788208008 L 331.6929626464844 130.45454788208008 L 331.6929626464844 77.81818389892578" fill-opacity="1" clip-path="url(#oexVOgsnQhZQ)"/><path fill="rgb(9,0,252)" stroke="none" paint-order="stroke" d="M 331.80029296875 77.81818389892578 L 331.92809297144413 77.81818389892578 L 331.92809297144413 130.45454788208008 L 331.80029296875 130.45454788208008 L 331.80029296875 77.81818389892578" fill-opacity="1" clip-path="url(#oexVOgsnQhZQ)"/><path fill="rgb(0,0,255)" stroke="none" paint-order="stroke" d="M 331.9281005859375 77.81818389892578 L 332.0763485878706 77.81818389892578 L 332.0763485878706 130.45454788208008 L 331.9281005859375 130.45454788208008 L 331.9281005859375 77.81818389892578" fill-opacity="1" clip-path="url(#oexVOgsnQhZQ)"/><path fill="rgb(0,11,255)" stroke="none" paint-order="stroke" d="M 332.07635498046875 77.81818389892578 L 332.1837069839239 77.81818389892578 L 332.1837069839239 130.45454788208008 L 332.07635498046875 130.45454788208008 L 332.07635498046875 77.81818389892578" fill-opacity="1" clip-path="url(#oexVOgsnQhZQ)"/><path fill="rgb(0,19,255)" stroke="none" paint-order="stroke" d="M 332.1836853027344 77.81818389892578 L 332.3319333046675 77.81818389892578 L 332.3319333046675 130.45454788208008 L 332.1836853027344 130.45454788208008 L 332.1836853027344 77.81818389892578" fill-opacity="1" clip-path="url(#oexVOgsnQhZQ)"/><path fill="rgb(0,26,255)" stroke="none" paint-order="stroke" d="M 332.3319396972656 77.81818389892578 L 332.45973969995975 77.81818389892578 L 332.45973969995975 130.45454788208008 L 332.3319396972656 130.45454788208008 L 332.3319396972656 77.81818389892578" fill-opacity="1" clip-path="url(#oexVOgsnQhZQ)"/><path fill="rgb(0,33,255)" stroke="none" paint-order="stroke" d="M 332.4597473144531 77.81818389892578 L 332.58754731714725 77.81818389892578 L 332.58754731714725 130.45454788208008 L 332.4597473144531 130.45454788208008 L 332.4597473144531 77.81818389892578" fill-opacity="1" clip-path="url(#oexVOgsnQhZQ)"/><path fill="rgb(0,40,255)" stroke="none" paint-order="stroke" d="M 332.5875549316406 77.81818389892578 L 332.71535493433475 77.81818389892578 L 332.71535493433475 130.45454788208008 L 332.5875549316406 130.45454788208008 L 332.5875549316406 77.81818389892578" fill-opacity="1" clip-path="url(#oexVOgsnQhZQ)"/><path fill="rgb(0,46,255)" stroke="none" paint-order="stroke" d="M 332.7153625488281 77.81818389892578 L 332.84316255152225 77.81818389892578 L 332.84316255152225 130.45454788208008 L 332.7153625488281 130.45454788208008 L 332.7153625488281 77.81818389892578" fill-opacity="1" clip-path="url(#oexVOgsnQhZQ)"/><path fill="rgb(0,52,255)" stroke="none" paint-order="stroke" d="M 332.8431396484375 77.81818389892578 L 332.97093965113163 77.81818389892578 L 332.97093965113163 130.45454788208008 L 332.8431396484375 130.45454788208008 L 332.8431396484375 77.81818389892578" fill-opacity="1" clip-path="url(#oexVOgsnQhZQ)"/><path fill="rgb(0,58,255)" stroke="none" paint-order="stroke" d="M 332.970947265625 77.81818389892578 L 333.09874726831913 77.81818389892578 L 333.09874726831913 130.45454788208008 L 332.970947265625 130.45454788208008 L 332.970947265625 77.81818389892578" fill-opacity="1" clip-path="url(#oexVOgsnQhZQ)"/><path fill="rgb(0,64,255)" stroke="none" paint-order="stroke" d="M 333.0987548828125 77.81818389892578 L 333.22655488550663 77.81818389892578 L 333.22655488550663 130.45454788208008 L 333.0987548828125 130.45454788208008 L 333.0987548828125 77.81818389892578" fill-opacity="1" clip-path="url(#oexVOgsnQhZQ)"/><path fill="rgb(0,70,255)" stroke="none" paint-order="stroke" d="M 333.2265625 77.81818389892578 L 333.35436250269413 77.81818389892578 L 333.35436250269413 130.45454788208008 L 333.2265625 130.45454788208008 L 333.2265625 77.81818389892578" fill-opacity="1" clip-path="url(#oexVOgsnQhZQ)"/><path fill="rgb(0,75,255)" stroke="none" paint-order="stroke" d="M 333.3543395996094 77.81818389892578 L 333.4821396023035 77.81818389892578 L 333.4821396023035 130.45454788208008 L 333.3543395996094 130.45454788208008 L 333.3543395996094 77.81818389892578" fill-opacity="1" clip-path="url(#oexVOgsnQhZQ)"/><path fill="rgb(0,81,255)" stroke="none" paint-order="stroke" d="M 333.4821472167969 77.81818389892578 L 333.609947219491 77.81818389892578 L 333.609947219491 130.45454788208008 L 333.4821472167969 130.45454788208008 L 333.4821472167969 77.81818389892578" fill-opacity="1" clip-path="url(#oexVOgsnQhZQ)"/><path fill="rgb(0,86,255)" stroke="none" paint-order="stroke" d="M 333.6099548339844 77.81818389892578 L 333.7377548366785 77.81818389892578 L 333.7377548366785 130.45454788208008 L 333.6099548339844 130.45454788208008 L 333.6099548339844 77.81818389892578" fill-opacity="1" clip-path="url(#oexVOgsnQhZQ)"/><path fill="rgb(0,92,255)" stroke="none" paint-order="stroke" d="M 333.7377624511719 77.81818389892578 L 333.865562453866 77.81818389892578 L 333.865562453866 130.45454788208008 L 333.7377624511719 130.45454788208008 L 333.7377624511719 77.81818389892578" fill-opacity="1" clip-path="url(#oexVOgsnQhZQ)"/><path fill="rgb(0,97,255)" stroke="none" paint-order="stroke" d="M 333.86553955078125 77.81818389892578 L 333.9933395534754 77.81818389892578 L 333.9933395534754 130.45454788208008 L 333.86553955078125 130.45454788208008 L 333.86553955078125 77.81818389892578" fill-opacity="1" clip-path="url(#oexVOgsnQhZQ)"/><path fill="rgb(0,102,255)" stroke="none" paint-order="stroke" d="M 333.99334716796875 77.81818389892578 L 334.1211471706629 77.81818389892578 L 334.1211471706629 130.45454788208008 L 333.99334716796875 130.45454788208008 L 333.99334716796875 77.81818389892578" fill-opacity="1" clip-path="url(#oexVOgsnQhZQ)"/><path fill="rgb(0,107,255)" stroke="none" paint-order="stroke" d="M 334.12115478515625 77.81818389892578 L 334.2489547878504 77.81818389892578 L 334.2489547878504 130.45454788208008 L 334.12115478515625 130.45454788208008 L 334.12115478515625 77.81818389892578" fill-opacity="1" clip-path="url(#oexVOgsnQhZQ)"/><path fill="rgb(0,112,255)" stroke="none" paint-order="stroke" d="M 334.24896240234375 77.81818389892578 L 335.0579364299774 77.81818389892578 L 335.0579364299774 130.45454788208008 L 334.24896240234375 130.45454788208008 L 334.24896240234375 77.81818389892578" fill-opacity="1" clip-path="url(#oexVOgsnQhZQ)"/><path fill="rgb(0,117,255)" stroke="none" paint-order="stroke" d="M 335.05792236328125 77.81818389892578 L 335.1857223659754 77.81818389892578 L 335.1857223659754 130.45454788208008 L 335.05792236328125 130.45454788208008 L 335.05792236328125 77.81818389892578" fill-opacity="1" clip-path="url(#oexVOgsnQhZQ)"/><path fill="rgb(0,122,255)" stroke="none" paint-order="stroke" d="M 335.18572998046875 77.81818389892578 L 335.3135299831629 77.81818389892578 L 335.3135299831629 130.45454788208008 L 335.18572998046875 130.45454788208008 L 335.18572998046875 77.81818389892578" fill-opacity="1" clip-path="url(#oexVOgsnQhZQ)"/><path fill="rgb(0,127,255)" stroke="none" paint-order="stroke" d="M 335.3135070800781 77.81818389892578 L 335.44130708277225 77.81818389892578 L 335.44130708277225 130.45454788208008 L 335.3135070800781 130.45454788208008 L 335.3135070800781 77.81818389892578" fill-opacity="1" clip-path="url(#oexVOgsnQhZQ)"/><path fill="rgb(0,132,255)" stroke="none" paint-order="stroke" d="M 335.4413146972656 77.81818389892578 L 335.56911469995975 77.81818389892578 L 335.56911469995975 130.45454788208008 L 335.4413146972656 130.45454788208008 L 335.4413146972656 77.81818389892578" fill-opacity="1" clip-path="url(#oexVOgsnQhZQ)"/><path fill="rgb(0,137,255)" stroke="none" paint-order="stroke" d="M 335.5691223144531 77.81818389892578 L 335.7173703163862 77.81818389892578 L 335.7173703163862 130.45454788208008 L 335.5691223144531 130.45454788208008 L 335.5691223144531 77.81818389892578" fill-opacity="1" clip-path="url(#oexVOgsnQhZQ)"/><path fill="rgb(0,141,255)" stroke="none" paint-order="stroke" d="M 335.7173767089844 77.81818389892578 L 335.8451767116785 77.81818389892578 L 335.8451767116785 130.45454788208008 L 335.7173767089844 130.45454788208008 L 335.7173767089844 77.81818389892578" fill-opacity="1" clip-path="url(#oexVOgsnQhZQ)"/><path fill="rgb(0,146,255)" stroke="none" paint-order="stroke" d="M 335.8451843261719 77.81818389892578 L 335.972984328866 77.81818389892578 L 335.972984328866 130.45454788208008 L 335.8451843261719 130.45454788208008 L 335.8451843261719 77.81818389892578" fill-opacity="1" clip-path="url(#oexVOgsnQhZQ)"/><path fill="rgb(0,151,255)" stroke="none" paint-order="stroke" d="M 335.97296142578125 77.81818389892578 L 336.1007614284754 77.81818389892578 L 336.1007614284754 130.45454788208008 L 335.97296142578125 130.45454788208008 L 335.97296142578125 77.81818389892578" fill-opacity="1" clip-path="url(#oexVOgsnQhZQ)"/><path fill="rgb(0,155,255)" stroke="none" paint-order="stroke" d="M 336.10076904296875 77.81818389892578 L 336.2285690456629 77.81818389892578 L 336.2285690456629 130.45454788208008 L 336.10076904296875 130.45454788208008 L 336.10076904296875 77.81818389892578" fill-opacity="1" clip-path="url(#oexVOgsnQhZQ)"/><path fill="rgb(0,160,255)" stroke="none" paint-order="stroke" d="M 336.22857666015625 77.81818389892578 L 336.3563766628504 77.81818389892578 L 336.3563766628504 130.45454788208008 L 336.22857666015625 130.45454788208008 L 336.22857666015625 77.81818389892578" fill-opacity="1" clip-path="url(#oexVOgsnQhZQ)"/><path fill="rgb(0,164,255)" stroke="none" paint-order="stroke" d="M 336.35638427734375 77.81818389892578 L 336.4841842800379 77.81818389892578 L 336.4841842800379 130.45454788208008 L 336.35638427734375 130.45454788208008 L 336.35638427734375 77.81818389892578" fill-opacity="1" clip-path="url(#oexVOgsnQhZQ)"/><path fill="rgb(0,169,255)" stroke="none" paint-order="stroke" d="M 336.4841613769531 77.81818389892578 L 336.61196137964725 77.81818389892578 L 336.61196137964725 130.45454788208008 L 336.4841613769531 130.45454788208008 L 336.4841613769531 77.81818389892578" fill-opacity="1" clip-path="url(#oexVOgsnQhZQ)"/><path fill="rgb(0,173,255)" stroke="none" paint-order="stroke" d="M 336.6119689941406 77.81818389892578 L 336.73976899683475 77.81818389892578 L 336.73976899683475 130.45454788208008 L 336.6119689941406 130.45454788208008 L 336.6119689941406 77.81818389892578" fill-opacity="1" clip-path="url(#oexVOgsnQhZQ)"/><path fill="rgb(0,178,255)" stroke="none" paint-order="stroke" d="M 336.7397766113281 77.81818389892578 L 336.86757661402225 77.81818389892578 L 336.86757661402225 130.45454788208008 L 336.7397766113281 130.45454788208008 L 336.7397766113281 77.81818389892578" fill-opacity="1" clip-path="url(#oexVOgsnQhZQ)"/><path fill="rgb(0,182,255)" stroke="none" paint-order="stroke" d="M 336.8675842285156 77.81818389892578 L 336.99538423120975 77.81818389892578 L 336.99538423120975 130.45454788208008 L 336.8675842285156 130.45454788208008 L 336.8675842285156 77.81818389892578" fill-opacity="1" clip-path="url(#oexVOgsnQhZQ)"/><path fill="rgb(0,187,255)" stroke="none" paint-order="stroke" d="M 336.995361328125 77.81818389892578 L 337.12316133081913 77.81818389892578 L 337.12316133081913 130.45454788208008 L 336.995361328125 130.45454788208008 L 336.995361328125 77.81818389892578" fill-opacity="1" clip-path="url(#oexVOgsnQhZQ)"/><path fill="rgb(0,191,255)" stroke="none" paint-order="stroke" d="M 337.1231689453125 77.81818389892578 L 337.25096894800663 77.81818389892578 L 337.25096894800663 130.45454788208008 L 337.1231689453125 130.45454788208008 L 337.1231689453125 77.81818389892578" fill-opacity="1" clip-path="url(#oexVOgsnQhZQ)"/><path fill="rgb(0,196,255)" stroke="none" paint-order="stroke" d="M 337.2509765625 77.81818389892578 L 337.37877656519413 77.81818389892578 L 337.37877656519413 130.45454788208008 L 337.2509765625 130.45454788208008 L 337.2509765625 77.81818389892578" fill-opacity="1" clip-path="url(#oexVOgsnQhZQ)"/><path fill="rgb(0,200,255)" stroke="none" paint-order="stroke" d="M 337.3787841796875 77.81818389892578 L 337.50658418238163 77.81818389892578 L 337.50658418238163 130.45454788208008 L 337.3787841796875 130.45454788208008 L 337.3787841796875 77.81818389892578" fill-opacity="1" clip-path="url(#oexVOgsnQhZQ)"/><path fill="rgb(0,204,255)" stroke="none" paint-order="stroke" d="M 337.5065612792969 77.81818389892578 L 337.634361281991 77.81818389892578 L 337.634361281991 130.45454788208008 L 337.5065612792969 130.45454788208008 L 337.5065612792969 77.81818389892578" fill-opacity="1" clip-path="url(#oexVOgsnQhZQ)"/><path fill="rgb(0,209,255)" stroke="none" paint-order="stroke" d="M 337.6343688964844 77.81818389892578 L 337.7621688991785 77.81818389892578 L 337.7621688991785 130.45454788208008 L 337.6343688964844 130.45454788208008 L 337.6343688964844 77.81818389892578" fill-opacity="1" clip-path="url(#oexVOgsnQhZQ)"/><path fill="rgb(0,213,255)" stroke="none" paint-order="stroke" d="M 337.7621765136719 77.81818389892578 L 337.889976516366 77.81818389892578 L 337.889976516366 130.45454788208008 L 337.7621765136719 130.45454788208008 L 337.7621765136719 77.81818389892578" fill-opacity="1" clip-path="url(#oexVOgsnQhZQ)"/><path fill="rgb(0,217,255)" stroke="none" paint-order="stroke" d="M 337.8899841308594 77.81818389892578 L 338.0177841335535 77.81818389892578 L 338.0177841335535 130.45454788208008 L 337.8899841308594 130.45454788208008 L 337.8899841308594 77.81818389892578" fill-opacity="1" clip-path="url(#oexVOgsnQhZQ)"/><path fill="rgb(0,221,255)" stroke="none" paint-order="stroke" d="M 338.01776123046875 77.81818389892578 L 338.1455612331629 77.81818389892578 L 338.1455612331629 130.45454788208008 L 338.01776123046875 130.45454788208008 L 338.01776123046875 77.81818389892578" fill-opacity="1" clip-path="url(#oexVOgsnQhZQ)"/><path fill="rgb(0,226,255)" stroke="none" paint-order="stroke" d="M 338.14556884765625 77.81818389892578 L 338.2733688503504 77.81818389892578 L 338.2733688503504 130.45454788208008 L 338.14556884765625 130.45454788208008 L 338.14556884765625 77.81818389892578" fill-opacity="1" clip-path="url(#oexVOgsnQhZQ)"/><path fill="rgb(0,230,255)" stroke="none" paint-order="stroke" d="M 338.27337646484375 77.81818389892578 L 338.4011764675379 77.81818389892578 L 338.4011764675379 130.45454788208008 L 338.27337646484375 130.45454788208008 L 338.27337646484375 77.81818389892578" fill-opacity="1" clip-path="url(#oexVOgsnQhZQ)"/><path fill="rgb(0,234,255)" stroke="none" paint-order="stroke" d="M 338.40118408203125 77.81818389892578 L 338.5277060866356 77.81818389892578 L 338.5277060866356 130.45454788208008 L 338.40118408203125 130.45454788208008 L 338.40118408203125 77.81818389892578" fill-opacity="1" clip-path="url(#oexVOgsnQhZQ)"/><path fill="rgb(0,238,255)" stroke="none" paint-order="stroke" d="M 338.5276794433594 77.81818389892578 L 338.6554794460535 77.81818389892578 L 338.6554794460535 130.45454788208008 L 338.5276794433594 130.45454788208008 L 338.5276794433594 77.81818389892578" fill-opacity="1" clip-path="url(#oexVOgsnQhZQ)"/><path fill="rgb(0,242,255)" stroke="none" paint-order="stroke" d="M 338.6554870605469 77.81818389892578 L 338.7845650613308 77.81818389892578 L 338.7845650613308 130.45454788208008 L 338.6554870605469 130.45454788208008 L 338.6554870605469 77.81818389892578" fill-opacity="1" clip-path="url(#oexVOgsnQhZQ)"/><path fill="rgb(0,246,255)" stroke="none" paint-order="stroke" d="M 338.7845764160156 77.81818389892578 L 338.91109842061996 77.81818389892578 L 338.91109842061996 130.45454788208008 L 338.7845764160156 130.45454788208008 L 338.7845764160156 77.81818389892578" fill-opacity="1" clip-path="url(#oexVOgsnQhZQ)"/><path fill="rgb(0,250,255)" stroke="none" paint-order="stroke" d="M 338.9111022949219 77.81818389892578 L 339.038902297616 77.81818389892578 L 339.038902297616 130.45454788208008 L 338.9111022949219 130.45454788208008 L 338.9111022949219 77.81818389892578" fill-opacity="1" clip-path="url(#oexVOgsnQhZQ)"/><path fill="rgb(0,255,255)" stroke="none" paint-order="stroke" d="M 339.03887939453125 77.81818389892578 L 339.1666793972254 77.81818389892578 L 339.1666793972254 130.45454788208008 L 339.03887939453125 130.45454788208008 L 339.03887939453125 77.81818389892578" fill-opacity="1" clip-path="url(#oexVOgsnQhZQ)"/><path fill="rgb(0,255,244)" stroke="none" paint-order="stroke" d="M 339.16668701171875 77.81818389892578 L 339.2944870144129 77.81818389892578 L 339.2944870144129 130.45454788208008 L 339.16668701171875 130.45454788208008 L 339.16668701171875 77.81818389892578" fill-opacity="1" clip-path="url(#oexVOgsnQhZQ)"/><path fill="rgb(0,255,234)" stroke="none" paint-order="stroke" d="M 339.29449462890625 77.81818389892578 L 339.4222946316004 77.81818389892578 L 339.4222946316004 130.45454788208008 L 339.29449462890625 130.45454788208008 L 339.29449462890625 77.81818389892578" fill-opacity="1" clip-path="url(#oexVOgsnQhZQ)"/><path fill="rgb(0,255,223)" stroke="none" paint-order="stroke" d="M 339.42230224609375 77.81818389892578 L 339.5501022487879 77.81818389892578 L 339.5501022487879 130.45454788208008 L 339.42230224609375 130.45454788208008 L 339.42230224609375 77.81818389892578" fill-opacity="1" clip-path="url(#oexVOgsnQhZQ)"/><path fill="rgb(0,255,213)" stroke="none" paint-order="stroke" d="M 339.5500793457031 77.81818389892578 L 339.67787934839725 77.81818389892578 L 339.67787934839725 130.45454788208008 L 339.5500793457031 130.45454788208008 L 339.5500793457031 77.81818389892578" fill-opacity="1" clip-path="url(#oexVOgsnQhZQ)"/><path fill="rgb(0,255,202)" stroke="none" paint-order="stroke" d="M 339.6778869628906 77.81818389892578 L 339.80568696558475 77.81818389892578 L 339.80568696558475 130.45454788208008 L 339.6778869628906 130.45454788208008 L 339.6778869628906 77.81818389892578" fill-opacity="1" clip-path="url(#oexVOgsnQhZQ)"/><path fill="rgb(0,255,191)" stroke="none" paint-order="stroke" d="M 339.8056945800781 77.81818389892578 L 339.93349458277225 77.81818389892578 L 339.93349458277225 130.45454788208008 L 339.8056945800781 130.45454788208008 L 339.8056945800781 77.81818389892578" fill-opacity="1" clip-path="url(#oexVOgsnQhZQ)"/><path fill="rgb(0,255,180)" stroke="none" paint-order="stroke" d="M 339.9335021972656 77.81818389892578 L 340.06130219995975 77.81818389892578 L 340.06130219995975 130.45454788208008 L 339.9335021972656 130.45454788208008 L 339.9335021972656 77.81818389892578" fill-opacity="1" clip-path="url(#oexVOgsnQhZQ)"/><path fill="rgb(0,255,169)" stroke="none" paint-order="stroke" d="M 340.061279296875 77.81818389892578 L 340.18907929956913 77.81818389892578 L 340.18907929956913 130.45454788208008 L 340.061279296875 130.45454788208008 L 340.061279296875 77.81818389892578" fill-opacity="1" clip-path="url(#oexVOgsnQhZQ)"/><path fill="rgb(0,255,158)" stroke="none" paint-order="stroke" d="M 340.1890869140625 77.81818389892578 L 340.31688691675663 77.81818389892578 L 340.31688691675663 130.45454788208008 L 340.1890869140625 130.45454788208008 L 340.1890869140625 77.81818389892578" fill-opacity="1" clip-path="url(#oexVOgsnQhZQ)"/><path fill="rgb(0,255,146)" stroke="none" paint-order="stroke" d="M 340.31689453125 77.81818389892578 L 340.44469453394413 77.81818389892578 L 340.44469453394413 130.45454788208008 L 340.31689453125 130.45454788208008 L 340.31689453125 77.81818389892578" fill-opacity="1" clip-path="url(#oexVOgsnQhZQ)"/><path fill="rgb(0,255,134)" stroke="none" paint-order="stroke" d="M 340.4447021484375 77.81818389892578 L 340.57250215113163 77.81818389892578 L 340.57250215113163 130.45454788208008 L 340.4447021484375 130.45454788208008 L 340.4447021484375 77.81818389892578" fill-opacity="1" clip-path="url(#oexVOgsnQhZQ)"/><path fill="rgb(0,255,122)" stroke="none" paint-order="stroke" d="M 340.5724792480469 77.81818389892578 L 340.700279250741 77.81818389892578 L 340.700279250741 130.45454788208008 L 340.5724792480469 130.45454788208008 L 340.5724792480469 77.81818389892578" fill-opacity="1" clip-path="url(#oexVOgsnQhZQ)"/><path fill="rgb(0,255,110)" stroke="none" paint-order="stroke" d="M 340.7002868652344 77.81818389892578 L 340.8306428641081 77.81818389892578 L 340.8306428641081 130.45454788208008 L 340.7002868652344 130.45454788208008 L 340.7002868652344 77.81818389892578" fill-opacity="1" clip-path="url(#oexVOgsnQhZQ)"/><path fill="rgb(0,255,97)" stroke="none" paint-order="stroke" d="M 340.8306579589844 77.81818389892578 L 340.9559019654989 77.81818389892578 L 340.9559019654989 130.45454788208008 L 340.8306579589844 130.45454788208008 L 340.8306579589844 77.81818389892578" fill-opacity="1" clip-path="url(#oexVOgsnQhZQ)"/><path fill="rgb(0,255,84)" stroke="none" paint-order="stroke" d="M 340.9559020996094 77.81818389892578 L 341.0837021023035 77.81818389892578 L 341.0837021023035 130.45454788208008 L 340.9559020996094 130.45454788208008 L 340.9559020996094 77.81818389892578" fill-opacity="1" clip-path="url(#oexVOgsnQhZQ)"/><path fill="rgb(0,255,70)" stroke="none" paint-order="stroke" d="M 341.08367919921875 77.81818389892578 L 341.2114792019129 77.81818389892578 L 341.2114792019129 130.45454788208008 L 341.08367919921875 130.45454788208008 L 341.08367919921875 77.81818389892578" fill-opacity="1" clip-path="url(#oexVOgsnQhZQ)"/><path fill="rgb(0,255,55)" stroke="none" paint-order="stroke" d="M 341.21148681640625 77.81818389892578 L 341.3392868191004 77.81818389892578 L 341.3392868191004 130.45454788208008 L 341.21148681640625 130.45454788208008 L 341.21148681640625 77.81818389892578" fill-opacity="1" clip-path="url(#oexVOgsnQhZQ)"/><path fill="rgb(0,255,40)" stroke="none" paint-order="stroke" d="M 341.33929443359375 77.81818389892578 L 341.4658164381981 77.81818389892578 L 341.4658164381981 130.45454788208008 L 341.33929443359375 130.45454788208008 L 341.33929443359375 77.81818389892578" fill-opacity="1" clip-path="url(#oexVOgsnQhZQ)"/><path fill="rgb(0,255,23)" stroke="none" paint-order="stroke" d="M 341.4658203125 77.81818389892578 L 341.5948983132839 77.81818389892578 L 341.5948983132839 130.45454788208008 L 341.4658203125 130.45454788208008 L 341.4658203125 77.81818389892578" fill-opacity="1" clip-path="url(#oexVOgsnQhZQ)"/><path fill="rgb(0,255,0)" stroke="none" paint-order="stroke" d="M 341.5948791503906 77.81818389892578 L 341.72267915308475 77.81818389892578 L 341.72267915308475 130.45454788208008 L 341.5948791503906 130.45454788208008 L 341.5948791503906 77.81818389892578" fill-opacity="1" clip-path="url(#oexVOgsnQhZQ)"/><path fill="rgb(8,255,0)" stroke="none" paint-order="stroke" d="M 341.7226867675781 77.81818389892578 L 341.84920877218246 77.81818389892578 L 341.84920877218246 130.45454788208008 L 341.7226867675781 130.45454788208008 L 341.7226867675781 77.81818389892578" fill-opacity="1" clip-path="url(#oexVOgsnQhZQ)"/><path fill="rgb(14,255,0)" stroke="none" paint-order="stroke" d="M 341.8492126464844 77.81818389892578 L 341.9770126491785 77.81818389892578 L 341.9770126491785 130.45454788208008 L 341.8492126464844 130.45454788208008 L 341.8492126464844 77.81818389892578" fill-opacity="1" clip-path="url(#oexVOgsnQhZQ)"/><path fill="rgb(20,255,0)" stroke="none" paint-order="stroke" d="M 341.9770202636719 77.81818389892578 L 342.104820266366 77.81818389892578 L 342.104820266366 130.45454788208008 L 341.9770202636719 130.45454788208008 L 341.9770202636719 77.81818389892578" fill-opacity="1" clip-path="url(#oexVOgsnQhZQ)"/><path fill="rgb(25,255,0)" stroke="none" paint-order="stroke" d="M 342.1048278808594 77.81818389892578 L 342.2147358804941 77.81818389892578 L 342.2147358804941 130.45454788208008 L 342.1048278808594 130.45454788208008 L 342.1048278808594 77.81818389892578" fill-opacity="1" clip-path="url(#oexVOgsnQhZQ)"/><path fill="rgb(30,255,0)" stroke="none" paint-order="stroke" d="M 342.2147216796875 77.81818389892578 L 342.6364616751671 77.81818389892578 L 342.6364616751671 130.45454788208008 L 342.2147216796875 130.45454788208008 L 342.2147216796875 77.81818389892578" fill-opacity="1" clip-path="url(#oexVOgsnQhZQ)"/><path fill="rgb(35,255,0)" stroke="none" paint-order="stroke" d="M 342.636474609375 77.81818389892578 L 342.81283861398697 77.81818389892578 L 342.81283861398697 130.45454788208008 L 342.636474609375 130.45454788208008 L 342.636474609375 77.81818389892578" fill-opacity="1" clip-path="url(#oexVOgsnQhZQ)"/><path fill="rgb(40,255,0)" stroke="none" paint-order="stroke" d="M 342.8128356933594 77.81818389892578 L 343.01859369874 77.81818389892578 L 343.01859369874 130.45454788208008 L 342.8128356933594 130.45454788208008 L 342.8128356933594 77.81818389892578" fill-opacity="1" clip-path="url(#oexVOgsnQhZQ)"/><path fill="rgb(44,255,0)" stroke="none" paint-order="stroke" d="M 343.0185852050781 77.81818389892578 L 343.21411921083927 77.81818389892578 L 343.21411921083927 130.45454788208008 L 343.0185852050781 130.45454788208008 L 343.0185852050781 77.81818389892578" fill-opacity="1" clip-path="url(#oexVOgsnQhZQ)"/><path fill="rgb(49,255,0)" stroke="none" paint-order="stroke" d="M 343.214111328125 77.81818389892578 L 343.33935533463955 77.81818389892578 L 343.33935533463955 130.45454788208008 L 343.214111328125 130.45454788208008 L 343.214111328125 77.81818389892578" fill-opacity="1" clip-path="url(#oexVOgsnQhZQ)"/><path fill="rgb(53,255,0)" stroke="none" paint-order="stroke" d="M 343.33935546875 77.81818389892578 L 343.60645747184753 77.81818389892578 L 343.60645747184753 130.45454788208008 L 343.33935546875 130.45454788208008 L 343.33935546875 77.81818389892578" fill-opacity="1" clip-path="url(#oexVOgsnQhZQ)"/><path fill="rgb(58,255,0)" stroke="none" paint-order="stroke" d="M 343.6064758300781 77.81818389892578 L 345.23081386089325 77.81818389892578 L 345.23081386089325 130.45454788208008 L 343.6064758300781 130.45454788208008 L 343.6064758300781 77.81818389892578" fill-opacity="1" clip-path="url(#oexVOgsnQhZQ)"/><path fill="rgb(53,255,0)" stroke="none" paint-order="stroke" d="M 345.2308044433594 77.81818389892578 L 385.7357368469238 77.81818389892578 L 385.7357368469238 130.45454788208008 L 345.2308044433594 130.45454788208008 L 345.2308044433594 77.81818389892578" fill-opacity="1" clip-path="url(#oexVOgsnQhZQ)"/><path fill="rgb(159,255,0)" stroke="none" paint-order="stroke" d="M 385.7357482910156 77.81818389892578 L 389.69499230384827 77.81818389892578 L 389.69499230384827 130.45454788208008 L 385.7357482910156 130.45454788208008 L 385.7357482910156 77.81818389892578" fill-opacity="1" clip-path="url(#oexVOgsnQhZQ)"/><path fill="rgb(0,255,40)" stroke="none" paint-order="stroke" d="M 389.6949768066406 77.81818389892578 L 392.2318067550659 77.81818389892578 L 392.2318067550659 130.45454788208008 L 389.6949768066406 130.45454788208008 L 389.6949768066406 77.81818389892578" fill-opacity="1" clip-path="url(#oexVOgsnQhZQ)"/><path fill="rgb(0,255,23)" stroke="none" paint-order="stroke" d="M 392.2318115234375 77.81818389892578 L 392.43756952881813 77.81818389892578 L 392.43756952881813 130.45454788208008 L 392.2318115234375 130.45454788208008 L 392.2318115234375 77.81818389892578" fill-opacity="1" clip-path="url(#oexVOgsnQhZQ)"/><path fill="rgb(0,255,0)" stroke="none" paint-order="stroke" d="M 392.43756103515625 77.81818389892578 L 392.615203037858 77.81818389892578 L 392.615203037858 130.45454788208008 L 392.43756103515625 130.45454788208008 L 392.43756103515625 77.81818389892578" fill-opacity="1" clip-path="url(#oexVOgsnQhZQ)"/><path fill="rgb(8,255,0)" stroke="none" paint-order="stroke" d="M 392.6152038574219 77.81818389892578 L 392.78517785668373 77.81818389892578 L 392.78517785668373 130.45454788208008 L 392.6152038574219 130.45454788208008 L 392.6152038574219 77.81818389892578" fill-opacity="1" clip-path="url(#oexVOgsnQhZQ)"/><path fill="rgb(14,255,0)" stroke="none" paint-order="stroke" d="M 392.7851867675781 77.81818389892578 L 392.9449367672205 77.81818389892578 L 392.9449367672205 130.45454788208008 L 392.7851867675781 130.45454788208008 L 392.7851867675781 77.81818389892578" fill-opacity="1" clip-path="url(#oexVOgsnQhZQ)"/><path fill="rgb(20,255,0)" stroke="none" paint-order="stroke" d="M 392.9449462890625 77.81818389892578 L 393.10597428679466 77.81818389892578 L 393.10597428679466 130.45454788208008 L 392.9449462890625 130.45454788208008 L 392.9449462890625 77.81818389892578" fill-opacity="1" clip-path="url(#oexVOgsnQhZQ)"/><path fill="rgb(25,255,0)" stroke="none" paint-order="stroke" d="M 393.10595703125 77.81818389892578 L 393.46251901984215 77.81818389892578 L 393.46251901984215 130.45454788208008 L 393.10595703125 130.45454788208008 L 393.10595703125 77.81818389892578" fill-opacity="1" clip-path="url(#oexVOgsnQhZQ)"/><path fill="rgb(30,255,0)" stroke="none" paint-order="stroke" d="M 393.4625244140625 77.81818389892578 L 393.5788224115968 77.81818389892578 L 393.5788224115968 130.45454788208008 L 393.4625244140625 130.45454788208008 L 393.4625244140625 77.81818389892578" fill-opacity="1" clip-path="url(#oexVOgsnQhZQ)"/><path fill="rgb(35,255,0)" stroke="none" paint-order="stroke" d="M 393.5788269042969 77.81818389892578 L 393.9801189005375 77.81818389892578 L 393.9801189005375 130.45454788208008 L 393.5788269042969 130.45454788208008 L 393.5788269042969 77.81818389892578" fill-opacity="1" clip-path="url(#oexVOgsnQhZQ)"/><path fill="rgb(40,255,0)" stroke="none" paint-order="stroke" d="M 393.9801025390625 77.81818389892578 L 394.2395365536213 77.81818389892578 L 394.2395365536213 130.45454788208008 L 393.9801025390625 130.45454788208008 L 393.9801025390625 77.81818389892578" fill-opacity="1" clip-path="url(#oexVOgsnQhZQ)"/><path fill="rgb(44,255,0)" stroke="none" paint-order="stroke" d="M 394.2395324707031 77.81818389892578 L 394.44401247799397 77.81818389892578 L 394.44401247799397 130.45454788208008 L 394.2395324707031 130.45454788208008 L 394.2395324707031 77.81818389892578" fill-opacity="1" clip-path="url(#oexVOgsnQhZQ)"/><path fill="rgb(49,255,0)" stroke="none" paint-order="stroke" d="M 394.44403076171875 77.81818389892578 L 394.91561275720596 77.81818389892578 L 394.91561275720596 130.45454788208008 L 394.44403076171875 130.45454788208008 L 394.44403076171875 77.81818389892578" fill-opacity="1" clip-path="url(#oexVOgsnQhZQ)"/><path fill="rgb(53,255,0)" stroke="none" paint-order="stroke" d="M 394.9156188964844 77.81818389892578 L 399.27871084213257 77.81818389892578 L 399.27871084213257 130.45454788208008 L 394.9156188964844 130.45454788208008 L 394.9156188964844 77.81818389892578" fill-opacity="1" clip-path="url(#oexVOgsnQhZQ)"/><path fill="rgb(42,0,238)" stroke="none" paint-order="stroke" d="M 399.2786865234375 77.81818389892578 L 401.0653305053711 77.81818389892578 L 401.0653305053711 130.45454788208008 L 399.2786865234375 130.45454788208008 L 399.2786865234375 77.81818389892578" fill-opacity="1" clip-path="url(#oexVOgsnQhZQ)"/><path fill="rgb(38,0,240)" stroke="none" paint-order="stroke" d="M 401.0653381347656 77.81818389892578 L 401.19313813745975 77.81818389892578 L 401.19313813745975 130.45454788208008 L 401.0653381347656 130.45454788208008 L 401.0653381347656 77.81818389892578" fill-opacity="1" clip-path="url(#oexVOgsnQhZQ)"/><path fill="rgb(33,0,243)" stroke="none" paint-order="stroke" d="M 401.1931457519531 77.81818389892578 L 401.32094575464725 77.81818389892578 L 401.32094575464725 130.45454788208008 L 401.1931457519531 130.45454788208008 L 401.1931457519531 77.81818389892578" fill-opacity="1" clip-path="url(#oexVOgsnQhZQ)"/><path fill="rgb(28,0,245)" stroke="none" paint-order="stroke" d="M 401.3209533691406 77.81818389892578 L 401.44875337183475 77.81818389892578 L 401.44875337183475 130.45454788208008 L 401.3209533691406 130.45454788208008 L 401.3209533691406 77.81818389892578" fill-opacity="1" clip-path="url(#oexVOgsnQhZQ)"/><path fill="rgb(22,0,247)" stroke="none" paint-order="stroke" d="M 401.44873046875 77.81818389892578 L 401.57653047144413 77.81818389892578 L 401.57653047144413 130.45454788208008 L 401.44873046875 130.45454788208008 L 401.44873046875 77.81818389892578" fill-opacity="1" clip-path="url(#oexVOgsnQhZQ)"/><path fill="rgb(16,0,250)" stroke="none" paint-order="stroke" d="M 401.5765380859375 77.81818389892578 L 401.7056160867214 77.81818389892578 L 401.7056160867214 130.45454788208008 L 401.5765380859375 130.45454788208008 L 401.5765380859375 77.81818389892578" fill-opacity="1" clip-path="url(#oexVOgsnQhZQ)"/><path fill="rgb(9,0,252)" stroke="none" paint-order="stroke" d="M 401.70562744140625 77.81818389892578 L 401.8321494460106 77.81818389892578 L 401.8321494460106 130.45454788208008 L 401.70562744140625 130.45454788208008 L 401.70562744140625 77.81818389892578" fill-opacity="1" clip-path="url(#oexVOgsnQhZQ)"/><path fill="rgb(0,0,255)" stroke="none" paint-order="stroke" d="M 401.8321533203125 77.81818389892578 L 401.95995332300663 77.81818389892578 L 401.95995332300663 130.45454788208008 L 401.8321533203125 130.45454788208008 L 401.8321533203125 77.81818389892578" fill-opacity="1" clip-path="url(#oexVOgsnQhZQ)"/><path fill="rgb(0,11,255)" stroke="none" paint-order="stroke" d="M 401.9599304199219 77.81818389892578 L 402.087730422616 77.81818389892578 L 402.087730422616 130.45454788208008 L 401.9599304199219 130.45454788208008 L 401.9599304199219 77.81818389892578" fill-opacity="1" clip-path="url(#oexVOgsnQhZQ)"/><path fill="rgb(0,19,255)" stroke="none" paint-order="stroke" d="M 402.0877380371094 77.81818389892578 L 402.2155380398035 77.81818389892578 L 402.2155380398035 130.45454788208008 L 402.0877380371094 130.45454788208008 L 402.0877380371094 77.81818389892578" fill-opacity="1" clip-path="url(#oexVOgsnQhZQ)"/><path fill="rgb(0,26,255)" stroke="none" paint-order="stroke" d="M 402.2155456542969 77.81818389892578 L 402.343345656991 77.81818389892578 L 402.343345656991 130.45454788208008 L 402.2155456542969 130.45454788208008 L 402.2155456542969 77.81818389892578" fill-opacity="1" clip-path="url(#oexVOgsnQhZQ)"/><path fill="rgb(0,33,255)" stroke="none" paint-order="stroke" d="M 402.3433532714844 77.81818389892578 L 402.4711532741785 77.81818389892578 L 402.4711532741785 130.45454788208008 L 402.3433532714844 130.45454788208008 L 402.3433532714844 77.81818389892578" fill-opacity="1" clip-path="url(#oexVOgsnQhZQ)"/><path fill="rgb(0,40,255)" stroke="none" paint-order="stroke" d="M 402.47113037109375 77.81818389892578 L 402.5989303737879 77.81818389892578 L 402.5989303737879 130.45454788208008 L 402.47113037109375 130.45454788208008 L 402.47113037109375 77.81818389892578" fill-opacity="1" clip-path="url(#oexVOgsnQhZQ)"/><path fill="rgb(0,46,255)" stroke="none" paint-order="stroke" d="M 402.59893798828125 77.81818389892578 L 402.7267379909754 77.81818389892578 L 402.7267379909754 130.45454788208008 L 402.59893798828125 130.45454788208008 L 402.59893798828125 77.81818389892578" fill-opacity="1" clip-path="url(#oexVOgsnQhZQ)"/><path fill="rgb(0,52,255)" stroke="none" paint-order="stroke" d="M 402.72674560546875 77.81818389892578 L 402.8545456081629 77.81818389892578 L 402.8545456081629 130.45454788208008 L 402.72674560546875 130.45454788208008 L 402.72674560546875 77.81818389892578" fill-opacity="1" clip-path="url(#oexVOgsnQhZQ)"/><path fill="rgb(0,58,255)" stroke="none" paint-order="stroke" d="M 402.85455322265625 77.81818389892578 L 402.9823532253504 77.81818389892578 L 402.9823532253504 130.45454788208008 L 402.85455322265625 130.45454788208008 L 402.85455322265625 77.81818389892578" fill-opacity="1" clip-path="url(#oexVOgsnQhZQ)"/><path fill="rgb(0,64,255)" stroke="none" paint-order="stroke" d="M 402.9823303222656 77.81818389892578 L 403.11013032495975 77.81818389892578 L 403.11013032495975 130.45454788208008 L 402.9823303222656 130.45454788208008 L 402.9823303222656 77.81818389892578" fill-opacity="1" clip-path="url(#oexVOgsnQhZQ)"/><path fill="rgb(0,70,255)" stroke="none" paint-order="stroke" d="M 403.1101379394531 77.81818389892578 L 403.23793794214725 77.81818389892578 L 403.23793794214725 130.45454788208008 L 403.1101379394531 130.45454788208008 L 403.1101379394531 77.81818389892578" fill-opacity="1" clip-path="url(#oexVOgsnQhZQ)"/><path fill="rgb(0,75,255)" stroke="none" paint-order="stroke" d="M 403.2379455566406 77.81818389892578 L 403.3861935585737 77.81818389892578 L 403.3861935585737 130.45454788208008 L 403.2379455566406 130.45454788208008 L 403.2379455566406 77.81818389892578" fill-opacity="1" clip-path="url(#oexVOgsnQhZQ)"/><path fill="rgb(0,81,255)" stroke="none" paint-order="stroke" d="M 403.3861999511719 77.81818389892578 L 403.49355195462704 77.81818389892578 L 403.49355195462704 130.45454788208008 L 403.3861999511719 130.45454788208008 L 403.3861999511719 77.81818389892578" fill-opacity="1" clip-path="url(#oexVOgsnQhZQ)"/><path fill="rgb(0,86,255)" stroke="none" paint-order="stroke" d="M 403.4935302734375 77.81818389892578 L 403.62133027613163 77.81818389892578 L 403.62133027613163 130.45454788208008 L 403.4935302734375 130.45454788208008 L 403.4935302734375 77.81818389892578" fill-opacity="1" clip-path="url(#oexVOgsnQhZQ)"/><path fill="rgb(0,92,255)" stroke="none" paint-order="stroke" d="M 403.621337890625 77.81818389892578 L 403.7695858925581 77.81818389892578 L 403.7695858925581 130.45454788208008 L 403.621337890625 130.45454788208008 L 403.621337890625 77.81818389892578" fill-opacity="1" clip-path="url(#oexVOgsnQhZQ)"/><path fill="rgb(0,97,255)" stroke="none" paint-order="stroke" d="M 403.76959228515625 77.81818389892578 L 403.8769442886114 77.81818389892578 L 403.8769442886114 130.45454788208008 L 403.76959228515625 130.45454788208008 L 403.76959228515625 77.81818389892578" fill-opacity="1" clip-path="url(#oexVOgsnQhZQ)"/><path fill="rgb(0,102,255)" stroke="none" paint-order="stroke" d="M 403.876953125 77.81818389892578 L 404.00475312769413 77.81818389892578 L 404.00475312769413 130.45454788208008 L 403.876953125 130.45454788208008 L 403.876953125 77.81818389892578" fill-opacity="1" clip-path="url(#oexVOgsnQhZQ)"/><path fill="rgb(0,107,255)" stroke="none" paint-order="stroke" d="M 404.0047302246094 77.81818389892578 L 404.1529782265425 77.81818389892578 L 404.1529782265425 130.45454788208008 L 404.0047302246094 130.45454788208008 L 404.0047302246094 77.81818389892578" fill-opacity="1" clip-path="url(#oexVOgsnQhZQ)"/><path fill="rgb(0,112,255)" stroke="none" paint-order="stroke" d="M 404.1529846191406 77.81818389892578 L 404.2603366225958 77.81818389892578 L 404.2603366225958 130.45454788208008 L 404.1529846191406 130.45454788208008 L 404.1529846191406 77.81818389892578" fill-opacity="1" clip-path="url(#oexVOgsnQhZQ)"/><path fill="rgb(0,117,255)" stroke="none" paint-order="stroke" d="M 404.2603454589844 77.81818389892578 L 404.4085934609175 77.81818389892578 L 404.4085934609175 130.45454788208008 L 404.2603454589844 130.45454788208008 L 404.2603454589844 77.81818389892578" fill-opacity="1" clip-path="url(#oexVOgsnQhZQ)"/><path fill="rgb(0,122,255)" stroke="none" paint-order="stroke" d="M 404.4085998535156 77.81818389892578 L 404.53639985620975 77.81818389892578 L 404.53639985620975 130.45454788208008 L 404.4085998535156 130.45454788208008 L 404.4085998535156 77.81818389892578" fill-opacity="1" clip-path="url(#oexVOgsnQhZQ)"/><path fill="rgb(0,127,255)" stroke="none" paint-order="stroke" d="M 404.536376953125 77.81818389892578 L 404.64372895658016 77.81818389892578 L 404.64372895658016 130.45454788208008 L 404.536376953125 130.45454788208008 L 404.536376953125 77.81818389892578" fill-opacity="1" clip-path="url(#oexVOgsnQhZQ)"/><path fill="rgb(0,132,255)" stroke="none" paint-order="stroke" d="M 404.64373779296875 77.81818389892578 L 404.79198579490185 77.81818389892578 L 404.79198579490185 130.45454788208008 L 404.64373779296875 130.45454788208008 L 404.64373779296875 77.81818389892578" fill-opacity="1" clip-path="url(#oexVOgsnQhZQ)"/><path fill="rgb(0,137,255)" stroke="none" paint-order="stroke" d="M 404.7919921875 77.81818389892578 L 404.91979219019413 77.81818389892578 L 404.91979219019413 130.45454788208008 L 404.7919921875 130.45454788208008 L 404.7919921875 77.81818389892578" fill-opacity="1" clip-path="url(#oexVOgsnQhZQ)"/><path fill="rgb(0,141,255)" stroke="none" paint-order="stroke" d="M 404.9197998046875 77.81818389892578 L 405.04759980738163 77.81818389892578 L 405.04759980738163 130.45454788208008 L 404.9197998046875 130.45454788208008 L 404.9197998046875 77.81818389892578" fill-opacity="1" clip-path="url(#oexVOgsnQhZQ)"/><path fill="rgb(0,146,255)" stroke="none" paint-order="stroke" d="M 405.0475769042969 77.81818389892578 L 405.175376906991 77.81818389892578 L 405.175376906991 130.45454788208008 L 405.0475769042969 130.45454788208008 L 405.0475769042969 77.81818389892578" fill-opacity="1" clip-path="url(#oexVOgsnQhZQ)"/><path fill="rgb(0,151,255)" stroke="none" paint-order="stroke" d="M 405.1753845214844 77.81818389892578 L 405.3031845241785 77.81818389892578 L 405.3031845241785 130.45454788208008 L 405.1753845214844 130.45454788208008 L 405.1753845214844 77.81818389892578" fill-opacity="1" clip-path="url(#oexVOgsnQhZQ)"/><path fill="rgb(0,155,255)" stroke="none" paint-order="stroke" d="M 405.3031921386719 77.81818389892578 L 405.430992141366 77.81818389892578 L 405.430992141366 130.45454788208008 L 405.3031921386719 130.45454788208008 L 405.3031921386719 77.81818389892578" fill-opacity="1" clip-path="url(#oexVOgsnQhZQ)"/><path fill="rgb(0,160,255)" stroke="none" paint-order="stroke" d="M 405.4309997558594 77.81818389892578 L 405.5587997585535 77.81818389892578 L 405.5587997585535 130.45454788208008 L 405.4309997558594 130.45454788208008 L 405.4309997558594 77.81818389892578" fill-opacity="1" clip-path="url(#oexVOgsnQhZQ)"/><path fill="rgb(0,164,255)" stroke="none" paint-order="stroke" d="M 405.55877685546875 77.81818389892578 L 405.6865768581629 77.81818389892578 L 405.6865768581629 130.45454788208008 L 405.55877685546875 130.45454788208008 L 405.55877685546875 77.81818389892578" fill-opacity="1" clip-path="url(#oexVOgsnQhZQ)"/><path fill="rgb(0,169,255)" stroke="none" paint-order="stroke" d="M 405.68658447265625 77.81818389892578 L 405.8143844753504 77.81818389892578 L 405.8143844753504 130.45454788208008 L 405.68658447265625 130.45454788208008 L 405.68658447265625 77.81818389892578" fill-opacity="1" clip-path="url(#oexVOgsnQhZQ)"/><path fill="rgb(0,173,255)" stroke="none" paint-order="stroke" d="M 405.81439208984375 77.81818389892578 L 405.9421920925379 77.81818389892578 L 405.9421920925379 130.45454788208008 L 405.81439208984375 130.45454788208008 L 405.81439208984375 77.81818389892578" fill-opacity="1" clip-path="url(#oexVOgsnQhZQ)"/><path fill="rgb(0,178,255)" stroke="none" paint-order="stroke" d="M 405.94219970703125 77.81818389892578 L 406.0687217116356 77.81818389892578 L 406.0687217116356 130.45454788208008 L 405.94219970703125 130.45454788208008 L 405.94219970703125 77.81818389892578" fill-opacity="1" clip-path="url(#oexVOgsnQhZQ)"/><path fill="rgb(0,182,255)" stroke="none" paint-order="stroke" d="M 406.0687255859375 77.81818389892578 L 406.1978035867214 77.81818389892578 L 406.1978035867214 130.45454788208008 L 406.0687255859375 130.45454788208008 L 406.0687255859375 77.81818389892578" fill-opacity="1" clip-path="url(#oexVOgsnQhZQ)"/><path fill="rgb(0,187,255)" stroke="none" paint-order="stroke" d="M 406.1977844238281 77.81818389892578 L 406.32430642843246 77.81818389892578 L 406.32430642843246 130.45454788208008 L 406.1977844238281 130.45454788208008 L 406.1977844238281 77.81818389892578" fill-opacity="1" clip-path="url(#oexVOgsnQhZQ)"/><path fill="rgb(0,191,255)" stroke="none" paint-order="stroke" d="M 406.3243103027344 77.81818389892578 L 406.4533883035183 77.81818389892578 L 406.4533883035183 130.45454788208008 L 406.3243103027344 130.45454788208008 L 406.3243103027344 77.81818389892578" fill-opacity="1" clip-path="url(#oexVOgsnQhZQ)"/><path fill="rgb(0,196,255)" stroke="none" paint-order="stroke" d="M 406.4533996582031 77.81818389892578 L 406.57992166280746 77.81818389892578 L 406.57992166280746 130.45454788208008 L 406.4533996582031 130.45454788208008 L 406.4533996582031 77.81818389892578" fill-opacity="1" clip-path="url(#oexVOgsnQhZQ)"/><path fill="rgb(0,200,255)" stroke="none" paint-order="stroke" d="M 406.5799255371094 77.81818389892578 L 406.7077255398035 77.81818389892578 L 406.7077255398035 130.45454788208008 L 406.5799255371094 130.45454788208008 L 406.5799255371094 77.81818389892578" fill-opacity="1" clip-path="url(#oexVOgsnQhZQ)"/><path fill="rgb(0,204,255)" stroke="none" paint-order="stroke" d="M 406.70770263671875 77.81818389892578 L 406.8355026394129 77.81818389892578 L 406.8355026394129 130.45454788208008 L 406.70770263671875 130.45454788208008 L 406.70770263671875 77.81818389892578" fill-opacity="1" clip-path="url(#oexVOgsnQhZQ)"/><path fill="rgb(251,0,7)" stroke="none" paint-order="stroke" d="M 58.5 130.4545440673828 L 327.9420166015625 130.4545440673828 L 327.9420166015625 183.0909080505371 L 58.5 183.0909080505371 L 58.5 130.4545440673828" fill-opacity="1" clip-path="url(#dkGCbSXDprWv)"/><path fill="rgb(56,126,34)" stroke="none" paint-order="stroke" d="M 327.9420166015625 130.4545440673828 L 385.73573303222656 130.4545440673828 L 385.73573303222656 183.0909080505371 L 327.9420166015625 183.0909080505371 L 327.9420166015625 130.4545440673828" fill-opacity="1" clip-path="url(#dkGCbSXDprWv)"/><path fill="rgb(237,115,111)" stroke="none" paint-order="stroke" d="M 385.7357482910156 130.4545440673828 L 389.69499230384827 130.4545440673828 L 389.69499230384827 183.0909080505371 L 385.7357482910156 183.0909080505371 L 385.7357482910156 130.4545440673828" fill-opacity="1" clip-path="url(#dkGCbSXDprWv)"/><path fill="rgb(251,0,7)" stroke="none" paint-order="stroke" d="M 389.6949768066406 130.4545440673828 L 399.2786989212036 130.4545440673828 L 399.2786989212036 183.0909080505371 L 389.6949768066406 183.0909080505371 L 389.6949768066406 130.4545440673828" fill-opacity="1" clip-path="url(#dkGCbSXDprWv)"/><path fill="rgb(56,126,34)" stroke="none" paint-order="stroke" d="M 399.2786865234375 130.4545440673828 L 406.8355007171631 130.4545440673828 L 406.8355007171631 183.0909080505371 L 399.2786865234375 183.0909080505371 L 399.2786865234375 130.4545440673828" fill-opacity="1" clip-path="url(#dkGCbSXDprWv)"/><path fill="rgb(105,29,48)" stroke="none" paint-order="stroke" d="M 211.4203643798828 183.09091186523438 L 211.48426438122988 183.09091186523438 L 211.48426438122988 498.9090881347656 L 211.4203643798828 498.9090881347656 L 211.4203643798828 183.09091186523438" fill-opacity="1" clip-path="url(#qEWbHIPQvuOW)"/><path fill="rgb(162,174,187)" stroke="none" paint-order="stroke" d="M 229.17178344726562 183.09091186523438 L 229.2356834486127 183.09091186523438 L 229.2356834486127 498.9090881347656 L 229.17178344726562 498.9090881347656 L 229.17178344726562 183.09091186523438" fill-opacity="1" clip-path="url(#ItweKFZIeLtZ)"/><path fill="rgb(255,188,66)" stroke="none" paint-order="stroke" d="M 226.9736328125 183.09091186523438 L 228.11999881267548 183.09091186523438 L 228.11999881267548 498.9090881347656 L 226.9736328125 498.9090881347656 L 226.9736328125 183.09091186523438" fill-opacity="1" clip-path="url(#obQnZQaEFvHK)"/><path fill="rgb(216,17,89)" stroke="none" paint-order="stroke" d="M 205.16455078125 183.09091186523438 L 205.22845078259706 183.09091186523438 L 205.22845078259706 498.9090881347656 L 205.16455078125 498.9090881347656 L 205.16455078125 183.09091186523438" fill-opacity="1" clip-path="url(#DHXaLPRpvsSr)"/><path fill="rgb(216,17,89)" stroke="none" paint-order="stroke" d="M 205.16455078125 183.09091186523438 L 205.22845078259706 183.09091186523438 L 205.22845078259706 498.9090881347656 L 205.16455078125 498.9090881347656 L 205.16455078125 183.09091186523438" fill-opacity="1" clip-path="url(#DHXaLPRpvsSr)"/><path fill="rgb(33,131,128)" stroke="none" paint-order="stroke" d="M 325.01666259765625 183.09091186523438 L 327.94200468063354 183.09091186523438 L 327.94200468063354 498.9090881347656 L 325.01666259765625 498.9090881347656 L 325.01666259765625 183.09091186523438" fill-opacity="1" clip-path="url(#CVSAFMIkasic)"/><path fill="rgb(33,131,128)" stroke="none" paint-order="stroke" d="M 383.31903076171875 183.09091186523438 L 385.73572874069214 183.09091186523438 L 385.73572874069214 498.9090881347656 L 383.31903076171875 498.9090881347656 L 383.31903076171875 183.09091186523438" fill-opacity="1" clip-path="url(#CVSAFMIkasic)"/><path fill="rgb(33,131,128)" stroke="none" paint-order="stroke" d="M 387.4942626953125 183.09091186523438 L 389.69497871398926 183.09091186523438 L 389.69497871398926 498.9090881347656 L 387.4942626953125 498.9090881347656 L 387.4942626953125 183.09091186523438" fill-opacity="1" clip-path="url(#CVSAFMIkasic)"/><path fill="rgb(33,131,128)" stroke="none" paint-order="stroke" d="M 396.4811706542969 183.09091186523438 L 399.2787127494812 183.09091186523438 L 399.2787127494812 498.9090881347656 L 396.4811706542969 498.9090881347656 L 396.4811706542969 183.09091186523438" fill-opacity="1" clip-path="url(#CVSAFMIkasic)"/><path fill="rgb(115,210,222)" stroke="none" paint-order="stroke" d="M 269.5297546386719 183.09091186523438 L 271.19115459918976 183.09091186523438 L 271.19115459918976 498.9090881347656 L 269.5297546386719 498.9090881347656 L 269.5297546386719 183.09091186523438" fill-opacity="1" clip-path="url(#TrnAuBytIqyi)"/><path fill="rgb(115,210,222)" stroke="none" paint-order="stroke" d="M 348.6916198730469 183.09091186523438 L 349.50187188386917 183.09091186523438 L 349.50187188386917 498.9090881347656 L 348.6916198730469 498.9090881347656 L 348.6916198730469 183.09091186523438" fill-opacity="1" clip-path="url(#TrnAuBytIqyi)"/><path fill="rgb(115,210,222)" stroke="none" paint-order="stroke" d="M 353.0892333984375 183.09091186523438 L 354.15636336803436 183.09091186523438 L 354.15636336803436 498.9090881347656 L 353.0892333984375 498.9090881347656 L 353.0892333984375 183.09091186523438" fill-opacity="1" clip-path="url(#TrnAuBytIqyi)"/><path fill="rgb(28,49,68)" stroke="none" paint-order="stroke" d="M 259.7888488769531 183.09091186523438 L 262.853492975235 183.09091186523438 L 262.853492975235 498.9090881347656 L 259.7888488769531 498.9090881347656 L 259.7888488769531 183.09091186523438" fill-opacity="1" clip-path="url(#PEcUpfTJBTNd)"/><path fill="rgb(239,185,203)" stroke="none" paint-order="stroke" d="M 68.3623275756836 183.09091186523438 L 201.76763153076172 183.09091186523438 L 201.76763153076172 498.9090881347656 L 68.3623275756836 498.9090881347656 L 68.3623275756836 183.09091186523438" fill-opacity="1" clip-path="url(#oDgLvELLzrvT)"/><path fill="rgb(239,185,203)" stroke="none" paint-order="stroke" d="M 214.23707580566406 183.09091186523438 L 224.08790016174316 183.09091186523438 L 224.08790016174316 498.9090881347656 L 214.23707580566406 498.9090881347656 L 214.23707580566406 183.09091186523438" fill-opacity="1" clip-path="url(#oDgLvELLzrvT)"/><path fill="rgb(239,185,203)" stroke="none" paint-order="stroke" d="M 247.7820281982422 183.09091186523438 L 257.66224575042725 183.09091186523438 L 257.66224575042725 498.9090881347656 L 247.7820281982422 498.9090881347656 L 247.7820281982422 183.09091186523438" fill-opacity="1" clip-path="url(#oDgLvELLzrvT)"/><path fill="rgb(239,185,203)" stroke="none" paint-order="stroke" d="M 263.9052734375 183.09091186523438 L 267.69709944725037 183.09091186523438 L 267.69709944725037 498.9090881347656 L 263.9052734375 498.9090881347656 L 263.9052734375 183.09091186523438" fill-opacity="1" clip-path="url(#oDgLvELLzrvT)"/><path fill="rgb(239,185,203)" stroke="none" paint-order="stroke" d="M 272.2633972167969 183.09091186523438 L 277.1964774131775 183.09091186523438 L 277.1964774131775 498.9090881347656 L 272.2633972167969 498.9090881347656 L 272.2633972167969 183.09091186523438" fill-opacity="1" clip-path="url(#oDgLvELLzrvT)"/><path fill="rgb(239,185,203)" stroke="none" paint-order="stroke" d="M 280.1678161621094 183.09091186523438 L 312.32996368408203 183.09091186523438 L 312.32996368408203 498.9090881347656 L 280.1678161621094 498.9090881347656 L 280.1678161621094 183.09091186523438" fill-opacity="1" clip-path="url(#oDgLvELLzrvT)"/><path fill="rgb(239,185,203)" stroke="none" paint-order="stroke" d="M 316.34161376953125 183.09091186523438 L 322.61020374298096 183.09091186523438 L 322.61020374298096 498.9090881347656 L 316.34161376953125 498.9090881347656 L 316.34161376953125 183.09091186523438" fill-opacity="1" clip-path="url(#oDgLvELLzrvT)"/><path fill="rgb(239,185,203)" stroke="none" paint-order="stroke" d="M 356.5193786621094 183.09091186523438 L 378.0293960571289 183.09091186523438 L 378.0293960571289 498.9090881347656 L 356.5193786621094 498.9090881347656 L 356.5193786621094 183.09091186523438" fill-opacity="1" clip-path="url(#oDgLvELLzrvT)"/><path fill="rgb(143,45,86)" stroke="none" paint-order="stroke" d="M 58.5 551.5454711914062 L 211.4203643798828 551.5454711914062 L 211.4203643798828 604.1818351745605 L 58.5 604.1818351745605 L 58.5 551.5454711914062" fill-opacity="1" clip-path="url(#BosJIetspwnX)"/><path fill="rgb(63,136,197)" stroke="none" paint-order="stroke" d="M 211.4203643798828 551.5454711914062 L 229.17178344726562 551.5454711914062 L 229.17178344726562 604.1818351745605 L 211.4203643798828 604.1818351745605 L 211.4203643798828 551.5454711914062" fill-opacity="1" clip-path="url(#BosJIetspwnX)"/><path fill="rgb(81,60,99)" stroke="none" paint-order="stroke" d="M 229.17178344726562 551.5454711914062 L 406.83551025390625 551.5454711914062 L 406.83551025390625 604.1818351745605 L 229.17178344726562 604.1818351745605 L 229.17178344726562 551.5454711914062" fill-opacity="1" clip-path="url(#BosJIetspwnX)"/><path fill="none" stroke="rgb(0,0,0)" paint-order="fill" d="M 58.5 77.81818389892578 L 406.83551025390625 77.81818389892578 L 406.83551025390625 604.1818313598633 L 58.5 604.1818313598633 L 58.5 77.81818389892578" stroke-opacity="1" stroke-linejoin="bevel" stroke-miterlimit="10" stroke-dasharray="" clip-path="url(#vaTQUnaIPKIT)"/><path fill="none" stroke="rgb(0,0,0)" paint-order="fill" d="M 58.5 630.5 L 1336.5 630.5" stroke-opacity="1" stroke-linejoin="bevel" stroke-miterlimit="10" stroke-dasharray=""/><path fill="none" stroke="rgb(0,0,0)" paint-order="fill" d="M 58.5 636.5 L 58.5 628.5 M 314.5 636.5 L 314.5 628.5 M 569.5 636.5 L 569.5 628.5 M 825.5 636.5 L 825.5 628.5 M 1080.5 636.5 L 1080.5 628.5 M 1336.5 636.5 L 1336.5 628.5" stroke-opacity="1" stroke-linejoin="bevel" stroke-miterlimit="10" stroke-dasharray=""/><path fill="none" stroke="rgb(0,0,0)" paint-order="fill" d="M 58.5 634.5 L 58.5 630.5 M 109.5 634.5 L 109.5 630.5 M 160.5 634.5 L 160.5 630.5 M 211.5 634.5 L 211.5 630.5 M 262.5 634.5 L 262.5 630.5 M 314.5 634.5 L 314.5 630.5 M 365.5 634.5 L 365.5 630.5 M 416.5 634.5 L 416.5 630.5 M 467.5 634.5 L 467.5 630.5 M 518.5 634.5 L 518.5 630.5 M 569.5 634.5 L 569.5 630.5 M 620.5 634.5 L 620.5 630.5 M 671.5 634.5 L 671.5 630.5 M 723.5 634.5 L 723.5 630.5 M 774.5 634.5 L 774.5 630.5 M 825.5 634.5 L 825.5 630.5 M 876.5 634.5 L 876.5 630.5 M 927.5 634.5 L 927.5 630.5 M 978.5 634.5 L 978.5 630.5 M 1029.5 634.5 L 1029.5 630.5 M 1080.5 634.5 L 1080.5 630.5 M 1132.5 634.5 L 1132.5 630.5 M 1183.5 634.5 L 1183.5 630.5 M 1234.5 634.5 L 1234.5 630.5 M 1285.5 634.5 L 1285.5 630.5 M 1336.5 634.5 L 1336.5 630.5" stroke-opacity="1" stroke-linejoin="bevel" stroke-miterlimit="10" stroke-dasharray=""/><text fill="rgb(68,68,68)" stroke="none" font-family="helvetica" font-size="11px" font-style="normal" font-weight="normal" text-decoration="normal" x="54.94166660308838" y="648.89013671875" text-anchor="start" dominant-baseline="alphabetic" transform="matrix(1, 0, 0, 1, 0.5, 0.5)" fill-opacity="1">0</text><text fill="rgb(68,68,68)" stroke="none" font-family="helvetica" font-size="11px" font-style="normal" font-weight="normal" text-decoration="normal" x="304.42500591278076" y="648.89013671875" text-anchor="start" dominant-baseline="alphabetic" transform="matrix(1, 0, 0, 1, 0.5, 0.5)" fill-opacity="1">200</text><text fill="rgb(68,68,68)" stroke="none" font-family="helvetica" font-size="11px" font-style="normal" font-weight="normal" text-decoration="normal" x="560.0250120162964" y="648.89013671875" text-anchor="start" dominant-baseline="alphabetic" transform="matrix(1, 0, 0, 1, 0.5, 0.5)" fill-opacity="1">400</text><text fill="rgb(68,68,68)" stroke="none" font-family="helvetica" font-size="11px" font-style="normal" font-weight="normal" text-decoration="normal" x="815.6249876022339" y="648.89013671875" text-anchor="start" dominant-baseline="alphabetic" transform="matrix(1, 0, 0, 1, 0.5, 0.5)" fill-opacity="1">600</text><text fill="rgb(68,68,68)" stroke="none" font-family="helvetica" font-size="11px" font-style="normal" font-weight="normal" text-decoration="normal" x="1071.2250242233276" y="648.89013671875" text-anchor="start" dominant-baseline="alphabetic" transform="matrix(1, 0, 0, 1, 0.5, 0.5)" fill-opacity="1">800</text><text fill="rgb(68,68,68)" stroke="none" font-family="helvetica" font-size="11px" font-style="normal" font-weight="normal" text-decoration="normal" x="1323.7666664123535" y="648.89013671875" text-anchor="start" dominant-baseline="alphabetic" transform="matrix(1, 0, 0, 1, 0.5, 0.5)" fill-opacity="1">1000</text><text fill="rgb(68,68,68)" stroke="none" font-family="helvetica" font-size="15pt" font-style="italic" font-weight="normal" text-decoration="normal" x="666.4416675567627" y="676.06982421875" text-anchor="start" dominant-baseline="alphabetic" transform="matrix(1, 0, 0, 1, 0.5, 0.5)" fill-opacity="1">time(s)</text><path fill="none" stroke="rgb(0,0,0)" paint-order="fill" d="M 58.5 630.5 L 58.5 51.5" stroke-opacity="1" stroke-linejoin="bevel" stroke-miterlimit="10" stroke-dasharray=""/><path fill="none" stroke="rgb(0,0,0)" paint-order="fill" d="M 52.5 551.5 L 60.5 551.5 M 52.5 446.5 L 60.5 446.5 M 52.5 341.5 L 60.5 341.5 M 52.5 235.5 L 60.5 235.5 M 52.5 130.5 L 60.5 130.5" stroke-opacity="1" stroke-linejoin="bevel" stroke-miterlimit="10" stroke-dasharray=""/><path fill="none" stroke="rgb(0,0,0)" paint-order="fill" d="M 54.5 572.5 L 58.5 572.5 M 54.5 593.5 L 58.5 593.5 M 54.5 614.5 L 58.5 614.5 M 54.5 551.5 L 58.5 551.5 M 54.5 530.5 L 58.5 530.5 M 54.5 509.5 L 58.5 509.5 M 54.5 488.5 L 58.5 488.5 M 54.5 467.5 L 58.5 467.5 M 54.5 446.5 L 58.5 446.5 M 54.5 425.5 L 58.5 425.5 M 54.5 404.5 L 58.5 404.5 M 54.5 383.5 L 58.5 383.5 M 54.5 362.5 L 58.5 362.5 M 54.5 341.5 L 58.5 341.5 M 54.5 319.5 L 58.5 319.5 M 54.5 298.5 L 58.5 298.5 M 54.5 277.5 L 58.5 277.5 M 54.5 256.5 L 58.5 256.5 M 54.5 235.5 L 58.5 235.5 M 54.5 214.5 L 58.5 214.5 M 54.5 193.5 L 58.5 193.5 M 54.5 172.5 L 58.5 172.5 M 54.5 151.5 L 58.5 151.5 M 54.5 130.5 L 58.5 130.5 M 54.5 109.5 L 58.5 109.5 M 54.5 88.5 L 58.5 88.5 M 54.5 67.5 L 58.5 67.5" stroke-opacity="1" stroke-linejoin="bevel" stroke-miterlimit="10" stroke-dasharray=""/><text fill="rgb(68,68,68)" stroke="none" font-family="helvetica" font-size="11px" font-style="normal" font-weight="normal" text-decoration="normal" x="34.46666622161865" y="554.9905395507812" text-anchor="start" dominant-baseline="alphabetic" transform="matrix(1, 0, 0, 1, 0.5, 0.5)" fill-opacity="1">2</text><text fill="rgb(68,68,68)" stroke="none" font-family="helvetica" font-size="11px" font-style="normal" font-weight="normal" text-decoration="normal" x="34.46666622161865" y="449.7178039550781" text-anchor="start" dominant-baseline="alphabetic" transform="matrix(1, 0, 0, 1, 0.5, 0.5)" fill-opacity="1">1</text><text fill="rgb(68,68,68)" stroke="none" font-family="helvetica" font-size="11px" font-style="normal" font-weight="normal" text-decoration="normal" x="40.88333320617676" y="344.445068359375" text-anchor="start" dominant-baseline="alphabetic" transform="matrix(1, 0, 0, 1, 0.5, 0.5)" fill-opacity="1">0</text><text fill="rgb(68,68,68)" stroke="none" font-family="helvetica" font-size="11px" font-style="normal" font-weight="normal" text-decoration="normal" x="40.88333320617676" y="239.17234802246094" text-anchor="start" dominant-baseline="alphabetic" transform="matrix(1, 0, 0, 1, 0.5, 0.5)" fill-opacity="1">1</text><text fill="rgb(68,68,68)" stroke="none" font-family="helvetica" font-size="11px" font-style="normal" font-weight="normal" text-decoration="normal" x="40.88333320617676" y="133.8996124267578" text-anchor="start" dominant-baseline="alphabetic" transform="matrix(1, 0, 0, 1, 0.5, 0.5)" fill-opacity="1">2</text><text fill="rgb(68,68,68)" stroke="none" font-family="helvetica" font-size="15pt" font-style="italic" font-weight="normal" text-decoration="normal" x="-11.316666603088379" y="336.076171875" text-anchor="start" dominant-baseline="alphabetic" transform="matrix(6.123233995736766e-17, -1, 1, 6.123233995736766e-17, -313.53333377838135, 367.46666622161865)" fill-opacity="1">students</text><path fill="rgb(255,255,255)" stroke="rgb(229,229,229)" paint-order="fill" d="M 1128.2333374023438 61.5 L 1326.5 61.5 L 1326.5 400.5 L 1128.2333374023438 400.5 L 1128.2333374023438 61.5" fill-opacity="0.9490196078431372" clip-path="url(#xRoqlbMdAAwy)" stroke-opacity="0.5019607843137255" stroke-linejoin="bevel" stroke-miterlimit="10" stroke-dasharray=""/><g clip-path="url(#xRoqlbMdAAwy)"><text fill="rgb(68,68,68)" stroke="none" font-family="helvetica" font-size="13px" font-style="normal" font-weight="normal" text-decoration="normal" x="1162.7333374023438" y="81" text-anchor="start" dominant-baseline="central" transform="matrix(1, 0, 0, 1, 0.5, 0.5)" fill-opacity="1">wavelength</text></g><path fill="rgb(0,255,40)" stroke="none" paint-order="stroke" d="M 1140.2333374023438 73.5 L 1156.2333374023438 73.5 L 1156.2333374023438 89.5 L 1140.2333374023438 89.5 L 1140.2333374023438 73.5" fill-opacity="1" clip-path="url(#xRoqlbMdAAwy)"/><path fill="rgb(216,17,89)" stroke="none" paint-order="stroke" d="M 1140.2333374023438 73.5 L 1156.2333374023438 73.5 L 1156.2333374023438 89.5 L 1140.2333374023438 89.5 L 1140.2333374023438 73.5" fill-opacity="1" clip-path="url(#xRoqlbMdAAwy)"/><g clip-path="url(#xRoqlbMdAAwy)"><text fill="rgb(68,68,68)" stroke="none" font-family="helvetica" font-size="13px" font-style="normal" font-weight="normal" text-decoration="normal" x="1162.7333374023438" y="104" text-anchor="start" dominant-baseline="central" transform="matrix(1, 0, 0, 1, 0.5, 0.5)" fill-opacity="1">solution</text></g><path fill="rgb(251,0,7)" stroke="none" paint-order="stroke" d="M 1140.2333374023438 96.5 L 1156.2333374023438 96.5 L 1156.2333374023438 112.5 L 1140.2333374023438 112.5 L 1140.2333374023438 96.5" fill-opacity="1" clip-path="url(#xRoqlbMdAAwy)"/><path fill="rgb(33,131,128)" stroke="none" paint-order="stroke" d="M 1140.2333374023438 96.5 L 1156.2333374023438 96.5 L 1156.2333374023438 112.5 L 1140.2333374023438 112.5 L 1140.2333374023438 96.5" fill-opacity="1" clip-path="url(#xRoqlbMdAAwy)"/><g clip-path="url(#xRoqlbMdAAwy)"><text fill="rgb(68,68,68)" stroke="none" font-family="helvetica" font-size="13px" font-style="normal" font-weight="normal" text-decoration="normal" x="1162.7333374023438" y="127" text-anchor="start" dominant-baseline="central" transform="matrix(1, 0, 0, 1, 0.5, 0.5)" fill-opacity="1">laser</text></g><path fill="rgb(105,29,48)" stroke="none" paint-order="stroke" d="M 1140.2333374023438 119.5 L 1156.2333374023438 119.5 L 1156.2333374023438 135.5 L 1140.2333374023438 135.5 L 1140.2333374023438 119.5" fill-opacity="1" clip-path="url(#xRoqlbMdAAwy)"/><g clip-path="url(#xRoqlbMdAAwy)"><text fill="rgb(68,68,68)" stroke="none" font-family="helvetica" font-size="13px" font-style="normal" font-weight="normal" text-decoration="normal" x="1162.7333374023438" y="150" text-anchor="start" dominant-baseline="central" transform="matrix(1, 0, 0, 1, 0.5, 0.5)" fill-opacity="1">ruler</text></g><g clip-path="url(#xRoqlbMdAAwy)"><text fill="rgb(68,68,68)" stroke="none" font-family="helvetica" font-size="13px" font-style="normal" font-weight="normal" text-decoration="normal" x="1162.7333374023438" y="173" text-anchor="start" dominant-baseline="central" transform="matrix(1, 0, 0, 1, 0.5, 0.5)" fill-opacity="1">restarts</text></g><g clip-path="url(#xRoqlbMdAAwy)"><text fill="rgb(68,68,68)" stroke="none" font-family="helvetica" font-size="13px" font-style="normal" font-weight="normal" text-decoration="normal" x="1162.7333374023438" y="196" text-anchor="start" dominant-baseline="central" transform="matrix(1, 0, 0, 1, 0.5, 0.5)" fill-opacity="1">transmittance_absorbance</text></g><path fill="rgb(162,174,187)" stroke="none" paint-order="stroke" d="M 1140.2333374023438 188.5 L 1156.2333374023438 188.5 L 1156.2333374023438 204.5 L 1140.2333374023438 204.5 L 1140.2333374023438 188.5" fill-opacity="1" clip-path="url(#xRoqlbMdAAwy)"/><g clip-path="url(#xRoqlbMdAAwy)"><text fill="rgb(68,68,68)" stroke="none" font-family="helvetica" font-size="13px" font-style="normal" font-weight="normal" text-decoration="normal" x="1162.7333374023438" y="219" text-anchor="start" dominant-baseline="central" transform="matrix(1, 0, 0, 1, 0.5, 0.5)" fill-opacity="1">magnifier</text></g><path fill="rgb(255,188,66)" stroke="none" paint-order="stroke" d="M 1140.2333374023438 211.5 L 1156.2333374023438 211.5 L 1156.2333374023438 227.5 L 1140.2333374023438 227.5 L 1140.2333374023438 211.5" fill-opacity="1" clip-path="url(#xRoqlbMdAAwy)"/><g clip-path="url(#xRoqlbMdAAwy)"><text fill="rgb(68,68,68)" stroke="none" font-family="helvetica" font-size="13px" font-style="normal" font-weight="normal" text-decoration="normal" x="1162.7333374023438" y="242" text-anchor="start" dominant-baseline="central" transform="matrix(1, 0, 0, 1, 0.5, 0.5)" fill-opacity="1">concentration</text></g><path fill="rgb(115,210,222)" stroke="none" paint-order="stroke" d="M 1140.2333374023438 234.5 L 1156.2333374023438 234.5 L 1156.2333374023438 250.5 L 1140.2333374023438 250.5 L 1140.2333374023438 234.5" fill-opacity="1" clip-path="url(#xRoqlbMdAAwy)"/><g clip-path="url(#xRoqlbMdAAwy)"><text fill="rgb(68,68,68)" stroke="none" font-family="helvetica" font-size="13px" font-style="normal" font-weight="normal" text-decoration="normal" x="1162.7333374023438" y="265" text-anchor="start" dominant-baseline="central" transform="matrix(1, 0, 0, 1, 0.5, 0.5)" fill-opacity="1">flask</text></g><path fill="rgb(28,49,68)" stroke="none" paint-order="stroke" d="M 1140.2333374023438 257.5 L 1156.2333374023438 257.5 L 1156.2333374023438 273.5 L 1140.2333374023438 273.5 L 1140.2333374023438 257.5" fill-opacity="1" clip-path="url(#xRoqlbMdAAwy)"/><g clip-path="url(#xRoqlbMdAAwy)"><text fill="rgb(68,68,68)" stroke="none" font-family="helvetica" font-size="13px" font-style="normal" font-weight="normal" text-decoration="normal" x="1162.7333374023438" y="288" text-anchor="start" dominant-baseline="central" transform="matrix(1, 0, 0, 1, 0.5, 0.5)" fill-opacity="1">pdf</text></g><path fill="rgb(239,185,203)" stroke="none" paint-order="stroke" d="M 1140.2333374023438 280.5 L 1156.2333374023438 280.5 L 1156.2333374023438 296.5 L 1140.2333374023438 296.5 L 1140.2333374023438 280.5" fill-opacity="1" clip-path="url(#xRoqlbMdAAwy)"/><g clip-path="url(#xRoqlbMdAAwy)"><text fill="rgb(68,68,68)" stroke="none" font-family="helvetica" font-size="13px" font-style="normal" font-weight="normal" text-decoration="normal" x="1162.7333374023438" y="311" text-anchor="start" dominant-baseline="central" transform="matrix(1, 0, 0, 1, 0.5, 0.5)" fill-opacity="1">concentrationlab</text></g><g clip-path="url(#xRoqlbMdAAwy)"><text fill="rgb(68,68,68)" stroke="none" font-family="helvetica" font-size="13px" font-style="normal" font-weight="normal" text-decoration="normal" x="1162.7333374023438" y="334" text-anchor="start" dominant-baseline="central" transform="matrix(1, 0, 0, 1, 0.5, 0.5)" fill-opacity="1">wavelength_slider</text></g><g clip-path="url(#xRoqlbMdAAwy)"><text fill="rgb(68,68,68)" stroke="none" font-family="helvetica" font-size="13px" font-style="normal" font-weight="normal" text-decoration="normal" x="1162.7333374023438" y="357" text-anchor="start" dominant-baseline="central" transform="matrix(1, 0, 0, 1, 0.5, 0.5)" fill-opacity="1">ruler measuring</text></g><g clip-path="url(#xRoqlbMdAAwy)"><text fill="rgb(68,68,68)" stroke="none" font-family="helvetica" font-size="13px" font-style="normal" font-weight="normal" text-decoration="normal" x="1162.7333374023438" y="380" text-anchor="start" dominant-baseline="central" transform="matrix(1, 0, 0, 1, 0.5, 0.5)" fill-opacity="1">dependent variable</text></g><path fill="rgb(143,45,86)" stroke="none" paint-order="stroke" d="M 1140.2333374023438 372.5 L 1156.2333374023438 372.5 L 1156.2333374023438 388.5 L 1140.2333374023438 388.5 L 1140.2333374023438 372.5" fill-opacity="1" clip-path="url(#xRoqlbMdAAwy)"/><text fill="rgb(68,68,68)" stroke="none" font-family="helvetica" font-size="25pt" font-style="normal" font-weight="bold" text-decoration="normal" x="58" y="38.740885416666664" text-anchor="start" dominant-baseline="alphabetic" transform="matrix(1, 0, 0, 1, 0.5, 0.5)" fill-opacity="1">Timeline for student nrxpa2ac with permutation 0231 for task 2</text></svg>