<svg version="1.1" xmlns="http://www.w3.org/2000/svg" width="1366" height="683"><defs><clipPath id="MiNanFDleKoA"><path fill="none" stroke="none" d="M 58.5 51.5 L 1336.5 51.5 L 1336.5 630.5 L 58.5 630.5 L 58.5 51.5"/></clipPath><clipPath id="aSwsmkotZQhg"><path fill="none" stroke="none" d="M 58.5 51.5 L 1336.5 51.5 L 1336.5 630.5 L 58.5 630.5 L 58.5 51.5"/></clipPath><clipPath id="rUqJAJlstDSv"><path fill="none" stroke="none" d="M 58.5 51.5 L 1336.5 51.5 L 1336.5 630.5 L 58.5 630.5 L 58.5 51.5"/></clipPath><clipPath id="yxGLHUxQPPBW"><path fill="none" stroke="none" d="M 58.5 51.5 L 1336.5 51.5 L 1336.5 630.5 L 58.5 630.5 L 58.5 51.5"/></clipPath><clipPath id="pEcEgmltIeDy"><path fill="none" stroke="none" d="M 58.5 51.5 L 1336.5 51.5 L 1336.5 630.5 L 58.5 630.5 L 58.5 51.5"/></clipPath><clipPath id="nvStLqFpigGa"><path fill="none" stroke="none" d="M 58.5 51.5 L 1336.5 51.5 L 1336.5 630.5 L 58.5 630.5 L 58.5 51.5"/></clipPath><clipPath id="zfoHXTdvRnBw"><path fill="none" stroke="none" d="M 58.5 51.5 L 1336.5 51.5 L 1336.5 630.5 L 58.5 630.5 L 58.5 51.5"/></clipPath><clipPath id="eDhWMpgIGXla"><path fill="none" stroke="none" d="M 58.5 51.5 L 1336.5 51.5 L 1336.5 630.5 L 58.5 630.5 L 58.5 51.5"/></clipPath><clipPath id="xCVsDTRtNCMz"><path fill="none" stroke="none" d="M 58.5 51.5 L 1336.5 51.5 L 1336.5 630.5 L 58.5 630.5 L 58.5 51.5"/></clipPath><clipPath id="vSNgNkdpnoPV"><path fill="none" stroke="none" d="M 58.5 51.5 L 1336.5 51.5 L 1336.5 630.5 L 58.5 630.5 L 58.5 51.5"/></clipPath><clipPath id="ZibBsyQICpli"><path fill="none" stroke="none" d="M 58.5 51.5 L 1336.5 51.5 L 1336.5 630.5 L 58.5 630.5 L 58.5 51.5"/></clipPath><clipPath id="dZTeQKoAOxtF"><path fill="none" stroke="none" d="M 58.5 51.5 L 1336.5 51.5 L 1336.5 630.5 L 58.5 630.5 L 58.5 51.5"/></clipPath><clipPath id="UsliXcNXaStH"><path fill="none" stroke="none" d="M 58.5 51.5 L 1336.5 51.5 L 1336.5 630.5 L 58.5 630.5 L 58.5 51.5"/></clipPath><clipPath id="exqGbkLMIpDI"><path fill="none" stroke="none" d="M 58.5 51.5 L 1336.5 51.5 L 1336.5 630.5 L 58.5 630.5 L 58.5 51.5"/></clipPath><clipPath id="yHsddcWNiQOv"><path fill="none" stroke="none" d="M 58.5 51.5 L 1336.5 51.5 L 1336.5 630.5 L 58.5 630.5 L 58.5 51.5"/></clipPath><clipPath id="wqTWipzwbvvA"><path fill="none" stroke="none" d="M 58.5 51.5 L 1336.5 51.5 L 1336.5 630.5 L 58.5 630.5 L 58.5 51.5"/></clipPath><clipPath id="rZzWclIBpefJ"><path fill="none" stroke="none" d="M 58.5 51.5 L 1336.5 51.5 L 1336.5 630.5 L 58.5 630.5 L 58.5 51.5"/></clipPath><clipPath id="rLQWperJtuLV"><path fill="none" stroke="none" d="M 58.5 51.5 L 1336.5 51.5 L 1336.5 630.5 L 58.5 630.5 L 58.5 51.5"/></clipPath><clipPath id="fZkKmeUSozzp"><path fill="none" stroke="none" d="M 58.5 51.5 L 1336.5 51.5 L 1336.5 630.5 L 58.5 630.5 L 58.5 51.5"/></clipPath><clipPath id="DmVKbXGmKIbZ"><path fill="none" stroke="none" d="M 58.5 51.5 L 1336.5 51.5 L 1336.5 630.5 L 58.5 630.5 L 58.5 51.5"/></clipPath><clipPath id="vJRHcyLfaBkF"><path fill="none" stroke="none" d="M 58.5 51.5 L 1336.5 51.5 L 1336.5 630.5 L 58.5 630.5 L 58.5 51.5"/></clipPath></defs><path fill="rgb(255,255,255)" stroke="none" paint-order="stroke" d="M 0.5 0.5 L 1366.5 0.5 L 1366.5 683.5 L 0.5 683.5 L 0.5 0.5" fill-opacity="1"/><rect fill="#FFFFFF" stroke="none" x="58" y="51" width="1278" height="579" transform="matrix(1, 0, 0, 1, 0.5, 0.5)"/><path fill="rgb(255,255,255)" stroke="none" paint-order="stroke" d="M 58.5 51.5 L 1336.5 51.5 L 1336.5 630.5 L 58.5 630.5 L 58.5 51.5" fill-opacity="1"/><path fill="none" stroke="rgb(229,229,229)" paint-order="fill" d="M 58.5 51.5 L 1336.5 51.5 L 1336.5 630.5 L 58.5 630.5 L 58.5 51.5" stroke-opacity="1" stroke-linejoin="bevel" stroke-miterlimit="10" stroke-dasharray=""/><path fill="none" stroke="rgb(229,229,229)" paint-order="fill" d="M 314.5 630.5 L 314.5 51.5 M 569.5 630.5 L 569.5 51.5 M 825.5 630.5 L 825.5 51.5 M 1080.5 630.5 L 1080.5 51.5" stroke-opacity="1" stroke-linejoin="bevel" stroke-miterlimit="10" stroke-dasharray="" clip-path="url(#MiNanFDleKoA)"/><path fill="none" stroke="rgb(229,229,229)" paint-order="fill" d="M 58.5 551.5 L 1336.5 551.5 M 58.5 446.5 L 1336.5 446.5 M 58.5 341.5 L 1336.5 341.5 M 58.5 235.5 L 1336.5 235.5 M 58.5 130.5 L 1336.5 130.5" stroke-opacity="1" stroke-linejoin="bevel" stroke-miterlimit="10" stroke-dasharray="" clip-path="url(#aSwsmkotZQhg)"/><path fill="rgb(0,255,40)" stroke="none" paint-order="stroke" d="M 58.5 77.81818389892578 L 259.4079895019531 77.81818389892578 L 259.4079895019531 130.45454788208008 L 58.5 130.45454788208008 L 58.5 77.81818389892578" fill-opacity="1" clip-path="url(#rUqJAJlstDSv)"/><path fill="rgb(0,255,0)" stroke="none" paint-order="stroke" d="M 259.4079895019531 77.81818389892578 L 259.4297155011445 77.81818389892578 L 259.4297155011445 130.45454788208008 L 259.4079895019531 130.45454788208008 L 259.4079895019531 77.81818389892578" fill-opacity="1" clip-path="url(#rUqJAJlstDSv)"/><path fill="rgb(20,255,0)" stroke="none" paint-order="stroke" d="M 259.4297180175781 77.81818389892578 L 259.4514440167695 77.81818389892578 L 259.4514440167695 130.45454788208008 L 259.4297180175781 130.45454788208008 L 259.4297180175781 77.81818389892578" fill-opacity="1" clip-path="url(#rUqJAJlstDSv)"/><path fill="rgb(35,255,0)" stroke="none" paint-order="stroke" d="M 259.4514465332031 77.81818389892578 L 259.4718945324421 77.81818389892578 L 259.4718945324421 130.45454788208008 L 259.4514465332031 130.45454788208008 L 259.4514465332031 77.81818389892578" fill-opacity="1" clip-path="url(#rUqJAJlstDSv)"/><path fill="rgb(49,255,0)" stroke="none" paint-order="stroke" d="M 259.4718933105469 77.81818389892578 L 259.4936193097383 77.81818389892578 L 259.4936193097383 130.45454788208008 L 259.4718933105469 130.45454788208008 L 259.4718933105469 77.81818389892578" fill-opacity="1" clip-path="url(#rUqJAJlstDSv)"/><path fill="rgb(74,255,0)" stroke="none" paint-order="stroke" d="M 259.4936218261719 77.81818389892578 L 259.5357958264649 77.81818389892578 L 259.5357958264649 130.45454788208008 L 259.4936218261719 130.45454788208008 L 259.4936218261719 77.81818389892578" fill-opacity="1" clip-path="url(#rUqJAJlstDSv)"/><path fill="rgb(93,255,0)" stroke="none" paint-order="stroke" d="M 259.5357971191406 77.81818389892578 L 259.57797111943364 77.81818389892578 L 259.57797111943364 130.45454788208008 L 259.5357971191406 130.45454788208008 L 259.5357971191406 77.81818389892578" fill-opacity="1" clip-path="url(#rUqJAJlstDSv)"/><path fill="rgb(115,255,0)" stroke="none" paint-order="stroke" d="M 259.5779724121094 77.81818389892578 L 259.5996984113008 77.81818389892578 L 259.5996984113008 130.45454788208008 L 259.5779724121094 130.45454788208008 L 259.5779724121094 77.81818389892578" fill-opacity="1" clip-path="url(#rUqJAJlstDSv)"/><path fill="rgb(126,255,0)" stroke="none" paint-order="stroke" d="M 259.5997009277344 77.81818389892578 L 259.6214269269258 77.81818389892578 L 259.6214269269258 130.45454788208008 L 259.5997009277344 130.45454788208008 L 259.5997009277344 77.81818389892578" fill-opacity="1" clip-path="url(#rUqJAJlstDSv)"/><path fill="rgb(136,255,0)" stroke="none" paint-order="stroke" d="M 259.6214294433594 77.81818389892578 L 259.6431554425508 77.81818389892578 L 259.6431554425508 130.45454788208008 L 259.6214294433594 130.45454788208008 L 259.6214294433594 77.81818389892578" fill-opacity="1" clip-path="url(#rUqJAJlstDSv)"/><path fill="rgb(143,255,0)" stroke="none" paint-order="stroke" d="M 259.64312744140625 77.81818389892578 L 259.6635754406452 77.81818389892578 L 259.6635754406452 130.45454788208008 L 259.64312744140625 130.45454788208008 L 259.64312744140625 77.81818389892578" fill-opacity="1" clip-path="url(#rUqJAJlstDSv)"/><path fill="rgb(153,255,0)" stroke="none" paint-order="stroke" d="M 259.6636047363281 77.81818389892578 L 259.6853307355195 77.81818389892578 L 259.6853307355195 130.45454788208008 L 259.6636047363281 130.45454788208008 L 259.6636047363281 77.81818389892578" fill-opacity="1" clip-path="url(#rUqJAJlstDSv)"/><path fill="rgb(162,255,0)" stroke="none" paint-order="stroke" d="M 259.685302734375 77.81818389892578 L 259.7070287335664 77.81818389892578 L 259.7070287335664 130.45454788208008 L 259.685302734375 130.45454788208008 L 259.685302734375 77.81818389892578" fill-opacity="1" clip-path="url(#rUqJAJlstDSv)"/><path fill="rgb(172,255,0)" stroke="none" paint-order="stroke" d="M 259.70703125 77.81818389892578 L 259.72747924923897 77.81818389892578 L 259.72747924923897 130.45454788208008 L 259.70703125 130.45454788208008 L 259.70703125 77.81818389892578" fill-opacity="1" clip-path="url(#rUqJAJlstDSv)"/><path fill="rgb(182,255,0)" stroke="none" paint-order="stroke" d="M 259.72747802734375 77.81818389892578 L 259.74920402653515 77.81818389892578 L 259.74920402653515 130.45454788208008 L 259.72747802734375 130.45454788208008 L 259.72747802734375 77.81818389892578" fill-opacity="1" clip-path="url(#rUqJAJlstDSv)"/><path fill="rgb(191,255,0)" stroke="none" paint-order="stroke" d="M 259.74920654296875 77.81818389892578 L 259.7696545422077 77.81818389892578 L 259.7696545422077 130.45454788208008 L 259.74920654296875 130.45454788208008 L 259.74920654296875 77.81818389892578" fill-opacity="1" clip-path="url(#rUqJAJlstDSv)"/><path fill="rgb(197,255,0)" stroke="none" paint-order="stroke" d="M 259.7696533203125 77.81818389892578 L 259.8131053186953 77.81818389892578 L 259.8131053186953 130.45454788208008 L 259.7696533203125 130.45454788208008 L 259.7696533203125 77.81818389892578" fill-opacity="1" clip-path="url(#rUqJAJlstDSv)"/><path fill="rgb(207,255,0)" stroke="none" paint-order="stroke" d="M 259.8131103515625 77.81818389892578 L 259.83355835080147 77.81818389892578 L 259.83355835080147 130.45454788208008 L 259.8131103515625 130.45454788208008 L 259.8131103515625 77.81818389892578" fill-opacity="1" clip-path="url(#rUqJAJlstDSv)"/><path fill="rgb(216,255,0)" stroke="none" paint-order="stroke" d="M 259.83355712890625 77.81818389892578 L 259.85528312809765 77.81818389892578 L 259.85528312809765 130.45454788208008 L 259.83355712890625 130.45454788208008 L 259.83355712890625 77.81818389892578" fill-opacity="1" clip-path="url(#rUqJAJlstDSv)"/><path fill="rgb(225,255,0)" stroke="none" paint-order="stroke" d="M 259.85528564453125 77.81818389892578 L 259.89745964482427 77.81818389892578 L 259.89745964482427 130.45454788208008 L 259.85528564453125 130.45454788208008 L 259.85528564453125 77.81818389892578" fill-opacity="1" clip-path="url(#rUqJAJlstDSv)"/><path fill="rgb(234,255,0)" stroke="none" paint-order="stroke" d="M 259.8974609375 77.81818389892578 L 259.96136093884706 77.81818389892578 L 259.96136093884706 130.45454788208008 L 259.8974609375 130.45454788208008 L 259.8974609375 77.81818389892578" fill-opacity="1" clip-path="url(#rUqJAJlstDSv)"/><path fill="rgb(243,255,0)" stroke="none" paint-order="stroke" d="M 259.96136474609375 77.81818389892578 L 259.98309074528515 77.81818389892578 L 259.98309074528515 130.45454788208008 L 259.96136474609375 130.45454788208008 L 259.96136474609375 77.81818389892578" fill-opacity="1" clip-path="url(#rUqJAJlstDSv)"/><path fill="rgb(249,255,0)" stroke="none" paint-order="stroke" d="M 259.98309326171875 77.81818389892578 L 260.8994192481041 77.81818389892578 L 260.8994192481041 130.45454788208008 L 259.98309326171875 130.45454788208008 L 259.98309326171875 77.81818389892578" fill-opacity="1" clip-path="url(#rUqJAJlstDSv)"/><path fill="rgb(255,251,0)" stroke="none" paint-order="stroke" d="M 260.8994140625 77.81818389892578 L 261.0476620644331 77.81818389892578 L 261.0476620644331 130.45454788208008 L 260.8994140625 130.45454788208008 L 260.8994140625 77.81818389892578" fill-opacity="1" clip-path="url(#rUqJAJlstDSv)"/><path fill="rgb(255,242,0)" stroke="none" paint-order="stroke" d="M 261.04766845703125 77.81818389892578 L 261.1332944557071 77.81818389892578 L 261.1332944557071 130.45454788208008 L 261.04766845703125 130.45454788208008 L 261.04766845703125 77.81818389892578" fill-opacity="1" clip-path="url(#rUqJAJlstDSv)"/><path fill="rgb(255,232,0)" stroke="none" paint-order="stroke" d="M 261.13330078125 77.81818389892578 L 261.175474781543 77.81818389892578 L 261.175474781543 130.45454788208008 L 261.13330078125 130.45454788208008 L 261.13330078125 77.81818389892578" fill-opacity="1" clip-path="url(#rUqJAJlstDSv)"/><path fill="rgb(255,223,0)" stroke="none" paint-order="stroke" d="M 261.17547607421875 77.81818389892578 L 261.19720207341015 77.81818389892578 L 261.19720207341015 130.45454788208008 L 261.17547607421875 130.45454788208008 L 261.17547607421875 77.81818389892578" fill-opacity="1" clip-path="url(#rUqJAJlstDSv)"/><path fill="rgb(255,213,0)" stroke="none" paint-order="stroke" d="M 261.19720458984375 77.81818389892578 L 261.34545259177685 77.81818389892578 L 261.34545259177685 130.45454788208008 L 261.19720458984375 130.45454788208008 L 261.19720458984375 77.81818389892578" fill-opacity="1" clip-path="url(#rUqJAJlstDSv)"/><path fill="rgb(255,203,0)" stroke="none" paint-order="stroke" d="M 261.3454284667969 77.81818389892578 L 261.8361804783344 77.81818389892578 L 261.8361804783344 130.45454788208008 L 261.3454284667969 130.45454788208008 L 261.3454284667969 77.81818389892578" fill-opacity="1" clip-path="url(#rUqJAJlstDSv)"/><path fill="rgb(255,213,0)" stroke="none" paint-order="stroke" d="M 261.836181640625 77.81818389892578 L 261.92052964121103 77.81818389892578 L 261.92052964121103 130.45454788208008 L 261.836181640625 130.45454788208008 L 261.836181640625 77.81818389892578" fill-opacity="1" clip-path="url(#rUqJAJlstDSv)"/><path fill="rgb(255,223,0)" stroke="none" paint-order="stroke" d="M 261.9205322265625 77.81818389892578 L 262.0700582265854 77.81818389892578 L 262.0700582265854 130.45454788208008 L 261.9205322265625 130.45454788208008 L 261.9205322265625 77.81818389892578" fill-opacity="1" clip-path="url(#rUqJAJlstDSv)"/><path fill="rgb(255,232,0)" stroke="none" paint-order="stroke" d="M 262.070068359375 77.81818389892578 L 262.13396836072206 77.81818389892578 L 262.13396836072206 130.45454788208008 L 262.070068359375 130.45454788208008 L 262.070068359375 77.81818389892578" fill-opacity="1" clip-path="url(#rUqJAJlstDSv)"/><path fill="rgb(255,242,0)" stroke="none" paint-order="stroke" d="M 262.13397216796875 77.81818389892578 L 262.17614616826177 77.81818389892578 L 262.17614616826177 130.45454788208008 L 262.13397216796875 130.45454788208008 L 262.13397216796875 77.81818389892578" fill-opacity="1" clip-path="url(#rUqJAJlstDSv)"/><path fill="rgb(255,251,0)" stroke="none" paint-order="stroke" d="M 262.1761474609375 77.81818389892578 L 262.79342144727707 77.81818389892578 L 262.79342144727707 130.45454788208008 L 262.1761474609375 130.45454788208008 L 262.1761474609375 77.81818389892578" fill-opacity="1" clip-path="url(#rUqJAJlstDSv)"/><path fill="rgb(249,255,0)" stroke="none" paint-order="stroke" d="M 262.7934265136719 77.81818389892578 L 262.9851265102625 77.81818389892578 L 262.9851265102625 130.45454788208008 L 262.7934265136719 130.45454788208008 L 262.7934265136719 77.81818389892578" fill-opacity="1" clip-path="url(#rUqJAJlstDSv)"/><path fill="rgb(243,255,0)" stroke="none" paint-order="stroke" d="M 262.985107421875 77.81818389892578 L 263.7097334265709 77.81818389892578 L 263.7097334265709 130.45454788208008 L 262.985107421875 130.45454788208008 L 262.985107421875 77.81818389892578" fill-opacity="1" clip-path="url(#rUqJAJlstDSv)"/><path fill="rgb(249,255,0)" stroke="none" paint-order="stroke" d="M 263.7097473144531 77.81818389892578 L 263.75192131474614 77.81818389892578 L 263.75192131474614 130.45454788208008 L 263.7097473144531 130.45454788208008 L 263.7097473144531 77.81818389892578" fill-opacity="1" clip-path="url(#rUqJAJlstDSv)"/><path fill="rgb(255,251,0)" stroke="none" paint-order="stroke" d="M 263.7519226074219 77.81818389892578 L 264.2120026051998 77.81818389892578 L 264.2120026051998 130.45454788208008 L 263.7519226074219 130.45454788208008 L 263.7519226074219 77.81818389892578" fill-opacity="1" clip-path="url(#rUqJAJlstDSv)"/><path fill="rgb(249,255,0)" stroke="none" paint-order="stroke" d="M 264.2120056152344 77.81818389892578 L 268.84986782073975 77.81818389892578 L 268.84986782073975 130.45454788208008 L 264.2120056152344 130.45454788208008 L 264.2120056152344 77.81818389892578" fill-opacity="1" clip-path="url(#rUqJAJlstDSv)"/><path fill="rgb(252,255,0)" stroke="none" paint-order="stroke" d="M 268.849853515625 77.81818389892578 L 269.4045054912567 77.81818389892578 L 269.4045054912567 130.45454788208008 L 268.849853515625 130.45454788208008 L 268.849853515625 77.81818389892578" fill-opacity="1" clip-path="url(#rUqJAJlstDSv)"/><path fill="rgb(255,255,0)" stroke="none" paint-order="stroke" d="M 269.4045104980469 77.81818389892578 L 401.89732360839844 77.81818389892578 L 401.89732360839844 130.45454788208008 L 269.4045104980469 130.45454788208008 L 269.4045104980469 77.81818389892578" fill-opacity="1" clip-path="url(#rUqJAJlstDSv)"/><path fill="rgb(251,0,7)" stroke="none" paint-order="stroke" d="M 58.5 130.4545440673828 L 401.8973083496094 130.4545440673828 L 401.8973083496094 183.0909080505371 L 58.5 183.0909080505371 L 58.5 130.4545440673828" fill-opacity="1" clip-path="url(#yxGLHUxQPPBW)"/><path fill="rgb(105,29,48)" stroke="none" paint-order="stroke" d="M 272.9688415527344 183.09091186523438 L 273.03274155408144 183.09091186523438 L 273.03274155408144 498.9090881347656 L 272.9688415527344 498.9090881347656 L 272.9688415527344 183.09091186523438" fill-opacity="1" clip-path="url(#pEcEgmltIeDy)"/><path fill="rgb(255,188,66)" stroke="none" paint-order="stroke" d="M 238.64431762695312 183.09091186523438 L 241.84442973136902 183.09091186523438 L 241.84442973136902 498.9090881347656 L 238.64431762695312 498.9090881347656 L 238.64431762695312 183.09091186523438" fill-opacity="1" clip-path="url(#nvStLqFpigGa)"/><path fill="rgb(255,188,66)" stroke="none" paint-order="stroke" d="M 242.35691833496094 183.09091186523438 L 242.68153032660484 183.09091186523438 L 242.68153032660484 498.9090881347656 L 242.35691833496094 498.9090881347656 L 242.35691833496094 183.09091186523438" fill-opacity="1" clip-path="url(#nvStLqFpigGa)"/><path fill="rgb(255,188,66)" stroke="none" paint-order="stroke" d="M 242.68408203125 183.09091186523438 L 242.94990602135658 183.09091186523438 L 242.94990602135658 498.9090881347656 L 242.68408203125 498.9090881347656 L 242.68408203125 183.09091186523438" fill-opacity="1" clip-path="url(#nvStLqFpigGa)"/><path fill="rgb(255,188,66)" stroke="none" paint-order="stroke" d="M 275.302490234375 183.09091186523438 L 280.8387861251831 183.09091186523438 L 280.8387861251831 498.9090881347656 L 275.302490234375 498.9090881347656 L 275.302490234375 183.09091186523438" fill-opacity="1" clip-path="url(#xCVsDTRtNCMz)"/><path fill="rgb(255,188,66)" stroke="none" paint-order="stroke" d="M 282.6241455078125 183.09091186523438 L 285.07151556015015 183.09091186523438 L 285.07151556015015 498.9090881347656 L 282.6241455078125 498.9090881347656 L 282.6241455078125 183.09091186523438" fill-opacity="1" clip-path="url(#xCVsDTRtNCMz)"/><path fill="rgb(255,188,66)" stroke="none" paint-order="stroke" d="M 399.2966003417969 183.09091186523438 L 401.89733028411865 183.09091186523438 L 401.89733028411865 498.9090881347656 L 399.2966003417969 498.9090881347656 L 399.2966003417969 183.09091186523438" fill-opacity="1" clip-path="url(#xCVsDTRtNCMz)"/><path fill="rgb(216,17,89)" stroke="none" paint-order="stroke" d="M 255.8577117919922 183.09091186523438 L 255.92161179333925 183.09091186523438 L 255.92161179333925 498.9090881347656 L 255.8577117919922 498.9090881347656 L 255.8577117919922 183.09091186523438" fill-opacity="1" clip-path="url(#vSNgNkdpnoPV)"/><path fill="rgb(28,49,68)" stroke="none" paint-order="stroke" d="M 134.8860626220703 183.09091186523438 L 135.8368946313858 183.09091186523438 L 135.8368946313858 498.9090881347656 L 134.8860626220703 498.9090881347656 L 134.8860626220703 183.09091186523438" fill-opacity="1" clip-path="url(#UsliXcNXaStH)"/><path fill="rgb(28,49,68)" stroke="none" paint-order="stroke" d="M 247.80630493164062 183.09091186523438 L 249.36674296855927 183.09091186523438 L 249.36674296855927 498.9090881347656 L 247.80630493164062 498.9090881347656 L 247.80630493164062 183.09091186523438" fill-opacity="1" clip-path="url(#UsliXcNXaStH)"/><path fill="rgb(28,49,68)" stroke="none" paint-order="stroke" d="M 251.84095764160156 183.09091186523438 L 252.74578166007996 183.09091186523438 L 252.74578166007996 498.9090881347656 L 251.84095764160156 498.9090881347656 L 251.84095764160156 183.09091186523438" fill-opacity="1" clip-path="url(#UsliXcNXaStH)"/><path fill="rgb(239,185,203)" stroke="none" paint-order="stroke" d="M 83.26763916015625 183.09091186523438 L 118.76025390625 183.09091186523438 L 118.76025390625 498.9090881347656 L 83.26763916015625 498.9090881347656 L 83.26763916015625 183.09091186523438" fill-opacity="1" clip-path="url(#exqGbkLMIpDI)"/><path fill="rgb(239,185,203)" stroke="none" paint-order="stroke" d="M 162.26593017578125 183.09091186523438 L 234.58411407470703 183.09091186523438 L 234.58411407470703 498.9090881347656 L 162.26593017578125 498.9090881347656 L 162.26593017578125 183.09091186523438" fill-opacity="1" clip-path="url(#exqGbkLMIpDI)"/><path fill="rgb(239,185,203)" stroke="none" paint-order="stroke" d="M 287.2965087890625 183.09091186523438 L 393.95072174072266 183.09091186523438 L 393.95072174072266 498.9090881347656 L 287.2965087890625 498.9090881347656 L 287.2965087890625 183.09091186523438" fill-opacity="1" clip-path="url(#exqGbkLMIpDI)"/><path fill="rgb(105,29,48)" stroke="none" paint-order="stroke" d="M 259.0361022949219 183.09091186523438 L 264.21328020095825 183.09091186523438 L 264.21328020095825 498.9090881347656 L 259.0361022949219 498.9090881347656 L 259.0361022949219 183.09091186523438" fill-opacity="1" clip-path="url(#wqTWipzwbvvA)"/><path fill="rgb(255,188,66)" stroke="none" paint-order="stroke" d="M 241.0750732421875 498.9090881347656 L 401.8973083496094 498.9090881347656 L 401.8973083496094 551.5454521179199 L 241.0750732421875 551.5454521179199 L 241.0750732421875 498.9090881347656" fill-opacity="1" clip-path="url(#rZzWclIBpefJ)"/><path fill="rgb(143,45,86)" stroke="none" paint-order="stroke" d="M 58.5 551.5454711914062 L 272.9688415527344 551.5454711914062 L 272.9688415527344 604.1818351745605 L 58.5 604.1818351745605 L 58.5 551.5454711914062" fill-opacity="1" clip-path="url(#rLQWperJtuLV)"/><path fill="rgb(63,136,197)" stroke="none" paint-order="stroke" d="M 272.9688415527344 551.5454711914062 L 275.63347148895264 551.5454711914062 L 275.63347148895264 604.1818351745605 L 272.9688415527344 604.1818351745605 L 272.9688415527344 551.5454711914062" fill-opacity="1" clip-path="url(#rLQWperJtuLV)"/><path fill="rgb(143,45,86)" stroke="none" paint-order="stroke" d="M 275.63348388671875 551.5454711914062 L 276.69805788993835 551.5454711914062 L 276.69805788993835 604.1818351745605 L 275.63348388671875 604.1818351745605 L 275.63348388671875 551.5454711914062" fill-opacity="1" clip-path="url(#rLQWperJtuLV)"/><path fill="rgb(63,136,197)" stroke="none" paint-order="stroke" d="M 276.69805908203125 551.5454711914062 L 277.0392850935459 551.5454711914062 L 277.0392850935459 604.1818351745605 L 276.69805908203125 604.1818351745605 L 276.69805908203125 551.5454711914062" fill-opacity="1" clip-path="url(#rLQWperJtuLV)"/><path fill="rgb(143,45,86)" stroke="none" paint-order="stroke" d="M 277.0392761230469 551.5454711914062 L 277.3792241215706 551.5454711914062 L 277.3792241215706 604.1818351745605 L 277.0392761230469 604.1818351745605 L 277.0392761230469 551.5454711914062" fill-opacity="1" clip-path="url(#rLQWperJtuLV)"/><path fill="rgb(63,136,197)" stroke="none" paint-order="stroke" d="M 277.37921142578125 551.5454711914062 L 401.7937927246094 551.5454711914062 L 401.7937927246094 604.1818351745605 L 277.37921142578125 604.1818351745605 L 277.37921142578125 551.5454711914062" fill-opacity="1" clip-path="url(#rLQWperJtuLV)"/><path fill="rgb(143,45,86)" stroke="none" paint-order="stroke" d="M 401.7937927246094 551.5454711914062 L 401.8781407251954 551.5454711914062 L 401.8781407251954 604.1818351745605 L 401.7937927246094 604.1818351745605 L 401.7937927246094 551.5454711914062" fill-opacity="1" clip-path="url(#rLQWperJtuLV)"/><path fill="rgb(63,136,197)" stroke="none" paint-order="stroke" d="M 401.8781433105469 551.5454711914062 L 401.896035309881 551.5454711914062 L 401.896035309881 604.1818351745605 L 401.8781433105469 604.1818351745605 L 401.8781433105469 551.5454711914062" fill-opacity="1" clip-path="url(#rLQWperJtuLV)"/><path fill="rgb(143,45,86)" stroke="none" paint-order="stroke" d="M 401.89605712890625 551.5454711914062 L 401.8973351288587 551.5454711914062 L 401.8973351288587 604.1818351745605 L 401.89605712890625 604.1818351745605 L 401.89605712890625 551.5454711914062" fill-opacity="1" clip-path="url(#rLQWperJtuLV)"/><path fill="none" stroke="rgb(0,0,0)" paint-order="fill" d="M 58.5 77.81818389892578 L 401.8973083496094 77.81818389892578 L 401.8973083496094 604.1818313598633 L 58.5 604.1818313598633 L 58.5 77.81818389892578" stroke-opacity="1" stroke-linejoin="bevel" stroke-miterlimit="10" stroke-dasharray="" clip-path="url(#fZkKmeUSozzp)"/><path fill="none" stroke="rgb(0,0,0)" paint-order="fill" d="M 58.5 630.5 L 1336.5 630.5" stroke-opacity="1" stroke-linejoin="bevel" stroke-miterlimit="10" stroke-dasharray=""/><path fill="none" stroke="rgb(0,0,0)" paint-order="fill" d="M 58.5 636.5 L 58.5 628.5 M 314.5 636.5 L 314.5 628.5 M 569.5 636.5 L 569.5 628.5 M 825.5 636.5 L 825.5 628.5 M 1080.5 636.5 L 1080.5 628.5 M 1336.5 636.5 L 1336.5 628.5" stroke-opacity="1" stroke-linejoin="bevel" stroke-miterlimit="10" stroke-dasharray=""/><path fill="none" stroke="rgb(0,0,0)" paint-order="fill" d="M 58.5 634.5 L 58.5 630.5 M 109.5 634.5 L 109.5 630.5 M 160.5 634.5 L 160.5 630.5 M 211.5 634.5 L 211.5 630.5 M 262.5 634.5 L 262.5 630.5 M 314.5 634.5 L 314.5 630.5 M 365.5 634.5 L 365.5 630.5 M 416.5 634.5 L 416.5 630.5 M 467.5 634.5 L 467.5 630.5 M 518.5 634.5 L 518.5 630.5 M 569.5 634.5 L 569.5 630.5 M 620.5 634.5 L 620.5 630.5 M 671.5 634.5 L 671.5 630.5 M 723.5 634.5 L 723.5 630.5 M 774.5 634.5 L 774.5 630.5 M 825.5 634.5 L 825.5 630.5 M 876.5 634.5 L 876.5 630.5 M 927.5 634.5 L 927.5 630.5 M 978.5 634.5 L 978.5 630.5 M 1029.5 634.5 L 1029.5 630.5 M 1080.5 634.5 L 1080.5 630.5 M 1132.5 634.5 L 1132.5 630.5 M 1183.5 634.5 L 1183.5 630.5 M 1234.5 634.5 L 1234.5 630.5 M 1285.5 634.5 L 1285.5 630.5 M 1336.5 634.5 L 1336.5 630.5" stroke-opacity="1" stroke-linejoin="bevel" stroke-miterlimit="10" stroke-dasharray=""/><text fill="rgb(68,68,68)" stroke="none" font-family="helvetica" font-size="11px" font-style="normal" font-weight="normal" text-decoration="normal" x="54.94166660308838" y="648.89013671875" text-anchor="start" dominant-baseline="alphabetic" transform="matrix(1, 0, 0, 1, 0.5, 0.5)" fill-opacity="1">0</text><text fill="rgb(68,68,68)" stroke="none" font-family="helvetica" font-size="11px" font-style="normal" font-weight="normal" text-decoration="normal" x="304.42500591278076" y="648.89013671875" text-anchor="start" dominant-baseline="alphabetic" transform="matrix(1, 0, 0, 1, 0.5, 0.5)" fill-opacity="1">200</text><text fill="rgb(68,68,68)" stroke="none" font-family="helvetica" font-size="11px" font-style="normal" font-weight="normal" text-decoration="normal" x="560.0250120162964" y="648.89013671875" text-anchor="start" dominant-baseline="alphabetic" transform="matrix(1, 0, 0, 1, 0.5, 0.5)" fill-opacity="1">400</text><text fill="rgb(68,68,68)" stroke="none" font-family="helvetica" font-size="11px" font-style="normal" font-weight="normal" text-decoration="normal" x="815.6249876022339" y="648.89013671875" text-anchor="start" dominant-baseline="alphabetic" transform="matrix(1, 0, 0, 1, 0.5, 0.5)" fill-opacity="1">600</text><text fill="rgb(68,68,68)" stroke="none" font-family="helvetica" font-size="11px" font-style="normal" font-weight="normal" text-decoration="normal" x="1071.2250242233276" y="648.89013671875" text-anchor="start" dominant-baseline="alphabetic" transform="matrix(1, 0, 0, 1, 0.5, 0.5)" fill-opacity="1">800</text><text fill="rgb(68,68,68)" stroke="none" font-family="helvetica" font-size="11px" font-style="normal" font-weight="normal" text-decoration="normal" x="1323.7666664123535" y="648.89013671875" text-anchor="start" dominant-baseline="alphabetic" transform="matrix(1, 0, 0, 1, 0.5, 0.5)" fill-opacity="1">1000</text><text fill="rgb(68,68,68)" stroke="none" font-family="helvetica" font-size="15pt" font-style="italic" font-weight="normal" text-decoration="normal" x="666.4416675567627" y="676.06982421875" text-anchor="start" dominant-baseline="alphabetic" transform="matrix(1, 0, 0, 1, 0.5, 0.5)" fill-opacity="1">time(s)</text><path fill="none" stroke="rgb(0,0,0)" paint-order="fill" d="M 58.5 630.5 L 58.5 51.5" stroke-opacity="1" stroke-linejoin="bevel" stroke-miterlimit="10" stroke-dasharray=""/><path fill="none" stroke="rgb(0,0,0)" paint-order="fill" d="M 52.5 551.5 L 60.5 551.5 M 52.5 446.5 L 60.5 446.5 M 52.5 341.5 L 60.5 341.5 M 52.5 235.5 L 60.5 235.5 M 52.5 130.5 L 60.5 130.5" stroke-opacity="1" stroke-linejoin="bevel" stroke-miterlimit="10" stroke-dasharray=""/><path fill="none" stroke="rgb(0,0,0)" paint-order="fill" d="M 54.5 572.5 L 58.5 572.5 M 54.5 593.5 L 58.5 593.5 M 54.5 614.5 L 58.5 614.5 M 54.5 551.5 L 58.5 551.5 M 54.5 530.5 L 58.5 530.5 M 54.5 509.5 L 58.5 509.5 M 54.5 488.5 L 58.5 488.5 M 54.5 467.5 L 58.5 467.5 M 54.5 446.5 L 58.5 446.5 M 54.5 425.5 L 58.5 425.5 M 54.5 404.5 L 58.5 404.5 M 54.5 383.5 L 58.5 383.5 M 54.5 362.5 L 58.5 362.5 M 54.5 341.5 L 58.5 341.5 M 54.5 319.5 L 58.5 319.5 M 54.5 298.5 L 58.5 298.5 M 54.5 277.5 L 58.5 277.5 M 54.5 256.5 L 58.5 256.5 M 54.5 235.5 L 58.5 235.5 M 54.5 214.5 L 58.5 214.5 M 54.5 193.5 L 58.5 193.5 M 54.5 172.5 L 58.5 172.5 M 54.5 151.5 L 58.5 151.5 M 54.5 130.5 L 58.5 130.5 M 54.5 109.5 L 58.5 109.5 M 54.5 88.5 L 58.5 88.5 M 54.5 67.5 L 58.5 67.5" stroke-opacity="1" stroke-linejoin="bevel" stroke-miterlimit="10" stroke-dasharray=""/><text fill="rgb(68,68,68)" stroke="none" font-family="helvetica" font-size="11px" font-style="normal" font-weight="normal" text-decoration="normal" x="34.46666622161865" y="554.9905395507812" text-anchor="start" dominant-baseline="alphabetic" transform="matrix(1, 0, 0, 1, 0.5, 0.5)" fill-opacity="1">−2</text><text fill="rgb(68,68,68)" stroke="none" font-family="helvetica" font-size="11px" font-style="normal" font-weight="normal" text-decoration="normal" x="34.46666622161865" y="449.7178039550781" text-anchor="start" dominant-baseline="alphabetic" transform="matrix(1, 0, 0, 1, 0.5, 0.5)" fill-opacity="1">−1</text><text fill="rgb(68,68,68)" stroke="none" font-family="helvetica" font-size="11px" font-style="normal" font-weight="normal" text-decoration="normal" x="40.88333320617676" y="344.445068359375" text-anchor="start" dominant-baseline="alphabetic" transform="matrix(1, 0, 0, 1, 0.5, 0.5)" fill-opacity="1">0</text><text fill="rgb(68,68,68)" stroke="none" font-family="helvetica" font-size="11px" font-style="normal" font-weight="normal" text-decoration="normal" x="40.88333320617676" y="239.17234802246094" text-anchor="start" dominant-baseline="alphabetic" transform="matrix(1, 0, 0, 1, 0.5, 0.5)" fill-opacity="1">1</text><text fill="rgb(68,68,68)" stroke="none" font-family="helvetica" font-size="11px" font-style="normal" font-weight="normal" text-decoration="normal" x="40.88333320617676" y="133.8996124267578" text-anchor="start" dominant-baseline="alphabetic" transform="matrix(1, 0, 0, 1, 0.5, 0.5)" fill-opacity="1">2</text><text fill="rgb(68,68,68)" stroke="none" font-family="helvetica" font-size="15pt" font-style="italic" font-weight="normal" text-decoration="normal" x="-11.316666603088379" y="336.076171875" text-anchor="start" dominant-baseline="alphabetic" transform="matrix(6.123233995736766e-17, -1, 1, 6.123233995736766e-17, -313.53333377838135, 367.46666622161865)" fill-opacity="1">students</text><path fill="rgb(255,255,255)" stroke="rgb(229,229,229)" paint-order="fill" d="M 1128.2333374023438 61.5 L 1326.5 61.5 L 1326.5 400.5 L 1128.2333374023438 400.5 L 1128.2333374023438 61.5" fill-opacity="0.9490196078431372" clip-path="url(#DmVKbXGmKIbZ)" stroke-opacity="0.5019607843137255" stroke-linejoin="bevel" stroke-miterlimit="10" stroke-dasharray=""/><text fill="rgb(68,68,68)" stroke="none" font-family="helvetica" font-size="13px" font-style="normal" font-weight="normal" text-decoration="normal" x="1162.7333374023438" y="81" text-anchor="start" dominant-baseline="central" clip-path="url(#DmVKbXGmKIbZ)" transform="matrix(1, 0, 0, 1, 0.5, 0.5)" fill-opacity="1">wavelength</text><path fill="rgb(0,255,40)" stroke="none" paint-order="stroke" d="M 1140.2333374023438 73.5 L 1156.2333374023438 73.5 L 1156.2333374023438 89.5 L 1140.2333374023438 89.5 L 1140.2333374023438 73.5" fill-opacity="1" clip-path="url(#DmVKbXGmKIbZ)"/><path fill="rgb(216,17,89)" stroke="none" paint-order="stroke" d="M 1140.2333374023438 73.5 L 1156.2333374023438 73.5 L 1156.2333374023438 89.5 L 1140.2333374023438 89.5 L 1140.2333374023438 73.5" fill-opacity="1" clip-path="url(#DmVKbXGmKIbZ)"/><text fill="rgb(68,68,68)" stroke="none" font-family="helvetica" font-size="13px" font-style="normal" font-weight="normal" text-decoration="normal" x="1162.7333374023438" y="104" text-anchor="start" dominant-baseline="central" clip-path="url(#DmVKbXGmKIbZ)" transform="matrix(1, 0, 0, 1, 0.5, 0.5)" fill-opacity="1">solution</text><path fill="rgb(251,0,7)" stroke="none" paint-order="stroke" d="M 1140.2333374023438 96.5 L 1156.2333374023438 96.5 L 1156.2333374023438 112.5 L 1140.2333374023438 112.5 L 1140.2333374023438 96.5" fill-opacity="1" clip-path="url(#DmVKbXGmKIbZ)"/><text fill="rgb(68,68,68)" stroke="none" font-family="helvetica" font-size="13px" font-style="normal" font-weight="normal" text-decoration="normal" x="1162.7333374023438" y="127" text-anchor="start" dominant-baseline="central" clip-path="url(#DmVKbXGmKIbZ)" transform="matrix(1, 0, 0, 1, 0.5, 0.5)" fill-opacity="1">laser</text><path fill="rgb(105,29,48)" stroke="none" paint-order="stroke" d="M 1140.2333374023438 119.5 L 1156.2333374023438 119.5 L 1156.2333374023438 135.5 L 1140.2333374023438 135.5 L 1140.2333374023438 119.5" fill-opacity="1" clip-path="url(#DmVKbXGmKIbZ)"/><text fill="rgb(68,68,68)" stroke="none" font-family="helvetica" font-size="13px" font-style="normal" font-weight="normal" text-decoration="normal" x="1162.7333374023438" y="150" text-anchor="start" dominant-baseline="central" clip-path="url(#DmVKbXGmKIbZ)" transform="matrix(1, 0, 0, 1, 0.5, 0.5)" fill-opacity="1">ruler</text><path fill="rgb(255,188,66)" stroke="none" paint-order="stroke" d="M 1140.2333374023438 142.5 L 1156.2333374023438 142.5 L 1156.2333374023438 158.5 L 1140.2333374023438 158.5 L 1140.2333374023438 142.5" fill-opacity="1" clip-path="url(#DmVKbXGmKIbZ)"/><text fill="rgb(68,68,68)" stroke="none" font-family="helvetica" font-size="13px" font-style="normal" font-weight="normal" text-decoration="normal" x="1162.7333374023438" y="173" text-anchor="start" dominant-baseline="central" clip-path="url(#DmVKbXGmKIbZ)" transform="matrix(1, 0, 0, 1, 0.5, 0.5)" fill-opacity="1">restarts</text><text fill="rgb(68,68,68)" stroke="none" font-family="helvetica" font-size="13px" font-style="normal" font-weight="normal" text-decoration="normal" x="1162.7333374023438" y="196" text-anchor="start" dominant-baseline="central" clip-path="url(#DmVKbXGmKIbZ)" transform="matrix(1, 0, 0, 1, 0.5, 0.5)" fill-opacity="1">transmittance_absorbance</text><text fill="rgb(68,68,68)" stroke="none" font-family="helvetica" font-size="13px" font-style="normal" font-weight="normal" text-decoration="normal" x="1162.7333374023438" y="219" text-anchor="start" dominant-baseline="central" clip-path="url(#DmVKbXGmKIbZ)" transform="matrix(1, 0, 0, 1, 0.5, 0.5)" fill-opacity="1">magnifier</text><path fill="rgb(255,188,66)" stroke="none" paint-order="stroke" d="M 1140.2333374023438 211.5 L 1156.2333374023438 211.5 L 1156.2333374023438 227.5 L 1140.2333374023438 227.5 L 1140.2333374023438 211.5" fill-opacity="1" clip-path="url(#DmVKbXGmKIbZ)"/><text fill="rgb(68,68,68)" stroke="none" font-family="helvetica" font-size="13px" font-style="normal" font-weight="normal" text-decoration="normal" x="1162.7333374023438" y="242" text-anchor="start" dominant-baseline="central" clip-path="url(#DmVKbXGmKIbZ)" transform="matrix(1, 0, 0, 1, 0.5, 0.5)" fill-opacity="1">concentration</text><text fill="rgb(68,68,68)" stroke="none" font-family="helvetica" font-size="13px" font-style="normal" font-weight="normal" text-decoration="normal" x="1162.7333374023438" y="265" text-anchor="start" dominant-baseline="central" clip-path="url(#DmVKbXGmKIbZ)" transform="matrix(1, 0, 0, 1, 0.5, 0.5)" fill-opacity="1">flask</text><path fill="rgb(28,49,68)" stroke="none" paint-order="stroke" d="M 1140.2333374023438 257.5 L 1156.2333374023438 257.5 L 1156.2333374023438 273.5 L 1140.2333374023438 273.5 L 1140.2333374023438 257.5" fill-opacity="1" clip-path="url(#DmVKbXGmKIbZ)"/><text fill="rgb(68,68,68)" stroke="none" font-family="helvetica" font-size="13px" font-style="normal" font-weight="normal" text-decoration="normal" x="1162.7333374023438" y="288" text-anchor="start" dominant-baseline="central" clip-path="url(#DmVKbXGmKIbZ)" transform="matrix(1, 0, 0, 1, 0.5, 0.5)" fill-opacity="1">pdf</text><path fill="rgb(239,185,203)" stroke="none" paint-order="stroke" d="M 1140.2333374023438 280.5 L 1156.2333374023438 280.5 L 1156.2333374023438 296.5 L 1140.2333374023438 296.5 L 1140.2333374023438 280.5" fill-opacity="1" clip-path="url(#DmVKbXGmKIbZ)"/><text fill="rgb(68,68,68)" stroke="none" font-family="helvetica" font-size="13px" font-style="normal" font-weight="normal" text-decoration="normal" x="1162.7333374023438" y="311" text-anchor="start" dominant-baseline="central" clip-path="url(#DmVKbXGmKIbZ)" transform="matrix(1, 0, 0, 1, 0.5, 0.5)" fill-opacity="1">concentrationlab</text><text fill="rgb(68,68,68)" stroke="none" font-family="helvetica" font-size="13px" font-style="normal" font-weight="normal" text-decoration="normal" x="1162.7333374023438" y="334" text-anchor="start" dominant-baseline="central" clip-path="url(#DmVKbXGmKIbZ)" transform="matrix(1, 0, 0, 1, 0.5, 0.5)" fill-opacity="1">wavelength_slider</text><path fill="rgb(105,29,48)" stroke="none" paint-order="stroke" d="M 1140.2333374023438 326.5 L 1156.2333374023438 326.5 L 1156.2333374023438 342.5 L 1140.2333374023438 342.5 L 1140.2333374023438 326.5" fill-opacity="1" clip-path="url(#DmVKbXGmKIbZ)"/><text fill="rgb(68,68,68)" stroke="none" font-family="helvetica" font-size="13px" font-style="normal" font-weight="normal" text-decoration="normal" x="1162.7333374023438" y="357" text-anchor="start" dominant-baseline="central" clip-path="url(#DmVKbXGmKIbZ)" transform="matrix(1, 0, 0, 1, 0.5, 0.5)" fill-opacity="1">ruler measuring</text><path fill="rgb(255,188,66)" stroke="none" paint-order="stroke" d="M 1140.2333374023438 349.5 L 1156.2333374023438 349.5 L 1156.2333374023438 365.5 L 1140.2333374023438 365.5 L 1140.2333374023438 349.5" fill-opacity="1" clip-path="url(#DmVKbXGmKIbZ)"/><text fill="rgb(68,68,68)" stroke="none" font-family="helvetica" font-size="13px" font-style="normal" font-weight="normal" text-decoration="normal" x="1162.7333374023438" y="380" text-anchor="start" dominant-baseline="central" clip-path="url(#DmVKbXGmKIbZ)" transform="matrix(1, 0, 0, 1, 0.5, 0.5)" fill-opacity="1">dependent variable</text><path fill="rgb(143,45,86)" stroke="none" paint-order="stroke" d="M 1140.2333374023438 372.5 L 1156.2333374023438 372.5 L 1156.2333374023438 388.5 L 1140.2333374023438 388.5 L 1140.2333374023438 372.5" fill-opacity="1" clip-path="url(#DmVKbXGmKIbZ)"/><text fill="rgb(68,68,68)" stroke="none" font-family="helvetica" font-size="25pt" font-style="normal" font-weight="bold" text-decoration="normal" x="58" y="38.740885416666664" text-anchor="start" dominant-baseline="alphabetic" transform="matrix(1, 0, 0, 1, 0.5, 0.5)" fill-opacity="1">Timeline for student qkeyp2rg with permutation 0312 for task 2</text></svg>