<svg version="1.1" xmlns="http://www.w3.org/2000/svg" width="1366" height="683"><defs><clipPath id="AXoetwbTXdzb"><path fill="none" stroke="none" d="M 58.5 51.5 L 1336.5 51.5 L 1336.5 630.5 L 58.5 630.5 L 58.5 51.5"/></clipPath><clipPath id="XMlWhBUfyQPT"><path fill="none" stroke="none" d="M 58.5 51.5 L 1336.5 51.5 L 1336.5 630.5 L 58.5 630.5 L 58.5 51.5"/></clipPath><clipPath id="maKfsuTagTVR"><path fill="none" stroke="none" d="M 58.5 51.5 L 1336.5 51.5 L 1336.5 630.5 L 58.5 630.5 L 58.5 51.5"/></clipPath><clipPath id="NMgMZBnWCevu"><path fill="none" stroke="none" d="M 58.5 51.5 L 1336.5 51.5 L 1336.5 630.5 L 58.5 630.5 L 58.5 51.5"/></clipPath><clipPath id="ZNgoFbDpwtED"><path fill="none" stroke="none" d="M 58.5 51.5 L 1336.5 51.5 L 1336.5 630.5 L 58.5 630.5 L 58.5 51.5"/></clipPath><clipPath id="TTROxkUXopLX"><path fill="none" stroke="none" d="M 58.5 51.5 L 1336.5 51.5 L 1336.5 630.5 L 58.5 630.5 L 58.5 51.5"/></clipPath><clipPath id="KtJkSZcazqZf"><path fill="none" stroke="none" d="M 58.5 51.5 L 1336.5 51.5 L 1336.5 630.5 L 58.5 630.5 L 58.5 51.5"/></clipPath><clipPath id="yLtFMvLOXpzd"><path fill="none" stroke="none" d="M 58.5 51.5 L 1336.5 51.5 L 1336.5 630.5 L 58.5 630.5 L 58.5 51.5"/></clipPath><clipPath id="gdiuTEqFykVf"><path fill="none" stroke="none" d="M 58.5 51.5 L 1336.5 51.5 L 1336.5 630.5 L 58.5 630.5 L 58.5 51.5"/></clipPath><clipPath id="NvyweekXCHDt"><path fill="none" stroke="none" d="M 58.5 51.5 L 1336.5 51.5 L 1336.5 630.5 L 58.5 630.5 L 58.5 51.5"/></clipPath><clipPath id="ufeyJCkyhZIe"><path fill="none" stroke="none" d="M 58.5 51.5 L 1336.5 51.5 L 1336.5 630.5 L 58.5 630.5 L 58.5 51.5"/></clipPath><clipPath id="VVAokfptQtJh"><path fill="none" stroke="none" d="M 58.5 51.5 L 1336.5 51.5 L 1336.5 630.5 L 58.5 630.5 L 58.5 51.5"/></clipPath><clipPath id="cnqqzayZWzor"><path fill="none" stroke="none" d="M 58.5 51.5 L 1336.5 51.5 L 1336.5 630.5 L 58.5 630.5 L 58.5 51.5"/></clipPath><clipPath id="DGTdOrXfIXQI"><path fill="none" stroke="none" d="M 58.5 51.5 L 1336.5 51.5 L 1336.5 630.5 L 58.5 630.5 L 58.5 51.5"/></clipPath><clipPath id="XJttCiOZwawk"><path fill="none" stroke="none" d="M 58.5 51.5 L 1336.5 51.5 L 1336.5 630.5 L 58.5 630.5 L 58.5 51.5"/></clipPath><clipPath id="mqIlopcJsnUp"><path fill="none" stroke="none" d="M 58.5 51.5 L 1336.5 51.5 L 1336.5 630.5 L 58.5 630.5 L 58.5 51.5"/></clipPath><clipPath id="oIpDtGTeZgTQ"><path fill="none" stroke="none" d="M 58.5 51.5 L 1336.5 51.5 L 1336.5 630.5 L 58.5 630.5 L 58.5 51.5"/></clipPath><clipPath id="qiNLfzPtxOKL"><path fill="none" stroke="none" d="M 58.5 51.5 L 1336.5 51.5 L 1336.5 630.5 L 58.5 630.5 L 58.5 51.5"/></clipPath><clipPath id="PTiOgRKyPprx"><path fill="none" stroke="none" d="M 58.5 51.5 L 1336.5 51.5 L 1336.5 630.5 L 58.5 630.5 L 58.5 51.5"/></clipPath><clipPath id="oiRBAFToMZXG"><path fill="none" stroke="none" d="M 58.5 51.5 L 1336.5 51.5 L 1336.5 630.5 L 58.5 630.5 L 58.5 51.5"/></clipPath><clipPath id="XGdAenQDJGFx"><path fill="none" stroke="none" d="M 58.5 51.5 L 1336.5 51.5 L 1336.5 630.5 L 58.5 630.5 L 58.5 51.5"/></clipPath></defs><path fill="rgb(255,255,255)" stroke="none" paint-order="stroke" d="M 0.5 0.5 L 1366.5 0.5 L 1366.5 683.5 L 0.5 683.5 L 0.5 0.5" fill-opacity="1"/><rect fill="#FFFFFF" stroke="none" x="58" y="51" width="1278" height="579" transform="matrix(1, 0, 0, 1, 0.5, 0.5)"/><path fill="rgb(255,255,255)" stroke="none" paint-order="stroke" d="M 58.5 51.5 L 1336.5 51.5 L 1336.5 630.5 L 58.5 630.5 L 58.5 51.5" fill-opacity="1"/><path fill="none" stroke="rgb(229,229,229)" paint-order="fill" d="M 58.5 51.5 L 1336.5 51.5 L 1336.5 630.5 L 58.5 630.5 L 58.5 51.5" stroke-opacity="1" stroke-linejoin="bevel" stroke-miterlimit="10" stroke-dasharray=""/><path fill="none" stroke="rgb(229,229,229)" paint-order="fill" d="M 314.5 630.5 L 314.5 51.5 M 569.5 630.5 L 569.5 51.5 M 825.5 630.5 L 825.5 51.5 M 1080.5 630.5 L 1080.5 51.5" stroke-opacity="1" stroke-linejoin="bevel" stroke-miterlimit="10" stroke-dasharray="" clip-path="url(#AXoetwbTXdzb)"/><path fill="none" stroke="rgb(229,229,229)" paint-order="fill" d="M 58.5 551.5 L 1336.5 551.5 M 58.5 446.5 L 1336.5 446.5 M 58.5 341.5 L 1336.5 341.5 M 58.5 235.5 L 1336.5 235.5 M 58.5 130.5 L 1336.5 130.5" stroke-opacity="1" stroke-linejoin="bevel" stroke-miterlimit="10" stroke-dasharray="" clip-path="url(#XMlWhBUfyQPT)"/><path fill="rgb(0,255,40)" stroke="none" paint-order="stroke" d="M 58.5 77.81818389892578 L 107.12150955200195 77.81818389892578 L 107.12150955200195 130.45454788208008 L 58.5 130.45454788208008 L 58.5 77.81818389892578" fill-opacity="1" clip-path="url(#maKfsuTagTVR)"/><path fill="rgb(42,0,238)" stroke="none" paint-order="stroke" d="M 107.12151336669922 77.81818389892578 L 149.02968978881836 77.81818389892578 L 149.02968978881836 130.45454788208008 L 107.12151336669922 130.45454788208008 L 107.12151336669922 77.81818389892578" fill-opacity="1" clip-path="url(#maKfsuTagTVR)"/><path fill="rgb(110,0,132)" stroke="none" paint-order="stroke" d="M 149.02969360351562 77.81818389892578 L 236.67876434326172 77.81818389892578 L 236.67876434326172 130.45454788208008 L 149.02969360351562 130.45454788208008 L 149.02969360351562 77.81818389892578" fill-opacity="1" clip-path="url(#maKfsuTagTVR)"/><path fill="rgb(0,255,40)" stroke="none" paint-order="stroke" d="M 236.6787567138672 77.81818389892578 L 258.91979026794434 77.81818389892578 L 258.91979026794434 130.45454788208008 L 236.6787567138672 130.45454788208008 L 236.6787567138672 77.81818389892578" fill-opacity="1" clip-path="url(#maKfsuTagTVR)"/><path fill="rgb(251,0,7)" stroke="none" paint-order="stroke" d="M 58.5 130.4545440673828 L 107.12150955200195 130.4545440673828 L 107.12150955200195 183.0909080505371 L 58.5 183.0909080505371 L 58.5 130.4545440673828" fill-opacity="1" clip-path="url(#NMgMZBnWCevu)"/><path fill="rgb(56,126,34)" stroke="none" paint-order="stroke" d="M 107.12151336669922 130.4545440673828 L 149.02968978881836 130.4545440673828 L 149.02968978881836 183.0909080505371 L 107.12151336669922 183.0909080505371 L 107.12151336669922 130.4545440673828" fill-opacity="1" clip-path="url(#NMgMZBnWCevu)"/><path fill="rgb(252,105,8)" stroke="none" paint-order="stroke" d="M 149.02969360351562 130.4545440673828 L 236.67876434326172 130.4545440673828 L 236.67876434326172 183.0909080505371 L 149.02969360351562 183.0909080505371 L 149.02969360351562 130.4545440673828" fill-opacity="1" clip-path="url(#NMgMZBnWCevu)"/><path fill="rgb(251,0,7)" stroke="none" paint-order="stroke" d="M 236.6787567138672 130.4545440673828 L 258.91979026794434 130.4545440673828 L 258.91979026794434 183.0909080505371 L 236.6787567138672 183.0909080505371 L 236.6787567138672 130.4545440673828" fill-opacity="1" clip-path="url(#NMgMZBnWCevu)"/><path fill="rgb(105,29,48)" stroke="none" paint-order="stroke" d="M 94.25077056884766 183.09091186523438 L 94.31467057019472 183.09091186523438 L 94.31467057019472 498.9090881347656 L 94.25077056884766 498.9090881347656 L 94.25077056884766 183.09091186523438" fill-opacity="1" clip-path="url(#ZNgoFbDpwtED)"/><path fill="rgb(105,29,48)" stroke="none" paint-order="stroke" d="M 236.6787567138672 183.09091186523438 L 236.74265671521425 183.09091186523438 L 236.74265671521425 498.9090881347656 L 236.6787567138672 498.9090881347656 L 236.6787567138672 183.09091186523438" fill-opacity="1" clip-path="url(#ZNgoFbDpwtED)"/><path fill="rgb(255,188,66)" stroke="none" paint-order="stroke" d="M 130.4641876220703 183.09091186523438 L 131.5990515947342 183.09091186523438 L 131.5990515947342 498.9090881347656 L 130.4641876220703 498.9090881347656 L 130.4641876220703 183.09091186523438" fill-opacity="1" clip-path="url(#TTROxkUXopLX)"/><path fill="rgb(255,188,66)" stroke="none" paint-order="stroke" d="M 132.10130310058594 183.09091186523438 L 135.9838671684265 183.09091186523438 L 135.9838671684265 498.9090881347656 L 132.10130310058594 498.9090881347656 L 132.10130310058594 183.09091186523438" fill-opacity="1" clip-path="url(#TTROxkUXopLX)"/><path fill="rgb(162,174,187)" stroke="none" paint-order="stroke" d="M 236.6787567138672 183.09091186523438 L 236.74265671521425 183.09091186523438 L 236.74265671521425 498.9090881347656 L 236.6787567138672 498.9090881347656 L 236.6787567138672 183.09091186523438" fill-opacity="1" clip-path="url(#KtJkSZcazqZf)"/><path fill="rgb(162,174,187)" stroke="none" paint-order="stroke" d="M 89.52600860595703 183.09091186523438 L 89.5899086073041 183.09091186523438 L 89.5899086073041 498.9090881347656 L 89.52600860595703 498.9090881347656 L 89.52600860595703 183.09091186523438" fill-opacity="1" clip-path="url(#yLtFMvLOXpzd)"/><path fill="rgb(162,174,187)" stroke="none" paint-order="stroke" d="M 92.8590316772461 183.09091186523438 L 92.92293167859316 183.09091186523438 L 92.92293167859316 498.9090881347656 L 92.8590316772461 498.9090881347656 L 92.8590316772461 183.09091186523438" fill-opacity="1" clip-path="url(#yLtFMvLOXpzd)"/><path fill="rgb(162,174,187)" stroke="none" paint-order="stroke" d="M 110.57722473144531 183.09091186523438 L 110.64112473279238 183.09091186523438 L 110.64112473279238 498.9090881347656 L 110.57722473144531 498.9090881347656 L 110.57722473144531 183.09091186523438" fill-opacity="1" clip-path="url(#yLtFMvLOXpzd)"/><path fill="rgb(162,174,187)" stroke="none" paint-order="stroke" d="M 111.69163513183594 183.09091186523438 L 111.755535133183 183.09091186523438 L 111.755535133183 498.9090881347656 L 111.69163513183594 498.9090881347656 L 111.69163513183594 183.09091186523438" fill-opacity="1" clip-path="url(#yLtFMvLOXpzd)"/><path fill="rgb(162,174,187)" stroke="none" paint-order="stroke" d="M 112.42776489257812 183.09091186523438 L 112.49166489392519 183.09091186523438 L 112.49166489392519 498.9090881347656 L 112.42776489257812 498.9090881347656 L 112.42776489257812 183.09091186523438" fill-opacity="1" clip-path="url(#yLtFMvLOXpzd)"/><path fill="rgb(162,174,187)" stroke="none" paint-order="stroke" d="M 236.6787567138672 183.09091186523438 L 236.74265671521425 183.09091186523438 L 236.74265671521425 498.9090881347656 L 236.6787567138672 498.9090881347656 L 236.6787567138672 183.09091186523438" fill-opacity="1" clip-path="url(#yLtFMvLOXpzd)"/><path fill="rgb(255,188,66)" stroke="none" paint-order="stroke" d="M 84.28492736816406 183.09091186523438 L 84.40505936741829 183.09091186523438 L 84.40505936741829 498.9090881347656 L 84.28492736816406 498.9090881347656 L 84.28492736816406 183.09091186523438" fill-opacity="1" clip-path="url(#gdiuTEqFykVf)"/><path fill="rgb(255,188,66)" stroke="none" paint-order="stroke" d="M 85.13224029541016 183.09091186523438 L 88.01285219192505 183.09091186523438 L 88.01285219192505 498.9090881347656 L 85.13224029541016 498.9090881347656 L 85.13224029541016 183.09091186523438" fill-opacity="1" clip-path="url(#gdiuTEqFykVf)"/><path fill="rgb(255,188,66)" stroke="none" paint-order="stroke" d="M 88.25950622558594 183.09091186523438 L 88.8946722149849 183.09091186523438 L 88.8946722149849 498.9090881347656 L 88.25950622558594 498.9090881347656 L 88.25950622558594 183.09091186523438" fill-opacity="1" clip-path="url(#gdiuTEqFykVf)"/><path fill="rgb(255,188,66)" stroke="none" paint-order="stroke" d="M 89.97969818115234 183.09091186523438 L 91.99127006530762 183.09091186523438 L 91.99127006530762 498.9090881347656 L 89.97969818115234 498.9090881347656 L 89.97969818115234 183.09091186523438" fill-opacity="1" clip-path="url(#gdiuTEqFykVf)"/><path fill="rgb(255,188,66)" stroke="none" paint-order="stroke" d="M 95.44825744628906 183.09091186523438 L 104.2408971786499 183.09091186523438 L 104.2408971786499 498.9090881347656 L 95.44825744628906 498.9090881347656 L 95.44825744628906 183.09091186523438" fill-opacity="1" clip-path="url(#gdiuTEqFykVf)"/><path fill="rgb(255,188,66)" stroke="none" paint-order="stroke" d="M 108.65766906738281 183.09091186523438 L 109.61616909503937 183.09091186523438 L 109.61616909503937 498.9090881347656 L 108.65766906738281 498.9090881347656 L 108.65766906738281 183.09091186523438" fill-opacity="1" clip-path="url(#gdiuTEqFykVf)"/><path fill="rgb(255,188,66)" stroke="none" paint-order="stroke" d="M 113.1344985961914 183.09091186523438 L 118.22605037689209 183.09091186523438 L 118.22605037689209 498.9090881347656 L 113.1344985961914 498.9090881347656 L 113.1344985961914 183.09091186523438" fill-opacity="1" clip-path="url(#gdiuTEqFykVf)"/><path fill="rgb(216,17,89)" stroke="none" paint-order="stroke" d="M 80.21321868896484 183.09091186523438 L 80.27711869031191 183.09091186523438 L 80.27711869031191 498.9090881347656 L 80.21321868896484 498.9090881347656 L 80.21321868896484 183.09091186523438" fill-opacity="1" clip-path="url(#NvyweekXCHDt)"/><path fill="rgb(216,17,89)" stroke="none" paint-order="stroke" d="M 80.21321868896484 183.09091186523438 L 80.27711869031191 183.09091186523438 L 80.27711869031191 498.9090881347656 L 80.21321868896484 498.9090881347656 L 80.21321868896484 183.09091186523438" fill-opacity="1" clip-path="url(#NvyweekXCHDt)"/><path fill="rgb(216,17,89)" stroke="none" paint-order="stroke" d="M 81.4822769165039 183.09091186523438 L 81.54617691785097 183.09091186523438 L 81.54617691785097 498.9090881347656 L 81.4822769165039 498.9090881347656 L 81.4822769165039 183.09091186523438" fill-opacity="1" clip-path="url(#NvyweekXCHDt)"/><path fill="rgb(216,17,89)" stroke="none" paint-order="stroke" d="M 233.0709686279297 183.09091186523438 L 233.13486862927675 183.09091186523438 L 233.13486862927675 498.9090881347656 L 233.0709686279297 498.9090881347656 L 233.0709686279297 183.09091186523438" fill-opacity="1" clip-path="url(#NvyweekXCHDt)"/><path fill="rgb(216,17,89)" stroke="none" paint-order="stroke" d="M 236.6787567138672 183.09091186523438 L 236.74265671521425 183.09091186523438 L 236.74265671521425 498.9090881347656 L 236.6787567138672 498.9090881347656 L 236.6787567138672 183.09091186523438" fill-opacity="1" clip-path="url(#NvyweekXCHDt)"/><path fill="rgb(33,131,128)" stroke="none" paint-order="stroke" d="M 105.17000579833984 183.09091186523438 L 107.12151181697845 183.09091186523438 L 107.12151181697845 498.9090881347656 L 105.17000579833984 498.9090881347656 L 105.17000579833984 183.09091186523438" fill-opacity="1" clip-path="url(#ufeyJCkyhZIe)"/><path fill="rgb(33,131,128)" stroke="none" paint-order="stroke" d="M 147.8654327392578 183.09091186523438 L 149.02969074249268 183.09091186523438 L 149.02969074249268 498.9090881347656 L 147.8654327392578 498.9090881347656 L 147.8654327392578 183.09091186523438" fill-opacity="1" clip-path="url(#ufeyJCkyhZIe)"/><path fill="rgb(33,131,128)" stroke="none" paint-order="stroke" d="M 236.6787567138672 183.09091186523438 L 236.74265671521425 183.09091186523438 L 236.74265671521425 498.9090881347656 L 236.6787567138672 498.9090881347656 L 236.6787567138672 183.09091186523438" fill-opacity="1" clip-path="url(#ufeyJCkyhZIe)"/><path fill="rgb(115,210,222)" stroke="none" paint-order="stroke" d="M 119.14749145507812 183.09091186523438 L 129.0430450439453 183.09091186523438 L 129.0430450439453 498.9090881347656 L 119.14749145507812 498.9090881347656 L 119.14749145507812 183.09091186523438" fill-opacity="1" clip-path="url(#VVAokfptQtJh)"/><path fill="rgb(115,210,222)" stroke="none" paint-order="stroke" d="M 212.614013671875 183.09091186523438 L 213.35014164447784 183.09091186523438 L 213.35014164447784 498.9090881347656 L 212.614013671875 498.9090881347656 L 212.614013671875 183.09091186523438" fill-opacity="1" clip-path="url(#VVAokfptQtJh)"/><path fill="rgb(28,49,68)" stroke="none" paint-order="stroke" d="M 217.23399353027344 183.09091186523438 L 224.22720956802368 183.09091186523438 L 224.22720956802368 498.9090881347656 L 217.23399353027344 498.9090881347656 L 217.23399353027344 183.09091186523438" fill-opacity="1" clip-path="url(#cnqqzayZWzor)"/><path fill="rgb(28,49,68)" stroke="none" paint-order="stroke" d="M 229.34048461914062 183.09091186523438 L 231.7124526500702 183.09091186523438 L 231.7124526500702 498.9090881347656 L 229.34048461914062 498.9090881347656 L 229.34048461914062 183.09091186523438" fill-opacity="1" clip-path="url(#cnqqzayZWzor)"/><path fill="rgb(239,185,203)" stroke="none" paint-order="stroke" d="M 249.00506591796875 183.09091186523438 L 258.91979026794434 183.09091186523438 L 258.91979026794434 498.9090881347656 L 249.00506591796875 498.9090881347656 L 249.00506591796875 183.09091186523438" fill-opacity="1" clip-path="url(#DGTdOrXfIXQI)"/><path fill="rgb(143,45,86)" stroke="none" paint-order="stroke" d="M 58.5 551.5454711914062 L 94.25077056884766 551.5454711914062 L 94.25077056884766 604.1818351745605 L 58.5 604.1818351745605 L 58.5 551.5454711914062" fill-opacity="1" clip-path="url(#qiNLfzPtxOKL)"/><path fill="rgb(63,136,197)" stroke="none" paint-order="stroke" d="M 94.25077056884766 551.5454711914062 L 96.36713862419128 551.5454711914062 L 96.36713862419128 604.1818351745605 L 94.25077056884766 604.1818351745605 L 94.25077056884766 551.5454711914062" fill-opacity="1" clip-path="url(#qiNLfzPtxOKL)"/><path fill="rgb(143,45,86)" stroke="none" paint-order="stroke" d="M 96.36714172363281 551.5454711914062 L 96.64446771144867 551.5454711914062 L 96.64446771144867 604.1818351745605 L 96.36714172363281 604.1818351745605 L 96.36714172363281 551.5454711914062" fill-opacity="1" clip-path="url(#qiNLfzPtxOKL)"/><path fill="rgb(63,136,197)" stroke="none" paint-order="stroke" d="M 96.64446258544922 551.5454711914062 L 98.19851052761078 551.5454711914062 L 98.19851052761078 604.1818351745605 L 96.64446258544922 604.1818351745605 L 96.64446258544922 551.5454711914062" fill-opacity="1" clip-path="url(#qiNLfzPtxOKL)"/><path fill="rgb(143,45,86)" stroke="none" paint-order="stroke" d="M 98.19851684570312 551.5454711914062 L 98.75189083814621 551.5454711914062 L 98.75189083814621 604.1818351745605 L 98.19851684570312 604.1818351745605 L 98.19851684570312 551.5454711914062" fill-opacity="1" clip-path="url(#qiNLfzPtxOKL)"/><path fill="rgb(63,136,197)" stroke="none" paint-order="stroke" d="M 98.75188446044922 551.5454711914062 L 99.07138445973396 551.5454711914062 L 99.07138445973396 604.1818351745605 L 98.75188446044922 604.1818351745605 L 98.75188446044922 551.5454711914062" fill-opacity="1" clip-path="url(#qiNLfzPtxOKL)"/><path fill="rgb(143,45,86)" stroke="none" paint-order="stroke" d="M 99.0713882446289 551.5454711914062 L 99.19918824732304 551.5454711914062 L 99.19918824732304 604.1818351745605 L 99.0713882446289 604.1818351745605 L 99.0713882446289 551.5454711914062" fill-opacity="1" clip-path="url(#qiNLfzPtxOKL)"/><path fill="rgb(63,136,197)" stroke="none" paint-order="stroke" d="M 99.19918823242188 551.5454711914062 L 100.02988821268082 551.5454711914062 L 100.02988821268082 604.1818351745605 L 99.19918823242188 604.1818351745605 L 99.19918823242188 551.5454711914062" fill-opacity="1" clip-path="url(#qiNLfzPtxOKL)"/><path fill="rgb(143,45,86)" stroke="none" paint-order="stroke" d="M 100.0298843383789 551.5454711914062 L 101.24270629882812 551.5454711914062 L 101.24270629882812 604.1818351745605 L 100.0298843383789 604.1818351745605 L 100.0298843383789 551.5454711914062" fill-opacity="1" clip-path="url(#qiNLfzPtxOKL)"/><path fill="rgb(63,136,197)" stroke="none" paint-order="stroke" d="M 101.24270629882812 551.5454711914062 L 102.96800625324249 551.5454711914062 L 102.96800625324249 604.1818351745605 L 101.24270629882812 604.1818351745605 L 101.24270629882812 551.5454711914062" fill-opacity="1" clip-path="url(#qiNLfzPtxOKL)"/><path fill="rgb(143,45,86)" stroke="none" paint-order="stroke" d="M 102.96800994873047 551.5454711914062 L 109.2481017112732 551.5454711914062 L 109.2481017112732 604.1818351745605 L 102.96800994873047 604.1818351745605 L 102.96800994873047 551.5454711914062" fill-opacity="1" clip-path="url(#qiNLfzPtxOKL)"/><path fill="rgb(63,136,197)" stroke="none" paint-order="stroke" d="M 109.24810028076172 551.5454711914062 L 110.5772203207016 551.5454711914062 L 110.5772203207016 604.1818351745605 L 109.24810028076172 604.1818351745605 L 109.24810028076172 551.5454711914062" fill-opacity="1" clip-path="url(#qiNLfzPtxOKL)"/><path fill="rgb(81,60,99)" stroke="none" paint-order="stroke" d="M 110.57722473144531 551.5454711914062 L 111.69164073467255 551.5454711914062 L 111.69164073467255 604.1818351745605 L 110.57722473144531 604.1818351745605 L 110.57722473144531 551.5454711914062" fill-opacity="1" clip-path="url(#qiNLfzPtxOKL)"/><path fill="rgb(63,136,197)" stroke="none" paint-order="stroke" d="M 111.69163513183594 551.5454711914062 L 112.42776310443878 551.5454711914062 L 112.42776310443878 604.1818351745605 L 111.69163513183594 604.1818351745605 L 111.69163513183594 551.5454711914062" fill-opacity="1" clip-path="url(#qiNLfzPtxOKL)"/><path fill="rgb(81,60,99)" stroke="none" paint-order="stroke" d="M 112.42776489257812 551.5454711914062 L 116.1901969909668 551.5454711914062 L 116.1901969909668 604.1818351745605 L 112.42776489257812 604.1818351745605 L 112.42776489257812 551.5454711914062" fill-opacity="1" clip-path="url(#qiNLfzPtxOKL)"/><path fill="rgb(143,45,86)" stroke="none" paint-order="stroke" d="M 116.19020080566406 551.5454711914062 L 117.48864877223969 551.5454711914062 L 117.48864877223969 604.1818351745605 L 116.19020080566406 604.1818351745605 L 116.19020080566406 551.5454711914062" fill-opacity="1" clip-path="url(#qiNLfzPtxOKL)"/><path fill="rgb(81,60,99)" stroke="none" paint-order="stroke" d="M 117.4886474609375 551.5454711914062 L 117.65862146019936 551.5454711914062 L 117.65862146019936 604.1818351745605 L 117.4886474609375 604.1818351745605 L 117.4886474609375 551.5454711914062" fill-opacity="1" clip-path="url(#qiNLfzPtxOKL)"/><path fill="rgb(143,45,86)" stroke="none" paint-order="stroke" d="M 117.65862274169922 551.5454711914062 L 118.22605472803116 551.5454711914062 L 118.22605472803116 604.1818351745605 L 117.65862274169922 604.1818351745605 L 117.65862274169922 551.5454711914062" fill-opacity="1" clip-path="url(#qiNLfzPtxOKL)"/><path fill="rgb(81,60,99)" stroke="none" paint-order="stroke" d="M 118.2260513305664 551.5454711914062 L 236.6787567138672 551.5454711914062 L 236.6787567138672 604.1818351745605 L 118.2260513305664 604.1818351745605 L 118.2260513305664 551.5454711914062" fill-opacity="1" clip-path="url(#qiNLfzPtxOKL)"/><path fill="rgb(143,45,86)" stroke="none" paint-order="stroke" d="M 236.6787567138672 551.5454711914062 L 258.91979026794434 551.5454711914062 L 258.91979026794434 604.1818351745605 L 236.6787567138672 604.1818351745605 L 236.6787567138672 551.5454711914062" fill-opacity="1" clip-path="url(#qiNLfzPtxOKL)"/><path fill="none" stroke="rgb(0,0,0)" paint-order="fill" d="M 58.5 77.81818389892578 L 258.9197998046875 77.81818389892578 L 258.9197998046875 604.1818313598633 L 58.5 604.1818313598633 L 58.5 77.81818389892578" stroke-opacity="1" stroke-linejoin="bevel" stroke-miterlimit="10" stroke-dasharray="" clip-path="url(#PTiOgRKyPprx)"/><path fill="none" stroke="rgb(0,0,0)" paint-order="fill" d="M 58.5 630.5 L 1336.5 630.5" stroke-opacity="1" stroke-linejoin="bevel" stroke-miterlimit="10" stroke-dasharray=""/><path fill="none" stroke="rgb(0,0,0)" paint-order="fill" d="M 58.5 636.5 L 58.5 628.5 M 314.5 636.5 L 314.5 628.5 M 569.5 636.5 L 569.5 628.5 M 825.5 636.5 L 825.5 628.5 M 1080.5 636.5 L 1080.5 628.5 M 1336.5 636.5 L 1336.5 628.5" stroke-opacity="1" stroke-linejoin="bevel" stroke-miterlimit="10" stroke-dasharray=""/><path fill="none" stroke="rgb(0,0,0)" paint-order="fill" d="M 58.5 634.5 L 58.5 630.5 M 109.5 634.5 L 109.5 630.5 M 160.5 634.5 L 160.5 630.5 M 211.5 634.5 L 211.5 630.5 M 262.5 634.5 L 262.5 630.5 M 314.5 634.5 L 314.5 630.5 M 365.5 634.5 L 365.5 630.5 M 416.5 634.5 L 416.5 630.5 M 467.5 634.5 L 467.5 630.5 M 518.5 634.5 L 518.5 630.5 M 569.5 634.5 L 569.5 630.5 M 620.5 634.5 L 620.5 630.5 M 671.5 634.5 L 671.5 630.5 M 723.5 634.5 L 723.5 630.5 M 774.5 634.5 L 774.5 630.5 M 825.5 634.5 L 825.5 630.5 M 876.5 634.5 L 876.5 630.5 M 927.5 634.5 L 927.5 630.5 M 978.5 634.5 L 978.5 630.5 M 1029.5 634.5 L 1029.5 630.5 M 1080.5 634.5 L 1080.5 630.5 M 1132.5 634.5 L 1132.5 630.5 M 1183.5 634.5 L 1183.5 630.5 M 1234.5 634.5 L 1234.5 630.5 M 1285.5 634.5 L 1285.5 630.5 M 1336.5 634.5 L 1336.5 630.5" stroke-opacity="1" stroke-linejoin="bevel" stroke-miterlimit="10" stroke-dasharray=""/><text fill="rgb(68,68,68)" stroke="none" font-family="helvetica" font-size="11px" font-style="normal" font-weight="normal" text-decoration="normal" x="54.94166660308838" y="648.89013671875" text-anchor="start" dominant-baseline="alphabetic" transform="matrix(1, 0, 0, 1, 0.5, 0.5)" fill-opacity="1">0</text><text fill="rgb(68,68,68)" stroke="none" font-family="helvetica" font-size="11px" font-style="normal" font-weight="normal" text-decoration="normal" x="304.42500591278076" y="648.89013671875" text-anchor="start" dominant-baseline="alphabetic" transform="matrix(1, 0, 0, 1, 0.5, 0.5)" fill-opacity="1">200</text><text fill="rgb(68,68,68)" stroke="none" font-family="helvetica" font-size="11px" font-style="normal" font-weight="normal" text-decoration="normal" x="560.0250120162964" y="648.89013671875" text-anchor="start" dominant-baseline="alphabetic" transform="matrix(1, 0, 0, 1, 0.5, 0.5)" fill-opacity="1">400</text><text fill="rgb(68,68,68)" stroke="none" font-family="helvetica" font-size="11px" font-style="normal" font-weight="normal" text-decoration="normal" x="815.6249876022339" y="648.89013671875" text-anchor="start" dominant-baseline="alphabetic" transform="matrix(1, 0, 0, 1, 0.5, 0.5)" fill-opacity="1">600</text><text fill="rgb(68,68,68)" stroke="none" font-family="helvetica" font-size="11px" font-style="normal" font-weight="normal" text-decoration="normal" x="1071.2250242233276" y="648.89013671875" text-anchor="start" dominant-baseline="alphabetic" transform="matrix(1, 0, 0, 1, 0.5, 0.5)" fill-opacity="1">800</text><text fill="rgb(68,68,68)" stroke="none" font-family="helvetica" font-size="11px" font-style="normal" font-weight="normal" text-decoration="normal" x="1323.7666664123535" y="648.89013671875" text-anchor="start" dominant-baseline="alphabetic" transform="matrix(1, 0, 0, 1, 0.5, 0.5)" fill-opacity="1">1000</text><text fill="rgb(68,68,68)" stroke="none" font-family="helvetica" font-size="15pt" font-style="italic" font-weight="normal" text-decoration="normal" x="666.4416675567627" y="676.06982421875" text-anchor="start" dominant-baseline="alphabetic" transform="matrix(1, 0, 0, 1, 0.5, 0.5)" fill-opacity="1">time(s)</text><path fill="none" stroke="rgb(0,0,0)" paint-order="fill" d="M 58.5 630.5 L 58.5 51.5" stroke-opacity="1" stroke-linejoin="bevel" stroke-miterlimit="10" stroke-dasharray=""/><path fill="none" stroke="rgb(0,0,0)" paint-order="fill" d="M 52.5 551.5 L 60.5 551.5 M 52.5 446.5 L 60.5 446.5 M 52.5 341.5 L 60.5 341.5 M 52.5 235.5 L 60.5 235.5 M 52.5 130.5 L 60.5 130.5" stroke-opacity="1" stroke-linejoin="bevel" stroke-miterlimit="10" stroke-dasharray=""/><path fill="none" stroke="rgb(0,0,0)" paint-order="fill" d="M 54.5 572.5 L 58.5 572.5 M 54.5 593.5 L 58.5 593.5 M 54.5 614.5 L 58.5 614.5 M 54.5 551.5 L 58.5 551.5 M 54.5 530.5 L 58.5 530.5 M 54.5 509.5 L 58.5 509.5 M 54.5 488.5 L 58.5 488.5 M 54.5 467.5 L 58.5 467.5 M 54.5 446.5 L 58.5 446.5 M 54.5 425.5 L 58.5 425.5 M 54.5 404.5 L 58.5 404.5 M 54.5 383.5 L 58.5 383.5 M 54.5 362.5 L 58.5 362.5 M 54.5 341.5 L 58.5 341.5 M 54.5 319.5 L 58.5 319.5 M 54.5 298.5 L 58.5 298.5 M 54.5 277.5 L 58.5 277.5 M 54.5 256.5 L 58.5 256.5 M 54.5 235.5 L 58.5 235.5 M 54.5 214.5 L 58.5 214.5 M 54.5 193.5 L 58.5 193.5 M 54.5 172.5 L 58.5 172.5 M 54.5 151.5 L 58.5 151.5 M 54.5 130.5 L 58.5 130.5 M 54.5 109.5 L 58.5 109.5 M 54.5 88.5 L 58.5 88.5 M 54.5 67.5 L 58.5 67.5" stroke-opacity="1" stroke-linejoin="bevel" stroke-miterlimit="10" stroke-dasharray=""/><text fill="rgb(68,68,68)" stroke="none" font-family="helvetica" font-size="11px" font-style="normal" font-weight="normal" text-decoration="normal" x="34.46666622161865" y="554.9905395507812" text-anchor="start" dominant-baseline="alphabetic" transform="matrix(1, 0, 0, 1, 0.5, 0.5)" fill-opacity="1">−2</text><text fill="rgb(68,68,68)" stroke="none" font-family="helvetica" font-size="11px" font-style="normal" font-weight="normal" text-decoration="normal" x="34.46666622161865" y="449.7178039550781" text-anchor="start" dominant-baseline="alphabetic" transform="matrix(1, 0, 0, 1, 0.5, 0.5)" fill-opacity="1">−1</text><text fill="rgb(68,68,68)" stroke="none" font-family="helvetica" font-size="11px" font-style="normal" font-weight="normal" text-decoration="normal" x="40.88333320617676" y="344.445068359375" text-anchor="start" dominant-baseline="alphabetic" transform="matrix(1, 0, 0, 1, 0.5, 0.5)" fill-opacity="1">0</text><text fill="rgb(68,68,68)" stroke="none" font-family="helvetica" font-size="11px" font-style="normal" font-weight="normal" text-decoration="normal" x="40.88333320617676" y="239.17234802246094" text-anchor="start" dominant-baseline="alphabetic" transform="matrix(1, 0, 0, 1, 0.5, 0.5)" fill-opacity="1">1</text><text fill="rgb(68,68,68)" stroke="none" font-family="helvetica" font-size="11px" font-style="normal" font-weight="normal" text-decoration="normal" x="40.88333320617676" y="133.8996124267578" text-anchor="start" dominant-baseline="alphabetic" transform="matrix(1, 0, 0, 1, 0.5, 0.5)" fill-opacity="1">2</text><text fill="rgb(68,68,68)" stroke="none" font-family="helvetica" font-size="15pt" font-style="italic" font-weight="normal" text-decoration="normal" x="-11.316666603088379" y="336.076171875" text-anchor="start" dominant-baseline="alphabetic" transform="matrix(6.123233995736766e-17, -1, 1, 6.123233995736766e-17, -313.53333377838135, 367.46666622161865)" fill-opacity="1">students</text><path fill="rgb(255,255,255)" stroke="rgb(229,229,229)" paint-order="fill" d="M 1128.2333374023438 61.5 L 1326.5 61.5 L 1326.5 400.5 L 1128.2333374023438 400.5 L 1128.2333374023438 61.5" fill-opacity="0.9490196078431372" clip-path="url(#oiRBAFToMZXG)" stroke-opacity="0.5019607843137255" stroke-linejoin="bevel" stroke-miterlimit="10" stroke-dasharray=""/><text fill="rgb(68,68,68)" stroke="none" font-family="helvetica" font-size="13px" font-style="normal" font-weight="normal" text-decoration="normal" x="1162.7333374023438" y="81" text-anchor="start" dominant-baseline="central" clip-path="url(#oiRBAFToMZXG)" transform="matrix(1, 0, 0, 1, 0.5, 0.5)" fill-opacity="1">wavelength</text><path fill="rgb(0,255,40)" stroke="none" paint-order="stroke" d="M 1140.2333374023438 73.5 L 1156.2333374023438 73.5 L 1156.2333374023438 89.5 L 1140.2333374023438 89.5 L 1140.2333374023438 73.5" fill-opacity="1" clip-path="url(#oiRBAFToMZXG)"/><path fill="rgb(216,17,89)" stroke="none" paint-order="stroke" d="M 1140.2333374023438 73.5 L 1156.2333374023438 73.5 L 1156.2333374023438 89.5 L 1140.2333374023438 89.5 L 1140.2333374023438 73.5" fill-opacity="1" clip-path="url(#oiRBAFToMZXG)"/><text fill="rgb(68,68,68)" stroke="none" font-family="helvetica" font-size="13px" font-style="normal" font-weight="normal" text-decoration="normal" x="1162.7333374023438" y="104" text-anchor="start" dominant-baseline="central" clip-path="url(#oiRBAFToMZXG)" transform="matrix(1, 0, 0, 1, 0.5, 0.5)" fill-opacity="1">solution</text><path fill="rgb(251,0,7)" stroke="none" paint-order="stroke" d="M 1140.2333374023438 96.5 L 1156.2333374023438 96.5 L 1156.2333374023438 112.5 L 1140.2333374023438 112.5 L 1140.2333374023438 96.5" fill-opacity="1" clip-path="url(#oiRBAFToMZXG)"/><path fill="rgb(33,131,128)" stroke="none" paint-order="stroke" d="M 1140.2333374023438 96.5 L 1156.2333374023438 96.5 L 1156.2333374023438 112.5 L 1140.2333374023438 112.5 L 1140.2333374023438 96.5" fill-opacity="1" clip-path="url(#oiRBAFToMZXG)"/><text fill="rgb(68,68,68)" stroke="none" font-family="helvetica" font-size="13px" font-style="normal" font-weight="normal" text-decoration="normal" x="1162.7333374023438" y="127" text-anchor="start" dominant-baseline="central" clip-path="url(#oiRBAFToMZXG)" transform="matrix(1, 0, 0, 1, 0.5, 0.5)" fill-opacity="1">laser</text><path fill="rgb(105,29,48)" stroke="none" paint-order="stroke" d="M 1140.2333374023438 119.5 L 1156.2333374023438 119.5 L 1156.2333374023438 135.5 L 1140.2333374023438 135.5 L 1140.2333374023438 119.5" fill-opacity="1" clip-path="url(#oiRBAFToMZXG)"/><text fill="rgb(68,68,68)" stroke="none" font-family="helvetica" font-size="13px" font-style="normal" font-weight="normal" text-decoration="normal" x="1162.7333374023438" y="150" text-anchor="start" dominant-baseline="central" clip-path="url(#oiRBAFToMZXG)" transform="matrix(1, 0, 0, 1, 0.5, 0.5)" fill-opacity="1">ruler</text><path fill="rgb(255,188,66)" stroke="none" paint-order="stroke" d="M 1140.2333374023438 142.5 L 1156.2333374023438 142.5 L 1156.2333374023438 158.5 L 1140.2333374023438 158.5 L 1140.2333374023438 142.5" fill-opacity="1" clip-path="url(#oiRBAFToMZXG)"/><text fill="rgb(68,68,68)" stroke="none" font-family="helvetica" font-size="13px" font-style="normal" font-weight="normal" text-decoration="normal" x="1162.7333374023438" y="173" text-anchor="start" dominant-baseline="central" clip-path="url(#oiRBAFToMZXG)" transform="matrix(1, 0, 0, 1, 0.5, 0.5)" fill-opacity="1">restarts</text><path fill="rgb(162,174,187)" stroke="none" paint-order="stroke" d="M 1140.2333374023438 165.5 L 1156.2333374023438 165.5 L 1156.2333374023438 181.5 L 1140.2333374023438 181.5 L 1140.2333374023438 165.5" fill-opacity="1" clip-path="url(#oiRBAFToMZXG)"/><text fill="rgb(68,68,68)" stroke="none" font-family="helvetica" font-size="13px" font-style="normal" font-weight="normal" text-decoration="normal" x="1162.7333374023438" y="196" text-anchor="start" dominant-baseline="central" clip-path="url(#oiRBAFToMZXG)" transform="matrix(1, 0, 0, 1, 0.5, 0.5)" fill-opacity="1">transmittance_absorbance</text><path fill="rgb(162,174,187)" stroke="none" paint-order="stroke" d="M 1140.2333374023438 188.5 L 1156.2333374023438 188.5 L 1156.2333374023438 204.5 L 1140.2333374023438 204.5 L 1140.2333374023438 188.5" fill-opacity="1" clip-path="url(#oiRBAFToMZXG)"/><text fill="rgb(68,68,68)" stroke="none" font-family="helvetica" font-size="13px" font-style="normal" font-weight="normal" text-decoration="normal" x="1162.7333374023438" y="219" text-anchor="start" dominant-baseline="central" clip-path="url(#oiRBAFToMZXG)" transform="matrix(1, 0, 0, 1, 0.5, 0.5)" fill-opacity="1">magnifier</text><path fill="rgb(255,188,66)" stroke="none" paint-order="stroke" d="M 1140.2333374023438 211.5 L 1156.2333374023438 211.5 L 1156.2333374023438 227.5 L 1140.2333374023438 227.5 L 1140.2333374023438 211.5" fill-opacity="1" clip-path="url(#oiRBAFToMZXG)"/><text fill="rgb(68,68,68)" stroke="none" font-family="helvetica" font-size="13px" font-style="normal" font-weight="normal" text-decoration="normal" x="1162.7333374023438" y="242" text-anchor="start" dominant-baseline="central" clip-path="url(#oiRBAFToMZXG)" transform="matrix(1, 0, 0, 1, 0.5, 0.5)" fill-opacity="1">concentration</text><path fill="rgb(115,210,222)" stroke="none" paint-order="stroke" d="M 1140.2333374023438 234.5 L 1156.2333374023438 234.5 L 1156.2333374023438 250.5 L 1140.2333374023438 250.5 L 1140.2333374023438 234.5" fill-opacity="1" clip-path="url(#oiRBAFToMZXG)"/><text fill="rgb(68,68,68)" stroke="none" font-family="helvetica" font-size="13px" font-style="normal" font-weight="normal" text-decoration="normal" x="1162.7333374023438" y="265" text-anchor="start" dominant-baseline="central" clip-path="url(#oiRBAFToMZXG)" transform="matrix(1, 0, 0, 1, 0.5, 0.5)" fill-opacity="1">flask</text><path fill="rgb(28,49,68)" stroke="none" paint-order="stroke" d="M 1140.2333374023438 257.5 L 1156.2333374023438 257.5 L 1156.2333374023438 273.5 L 1140.2333374023438 273.5 L 1140.2333374023438 257.5" fill-opacity="1" clip-path="url(#oiRBAFToMZXG)"/><text fill="rgb(68,68,68)" stroke="none" font-family="helvetica" font-size="13px" font-style="normal" font-weight="normal" text-decoration="normal" x="1162.7333374023438" y="288" text-anchor="start" dominant-baseline="central" clip-path="url(#oiRBAFToMZXG)" transform="matrix(1, 0, 0, 1, 0.5, 0.5)" fill-opacity="1">pdf</text><path fill="rgb(239,185,203)" stroke="none" paint-order="stroke" d="M 1140.2333374023438 280.5 L 1156.2333374023438 280.5 L 1156.2333374023438 296.5 L 1140.2333374023438 296.5 L 1140.2333374023438 280.5" fill-opacity="1" clip-path="url(#oiRBAFToMZXG)"/><text fill="rgb(68,68,68)" stroke="none" font-family="helvetica" font-size="13px" font-style="normal" font-weight="normal" text-decoration="normal" x="1162.7333374023438" y="311" text-anchor="start" dominant-baseline="central" clip-path="url(#oiRBAFToMZXG)" transform="matrix(1, 0, 0, 1, 0.5, 0.5)" fill-opacity="1">concentrationlab</text><text fill="rgb(68,68,68)" stroke="none" font-family="helvetica" font-size="13px" font-style="normal" font-weight="normal" text-decoration="normal" x="1162.7333374023438" y="334" text-anchor="start" dominant-baseline="central" clip-path="url(#oiRBAFToMZXG)" transform="matrix(1, 0, 0, 1, 0.5, 0.5)" fill-opacity="1">wavelength_slider</text><text fill="rgb(68,68,68)" stroke="none" font-family="helvetica" font-size="13px" font-style="normal" font-weight="normal" text-decoration="normal" x="1162.7333374023438" y="357" text-anchor="start" dominant-baseline="central" clip-path="url(#oiRBAFToMZXG)" transform="matrix(1, 0, 0, 1, 0.5, 0.5)" fill-opacity="1">ruler measuring</text><text fill="rgb(68,68,68)" stroke="none" font-family="helvetica" font-size="13px" font-style="normal" font-weight="normal" text-decoration="normal" x="1162.7333374023438" y="380" text-anchor="start" dominant-baseline="central" clip-path="url(#oiRBAFToMZXG)" transform="matrix(1, 0, 0, 1, 0.5, 0.5)" fill-opacity="1">dependent variable</text><path fill="rgb(143,45,86)" stroke="none" paint-order="stroke" d="M 1140.2333374023438 372.5 L 1156.2333374023438 372.5 L 1156.2333374023438 388.5 L 1140.2333374023438 388.5 L 1140.2333374023438 372.5" fill-opacity="1" clip-path="url(#oiRBAFToMZXG)"/><text fill="rgb(68,68,68)" stroke="none" font-family="helvetica" font-size="25pt" font-style="normal" font-weight="bold" text-decoration="normal" x="58" y="38.740885416666664" text-anchor="start" dominant-baseline="alphabetic" transform="matrix(1, 0, 0, 1, 0.5, 0.5)" fill-opacity="1">Timeline for student sgsxmkfm with permutation 0312 for task 1</text></svg>