<svg version="1.1" xmlns="http://www.w3.org/2000/svg" width="1366" height="683"><defs><clipPath id="pVTQkhxTMTpT"><path fill="none" stroke="none" d="M 58.5 51.5 L 1336.5 51.5 L 1336.5 630.5 L 58.5 630.5 L 58.5 51.5"/></clipPath><clipPath id="bSJTBglQRAKW"><path fill="none" stroke="none" d="M 58.5 51.5 L 1336.5 51.5 L 1336.5 630.5 L 58.5 630.5 L 58.5 51.5"/></clipPath><clipPath id="VmVgBXOllBAs"><path fill="none" stroke="none" d="M 58.5 51.5 L 1336.5 51.5 L 1336.5 630.5 L 58.5 630.5 L 58.5 51.5"/></clipPath><clipPath id="XgowTtNcngzT"><path fill="none" stroke="none" d="M 58.5 51.5 L 1336.5 51.5 L 1336.5 630.5 L 58.5 630.5 L 58.5 51.5"/></clipPath><clipPath id="GIbdcPaTXCLv"><path fill="none" stroke="none" d="M 58.5 51.5 L 1336.5 51.5 L 1336.5 630.5 L 58.5 630.5 L 58.5 51.5"/></clipPath><clipPath id="IvPxauzarCFw"><path fill="none" stroke="none" d="M 58.5 51.5 L 1336.5 51.5 L 1336.5 630.5 L 58.5 630.5 L 58.5 51.5"/></clipPath><clipPath id="orzFOURyukMG"><path fill="none" stroke="none" d="M 58.5 51.5 L 1336.5 51.5 L 1336.5 630.5 L 58.5 630.5 L 58.5 51.5"/></clipPath><clipPath id="LJnTMOTclFrJ"><path fill="none" stroke="none" d="M 58.5 51.5 L 1336.5 51.5 L 1336.5 630.5 L 58.5 630.5 L 58.5 51.5"/></clipPath><clipPath id="yFXABZHKpeqs"><path fill="none" stroke="none" d="M 58.5 51.5 L 1336.5 51.5 L 1336.5 630.5 L 58.5 630.5 L 58.5 51.5"/></clipPath><clipPath id="aUMWHgZcHqVv"><path fill="none" stroke="none" d="M 58.5 51.5 L 1336.5 51.5 L 1336.5 630.5 L 58.5 630.5 L 58.5 51.5"/></clipPath><clipPath id="xOoTasDAozQe"><path fill="none" stroke="none" d="M 58.5 51.5 L 1336.5 51.5 L 1336.5 630.5 L 58.5 630.5 L 58.5 51.5"/></clipPath><clipPath id="cphRIDnxAFkP"><path fill="none" stroke="none" d="M 58.5 51.5 L 1336.5 51.5 L 1336.5 630.5 L 58.5 630.5 L 58.5 51.5"/></clipPath><clipPath id="SrOnMBrgcfRT"><path fill="none" stroke="none" d="M 58.5 51.5 L 1336.5 51.5 L 1336.5 630.5 L 58.5 630.5 L 58.5 51.5"/></clipPath><clipPath id="PaKUXwwfqBQt"><path fill="none" stroke="none" d="M 58.5 51.5 L 1336.5 51.5 L 1336.5 630.5 L 58.5 630.5 L 58.5 51.5"/></clipPath><clipPath id="kqySBfbEUwEl"><path fill="none" stroke="none" d="M 58.5 51.5 L 1336.5 51.5 L 1336.5 630.5 L 58.5 630.5 L 58.5 51.5"/></clipPath><clipPath id="wVGizqfrzKVL"><path fill="none" stroke="none" d="M 58.5 51.5 L 1336.5 51.5 L 1336.5 630.5 L 58.5 630.5 L 58.5 51.5"/></clipPath><clipPath id="lcCEBAPLmdxa"><path fill="none" stroke="none" d="M 58.5 51.5 L 1336.5 51.5 L 1336.5 630.5 L 58.5 630.5 L 58.5 51.5"/></clipPath><clipPath id="VvqcDdaExslD"><path fill="none" stroke="none" d="M 58.5 51.5 L 1336.5 51.5 L 1336.5 630.5 L 58.5 630.5 L 58.5 51.5"/></clipPath><clipPath id="oPeazwzTlvLy"><path fill="none" stroke="none" d="M 58.5 51.5 L 1336.5 51.5 L 1336.5 630.5 L 58.5 630.5 L 58.5 51.5"/></clipPath><clipPath id="xCOlKGOoRJZJ"><path fill="none" stroke="none" d="M 58.5 51.5 L 1336.5 51.5 L 1336.5 630.5 L 58.5 630.5 L 58.5 51.5"/></clipPath><clipPath id="oxEqPsSmqxsD"><path fill="none" stroke="none" d="M 58.5 51.5 L 1336.5 51.5 L 1336.5 630.5 L 58.5 630.5 L 58.5 51.5"/></clipPath></defs><path fill="rgb(255,255,255)" stroke="none" paint-order="stroke" d="M 0.5 0.5 L 1366.5 0.5 L 1366.5 683.5 L 0.5 683.5 L 0.5 0.5" fill-opacity="1"/><rect fill="#FFFFFF" stroke="none" x="58" y="51" width="1278" height="579" transform="matrix(1, 0, 0, 1, 0.5, 0.5)"/><path fill="rgb(255,255,255)" stroke="none" paint-order="stroke" d="M 58.5 51.5 L 1336.5 51.5 L 1336.5 630.5 L 58.5 630.5 L 58.5 51.5" fill-opacity="1"/><path fill="none" stroke="rgb(229,229,229)" paint-order="fill" d="M 58.5 51.5 L 1336.5 51.5 L 1336.5 630.5 L 58.5 630.5 L 58.5 51.5" stroke-opacity="1" stroke-linejoin="bevel" stroke-miterlimit="10" stroke-dasharray=""/><path fill="none" stroke="rgb(229,229,229)" paint-order="fill" d="M 314.5 630.5 L 314.5 51.5 M 569.5 630.5 L 569.5 51.5 M 825.5 630.5 L 825.5 51.5 M 1080.5 630.5 L 1080.5 51.5" stroke-opacity="1" stroke-linejoin="bevel" stroke-miterlimit="10" stroke-dasharray="" clip-path="url(#pVTQkhxTMTpT)"/><path fill="none" stroke="rgb(229,229,229)" paint-order="fill" d="M 58.5 551.5 L 1336.5 551.5 M 58.5 446.5 L 1336.5 446.5 M 58.5 341.5 L 1336.5 341.5 M 58.5 235.5 L 1336.5 235.5 M 58.5 130.5 L 1336.5 130.5" stroke-opacity="1" stroke-linejoin="bevel" stroke-miterlimit="10" stroke-dasharray="" clip-path="url(#bSJTBglQRAKW)"/><path fill="rgb(0,255,40)" stroke="none" paint-order="stroke" d="M 58.5 77.81818389892578 L 89.33686256408691 77.81818389892578 L 89.33686256408691 130.45454788208008 L 58.5 130.45454788208008 L 58.5 77.81818389892578" fill-opacity="1" clip-path="url(#VmVgBXOllBAs)"/><path fill="rgb(251,0,7)" stroke="none" paint-order="stroke" d="M 58.5 130.4545440673828 L 89.33686256408691 130.4545440673828 L 89.33686256408691 183.0909080505371 L 58.5 183.0909080505371 L 58.5 130.4545440673828" fill-opacity="1" clip-path="url(#XgowTtNcngzT)"/><path fill="rgb(239,185,203)" stroke="none" paint-order="stroke" d="M 71.73624420166016 183.09091186523438 L 78.95694398880005 183.09091186523438 L 78.95694398880005 498.9090881347656 L 71.73624420166016 498.9090881347656 L 71.73624420166016 183.09091186523438" fill-opacity="1" clip-path="url(#PaKUXwwfqBQt)"/><path fill="rgb(239,185,203)" stroke="none" paint-order="stroke" d="M 81.85417175292969 183.09091186523438 L 85.4146797657013 183.09091186523438 L 85.4146797657013 498.9090881347656 L 81.85417175292969 498.9090881347656 L 81.85417175292969 183.09091186523438" fill-opacity="1" clip-path="url(#PaKUXwwfqBQt)"/><path fill="rgb(34,116,165)" stroke="none" paint-order="stroke" d="M 65.10981750488281 183.09091186523438 L 65.17371750622988 183.09091186523438 L 65.17371750622988 498.9090881347656 L 65.10981750488281 498.9090881347656 L 65.10981750488281 183.09091186523438" fill-opacity="1" clip-path="url(#kqySBfbEUwEl)"/><path fill="rgb(34,116,165)" stroke="none" paint-order="stroke" d="M 87.43008422851562 183.09091186523438 L 87.49398422986269 183.09091186523438 L 87.49398422986269 498.9090881347656 L 87.43008422851562 498.9090881347656 L 87.43008422851562 183.09091186523438" fill-opacity="1" clip-path="url(#kqySBfbEUwEl)"/><path fill="rgb(34,116,165)" stroke="none" paint-order="stroke" d="M 87.48759460449219 183.09091186523438 L 87.55149460583925 183.09091186523438 L 87.55149460583925 498.9090881347656 L 87.48759460449219 498.9090881347656 L 87.48759460449219 183.09091186523438" fill-opacity="1" clip-path="url(#kqySBfbEUwEl)"/><path fill="rgb(34,116,165)" stroke="none" paint-order="stroke" d="M 87.50804138183594 183.09091186523438 L 87.571941383183 183.09091186523438 L 87.571941383183 498.9090881347656 L 87.50804138183594 498.9090881347656 L 87.50804138183594 183.09091186523438" fill-opacity="1" clip-path="url(#kqySBfbEUwEl)"/><path fill="rgb(34,116,165)" stroke="none" paint-order="stroke" d="M 87.53105163574219 183.09091186523438 L 87.59495163708925 183.09091186523438 L 87.59495163708925 498.9090881347656 L 87.53105163574219 498.9090881347656 L 87.53105163574219 183.09091186523438" fill-opacity="1" clip-path="url(#kqySBfbEUwEl)"/><path fill="rgb(34,116,165)" stroke="none" paint-order="stroke" d="M 87.55277252197266 183.09091186523438 L 87.61667252331972 183.09091186523438 L 87.61667252331972 498.9090881347656 L 87.55277252197266 498.9090881347656 L 87.55277252197266 183.09091186523438" fill-opacity="1" clip-path="url(#kqySBfbEUwEl)"/><path fill="rgb(34,116,165)" stroke="none" paint-order="stroke" d="M 87.57194519042969 183.09091186523438 L 87.63584519177675 183.09091186523438 L 87.63584519177675 498.9090881347656 L 87.57194519042969 498.9090881347656 L 87.57194519042969 183.09091186523438" fill-opacity="1" clip-path="url(#kqySBfbEUwEl)"/><path fill="rgb(34,116,165)" stroke="none" paint-order="stroke" d="M 87.59367370605469 183.09091186523438 L 87.65757370740175 183.09091186523438 L 87.65757370740175 498.9090881347656 L 87.59367370605469 498.9090881347656 L 87.59367370605469 183.09091186523438" fill-opacity="1" clip-path="url(#kqySBfbEUwEl)"/><path fill="rgb(34,116,165)" stroke="none" paint-order="stroke" d="M 87.61412048339844 183.09091186523438 L 87.6780204847455 183.09091186523438 L 87.6780204847455 498.9090881347656 L 87.61412048339844 498.9090881347656 L 87.61412048339844 183.09091186523438" fill-opacity="1" clip-path="url(#kqySBfbEUwEl)"/><path fill="rgb(34,116,165)" stroke="none" paint-order="stroke" d="M 87.6358413696289 183.09091186523438 L 87.69974137097597 183.09091186523438 L 87.69974137097597 498.9090881347656 L 87.6358413696289 498.9090881347656 L 87.6358413696289 183.09091186523438" fill-opacity="1" clip-path="url(#kqySBfbEUwEl)"/><path fill="rgb(34,116,165)" stroke="none" paint-order="stroke" d="M 87.6575698852539 183.09091186523438 L 87.72146988660097 183.09091186523438 L 87.72146988660097 498.9090881347656 L 87.6575698852539 498.9090881347656 L 87.6575698852539 183.09091186523438" fill-opacity="1" clip-path="url(#kqySBfbEUwEl)"/><path fill="rgb(34,116,165)" stroke="none" paint-order="stroke" d="M 87.67801666259766 183.09091186523438 L 87.74191666394472 183.09091186523438 L 87.74191666394472 498.9090881347656 L 87.67801666259766 498.9090881347656 L 87.67801666259766 183.09091186523438" fill-opacity="1" clip-path="url(#kqySBfbEUwEl)"/><path fill="rgb(34,116,165)" stroke="none" paint-order="stroke" d="M 87.69974517822266 183.09091186523438 L 87.76364517956972 183.09091186523438 L 87.76364517956972 498.9090881347656 L 87.69974517822266 498.9090881347656 L 87.69974517822266 183.09091186523438" fill-opacity="1" clip-path="url(#kqySBfbEUwEl)"/><path fill="rgb(34,116,165)" stroke="none" paint-order="stroke" d="M 87.72147369384766 183.09091186523438 L 87.78537369519472 183.09091186523438 L 87.78537369519472 498.9090881347656 L 87.72147369384766 498.9090881347656 L 87.72147369384766 183.09091186523438" fill-opacity="1" clip-path="url(#kqySBfbEUwEl)"/><path fill="rgb(34,116,165)" stroke="none" paint-order="stroke" d="M 87.7419204711914 183.09091186523438 L 87.80582047253847 183.09091186523438 L 87.80582047253847 498.9090881347656 L 87.7419204711914 498.9090881347656 L 87.7419204711914 183.09091186523438" fill-opacity="1" clip-path="url(#kqySBfbEUwEl)"/><path fill="rgb(34,116,165)" stroke="none" paint-order="stroke" d="M 87.76364135742188 183.09091186523438 L 87.82754135876894 183.09091186523438 L 87.82754135876894 498.9090881347656 L 87.76364135742188 498.9090881347656 L 87.76364135742188 183.09091186523438" fill-opacity="1" clip-path="url(#kqySBfbEUwEl)"/><path fill="rgb(34,116,165)" stroke="none" paint-order="stroke" d="M 87.78409576416016 183.09091186523438 L 87.84799576550722 183.09091186523438 L 87.84799576550722 498.9090881347656 L 87.78409576416016 498.9090881347656 L 87.78409576416016 183.09091186523438" fill-opacity="1" clip-path="url(#kqySBfbEUwEl)"/><path fill="rgb(34,116,165)" stroke="none" paint-order="stroke" d="M 87.80581665039062 183.09091186523438 L 87.86971665173769 183.09091186523438 L 87.86971665173769 498.9090881347656 L 87.80581665039062 498.9090881347656 L 87.80581665039062 183.09091186523438" fill-opacity="1" clip-path="url(#kqySBfbEUwEl)"/><path fill="rgb(34,116,165)" stroke="none" paint-order="stroke" d="M 87.82754516601562 183.09091186523438 L 87.89144516736269 183.09091186523438 L 87.89144516736269 498.9090881347656 L 87.82754516601562 498.9090881347656 L 87.82754516601562 183.09091186523438" fill-opacity="1" clip-path="url(#kqySBfbEUwEl)"/><path fill="rgb(34,116,165)" stroke="none" paint-order="stroke" d="M 87.84799194335938 183.09091186523438 L 87.91189194470644 183.09091186523438 L 87.91189194470644 498.9090881347656 L 87.84799194335938 498.9090881347656 L 87.84799194335938 183.09091186523438" fill-opacity="1" clip-path="url(#kqySBfbEUwEl)"/><path fill="rgb(34,116,165)" stroke="none" paint-order="stroke" d="M 87.86972045898438 183.09091186523438 L 87.93362046033144 183.09091186523438 L 87.93362046033144 498.9090881347656 L 87.86972045898438 498.9090881347656 L 87.86972045898438 183.09091186523438" fill-opacity="1" clip-path="url(#kqySBfbEUwEl)"/><path fill="rgb(34,116,165)" stroke="none" paint-order="stroke" d="M 87.8927230834961 183.09091186523438 L 87.95662308484316 183.09091186523438 L 87.95662308484316 498.9090881347656 L 87.8927230834961 498.9090881347656 L 87.8927230834961 183.09091186523438" fill-opacity="1" clip-path="url(#kqySBfbEUwEl)"/><path fill="rgb(34,116,165)" stroke="none" paint-order="stroke" d="M 87.91572570800781 183.09091186523438 L 87.97962570935488 183.09091186523438 L 87.97962570935488 498.9090881347656 L 87.91572570800781 498.9090881347656 L 87.91572570800781 183.09091186523438" fill-opacity="1" clip-path="url(#kqySBfbEUwEl)"/><path fill="rgb(34,116,165)" stroke="none" paint-order="stroke" d="M 87.9336166381836 183.09091186523438 L 87.99751663953066 183.09091186523438 L 87.99751663953066 498.9090881347656 L 87.9336166381836 498.9090881347656 L 87.9336166381836 183.09091186523438" fill-opacity="1" clip-path="url(#kqySBfbEUwEl)"/><path fill="rgb(34,116,165)" stroke="none" paint-order="stroke" d="M 87.9553451538086 183.09091186523438 L 88.01924515515566 183.09091186523438 L 88.01924515515566 498.9090881347656 L 87.9553451538086 498.9090881347656 L 87.9553451538086 183.09091186523438" fill-opacity="1" clip-path="url(#kqySBfbEUwEl)"/><path fill="rgb(34,116,165)" stroke="none" paint-order="stroke" d="M 87.98345947265625 183.09091186523438 L 88.04735947400331 183.09091186523438 L 88.04735947400331 498.9090881347656 L 87.98345947265625 498.9090881347656 L 87.98345947265625 183.09091186523438" fill-opacity="1" clip-path="url(#kqySBfbEUwEl)"/><path fill="rgb(34,116,165)" stroke="none" paint-order="stroke" d="M 88.00007629394531 183.09091186523438 L 88.06397629529238 183.09091186523438 L 88.06397629529238 498.9090881347656 L 88.00007629394531 498.9090881347656 L 88.00007629394531 183.09091186523438" fill-opacity="1" clip-path="url(#kqySBfbEUwEl)"/><path fill="rgb(34,116,165)" stroke="none" paint-order="stroke" d="M 88.02690887451172 183.09091186523438 L 88.09080887585878 183.09091186523438 L 88.09080887585878 498.9090881347656 L 88.02690887451172 498.9090881347656 L 88.02690887451172 183.09091186523438" fill-opacity="1" clip-path="url(#kqySBfbEUwEl)"/><path fill="rgb(34,116,165)" stroke="none" paint-order="stroke" d="M 88.04480743408203 183.09091186523438 L 88.1087074354291 183.09091186523438 L 88.1087074354291 498.9090881347656 L 88.04480743408203 498.9090881347656 L 88.04480743408203 183.09091186523438" fill-opacity="1" clip-path="url(#kqySBfbEUwEl)"/><path fill="rgb(34,116,165)" stroke="none" paint-order="stroke" d="M 88.06525421142578 183.09091186523438 L 88.12915421277285 183.09091186523438 L 88.12915421277285 498.9090881347656 L 88.06525421142578 498.9090881347656 L 88.06525421142578 183.09091186523438" fill-opacity="1" clip-path="url(#kqySBfbEUwEl)"/><path fill="rgb(34,116,165)" stroke="none" paint-order="stroke" d="M 88.08570098876953 183.09091186523438 L 88.1496009901166 183.09091186523438 L 88.1496009901166 498.9090881347656 L 88.08570098876953 498.9090881347656 L 88.08570098876953 183.09091186523438" fill-opacity="1" clip-path="url(#kqySBfbEUwEl)"/><path fill="rgb(34,116,165)" stroke="none" paint-order="stroke" d="M 88.10614776611328 183.09091186523438 L 88.17004776746035 183.09091186523438 L 88.17004776746035 498.9090881347656 L 88.10614776611328 498.9090881347656 L 88.10614776611328 183.09091186523438" fill-opacity="1" clip-path="url(#kqySBfbEUwEl)"/><path fill="rgb(34,116,165)" stroke="none" paint-order="stroke" d="M 88.12787628173828 183.09091186523438 L 88.19177628308535 183.09091186523438 L 88.19177628308535 498.9090881347656 L 88.12787628173828 498.9090881347656 L 88.12787628173828 183.09091186523438" fill-opacity="1" clip-path="url(#kqySBfbEUwEl)"/><path fill="rgb(34,116,165)" stroke="none" paint-order="stroke" d="M 88.14704132080078 183.09091186523438 L 88.21094132214785 183.09091186523438 L 88.21094132214785 498.9090881347656 L 88.14704132080078 498.9090881347656 L 88.14704132080078 183.09091186523438" fill-opacity="1" clip-path="url(#kqySBfbEUwEl)"/><path fill="rgb(34,116,165)" stroke="none" paint-order="stroke" d="M 88.16749572753906 183.09091186523438 L 88.23139572888613 183.09091186523438 L 88.23139572888613 498.9090881347656 L 88.16749572753906 498.9090881347656 L 88.16749572753906 183.09091186523438" fill-opacity="1" clip-path="url(#kqySBfbEUwEl)"/><path fill="rgb(34,116,165)" stroke="none" paint-order="stroke" d="M 88.18921661376953 183.09091186523438 L 88.2531166151166 183.09091186523438 L 88.2531166151166 498.9090881347656 L 88.18921661376953 498.9090881347656 L 88.18921661376953 183.09091186523438" fill-opacity="1" clip-path="url(#kqySBfbEUwEl)"/><path fill="rgb(34,116,165)" stroke="none" paint-order="stroke" d="M 88.20966339111328 183.09091186523438 L 88.27356339246035 183.09091186523438 L 88.27356339246035 498.9090881347656 L 88.20966339111328 498.9090881347656 L 88.20966339111328 183.09091186523438" fill-opacity="1" clip-path="url(#kqySBfbEUwEl)"/><path fill="rgb(34,116,165)" stroke="none" paint-order="stroke" d="M 88.23139190673828 183.09091186523438 L 88.29529190808535 183.09091186523438 L 88.29529190808535 498.9090881347656 L 88.23139190673828 498.9090881347656 L 88.23139190673828 183.09091186523438" fill-opacity="1" clip-path="url(#kqySBfbEUwEl)"/><path fill="rgb(34,116,165)" stroke="none" paint-order="stroke" d="M 88.25312042236328 183.09091186523438 L 88.31702042371035 183.09091186523438 L 88.31702042371035 498.9090881347656 L 88.25312042236328 498.9090881347656 L 88.25312042236328 183.09091186523438" fill-opacity="1" clip-path="url(#kqySBfbEUwEl)"/><path fill="rgb(34,116,165)" stroke="none" paint-order="stroke" d="M 88.27484130859375 183.09091186523438 L 88.33874130994081 183.09091186523438 L 88.33874130994081 498.9090881347656 L 88.27484130859375 498.9090881347656 L 88.27484130859375 183.09091186523438" fill-opacity="1" clip-path="url(#kqySBfbEUwEl)"/><path fill="rgb(34,116,165)" stroke="none" paint-order="stroke" d="M 88.29529571533203 183.09091186523438 L 88.3591957166791 183.09091186523438 L 88.3591957166791 498.9090881347656 L 88.29529571533203 498.9090881347656 L 88.29529571533203 183.09091186523438" fill-opacity="1" clip-path="url(#kqySBfbEUwEl)"/><path fill="rgb(34,116,165)" stroke="none" paint-order="stroke" d="M 88.31829833984375 183.09091186523438 L 88.38219834119081 183.09091186523438 L 88.38219834119081 498.9090881347656 L 88.31829833984375 498.9090881347656 L 88.31829833984375 183.09091186523438" fill-opacity="1" clip-path="url(#kqySBfbEUwEl)"/><path fill="rgb(34,116,165)" stroke="none" paint-order="stroke" d="M 88.33746337890625 183.09091186523438 L 88.40136338025331 183.09091186523438 L 88.40136338025331 498.9090881347656 L 88.33746337890625 498.9090881347656 L 88.33746337890625 183.09091186523438" fill-opacity="1" clip-path="url(#kqySBfbEUwEl)"/><path fill="rgb(34,116,165)" stroke="none" paint-order="stroke" d="M 88.35919189453125 183.09091186523438 L 88.42309189587831 183.09091186523438 L 88.42309189587831 498.9090881347656 L 88.35919189453125 498.9090881347656 L 88.35919189453125 183.09091186523438" fill-opacity="1" clip-path="url(#kqySBfbEUwEl)"/><path fill="rgb(34,116,165)" stroke="none" paint-order="stroke" d="M 88.379638671875 183.09091186523438 L 88.44353867322206 183.09091186523438 L 88.44353867322206 498.9090881347656 L 88.379638671875 498.9090881347656 L 88.379638671875 183.09091186523438" fill-opacity="1" clip-path="url(#kqySBfbEUwEl)"/><path fill="rgb(34,116,165)" stroke="none" paint-order="stroke" d="M 88.4013671875 183.09091186523438 L 88.46526718884706 183.09091186523438 L 88.46526718884706 498.9090881347656 L 88.4013671875 498.9090881347656 L 88.4013671875 183.09091186523438" fill-opacity="1" clip-path="url(#kqySBfbEUwEl)"/><path fill="rgb(34,116,165)" stroke="none" paint-order="stroke" d="M 88.42565155029297 183.09091186523438 L 88.48955155164003 183.09091186523438 L 88.48955155164003 498.9090881347656 L 88.42565155029297 498.9090881347656 L 88.42565155029297 183.09091186523438" fill-opacity="1" clip-path="url(#kqySBfbEUwEl)"/><path fill="rgb(34,116,165)" stroke="none" paint-order="stroke" d="M 88.44481658935547 183.09091186523438 L 88.50871659070253 183.09091186523438 L 88.50871659070253 498.9090881347656 L 88.44481658935547 498.9090881347656 L 88.44481658935547 183.09091186523438" fill-opacity="1" clip-path="url(#kqySBfbEUwEl)"/><path fill="rgb(34,116,165)" stroke="none" paint-order="stroke" d="M 88.46526336669922 183.09091186523438 L 88.52916336804628 183.09091186523438 L 88.52916336804628 498.9090881347656 L 88.46526336669922 498.9090881347656 L 88.46526336669922 183.09091186523438" fill-opacity="1" clip-path="url(#kqySBfbEUwEl)"/><path fill="rgb(34,116,165)" stroke="none" paint-order="stroke" d="M 88.48699188232422 183.09091186523438 L 88.55089188367128 183.09091186523438 L 88.55089188367128 498.9090881347656 L 88.48699188232422 498.9090881347656 L 88.48699188232422 183.09091186523438" fill-opacity="1" clip-path="url(#kqySBfbEUwEl)"/><path fill="rgb(34,116,165)" stroke="none" paint-order="stroke" d="M 88.50743865966797 183.09091186523438 L 88.57133866101503 183.09091186523438 L 88.57133866101503 498.9090881347656 L 88.50743865966797 498.9090881347656 L 88.50743865966797 183.09091186523438" fill-opacity="1" clip-path="url(#kqySBfbEUwEl)"/><path fill="rgb(34,116,165)" stroke="none" paint-order="stroke" d="M 88.52916717529297 183.09091186523438 L 88.59306717664003 183.09091186523438 L 88.59306717664003 498.9090881347656 L 88.52916717529297 498.9090881347656 L 88.52916717529297 183.09091186523438" fill-opacity="1" clip-path="url(#kqySBfbEUwEl)"/><path fill="rgb(34,116,165)" stroke="none" paint-order="stroke" d="M 88.54961395263672 183.09091186523438 L 88.61351395398378 183.09091186523438 L 88.61351395398378 498.9090881347656 L 88.54961395263672 498.9090881347656 L 88.54961395263672 183.09091186523438" fill-opacity="1" clip-path="url(#kqySBfbEUwEl)"/><path fill="rgb(34,116,165)" stroke="none" paint-order="stroke" d="M 88.57134246826172 183.09091186523438 L 88.63524246960878 183.09091186523438 L 88.63524246960878 498.9090881347656 L 88.57134246826172 498.9090881347656 L 88.57134246826172 183.09091186523438" fill-opacity="1" clip-path="url(#kqySBfbEUwEl)"/><path fill="rgb(34,116,165)" stroke="none" paint-order="stroke" d="M 88.59306335449219 183.09091186523438 L 88.65696335583925 183.09091186523438 L 88.65696335583925 498.9090881347656 L 88.59306335449219 498.9090881347656 L 88.59306335449219 183.09091186523438" fill-opacity="1" clip-path="url(#kqySBfbEUwEl)"/><path fill="rgb(34,116,165)" stroke="none" paint-order="stroke" d="M 88.61351776123047 183.09091186523438 L 88.67741776257753 183.09091186523438 L 88.67741776257753 498.9090881347656 L 88.61351776123047 498.9090881347656 L 88.61351776123047 183.09091186523438" fill-opacity="1" clip-path="url(#kqySBfbEUwEl)"/><path fill="rgb(34,116,165)" stroke="none" paint-order="stroke" d="M 88.63523864746094 183.09091186523438 L 88.699138648808 183.09091186523438 L 88.699138648808 498.9090881347656 L 88.63523864746094 498.9090881347656 L 88.63523864746094 183.09091186523438" fill-opacity="1" clip-path="url(#kqySBfbEUwEl)"/><path fill="rgb(34,116,165)" stroke="none" paint-order="stroke" d="M 88.65696716308594 183.09091186523438 L 88.720867164433 183.09091186523438 L 88.720867164433 498.9090881347656 L 88.65696716308594 498.9090881347656 L 88.65696716308594 183.09091186523438" fill-opacity="1" clip-path="url(#kqySBfbEUwEl)"/><path fill="rgb(34,116,165)" stroke="none" paint-order="stroke" d="M 88.67869567871094 183.09091186523438 L 88.742595680058 183.09091186523438 L 88.742595680058 498.9090881347656 L 88.67869567871094 498.9090881347656 L 88.67869567871094 183.09091186523438" fill-opacity="1" clip-path="url(#kqySBfbEUwEl)"/><path fill="rgb(34,116,165)" stroke="none" paint-order="stroke" d="M 88.69914245605469 183.09091186523438 L 88.76304245740175 183.09091186523438 L 88.76304245740175 498.9090881347656 L 88.69914245605469 498.9090881347656 L 88.69914245605469 183.09091186523438" fill-opacity="1" clip-path="url(#kqySBfbEUwEl)"/><path fill="rgb(34,116,165)" stroke="none" paint-order="stroke" d="M 88.72086334228516 183.09091186523438 L 88.78476334363222 183.09091186523438 L 88.78476334363222 498.9090881347656 L 88.72086334228516 498.9090881347656 L 88.72086334228516 183.09091186523438" fill-opacity="1" clip-path="url(#kqySBfbEUwEl)"/><path fill="rgb(34,116,165)" stroke="none" paint-order="stroke" d="M 88.74259185791016 183.09091186523438 L 88.80649185925722 183.09091186523438 L 88.80649185925722 498.9090881347656 L 88.74259185791016 498.9090881347656 L 88.74259185791016 183.09091186523438" fill-opacity="1" clip-path="url(#kqySBfbEUwEl)"/><path fill="rgb(34,116,165)" stroke="none" paint-order="stroke" d="M 88.7630386352539 183.09091186523438 L 88.82693863660097 183.09091186523438 L 88.82693863660097 498.9090881347656 L 88.7630386352539 498.9090881347656 L 88.7630386352539 183.09091186523438" fill-opacity="1" clip-path="url(#kqySBfbEUwEl)"/><path fill="rgb(34,116,165)" stroke="none" paint-order="stroke" d="M 88.78348541259766 183.09091186523438 L 88.84738541394472 183.09091186523438 L 88.84738541394472 498.9090881347656 L 88.78348541259766 498.9090881347656 L 88.78348541259766 183.09091186523438" fill-opacity="1" clip-path="url(#kqySBfbEUwEl)"/><path fill="rgb(34,116,165)" stroke="none" paint-order="stroke" d="M 88.81160736083984 183.09091186523438 L 88.87550736218691 183.09091186523438 L 88.87550736218691 498.9090881347656 L 88.81160736083984 498.9090881347656 L 88.81160736083984 183.09091186523438" fill-opacity="1" clip-path="url(#kqySBfbEUwEl)"/><path fill="rgb(34,116,165)" stroke="none" paint-order="stroke" d="M 88.82949829101562 183.09091186523438 L 88.89339829236269 183.09091186523438 L 88.89339829236269 498.9090881347656 L 88.82949829101562 498.9090881347656 L 88.82949829101562 183.09091186523438" fill-opacity="1" clip-path="url(#kqySBfbEUwEl)"/><path fill="rgb(34,116,165)" stroke="none" paint-order="stroke" d="M 88.84866333007812 183.09091186523438 L 88.91256333142519 183.09091186523438 L 88.91256333142519 498.9090881347656 L 88.84866333007812 498.9090881347656 L 88.84866333007812 183.09091186523438" fill-opacity="1" clip-path="url(#kqySBfbEUwEl)"/><path fill="rgb(34,116,165)" stroke="none" paint-order="stroke" d="M 88.8691177368164 183.09091186523438 L 88.93301773816347 183.09091186523438 L 88.93301773816347 498.9090881347656 L 88.8691177368164 498.9090881347656 L 88.8691177368164 183.09091186523438" fill-opacity="1" clip-path="url(#kqySBfbEUwEl)"/><path fill="rgb(34,116,165)" stroke="none" paint-order="stroke" d="M 88.89083862304688 183.09091186523438 L 88.95473862439394 183.09091186523438 L 88.95473862439394 498.9090881347656 L 88.89083862304688 498.9090881347656 L 88.89083862304688 183.09091186523438" fill-opacity="1" clip-path="url(#kqySBfbEUwEl)"/><path fill="rgb(34,116,165)" stroke="none" paint-order="stroke" d="M 88.91256713867188 183.09091186523438 L 88.97646714001894 183.09091186523438 L 88.97646714001894 498.9090881347656 L 88.91256713867188 498.9090881347656 L 88.91256713867188 183.09091186523438" fill-opacity="1" clip-path="url(#kqySBfbEUwEl)"/><path fill="rgb(34,116,165)" stroke="none" paint-order="stroke" d="M 88.93429565429688 183.09091186523438 L 88.99819565564394 183.09091186523438 L 88.99819565564394 498.9090881347656 L 88.93429565429688 498.9090881347656 L 88.93429565429688 183.09091186523438" fill-opacity="1" clip-path="url(#kqySBfbEUwEl)"/><path fill="rgb(34,116,165)" stroke="none" paint-order="stroke" d="M 88.95474243164062 183.09091186523438 L 89.01864243298769 183.09091186523438 L 89.01864243298769 498.9090881347656 L 88.95474243164062 498.9090881347656 L 88.95474243164062 183.09091186523438" fill-opacity="1" clip-path="url(#kqySBfbEUwEl)"/><path fill="rgb(34,116,165)" stroke="none" paint-order="stroke" d="M 88.97518920898438 183.09091186523438 L 89.03908921033144 183.09091186523438 L 89.03908921033144 498.9090881347656 L 88.97518920898438 498.9090881347656 L 88.97518920898438 183.09091186523438" fill-opacity="1" clip-path="url(#kqySBfbEUwEl)"/><path fill="rgb(34,116,165)" stroke="none" paint-order="stroke" d="M 88.99691772460938 183.09091186523438 L 89.06081772595644 183.09091186523438 L 89.06081772595644 498.9090881347656 L 88.99691772460938 498.9090881347656 L 88.99691772460938 183.09091186523438" fill-opacity="1" clip-path="url(#kqySBfbEUwEl)"/><path fill="rgb(34,116,165)" stroke="none" paint-order="stroke" d="M 89.01863861083984 183.09091186523438 L 89.08253861218691 183.09091186523438 L 89.08253861218691 498.9090881347656 L 89.01863861083984 498.9090881347656 L 89.01863861083984 183.09091186523438" fill-opacity="1" clip-path="url(#kqySBfbEUwEl)"/><path fill="rgb(34,116,165)" stroke="none" paint-order="stroke" d="M 89.04036712646484 183.09091186523438 L 89.10426712781191 183.09091186523438 L 89.10426712781191 498.9090881347656 L 89.04036712646484 498.9090881347656 L 89.04036712646484 183.09091186523438" fill-opacity="1" clip-path="url(#kqySBfbEUwEl)"/><path fill="rgb(34,116,165)" stroke="none" paint-order="stroke" d="M 89.0608139038086 183.09091186523438 L 89.12471390515566 183.09091186523438 L 89.12471390515566 498.9090881347656 L 89.0608139038086 498.9090881347656 L 89.0608139038086 183.09091186523438" fill-opacity="1" clip-path="url(#kqySBfbEUwEl)"/><path fill="rgb(34,116,165)" stroke="none" paint-order="stroke" d="M 89.0825424194336 183.09091186523438 L 89.14644242078066 183.09091186523438 L 89.14644242078066 498.9090881347656 L 89.0825424194336 498.9090881347656 L 89.0825424194336 183.09091186523438" fill-opacity="1" clip-path="url(#kqySBfbEUwEl)"/><path fill="rgb(34,116,165)" stroke="none" paint-order="stroke" d="M 89.10298919677734 183.09091186523438 L 89.16688919812441 183.09091186523438 L 89.16688919812441 498.9090881347656 L 89.10298919677734 498.9090881347656 L 89.10298919677734 183.09091186523438" fill-opacity="1" clip-path="url(#kqySBfbEUwEl)"/><path fill="rgb(34,116,165)" stroke="none" paint-order="stroke" d="M 89.12471771240234 183.09091186523438 L 89.18861771374941 183.09091186523438 L 89.18861771374941 498.9090881347656 L 89.12471771240234 498.9090881347656 L 89.12471771240234 183.09091186523438" fill-opacity="1" clip-path="url(#kqySBfbEUwEl)"/><path fill="rgb(34,116,165)" stroke="none" paint-order="stroke" d="M 89.1451644897461 183.09091186523438 L 89.20906449109316 183.09091186523438 L 89.20906449109316 498.9090881347656 L 89.1451644897461 498.9090881347656 L 89.1451644897461 183.09091186523438" fill-opacity="1" clip-path="url(#kqySBfbEUwEl)"/><path fill="rgb(34,116,165)" stroke="none" paint-order="stroke" d="M 89.16688537597656 183.09091186523438 L 89.23078537732363 183.09091186523438 L 89.23078537732363 498.9090881347656 L 89.16688537597656 498.9090881347656 L 89.16688537597656 183.09091186523438" fill-opacity="1" clip-path="url(#kqySBfbEUwEl)"/><path fill="rgb(34,116,165)" stroke="none" paint-order="stroke" d="M 89.18861389160156 183.09091186523438 L 89.25251389294863 183.09091186523438 L 89.25251389294863 498.9090881347656 L 89.18861389160156 498.9090881347656 L 89.18861389160156 183.09091186523438" fill-opacity="1" clip-path="url(#kqySBfbEUwEl)"/><path fill="rgb(34,116,165)" stroke="none" paint-order="stroke" d="M 89.21161651611328 183.09091186523438 L 89.27551651746035 183.09091186523438 L 89.27551651746035 498.9090881347656 L 89.21161651611328 498.9090881347656 L 89.21161651611328 183.09091186523438" fill-opacity="1" clip-path="url(#kqySBfbEUwEl)"/><path fill="rgb(34,116,165)" stroke="none" paint-order="stroke" d="M 89.23206329345703 183.09091186523438 L 89.2959632948041 183.09091186523438 L 89.2959632948041 498.9090881347656 L 89.23206329345703 498.9090881347656 L 89.23206329345703 183.09091186523438" fill-opacity="1" clip-path="url(#kqySBfbEUwEl)"/><path fill="rgb(34,116,165)" stroke="none" paint-order="stroke" d="M 89.25634765625 183.09091186523438 L 89.32024765759706 183.09091186523438 L 89.32024765759706 498.9090881347656 L 89.25634765625 498.9090881347656 L 89.25634765625 183.09091186523438" fill-opacity="1" clip-path="url(#kqySBfbEUwEl)"/><path fill="rgb(34,116,165)" stroke="none" paint-order="stroke" d="M 89.27423858642578 183.09091186523438 L 89.33813858777285 183.09091186523438 L 89.33813858777285 498.9090881347656 L 89.27423858642578 498.9090881347656 L 89.27423858642578 183.09091186523438" fill-opacity="1" clip-path="url(#kqySBfbEUwEl)"/><path fill="rgb(34,116,165)" stroke="none" paint-order="stroke" d="M 89.2972412109375 183.09091186523438 L 89.36114121228456 183.09091186523438 L 89.36114121228456 498.9090881347656 L 89.2972412109375 498.9090881347656 L 89.2972412109375 183.09091186523438" fill-opacity="1" clip-path="url(#kqySBfbEUwEl)"/><path fill="rgb(34,116,165)" stroke="none" paint-order="stroke" d="M 89.31769561767578 183.09091186523438 L 89.38159561902285 183.09091186523438 L 89.38159561902285 498.9090881347656 L 89.31769561767578 498.9090881347656 L 89.31769561767578 183.09091186523438" fill-opacity="1" clip-path="url(#kqySBfbEUwEl)"/><path fill="rgb(143,45,86)" stroke="none" paint-order="stroke" d="M 58.5 551.5454711914062 L 89.33686256408691 551.5454711914062 L 89.33686256408691 604.1818351745605 L 58.5 604.1818351745605 L 58.5 551.5454711914062" fill-opacity="1" clip-path="url(#VvqcDdaExslD)"/><path fill="none" stroke="rgb(0,0,0)" paint-order="fill" d="M 58.5 77.81818389892578 L 89.33686256408691 77.81818389892578 L 89.33686256408691 604.1818313598633 L 58.5 604.1818313598633 L 58.5 77.81818389892578" stroke-opacity="1" stroke-linejoin="bevel" stroke-miterlimit="10" stroke-dasharray="" clip-path="url(#oPeazwzTlvLy)"/><path fill="none" stroke="rgb(0,0,0)" paint-order="fill" d="M 58.5 630.5 L 1336.5 630.5" stroke-opacity="1" stroke-linejoin="bevel" stroke-miterlimit="10" stroke-dasharray=""/><path fill="none" stroke="rgb(0,0,0)" paint-order="fill" d="M 58.5 636.5 L 58.5 628.5 M 314.5 636.5 L 314.5 628.5 M 569.5 636.5 L 569.5 628.5 M 825.5 636.5 L 825.5 628.5 M 1080.5 636.5 L 1080.5 628.5 M 1336.5 636.5 L 1336.5 628.5" stroke-opacity="1" stroke-linejoin="bevel" stroke-miterlimit="10" stroke-dasharray=""/><path fill="none" stroke="rgb(0,0,0)" paint-order="fill" d="M 58.5 634.5 L 58.5 630.5 M 109.5 634.5 L 109.5 630.5 M 160.5 634.5 L 160.5 630.5 M 211.5 634.5 L 211.5 630.5 M 262.5 634.5 L 262.5 630.5 M 314.5 634.5 L 314.5 630.5 M 365.5 634.5 L 365.5 630.5 M 416.5 634.5 L 416.5 630.5 M 467.5 634.5 L 467.5 630.5 M 518.5 634.5 L 518.5 630.5 M 569.5 634.5 L 569.5 630.5 M 620.5 634.5 L 620.5 630.5 M 671.5 634.5 L 671.5 630.5 M 723.5 634.5 L 723.5 630.5 M 774.5 634.5 L 774.5 630.5 M 825.5 634.5 L 825.5 630.5 M 876.5 634.5 L 876.5 630.5 M 927.5 634.5 L 927.5 630.5 M 978.5 634.5 L 978.5 630.5 M 1029.5 634.5 L 1029.5 630.5 M 1080.5 634.5 L 1080.5 630.5 M 1132.5 634.5 L 1132.5 630.5 M 1183.5 634.5 L 1183.5 630.5 M 1234.5 634.5 L 1234.5 630.5 M 1285.5 634.5 L 1285.5 630.5 M 1336.5 634.5 L 1336.5 630.5" stroke-opacity="1" stroke-linejoin="bevel" stroke-miterlimit="10" stroke-dasharray=""/><text fill="rgb(68,68,68)" stroke="none" font-family="helvetica" font-size="11px" font-style="normal" font-weight="normal" text-decoration="normal" x="54.94166660308838" y="648.89013671875" text-anchor="start" dominant-baseline="alphabetic" transform="matrix(1, 0, 0, 1, 0.5, 0.5)" fill-opacity="1">0</text><text fill="rgb(68,68,68)" stroke="none" font-family="helvetica" font-size="11px" font-style="normal" font-weight="normal" text-decoration="normal" x="304.42500591278076" y="648.89013671875" text-anchor="start" dominant-baseline="alphabetic" transform="matrix(1, 0, 0, 1, 0.5, 0.5)" fill-opacity="1">200</text><text fill="rgb(68,68,68)" stroke="none" font-family="helvetica" font-size="11px" font-style="normal" font-weight="normal" text-decoration="normal" x="560.0250120162964" y="648.89013671875" text-anchor="start" dominant-baseline="alphabetic" transform="matrix(1, 0, 0, 1, 0.5, 0.5)" fill-opacity="1">400</text><text fill="rgb(68,68,68)" stroke="none" font-family="helvetica" font-size="11px" font-style="normal" font-weight="normal" text-decoration="normal" x="815.6249876022339" y="648.89013671875" text-anchor="start" dominant-baseline="alphabetic" transform="matrix(1, 0, 0, 1, 0.5, 0.5)" fill-opacity="1">600</text><text fill="rgb(68,68,68)" stroke="none" font-family="helvetica" font-size="11px" font-style="normal" font-weight="normal" text-decoration="normal" x="1071.2250242233276" y="648.89013671875" text-anchor="start" dominant-baseline="alphabetic" transform="matrix(1, 0, 0, 1, 0.5, 0.5)" fill-opacity="1">800</text><text fill="rgb(68,68,68)" stroke="none" font-family="helvetica" font-size="11px" font-style="normal" font-weight="normal" text-decoration="normal" x="1323.7666664123535" y="648.89013671875" text-anchor="start" dominant-baseline="alphabetic" transform="matrix(1, 0, 0, 1, 0.5, 0.5)" fill-opacity="1">1000</text><text fill="rgb(68,68,68)" stroke="none" font-family="helvetica" font-size="15pt" font-style="italic" font-weight="normal" text-decoration="normal" x="666.4416675567627" y="676.06982421875" text-anchor="start" dominant-baseline="alphabetic" transform="matrix(1, 0, 0, 1, 0.5, 0.5)" fill-opacity="1">time(s)</text><path fill="none" stroke="rgb(0,0,0)" paint-order="fill" d="M 58.5 630.5 L 58.5 51.5" stroke-opacity="1" stroke-linejoin="bevel" stroke-miterlimit="10" stroke-dasharray=""/><path fill="none" stroke="rgb(0,0,0)" paint-order="fill" d="M 52.5 551.5 L 60.5 551.5 M 52.5 446.5 L 60.5 446.5 M 52.5 341.5 L 60.5 341.5 M 52.5 235.5 L 60.5 235.5 M 52.5 130.5 L 60.5 130.5" stroke-opacity="1" stroke-linejoin="bevel" stroke-miterlimit="10" stroke-dasharray=""/><path fill="none" stroke="rgb(0,0,0)" paint-order="fill" d="M 54.5 572.5 L 58.5 572.5 M 54.5 593.5 L 58.5 593.5 M 54.5 614.5 L 58.5 614.5 M 54.5 551.5 L 58.5 551.5 M 54.5 530.5 L 58.5 530.5 M 54.5 509.5 L 58.5 509.5 M 54.5 488.5 L 58.5 488.5 M 54.5 467.5 L 58.5 467.5 M 54.5 446.5 L 58.5 446.5 M 54.5 425.5 L 58.5 425.5 M 54.5 404.5 L 58.5 404.5 M 54.5 383.5 L 58.5 383.5 M 54.5 362.5 L 58.5 362.5 M 54.5 341.5 L 58.5 341.5 M 54.5 319.5 L 58.5 319.5 M 54.5 298.5 L 58.5 298.5 M 54.5 277.5 L 58.5 277.5 M 54.5 256.5 L 58.5 256.5 M 54.5 235.5 L 58.5 235.5 M 54.5 214.5 L 58.5 214.5 M 54.5 193.5 L 58.5 193.5 M 54.5 172.5 L 58.5 172.5 M 54.5 151.5 L 58.5 151.5 M 54.5 130.5 L 58.5 130.5 M 54.5 109.5 L 58.5 109.5 M 54.5 88.5 L 58.5 88.5 M 54.5 67.5 L 58.5 67.5" stroke-opacity="1" stroke-linejoin="bevel" stroke-miterlimit="10" stroke-dasharray=""/><text fill="rgb(68,68,68)" stroke="none" font-family="helvetica" font-size="11px" font-style="normal" font-weight="normal" text-decoration="normal" x="34.46666622161865" y="554.9905395507812" text-anchor="start" dominant-baseline="alphabetic" transform="matrix(1, 0, 0, 1, 0.5, 0.5)" fill-opacity="1">−2</text><text fill="rgb(68,68,68)" stroke="none" font-family="helvetica" font-size="11px" font-style="normal" font-weight="normal" text-decoration="normal" x="34.46666622161865" y="449.7178039550781" text-anchor="start" dominant-baseline="alphabetic" transform="matrix(1, 0, 0, 1, 0.5, 0.5)" fill-opacity="1">−1</text><text fill="rgb(68,68,68)" stroke="none" font-family="helvetica" font-size="11px" font-style="normal" font-weight="normal" text-decoration="normal" x="40.88333320617676" y="344.445068359375" text-anchor="start" dominant-baseline="alphabetic" transform="matrix(1, 0, 0, 1, 0.5, 0.5)" fill-opacity="1">0</text><text fill="rgb(68,68,68)" stroke="none" font-family="helvetica" font-size="11px" font-style="normal" font-weight="normal" text-decoration="normal" x="40.88333320617676" y="239.17234802246094" text-anchor="start" dominant-baseline="alphabetic" transform="matrix(1, 0, 0, 1, 0.5, 0.5)" fill-opacity="1">1</text><text fill="rgb(68,68,68)" stroke="none" font-family="helvetica" font-size="11px" font-style="normal" font-weight="normal" text-decoration="normal" x="40.88333320617676" y="133.8996124267578" text-anchor="start" dominant-baseline="alphabetic" transform="matrix(1, 0, 0, 1, 0.5, 0.5)" fill-opacity="1">2</text><text fill="rgb(68,68,68)" stroke="none" font-family="helvetica" font-size="15pt" font-style="italic" font-weight="normal" text-decoration="normal" x="-11.316666603088379" y="336.076171875" text-anchor="start" dominant-baseline="alphabetic" transform="matrix(6.123233995736766e-17, -1, 1, 6.123233995736766e-17, -313.53333377838135, 367.46666622161865)" fill-opacity="1">students</text><path fill="rgb(255,255,255)" stroke="rgb(229,229,229)" paint-order="fill" d="M 1128.2333374023438 61.5 L 1326.5 61.5 L 1326.5 400.5 L 1128.2333374023438 400.5 L 1128.2333374023438 61.5" fill-opacity="0.9490196078431372" clip-path="url(#xCOlKGOoRJZJ)" stroke-opacity="0.5019607843137255" stroke-linejoin="bevel" stroke-miterlimit="10" stroke-dasharray=""/><g clip-path="url(#xCOlKGOoRJZJ)"><text fill="rgb(68,68,68)" stroke="none" font-family="helvetica" font-size="13px" font-style="normal" font-weight="normal" text-decoration="normal" x="1162.7333374023438" y="81" text-anchor="start" dominant-baseline="central" transform="matrix(1, 0, 0, 1, 0.5, 0.5)" fill-opacity="1">wavelength</text></g><path fill="rgb(0,255,40)" stroke="none" paint-order="stroke" d="M 1140.2333374023438 73.5 L 1156.2333374023438 73.5 L 1156.2333374023438 89.5 L 1140.2333374023438 89.5 L 1140.2333374023438 73.5" fill-opacity="1" clip-path="url(#xCOlKGOoRJZJ)"/><g clip-path="url(#xCOlKGOoRJZJ)"><text fill="rgb(68,68,68)" stroke="none" font-family="helvetica" font-size="13px" font-style="normal" font-weight="normal" text-decoration="normal" x="1162.7333374023438" y="104" text-anchor="start" dominant-baseline="central" transform="matrix(1, 0, 0, 1, 0.5, 0.5)" fill-opacity="1">solution</text></g><path fill="rgb(251,0,7)" stroke="none" paint-order="stroke" d="M 1140.2333374023438 96.5 L 1156.2333374023438 96.5 L 1156.2333374023438 112.5 L 1140.2333374023438 112.5 L 1140.2333374023438 96.5" fill-opacity="1" clip-path="url(#xCOlKGOoRJZJ)"/><g clip-path="url(#xCOlKGOoRJZJ)"><text fill="rgb(68,68,68)" stroke="none" font-family="helvetica" font-size="13px" font-style="normal" font-weight="normal" text-decoration="normal" x="1162.7333374023438" y="127" text-anchor="start" dominant-baseline="central" transform="matrix(1, 0, 0, 1, 0.5, 0.5)" fill-opacity="1">laser</text></g><g clip-path="url(#xCOlKGOoRJZJ)"><text fill="rgb(68,68,68)" stroke="none" font-family="helvetica" font-size="13px" font-style="normal" font-weight="normal" text-decoration="normal" x="1162.7333374023438" y="150" text-anchor="start" dominant-baseline="central" transform="matrix(1, 0, 0, 1, 0.5, 0.5)" fill-opacity="1">ruler</text></g><g clip-path="url(#xCOlKGOoRJZJ)"><text fill="rgb(68,68,68)" stroke="none" font-family="helvetica" font-size="13px" font-style="normal" font-weight="normal" text-decoration="normal" x="1162.7333374023438" y="173" text-anchor="start" dominant-baseline="central" transform="matrix(1, 0, 0, 1, 0.5, 0.5)" fill-opacity="1">restarts</text></g><g clip-path="url(#xCOlKGOoRJZJ)"><text fill="rgb(68,68,68)" stroke="none" font-family="helvetica" font-size="13px" font-style="normal" font-weight="normal" text-decoration="normal" x="1162.7333374023438" y="196" text-anchor="start" dominant-baseline="central" transform="matrix(1, 0, 0, 1, 0.5, 0.5)" fill-opacity="1">transmittance_absorbance</text></g><g clip-path="url(#xCOlKGOoRJZJ)"><text fill="rgb(68,68,68)" stroke="none" font-family="helvetica" font-size="13px" font-style="normal" font-weight="normal" text-decoration="normal" x="1162.7333374023438" y="219" text-anchor="start" dominant-baseline="central" transform="matrix(1, 0, 0, 1, 0.5, 0.5)" fill-opacity="1">magnifier</text></g><g clip-path="url(#xCOlKGOoRJZJ)"><text fill="rgb(68,68,68)" stroke="none" font-family="helvetica" font-size="13px" font-style="normal" font-weight="normal" text-decoration="normal" x="1162.7333374023438" y="242" text-anchor="start" dominant-baseline="central" transform="matrix(1, 0, 0, 1, 0.5, 0.5)" fill-opacity="1">concentration</text></g><g clip-path="url(#xCOlKGOoRJZJ)"><text fill="rgb(68,68,68)" stroke="none" font-family="helvetica" font-size="13px" font-style="normal" font-weight="normal" text-decoration="normal" x="1162.7333374023438" y="265" text-anchor="start" dominant-baseline="central" transform="matrix(1, 0, 0, 1, 0.5, 0.5)" fill-opacity="1">flask</text></g><g clip-path="url(#xCOlKGOoRJZJ)"><text fill="rgb(68,68,68)" stroke="none" font-family="helvetica" font-size="13px" font-style="normal" font-weight="normal" text-decoration="normal" x="1162.7333374023438" y="288" text-anchor="start" dominant-baseline="central" transform="matrix(1, 0, 0, 1, 0.5, 0.5)" fill-opacity="1">pdf</text></g><path fill="rgb(239,185,203)" stroke="none" paint-order="stroke" d="M 1140.2333374023438 280.5 L 1156.2333374023438 280.5 L 1156.2333374023438 296.5 L 1140.2333374023438 296.5 L 1140.2333374023438 280.5" fill-opacity="1" clip-path="url(#xCOlKGOoRJZJ)"/><g clip-path="url(#xCOlKGOoRJZJ)"><text fill="rgb(68,68,68)" stroke="none" font-family="helvetica" font-size="13px" font-style="normal" font-weight="normal" text-decoration="normal" x="1162.7333374023438" y="311" text-anchor="start" dominant-baseline="central" transform="matrix(1, 0, 0, 1, 0.5, 0.5)" fill-opacity="1">concentrationlab</text></g><path fill="rgb(34,116,165)" stroke="none" paint-order="stroke" d="M 1140.2333374023438 303.5 L 1156.2333374023438 303.5 L 1156.2333374023438 319.5 L 1140.2333374023438 319.5 L 1140.2333374023438 303.5" fill-opacity="1" clip-path="url(#xCOlKGOoRJZJ)"/><g clip-path="url(#xCOlKGOoRJZJ)"><text fill="rgb(68,68,68)" stroke="none" font-family="helvetica" font-size="13px" font-style="normal" font-weight="normal" text-decoration="normal" x="1162.7333374023438" y="334" text-anchor="start" dominant-baseline="central" transform="matrix(1, 0, 0, 1, 0.5, 0.5)" fill-opacity="1">wavelength_slider</text></g><g clip-path="url(#xCOlKGOoRJZJ)"><text fill="rgb(68,68,68)" stroke="none" font-family="helvetica" font-size="13px" font-style="normal" font-weight="normal" text-decoration="normal" x="1162.7333374023438" y="357" text-anchor="start" dominant-baseline="central" transform="matrix(1, 0, 0, 1, 0.5, 0.5)" fill-opacity="1">ruler measuring</text></g><g clip-path="url(#xCOlKGOoRJZJ)"><text fill="rgb(68,68,68)" stroke="none" font-family="helvetica" font-size="13px" font-style="normal" font-weight="normal" text-decoration="normal" x="1162.7333374023438" y="380" text-anchor="start" dominant-baseline="central" transform="matrix(1, 0, 0, 1, 0.5, 0.5)" fill-opacity="1">dependent variable</text></g><path fill="rgb(143,45,86)" stroke="none" paint-order="stroke" d="M 1140.2333374023438 372.5 L 1156.2333374023438 372.5 L 1156.2333374023438 388.5 L 1140.2333374023438 388.5 L 1140.2333374023438 372.5" fill-opacity="1" clip-path="url(#xCOlKGOoRJZJ)"/><text fill="rgb(68,68,68)" stroke="none" font-family="helvetica" font-size="25pt" font-style="normal" font-weight="bold" text-decoration="normal" x="58" y="38.740885416666664" text-anchor="start" dominant-baseline="alphabetic" transform="matrix(1, 0, 0, 1, 0.5, 0.5)" fill-opacity="1">Timeline for student z8dtc572 with permutation 0321 for task 2</text></svg>