<svg version="1.1" xmlns="http://www.w3.org/2000/svg" width="1366" height="683"><defs><clipPath id="fAThblJnSLUk"><path fill="none" stroke="none" d="M 58.5 51.5 L 1336.5 51.5 L 1336.5 630.5 L 58.5 630.5 L 58.5 51.5"/></clipPath><clipPath id="kpfihkThGBHc"><path fill="none" stroke="none" d="M 58.5 51.5 L 1336.5 51.5 L 1336.5 630.5 L 58.5 630.5 L 58.5 51.5"/></clipPath><clipPath id="rTXWrXsuxHwE"><path fill="none" stroke="none" d="M 58.5 51.5 L 1336.5 51.5 L 1336.5 630.5 L 58.5 630.5 L 58.5 51.5"/></clipPath><clipPath id="CEUSdGIRXOdt"><path fill="none" stroke="none" d="M 58.5 51.5 L 1336.5 51.5 L 1336.5 630.5 L 58.5 630.5 L 58.5 51.5"/></clipPath><clipPath id="lDqShuFKShJG"><path fill="none" stroke="none" d="M 58.5 51.5 L 1336.5 51.5 L 1336.5 630.5 L 58.5 630.5 L 58.5 51.5"/></clipPath><clipPath id="vsMenAMyRMVV"><path fill="none" stroke="none" d="M 58.5 51.5 L 1336.5 51.5 L 1336.5 630.5 L 58.5 630.5 L 58.5 51.5"/></clipPath><clipPath id="sckhiWVoxISg"><path fill="none" stroke="none" d="M 58.5 51.5 L 1336.5 51.5 L 1336.5 630.5 L 58.5 630.5 L 58.5 51.5"/></clipPath><clipPath id="kSvTHTfNdatc"><path fill="none" stroke="none" d="M 58.5 51.5 L 1336.5 51.5 L 1336.5 630.5 L 58.5 630.5 L 58.5 51.5"/></clipPath><clipPath id="qtzSNcoPMfUZ"><path fill="none" stroke="none" d="M 58.5 51.5 L 1336.5 51.5 L 1336.5 630.5 L 58.5 630.5 L 58.5 51.5"/></clipPath><clipPath id="MimeTNNISaOG"><path fill="none" stroke="none" d="M 58.5 51.5 L 1336.5 51.5 L 1336.5 630.5 L 58.5 630.5 L 58.5 51.5"/></clipPath><clipPath id="iULnEGVEyRum"><path fill="none" stroke="none" d="M 58.5 51.5 L 1336.5 51.5 L 1336.5 630.5 L 58.5 630.5 L 58.5 51.5"/></clipPath><clipPath id="epxixBXUHCBN"><path fill="none" stroke="none" d="M 58.5 51.5 L 1336.5 51.5 L 1336.5 630.5 L 58.5 630.5 L 58.5 51.5"/></clipPath><clipPath id="gmWPkAIsnBih"><path fill="none" stroke="none" d="M 58.5 51.5 L 1336.5 51.5 L 1336.5 630.5 L 58.5 630.5 L 58.5 51.5"/></clipPath><clipPath id="HdLFlfqpZbCm"><path fill="none" stroke="none" d="M 58.5 51.5 L 1336.5 51.5 L 1336.5 630.5 L 58.5 630.5 L 58.5 51.5"/></clipPath><clipPath id="dOyDvclHSgcR"><path fill="none" stroke="none" d="M 58.5 51.5 L 1336.5 51.5 L 1336.5 630.5 L 58.5 630.5 L 58.5 51.5"/></clipPath><clipPath id="KKsnpalyyelq"><path fill="none" stroke="none" d="M 58.5 51.5 L 1336.5 51.5 L 1336.5 630.5 L 58.5 630.5 L 58.5 51.5"/></clipPath><clipPath id="tpfWNPwrGehm"><path fill="none" stroke="none" d="M 58.5 51.5 L 1336.5 51.5 L 1336.5 630.5 L 58.5 630.5 L 58.5 51.5"/></clipPath><clipPath id="TrQSdwJmSULh"><path fill="none" stroke="none" d="M 58.5 51.5 L 1336.5 51.5 L 1336.5 630.5 L 58.5 630.5 L 58.5 51.5"/></clipPath><clipPath id="CMGmNqfMxszA"><path fill="none" stroke="none" d="M 58.5 51.5 L 1336.5 51.5 L 1336.5 630.5 L 58.5 630.5 L 58.5 51.5"/></clipPath><clipPath id="uJJvlTZkLuKH"><path fill="none" stroke="none" d="M 58.5 51.5 L 1336.5 51.5 L 1336.5 630.5 L 58.5 630.5 L 58.5 51.5"/></clipPath><clipPath id="NAfQtqqfIlaQ"><path fill="none" stroke="none" d="M 58.5 51.5 L 1336.5 51.5 L 1336.5 630.5 L 58.5 630.5 L 58.5 51.5"/></clipPath></defs><path fill="rgb(255,255,255)" stroke="none" paint-order="stroke" d="M 0.5 0.5 L 1366.5 0.5 L 1366.5 683.5 L 0.5 683.5 L 0.5 0.5" fill-opacity="1"/><rect fill="#FFFFFF" stroke="none" x="58" y="51" width="1278" height="579" transform="matrix(1, 0, 0, 1, 0.5, 0.5)"/><path fill="rgb(255,255,255)" stroke="none" paint-order="stroke" d="M 58.5 51.5 L 1336.5 51.5 L 1336.5 630.5 L 58.5 630.5 L 58.5 51.5" fill-opacity="1"/><path fill="none" stroke="rgb(229,229,229)" paint-order="fill" d="M 58.5 51.5 L 1336.5 51.5 L 1336.5 630.5 L 58.5 630.5 L 58.5 51.5" stroke-opacity="1" stroke-linejoin="bevel" stroke-miterlimit="10" stroke-dasharray=""/><path fill="none" stroke="rgb(229,229,229)" paint-order="fill" d="M 314.5 630.5 L 314.5 51.5 M 569.5 630.5 L 569.5 51.5 M 825.5 630.5 L 825.5 51.5 M 1080.5 630.5 L 1080.5 51.5" stroke-opacity="1" stroke-linejoin="bevel" stroke-miterlimit="10" stroke-dasharray="" clip-path="url(#fAThblJnSLUk)"/><path fill="none" stroke="rgb(229,229,229)" paint-order="fill" d="M 58.5 551.5 L 1336.5 551.5 M 58.5 446.5 L 1336.5 446.5 M 58.5 341.5 L 1336.5 341.5 M 58.5 235.5 L 1336.5 235.5 M 58.5 130.5 L 1336.5 130.5" stroke-opacity="1" stroke-linejoin="bevel" stroke-miterlimit="10" stroke-dasharray="" clip-path="url(#kpfihkThGBHc)"/><path fill="rgb(0,255,40)" stroke="none" paint-order="stroke" d="M 58.5 77.81818389892578 L 110.61684036254883 77.81818389892578 L 110.61684036254883 130.45454788208008 L 58.5 130.45454788208008 L 58.5 77.81818389892578" fill-opacity="1" clip-path="url(#rTXWrXsuxHwE)"/><path fill="rgb(0,255,23)" stroke="none" paint-order="stroke" d="M 110.61683654785156 77.81818389892578 L 110.83026254177094 77.81818389892578 L 110.83026254177094 130.45454788208008 L 110.61683654785156 130.45454788208008 L 110.61683654785156 77.81818389892578" fill-opacity="1" clip-path="url(#rTXWrXsuxHwE)"/><path fill="rgb(0,255,0)" stroke="none" paint-order="stroke" d="M 110.83026885986328 77.81818389892578 L 111.02580286562443 77.81818389892578 L 111.02580286562443 130.45454788208008 L 110.83026885986328 130.45454788208008 L 110.83026885986328 77.81818389892578" fill-opacity="1" clip-path="url(#rTXWrXsuxHwE)"/><path fill="rgb(8,255,0)" stroke="none" paint-order="stroke" d="M 111.02580261230469 77.81818389892578 L 111.20855660736561 77.81818389892578 L 111.20855660736561 130.45454788208008 L 111.02580261230469 130.45454788208008 L 111.02580261230469 77.81818389892578" fill-opacity="1" clip-path="url(#rTXWrXsuxHwE)"/><path fill="rgb(14,255,0)" stroke="none" paint-order="stroke" d="M 111.20855712890625 77.81818389892578 L 111.38364313542843 77.81818389892578 L 111.38364313542843 130.45454788208008 L 111.20855712890625 130.45454788208008 L 111.20855712890625 77.81818389892578" fill-opacity="1" clip-path="url(#rTXWrXsuxHwE)"/><path fill="rgb(20,255,0)" stroke="none" paint-order="stroke" d="M 111.38363647460938 77.81818389892578 L 111.56766846776009 77.81818389892578 L 111.56766846776009 130.45454788208008 L 111.38363647460938 130.45454788208008 L 111.38363647460938 77.81818389892578" fill-opacity="1" clip-path="url(#rTXWrXsuxHwE)"/><path fill="rgb(25,255,0)" stroke="none" paint-order="stroke" d="M 111.56767272949219 77.81818389892578 L 111.94596073031425 77.81818389892578 L 111.94596073031425 130.45454788208008 L 111.56767272949219 130.45454788208008 L 111.56767272949219 77.81818389892578" fill-opacity="1" clip-path="url(#rTXWrXsuxHwE)"/><path fill="rgb(30,255,0)" stroke="none" paint-order="stroke" d="M 111.94596099853516 77.81818389892578 L 112.19133700430393 77.81818389892578 L 112.19133700430393 130.45454788208008 L 111.94596099853516 130.45454788208008 L 111.94596099853516 77.81818389892578" fill-opacity="1" clip-path="url(#rTXWrXsuxHwE)"/><path fill="rgb(35,255,0)" stroke="none" paint-order="stroke" d="M 112.19133758544922 77.81818389892578 L 112.34469757974148 77.81818389892578 L 112.34469757974148 130.45454788208008 L 112.19133758544922 130.45454788208008 L 112.19133758544922 77.81818389892578" fill-opacity="1" clip-path="url(#rTXWrXsuxHwE)"/><path fill="rgb(40,255,0)" stroke="none" paint-order="stroke" d="M 112.34469604492188 77.81818389892578 L 112.79455205798149 77.81818389892578 L 112.79455205798149 130.45454788208008 L 112.34469604492188 130.45454788208008 L 112.34469604492188 77.81818389892578" fill-opacity="1" clip-path="url(#rTXWrXsuxHwE)"/><path fill="rgb(44,255,0)" stroke="none" paint-order="stroke" d="M 112.7945556640625 77.81818389892578 L 113.01820565760136 77.81818389892578 L 113.01820565760136 130.45454788208008 L 112.7945556640625 130.45454788208008 L 112.7945556640625 77.81818389892578" fill-opacity="1" clip-path="url(#rTXWrXsuxHwE)"/><path fill="rgb(49,255,0)" stroke="none" paint-order="stroke" d="M 113.01820373535156 77.81818389892578 L 113.19328974187374 77.81818389892578 L 113.19328974187374 130.45454788208008 L 113.01820373535156 130.45454788208008 L 113.01820373535156 77.81818389892578" fill-opacity="1" clip-path="url(#rTXWrXsuxHwE)"/><path fill="rgb(53,255,0)" stroke="none" paint-order="stroke" d="M 113.19329071044922 77.81818389892578 L 775.8567428588867 77.81818389892578 L 775.8567428588867 130.45454788208008 L 113.19329071044922 130.45454788208008 L 113.19329071044922 77.81818389892578" fill-opacity="1" clip-path="url(#rTXWrXsuxHwE)"/><path fill="rgb(251,0,7)" stroke="none" paint-order="stroke" d="M 58.5 130.4545440673828 L 775.8567504882812 130.4545440673828 L 775.8567504882812 183.0909080505371 L 58.5 183.0909080505371 L 58.5 130.4545440673828" fill-opacity="1" clip-path="url(#CEUSdGIRXOdt)"/><path fill="rgb(105,29,48)" stroke="none" paint-order="stroke" d="M 118.04585266113281 183.09091186523438 L 118.10975266247988 183.09091186523438 L 118.10975266247988 498.9090881347656 L 118.04585266113281 498.9090881347656 L 118.04585266113281 183.09091186523438" fill-opacity="1" clip-path="url(#lDqShuFKShJG)"/><path fill="rgb(255,188,66)" stroke="none" paint-order="stroke" d="M 71.77458953857422 183.09091186523438 L 76.53386163711548 183.09091186523438 L 76.53386163711548 498.9090881347656 L 71.77458953857422 498.9090881347656 L 71.77458953857422 183.09091186523438" fill-opacity="1" clip-path="url(#vsMenAMyRMVV)"/><path fill="rgb(255,188,66)" stroke="none" paint-order="stroke" d="M 151.19078063964844 183.09091186523438 L 153.25091671943665 183.09091186523438 L 153.25091671943665 498.9090881347656 L 151.19078063964844 498.9090881347656 L 151.19078063964844 183.09091186523438" fill-opacity="1" clip-path="url(#vsMenAMyRMVV)"/><path fill="rgb(255,188,66)" stroke="none" paint-order="stroke" d="M 198.75283813476562 183.09091186523438 L 212.38782024383545 183.09091186523438 L 212.38782024383545 498.9090881347656 L 198.75283813476562 498.9090881347656 L 198.75283813476562 183.09091186523438" fill-opacity="1" clip-path="url(#vsMenAMyRMVV)"/><path fill="rgb(255,188,66)" stroke="none" paint-order="stroke" d="M 214.721435546875 183.09091186523438 L 219.38102340698242 183.09091186523438 L 219.38102340698242 498.9090881347656 L 214.721435546875 498.9090881347656 L 214.721435546875 183.09091186523438" fill-opacity="1" clip-path="url(#vsMenAMyRMVV)"/><path fill="rgb(255,188,66)" stroke="none" paint-order="stroke" d="M 227.37107849121094 183.09091186523438 L 229.47211050987244 183.09091186523438 L 229.47211050987244 498.9090881347656 L 227.37107849121094 498.9090881347656 L 227.37107849121094 183.09091186523438" fill-opacity="1" clip-path="url(#vsMenAMyRMVV)"/><path fill="rgb(162,174,187)" stroke="none" paint-order="stroke" d="M 356.40692138671875 183.09091186523438 L 356.4708213880658 183.09091186523438 L 356.4708213880658 498.9090881347656 L 356.40692138671875 498.9090881347656 L 356.40692138671875 183.09091186523438" fill-opacity="1" clip-path="url(#kSvTHTfNdatc)"/><path fill="rgb(255,188,66)" stroke="none" paint-order="stroke" d="M 349.28460693359375 183.09091186523438 L 352.66363883018494 183.09091186523438 L 352.66363883018494 498.9090881347656 L 349.28460693359375 498.9090881347656 L 349.28460693359375 183.09091186523438" fill-opacity="1" clip-path="url(#qtzSNcoPMfUZ)"/><path fill="rgb(255,188,66)" stroke="none" paint-order="stroke" d="M 423.072509765625 183.09091186523438 L 426.289235830307 183.09091186523438 L 426.289235830307 498.9090881347656 L 423.072509765625 498.9090881347656 L 423.072509765625 183.09091186523438" fill-opacity="1" clip-path="url(#qtzSNcoPMfUZ)"/><path fill="rgb(216,17,89)" stroke="none" paint-order="stroke" d="M 108.0710678100586 183.09091186523438 L 108.13496781140566 183.09091186523438 L 108.13496781140566 498.9090881347656 L 108.0710678100586 498.9090881347656 L 108.0710678100586 183.09091186523438" fill-opacity="1" clip-path="url(#MimeTNNISaOG)"/><path fill="rgb(33,131,128)" stroke="none" paint-order="stroke" d="M 431.7795104980469 183.09091186523438 L 433.05239844322205 183.09091186523438 L 433.05239844322205 498.9090881347656 L 431.7795104980469 498.9090881347656 L 431.7795104980469 183.09091186523438" fill-opacity="1" clip-path="url(#iULnEGVEyRum)"/><path fill="rgb(115,210,222)" stroke="none" paint-order="stroke" d="M 714.0858764648438 183.09091186523438 L 718.1626963615417 183.09091186523438 L 718.1626963615417 498.9090881347656 L 714.0858764648438 498.9090881347656 L 714.0858764648438 183.09091186523438" fill-opacity="1" clip-path="url(#epxixBXUHCBN)"/><path fill="rgb(115,210,222)" stroke="none" paint-order="stroke" d="M 734.4508056640625 183.09091186523438 L 734.8073676526546 183.09091186523438 L 734.8073676526546 498.9090881347656 L 734.4508056640625 498.9090881347656 L 734.4508056640625 183.09091186523438" fill-opacity="1" clip-path="url(#epxixBXUHCBN)"/><path fill="rgb(115,210,222)" stroke="none" paint-order="stroke" d="M 767.2532348632812 183.09091186523438 L 768.4852268695831 183.09091186523438 L 768.4852268695831 498.9090881347656 L 767.2532348632812 498.9090881347656 L 767.2532348632812 183.09091186523438" fill-opacity="1" clip-path="url(#epxixBXUHCBN)"/><path fill="rgb(28,49,68)" stroke="none" paint-order="stroke" d="M 154.1851348876953 183.09091186523438 L 165.27434062957764 183.09091186523438 L 165.27434062957764 498.9090881347656 L 154.1851348876953 498.9090881347656 L 154.1851348876953 183.09091186523438" fill-opacity="1" clip-path="url(#gmWPkAIsnBih)"/><path fill="rgb(28,49,68)" stroke="none" paint-order="stroke" d="M 190.3499755859375 183.09091186523438 L 192.0100976228714 183.09091186523438 L 192.0100976228714 498.9090881347656 L 190.3499755859375 498.9090881347656 L 190.3499755859375 183.09091186523438" fill-opacity="1" clip-path="url(#gmWPkAIsnBih)"/><path fill="rgb(28,49,68)" stroke="none" paint-order="stroke" d="M 312.62261962890625 183.09091186523438 L 323.6683740615845 183.09091186523438 L 323.6683740615845 498.9090881347656 L 312.62261962890625 498.9090881347656 L 312.62261962890625 183.09091186523438" fill-opacity="1" clip-path="url(#gmWPkAIsnBih)"/><path fill="rgb(28,49,68)" stroke="none" paint-order="stroke" d="M 674.8692016601562 183.09091186523438 L 675.6104416847229 183.09091186523438 L 675.6104416847229 498.9090881347656 L 674.8692016601562 498.9090881347656 L 674.8692016601562 183.09091186523438" fill-opacity="1" clip-path="url(#gmWPkAIsnBih)"/><path fill="rgb(28,49,68)" stroke="none" paint-order="stroke" d="M 704.3845825195312 183.09091186523438 L 706.2811344861984 183.09091186523438 L 706.2811344861984 498.9090881347656 L 704.3845825195312 498.9090881347656 L 704.3845825195312 183.09091186523438" fill-opacity="1" clip-path="url(#gmWPkAIsnBih)"/><path fill="rgb(28,49,68)" stroke="none" paint-order="stroke" d="M 731.1995849609375 183.09091186523438 L 732.9363869428635 183.09091186523438 L 732.9363869428635 498.9090881347656 L 731.1995849609375 498.9090881347656 L 731.1995849609375 183.09091186523438" fill-opacity="1" clip-path="url(#gmWPkAIsnBih)"/><path fill="rgb(28,49,68)" stroke="none" paint-order="stroke" d="M 764.795654296875 183.09091186523438 L 765.3451942801476 183.09091186523438 L 765.3451942801476 498.9090881347656 L 764.795654296875 498.9090881347656 L 764.795654296875 183.09091186523438" fill-opacity="1" clip-path="url(#gmWPkAIsnBih)"/><path fill="rgb(239,185,203)" stroke="none" paint-order="stroke" d="M 80.40875244140625 183.09091186523438 L 100.01455116271973 183.09091186523438 L 100.01455116271973 498.9090881347656 L 80.40875244140625 498.9090881347656 L 80.40875244140625 183.09091186523438" fill-opacity="1" clip-path="url(#HdLFlfqpZbCm)"/><path fill="rgb(239,185,203)" stroke="none" paint-order="stroke" d="M 102.6229476928711 183.09091186523438 L 105.40387558937073 183.09091186523438 L 105.40387558937073 498.9090881347656 L 102.6229476928711 498.9090881347656 L 102.6229476928711 183.09091186523438" fill-opacity="1" clip-path="url(#HdLFlfqpZbCm)"/><path fill="rgb(239,185,203)" stroke="none" paint-order="stroke" d="M 119.8797836303711 183.09091186523438 L 149.3159580230713 183.09091186523438 L 149.3159580230713 498.9090881347656 L 119.8797836303711 498.9090881347656 L 119.8797836303711 183.09091186523438" fill-opacity="1" clip-path="url(#HdLFlfqpZbCm)"/><path fill="rgb(239,185,203)" stroke="none" paint-order="stroke" d="M 166.62518310546875 183.09091186523438 L 188.82020950317383 183.09091186523438 L 188.82020950317383 498.9090881347656 L 166.62518310546875 498.9090881347656 L 166.62518310546875 183.09091186523438" fill-opacity="1" clip-path="url(#HdLFlfqpZbCm)"/><path fill="rgb(239,185,203)" stroke="none" paint-order="stroke" d="M 246.9960479736328 183.09091186523438 L 308.5470848083496 183.09091186523438 L 308.5470848083496 498.9090881347656 L 246.9960479736328 498.9090881347656 L 246.9960479736328 183.09091186523438" fill-opacity="1" clip-path="url(#HdLFlfqpZbCm)"/><path fill="rgb(239,185,203)" stroke="none" paint-order="stroke" d="M 359.92523193359375 183.09091186523438 L 420.81937408447266 183.09091186523438 L 420.81937408447266 498.9090881347656 L 359.92523193359375 498.9090881347656 L 359.92523193359375 183.09091186523438" fill-opacity="1" clip-path="url(#HdLFlfqpZbCm)"/><path fill="rgb(239,185,203)" stroke="none" paint-order="stroke" d="M 434.3278503417969 183.09091186523438 L 672.3387298583984 183.09091186523438 L 672.3387298583984 498.9090881347656 L 434.3278503417969 498.9090881347656 L 434.3278503417969 183.09091186523438" fill-opacity="1" clip-path="url(#HdLFlfqpZbCm)"/><path fill="rgb(239,185,203)" stroke="none" paint-order="stroke" d="M 679.7511596679688 183.09091186523438 L 702.9800872802734 183.09091186523438 L 702.9800872802734 498.9090881347656 L 679.7511596679688 498.9090881347656 L 679.7511596679688 183.09091186523438" fill-opacity="1" clip-path="url(#HdLFlfqpZbCm)"/><path fill="rgb(239,185,203)" stroke="none" paint-order="stroke" d="M 708.162353515625 183.09091186523438 L 710.268497467041 183.09091186523438 L 710.268497467041 498.9090881347656 L 708.162353515625 498.9090881347656 L 708.162353515625 183.09091186523438" fill-opacity="1" clip-path="url(#HdLFlfqpZbCm)"/><path fill="rgb(239,185,203)" stroke="none" paint-order="stroke" d="M 723.8063354492188 183.09091186523438 L 728.2435512542725 183.09091186523438 L 728.2435512542725 498.9090881347656 L 723.8063354492188 498.9090881347656 L 723.8063354492188 183.09091186523438" fill-opacity="1" clip-path="url(#HdLFlfqpZbCm)"/><path fill="rgb(239,185,203)" stroke="none" paint-order="stroke" d="M 738.232421875 183.09091186523438 L 763.6186141967773 183.09091186523438 L 763.6186141967773 498.9090881347656 L 738.232421875 498.9090881347656 L 738.232421875 183.09091186523438" fill-opacity="1" clip-path="url(#HdLFlfqpZbCm)"/><path fill="rgb(255,188,66)" stroke="none" paint-order="stroke" d="M 73.6494140625 498.9090881347656 L 75.41305410861969 498.9090881347656 L 75.41305410861969 551.5454521179199 L 73.6494140625 551.5454521179199 L 73.6494140625 498.9090881347656" fill-opacity="1" clip-path="url(#tpfWNPwrGehm)"/><path fill="rgb(255,188,66)" stroke="none" paint-order="stroke" d="M 151.88856506347656 498.9090881347656 L 199.91963958740234 498.9090881347656 L 199.91963958740234 551.5454521179199 L 151.88856506347656 551.5454521179199 L 151.88856506347656 498.9090881347656" fill-opacity="1" clip-path="url(#tpfWNPwrGehm)"/><path fill="rgb(255,188,66)" stroke="none" paint-order="stroke" d="M 201.13119506835938 498.9090881347656 L 203.80732703208923 498.9090881347656 L 203.80732703208923 551.5454521179199 L 201.13119506835938 551.5454521179199 L 201.13119506835938 498.9090881347656" fill-opacity="1" clip-path="url(#tpfWNPwrGehm)"/><path fill="rgb(255,188,66)" stroke="none" paint-order="stroke" d="M 211.4331512451172 498.9090881347656 L 211.66702523827553 498.9090881347656 L 211.66702523827553 551.5454521179199 L 211.4331512451172 551.5454521179199 L 211.4331512451172 498.9090881347656" fill-opacity="1" clip-path="url(#tpfWNPwrGehm)"/><path fill="rgb(255,188,66)" stroke="none" paint-order="stroke" d="M 212.0708770751953 498.9090881347656 L 214.9399871826172 498.9090881347656 L 214.9399871826172 551.5454521179199 L 212.0708770751953 551.5454521179199 L 212.0708770751953 498.9090881347656" fill-opacity="1" clip-path="url(#tpfWNPwrGehm)"/><path fill="rgb(255,188,66)" stroke="none" paint-order="stroke" d="M 216.49147033691406 498.9090881347656 L 775.8567047119141 498.9090881347656 L 775.8567047119141 551.5454521179199 L 216.49147033691406 551.5454521179199 L 216.49147033691406 498.9090881347656" fill-opacity="1" clip-path="url(#tpfWNPwrGehm)"/><path fill="rgb(143,45,86)" stroke="none" paint-order="stroke" d="M 58.5 551.5454711914062 L 118.04585266113281 551.5454711914062 L 118.04585266113281 604.1818351745605 L 58.5 604.1818351745605 L 58.5 551.5454711914062" fill-opacity="1" clip-path="url(#TrQSdwJmSULh)"/><path fill="rgb(63,136,197)" stroke="none" paint-order="stroke" d="M 118.04585266113281 551.5454711914062 L 349.5823974609375 551.5454711914062 L 349.5823974609375 604.1818351745605 L 118.04585266113281 604.1818351745605 L 118.04585266113281 551.5454711914062" fill-opacity="1" clip-path="url(#TrQSdwJmSULh)"/><path fill="rgb(143,45,86)" stroke="none" paint-order="stroke" d="M 349.5823974609375 551.5454711914062 L 350.240567445755 551.5454711914062 L 350.240567445755 604.1818351745605 L 349.5823974609375 604.1818351745605 L 349.5823974609375 551.5454711914062" fill-opacity="1" clip-path="url(#TrQSdwJmSULh)"/><path fill="rgb(63,136,197)" stroke="none" paint-order="stroke" d="M 350.2405700683594 551.5454711914062 L 350.8987400531769 551.5454711914062 L 350.8987400531769 604.1818351745605 L 350.2405700683594 604.1818351745605 L 350.2405700683594 551.5454711914062" fill-opacity="1" clip-path="url(#TrQSdwJmSULh)"/><path fill="rgb(143,45,86)" stroke="none" paint-order="stroke" d="M 350.89874267578125 551.5454711914062 L 351.32431668043137 551.5454711914062 L 351.32431668043137 604.1818351745605 L 350.89874267578125 604.1818351745605 L 350.89874267578125 551.5454711914062" fill-opacity="1" clip-path="url(#TrQSdwJmSULh)"/><path fill="rgb(63,136,197)" stroke="none" paint-order="stroke" d="M 351.3243103027344 551.5454711914062 L 351.49428430199623 551.5454711914062 L 351.49428430199623 604.1818351745605 L 351.3243103027344 604.1818351745605 L 351.3243103027344 551.5454711914062" fill-opacity="1" clip-path="url(#TrQSdwJmSULh)"/><path fill="rgb(143,45,86)" stroke="none" paint-order="stroke" d="M 351.4942932128906 551.5454711914062 L 352.0898411870003 551.5454711914062 L 352.0898411870003 604.1818351745605 L 351.4942932128906 604.1818351745605 L 351.4942932128906 551.5454711914062" fill-opacity="1" clip-path="url(#TrQSdwJmSULh)"/><path fill="rgb(63,136,197)" stroke="none" paint-order="stroke" d="M 352.0898132324219 551.5454711914062 L 356.4068970680237 551.5454711914062 L 356.4068970680237 604.1818351745605 L 352.0898132324219 604.1818351745605 L 352.0898132324219 551.5454711914062" fill-opacity="1" clip-path="url(#TrQSdwJmSULh)"/><path fill="rgb(81,60,99)" stroke="none" paint-order="stroke" d="M 356.40692138671875 551.5454711914062 L 423.36134338378906 551.5454711914062 L 423.36134338378906 604.1818351745605 L 356.40692138671875 604.1818351745605 L 356.40692138671875 551.5454711914062" fill-opacity="1" clip-path="url(#TrQSdwJmSULh)"/><path fill="rgb(143,45,86)" stroke="none" paint-order="stroke" d="M 423.361328125 551.5454711914062 L 424.06295013427734 551.5454711914062 L 424.06295013427734 604.1818351745605 L 423.361328125 604.1818351745605 L 423.361328125 551.5454711914062" fill-opacity="1" clip-path="url(#TrQSdwJmSULh)"/><path fill="rgb(81,60,99)" stroke="none" paint-order="stroke" d="M 424.0629577636719 551.5454711914062 L 424.50897976756096 551.5454711914062 L 424.50897976756096 604.1818351745605 L 424.0629577636719 604.1818351745605 L 424.0629577636719 551.5454711914062" fill-opacity="1" clip-path="url(#TrQSdwJmSULh)"/><path fill="rgb(143,45,86)" stroke="none" paint-order="stroke" d="M 424.50897216796875 551.5454711914062 L 424.8080241680145 551.5454711914062 L 424.8080241680145 604.1818351745605 L 424.50897216796875 604.1818351745605 L 424.50897216796875 551.5454711914062" fill-opacity="1" clip-path="url(#TrQSdwJmSULh)"/><path fill="rgb(81,60,99)" stroke="none" paint-order="stroke" d="M 424.8080139160156 551.5454711914062 L 424.8693579174578 551.5454711914062 L 424.8693579174578 604.1818351745605 L 424.8080139160156 604.1818351745605 L 424.8080139160156 551.5454711914062" fill-opacity="1" clip-path="url(#TrQSdwJmSULh)"/><path fill="rgb(143,45,86)" stroke="none" paint-order="stroke" d="M 424.869384765625 551.5454711914062 L 425.6349067687988 551.5454711914062 L 425.6349067687988 604.1818351745605 L 424.869384765625 604.1818351745605 L 424.869384765625 551.5454711914062" fill-opacity="1" clip-path="url(#TrQSdwJmSULh)"/><path fill="rgb(81,60,99)" stroke="none" paint-order="stroke" d="M 425.6348876953125 551.5454711914062 L 775.8567199707031 551.5454711914062 L 775.8567199707031 604.1818351745605 L 425.6348876953125 604.1818351745605 L 425.6348876953125 551.5454711914062" fill-opacity="1" clip-path="url(#TrQSdwJmSULh)"/><path fill="none" stroke="rgb(0,0,0)" paint-order="fill" d="M 58.5 77.81818389892578 L 775.8567504882812 77.81818389892578 L 775.8567504882812 604.1818313598633 L 58.5 604.1818313598633 L 58.5 77.81818389892578" stroke-opacity="1" stroke-linejoin="bevel" stroke-miterlimit="10" stroke-dasharray="" clip-path="url(#CMGmNqfMxszA)"/><path fill="none" stroke="rgb(0,0,0)" paint-order="fill" d="M 58.5 630.5 L 1336.5 630.5" stroke-opacity="1" stroke-linejoin="bevel" stroke-miterlimit="10" stroke-dasharray=""/><path fill="none" stroke="rgb(0,0,0)" paint-order="fill" d="M 58.5 636.5 L 58.5 628.5 M 314.5 636.5 L 314.5 628.5 M 569.5 636.5 L 569.5 628.5 M 825.5 636.5 L 825.5 628.5 M 1080.5 636.5 L 1080.5 628.5 M 1336.5 636.5 L 1336.5 628.5" stroke-opacity="1" stroke-linejoin="bevel" stroke-miterlimit="10" stroke-dasharray=""/><path fill="none" stroke="rgb(0,0,0)" paint-order="fill" d="M 58.5 634.5 L 58.5 630.5 M 109.5 634.5 L 109.5 630.5 M 160.5 634.5 L 160.5 630.5 M 211.5 634.5 L 211.5 630.5 M 262.5 634.5 L 262.5 630.5 M 314.5 634.5 L 314.5 630.5 M 365.5 634.5 L 365.5 630.5 M 416.5 634.5 L 416.5 630.5 M 467.5 634.5 L 467.5 630.5 M 518.5 634.5 L 518.5 630.5 M 569.5 634.5 L 569.5 630.5 M 620.5 634.5 L 620.5 630.5 M 671.5 634.5 L 671.5 630.5 M 723.5 634.5 L 723.5 630.5 M 774.5 634.5 L 774.5 630.5 M 825.5 634.5 L 825.5 630.5 M 876.5 634.5 L 876.5 630.5 M 927.5 634.5 L 927.5 630.5 M 978.5 634.5 L 978.5 630.5 M 1029.5 634.5 L 1029.5 630.5 M 1080.5 634.5 L 1080.5 630.5 M 1132.5 634.5 L 1132.5 630.5 M 1183.5 634.5 L 1183.5 630.5 M 1234.5 634.5 L 1234.5 630.5 M 1285.5 634.5 L 1285.5 630.5 M 1336.5 634.5 L 1336.5 630.5" stroke-opacity="1" stroke-linejoin="bevel" stroke-miterlimit="10" stroke-dasharray=""/><text fill="rgb(68,68,68)" stroke="none" font-family="helvetica" font-size="11px" font-style="normal" font-weight="normal" text-decoration="normal" x="54.94166660308838" y="648.89013671875" text-anchor="start" dominant-baseline="alphabetic" transform="matrix(1, 0, 0, 1, 0.5, 0.5)" fill-opacity="1">0</text><text fill="rgb(68,68,68)" stroke="none" font-family="helvetica" font-size="11px" font-style="normal" font-weight="normal" text-decoration="normal" x="304.42500591278076" y="648.89013671875" text-anchor="start" dominant-baseline="alphabetic" transform="matrix(1, 0, 0, 1, 0.5, 0.5)" fill-opacity="1">200</text><text fill="rgb(68,68,68)" stroke="none" font-family="helvetica" font-size="11px" font-style="normal" font-weight="normal" text-decoration="normal" x="560.0250120162964" y="648.89013671875" text-anchor="start" dominant-baseline="alphabetic" transform="matrix(1, 0, 0, 1, 0.5, 0.5)" fill-opacity="1">400</text><text fill="rgb(68,68,68)" stroke="none" font-family="helvetica" font-size="11px" font-style="normal" font-weight="normal" text-decoration="normal" x="815.6249876022339" y="648.89013671875" text-anchor="start" dominant-baseline="alphabetic" transform="matrix(1, 0, 0, 1, 0.5, 0.5)" fill-opacity="1">600</text><text fill="rgb(68,68,68)" stroke="none" font-family="helvetica" font-size="11px" font-style="normal" font-weight="normal" text-decoration="normal" x="1071.2250242233276" y="648.89013671875" text-anchor="start" dominant-baseline="alphabetic" transform="matrix(1, 0, 0, 1, 0.5, 0.5)" fill-opacity="1">800</text><text fill="rgb(68,68,68)" stroke="none" font-family="helvetica" font-size="11px" font-style="normal" font-weight="normal" text-decoration="normal" x="1323.7666664123535" y="648.89013671875" text-anchor="start" dominant-baseline="alphabetic" transform="matrix(1, 0, 0, 1, 0.5, 0.5)" fill-opacity="1">1000</text><text fill="rgb(68,68,68)" stroke="none" font-family="helvetica" font-size="15pt" font-style="italic" font-weight="normal" text-decoration="normal" x="666.4416675567627" y="676.06982421875" text-anchor="start" dominant-baseline="alphabetic" transform="matrix(1, 0, 0, 1, 0.5, 0.5)" fill-opacity="1">time(s)</text><path fill="none" stroke="rgb(0,0,0)" paint-order="fill" d="M 58.5 630.5 L 58.5 51.5" stroke-opacity="1" stroke-linejoin="bevel" stroke-miterlimit="10" stroke-dasharray=""/><path fill="none" stroke="rgb(0,0,0)" paint-order="fill" d="M 52.5 551.5 L 60.5 551.5 M 52.5 446.5 L 60.5 446.5 M 52.5 341.5 L 60.5 341.5 M 52.5 235.5 L 60.5 235.5 M 52.5 130.5 L 60.5 130.5" stroke-opacity="1" stroke-linejoin="bevel" stroke-miterlimit="10" stroke-dasharray=""/><path fill="none" stroke="rgb(0,0,0)" paint-order="fill" d="M 54.5 572.5 L 58.5 572.5 M 54.5 593.5 L 58.5 593.5 M 54.5 614.5 L 58.5 614.5 M 54.5 551.5 L 58.5 551.5 M 54.5 530.5 L 58.5 530.5 M 54.5 509.5 L 58.5 509.5 M 54.5 488.5 L 58.5 488.5 M 54.5 467.5 L 58.5 467.5 M 54.5 446.5 L 58.5 446.5 M 54.5 425.5 L 58.5 425.5 M 54.5 404.5 L 58.5 404.5 M 54.5 383.5 L 58.5 383.5 M 54.5 362.5 L 58.5 362.5 M 54.5 341.5 L 58.5 341.5 M 54.5 319.5 L 58.5 319.5 M 54.5 298.5 L 58.5 298.5 M 54.5 277.5 L 58.5 277.5 M 54.5 256.5 L 58.5 256.5 M 54.5 235.5 L 58.5 235.5 M 54.5 214.5 L 58.5 214.5 M 54.5 193.5 L 58.5 193.5 M 54.5 172.5 L 58.5 172.5 M 54.5 151.5 L 58.5 151.5 M 54.5 130.5 L 58.5 130.5 M 54.5 109.5 L 58.5 109.5 M 54.5 88.5 L 58.5 88.5 M 54.5 67.5 L 58.5 67.5" stroke-opacity="1" stroke-linejoin="bevel" stroke-miterlimit="10" stroke-dasharray=""/><text fill="rgb(68,68,68)" stroke="none" font-family="helvetica" font-size="11px" font-style="normal" font-weight="normal" text-decoration="normal" x="34.46666622161865" y="554.9905395507812" text-anchor="start" dominant-baseline="alphabetic" transform="matrix(1, 0, 0, 1, 0.5, 0.5)" fill-opacity="1">−2</text><text fill="rgb(68,68,68)" stroke="none" font-family="helvetica" font-size="11px" font-style="normal" font-weight="normal" text-decoration="normal" x="34.46666622161865" y="449.7178039550781" text-anchor="start" dominant-baseline="alphabetic" transform="matrix(1, 0, 0, 1, 0.5, 0.5)" fill-opacity="1">−1</text><text fill="rgb(68,68,68)" stroke="none" font-family="helvetica" font-size="11px" font-style="normal" font-weight="normal" text-decoration="normal" x="40.88333320617676" y="344.445068359375" text-anchor="start" dominant-baseline="alphabetic" transform="matrix(1, 0, 0, 1, 0.5, 0.5)" fill-opacity="1">0</text><text fill="rgb(68,68,68)" stroke="none" font-family="helvetica" font-size="11px" font-style="normal" font-weight="normal" text-decoration="normal" x="40.88333320617676" y="239.17234802246094" text-anchor="start" dominant-baseline="alphabetic" transform="matrix(1, 0, 0, 1, 0.5, 0.5)" fill-opacity="1">1</text><text fill="rgb(68,68,68)" stroke="none" font-family="helvetica" font-size="11px" font-style="normal" font-weight="normal" text-decoration="normal" x="40.88333320617676" y="133.8996124267578" text-anchor="start" dominant-baseline="alphabetic" transform="matrix(1, 0, 0, 1, 0.5, 0.5)" fill-opacity="1">2</text><text fill="rgb(68,68,68)" stroke="none" font-family="helvetica" font-size="15pt" font-style="italic" font-weight="normal" text-decoration="normal" x="-11.316666603088379" y="336.076171875" text-anchor="start" dominant-baseline="alphabetic" transform="matrix(6.123233995736766e-17, -1, 1, 6.123233995736766e-17, -313.53333377838135, 367.46666622161865)" fill-opacity="1">students</text><path fill="rgb(255,255,255)" stroke="rgb(229,229,229)" paint-order="fill" d="M 1128.2333374023438 61.5 L 1326.5 61.5 L 1326.5 400.5 L 1128.2333374023438 400.5 L 1128.2333374023438 61.5" fill-opacity="0.9490196078431372" clip-path="url(#uJJvlTZkLuKH)" stroke-opacity="0.5019607843137255" stroke-linejoin="bevel" stroke-miterlimit="10" stroke-dasharray=""/><text fill="rgb(68,68,68)" stroke="none" font-family="helvetica" font-size="13px" font-style="normal" font-weight="normal" text-decoration="normal" x="1162.7333374023438" y="81" text-anchor="start" dominant-baseline="central" clip-path="url(#uJJvlTZkLuKH)" transform="matrix(1, 0, 0, 1, 0.5, 0.5)" fill-opacity="1">wavelength</text><path fill="rgb(0,255,40)" stroke="none" paint-order="stroke" d="M 1140.2333374023438 73.5 L 1156.2333374023438 73.5 L 1156.2333374023438 89.5 L 1140.2333374023438 89.5 L 1140.2333374023438 73.5" fill-opacity="1" clip-path="url(#uJJvlTZkLuKH)"/><path fill="rgb(216,17,89)" stroke="none" paint-order="stroke" d="M 1140.2333374023438 73.5 L 1156.2333374023438 73.5 L 1156.2333374023438 89.5 L 1140.2333374023438 89.5 L 1140.2333374023438 73.5" fill-opacity="1" clip-path="url(#uJJvlTZkLuKH)"/><text fill="rgb(68,68,68)" stroke="none" font-family="helvetica" font-size="13px" font-style="normal" font-weight="normal" text-decoration="normal" x="1162.7333374023438" y="104" text-anchor="start" dominant-baseline="central" clip-path="url(#uJJvlTZkLuKH)" transform="matrix(1, 0, 0, 1, 0.5, 0.5)" fill-opacity="1">solution</text><path fill="rgb(251,0,7)" stroke="none" paint-order="stroke" d="M 1140.2333374023438 96.5 L 1156.2333374023438 96.5 L 1156.2333374023438 112.5 L 1140.2333374023438 112.5 L 1140.2333374023438 96.5" fill-opacity="1" clip-path="url(#uJJvlTZkLuKH)"/><path fill="rgb(33,131,128)" stroke="none" paint-order="stroke" d="M 1140.2333374023438 96.5 L 1156.2333374023438 96.5 L 1156.2333374023438 112.5 L 1140.2333374023438 112.5 L 1140.2333374023438 96.5" fill-opacity="1" clip-path="url(#uJJvlTZkLuKH)"/><text fill="rgb(68,68,68)" stroke="none" font-family="helvetica" font-size="13px" font-style="normal" font-weight="normal" text-decoration="normal" x="1162.7333374023438" y="127" text-anchor="start" dominant-baseline="central" clip-path="url(#uJJvlTZkLuKH)" transform="matrix(1, 0, 0, 1, 0.5, 0.5)" fill-opacity="1">laser</text><path fill="rgb(105,29,48)" stroke="none" paint-order="stroke" d="M 1140.2333374023438 119.5 L 1156.2333374023438 119.5 L 1156.2333374023438 135.5 L 1140.2333374023438 135.5 L 1140.2333374023438 119.5" fill-opacity="1" clip-path="url(#uJJvlTZkLuKH)"/><text fill="rgb(68,68,68)" stroke="none" font-family="helvetica" font-size="13px" font-style="normal" font-weight="normal" text-decoration="normal" x="1162.7333374023438" y="150" text-anchor="start" dominant-baseline="central" clip-path="url(#uJJvlTZkLuKH)" transform="matrix(1, 0, 0, 1, 0.5, 0.5)" fill-opacity="1">ruler</text><path fill="rgb(255,188,66)" stroke="none" paint-order="stroke" d="M 1140.2333374023438 142.5 L 1156.2333374023438 142.5 L 1156.2333374023438 158.5 L 1140.2333374023438 158.5 L 1140.2333374023438 142.5" fill-opacity="1" clip-path="url(#uJJvlTZkLuKH)"/><text fill="rgb(68,68,68)" stroke="none" font-family="helvetica" font-size="13px" font-style="normal" font-weight="normal" text-decoration="normal" x="1162.7333374023438" y="173" text-anchor="start" dominant-baseline="central" clip-path="url(#uJJvlTZkLuKH)" transform="matrix(1, 0, 0, 1, 0.5, 0.5)" fill-opacity="1">restarts</text><text fill="rgb(68,68,68)" stroke="none" font-family="helvetica" font-size="13px" font-style="normal" font-weight="normal" text-decoration="normal" x="1162.7333374023438" y="196" text-anchor="start" dominant-baseline="central" clip-path="url(#uJJvlTZkLuKH)" transform="matrix(1, 0, 0, 1, 0.5, 0.5)" fill-opacity="1">transmittance_absorbance</text><path fill="rgb(162,174,187)" stroke="none" paint-order="stroke" d="M 1140.2333374023438 188.5 L 1156.2333374023438 188.5 L 1156.2333374023438 204.5 L 1140.2333374023438 204.5 L 1140.2333374023438 188.5" fill-opacity="1" clip-path="url(#uJJvlTZkLuKH)"/><text fill="rgb(68,68,68)" stroke="none" font-family="helvetica" font-size="13px" font-style="normal" font-weight="normal" text-decoration="normal" x="1162.7333374023438" y="219" text-anchor="start" dominant-baseline="central" clip-path="url(#uJJvlTZkLuKH)" transform="matrix(1, 0, 0, 1, 0.5, 0.5)" fill-opacity="1">magnifier</text><path fill="rgb(255,188,66)" stroke="none" paint-order="stroke" d="M 1140.2333374023438 211.5 L 1156.2333374023438 211.5 L 1156.2333374023438 227.5 L 1140.2333374023438 227.5 L 1140.2333374023438 211.5" fill-opacity="1" clip-path="url(#uJJvlTZkLuKH)"/><text fill="rgb(68,68,68)" stroke="none" font-family="helvetica" font-size="13px" font-style="normal" font-weight="normal" text-decoration="normal" x="1162.7333374023438" y="242" text-anchor="start" dominant-baseline="central" clip-path="url(#uJJvlTZkLuKH)" transform="matrix(1, 0, 0, 1, 0.5, 0.5)" fill-opacity="1">concentration</text><path fill="rgb(115,210,222)" stroke="none" paint-order="stroke" d="M 1140.2333374023438 234.5 L 1156.2333374023438 234.5 L 1156.2333374023438 250.5 L 1140.2333374023438 250.5 L 1140.2333374023438 234.5" fill-opacity="1" clip-path="url(#uJJvlTZkLuKH)"/><text fill="rgb(68,68,68)" stroke="none" font-family="helvetica" font-size="13px" font-style="normal" font-weight="normal" text-decoration="normal" x="1162.7333374023438" y="265" text-anchor="start" dominant-baseline="central" clip-path="url(#uJJvlTZkLuKH)" transform="matrix(1, 0, 0, 1, 0.5, 0.5)" fill-opacity="1">flask</text><path fill="rgb(28,49,68)" stroke="none" paint-order="stroke" d="M 1140.2333374023438 257.5 L 1156.2333374023438 257.5 L 1156.2333374023438 273.5 L 1140.2333374023438 273.5 L 1140.2333374023438 257.5" fill-opacity="1" clip-path="url(#uJJvlTZkLuKH)"/><text fill="rgb(68,68,68)" stroke="none" font-family="helvetica" font-size="13px" font-style="normal" font-weight="normal" text-decoration="normal" x="1162.7333374023438" y="288" text-anchor="start" dominant-baseline="central" clip-path="url(#uJJvlTZkLuKH)" transform="matrix(1, 0, 0, 1, 0.5, 0.5)" fill-opacity="1">pdf</text><path fill="rgb(239,185,203)" stroke="none" paint-order="stroke" d="M 1140.2333374023438 280.5 L 1156.2333374023438 280.5 L 1156.2333374023438 296.5 L 1140.2333374023438 296.5 L 1140.2333374023438 280.5" fill-opacity="1" clip-path="url(#uJJvlTZkLuKH)"/><text fill="rgb(68,68,68)" stroke="none" font-family="helvetica" font-size="13px" font-style="normal" font-weight="normal" text-decoration="normal" x="1162.7333374023438" y="311" text-anchor="start" dominant-baseline="central" clip-path="url(#uJJvlTZkLuKH)" transform="matrix(1, 0, 0, 1, 0.5, 0.5)" fill-opacity="1">concentrationlab</text><text fill="rgb(68,68,68)" stroke="none" font-family="helvetica" font-size="13px" font-style="normal" font-weight="normal" text-decoration="normal" x="1162.7333374023438" y="334" text-anchor="start" dominant-baseline="central" clip-path="url(#uJJvlTZkLuKH)" transform="matrix(1, 0, 0, 1, 0.5, 0.5)" fill-opacity="1">wavelength_slider</text><text fill="rgb(68,68,68)" stroke="none" font-family="helvetica" font-size="13px" font-style="normal" font-weight="normal" text-decoration="normal" x="1162.7333374023438" y="357" text-anchor="start" dominant-baseline="central" clip-path="url(#uJJvlTZkLuKH)" transform="matrix(1, 0, 0, 1, 0.5, 0.5)" fill-opacity="1">ruler measuring</text><path fill="rgb(255,188,66)" stroke="none" paint-order="stroke" d="M 1140.2333374023438 349.5 L 1156.2333374023438 349.5 L 1156.2333374023438 365.5 L 1140.2333374023438 365.5 L 1140.2333374023438 349.5" fill-opacity="1" clip-path="url(#uJJvlTZkLuKH)"/><text fill="rgb(68,68,68)" stroke="none" font-family="helvetica" font-size="13px" font-style="normal" font-weight="normal" text-decoration="normal" x="1162.7333374023438" y="380" text-anchor="start" dominant-baseline="central" clip-path="url(#uJJvlTZkLuKH)" transform="matrix(1, 0, 0, 1, 0.5, 0.5)" fill-opacity="1">dependent variable</text><path fill="rgb(143,45,86)" stroke="none" paint-order="stroke" d="M 1140.2333374023438 372.5 L 1156.2333374023438 372.5 L 1156.2333374023438 388.5 L 1140.2333374023438 388.5 L 1140.2333374023438 372.5" fill-opacity="1" clip-path="url(#uJJvlTZkLuKH)"/><text fill="rgb(68,68,68)" stroke="none" font-family="helvetica" font-size="25pt" font-style="normal" font-weight="bold" text-decoration="normal" x="58" y="38.740885416666664" text-anchor="start" dominant-baseline="alphabetic" transform="matrix(1, 0, 0, 1, 0.5, 0.5)" fill-opacity="1">Timeline for student h9t9mxtx with permutation 1023 for task 2</text></svg>