<svg version="1.1" xmlns="http://www.w3.org/2000/svg" width="1366" height="683"><defs><clipPath id="UgVORElHHOvh"><path fill="none" stroke="none" d="M 58.5 51.5 L 1336.5 51.5 L 1336.5 630.5 L 58.5 630.5 L 58.5 51.5"/></clipPath><clipPath id="ANOpEyTKyOUl"><path fill="none" stroke="none" d="M 58.5 51.5 L 1336.5 51.5 L 1336.5 630.5 L 58.5 630.5 L 58.5 51.5"/></clipPath><clipPath id="yIDeIQvlbHxg"><path fill="none" stroke="none" d="M 58.5 51.5 L 1336.5 51.5 L 1336.5 630.5 L 58.5 630.5 L 58.5 51.5"/></clipPath><clipPath id="UEvvvokZDwka"><path fill="none" stroke="none" d="M 58.5 51.5 L 1336.5 51.5 L 1336.5 630.5 L 58.5 630.5 L 58.5 51.5"/></clipPath><clipPath id="GKZVpTsLqTZJ"><path fill="none" stroke="none" d="M 58.5 51.5 L 1336.5 51.5 L 1336.5 630.5 L 58.5 630.5 L 58.5 51.5"/></clipPath><clipPath id="EJAxqntHomGG"><path fill="none" stroke="none" d="M 58.5 51.5 L 1336.5 51.5 L 1336.5 630.5 L 58.5 630.5 L 58.5 51.5"/></clipPath><clipPath id="TvBqSNieibPg"><path fill="none" stroke="none" d="M 58.5 51.5 L 1336.5 51.5 L 1336.5 630.5 L 58.5 630.5 L 58.5 51.5"/></clipPath><clipPath id="xJeTkmKFvmVw"><path fill="none" stroke="none" d="M 58.5 51.5 L 1336.5 51.5 L 1336.5 630.5 L 58.5 630.5 L 58.5 51.5"/></clipPath><clipPath id="voWsKyvzqgRn"><path fill="none" stroke="none" d="M 58.5 51.5 L 1336.5 51.5 L 1336.5 630.5 L 58.5 630.5 L 58.5 51.5"/></clipPath><clipPath id="vDvCAKMzUrRW"><path fill="none" stroke="none" d="M 58.5 51.5 L 1336.5 51.5 L 1336.5 630.5 L 58.5 630.5 L 58.5 51.5"/></clipPath><clipPath id="OAXNfPzFZiZc"><path fill="none" stroke="none" d="M 58.5 51.5 L 1336.5 51.5 L 1336.5 630.5 L 58.5 630.5 L 58.5 51.5"/></clipPath><clipPath id="VGUTMplgvbmR"><path fill="none" stroke="none" d="M 58.5 51.5 L 1336.5 51.5 L 1336.5 630.5 L 58.5 630.5 L 58.5 51.5"/></clipPath><clipPath id="xbmXTkFUGSGc"><path fill="none" stroke="none" d="M 58.5 51.5 L 1336.5 51.5 L 1336.5 630.5 L 58.5 630.5 L 58.5 51.5"/></clipPath><clipPath id="UegTOgItFiHW"><path fill="none" stroke="none" d="M 58.5 51.5 L 1336.5 51.5 L 1336.5 630.5 L 58.5 630.5 L 58.5 51.5"/></clipPath><clipPath id="WwqTqNggHeJg"><path fill="none" stroke="none" d="M 58.5 51.5 L 1336.5 51.5 L 1336.5 630.5 L 58.5 630.5 L 58.5 51.5"/></clipPath><clipPath id="lTWKyZDxpyfq"><path fill="none" stroke="none" d="M 58.5 51.5 L 1336.5 51.5 L 1336.5 630.5 L 58.5 630.5 L 58.5 51.5"/></clipPath><clipPath id="FzgEzspayvQu"><path fill="none" stroke="none" d="M 58.5 51.5 L 1336.5 51.5 L 1336.5 630.5 L 58.5 630.5 L 58.5 51.5"/></clipPath><clipPath id="TTevbRsCufDF"><path fill="none" stroke="none" d="M 58.5 51.5 L 1336.5 51.5 L 1336.5 630.5 L 58.5 630.5 L 58.5 51.5"/></clipPath><clipPath id="QGBUJzErXUxR"><path fill="none" stroke="none" d="M 58.5 51.5 L 1336.5 51.5 L 1336.5 630.5 L 58.5 630.5 L 58.5 51.5"/></clipPath><clipPath id="CARKgogtLyFT"><path fill="none" stroke="none" d="M 58.5 51.5 L 1336.5 51.5 L 1336.5 630.5 L 58.5 630.5 L 58.5 51.5"/></clipPath><clipPath id="KbLTvSOvFtgy"><path fill="none" stroke="none" d="M 58.5 51.5 L 1336.5 51.5 L 1336.5 630.5 L 58.5 630.5 L 58.5 51.5"/></clipPath></defs><path fill="rgb(255,255,255)" stroke="none" paint-order="stroke" d="M 0.5 0.5 L 1366.5 0.5 L 1366.5 683.5 L 0.5 683.5 L 0.5 0.5" fill-opacity="1"/><rect fill="#FFFFFF" stroke="none" x="58" y="51" width="1278" height="579" transform="matrix(1, 0, 0, 1, 0.5, 0.5)"/><path fill="rgb(255,255,255)" stroke="none" paint-order="stroke" d="M 58.5 51.5 L 1336.5 51.5 L 1336.5 630.5 L 58.5 630.5 L 58.5 51.5" fill-opacity="1"/><path fill="none" stroke="rgb(229,229,229)" paint-order="fill" d="M 58.5 51.5 L 1336.5 51.5 L 1336.5 630.5 L 58.5 630.5 L 58.5 51.5" stroke-opacity="1" stroke-linejoin="bevel" stroke-miterlimit="10" stroke-dasharray=""/><path fill="none" stroke="rgb(229,229,229)" paint-order="fill" d="M 314.5 630.5 L 314.5 51.5 M 569.5 630.5 L 569.5 51.5 M 825.5 630.5 L 825.5 51.5 M 1080.5 630.5 L 1080.5 51.5" stroke-opacity="1" stroke-linejoin="bevel" stroke-miterlimit="10" stroke-dasharray="" clip-path="url(#UgVORElHHOvh)"/><path fill="none" stroke="rgb(229,229,229)" paint-order="fill" d="M 58.5 551.5 L 1336.5 551.5 M 58.5 446.5 L 1336.5 446.5 M 58.5 341.5 L 1336.5 341.5 M 58.5 235.5 L 1336.5 235.5 M 58.5 130.5 L 1336.5 130.5" stroke-opacity="1" stroke-linejoin="bevel" stroke-miterlimit="10" stroke-dasharray="" clip-path="url(#ANOpEyTKyOUl)"/><path fill="rgb(0,255,40)" stroke="none" paint-order="stroke" d="M 58.5 77.81818389892578 L 338.3538818359375 77.81818389892578 L 338.3538818359375 130.45454788208008 L 58.5 130.45454788208008 L 58.5 77.81818389892578" fill-opacity="1" clip-path="url(#yIDeIQvlbHxg)"/><path fill="rgb(0,255,55)" stroke="none" paint-order="stroke" d="M 338.3538818359375 77.81818389892578 L 338.88552981615067 77.81818389892578 L 338.88552981615067 130.45454788208008 L 338.3538818359375 130.45454788208008 L 338.3538818359375 77.81818389892578" fill-opacity="1" clip-path="url(#yIDeIQvlbHxg)"/><path fill="rgb(0,255,70)" stroke="none" paint-order="stroke" d="M 338.8855285644531 77.81818389892578 L 339.11045657098293 77.81818389892578 L 339.11045657098293 130.45454788208008 L 338.8855285644531 130.45454788208008 L 338.8855285644531 77.81818389892578" fill-opacity="1" clip-path="url(#yIDeIQvlbHxg)"/><path fill="rgb(0,255,84)" stroke="none" paint-order="stroke" d="M 339.1104736328125 77.81818389892578 L 339.3264556378126 77.81818389892578 L 339.3264556378126 130.45454788208008 L 339.1104736328125 130.45454788208008 L 339.1104736328125 77.81818389892578" fill-opacity="1" clip-path="url(#yIDeIQvlbHxg)"/><path fill="rgb(0,255,97)" stroke="none" paint-order="stroke" d="M 339.3264465332031 77.81818389892578 L 339.5398725271225 77.81818389892578 L 339.5398725271225 130.45454788208008 L 339.3264465332031 130.45454788208008 L 339.3264465332031 77.81818389892578" fill-opacity="1" clip-path="url(#yIDeIQvlbHxg)"/><path fill="rgb(0,255,110)" stroke="none" paint-order="stroke" d="M 339.53985595703125 77.81818389892578 L 339.7545599639416 77.81818389892578 L 339.7545599639416 130.45454788208008 L 339.53985595703125 130.45454788208008 L 339.53985595703125 77.81818389892578" fill-opacity="1" clip-path="url(#yIDeIQvlbHxg)"/><path fill="rgb(0,255,122)" stroke="none" paint-order="stroke" d="M 339.75457763671875 77.81818389892578 L 340.9725116491318 77.81818389892578 L 340.9725116491318 130.45454788208008 L 339.75457763671875 130.45454788208008 L 339.75457763671875 77.81818389892578" fill-opacity="1" clip-path="url(#yIDeIQvlbHxg)"/><path fill="rgb(0,255,110)" stroke="none" paint-order="stroke" d="M 340.9725036621094 77.81818389892578 L 341.2268256545067 77.81818389892578 L 341.2268256545067 130.45454788208008 L 340.9725036621094 130.45454788208008 L 340.9725036621094 77.81818389892578" fill-opacity="1" clip-path="url(#yIDeIQvlbHxg)"/><path fill="rgb(0,255,97)" stroke="none" paint-order="stroke" d="M 341.2268371582031 77.81818389892578 L 341.44154116511345 77.81818389892578 L 341.44154116511345 130.45454788208008 L 341.2268371582031 130.45454788208008 L 341.2268371582031 77.81818389892578" fill-opacity="1" clip-path="url(#yIDeIQvlbHxg)"/><path fill="rgb(0,255,84)" stroke="none" paint-order="stroke" d="M 341.4415283203125 77.81818389892578 L 341.6766803264618 77.81818389892578 L 341.6766803264618 130.45454788208008 L 341.4415283203125 130.45454788208008 L 341.4415283203125 77.81818389892578" fill-opacity="1" clip-path="url(#yIDeIQvlbHxg)"/><path fill="rgb(0,255,70)" stroke="none" paint-order="stroke" d="M 341.67669677734375 77.81818389892578 L 341.91184878349304 77.81818389892578 L 341.91184878349304 130.45454788208008 L 341.67669677734375 130.45454788208008 L 341.67669677734375 77.81818389892578" fill-opacity="1" clip-path="url(#yIDeIQvlbHxg)"/><path fill="rgb(0,255,55)" stroke="none" paint-order="stroke" d="M 341.9118347167969 77.81818389892578 L 342.1163147240877 77.81818389892578 L 342.1163147240877 130.45454788208008 L 341.9118347167969 130.45454788208008 L 341.9118347167969 77.81818389892578" fill-opacity="1" clip-path="url(#yIDeIQvlbHxg)"/><path fill="rgb(0,255,40)" stroke="none" paint-order="stroke" d="M 342.1163024902344 77.81818389892578 L 342.4025744795799 77.81818389892578 L 342.4025744795799 130.45454788208008 L 342.1163024902344 130.45454788208008 L 342.1163024902344 77.81818389892578" fill-opacity="1" clip-path="url(#yIDeIQvlbHxg)"/><path fill="rgb(0,255,23)" stroke="none" paint-order="stroke" d="M 342.402587890625 77.81818389892578 L 342.56617188453674 77.81818389892578 L 342.56617188453674 130.45454788208008 L 342.402587890625 130.45454788208008 L 342.402587890625 77.81818389892578" fill-opacity="1" clip-path="url(#yIDeIQvlbHxg)"/><path fill="rgb(0,255,0)" stroke="none" paint-order="stroke" d="M 342.566162109375 77.81818389892578 L 342.8013141155243 77.81818389892578 L 342.8013141155243 130.45454788208008 L 342.566162109375 130.45454788208008 L 342.566162109375 77.81818389892578" fill-opacity="1" clip-path="url(#yIDeIQvlbHxg)"/><path fill="rgb(8,255,0)" stroke="none" paint-order="stroke" d="M 342.80133056640625 77.81818389892578 L 343.00836656987667 77.81818389892578 L 343.00836656987667 130.45454788208008 L 342.80133056640625 130.45454788208008 L 342.80133056640625 77.81818389892578" fill-opacity="1" clip-path="url(#yIDeIQvlbHxg)"/><path fill="rgb(14,255,0)" stroke="none" paint-order="stroke" d="M 343.00836181640625 77.81818389892578 L 343.27162981033325 77.81818389892578 L 343.27162981033325 130.45454788208008 L 343.00836181640625 130.45454788208008 L 343.00836181640625 77.81818389892578" fill-opacity="1" clip-path="url(#yIDeIQvlbHxg)"/><path fill="rgb(20,255,0)" stroke="none" paint-order="stroke" d="M 343.2716369628906 77.81818389892578 L 343.5067889690399 77.81818389892578 L 343.5067889690399 130.45454788208008 L 343.2716369628906 130.45454788208008 L 343.2716369628906 77.81818389892578" fill-opacity="1" clip-path="url(#yIDeIQvlbHxg)"/><path fill="rgb(25,255,0)" stroke="none" paint-order="stroke" d="M 343.50677490234375 77.81818389892578 L 343.74192690849304 77.81818389892578 L 343.74192690849304 130.45454788208008 L 343.50677490234375 130.45454788208008 L 343.50677490234375 77.81818389892578" fill-opacity="1" clip-path="url(#yIDeIQvlbHxg)"/><path fill="rgb(30,255,0)" stroke="none" paint-order="stroke" d="M 343.741943359375 77.81818389892578 L 343.9566473662853 77.81818389892578 L 343.9566473662853 130.45454788208008 L 343.741943359375 130.45454788208008 L 343.741943359375 77.81818389892578" fill-opacity="1" clip-path="url(#yIDeIQvlbHxg)"/><path fill="rgb(35,255,0)" stroke="none" paint-order="stroke" d="M 343.9566345214844 77.81818389892578 L 344.6723145246506 77.81818389892578 L 344.6723145246506 130.45454788208008 L 343.9566345214844 130.45454788208008 L 343.9566345214844 77.81818389892578" fill-opacity="1" clip-path="url(#yIDeIQvlbHxg)"/><path fill="rgb(40,255,0)" stroke="none" paint-order="stroke" d="M 344.67230224609375 77.81818389892578 L 344.90745425224304 77.81818389892578 L 344.90745425224304 130.45454788208008 L 344.67230224609375 130.45454788208008 L 344.67230224609375 77.81818389892578" fill-opacity="1" clip-path="url(#yIDeIQvlbHxg)"/><path fill="rgb(44,255,0)" stroke="none" paint-order="stroke" d="M 344.907470703125 77.81818389892578 L 345.1323987096548 77.81818389892578 L 345.1323987096548 130.45454788208008 L 344.907470703125 130.45454788208008 L 344.907470703125 77.81818389892578" fill-opacity="1" clip-path="url(#yIDeIQvlbHxg)"/><path fill="rgb(49,255,0)" stroke="none" paint-order="stroke" d="M 345.13238525390625 77.81818389892578 L 345.38926324248314 77.81818389892578 L 345.38926324248314 130.45454788208008 L 345.13238525390625 130.45454788208008 L 345.13238525390625 77.81818389892578" fill-opacity="1" clip-path="url(#yIDeIQvlbHxg)"/><path fill="rgb(53,255,0)" stroke="none" paint-order="stroke" d="M 345.3892822265625 77.81818389892578 L 345.62315621972084 77.81818389892578 L 345.62315621972084 130.45454788208008 L 345.3892822265625 130.45454788208008 L 345.3892822265625 77.81818389892578" fill-opacity="1" clip-path="url(#yIDeIQvlbHxg)"/><path fill="rgb(58,255,0)" stroke="none" paint-order="stroke" d="M 345.6231384277344 77.81818389892578 L 345.86851443350315 77.81818389892578 L 345.86851443350315 130.45454788208008 L 345.6231384277344 130.45454788208008 L 345.6231384277344 77.81818389892578" fill-opacity="1" clip-path="url(#yIDeIQvlbHxg)"/><path fill="rgb(62,255,0)" stroke="none" paint-order="stroke" d="M 345.8685302734375 77.81818389892578 L 346.9382163286209 77.81818389892578 L 346.9382163286209 130.45454788208008 L 345.8685302734375 130.45454788208008 L 345.8685302734375 77.81818389892578" fill-opacity="1" clip-path="url(#yIDeIQvlbHxg)"/><path fill="rgb(70,255,0)" stroke="none" paint-order="stroke" d="M 346.9382019042969 77.81818389892578 L 347.0238279029727 77.81818389892578 L 347.0238279029727 130.45454788208008 L 346.9382019042969 130.45454788208008 L 346.9382019042969 77.81818389892578" fill-opacity="1" clip-path="url(#yIDeIQvlbHxg)"/><path fill="rgb(89,255,0)" stroke="none" paint-order="stroke" d="M 347.0238342285156 77.81818389892578 L 347.04300422780216 77.81818389892578 L 347.04300422780216 130.45454788208008 L 347.0238342285156 130.45454788208008 L 347.0238342285156 77.81818389892578" fill-opacity="1" clip-path="url(#yIDeIQvlbHxg)"/><path fill="rgb(111,255,0)" stroke="none" paint-order="stroke" d="M 347.0429992675781 77.81818389892578 L 347.06600326672196 77.81818389892578 L 347.06600326672196 130.45454788208008 L 347.0429992675781 130.45454788208008 L 347.0429992675781 77.81818389892578" fill-opacity="1" clip-path="url(#yIDeIQvlbHxg)"/><path fill="rgb(143,255,0)" stroke="none" paint-order="stroke" d="M 347.0660095214844 77.81818389892578 L 347.0877355206758 77.81818389892578 L 347.0877355206758 130.45454788208008 L 347.0660095214844 130.45454788208008 L 347.0660095214844 77.81818389892578" fill-opacity="1" clip-path="url(#yIDeIQvlbHxg)"/><path fill="rgb(159,255,0)" stroke="none" paint-order="stroke" d="M 347.0877380371094 77.81818389892578 L 347.1094640363008 77.81818389892578 L 347.1094640363008 130.45454788208008 L 347.0877380371094 130.45454788208008 L 347.0877380371094 77.81818389892578" fill-opacity="1" clip-path="url(#yIDeIQvlbHxg)"/><path fill="rgb(169,255,0)" stroke="none" paint-order="stroke" d="M 347.1094665527344 77.81818389892578 L 347.1286365520209 77.81818389892578 L 347.1286365520209 130.45454788208008 L 347.1094665527344 130.45454788208008 L 347.1094665527344 77.81818389892578" fill-opacity="1" clip-path="url(#yIDeIQvlbHxg)"/><path fill="rgb(179,255,0)" stroke="none" paint-order="stroke" d="M 347.1286315917969 77.81818389892578 L 347.1516355909407 77.81818389892578 L 347.1516355909407 130.45454788208008 L 347.1286315917969 130.45454788208008 L 347.1286315917969 77.81818389892578" fill-opacity="1" clip-path="url(#yIDeIQvlbHxg)"/><path fill="rgb(197,255,0)" stroke="none" paint-order="stroke" d="M 347.1516418457031 77.81818389892578 L 347.4724198579788 77.81818389892578 L 347.4724198579788 130.45454788208008 L 347.1516418457031 130.45454788208008 L 347.1516418457031 77.81818389892578" fill-opacity="1" clip-path="url(#yIDeIQvlbHxg)"/><path fill="rgb(207,255,0)" stroke="none" paint-order="stroke" d="M 347.472412109375 77.81818389892578 L 348.9203860759735 77.81818389892578 L 348.9203860759735 130.45454788208008 L 347.472412109375 130.45454788208008 L 347.472412109375 77.81818389892578" fill-opacity="1" clip-path="url(#yIDeIQvlbHxg)"/><path fill="rgb(216,255,0)" stroke="none" paint-order="stroke" d="M 348.9203796386719 77.81818389892578 L 349.55937963724136 77.81818389892578 L 349.55937963724136 130.45454788208008 L 348.9203796386719 130.45454788208008 L 348.9203796386719 77.81818389892578" fill-opacity="1" clip-path="url(#yIDeIQvlbHxg)"/><path fill="rgb(222,255,0)" stroke="none" paint-order="stroke" d="M 349.55938720703125 77.81818389892578 L 349.7932612001896 77.81818389892578 L 349.7932612001896 130.45454788208008 L 349.55938720703125 130.45454788208008 L 349.55938720703125 77.81818389892578" fill-opacity="1" clip-path="url(#yIDeIQvlbHxg)"/><path fill="rgb(231,255,0)" stroke="none" paint-order="stroke" d="M 349.79327392578125 77.81818389892578 L 349.8763439282775 77.81818389892578 L 349.8763439282775 130.45454788208008 L 349.79327392578125 130.45454788208008 L 349.79327392578125 77.81818389892578" fill-opacity="1" clip-path="url(#yIDeIQvlbHxg)"/><path fill="rgb(240,255,0)" stroke="none" paint-order="stroke" d="M 349.8763427734375 77.81818389892578 L 350.6648687720299 77.81818389892578 L 350.6648687720299 130.45454788208008 L 349.8763427734375 130.45454788208008 L 349.8763427734375 77.81818389892578" fill-opacity="1" clip-path="url(#yIDeIQvlbHxg)"/><path fill="rgb(249,255,0)" stroke="none" paint-order="stroke" d="M 350.66485595703125 77.81818389892578 L 350.79393395781517 77.81818389892578 L 350.79393395781517 130.45454788208008 L 350.66485595703125 130.45454788208008 L 350.66485595703125 77.81818389892578" fill-opacity="1" clip-path="url(#yIDeIQvlbHxg)"/><path fill="rgb(255,251,0)" stroke="none" paint-order="stroke" d="M 350.7939453125 77.81818389892578 L 350.81439331173897 77.81818389892578 L 350.81439331173897 130.45454788208008 L 350.7939453125 130.45454788208008 L 350.7939453125 77.81818389892578" fill-opacity="1" clip-path="url(#yIDeIQvlbHxg)"/><path fill="rgb(255,242,0)" stroke="none" paint-order="stroke" d="M 350.81439208984375 77.81818389892578 L 350.8335620891303 77.81818389892578 L 350.8335620891303 130.45454788208008 L 350.81439208984375 130.45454788208008 L 350.81439208984375 77.81818389892578" fill-opacity="1" clip-path="url(#yIDeIQvlbHxg)"/><path fill="rgb(255,216,0)" stroke="none" paint-order="stroke" d="M 350.83355712890625 77.81818389892578 L 350.87828712910414 77.81818389892578 L 350.87828712910414 130.45454788208008 L 350.83355712890625 130.45454788208008 L 350.83355712890625 77.81818389892578" fill-opacity="1" clip-path="url(#yIDeIQvlbHxg)"/><path fill="rgb(255,206,0)" stroke="none" paint-order="stroke" d="M 350.8782958984375 77.81818389892578 L 351.4329478740692 77.81818389892578 L 351.4329478740692 130.45454788208008 L 350.8782958984375 130.45454788208008 L 350.8782958984375 77.81818389892578" fill-opacity="1" clip-path="url(#yIDeIQvlbHxg)"/><path fill="rgb(255,226,0)" stroke="none" paint-order="stroke" d="M 351.43292236328125 77.81818389892578 L 351.45464836247265 77.81818389892578 L 351.45464836247265 130.45454788208008 L 351.43292236328125 130.45454788208008 L 351.43292236328125 77.81818389892578" fill-opacity="1" clip-path="url(#yIDeIQvlbHxg)"/><path fill="rgb(255,242,0)" stroke="none" paint-order="stroke" d="M 351.45465087890625 77.81818389892578 L 351.4738208781928 77.81818389892578 L 351.4738208781928 130.45454788208008 L 351.45465087890625 130.45454788208008 L 351.45465087890625 77.81818389892578" fill-opacity="1" clip-path="url(#yIDeIQvlbHxg)"/><path fill="rgb(255,251,0)" stroke="none" paint-order="stroke" d="M 351.4738464355469 77.81818389892578 L 351.5172984339297 77.81818389892578 L 351.5172984339297 130.45454788208008 L 351.4738464355469 130.45454788208008 L 351.4738464355469 77.81818389892578" fill-opacity="1" clip-path="url(#yIDeIQvlbHxg)"/><path fill="rgb(249,255,0)" stroke="none" paint-order="stroke" d="M 351.51727294921875 77.81818389892578 L 352.88089895248413 77.81818389892578 L 352.88089895248413 130.45454788208008 L 351.51727294921875 130.45454788208008 L 351.51727294921875 77.81818389892578" fill-opacity="1" clip-path="url(#yIDeIQvlbHxg)"/><path fill="rgb(255,251,0)" stroke="none" paint-order="stroke" d="M 352.88092041015625 77.81818389892578 L 352.9218164086342 77.81818389892578 L 352.9218164086342 130.45454788208008 L 352.88092041015625 130.45454788208008 L 352.88092041015625 77.81818389892578" fill-opacity="1" clip-path="url(#yIDeIQvlbHxg)"/><path fill="rgb(255,242,0)" stroke="none" paint-order="stroke" d="M 352.92181396484375 77.81818389892578 L 353.1991399526596 77.81818389892578 L 353.1991399526596 130.45454788208008 L 352.92181396484375 130.45454788208008 L 352.92181396484375 77.81818389892578" fill-opacity="1" clip-path="url(#yIDeIQvlbHxg)"/><path fill="rgb(255,232,0)" stroke="none" paint-order="stroke" d="M 353.1991271972656 77.81818389892578 L 356.50147914886475 77.81818389892578 L 356.50147914886475 130.45454788208008 L 353.1991271972656 130.45454788208008 L 353.1991271972656 77.81818389892578" fill-opacity="1" clip-path="url(#yIDeIQvlbHxg)"/><path fill="rgb(255,235,0)" stroke="none" paint-order="stroke" d="M 356.5014953613281 77.81818389892578 L 356.72642336785793 77.81818389892578 L 356.72642336785793 130.45454788208008 L 356.5014953613281 130.45454788208008 L 356.5014953613281 77.81818389892578" fill-opacity="1" clip-path="url(#yIDeIQvlbHxg)"/><path fill="rgb(255,239,0)" stroke="none" paint-order="stroke" d="M 356.7264099121094 77.81818389892578 L 356.9308899194002 77.81818389892578 L 356.9308899194002 130.45454788208008 L 356.7264099121094 130.45454788208008 L 356.7264099121094 77.81818389892578" fill-opacity="1" clip-path="url(#yIDeIQvlbHxg)"/><path fill="rgb(255,242,0)" stroke="none" paint-order="stroke" d="M 356.9308776855469 77.81818389892578 L 357.1379136890173 77.81818389892578 L 357.1379136890173 130.45454788208008 L 356.9308776855469 130.45454788208008 L 356.9308776855469 77.81818389892578" fill-opacity="1" clip-path="url(#yIDeIQvlbHxg)"/><path fill="rgb(255,245,0)" stroke="none" paint-order="stroke" d="M 357.137939453125 77.81818389892578 L 357.30919145047665 77.81818389892578 L 357.30919145047665 130.45454788208008 L 357.137939453125 130.45454788208008 L 357.137939453125 77.81818389892578" fill-opacity="1" clip-path="url(#yIDeIQvlbHxg)"/><path fill="rgb(255,248,0)" stroke="none" paint-order="stroke" d="M 357.3091735839844 77.81818389892578 L 357.87149357795715 77.81818389892578 L 357.87149357795715 130.45454788208008 L 357.3091735839844 130.45454788208008 L 357.3091735839844 77.81818389892578" fill-opacity="1" clip-path="url(#yIDeIQvlbHxg)"/><path fill="rgb(255,251,0)" stroke="none" paint-order="stroke" d="M 357.8714904785156 77.81818389892578 L 358.08875048160553 77.81818389892578 L 358.08875048160553 130.45454788208008 L 357.8714904785156 130.45454788208008 L 357.8714904785156 77.81818389892578" fill-opacity="1" clip-path="url(#yIDeIQvlbHxg)"/><path fill="rgb(255,255,0)" stroke="none" paint-order="stroke" d="M 358.0887451171875 77.81818389892578 L 358.3021711111069 77.81818389892578 L 358.3021711111069 130.45454788208008 L 358.0887451171875 130.45454788208008 L 358.0887451171875 77.81818389892578" fill-opacity="1" clip-path="url(#yIDeIQvlbHxg)"/><path fill="rgb(252,255,0)" stroke="none" paint-order="stroke" d="M 358.30218505859375 77.81818389892578 L 358.50538705289364 77.81818389892578 L 358.50538705289364 130.45454788208008 L 358.30218505859375 130.45454788208008 L 358.30218505859375 77.81818389892578" fill-opacity="1" clip-path="url(#yIDeIQvlbHxg)"/><path fill="rgb(249,255,0)" stroke="none" paint-order="stroke" d="M 358.5054016113281 77.81818389892578 L 358.7507776170969 77.81818389892578 L 358.7507776170969 130.45454788208008 L 358.5054016113281 130.45454788208008 L 358.5054016113281 77.81818389892578" fill-opacity="1" clip-path="url(#yIDeIQvlbHxg)"/><path fill="rgb(246,255,0)" stroke="none" paint-order="stroke" d="M 358.7507629394531 77.81818389892578 L 359.0063629448414 77.81818389892578 L 359.0063629448414 130.45454788208008 L 358.7507629394531 130.45454788208008 L 358.7507629394531 77.81818389892578" fill-opacity="1" clip-path="url(#yIDeIQvlbHxg)"/><path fill="rgb(243,255,0)" stroke="none" paint-order="stroke" d="M 359.0063781738281 77.81818389892578 L 359.2517541795969 77.81818389892578 L 359.2517541795969 130.45454788208008 L 359.0063781738281 130.45454788208008 L 359.0063781738281 77.81818389892578" fill-opacity="1" clip-path="url(#yIDeIQvlbHxg)"/><path fill="rgb(240,255,0)" stroke="none" paint-order="stroke" d="M 359.2517395019531 77.81818389892578 L 359.94697147607803 77.81818389892578 L 359.94697147607803 130.45454788208008 L 359.2517395019531 130.45454788208008 L 359.2517395019531 77.81818389892578" fill-opacity="1" clip-path="url(#yIDeIQvlbHxg)"/><path fill="rgb(237,255,0)" stroke="none" paint-order="stroke" d="M 359.94696044921875 77.81818389892578 L 360.1514404565096 77.81818389892578 L 360.1514404565096 130.45454788208008 L 359.94696044921875 130.45454788208008 L 359.94696044921875 77.81818389892578" fill-opacity="1" clip-path="url(#yIDeIQvlbHxg)"/><path fill="rgb(234,255,0)" stroke="none" paint-order="stroke" d="M 360.1514587402344 77.81818389892578 L 360.3354907333851 77.81818389892578 L 360.3354907333851 130.45454788208008 L 360.1514587402344 130.45454788208008 L 360.1514587402344 77.81818389892578" fill-opacity="1" clip-path="url(#yIDeIQvlbHxg)"/><path fill="rgb(231,255,0)" stroke="none" paint-order="stroke" d="M 360.3354797363281 77.81818389892578 L 360.5297357290983 77.81818389892578 L 360.5297357290983 130.45454788208008 L 360.3354797363281 130.45454788208008 L 360.3354797363281 77.81818389892578" fill-opacity="1" clip-path="url(#yIDeIQvlbHxg)"/><path fill="rgb(228,255,0)" stroke="none" paint-order="stroke" d="M 360.5297546386719 77.81818389892578 L 361.12274664640427 77.81818389892578 L 361.12274664640427 130.45454788208008 L 360.5297546386719 130.45454788208008 L 360.5297546386719 77.81818389892578" fill-opacity="1" clip-path="url(#yIDeIQvlbHxg)"/><path fill="rgb(225,255,0)" stroke="none" paint-order="stroke" d="M 361.12274169921875 77.81818389892578 L 485.8964385986328 77.81818389892578 L 485.8964385986328 130.45454788208008 L 361.12274169921875 130.45454788208008 L 361.12274169921875 77.81818389892578" fill-opacity="1" clip-path="url(#yIDeIQvlbHxg)"/><path fill="rgb(110,0,132)" stroke="none" paint-order="stroke" d="M 485.89642333984375 77.81818389892578 L 535.4010314941406 77.81818389892578 L 535.4010314941406 130.45454788208008 L 485.89642333984375 130.45454788208008 L 485.89642333984375 77.81818389892578" fill-opacity="1" clip-path="url(#yIDeIQvlbHxg)"/><path fill="rgb(251,0,7)" stroke="none" paint-order="stroke" d="M 58.5 130.4545440673828 L 485.89642333984375 130.4545440673828 L 485.89642333984375 183.0909080505371 L 58.5 183.0909080505371 L 58.5 130.4545440673828" fill-opacity="1" clip-path="url(#UEvvvokZDwka)"/><path fill="rgb(252,105,8)" stroke="none" paint-order="stroke" d="M 485.89642333984375 130.4545440673828 L 535.4010314941406 130.4545440673828 L 535.4010314941406 183.0909080505371 L 485.89642333984375 183.0909080505371 L 485.89642333984375 130.4545440673828" fill-opacity="1" clip-path="url(#UEvvvokZDwka)"/><path fill="rgb(105,29,48)" stroke="none" paint-order="stroke" d="M 233.1450958251953 183.09091186523438 L 233.20899582654238 183.09091186523438 L 233.20899582654238 498.9090881347656 L 233.1450958251953 498.9090881347656 L 233.1450958251953 183.09091186523438" fill-opacity="1" clip-path="url(#GKZVpTsLqTZJ)"/><path fill="rgb(255,188,66)" stroke="none" paint-order="stroke" d="M 225.9946746826172 183.09091186523438 L 232.15335655212402 183.09091186523438 L 232.15335655212402 498.9090881347656 L 225.9946746826172 498.9090881347656 L 225.9946746826172 183.09091186523438" fill-opacity="1" clip-path="url(#EJAxqntHomGG)"/><path fill="rgb(255,188,66)" stroke="none" paint-order="stroke" d="M 289.967529296875 183.09091186523438 L 291.1292313337326 183.09091186523438 L 291.1292313337326 498.9090881347656 L 289.967529296875 498.9090881347656 L 289.967529296875 183.09091186523438" fill-opacity="1" clip-path="url(#EJAxqntHomGG)"/><path fill="rgb(162,174,187)" stroke="none" paint-order="stroke" d="M 245.3768310546875 183.09091186523438 L 245.44073105603456 183.09091186523438 L 245.44073105603456 498.9090881347656 L 245.3768310546875 498.9090881347656 L 245.3768310546875 183.09091186523438" fill-opacity="1" clip-path="url(#xJeTkmKFvmVw)"/><path fill="rgb(255,188,66)" stroke="none" paint-order="stroke" d="M 246.8426971435547 183.09091186523438 L 247.34111714363098 183.09091186523438 L 247.34111714363098 498.9090881347656 L 246.8426971435547 498.9090881347656 L 246.8426971435547 183.09091186523438" fill-opacity="1" clip-path="url(#voWsKyvzqgRn)"/><path fill="rgb(255,188,66)" stroke="none" paint-order="stroke" d="M 247.48553466796875 183.09091186523438 L 248.59739470481873 183.09091186523438 L 248.59739470481873 498.9090881347656 L 247.48553466796875 498.9090881347656 L 247.48553466796875 183.09091186523438" fill-opacity="1" clip-path="url(#voWsKyvzqgRn)"/><path fill="rgb(255,188,66)" stroke="none" paint-order="stroke" d="M 249.73097229003906 183.09091186523438 L 252.6665382385254 183.09091186523438 L 252.6665382385254 498.9090881347656 L 249.73097229003906 498.9090881347656 L 249.73097229003906 183.09091186523438" fill-opacity="1" clip-path="url(#voWsKyvzqgRn)"/><path fill="rgb(216,17,89)" stroke="none" paint-order="stroke" d="M 234.40647888183594 183.09091186523438 L 234.470378883183 183.09091186523438 L 234.470378883183 498.9090881347656 L 234.40647888183594 498.9090881347656 L 234.40647888183594 183.09091186523438" fill-opacity="1" clip-path="url(#vDvCAKMzUrRW)"/><path fill="rgb(216,17,89)" stroke="none" paint-order="stroke" d="M 234.40647888183594 183.09091186523438 L 234.470378883183 183.09091186523438 L 234.470378883183 498.9090881347656 L 234.40647888183594 498.9090881347656 L 234.40647888183594 183.09091186523438" fill-opacity="1" clip-path="url(#vDvCAKMzUrRW)"/><path fill="rgb(33,131,128)" stroke="none" paint-order="stroke" d="M 253.5381317138672 183.09091186523438 L 254.84680366516113 183.09091186523438 L 254.84680366516113 498.9090881347656 L 253.5381317138672 498.9090881347656 L 253.5381317138672 183.09091186523438" fill-opacity="1" clip-path="url(#OAXNfPzFZiZc)"/><path fill="rgb(33,131,128)" stroke="none" paint-order="stroke" d="M 463.1927490234375 183.09091186523438 L 485.8964195251465 183.09091186523438 L 485.8964195251465 498.9090881347656 L 463.1927490234375 498.9090881347656 L 463.1927490234375 183.09091186523438" fill-opacity="1" clip-path="url(#OAXNfPzFZiZc)"/><path fill="rgb(33,131,128)" stroke="none" paint-order="stroke" d="M 534.188232421875 183.09091186523438 L 535.4010543823242 183.09091186523438 L 535.4010543823242 498.9090881347656 L 534.188232421875 498.9090881347656 L 534.188232421875 183.09091186523438" fill-opacity="1" clip-path="url(#OAXNfPzFZiZc)"/><path fill="rgb(115,210,222)" stroke="none" paint-order="stroke" d="M 301.00048828125 183.09091186523438 L 303.7763042449951 183.09091186523438 L 303.7763042449951 498.9090881347656 L 301.00048828125 498.9090881347656 L 301.00048828125 183.09091186523438" fill-opacity="1" clip-path="url(#VGUTMplgvbmR)"/><path fill="rgb(115,210,222)" stroke="none" paint-order="stroke" d="M 305.0543212890625 183.09091186523438 L 305.11822129040956 183.09091186523438 L 305.11822129040956 498.9090881347656 L 305.0543212890625 498.9090881347656 L 305.0543212890625 183.09091186523438" fill-opacity="1" clip-path="url(#VGUTMplgvbmR)"/><path fill="rgb(115,210,222)" stroke="none" paint-order="stroke" d="M 305.0543212890625 183.09091186523438 L 305.11822129040956 183.09091186523438 L 305.11822129040956 498.9090881347656 L 305.0543212890625 498.9090881347656 L 305.0543212890625 183.09091186523438" fill-opacity="1" clip-path="url(#VGUTMplgvbmR)"/><path fill="rgb(115,210,222)" stroke="none" paint-order="stroke" d="M 305.27923583984375 183.09091186523438 L 305.3431358411908 183.09091186523438 L 305.3431358411908 498.9090881347656 L 305.27923583984375 498.9090881347656 L 305.27923583984375 183.09091186523438" fill-opacity="1" clip-path="url(#VGUTMplgvbmR)"/><path fill="rgb(115,210,222)" stroke="none" paint-order="stroke" d="M 305.27923583984375 183.09091186523438 L 305.3431358411908 183.09091186523438 L 305.3431358411908 498.9090881347656 L 305.27923583984375 498.9090881347656 L 305.27923583984375 183.09091186523438" fill-opacity="1" clip-path="url(#VGUTMplgvbmR)"/><path fill="rgb(115,210,222)" stroke="none" paint-order="stroke" d="M 305.78021240234375 183.09091186523438 L 305.8441124036908 183.09091186523438 L 305.8441124036908 498.9090881347656 L 305.78021240234375 498.9090881347656 L 305.78021240234375 183.09091186523438" fill-opacity="1" clip-path="url(#VGUTMplgvbmR)"/><path fill="rgb(115,210,222)" stroke="none" paint-order="stroke" d="M 305.78021240234375 183.09091186523438 L 305.8441124036908 183.09091186523438 L 305.8441124036908 498.9090881347656 L 305.78021240234375 498.9090881347656 L 305.78021240234375 183.09091186523438" fill-opacity="1" clip-path="url(#VGUTMplgvbmR)"/><path fill="rgb(115,210,222)" stroke="none" paint-order="stroke" d="M 306.0051574707031 183.09091186523438 L 306.0690574720502 183.09091186523438 L 306.0690574720502 498.9090881347656 L 306.0051574707031 498.9090881347656 L 306.0051574707031 183.09091186523438" fill-opacity="1" clip-path="url(#VGUTMplgvbmR)"/><path fill="rgb(115,210,222)" stroke="none" paint-order="stroke" d="M 306.0051574707031 183.09091186523438 L 306.0690574720502 183.09091186523438 L 306.0690574720502 498.9090881347656 L 306.0051574707031 498.9090881347656 L 306.0051574707031 183.09091186523438" fill-opacity="1" clip-path="url(#VGUTMplgvbmR)"/><path fill="rgb(115,210,222)" stroke="none" paint-order="stroke" d="M 306.2300720214844 183.09091186523438 L 306.29397202283144 183.09091186523438 L 306.29397202283144 498.9090881347656 L 306.2300720214844 498.9090881347656 L 306.2300720214844 183.09091186523438" fill-opacity="1" clip-path="url(#VGUTMplgvbmR)"/><path fill="rgb(115,210,222)" stroke="none" paint-order="stroke" d="M 306.2300720214844 183.09091186523438 L 306.29397202283144 183.09091186523438 L 306.29397202283144 498.9090881347656 L 306.2300720214844 498.9090881347656 L 306.2300720214844 183.09091186523438" fill-opacity="1" clip-path="url(#VGUTMplgvbmR)"/><path fill="rgb(115,210,222)" stroke="none" paint-order="stroke" d="M 306.4243469238281 183.09091186523438 L 306.4882469251752 183.09091186523438 L 306.4882469251752 498.9090881347656 L 306.4243469238281 498.9090881347656 L 306.4243469238281 183.09091186523438" fill-opacity="1" clip-path="url(#VGUTMplgvbmR)"/><path fill="rgb(115,210,222)" stroke="none" paint-order="stroke" d="M 306.4243469238281 183.09091186523438 L 306.4882469251752 183.09091186523438 L 306.4882469251752 498.9090881347656 L 306.4243469238281 498.9090881347656 L 306.4243469238281 183.09091186523438" fill-opacity="1" clip-path="url(#VGUTMplgvbmR)"/><path fill="rgb(115,210,222)" stroke="none" paint-order="stroke" d="M 306.843505859375 183.09091186523438 L 306.90740586072206 183.09091186523438 L 306.90740586072206 498.9090881347656 L 306.843505859375 498.9090881347656 L 306.843505859375 183.09091186523438" fill-opacity="1" clip-path="url(#VGUTMplgvbmR)"/><path fill="rgb(115,210,222)" stroke="none" paint-order="stroke" d="M 306.843505859375 183.09091186523438 L 306.90740586072206 183.09091186523438 L 306.90740586072206 498.9090881347656 L 306.843505859375 498.9090881347656 L 306.843505859375 183.09091186523438" fill-opacity="1" clip-path="url(#VGUTMplgvbmR)"/><path fill="rgb(115,210,222)" stroke="none" paint-order="stroke" d="M 307.3342590332031 183.09091186523438 L 307.3981590345502 183.09091186523438 L 307.3981590345502 498.9090881347656 L 307.3342590332031 498.9090881347656 L 307.3342590332031 183.09091186523438" fill-opacity="1" clip-path="url(#VGUTMplgvbmR)"/><path fill="rgb(115,210,222)" stroke="none" paint-order="stroke" d="M 307.3342590332031 183.09091186523438 L 307.3981590345502 183.09091186523438 L 307.3981590345502 498.9090881347656 L 307.3342590332031 498.9090881347656 L 307.3342590332031 183.09091186523438" fill-opacity="1" clip-path="url(#VGUTMplgvbmR)"/><path fill="rgb(115,210,222)" stroke="none" paint-order="stroke" d="M 308.03973388671875 183.09091186523438 L 308.1036338880658 183.09091186523438 L 308.1036338880658 498.9090881347656 L 308.03973388671875 498.9090881347656 L 308.03973388671875 183.09091186523438" fill-opacity="1" clip-path="url(#VGUTMplgvbmR)"/><path fill="rgb(115,210,222)" stroke="none" paint-order="stroke" d="M 308.03973388671875 183.09091186523438 L 308.1036338880658 183.09091186523438 L 308.1036338880658 498.9090881347656 L 308.03973388671875 498.9090881347656 L 308.03973388671875 183.09091186523438" fill-opacity="1" clip-path="url(#VGUTMplgvbmR)"/><path fill="rgb(115,210,222)" stroke="none" paint-order="stroke" d="M 308.2544250488281 183.09091186523438 L 308.3183250501752 183.09091186523438 L 308.3183250501752 498.9090881347656 L 308.2544250488281 498.9090881347656 L 308.2544250488281 183.09091186523438" fill-opacity="1" clip-path="url(#VGUTMplgvbmR)"/><path fill="rgb(115,210,222)" stroke="none" paint-order="stroke" d="M 308.2544250488281 183.09091186523438 L 308.3183250501752 183.09091186523438 L 308.3183250501752 498.9090881347656 L 308.2544250488281 498.9090881347656 L 308.2544250488281 183.09091186523438" fill-opacity="1" clip-path="url(#VGUTMplgvbmR)"/><path fill="rgb(28,49,68)" stroke="none" paint-order="stroke" d="M 286.7060852050781 183.09091186523438 L 287.49972319602966 183.09091186523438 L 287.49972319602966 498.9090881347656 L 286.7060852050781 498.9090881347656 L 286.7060852050781 183.09091186523438" fill-opacity="1" clip-path="url(#xbmXTkFUGSGc)"/><path fill="rgb(239,185,203)" stroke="none" paint-order="stroke" d="M 64.95645904541016 183.09091186523438 L 214.43900299072266 183.09091186523438 L 214.43900299072266 498.9090881347656 L 64.95645904541016 498.9090881347656 L 64.95645904541016 183.09091186523438" fill-opacity="1" clip-path="url(#UegTOgItFiHW)"/><path fill="rgb(239,185,203)" stroke="none" paint-order="stroke" d="M 236.8193359375 183.09091186523438 L 240.85781574249268 183.09091186523438 L 240.85781574249268 498.9090881347656 L 236.8193359375 498.9090881347656 L 236.8193359375 183.09091186523438" fill-opacity="1" clip-path="url(#UegTOgItFiHW)"/><path fill="rgb(239,185,203)" stroke="none" paint-order="stroke" d="M 256.48008728027344 183.09091186523438 L 283.9622001647949 183.09091186523438 L 283.9622001647949 498.9090881347656 L 256.48008728027344 498.9090881347656 L 256.48008728027344 183.09091186523438" fill-opacity="1" clip-path="url(#UegTOgItFiHW)"/><path fill="rgb(239,185,203)" stroke="none" paint-order="stroke" d="M 316.25982666015625 183.09091186523438 L 323.14057874679565 183.09091186523438 L 323.14057874679565 498.9090881347656 L 316.25982666015625 498.9090881347656 L 316.25982666015625 183.09091186523438" fill-opacity="1" clip-path="url(#UegTOgItFiHW)"/><path fill="rgb(239,185,203)" stroke="none" paint-order="stroke" d="M 392.234375 183.09091186523438 L 421.6092052459717 183.09091186523438 L 421.6092052459717 498.9090881347656 L 392.234375 498.9090881347656 L 392.234375 183.09091186523438" fill-opacity="1" clip-path="url(#UegTOgItFiHW)"/><path fill="rgb(239,185,203)" stroke="none" paint-order="stroke" d="M 465.84844970703125 183.09091186523438 L 481.295636177063 183.09091186523438 L 481.295636177063 498.9090881347656 L 465.84844970703125 498.9090881347656 L 465.84844970703125 183.09091186523438" fill-opacity="1" clip-path="url(#UegTOgItFiHW)"/><path fill="rgb(239,185,203)" stroke="none" paint-order="stroke" d="M 488.04345703125 183.09091186523438 L 530.4321594238281 183.09091186523438 L 530.4321594238281 498.9090881347656 L 488.04345703125 498.9090881347656 L 488.04345703125 183.09091186523438" fill-opacity="1" clip-path="url(#UegTOgItFiHW)"/><path fill="rgb(105,29,48)" stroke="none" paint-order="stroke" d="M 346.8742980957031 183.09091186523438 L 353.52628803253174 183.09091186523438 L 353.52628803253174 498.9090881347656 L 346.8742980957031 498.9090881347656 L 346.8742980957031 183.09091186523438" fill-opacity="1" clip-path="url(#lTWKyZDxpyfq)"/><path fill="rgb(255,188,66)" stroke="none" paint-order="stroke" d="M 228.7807159423828 498.9090881347656 L 232.1418559551239 498.9090881347656 L 232.1418559551239 551.5454521179199 L 228.7807159423828 551.5454521179199 L 228.7807159423828 498.9090881347656" fill-opacity="1" clip-path="url(#FzgEzspayvQu)"/><path fill="rgb(143,45,86)" stroke="none" paint-order="stroke" d="M 58.5 551.5454711914062 L 233.1450958251953 551.5454711914062 L 233.1450958251953 604.1818351745605 L 58.5 604.1818351745605 L 58.5 551.5454711914062" fill-opacity="1" clip-path="url(#TTevbRsCufDF)"/><path fill="rgb(63,136,197)" stroke="none" paint-order="stroke" d="M 233.1450958251953 551.5454711914062 L 245.37683391571045 551.5454711914062 L 245.37683391571045 604.1818351745605 L 233.1450958251953 604.1818351745605 L 233.1450958251953 551.5454711914062" fill-opacity="1" clip-path="url(#TTevbRsCufDF)"/><path fill="rgb(81,60,99)" stroke="none" paint-order="stroke" d="M 245.3768310546875 551.5454711914062 L 246.9909451007843 551.5454711914062 L 246.9909451007843 604.1818351745605 L 245.3768310546875 604.1818351745605 L 245.3768310546875 551.5454711914062" fill-opacity="1" clip-path="url(#TTevbRsCufDF)"/><path fill="rgb(143,45,86)" stroke="none" paint-order="stroke" d="M 246.99093627929688 551.5454711914062 L 247.328328281641 551.5454711914062 L 247.328328281641 604.1818351745605 L 246.99093627929688 604.1818351745605 L 246.99093627929688 551.5454711914062" fill-opacity="1" clip-path="url(#TTevbRsCufDF)"/><path fill="rgb(81,60,99)" stroke="none" paint-order="stroke" d="M 247.32833862304688 551.5454711914062 L 247.3398406226188 551.5454711914062 L 247.3398406226188 604.1818351745605 L 247.32833862304688 604.1818351745605 L 247.32833862304688 551.5454711914062" fill-opacity="1" clip-path="url(#TTevbRsCufDF)"/><path fill="rgb(143,45,86)" stroke="none" paint-order="stroke" d="M 247.33982849121094 551.5454711914062 L 247.34110649116337 551.5454711914062 L 247.34110649116337 604.1818351745605 L 247.33982849121094 604.1818351745605 L 247.33982849121094 551.5454711914062" fill-opacity="1" clip-path="url(#TTevbRsCufDF)"/><path fill="rgb(81,60,99)" stroke="none" paint-order="stroke" d="M 247.3411102294922 551.5454711914062 L 247.58265222609043 551.5454711914062 L 247.58265222609043 604.1818351745605 L 247.3411102294922 604.1818351745605 L 247.3411102294922 551.5454711914062" fill-opacity="1" clip-path="url(#TTevbRsCufDF)"/><path fill="rgb(143,45,86)" stroke="none" paint-order="stroke" d="M 247.58265686035156 551.5454711914062 L 250.396812915802 551.5454711914062 L 250.396812915802 604.1818351745605 L 247.58265686035156 604.1818351745605 L 247.58265686035156 551.5454711914062" fill-opacity="1" clip-path="url(#TTevbRsCufDF)"/><path fill="rgb(81,60,99)" stroke="none" paint-order="stroke" d="M 250.3968048095703 551.5454711914062 L 250.43897880986333 551.5454711914062 L 250.43897880986333 604.1818351745605 L 250.3968048095703 604.1818351745605 L 250.3968048095703 551.5454711914062" fill-opacity="1" clip-path="url(#TTevbRsCufDF)"/><path fill="rgb(143,45,86)" stroke="none" paint-order="stroke" d="M 250.43898010253906 551.5454711914062 L 250.90672808885574 551.5454711914062 L 250.90672808885574 604.1818351745605 L 250.43898010253906 604.1818351745605 L 250.43898010253906 551.5454711914062" fill-opacity="1" clip-path="url(#TTevbRsCufDF)"/><path fill="rgb(81,60,99)" stroke="none" paint-order="stroke" d="M 250.90673828125 551.5454711914062 L 250.92974228039384 551.5454711914062 L 250.92974228039384 604.1818351745605 L 250.90673828125 604.1818351745605 L 250.90673828125 551.5454711914062" fill-opacity="1" clip-path="url(#TTevbRsCufDF)"/><path fill="rgb(143,45,86)" stroke="none" paint-order="stroke" d="M 250.9297332763672 551.5454711914062 L 252.16300332546234 551.5454711914062 L 252.16300332546234 604.1818351745605 L 250.9297332763672 604.1818351745605 L 250.9297332763672 551.5454711914062" fill-opacity="1" clip-path="url(#TTevbRsCufDF)"/><path fill="rgb(81,60,99)" stroke="none" paint-order="stroke" d="M 252.1630096435547 551.5454711914062 L 535.4010467529297 551.5454711914062 L 535.4010467529297 604.1818351745605 L 252.1630096435547 604.1818351745605 L 252.1630096435547 551.5454711914062" fill-opacity="1" clip-path="url(#TTevbRsCufDF)"/><path fill="none" stroke="rgb(0,0,0)" paint-order="fill" d="M 58.5 77.81818389892578 L 535.4010314941406 77.81818389892578 L 535.4010314941406 604.1818313598633 L 58.5 604.1818313598633 L 58.5 77.81818389892578" stroke-opacity="1" stroke-linejoin="bevel" stroke-miterlimit="10" stroke-dasharray="" clip-path="url(#QGBUJzErXUxR)"/><path fill="none" stroke="rgb(0,0,0)" paint-order="fill" d="M 58.5 630.5 L 1336.5 630.5" stroke-opacity="1" stroke-linejoin="bevel" stroke-miterlimit="10" stroke-dasharray=""/><path fill="none" stroke="rgb(0,0,0)" paint-order="fill" d="M 58.5 636.5 L 58.5 628.5 M 314.5 636.5 L 314.5 628.5 M 569.5 636.5 L 569.5 628.5 M 825.5 636.5 L 825.5 628.5 M 1080.5 636.5 L 1080.5 628.5 M 1336.5 636.5 L 1336.5 628.5" stroke-opacity="1" stroke-linejoin="bevel" stroke-miterlimit="10" stroke-dasharray=""/><path fill="none" stroke="rgb(0,0,0)" paint-order="fill" d="M 58.5 634.5 L 58.5 630.5 M 109.5 634.5 L 109.5 630.5 M 160.5 634.5 L 160.5 630.5 M 211.5 634.5 L 211.5 630.5 M 262.5 634.5 L 262.5 630.5 M 314.5 634.5 L 314.5 630.5 M 365.5 634.5 L 365.5 630.5 M 416.5 634.5 L 416.5 630.5 M 467.5 634.5 L 467.5 630.5 M 518.5 634.5 L 518.5 630.5 M 569.5 634.5 L 569.5 630.5 M 620.5 634.5 L 620.5 630.5 M 671.5 634.5 L 671.5 630.5 M 723.5 634.5 L 723.5 630.5 M 774.5 634.5 L 774.5 630.5 M 825.5 634.5 L 825.5 630.5 M 876.5 634.5 L 876.5 630.5 M 927.5 634.5 L 927.5 630.5 M 978.5 634.5 L 978.5 630.5 M 1029.5 634.5 L 1029.5 630.5 M 1080.5 634.5 L 1080.5 630.5 M 1132.5 634.5 L 1132.5 630.5 M 1183.5 634.5 L 1183.5 630.5 M 1234.5 634.5 L 1234.5 630.5 M 1285.5 634.5 L 1285.5 630.5 M 1336.5 634.5 L 1336.5 630.5" stroke-opacity="1" stroke-linejoin="bevel" stroke-miterlimit="10" stroke-dasharray=""/><text fill="rgb(68,68,68)" stroke="none" font-family="helvetica" font-size="11px" font-style="normal" font-weight="normal" text-decoration="normal" x="54.94166660308838" y="648.89013671875" text-anchor="start" dominant-baseline="alphabetic" transform="matrix(1, 0, 0, 1, 0.5, 0.5)" fill-opacity="1">0</text><text fill="rgb(68,68,68)" stroke="none" font-family="helvetica" font-size="11px" font-style="normal" font-weight="normal" text-decoration="normal" x="304.42500591278076" y="648.89013671875" text-anchor="start" dominant-baseline="alphabetic" transform="matrix(1, 0, 0, 1, 0.5, 0.5)" fill-opacity="1">200</text><text fill="rgb(68,68,68)" stroke="none" font-family="helvetica" font-size="11px" font-style="normal" font-weight="normal" text-decoration="normal" x="560.0250120162964" y="648.89013671875" text-anchor="start" dominant-baseline="alphabetic" transform="matrix(1, 0, 0, 1, 0.5, 0.5)" fill-opacity="1">400</text><text fill="rgb(68,68,68)" stroke="none" font-family="helvetica" font-size="11px" font-style="normal" font-weight="normal" text-decoration="normal" x="815.6249876022339" y="648.89013671875" text-anchor="start" dominant-baseline="alphabetic" transform="matrix(1, 0, 0, 1, 0.5, 0.5)" fill-opacity="1">600</text><text fill="rgb(68,68,68)" stroke="none" font-family="helvetica" font-size="11px" font-style="normal" font-weight="normal" text-decoration="normal" x="1071.2250242233276" y="648.89013671875" text-anchor="start" dominant-baseline="alphabetic" transform="matrix(1, 0, 0, 1, 0.5, 0.5)" fill-opacity="1">800</text><text fill="rgb(68,68,68)" stroke="none" font-family="helvetica" font-size="11px" font-style="normal" font-weight="normal" text-decoration="normal" x="1323.7666664123535" y="648.89013671875" text-anchor="start" dominant-baseline="alphabetic" transform="matrix(1, 0, 0, 1, 0.5, 0.5)" fill-opacity="1">1000</text><text fill="rgb(68,68,68)" stroke="none" font-family="helvetica" font-size="15pt" font-style="italic" font-weight="normal" text-decoration="normal" x="666.4416675567627" y="676.06982421875" text-anchor="start" dominant-baseline="alphabetic" transform="matrix(1, 0, 0, 1, 0.5, 0.5)" fill-opacity="1">time(s)</text><path fill="none" stroke="rgb(0,0,0)" paint-order="fill" d="M 58.5 630.5 L 58.5 51.5" stroke-opacity="1" stroke-linejoin="bevel" stroke-miterlimit="10" stroke-dasharray=""/><path fill="none" stroke="rgb(0,0,0)" paint-order="fill" d="M 52.5 551.5 L 60.5 551.5 M 52.5 446.5 L 60.5 446.5 M 52.5 341.5 L 60.5 341.5 M 52.5 235.5 L 60.5 235.5 M 52.5 130.5 L 60.5 130.5" stroke-opacity="1" stroke-linejoin="bevel" stroke-miterlimit="10" stroke-dasharray=""/><path fill="none" stroke="rgb(0,0,0)" paint-order="fill" d="M 54.5 572.5 L 58.5 572.5 M 54.5 593.5 L 58.5 593.5 M 54.5 614.5 L 58.5 614.5 M 54.5 551.5 L 58.5 551.5 M 54.5 530.5 L 58.5 530.5 M 54.5 509.5 L 58.5 509.5 M 54.5 488.5 L 58.5 488.5 M 54.5 467.5 L 58.5 467.5 M 54.5 446.5 L 58.5 446.5 M 54.5 425.5 L 58.5 425.5 M 54.5 404.5 L 58.5 404.5 M 54.5 383.5 L 58.5 383.5 M 54.5 362.5 L 58.5 362.5 M 54.5 341.5 L 58.5 341.5 M 54.5 319.5 L 58.5 319.5 M 54.5 298.5 L 58.5 298.5 M 54.5 277.5 L 58.5 277.5 M 54.5 256.5 L 58.5 256.5 M 54.5 235.5 L 58.5 235.5 M 54.5 214.5 L 58.5 214.5 M 54.5 193.5 L 58.5 193.5 M 54.5 172.5 L 58.5 172.5 M 54.5 151.5 L 58.5 151.5 M 54.5 130.5 L 58.5 130.5 M 54.5 109.5 L 58.5 109.5 M 54.5 88.5 L 58.5 88.5 M 54.5 67.5 L 58.5 67.5" stroke-opacity="1" stroke-linejoin="bevel" stroke-miterlimit="10" stroke-dasharray=""/><text fill="rgb(68,68,68)" stroke="none" font-family="helvetica" font-size="11px" font-style="normal" font-weight="normal" text-decoration="normal" x="34.46666622161865" y="554.9905395507812" text-anchor="start" dominant-baseline="alphabetic" transform="matrix(1, 0, 0, 1, 0.5, 0.5)" fill-opacity="1">−2</text><text fill="rgb(68,68,68)" stroke="none" font-family="helvetica" font-size="11px" font-style="normal" font-weight="normal" text-decoration="normal" x="34.46666622161865" y="449.7178039550781" text-anchor="start" dominant-baseline="alphabetic" transform="matrix(1, 0, 0, 1, 0.5, 0.5)" fill-opacity="1">−1</text><text fill="rgb(68,68,68)" stroke="none" font-family="helvetica" font-size="11px" font-style="normal" font-weight="normal" text-decoration="normal" x="40.88333320617676" y="344.445068359375" text-anchor="start" dominant-baseline="alphabetic" transform="matrix(1, 0, 0, 1, 0.5, 0.5)" fill-opacity="1">0</text><text fill="rgb(68,68,68)" stroke="none" font-family="helvetica" font-size="11px" font-style="normal" font-weight="normal" text-decoration="normal" x="40.88333320617676" y="239.17234802246094" text-anchor="start" dominant-baseline="alphabetic" transform="matrix(1, 0, 0, 1, 0.5, 0.5)" fill-opacity="1">1</text><text fill="rgb(68,68,68)" stroke="none" font-family="helvetica" font-size="11px" font-style="normal" font-weight="normal" text-decoration="normal" x="40.88333320617676" y="133.8996124267578" text-anchor="start" dominant-baseline="alphabetic" transform="matrix(1, 0, 0, 1, 0.5, 0.5)" fill-opacity="1">2</text><text fill="rgb(68,68,68)" stroke="none" font-family="helvetica" font-size="15pt" font-style="italic" font-weight="normal" text-decoration="normal" x="-11.316666603088379" y="336.076171875" text-anchor="start" dominant-baseline="alphabetic" transform="matrix(6.123233995736766e-17, -1, 1, 6.123233995736766e-17, -313.53333377838135, 367.46666622161865)" fill-opacity="1">students</text><path fill="rgb(255,255,255)" stroke="rgb(229,229,229)" paint-order="fill" d="M 1128.2333374023438 61.5 L 1326.5 61.5 L 1326.5 400.5 L 1128.2333374023438 400.5 L 1128.2333374023438 61.5" fill-opacity="0.9490196078431372" clip-path="url(#CARKgogtLyFT)" stroke-opacity="0.5019607843137255" stroke-linejoin="bevel" stroke-miterlimit="10" stroke-dasharray=""/><g clip-path="url(#CARKgogtLyFT)"><text fill="rgb(68,68,68)" stroke="none" font-family="helvetica" font-size="13px" font-style="normal" font-weight="normal" text-decoration="normal" x="1162.7333374023438" y="81" text-anchor="start" dominant-baseline="central" transform="matrix(1, 0, 0, 1, 0.5, 0.5)" fill-opacity="1">wavelength</text></g><path fill="rgb(0,255,40)" stroke="none" paint-order="stroke" d="M 1140.2333374023438 73.5 L 1156.2333374023438 73.5 L 1156.2333374023438 89.5 L 1140.2333374023438 89.5 L 1140.2333374023438 73.5" fill-opacity="1" clip-path="url(#CARKgogtLyFT)"/><path fill="rgb(216,17,89)" stroke="none" paint-order="stroke" d="M 1140.2333374023438 73.5 L 1156.2333374023438 73.5 L 1156.2333374023438 89.5 L 1140.2333374023438 89.5 L 1140.2333374023438 73.5" fill-opacity="1" clip-path="url(#CARKgogtLyFT)"/><g clip-path="url(#CARKgogtLyFT)"><text fill="rgb(68,68,68)" stroke="none" font-family="helvetica" font-size="13px" font-style="normal" font-weight="normal" text-decoration="normal" x="1162.7333374023438" y="104" text-anchor="start" dominant-baseline="central" transform="matrix(1, 0, 0, 1, 0.5, 0.5)" fill-opacity="1">solution</text></g><path fill="rgb(251,0,7)" stroke="none" paint-order="stroke" d="M 1140.2333374023438 96.5 L 1156.2333374023438 96.5 L 1156.2333374023438 112.5 L 1140.2333374023438 112.5 L 1140.2333374023438 96.5" fill-opacity="1" clip-path="url(#CARKgogtLyFT)"/><path fill="rgb(33,131,128)" stroke="none" paint-order="stroke" d="M 1140.2333374023438 96.5 L 1156.2333374023438 96.5 L 1156.2333374023438 112.5 L 1140.2333374023438 112.5 L 1140.2333374023438 96.5" fill-opacity="1" clip-path="url(#CARKgogtLyFT)"/><g clip-path="url(#CARKgogtLyFT)"><text fill="rgb(68,68,68)" stroke="none" font-family="helvetica" font-size="13px" font-style="normal" font-weight="normal" text-decoration="normal" x="1162.7333374023438" y="127" text-anchor="start" dominant-baseline="central" transform="matrix(1, 0, 0, 1, 0.5, 0.5)" fill-opacity="1">laser</text></g><path fill="rgb(105,29,48)" stroke="none" paint-order="stroke" d="M 1140.2333374023438 119.5 L 1156.2333374023438 119.5 L 1156.2333374023438 135.5 L 1140.2333374023438 135.5 L 1140.2333374023438 119.5" fill-opacity="1" clip-path="url(#CARKgogtLyFT)"/><g clip-path="url(#CARKgogtLyFT)"><text fill="rgb(68,68,68)" stroke="none" font-family="helvetica" font-size="13px" font-style="normal" font-weight="normal" text-decoration="normal" x="1162.7333374023438" y="150" text-anchor="start" dominant-baseline="central" transform="matrix(1, 0, 0, 1, 0.5, 0.5)" fill-opacity="1">ruler</text></g><path fill="rgb(255,188,66)" stroke="none" paint-order="stroke" d="M 1140.2333374023438 142.5 L 1156.2333374023438 142.5 L 1156.2333374023438 158.5 L 1140.2333374023438 158.5 L 1140.2333374023438 142.5" fill-opacity="1" clip-path="url(#CARKgogtLyFT)"/><g clip-path="url(#CARKgogtLyFT)"><text fill="rgb(68,68,68)" stroke="none" font-family="helvetica" font-size="13px" font-style="normal" font-weight="normal" text-decoration="normal" x="1162.7333374023438" y="173" text-anchor="start" dominant-baseline="central" transform="matrix(1, 0, 0, 1, 0.5, 0.5)" fill-opacity="1">restarts</text></g><g clip-path="url(#CARKgogtLyFT)"><text fill="rgb(68,68,68)" stroke="none" font-family="helvetica" font-size="13px" font-style="normal" font-weight="normal" text-decoration="normal" x="1162.7333374023438" y="196" text-anchor="start" dominant-baseline="central" transform="matrix(1, 0, 0, 1, 0.5, 0.5)" fill-opacity="1">transmittance_absorbance</text></g><path fill="rgb(162,174,187)" stroke="none" paint-order="stroke" d="M 1140.2333374023438 188.5 L 1156.2333374023438 188.5 L 1156.2333374023438 204.5 L 1140.2333374023438 204.5 L 1140.2333374023438 188.5" fill-opacity="1" clip-path="url(#CARKgogtLyFT)"/><g clip-path="url(#CARKgogtLyFT)"><text fill="rgb(68,68,68)" stroke="none" font-family="helvetica" font-size="13px" font-style="normal" font-weight="normal" text-decoration="normal" x="1162.7333374023438" y="219" text-anchor="start" dominant-baseline="central" transform="matrix(1, 0, 0, 1, 0.5, 0.5)" fill-opacity="1">magnifier</text></g><path fill="rgb(255,188,66)" stroke="none" paint-order="stroke" d="M 1140.2333374023438 211.5 L 1156.2333374023438 211.5 L 1156.2333374023438 227.5 L 1140.2333374023438 227.5 L 1140.2333374023438 211.5" fill-opacity="1" clip-path="url(#CARKgogtLyFT)"/><g clip-path="url(#CARKgogtLyFT)"><text fill="rgb(68,68,68)" stroke="none" font-family="helvetica" font-size="13px" font-style="normal" font-weight="normal" text-decoration="normal" x="1162.7333374023438" y="242" text-anchor="start" dominant-baseline="central" transform="matrix(1, 0, 0, 1, 0.5, 0.5)" fill-opacity="1">concentration</text></g><path fill="rgb(115,210,222)" stroke="none" paint-order="stroke" d="M 1140.2333374023438 234.5 L 1156.2333374023438 234.5 L 1156.2333374023438 250.5 L 1140.2333374023438 250.5 L 1140.2333374023438 234.5" fill-opacity="1" clip-path="url(#CARKgogtLyFT)"/><g clip-path="url(#CARKgogtLyFT)"><text fill="rgb(68,68,68)" stroke="none" font-family="helvetica" font-size="13px" font-style="normal" font-weight="normal" text-decoration="normal" x="1162.7333374023438" y="265" text-anchor="start" dominant-baseline="central" transform="matrix(1, 0, 0, 1, 0.5, 0.5)" fill-opacity="1">flask</text></g><path fill="rgb(28,49,68)" stroke="none" paint-order="stroke" d="M 1140.2333374023438 257.5 L 1156.2333374023438 257.5 L 1156.2333374023438 273.5 L 1140.2333374023438 273.5 L 1140.2333374023438 257.5" fill-opacity="1" clip-path="url(#CARKgogtLyFT)"/><g clip-path="url(#CARKgogtLyFT)"><text fill="rgb(68,68,68)" stroke="none" font-family="helvetica" font-size="13px" font-style="normal" font-weight="normal" text-decoration="normal" x="1162.7333374023438" y="288" text-anchor="start" dominant-baseline="central" transform="matrix(1, 0, 0, 1, 0.5, 0.5)" fill-opacity="1">pdf</text></g><path fill="rgb(239,185,203)" stroke="none" paint-order="stroke" d="M 1140.2333374023438 280.5 L 1156.2333374023438 280.5 L 1156.2333374023438 296.5 L 1140.2333374023438 296.5 L 1140.2333374023438 280.5" fill-opacity="1" clip-path="url(#CARKgogtLyFT)"/><g clip-path="url(#CARKgogtLyFT)"><text fill="rgb(68,68,68)" stroke="none" font-family="helvetica" font-size="13px" font-style="normal" font-weight="normal" text-decoration="normal" x="1162.7333374023438" y="311" text-anchor="start" dominant-baseline="central" transform="matrix(1, 0, 0, 1, 0.5, 0.5)" fill-opacity="1">concentrationlab</text></g><g clip-path="url(#CARKgogtLyFT)"><text fill="rgb(68,68,68)" stroke="none" font-family="helvetica" font-size="13px" font-style="normal" font-weight="normal" text-decoration="normal" x="1162.7333374023438" y="334" text-anchor="start" dominant-baseline="central" transform="matrix(1, 0, 0, 1, 0.5, 0.5)" fill-opacity="1">wavelength_slider</text></g><path fill="rgb(105,29,48)" stroke="none" paint-order="stroke" d="M 1140.2333374023438 326.5 L 1156.2333374023438 326.5 L 1156.2333374023438 342.5 L 1140.2333374023438 342.5 L 1140.2333374023438 326.5" fill-opacity="1" clip-path="url(#CARKgogtLyFT)"/><g clip-path="url(#CARKgogtLyFT)"><text fill="rgb(68,68,68)" stroke="none" font-family="helvetica" font-size="13px" font-style="normal" font-weight="normal" text-decoration="normal" x="1162.7333374023438" y="357" text-anchor="start" dominant-baseline="central" transform="matrix(1, 0, 0, 1, 0.5, 0.5)" fill-opacity="1">ruler measuring</text></g><path fill="rgb(255,188,66)" stroke="none" paint-order="stroke" d="M 1140.2333374023438 349.5 L 1156.2333374023438 349.5 L 1156.2333374023438 365.5 L 1140.2333374023438 365.5 L 1140.2333374023438 349.5" fill-opacity="1" clip-path="url(#CARKgogtLyFT)"/><g clip-path="url(#CARKgogtLyFT)"><text fill="rgb(68,68,68)" stroke="none" font-family="helvetica" font-size="13px" font-style="normal" font-weight="normal" text-decoration="normal" x="1162.7333374023438" y="380" text-anchor="start" dominant-baseline="central" transform="matrix(1, 0, 0, 1, 0.5, 0.5)" fill-opacity="1">dependent variable</text></g><path fill="rgb(143,45,86)" stroke="none" paint-order="stroke" d="M 1140.2333374023438 372.5 L 1156.2333374023438 372.5 L 1156.2333374023438 388.5 L 1140.2333374023438 388.5 L 1140.2333374023438 372.5" fill-opacity="1" clip-path="url(#CARKgogtLyFT)"/><text fill="rgb(68,68,68)" stroke="none" font-family="helvetica" font-size="25pt" font-style="normal" font-weight="bold" text-decoration="normal" x="58" y="38.740885416666664" text-anchor="start" dominant-baseline="alphabetic" transform="matrix(1, 0, 0, 1, 0.5, 0.5)" fill-opacity="1">Timeline for student 4jchqv4d with permutation 1302 for task 3</text></svg>