<svg version="1.1" xmlns="http://www.w3.org/2000/svg" width="1366" height="683"><defs><clipPath id="StTPXRegzuCe"><path fill="none" stroke="none" d="M 58.5 51.5 L 1336.5 51.5 L 1336.5 630.5 L 58.5 630.5 L 58.5 51.5"/></clipPath><clipPath id="zrzmaJBBOUzs"><path fill="none" stroke="none" d="M 58.5 51.5 L 1336.5 51.5 L 1336.5 630.5 L 58.5 630.5 L 58.5 51.5"/></clipPath><clipPath id="dHHOlOwviFxA"><path fill="none" stroke="none" d="M 58.5 51.5 L 1336.5 51.5 L 1336.5 630.5 L 58.5 630.5 L 58.5 51.5"/></clipPath><clipPath id="dCDLWFIWUERl"><path fill="none" stroke="none" d="M 58.5 51.5 L 1336.5 51.5 L 1336.5 630.5 L 58.5 630.5 L 58.5 51.5"/></clipPath><clipPath id="WAHkdRGdrlUv"><path fill="none" stroke="none" d="M 58.5 51.5 L 1336.5 51.5 L 1336.5 630.5 L 58.5 630.5 L 58.5 51.5"/></clipPath><clipPath id="aKGOtLStTdra"><path fill="none" stroke="none" d="M 58.5 51.5 L 1336.5 51.5 L 1336.5 630.5 L 58.5 630.5 L 58.5 51.5"/></clipPath><clipPath id="fcQuZIRoNgrw"><path fill="none" stroke="none" d="M 58.5 51.5 L 1336.5 51.5 L 1336.5 630.5 L 58.5 630.5 L 58.5 51.5"/></clipPath><clipPath id="fHTJHbmSHiai"><path fill="none" stroke="none" d="M 58.5 51.5 L 1336.5 51.5 L 1336.5 630.5 L 58.5 630.5 L 58.5 51.5"/></clipPath><clipPath id="hXIrRaQIBLdp"><path fill="none" stroke="none" d="M 58.5 51.5 L 1336.5 51.5 L 1336.5 630.5 L 58.5 630.5 L 58.5 51.5"/></clipPath><clipPath id="aQJdXTNqlTQV"><path fill="none" stroke="none" d="M 58.5 51.5 L 1336.5 51.5 L 1336.5 630.5 L 58.5 630.5 L 58.5 51.5"/></clipPath><clipPath id="HcfTPBfbiqCG"><path fill="none" stroke="none" d="M 58.5 51.5 L 1336.5 51.5 L 1336.5 630.5 L 58.5 630.5 L 58.5 51.5"/></clipPath><clipPath id="cxoLMAQHflzA"><path fill="none" stroke="none" d="M 58.5 51.5 L 1336.5 51.5 L 1336.5 630.5 L 58.5 630.5 L 58.5 51.5"/></clipPath><clipPath id="dcibZWmVSIzb"><path fill="none" stroke="none" d="M 58.5 51.5 L 1336.5 51.5 L 1336.5 630.5 L 58.5 630.5 L 58.5 51.5"/></clipPath><clipPath id="OTLSWWNdToaB"><path fill="none" stroke="none" d="M 58.5 51.5 L 1336.5 51.5 L 1336.5 630.5 L 58.5 630.5 L 58.5 51.5"/></clipPath><clipPath id="ePOTTbRTKwCg"><path fill="none" stroke="none" d="M 58.5 51.5 L 1336.5 51.5 L 1336.5 630.5 L 58.5 630.5 L 58.5 51.5"/></clipPath><clipPath id="yOzDEyFVRIaT"><path fill="none" stroke="none" d="M 58.5 51.5 L 1336.5 51.5 L 1336.5 630.5 L 58.5 630.5 L 58.5 51.5"/></clipPath><clipPath id="sgDEkvCXulWp"><path fill="none" stroke="none" d="M 58.5 51.5 L 1336.5 51.5 L 1336.5 630.5 L 58.5 630.5 L 58.5 51.5"/></clipPath><clipPath id="AVkrOubECTBT"><path fill="none" stroke="none" d="M 58.5 51.5 L 1336.5 51.5 L 1336.5 630.5 L 58.5 630.5 L 58.5 51.5"/></clipPath><clipPath id="nRhKaFroKUBz"><path fill="none" stroke="none" d="M 58.5 51.5 L 1336.5 51.5 L 1336.5 630.5 L 58.5 630.5 L 58.5 51.5"/></clipPath><clipPath id="XcwDdePWcgmx"><path fill="none" stroke="none" d="M 58.5 51.5 L 1336.5 51.5 L 1336.5 630.5 L 58.5 630.5 L 58.5 51.5"/></clipPath><clipPath id="oAyiEaonaBIf"><path fill="none" stroke="none" d="M 58.5 51.5 L 1336.5 51.5 L 1336.5 630.5 L 58.5 630.5 L 58.5 51.5"/></clipPath></defs><path fill="rgb(255,255,255)" stroke="none" paint-order="stroke" d="M 0.5 0.5 L 1366.5 0.5 L 1366.5 683.5 L 0.5 683.5 L 0.5 0.5" fill-opacity="1"/><rect fill="#FFFFFF" stroke="none" x="58" y="51" width="1278" height="579" transform="matrix(1, 0, 0, 1, 0.5, 0.5)"/><path fill="rgb(255,255,255)" stroke="none" paint-order="stroke" d="M 58.5 51.5 L 1336.5 51.5 L 1336.5 630.5 L 58.5 630.5 L 58.5 51.5" fill-opacity="1"/><path fill="none" stroke="rgb(229,229,229)" paint-order="fill" d="M 58.5 51.5 L 1336.5 51.5 L 1336.5 630.5 L 58.5 630.5 L 58.5 51.5" stroke-opacity="1" stroke-linejoin="bevel" stroke-miterlimit="10" stroke-dasharray=""/><path fill="none" stroke="rgb(229,229,229)" paint-order="fill" d="M 314.5 630.5 L 314.5 51.5 M 569.5 630.5 L 569.5 51.5 M 825.5 630.5 L 825.5 51.5 M 1080.5 630.5 L 1080.5 51.5" stroke-opacity="1" stroke-linejoin="bevel" stroke-miterlimit="10" stroke-dasharray="" clip-path="url(#StTPXRegzuCe)"/><path fill="none" stroke="rgb(229,229,229)" paint-order="fill" d="M 58.5 551.5 L 1336.5 551.5 M 58.5 446.5 L 1336.5 446.5 M 58.5 341.5 L 1336.5 341.5 M 58.5 235.5 L 1336.5 235.5 M 58.5 130.5 L 1336.5 130.5" stroke-opacity="1" stroke-linejoin="bevel" stroke-miterlimit="10" stroke-dasharray="" clip-path="url(#zrzmaJBBOUzs)"/><path fill="rgb(0,255,40)" stroke="none" paint-order="stroke" d="M 58.5 77.81818389892578 L 150.9096221923828 77.81818389892578 L 150.9096221923828 130.45454788208008 L 58.5 130.45454788208008 L 58.5 77.81818389892578" fill-opacity="1" clip-path="url(#dHHOlOwviFxA)"/><path fill="rgb(0,0,0)" stroke="none" paint-order="stroke" d="M 150.9096221923828 77.81818389892578 L 156.2069320678711 77.81818389892578 L 156.2069320678711 130.45454788208008 L 150.9096221923828 130.45454788208008 L 150.9096221923828 77.81818389892578" fill-opacity="1" clip-path="url(#dHHOlOwviFxA)"/><path fill="rgb(0,0,0)" stroke="none" paint-order="stroke" d="M 156.20693969726562 77.81818389892578 L 156.23249969817698 77.81818389892578 L 156.23249969817698 130.45454788208008 L 156.20693969726562 130.45454788208008 L 156.20693969726562 77.81818389892578" fill-opacity="1" clip-path="url(#dHHOlOwviFxA)"/><path fill="rgb(129,0,0)" stroke="none" paint-order="stroke" d="M 156.2324981689453 77.81818389892578 L 156.25166816823184 77.81818389892578 L 156.25166816823184 130.45454788208008 L 156.2324981689453 130.45454788208008 L 156.2324981689453 77.81818389892578" fill-opacity="1" clip-path="url(#dHHOlOwviFxA)"/><path fill="rgb(187,0,0)" stroke="none" paint-order="stroke" d="M 156.2516632080078 77.81818389892578 L 156.2695552073419 77.81818389892578 L 156.2695552073419 130.45454788208008 L 156.2516632080078 130.45454788208008 L 156.2516632080078 77.81818389892578" fill-opacity="1" clip-path="url(#dHHOlOwviFxA)"/><path fill="rgb(221,0,0)" stroke="none" paint-order="stroke" d="M 156.26956176757812 77.81818389892578 L 156.29128776676953 77.81818389892578 L 156.29128776676953 130.45454788208008 L 156.26956176757812 130.45454788208008 L 156.26956176757812 77.81818389892578" fill-opacity="1" clip-path="url(#dHHOlOwviFxA)"/><path fill="rgb(250,0,0)" stroke="none" paint-order="stroke" d="M 156.29127502441406 77.81818389892578 L 156.3142790235579 77.81818389892578 L 156.3142790235579 130.45454788208008 L 156.29127502441406 130.45454788208008 L 156.29127502441406 77.81818389892578" fill-opacity="1" clip-path="url(#dHHOlOwviFxA)"/><path fill="rgb(255,78,0)" stroke="none" paint-order="stroke" d="M 156.3142852783203 77.81818389892578 L 156.33345527760684 77.81818389892578 L 156.33345527760684 130.45454788208008 L 156.3142852783203 130.45454788208008 L 156.3142852783203 77.81818389892578" fill-opacity="1" clip-path="url(#dHHOlOwviFxA)"/><path fill="rgb(255,129,0)" stroke="none" paint-order="stroke" d="M 156.3334503173828 77.81818389892578 L 156.35517631657422 77.81818389892578 L 156.35517631657422 130.45454788208008 L 156.3334503173828 130.45454788208008 L 156.3334503173828 77.81818389892578" fill-opacity="1" clip-path="url(#dHHOlOwviFxA)"/><path fill="rgb(255,179,0)" stroke="none" paint-order="stroke" d="M 156.3551788330078 77.81818389892578 L 156.37690483219922 77.81818389892578 L 156.37690483219922 130.45454788208008 L 156.3551788330078 130.45454788208008 L 156.3551788330078 77.81818389892578" fill-opacity="1" clip-path="url(#dHHOlOwviFxA)"/><path fill="rgb(255,216,0)" stroke="none" paint-order="stroke" d="M 156.3769073486328 77.81818389892578 L 156.39863334782422 77.81818389892578 L 156.39863334782422 130.45454788208008 L 156.3769073486328 130.45454788208008 L 156.3769073486328 77.81818389892578" fill-opacity="1" clip-path="url(#dHHOlOwviFxA)"/><path fill="rgb(219,255,0)" stroke="none" paint-order="stroke" d="M 156.3986358642578 77.81818389892578 L 156.41908386349678 77.81818389892578 L 156.41908386349678 130.45454788208008 L 156.3986358642578 130.45454788208008 L 156.3986358642578 77.81818389892578" fill-opacity="1" clip-path="url(#dHHOlOwviFxA)"/><path fill="rgb(166,255,0)" stroke="none" paint-order="stroke" d="M 156.41908264160156 77.81818389892578 L 156.4420866407454 77.81818389892578 L 156.4420866407454 130.45454788208008 L 156.41908264160156 130.45454788208008 L 156.41908264160156 77.81818389892578" fill-opacity="1" clip-path="url(#dHHOlOwviFxA)"/><path fill="rgb(129,255,0)" stroke="none" paint-order="stroke" d="M 156.4420928955078 77.81818389892578 L 156.46254089474678 77.81818389892578 L 156.46254089474678 130.45454788208008 L 156.4420928955078 130.45454788208008 L 156.4420928955078 77.81818389892578" fill-opacity="1" clip-path="url(#dHHOlOwviFxA)"/><path fill="rgb(119,255,0)" stroke="none" paint-order="stroke" d="M 156.46253967285156 77.81818389892578 L 156.48298767209053 77.81818389892578 L 156.48298767209053 130.45454788208008 L 156.46253967285156 130.45454788208008 L 156.46253967285156 77.81818389892578" fill-opacity="1" clip-path="url(#dHHOlOwviFxA)"/><path fill="rgb(104,255,0)" stroke="none" paint-order="stroke" d="M 156.4829864501953 77.81818389892578 L 156.50471244938672 77.81818389892578 L 156.50471244938672 130.45454788208008 L 156.4829864501953 130.45454788208008 L 156.4829864501953 77.81818389892578" fill-opacity="1" clip-path="url(#dHHOlOwviFxA)"/><path fill="rgb(93,255,0)" stroke="none" paint-order="stroke" d="M 156.5047149658203 77.81818389892578 L 156.825492978096 77.81818389892578 L 156.825492978096 130.45454788208008 L 156.5047149658203 130.45454788208008 L 156.5047149658203 77.81818389892578" fill-opacity="1" clip-path="url(#dHHOlOwviFxA)"/><path fill="rgb(104,255,0)" stroke="none" paint-order="stroke" d="M 156.8254852294922 77.81818389892578 L 156.84593322873116 77.81818389892578 L 156.84593322873116 130.45454788208008 L 156.8254852294922 130.45454788208008 L 156.8254852294922 77.81818389892578" fill-opacity="1" clip-path="url(#dHHOlOwviFxA)"/><path fill="rgb(129,255,0)" stroke="none" paint-order="stroke" d="M 156.84593200683594 77.81818389892578 L 156.88810600712895 77.81818389892578 L 156.88810600712895 130.45454788208008 L 156.84593200683594 130.45454788208008 L 156.84593200683594 77.81818389892578" fill-opacity="1" clip-path="url(#dHHOlOwviFxA)"/><path fill="rgb(143,255,0)" stroke="none" paint-order="stroke" d="M 156.8881072998047 77.81818389892578 L 156.9098332989961 77.81818389892578 L 156.9098332989961 130.45454788208008 L 156.8881072998047 130.45454788208008 L 156.8881072998047 77.81818389892578" fill-opacity="1" clip-path="url(#dHHOlOwviFxA)"/><path fill="rgb(153,255,0)" stroke="none" paint-order="stroke" d="M 156.9098358154297 77.81818389892578 L 156.93028381466866 77.81818389892578 L 156.93028381466866 130.45454788208008 L 156.9098358154297 130.45454788208008 L 156.9098358154297 77.81818389892578" fill-opacity="1" clip-path="url(#dHHOlOwviFxA)"/><path fill="rgb(166,255,0)" stroke="none" paint-order="stroke" d="M 156.93028259277344 77.81818389892578 L 156.9507305920124 77.81818389892578 L 156.9507305920124 130.45454788208008 L 156.93028259277344 130.45454788208008 L 156.93028259277344 77.81818389892578" fill-opacity="1" clip-path="url(#dHHOlOwviFxA)"/><path fill="rgb(175,255,0)" stroke="none" paint-order="stroke" d="M 156.9507293701172 77.81818389892578 L 156.9724553693086 77.81818389892578 L 156.9724553693086 130.45454788208008 L 156.9507293701172 130.45454788208008 L 156.9507293701172 77.81818389892578" fill-opacity="1" clip-path="url(#dHHOlOwviFxA)"/><path fill="rgb(188,255,0)" stroke="none" paint-order="stroke" d="M 156.9724578857422 77.81818389892578 L 157.0146318860352 77.81818389892578 L 157.0146318860352 130.45454788208008 L 156.9724578857422 130.45454788208008 L 156.9724578857422 77.81818389892578" fill-opacity="1" clip-path="url(#dHHOlOwviFxA)"/><path fill="rgb(197,255,0)" stroke="none" paint-order="stroke" d="M 157.01463317871094 77.81818389892578 L 157.03635917790234 77.81818389892578 L 157.03635917790234 130.45454788208008 L 157.01463317871094 130.45454788208008 L 157.01463317871094 77.81818389892578" fill-opacity="1" clip-path="url(#dHHOlOwviFxA)"/><path fill="rgb(210,255,0)" stroke="none" paint-order="stroke" d="M 157.03636169433594 77.81818389892578 L 157.07853569462895 77.81818389892578 L 157.07853569462895 130.45454788208008 L 157.03636169433594 130.45454788208008 L 157.03636169433594 77.81818389892578" fill-opacity="1" clip-path="url(#dHHOlOwviFxA)"/><path fill="rgb(219,255,0)" stroke="none" paint-order="stroke" d="M 157.0785369873047 77.81818389892578 L 157.1002629864961 77.81818389892578 L 157.1002629864961 130.45454788208008 L 157.0785369873047 130.45454788208008 L 157.0785369873047 77.81818389892578" fill-opacity="1" clip-path="url(#dHHOlOwviFxA)"/><path fill="rgb(231,255,0)" stroke="none" paint-order="stroke" d="M 157.10025024414062 77.81818389892578 L 157.14242424443364 77.81818389892578 L 157.14242424443364 130.45454788208008 L 157.10025024414062 130.45454788208008 L 157.10025024414062 77.81818389892578" fill-opacity="1" clip-path="url(#dHHOlOwviFxA)"/><path fill="rgb(249,255,0)" stroke="none" paint-order="stroke" d="M 157.14242553710938 77.81818389892578 L 157.16415153630078 77.81818389892578 L 157.16415153630078 130.45454788208008 L 157.14242553710938 130.45454788208008 L 157.14242553710938 77.81818389892578" fill-opacity="1" clip-path="url(#dHHOlOwviFxA)"/><path fill="rgb(255,248,0)" stroke="none" paint-order="stroke" d="M 157.16415405273438 77.81818389892578 L 157.18588005192578 77.81818389892578 L 157.18588005192578 130.45454788208008 L 157.16415405273438 130.45454788208008 L 157.16415405273438 77.81818389892578" fill-opacity="1" clip-path="url(#dHHOlOwviFxA)"/><path fill="rgb(255,226,0)" stroke="none" paint-order="stroke" d="M 157.18588256835938 77.81818389892578 L 157.20760856755078 77.81818389892578 L 157.20760856755078 130.45454788208008 L 157.18588256835938 130.45454788208008 L 157.18588256835938 77.81818389892578" fill-opacity="1" clip-path="url(#dHHOlOwviFxA)"/><path fill="rgb(255,216,0)" stroke="none" paint-order="stroke" d="M 157.20761108398438 77.81818389892578 L 157.22805908322334 77.81818389892578 L 157.22805908322334 130.45454788208008 L 157.20761108398438 130.45454788208008 L 157.20761108398438 77.81818389892578" fill-opacity="1" clip-path="url(#dHHOlOwviFxA)"/><path fill="rgb(255,179,0)" stroke="none" paint-order="stroke" d="M 157.22805786132812 77.81818389892578 L 157.24978386051953 77.81818389892578 L 157.24978386051953 130.45454788208008 L 157.22805786132812 130.45454788208008 L 157.22805786132812 77.81818389892578" fill-opacity="1" clip-path="url(#dHHOlOwviFxA)"/><path fill="rgb(255,155,0)" stroke="none" paint-order="stroke" d="M 157.24978637695312 77.81818389892578 L 157.2702343761921 77.81818389892578 L 157.2702343761921 130.45454788208008 L 157.24978637695312 130.45454788208008 L 157.24978637695312 77.81818389892578" fill-opacity="1" clip-path="url(#dHHOlOwviFxA)"/><path fill="rgb(255,129,0)" stroke="none" paint-order="stroke" d="M 157.27023315429688 77.81818389892578 L 157.29195915348828 77.81818389892578 L 157.29195915348828 130.45454788208008 L 157.27023315429688 130.45454788208008 L 157.27023315429688 77.81818389892578" fill-opacity="1" clip-path="url(#dHHOlOwviFxA)"/><path fill="rgb(255,103,0)" stroke="none" paint-order="stroke" d="M 157.29196166992188 77.81818389892578 L 157.31368766911328 77.81818389892578 L 157.31368766911328 130.45454788208008 L 157.29196166992188 130.45454788208008 L 157.29196166992188 77.81818389892578" fill-opacity="1" clip-path="url(#dHHOlOwviFxA)"/><path fill="rgb(255,91,0)" stroke="none" paint-order="stroke" d="M 157.3136749267578 77.81818389892578 L 157.33412292599678 77.81818389892578 L 157.33412292599678 130.45454788208008 L 157.3136749267578 130.45454788208008 L 157.3136749267578 77.81818389892578" fill-opacity="1" clip-path="url(#dHHOlOwviFxA)"/><path fill="rgb(255,78,0)" stroke="none" paint-order="stroke" d="M 157.33413696289062 77.81818389892578 L 157.3788669630885 77.81818389892578 L 157.3788669630885 130.45454788208008 L 157.33413696289062 130.45454788208008 L 157.33413696289062 77.81818389892578" fill-opacity="1" clip-path="url(#dHHOlOwviFxA)"/><path fill="rgb(255,61,0)" stroke="none" paint-order="stroke" d="M 157.3788604736328 77.81818389892578 L 157.39803047291934 77.81818389892578 L 157.39803047291934 130.45454788208008 L 157.3788604736328 130.45454788208008 L 157.3788604736328 77.81818389892578" fill-opacity="1" clip-path="url(#dHHOlOwviFxA)"/><path fill="rgb(255,47,0)" stroke="none" paint-order="stroke" d="M 157.3980255126953 77.81818389892578 L 157.41975151188672 77.81818389892578 L 157.41975151188672 130.45454788208008 L 157.3980255126953 130.45454788208008 L 157.3980255126953 77.81818389892578" fill-opacity="1" clip-path="url(#dHHOlOwviFxA)"/><path fill="rgb(255,9,0)" stroke="none" paint-order="stroke" d="M 157.4197540283203 77.81818389892578 L 157.44148002751172 77.81818389892578 L 157.44148002751172 130.45454788208008 L 157.4197540283203 130.45454788208008 L 157.4197540283203 77.81818389892578" fill-opacity="1" clip-path="url(#dHHOlOwviFxA)"/><path fill="rgb(246,0,0)" stroke="none" paint-order="stroke" d="M 157.4414825439453 77.81818389892578 L 157.48365654423833 77.81818389892578 L 157.48365654423833 130.45454788208008 L 157.4414825439453 130.45454788208008 L 157.4414825439453 77.81818389892578" fill-opacity="1" clip-path="url(#dHHOlOwviFxA)"/><path fill="rgb(241,0,0)" stroke="none" paint-order="stroke" d="M 157.48365783691406 77.81818389892578 L 157.69963984191418 77.81818389892578 L 157.69963984191418 130.45454788208008 L 157.48365783691406 130.45454788208008 L 157.48365783691406 77.81818389892578" fill-opacity="1" clip-path="url(#dHHOlOwviFxA)"/><path fill="rgb(246,0,0)" stroke="none" paint-order="stroke" d="M 157.6996307373047 77.81818389892578 L 157.72519073821604 77.81818389892578 L 157.72519073821604 130.45454788208008 L 157.6996307373047 130.45454788208008 L 157.6996307373047 77.81818389892578" fill-opacity="1" clip-path="url(#dHHOlOwviFxA)"/><path fill="rgb(255,9,0)" stroke="none" paint-order="stroke" d="M 157.72520446777344 77.81818389892578 L 157.75332046858966 77.81818389892578 L 157.75332046858966 130.45454788208008 L 157.72520446777344 130.45454788208008 L 157.72520446777344 77.81818389892578" fill-opacity="1" clip-path="url(#dHHOlOwviFxA)"/><path fill="rgb(255,118,0)" stroke="none" paint-order="stroke" d="M 157.75331115722656 77.81818389892578 L 157.76736915763468 77.81818389892578 L 157.76736915763468 130.45454788208008 L 157.75331115722656 130.45454788208008 L 157.75331115722656 77.81818389892578" fill-opacity="1" clip-path="url(#dHHOlOwviFxA)"/><path fill="rgb(255,144,0)" stroke="none" paint-order="stroke" d="M 157.76736450195312 77.81818389892578 L 157.78525650128722 77.81818389892578 L 157.78525650128722 130.45454788208008 L 157.76736450195312 130.45454788208008 L 157.76736450195312 77.81818389892578" fill-opacity="1" clip-path="url(#dHHOlOwviFxA)"/><path fill="rgb(255,203,0)" stroke="none" paint-order="stroke" d="M 157.78526306152344 77.81818389892578 L 157.80315506085753 77.81818389892578 L 157.80315506085753 130.45454788208008 L 157.78526306152344 130.45454788208008 L 157.78526306152344 77.81818389892578" fill-opacity="1" clip-path="url(#dHHOlOwviFxA)"/><path fill="rgb(240,255,0)" stroke="none" paint-order="stroke" d="M 157.80316162109375 77.81818389892578 L 157.82488762028515 77.81818389892578 L 157.82488762028515 130.45454788208008 L 157.80316162109375 130.45454788208008 L 157.80316162109375 77.81818389892578" fill-opacity="1" clip-path="url(#dHHOlOwviFxA)"/><path fill="rgb(188,255,0)" stroke="none" paint-order="stroke" d="M 157.8248748779297 77.81818389892578 L 157.8466008771211 77.81818389892578 L 157.8466008771211 130.45454788208008 L 157.8248748779297 130.45454788208008 L 157.8248748779297 77.81818389892578" fill-opacity="1" clip-path="url(#dHHOlOwviFxA)"/><path fill="rgb(104,255,0)" stroke="none" paint-order="stroke" d="M 157.8466033935547 77.81818389892578 L 157.86705139279366 77.81818389892578 L 157.86705139279366 130.45454788208008 L 157.8466033935547 130.45454788208008 L 157.8466033935547 77.81818389892578" fill-opacity="1" clip-path="url(#dHHOlOwviFxA)"/><path fill="rgb(35,255,0)" stroke="none" paint-order="stroke" d="M 157.86705017089844 77.81818389892578 L 157.89388817176223 77.81818389892578 L 157.89388817176223 130.45454788208008 L 157.86705017089844 130.45454788208008 L 157.86705017089844 77.81818389892578" fill-opacity="1" clip-path="url(#dHHOlOwviFxA)"/><path fill="rgb(0,255,122)" stroke="none" paint-order="stroke" d="M 157.89389038085938 77.81818389892578 L 157.9168943800032 77.81818389892578 L 157.9168943800032 130.45454788208008 L 157.89389038085938 130.45454788208008 L 157.89389038085938 77.81818389892578" fill-opacity="1" clip-path="url(#dHHOlOwviFxA)"/><path fill="rgb(0,217,255)" stroke="none" paint-order="stroke" d="M 157.91690063476562 77.81818389892578 L 157.93479263409972 77.81818389892578 L 157.93479263409972 130.45454788208008 L 157.91690063476562 130.45454788208008 L 157.91690063476562 77.81818389892578" fill-opacity="1" clip-path="url(#dHHOlOwviFxA)"/><path fill="rgb(0,173,255)" stroke="none" paint-order="stroke" d="M 157.93478393554688 77.81818389892578 L 157.95267593488097 77.81818389892578 L 157.95267593488097 130.45454788208008 L 157.93478393554688 130.45454788208008 L 157.93478393554688 77.81818389892578" fill-opacity="1" clip-path="url(#dHHOlOwviFxA)"/><path fill="rgb(0,141,255)" stroke="none" paint-order="stroke" d="M 157.9526824951172 77.81818389892578 L 157.97696449421346 77.81818389892578 L 157.97696449421346 130.45454788208008 L 157.9526824951172 130.45454788208008 L 157.9526824951172 77.81818389892578" fill-opacity="1" clip-path="url(#dHHOlOwviFxA)"/><path fill="rgb(0,107,255)" stroke="none" paint-order="stroke" d="M 157.97695922851562 77.81818389892578 L 157.99868522770703 77.81818389892578 L 157.99868522770703 130.45454788208008 L 157.97695922851562 130.45454788208008 L 157.97695922851562 77.81818389892578" fill-opacity="1" clip-path="url(#dHHOlOwviFxA)"/><path fill="rgb(0,26,255)" stroke="none" paint-order="stroke" d="M 157.99868774414062 77.81818389892578 L 158.01785774342716 77.81818389892578 L 158.01785774342716 130.45454788208008 L 157.99868774414062 130.45454788208008 L 157.99868774414062 77.81818389892578" fill-opacity="1" clip-path="url(#dHHOlOwviFxA)"/><path fill="rgb(28,0,245)" stroke="none" paint-order="stroke" d="M 158.01785278320312 77.81818389892578 L 158.04341278411448 77.81818389892578 L 158.04341278411448 130.45454788208008 L 158.01785278320312 130.45454788208008 L 158.01785278320312 77.81818389892578" fill-opacity="1" clip-path="url(#dHHOlOwviFxA)"/><path fill="rgb(58,0,228)" stroke="none" paint-order="stroke" d="M 158.04342651367188 77.81818389892578 L 158.06131851300597 77.81818389892578 L 158.06131851300597 130.45454788208008 L 158.04342651367188 130.45454788208008 L 158.04342651367188 77.81818389892578" fill-opacity="1" clip-path="url(#dHHOlOwviFxA)"/><path fill="rgb(69,0,221)" stroke="none" paint-order="stroke" d="M 158.06130981445312 77.81818389892578 L 158.08431381359696 77.81818389892578 L 158.08431381359696 130.45454788208008 L 158.06130981445312 130.45454788208008 L 158.06130981445312 77.81818389892578" fill-opacity="1" clip-path="url(#dHHOlOwviFxA)"/><path fill="rgb(77,0,213)" stroke="none" paint-order="stroke" d="M 158.08432006835938 77.81818389892578 L 158.10604606755078 77.81818389892578 L 158.10604606755078 130.45454788208008 L 158.08432006835938 130.45454788208008 L 158.08432006835938 77.81818389892578" fill-opacity="1" clip-path="url(#dHHOlOwviFxA)"/><path fill="rgb(87,0,203)" stroke="none" paint-order="stroke" d="M 158.10604858398438 77.81818389892578 L 158.14566658437252 77.81818389892578 L 158.14566658437252 130.45454788208008 L 158.10604858398438 130.45454788208008 L 158.10604858398438 77.81818389892578" fill-opacity="1" clip-path="url(#dHHOlOwviFxA)"/><path fill="rgb(94,0,196)" stroke="none" paint-order="stroke" d="M 158.14566040039062 77.81818389892578 L 158.16483039967716 77.81818389892578 L 158.16483039967716 130.45454788208008 L 158.14566040039062 130.45454788208008 L 158.14566040039062 77.81818389892578" fill-opacity="1" clip-path="url(#dHHOlOwviFxA)"/><path fill="rgb(110,0,159)" stroke="none" paint-order="stroke" d="M 158.16482543945312 77.81818389892578 L 158.1891074385494 77.81818389892578 L 158.1891074385494 130.45454788208008 L 158.16482543945312 130.45454788208008 L 158.16482543945312 77.81818389892578" fill-opacity="1" clip-path="url(#dHHOlOwviFxA)"/><path fill="rgb(110,0,129)" stroke="none" paint-order="stroke" d="M 158.18911743164062 77.81818389892578 L 158.20828743092716 77.81818389892578 L 158.20828743092716 130.45454788208008 L 158.18911743164062 130.45454788208008 L 158.18911743164062 77.81818389892578" fill-opacity="1" clip-path="url(#dHHOlOwviFxA)"/><path fill="rgb(97,0,97)" stroke="none" paint-order="stroke" d="M 158.20828247070312 77.81818389892578 L 158.95335644483566 77.81818389892578 L 158.95335644483566 130.45454788208008 L 158.20828247070312 130.45454788208008 L 158.20828247070312 77.81818389892578" fill-opacity="1" clip-path="url(#dHHOlOwviFxA)"/><path fill="rgb(107,0,120)" stroke="none" paint-order="stroke" d="M 158.95335388183594 77.81818389892578 L 158.9738018810749 77.81818389892578 L 158.9738018810749 130.45454788208008 L 158.95335388183594 130.45454788208008 L 158.95335388183594 77.81818389892578" fill-opacity="1" clip-path="url(#dHHOlOwviFxA)"/><path fill="rgb(110,0,159)" stroke="none" paint-order="stroke" d="M 158.9738006591797 77.81818389892578 L 158.99680465832353 77.81818389892578 L 158.99680465832353 130.45454788208008 L 158.9738006591797 130.45454788208008 L 158.9738006591797 77.81818389892578" fill-opacity="1" clip-path="url(#dHHOlOwviFxA)"/><path fill="rgb(101,0,185)" stroke="none" paint-order="stroke" d="M 158.99681091308594 77.81818389892578 L 159.01853691227734 77.81818389892578 L 159.01853691227734 130.45454788208008 L 158.99681091308594 130.45454788208008 L 158.99681091308594 77.81818389892578" fill-opacity="1" clip-path="url(#dHHOlOwviFxA)"/><path fill="rgb(42,0,238)" stroke="none" paint-order="stroke" d="M 159.01853942871094 77.81818389892578 L 159.0389874279499 77.81818389892578 L 159.0389874279499 130.45454788208008 L 159.01853942871094 130.45454788208008 L 159.01853942871094 77.81818389892578" fill-opacity="1" clip-path="url(#dHHOlOwviFxA)"/><path fill="rgb(0,0,255)" stroke="none" paint-order="stroke" d="M 159.0389862060547 77.81818389892578 L 159.05943420529366 77.81818389892578 L 159.05943420529366 130.45454788208008 L 159.0389862060547 130.45454788208008 L 159.0389862060547 77.81818389892578" fill-opacity="1" clip-path="url(#dHHOlOwviFxA)"/><path fill="rgb(0,26,255)" stroke="none" paint-order="stroke" d="M 159.05943298339844 77.81818389892578 L 159.08115898258984 77.81818389892578 L 159.08115898258984 130.45454788208008 L 159.05943298339844 130.45454788208008 L 159.05943298339844 77.81818389892578" fill-opacity="1" clip-path="url(#dHHOlOwviFxA)"/><path fill="rgb(0,70,255)" stroke="none" paint-order="stroke" d="M 159.08116149902344 77.81818389892578 L 159.10288749821484 77.81818389892578 L 159.10288749821484 130.45454788208008 L 159.08116149902344 130.45454788208008 L 159.08116149902344 77.81818389892578" fill-opacity="1" clip-path="url(#dHHOlOwviFxA)"/><path fill="rgb(0,92,255)" stroke="none" paint-order="stroke" d="M 159.10287475585938 77.81818389892578 L 159.16805275529623 77.81818389892578 L 159.16805275529623 130.45454788208008 L 159.10287475585938 130.45454788208008 L 159.10287475585938 77.81818389892578" fill-opacity="1" clip-path="url(#dHHOlOwviFxA)"/><path fill="rgb(0,141,255)" stroke="none" paint-order="stroke" d="M 159.16806030273438 77.81818389892578 L 159.1872303020209 77.81818389892578 L 159.1872303020209 130.45454788208008 L 159.16806030273438 130.45454788208008 L 159.16806030273438 77.81818389892578" fill-opacity="1" clip-path="url(#dHHOlOwviFxA)"/><path fill="rgb(0,160,255)" stroke="none" paint-order="stroke" d="M 159.18722534179688 77.81818389892578 L 159.23067734017968 77.81818389892578 L 159.23067734017968 130.45454788208008 L 159.18722534179688 130.45454788208008 L 159.18722534179688 77.81818389892578" fill-opacity="1" clip-path="url(#dHHOlOwviFxA)"/><path fill="rgb(0,173,255)" stroke="none" paint-order="stroke" d="M 159.23068237304688 77.81818389892578 L 159.25113037228584 77.81818389892578 L 159.25113037228584 130.45454788208008 L 159.23068237304688 130.45454788208008 L 159.23068237304688 77.81818389892578" fill-opacity="1" clip-path="url(#dHHOlOwviFxA)"/><path fill="rgb(0,204,255)" stroke="none" paint-order="stroke" d="M 159.25112915039062 77.81818389892578 L 159.27285514958203 77.81818389892578 L 159.27285514958203 130.45454788208008 L 159.25112915039062 130.45454788208008 L 159.25112915039062 77.81818389892578" fill-opacity="1" clip-path="url(#dHHOlOwviFxA)"/><path fill="rgb(0,217,255)" stroke="none" paint-order="stroke" d="M 159.27285766601562 77.81818389892578 L 159.2933056652546 77.81818389892578 L 159.2933056652546 130.45454788208008 L 159.27285766601562 130.45454788208008 L 159.27285766601562 77.81818389892578" fill-opacity="1" clip-path="url(#dHHOlOwviFxA)"/><path fill="rgb(0,246,255)" stroke="none" paint-order="stroke" d="M 159.29330444335938 77.81818389892578 L 159.31503044255078 77.81818389892578 L 159.31503044255078 130.45454788208008 L 159.29330444335938 130.45454788208008 L 159.29330444335938 77.81818389892578" fill-opacity="1" clip-path="url(#dHHOlOwviFxA)"/><path fill="rgb(0,255,202)" stroke="none" paint-order="stroke" d="M 159.31503295898438 77.81818389892578 L 159.33675895817578 77.81818389892578 L 159.33675895817578 130.45454788208008 L 159.31503295898438 130.45454788208008 L 159.31503295898438 77.81818389892578" fill-opacity="1" clip-path="url(#dHHOlOwviFxA)"/><path fill="rgb(0,255,122)" stroke="none" paint-order="stroke" d="M 159.33676147460938 77.81818389892578 L 159.61664348840714 77.81818389892578 L 159.61664348840714 130.45454788208008 L 159.33676147460938 130.45454788208008 L 159.33676147460938 77.81818389892578" fill-opacity="1" clip-path="url(#dHHOlOwviFxA)"/><path fill="rgb(0,255,70)" stroke="none" paint-order="stroke" d="M 159.61663818359375 77.81818389892578 L 159.6396421827376 77.81818389892578 L 159.6396421827376 130.45454788208008 L 159.61663818359375 130.45454788208008 L 159.61663818359375 77.81818389892578" fill-opacity="1" clip-path="url(#dHHOlOwviFxA)"/><path fill="rgb(20,255,0)" stroke="none" paint-order="stroke" d="M 159.6396484375 77.81818389892578 L 159.66520843841136 77.81818389892578 L 159.66520843841136 130.45454788208008 L 159.6396484375 130.45454788208008 L 159.6396484375 77.81818389892578" fill-opacity="1" clip-path="url(#dHHOlOwviFxA)"/><path fill="rgb(35,255,0)" stroke="none" paint-order="stroke" d="M 159.6652069091797 77.81818389892578 L 159.68565490841866 77.81818389892578 L 159.68565490841866 130.45454788208008 L 159.6652069091797 130.45454788208008 L 159.6652069091797 77.81818389892578" fill-opacity="1" clip-path="url(#dHHOlOwviFxA)"/><path fill="rgb(53,255,0)" stroke="none" paint-order="stroke" d="M 159.68565368652344 77.81818389892578 L 159.80578568577766 77.81818389892578 L 159.80578568577766 130.45454788208008 L 159.68565368652344 130.45454788208008 L 159.68565368652344 77.81818389892578" fill-opacity="1" clip-path="url(#dHHOlOwviFxA)"/><path fill="rgb(66,255,0)" stroke="none" paint-order="stroke" d="M 159.8057861328125 77.81818389892578 L 159.89141213148832 77.81818389892578 L 159.89141213148832 130.45454788208008 L 159.8057861328125 130.45454788208008 L 159.8057861328125 77.81818389892578" fill-opacity="1" clip-path="url(#dHHOlOwviFxA)"/><path fill="rgb(93,255,0)" stroke="none" paint-order="stroke" d="M 159.8914031982422 77.81818389892578 L 159.91696319915354 77.81818389892578 L 159.91696319915354 130.45454788208008 L 159.8914031982422 130.45454788208008 L 159.8914031982422 77.81818389892578" fill-opacity="1" clip-path="url(#dHHOlOwviFxA)"/><path fill="rgb(129,255,0)" stroke="none" paint-order="stroke" d="M 159.91696166992188 77.81818389892578 L 159.94252167083323 77.81818389892578 L 159.94252167083323 130.45454788208008 L 159.91696166992188 130.45454788208008 L 159.91696166992188 77.81818389892578" fill-opacity="1" clip-path="url(#dHHOlOwviFxA)"/><path fill="rgb(210,255,0)" stroke="none" paint-order="stroke" d="M 159.94253540039062 77.81818389892578 L 159.96170539967716 77.81818389892578 L 159.96170539967716 130.45454788208008 L 159.94253540039062 130.45454788208008 L 159.94253540039062 77.81818389892578" fill-opacity="1" clip-path="url(#dHHOlOwviFxA)"/><path fill="rgb(231,255,0)" stroke="none" paint-order="stroke" d="M 159.96170043945312 77.81818389892578 L 160.01793244108558 77.81818389892578 L 160.01793244108558 130.45454788208008 L 159.96170043945312 130.45454788208008 L 159.96170043945312 77.81818389892578" fill-opacity="1" clip-path="url(#dHHOlOwviFxA)"/><path fill="rgb(240,255,0)" stroke="none" paint-order="stroke" d="M 160.01792907714844 77.81818389892578 L 160.29653307795525 77.81818389892578 L 160.29653307795525 130.45454788208008 L 160.01792907714844 130.45454788208008 L 160.01792907714844 77.81818389892578" fill-opacity="1" clip-path="url(#dHHOlOwviFxA)"/><path fill="rgb(249,255,0)" stroke="none" paint-order="stroke" d="M 160.29653930664062 77.81818389892578 L 160.32721130736172 77.81818389892578 L 160.32721130736172 130.45454788208008 L 160.29653930664062 130.45454788208008 L 160.29653930664062 77.81818389892578" fill-opacity="1" clip-path="url(#dHHOlOwviFxA)"/><path fill="rgb(255,239,0)" stroke="none" paint-order="stroke" d="M 160.32720947265625 77.81818389892578 L 160.4013334736228 77.81818389892578 L 160.4013334736228 130.45454788208008 L 160.32720947265625 130.45454788208008 L 160.32720947265625 77.81818389892578" fill-opacity="1" clip-path="url(#dHHOlOwviFxA)"/><path fill="rgb(255,226,0)" stroke="none" paint-order="stroke" d="M 160.40133666992188 77.81818389892578 L 160.49079667031765 77.81818389892578 L 160.49079667031765 130.45454788208008 L 160.40133666992188 130.45454788208008 L 160.40133666992188 77.81818389892578" fill-opacity="1" clip-path="url(#dHHOlOwviFxA)"/><path fill="rgb(255,203,0)" stroke="none" paint-order="stroke" d="M 160.49078369140625 77.81818389892578 L 160.51889969222248 77.81818389892578 L 160.51889969222248 130.45454788208008 L 160.49078369140625 130.45454788208008 L 160.49078369140625 77.81818389892578" fill-opacity="1" clip-path="url(#dHHOlOwviFxA)"/><path fill="rgb(255,144,0)" stroke="none" paint-order="stroke" d="M 160.51890563964844 77.81818389892578 L 160.54702164046466 77.81818389892578 L 160.54702164046466 130.45454788208008 L 160.51890563964844 130.45454788208008 L 160.51890563964844 77.81818389892578" fill-opacity="1" clip-path="url(#dHHOlOwviFxA)"/><path fill="rgb(255,91,0)" stroke="none" paint-order="stroke" d="M 160.54702758789062 77.81818389892578 L 160.56108558829874 77.81818389892578 L 160.56108558829874 130.45454788208008 L 160.54702758789062 130.45454788208008 L 160.54702758789062 77.81818389892578" fill-opacity="1" clip-path="url(#dHHOlOwviFxA)"/><path fill="rgb(255,78,0)" stroke="none" paint-order="stroke" d="M 160.5610809326172 77.81818389892578 L 160.57386093307287 77.81818389892578 L 160.57386093307287 130.45454788208008 L 160.5610809326172 130.45454788208008 L 160.5610809326172 77.81818389892578" fill-opacity="1" clip-path="url(#dHHOlOwviFxA)"/><path fill="rgb(255,27,0)" stroke="none" paint-order="stroke" d="M 160.5738525390625 77.81818389892578 L 160.59430053830147 77.81818389892578 L 160.59430053830147 130.45454788208008 L 160.5738525390625 130.45454788208008 L 160.5738525390625 77.81818389892578" fill-opacity="1" clip-path="url(#dHHOlOwviFxA)"/><path fill="rgb(250,0,0)" stroke="none" paint-order="stroke" d="M 160.5943145751953 77.81818389892578 L 160.65949257463217 77.81818389892578 L 160.65949257463217 130.45454788208008 L 160.5943145751953 130.45454788208008 L 160.5943145751953 77.81818389892578" fill-opacity="1" clip-path="url(#dHHOlOwviFxA)"/><path fill="rgb(246,0,0)" stroke="none" paint-order="stroke" d="M 160.65948486328125 77.81818389892578 L 160.74383286386728 77.81818389892578 L 160.74383286386728 130.45454788208008 L 160.65948486328125 130.45454788208008 L 160.65948486328125 77.81818389892578" fill-opacity="1" clip-path="url(#dHHOlOwviFxA)"/><path fill="rgb(241,0,0)" stroke="none" paint-order="stroke" d="M 160.74383544921875 77.81818389892578 L 160.76556144841015 77.81818389892578 L 160.76556144841015 130.45454788208008 L 160.74383544921875 130.45454788208008 L 160.74383544921875 77.81818389892578" fill-opacity="1" clip-path="url(#dHHOlOwviFxA)"/><path fill="rgb(237,0,0)" stroke="none" paint-order="stroke" d="M 160.76556396484375 77.81818389892578 L 160.78984596394002 77.81818389892578 L 160.78984596394002 130.45454788208008 L 160.76556396484375 130.45454788208008 L 160.76556396484375 77.81818389892578" fill-opacity="1" clip-path="url(#dHHOlOwviFxA)"/><path fill="rgb(221,0,0)" stroke="none" paint-order="stroke" d="M 160.7898406982422 77.81818389892578 L 160.80645469762385 77.81818389892578 L 160.80645469762385 130.45454788208008 L 160.7898406982422 130.45454788208008 L 160.7898406982422 77.81818389892578" fill-opacity="1" clip-path="url(#dHHOlOwviFxA)"/><path fill="rgb(207,0,0)" stroke="none" paint-order="stroke" d="M 160.80645751953125 77.81818389892578 L 160.82818351872265 77.81818389892578 L 160.82818351872265 130.45454788208008 L 160.80645751953125 130.45454788208008 L 160.80645751953125 77.81818389892578" fill-opacity="1" clip-path="url(#dHHOlOwviFxA)"/><path fill="rgb(203,0,0)" stroke="none" paint-order="stroke" d="M 160.82818603515625 77.81818389892578 L 160.85246803425252 77.81818389892578 L 160.85246803425252 130.45454788208008 L 160.82818603515625 130.45454788208008 L 160.82818603515625 77.81818389892578" fill-opacity="1" clip-path="url(#dHHOlOwviFxA)"/><path fill="rgb(197,0,0)" stroke="none" paint-order="stroke" d="M 160.8524627685547 77.81818389892578 L 161.02243676781654 77.81818389892578 L 161.02243676781654 130.45454788208008 L 160.8524627685547 130.45454788208008 L 160.8524627685547 77.81818389892578" fill-opacity="1" clip-path="url(#dHHOlOwviFxA)"/><path fill="rgb(193,0,0)" stroke="none" paint-order="stroke" d="M 161.02243041992188 77.81818389892578 L 161.04287841916084 77.81818389892578 L 161.04287841916084 130.45454788208008 L 161.02243041992188 130.45454788208008 L 161.02243041992188 77.81818389892578" fill-opacity="1" clip-path="url(#dHHOlOwviFxA)"/><path fill="rgb(176,0,0)" stroke="none" paint-order="stroke" d="M 161.0428924560547 77.81818389892578 L 161.06589645519853 77.81818389892578 L 161.06589645519853 130.45454788208008 L 161.0428924560547 130.45454788208008 L 161.0428924560547 77.81818389892578" fill-opacity="1" clip-path="url(#dHHOlOwviFxA)"/><path fill="rgb(172,0,0)" stroke="none" paint-order="stroke" d="M 161.06588745117188 77.81818389892578 L 161.08377945050597 77.81818389892578 L 161.08377945050597 130.45454788208008 L 161.06588745117188 130.45454788208008 L 161.06588745117188 77.81818389892578" fill-opacity="1" clip-path="url(#dHHOlOwviFxA)"/><path fill="rgb(166,0,0)" stroke="none" paint-order="stroke" d="M 161.0837860107422 77.81818389892578 L 161.17196801304817 77.81818389892578 L 161.17196801304817 130.45454788208008 L 161.0837860107422 130.45454788208008 L 161.0837860107422 77.81818389892578" fill-opacity="1" clip-path="url(#dHHOlOwviFxA)"/><path fill="rgb(151,0,0)" stroke="none" paint-order="stroke" d="M 161.17196655273438 77.81818389892578 L 161.1949705518782 77.81818389892578 L 161.1949705518782 130.45454788208008 L 161.17196655273438 130.45454788208008 L 161.17196655273438 77.81818389892578" fill-opacity="1" clip-path="url(#dHHOlOwviFxA)"/><path fill="rgb(129,0,0)" stroke="none" paint-order="stroke" d="M 161.19496154785156 77.81818389892578 L 161.22052154876292 77.81818389892578 L 161.22052154876292 130.45454788208008 L 161.19496154785156 130.45454788208008 L 161.19496154785156 77.81818389892578" fill-opacity="1" clip-path="url(#dHHOlOwviFxA)"/><path fill="rgb(105,0,0)" stroke="none" paint-order="stroke" d="M 161.2205352783203 77.81818389892578 L 161.23587127868086 77.81818389892578 L 161.23587127868086 130.45454788208008 L 161.2205352783203 130.45454788208008 L 161.2205352783203 77.81818389892578" fill-opacity="1" clip-path="url(#dHHOlOwviFxA)"/><path fill="rgb(100,0,0)" stroke="none" paint-order="stroke" d="M 161.23587036132812 77.81818389892578 L 161.25376236066222 77.81818389892578 L 161.25376236066222 130.45454788208008 L 161.23587036132812 130.45454788208008 L 161.23587036132812 77.81818389892578" fill-opacity="1" clip-path="url(#dHHOlOwviFxA)"/><path fill="rgb(0,0,0)" stroke="none" paint-order="stroke" d="M 161.25375366210938 77.81818389892578 L 161.27420166134834 77.81818389892578 L 161.27420166134834 130.45454788208008 L 161.25375366210938 130.45454788208008 L 161.25375366210938 77.81818389892578" fill-opacity="1" clip-path="url(#dHHOlOwviFxA)"/><path fill="rgb(0,0,0)" stroke="none" paint-order="stroke" d="M 161.27420043945312 77.81818389892578 L 161.29976044036448 77.81818389892578 L 161.29976044036448 130.45454788208008 L 161.27420043945312 130.45454788208008 L 161.27420043945312 77.81818389892578" fill-opacity="1" clip-path="url(#dHHOlOwviFxA)"/><path fill="rgb(0,0,0)" stroke="none" paint-order="stroke" d="M 161.2997589111328 77.81818389892578 L 161.32915291190147 77.81818389892578 L 161.32915291190147 130.45454788208008 L 161.2997589111328 130.45454788208008 L 161.2997589111328 77.81818389892578" fill-opacity="1" clip-path="url(#dHHOlOwviFxA)"/><path fill="rgb(0,0,0)" stroke="none" paint-order="stroke" d="M 161.32916259765625 77.81818389892578 L 161.34194259811193 77.81818389892578 L 161.34194259811193 130.45454788208008 L 161.32916259765625 130.45454788208008 L 161.32916259765625 77.81818389892578" fill-opacity="1" clip-path="url(#dHHOlOwviFxA)"/><path fill="rgb(0,0,0)" stroke="none" paint-order="stroke" d="M 161.34193420410156 77.81818389892578 L 161.3611042033881 77.81818389892578 L 161.3611042033881 130.45454788208008 L 161.34193420410156 130.45454788208008 L 161.34193420410156 77.81818389892578" fill-opacity="1" clip-path="url(#dHHOlOwviFxA)"/><path fill="rgb(0,0,0)" stroke="none" paint-order="stroke" d="M 161.36111450195312 77.81818389892578 L 161.38411850109696 77.81818389892578 L 161.38411850109696 130.45454788208008 L 161.36111450195312 130.45454788208008 L 161.36111450195312 77.81818389892578" fill-opacity="1" clip-path="url(#dHHOlOwviFxA)"/><path fill="rgb(0,0,0)" stroke="none" paint-order="stroke" d="M 161.3841094970703 77.81818389892578 L 161.83140948414803 77.81818389892578 L 161.83140948414803 130.45454788208008 L 161.3841094970703 130.45454788208008 L 161.3841094970703 77.81818389892578" fill-opacity="1" clip-path="url(#dHHOlOwviFxA)"/><path fill="rgb(0,0,0)" stroke="none" paint-order="stroke" d="M 161.83140563964844 77.81818389892578 L 161.8556876387447 77.81818389892578 L 161.8556876387447 130.45454788208008 L 161.83140563964844 130.45454788208008 L 161.83140563964844 77.81818389892578" fill-opacity="1" clip-path="url(#dHHOlOwviFxA)"/><path fill="rgb(0,0,0)" stroke="none" paint-order="stroke" d="M 161.85569763183594 77.81818389892578 L 161.87870163097978 77.81818389892578 L 161.87870163097978 130.45454788208008 L 161.85569763183594 130.45454788208008 L 161.85569763183594 77.81818389892578" fill-opacity="1" clip-path="url(#dHHOlOwviFxA)"/><path fill="rgb(0,0,0)" stroke="none" paint-order="stroke" d="M 161.87869262695312 77.81818389892578 L 161.89402862731367 77.81818389892578 L 161.89402862731367 130.45454788208008 L 161.87869262695312 130.45454788208008 L 161.87869262695312 77.81818389892578" fill-opacity="1" clip-path="url(#dHHOlOwviFxA)"/><path fill="rgb(0,0,0)" stroke="none" paint-order="stroke" d="M 161.89402770996094 77.81818389892578 L 161.9144757091999 77.81818389892578 L 161.9144757091999 130.45454788208008 L 161.89402770996094 130.45454788208008 L 161.89402770996094 77.81818389892578" fill-opacity="1" clip-path="url(#dHHOlOwviFxA)"/><path fill="rgb(105,0,0)" stroke="none" paint-order="stroke" d="M 161.9144744873047 77.81818389892578 L 161.9362004864961 77.81818389892578 L 161.9362004864961 130.45454788208008 L 161.9144744873047 130.45454788208008 L 161.9144744873047 77.81818389892578" fill-opacity="1" clip-path="url(#dHHOlOwviFxA)"/><path fill="rgb(117,0,0)" stroke="none" paint-order="stroke" d="M 161.9362030029297 77.81818389892578 L 161.9707090035081 77.81818389892578 L 161.9707090035081 130.45454788208008 L 161.9362030029297 130.45454788208008 L 161.9362030029297 77.81818389892578" fill-opacity="1" clip-path="url(#dHHOlOwviFxA)"/><path fill="rgb(129,0,0)" stroke="none" paint-order="stroke" d="M 161.97071838378906 77.81818389892578 L 161.9898883830756 77.81818389892578 L 161.9898883830756 130.45454788208008 L 161.97071838378906 130.45454788208008 L 161.97071838378906 77.81818389892578" fill-opacity="1" clip-path="url(#dHHOlOwviFxA)"/><path fill="rgb(140,0,0)" stroke="none" paint-order="stroke" d="M 161.98988342285156 77.81818389892578 L 162.00138542242348 77.81818389892578 L 162.00138542242348 130.45454788208008 L 161.98988342285156 130.45454788208008 L 161.98988342285156 77.81818389892578" fill-opacity="1" clip-path="url(#dHHOlOwviFxA)"/><path fill="rgb(144,0,0)" stroke="none" paint-order="stroke" d="M 162.0013885498047 77.81818389892578 L 162.02055854909122 77.81818389892578 L 162.02055854909122 130.45454788208008 L 162.0013885498047 130.45454788208008 L 162.0013885498047 77.81818389892578" fill-opacity="1" clip-path="url(#dHHOlOwviFxA)"/><path fill="rgb(151,0,0)" stroke="none" paint-order="stroke" d="M 162.0205535888672 77.81818389892578 L 162.04739158973098 77.81818389892578 L 162.04739158973098 130.45454788208008 L 162.0205535888672 130.45454788208008 L 162.0205535888672 77.81818389892578" fill-opacity="1" clip-path="url(#dHHOlOwviFxA)"/><path fill="rgb(155,0,0)" stroke="none" paint-order="stroke" d="M 162.04739379882812 77.81818389892578 L 162.0678417980671 77.81818389892578 L 162.0678417980671 130.45454788208008 L 162.04739379882812 130.45454788208008 L 162.04739379882812 77.81818389892578" fill-opacity="1" clip-path="url(#dHHOlOwviFxA)"/><path fill="rgb(161,0,0)" stroke="none" paint-order="stroke" d="M 162.06784057617188 77.81818389892578 L 162.10745857656002 77.81818389892578 L 162.10745857656002 130.45454788208008 L 162.06784057617188 130.45454788208008 L 162.06784057617188 77.81818389892578" fill-opacity="1" clip-path="url(#dHHOlOwviFxA)"/><path fill="rgb(172,0,0)" stroke="none" paint-order="stroke" d="M 162.10745239257812 77.81818389892578 L 162.13045639172196 77.81818389892578 L 162.13045639172196 130.45454788208008 L 162.10745239257812 130.45454788208008 L 162.10745239257812 77.81818389892578" fill-opacity="1" clip-path="url(#dHHOlOwviFxA)"/><path fill="rgb(182,0,0)" stroke="none" paint-order="stroke" d="M 162.13046264648438 77.81818389892578 L 162.14835464581847 77.81818389892578 L 162.14835464581847 130.45454788208008 L 162.13046264648438 130.45454788208008 L 162.13046264648438 77.81818389892578" fill-opacity="1" clip-path="url(#dHHOlOwviFxA)"/><path fill="rgb(193,0,0)" stroke="none" paint-order="stroke" d="M 162.1483612060547 77.81818389892578 L 162.1700872052461 77.81818389892578 L 162.1700872052461 130.45454788208008 L 162.1483612060547 130.45454788208008 L 162.1483612060547 77.81818389892578" fill-opacity="1" clip-path="url(#dHHOlOwviFxA)"/><path fill="rgb(197,0,0)" stroke="none" paint-order="stroke" d="M 162.17007446289062 77.81818389892578 L 162.1905224621296 77.81818389892578 L 162.1905224621296 130.45454788208008 L 162.17007446289062 130.45454788208008 L 162.17007446289062 77.81818389892578" fill-opacity="1" clip-path="url(#dHHOlOwviFxA)"/><path fill="rgb(207,0,0)" stroke="none" paint-order="stroke" d="M 162.19053649902344 77.81818389892578 L 162.23526649922132 77.81818389892578 L 162.23526649922132 130.45454788208008 L 162.19053649902344 130.45454788208008 L 162.19053649902344 77.81818389892578" fill-opacity="1" clip-path="url(#dHHOlOwviFxA)"/><path fill="rgb(211,0,0)" stroke="none" paint-order="stroke" d="M 162.23526000976562 77.81818389892578 L 162.27615600824356 77.81818389892578 L 162.27615600824356 130.45454788208008 L 162.23526000976562 130.45454788208008 L 162.23526000976562 77.81818389892578" fill-opacity="1" clip-path="url(#dHHOlOwviFxA)"/><path fill="rgb(217,0,0)" stroke="none" paint-order="stroke" d="M 162.27615356445312 77.81818389892578 L 162.2966015636921 77.81818389892578 L 162.2966015636921 130.45454788208008 L 162.27615356445312 130.45454788208008 L 162.27615356445312 77.81818389892578" fill-opacity="1" clip-path="url(#dHHOlOwviFxA)"/><path fill="rgb(227,0,0)" stroke="none" paint-order="stroke" d="M 162.29660034179688 77.81818389892578 L 162.31832634098828 77.81818389892578 L 162.31832634098828 130.45454788208008 L 162.29660034179688 130.45454788208008 L 162.29660034179688 77.81818389892578" fill-opacity="1" clip-path="url(#dHHOlOwviFxA)"/><path fill="rgb(231,0,0)" stroke="none" paint-order="stroke" d="M 162.31832885742188 77.81818389892578 L 162.33877685666084 77.81818389892578 L 162.33877685666084 130.45454788208008 L 162.31832885742188 130.45454788208008 L 162.31832885742188 77.81818389892578" fill-opacity="1" clip-path="url(#dHHOlOwviFxA)"/><path fill="rgb(237,0,0)" stroke="none" paint-order="stroke" d="M 162.33877563476562 77.81818389892578 L 162.36433563567698 77.81818389892578 L 162.36433563567698 130.45454788208008 L 162.33877563476562 130.45454788208008 L 162.33877563476562 77.81818389892578" fill-opacity="1" clip-path="url(#dHHOlOwviFxA)"/><path fill="rgb(241,0,0)" stroke="none" paint-order="stroke" d="M 162.3643341064453 77.81818389892578 L 162.85253009200096 77.81818389892578 L 162.85253009200096 130.45454788208008 L 162.3643341064453 130.45454788208008 L 162.3643341064453 77.81818389892578" fill-opacity="1" clip-path="url(#dHHOlOwviFxA)"/><path fill="rgb(246,0,0)" stroke="none" paint-order="stroke" d="M 162.8525390625 77.81818389892578 L 162.91516106575727 77.81818389892578 L 162.91516106575727 130.45454788208008 L 162.8525390625 130.45454788208008 L 162.8525390625 77.81818389892578" fill-opacity="1" clip-path="url(#dHHOlOwviFxA)"/><path fill="rgb(250,0,0)" stroke="none" paint-order="stroke" d="M 162.9151611328125 77.81818389892578 L 171.68096351623535 77.81818389892578 L 171.68096351623535 130.45454788208008 L 162.9151611328125 130.45454788208008 L 162.9151611328125 77.81818389892578" fill-opacity="1" clip-path="url(#dHHOlOwviFxA)"/><path fill="rgb(0,255,40)" stroke="none" paint-order="stroke" d="M 171.6809539794922 77.81818389892578 L 174.14877200126648 77.81818389892578 L 174.14877200126648 130.45454788208008 L 171.6809539794922 130.45454788208008 L 171.6809539794922 77.81818389892578" fill-opacity="1" clip-path="url(#dHHOlOwviFxA)"/><path fill="rgb(251,0,7)" stroke="none" paint-order="stroke" d="M 58.5 130.4545440673828 L 150.9096221923828 130.4545440673828 L 150.9096221923828 183.0909080505371 L 58.5 183.0909080505371 L 58.5 130.4545440673828" fill-opacity="1" clip-path="url(#dCDLWFIWUERl)"/><path fill="rgb(27,121,255)" stroke="none" paint-order="stroke" d="M 150.9096221923828 130.4545440673828 L 171.68095588684082 130.4545440673828 L 171.68095588684082 183.0909080505371 L 150.9096221923828 183.0909080505371 L 150.9096221923828 130.4545440673828" fill-opacity="1" clip-path="url(#dCDLWFIWUERl)"/><path fill="rgb(251,0,7)" stroke="none" paint-order="stroke" d="M 171.6809539794922 130.4545440673828 L 174.14877200126648 130.4545440673828 L 174.14877200126648 183.0909080505371 L 171.6809539794922 183.0909080505371 L 171.6809539794922 130.4545440673828" fill-opacity="1" clip-path="url(#dCDLWFIWUERl)"/><path fill="rgb(105,29,48)" stroke="none" paint-order="stroke" d="M 100.96282958984375 183.09091186523438 L 101.02672959119081 183.09091186523438 L 101.02672959119081 498.9090881347656 L 100.96282958984375 498.9090881347656 L 100.96282958984375 183.09091186523438" fill-opacity="1" clip-path="url(#WAHkdRGdrlUv)"/><path fill="rgb(105,29,48)" stroke="none" paint-order="stroke" d="M 171.6809539794922 183.09091186523438 L 171.74485398083925 183.09091186523438 L 171.74485398083925 498.9090881347656 L 171.6809539794922 498.9090881347656 L 171.6809539794922 183.09091186523438" fill-opacity="1" clip-path="url(#WAHkdRGdrlUv)"/><path fill="rgb(255,188,66)" stroke="none" paint-order="stroke" d="M 165.57850646972656 183.09091186523438 L 166.0539224743843 183.09091186523438 L 166.0539224743843 498.9090881347656 L 165.57850646972656 498.9090881347656 L 165.57850646972656 183.09091186523438" fill-opacity="1" clip-path="url(#aKGOtLStTdra)"/><path fill="rgb(255,188,66)" stroke="none" paint-order="stroke" d="M 166.60218811035156 183.09091186523438 L 168.31343007087708 183.09091186523438 L 168.31343007087708 498.9090881347656 L 166.60218811035156 498.9090881347656 L 166.60218811035156 183.09091186523438" fill-opacity="1" clip-path="url(#aKGOtLStTdra)"/><path fill="rgb(255,188,66)" stroke="none" paint-order="stroke" d="M 169.0866241455078 183.09091186523438 L 169.94799613952637 183.09091186523438 L 169.94799613952637 498.9090881347656 L 169.0866241455078 498.9090881347656 L 169.0866241455078 183.09091186523438" fill-opacity="1" clip-path="url(#aKGOtLStTdra)"/><path fill="rgb(162,174,187)" stroke="none" paint-order="stroke" d="M 171.6809539794922 183.09091186523438 L 171.74485398083925 183.09091186523438 L 171.74485398083925 498.9090881347656 L 171.6809539794922 498.9090881347656 L 171.6809539794922 183.09091186523438" fill-opacity="1" clip-path="url(#fcQuZIRoNgrw)"/><path fill="rgb(162,174,187)" stroke="none" paint-order="stroke" d="M 72.41741943359375 183.09091186523438 L 72.48131943494081 183.09091186523438 L 72.48131943494081 498.9090881347656 L 72.41741943359375 498.9090881347656 L 72.41741943359375 183.09091186523438" fill-opacity="1" clip-path="url(#fHTJHbmSHiai)"/><path fill="rgb(162,174,187)" stroke="none" paint-order="stroke" d="M 75.12933349609375 183.09091186523438 L 75.19323349744081 183.09091186523438 L 75.19323349744081 498.9090881347656 L 75.12933349609375 498.9090881347656 L 75.12933349609375 183.09091186523438" fill-opacity="1" clip-path="url(#fHTJHbmSHiai)"/><path fill="rgb(162,174,187)" stroke="none" paint-order="stroke" d="M 79.28539276123047 183.09091186523438 L 79.34929276257753 183.09091186523438 L 79.34929276257753 498.9090881347656 L 79.28539276123047 498.9090881347656 L 79.28539276123047 183.09091186523438" fill-opacity="1" clip-path="url(#fHTJHbmSHiai)"/><path fill="rgb(162,174,187)" stroke="none" paint-order="stroke" d="M 95.87638854980469 183.09091186523438 L 95.94028855115175 183.09091186523438 L 95.94028855115175 498.9090881347656 L 95.87638854980469 498.9090881347656 L 95.87638854980469 183.09091186523438" fill-opacity="1" clip-path="url(#fHTJHbmSHiai)"/><path fill="rgb(162,174,187)" stroke="none" paint-order="stroke" d="M 144.56051635742188 183.09091186523438 L 144.62441635876894 183.09091186523438 L 144.62441635876894 498.9090881347656 L 144.56051635742188 498.9090881347656 L 144.56051635742188 183.09091186523438" fill-opacity="1" clip-path="url(#fHTJHbmSHiai)"/><path fill="rgb(162,174,187)" stroke="none" paint-order="stroke" d="M 171.6809539794922 183.09091186523438 L 171.74485398083925 183.09091186523438 L 171.74485398083925 498.9090881347656 L 171.6809539794922 498.9090881347656 L 171.6809539794922 183.09091186523438" fill-opacity="1" clip-path="url(#fHTJHbmSHiai)"/><path fill="rgb(255,188,66)" stroke="none" paint-order="stroke" d="M 69.86014556884766 183.09091186523438 L 71.04996359348297 183.09091186523438 L 71.04996359348297 498.9090881347656 L 69.86014556884766 498.9090881347656 L 69.86014556884766 183.09091186523438" fill-opacity="1" clip-path="url(#hXIrRaQIBLdp)"/><path fill="rgb(255,188,66)" stroke="none" paint-order="stroke" d="M 75.99581909179688 183.09091186523438 L 77.04505705833435 183.09091186523438 L 77.04505705833435 498.9090881347656 L 75.99581909179688 498.9090881347656 L 75.99581909179688 183.09091186523438" fill-opacity="1" clip-path="url(#hXIrRaQIBLdp)"/><path fill="rgb(255,188,66)" stroke="none" paint-order="stroke" d="M 80.72697448730469 183.09091186523438 L 83.16284251213074 183.09091186523438 L 83.16284251213074 498.9090881347656 L 80.72697448730469 498.9090881347656 L 80.72697448730469 183.09091186523438" fill-opacity="1" clip-path="url(#hXIrRaQIBLdp)"/><path fill="rgb(255,188,66)" stroke="none" paint-order="stroke" d="M 89.46338653564453 183.09091186523438 L 90.64042448997498 183.09091186523438 L 90.64042448997498 498.9090881347656 L 89.46338653564453 498.9090881347656 L 89.46338653564453 183.09091186523438" fill-opacity="1" clip-path="url(#hXIrRaQIBLdp)"/><path fill="rgb(255,188,66)" stroke="none" paint-order="stroke" d="M 97.04447937011719 183.09091186523438 L 97.6962593793869 183.09091186523438 L 97.6962593793869 498.9090881347656 L 97.04447937011719 498.9090881347656 L 97.04447937011719 183.09091186523438" fill-opacity="1" clip-path="url(#hXIrRaQIBLdp)"/><path fill="rgb(255,188,66)" stroke="none" paint-order="stroke" d="M 102.41080474853516 183.09091186523438 L 107.46785068511963 183.09091186523438 L 107.46785068511963 498.9090881347656 L 102.41080474853516 498.9090881347656 L 102.41080474853516 183.09091186523438" fill-opacity="1" clip-path="url(#hXIrRaQIBLdp)"/><path fill="rgb(216,17,89)" stroke="none" paint-order="stroke" d="M 154.5238037109375 183.09091186523438 L 154.58770371228456 183.09091186523438 L 154.58770371228456 498.9090881347656 L 154.5238037109375 498.9090881347656 L 154.5238037109375 183.09091186523438" fill-opacity="1" clip-path="url(#aQJdXTNqlTQV)"/><path fill="rgb(216,17,89)" stroke="none" paint-order="stroke" d="M 171.6809539794922 183.09091186523438 L 171.74485398083925 183.09091186523438 L 171.74485398083925 498.9090881347656 L 171.6809539794922 498.9090881347656 L 171.6809539794922 183.09091186523438" fill-opacity="1" clip-path="url(#aQJdXTNqlTQV)"/><path fill="rgb(33,131,128)" stroke="none" paint-order="stroke" d="M 148.93511962890625 183.09091186523438 L 150.90962958335876 183.09091186523438 L 150.90962958335876 498.9090881347656 L 148.93511962890625 498.9090881347656 L 148.93511962890625 183.09091186523438" fill-opacity="1" clip-path="url(#HcfTPBfbiqCG)"/><path fill="rgb(33,131,128)" stroke="none" paint-order="stroke" d="M 171.6809539794922 183.09091186523438 L 171.74485398083925 183.09091186523438 L 171.74485398083925 498.9090881347656 L 171.6809539794922 498.9090881347656 L 171.6809539794922 183.09091186523438" fill-opacity="1" clip-path="url(#HcfTPBfbiqCG)"/><path fill="rgb(115,210,222)" stroke="none" paint-order="stroke" d="M 85.16802978515625 183.09091186523438 L 88.54961776733398 183.09091186523438 L 88.54961776733398 498.9090881347656 L 85.16802978515625 498.9090881347656 L 85.16802978515625 183.09091186523438" fill-opacity="1" clip-path="url(#cxoLMAQHflzA)"/><path fill="rgb(115,210,222)" stroke="none" paint-order="stroke" d="M 92.3107681274414 183.09091186523438 L 94.263552069664 183.09091186523438 L 94.263552069664 498.9090881347656 L 92.3107681274414 498.9090881347656 L 92.3107681274414 183.09091186523438" fill-opacity="1" clip-path="url(#cxoLMAQHflzA)"/><path fill="rgb(115,210,222)" stroke="none" paint-order="stroke" d="M 116.01638793945312 183.09091186523438 L 124.24798583984375 183.09091186523438 L 124.24798583984375 498.9090881347656 L 116.01638793945312 498.9090881347656 L 116.01638793945312 183.09091186523438" fill-opacity="1" clip-path="url(#cxoLMAQHflzA)"/><path fill="rgb(115,210,222)" stroke="none" paint-order="stroke" d="M 134.5320587158203 183.09091186523438 L 141.9227328300476 183.09091186523438 L 141.9227328300476 498.9090881347656 L 134.5320587158203 498.9090881347656 L 134.5320587158203 183.09091186523438" fill-opacity="1" clip-path="url(#cxoLMAQHflzA)"/><path fill="rgb(115,210,222)" stroke="none" paint-order="stroke" d="M 146.22703552246094 183.09091186523438 L 147.67500948905945 183.09091186523438 L 147.67500948905945 498.9090881347656 L 146.22703552246094 498.9090881347656 L 146.22703552246094 183.09091186523438" fill-opacity="1" clip-path="url(#cxoLMAQHflzA)"/><path fill="rgb(28,49,68)" stroke="none" paint-order="stroke" d="M 66.06831359863281 183.09091186523438 L 68.657541513443 183.09091186523438 L 68.657541513443 498.9090881347656 L 66.06831359863281 498.9090881347656 L 66.06831359863281 183.09091186523438" fill-opacity="1" clip-path="url(#dcibZWmVSIzb)"/><path fill="rgb(28,49,68)" stroke="none" paint-order="stroke" d="M 98.82345581054688 183.09091186523438 L 99.67971581220627 183.09091186523438 L 99.67971581220627 498.9090881347656 L 98.82345581054688 498.9090881347656 L 98.82345581054688 183.09091186523438" fill-opacity="1" clip-path="url(#dcibZWmVSIzb)"/><path fill="rgb(105,29,48)" stroke="none" paint-order="stroke" d="M 156.0331268310547 183.09091186523438 L 163.5963306427002 183.09091186523438 L 163.5963306427002 498.9090881347656 L 156.0331268310547 498.9090881347656 L 156.0331268310547 183.09091186523438" fill-opacity="1" clip-path="url(#yOzDEyFVRIaT)"/><path fill="rgb(143,45,86)" stroke="none" paint-order="stroke" d="M 58.5 551.5454711914062 L 103.13415145874023 551.5454711914062 L 103.13415145874023 604.1818351745605 L 58.5 604.1818351745605 L 58.5 551.5454711914062" fill-opacity="1" clip-path="url(#AVkrOubECTBT)"/><path fill="rgb(63,136,197)" stroke="none" paint-order="stroke" d="M 103.13414764404297 551.5454711914062 L 103.17632164433599 551.5454711914062 L 103.17632164433599 604.1818351745605 L 103.13414764404297 604.1818351745605 L 103.13414764404297 551.5454711914062" fill-opacity="1" clip-path="url(#AVkrOubECTBT)"/><path fill="rgb(143,45,86)" stroke="none" paint-order="stroke" d="M 103.17632293701172 551.5454711914062 L 103.85749691724777 551.5454711914062 L 103.85749691724777 604.1818351745605 L 103.17632293701172 604.1818351745605 L 103.17632293701172 551.5454711914062" fill-opacity="1" clip-path="url(#AVkrOubECTBT)"/><path fill="rgb(63,136,197)" stroke="none" paint-order="stroke" d="M 103.85749816894531 551.5454711914062 L 105.5188981294632 551.5454711914062 L 105.5188981294632 604.1818351745605 L 103.85749816894531 604.1818351745605 L 103.85749816894531 551.5454711914062" fill-opacity="1" clip-path="url(#AVkrOubECTBT)"/><path fill="rgb(143,45,86)" stroke="none" paint-order="stroke" d="M 105.5188980102539 551.5454711914062 L 105.98792400956154 551.5454711914062 L 105.98792400956154 604.1818351745605 L 105.5188980102539 604.1818351745605 L 105.5188980102539 551.5454711914062" fill-opacity="1" clip-path="url(#AVkrOubECTBT)"/><path fill="rgb(63,136,197)" stroke="none" paint-order="stroke" d="M 105.98792266845703 551.5454711914062 L 106.28697466850281 551.5454711914062 L 106.28697466850281 604.1818351745605 L 105.98792266845703 604.1818351745605 L 105.98792266845703 551.5454711914062" fill-opacity="1" clip-path="url(#AVkrOubECTBT)"/><path fill="rgb(143,45,86)" stroke="none" paint-order="stroke" d="M 106.28697967529297 551.5454711914062 L 107.46785163879395 551.5454711914062 L 107.46785163879395 604.1818351745605 L 106.28697967529297 604.1818351745605 L 106.28697967529297 551.5454711914062" fill-opacity="1" clip-path="url(#AVkrOubECTBT)"/><path fill="rgb(63,136,197)" stroke="none" paint-order="stroke" d="M 107.46784973144531 551.5454711914062 L 144.56052017211914 551.5454711914062 L 144.56052017211914 604.1818351745605 L 107.46784973144531 604.1818351745605 L 107.46784973144531 551.5454711914062" fill-opacity="1" clip-path="url(#AVkrOubECTBT)"/><path fill="rgb(81,60,99)" stroke="none" paint-order="stroke" d="M 144.56051635742188 551.5454711914062 L 171.6809539794922 551.5454711914062 L 171.6809539794922 604.1818351745605 L 144.56051635742188 604.1818351745605 L 144.56051635742188 551.5454711914062" fill-opacity="1" clip-path="url(#AVkrOubECTBT)"/><path fill="rgb(143,45,86)" stroke="none" paint-order="stroke" d="M 171.6809539794922 551.5454711914062 L 174.14877200126648 551.5454711914062 L 174.14877200126648 604.1818351745605 L 171.6809539794922 604.1818351745605 L 171.6809539794922 551.5454711914062" fill-opacity="1" clip-path="url(#AVkrOubECTBT)"/><path fill="none" stroke="rgb(0,0,0)" paint-order="fill" d="M 58.5 77.81818389892578 L 174.14877319335938 77.81818389892578 L 174.14877319335938 604.1818313598633 L 58.5 604.1818313598633 L 58.5 77.81818389892578" stroke-opacity="1" stroke-linejoin="bevel" stroke-miterlimit="10" stroke-dasharray="" clip-path="url(#nRhKaFroKUBz)"/><path fill="none" stroke="rgb(0,0,0)" paint-order="fill" d="M 58.5 630.5 L 1336.5 630.5" stroke-opacity="1" stroke-linejoin="bevel" stroke-miterlimit="10" stroke-dasharray=""/><path fill="none" stroke="rgb(0,0,0)" paint-order="fill" d="M 58.5 636.5 L 58.5 628.5 M 314.5 636.5 L 314.5 628.5 M 569.5 636.5 L 569.5 628.5 M 825.5 636.5 L 825.5 628.5 M 1080.5 636.5 L 1080.5 628.5 M 1336.5 636.5 L 1336.5 628.5" stroke-opacity="1" stroke-linejoin="bevel" stroke-miterlimit="10" stroke-dasharray=""/><path fill="none" stroke="rgb(0,0,0)" paint-order="fill" d="M 58.5 634.5 L 58.5 630.5 M 109.5 634.5 L 109.5 630.5 M 160.5 634.5 L 160.5 630.5 M 211.5 634.5 L 211.5 630.5 M 262.5 634.5 L 262.5 630.5 M 314.5 634.5 L 314.5 630.5 M 365.5 634.5 L 365.5 630.5 M 416.5 634.5 L 416.5 630.5 M 467.5 634.5 L 467.5 630.5 M 518.5 634.5 L 518.5 630.5 M 569.5 634.5 L 569.5 630.5 M 620.5 634.5 L 620.5 630.5 M 671.5 634.5 L 671.5 630.5 M 723.5 634.5 L 723.5 630.5 M 774.5 634.5 L 774.5 630.5 M 825.5 634.5 L 825.5 630.5 M 876.5 634.5 L 876.5 630.5 M 927.5 634.5 L 927.5 630.5 M 978.5 634.5 L 978.5 630.5 M 1029.5 634.5 L 1029.5 630.5 M 1080.5 634.5 L 1080.5 630.5 M 1132.5 634.5 L 1132.5 630.5 M 1183.5 634.5 L 1183.5 630.5 M 1234.5 634.5 L 1234.5 630.5 M 1285.5 634.5 L 1285.5 630.5 M 1336.5 634.5 L 1336.5 630.5" stroke-opacity="1" stroke-linejoin="bevel" stroke-miterlimit="10" stroke-dasharray=""/><text fill="rgb(68,68,68)" stroke="none" font-family="helvetica" font-size="11px" font-style="normal" font-weight="normal" text-decoration="normal" x="54.94166660308838" y="648.89013671875" text-anchor="start" dominant-baseline="alphabetic" transform="matrix(1, 0, 0, 1, 0.5, 0.5)" fill-opacity="1">0</text><text fill="rgb(68,68,68)" stroke="none" font-family="helvetica" font-size="11px" font-style="normal" font-weight="normal" text-decoration="normal" x="304.42500591278076" y="648.89013671875" text-anchor="start" dominant-baseline="alphabetic" transform="matrix(1, 0, 0, 1, 0.5, 0.5)" fill-opacity="1">200</text><text fill="rgb(68,68,68)" stroke="none" font-family="helvetica" font-size="11px" font-style="normal" font-weight="normal" text-decoration="normal" x="560.0250120162964" y="648.89013671875" text-anchor="start" dominant-baseline="alphabetic" transform="matrix(1, 0, 0, 1, 0.5, 0.5)" fill-opacity="1">400</text><text fill="rgb(68,68,68)" stroke="none" font-family="helvetica" font-size="11px" font-style="normal" font-weight="normal" text-decoration="normal" x="815.6249876022339" y="648.89013671875" text-anchor="start" dominant-baseline="alphabetic" transform="matrix(1, 0, 0, 1, 0.5, 0.5)" fill-opacity="1">600</text><text fill="rgb(68,68,68)" stroke="none" font-family="helvetica" font-size="11px" font-style="normal" font-weight="normal" text-decoration="normal" x="1071.2250242233276" y="648.89013671875" text-anchor="start" dominant-baseline="alphabetic" transform="matrix(1, 0, 0, 1, 0.5, 0.5)" fill-opacity="1">800</text><text fill="rgb(68,68,68)" stroke="none" font-family="helvetica" font-size="11px" font-style="normal" font-weight="normal" text-decoration="normal" x="1323.7666664123535" y="648.89013671875" text-anchor="start" dominant-baseline="alphabetic" transform="matrix(1, 0, 0, 1, 0.5, 0.5)" fill-opacity="1">1000</text><text fill="rgb(68,68,68)" stroke="none" font-family="helvetica" font-size="15pt" font-style="italic" font-weight="normal" text-decoration="normal" x="666.4416675567627" y="676.06982421875" text-anchor="start" dominant-baseline="alphabetic" transform="matrix(1, 0, 0, 1, 0.5, 0.5)" fill-opacity="1">time(s)</text><path fill="none" stroke="rgb(0,0,0)" paint-order="fill" d="M 58.5 630.5 L 58.5 51.5" stroke-opacity="1" stroke-linejoin="bevel" stroke-miterlimit="10" stroke-dasharray=""/><path fill="none" stroke="rgb(0,0,0)" paint-order="fill" d="M 52.5 551.5 L 60.5 551.5 M 52.5 446.5 L 60.5 446.5 M 52.5 341.5 L 60.5 341.5 M 52.5 235.5 L 60.5 235.5 M 52.5 130.5 L 60.5 130.5" stroke-opacity="1" stroke-linejoin="bevel" stroke-miterlimit="10" stroke-dasharray=""/><path fill="none" stroke="rgb(0,0,0)" paint-order="fill" d="M 54.5 572.5 L 58.5 572.5 M 54.5 593.5 L 58.5 593.5 M 54.5 614.5 L 58.5 614.5 M 54.5 551.5 L 58.5 551.5 M 54.5 530.5 L 58.5 530.5 M 54.5 509.5 L 58.5 509.5 M 54.5 488.5 L 58.5 488.5 M 54.5 467.5 L 58.5 467.5 M 54.5 446.5 L 58.5 446.5 M 54.5 425.5 L 58.5 425.5 M 54.5 404.5 L 58.5 404.5 M 54.5 383.5 L 58.5 383.5 M 54.5 362.5 L 58.5 362.5 M 54.5 341.5 L 58.5 341.5 M 54.5 319.5 L 58.5 319.5 M 54.5 298.5 L 58.5 298.5 M 54.5 277.5 L 58.5 277.5 M 54.5 256.5 L 58.5 256.5 M 54.5 235.5 L 58.5 235.5 M 54.5 214.5 L 58.5 214.5 M 54.5 193.5 L 58.5 193.5 M 54.5 172.5 L 58.5 172.5 M 54.5 151.5 L 58.5 151.5 M 54.5 130.5 L 58.5 130.5 M 54.5 109.5 L 58.5 109.5 M 54.5 88.5 L 58.5 88.5 M 54.5 67.5 L 58.5 67.5" stroke-opacity="1" stroke-linejoin="bevel" stroke-miterlimit="10" stroke-dasharray=""/><text fill="rgb(68,68,68)" stroke="none" font-family="helvetica" font-size="11px" font-style="normal" font-weight="normal" text-decoration="normal" x="34.46666622161865" y="554.9905395507812" text-anchor="start" dominant-baseline="alphabetic" transform="matrix(1, 0, 0, 1, 0.5, 0.5)" fill-opacity="1">2</text><text fill="rgb(68,68,68)" stroke="none" font-family="helvetica" font-size="11px" font-style="normal" font-weight="normal" text-decoration="normal" x="34.46666622161865" y="449.7178039550781" text-anchor="start" dominant-baseline="alphabetic" transform="matrix(1, 0, 0, 1, 0.5, 0.5)" fill-opacity="1">1</text><text fill="rgb(68,68,68)" stroke="none" font-family="helvetica" font-size="11px" font-style="normal" font-weight="normal" text-decoration="normal" x="40.88333320617676" y="344.445068359375" text-anchor="start" dominant-baseline="alphabetic" transform="matrix(1, 0, 0, 1, 0.5, 0.5)" fill-opacity="1">0</text><text fill="rgb(68,68,68)" stroke="none" font-family="helvetica" font-size="11px" font-style="normal" font-weight="normal" text-decoration="normal" x="40.88333320617676" y="239.17234802246094" text-anchor="start" dominant-baseline="alphabetic" transform="matrix(1, 0, 0, 1, 0.5, 0.5)" fill-opacity="1">1</text><text fill="rgb(68,68,68)" stroke="none" font-family="helvetica" font-size="11px" font-style="normal" font-weight="normal" text-decoration="normal" x="40.88333320617676" y="133.8996124267578" text-anchor="start" dominant-baseline="alphabetic" transform="matrix(1, 0, 0, 1, 0.5, 0.5)" fill-opacity="1">2</text><text fill="rgb(68,68,68)" stroke="none" font-family="helvetica" font-size="15pt" font-style="italic" font-weight="normal" text-decoration="normal" x="-11.316666603088379" y="336.076171875" text-anchor="start" dominant-baseline="alphabetic" transform="matrix(6.123233995736766e-17, -1, 1, 6.123233995736766e-17, -313.53333377838135, 367.46666622161865)" fill-opacity="1">students</text><path fill="rgb(255,255,255)" stroke="rgb(229,229,229)" paint-order="fill" d="M 1128.2333374023438 61.5 L 1326.5 61.5 L 1326.5 400.5 L 1128.2333374023438 400.5 L 1128.2333374023438 61.5" fill-opacity="0.9490196078431372" clip-path="url(#XcwDdePWcgmx)" stroke-opacity="0.5019607843137255" stroke-linejoin="bevel" stroke-miterlimit="10" stroke-dasharray=""/><text fill="rgb(68,68,68)" stroke="none" font-family="helvetica" font-size="13px" font-style="normal" font-weight="normal" text-decoration="normal" x="1162.7333374023438" y="81" text-anchor="start" dominant-baseline="central" clip-path="url(#XcwDdePWcgmx)" transform="matrix(1, 0, 0, 1, 0.5, 0.5)" fill-opacity="1">wavelength</text><path fill="rgb(0,255,40)" stroke="none" paint-order="stroke" d="M 1140.2333374023438 73.5 L 1156.2333374023438 73.5 L 1156.2333374023438 89.5 L 1140.2333374023438 89.5 L 1140.2333374023438 73.5" fill-opacity="1" clip-path="url(#XcwDdePWcgmx)"/><path fill="rgb(216,17,89)" stroke="none" paint-order="stroke" d="M 1140.2333374023438 73.5 L 1156.2333374023438 73.5 L 1156.2333374023438 89.5 L 1140.2333374023438 89.5 L 1140.2333374023438 73.5" fill-opacity="1" clip-path="url(#XcwDdePWcgmx)"/><text fill="rgb(68,68,68)" stroke="none" font-family="helvetica" font-size="13px" font-style="normal" font-weight="normal" text-decoration="normal" x="1162.7333374023438" y="104" text-anchor="start" dominant-baseline="central" clip-path="url(#XcwDdePWcgmx)" transform="matrix(1, 0, 0, 1, 0.5, 0.5)" fill-opacity="1">solution</text><path fill="rgb(251,0,7)" stroke="none" paint-order="stroke" d="M 1140.2333374023438 96.5 L 1156.2333374023438 96.5 L 1156.2333374023438 112.5 L 1140.2333374023438 112.5 L 1140.2333374023438 96.5" fill-opacity="1" clip-path="url(#XcwDdePWcgmx)"/><path fill="rgb(33,131,128)" stroke="none" paint-order="stroke" d="M 1140.2333374023438 96.5 L 1156.2333374023438 96.5 L 1156.2333374023438 112.5 L 1140.2333374023438 112.5 L 1140.2333374023438 96.5" fill-opacity="1" clip-path="url(#XcwDdePWcgmx)"/><text fill="rgb(68,68,68)" stroke="none" font-family="helvetica" font-size="13px" font-style="normal" font-weight="normal" text-decoration="normal" x="1162.7333374023438" y="127" text-anchor="start" dominant-baseline="central" clip-path="url(#XcwDdePWcgmx)" transform="matrix(1, 0, 0, 1, 0.5, 0.5)" fill-opacity="1">laser</text><path fill="rgb(105,29,48)" stroke="none" paint-order="stroke" d="M 1140.2333374023438 119.5 L 1156.2333374023438 119.5 L 1156.2333374023438 135.5 L 1140.2333374023438 135.5 L 1140.2333374023438 119.5" fill-opacity="1" clip-path="url(#XcwDdePWcgmx)"/><text fill="rgb(68,68,68)" stroke="none" font-family="helvetica" font-size="13px" font-style="normal" font-weight="normal" text-decoration="normal" x="1162.7333374023438" y="150" text-anchor="start" dominant-baseline="central" clip-path="url(#XcwDdePWcgmx)" transform="matrix(1, 0, 0, 1, 0.5, 0.5)" fill-opacity="1">ruler</text><path fill="rgb(255,188,66)" stroke="none" paint-order="stroke" d="M 1140.2333374023438 142.5 L 1156.2333374023438 142.5 L 1156.2333374023438 158.5 L 1140.2333374023438 158.5 L 1140.2333374023438 142.5" fill-opacity="1" clip-path="url(#XcwDdePWcgmx)"/><text fill="rgb(68,68,68)" stroke="none" font-family="helvetica" font-size="13px" font-style="normal" font-weight="normal" text-decoration="normal" x="1162.7333374023438" y="173" text-anchor="start" dominant-baseline="central" clip-path="url(#XcwDdePWcgmx)" transform="matrix(1, 0, 0, 1, 0.5, 0.5)" fill-opacity="1">restarts</text><path fill="rgb(162,174,187)" stroke="none" paint-order="stroke" d="M 1140.2333374023438 165.5 L 1156.2333374023438 165.5 L 1156.2333374023438 181.5 L 1140.2333374023438 181.5 L 1140.2333374023438 165.5" fill-opacity="1" clip-path="url(#XcwDdePWcgmx)"/><text fill="rgb(68,68,68)" stroke="none" font-family="helvetica" font-size="13px" font-style="normal" font-weight="normal" text-decoration="normal" x="1162.7333374023438" y="196" text-anchor="start" dominant-baseline="central" clip-path="url(#XcwDdePWcgmx)" transform="matrix(1, 0, 0, 1, 0.5, 0.5)" fill-opacity="1">transmittance_absorbance</text><path fill="rgb(162,174,187)" stroke="none" paint-order="stroke" d="M 1140.2333374023438 188.5 L 1156.2333374023438 188.5 L 1156.2333374023438 204.5 L 1140.2333374023438 204.5 L 1140.2333374023438 188.5" fill-opacity="1" clip-path="url(#XcwDdePWcgmx)"/><text fill="rgb(68,68,68)" stroke="none" font-family="helvetica" font-size="13px" font-style="normal" font-weight="normal" text-decoration="normal" x="1162.7333374023438" y="219" text-anchor="start" dominant-baseline="central" clip-path="url(#XcwDdePWcgmx)" transform="matrix(1, 0, 0, 1, 0.5, 0.5)" fill-opacity="1">magnifier</text><path fill="rgb(255,188,66)" stroke="none" paint-order="stroke" d="M 1140.2333374023438 211.5 L 1156.2333374023438 211.5 L 1156.2333374023438 227.5 L 1140.2333374023438 227.5 L 1140.2333374023438 211.5" fill-opacity="1" clip-path="url(#XcwDdePWcgmx)"/><text fill="rgb(68,68,68)" stroke="none" font-family="helvetica" font-size="13px" font-style="normal" font-weight="normal" text-decoration="normal" x="1162.7333374023438" y="242" text-anchor="start" dominant-baseline="central" clip-path="url(#XcwDdePWcgmx)" transform="matrix(1, 0, 0, 1, 0.5, 0.5)" fill-opacity="1">concentration</text><path fill="rgb(115,210,222)" stroke="none" paint-order="stroke" d="M 1140.2333374023438 234.5 L 1156.2333374023438 234.5 L 1156.2333374023438 250.5 L 1140.2333374023438 250.5 L 1140.2333374023438 234.5" fill-opacity="1" clip-path="url(#XcwDdePWcgmx)"/><text fill="rgb(68,68,68)" stroke="none" font-family="helvetica" font-size="13px" font-style="normal" font-weight="normal" text-decoration="normal" x="1162.7333374023438" y="265" text-anchor="start" dominant-baseline="central" clip-path="url(#XcwDdePWcgmx)" transform="matrix(1, 0, 0, 1, 0.5, 0.5)" fill-opacity="1">flask</text><path fill="rgb(28,49,68)" stroke="none" paint-order="stroke" d="M 1140.2333374023438 257.5 L 1156.2333374023438 257.5 L 1156.2333374023438 273.5 L 1140.2333374023438 273.5 L 1140.2333374023438 257.5" fill-opacity="1" clip-path="url(#XcwDdePWcgmx)"/><text fill="rgb(68,68,68)" stroke="none" font-family="helvetica" font-size="13px" font-style="normal" font-weight="normal" text-decoration="normal" x="1162.7333374023438" y="288" text-anchor="start" dominant-baseline="central" clip-path="url(#XcwDdePWcgmx)" transform="matrix(1, 0, 0, 1, 0.5, 0.5)" fill-opacity="1">pdf</text><text fill="rgb(68,68,68)" stroke="none" font-family="helvetica" font-size="13px" font-style="normal" font-weight="normal" text-decoration="normal" x="1162.7333374023438" y="311" text-anchor="start" dominant-baseline="central" clip-path="url(#XcwDdePWcgmx)" transform="matrix(1, 0, 0, 1, 0.5, 0.5)" fill-opacity="1">concentrationlab</text><text fill="rgb(68,68,68)" stroke="none" font-family="helvetica" font-size="13px" font-style="normal" font-weight="normal" text-decoration="normal" x="1162.7333374023438" y="334" text-anchor="start" dominant-baseline="central" clip-path="url(#XcwDdePWcgmx)" transform="matrix(1, 0, 0, 1, 0.5, 0.5)" fill-opacity="1">wavelength_slider</text><path fill="rgb(105,29,48)" stroke="none" paint-order="stroke" d="M 1140.2333374023438 326.5 L 1156.2333374023438 326.5 L 1156.2333374023438 342.5 L 1140.2333374023438 342.5 L 1140.2333374023438 326.5" fill-opacity="1" clip-path="url(#XcwDdePWcgmx)"/><text fill="rgb(68,68,68)" stroke="none" font-family="helvetica" font-size="13px" font-style="normal" font-weight="normal" text-decoration="normal" x="1162.7333374023438" y="357" text-anchor="start" dominant-baseline="central" clip-path="url(#XcwDdePWcgmx)" transform="matrix(1, 0, 0, 1, 0.5, 0.5)" fill-opacity="1">ruler measuring</text><text fill="rgb(68,68,68)" stroke="none" font-family="helvetica" font-size="13px" font-style="normal" font-weight="normal" text-decoration="normal" x="1162.7333374023438" y="380" text-anchor="start" dominant-baseline="central" clip-path="url(#XcwDdePWcgmx)" transform="matrix(1, 0, 0, 1, 0.5, 0.5)" fill-opacity="1">dependent variable</text><path fill="rgb(143,45,86)" stroke="none" paint-order="stroke" d="M 1140.2333374023438 372.5 L 1156.2333374023438 372.5 L 1156.2333374023438 388.5 L 1140.2333374023438 388.5 L 1140.2333374023438 372.5" fill-opacity="1" clip-path="url(#XcwDdePWcgmx)"/><text fill="rgb(68,68,68)" stroke="none" font-family="helvetica" font-size="25pt" font-style="normal" font-weight="bold" text-decoration="normal" x="58" y="38.740885416666664" text-anchor="start" dominant-baseline="alphabetic" transform="matrix(1, 0, 0, 1, 0.5, 0.5)" fill-opacity="1">Timeline for student 8ethqmkd with permutation 1302 for task 1</text></svg>