<svg version="1.1" xmlns="http://www.w3.org/2000/svg" width="1366" height="683"><defs><clipPath id="RrndMBvkPrDO"><path fill="none" stroke="none" d="M 58.5 51.5 L 1336.5 51.5 L 1336.5 630.5 L 58.5 630.5 L 58.5 51.5"/></clipPath><clipPath id="SMsyPVKUPECr"><path fill="none" stroke="none" d="M 58.5 51.5 L 1336.5 51.5 L 1336.5 630.5 L 58.5 630.5 L 58.5 51.5"/></clipPath><clipPath id="nVWgZkTmpbIh"><path fill="none" stroke="none" d="M 58.5 51.5 L 1336.5 51.5 L 1336.5 630.5 L 58.5 630.5 L 58.5 51.5"/></clipPath><clipPath id="ofTPnmZEcezL"><path fill="none" stroke="none" d="M 58.5 51.5 L 1336.5 51.5 L 1336.5 630.5 L 58.5 630.5 L 58.5 51.5"/></clipPath><clipPath id="BZQihaMiXrgO"><path fill="none" stroke="none" d="M 58.5 51.5 L 1336.5 51.5 L 1336.5 630.5 L 58.5 630.5 L 58.5 51.5"/></clipPath><clipPath id="XFpmirZMUnvn"><path fill="none" stroke="none" d="M 58.5 51.5 L 1336.5 51.5 L 1336.5 630.5 L 58.5 630.5 L 58.5 51.5"/></clipPath><clipPath id="RbTWtqXMNwAJ"><path fill="none" stroke="none" d="M 58.5 51.5 L 1336.5 51.5 L 1336.5 630.5 L 58.5 630.5 L 58.5 51.5"/></clipPath><clipPath id="IiaZgUwmwsAa"><path fill="none" stroke="none" d="M 58.5 51.5 L 1336.5 51.5 L 1336.5 630.5 L 58.5 630.5 L 58.5 51.5"/></clipPath><clipPath id="pARxCNszJfeV"><path fill="none" stroke="none" d="M 58.5 51.5 L 1336.5 51.5 L 1336.5 630.5 L 58.5 630.5 L 58.5 51.5"/></clipPath><clipPath id="fJlTEUzsowoy"><path fill="none" stroke="none" d="M 58.5 51.5 L 1336.5 51.5 L 1336.5 630.5 L 58.5 630.5 L 58.5 51.5"/></clipPath><clipPath id="KCzbfSURPWon"><path fill="none" stroke="none" d="M 58.5 51.5 L 1336.5 51.5 L 1336.5 630.5 L 58.5 630.5 L 58.5 51.5"/></clipPath><clipPath id="rdBitZdbJwnZ"><path fill="none" stroke="none" d="M 58.5 51.5 L 1336.5 51.5 L 1336.5 630.5 L 58.5 630.5 L 58.5 51.5"/></clipPath><clipPath id="EloVmMXqwACr"><path fill="none" stroke="none" d="M 58.5 51.5 L 1336.5 51.5 L 1336.5 630.5 L 58.5 630.5 L 58.5 51.5"/></clipPath><clipPath id="tpwzJdpGHsnC"><path fill="none" stroke="none" d="M 58.5 51.5 L 1336.5 51.5 L 1336.5 630.5 L 58.5 630.5 L 58.5 51.5"/></clipPath><clipPath id="egNDdzbWdtGR"><path fill="none" stroke="none" d="M 58.5 51.5 L 1336.5 51.5 L 1336.5 630.5 L 58.5 630.5 L 58.5 51.5"/></clipPath><clipPath id="RKdEPCrtpeXh"><path fill="none" stroke="none" d="M 58.5 51.5 L 1336.5 51.5 L 1336.5 630.5 L 58.5 630.5 L 58.5 51.5"/></clipPath><clipPath id="nDpgypWKuWiN"><path fill="none" stroke="none" d="M 58.5 51.5 L 1336.5 51.5 L 1336.5 630.5 L 58.5 630.5 L 58.5 51.5"/></clipPath><clipPath id="KcBFkPotWEwS"><path fill="none" stroke="none" d="M 58.5 51.5 L 1336.5 51.5 L 1336.5 630.5 L 58.5 630.5 L 58.5 51.5"/></clipPath><clipPath id="AuOCmOXbcRUs"><path fill="none" stroke="none" d="M 58.5 51.5 L 1336.5 51.5 L 1336.5 630.5 L 58.5 630.5 L 58.5 51.5"/></clipPath><clipPath id="cVCTWebUXBfc"><path fill="none" stroke="none" d="M 58.5 51.5 L 1336.5 51.5 L 1336.5 630.5 L 58.5 630.5 L 58.5 51.5"/></clipPath><clipPath id="mmDbKnidpQGT"><path fill="none" stroke="none" d="M 58.5 51.5 L 1336.5 51.5 L 1336.5 630.5 L 58.5 630.5 L 58.5 51.5"/></clipPath></defs><path fill="rgb(255,255,255)" stroke="none" paint-order="stroke" d="M 0.5 0.5 L 1366.5 0.5 L 1366.5 683.5 L 0.5 683.5 L 0.5 0.5" fill-opacity="1"/><rect fill="#FFFFFF" stroke="none" x="58" y="51" width="1278" height="579" transform="matrix(1, 0, 0, 1, 0.5, 0.5)"/><path fill="rgb(255,255,255)" stroke="none" paint-order="stroke" d="M 58.5 51.5 L 1336.5 51.5 L 1336.5 630.5 L 58.5 630.5 L 58.5 51.5" fill-opacity="1"/><path fill="none" stroke="rgb(229,229,229)" paint-order="fill" d="M 58.5 51.5 L 1336.5 51.5 L 1336.5 630.5 L 58.5 630.5 L 58.5 51.5" stroke-opacity="1" stroke-linejoin="bevel" stroke-miterlimit="10" stroke-dasharray=""/><path fill="none" stroke="rgb(229,229,229)" paint-order="fill" d="M 314.5 630.5 L 314.5 51.5 M 569.5 630.5 L 569.5 51.5 M 825.5 630.5 L 825.5 51.5 M 1080.5 630.5 L 1080.5 51.5" stroke-opacity="1" stroke-linejoin="bevel" stroke-miterlimit="10" stroke-dasharray="" clip-path="url(#RrndMBvkPrDO)"/><path fill="none" stroke="rgb(229,229,229)" paint-order="fill" d="M 58.5 551.5 L 1336.5 551.5 M 58.5 446.5 L 1336.5 446.5 M 58.5 341.5 L 1336.5 341.5 M 58.5 235.5 L 1336.5 235.5 M 58.5 130.5 L 1336.5 130.5" stroke-opacity="1" stroke-linejoin="bevel" stroke-miterlimit="10" stroke-dasharray="" clip-path="url(#SMsyPVKUPECr)"/><path fill="rgb(0,255,40)" stroke="none" paint-order="stroke" d="M 58.5 77.81818389892578 L 86.55465507507324 77.81818389892578 L 86.55465507507324 130.45454788208008 L 58.5 130.45454788208008 L 58.5 77.81818389892578" fill-opacity="1" clip-path="url(#nVWgZkTmpbIh)"/><path fill="rgb(8,255,0)" stroke="none" paint-order="stroke" d="M 86.55465698242188 77.81818389892578 L 86.67990098893642 77.81818389892578 L 86.67990098893642 130.45454788208008 L 86.55465698242188 130.45454788208008 L 86.55465698242188 77.81818389892578" fill-opacity="1" clip-path="url(#nVWgZkTmpbIh)"/><path fill="rgb(25,255,0)" stroke="none" paint-order="stroke" d="M 86.67990112304688 77.81818389892578 L 86.7655271217227 77.81818389892578 L 86.7655271217227 130.45454788208008 L 86.67990112304688 130.45454788208008 L 86.67990112304688 77.81818389892578" fill-opacity="1" clip-path="url(#nVWgZkTmpbIh)"/><path fill="rgb(53,255,0)" stroke="none" paint-order="stroke" d="M 86.7655258178711 77.81818389892578 L 86.7872518170625 77.81818389892578 L 86.7872518170625 130.45454788208008 L 86.7655258178711 130.45454788208008 L 86.7655258178711 77.81818389892578" fill-opacity="1" clip-path="url(#nVWgZkTmpbIh)"/><path fill="rgb(82,255,0)" stroke="none" paint-order="stroke" d="M 86.7872543334961 77.81818389892578 L 86.80770233273506 77.81818389892578 L 86.80770233273506 130.45454788208008 L 86.7872543334961 130.45454788208008 L 86.7872543334961 77.81818389892578" fill-opacity="1" clip-path="url(#nVWgZkTmpbIh)"/><path fill="rgb(93,255,0)" stroke="none" paint-order="stroke" d="M 86.80770111083984 77.81818389892578 L 86.82814911007881 77.81818389892578 L 86.82814911007881 130.45454788208008 L 86.80770111083984 130.45454788208008 L 86.80770111083984 77.81818389892578" fill-opacity="1" clip-path="url(#nVWgZkTmpbIh)"/><path fill="rgb(119,255,0)" stroke="none" paint-order="stroke" d="M 86.8281478881836 77.81818389892578 L 86.849873887375 77.81818389892578 L 86.849873887375 130.45454788208008 L 86.8281478881836 130.45454788208008 L 86.8281478881836 77.81818389892578" fill-opacity="1" clip-path="url(#nVWgZkTmpbIh)"/><path fill="rgb(139,255,0)" stroke="none" paint-order="stroke" d="M 86.8498764038086 77.81818389892578 L 86.91377640515566 77.81818389892578 L 86.91377640515566 130.45454788208008 L 86.8498764038086 130.45454788208008 L 86.8498764038086 77.81818389892578" fill-opacity="1" clip-path="url(#nVWgZkTmpbIh)"/><path fill="rgb(149,255,0)" stroke="none" paint-order="stroke" d="M 86.91377258300781 77.81818389892578 L 86.96105858311057 77.81818389892578 L 86.96105858311057 130.45454788208008 L 86.91377258300781 130.45454788208008 L 86.91377258300781 77.81818389892578" fill-opacity="1" clip-path="url(#nVWgZkTmpbIh)"/><path fill="rgb(162,255,0)" stroke="none" paint-order="stroke" d="M 86.9610595703125 77.81818389892578 L 87.29845157265663 77.81818389892578 L 87.29845157265663 130.45454788208008 L 86.9610595703125 130.45454788208008 L 86.9610595703125 77.81818389892578" fill-opacity="1" clip-path="url(#nVWgZkTmpbIh)"/><path fill="rgb(149,255,0)" stroke="none" paint-order="stroke" d="M 87.29845428466797 77.81818389892578 L 87.31890228390694 77.81818389892578 L 87.31890228390694 130.45454788208008 L 87.29845428466797 130.45454788208008 L 87.29845428466797 77.81818389892578" fill-opacity="1" clip-path="url(#nVWgZkTmpbIh)"/><path fill="rgb(139,255,0)" stroke="none" paint-order="stroke" d="M 87.31890106201172 77.81818389892578 L 87.36107506230474 77.81818389892578 L 87.36107506230474 130.45454788208008 L 87.31890106201172 130.45454788208008 L 87.31890106201172 77.81818389892578" fill-opacity="1" clip-path="url(#nVWgZkTmpbIh)"/><path fill="rgb(129,255,0)" stroke="none" paint-order="stroke" d="M 87.36107635498047 77.81818389892578 L 87.40452835336328 77.81818389892578 L 87.40452835336328 130.45454788208008 L 87.36107635498047 130.45454788208008 L 87.36107635498047 77.81818389892578" fill-opacity="1" clip-path="url(#nVWgZkTmpbIh)"/><path fill="rgb(119,255,0)" stroke="none" paint-order="stroke" d="M 87.40452575683594 77.81818389892578 L 87.42625175602734 77.81818389892578 L 87.42625175602734 130.45454788208008 L 87.40452575683594 130.45454788208008 L 87.40452575683594 77.81818389892578" fill-opacity="1" clip-path="url(#nVWgZkTmpbIh)"/><path fill="rgb(104,255,0)" stroke="none" paint-order="stroke" d="M 87.42625427246094 77.81818389892578 L 87.48887627571821 77.81818389892578 L 87.48887627571821 130.45454788208008 L 87.42625427246094 130.45454788208008 L 87.42625427246094 77.81818389892578" fill-opacity="1" clip-path="url(#nVWgZkTmpbIh)"/><path fill="rgb(93,255,0)" stroke="none" paint-order="stroke" d="M 87.48887634277344 77.81818389892578 L 87.53232834115624 77.81818389892578 L 87.53232834115624 130.45454788208008 L 87.48887634277344 130.45454788208008 L 87.48887634277344 77.81818389892578" fill-opacity="1" clip-path="url(#nVWgZkTmpbIh)"/><path fill="rgb(82,255,0)" stroke="none" paint-order="stroke" d="M 87.5323257446289 77.81818389892578 L 88.04352575540543 77.81818389892578 L 88.04352575540543 130.45454788208008 L 87.5323257446289 130.45454788208008 L 87.5323257446289 77.81818389892578" fill-opacity="1" clip-path="url(#nVWgZkTmpbIh)"/><path fill="rgb(70,255,0)" stroke="none" paint-order="stroke" d="M 88.04352569580078 77.81818389892578 L 89.1298257112503 77.81818389892578 L 89.1298257112503 130.45454788208008 L 88.04352569580078 130.45454788208008 L 88.04352569580078 77.81818389892578" fill-opacity="1" clip-path="url(#nVWgZkTmpbIh)"/><path fill="rgb(53,255,0)" stroke="none" paint-order="stroke" d="M 89.12982940673828 77.81818389892578 L 89.3202514052391 77.81818389892578 L 89.3202514052391 130.45454788208008 L 89.12982940673828 130.45454788208008 L 89.12982940673828 77.81818389892578" fill-opacity="1" clip-path="url(#nVWgZkTmpbIh)"/><path fill="rgb(40,255,0)" stroke="none" paint-order="stroke" d="M 89.32025146484375 77.81818389892578 L 89.91707748174667 77.81818389892578 L 89.91707748174667 130.45454788208008 L 89.32025146484375 130.45454788208008 L 89.32025146484375 77.81818389892578" fill-opacity="1" clip-path="url(#nVWgZkTmpbIh)"/><path fill="rgb(53,255,0)" stroke="none" paint-order="stroke" d="M 89.91707611083984 77.81818389892578 L 90.024428114295 77.81818389892578 L 90.024428114295 130.45454788208008 L 89.91707611083984 130.45454788208008 L 89.91707611083984 77.81818389892578" fill-opacity="1" clip-path="url(#nVWgZkTmpbIh)"/><path fill="rgb(70,255,0)" stroke="none" paint-order="stroke" d="M 90.02442932128906 77.81818389892578 L 90.08705132454634 77.81818389892578 L 90.08705132454634 130.45454788208008 L 90.02442932128906 130.45454788208008 L 90.02442932128906 77.81818389892578" fill-opacity="1" clip-path="url(#nVWgZkTmpbIh)"/><path fill="rgb(82,255,0)" stroke="none" paint-order="stroke" d="M 90.08705139160156 77.81818389892578 L 90.68515539169312 77.81818389892578 L 90.68515539169312 130.45454788208008 L 90.08705139160156 130.45454788208008 L 90.08705139160156 77.81818389892578" fill-opacity="1" clip-path="url(#nVWgZkTmpbIh)"/><path fill="rgb(70,255,0)" stroke="none" paint-order="stroke" d="M 90.68515014648438 77.81818389892578 L 90.76949814707041 77.81818389892578 L 90.76949814707041 130.45454788208008 L 90.68515014648438 130.45454788208008 L 90.68515014648438 77.81818389892578" fill-opacity="1" clip-path="url(#nVWgZkTmpbIh)"/><path fill="rgb(53,255,0)" stroke="none" paint-order="stroke" d="M 90.76950073242188 77.81818389892578 L 121.38782501220703 77.81818389892578 L 121.38782501220703 130.45454788208008 L 90.76950073242188 130.45454788208008 L 90.76950073242188 77.81818389892578" fill-opacity="1" clip-path="url(#nVWgZkTmpbIh)"/><path fill="rgb(159,255,0)" stroke="none" paint-order="stroke" d="M 121.38782501220703 77.81818389892578 L 253.98160552978516 77.81818389892578 L 253.98160552978516 130.45454788208008 L 121.38782501220703 130.45454788208008 L 121.38782501220703 77.81818389892578" fill-opacity="1" clip-path="url(#nVWgZkTmpbIh)"/><path fill="rgb(156,255,0)" stroke="none" paint-order="stroke" d="M 253.98159790039062 77.81818389892578 L 254.28448390960693 77.81818389892578 L 254.28448390960693 130.45454788208008 L 253.98159790039062 130.45454788208008 L 253.98159790039062 77.81818389892578" fill-opacity="1" clip-path="url(#nVWgZkTmpbIh)"/><path fill="rgb(153,255,0)" stroke="none" paint-order="stroke" d="M 254.28448486328125 77.81818389892578 L 254.47490686178207 77.81818389892578 L 254.47490686178207 130.45454788208008 L 254.28448486328125 130.45454788208008 L 254.28448486328125 77.81818389892578" fill-opacity="1" clip-path="url(#nVWgZkTmpbIh)"/><path fill="rgb(149,255,0)" stroke="none" paint-order="stroke" d="M 254.47491455078125 77.81818389892578 L 254.6793945580721 77.81818389892578 L 254.6793945580721 130.45454788208008 L 254.47491455078125 130.45454788208008 L 254.47491455078125 77.81818389892578" fill-opacity="1" clip-path="url(#nVWgZkTmpbIh)"/><path fill="rgb(146,255,0)" stroke="none" paint-order="stroke" d="M 254.6793975830078 77.81818389892578 L 254.88387759029865 77.81818389892578 L 254.88387759029865 130.45454788208008 L 254.6793975830078 130.45454788208008 L 254.6793975830078 77.81818389892578" fill-opacity="1" clip-path="url(#nVWgZkTmpbIh)"/><path fill="rgb(143,255,0)" stroke="none" paint-order="stroke" d="M 254.8838653564453 77.81818389892578 L 255.06278535723686 77.81818389892578 L 255.06278535723686 130.45454788208008 L 254.8838653564453 130.45454788208008 L 254.8838653564453 77.81818389892578" fill-opacity="1" clip-path="url(#nVWgZkTmpbIh)"/><path fill="rgb(139,255,0)" stroke="none" paint-order="stroke" d="M 255.0627899169922 77.81818389892578 L 255.27493791282177 77.81818389892578 L 255.27493791282177 130.45454788208008 L 255.0627899169922 130.45454788208008 L 255.0627899169922 77.81818389892578" fill-opacity="1" clip-path="url(#nVWgZkTmpbIh)"/><path fill="rgb(136,255,0)" stroke="none" paint-order="stroke" d="M 255.27493286132812 77.81818389892578 L 255.46535485982895 77.81818389892578 L 255.46535485982895 130.45454788208008 L 255.27493286132812 130.45454788208008 L 255.27493286132812 77.81818389892578" fill-opacity="1" clip-path="url(#nVWgZkTmpbIh)"/><path fill="rgb(132,255,0)" stroke="none" paint-order="stroke" d="M 255.46536254882812 77.81818389892578 L 255.67112055420876 77.81818389892578 L 255.67112055420876 130.45454788208008 L 255.46536254882812 130.45454788208008 L 255.46536254882812 77.81818389892578" fill-opacity="1" clip-path="url(#nVWgZkTmpbIh)"/><path fill="rgb(129,255,0)" stroke="none" paint-order="stroke" d="M 255.67111206054688 77.81818389892578 L 255.8768700659275 77.81818389892578 L 255.8768700659275 130.45454788208008 L 255.67111206054688 130.45454788208008 L 255.67111206054688 77.81818389892578" fill-opacity="1" clip-path="url(#nVWgZkTmpbIh)"/><path fill="rgb(126,255,0)" stroke="none" paint-order="stroke" d="M 255.8768768310547 77.81818389892578 L 256.0698548257351 77.81818389892578 L 256.0698548257351 130.45454788208008 L 255.8768768310547 130.45454788208008 L 255.8768768310547 77.81818389892578" fill-opacity="1" clip-path="url(#nVWgZkTmpbIh)"/><path fill="rgb(122,255,0)" stroke="none" paint-order="stroke" d="M 256.0698547363281 77.81818389892578 L 256.273056730628 77.81818389892578 L 256.273056730628 130.45454788208008 L 256.0698547363281 130.45454788208008 L 256.0698547363281 77.81818389892578" fill-opacity="1" clip-path="url(#nVWgZkTmpbIh)"/><path fill="rgb(119,255,0)" stroke="none" paint-order="stroke" d="M 256.27305603027344 77.81818389892578 L 256.5043740272522 77.81818389892578 L 256.5043740272522 130.45454788208008 L 256.27305603027344 130.45454788208008 L 256.27305603027344 77.81818389892578" fill-opacity="1" clip-path="url(#nVWgZkTmpbIh)"/><path fill="rgb(115,255,0)" stroke="none" paint-order="stroke" d="M 256.5043640136719 77.81818389892578 L 256.66922602057457 77.81818389892578 L 256.66922602057457 130.45454788208008 L 256.5043640136719 130.45454788208008 L 256.5043640136719 77.81818389892578" fill-opacity="1" clip-path="url(#nVWgZkTmpbIh)"/><path fill="rgb(111,255,0)" stroke="none" paint-order="stroke" d="M 256.66925048828125 77.81818389892578 L 256.8750084936619 77.81818389892578 L 256.8750084936619 130.45454788208008 L 256.66925048828125 130.45454788208008 L 256.66925048828125 77.81818389892578" fill-opacity="1" clip-path="url(#nVWgZkTmpbIh)"/><path fill="rgb(108,255,0)" stroke="none" paint-order="stroke" d="M 256.875 77.81818389892578 L 257.07948000729084 77.81818389892578 L 257.07948000729084 130.45454788208008 L 256.875 130.45454788208008 L 256.875 77.81818389892578" fill-opacity="1" clip-path="url(#nVWgZkTmpbIh)"/><path fill="rgb(104,255,0)" stroke="none" paint-order="stroke" d="M 257.0794677734375 77.81818389892578 L 257.2711677700281 77.81818389892578 L 257.2711677700281 130.45454788208008 L 257.0794677734375 130.45454788208008 L 257.0794677734375 77.81818389892578" fill-opacity="1" clip-path="url(#nVWgZkTmpbIh)"/><path fill="rgb(101,255,0)" stroke="none" paint-order="stroke" d="M 257.27117919921875 77.81818389892578 L 257.4603231996298 77.81818389892578 L 257.4603231996298 130.45454788208008 L 257.27117919921875 130.45454788208008 L 257.27117919921875 77.81818389892578" fill-opacity="1" clip-path="url(#nVWgZkTmpbIh)"/><path fill="rgb(97,255,0)" stroke="none" paint-order="stroke" d="M 257.4603271484375 77.81818389892578 L 257.6545831412077 77.81818389892578 L 257.6545831412077 130.45454788208008 L 257.4603271484375 130.45454788208008 L 257.4603271484375 77.81818389892578" fill-opacity="1" clip-path="url(#nVWgZkTmpbIh)"/><path fill="rgb(93,255,0)" stroke="none" paint-order="stroke" d="M 257.6545715332031 77.81818389892578 L 257.85266153514385 77.81818389892578 L 257.85266153514385 130.45454788208008 L 257.6545715332031 130.45454788208008 L 257.6545715332031 77.81818389892578" fill-opacity="1" clip-path="url(#nVWgZkTmpbIh)"/><path fill="rgb(89,255,0)" stroke="none" paint-order="stroke" d="M 257.8526611328125 77.81818389892578 L 258.0507511347532 77.81818389892578 L 258.0507511347532 130.45454788208008 L 257.8526611328125 130.45454788208008 L 257.8526611328125 77.81818389892578" fill-opacity="1" clip-path="url(#nVWgZkTmpbIh)"/><path fill="rgb(86,255,0)" stroke="none" paint-order="stroke" d="M 258.0507507324219 77.81818389892578 L 258.2577867358923 77.81818389892578 L 258.2577867358923 130.45454788208008 L 258.0507507324219 130.45454788208008 L 258.0507507324219 77.81818389892578" fill-opacity="1" clip-path="url(#nVWgZkTmpbIh)"/><path fill="rgb(82,255,0)" stroke="none" paint-order="stroke" d="M 258.2577819824219 77.81818389892578 L 258.459705978632 77.81818389892578 L 258.459705978632 130.45454788208008 L 258.2577819824219 130.45454788208008 L 258.2577819824219 77.81818389892578" fill-opacity="1" clip-path="url(#nVWgZkTmpbIh)"/><path fill="rgb(78,255,0)" stroke="none" paint-order="stroke" d="M 258.459716796875 77.81818389892578 L 258.6756988018751 77.81818389892578 L 258.6756988018751 130.45454788208008 L 258.459716796875 130.45454788208008 L 258.459716796875 77.81818389892578" fill-opacity="1" clip-path="url(#nVWgZkTmpbIh)"/><path fill="rgb(74,255,0)" stroke="none" paint-order="stroke" d="M 258.6756896972656 77.81818389892578 L 258.88144770264626 77.81818389892578 L 258.88144770264626 130.45454788208008 L 258.6756896972656 130.45454788208008 L 258.6756896972656 77.81818389892578" fill-opacity="1" clip-path="url(#nVWgZkTmpbIh)"/><path fill="rgb(70,255,0)" stroke="none" paint-order="stroke" d="M 258.8814392089844 77.81818389892578 L 259.15620920062065 77.81818389892578 L 259.15620920062065 130.45454788208008 L 258.8814392089844 130.45454788208008 L 258.8814392089844 77.81818389892578" fill-opacity="1" clip-path="url(#nVWgZkTmpbIh)"/><path fill="rgb(66,255,0)" stroke="none" paint-order="stroke" d="M 259.1562194824219 77.81818389892578 L 259.65463948249817 77.81818389892578 L 259.65463948249817 130.45454788208008 L 259.1562194824219 130.45454788208008 L 259.1562194824219 77.81818389892578" fill-opacity="1" clip-path="url(#nVWgZkTmpbIh)"/><path fill="rgb(62,255,0)" stroke="none" paint-order="stroke" d="M 259.6546325683594 77.81818389892578 L 260.3447525501251 77.81818389892578 L 260.3447525501251 130.45454788208008 L 259.6546325683594 130.45454788208008 L 259.6546325683594 77.81818389892578" fill-opacity="1" clip-path="url(#nVWgZkTmpbIh)"/><path fill="rgb(58,255,0)" stroke="none" paint-order="stroke" d="M 260.3447570800781 77.81818389892578 L 261.0233750939369 77.81818389892578 L 261.0233750939369 130.45454788208008 L 260.3447570800781 130.45454788208008 L 260.3447570800781 77.81818389892578" fill-opacity="1" clip-path="url(#nVWgZkTmpbIh)"/><path fill="rgb(53,255,0)" stroke="none" paint-order="stroke" d="M 261.02337646484375 77.81818389892578 L 348.39512634277344 77.81818389892578 L 348.39512634277344 130.45454788208008 L 261.02337646484375 130.45454788208008 L 261.02337646484375 77.81818389892578" fill-opacity="1" clip-path="url(#nVWgZkTmpbIh)"/><path fill="rgb(42,0,238)" stroke="none" paint-order="stroke" d="M 348.3951416015625 77.81818389892578 L 353.94421768188477 77.81818389892578 L 353.94421768188477 130.45454788208008 L 348.3951416015625 130.45454788208008 L 348.3951416015625 77.81818389892578" fill-opacity="1" clip-path="url(#nVWgZkTmpbIh)"/><path fill="rgb(0,26,255)" stroke="none" paint-order="stroke" d="M 353.9442138671875 77.81818389892578 L 353.9659398663789 77.81818389892578 L 353.9659398663789 130.45454788208008 L 353.9442138671875 130.45454788208008 L 353.9442138671875 77.81818389892578" fill-opacity="1" clip-path="url(#nVWgZkTmpbIh)"/><path fill="rgb(0,102,255)" stroke="none" paint-order="stroke" d="M 353.9659423828125 77.81818389892578 L 353.98639038205147 77.81818389892578 L 353.98639038205147 130.45454788208008 L 353.9659423828125 130.45454788208008 L 353.9659423828125 77.81818389892578" fill-opacity="1" clip-path="url(#nVWgZkTmpbIh)"/><path fill="rgb(0,137,255)" stroke="none" paint-order="stroke" d="M 353.98638916015625 77.81818389892578 L 354.0068371593952 77.81818389892578 L 354.0068371593952 130.45454788208008 L 353.98638916015625 130.45454788208008 L 353.98638916015625 77.81818389892578" fill-opacity="1" clip-path="url(#nVWgZkTmpbIh)"/><path fill="rgb(0,164,255)" stroke="none" paint-order="stroke" d="M 354.0068359375 77.81818389892578 L 354.0285619366914 77.81818389892578 L 354.0285619366914 130.45454788208008 L 354.0068359375 130.45454788208008 L 354.0068359375 77.81818389892578" fill-opacity="1" clip-path="url(#nVWgZkTmpbIh)"/><path fill="rgb(0,178,255)" stroke="none" paint-order="stroke" d="M 354.028564453125 77.81818389892578 L 354.0502904523164 77.81818389892578 L 354.0502904523164 130.45454788208008 L 354.028564453125 130.45454788208008 L 354.028564453125 77.81818389892578" fill-opacity="1" clip-path="url(#nVWgZkTmpbIh)"/><path fill="rgb(0,196,255)" stroke="none" paint-order="stroke" d="M 354.05029296875 77.81818389892578 L 354.07074096798897 77.81818389892578 L 354.07074096798897 130.45454788208008 L 354.05029296875 130.45454788208008 L 354.05029296875 77.81818389892578" fill-opacity="1" clip-path="url(#nVWgZkTmpbIh)"/><path fill="rgb(0,209,255)" stroke="none" paint-order="stroke" d="M 354.07073974609375 77.81818389892578 L 354.09246574528515 77.81818389892578 L 354.09246574528515 130.45454788208008 L 354.07073974609375 130.45454788208008 L 354.07073974609375 77.81818389892578" fill-opacity="1" clip-path="url(#nVWgZkTmpbIh)"/><path fill="rgb(0,221,255)" stroke="none" paint-order="stroke" d="M 354.09246826171875 77.81818389892578 L 354.11419426091015 77.81818389892578 L 354.11419426091015 130.45454788208008 L 354.09246826171875 130.45454788208008 L 354.09246826171875 77.81818389892578" fill-opacity="1" clip-path="url(#nVWgZkTmpbIh)"/><path fill="rgb(0,234,255)" stroke="none" paint-order="stroke" d="M 354.1141662597656 77.81818389892578 L 354.1346142590046 77.81818389892578 L 354.1346142590046 130.45454788208008 L 354.1141662597656 130.45454788208008 L 354.1141662597656 77.81818389892578" fill-opacity="1" clip-path="url(#nVWgZkTmpbIh)"/><path fill="rgb(0,246,255)" stroke="none" paint-order="stroke" d="M 354.1346130371094 77.81818389892578 L 354.1563390363008 77.81818389892578 L 354.1563390363008 130.45454788208008 L 354.1346130371094 130.45454788208008 L 354.1346130371094 77.81818389892578" fill-opacity="1" clip-path="url(#nVWgZkTmpbIh)"/><path fill="rgb(0,255,234)" stroke="none" paint-order="stroke" d="M 354.1563415527344 77.81818389892578 L 354.1997935511172 77.81818389892578 L 354.1997935511172 130.45454788208008 L 354.1563415527344 130.45454788208008 L 354.1563415527344 77.81818389892578" fill-opacity="1" clip-path="url(#nVWgZkTmpbIh)"/><path fill="rgb(0,255,202)" stroke="none" paint-order="stroke" d="M 354.1997985839844 77.81818389892578 L 354.2419725842774 77.81818389892578 L 354.2419725842774 130.45454788208008 L 354.1997985839844 130.45454788208008 L 354.1997985839844 77.81818389892578" fill-opacity="1" clip-path="url(#nVWgZkTmpbIh)"/><path fill="rgb(0,255,169)" stroke="none" paint-order="stroke" d="M 354.2419738769531 77.81818389892578 L 354.2624218761921 77.81818389892578 L 354.2624218761921 130.45454788208008 L 354.2419738769531 130.45454788208008 L 354.2419738769531 77.81818389892578" fill-opacity="1" clip-path="url(#nVWgZkTmpbIh)"/><path fill="rgb(0,255,134)" stroke="none" paint-order="stroke" d="M 354.2624206542969 77.81818389892578 L 354.2841466534883 77.81818389892578 L 354.2841466534883 130.45454788208008 L 354.2624206542969 130.45454788208008 L 354.2624206542969 77.81818389892578" fill-opacity="1" clip-path="url(#nVWgZkTmpbIh)"/><path fill="rgb(0,255,84)" stroke="none" paint-order="stroke" d="M 354.2841491699219 77.81818389892578 L 355.1161271929741 77.81818389892578 L 355.1161271929741 130.45454788208008 L 354.2841491699219 130.45454788208008 L 354.2841491699219 77.81818389892578" fill-opacity="1" clip-path="url(#nVWgZkTmpbIh)"/><path fill="rgb(0,255,40)" stroke="none" paint-order="stroke" d="M 355.1161193847656 77.81818389892578 L 355.2221933826804 77.81818389892578 L 355.2221933826804 130.45454788208008 L 355.1161193847656 130.45454788208008 L 355.1161193847656 77.81818389892578" fill-opacity="1" clip-path="url(#nVWgZkTmpbIh)"/><path fill="rgb(8,255,0)" stroke="none" paint-order="stroke" d="M 355.2221984863281 77.81818389892578 L 355.34872049093246 77.81818389892578 L 355.34872049093246 130.45454788208008 L 355.2221984863281 130.45454788208008 L 355.2221984863281 77.81818389892578" fill-opacity="1" clip-path="url(#nVWgZkTmpbIh)"/><path fill="rgb(25,255,0)" stroke="none" paint-order="stroke" d="M 355.3487243652344 77.81818389892578 L 355.41390236467123 77.81818389892578 L 355.41390236467123 130.45454788208008 L 355.3487243652344 130.45454788208008 L 355.3487243652344 77.81818389892578" fill-opacity="1" clip-path="url(#nVWgZkTmpbIh)"/><path fill="rgb(44,255,0)" stroke="none" paint-order="stroke" d="M 355.4139099121094 77.81818389892578 L 355.4560839124024 77.81818389892578 L 355.4560839124024 130.45454788208008 L 355.4139099121094 130.45454788208008 L 355.4139099121094 77.81818389892578" fill-opacity="1" clip-path="url(#nVWgZkTmpbIh)"/><path fill="rgb(58,255,0)" stroke="none" paint-order="stroke" d="M 355.4560852050781 77.81818389892578 L 355.6043332070112 77.81818389892578 L 355.6043332070112 130.45454788208008 L 355.4560852050781 130.45454788208008 L 355.4560852050781 77.81818389892578" fill-opacity="1" clip-path="url(#nVWgZkTmpbIh)"/><path fill="rgb(70,255,0)" stroke="none" paint-order="stroke" d="M 355.6043395996094 77.81818389892578 L 357.5443435907364 77.81818389892578 L 357.5443435907364 130.45454788208008 L 355.6043395996094 130.45454788208008 L 355.6043395996094 77.81818389892578" fill-opacity="1" clip-path="url(#nVWgZkTmpbIh)"/><path fill="rgb(66,255,0)" stroke="none" paint-order="stroke" d="M 357.5443420410156 77.81818389892578 L 358.01336804032326 77.81818389892578 L 358.01336804032326 130.45454788208008 L 357.5443420410156 130.45454788208008 L 357.5443420410156 77.81818389892578" fill-opacity="1" clip-path="url(#nVWgZkTmpbIh)"/><path fill="rgb(62,255,0)" stroke="none" paint-order="stroke" d="M 358.01336669921875 77.81818389892578 L 358.5475707054138 77.81818389892578 L 358.5475707054138 130.45454788208008 L 358.01336669921875 130.45454788208008 L 358.01336669921875 77.81818389892578" fill-opacity="1" clip-path="url(#nVWgZkTmpbIh)"/><path fill="rgb(58,255,0)" stroke="none" paint-order="stroke" d="M 358.5475769042969 77.81818389892578 L 359.265812933445 77.81818389892578 L 359.265812933445 130.45454788208008 L 358.5475769042969 130.45454788208008 L 358.5475769042969 77.81818389892578" fill-opacity="1" clip-path="url(#nVWgZkTmpbIh)"/><path fill="rgb(53,255,0)" stroke="none" paint-order="stroke" d="M 359.26580810546875 77.81818389892578 L 410.9161796569824 77.81818389892578 L 410.9161796569824 130.45454788208008 L 359.26580810546875 130.45454788208008 L 359.26580810546875 77.81818389892578" fill-opacity="1" clip-path="url(#nVWgZkTmpbIh)"/><path fill="rgb(251,0,7)" stroke="none" paint-order="stroke" d="M 58.5 130.4545440673828 L 121.38782501220703 130.4545440673828 L 121.38782501220703 183.0909080505371 L 58.5 183.0909080505371 L 58.5 130.4545440673828" fill-opacity="1" clip-path="url(#ofTPnmZEcezL)"/><path fill="rgb(251,0,7)" stroke="none" paint-order="stroke" d="M 121.38782501220703 130.4545440673828 L 348.39513397216797 130.4545440673828 L 348.39513397216797 183.0909080505371 L 121.38782501220703 183.0909080505371 L 121.38782501220703 130.4545440673828" fill-opacity="1" clip-path="url(#ofTPnmZEcezL)"/><path fill="rgb(56,126,34)" stroke="none" paint-order="stroke" d="M 348.3951416015625 130.4545440673828 L 410.9161796569824 130.4545440673828 L 410.9161796569824 183.0909080505371 L 348.3951416015625 183.0909080505371 L 348.3951416015625 130.4545440673828" fill-opacity="1" clip-path="url(#ofTPnmZEcezL)"/><path fill="rgb(105,29,48)" stroke="none" paint-order="stroke" d="M 93.45457458496094 183.09091186523438 L 93.518474586308 183.09091186523438 L 93.518474586308 498.9090881347656 L 93.45457458496094 498.9090881347656 L 93.45457458496094 183.09091186523438" fill-opacity="1" clip-path="url(#BZQihaMiXrgO)"/><path fill="rgb(162,174,187)" stroke="none" paint-order="stroke" d="M 311.25006103515625 183.09091186523438 L 311.3139610365033 183.09091186523438 L 311.3139610365033 498.9090881347656 L 311.25006103515625 498.9090881347656 L 311.25006103515625 183.09091186523438" fill-opacity="1" clip-path="url(#IiaZgUwmwsAa)"/><path fill="rgb(216,17,89)" stroke="none" paint-order="stroke" d="M 84.03443908691406 183.09091186523438 L 84.09833908826113 183.09091186523438 L 84.09833908826113 498.9090881347656 L 84.03443908691406 498.9090881347656 L 84.03443908691406 183.09091186523438" fill-opacity="1" clip-path="url(#fJlTEUzsowoy)"/><path fill="rgb(216,17,89)" stroke="none" paint-order="stroke" d="M 84.03443908691406 183.09091186523438 L 84.09833908826113 183.09091186523438 L 84.09833908826113 498.9090881347656 L 84.03443908691406 498.9090881347656 L 84.03443908691406 183.09091186523438" fill-opacity="1" clip-path="url(#fJlTEUzsowoy)"/><path fill="rgb(33,131,128)" stroke="none" paint-order="stroke" d="M 118.44203186035156 183.09091186523438 L 121.3878219127655 183.09091186523438 L 121.3878219127655 498.9090881347656 L 118.44203186035156 498.9090881347656 L 118.44203186035156 183.09091186523438" fill-opacity="1" clip-path="url(#KCzbfSURPWon)"/><path fill="rgb(33,131,128)" stroke="none" paint-order="stroke" d="M 125.43397521972656 183.09091186523438 L 126.88961720466614 183.09091186523438 L 126.88961720466614 498.9090881347656 L 125.43397521972656 498.9090881347656 L 125.43397521972656 183.09091186523438" fill-opacity="1" clip-path="url(#KCzbfSURPWon)"/><path fill="rgb(33,131,128)" stroke="none" paint-order="stroke" d="M 345.63592529296875 183.09091186523438 L 348.39512729644775 183.09091186523438 L 348.39512729644775 498.9090881347656 L 345.63592529296875 498.9090881347656 L 345.63592529296875 183.09091186523438" fill-opacity="1" clip-path="url(#KCzbfSURPWon)"/><path fill="rgb(115,210,222)" stroke="none" paint-order="stroke" d="M 113.98820495605469 183.09091186523438 L 116.7461290359497 183.09091186523438 L 116.7461290359497 498.9090881347656 L 113.98820495605469 498.9090881347656 L 113.98820495605469 183.09091186523438" fill-opacity="1" clip-path="url(#rdBitZdbJwnZ)"/><path fill="rgb(115,210,222)" stroke="none" paint-order="stroke" d="M 123.100341796875 183.09091186523438 L 124.18408584594727 183.09091186523438 L 124.18408584594727 498.9090881347656 L 123.100341796875 498.9090881347656 L 123.100341796875 183.09091186523438" fill-opacity="1" clip-path="url(#rdBitZdbJwnZ)"/><path fill="rgb(115,210,222)" stroke="none" paint-order="stroke" d="M 333.558837890625 183.09091186523438 L 335.30075192451477 183.09091186523438 L 335.30075192451477 498.9090881347656 L 333.558837890625 498.9090881347656 L 333.558837890625 183.09091186523438" fill-opacity="1" clip-path="url(#rdBitZdbJwnZ)"/><path fill="rgb(115,210,222)" stroke="none" paint-order="stroke" d="M 389.5237121582031 183.09091186523438 L 393.3372640609741 183.09091186523438 L 393.3372640609741 498.9090881347656 L 389.5237121582031 498.9090881347656 L 389.5237121582031 183.09091186523438" fill-opacity="1" clip-path="url(#rdBitZdbJwnZ)"/><path fill="rgb(115,210,222)" stroke="none" paint-order="stroke" d="M 410.0995178222656 183.09091186523438 L 410.9161598086357 183.09091186523438 L 410.9161598086357 498.9090881347656 L 410.0995178222656 498.9090881347656 L 410.0995178222656 183.09091186523438" fill-opacity="1" clip-path="url(#rdBitZdbJwnZ)"/><path fill="rgb(28,49,68)" stroke="none" paint-order="stroke" d="M 128.20978546142578 183.09091186523438 L 129.11077547073364 183.09091186523438 L 129.11077547073364 498.9090881347656 L 128.20978546142578 498.9090881347656 L 128.20978546142578 183.09091186523438" fill-opacity="1" clip-path="url(#EloVmMXqwACr)"/><path fill="rgb(28,49,68)" stroke="none" paint-order="stroke" d="M 273.3867492675781 183.09091186523438 L 274.27368128299713 183.09091186523438 L 274.27368128299713 498.9090881347656 L 273.3867492675781 498.9090881347656 L 273.3867492675781 183.09091186523438" fill-opacity="1" clip-path="url(#EloVmMXqwACr)"/><path fill="rgb(28,49,68)" stroke="none" paint-order="stroke" d="M 292.5439758300781 183.09091186523438 L 300.67077827453613 183.09091186523438 L 300.67077827453613 498.9090881347656 L 292.5439758300781 498.9090881347656 L 292.5439758300781 183.09091186523438" fill-opacity="1" clip-path="url(#EloVmMXqwACr)"/><path fill="rgb(28,49,68)" stroke="none" paint-order="stroke" d="M 324.9732360839844 183.09091186523438 L 327.7209360599518 183.09091186523438 L 327.7209360599518 498.9090881347656 L 324.9732360839844 498.9090881347656 L 324.9732360839844 183.09091186523438" fill-opacity="1" clip-path="url(#EloVmMXqwACr)"/><path fill="rgb(28,49,68)" stroke="none" paint-order="stroke" d="M 372.3972473144531 183.09091186523438 L 378.1827530860901 183.09091186523438 L 378.1827530860901 498.9090881347656 L 372.3972473144531 498.9090881347656 L 372.3972473144531 183.09091186523438" fill-opacity="1" clip-path="url(#EloVmMXqwACr)"/><path fill="rgb(28,49,68)" stroke="none" paint-order="stroke" d="M 405.17156982421875 183.09091186523438 L 406.62593376636505 183.09091186523438 L 406.62593376636505 498.9090881347656 L 405.17156982421875 498.9090881347656 L 405.17156982421875 183.09091186523438" fill-opacity="1" clip-path="url(#EloVmMXqwACr)"/><path fill="rgb(239,185,203)" stroke="none" paint-order="stroke" d="M 60.865577697753906 183.09091186523438 L 75.35682010650635 183.09091186523438 L 75.35682010650635 498.9090881347656 L 60.865577697753906 498.9090881347656 L 60.865577697753906 183.09091186523438" fill-opacity="1" clip-path="url(#tpwzJdpGHsnC)"/><path fill="rgb(239,185,203)" stroke="none" paint-order="stroke" d="M 98.58830261230469 183.09091186523438 L 110.11202907562256 183.09091186523438 L 110.11202907562256 498.9090881347656 L 98.58830261230469 498.9090881347656 L 98.58830261230469 183.09091186523438" fill-opacity="1" clip-path="url(#tpwzJdpGHsnC)"/><path fill="rgb(239,185,203)" stroke="none" paint-order="stroke" d="M 134.4515380859375 183.09091186523438 L 222.87891387939453 183.09091186523438 L 222.87891387939453 498.9090881347656 L 134.4515380859375 498.9090881347656 L 134.4515380859375 183.09091186523438" fill-opacity="1" clip-path="url(#tpwzJdpGHsnC)"/><path fill="rgb(239,185,203)" stroke="none" paint-order="stroke" d="M 226.02407836914062 183.09091186523438 L 249.07919883728027 183.09091186523438 L 249.07919883728027 498.9090881347656 L 226.02407836914062 498.9090881347656 L 226.02407836914062 183.09091186523438" fill-opacity="1" clip-path="url(#tpwzJdpGHsnC)"/><path fill="rgb(105,29,48)" stroke="none" paint-order="stroke" d="M 85.89265441894531 183.09091186523438 L 91.49412822723389 183.09091186523438 L 91.49412822723389 498.9090881347656 L 85.89265441894531 498.9090881347656 L 85.89265441894531 183.09091186523438" fill-opacity="1" clip-path="url(#RKdEPCrtpeXh)"/><path fill="rgb(105,29,48)" stroke="none" paint-order="stroke" d="M 353.62469482421875 183.09091186523438 L 356.1985869407654 183.09091186523438 L 356.1985869407654 498.9090881347656 L 353.62469482421875 498.9090881347656 L 353.62469482421875 183.09091186523438" fill-opacity="1" clip-path="url(#RKdEPCrtpeXh)"/><path fill="rgb(143,45,86)" stroke="none" paint-order="stroke" d="M 58.5 551.5454711914062 L 93.4545783996582 551.5454711914062 L 93.4545783996582 604.1818351745605 L 58.5 604.1818351745605 L 58.5 551.5454711914062" fill-opacity="1" clip-path="url(#KcBFkPotWEwS)"/><path fill="rgb(63,136,197)" stroke="none" paint-order="stroke" d="M 93.45457458496094 551.5454711914062 L 311.25006103515625 551.5454711914062 L 311.25006103515625 604.1818351745605 L 93.45457458496094 604.1818351745605 L 93.45457458496094 551.5454711914062" fill-opacity="1" clip-path="url(#KcBFkPotWEwS)"/><path fill="rgb(81,60,99)" stroke="none" paint-order="stroke" d="M 311.25006103515625 551.5454711914062 L 410.9161682128906 551.5454711914062 L 410.9161682128906 604.1818351745605 L 311.25006103515625 604.1818351745605 L 311.25006103515625 551.5454711914062" fill-opacity="1" clip-path="url(#KcBFkPotWEwS)"/><path fill="none" stroke="rgb(0,0,0)" paint-order="fill" d="M 58.5 77.81818389892578 L 410.9161682128906 77.81818389892578 L 410.9161682128906 604.1818313598633 L 58.5 604.1818313598633 L 58.5 77.81818389892578" stroke-opacity="1" stroke-linejoin="bevel" stroke-miterlimit="10" stroke-dasharray="" clip-path="url(#AuOCmOXbcRUs)"/><path fill="none" stroke="rgb(0,0,0)" paint-order="fill" d="M 58.5 630.5 L 1336.5 630.5" stroke-opacity="1" stroke-linejoin="bevel" stroke-miterlimit="10" stroke-dasharray=""/><path fill="none" stroke="rgb(0,0,0)" paint-order="fill" d="M 58.5 636.5 L 58.5 628.5 M 314.5 636.5 L 314.5 628.5 M 569.5 636.5 L 569.5 628.5 M 825.5 636.5 L 825.5 628.5 M 1080.5 636.5 L 1080.5 628.5 M 1336.5 636.5 L 1336.5 628.5" stroke-opacity="1" stroke-linejoin="bevel" stroke-miterlimit="10" stroke-dasharray=""/><path fill="none" stroke="rgb(0,0,0)" paint-order="fill" d="M 58.5 634.5 L 58.5 630.5 M 109.5 634.5 L 109.5 630.5 M 160.5 634.5 L 160.5 630.5 M 211.5 634.5 L 211.5 630.5 M 262.5 634.5 L 262.5 630.5 M 314.5 634.5 L 314.5 630.5 M 365.5 634.5 L 365.5 630.5 M 416.5 634.5 L 416.5 630.5 M 467.5 634.5 L 467.5 630.5 M 518.5 634.5 L 518.5 630.5 M 569.5 634.5 L 569.5 630.5 M 620.5 634.5 L 620.5 630.5 M 671.5 634.5 L 671.5 630.5 M 723.5 634.5 L 723.5 630.5 M 774.5 634.5 L 774.5 630.5 M 825.5 634.5 L 825.5 630.5 M 876.5 634.5 L 876.5 630.5 M 927.5 634.5 L 927.5 630.5 M 978.5 634.5 L 978.5 630.5 M 1029.5 634.5 L 1029.5 630.5 M 1080.5 634.5 L 1080.5 630.5 M 1132.5 634.5 L 1132.5 630.5 M 1183.5 634.5 L 1183.5 630.5 M 1234.5 634.5 L 1234.5 630.5 M 1285.5 634.5 L 1285.5 630.5 M 1336.5 634.5 L 1336.5 630.5" stroke-opacity="1" stroke-linejoin="bevel" stroke-miterlimit="10" stroke-dasharray=""/><text fill="rgb(68,68,68)" stroke="none" font-family="helvetica" font-size="11px" font-style="normal" font-weight="normal" text-decoration="normal" x="54.94166660308838" y="648.89013671875" text-anchor="start" dominant-baseline="alphabetic" transform="matrix(1, 0, 0, 1, 0.5, 0.5)" fill-opacity="1">0</text><text fill="rgb(68,68,68)" stroke="none" font-family="helvetica" font-size="11px" font-style="normal" font-weight="normal" text-decoration="normal" x="304.42500591278076" y="648.89013671875" text-anchor="start" dominant-baseline="alphabetic" transform="matrix(1, 0, 0, 1, 0.5, 0.5)" fill-opacity="1">200</text><text fill="rgb(68,68,68)" stroke="none" font-family="helvetica" font-size="11px" font-style="normal" font-weight="normal" text-decoration="normal" x="560.0250120162964" y="648.89013671875" text-anchor="start" dominant-baseline="alphabetic" transform="matrix(1, 0, 0, 1, 0.5, 0.5)" fill-opacity="1">400</text><text fill="rgb(68,68,68)" stroke="none" font-family="helvetica" font-size="11px" font-style="normal" font-weight="normal" text-decoration="normal" x="815.6249876022339" y="648.89013671875" text-anchor="start" dominant-baseline="alphabetic" transform="matrix(1, 0, 0, 1, 0.5, 0.5)" fill-opacity="1">600</text><text fill="rgb(68,68,68)" stroke="none" font-family="helvetica" font-size="11px" font-style="normal" font-weight="normal" text-decoration="normal" x="1071.2250242233276" y="648.89013671875" text-anchor="start" dominant-baseline="alphabetic" transform="matrix(1, 0, 0, 1, 0.5, 0.5)" fill-opacity="1">800</text><text fill="rgb(68,68,68)" stroke="none" font-family="helvetica" font-size="11px" font-style="normal" font-weight="normal" text-decoration="normal" x="1323.7666664123535" y="648.89013671875" text-anchor="start" dominant-baseline="alphabetic" transform="matrix(1, 0, 0, 1, 0.5, 0.5)" fill-opacity="1">1000</text><text fill="rgb(68,68,68)" stroke="none" font-family="helvetica" font-size="15pt" font-style="italic" font-weight="normal" text-decoration="normal" x="666.4416675567627" y="676.06982421875" text-anchor="start" dominant-baseline="alphabetic" transform="matrix(1, 0, 0, 1, 0.5, 0.5)" fill-opacity="1">time(s)</text><path fill="none" stroke="rgb(0,0,0)" paint-order="fill" d="M 58.5 630.5 L 58.5 51.5" stroke-opacity="1" stroke-linejoin="bevel" stroke-miterlimit="10" stroke-dasharray=""/><path fill="none" stroke="rgb(0,0,0)" paint-order="fill" d="M 52.5 551.5 L 60.5 551.5 M 52.5 446.5 L 60.5 446.5 M 52.5 341.5 L 60.5 341.5 M 52.5 235.5 L 60.5 235.5 M 52.5 130.5 L 60.5 130.5" stroke-opacity="1" stroke-linejoin="bevel" stroke-miterlimit="10" stroke-dasharray=""/><path fill="none" stroke="rgb(0,0,0)" paint-order="fill" d="M 54.5 572.5 L 58.5 572.5 M 54.5 593.5 L 58.5 593.5 M 54.5 614.5 L 58.5 614.5 M 54.5 551.5 L 58.5 551.5 M 54.5 530.5 L 58.5 530.5 M 54.5 509.5 L 58.5 509.5 M 54.5 488.5 L 58.5 488.5 M 54.5 467.5 L 58.5 467.5 M 54.5 446.5 L 58.5 446.5 M 54.5 425.5 L 58.5 425.5 M 54.5 404.5 L 58.5 404.5 M 54.5 383.5 L 58.5 383.5 M 54.5 362.5 L 58.5 362.5 M 54.5 341.5 L 58.5 341.5 M 54.5 319.5 L 58.5 319.5 M 54.5 298.5 L 58.5 298.5 M 54.5 277.5 L 58.5 277.5 M 54.5 256.5 L 58.5 256.5 M 54.5 235.5 L 58.5 235.5 M 54.5 214.5 L 58.5 214.5 M 54.5 193.5 L 58.5 193.5 M 54.5 172.5 L 58.5 172.5 M 54.5 151.5 L 58.5 151.5 M 54.5 130.5 L 58.5 130.5 M 54.5 109.5 L 58.5 109.5 M 54.5 88.5 L 58.5 88.5 M 54.5 67.5 L 58.5 67.5" stroke-opacity="1" stroke-linejoin="bevel" stroke-miterlimit="10" stroke-dasharray=""/><text fill="rgb(68,68,68)" stroke="none" font-family="helvetica" font-size="11px" font-style="normal" font-weight="normal" text-decoration="normal" x="34.46666622161865" y="554.9905395507812" text-anchor="start" dominant-baseline="alphabetic" transform="matrix(1, 0, 0, 1, 0.5, 0.5)" fill-opacity="1">−2</text><text fill="rgb(68,68,68)" stroke="none" font-family="helvetica" font-size="11px" font-style="normal" font-weight="normal" text-decoration="normal" x="34.46666622161865" y="449.7178039550781" text-anchor="start" dominant-baseline="alphabetic" transform="matrix(1, 0, 0, 1, 0.5, 0.5)" fill-opacity="1">−1</text><text fill="rgb(68,68,68)" stroke="none" font-family="helvetica" font-size="11px" font-style="normal" font-weight="normal" text-decoration="normal" x="40.88333320617676" y="344.445068359375" text-anchor="start" dominant-baseline="alphabetic" transform="matrix(1, 0, 0, 1, 0.5, 0.5)" fill-opacity="1">0</text><text fill="rgb(68,68,68)" stroke="none" font-family="helvetica" font-size="11px" font-style="normal" font-weight="normal" text-decoration="normal" x="40.88333320617676" y="239.17234802246094" text-anchor="start" dominant-baseline="alphabetic" transform="matrix(1, 0, 0, 1, 0.5, 0.5)" fill-opacity="1">1</text><text fill="rgb(68,68,68)" stroke="none" font-family="helvetica" font-size="11px" font-style="normal" font-weight="normal" text-decoration="normal" x="40.88333320617676" y="133.8996124267578" text-anchor="start" dominant-baseline="alphabetic" transform="matrix(1, 0, 0, 1, 0.5, 0.5)" fill-opacity="1">2</text><text fill="rgb(68,68,68)" stroke="none" font-family="helvetica" font-size="15pt" font-style="italic" font-weight="normal" text-decoration="normal" x="-11.316666603088379" y="336.076171875" text-anchor="start" dominant-baseline="alphabetic" transform="matrix(6.123233995736766e-17, -1, 1, 6.123233995736766e-17, -313.53333377838135, 367.46666622161865)" fill-opacity="1">students</text><path fill="rgb(255,255,255)" stroke="rgb(229,229,229)" paint-order="fill" d="M 1128.2333374023438 61.5 L 1326.5 61.5 L 1326.5 400.5 L 1128.2333374023438 400.5 L 1128.2333374023438 61.5" fill-opacity="0.9490196078431372" clip-path="url(#cVCTWebUXBfc)" stroke-opacity="0.5019607843137255" stroke-linejoin="bevel" stroke-miterlimit="10" stroke-dasharray=""/><g clip-path="url(#cVCTWebUXBfc)"><text fill="rgb(68,68,68)" stroke="none" font-family="helvetica" font-size="13px" font-style="normal" font-weight="normal" text-decoration="normal" x="1162.7333374023438" y="81" text-anchor="start" dominant-baseline="central" transform="matrix(1, 0, 0, 1, 0.5, 0.5)" fill-opacity="1">wavelength</text></g><path fill="rgb(0,255,40)" stroke="none" paint-order="stroke" d="M 1140.2333374023438 73.5 L 1156.2333374023438 73.5 L 1156.2333374023438 89.5 L 1140.2333374023438 89.5 L 1140.2333374023438 73.5" fill-opacity="1" clip-path="url(#cVCTWebUXBfc)"/><path fill="rgb(216,17,89)" stroke="none" paint-order="stroke" d="M 1140.2333374023438 73.5 L 1156.2333374023438 73.5 L 1156.2333374023438 89.5 L 1140.2333374023438 89.5 L 1140.2333374023438 73.5" fill-opacity="1" clip-path="url(#cVCTWebUXBfc)"/><g clip-path="url(#cVCTWebUXBfc)"><text fill="rgb(68,68,68)" stroke="none" font-family="helvetica" font-size="13px" font-style="normal" font-weight="normal" text-decoration="normal" x="1162.7333374023438" y="104" text-anchor="start" dominant-baseline="central" transform="matrix(1, 0, 0, 1, 0.5, 0.5)" fill-opacity="1">solution</text></g><path fill="rgb(251,0,7)" stroke="none" paint-order="stroke" d="M 1140.2333374023438 96.5 L 1156.2333374023438 96.5 L 1156.2333374023438 112.5 L 1140.2333374023438 112.5 L 1140.2333374023438 96.5" fill-opacity="1" clip-path="url(#cVCTWebUXBfc)"/><path fill="rgb(33,131,128)" stroke="none" paint-order="stroke" d="M 1140.2333374023438 96.5 L 1156.2333374023438 96.5 L 1156.2333374023438 112.5 L 1140.2333374023438 112.5 L 1140.2333374023438 96.5" fill-opacity="1" clip-path="url(#cVCTWebUXBfc)"/><g clip-path="url(#cVCTWebUXBfc)"><text fill="rgb(68,68,68)" stroke="none" font-family="helvetica" font-size="13px" font-style="normal" font-weight="normal" text-decoration="normal" x="1162.7333374023438" y="127" text-anchor="start" dominant-baseline="central" transform="matrix(1, 0, 0, 1, 0.5, 0.5)" fill-opacity="1">laser</text></g><path fill="rgb(105,29,48)" stroke="none" paint-order="stroke" d="M 1140.2333374023438 119.5 L 1156.2333374023438 119.5 L 1156.2333374023438 135.5 L 1140.2333374023438 135.5 L 1140.2333374023438 119.5" fill-opacity="1" clip-path="url(#cVCTWebUXBfc)"/><g clip-path="url(#cVCTWebUXBfc)"><text fill="rgb(68,68,68)" stroke="none" font-family="helvetica" font-size="13px" font-style="normal" font-weight="normal" text-decoration="normal" x="1162.7333374023438" y="150" text-anchor="start" dominant-baseline="central" transform="matrix(1, 0, 0, 1, 0.5, 0.5)" fill-opacity="1">ruler</text></g><g clip-path="url(#cVCTWebUXBfc)"><text fill="rgb(68,68,68)" stroke="none" font-family="helvetica" font-size="13px" font-style="normal" font-weight="normal" text-decoration="normal" x="1162.7333374023438" y="173" text-anchor="start" dominant-baseline="central" transform="matrix(1, 0, 0, 1, 0.5, 0.5)" fill-opacity="1">restarts</text></g><g clip-path="url(#cVCTWebUXBfc)"><text fill="rgb(68,68,68)" stroke="none" font-family="helvetica" font-size="13px" font-style="normal" font-weight="normal" text-decoration="normal" x="1162.7333374023438" y="196" text-anchor="start" dominant-baseline="central" transform="matrix(1, 0, 0, 1, 0.5, 0.5)" fill-opacity="1">transmittance_absorbance</text></g><path fill="rgb(162,174,187)" stroke="none" paint-order="stroke" d="M 1140.2333374023438 188.5 L 1156.2333374023438 188.5 L 1156.2333374023438 204.5 L 1140.2333374023438 204.5 L 1140.2333374023438 188.5" fill-opacity="1" clip-path="url(#cVCTWebUXBfc)"/><g clip-path="url(#cVCTWebUXBfc)"><text fill="rgb(68,68,68)" stroke="none" font-family="helvetica" font-size="13px" font-style="normal" font-weight="normal" text-decoration="normal" x="1162.7333374023438" y="219" text-anchor="start" dominant-baseline="central" transform="matrix(1, 0, 0, 1, 0.5, 0.5)" fill-opacity="1">magnifier</text></g><g clip-path="url(#cVCTWebUXBfc)"><text fill="rgb(68,68,68)" stroke="none" font-family="helvetica" font-size="13px" font-style="normal" font-weight="normal" text-decoration="normal" x="1162.7333374023438" y="242" text-anchor="start" dominant-baseline="central" transform="matrix(1, 0, 0, 1, 0.5, 0.5)" fill-opacity="1">concentration</text></g><path fill="rgb(115,210,222)" stroke="none" paint-order="stroke" d="M 1140.2333374023438 234.5 L 1156.2333374023438 234.5 L 1156.2333374023438 250.5 L 1140.2333374023438 250.5 L 1140.2333374023438 234.5" fill-opacity="1" clip-path="url(#cVCTWebUXBfc)"/><g clip-path="url(#cVCTWebUXBfc)"><text fill="rgb(68,68,68)" stroke="none" font-family="helvetica" font-size="13px" font-style="normal" font-weight="normal" text-decoration="normal" x="1162.7333374023438" y="265" text-anchor="start" dominant-baseline="central" transform="matrix(1, 0, 0, 1, 0.5, 0.5)" fill-opacity="1">flask</text></g><path fill="rgb(28,49,68)" stroke="none" paint-order="stroke" d="M 1140.2333374023438 257.5 L 1156.2333374023438 257.5 L 1156.2333374023438 273.5 L 1140.2333374023438 273.5 L 1140.2333374023438 257.5" fill-opacity="1" clip-path="url(#cVCTWebUXBfc)"/><g clip-path="url(#cVCTWebUXBfc)"><text fill="rgb(68,68,68)" stroke="none" font-family="helvetica" font-size="13px" font-style="normal" font-weight="normal" text-decoration="normal" x="1162.7333374023438" y="288" text-anchor="start" dominant-baseline="central" transform="matrix(1, 0, 0, 1, 0.5, 0.5)" fill-opacity="1">pdf</text></g><path fill="rgb(239,185,203)" stroke="none" paint-order="stroke" d="M 1140.2333374023438 280.5 L 1156.2333374023438 280.5 L 1156.2333374023438 296.5 L 1140.2333374023438 296.5 L 1140.2333374023438 280.5" fill-opacity="1" clip-path="url(#cVCTWebUXBfc)"/><g clip-path="url(#cVCTWebUXBfc)"><text fill="rgb(68,68,68)" stroke="none" font-family="helvetica" font-size="13px" font-style="normal" font-weight="normal" text-decoration="normal" x="1162.7333374023438" y="311" text-anchor="start" dominant-baseline="central" transform="matrix(1, 0, 0, 1, 0.5, 0.5)" fill-opacity="1">concentrationlab</text></g><g clip-path="url(#cVCTWebUXBfc)"><text fill="rgb(68,68,68)" stroke="none" font-family="helvetica" font-size="13px" font-style="normal" font-weight="normal" text-decoration="normal" x="1162.7333374023438" y="334" text-anchor="start" dominant-baseline="central" transform="matrix(1, 0, 0, 1, 0.5, 0.5)" fill-opacity="1">wavelength_slider</text></g><path fill="rgb(105,29,48)" stroke="none" paint-order="stroke" d="M 1140.2333374023438 326.5 L 1156.2333374023438 326.5 L 1156.2333374023438 342.5 L 1140.2333374023438 342.5 L 1140.2333374023438 326.5" fill-opacity="1" clip-path="url(#cVCTWebUXBfc)"/><g clip-path="url(#cVCTWebUXBfc)"><text fill="rgb(68,68,68)" stroke="none" font-family="helvetica" font-size="13px" font-style="normal" font-weight="normal" text-decoration="normal" x="1162.7333374023438" y="357" text-anchor="start" dominant-baseline="central" transform="matrix(1, 0, 0, 1, 0.5, 0.5)" fill-opacity="1">ruler measuring</text></g><g clip-path="url(#cVCTWebUXBfc)"><text fill="rgb(68,68,68)" stroke="none" font-family="helvetica" font-size="13px" font-style="normal" font-weight="normal" text-decoration="normal" x="1162.7333374023438" y="380" text-anchor="start" dominant-baseline="central" transform="matrix(1, 0, 0, 1, 0.5, 0.5)" fill-opacity="1">dependent variable</text></g><path fill="rgb(143,45,86)" stroke="none" paint-order="stroke" d="M 1140.2333374023438 372.5 L 1156.2333374023438 372.5 L 1156.2333374023438 388.5 L 1140.2333374023438 388.5 L 1140.2333374023438 372.5" fill-opacity="1" clip-path="url(#cVCTWebUXBfc)"/><text fill="rgb(68,68,68)" stroke="none" font-family="helvetica" font-size="25pt" font-style="normal" font-weight="bold" text-decoration="normal" x="58" y="38.740885416666664" text-anchor="start" dominant-baseline="alphabetic" transform="matrix(1, 0, 0, 1, 0.5, 0.5)" fill-opacity="1">Timeline for student 8jp62suc with permutation 2013 for task 2</text></svg>