<svg version="1.1" xmlns="http://www.w3.org/2000/svg" width="1366" height="683"><defs><clipPath id="BlWTrRoQlWic"><path fill="none" stroke="none" d="M 58.5 51.5 L 1336.5 51.5 L 1336.5 630.5 L 58.5 630.5 L 58.5 51.5"/></clipPath><clipPath id="vQISySUONVhS"><path fill="none" stroke="none" d="M 58.5 51.5 L 1336.5 51.5 L 1336.5 630.5 L 58.5 630.5 L 58.5 51.5"/></clipPath><clipPath id="ZEGCeKPoUouz"><path fill="none" stroke="none" d="M 58.5 51.5 L 1336.5 51.5 L 1336.5 630.5 L 58.5 630.5 L 58.5 51.5"/></clipPath><clipPath id="XRSHFrqZhXCy"><path fill="none" stroke="none" d="M 58.5 51.5 L 1336.5 51.5 L 1336.5 630.5 L 58.5 630.5 L 58.5 51.5"/></clipPath><clipPath id="XOBhxAlcMTpG"><path fill="none" stroke="none" d="M 58.5 51.5 L 1336.5 51.5 L 1336.5 630.5 L 58.5 630.5 L 58.5 51.5"/></clipPath><clipPath id="KsTwKJGvFAga"><path fill="none" stroke="none" d="M 58.5 51.5 L 1336.5 51.5 L 1336.5 630.5 L 58.5 630.5 L 58.5 51.5"/></clipPath><clipPath id="AoaXTWFvEoqu"><path fill="none" stroke="none" d="M 58.5 51.5 L 1336.5 51.5 L 1336.5 630.5 L 58.5 630.5 L 58.5 51.5"/></clipPath><clipPath id="phAORtFBSmtq"><path fill="none" stroke="none" d="M 58.5 51.5 L 1336.5 51.5 L 1336.5 630.5 L 58.5 630.5 L 58.5 51.5"/></clipPath><clipPath id="hwpIHvlOnGHo"><path fill="none" stroke="none" d="M 58.5 51.5 L 1336.5 51.5 L 1336.5 630.5 L 58.5 630.5 L 58.5 51.5"/></clipPath><clipPath id="elqZPJMSbfOF"><path fill="none" stroke="none" d="M 58.5 51.5 L 1336.5 51.5 L 1336.5 630.5 L 58.5 630.5 L 58.5 51.5"/></clipPath><clipPath id="ilAisAuVytwR"><path fill="none" stroke="none" d="M 58.5 51.5 L 1336.5 51.5 L 1336.5 630.5 L 58.5 630.5 L 58.5 51.5"/></clipPath><clipPath id="gFIgFcVrgbGz"><path fill="none" stroke="none" d="M 58.5 51.5 L 1336.5 51.5 L 1336.5 630.5 L 58.5 630.5 L 58.5 51.5"/></clipPath><clipPath id="WxMTVwpvWDyS"><path fill="none" stroke="none" d="M 58.5 51.5 L 1336.5 51.5 L 1336.5 630.5 L 58.5 630.5 L 58.5 51.5"/></clipPath><clipPath id="bUMfEkZhdiOT"><path fill="none" stroke="none" d="M 58.5 51.5 L 1336.5 51.5 L 1336.5 630.5 L 58.5 630.5 L 58.5 51.5"/></clipPath><clipPath id="gdNqCmwSvgHP"><path fill="none" stroke="none" d="M 58.5 51.5 L 1336.5 51.5 L 1336.5 630.5 L 58.5 630.5 L 58.5 51.5"/></clipPath><clipPath id="qFZAgesHGyVL"><path fill="none" stroke="none" d="M 58.5 51.5 L 1336.5 51.5 L 1336.5 630.5 L 58.5 630.5 L 58.5 51.5"/></clipPath><clipPath id="NUoWSJlGERiI"><path fill="none" stroke="none" d="M 58.5 51.5 L 1336.5 51.5 L 1336.5 630.5 L 58.5 630.5 L 58.5 51.5"/></clipPath><clipPath id="VPFuIIpqiXEI"><path fill="none" stroke="none" d="M 58.5 51.5 L 1336.5 51.5 L 1336.5 630.5 L 58.5 630.5 L 58.5 51.5"/></clipPath><clipPath id="OxCOXXCpZoLt"><path fill="none" stroke="none" d="M 58.5 51.5 L 1336.5 51.5 L 1336.5 630.5 L 58.5 630.5 L 58.5 51.5"/></clipPath><clipPath id="IHxCacnVtkyA"><path fill="none" stroke="none" d="M 58.5 51.5 L 1336.5 51.5 L 1336.5 630.5 L 58.5 630.5 L 58.5 51.5"/></clipPath><clipPath id="EUerhHozxztz"><path fill="none" stroke="none" d="M 58.5 51.5 L 1336.5 51.5 L 1336.5 630.5 L 58.5 630.5 L 58.5 51.5"/></clipPath></defs><path fill="rgb(255,255,255)" stroke="none" paint-order="stroke" d="M 0.5 0.5 L 1366.5 0.5 L 1366.5 683.5 L 0.5 683.5 L 0.5 0.5" fill-opacity="1"/><rect fill="#FFFFFF" stroke="none" x="58" y="51" width="1278" height="579" transform="matrix(1, 0, 0, 1, 0.5, 0.5)"/><path fill="rgb(255,255,255)" stroke="none" paint-order="stroke" d="M 58.5 51.5 L 1336.5 51.5 L 1336.5 630.5 L 58.5 630.5 L 58.5 51.5" fill-opacity="1"/><path fill="none" stroke="rgb(229,229,229)" paint-order="fill" d="M 58.5 51.5 L 1336.5 51.5 L 1336.5 630.5 L 58.5 630.5 L 58.5 51.5" stroke-opacity="1" stroke-linejoin="bevel" stroke-miterlimit="10" stroke-dasharray=""/><path fill="none" stroke="rgb(229,229,229)" paint-order="fill" d="M 314.5 630.5 L 314.5 51.5 M 569.5 630.5 L 569.5 51.5 M 825.5 630.5 L 825.5 51.5 M 1080.5 630.5 L 1080.5 51.5" stroke-opacity="1" stroke-linejoin="bevel" stroke-miterlimit="10" stroke-dasharray="" clip-path="url(#BlWTrRoQlWic)"/><path fill="none" stroke="rgb(229,229,229)" paint-order="fill" d="M 58.5 551.5 L 1336.5 551.5 M 58.5 446.5 L 1336.5 446.5 M 58.5 341.5 L 1336.5 341.5 M 58.5 235.5 L 1336.5 235.5 M 58.5 130.5 L 1336.5 130.5" stroke-opacity="1" stroke-linejoin="bevel" stroke-miterlimit="10" stroke-dasharray="" clip-path="url(#vQISySUONVhS)"/><path fill="rgb(0,255,40)" stroke="none" paint-order="stroke" d="M 58.5 77.81818389892578 L 117.90655136108398 77.81818389892578 L 117.90655136108398 130.45454788208008 L 58.5 130.45454788208008 L 58.5 77.81818389892578" fill-opacity="1" clip-path="url(#ZEGCeKPoUouz)"/><path fill="rgb(159,255,0)" stroke="none" paint-order="stroke" d="M 117.90655517578125 77.81818389892578 L 121.34820914268494 77.81818389892578 L 121.34820914268494 130.45454788208008 L 117.90655517578125 130.45454788208008 L 117.90655517578125 77.81818389892578" fill-opacity="1" clip-path="url(#ZEGCeKPoUouz)"/><path fill="rgb(110,0,132)" stroke="none" paint-order="stroke" d="M 121.34820556640625 77.81818389892578 L 245.3768310546875 77.81818389892578 L 245.3768310546875 130.45454788208008 L 121.34820556640625 130.45454788208008 L 121.34820556640625 77.81818389892578" fill-opacity="1" clip-path="url(#ZEGCeKPoUouz)"/><path fill="rgb(111,0,137)" stroke="none" paint-order="stroke" d="M 245.3768310546875 77.81818389892578 L 245.4637350514531 77.81818389892578 L 245.4637350514531 130.45454788208008 L 245.3768310546875 130.45454788208008 L 245.3768310546875 77.81818389892578" fill-opacity="1" clip-path="url(#ZEGCeKPoUouz)"/><path fill="rgb(111,0,146)" stroke="none" paint-order="stroke" d="M 245.46372985839844 77.81818389892578 L 245.49056785926223 77.81818389892578 L 245.49056785926223 130.45454788208008 L 245.46372985839844 130.45454788208008 L 245.46372985839844 77.81818389892578" fill-opacity="1" clip-path="url(#ZEGCeKPoUouz)"/><path fill="rgb(111,0,156)" stroke="none" paint-order="stroke" d="M 245.49057006835938 77.81818389892578 L 245.51229606755078 77.81818389892578 L 245.51229606755078 130.45454788208008 L 245.49057006835938 130.45454788208008 L 245.49057006835938 77.81818389892578" fill-opacity="1" clip-path="url(#ZEGCeKPoUouz)"/><path fill="rgb(109,0,164)" stroke="none" paint-order="stroke" d="M 245.51229858398438 77.81818389892578 L 245.53402458317578 77.81818389892578 L 245.53402458317578 130.45454788208008 L 245.51229858398438 130.45454788208008 L 245.51229858398438 77.81818389892578" fill-opacity="1" clip-path="url(#ZEGCeKPoUouz)"/><path fill="rgb(107,0,172)" stroke="none" paint-order="stroke" d="M 245.53402709960938 77.81818389892578 L 245.54680710006505 77.81818389892578 L 245.54680710006505 130.45454788208008 L 245.53402709960938 130.45454788208008 L 245.53402709960938 77.81818389892578" fill-opacity="1" clip-path="url(#ZEGCeKPoUouz)"/><path fill="rgb(97,0,190)" stroke="none" paint-order="stroke" d="M 245.5467987060547 77.81818389892578 L 245.5889727063477 77.81818389892578 L 245.5889727063477 130.45454788208008 L 245.5467987060547 130.45454788208008 L 245.5467987060547 77.81818389892578" fill-opacity="1" clip-path="url(#ZEGCeKPoUouz)"/><path fill="rgb(90,0,201)" stroke="none" paint-order="stroke" d="M 245.58897399902344 77.81818389892578 L 245.63114799931645 77.81818389892578 L 245.63114799931645 130.45454788208008 L 245.58897399902344 130.45454788208008 L 245.58897399902344 77.81818389892578" fill-opacity="1" clip-path="url(#ZEGCeKPoUouz)"/><path fill="rgb(83,0,208)" stroke="none" paint-order="stroke" d="M 245.6311492919922 77.81818389892578 L 246.18707931041718 77.81818389892578 L 246.18707931041718 130.45454788208008 L 245.6311492919922 130.45454788208008 L 245.6311492919922 77.81818389892578" fill-opacity="1" clip-path="url(#ZEGCeKPoUouz)"/><path fill="rgb(72,0,218)" stroke="none" paint-order="stroke" d="M 246.18707275390625 77.81818389892578 L 246.21135475300252 77.81818389892578 L 246.21135475300252 130.45454788208008 L 246.18707275390625 130.45454788208008 L 246.18707275390625 77.81818389892578" fill-opacity="1" clip-path="url(#ZEGCeKPoUouz)"/><path fill="rgb(62,0,226)" stroke="none" paint-order="stroke" d="M 246.21136474609375 77.81818389892578 L 246.33533074706793 77.81818389892578 L 246.33533074706793 130.45454788208008 L 246.21136474609375 130.45454788208008 L 246.21136474609375 77.81818389892578" fill-opacity="1" clip-path="url(#ZEGCeKPoUouz)"/><path fill="rgb(47,0,235)" stroke="none" paint-order="stroke" d="M 246.3353271484375 77.81818389892578 L 246.40050514787436 77.81818389892578 L 246.40050514787436 130.45454788208008 L 246.3353271484375 130.45454788208008 L 246.3353271484375 77.81818389892578" fill-opacity="1" clip-path="url(#ZEGCeKPoUouz)"/><path fill="rgb(33,0,243)" stroke="none" paint-order="stroke" d="M 246.4005126953125 77.81818389892578 L 246.46441269665956 77.81818389892578 L 246.46441269665956 130.45454788208008 L 246.4005126953125 130.45454788208008 L 246.4005126953125 77.81818389892578" fill-opacity="1" clip-path="url(#ZEGCeKPoUouz)"/><path fill="rgb(9,0,252)" stroke="none" paint-order="stroke" d="M 246.4644012451172 77.81818389892578 L 246.59092324972153 77.81818389892578 L 246.59092324972153 130.45454788208008 L 246.4644012451172 130.45454788208008 L 246.4644012451172 77.81818389892578" fill-opacity="1" clip-path="url(#ZEGCeKPoUouz)"/><path fill="rgb(0,19,255)" stroke="none" paint-order="stroke" d="M 246.59092712402344 77.81818389892578 L 246.63310112431645 77.81818389892578 L 246.63310112431645 130.45454788208008 L 246.59092712402344 130.45454788208008 L 246.59092712402344 77.81818389892578" fill-opacity="1" clip-path="url(#ZEGCeKPoUouz)"/><path fill="rgb(0,46,255)" stroke="none" paint-order="stroke" d="M 246.6331024169922 77.81818389892578 L 246.6548284161836 77.81818389892578 L 246.6548284161836 130.45454788208008 L 246.6331024169922 130.45454788208008 L 246.6331024169922 77.81818389892578" fill-opacity="1" clip-path="url(#ZEGCeKPoUouz)"/><path fill="rgb(0,64,255)" stroke="none" paint-order="stroke" d="M 246.6548309326172 77.81818389892578 L 246.67527893185616 77.81818389892578 L 246.67527893185616 130.45454788208008 L 246.6548309326172 130.45454788208008 L 246.6548309326172 77.81818389892578" fill-opacity="1" clip-path="url(#ZEGCeKPoUouz)"/><path fill="rgb(0,86,255)" stroke="none" paint-order="stroke" d="M 246.67527770996094 77.81818389892578 L 246.71745171025395 77.81818389892578 L 246.71745171025395 130.45454788208008 L 246.67527770996094 130.45454788208008 L 246.67527770996094 77.81818389892578" fill-opacity="1" clip-path="url(#ZEGCeKPoUouz)"/><path fill="rgb(0,102,255)" stroke="none" paint-order="stroke" d="M 246.7174530029297 77.81818389892578 L 246.7609050013125 77.81818389892578 L 246.7609050013125 130.45454788208008 L 246.7174530029297 130.45454788208008 L 246.7174530029297 77.81818389892578" fill-opacity="1" clip-path="url(#ZEGCeKPoUouz)"/><path fill="rgb(0,117,255)" stroke="none" paint-order="stroke" d="M 246.76089477539062 77.81818389892578 L 246.7813427746296 77.81818389892578 L 246.7813427746296 130.45454788208008 L 246.76089477539062 130.45454788208008 L 246.76089477539062 77.81818389892578" fill-opacity="1" clip-path="url(#ZEGCeKPoUouz)"/><path fill="rgb(0,137,255)" stroke="none" paint-order="stroke" d="M 246.78135681152344 77.81818389892578 L 246.82608681172132 77.81818389892578 L 246.82608681172132 130.45454788208008 L 246.78135681152344 130.45454788208008 L 246.78135681152344 77.81818389892578" fill-opacity="1" clip-path="url(#ZEGCeKPoUouz)"/><path fill="rgb(0,151,255)" stroke="none" paint-order="stroke" d="M 246.82608032226562 77.81818389892578 L 246.8465283215046 77.81818389892578 L 246.8465283215046 130.45454788208008 L 246.82608032226562 130.45454788208008 L 246.82608032226562 77.81818389892578" fill-opacity="1" clip-path="url(#ZEGCeKPoUouz)"/><path fill="rgb(0,169,255)" stroke="none" paint-order="stroke" d="M 246.84652709960938 77.81818389892578 L 246.91042710095644 77.81818389892578 L 246.91042710095644 130.45454788208008 L 246.84652709960938 130.45454788208008 L 246.84652709960938 77.81818389892578" fill-opacity="1" clip-path="url(#ZEGCeKPoUouz)"/><path fill="rgb(0,200,255)" stroke="none" paint-order="stroke" d="M 246.91043090820312 77.81818389892578 L 246.95388290658593 77.81818389892578 L 246.95388290658593 130.45454788208008 L 246.91043090820312 130.45454788208008 L 246.91043090820312 77.81818389892578" fill-opacity="1" clip-path="url(#ZEGCeKPoUouz)"/><path fill="rgb(0,213,255)" stroke="none" paint-order="stroke" d="M 246.95387268066406 77.81818389892578 L 247.0369426831603 77.81818389892578 L 247.0369426831603 130.45454788208008 L 246.95387268066406 130.45454788208008 L 246.95387268066406 77.81818389892578" fill-opacity="1" clip-path="url(#ZEGCeKPoUouz)"/><path fill="rgb(0,230,255)" stroke="none" paint-order="stroke" d="M 247.03695678710938 77.81818389892578 L 247.08296478539705 77.81818389892578 L 247.08296478539705 130.45454788208008 L 247.03695678710938 130.45454788208008 L 247.03695678710938 77.81818389892578" fill-opacity="1" clip-path="url(#ZEGCeKPoUouz)"/><path fill="rgb(0,242,255)" stroke="none" paint-order="stroke" d="M 247.0829620361328 77.81818389892578 L 247.1008540354669 77.81818389892578 L 247.1008540354669 130.45454788208008 L 247.0829620361328 130.45454788208008 L 247.0829620361328 77.81818389892578" fill-opacity="1" clip-path="url(#ZEGCeKPoUouz)"/><path fill="rgb(0,255,213)" stroke="none" paint-order="stroke" d="M 247.10084533691406 77.81818389892578 L 247.14301933720708 77.81818389892578 L 247.14301933720708 130.45454788208008 L 247.10084533691406 130.45454788208008 L 247.10084533691406 77.81818389892578" fill-opacity="1" clip-path="url(#ZEGCeKPoUouz)"/><path fill="rgb(0,255,169)" stroke="none" paint-order="stroke" d="M 247.1430206298828 77.81818389892578 L 247.1877506300807 77.81818389892578 L 247.1877506300807 130.45454788208008 L 247.1430206298828 130.45454788208008 L 247.1430206298828 77.81818389892578" fill-opacity="1" clip-path="url(#ZEGCeKPoUouz)"/><path fill="rgb(0,255,134)" stroke="none" paint-order="stroke" d="M 247.18775939941406 77.81818389892578 L 247.21459740027785 77.81818389892578 L 247.21459740027785 130.45454788208008 L 247.18775939941406 130.45454788208008 L 247.18775939941406 77.81818389892578" fill-opacity="1" clip-path="url(#ZEGCeKPoUouz)"/><path fill="rgb(0,255,40)" stroke="none" paint-order="stroke" d="M 247.214599609375 77.81818389892578 L 247.2938356101513 77.81818389892578 L 247.2938356101513 130.45454788208008 L 247.214599609375 130.45454788208008 L 247.214599609375 77.81818389892578" fill-opacity="1" clip-path="url(#ZEGCeKPoUouz)"/><path fill="rgb(8,255,0)" stroke="none" paint-order="stroke" d="M 247.2938232421875 77.81818389892578 L 247.3449432440102 77.81818389892578 L 247.3449432440102 130.45454788208008 L 247.2938232421875 130.45454788208008 L 247.2938232421875 77.81818389892578" fill-opacity="1" clip-path="url(#ZEGCeKPoUouz)"/><path fill="rgb(30,255,0)" stroke="none" paint-order="stroke" d="M 247.34495544433594 77.81818389892578 L 247.38073944300413 77.81818389892578 L 247.38073944300413 130.45454788208008 L 247.34495544433594 130.45454788208008 L 247.34495544433594 77.81818389892578" fill-opacity="1" clip-path="url(#ZEGCeKPoUouz)"/><path fill="rgb(62,255,0)" stroke="none" paint-order="stroke" d="M 247.3807373046875 77.81818389892578 L 247.4676413014531 77.81818389892578 L 247.4676413014531 130.45454788208008 L 247.3807373046875 130.45454788208008 L 247.3807373046875 77.81818389892578" fill-opacity="1" clip-path="url(#ZEGCeKPoUouz)"/><path fill="rgb(74,255,0)" stroke="none" paint-order="stroke" d="M 247.46763610839844 77.81818389892578 L 247.5059761069715 77.81818389892578 L 247.5059761069715 130.45454788208008 L 247.46763610839844 130.45454788208008 L 247.46763610839844 77.81818389892578" fill-opacity="1" clip-path="url(#ZEGCeKPoUouz)"/><path fill="rgb(89,255,0)" stroke="none" paint-order="stroke" d="M 247.5059814453125 77.81818389892578 L 247.59160744398832 77.81818389892578 L 247.59160744398832 130.45454788208008 L 247.5059814453125 130.45454788208008 L 247.5059814453125 77.81818389892578" fill-opacity="1" clip-path="url(#ZEGCeKPoUouz)"/><path fill="rgb(101,255,0)" stroke="none" paint-order="stroke" d="M 247.5915985107422 77.81818389892578 L 247.6337725110352 77.81818389892578 L 247.6337725110352 130.45454788208008 L 247.5915985107422 130.45454788208008 L 247.5915985107422 77.81818389892578" fill-opacity="1" clip-path="url(#ZEGCeKPoUouz)"/><path fill="rgb(115,255,0)" stroke="none" paint-order="stroke" d="M 247.63377380371094 77.81818389892578 L 247.67722580209374 77.81818389892578 L 247.67722580209374 130.45454788208008 L 247.63377380371094 130.45454788208008 L 247.63377380371094 77.81818389892578" fill-opacity="1" clip-path="url(#ZEGCeKPoUouz)"/><path fill="rgb(126,255,0)" stroke="none" paint-order="stroke" d="M 247.67723083496094 77.81818389892578 L 247.78841683268547 77.81818389892578 L 247.78841683268547 130.45454788208008 L 247.67723083496094 130.45454788208008 L 247.67723083496094 77.81818389892578" fill-opacity="1" clip-path="url(#ZEGCeKPoUouz)"/><path fill="rgb(139,255,0)" stroke="none" paint-order="stroke" d="M 247.7884063720703 77.81818389892578 L 258.97601795196533 77.81818389892578 L 258.97601795196533 130.45454788208008 L 247.7884063720703 130.45454788208008 L 247.7884063720703 77.81818389892578" fill-opacity="1" clip-path="url(#ZEGCeKPoUouz)"/><path fill="rgb(126,255,0)" stroke="none" paint-order="stroke" d="M 258.97601318359375 77.81818389892578 L 259.0092411823571 77.81818389892578 L 259.0092411823571 130.45454788208008 L 258.97601318359375 130.45454788208008 L 258.97601318359375 77.81818389892578" fill-opacity="1" clip-path="url(#ZEGCeKPoUouz)"/><path fill="rgb(101,255,0)" stroke="none" paint-order="stroke" d="M 259.0092468261719 77.81818389892578 L 259.16771882772446 77.81818389892578 L 259.16771882772446 130.45454788208008 L 259.0092468261719 130.45454788208008 L 259.0092468261719 77.81818389892578" fill-opacity="1" clip-path="url(#ZEGCeKPoUouz)"/><path fill="rgb(86,255,0)" stroke="none" paint-order="stroke" d="M 259.167724609375 77.81818389892578 L 259.19328461028636 77.81818389892578 L 259.19328461028636 130.45454788208008 L 259.167724609375 130.45454788208008 L 259.167724609375 77.81818389892578" fill-opacity="1" clip-path="url(#ZEGCeKPoUouz)"/><path fill="rgb(74,255,0)" stroke="none" paint-order="stroke" d="M 259.19329833984375 77.81818389892578 L 259.21758033894 77.81818389892578 L 259.21758033894 130.45454788208008 L 259.19329833984375 130.45454788208008 L 259.19329833984375 77.81818389892578" fill-opacity="1" clip-path="url(#ZEGCeKPoUouz)"/><path fill="rgb(58,255,0)" stroke="none" paint-order="stroke" d="M 259.2175598144531 77.81818389892578 L 259.2354518137872 77.81818389892578 L 259.2354518137872 130.45454788208008 L 259.2175598144531 130.45454788208008 L 259.2175598144531 77.81818389892578" fill-opacity="1" clip-path="url(#ZEGCeKPoUouz)"/><path fill="rgb(44,255,0)" stroke="none" paint-order="stroke" d="M 259.2354736328125 77.81818389892578 L 259.2725356332958 77.81818389892578 L 259.2725356332958 130.45454788208008 L 259.2354736328125 130.45454788208008 L 259.2354736328125 77.81818389892578" fill-opacity="1" clip-path="url(#ZEGCeKPoUouz)"/><path fill="rgb(25,255,0)" stroke="none" paint-order="stroke" d="M 259.27252197265625 77.81818389892578 L 261.44767808914185 77.81818389892578 L 261.44767808914185 130.45454788208008 L 259.27252197265625 130.45454788208008 L 259.27252197265625 77.81818389892578" fill-opacity="1" clip-path="url(#ZEGCeKPoUouz)"/><path fill="rgb(44,255,0)" stroke="none" paint-order="stroke" d="M 261.44769287109375 77.81818389892578 L 262.960844874382 77.81818389892578 L 262.960844874382 130.45454788208008 L 261.44769287109375 130.45454788208008 L 261.44769287109375 77.81818389892578" fill-opacity="1" clip-path="url(#ZEGCeKPoUouz)"/><path fill="rgb(58,255,0)" stroke="none" paint-order="stroke" d="M 262.9608154296875 77.81818389892578 L 274.04107570648193 77.81818389892578 L 274.04107570648193 130.45454788208008 L 262.9608154296875 130.45454788208008 L 262.9608154296875 77.81818389892578" fill-opacity="1" clip-path="url(#ZEGCeKPoUouz)"/><path fill="rgb(159,255,0)" stroke="none" paint-order="stroke" d="M 274.04107666015625 77.81818389892578 L 371.25342559814453 77.81818389892578 L 371.25342559814453 130.45454788208008 L 274.04107666015625 130.45454788208008 L 274.04107666015625 77.81818389892578" fill-opacity="1" clip-path="url(#ZEGCeKPoUouz)"/><path fill="rgb(110,0,132)" stroke="none" paint-order="stroke" d="M 371.2534484863281 77.81818389892578 L 378.589168548584 77.81818389892578 L 378.589168548584 130.45454788208008 L 371.2534484863281 130.45454788208008 L 371.2534484863281 77.81818389892578" fill-opacity="1" clip-path="url(#ZEGCeKPoUouz)"/><path fill="rgb(159,255,0)" stroke="none" paint-order="stroke" d="M 378.58917236328125 77.81818389892578 L 480.22595977783203 77.81818389892578 L 480.22595977783203 130.45454788208008 L 378.58917236328125 130.45454788208008 L 378.58917236328125 77.81818389892578" fill-opacity="1" clip-path="url(#ZEGCeKPoUouz)"/><path fill="rgb(143,255,0)" stroke="none" paint-order="stroke" d="M 480.2259521484375 77.81818389892578 L 480.26684814691544 77.81818389892578 L 480.26684814691544 130.45454788208008 L 480.2259521484375 130.45454788208008 L 480.2259521484375 77.81818389892578" fill-opacity="1" clip-path="url(#ZEGCeKPoUouz)"/><path fill="rgb(132,255,0)" stroke="none" paint-order="stroke" d="M 480.266845703125 77.81818389892578 L 480.30518570169806 77.81818389892578 L 480.30518570169806 130.45454788208008 L 480.266845703125 130.45454788208008 L 480.266845703125 77.81818389892578" fill-opacity="1" clip-path="url(#ZEGCeKPoUouz)"/><path fill="rgb(119,255,0)" stroke="none" paint-order="stroke" d="M 480.30517578125 77.81818389892578 L 480.4547017812729 77.81818389892578 L 480.4547017812729 130.45454788208008 L 480.30517578125 130.45454788208008 L 480.30517578125 77.81818389892578" fill-opacity="1" clip-path="url(#ZEGCeKPoUouz)"/><path fill="rgb(108,255,0)" stroke="none" paint-order="stroke" d="M 480.4547119140625 77.81818389892578 L 480.4994419142604 77.81818389892578 L 480.4994419142604 130.45454788208008 L 480.4547119140625 130.45454788208008 L 480.4547119140625 77.81818389892578" fill-opacity="1" clip-path="url(#ZEGCeKPoUouz)"/><path fill="rgb(93,255,0)" stroke="none" paint-order="stroke" d="M 480.4994201660156 77.81818389892578 L 481.1371421813965 77.81818389892578 L 481.1371421813965 130.45454788208008 L 480.4994201660156 130.45454788208008 L 480.4994201660156 77.81818389892578" fill-opacity="1" clip-path="url(#ZEGCeKPoUouz)"/><path fill="rgb(82,255,0)" stroke="none" paint-order="stroke" d="M 481.13714599609375 77.81818389892578 L 481.2227719947696 77.81818389892578 L 481.2227719947696 130.45454788208008 L 481.13714599609375 130.45454788208008 L 481.13714599609375 77.81818389892578" fill-opacity="1" clip-path="url(#ZEGCeKPoUouz)"/><path fill="rgb(66,255,0)" stroke="none" paint-order="stroke" d="M 481.2227783203125 77.81818389892578 L 488.09458446502686 77.81818389892578 L 488.09458446502686 130.45454788208008 L 481.2227783203125 130.45454788208008 L 481.2227783203125 77.81818389892578" fill-opacity="1" clip-path="url(#ZEGCeKPoUouz)"/><path fill="rgb(0,255,40)" stroke="none" paint-order="stroke" d="M 488.0945739746094 77.81818389892578 L 499.3984842300415 77.81818389892578 L 499.3984842300415 130.45454788208008 L 488.0945739746094 130.45454788208008 L 488.0945739746094 77.81818389892578" fill-opacity="1" clip-path="url(#ZEGCeKPoUouz)"/><path fill="rgb(159,255,0)" stroke="none" paint-order="stroke" d="M 499.39849853515625 77.81818389892578 L 508.83013820648193 77.81818389892578 L 508.83013820648193 130.45454788208008 L 499.39849853515625 130.45454788208008 L 499.39849853515625 77.81818389892578" fill-opacity="1" clip-path="url(#ZEGCeKPoUouz)"/><path fill="rgb(110,0,132)" stroke="none" paint-order="stroke" d="M 508.83013916015625 77.81818389892578 L 515.9115371704102 77.81818389892578 L 515.9115371704102 130.45454788208008 L 508.83013916015625 130.45454788208008 L 508.83013916015625 77.81818389892578" fill-opacity="1" clip-path="url(#ZEGCeKPoUouz)"/><path fill="rgb(159,255,0)" stroke="none" paint-order="stroke" d="M 515.9115600585938 77.81818389892578 L 540.1795024871826 77.81818389892578 L 540.1795024871826 130.45454788208008 L 515.9115600585938 130.45454788208008 L 515.9115600585938 77.81818389892578" fill-opacity="1" clip-path="url(#ZEGCeKPoUouz)"/><path fill="rgb(143,255,0)" stroke="none" paint-order="stroke" d="M 540.1795043945312 77.81818389892578 L 540.2088983952999 77.81818389892578 L 540.2088983952999 130.45454788208008 L 540.1795043945312 130.45454788208008 L 540.1795043945312 77.81818389892578" fill-opacity="1" clip-path="url(#ZEGCeKPoUouz)"/><path fill="rgb(119,255,0)" stroke="none" paint-order="stroke" d="M 540.2088623046875 77.81818389892578 L 540.2357003055513 77.81818389892578 L 540.2357003055513 130.45454788208008 L 540.2088623046875 130.45454788208008 L 540.2088623046875 77.81818389892578" fill-opacity="1" clip-path="url(#ZEGCeKPoUouz)"/><path fill="rgb(108,255,0)" stroke="none" paint-order="stroke" d="M 540.2357177734375 77.81818389892578 L 540.2472197730094 77.81818389892578 L 540.2472197730094 130.45454788208008 L 540.2357177734375 130.45454788208008 L 540.2357177734375 77.81818389892578" fill-opacity="1" clip-path="url(#ZEGCeKPoUouz)"/><path fill="rgb(93,255,0)" stroke="none" paint-order="stroke" d="M 540.2471923828125 77.81818389892578 L 540.2880883812904 77.81818389892578 L 540.2880883812904 130.45454788208008 L 540.2471923828125 130.45454788208008 L 540.2471923828125 77.81818389892578" fill-opacity="1" clip-path="url(#ZEGCeKPoUouz)"/><path fill="rgb(66,255,0)" stroke="none" paint-order="stroke" d="M 540.2880859375 77.81818389892578 L 540.3289819359779 77.81818389892578 L 540.3289819359779 130.45454788208008 L 540.2880859375 130.45454788208008 L 540.2880859375 77.81818389892578" fill-opacity="1" clip-path="url(#ZEGCeKPoUouz)"/><path fill="rgb(53,255,0)" stroke="none" paint-order="stroke" d="M 540.3289794921875 77.81818389892578 L 540.3916014954448 77.81818389892578 L 540.3916014954448 130.45454788208008 L 540.3289794921875 130.45454788208008 L 540.3289794921875 77.81818389892578" fill-opacity="1" clip-path="url(#ZEGCeKPoUouz)"/><path fill="rgb(35,255,0)" stroke="none" paint-order="stroke" d="M 540.3916015625 77.81818389892578 L 541.3718275427818 77.81818389892578 L 541.3718275427818 130.45454788208008 L 540.3916015625 130.45454788208008 L 540.3916015625 77.81818389892578" fill-opacity="1" clip-path="url(#ZEGCeKPoUouz)"/><path fill="rgb(53,255,0)" stroke="none" paint-order="stroke" d="M 541.371826171875 77.81818389892578 L 666.2170867919922 77.81818389892578 L 666.2170867919922 130.45454788208008 L 541.371826171875 130.45454788208008 L 541.371826171875 77.81818389892578" fill-opacity="1" clip-path="url(#ZEGCeKPoUouz)"/><path fill="rgb(42,0,238)" stroke="none" paint-order="stroke" d="M 666.2171020507812 77.81818389892578 L 790.308349609375 77.81818389892578 L 790.308349609375 130.45454788208008 L 666.2171020507812 130.45454788208008 L 666.2171020507812 77.81818389892578" fill-opacity="1" clip-path="url(#ZEGCeKPoUouz)"/><path fill="rgb(0,11,255)" stroke="none" paint-order="stroke" d="M 790.308349609375 77.81818389892578 L 790.3454116098583 77.81818389892578 L 790.3454116098583 130.45454788208008 L 790.308349609375 130.45454788208008 L 790.308349609375 77.81818389892578" fill-opacity="1" clip-path="url(#ZEGCeKPoUouz)"/><path fill="rgb(0,112,255)" stroke="none" paint-order="stroke" d="M 790.3453979492188 77.81818389892578 L 790.3645679485053 77.81818389892578 L 790.3645679485053 130.45454788208008 L 790.3453979492188 130.45454788208008 L 790.3453979492188 77.81818389892578" fill-opacity="1" clip-path="url(#ZEGCeKPoUouz)"/><path fill="rgb(0,146,255)" stroke="none" paint-order="stroke" d="M 790.3645629882812 77.81818389892578 L 790.3901229891926 77.81818389892578 L 790.3901229891926 130.45454788208008 L 790.3645629882812 130.45454788208008 L 790.3645629882812 77.81818389892578" fill-opacity="1" clip-path="url(#ZEGCeKPoUouz)"/><path fill="rgb(0,160,255)" stroke="none" paint-order="stroke" d="M 790.39013671875 77.81818389892578 L 790.4144187178463 77.81818389892578 L 790.4144187178463 130.45454788208008 L 790.39013671875 130.45454788208008 L 790.39013671875 77.81818389892578" fill-opacity="1" clip-path="url(#ZEGCeKPoUouz)"/><path fill="rgb(0,178,255)" stroke="none" paint-order="stroke" d="M 790.4144287109375 77.81818389892578 L 790.4361547101289 77.81818389892578 L 790.4361547101289 130.45454788208008 L 790.4144287109375 130.45454788208008 L 790.4144287109375 77.81818389892578" fill-opacity="1" clip-path="url(#ZEGCeKPoUouz)"/><path fill="rgb(0,191,255)" stroke="none" paint-order="stroke" d="M 790.4361572265625 77.81818389892578 L 790.4566052258015 77.81818389892578 L 790.4566052258015 130.45454788208008 L 790.4361572265625 130.45454788208008 L 790.4361572265625 77.81818389892578" fill-opacity="1" clip-path="url(#ZEGCeKPoUouz)"/><path fill="rgb(0,209,255)" stroke="none" paint-order="stroke" d="M 790.4566040039062 77.81818389892578 L 790.4796080030501 77.81818389892578 L 790.4796080030501 130.45454788208008 L 790.4566040039062 130.45454788208008 L 790.4566040039062 77.81818389892578" fill-opacity="1" clip-path="url(#ZEGCeKPoUouz)"/><path fill="rgb(0,221,255)" stroke="none" paint-order="stroke" d="M 790.4796142578125 77.81818389892578 L 790.4975062571466 77.81818389892578 L 790.4975062571466 130.45454788208008 L 790.4796142578125 130.45454788208008 L 790.4796142578125 77.81818389892578" fill-opacity="1" clip-path="url(#ZEGCeKPoUouz)"/><path fill="rgb(0,238,255)" stroke="none" paint-order="stroke" d="M 790.4974975585938 77.81818389892578 L 790.5192235577852 77.81818389892578 L 790.5192235577852 130.45454788208008 L 790.4974975585938 130.45454788208008 L 790.4974975585938 77.81818389892578" fill-opacity="1" clip-path="url(#ZEGCeKPoUouz)"/><path fill="rgb(0,255,223)" stroke="none" paint-order="stroke" d="M 790.5192260742188 77.81818389892578 L 790.5614000745118 77.81818389892578 L 790.5614000745118 130.45454788208008 L 790.5192260742188 130.45454788208008 L 790.5192260742188 77.81818389892578" fill-opacity="1" clip-path="url(#ZEGCeKPoUouz)"/><path fill="rgb(0,255,191)" stroke="none" paint-order="stroke" d="M 790.5614013671875 77.81818389892578 L 790.5818493664265 77.81818389892578 L 790.5818493664265 130.45454788208008 L 790.5614013671875 130.45454788208008 L 790.5614013671875 77.81818389892578" fill-opacity="1" clip-path="url(#ZEGCeKPoUouz)"/><path fill="rgb(0,255,158)" stroke="none" paint-order="stroke" d="M 790.5818481445312 77.81818389892578 L 790.6904781460762 77.81818389892578 L 790.6904781460762 130.45454788208008 L 790.5818481445312 130.45454788208008 L 790.5818481445312 77.81818389892578" fill-opacity="1" clip-path="url(#ZEGCeKPoUouz)"/><path fill="rgb(0,255,110)" stroke="none" paint-order="stroke" d="M 790.6904907226562 77.81818389892578 L 790.7160507235676 77.81818389892578 L 790.7160507235676 130.45454788208008 L 790.6904907226562 130.45454788208008 L 790.6904907226562 77.81818389892578" fill-opacity="1" clip-path="url(#ZEGCeKPoUouz)"/><path fill="rgb(0,255,70)" stroke="none" paint-order="stroke" d="M 790.716064453125 77.81818389892578 L 790.82086045295 77.81818389892578 L 790.82086045295 130.45454788208008 L 790.716064453125 130.45454788208008 L 790.716064453125 77.81818389892578" fill-opacity="1" clip-path="url(#ZEGCeKPoUouz)"/><path fill="rgb(0,255,0)" stroke="none" paint-order="stroke" d="M 790.8208618164062 77.81818389892578 L 790.9448278173804 77.81818389892578 L 790.9448278173804 130.45454788208008 L 790.8208618164062 130.45454788208008 L 790.8208618164062 77.81818389892578" fill-opacity="1" clip-path="url(#ZEGCeKPoUouz)"/><path fill="rgb(20,255,0)" stroke="none" paint-order="stroke" d="M 790.94482421875 77.81818389892578 L 791.0100022181869 77.81818389892578 L 791.0100022181869 130.45454788208008 L 790.94482421875 130.45454788208008 L 790.94482421875 77.81818389892578" fill-opacity="1" clip-path="url(#ZEGCeKPoUouz)"/><path fill="rgb(40,255,0)" stroke="none" paint-order="stroke" d="M 791.010009765625 77.81818389892578 L 791.0330137647688 77.81818389892578 L 791.0330137647688 130.45454788208008 L 791.010009765625 130.45454788208008 L 791.010009765625 77.81818389892578" fill-opacity="1" clip-path="url(#ZEGCeKPoUouz)"/><path fill="rgb(53,255,0)" stroke="none" paint-order="stroke" d="M 791.032958984375 77.81818389892578 L 791.0572409834713 77.81818389892578 L 791.0572409834713 130.45454788208008 L 791.032958984375 130.45454788208008 L 791.032958984375 77.81818389892578" fill-opacity="1" clip-path="url(#ZEGCeKPoUouz)"/><path fill="rgb(70,255,0)" stroke="none" paint-order="stroke" d="M 791.0572509765625 77.81818389892578 L 791.1377649754286 77.81818389892578 L 791.1377649754286 130.45454788208008 L 791.0572509765625 130.45454788208008 L 791.0572509765625 77.81818389892578" fill-opacity="1" clip-path="url(#ZEGCeKPoUouz)"/><path fill="rgb(82,255,0)" stroke="none" paint-order="stroke" d="M 791.1377563476562 77.81818389892578 L 791.1799303479493 77.81818389892578 L 791.1799303479493 130.45454788208008 L 791.1377563476562 130.45454788208008 L 791.1377563476562 77.81818389892578" fill-opacity="1" clip-path="url(#ZEGCeKPoUouz)"/><path fill="rgb(97,255,0)" stroke="none" paint-order="stroke" d="M 791.179931640625 77.81818389892578 L 791.2438316419721 77.81818389892578 L 791.2438316419721 130.45454788208008 L 791.179931640625 130.45454788208008 L 791.179931640625 77.81818389892578" fill-opacity="1" clip-path="url(#ZEGCeKPoUouz)"/><path fill="rgb(108,255,0)" stroke="none" paint-order="stroke" d="M 791.2438354492188 77.81818389892578 L 791.2860094495118 77.81818389892578 L 791.2860094495118 130.45454788208008 L 791.2438354492188 130.45454788208008 L 791.2438354492188 77.81818389892578" fill-opacity="1" clip-path="url(#ZEGCeKPoUouz)"/><path fill="rgb(122,255,0)" stroke="none" paint-order="stroke" d="M 791.2860107421875 77.81818389892578 L 791.3077367413789 77.81818389892578 L 791.3077367413789 130.45454788208008 L 791.2860107421875 130.45454788208008 L 791.2860107421875 77.81818389892578" fill-opacity="1" clip-path="url(#ZEGCeKPoUouz)"/><path fill="rgb(132,255,0)" stroke="none" paint-order="stroke" d="M 791.3077392578125 77.81818389892578 L 791.7358692586422 77.81818389892578 L 791.7358692586422 130.45454788208008 L 791.3077392578125 130.45454788208008 L 791.3077392578125 77.81818389892578" fill-opacity="1" clip-path="url(#ZEGCeKPoUouz)"/><path fill="rgb(146,255,0)" stroke="none" paint-order="stroke" d="M 791.7359008789062 77.81818389892578 L 791.7652948796749 77.81818389892578 L 791.7652948796749 130.45454788208008 L 791.7359008789062 130.45454788208008 L 791.7359008789062 77.81818389892578" fill-opacity="1" clip-path="url(#ZEGCeKPoUouz)"/><path fill="rgb(156,255,0)" stroke="none" paint-order="stroke" d="M 791.7652587890625 77.81818389892578 L 791.8035987876356 77.81818389892578 L 791.8035987876356 130.45454788208008 L 791.7652587890625 130.45454788208008 L 791.7652587890625 77.81818389892578" fill-opacity="1" clip-path="url(#ZEGCeKPoUouz)"/><path fill="rgb(188,255,0)" stroke="none" paint-order="stroke" d="M 791.8036499023438 77.81818389892578 L 791.9467858970165 77.81818389892578 L 791.9467858970165 130.45454788208008 L 791.8036499023438 130.45454788208008 L 791.8036499023438 77.81818389892578" fill-opacity="1" clip-path="url(#ZEGCeKPoUouz)"/><path fill="rgb(179,255,0)" stroke="none" paint-order="stroke" d="M 791.94677734375 77.81818389892578 L 791.9685033429414 77.81818389892578 L 791.9685033429414 130.45454788208008 L 791.94677734375 130.45454788208008 L 791.94677734375 77.81818389892578" fill-opacity="1" clip-path="url(#ZEGCeKPoUouz)"/><path fill="rgb(166,255,0)" stroke="none" paint-order="stroke" d="M 791.968505859375 77.81818389892578 L 791.9902318585664 77.81818389892578 L 791.9902318585664 130.45454788208008 L 791.968505859375 130.45454788208008 L 791.968505859375 77.81818389892578" fill-opacity="1" clip-path="url(#ZEGCeKPoUouz)"/><path fill="rgb(156,255,0)" stroke="none" paint-order="stroke" d="M 791.990234375 77.81818389892578 L 792.0119603741914 77.81818389892578 L 792.0119603741914 130.45454788208008 L 791.990234375 130.45454788208008 L 791.990234375 77.81818389892578" fill-opacity="1" clip-path="url(#ZEGCeKPoUouz)"/><path fill="rgb(82,255,0)" stroke="none" paint-order="stroke" d="M 792.011962890625 77.81818389892578 L 792.0349668897688 77.81818389892578 L 792.0349668897688 130.45454788208008 L 792.011962890625 130.45454788208008 L 792.011962890625 77.81818389892578" fill-opacity="1" clip-path="url(#ZEGCeKPoUouz)"/><path fill="rgb(20,255,0)" stroke="none" paint-order="stroke" d="M 792.034912109375 77.81818389892578 L 792.0528041087091 77.81818389892578 L 792.0528041087091 130.45454788208008 L 792.034912109375 130.45454788208008 L 792.034912109375 77.81818389892578" fill-opacity="1" clip-path="url(#ZEGCeKPoUouz)"/><path fill="rgb(0,255,223)" stroke="none" paint-order="stroke" d="M 792.0528564453125 77.81818389892578 L 792.0733044445515 77.81818389892578 L 792.0733044445515 130.45454788208008 L 792.0528564453125 130.45454788208008 L 792.0528564453125 77.81818389892578" fill-opacity="1" clip-path="url(#ZEGCeKPoUouz)"/><path fill="rgb(0,221,255)" stroke="none" paint-order="stroke" d="M 792.0733032226562 77.81818389892578 L 792.0963072218001 77.81818389892578 L 792.0963072218001 130.45454788208008 L 792.0733032226562 130.45454788208008 L 792.0733032226562 77.81818389892578" fill-opacity="1" clip-path="url(#ZEGCeKPoUouz)"/><path fill="rgb(0,160,255)" stroke="none" paint-order="stroke" d="M 792.0962524414062 77.81818389892578 L 792.1167004406452 77.81818389892578 L 792.1167004406452 130.45454788208008 L 792.0962524414062 130.45454788208008 L 792.0962524414062 77.81818389892578" fill-opacity="1" clip-path="url(#ZEGCeKPoUouz)"/><path fill="rgb(0,112,255)" stroke="none" paint-order="stroke" d="M 792.1167602539062 77.81818389892578 L 792.1384862530977 77.81818389892578 L 792.1384862530977 130.45454788208008 L 792.1167602539062 130.45454788208008 L 792.1167602539062 77.81818389892578" fill-opacity="1" clip-path="url(#ZEGCeKPoUouz)"/><path fill="rgb(0,75,255)" stroke="none" paint-order="stroke" d="M 792.138427734375 77.81818389892578 L 792.1601537335664 77.81818389892578 L 792.1601537335664 130.45454788208008 L 792.138427734375 130.45454788208008 L 792.138427734375 77.81818389892578" fill-opacity="1" clip-path="url(#ZEGCeKPoUouz)"/><path fill="rgb(0,52,255)" stroke="none" paint-order="stroke" d="M 792.16015625 77.81818389892578 L 792.180604249239 77.81818389892578 L 792.180604249239 130.45454788208008 L 792.16015625 130.45454788208008 L 792.16015625 77.81818389892578" fill-opacity="1" clip-path="url(#ZEGCeKPoUouz)"/><path fill="rgb(0,11,255)" stroke="none" paint-order="stroke" d="M 792.1806030273438 77.81818389892578 L 792.2036070264876 77.81818389892578 L 792.2036070264876 130.45454788208008 L 792.1806030273438 130.45454788208008 L 792.1806030273438 77.81818389892578" fill-opacity="1" clip-path="url(#ZEGCeKPoUouz)"/><path fill="rgb(22,0,247)" stroke="none" paint-order="stroke" d="M 792.20361328125 77.81818389892578 L 792.2470652796328 77.81818389892578 L 792.2470652796328 130.45454788208008 L 792.20361328125 130.45454788208008 L 792.20361328125 77.81818389892578" fill-opacity="1" clip-path="url(#ZEGCeKPoUouz)"/><path fill="rgb(38,0,240)" stroke="none" paint-order="stroke" d="M 792.2470703125 77.81818389892578 L 792.267518311739 77.81818389892578 L 792.267518311739 130.45454788208008 L 792.2470703125 130.45454788208008 L 792.2470703125 77.81818389892578" fill-opacity="1" clip-path="url(#ZEGCeKPoUouz)"/><path fill="rgb(65,0,223)" stroke="none" paint-order="stroke" d="M 792.2675170898438 77.81818389892578 L 792.29563309066 77.81818389892578 L 792.29563309066 130.45454788208008 L 792.2675170898438 130.45454788208008 L 792.2675170898438 77.81818389892578" fill-opacity="1" clip-path="url(#ZEGCeKPoUouz)"/><path fill="rgb(77,0,213)" stroke="none" paint-order="stroke" d="M 792.295654296875 77.81818389892578 L 792.3097122972831 77.81818389892578 L 792.3097122972831 130.45454788208008 L 792.295654296875 130.45454788208008 L 792.295654296875 77.81818389892578" fill-opacity="1" clip-path="url(#ZEGCeKPoUouz)"/><path fill="rgb(85,0,206)" stroke="none" paint-order="stroke" d="M 792.3096923828125 77.81818389892578 L 792.3301403820515 77.81818389892578 L 792.3301403820515 130.45454788208008 L 792.3096923828125 130.45454788208008 L 792.3096923828125 77.81818389892578" fill-opacity="1" clip-path="url(#ZEGCeKPoUouz)"/><path fill="rgb(94,0,196)" stroke="none" paint-order="stroke" d="M 792.3301391601562 77.81818389892578 L 792.3518651593477 77.81818389892578 L 792.3518651593477 130.45454788208008 L 792.3301391601562 130.45454788208008 L 792.3301391601562 77.81818389892578" fill-opacity="1" clip-path="url(#ZEGCeKPoUouz)"/><path fill="rgb(99,0,188)" stroke="none" paint-order="stroke" d="M 792.3518676757812 77.81818389892578 L 792.3761496748775 77.81818389892578 L 792.3761496748775 130.45454788208008 L 792.3518676757812 130.45454788208008 L 792.3518676757812 77.81818389892578" fill-opacity="1" clip-path="url(#ZEGCeKPoUouz)"/><path fill="rgb(104,0,178)" stroke="none" paint-order="stroke" d="M 792.3761596679688 77.81818389892578 L 792.400441667065 77.81818389892578 L 792.400441667065 130.45454788208008 L 792.3761596679688 130.45454788208008 L 792.3761596679688 77.81818389892578" fill-opacity="1" clip-path="url(#ZEGCeKPoUouz)"/><path fill="rgb(108,0,170)" stroke="none" paint-order="stroke" d="M 792.4004516601562 77.81818389892578 L 792.4157876605168 77.81818389892578 L 792.4157876605168 130.45454788208008 L 792.4004516601562 130.45454788208008 L 792.4004516601562 77.81818389892578" fill-opacity="1" clip-path="url(#ZEGCeKPoUouz)"/><path fill="rgb(110,0,159)" stroke="none" paint-order="stroke" d="M 792.415771484375 77.81818389892578 L 792.4413314852864 77.81818389892578 L 792.4413314852864 130.45454788208008 L 792.415771484375 130.45454788208008 L 792.415771484375 77.81818389892578" fill-opacity="1" clip-path="url(#ZEGCeKPoUouz)"/><path fill="rgb(111,0,151)" stroke="none" paint-order="stroke" d="M 792.4413452148438 77.81818389892578 L 792.4630712140352 77.81818389892578 L 792.4630712140352 130.45454788208008 L 792.4413452148438 130.45454788208008 L 792.4413452148438 77.81818389892578" fill-opacity="1" clip-path="url(#ZEGCeKPoUouz)"/><path fill="rgb(111,0,143)" stroke="none" paint-order="stroke" d="M 792.4630737304688 77.81818389892578 L 792.4796877298504 77.81818389892578 L 792.4796877298504 130.45454788208008 L 792.4630737304688 130.45454788208008 L 792.4630737304688 77.81818389892578" fill-opacity="1" clip-path="url(#ZEGCeKPoUouz)"/><path fill="rgb(110,0,132)" stroke="none" paint-order="stroke" d="M 792.4796752929688 77.81818389892578 L 792.5014012921602 77.81818389892578 L 792.5014012921602 130.45454788208008 L 792.4796752929688 130.45454788208008 L 792.4796752929688 77.81818389892578" fill-opacity="1" clip-path="url(#ZEGCeKPoUouz)"/><path fill="rgb(108,0,123)" stroke="none" paint-order="stroke" d="M 792.5014038085938 77.81818389892578 L 792.5218518078327 77.81818389892578 L 792.5218518078327 130.45454788208008 L 792.5014038085938 130.45454788208008 L 792.5014038085938 77.81818389892578" fill-opacity="1" clip-path="url(#ZEGCeKPoUouz)"/><path fill="rgb(104,0,112)" stroke="none" paint-order="stroke" d="M 792.5218505859375 77.81818389892578 L 792.5678585842252 77.81818389892578 L 792.5678585842252 130.45454788208008 L 792.5218505859375 130.45454788208008 L 792.5218505859375 77.81818389892578" fill-opacity="1" clip-path="url(#ZEGCeKPoUouz)"/><path fill="rgb(100,0,103)" stroke="none" paint-order="stroke" d="M 792.56787109375 77.81818389892578 L 792.5921530928463 77.81818389892578 L 792.5921530928463 130.45454788208008 L 792.56787109375 130.45454788208008 L 792.56787109375 77.81818389892578" fill-opacity="1" clip-path="url(#ZEGCeKPoUouz)"/><path fill="rgb(97,0,97)" stroke="none" paint-order="stroke" d="M 792.5921630859375 77.81818389892578 L 792.8630990982056 77.81818389892578 L 792.8630990982056 130.45454788208008 L 792.5921630859375 130.45454788208008 L 792.5921630859375 77.81818389892578" fill-opacity="1" clip-path="url(#ZEGCeKPoUouz)"/><path fill="rgb(104,0,112)" stroke="none" paint-order="stroke" d="M 792.8630981445312 77.81818389892578 L 792.8835461437702 77.81818389892578 L 792.8835461437702 130.45454788208008 L 792.8630981445312 130.45454788208008 L 792.8630981445312 77.81818389892578" fill-opacity="1" clip-path="url(#ZEGCeKPoUouz)"/><path fill="rgb(108,0,123)" stroke="none" paint-order="stroke" d="M 792.883544921875 77.81818389892578 L 792.9065489210188 77.81818389892578 L 792.9065489210188 130.45454788208008 L 792.883544921875 130.45454788208008 L 792.883544921875 77.81818389892578" fill-opacity="1" clip-path="url(#ZEGCeKPoUouz)"/><path fill="rgb(110,0,132)" stroke="none" paint-order="stroke" d="M 792.9065551757812 77.81818389892578 L 792.9270031750202 77.81818389892578 L 792.9270031750202 130.45454788208008 L 792.9065551757812 130.45454788208008 L 792.9065551757812 77.81818389892578" fill-opacity="1" clip-path="url(#ZEGCeKPoUouz)"/><path fill="rgb(110,0,159)" stroke="none" paint-order="stroke" d="M 792.927001953125 77.81818389892578 L 792.9512839522213 77.81818389892578 L 792.9512839522213 130.45454788208008 L 792.927001953125 130.45454788208008 L 792.927001953125 77.81818389892578" fill-opacity="1" clip-path="url(#ZEGCeKPoUouz)"/><path fill="rgb(104,0,178)" stroke="none" paint-order="stroke" d="M 792.9512939453125 77.81818389892578 L 792.970463944599 77.81818389892578 L 792.970463944599 130.45454788208008 L 792.9512939453125 130.45454788208008 L 792.9512939453125 77.81818389892578" fill-opacity="1" clip-path="url(#ZEGCeKPoUouz)"/><path fill="rgb(85,0,206)" stroke="none" paint-order="stroke" d="M 792.970458984375 77.81818389892578 L 792.990906983614 77.81818389892578 L 792.990906983614 130.45454788208008 L 792.970458984375 130.45454788208008 L 792.970458984375 77.81818389892578" fill-opacity="1" clip-path="url(#ZEGCeKPoUouz)"/><path fill="rgb(77,0,213)" stroke="none" paint-order="stroke" d="M 792.9909057617188 77.81818389892578 L 793.015187760815 77.81818389892578 L 793.015187760815 130.45454788208008 L 792.9909057617188 130.45454788208008 L 792.9909057617188 77.81818389892578" fill-opacity="1" clip-path="url(#ZEGCeKPoUouz)"/><path fill="rgb(55,0,230)" stroke="none" paint-order="stroke" d="M 793.01513671875 77.81818389892578 L 793.0470867194235 77.81818389892578 L 793.0470867194235 130.45454788208008 L 793.01513671875 130.45454788208008 L 793.01513671875 77.81818389892578" fill-opacity="1" clip-path="url(#ZEGCeKPoUouz)"/><path fill="rgb(22,0,247)" stroke="none" paint-order="stroke" d="M 793.047119140625 77.81818389892578 L 793.0611771410331 77.81818389892578 L 793.0611771410331 130.45454788208008 L 793.047119140625 130.45454788208008 L 793.047119140625 77.81818389892578" fill-opacity="1" clip-path="url(#ZEGCeKPoUouz)"/><path fill="rgb(0,33,255)" stroke="none" paint-order="stroke" d="M 793.0611572265625 77.81818389892578 L 793.0790492258966 77.81818389892578 L 793.0790492258966 130.45454788208008 L 793.0611572265625 130.45454788208008 L 793.0611572265625 77.81818389892578" fill-opacity="1" clip-path="url(#ZEGCeKPoUouz)"/><path fill="rgb(0,75,255)" stroke="none" paint-order="stroke" d="M 793.0790405273438 77.81818389892578 L 793.10715652816 77.81818389892578 L 793.10715652816 130.45454788208008 L 793.0790405273438 130.45454788208008 L 793.0790405273438 77.81818389892578" fill-opacity="1" clip-path="url(#ZEGCeKPoUouz)"/><path fill="rgb(0,127,255)" stroke="none" paint-order="stroke" d="M 793.107177734375 77.81818389892578 L 793.1199577348307 77.81818389892578 L 793.1199577348307 130.45454788208008 L 793.107177734375 130.45454788208008 L 793.107177734375 77.81818389892578" fill-opacity="1" clip-path="url(#ZEGCeKPoUouz)"/><path fill="rgb(0,146,255)" stroke="none" paint-order="stroke" d="M 793.1199340820312 77.81818389892578 L 793.163386080414 77.81818389892578 L 793.163386080414 130.45454788208008 L 793.1199340820312 130.45454788208008 L 793.1199340820312 77.81818389892578" fill-opacity="1" clip-path="url(#ZEGCeKPoUouz)"/><path fill="rgb(0,178,255)" stroke="none" paint-order="stroke" d="M 793.1633911132812 77.81818389892578 L 793.1991751119494 77.81818389892578 L 793.1991751119494 130.45454788208008 L 793.1633911132812 130.45454788208008 L 793.1633911132812 77.81818389892578" fill-opacity="1" clip-path="url(#ZEGCeKPoUouz)"/><path fill="rgb(0,191,255)" stroke="none" paint-order="stroke" d="M 793.19921875 77.81818389892578 L 793.2286127507687 77.81818389892578 L 793.2286127507687 130.45454788208008 L 793.19921875 130.45454788208008 L 793.19921875 77.81818389892578" fill-opacity="1" clip-path="url(#ZEGCeKPoUouz)"/><path fill="rgb(0,209,255)" stroke="none" paint-order="stroke" d="M 793.2285766601562 77.81818389892578 L 793.2464686594903 77.81818389892578 L 793.2464686594903 130.45454788208008 L 793.2285766601562 130.45454788208008 L 793.2285766601562 77.81818389892578" fill-opacity="1" clip-path="url(#ZEGCeKPoUouz)"/><path fill="rgb(0,221,255)" stroke="none" paint-order="stroke" d="M 793.2464599609375 77.81818389892578 L 793.2681859601289 77.81818389892578 L 793.2681859601289 130.45454788208008 L 793.2464599609375 130.45454788208008 L 793.2464599609375 77.81818389892578" fill-opacity="1" clip-path="url(#ZEGCeKPoUouz)"/><path fill="rgb(0,238,255)" stroke="none" paint-order="stroke" d="M 793.2681884765625 77.81818389892578 L 793.2911924757063 77.81818389892578 L 793.2911924757063 130.45454788208008 L 793.2681884765625 130.45454788208008 L 793.2681884765625 77.81818389892578" fill-opacity="1" clip-path="url(#ZEGCeKPoUouz)"/><path fill="rgb(0,250,255)" stroke="none" paint-order="stroke" d="M 793.2911987304688 77.81818389892578 L 793.3320947289467 77.81818389892578 L 793.3320947289467 130.45454788208008 L 793.2911987304688 130.45454788208008 L 793.2911987304688 77.81818389892578" fill-opacity="1" clip-path="url(#ZEGCeKPoUouz)"/><path fill="rgb(0,255,223)" stroke="none" paint-order="stroke" d="M 793.3320922851562 77.81818389892578 L 793.3768222853541 77.81818389892578 L 793.3768222853541 130.45454788208008 L 793.3320922851562 130.45454788208008 L 793.3320922851562 77.81818389892578" fill-opacity="1" clip-path="url(#ZEGCeKPoUouz)"/><path fill="rgb(0,255,191)" stroke="none" paint-order="stroke" d="M 793.3768310546875 77.81818389892578 L 793.4011130537838 77.81818389892578 L 793.4011130537838 130.45454788208008 L 793.3768310546875 130.45454788208008 L 793.3768310546875 77.81818389892578" fill-opacity="1" clip-path="url(#ZEGCeKPoUouz)"/><path fill="rgb(0,255,158)" stroke="none" paint-order="stroke" d="M 793.401123046875 77.81818389892578 L 793.4381850473583 77.81818389892578 L 793.4381850473583 130.45454788208008 L 793.401123046875 130.45454788208008 L 793.401123046875 77.81818389892578" fill-opacity="1" clip-path="url(#ZEGCeKPoUouz)"/><path fill="rgb(0,255,110)" stroke="none" paint-order="stroke" d="M 793.4381713867188 77.81818389892578 L 793.5046273842454 77.81818389892578 L 793.5046273842454 130.45454788208008 L 793.4381713867188 130.45454788208008 L 793.4381713867188 77.81818389892578" fill-opacity="1" clip-path="url(#ZEGCeKPoUouz)"/><path fill="rgb(0,255,70)" stroke="none" paint-order="stroke" d="M 793.504638671875 77.81818389892578 L 793.5698166713119 77.81818389892578 L 793.5698166713119 130.45454788208008 L 793.504638671875 130.45454788208008 L 793.504638671875 77.81818389892578" fill-opacity="1" clip-path="url(#ZEGCeKPoUouz)"/><path fill="rgb(0,255,0)" stroke="none" paint-order="stroke" d="M 793.56982421875 77.81818389892578 L 793.6758982166648 77.81818389892578 L 793.6758982166648 130.45454788208008 L 793.56982421875 130.45454788208008 L 793.56982421875 77.81818389892578" fill-opacity="1" clip-path="url(#ZEGCeKPoUouz)"/><path fill="rgb(20,255,0)" stroke="none" paint-order="stroke" d="M 793.6759033203125 77.81818389892578 L 793.7052973210812 77.81818389892578 L 793.7052973210812 130.45454788208008 L 793.6759033203125 130.45454788208008 L 793.6759033203125 77.81818389892578" fill-opacity="1" clip-path="url(#ZEGCeKPoUouz)"/><path fill="rgb(40,255,0)" stroke="none" paint-order="stroke" d="M 793.7052612304688 77.81818389892578 L 794.5052892565727 77.81818389892578 L 794.5052892565727 130.45454788208008 L 793.7052612304688 130.45454788208008 L 793.7052612304688 77.81818389892578" fill-opacity="1" clip-path="url(#ZEGCeKPoUouz)"/><path fill="rgb(53,255,0)" stroke="none" paint-order="stroke" d="M 794.5053100585938 77.81818389892578 L 794.5487620569766 77.81818389892578 L 794.5487620569766 130.45454788208008 L 794.5053100585938 130.45454788208008 L 794.5053100585938 77.81818389892578" fill-opacity="1" clip-path="url(#ZEGCeKPoUouz)"/><path fill="rgb(70,255,0)" stroke="none" paint-order="stroke" d="M 794.5487670898438 77.81818389892578 L 794.57304908894 77.81818389892578 L 794.57304908894 130.45454788208008 L 794.5487670898438 130.45454788208008 L 794.5487670898438 77.81818389892578" fill-opacity="1" clip-path="url(#ZEGCeKPoUouz)"/><path fill="rgb(82,255,0)" stroke="none" paint-order="stroke" d="M 794.5730590820312 77.81818389892578 L 840.1401481628418 77.81818389892578 L 840.1401481628418 130.45454788208008 L 794.5730590820312 130.45454788208008 L 794.5730590820312 77.81818389892578" fill-opacity="1" clip-path="url(#ZEGCeKPoUouz)"/><path fill="rgb(159,255,0)" stroke="none" paint-order="stroke" d="M 840.14013671875 77.81818389892578 L 849.1347007751465 77.81818389892578 L 849.1347007751465 130.45454788208008 L 840.14013671875 130.45454788208008 L 840.14013671875 77.81818389892578" fill-opacity="1" clip-path="url(#ZEGCeKPoUouz)"/><path fill="rgb(143,255,0)" stroke="none" paint-order="stroke" d="M 849.1347045898438 77.81818389892578 L 849.1692105904222 77.81818389892578 L 849.1692105904222 130.45454788208008 L 849.1347045898438 130.45454788208008 L 849.1347045898438 77.81818389892578" fill-opacity="1" clip-path="url(#ZEGCeKPoUouz)"/><path fill="rgb(132,255,0)" stroke="none" paint-order="stroke" d="M 849.169189453125 77.81818389892578 L 849.1947494540364 77.81818389892578 L 849.1947494540364 130.45454788208008 L 849.169189453125 130.45454788208008 L 849.169189453125 77.81818389892578" fill-opacity="1" clip-path="url(#ZEGCeKPoUouz)"/><path fill="rgb(119,255,0)" stroke="none" paint-order="stroke" d="M 849.1947631835938 77.81818389892578 L 849.2126551829278 77.81818389892578 L 849.2126551829278 130.45454788208008 L 849.1947631835938 130.45454788208008 L 849.1947631835938 77.81818389892578" fill-opacity="1" clip-path="url(#ZEGCeKPoUouz)"/><path fill="rgb(93,255,0)" stroke="none" paint-order="stroke" d="M 849.212646484375 77.81818389892578 L 849.2612104825675 77.81818389892578 L 849.2612104825675 130.45454788208008 L 849.212646484375 130.45454788208008 L 849.212646484375 77.81818389892578" fill-opacity="1" clip-path="url(#ZEGCeKPoUouz)"/><path fill="rgb(82,255,0)" stroke="none" paint-order="stroke" d="M 849.26123046875 77.81818389892578 L 849.3276864662766 77.81818389892578 L 849.3276864662766 130.45454788208008 L 849.26123046875 130.45454788208008 L 849.26123046875 77.81818389892578" fill-opacity="1" clip-path="url(#ZEGCeKPoUouz)"/><path fill="rgb(66,255,0)" stroke="none" paint-order="stroke" d="M 849.3276977539062 77.81818389892578 L 849.3685937523842 77.81818389892578 L 849.3685937523842 130.45454788208008 L 849.3276977539062 130.45454788208008 L 849.3276977539062 77.81818389892578" fill-opacity="1" clip-path="url(#ZEGCeKPoUouz)"/><path fill="rgb(53,255,0)" stroke="none" paint-order="stroke" d="M 849.3685913085938 77.81818389892578 L 849.4324913099408 77.81818389892578 L 849.4324913099408 130.45454788208008 L 849.3685913085938 130.45454788208008 L 849.3685913085938 77.81818389892578" fill-opacity="1" clip-path="url(#ZEGCeKPoUouz)"/><path fill="rgb(35,255,0)" stroke="none" paint-order="stroke" d="M 849.4324951171875 77.81818389892578 L 850.3130370974541 77.81818389892578 L 850.3130370974541 130.45454788208008 L 849.4324951171875 130.45454788208008 L 849.4324951171875 77.81818389892578" fill-opacity="1" clip-path="url(#ZEGCeKPoUouz)"/><path fill="rgb(251,0,7)" stroke="none" paint-order="stroke" d="M 58.5 130.4545440673828 L 117.90655136108398 130.4545440673828 L 117.90655136108398 183.0909080505371 L 58.5 183.0909080505371 L 58.5 130.4545440673828" fill-opacity="1" clip-path="url(#XRSHFrqZhXCy)"/><path fill="rgb(237,115,111)" stroke="none" paint-order="stroke" d="M 117.90655517578125 130.4545440673828 L 121.34820914268494 130.4545440673828 L 121.34820914268494 183.0909080505371 L 117.90655517578125 183.0909080505371 L 117.90655517578125 130.4545440673828" fill-opacity="1" clip-path="url(#XRSHFrqZhXCy)"/><path fill="rgb(252,105,8)" stroke="none" paint-order="stroke" d="M 121.34820556640625 130.4545440673828 L 274.0410919189453 130.4545440673828 L 274.0410919189453 183.0909080505371 L 121.34820556640625 183.0909080505371 L 121.34820556640625 130.4545440673828" fill-opacity="1" clip-path="url(#XRSHFrqZhXCy)"/><path fill="rgb(237,115,111)" stroke="none" paint-order="stroke" d="M 274.04107666015625 130.4545440673828 L 281.02023458480835 130.4545440673828 L 281.02023458480835 183.0909080505371 L 274.04107666015625 183.0909080505371 L 274.04107666015625 130.4545440673828" fill-opacity="1" clip-path="url(#XRSHFrqZhXCy)"/><path fill="rgb(251,0,7)" stroke="none" paint-order="stroke" d="M 281.0202331542969 130.4545440673828 L 371.25342559814453 130.4545440673828 L 371.25342559814453 183.0909080505371 L 281.0202331542969 183.0909080505371 L 281.0202331542969 130.4545440673828" fill-opacity="1" clip-path="url(#XRSHFrqZhXCy)"/><path fill="rgb(252,105,8)" stroke="none" paint-order="stroke" d="M 371.2534484863281 130.4545440673828 L 378.589168548584 130.4545440673828 L 378.589168548584 183.0909080505371 L 371.2534484863281 183.0909080505371 L 371.2534484863281 130.4545440673828" fill-opacity="1" clip-path="url(#XRSHFrqZhXCy)"/><path fill="rgb(251,0,7)" stroke="none" paint-order="stroke" d="M 378.58917236328125 130.4545440673828 L 386.48337841033936 130.4545440673828 L 386.48337841033936 183.0909080505371 L 378.58917236328125 183.0909080505371 L 378.58917236328125 130.4545440673828" fill-opacity="1" clip-path="url(#XRSHFrqZhXCy)"/><path fill="rgb(237,115,111)" stroke="none" paint-order="stroke" d="M 386.4833679199219 130.4545440673828 L 488.09458923339844 130.4545440673828 L 488.09458923339844 183.0909080505371 L 386.4833679199219 183.0909080505371 L 386.4833679199219 130.4545440673828" fill-opacity="1" clip-path="url(#XRSHFrqZhXCy)"/><path fill="rgb(251,0,7)" stroke="none" paint-order="stroke" d="M 488.0945739746094 130.4545440673828 L 499.3984842300415 130.4545440673828 L 499.3984842300415 183.0909080505371 L 488.0945739746094 183.0909080505371 L 488.0945739746094 130.4545440673828" fill-opacity="1" clip-path="url(#XRSHFrqZhXCy)"/><path fill="rgb(251,0,7)" stroke="none" paint-order="stroke" d="M 499.39849853515625 130.4545440673828 L 503.72069454193115 130.4545440673828 L 503.72069454193115 183.0909080505371 L 499.39849853515625 183.0909080505371 L 499.39849853515625 130.4545440673828" fill-opacity="1" clip-path="url(#XRSHFrqZhXCy)"/><path fill="rgb(237,115,111)" stroke="none" paint-order="stroke" d="M 503.720703125 130.4545440673828 L 508.83014726638794 130.4545440673828 L 508.83014726638794 183.0909080505371 L 503.720703125 183.0909080505371 L 503.720703125 130.4545440673828" fill-opacity="1" clip-path="url(#XRSHFrqZhXCy)"/><path fill="rgb(252,105,8)" stroke="none" paint-order="stroke" d="M 508.83013916015625 130.4545440673828 L 515.9115371704102 130.4545440673828 L 515.9115371704102 183.0909080505371 L 508.83013916015625 183.0909080505371 L 508.83013916015625 130.4545440673828" fill-opacity="1" clip-path="url(#XRSHFrqZhXCy)"/><path fill="rgb(237,115,111)" stroke="none" paint-order="stroke" d="M 515.9115600585938 130.4545440673828 L 519.8465220928192 130.4545440673828 L 519.8465220928192 183.0909080505371 L 515.9115600585938 183.0909080505371 L 515.9115600585938 130.4545440673828" fill-opacity="1" clip-path="url(#XRSHFrqZhXCy)"/><path fill="rgb(251,0,7)" stroke="none" paint-order="stroke" d="M 519.8464965820312 130.4545440673828 L 666.2171173095703 130.4545440673828 L 666.2171173095703 183.0909080505371 L 519.8464965820312 183.0909080505371 L 519.8464965820312 130.4545440673828" fill-opacity="1" clip-path="url(#XRSHFrqZhXCy)"/><path fill="rgb(56,126,34)" stroke="none" paint-order="stroke" d="M 666.2171020507812 130.4545440673828 L 840.1401214599609 130.4545440673828 L 840.1401214599609 183.0909080505371 L 666.2171020507812 183.0909080505371 L 666.2171020507812 130.4545440673828" fill-opacity="1" clip-path="url(#XRSHFrqZhXCy)"/><path fill="rgb(237,115,111)" stroke="none" paint-order="stroke" d="M 840.14013671875 130.4545440673828 L 850.3130168914795 130.4545440673828 L 850.3130168914795 183.0909080505371 L 840.14013671875 183.0909080505371 L 840.14013671875 130.4545440673828" fill-opacity="1" clip-path="url(#XRSHFrqZhXCy)"/><path fill="rgb(105,29,48)" stroke="none" paint-order="stroke" d="M 265.00946044921875 183.09091186523438 L 265.0733604505658 183.09091186523438 L 265.0733604505658 498.9090881347656 L 265.00946044921875 498.9090881347656 L 265.00946044921875 183.09091186523438" fill-opacity="1" clip-path="url(#XOBhxAlcMTpG)"/><path fill="rgb(255,188,66)" stroke="none" paint-order="stroke" d="M 308.4627380371094 183.09091186523438 L 313.8303380012512 183.09091186523438 L 313.8303380012512 498.9090881347656 L 308.4627380371094 498.9090881347656 L 308.4627380371094 183.09091186523438" fill-opacity="1" clip-path="url(#KsTwKJGvFAga)"/><path fill="rgb(162,174,187)" stroke="none" paint-order="stroke" d="M 269.3048095703125 183.09091186523438 L 269.36870957165956 183.09091186523438 L 269.36870957165956 498.9090881347656 L 269.3048095703125 498.9090881347656 L 269.3048095703125 183.09091186523438" fill-opacity="1" clip-path="url(#phAORtFBSmtq)"/><path fill="rgb(216,17,89)" stroke="none" paint-order="stroke" d="M 242.6278533935547 183.09091186523438 L 242.69175339490175 183.09091186523438 L 242.69175339490175 498.9090881347656 L 242.6278533935547 498.9090881347656 L 242.6278533935547 183.09091186523438" fill-opacity="1" clip-path="url(#elqZPJMSbfOF)"/><path fill="rgb(33,131,128)" stroke="none" paint-order="stroke" d="M 115.42851257324219 183.09091186523438 L 117.90655446052551 183.09091186523438 L 117.90655446052551 498.9090881347656 L 115.42851257324219 498.9090881347656 L 115.42851257324219 183.09091186523438" fill-opacity="1" clip-path="url(#ilAisAuVytwR)"/><path fill="rgb(33,131,128)" stroke="none" paint-order="stroke" d="M 119.7762680053711 183.09091186523438 L 121.34820795059204 183.09091186523438 L 121.34820795059204 498.9090881347656 L 119.7762680053711 498.9090881347656 L 119.7762680053711 183.09091186523438" fill-opacity="1" clip-path="url(#ilAisAuVytwR)"/><path fill="rgb(33,131,128)" stroke="none" paint-order="stroke" d="M 272.269775390625 183.09091186523438 L 274.04108333587646 183.09091186523438 L 274.04108333587646 498.9090881347656 L 272.269775390625 498.9090881347656 L 272.269775390625 183.09091186523438" fill-opacity="1" clip-path="url(#ilAisAuVytwR)"/><path fill="rgb(33,131,128)" stroke="none" paint-order="stroke" d="M 279.5275573730469 183.09091186523438 L 281.0202614068985 183.09091186523438 L 281.0202614068985 498.9090881347656 L 279.5275573730469 498.9090881347656 L 279.5275573730469 183.09091186523438" fill-opacity="1" clip-path="url(#ilAisAuVytwR)"/><path fill="rgb(33,131,128)" stroke="none" paint-order="stroke" d="M 369.32110595703125 183.09091186523438 L 371.2534419298172 183.09091186523438 L 371.2534419298172 498.9090881347656 L 369.32110595703125 498.9090881347656 L 369.32110595703125 183.09091186523438" fill-opacity="1" clip-path="url(#ilAisAuVytwR)"/><path fill="rgb(33,131,128)" stroke="none" paint-order="stroke" d="M 376.3603210449219 183.09091186523438 L 378.58915305137634 183.09091186523438 L 378.58915305137634 498.9090881347656 L 376.3603210449219 498.9090881347656 L 376.3603210449219 183.09091186523438" fill-opacity="1" clip-path="url(#ilAisAuVytwR)"/><path fill="rgb(33,131,128)" stroke="none" paint-order="stroke" d="M 384.736328125 183.09091186523438 L 386.4833540916443 183.09091186523438 L 386.4833540916443 498.9090881347656 L 384.736328125 498.9090881347656 L 384.736328125 183.09091186523438" fill-opacity="1" clip-path="url(#ilAisAuVytwR)"/><path fill="rgb(33,131,128)" stroke="none" paint-order="stroke" d="M 485.90283203125 183.09091186523438 L 488.0946021080017 183.09091186523438 L 488.0946021080017 498.9090881347656 L 485.90283203125 498.9090881347656 L 485.90283203125 183.09091186523438" fill-opacity="1" clip-path="url(#ilAisAuVytwR)"/><path fill="rgb(33,131,128)" stroke="none" paint-order="stroke" d="M 497.0047912597656 183.09091186523438 L 499.3984851837158 183.09091186523438 L 499.3984851837158 498.9090881347656 L 497.0047912597656 498.9090881347656 L 497.0047912597656 183.09091186523438" fill-opacity="1" clip-path="url(#ilAisAuVytwR)"/><path fill="rgb(33,131,128)" stroke="none" paint-order="stroke" d="M 501.71807861328125 183.09091186523438 L 503.7207045555115 183.09091186523438 L 503.7207045555115 498.9090881347656 L 501.71807861328125 498.9090881347656 L 501.71807861328125 183.09091186523438" fill-opacity="1" clip-path="url(#ilAisAuVytwR)"/><path fill="rgb(33,131,128)" stroke="none" paint-order="stroke" d="M 506.8134460449219 183.09091186523438 L 508.83013010025024 183.09091186523438 L 508.83013010025024 498.9090881347656 L 506.8134460449219 498.9090881347656 L 506.8134460449219 183.09091186523438" fill-opacity="1" clip-path="url(#ilAisAuVytwR)"/><path fill="rgb(33,131,128)" stroke="none" paint-order="stroke" d="M 514.083984375 183.09091186523438 L 515.9115244150162 183.09091186523438 L 515.9115244150162 498.9090881347656 L 514.083984375 498.9090881347656 L 514.083984375 183.09091186523438" fill-opacity="1" clip-path="url(#ilAisAuVytwR)"/><path fill="rgb(33,131,128)" stroke="none" paint-order="stroke" d="M 517.955078125 183.09091186523438 L 519.8465181589127 183.09091186523438 L 519.8465181589127 498.9090881347656 L 517.955078125 498.9090881347656 L 517.955078125 183.09091186523438" fill-opacity="1" clip-path="url(#ilAisAuVytwR)"/><path fill="rgb(33,131,128)" stroke="none" paint-order="stroke" d="M 664.4522094726562 183.09091186523438 L 666.2171274423599 183.09091186523438 L 666.2171274423599 498.9090881347656 L 664.4522094726562 498.9090881347656 L 664.4522094726562 183.09091186523438" fill-opacity="1" clip-path="url(#ilAisAuVytwR)"/><path fill="rgb(33,131,128)" stroke="none" paint-order="stroke" d="M 838.0020141601562 183.09091186523438 L 840.1401081085205 183.09091186523438 L 840.1401081085205 498.9090881347656 L 838.0020141601562 498.9090881347656 L 838.0020141601562 183.09091186523438" fill-opacity="1" clip-path="url(#ilAisAuVytwR)"/><path fill="rgb(115,210,222)" stroke="none" paint-order="stroke" d="M 275.8072814941406 183.09091186523438 L 278.6942834854126 183.09091186523438 L 278.6942834854126 498.9090881347656 L 275.8072814941406 498.9090881347656 L 275.8072814941406 183.09091186523438" fill-opacity="1" clip-path="url(#gFIgFcVrgbGz)"/><path fill="rgb(115,210,222)" stroke="none" paint-order="stroke" d="M 282.9998779296875 183.09091186523438 L 286.8888318538666 183.09091186523438 L 286.8888318538666 498.9090881347656 L 282.9998779296875 498.9090881347656 L 282.9998779296875 183.09091186523438" fill-opacity="1" clip-path="url(#gFIgFcVrgbGz)"/><path fill="rgb(115,210,222)" stroke="none" paint-order="stroke" d="M 373.0145263671875 183.09091186523438 L 375.4746763706207 183.09091186523438 L 375.4746763706207 498.9090881347656 L 373.0145263671875 498.9090881347656 L 373.0145263671875 183.09091186523438" fill-opacity="1" clip-path="url(#gFIgFcVrgbGz)"/><path fill="rgb(115,210,222)" stroke="none" paint-order="stroke" d="M 380.2403259277344 183.09091186523438 L 382.3324120044708 183.09091186523438 L 382.3324120044708 498.9090881347656 L 380.2403259277344 498.9090881347656 L 380.2403259277344 183.09091186523438" fill-opacity="1" clip-path="url(#gFIgFcVrgbGz)"/><path fill="rgb(115,210,222)" stroke="none" paint-order="stroke" d="M 388.1294250488281 183.09091186523438 L 389.6208510398865 183.09091186523438 L 389.6208510398865 498.9090881347656 L 388.1294250488281 498.9090881347656 L 388.1294250488281 183.09091186523438" fill-opacity="1" clip-path="url(#gFIgFcVrgbGz)"/><path fill="rgb(115,210,222)" stroke="none" paint-order="stroke" d="M 400.892822265625 183.09091186523438 L 407.52053022384644 183.09091186523438 L 407.52053022384644 498.9090881347656 L 400.892822265625 498.9090881347656 L 400.892822265625 183.09091186523438" fill-opacity="1" clip-path="url(#gFIgFcVrgbGz)"/><path fill="rgb(115,210,222)" stroke="none" paint-order="stroke" d="M 444.66943359375 183.09091186523438 L 450.0472574234009 183.09091186523438 L 450.0472574234009 498.9090881347656 L 444.66943359375 498.9090881347656 L 444.66943359375 183.09091186523438" fill-opacity="1" clip-path="url(#gFIgFcVrgbGz)"/><path fill="rgb(115,210,222)" stroke="none" paint-order="stroke" d="M 532.451416015625 183.09091186523438 L 535.8304479122162 183.09091186523438 L 535.8304479122162 498.9090881347656 L 532.451416015625 498.9090881347656 L 532.451416015625 183.09091186523438" fill-opacity="1" clip-path="url(#gFIgFcVrgbGz)"/><path fill="rgb(115,210,222)" stroke="none" paint-order="stroke" d="M 682.9755249023438 183.09091186523438 L 690.6703629493713 183.09091186523438 L 690.6703629493713 498.9090881347656 L 682.9755249023438 498.9090881347656 L 682.9755249023438 183.09091186523438" fill-opacity="1" clip-path="url(#gFIgFcVrgbGz)"/><path fill="rgb(115,210,222)" stroke="none" paint-order="stroke" d="M 696.416259765625 183.09091186523438 L 707.0389957427979 183.09091186523438 L 707.0389957427979 498.9090881347656 L 696.416259765625 498.9090881347656 L 696.416259765625 183.09091186523438" fill-opacity="1" clip-path="url(#gFIgFcVrgbGz)"/><path fill="rgb(115,210,222)" stroke="none" paint-order="stroke" d="M 708.244140625 183.09091186523438 L 708.8460786342621 183.09091186523438 L 708.8460786342621 498.9090881347656 L 708.244140625 498.9090881347656 L 708.244140625 183.09091186523438" fill-opacity="1" clip-path="url(#gFIgFcVrgbGz)"/><path fill="rgb(115,210,222)" stroke="none" paint-order="stroke" d="M 710.06787109375 183.09091186523438 L 711.0595991015434 183.09091186523438 L 711.0595991015434 498.9090881347656 L 710.06787109375 498.9090881347656 L 710.06787109375 183.09091186523438" fill-opacity="1" clip-path="url(#gFIgFcVrgbGz)"/><path fill="rgb(115,210,222)" stroke="none" paint-order="stroke" d="M 772.6834716796875 183.09091186523438 L 777.5756554603577 183.09091186523438 L 777.5756554603577 498.9090881347656 L 772.6834716796875 498.9090881347656 L 772.6834716796875 183.09091186523438" fill-opacity="1" clip-path="url(#gFIgFcVrgbGz)"/><path fill="rgb(115,210,222)" stroke="none" paint-order="stroke" d="M 808.5377807617188 183.09091186523438 L 815.1782689094543 183.09091186523438 L 815.1782689094543 498.9090881347656 L 808.5377807617188 498.9090881347656 L 808.5377807617188 183.09091186523438" fill-opacity="1" clip-path="url(#gFIgFcVrgbGz)"/><path fill="rgb(28,49,68)" stroke="none" paint-order="stroke" d="M 322.7776184082031 183.09091186523438 L 326.4301424026489 183.09091186523438 L 326.4301424026489 498.9090881347656 L 322.7776184082031 498.9090881347656 L 322.7776184082031 183.09091186523438" fill-opacity="1" clip-path="url(#WxMTVwpvWDyS)"/><path fill="rgb(28,49,68)" stroke="none" paint-order="stroke" d="M 327.4474182128906 183.09091186523438 L 328.14648419618607 183.09091186523438 L 328.14648419618607 498.9090881347656 L 327.4474182128906 498.9090881347656 L 327.4474182128906 183.09091186523438" fill-opacity="1" clip-path="url(#WxMTVwpvWDyS)"/><path fill="rgb(28,49,68)" stroke="none" paint-order="stroke" d="M 336.07904052734375 183.09091186523438 L 349.4673681259155 183.09091186523438 L 349.4673681259155 498.9090881347656 L 336.07904052734375 498.9090881347656 L 336.07904052734375 183.09091186523438" fill-opacity="1" clip-path="url(#WxMTVwpvWDyS)"/><path fill="rgb(28,49,68)" stroke="none" paint-order="stroke" d="M 425.3026123046875 183.09091186523438 L 428.2726843357086 183.09091186523438 L 428.2726843357086 498.9090881347656 L 425.3026123046875 498.9090881347656 L 425.3026123046875 183.09091186523438" fill-opacity="1" clip-path="url(#WxMTVwpvWDyS)"/><path fill="rgb(239,185,203)" stroke="none" paint-order="stroke" d="M 63.237545013427734 183.09091186523438 L 95.57861328125 183.09091186523438 L 95.57861328125 498.9090881347656 L 63.237545013427734 498.9090881347656 L 63.237545013427734 183.09091186523438" fill-opacity="1" clip-path="url(#bUMfEkZhdiOT)"/><path fill="rgb(239,185,203)" stroke="none" paint-order="stroke" d="M 98.33654022216797 183.09091186523438 L 113.37604427337646 183.09091186523438 L 113.37604427337646 498.9090881347656 L 98.33654022216797 498.9090881347656 L 98.33654022216797 183.09091186523438" fill-opacity="1" clip-path="url(#bUMfEkZhdiOT)"/><path fill="rgb(239,185,203)" stroke="none" paint-order="stroke" d="M 123.95149230957031 183.09091186523438 L 238.74401092529297 183.09091186523438 L 238.74401092529297 498.9090881347656 L 123.95149230957031 498.9090881347656 L 123.95149230957031 183.09091186523438" fill-opacity="1" clip-path="url(#bUMfEkZhdiOT)"/><path fill="rgb(239,185,203)" stroke="none" paint-order="stroke" d="M 252.79945373535156 183.09091186523438 L 256.01873564720154 183.09091186523438 L 256.01873564720154 498.9090881347656 L 252.79945373535156 498.9090881347656 L 252.79945373535156 183.09091186523438" fill-opacity="1" clip-path="url(#bUMfEkZhdiOT)"/><path fill="rgb(239,185,203)" stroke="none" paint-order="stroke" d="M 288.48760986328125 183.09091186523438 L 304.5047836303711 183.09091186523438 L 304.5047836303711 498.9090881347656 L 288.48760986328125 498.9090881347656 L 288.48760986328125 183.09091186523438" fill-opacity="1" clip-path="url(#bUMfEkZhdiOT)"/><path fill="rgb(239,185,203)" stroke="none" paint-order="stroke" d="M 390.8656311035156 183.09091186523438 L 398.65631914138794 183.09091186523438 L 398.65631914138794 498.9090881347656 L 390.8656311035156 498.9090881347656 L 390.8656311035156 183.09091186523438" fill-opacity="1" clip-path="url(#bUMfEkZhdiOT)"/><path fill="rgb(105,29,48)" stroke="none" paint-order="stroke" d="M 244.54869079589844 183.09091186523438 L 249.00124263763428 183.09091186523438 L 249.00124263763428 498.9090881347656 L 244.54869079589844 498.9090881347656 L 244.54869079589844 183.09091186523438" fill-opacity="1" clip-path="url(#qFZAgesHGyVL)"/><path fill="rgb(105,29,48)" stroke="none" paint-order="stroke" d="M 258.399658203125 183.09091186523438 L 263.70847034454346 183.09091186523438 L 263.70847034454346 498.9090881347656 L 258.399658203125 498.9090881347656 L 258.399658203125 183.09091186523438" fill-opacity="1" clip-path="url(#qFZAgesHGyVL)"/><path fill="rgb(105,29,48)" stroke="none" paint-order="stroke" d="M 479.93072509765625 183.09091186523438 L 482.0394251346588 183.09091186523438 L 482.0394251346588 498.9090881347656 L 479.93072509765625 498.9090881347656 L 479.93072509765625 183.09091186523438" fill-opacity="1" clip-path="url(#qFZAgesHGyVL)"/><path fill="rgb(105,29,48)" stroke="none" paint-order="stroke" d="M 539.912353515625 183.09091186523438 L 542.0338335037231 183.09091186523438 L 542.0338335037231 498.9090881347656 L 539.912353515625 498.9090881347656 L 539.912353515625 183.09091186523438" fill-opacity="1" clip-path="url(#qFZAgesHGyVL)"/><path fill="rgb(105,29,48)" stroke="none" paint-order="stroke" d="M 790.0859985351562 183.09091186523438 L 795.2785124778748 183.09091186523438 L 795.2785124778748 498.9090881347656 L 790.0859985351562 498.9090881347656 L 790.0859985351562 183.09091186523438" fill-opacity="1" clip-path="url(#qFZAgesHGyVL)"/><path fill="rgb(105,29,48)" stroke="none" paint-order="stroke" d="M 848.9429931640625 183.09091186523438 L 850.3130091428757 183.09091186523438 L 850.3130091428757 498.9090881347656 L 848.9429931640625 498.9090881347656 L 848.9429931640625 183.09091186523438" fill-opacity="1" clip-path="url(#qFZAgesHGyVL)"/><path fill="rgb(255,188,66)" stroke="none" paint-order="stroke" d="M 310.55609130859375 498.9090881347656 L 850.31298828125 498.9090881347656 L 850.31298828125 551.5454521179199 L 310.55609130859375 551.5454521179199 L 310.55609130859375 498.9090881347656" fill-opacity="1" clip-path="url(#NUoWSJlGERiI)"/><path fill="rgb(143,45,86)" stroke="none" paint-order="stroke" d="M 58.5 551.5454711914062 L 265.00946044921875 551.5454711914062 L 265.00946044921875 604.1818351745605 L 58.5 604.1818351745605 L 58.5 551.5454711914062" fill-opacity="1" clip-path="url(#VPFuIIpqiXEI)"/><path fill="rgb(63,136,197)" stroke="none" paint-order="stroke" d="M 265.00946044921875 551.5454711914062 L 269.3048186302185 551.5454711914062 L 269.3048186302185 604.1818351745605 L 265.00946044921875 604.1818351745605 L 265.00946044921875 551.5454711914062" fill-opacity="1" clip-path="url(#VPFuIIpqiXEI)"/><path fill="rgb(81,60,99)" stroke="none" paint-order="stroke" d="M 269.3048095703125 551.5454711914062 L 850.31298828125 551.5454711914062 L 850.31298828125 604.1818351745605 L 269.3048095703125 604.1818351745605 L 269.3048095703125 551.5454711914062" fill-opacity="1" clip-path="url(#VPFuIIpqiXEI)"/><path fill="none" stroke="rgb(0,0,0)" paint-order="fill" d="M 58.5 77.81818389892578 L 850.31298828125 77.81818389892578 L 850.31298828125 604.1818313598633 L 58.5 604.1818313598633 L 58.5 77.81818389892578" stroke-opacity="1" stroke-linejoin="bevel" stroke-miterlimit="10" stroke-dasharray="" clip-path="url(#OxCOXXCpZoLt)"/><path fill="none" stroke="rgb(0,0,0)" paint-order="fill" d="M 58.5 630.5 L 1336.5 630.5" stroke-opacity="1" stroke-linejoin="bevel" stroke-miterlimit="10" stroke-dasharray=""/><path fill="none" stroke="rgb(0,0,0)" paint-order="fill" d="M 58.5 636.5 L 58.5 628.5 M 314.5 636.5 L 314.5 628.5 M 569.5 636.5 L 569.5 628.5 M 825.5 636.5 L 825.5 628.5 M 1080.5 636.5 L 1080.5 628.5 M 1336.5 636.5 L 1336.5 628.5" stroke-opacity="1" stroke-linejoin="bevel" stroke-miterlimit="10" stroke-dasharray=""/><path fill="none" stroke="rgb(0,0,0)" paint-order="fill" d="M 58.5 634.5 L 58.5 630.5 M 109.5 634.5 L 109.5 630.5 M 160.5 634.5 L 160.5 630.5 M 211.5 634.5 L 211.5 630.5 M 262.5 634.5 L 262.5 630.5 M 314.5 634.5 L 314.5 630.5 M 365.5 634.5 L 365.5 630.5 M 416.5 634.5 L 416.5 630.5 M 467.5 634.5 L 467.5 630.5 M 518.5 634.5 L 518.5 630.5 M 569.5 634.5 L 569.5 630.5 M 620.5 634.5 L 620.5 630.5 M 671.5 634.5 L 671.5 630.5 M 723.5 634.5 L 723.5 630.5 M 774.5 634.5 L 774.5 630.5 M 825.5 634.5 L 825.5 630.5 M 876.5 634.5 L 876.5 630.5 M 927.5 634.5 L 927.5 630.5 M 978.5 634.5 L 978.5 630.5 M 1029.5 634.5 L 1029.5 630.5 M 1080.5 634.5 L 1080.5 630.5 M 1132.5 634.5 L 1132.5 630.5 M 1183.5 634.5 L 1183.5 630.5 M 1234.5 634.5 L 1234.5 630.5 M 1285.5 634.5 L 1285.5 630.5 M 1336.5 634.5 L 1336.5 630.5" stroke-opacity="1" stroke-linejoin="bevel" stroke-miterlimit="10" stroke-dasharray=""/><text fill="rgb(68,68,68)" stroke="none" font-family="helvetica" font-size="11px" font-style="normal" font-weight="normal" text-decoration="normal" x="54.94166660308838" y="648.89013671875" text-anchor="start" dominant-baseline="alphabetic" transform="matrix(1, 0, 0, 1, 0.5, 0.5)" fill-opacity="1">0</text><text fill="rgb(68,68,68)" stroke="none" font-family="helvetica" font-size="11px" font-style="normal" font-weight="normal" text-decoration="normal" x="304.42500591278076" y="648.89013671875" text-anchor="start" dominant-baseline="alphabetic" transform="matrix(1, 0, 0, 1, 0.5, 0.5)" fill-opacity="1">200</text><text fill="rgb(68,68,68)" stroke="none" font-family="helvetica" font-size="11px" font-style="normal" font-weight="normal" text-decoration="normal" x="560.0250120162964" y="648.89013671875" text-anchor="start" dominant-baseline="alphabetic" transform="matrix(1, 0, 0, 1, 0.5, 0.5)" fill-opacity="1">400</text><text fill="rgb(68,68,68)" stroke="none" font-family="helvetica" font-size="11px" font-style="normal" font-weight="normal" text-decoration="normal" x="815.6249876022339" y="648.89013671875" text-anchor="start" dominant-baseline="alphabetic" transform="matrix(1, 0, 0, 1, 0.5, 0.5)" fill-opacity="1">600</text><text fill="rgb(68,68,68)" stroke="none" font-family="helvetica" font-size="11px" font-style="normal" font-weight="normal" text-decoration="normal" x="1071.2250242233276" y="648.89013671875" text-anchor="start" dominant-baseline="alphabetic" transform="matrix(1, 0, 0, 1, 0.5, 0.5)" fill-opacity="1">800</text><text fill="rgb(68,68,68)" stroke="none" font-family="helvetica" font-size="11px" font-style="normal" font-weight="normal" text-decoration="normal" x="1323.7666664123535" y="648.89013671875" text-anchor="start" dominant-baseline="alphabetic" transform="matrix(1, 0, 0, 1, 0.5, 0.5)" fill-opacity="1">1000</text><text fill="rgb(68,68,68)" stroke="none" font-family="helvetica" font-size="15pt" font-style="italic" font-weight="normal" text-decoration="normal" x="666.4416675567627" y="676.06982421875" text-anchor="start" dominant-baseline="alphabetic" transform="matrix(1, 0, 0, 1, 0.5, 0.5)" fill-opacity="1">time(s)</text><path fill="none" stroke="rgb(0,0,0)" paint-order="fill" d="M 58.5 630.5 L 58.5 51.5" stroke-opacity="1" stroke-linejoin="bevel" stroke-miterlimit="10" stroke-dasharray=""/><path fill="none" stroke="rgb(0,0,0)" paint-order="fill" d="M 52.5 551.5 L 60.5 551.5 M 52.5 446.5 L 60.5 446.5 M 52.5 341.5 L 60.5 341.5 M 52.5 235.5 L 60.5 235.5 M 52.5 130.5 L 60.5 130.5" stroke-opacity="1" stroke-linejoin="bevel" stroke-miterlimit="10" stroke-dasharray=""/><path fill="none" stroke="rgb(0,0,0)" paint-order="fill" d="M 54.5 572.5 L 58.5 572.5 M 54.5 593.5 L 58.5 593.5 M 54.5 614.5 L 58.5 614.5 M 54.5 551.5 L 58.5 551.5 M 54.5 530.5 L 58.5 530.5 M 54.5 509.5 L 58.5 509.5 M 54.5 488.5 L 58.5 488.5 M 54.5 467.5 L 58.5 467.5 M 54.5 446.5 L 58.5 446.5 M 54.5 425.5 L 58.5 425.5 M 54.5 404.5 L 58.5 404.5 M 54.5 383.5 L 58.5 383.5 M 54.5 362.5 L 58.5 362.5 M 54.5 341.5 L 58.5 341.5 M 54.5 319.5 L 58.5 319.5 M 54.5 298.5 L 58.5 298.5 M 54.5 277.5 L 58.5 277.5 M 54.5 256.5 L 58.5 256.5 M 54.5 235.5 L 58.5 235.5 M 54.5 214.5 L 58.5 214.5 M 54.5 193.5 L 58.5 193.5 M 54.5 172.5 L 58.5 172.5 M 54.5 151.5 L 58.5 151.5 M 54.5 130.5 L 58.5 130.5 M 54.5 109.5 L 58.5 109.5 M 54.5 88.5 L 58.5 88.5 M 54.5 67.5 L 58.5 67.5" stroke-opacity="1" stroke-linejoin="bevel" stroke-miterlimit="10" stroke-dasharray=""/><text fill="rgb(68,68,68)" stroke="none" font-family="helvetica" font-size="11px" font-style="normal" font-weight="normal" text-decoration="normal" x="34.46666622161865" y="554.9905395507812" text-anchor="start" dominant-baseline="alphabetic" transform="matrix(1, 0, 0, 1, 0.5, 0.5)" fill-opacity="1">2</text><text fill="rgb(68,68,68)" stroke="none" font-family="helvetica" font-size="11px" font-style="normal" font-weight="normal" text-decoration="normal" x="34.46666622161865" y="449.7178039550781" text-anchor="start" dominant-baseline="alphabetic" transform="matrix(1, 0, 0, 1, 0.5, 0.5)" fill-opacity="1">1</text><text fill="rgb(68,68,68)" stroke="none" font-family="helvetica" font-size="11px" font-style="normal" font-weight="normal" text-decoration="normal" x="40.88333320617676" y="344.445068359375" text-anchor="start" dominant-baseline="alphabetic" transform="matrix(1, 0, 0, 1, 0.5, 0.5)" fill-opacity="1">0</text><text fill="rgb(68,68,68)" stroke="none" font-family="helvetica" font-size="11px" font-style="normal" font-weight="normal" text-decoration="normal" x="40.88333320617676" y="239.17234802246094" text-anchor="start" dominant-baseline="alphabetic" transform="matrix(1, 0, 0, 1, 0.5, 0.5)" fill-opacity="1">1</text><text fill="rgb(68,68,68)" stroke="none" font-family="helvetica" font-size="11px" font-style="normal" font-weight="normal" text-decoration="normal" x="40.88333320617676" y="133.8996124267578" text-anchor="start" dominant-baseline="alphabetic" transform="matrix(1, 0, 0, 1, 0.5, 0.5)" fill-opacity="1">2</text><text fill="rgb(68,68,68)" stroke="none" font-family="helvetica" font-size="15pt" font-style="italic" font-weight="normal" text-decoration="normal" x="-11.316666603088379" y="336.076171875" text-anchor="start" dominant-baseline="alphabetic" transform="matrix(6.123233995736766e-17, -1, 1, 6.123233995736766e-17, -313.53333377838135, 367.46666622161865)" fill-opacity="1">students</text><path fill="rgb(255,255,255)" stroke="rgb(229,229,229)" paint-order="fill" d="M 1128.2333374023438 61.5 L 1326.5 61.5 L 1326.5 400.5 L 1128.2333374023438 400.5 L 1128.2333374023438 61.5" fill-opacity="0.9490196078431372" clip-path="url(#IHxCacnVtkyA)" stroke-opacity="0.5019607843137255" stroke-linejoin="bevel" stroke-miterlimit="10" stroke-dasharray=""/><text fill="rgb(68,68,68)" stroke="none" font-family="helvetica" font-size="13px" font-style="normal" font-weight="normal" text-decoration="normal" x="1162.7333374023438" y="81" text-anchor="start" dominant-baseline="central" clip-path="url(#IHxCacnVtkyA)" transform="matrix(1, 0, 0, 1, 0.5, 0.5)" fill-opacity="1">wavelength</text><path fill="rgb(0,255,40)" stroke="none" paint-order="stroke" d="M 1140.2333374023438 73.5 L 1156.2333374023438 73.5 L 1156.2333374023438 89.5 L 1140.2333374023438 89.5 L 1140.2333374023438 73.5" fill-opacity="1" clip-path="url(#IHxCacnVtkyA)"/><path fill="rgb(216,17,89)" stroke="none" paint-order="stroke" d="M 1140.2333374023438 73.5 L 1156.2333374023438 73.5 L 1156.2333374023438 89.5 L 1140.2333374023438 89.5 L 1140.2333374023438 73.5" fill-opacity="1" clip-path="url(#IHxCacnVtkyA)"/><text fill="rgb(68,68,68)" stroke="none" font-family="helvetica" font-size="13px" font-style="normal" font-weight="normal" text-decoration="normal" x="1162.7333374023438" y="104" text-anchor="start" dominant-baseline="central" clip-path="url(#IHxCacnVtkyA)" transform="matrix(1, 0, 0, 1, 0.5, 0.5)" fill-opacity="1">solution</text><path fill="rgb(251,0,7)" stroke="none" paint-order="stroke" d="M 1140.2333374023438 96.5 L 1156.2333374023438 96.5 L 1156.2333374023438 112.5 L 1140.2333374023438 112.5 L 1140.2333374023438 96.5" fill-opacity="1" clip-path="url(#IHxCacnVtkyA)"/><path fill="rgb(33,131,128)" stroke="none" paint-order="stroke" d="M 1140.2333374023438 96.5 L 1156.2333374023438 96.5 L 1156.2333374023438 112.5 L 1140.2333374023438 112.5 L 1140.2333374023438 96.5" fill-opacity="1" clip-path="url(#IHxCacnVtkyA)"/><text fill="rgb(68,68,68)" stroke="none" font-family="helvetica" font-size="13px" font-style="normal" font-weight="normal" text-decoration="normal" x="1162.7333374023438" y="127" text-anchor="start" dominant-baseline="central" clip-path="url(#IHxCacnVtkyA)" transform="matrix(1, 0, 0, 1, 0.5, 0.5)" fill-opacity="1">laser</text><path fill="rgb(105,29,48)" stroke="none" paint-order="stroke" d="M 1140.2333374023438 119.5 L 1156.2333374023438 119.5 L 1156.2333374023438 135.5 L 1140.2333374023438 135.5 L 1140.2333374023438 119.5" fill-opacity="1" clip-path="url(#IHxCacnVtkyA)"/><text fill="rgb(68,68,68)" stroke="none" font-family="helvetica" font-size="13px" font-style="normal" font-weight="normal" text-decoration="normal" x="1162.7333374023438" y="150" text-anchor="start" dominant-baseline="central" clip-path="url(#IHxCacnVtkyA)" transform="matrix(1, 0, 0, 1, 0.5, 0.5)" fill-opacity="1">ruler</text><path fill="rgb(255,188,66)" stroke="none" paint-order="stroke" d="M 1140.2333374023438 142.5 L 1156.2333374023438 142.5 L 1156.2333374023438 158.5 L 1140.2333374023438 158.5 L 1140.2333374023438 142.5" fill-opacity="1" clip-path="url(#IHxCacnVtkyA)"/><text fill="rgb(68,68,68)" stroke="none" font-family="helvetica" font-size="13px" font-style="normal" font-weight="normal" text-decoration="normal" x="1162.7333374023438" y="173" text-anchor="start" dominant-baseline="central" clip-path="url(#IHxCacnVtkyA)" transform="matrix(1, 0, 0, 1, 0.5, 0.5)" fill-opacity="1">restarts</text><text fill="rgb(68,68,68)" stroke="none" font-family="helvetica" font-size="13px" font-style="normal" font-weight="normal" text-decoration="normal" x="1162.7333374023438" y="196" text-anchor="start" dominant-baseline="central" clip-path="url(#IHxCacnVtkyA)" transform="matrix(1, 0, 0, 1, 0.5, 0.5)" fill-opacity="1">transmittance_absorbance</text><path fill="rgb(162,174,187)" stroke="none" paint-order="stroke" d="M 1140.2333374023438 188.5 L 1156.2333374023438 188.5 L 1156.2333374023438 204.5 L 1140.2333374023438 204.5 L 1140.2333374023438 188.5" fill-opacity="1" clip-path="url(#IHxCacnVtkyA)"/><text fill="rgb(68,68,68)" stroke="none" font-family="helvetica" font-size="13px" font-style="normal" font-weight="normal" text-decoration="normal" x="1162.7333374023438" y="219" text-anchor="start" dominant-baseline="central" clip-path="url(#IHxCacnVtkyA)" transform="matrix(1, 0, 0, 1, 0.5, 0.5)" fill-opacity="1">magnifier</text><text fill="rgb(68,68,68)" stroke="none" font-family="helvetica" font-size="13px" font-style="normal" font-weight="normal" text-decoration="normal" x="1162.7333374023438" y="242" text-anchor="start" dominant-baseline="central" clip-path="url(#IHxCacnVtkyA)" transform="matrix(1, 0, 0, 1, 0.5, 0.5)" fill-opacity="1">concentration</text><path fill="rgb(115,210,222)" stroke="none" paint-order="stroke" d="M 1140.2333374023438 234.5 L 1156.2333374023438 234.5 L 1156.2333374023438 250.5 L 1140.2333374023438 250.5 L 1140.2333374023438 234.5" fill-opacity="1" clip-path="url(#IHxCacnVtkyA)"/><text fill="rgb(68,68,68)" stroke="none" font-family="helvetica" font-size="13px" font-style="normal" font-weight="normal" text-decoration="normal" x="1162.7333374023438" y="265" text-anchor="start" dominant-baseline="central" clip-path="url(#IHxCacnVtkyA)" transform="matrix(1, 0, 0, 1, 0.5, 0.5)" fill-opacity="1">flask</text><path fill="rgb(28,49,68)" stroke="none" paint-order="stroke" d="M 1140.2333374023438 257.5 L 1156.2333374023438 257.5 L 1156.2333374023438 273.5 L 1140.2333374023438 273.5 L 1140.2333374023438 257.5" fill-opacity="1" clip-path="url(#IHxCacnVtkyA)"/><text fill="rgb(68,68,68)" stroke="none" font-family="helvetica" font-size="13px" font-style="normal" font-weight="normal" text-decoration="normal" x="1162.7333374023438" y="288" text-anchor="start" dominant-baseline="central" clip-path="url(#IHxCacnVtkyA)" transform="matrix(1, 0, 0, 1, 0.5, 0.5)" fill-opacity="1">pdf</text><path fill="rgb(239,185,203)" stroke="none" paint-order="stroke" d="M 1140.2333374023438 280.5 L 1156.2333374023438 280.5 L 1156.2333374023438 296.5 L 1140.2333374023438 296.5 L 1140.2333374023438 280.5" fill-opacity="1" clip-path="url(#IHxCacnVtkyA)"/><text fill="rgb(68,68,68)" stroke="none" font-family="helvetica" font-size="13px" font-style="normal" font-weight="normal" text-decoration="normal" x="1162.7333374023438" y="311" text-anchor="start" dominant-baseline="central" clip-path="url(#IHxCacnVtkyA)" transform="matrix(1, 0, 0, 1, 0.5, 0.5)" fill-opacity="1">concentrationlab</text><text fill="rgb(68,68,68)" stroke="none" font-family="helvetica" font-size="13px" font-style="normal" font-weight="normal" text-decoration="normal" x="1162.7333374023438" y="334" text-anchor="start" dominant-baseline="central" clip-path="url(#IHxCacnVtkyA)" transform="matrix(1, 0, 0, 1, 0.5, 0.5)" fill-opacity="1">wavelength_slider</text><path fill="rgb(105,29,48)" stroke="none" paint-order="stroke" d="M 1140.2333374023438 326.5 L 1156.2333374023438 326.5 L 1156.2333374023438 342.5 L 1140.2333374023438 342.5 L 1140.2333374023438 326.5" fill-opacity="1" clip-path="url(#IHxCacnVtkyA)"/><text fill="rgb(68,68,68)" stroke="none" font-family="helvetica" font-size="13px" font-style="normal" font-weight="normal" text-decoration="normal" x="1162.7333374023438" y="357" text-anchor="start" dominant-baseline="central" clip-path="url(#IHxCacnVtkyA)" transform="matrix(1, 0, 0, 1, 0.5, 0.5)" fill-opacity="1">ruler measuring</text><path fill="rgb(255,188,66)" stroke="none" paint-order="stroke" d="M 1140.2333374023438 349.5 L 1156.2333374023438 349.5 L 1156.2333374023438 365.5 L 1140.2333374023438 365.5 L 1140.2333374023438 349.5" fill-opacity="1" clip-path="url(#IHxCacnVtkyA)"/><text fill="rgb(68,68,68)" stroke="none" font-family="helvetica" font-size="13px" font-style="normal" font-weight="normal" text-decoration="normal" x="1162.7333374023438" y="380" text-anchor="start" dominant-baseline="central" clip-path="url(#IHxCacnVtkyA)" transform="matrix(1, 0, 0, 1, 0.5, 0.5)" fill-opacity="1">dependent variable</text><path fill="rgb(143,45,86)" stroke="none" paint-order="stroke" d="M 1140.2333374023438 372.5 L 1156.2333374023438 372.5 L 1156.2333374023438 388.5 L 1140.2333374023438 388.5 L 1140.2333374023438 372.5" fill-opacity="1" clip-path="url(#IHxCacnVtkyA)"/><text fill="rgb(68,68,68)" stroke="none" font-family="helvetica" font-size="25pt" font-style="normal" font-weight="bold" text-decoration="normal" x="58" y="38.740885416666664" text-anchor="start" dominant-baseline="alphabetic" transform="matrix(1, 0, 0, 1, 0.5, 0.5)" fill-opacity="1">Timeline for student m35ub35g with permutation 2013 for task 2</text></svg>