<svg version="1.1" xmlns="http://www.w3.org/2000/svg" width="1366" height="683"><defs><clipPath id="HNfGHpRAEBPh"><path fill="none" stroke="none" d="M 58.5 51.5 L 1336.5 51.5 L 1336.5 630.5 L 58.5 630.5 L 58.5 51.5"/></clipPath><clipPath id="hrPtETozkTNw"><path fill="none" stroke="none" d="M 58.5 51.5 L 1336.5 51.5 L 1336.5 630.5 L 58.5 630.5 L 58.5 51.5"/></clipPath><clipPath id="RcWhgTGEFTei"><path fill="none" stroke="none" d="M 58.5 51.5 L 1336.5 51.5 L 1336.5 630.5 L 58.5 630.5 L 58.5 51.5"/></clipPath><clipPath id="XoLHhydxowHM"><path fill="none" stroke="none" d="M 58.5 51.5 L 1336.5 51.5 L 1336.5 630.5 L 58.5 630.5 L 58.5 51.5"/></clipPath><clipPath id="EUrMoVVOhLOf"><path fill="none" stroke="none" d="M 58.5 51.5 L 1336.5 51.5 L 1336.5 630.5 L 58.5 630.5 L 58.5 51.5"/></clipPath><clipPath id="XTwZTtnLdFyP"><path fill="none" stroke="none" d="M 58.5 51.5 L 1336.5 51.5 L 1336.5 630.5 L 58.5 630.5 L 58.5 51.5"/></clipPath><clipPath id="TEHGpKkBmkaK"><path fill="none" stroke="none" d="M 58.5 51.5 L 1336.5 51.5 L 1336.5 630.5 L 58.5 630.5 L 58.5 51.5"/></clipPath><clipPath id="RedZPKnVeAIW"><path fill="none" stroke="none" d="M 58.5 51.5 L 1336.5 51.5 L 1336.5 630.5 L 58.5 630.5 L 58.5 51.5"/></clipPath><clipPath id="IeBoATOADKxN"><path fill="none" stroke="none" d="M 58.5 51.5 L 1336.5 51.5 L 1336.5 630.5 L 58.5 630.5 L 58.5 51.5"/></clipPath><clipPath id="QErOMPSoiOBe"><path fill="none" stroke="none" d="M 58.5 51.5 L 1336.5 51.5 L 1336.5 630.5 L 58.5 630.5 L 58.5 51.5"/></clipPath><clipPath id="gfzTEaiaROCA"><path fill="none" stroke="none" d="M 58.5 51.5 L 1336.5 51.5 L 1336.5 630.5 L 58.5 630.5 L 58.5 51.5"/></clipPath><clipPath id="PllUOQEBFJGc"><path fill="none" stroke="none" d="M 58.5 51.5 L 1336.5 51.5 L 1336.5 630.5 L 58.5 630.5 L 58.5 51.5"/></clipPath><clipPath id="gqgAcwdnHgaB"><path fill="none" stroke="none" d="M 58.5 51.5 L 1336.5 51.5 L 1336.5 630.5 L 58.5 630.5 L 58.5 51.5"/></clipPath><clipPath id="IXzUqRVCSaDW"><path fill="none" stroke="none" d="M 58.5 51.5 L 1336.5 51.5 L 1336.5 630.5 L 58.5 630.5 L 58.5 51.5"/></clipPath><clipPath id="JsucKKhUzAmu"><path fill="none" stroke="none" d="M 58.5 51.5 L 1336.5 51.5 L 1336.5 630.5 L 58.5 630.5 L 58.5 51.5"/></clipPath><clipPath id="MUtQlGgNNKCy"><path fill="none" stroke="none" d="M 58.5 51.5 L 1336.5 51.5 L 1336.5 630.5 L 58.5 630.5 L 58.5 51.5"/></clipPath><clipPath id="dTVTOgQCtcaA"><path fill="none" stroke="none" d="M 58.5 51.5 L 1336.5 51.5 L 1336.5 630.5 L 58.5 630.5 L 58.5 51.5"/></clipPath><clipPath id="VpsKBBIeaKCB"><path fill="none" stroke="none" d="M 58.5 51.5 L 1336.5 51.5 L 1336.5 630.5 L 58.5 630.5 L 58.5 51.5"/></clipPath><clipPath id="JIOJTkICcXAy"><path fill="none" stroke="none" d="M 58.5 51.5 L 1336.5 51.5 L 1336.5 630.5 L 58.5 630.5 L 58.5 51.5"/></clipPath><clipPath id="XwFHfgllIDDv"><path fill="none" stroke="none" d="M 58.5 51.5 L 1336.5 51.5 L 1336.5 630.5 L 58.5 630.5 L 58.5 51.5"/></clipPath><clipPath id="UdGsOULhyBJA"><path fill="none" stroke="none" d="M 58.5 51.5 L 1336.5 51.5 L 1336.5 630.5 L 58.5 630.5 L 58.5 51.5"/></clipPath></defs><path fill="rgb(255,255,255)" stroke="none" paint-order="stroke" d="M 0.5 0.5 L 1366.5 0.5 L 1366.5 683.5 L 0.5 683.5 L 0.5 0.5" fill-opacity="1"/><rect fill="#FFFFFF" stroke="none" x="58" y="51" width="1278" height="579" transform="matrix(1, 0, 0, 1, 0.5, 0.5)"/><path fill="rgb(255,255,255)" stroke="none" paint-order="stroke" d="M 58.5 51.5 L 1336.5 51.5 L 1336.5 630.5 L 58.5 630.5 L 58.5 51.5" fill-opacity="1"/><path fill="none" stroke="rgb(229,229,229)" paint-order="fill" d="M 58.5 51.5 L 1336.5 51.5 L 1336.5 630.5 L 58.5 630.5 L 58.5 51.5" stroke-opacity="1" stroke-linejoin="bevel" stroke-miterlimit="10" stroke-dasharray=""/><path fill="none" stroke="rgb(229,229,229)" paint-order="fill" d="M 314.5 630.5 L 314.5 51.5 M 569.5 630.5 L 569.5 51.5 M 825.5 630.5 L 825.5 51.5 M 1080.5 630.5 L 1080.5 51.5" stroke-opacity="1" stroke-linejoin="bevel" stroke-miterlimit="10" stroke-dasharray="" clip-path="url(#HNfGHpRAEBPh)"/><path fill="none" stroke="rgb(229,229,229)" paint-order="fill" d="M 58.5 551.5 L 1336.5 551.5 M 58.5 446.5 L 1336.5 446.5 M 58.5 341.5 L 1336.5 341.5 M 58.5 235.5 L 1336.5 235.5 M 58.5 130.5 L 1336.5 130.5" stroke-opacity="1" stroke-linejoin="bevel" stroke-miterlimit="10" stroke-dasharray="" clip-path="url(#hrPtETozkTNw)"/><path fill="rgb(0,255,40)" stroke="none" paint-order="stroke" d="M 58.5 77.81818389892578 L 118.77048110961914 77.81818389892578 L 118.77048110961914 130.45454788208008 L 58.5 130.45454788208008 L 58.5 77.81818389892578" fill-opacity="1" clip-path="url(#RcWhgTGEFTei)"/><path fill="rgb(159,255,0)" stroke="none" paint-order="stroke" d="M 118.77047729492188 77.81818389892578 L 123.03644132614136 77.81818389892578 L 123.03644132614136 130.45454788208008 L 118.77047729492188 130.45454788208008 L 118.77047729492188 77.81818389892578" fill-opacity="1" clip-path="url(#RcWhgTGEFTei)"/><path fill="rgb(102,0,183)" stroke="none" paint-order="stroke" d="M 123.03644561767578 77.81818389892578 L 164.52160263061523 77.81818389892578 L 164.52160263061523 130.45454788208008 L 123.03644561767578 130.45454788208008 L 123.03644561767578 77.81818389892578" fill-opacity="1" clip-path="url(#RcWhgTGEFTei)"/><path fill="rgb(0,255,40)" stroke="none" paint-order="stroke" d="M 164.5216064453125 77.81818389892578 L 171.95701026916504 77.81818389892578 L 171.95701026916504 130.45454788208008 L 164.5216064453125 130.45454788208008 L 164.5216064453125 77.81818389892578" fill-opacity="1" clip-path="url(#RcWhgTGEFTei)"/><path fill="rgb(8,255,0)" stroke="none" paint-order="stroke" d="M 171.95700073242188 77.81818389892578 L 172.00045273080468 77.81818389892578 L 172.00045273080468 130.45454788208008 L 171.95700073242188 130.45454788208008 L 171.95700073242188 77.81818389892578" fill-opacity="1" clip-path="url(#RcWhgTGEFTei)"/><path fill="rgb(66,255,0)" stroke="none" paint-order="stroke" d="M 172.00045776367188 77.81818389892578 L 172.02218376286328 77.81818389892578 L 172.02218376286328 130.45454788208008 L 172.00045776367188 130.45454788208008 L 172.00045776367188 77.81818389892578" fill-opacity="1" clip-path="url(#RcWhgTGEFTei)"/><path fill="rgb(111,255,0)" stroke="none" paint-order="stroke" d="M 172.02218627929688 77.81818389892578 L 172.0451902784407 77.81818389892578 L 172.0451902784407 130.45454788208008 L 172.02218627929688 130.45454788208008 L 172.02218627929688 77.81818389892578" fill-opacity="1" clip-path="url(#RcWhgTGEFTei)"/><path fill="rgb(136,255,0)" stroke="none" paint-order="stroke" d="M 172.04518127441406 77.81818389892578 L 172.07201927527785 77.81818389892578 L 172.07201927527785 130.45454788208008 L 172.04518127441406 130.45454788208008 L 172.04518127441406 77.81818389892578" fill-opacity="1" clip-path="url(#RcWhgTGEFTei)"/><path fill="rgb(162,255,0)" stroke="none" paint-order="stroke" d="M 172.072021484375 77.81818389892578 L 172.09758148528636 77.81818389892578 L 172.09758148528636 130.45454788208008 L 172.072021484375 130.45454788208008 L 172.072021484375 77.81818389892578" fill-opacity="1" clip-path="url(#RcWhgTGEFTei)"/><path fill="rgb(188,255,0)" stroke="none" paint-order="stroke" d="M 172.0975799560547 77.81818389892578 L 172.11802795529366 77.81818389892578 L 172.11802795529366 130.45454788208008 L 172.0975799560547 130.45454788208008 L 172.0975799560547 77.81818389892578" fill-opacity="1" clip-path="url(#RcWhgTGEFTei)"/><path fill="rgb(213,255,0)" stroke="none" paint-order="stroke" d="M 172.11802673339844 77.81818389892578 L 172.13719673268497 77.81818389892578 L 172.13719673268497 130.45454788208008 L 172.11802673339844 130.45454788208008 L 172.11802673339844 77.81818389892578" fill-opacity="1" clip-path="url(#RcWhgTGEFTei)"/><path fill="rgb(222,255,0)" stroke="none" paint-order="stroke" d="M 172.13720703125 77.81818389892578 L 172.15637703053653 77.81818389892578 L 172.15637703053653 130.45454788208008 L 172.13720703125 130.45454788208008 L 172.13720703125 77.81818389892578" fill-opacity="1" clip-path="url(#RcWhgTGEFTei)"/><path fill="rgb(234,255,0)" stroke="none" paint-order="stroke" d="M 172.1563720703125 77.81818389892578 L 172.17298606969416 77.81818389892578 L 172.17298606969416 130.45454788208008 L 172.1563720703125 130.45454788208008 L 172.1563720703125 77.81818389892578" fill-opacity="1" clip-path="url(#RcWhgTGEFTei)"/><path fill="rgb(255,251,0)" stroke="none" paint-order="stroke" d="M 172.17298889160156 77.81818389892578 L 172.1921588908881 77.81818389892578 L 172.1921588908881 130.45454788208008 L 172.17298889160156 130.45454788208008 L 172.17298889160156 77.81818389892578" fill-opacity="1" clip-path="url(#RcWhgTGEFTei)"/><path fill="rgb(255,239,0)" stroke="none" paint-order="stroke" d="M 172.19215393066406 77.81818389892578 L 172.2151579298079 77.81818389892578 L 172.2151579298079 130.45454788208008 L 172.19215393066406 130.45454788208008 L 172.19215393066406 77.81818389892578" fill-opacity="1" clip-path="url(#RcWhgTGEFTei)"/><path fill="rgb(255,226,0)" stroke="none" paint-order="stroke" d="M 172.2151641845703 77.81818389892578 L 172.23689018376172 77.81818389892578 L 172.23689018376172 130.45454788208008 L 172.2151641845703 130.45454788208008 L 172.2151641845703 77.81818389892578" fill-opacity="1" clip-path="url(#RcWhgTGEFTei)"/><path fill="rgb(255,213,0)" stroke="none" paint-order="stroke" d="M 172.2368927001953 77.81818389892578 L 172.25734069943428 77.81818389892578 L 172.25734069943428 130.45454788208008 L 172.2368927001953 130.45454788208008 L 172.2368927001953 77.81818389892578" fill-opacity="1" clip-path="url(#RcWhgTGEFTei)"/><path fill="rgb(255,203,0)" stroke="none" paint-order="stroke" d="M 172.25733947753906 77.81818389892578 L 172.2765094768256 77.81818389892578 L 172.2765094768256 130.45454788208008 L 172.25733947753906 130.45454788208008 L 172.25733947753906 77.81818389892578" fill-opacity="1" clip-path="url(#RcWhgTGEFTei)"/><path fill="rgb(255,190,0)" stroke="none" paint-order="stroke" d="M 172.27650451660156 77.81818389892578 L 172.30078651569784 77.81818389892578 L 172.30078651569784 130.45454788208008 L 172.27650451660156 130.45454788208008 L 172.27650451660156 77.81818389892578" fill-opacity="1" clip-path="url(#RcWhgTGEFTei)"/><path fill="rgb(255,176,0)" stroke="none" paint-order="stroke" d="M 172.30078125 77.81818389892578 L 172.38257324695587 77.81818389892578 L 172.38257324695587 130.45454788208008 L 172.30078125 130.45454788208008 L 172.30078125 77.81818389892578" fill-opacity="1" clip-path="url(#RcWhgTGEFTei)"/><path fill="rgb(255,162,0)" stroke="none" paint-order="stroke" d="M 172.38258361816406 77.81818389892578 L 172.44648361951113 77.81818389892578 L 172.44648361951113 130.45454788208008 L 172.38258361816406 130.45454788208008 L 172.38258361816406 77.81818389892578" fill-opacity="1" clip-path="url(#RcWhgTGEFTei)"/><path fill="rgb(255,148,0)" stroke="none" paint-order="stroke" d="M 172.4464874267578 77.81818389892578 L 172.46949142590165 77.81818389892578 L 172.46949142590165 130.45454788208008 L 172.4464874267578 130.45454788208008 L 172.4464874267578 77.81818389892578" fill-opacity="1" clip-path="url(#RcWhgTGEFTei)"/><path fill="rgb(255,118,0)" stroke="none" paint-order="stroke" d="M 172.469482421875 77.81818389892578 L 172.49504242278636 77.81818389892578 L 172.49504242278636 130.45454788208008 L 172.469482421875 130.45454788208008 L 172.469482421875 77.81818389892578" fill-opacity="1" clip-path="url(#RcWhgTGEFTei)"/><path fill="rgb(255,74,0)" stroke="none" paint-order="stroke" d="M 172.4950408935547 77.81818389892578 L 172.52060089446604 77.81818389892578 L 172.52060089446604 130.45454788208008 L 172.4950408935547 130.45454788208008 L 172.4950408935547 77.81818389892578" fill-opacity="1" clip-path="url(#RcWhgTGEFTei)"/><path fill="rgb(255,57,0)" stroke="none" paint-order="stroke" d="M 172.52059936523438 77.81818389892578 L 172.56021736562252 77.81818389892578 L 172.56021736562252 130.45454788208008 L 172.52059936523438 130.45454788208008 L 172.52059936523438 77.81818389892578" fill-opacity="1" clip-path="url(#RcWhgTGEFTei)"/><path fill="rgb(252,0,0)" stroke="none" paint-order="stroke" d="M 172.5602264404297 77.81818389892578 L 172.57939643971622 77.81818389892578 L 172.57939643971622 130.45454788208008 L 172.5602264404297 130.45454788208008 L 172.5602264404297 77.81818389892578" fill-opacity="1" clip-path="url(#RcWhgTGEFTei)"/><path fill="rgb(246,0,0)" stroke="none" paint-order="stroke" d="M 172.5793914794922 77.81818389892578 L 172.61773147806525 77.81818389892578 L 172.61773147806525 130.45454788208008 L 172.5793914794922 130.45454788208008 L 172.5793914794922 77.81818389892578" fill-opacity="1" clip-path="url(#RcWhgTGEFTei)"/><path fill="rgb(241,0,0)" stroke="none" paint-order="stroke" d="M 172.61773681640625 77.81818389892578 L 172.65991081669927 77.81818389892578 L 172.65991081669927 130.45454788208008 L 172.61773681640625 130.45454788208008 L 172.61773681640625 77.81818389892578" fill-opacity="1" clip-path="url(#RcWhgTGEFTei)"/><path fill="rgb(237,0,0)" stroke="none" paint-order="stroke" d="M 172.659912109375 77.81818389892578 L 172.70592010766268 77.81818389892578 L 172.70592010766268 130.45454788208008 L 172.659912109375 130.45454788208008 L 172.659912109375 77.81818389892578" fill-opacity="1" clip-path="url(#RcWhgTGEFTei)"/><path fill="rgb(231,0,0)" stroke="none" paint-order="stroke" d="M 172.70591735839844 77.81818389892578 L 172.80815736204386 77.81818389892578 L 172.80815736204386 130.45454788208008 L 172.70591735839844 130.45454788208008 L 172.70591735839844 77.81818389892578" fill-opacity="1" clip-path="url(#RcWhgTGEFTei)"/><path fill="rgb(226,0,0)" stroke="none" paint-order="stroke" d="M 172.8081512451172 77.81818389892578 L 172.9397852420807 77.81818389892578 L 172.9397852420807 130.45454788208008 L 172.8081512451172 130.45454788208008 L 172.8081512451172 77.81818389892578" fill-opacity="1" clip-path="url(#RcWhgTGEFTei)"/><path fill="rgb(220,0,0)" stroke="none" paint-order="stroke" d="M 172.93978881835938 77.81818389892578 L 172.9589588176459 77.81818389892578 L 172.9589588176459 130.45454788208008 L 172.93978881835938 130.45454788208008 L 172.93978881835938 77.81818389892578" fill-opacity="1" clip-path="url(#RcWhgTGEFTei)"/><path fill="rgb(209,0,0)" stroke="none" paint-order="stroke" d="M 172.95895385742188 77.81818389892578 L 172.98067985661328 77.81818389892578 L 172.98067985661328 130.45454788208008 L 172.95895385742188 130.45454788208008 L 172.95895385742188 77.81818389892578" fill-opacity="1" clip-path="url(#RcWhgTGEFTei)"/><path fill="rgb(203,0,0)" stroke="none" paint-order="stroke" d="M 172.98068237304688 77.81818389892578 L 173.00752037391067 77.81818389892578 L 173.00752037391067 130.45454788208008 L 172.98068237304688 130.45454788208008 L 172.98068237304688 77.81818389892578" fill-opacity="1" clip-path="url(#RcWhgTGEFTei)"/><path fill="rgb(198,0,0)" stroke="none" paint-order="stroke" d="M 173.0075225830078 77.81818389892578 L 173.0254145823419 77.81818389892578 L 173.0254145823419 130.45454788208008 L 173.0075225830078 130.45454788208008 L 173.0075225830078 77.81818389892578" fill-opacity="1" clip-path="url(#RcWhgTGEFTei)"/><path fill="rgb(193,0,0)" stroke="none" paint-order="stroke" d="M 173.02542114257812 77.81818389892578 L 173.05098114348948 77.81818389892578 L 173.05098114348948 130.45454788208008 L 173.02542114257812 130.45454788208008 L 173.02542114257812 77.81818389892578" fill-opacity="1" clip-path="url(#RcWhgTGEFTei)"/><path fill="rgb(181,0,0)" stroke="none" paint-order="stroke" d="M 173.0509796142578 77.81818389892578 L 173.17111161351204 77.81818389892578 L 173.17111161351204 130.45454788208008 L 173.0509796142578 130.45454788208008 L 173.0509796142578 77.81818389892578" fill-opacity="1" clip-path="url(#RcWhgTGEFTei)"/><path fill="rgb(175,0,0)" stroke="none" paint-order="stroke" d="M 173.17111206054688 77.81818389892578 L 173.2580160573125 77.81818389892578 L 173.2580160573125 130.45454788208008 L 173.17111206054688 130.45454788208008 L 173.17111206054688 77.81818389892578" fill-opacity="1" clip-path="url(#RcWhgTGEFTei)"/><path fill="rgb(163,0,0)" stroke="none" paint-order="stroke" d="M 173.2580108642578 77.81818389892578 L 173.27845886349678 77.81818389892578 L 173.27845886349678 130.45454788208008 L 173.2580108642578 130.45454788208008 L 173.2580108642578 77.81818389892578" fill-opacity="1" clip-path="url(#RcWhgTGEFTei)"/><path fill="rgb(152,0,0)" stroke="none" paint-order="stroke" d="M 173.27845764160156 77.81818389892578 L 173.30018364079297 77.81818389892578 L 173.30018364079297 130.45454788208008 L 173.27845764160156 130.45454788208008 L 173.27845764160156 77.81818389892578" fill-opacity="1" clip-path="url(#RcWhgTGEFTei)"/><path fill="rgb(146,0,0)" stroke="none" paint-order="stroke" d="M 173.30018615722656 77.81818389892578 L 173.32063415646553 77.81818389892578 L 173.32063415646553 130.45454788208008 L 173.30018615722656 130.45454788208008 L 173.30018615722656 77.81818389892578" fill-opacity="1" clip-path="url(#RcWhgTGEFTei)"/><path fill="rgb(133,0,0)" stroke="none" paint-order="stroke" d="M 173.3206329345703 77.81818389892578 L 173.36280693486333 77.81818389892578 L 173.36280693486333 130.45454788208008 L 173.3206329345703 130.45454788208008 L 173.3206329345703 77.81818389892578" fill-opacity="1" clip-path="url(#RcWhgTGEFTei)"/><path fill="rgb(120,0,0)" stroke="none" paint-order="stroke" d="M 173.36280822753906 77.81818389892578 L 173.40626022592187 77.81818389892578 L 173.40626022592187 130.45454788208008 L 173.36280822753906 130.45454788208008 L 173.36280822753906 77.81818389892578" fill-opacity="1" clip-path="url(#RcWhgTGEFTei)"/><path fill="rgb(107,0,0)" stroke="none" paint-order="stroke" d="M 173.40626525878906 77.81818389892578 L 173.5340652614832 77.81818389892578 L 173.5340652614832 130.45454788208008 L 173.40626525878906 130.45454788208008 L 173.40626525878906 77.81818389892578" fill-opacity="1" clip-path="url(#RcWhgTGEFTei)"/><path fill="rgb(102,0,0)" stroke="none" paint-order="stroke" d="M 173.5340576171875 77.81818389892578 L 173.55833961628377 77.81818389892578 L 173.55833961628377 130.45454788208008 L 173.5340576171875 130.45454788208008 L 173.5340576171875 77.81818389892578" fill-opacity="1" clip-path="url(#RcWhgTGEFTei)"/><path fill="rgb(0,0,0)" stroke="none" paint-order="stroke" d="M 173.55833435058594 77.81818389892578 L 173.5787823498249 77.81818389892578 L 173.5787823498249 130.45454788208008 L 173.55833435058594 130.45454788208008 L 173.55833435058594 77.81818389892578" fill-opacity="1" clip-path="url(#RcWhgTGEFTei)"/><path fill="rgb(0,0,0)" stroke="none" paint-order="stroke" d="M 173.5787811279297 77.81818389892578 L 173.59795112721622 77.81818389892578 L 173.59795112721622 130.45454788208008 L 173.5787811279297 130.45454788208008 L 173.5787811279297 77.81818389892578" fill-opacity="1" clip-path="url(#RcWhgTGEFTei)"/><path fill="rgb(0,0,0)" stroke="none" paint-order="stroke" d="M 173.59796142578125 77.81818389892578 L 173.61968742497265 77.81818389892578 L 173.61968742497265 130.45454788208008 L 173.59796142578125 130.45454788208008 L 173.59796142578125 77.81818389892578" fill-opacity="1" clip-path="url(#RcWhgTGEFTei)"/><path fill="rgb(0,0,0)" stroke="none" paint-order="stroke" d="M 173.61968994140625 77.81818389892578 L 173.64397194050252 77.81818389892578 L 173.64397194050252 130.45454788208008 L 173.61968994140625 130.45454788208008 L 173.61968994140625 77.81818389892578" fill-opacity="1" clip-path="url(#RcWhgTGEFTei)"/><path fill="rgb(0,0,0)" stroke="none" paint-order="stroke" d="M 173.6439666748047 77.81818389892578 L 173.68358467519283 77.81818389892578 L 173.68358467519283 130.45454788208008 L 173.6439666748047 130.45454788208008 L 173.6439666748047 77.81818389892578" fill-opacity="1" clip-path="url(#RcWhgTGEFTei)"/><path fill="rgb(0,0,0)" stroke="none" paint-order="stroke" d="M 173.68357849121094 77.81818389892578 L 173.72703048959374 77.81818389892578 L 173.72703048959374 130.45454788208008 L 173.68357849121094 130.45454788208008 L 173.68357849121094 77.81818389892578" fill-opacity="1" clip-path="url(#RcWhgTGEFTei)"/><path fill="rgb(0,0,0)" stroke="none" paint-order="stroke" d="M 173.72703552246094 77.81818389892578 L 175.17373156547546 77.81818389892578 L 175.17373156547546 130.45454788208008 L 173.72703552246094 130.45454788208008 L 173.72703552246094 77.81818389892578" fill-opacity="1" clip-path="url(#RcWhgTGEFTei)"/><path fill="rgb(0,0,0)" stroke="none" paint-order="stroke" d="M 175.17373657226562 77.81818389892578 L 175.21591057255864 77.81818389892578 L 175.21591057255864 130.45454788208008 L 175.17373657226562 130.45454788208008 L 175.17373657226562 77.81818389892578" fill-opacity="1" clip-path="url(#RcWhgTGEFTei)"/><path fill="rgb(0,0,0)" stroke="none" paint-order="stroke" d="M 175.21591186523438 77.81818389892578 L 175.3449898660183 77.81818389892578 L 175.3449898660183 130.45454788208008 L 175.21591186523438 130.45454788208008 L 175.21591186523438 77.81818389892578" fill-opacity="1" clip-path="url(#RcWhgTGEFTei)"/><path fill="rgb(0,0,0)" stroke="none" paint-order="stroke" d="M 175.34498596191406 77.81818389892578 L 175.3679899610579 77.81818389892578 L 175.3679899610579 130.45454788208008 L 175.34498596191406 130.45454788208008 L 175.34498596191406 77.81818389892578" fill-opacity="1" clip-path="url(#RcWhgTGEFTei)"/><path fill="rgb(0,0,0)" stroke="none" paint-order="stroke" d="M 175.36798095703125 77.81818389892578 L 175.42932495847344 77.81818389892578 L 175.42932495847344 130.45454788208008 L 175.36798095703125 130.45454788208008 L 175.36798095703125 77.81818389892578" fill-opacity="1" clip-path="url(#RcWhgTGEFTei)"/><path fill="rgb(0,0,0)" stroke="none" paint-order="stroke" d="M 175.42933654785156 77.81818389892578 L 175.4957925453782 77.81818389892578 L 175.4957925453782 130.45454788208008 L 175.42933654785156 130.45454788208008 L 175.42933654785156 77.81818389892578" fill-opacity="1" clip-path="url(#RcWhgTGEFTei)"/><path fill="rgb(0,0,0)" stroke="none" paint-order="stroke" d="M 175.49578857421875 77.81818389892578 L 175.5354065746069 77.81818389892578 L 175.5354065746069 130.45454788208008 L 175.49578857421875 130.45454788208008 L 175.49578857421875 77.81818389892578" fill-opacity="1" clip-path="url(#RcWhgTGEFTei)"/><path fill="rgb(102,0,0)" stroke="none" paint-order="stroke" d="M 175.535400390625 77.81818389892578 L 175.5788523890078 77.81818389892578 L 175.5788523890078 130.45454788208008 L 175.535400390625 130.45454788208008 L 175.535400390625 77.81818389892578" fill-opacity="1" clip-path="url(#RcWhgTGEFTei)"/><path fill="rgb(107,0,0)" stroke="none" paint-order="stroke" d="M 175.578857421875 77.81818389892578 L 175.66448342055082 77.81818389892578 L 175.66448342055082 130.45454788208008 L 175.578857421875 130.45454788208008 L 175.578857421875 77.81818389892578" fill-opacity="1" clip-path="url(#RcWhgTGEFTei)"/><path fill="rgb(114,0,0)" stroke="none" paint-order="stroke" d="M 175.66448974609375 77.81818389892578 L 175.68621574528515 77.81818389892578 L 175.68621574528515 130.45454788208008 L 175.66448974609375 130.45454788208008 L 175.66448974609375 77.81818389892578" fill-opacity="1" clip-path="url(#RcWhgTGEFTei)"/><path fill="rgb(120,0,0)" stroke="none" paint-order="stroke" d="M 175.6862030029297 77.81818389892578 L 175.7079290021211 77.81818389892578 L 175.7079290021211 130.45454788208008 L 175.6862030029297 130.45454788208008 L 175.6862030029297 77.81818389892578" fill-opacity="1" clip-path="url(#RcWhgTGEFTei)"/><path fill="rgb(133,0,0)" stroke="none" paint-order="stroke" d="M 175.7079315185547 77.81818389892578 L 175.76927551999688 77.81818389892578 L 175.76927551999688 130.45454788208008 L 175.7079315185547 130.45454788208008 L 175.7079315185547 77.81818389892578" fill-opacity="1" clip-path="url(#RcWhgTGEFTei)"/><path fill="rgb(140,0,0)" stroke="none" paint-order="stroke" d="M 175.769287109375 77.81818389892578 L 175.83318711072206 77.81818389892578 L 175.83318711072206 130.45454788208008 L 175.769287109375 130.45454788208008 L 175.769287109375 77.81818389892578" fill-opacity="1" clip-path="url(#RcWhgTGEFTei)"/><path fill="rgb(146,0,0)" stroke="none" paint-order="stroke" d="M 175.8331756591797 77.81818389892578 L 175.8753496594727 77.81818389892578 L 175.8753496594727 130.45454788208008 L 175.8331756591797 130.45454788208008 L 175.8331756591797 77.81818389892578" fill-opacity="1" clip-path="url(#RcWhgTGEFTei)"/><path fill="rgb(157,0,0)" stroke="none" paint-order="stroke" d="M 175.87535095214844 77.81818389892578 L 176.00442895293236 77.81818389892578 L 176.00442895293236 130.45454788208008 L 175.87535095214844 130.45454788208008 L 175.87535095214844 77.81818389892578" fill-opacity="1" clip-path="url(#RcWhgTGEFTei)"/><path fill="rgb(169,0,0)" stroke="none" paint-order="stroke" d="M 176.00442504882812 77.81818389892578 L 176.02615104801953 77.81818389892578 L 176.02615104801953 130.45454788208008 L 176.00442504882812 130.45454788208008 L 176.00442504882812 77.81818389892578" fill-opacity="1" clip-path="url(#RcWhgTGEFTei)"/><path fill="rgb(181,0,0)" stroke="none" paint-order="stroke" d="M 176.02615356445312 77.81818389892578 L 176.04915756359696 77.81818389892578 L 176.04915756359696 130.45454788208008 L 176.02615356445312 130.45454788208008 L 176.02615356445312 77.81818389892578" fill-opacity="1" clip-path="url(#RcWhgTGEFTei)"/><path fill="rgb(193,0,0)" stroke="none" paint-order="stroke" d="M 176.04916381835938 77.81818389892578 L 176.06961181759834 77.81818389892578 L 176.06961181759834 130.45454788208008 L 176.04916381835938 130.45454788208008 L 176.04916381835938 77.81818389892578" fill-opacity="1" clip-path="url(#RcWhgTGEFTei)"/><path fill="rgb(198,0,0)" stroke="none" paint-order="stroke" d="M 176.06961059570312 77.81818389892578 L 176.09261459484696 77.81818389892578 L 176.09261459484696 130.45454788208008 L 176.06961059570312 130.45454788208008 L 176.06961059570312 77.81818389892578" fill-opacity="1" clip-path="url(#RcWhgTGEFTei)"/><path fill="rgb(203,0,0)" stroke="none" paint-order="stroke" d="M 176.09262084960938 77.81818389892578 L 176.19613885134459 77.81818389892578 L 176.19613885134459 130.45454788208008 L 176.09262084960938 130.45454788208008 L 176.09262084960938 77.81818389892578" fill-opacity="1" clip-path="url(#RcWhgTGEFTei)"/><path fill="rgb(209,0,0)" stroke="none" paint-order="stroke" d="M 176.19613647460938 77.81818389892578 L 176.2383104749024 77.81818389892578 L 176.2383104749024 130.45454788208008 L 176.19613647460938 130.45454788208008 L 176.19613647460938 77.81818389892578" fill-opacity="1" clip-path="url(#RcWhgTGEFTei)"/><path fill="rgb(214,0,0)" stroke="none" paint-order="stroke" d="M 176.23831176757812 77.81818389892578 L 176.3022117689252 77.81818389892578 L 176.3022117689252 130.45454788208008 L 176.23831176757812 130.45454788208008 L 176.23831176757812 77.81818389892578" fill-opacity="1" clip-path="url(#RcWhgTGEFTei)"/><path fill="rgb(220,0,0)" stroke="none" paint-order="stroke" d="M 176.3022003173828 77.81818389892578 L 176.38910431414843 77.81818389892578 L 176.38910431414843 130.45454788208008 L 176.3022003173828 130.45454788208008 L 176.3022003173828 77.81818389892578" fill-opacity="1" clip-path="url(#RcWhgTGEFTei)"/><path fill="rgb(226,0,0)" stroke="none" paint-order="stroke" d="M 176.3891143798828 77.81818389892578 L 176.40956237912178 77.81818389892578 L 176.40956237912178 130.45454788208008 L 176.3891143798828 130.45454788208008 L 176.3891143798828 77.81818389892578" fill-opacity="1" clip-path="url(#RcWhgTGEFTei)"/><path fill="rgb(241,0,0)" stroke="none" paint-order="stroke" d="M 176.40956115722656 77.81818389892578 L 176.4325651563704 77.81818389892578 L 176.4325651563704 130.45454788208008 L 176.40956115722656 130.45454788208008 L 176.40956115722656 77.81818389892578" fill-opacity="1" clip-path="url(#RcWhgTGEFTei)"/><path fill="rgb(246,0,0)" stroke="none" paint-order="stroke" d="M 176.43255615234375 77.81818389892578 L 176.45683815144002 77.81818389892578 L 176.45683815144002 130.45454788208008 L 176.43255615234375 130.45454788208008 L 176.43255615234375 77.81818389892578" fill-opacity="1" clip-path="url(#RcWhgTGEFTei)"/><path fill="rgb(255,15,0)" stroke="none" paint-order="stroke" d="M 176.45684814453125 77.81818389892578 L 176.47601814381778 77.81818389892578 L 176.47601814381778 130.45454788208008 L 176.45684814453125 130.45454788208008 L 176.45684814453125 77.81818389892578" fill-opacity="1" clip-path="url(#RcWhgTGEFTei)"/><path fill="rgb(255,37,0)" stroke="none" paint-order="stroke" d="M 176.47601318359375 77.81818389892578 L 176.5015731845051 77.81818389892578 L 176.5015731845051 130.45454788208008 L 176.47601318359375 130.45454788208008 L 176.47601318359375 77.81818389892578" fill-opacity="1" clip-path="url(#RcWhgTGEFTei)"/><path fill="rgb(255,57,0)" stroke="none" paint-order="stroke" d="M 176.50157165527344 77.81818389892578 L 176.53735565394163 77.81818389892578 L 176.53735565394163 130.45454788208008 L 176.50157165527344 130.45454788208008 L 176.50157165527344 77.81818389892578" fill-opacity="1" clip-path="url(#RcWhgTGEFTei)"/><path fill="rgb(255,91,0)" stroke="none" paint-order="stroke" d="M 176.537353515625 77.81818389892578 L 176.56035751476884 77.81818389892578 L 176.56035751476884 130.45454788208008 L 176.537353515625 130.45454788208008 L 176.537353515625 77.81818389892578" fill-opacity="1" clip-path="url(#RcWhgTGEFTei)"/><path fill="rgb(255,103,0)" stroke="none" paint-order="stroke" d="M 176.56036376953125 77.81818389892578 L 176.58464576862752 77.81818389892578 L 176.58464576862752 130.45454788208008 L 176.56036376953125 130.45454788208008 L 176.56036376953125 77.81818389892578" fill-opacity="1" clip-path="url(#RcWhgTGEFTei)"/><path fill="rgb(255,118,0)" stroke="none" paint-order="stroke" d="M 176.5846405029297 77.81818389892578 L 176.62170250341296 77.81818389892578 L 176.62170250341296 130.45454788208008 L 176.5846405029297 130.45454788208008 L 176.5846405029297 77.81818389892578" fill-opacity="1" clip-path="url(#RcWhgTGEFTei)"/><path fill="rgb(255,133,0)" stroke="none" paint-order="stroke" d="M 176.6217041015625 77.81818389892578 L 176.64215210080147 77.81818389892578 L 176.64215210080147 130.45454788208008 L 176.6217041015625 130.45454788208008 L 176.6217041015625 77.81818389892578" fill-opacity="1" clip-path="url(#RcWhgTGEFTei)"/><path fill="rgb(255,148,0)" stroke="none" paint-order="stroke" d="M 176.64215087890625 77.81818389892578 L 176.66387687809765 77.81818389892578 L 176.66387687809765 130.45454788208008 L 176.64215087890625 130.45454788208008 L 176.64215087890625 77.81818389892578" fill-opacity="1" clip-path="url(#RcWhgTGEFTei)"/><path fill="rgb(255,162,0)" stroke="none" paint-order="stroke" d="M 176.66387939453125 77.81818389892578 L 176.70733139291406 77.81818389892578 L 176.70733139291406 130.45454788208008 L 176.66387939453125 130.45454788208008 L 176.66387939453125 77.81818389892578" fill-opacity="1" clip-path="url(#RcWhgTGEFTei)"/><path fill="rgb(255,176,0)" stroke="none" paint-order="stroke" d="M 176.70733642578125 77.81818389892578 L 176.7482324242592 77.81818389892578 L 176.7482324242592 130.45454788208008 L 176.70733642578125 130.45454788208008 L 176.70733642578125 77.81818389892578" fill-opacity="1" clip-path="url(#RcWhgTGEFTei)"/><path fill="rgb(255,190,0)" stroke="none" paint-order="stroke" d="M 176.74822998046875 77.81818389892578 L 176.83641198277473 77.81818389892578 L 176.83641198277473 130.45454788208008 L 176.74822998046875 130.45454788208008 L 176.74822998046875 77.81818389892578" fill-opacity="1" clip-path="url(#RcWhgTGEFTei)"/><path fill="rgb(255,203,0)" stroke="none" paint-order="stroke" d="M 176.83641052246094 77.81818389892578 L 176.87858452275395 77.81818389892578 L 176.87858452275395 130.45454788208008 L 176.83641052246094 130.45454788208008 L 176.83641052246094 77.81818389892578" fill-opacity="1" clip-path="url(#RcWhgTGEFTei)"/><path fill="rgb(255,213,0)" stroke="none" paint-order="stroke" d="M 176.8785858154297 77.81818389892578 L 176.91948181390762 77.81818389892578 L 176.91948181390762 130.45454788208008 L 176.8785858154297 130.45454788208008 L 176.8785858154297 77.81818389892578" fill-opacity="1" clip-path="url(#RcWhgTGEFTei)"/><path fill="rgb(255,226,0)" stroke="none" paint-order="stroke" d="M 176.9194793701172 77.81818389892578 L 176.9629313685 77.81818389892578 L 176.9629313685 130.45454788208008 L 176.9194793701172 130.45454788208008 L 176.9194793701172 77.81818389892578" fill-opacity="1" clip-path="url(#RcWhgTGEFTei)"/><path fill="rgb(255,239,0)" stroke="none" paint-order="stroke" d="M 176.9629364013672 77.81818389892578 L 177.00766640156507 77.81818389892578 L 177.00766640156507 130.45454788208008 L 176.9629364013672 130.45454788208008 L 176.9629364013672 77.81818389892578" fill-opacity="1" clip-path="url(#RcWhgTGEFTei)"/><path fill="rgb(234,255,0)" stroke="none" paint-order="stroke" d="M 177.00765991210938 77.81818389892578 L 177.0485559105873 77.81818389892578 L 177.0485559105873 130.45454788208008 L 177.00765991210938 130.45454788208008 L 177.00765991210938 77.81818389892578" fill-opacity="1" clip-path="url(#RcWhgTGEFTei)"/><path fill="rgb(222,255,0)" stroke="none" paint-order="stroke" d="M 177.04855346679688 77.81818389892578 L 177.09200546517968 77.81818389892578 L 177.09200546517968 130.45454788208008 L 177.04855346679688 130.45454788208008 L 177.04855346679688 77.81818389892578" fill-opacity="1" clip-path="url(#RcWhgTGEFTei)"/><path fill="rgb(201,255,0)" stroke="none" paint-order="stroke" d="M 177.09201049804688 77.81818389892578 L 177.11245849728584 77.81818389892578 L 177.11245849728584 130.45454788208008 L 177.09201049804688 130.45454788208008 L 177.09201049804688 77.81818389892578" fill-opacity="1" clip-path="url(#RcWhgTGEFTei)"/><path fill="rgb(188,255,0)" stroke="none" paint-order="stroke" d="M 177.11245727539062 77.81818389892578 L 177.1329052746296 77.81818389892578 L 177.1329052746296 130.45454788208008 L 177.11245727539062 130.45454788208008 L 177.11245727539062 77.81818389892578" fill-opacity="1" clip-path="url(#RcWhgTGEFTei)"/><path fill="rgb(175,255,0)" stroke="none" paint-order="stroke" d="M 177.13290405273438 77.81818389892578 L 177.1559080518782 77.81818389892578 L 177.1559080518782 130.45454788208008 L 177.13290405273438 130.45454788208008 L 177.13290405273438 77.81818389892578" fill-opacity="1" clip-path="url(#RcWhgTGEFTei)"/><path fill="rgb(162,255,0)" stroke="none" paint-order="stroke" d="M 177.15591430664062 77.81818389892578 L 177.19553230702877 77.81818389892578 L 177.19553230702877 130.45454788208008 L 177.15591430664062 130.45454788208008 L 177.15591430664062 77.81818389892578" fill-opacity="1" clip-path="url(#RcWhgTGEFTei)"/><path fill="rgb(149,255,0)" stroke="none" paint-order="stroke" d="M 177.19552612304688 77.81818389892578 L 177.21725212223828 77.81818389892578 L 177.21725212223828 130.45454788208008 L 177.19552612304688 130.45454788208008 L 177.19552612304688 77.81818389892578" fill-opacity="1" clip-path="url(#RcWhgTGEFTei)"/><path fill="rgb(136,255,0)" stroke="none" paint-order="stroke" d="M 177.21725463867188 77.81818389892578 L 177.2594286389649 77.81818389892578 L 177.2594286389649 130.45454788208008 L 177.21725463867188 130.45454788208008 L 177.21725463867188 77.81818389892578" fill-opacity="1" clip-path="url(#RcWhgTGEFTei)"/><path fill="rgb(122,255,0)" stroke="none" paint-order="stroke" d="M 177.25942993164062 77.81818389892578 L 177.28115593083203 77.81818389892578 L 177.28115593083203 130.45454788208008 L 177.25942993164062 130.45454788208008 L 177.25942993164062 77.81818389892578" fill-opacity="1" clip-path="url(#RcWhgTGEFTei)"/><path fill="rgb(111,255,0)" stroke="none" paint-order="stroke" d="M 177.28115844726562 77.81818389892578 L 177.30288444645703 77.81818389892578 L 177.30288444645703 130.45454788208008 L 177.28115844726562 130.45454788208008 L 177.28115844726562 77.81818389892578" fill-opacity="1" clip-path="url(#RcWhgTGEFTei)"/><path fill="rgb(97,255,0)" stroke="none" paint-order="stroke" d="M 177.30288696289062 77.81818389892578 L 177.34506096318364 77.81818389892578 L 177.34506096318364 130.45454788208008 L 177.30288696289062 130.45454788208008 L 177.30288696289062 77.81818389892578" fill-opacity="1" clip-path="url(#RcWhgTGEFTei)"/><path fill="rgb(82,255,0)" stroke="none" paint-order="stroke" d="M 177.3450469970703 77.81818389892578 L 177.4945729970932 77.81818389892578 L 177.4945729970932 130.45454788208008 L 177.3450469970703 130.45454788208008 L 177.3450469970703 77.81818389892578" fill-opacity="1" clip-path="url(#RcWhgTGEFTei)"/><path fill="rgb(66,255,0)" stroke="none" paint-order="stroke" d="M 177.4945831298828 77.81818389892578 L 177.53803512826562 77.81818389892578 L 177.53803512826562 130.45454788208008 L 177.4945831298828 130.45454788208008 L 177.4945831298828 77.81818389892578" fill-opacity="1" clip-path="url(#RcWhgTGEFTei)"/><path fill="rgb(49,255,0)" stroke="none" paint-order="stroke" d="M 177.53802490234375 77.81818389892578 L 177.5610289014876 77.81818389892578 L 177.5610289014876 130.45454788208008 L 177.53802490234375 130.45454788208008 L 177.53802490234375 77.81818389892578" fill-opacity="1" clip-path="url(#RcWhgTGEFTei)"/><path fill="rgb(30,255,0)" stroke="none" paint-order="stroke" d="M 177.56103515625 77.81818389892578 L 177.5827611554414 77.81818389892578 L 177.5827611554414 130.45454788208008 L 177.56103515625 130.45454788208008 L 177.56103515625 77.81818389892578" fill-opacity="1" clip-path="url(#RcWhgTGEFTei)"/><path fill="rgb(8,255,0)" stroke="none" paint-order="stroke" d="M 177.582763671875 77.81818389892578 L 177.60193367116153 77.81818389892578 L 177.60193367116153 130.45454788208008 L 177.582763671875 130.45454788208008 L 177.582763671875 77.81818389892578" fill-opacity="1" clip-path="url(#RcWhgTGEFTei)"/><path fill="rgb(0,255,97)" stroke="none" paint-order="stroke" d="M 177.6019287109375 77.81818389892578 L 177.62621071003377 77.81818389892578 L 177.62621071003377 130.45454788208008 L 177.6019287109375 130.45454788208008 L 177.6019287109375 77.81818389892578" fill-opacity="1" clip-path="url(#RcWhgTGEFTei)"/><path fill="rgb(0,255,146)" stroke="none" paint-order="stroke" d="M 177.626220703125 77.81818389892578 L 177.64922470226884 77.81818389892578 L 177.64922470226884 130.45454788208008 L 177.626220703125 130.45454788208008 L 177.626220703125 77.81818389892578" fill-opacity="1" clip-path="url(#RcWhgTGEFTei)"/><path fill="rgb(0,255,191)" stroke="none" paint-order="stroke" d="M 177.6492156982422 77.81818389892578 L 177.68627769872546 77.81818389892578 L 177.68627769872546 130.45454788208008 L 177.6492156982422 130.45454788208008 L 177.6492156982422 77.81818389892578" fill-opacity="1" clip-path="url(#RcWhgTGEFTei)"/><path fill="rgb(0,246,255)" stroke="none" paint-order="stroke" d="M 177.686279296875 77.81818389892578 L 177.70928329601884 77.81818389892578 L 177.70928329601884 130.45454788208008 L 177.686279296875 130.45454788208008 L 177.686279296875 77.81818389892578" fill-opacity="1" clip-path="url(#RcWhgTGEFTei)"/><path fill="rgb(0,230,255)" stroke="none" paint-order="stroke" d="M 177.70928955078125 77.81818389892578 L 177.72845955006778 77.81818389892578 L 177.72845955006778 130.45454788208008 L 177.70928955078125 130.45454788208008 L 177.70928955078125 77.81818389892578" fill-opacity="1" clip-path="url(#RcWhgTGEFTei)"/><path fill="rgb(0,213,255)" stroke="none" paint-order="stroke" d="M 177.72845458984375 77.81818389892578 L 177.7936325892806 77.81818389892578 L 177.7936325892806 130.45454788208008 L 177.72845458984375 130.45454788208008 L 177.72845458984375 77.81818389892578" fill-opacity="1" clip-path="url(#RcWhgTGEFTei)"/><path fill="rgb(0,200,255)" stroke="none" paint-order="stroke" d="M 177.7936248779297 77.81818389892578 L 177.8153508771211 77.81818389892578 L 177.8153508771211 130.45454788208008 L 177.7936248779297 130.45454788208008 L 177.7936248779297 77.81818389892578" fill-opacity="1" clip-path="url(#RcWhgTGEFTei)"/><path fill="rgb(0,164,255)" stroke="none" paint-order="stroke" d="M 177.8153533935547 77.81818389892578 L 177.83452339284122 77.81818389892578 L 177.83452339284122 130.45454788208008 L 177.8153533935547 130.45454788208008 L 177.8153533935547 77.81818389892578" fill-opacity="1" clip-path="url(#RcWhgTGEFTei)"/><path fill="rgb(0,146,255)" stroke="none" paint-order="stroke" d="M 177.83453369140625 77.81818389892578 L 177.85625969059765 77.81818389892578 L 177.85625969059765 130.45454788208008 L 177.83453369140625 130.45454788208008 L 177.83453369140625 77.81818389892578" fill-opacity="1" clip-path="url(#RcWhgTGEFTei)"/><path fill="rgb(0,127,255)" stroke="none" paint-order="stroke" d="M 177.8562469482422 77.81818389892578 L 177.8779729474336 77.81818389892578 L 177.8779729474336 130.45454788208008 L 177.8562469482422 130.45454788208008 L 177.8562469482422 77.81818389892578" fill-opacity="1" clip-path="url(#RcWhgTGEFTei)"/><path fill="rgb(0,86,255)" stroke="none" paint-order="stroke" d="M 177.8779754638672 77.81818389892578 L 177.9201494641602 77.81818389892578 L 177.9201494641602 130.45454788208008 L 177.8779754638672 130.45454788208008 L 177.8779754638672 77.81818389892578" fill-opacity="1" clip-path="url(#RcWhgTGEFTei)"/><path fill="rgb(0,64,255)" stroke="none" paint-order="stroke" d="M 177.92015075683594 77.81818389892578 L 177.9405987560749 77.81818389892578 L 177.9405987560749 130.45454788208008 L 177.92015075683594 130.45454788208008 L 177.92015075683594 77.81818389892578" fill-opacity="1" clip-path="url(#RcWhgTGEFTei)"/><path fill="rgb(0,46,255)" stroke="none" paint-order="stroke" d="M 177.9405975341797 77.81818389892578 L 177.9623235333711 77.81818389892578 L 177.9623235333711 130.45454788208008 L 177.9405975341797 130.45454788208008 L 177.9405975341797 77.81818389892578" fill-opacity="1" clip-path="url(#RcWhgTGEFTei)"/><path fill="rgb(16,0,250)" stroke="none" paint-order="stroke" d="M 177.9623260498047 77.81818389892578 L 177.9840520489961 77.81818389892578 L 177.9840520489961 130.45454788208008 L 177.9623260498047 130.45454788208008 L 177.9623260498047 77.81818389892578" fill-opacity="1" clip-path="url(#RcWhgTGEFTei)"/><path fill="rgb(38,0,240)" stroke="none" paint-order="stroke" d="M 177.9840545654297 77.81818389892578 L 178.00705856457353 77.81818389892578 L 178.00705856457353 130.45454788208008 L 177.9840545654297 130.45454788208008 L 177.9840545654297 77.81818389892578" fill-opacity="1" clip-path="url(#RcWhgTGEFTei)"/><path fill="rgb(55,0,230)" stroke="none" paint-order="stroke" d="M 178.00706481933594 77.81818389892578 L 178.04796081781387 77.81818389892578 L 178.04796081781387 130.45454788208008 L 178.00706481933594 130.45454788208008 L 178.00706481933594 77.81818389892578" fill-opacity="1" clip-path="url(#RcWhgTGEFTei)"/><path fill="rgb(87,0,203)" stroke="none" paint-order="stroke" d="M 178.04795837402344 77.81818389892578 L 178.1131363734603 77.81818389892578 L 178.1131363734603 130.45454788208008 L 178.04795837402344 130.45454788208008 L 178.04795837402344 77.81818389892578" fill-opacity="1" clip-path="url(#RcWhgTGEFTei)"/><path fill="rgb(96,0,193)" stroke="none" paint-order="stroke" d="M 178.11312866210938 77.81818389892578 L 178.15785866230726 77.81818389892578 L 178.15785866230726 130.45454788208008 L 178.11312866210938 130.45454788208008 L 178.11312866210938 77.81818389892578" fill-opacity="1" clip-path="url(#RcWhgTGEFTei)"/><path fill="rgb(102,0,183)" stroke="none" paint-order="stroke" d="M 178.15786743164062 77.81818389892578 L 178.19876343011856 77.81818389892578 L 178.19876343011856 130.45454788208008 L 178.15786743164062 130.45454788208008 L 178.15786743164062 77.81818389892578" fill-opacity="1" clip-path="url(#RcWhgTGEFTei)"/><path fill="rgb(107,0,172)" stroke="none" paint-order="stroke" d="M 178.19876098632812 77.81818389892578 L 178.22048698551953 77.81818389892578 L 178.22048698551953 130.45454788208008 L 178.19876098632812 130.45454788208008 L 178.19876098632812 77.81818389892578" fill-opacity="1" clip-path="url(#RcWhgTGEFTei)"/><path fill="rgb(110,0,162)" stroke="none" paint-order="stroke" d="M 178.22048950195312 77.81818389892578 L 178.26138550043106 77.81818389892578 L 178.26138550043106 130.45454788208008 L 178.22048950195312 130.45454788208008 L 178.22048950195312 77.81818389892578" fill-opacity="1" clip-path="url(#RcWhgTGEFTei)"/><path fill="rgb(111,0,151)" stroke="none" paint-order="stroke" d="M 178.26138305664062 77.81818389892578 L 178.34828705340624 77.81818389892578 L 178.34828705340624 130.45454788208008 L 178.26138305664062 130.45454788208008 L 178.26138305664062 77.81818389892578" fill-opacity="1" clip-path="url(#RcWhgTGEFTei)"/><path fill="rgb(111,0,140)" stroke="none" paint-order="stroke" d="M 178.34828186035156 77.81818389892578 L 178.41090386360884 77.81818389892578 L 178.41090386360884 130.45454788208008 L 178.34828186035156 130.45454788208008 L 178.34828186035156 77.81818389892578" fill-opacity="1" clip-path="url(#RcWhgTGEFTei)"/><path fill="rgb(110,0,129)" stroke="none" paint-order="stroke" d="M 178.41090393066406 77.81818389892578 L 178.5387039333582 77.81818389892578 L 178.5387039333582 130.45454788208008 L 178.41090393066406 130.45454788208008 L 178.41090393066406 77.81818389892578" fill-opacity="1" clip-path="url(#RcWhgTGEFTei)"/><path fill="rgb(107,0,120)" stroke="none" paint-order="stroke" d="M 178.53871154785156 77.81818389892578 L 178.6665115505457 77.81818389892578 L 178.6665115505457 130.45454788208008 L 178.53871154785156 130.45454788208008 L 178.53871154785156 77.81818389892578" fill-opacity="1" clip-path="url(#RcWhgTGEFTei)"/><path fill="rgb(103,0,109)" stroke="none" paint-order="stroke" d="M 178.66650390625 77.81818389892578 L 178.68950790539384 77.81818389892578 L 178.68950790539384 130.45454788208008 L 178.66650390625 130.45454788208008 L 178.66650390625 77.81818389892578" fill-opacity="1" clip-path="url(#RcWhgTGEFTei)"/><path fill="rgb(97,0,97)" stroke="none" paint-order="stroke" d="M 178.68951416015625 77.81818389892578 L 180.2844581604004 77.81818389892578 L 180.2844581604004 130.45454788208008 L 178.68951416015625 130.45454788208008 L 178.68951416015625 77.81818389892578" fill-opacity="1" clip-path="url(#RcWhgTGEFTei)"/><path fill="rgb(107,0,120)" stroke="none" paint-order="stroke" d="M 180.28445434570312 77.81818389892578 L 180.32662834599614 77.81818389892578 L 180.32662834599614 130.45454788208008 L 180.28445434570312 130.45454788208008 L 180.28445434570312 77.81818389892578" fill-opacity="1" clip-path="url(#RcWhgTGEFTei)"/><path fill="rgb(110,0,129)" stroke="none" paint-order="stroke" d="M 180.32662963867188 77.81818389892578 L 180.3496336378157 77.81818389892578 L 180.3496336378157 130.45454788208008 L 180.32662963867188 130.45454788208008 L 180.32662963867188 77.81818389892578" fill-opacity="1" clip-path="url(#RcWhgTGEFTei)"/><path fill="rgb(110,0,162)" stroke="none" paint-order="stroke" d="M 180.34962463378906 77.81818389892578 L 180.37007263302803 77.81818389892578 L 180.37007263302803 130.45454788208008 L 180.34962463378906 130.45454788208008 L 180.34962463378906 77.81818389892578" fill-opacity="1" clip-path="url(#RcWhgTGEFTei)"/><path fill="rgb(102,0,183)" stroke="none" paint-order="stroke" d="M 180.37008666992188 77.81818389892578 L 180.39053466916084 77.81818389892578 L 180.39053466916084 130.45454788208008 L 180.37008666992188 130.45454788208008 L 180.37008666992188 77.81818389892578" fill-opacity="1" clip-path="url(#RcWhgTGEFTei)"/><path fill="rgb(87,0,203)" stroke="none" paint-order="stroke" d="M 180.39053344726562 77.81818389892578 L 180.41225944645703 77.81818389892578 L 180.41225944645703 130.45454788208008 L 180.39053344726562 130.45454788208008 L 180.39053344726562 77.81818389892578" fill-opacity="1" clip-path="url(#RcWhgTGEFTei)"/><path fill="rgb(80,0,211)" stroke="none" paint-order="stroke" d="M 180.41224670410156 77.81818389892578 L 180.43397270329297 77.81818389892578 L 180.43397270329297 130.45454788208008 L 180.41224670410156 130.45454788208008 L 180.41224670410156 77.81818389892578" fill-opacity="1" clip-path="url(#RcWhgTGEFTei)"/><path fill="rgb(38,0,240)" stroke="none" paint-order="stroke" d="M 180.43397521972656 77.81818389892578 L 180.45570121891797 77.81818389892578 L 180.45570121891797 130.45454788208008 L 180.43397521972656 130.45454788208008 L 180.43397521972656 77.81818389892578" fill-opacity="1" clip-path="url(#RcWhgTGEFTei)"/><path fill="rgb(16,0,250)" stroke="none" paint-order="stroke" d="M 180.45570373535156 77.81818389892578 L 180.47615173459053 77.81818389892578 L 180.47615173459053 130.45454788208008 L 180.45570373535156 130.45454788208008 L 180.45570373535156 77.81818389892578" fill-opacity="1" clip-path="url(#RcWhgTGEFTei)"/><path fill="rgb(0,19,255)" stroke="none" paint-order="stroke" d="M 180.4761505126953 77.81818389892578 L 180.49787651188672 77.81818389892578 L 180.49787651188672 130.45454788208008 L 180.4761505126953 130.45454788208008 L 180.4761505126953 77.81818389892578" fill-opacity="1" clip-path="url(#RcWhgTGEFTei)"/><path fill="rgb(0,64,255)" stroke="none" paint-order="stroke" d="M 180.4978790283203 77.81818389892578 L 180.51832702755928 77.81818389892578 L 180.51832702755928 130.45454788208008 L 180.4978790283203 130.45454788208008 L 180.4978790283203 77.81818389892578" fill-opacity="1" clip-path="url(#RcWhgTGEFTei)"/><path fill="rgb(0,86,255)" stroke="none" paint-order="stroke" d="M 180.51832580566406 77.81818389892578 L 180.56177780404687 77.81818389892578 L 180.56177780404687 130.45454788208008 L 180.51832580566406 130.45454788208008 L 180.51832580566406 77.81818389892578" fill-opacity="1" clip-path="url(#RcWhgTGEFTei)"/><path fill="rgb(0,127,255)" stroke="none" paint-order="stroke" d="M 180.56178283691406 77.81818389892578 L 180.60395683720708 77.81818389892578 L 180.60395683720708 130.45454788208008 L 180.56178283691406 130.45454788208008 L 180.56178283691406 77.81818389892578" fill-opacity="1" clip-path="url(#RcWhgTGEFTei)"/><path fill="rgb(0,146,255)" stroke="none" paint-order="stroke" d="M 180.6039581298828 77.81818389892578 L 180.62440612912178 77.81818389892578 L 180.62440612912178 130.45454788208008 L 180.6039581298828 130.45454788208008 L 180.6039581298828 77.81818389892578" fill-opacity="1" clip-path="url(#RcWhgTGEFTei)"/><path fill="rgb(0,182,255)" stroke="none" paint-order="stroke" d="M 180.62440490722656 77.81818389892578 L 180.64613090641797 77.81818389892578 L 180.64613090641797 130.45454788208008 L 180.62440490722656 130.45454788208008 L 180.62440490722656 77.81818389892578" fill-opacity="1" clip-path="url(#RcWhgTGEFTei)"/><path fill="rgb(0,200,255)" stroke="none" paint-order="stroke" d="M 180.64613342285156 77.81818389892578 L 180.68958542123437 77.81818389892578 L 180.68958542123437 130.45454788208008 L 180.64613342285156 130.45454788208008 L 180.64613342285156 77.81818389892578" fill-opacity="1" clip-path="url(#RcWhgTGEFTei)"/><path fill="rgb(0,213,255)" stroke="none" paint-order="stroke" d="M 180.6895751953125 77.81818389892578 L 180.71513519622386 77.81818389892578 L 180.71513519622386 130.45454788208008 L 180.6895751953125 130.45454788208008 L 180.6895751953125 77.81818389892578" fill-opacity="1" clip-path="url(#RcWhgTGEFTei)"/><path fill="rgb(0,230,255)" stroke="none" paint-order="stroke" d="M 180.7151336669922 77.81818389892578 L 180.75347366556525 77.81818389892578 L 180.75347366556525 130.45454788208008 L 180.7151336669922 130.45454788208008 L 180.7151336669922 77.81818389892578" fill-opacity="1" clip-path="url(#RcWhgTGEFTei)"/><path fill="rgb(0,255,191)" stroke="none" paint-order="stroke" d="M 180.75347900390625 77.81818389892578 L 180.7790390048176 77.81818389892578 L 180.7790390048176 130.45454788208008 L 180.75347900390625 130.45454788208008 L 180.75347900390625 77.81818389892578" fill-opacity="1" clip-path="url(#RcWhgTGEFTei)"/><path fill="rgb(0,255,146)" stroke="none" paint-order="stroke" d="M 180.77903747558594 77.81818389892578 L 180.79820747487247 77.81818389892578 L 180.79820747487247 130.45454788208008 L 180.77903747558594 130.45454788208008 L 180.77903747558594 77.81818389892578" fill-opacity="1" clip-path="url(#RcWhgTGEFTei)"/><path fill="rgb(30,255,0)" stroke="none" paint-order="stroke" d="M 180.79820251464844 77.81818389892578 L 180.81992851383984 77.81818389892578 L 180.81992851383984 130.45454788208008 L 180.79820251464844 130.45454788208008 L 180.79820251464844 77.81818389892578" fill-opacity="1" clip-path="url(#RcWhgTGEFTei)"/><path fill="rgb(66,255,0)" stroke="none" paint-order="stroke" d="M 180.81993103027344 77.81818389892578 L 180.8403790295124 77.81818389892578 L 180.8403790295124 130.45454788208008 L 180.81993103027344 130.45454788208008 L 180.81993103027344 77.81818389892578" fill-opacity="1" clip-path="url(#RcWhgTGEFTei)"/><path fill="rgb(82,255,0)" stroke="none" paint-order="stroke" d="M 180.8403778076172 77.81818389892578 L 180.86721580848098 77.81818389892578 L 180.86721580848098 130.45454788208008 L 180.8403778076172 130.45454788208008 L 180.8403778076172 77.81818389892578" fill-opacity="1" clip-path="url(#RcWhgTGEFTei)"/><path fill="rgb(122,255,0)" stroke="none" paint-order="stroke" d="M 180.86721801757812 77.81818389892578 L 180.9042800180614 77.81818389892578 L 180.9042800180614 130.45454788208008 L 180.86721801757812 130.45454788208008 L 180.86721801757812 77.81818389892578" fill-opacity="1" clip-path="url(#RcWhgTGEFTei)"/><path fill="rgb(136,255,0)" stroke="none" paint-order="stroke" d="M 180.90428161621094 77.81818389892578 L 180.99118561297655 77.81818389892578 L 180.99118561297655 130.45454788208008 L 180.90428161621094 130.45454788208008 L 180.90428161621094 77.81818389892578" fill-opacity="1" clip-path="url(#RcWhgTGEFTei)"/><path fill="rgb(149,255,0)" stroke="none" paint-order="stroke" d="M 180.99118041992188 77.81818389892578 L 181.00907241925597 77.81818389892578 L 181.00907241925597 130.45454788208008 L 180.99118041992188 130.45454788208008 L 180.99118041992188 77.81818389892578" fill-opacity="1" clip-path="url(#RcWhgTGEFTei)"/><path fill="rgb(162,255,0)" stroke="none" paint-order="stroke" d="M 181.0090789794922 77.81818389892578 L 181.07297898083925 77.81818389892578 L 181.07297898083925 130.45454788208008 L 181.0090789794922 130.45454788208008 L 181.0090789794922 77.81818389892578" fill-opacity="1" clip-path="url(#RcWhgTGEFTei)"/><path fill="rgb(175,255,0)" stroke="none" paint-order="stroke" d="M 181.07298278808594 77.81818389892578 L 181.11515678837895 77.81818389892578 L 181.11515678837895 130.45454788208008 L 181.07298278808594 130.45454788208008 L 181.07298278808594 77.81818389892578" fill-opacity="1" clip-path="url(#RcWhgTGEFTei)"/><path fill="rgb(188,255,0)" stroke="none" paint-order="stroke" d="M 181.1151580810547 77.81818389892578 L 181.19950608164072 77.81818389892578 L 181.19950608164072 130.45454788208008 L 181.1151580810547 130.45454788208008 L 181.1151580810547 77.81818389892578" fill-opacity="1" clip-path="url(#RcWhgTGEFTei)"/><path fill="rgb(201,255,0)" stroke="none" paint-order="stroke" d="M 181.1995086669922 77.81818389892578 L 181.2212346661836 77.81818389892578 L 181.2212346661836 130.45454788208008 L 181.1995086669922 130.45454788208008 L 181.1995086669922 77.81818389892578" fill-opacity="1" clip-path="url(#RcWhgTGEFTei)"/><path fill="rgb(213,255,0)" stroke="none" paint-order="stroke" d="M 181.22122192382812 77.81818389892578 L 181.3285739272833 77.81818389892578 L 181.3285739272833 130.45454788208008 L 181.22122192382812 130.45454788208008 L 181.22122192382812 77.81818389892578" fill-opacity="1" clip-path="url(#RcWhgTGEFTei)"/><path fill="rgb(222,255,0)" stroke="none" paint-order="stroke" d="M 181.32858276367188 77.81818389892578 L 181.3707567639649 77.81818389892578 L 181.3707567639649 130.45454788208008 L 181.32858276367188 130.45454788208008 L 181.32858276367188 77.81818389892578" fill-opacity="1" clip-path="url(#RcWhgTGEFTei)"/><path fill="rgb(234,255,0)" stroke="none" paint-order="stroke" d="M 181.37075805664062 77.81818389892578 L 181.45638405531645 77.81818389892578 L 181.45638405531645 130.45454788208008 L 181.37075805664062 130.45454788208008 L 181.37075805664062 77.81818389892578" fill-opacity="1" clip-path="url(#RcWhgTGEFTei)"/><path fill="rgb(246,255,0)" stroke="none" paint-order="stroke" d="M 181.4563751220703 77.81818389892578 L 181.49982712045312 77.81818389892578 L 181.49982712045312 130.45454788208008 L 181.4563751220703 130.45454788208008 L 181.4563751220703 77.81818389892578" fill-opacity="1" clip-path="url(#RcWhgTGEFTei)"/><path fill="rgb(255,251,0)" stroke="none" paint-order="stroke" d="M 181.4998321533203 77.81818389892578 L 181.54200615361333 77.81818389892578 L 181.54200615361333 130.45454788208008 L 181.4998321533203 130.45454788208008 L 181.4998321533203 77.81818389892578" fill-opacity="1" clip-path="url(#RcWhgTGEFTei)"/><path fill="rgb(255,239,0)" stroke="none" paint-order="stroke" d="M 181.54200744628906 77.81818389892578 L 182.15928143262863 77.81818389892578 L 182.15928143262863 130.45454788208008 L 181.54200744628906 130.45454788208008 L 181.54200744628906 77.81818389892578" fill-opacity="1" clip-path="url(#RcWhgTGEFTei)"/><path fill="rgb(255,226,0)" stroke="none" paint-order="stroke" d="M 182.15928649902344 77.81818389892578 L 182.28708650171757 77.81818389892578 L 182.28708650171757 130.45454788208008 L 182.15928649902344 130.45454788208008 L 182.15928649902344 77.81818389892578" fill-opacity="1" clip-path="url(#RcWhgTGEFTei)"/><path fill="rgb(255,213,0)" stroke="none" paint-order="stroke" d="M 182.28707885742188 77.81818389892578 L 182.33180885761976 77.81818389892578 L 182.33180885761976 130.45454788208008 L 182.28707885742188 130.45454788208008 L 182.28707885742188 77.81818389892578" fill-opacity="1" clip-path="url(#RcWhgTGEFTei)"/><path fill="rgb(255,190,0)" stroke="none" paint-order="stroke" d="M 182.33181762695312 77.81818389892578 L 182.41488762944937 77.81818389892578 L 182.41488762944937 130.45454788208008 L 182.33181762695312 130.45454788208008 L 182.33181762695312 77.81818389892578" fill-opacity="1" clip-path="url(#RcWhgTGEFTei)"/><path fill="rgb(255,176,0)" stroke="none" paint-order="stroke" d="M 182.41488647460938 77.81818389892578 L 182.62703447043896 77.81818389892578 L 182.62703447043896 130.45454788208008 L 182.41488647460938 130.45454788208008 L 182.41488647460938 77.81818389892578" fill-opacity="1" clip-path="url(#RcWhgTGEFTei)"/><path fill="rgb(255,162,0)" stroke="none" paint-order="stroke" d="M 182.6270294189453 77.81818389892578 L 199.21802520751953 77.81818389892578 L 199.21802520751953 130.45454788208008 L 182.6270294189453 130.45454788208008 L 182.6270294189453 77.81818389892578" fill-opacity="1" clip-path="url(#RcWhgTGEFTei)"/><path fill="rgb(255,169,0)" stroke="none" paint-order="stroke" d="M 199.218017578125 77.81818389892578 L 199.72921758890152 77.81818389892578 L 199.72921758890152 130.45454788208008 L 199.218017578125 130.45454788208008 L 199.218017578125 77.81818389892578" fill-opacity="1" clip-path="url(#RcWhgTGEFTei)"/><path fill="rgb(255,155,0)" stroke="none" paint-order="stroke" d="M 199.72921752929688 77.81818389892578 L 199.7713915295899 77.81818389892578 L 199.7713915295899 130.45454788208008 L 199.72921752929688 130.45454788208008 L 199.72921752929688 77.81818389892578" fill-opacity="1" clip-path="url(#RcWhgTGEFTei)"/><path fill="rgb(255,141,0)" stroke="none" paint-order="stroke" d="M 199.77139282226562 77.81818389892578 L 199.83657082170248 77.81818389892578 L 199.83657082170248 130.45454788208008 L 199.77139282226562 130.45454788208008 L 199.77139282226562 77.81818389892578" fill-opacity="1" clip-path="url(#RcWhgTGEFTei)"/><path fill="rgb(255,126,0)" stroke="none" paint-order="stroke" d="M 199.83657836914062 77.81818389892578 L 199.87875236943364 77.81818389892578 L 199.87875236943364 130.45454788208008 L 199.83657836914062 130.45454788208008 L 199.83657836914062 77.81818389892578" fill-opacity="1" clip-path="url(#RcWhgTGEFTei)"/><path fill="rgb(255,111,0)" stroke="none" paint-order="stroke" d="M 199.87875366210938 77.81818389892578 L 199.9209276624024 77.81818389892578 L 199.9209276624024 130.45454788208008 L 199.87875366210938 130.45454788208008 L 199.87875366210938 77.81818389892578" fill-opacity="1" clip-path="url(#RcWhgTGEFTei)"/><path fill="rgb(255,95,0)" stroke="none" paint-order="stroke" d="M 199.92092895507812 77.81818389892578 L 199.96310295537114 77.81818389892578 L 199.96310295537114 130.45454788208008 L 199.92092895507812 130.45454788208008 L 199.92092895507812 77.81818389892578" fill-opacity="1" clip-path="url(#RcWhgTGEFTei)"/><path fill="rgb(255,83,0)" stroke="none" paint-order="stroke" d="M 199.96310424804688 77.81818389892578 L 200.00655624642968 77.81818389892578 L 200.00655624642968 130.45454788208008 L 199.96310424804688 130.45454788208008 L 199.96310424804688 77.81818389892578" fill-opacity="1" clip-path="url(#RcWhgTGEFTei)"/><path fill="rgb(255,66,0)" stroke="none" paint-order="stroke" d="M 200.0065460205078 77.81818389892578 L 200.09089402109385 77.81818389892578 L 200.09089402109385 130.45454788208008 L 200.0065460205078 130.45454788208008 L 200.0065460205078 77.81818389892578" fill-opacity="1" clip-path="url(#RcWhgTGEFTei)"/><path fill="rgb(255,47,0)" stroke="none" paint-order="stroke" d="M 200.0908966064453 77.81818389892578 L 200.15479660779238 77.81818389892578 L 200.15479660779238 130.45454788208008 L 200.0908966064453 130.45454788208008 L 200.0908966064453 77.81818389892578" fill-opacity="1" clip-path="url(#RcWhgTGEFTei)"/><path fill="rgb(255,27,0)" stroke="none" paint-order="stroke" d="M 200.15480041503906 77.81818389892578 L 200.21997841447592 77.81818389892578 L 200.21997841447592 130.45454788208008 L 200.15480041503906 130.45454788208008 L 200.15480041503906 77.81818389892578" fill-opacity="1" clip-path="url(#RcWhgTGEFTei)"/><path fill="rgb(255,0,0)" stroke="none" paint-order="stroke" d="M 200.219970703125 77.81818389892578 L 200.26214470341802 77.81818389892578 L 200.26214470341802 130.45454788208008 L 200.219970703125 130.45454788208008 L 200.219970703125 77.81818389892578" fill-opacity="1" clip-path="url(#RcWhgTGEFTei)"/><path fill="rgb(249,0,0)" stroke="none" paint-order="stroke" d="M 200.26214599609375 77.81818389892578 L 200.32604599744081 77.81818389892578 L 200.32604599744081 130.45454788208008 L 200.26214599609375 130.45454788208008 L 200.26214599609375 77.81818389892578" fill-opacity="1" clip-path="url(#RcWhgTGEFTei)"/><path fill="rgb(244,0,0)" stroke="none" paint-order="stroke" d="M 200.3260498046875 77.81818389892578 L 200.4321238026023 77.81818389892578 L 200.4321238026023 130.45454788208008 L 200.3260498046875 130.45454788208008 L 200.3260498046875 77.81818389892578" fill-opacity="1" clip-path="url(#RcWhgTGEFTei)"/><path fill="rgb(239,0,0)" stroke="none" paint-order="stroke" d="M 200.43212890625 77.81818389892578 L 200.52670090645552 77.81818389892578 L 200.52670090645552 130.45454788208008 L 200.43212890625 130.45454788208008 L 200.43212890625 77.81818389892578" fill-opacity="1" clip-path="url(#RcWhgTGEFTei)"/><path fill="rgb(228,0,0)" stroke="none" paint-order="stroke" d="M 200.52670288085938 77.81818389892578 L 200.58165688067675 77.81818389892578 L 200.58165688067675 130.45454788208008 L 200.52670288085938 130.45454788208008 L 200.52670288085938 77.81818389892578" fill-opacity="1" clip-path="url(#RcWhgTGEFTei)"/><path fill="rgb(223,0,0)" stroke="none" paint-order="stroke" d="M 200.58164978027344 77.81818389892578 L 200.7337317764759 77.81818389892578 L 200.7337317764759 130.45454788208008 L 200.58164978027344 130.45454788208008 L 200.58164978027344 77.81818389892578" fill-opacity="1" clip-path="url(#RcWhgTGEFTei)"/><path fill="rgb(217,0,0)" stroke="none" paint-order="stroke" d="M 200.73373413085938 77.81818389892578 L 200.81680413335562 77.81818389892578 L 200.81680413335562 130.45454788208008 L 200.73373413085938 130.45454788208008 L 200.73373413085938 77.81818389892578" fill-opacity="1" clip-path="url(#RcWhgTGEFTei)"/><path fill="rgb(211,0,0)" stroke="none" paint-order="stroke" d="M 200.81680297851562 77.81818389892578 L 200.85897697880864 77.81818389892578 L 200.85897697880864 130.45454788208008 L 200.81680297851562 130.45454788208008 L 200.81680297851562 77.81818389892578" fill-opacity="1" clip-path="url(#RcWhgTGEFTei)"/><path fill="rgb(206,0,0)" stroke="none" paint-order="stroke" d="M 200.85897827148438 77.81818389892578 L 200.9867782741785 77.81818389892578 L 200.9867782741785 130.45454788208008 L 200.85897827148438 130.45454788208008 L 200.85897827148438 77.81818389892578" fill-opacity="1" clip-path="url(#RcWhgTGEFTei)"/><path fill="rgb(200,0,0)" stroke="none" paint-order="stroke" d="M 200.9867706298828 77.81818389892578 L 201.02894463017583 77.81818389892578 L 201.02894463017583 130.45454788208008 L 200.9867706298828 130.45454788208008 L 200.9867706298828 77.81818389892578" fill-opacity="1" clip-path="url(#RcWhgTGEFTei)"/><path fill="rgb(196,0,0)" stroke="none" paint-order="stroke" d="M 201.02894592285156 77.81818389892578 L 201.11457192152739 77.81818389892578 L 201.11457192152739 130.45454788208008 L 201.02894592285156 130.45454788208008 L 201.02894592285156 77.81818389892578" fill-opacity="1" clip-path="url(#RcWhgTGEFTei)"/><path fill="rgb(190,0,0)" stroke="none" paint-order="stroke" d="M 201.1145782470703 77.81818389892578 L 201.17847824841738 77.81818389892578 L 201.17847824841738 130.45454788208008 L 201.1145782470703 130.45454788208008 L 201.1145782470703 77.81818389892578" fill-opacity="1" clip-path="url(#RcWhgTGEFTei)"/><path fill="rgb(184,0,0)" stroke="none" paint-order="stroke" d="M 201.17848205566406 77.81818389892578 L 201.26410805433989 77.81818389892578 L 201.26410805433989 130.45454788208008 L 201.17848205566406 130.45454788208008 L 201.17848205566406 77.81818389892578" fill-opacity="1" clip-path="url(#RcWhgTGEFTei)"/><path fill="rgb(178,0,0)" stroke="none" paint-order="stroke" d="M 201.26409912109375 77.81818389892578 L 201.34716912359 77.81818389892578 L 201.34716912359 130.45454788208008 L 201.26409912109375 130.45454788208008 L 201.26409912109375 77.81818389892578" fill-opacity="1" clip-path="url(#RcWhgTGEFTei)"/><path fill="rgb(172,0,0)" stroke="none" paint-order="stroke" d="M 201.34716796875 77.81818389892578 L 201.3906199671328 77.81818389892578 L 201.3906199671328 130.45454788208008 L 201.34716796875 130.45454788208008 L 201.34716796875 77.81818389892578" fill-opacity="1" clip-path="url(#RcWhgTGEFTei)"/><path fill="rgb(166,0,0)" stroke="none" paint-order="stroke" d="M 201.390625 77.81818389892578 L 201.43279900029302 77.81818389892578 L 201.43279900029302 130.45454788208008 L 201.390625 130.45454788208008 L 201.390625 77.81818389892578" fill-opacity="1" clip-path="url(#RcWhgTGEFTei)"/><path fill="rgb(160,0,0)" stroke="none" paint-order="stroke" d="M 201.43280029296875 77.81818389892578 L 201.53887429088354 77.81818389892578 L 201.53887429088354 130.45454788208008 L 201.43280029296875 130.45454788208008 L 201.43280029296875 77.81818389892578" fill-opacity="1" clip-path="url(#RcWhgTGEFTei)"/><path fill="rgb(154,0,0)" stroke="none" paint-order="stroke" d="M 201.53887939453125 77.81818389892578 L 201.68968339264393 77.81818389892578 L 201.68968339264393 130.45454788208008 L 201.53887939453125 130.45454788208008 L 201.53887939453125 77.81818389892578" fill-opacity="1" clip-path="url(#RcWhgTGEFTei)"/><path fill="rgb(149,0,0)" stroke="none" paint-order="stroke" d="M 201.68968200683594 77.81818389892578 L 201.7523040100932 77.81818389892578 L 201.7523040100932 130.45454788208008 L 201.68968200683594 130.45454788208008 L 201.68968200683594 77.81818389892578" fill-opacity="1" clip-path="url(#RcWhgTGEFTei)"/><path fill="rgb(143,0,0)" stroke="none" paint-order="stroke" d="M 201.75230407714844 77.81818389892578 L 201.79447807744145 77.81818389892578 L 201.79447807744145 130.45454788208008 L 201.75230407714844 130.45454788208008 L 201.75230407714844 77.81818389892578" fill-opacity="1" clip-path="url(#RcWhgTGEFTei)"/><path fill="rgb(137,0,0)" stroke="none" paint-order="stroke" d="M 201.7944793701172 77.81818389892578 L 201.8379313685 77.81818389892578 L 201.8379313685 130.45454788208008 L 201.7944793701172 130.45454788208008 L 201.7944793701172 77.81818389892578" fill-opacity="1" clip-path="url(#RcWhgTGEFTei)"/><path fill="rgb(130,0,0)" stroke="none" paint-order="stroke" d="M 201.83792114257812 77.81818389892578 L 201.86348114348948 77.81818389892578 L 201.86348114348948 130.45454788208008 L 201.83792114257812 130.45454788208008 L 201.83792114257812 77.81818389892578" fill-opacity="1" clip-path="url(#RcWhgTGEFTei)"/><path fill="rgb(124,0,0)" stroke="none" paint-order="stroke" d="M 201.8634796142578 77.81818389892578 L 201.8877616133541 77.81818389892578 L 201.8877616133541 130.45454788208008 L 201.8634796142578 130.45454788208008 L 201.8634796142578 77.81818389892578" fill-opacity="1" clip-path="url(#RcWhgTGEFTei)"/><path fill="rgb(117,0,0)" stroke="none" paint-order="stroke" d="M 201.8877716064453 77.81818389892578 L 201.9235556051135 77.81818389892578 L 201.9235556051135 130.45454788208008 L 201.8877716064453 130.45454788208008 L 201.8877716064453 77.81818389892578" fill-opacity="1" clip-path="url(#RcWhgTGEFTei)"/><path fill="rgb(110,0,0)" stroke="none" paint-order="stroke" d="M 201.92355346679688 77.81818389892578 L 201.96700546517968 77.81818389892578 L 201.96700546517968 130.45454788208008 L 201.92355346679688 130.45454788208008 L 201.92355346679688 77.81818389892578" fill-opacity="1" clip-path="url(#RcWhgTGEFTei)"/><path fill="rgb(105,0,0)" stroke="none" paint-order="stroke" d="M 201.9669952392578 77.81818389892578 L 202.09351724386215 77.81818389892578 L 202.09351724386215 130.45454788208008 L 201.9669952392578 130.45454788208008 L 201.9669952392578 77.81818389892578" fill-opacity="1" clip-path="url(#RcWhgTGEFTei)"/><path fill="rgb(99,0,0)" stroke="none" paint-order="stroke" d="M 202.09352111816406 77.81818389892578 L 202.11524711735547 77.81818389892578 L 202.11524711735547 130.45454788208008 L 202.09352111816406 130.45454788208008 L 202.09352111816406 77.81818389892578" fill-opacity="1" clip-path="url(#RcWhgTGEFTei)"/><path fill="rgb(0,0,0)" stroke="none" paint-order="stroke" d="M 202.11524963378906 77.81818389892578 L 202.13697563298047 77.81818389892578 L 202.13697563298047 130.45454788208008 L 202.11524963378906 130.45454788208008 L 202.11524963378906 77.81818389892578" fill-opacity="1" clip-path="url(#RcWhgTGEFTei)"/><path fill="rgb(0,0,0)" stroke="none" paint-order="stroke" d="M 202.13697814941406 77.81818389892578 L 202.15870414860547 77.81818389892578 L 202.15870414860547 130.45454788208008 L 202.13697814941406 130.45454788208008 L 202.13697814941406 77.81818389892578" fill-opacity="1" clip-path="url(#RcWhgTGEFTei)"/><path fill="rgb(0,0,0)" stroke="none" paint-order="stroke" d="M 202.15870666503906 77.81818389892578 L 202.18298866413534 77.81818389892578 L 202.18298866413534 130.45454788208008 L 202.15870666503906 130.45454788208008 L 202.15870666503906 77.81818389892578" fill-opacity="1" clip-path="url(#RcWhgTGEFTei)"/><path fill="rgb(0,0,0)" stroke="none" paint-order="stroke" d="M 202.1829833984375 77.81818389892578 L 202.22515739873052 77.81818389892578 L 202.22515739873052 130.45454788208008 L 202.1829833984375 130.45454788208008 L 202.1829833984375 77.81818389892578" fill-opacity="1" clip-path="url(#RcWhgTGEFTei)"/><path fill="rgb(0,0,0)" stroke="none" paint-order="stroke" d="M 202.22515869140625 77.81818389892578 L 202.30567269027233 77.81818389892578 L 202.30567269027233 130.45454788208008 L 202.22515869140625 130.45454788208008 L 202.22515869140625 77.81818389892578" fill-opacity="1" clip-path="url(#RcWhgTGEFTei)"/><path fill="rgb(0,0,0)" stroke="none" paint-order="stroke" d="M 202.30567932128906 77.81818389892578 L 202.34785332158208 77.81818389892578 L 202.34785332158208 130.45454788208008 L 202.30567932128906 130.45454788208008 L 202.30567932128906 77.81818389892578" fill-opacity="1" clip-path="url(#RcWhgTGEFTei)"/><path fill="rgb(0,0,0)" stroke="none" paint-order="stroke" d="M 202.34783935546875 77.81818389892578 L 202.47819535434246 77.81818389892578 L 202.47819535434246 130.45454788208008 L 202.34783935546875 130.45454788208008 L 202.34783935546875 77.81818389892578" fill-opacity="1" clip-path="url(#RcWhgTGEFTei)"/><path fill="rgb(0,0,0)" stroke="none" paint-order="stroke" d="M 202.4781951904297 77.81818389892578 L 210.26121520996094 77.81818389892578 L 210.26121520996094 130.45454788208008 L 202.4781951904297 130.45454788208008 L 202.4781951904297 77.81818389892578" fill-opacity="1" clip-path="url(#RcWhgTGEFTei)"/><path fill="rgb(251,0,7)" stroke="none" paint-order="stroke" d="M 58.5 130.4545440673828 L 118.77048110961914 130.4545440673828 L 118.77048110961914 183.0909080505371 L 58.5 183.0909080505371 L 58.5 130.4545440673828" fill-opacity="1" clip-path="url(#XoLHhydxowHM)"/><path fill="rgb(251,0,7)" stroke="none" paint-order="stroke" d="M 118.77047729492188 130.4545440673828 L 123.03644132614136 130.4545440673828 L 123.03644132614136 183.0909080505371 L 118.77047729492188 183.0909080505371 L 118.77047729492188 130.4545440673828" fill-opacity="1" clip-path="url(#XoLHhydxowHM)"/><path fill="rgb(255,255,10)" stroke="none" paint-order="stroke" d="M 123.03644561767578 130.4545440673828 L 164.52160263061523 130.4545440673828 L 164.52160263061523 183.0909080505371 L 123.03644561767578 183.0909080505371 L 123.03644561767578 130.4545440673828" fill-opacity="1" clip-path="url(#XoLHhydxowHM)"/><path fill="rgb(251,0,7)" stroke="none" paint-order="stroke" d="M 164.5216064453125 130.4545440673828 L 210.26122665405273 130.4545440673828 L 210.26122665405273 183.0909080505371 L 164.5216064453125 183.0909080505371 L 164.5216064453125 130.4545440673828" fill-opacity="1" clip-path="url(#XoLHhydxowHM)"/><path fill="rgb(105,29,48)" stroke="none" paint-order="stroke" d="M 128.93824768066406 183.09091186523438 L 129.00214768201113 183.09091186523438 L 129.00214768201113 498.9090881347656 L 128.93824768066406 498.9090881347656 L 128.93824768066406 183.09091186523438" fill-opacity="1" clip-path="url(#EUrMoVVOhLOf)"/><path fill="rgb(255,188,66)" stroke="none" paint-order="stroke" d="M 135.2209014892578 183.09091186523438 L 136.40560746192932 183.09091186523438 L 136.40560746192932 498.9090881347656 L 135.2209014892578 498.9090881347656 L 135.2209014892578 183.09091186523438" fill-opacity="1" clip-path="url(#XTwZTtnLdFyP)"/><path fill="rgb(255,188,66)" stroke="none" paint-order="stroke" d="M 137.57113647460938 183.09091186523438 L 138.19224447011948 183.09091186523438 L 138.19224447011948 498.9090881347656 L 137.57113647460938 498.9090881347656 L 137.57113647460938 183.09091186523438" fill-opacity="1" clip-path="url(#XTwZTtnLdFyP)"/><path fill="rgb(255,188,66)" stroke="none" paint-order="stroke" d="M 139.04978942871094 183.09091186523438 L 151.98314952850342 183.09091186523438 L 151.98314952850342 498.9090881347656 L 139.04978942871094 498.9090881347656 L 139.04978942871094 183.09091186523438" fill-opacity="1" clip-path="url(#XTwZTtnLdFyP)"/><path fill="rgb(216,17,89)" stroke="none" paint-order="stroke" d="M 80.88288879394531 183.09091186523438 L 80.94678879529238 183.09091186523438 L 80.94678879529238 498.9090881347656 L 80.88288879394531 498.9090881347656 L 80.88288879394531 183.09091186523438" fill-opacity="1" clip-path="url(#QErOMPSoiOBe)"/><path fill="rgb(216,17,89)" stroke="none" paint-order="stroke" d="M 80.88288879394531 183.09091186523438 L 80.94678879529238 183.09091186523438 L 80.94678879529238 498.9090881347656 L 80.88288879394531 498.9090881347656 L 80.88288879394531 183.09091186523438" fill-opacity="1" clip-path="url(#QErOMPSoiOBe)"/><path fill="rgb(216,17,89)" stroke="none" paint-order="stroke" d="M 81.99347686767578 183.09091186523438 L 82.05737686902285 183.09091186523438 L 82.05737686902285 498.9090881347656 L 81.99347686767578 498.9090881347656 L 81.99347686767578 183.09091186523438" fill-opacity="1" clip-path="url(#QErOMPSoiOBe)"/><path fill="rgb(216,17,89)" stroke="none" paint-order="stroke" d="M 81.99347686767578 183.09091186523438 L 82.05737686902285 183.09091186523438 L 82.05737686902285 498.9090881347656 L 81.99347686767578 498.9090881347656 L 81.99347686767578 183.09091186523438" fill-opacity="1" clip-path="url(#QErOMPSoiOBe)"/><path fill="rgb(216,17,89)" stroke="none" paint-order="stroke" d="M 126.92667388916016 183.09091186523438 L 126.99057389050722 183.09091186523438 L 126.99057389050722 498.9090881347656 L 126.92667388916016 498.9090881347656 L 126.92667388916016 183.09091186523438" fill-opacity="1" clip-path="url(#QErOMPSoiOBe)"/><path fill="rgb(216,17,89)" stroke="none" paint-order="stroke" d="M 126.92667388916016 183.09091186523438 L 126.99057389050722 183.09091186523438 L 126.99057389050722 498.9090881347656 L 126.92667388916016 498.9090881347656 L 126.92667388916016 183.09091186523438" fill-opacity="1" clip-path="url(#QErOMPSoiOBe)"/><path fill="rgb(216,17,89)" stroke="none" paint-order="stroke" d="M 128.08837890625 183.09091186523438 L 128.15227890759706 183.09091186523438 L 128.15227890759706 498.9090881347656 L 128.08837890625 498.9090881347656 L 128.08837890625 183.09091186523438" fill-opacity="1" clip-path="url(#QErOMPSoiOBe)"/><path fill="rgb(216,17,89)" stroke="none" paint-order="stroke" d="M 170.40679931640625 183.09091186523438 L 170.47069931775331 183.09091186523438 L 170.47069931775331 498.9090881347656 L 170.40679931640625 498.9090881347656 L 170.40679931640625 183.09091186523438" fill-opacity="1" clip-path="url(#QErOMPSoiOBe)"/><path fill="rgb(33,131,128)" stroke="none" paint-order="stroke" d="M 115.3888931274414 183.09091186523438 L 118.77048110961914 183.09091186523438 L 118.77048110961914 498.9090881347656 L 115.3888931274414 498.9090881347656 L 115.3888931274414 183.09091186523438" fill-opacity="1" clip-path="url(#gfzTEaiaROCA)"/><path fill="rgb(33,131,128)" stroke="none" paint-order="stroke" d="M 121.42616271972656 183.09091186523438 L 123.03644275665283 183.09091186523438 L 123.03644275665283 498.9090881347656 L 121.42616271972656 498.9090881347656 L 121.42616271972656 183.09091186523438" fill-opacity="1" clip-path="url(#gfzTEaiaROCA)"/><path fill="rgb(33,131,128)" stroke="none" paint-order="stroke" d="M 161.4377899169922 183.09091186523438 L 164.52160382270813 183.09091186523438 L 164.52160382270813 498.9090881347656 L 161.4377899169922 498.9090881347656 L 161.4377899169922 183.09091186523438" fill-opacity="1" clip-path="url(#gfzTEaiaROCA)"/><path fill="rgb(115,210,222)" stroke="none" paint-order="stroke" d="M 191.73277282714844 183.09091186523438 L 196.18532466888428 183.09091186523438 L 196.18532466888428 498.9090881347656 L 191.73277282714844 498.9090881347656 L 191.73277282714844 183.09091186523438" fill-opacity="1" clip-path="url(#PllUOQEBFJGc)"/><path fill="rgb(28,49,68)" stroke="none" paint-order="stroke" d="M 152.82278442382812 183.09091186523438 L 158.16865825653076 183.09091186523438 L 158.16865825653076 498.9090881347656 L 152.82278442382812 498.9090881347656 L 152.82278442382812 183.09091186523438" fill-opacity="1" clip-path="url(#gqgAcwdnHgaB)"/><path fill="rgb(239,185,203)" stroke="none" paint-order="stroke" d="M 89.779052734375 183.09091186523438 L 107.17902183532715 183.09091186523438 L 107.17902183532715 498.9090881347656 L 89.779052734375 498.9090881347656 L 89.779052734375 183.09091186523438" fill-opacity="1" clip-path="url(#IXzUqRVCSaDW)"/><path fill="rgb(105,29,48)" stroke="none" paint-order="stroke" d="M 171.7589111328125 183.09091186523438 L 183.0819911956787 183.09091186523438 L 183.0819911956787 498.9090881347656 L 171.7589111328125 498.9090881347656 L 171.7589111328125 183.09091186523438" fill-opacity="1" clip-path="url(#MUtQlGgNNKCy)"/><path fill="rgb(105,29,48)" stroke="none" paint-order="stroke" d="M 199.18862915039062 183.09091186523438 L 204.45271110534668 183.09091186523438 L 204.45271110534668 498.9090881347656 L 199.18862915039062 498.9090881347656 L 199.18862915039062 183.09091186523438" fill-opacity="1" clip-path="url(#MUtQlGgNNKCy)"/><path fill="rgb(255,188,66)" stroke="none" paint-order="stroke" d="M 142.7802734375 498.9090881347656 L 143.61097341775894 498.9090881347656 L 143.61097341775894 551.5454521179199 L 142.7802734375 551.5454521179199 L 142.7802734375 498.9090881347656" fill-opacity="1" clip-path="url(#dTVTOgQCtcaA)"/><path fill="rgb(255,188,66)" stroke="none" paint-order="stroke" d="M 146.5720977783203 498.9090881347656 L 150.04314589500427 498.9090881347656 L 150.04314589500427 551.5454521179199 L 146.5720977783203 551.5454521179199 L 146.5720977783203 498.9090881347656" fill-opacity="1" clip-path="url(#dTVTOgQCtcaA)"/><path fill="rgb(255,188,66)" stroke="none" paint-order="stroke" d="M 150.19650268554688 498.9090881347656 L 210.26122283935547 498.9090881347656 L 210.26122283935547 551.5454521179199 L 150.19650268554688 551.5454521179199 L 150.19650268554688 498.9090881347656" fill-opacity="1" clip-path="url(#dTVTOgQCtcaA)"/><path fill="rgb(143,45,86)" stroke="none" paint-order="stroke" d="M 58.5 551.5454711914062 L 128.93824768066406 551.5454711914062 L 128.93824768066406 604.1818351745605 L 58.5 604.1818351745605 L 58.5 551.5454711914062" fill-opacity="1" clip-path="url(#VpsKBBIeaKCB)"/><path fill="rgb(63,136,197)" stroke="none" paint-order="stroke" d="M 128.93824768066406 551.5454711914062 L 210.26122283935547 551.5454711914062 L 210.26122283935547 604.1818351745605 L 128.93824768066406 604.1818351745605 L 128.93824768066406 551.5454711914062" fill-opacity="1" clip-path="url(#VpsKBBIeaKCB)"/><path fill="none" stroke="rgb(0,0,0)" paint-order="fill" d="M 58.5 77.81818389892578 L 210.26121520996094 77.81818389892578 L 210.26121520996094 604.1818313598633 L 58.5 604.1818313598633 L 58.5 77.81818389892578" stroke-opacity="1" stroke-linejoin="bevel" stroke-miterlimit="10" stroke-dasharray="" clip-path="url(#JIOJTkICcXAy)"/><path fill="none" stroke="rgb(0,0,0)" paint-order="fill" d="M 58.5 630.5 L 1336.5 630.5" stroke-opacity="1" stroke-linejoin="bevel" stroke-miterlimit="10" stroke-dasharray=""/><path fill="none" stroke="rgb(0,0,0)" paint-order="fill" d="M 58.5 636.5 L 58.5 628.5 M 314.5 636.5 L 314.5 628.5 M 569.5 636.5 L 569.5 628.5 M 825.5 636.5 L 825.5 628.5 M 1080.5 636.5 L 1080.5 628.5 M 1336.5 636.5 L 1336.5 628.5" stroke-opacity="1" stroke-linejoin="bevel" stroke-miterlimit="10" stroke-dasharray=""/><path fill="none" stroke="rgb(0,0,0)" paint-order="fill" d="M 58.5 634.5 L 58.5 630.5 M 109.5 634.5 L 109.5 630.5 M 160.5 634.5 L 160.5 630.5 M 211.5 634.5 L 211.5 630.5 M 262.5 634.5 L 262.5 630.5 M 314.5 634.5 L 314.5 630.5 M 365.5 634.5 L 365.5 630.5 M 416.5 634.5 L 416.5 630.5 M 467.5 634.5 L 467.5 630.5 M 518.5 634.5 L 518.5 630.5 M 569.5 634.5 L 569.5 630.5 M 620.5 634.5 L 620.5 630.5 M 671.5 634.5 L 671.5 630.5 M 723.5 634.5 L 723.5 630.5 M 774.5 634.5 L 774.5 630.5 M 825.5 634.5 L 825.5 630.5 M 876.5 634.5 L 876.5 630.5 M 927.5 634.5 L 927.5 630.5 M 978.5 634.5 L 978.5 630.5 M 1029.5 634.5 L 1029.5 630.5 M 1080.5 634.5 L 1080.5 630.5 M 1132.5 634.5 L 1132.5 630.5 M 1183.5 634.5 L 1183.5 630.5 M 1234.5 634.5 L 1234.5 630.5 M 1285.5 634.5 L 1285.5 630.5 M 1336.5 634.5 L 1336.5 630.5" stroke-opacity="1" stroke-linejoin="bevel" stroke-miterlimit="10" stroke-dasharray=""/><text fill="rgb(68,68,68)" stroke="none" font-family="helvetica" font-size="11px" font-style="normal" font-weight="normal" text-decoration="normal" x="54.94166660308838" y="648.89013671875" text-anchor="start" dominant-baseline="alphabetic" transform="matrix(1, 0, 0, 1, 0.5, 0.5)" fill-opacity="1">0</text><text fill="rgb(68,68,68)" stroke="none" font-family="helvetica" font-size="11px" font-style="normal" font-weight="normal" text-decoration="normal" x="304.42500591278076" y="648.89013671875" text-anchor="start" dominant-baseline="alphabetic" transform="matrix(1, 0, 0, 1, 0.5, 0.5)" fill-opacity="1">200</text><text fill="rgb(68,68,68)" stroke="none" font-family="helvetica" font-size="11px" font-style="normal" font-weight="normal" text-decoration="normal" x="560.0250120162964" y="648.89013671875" text-anchor="start" dominant-baseline="alphabetic" transform="matrix(1, 0, 0, 1, 0.5, 0.5)" fill-opacity="1">400</text><text fill="rgb(68,68,68)" stroke="none" font-family="helvetica" font-size="11px" font-style="normal" font-weight="normal" text-decoration="normal" x="815.6249876022339" y="648.89013671875" text-anchor="start" dominant-baseline="alphabetic" transform="matrix(1, 0, 0, 1, 0.5, 0.5)" fill-opacity="1">600</text><text fill="rgb(68,68,68)" stroke="none" font-family="helvetica" font-size="11px" font-style="normal" font-weight="normal" text-decoration="normal" x="1071.2250242233276" y="648.89013671875" text-anchor="start" dominant-baseline="alphabetic" transform="matrix(1, 0, 0, 1, 0.5, 0.5)" fill-opacity="1">800</text><text fill="rgb(68,68,68)" stroke="none" font-family="helvetica" font-size="11px" font-style="normal" font-weight="normal" text-decoration="normal" x="1323.7666664123535" y="648.89013671875" text-anchor="start" dominant-baseline="alphabetic" transform="matrix(1, 0, 0, 1, 0.5, 0.5)" fill-opacity="1">1000</text><text fill="rgb(68,68,68)" stroke="none" font-family="helvetica" font-size="15pt" font-style="italic" font-weight="normal" text-decoration="normal" x="666.4416675567627" y="676.06982421875" text-anchor="start" dominant-baseline="alphabetic" transform="matrix(1, 0, 0, 1, 0.5, 0.5)" fill-opacity="1">time(s)</text><path fill="none" stroke="rgb(0,0,0)" paint-order="fill" d="M 58.5 630.5 L 58.5 51.5" stroke-opacity="1" stroke-linejoin="bevel" stroke-miterlimit="10" stroke-dasharray=""/><path fill="none" stroke="rgb(0,0,0)" paint-order="fill" d="M 52.5 551.5 L 60.5 551.5 M 52.5 446.5 L 60.5 446.5 M 52.5 341.5 L 60.5 341.5 M 52.5 235.5 L 60.5 235.5 M 52.5 130.5 L 60.5 130.5" stroke-opacity="1" stroke-linejoin="bevel" stroke-miterlimit="10" stroke-dasharray=""/><path fill="none" stroke="rgb(0,0,0)" paint-order="fill" d="M 54.5 572.5 L 58.5 572.5 M 54.5 593.5 L 58.5 593.5 M 54.5 614.5 L 58.5 614.5 M 54.5 551.5 L 58.5 551.5 M 54.5 530.5 L 58.5 530.5 M 54.5 509.5 L 58.5 509.5 M 54.5 488.5 L 58.5 488.5 M 54.5 467.5 L 58.5 467.5 M 54.5 446.5 L 58.5 446.5 M 54.5 425.5 L 58.5 425.5 M 54.5 404.5 L 58.5 404.5 M 54.5 383.5 L 58.5 383.5 M 54.5 362.5 L 58.5 362.5 M 54.5 341.5 L 58.5 341.5 M 54.5 319.5 L 58.5 319.5 M 54.5 298.5 L 58.5 298.5 M 54.5 277.5 L 58.5 277.5 M 54.5 256.5 L 58.5 256.5 M 54.5 235.5 L 58.5 235.5 M 54.5 214.5 L 58.5 214.5 M 54.5 193.5 L 58.5 193.5 M 54.5 172.5 L 58.5 172.5 M 54.5 151.5 L 58.5 151.5 M 54.5 130.5 L 58.5 130.5 M 54.5 109.5 L 58.5 109.5 M 54.5 88.5 L 58.5 88.5 M 54.5 67.5 L 58.5 67.5" stroke-opacity="1" stroke-linejoin="bevel" stroke-miterlimit="10" stroke-dasharray=""/><text fill="rgb(68,68,68)" stroke="none" font-family="helvetica" font-size="11px" font-style="normal" font-weight="normal" text-decoration="normal" x="34.46666622161865" y="554.9905395507812" text-anchor="start" dominant-baseline="alphabetic" transform="matrix(1, 0, 0, 1, 0.5, 0.5)" fill-opacity="1">2</text><text fill="rgb(68,68,68)" stroke="none" font-family="helvetica" font-size="11px" font-style="normal" font-weight="normal" text-decoration="normal" x="34.46666622161865" y="449.7178039550781" text-anchor="start" dominant-baseline="alphabetic" transform="matrix(1, 0, 0, 1, 0.5, 0.5)" fill-opacity="1">1</text><text fill="rgb(68,68,68)" stroke="none" font-family="helvetica" font-size="11px" font-style="normal" font-weight="normal" text-decoration="normal" x="40.88333320617676" y="344.445068359375" text-anchor="start" dominant-baseline="alphabetic" transform="matrix(1, 0, 0, 1, 0.5, 0.5)" fill-opacity="1">0</text><text fill="rgb(68,68,68)" stroke="none" font-family="helvetica" font-size="11px" font-style="normal" font-weight="normal" text-decoration="normal" x="40.88333320617676" y="239.17234802246094" text-anchor="start" dominant-baseline="alphabetic" transform="matrix(1, 0, 0, 1, 0.5, 0.5)" fill-opacity="1">1</text><text fill="rgb(68,68,68)" stroke="none" font-family="helvetica" font-size="11px" font-style="normal" font-weight="normal" text-decoration="normal" x="40.88333320617676" y="133.8996124267578" text-anchor="start" dominant-baseline="alphabetic" transform="matrix(1, 0, 0, 1, 0.5, 0.5)" fill-opacity="1">2</text><text fill="rgb(68,68,68)" stroke="none" font-family="helvetica" font-size="15pt" font-style="italic" font-weight="normal" text-decoration="normal" x="-11.316666603088379" y="336.076171875" text-anchor="start" dominant-baseline="alphabetic" transform="matrix(6.123233995736766e-17, -1, 1, 6.123233995736766e-17, -313.53333377838135, 367.46666622161865)" fill-opacity="1">students</text><path fill="rgb(255,255,255)" stroke="rgb(229,229,229)" paint-order="fill" d="M 1128.2333374023438 61.5 L 1326.5 61.5 L 1326.5 400.5 L 1128.2333374023438 400.5 L 1128.2333374023438 61.5" fill-opacity="0.9490196078431372" clip-path="url(#XwFHfgllIDDv)" stroke-opacity="0.5019607843137255" stroke-linejoin="bevel" stroke-miterlimit="10" stroke-dasharray=""/><text fill="rgb(68,68,68)" stroke="none" font-family="helvetica" font-size="13px" font-style="normal" font-weight="normal" text-decoration="normal" x="1162.7333374023438" y="81" text-anchor="start" dominant-baseline="central" clip-path="url(#XwFHfgllIDDv)" transform="matrix(1, 0, 0, 1, 0.5, 0.5)" fill-opacity="1">wavelength</text><path fill="rgb(0,255,40)" stroke="none" paint-order="stroke" d="M 1140.2333374023438 73.5 L 1156.2333374023438 73.5 L 1156.2333374023438 89.5 L 1140.2333374023438 89.5 L 1140.2333374023438 73.5" fill-opacity="1" clip-path="url(#XwFHfgllIDDv)"/><path fill="rgb(216,17,89)" stroke="none" paint-order="stroke" d="M 1140.2333374023438 73.5 L 1156.2333374023438 73.5 L 1156.2333374023438 89.5 L 1140.2333374023438 89.5 L 1140.2333374023438 73.5" fill-opacity="1" clip-path="url(#XwFHfgllIDDv)"/><text fill="rgb(68,68,68)" stroke="none" font-family="helvetica" font-size="13px" font-style="normal" font-weight="normal" text-decoration="normal" x="1162.7333374023438" y="104" text-anchor="start" dominant-baseline="central" clip-path="url(#XwFHfgllIDDv)" transform="matrix(1, 0, 0, 1, 0.5, 0.5)" fill-opacity="1">solution</text><path fill="rgb(251,0,7)" stroke="none" paint-order="stroke" d="M 1140.2333374023438 96.5 L 1156.2333374023438 96.5 L 1156.2333374023438 112.5 L 1140.2333374023438 112.5 L 1140.2333374023438 96.5" fill-opacity="1" clip-path="url(#XwFHfgllIDDv)"/><path fill="rgb(33,131,128)" stroke="none" paint-order="stroke" d="M 1140.2333374023438 96.5 L 1156.2333374023438 96.5 L 1156.2333374023438 112.5 L 1140.2333374023438 112.5 L 1140.2333374023438 96.5" fill-opacity="1" clip-path="url(#XwFHfgllIDDv)"/><text fill="rgb(68,68,68)" stroke="none" font-family="helvetica" font-size="13px" font-style="normal" font-weight="normal" text-decoration="normal" x="1162.7333374023438" y="127" text-anchor="start" dominant-baseline="central" clip-path="url(#XwFHfgllIDDv)" transform="matrix(1, 0, 0, 1, 0.5, 0.5)" fill-opacity="1">laser</text><path fill="rgb(105,29,48)" stroke="none" paint-order="stroke" d="M 1140.2333374023438 119.5 L 1156.2333374023438 119.5 L 1156.2333374023438 135.5 L 1140.2333374023438 135.5 L 1140.2333374023438 119.5" fill-opacity="1" clip-path="url(#XwFHfgllIDDv)"/><text fill="rgb(68,68,68)" stroke="none" font-family="helvetica" font-size="13px" font-style="normal" font-weight="normal" text-decoration="normal" x="1162.7333374023438" y="150" text-anchor="start" dominant-baseline="central" clip-path="url(#XwFHfgllIDDv)" transform="matrix(1, 0, 0, 1, 0.5, 0.5)" fill-opacity="1">ruler</text><path fill="rgb(255,188,66)" stroke="none" paint-order="stroke" d="M 1140.2333374023438 142.5 L 1156.2333374023438 142.5 L 1156.2333374023438 158.5 L 1140.2333374023438 158.5 L 1140.2333374023438 142.5" fill-opacity="1" clip-path="url(#XwFHfgllIDDv)"/><text fill="rgb(68,68,68)" stroke="none" font-family="helvetica" font-size="13px" font-style="normal" font-weight="normal" text-decoration="normal" x="1162.7333374023438" y="173" text-anchor="start" dominant-baseline="central" clip-path="url(#XwFHfgllIDDv)" transform="matrix(1, 0, 0, 1, 0.5, 0.5)" fill-opacity="1">restarts</text><text fill="rgb(68,68,68)" stroke="none" font-family="helvetica" font-size="13px" font-style="normal" font-weight="normal" text-decoration="normal" x="1162.7333374023438" y="196" text-anchor="start" dominant-baseline="central" clip-path="url(#XwFHfgllIDDv)" transform="matrix(1, 0, 0, 1, 0.5, 0.5)" fill-opacity="1">transmittance_absorbance</text><text fill="rgb(68,68,68)" stroke="none" font-family="helvetica" font-size="13px" font-style="normal" font-weight="normal" text-decoration="normal" x="1162.7333374023438" y="219" text-anchor="start" dominant-baseline="central" clip-path="url(#XwFHfgllIDDv)" transform="matrix(1, 0, 0, 1, 0.5, 0.5)" fill-opacity="1">magnifier</text><text fill="rgb(68,68,68)" stroke="none" font-family="helvetica" font-size="13px" font-style="normal" font-weight="normal" text-decoration="normal" x="1162.7333374023438" y="242" text-anchor="start" dominant-baseline="central" clip-path="url(#XwFHfgllIDDv)" transform="matrix(1, 0, 0, 1, 0.5, 0.5)" fill-opacity="1">concentration</text><path fill="rgb(115,210,222)" stroke="none" paint-order="stroke" d="M 1140.2333374023438 234.5 L 1156.2333374023438 234.5 L 1156.2333374023438 250.5 L 1140.2333374023438 250.5 L 1140.2333374023438 234.5" fill-opacity="1" clip-path="url(#XwFHfgllIDDv)"/><text fill="rgb(68,68,68)" stroke="none" font-family="helvetica" font-size="13px" font-style="normal" font-weight="normal" text-decoration="normal" x="1162.7333374023438" y="265" text-anchor="start" dominant-baseline="central" clip-path="url(#XwFHfgllIDDv)" transform="matrix(1, 0, 0, 1, 0.5, 0.5)" fill-opacity="1">flask</text><path fill="rgb(28,49,68)" stroke="none" paint-order="stroke" d="M 1140.2333374023438 257.5 L 1156.2333374023438 257.5 L 1156.2333374023438 273.5 L 1140.2333374023438 273.5 L 1140.2333374023438 257.5" fill-opacity="1" clip-path="url(#XwFHfgllIDDv)"/><text fill="rgb(68,68,68)" stroke="none" font-family="helvetica" font-size="13px" font-style="normal" font-weight="normal" text-decoration="normal" x="1162.7333374023438" y="288" text-anchor="start" dominant-baseline="central" clip-path="url(#XwFHfgllIDDv)" transform="matrix(1, 0, 0, 1, 0.5, 0.5)" fill-opacity="1">pdf</text><path fill="rgb(239,185,203)" stroke="none" paint-order="stroke" d="M 1140.2333374023438 280.5 L 1156.2333374023438 280.5 L 1156.2333374023438 296.5 L 1140.2333374023438 296.5 L 1140.2333374023438 280.5" fill-opacity="1" clip-path="url(#XwFHfgllIDDv)"/><text fill="rgb(68,68,68)" stroke="none" font-family="helvetica" font-size="13px" font-style="normal" font-weight="normal" text-decoration="normal" x="1162.7333374023438" y="311" text-anchor="start" dominant-baseline="central" clip-path="url(#XwFHfgllIDDv)" transform="matrix(1, 0, 0, 1, 0.5, 0.5)" fill-opacity="1">concentrationlab</text><text fill="rgb(68,68,68)" stroke="none" font-family="helvetica" font-size="13px" font-style="normal" font-weight="normal" text-decoration="normal" x="1162.7333374023438" y="334" text-anchor="start" dominant-baseline="central" clip-path="url(#XwFHfgllIDDv)" transform="matrix(1, 0, 0, 1, 0.5, 0.5)" fill-opacity="1">wavelength_slider</text><path fill="rgb(105,29,48)" stroke="none" paint-order="stroke" d="M 1140.2333374023438 326.5 L 1156.2333374023438 326.5 L 1156.2333374023438 342.5 L 1140.2333374023438 342.5 L 1140.2333374023438 326.5" fill-opacity="1" clip-path="url(#XwFHfgllIDDv)"/><text fill="rgb(68,68,68)" stroke="none" font-family="helvetica" font-size="13px" font-style="normal" font-weight="normal" text-decoration="normal" x="1162.7333374023438" y="357" text-anchor="start" dominant-baseline="central" clip-path="url(#XwFHfgllIDDv)" transform="matrix(1, 0, 0, 1, 0.5, 0.5)" fill-opacity="1">ruler measuring</text><path fill="rgb(255,188,66)" stroke="none" paint-order="stroke" d="M 1140.2333374023438 349.5 L 1156.2333374023438 349.5 L 1156.2333374023438 365.5 L 1140.2333374023438 365.5 L 1140.2333374023438 349.5" fill-opacity="1" clip-path="url(#XwFHfgllIDDv)"/><text fill="rgb(68,68,68)" stroke="none" font-family="helvetica" font-size="13px" font-style="normal" font-weight="normal" text-decoration="normal" x="1162.7333374023438" y="380" text-anchor="start" dominant-baseline="central" clip-path="url(#XwFHfgllIDDv)" transform="matrix(1, 0, 0, 1, 0.5, 0.5)" fill-opacity="1">dependent variable</text><path fill="rgb(143,45,86)" stroke="none" paint-order="stroke" d="M 1140.2333374023438 372.5 L 1156.2333374023438 372.5 L 1156.2333374023438 388.5 L 1140.2333374023438 388.5 L 1140.2333374023438 372.5" fill-opacity="1" clip-path="url(#XwFHfgllIDDv)"/><text fill="rgb(68,68,68)" stroke="none" font-family="helvetica" font-size="25pt" font-style="normal" font-weight="bold" text-decoration="normal" x="58" y="38.740885416666664" text-anchor="start" dominant-baseline="alphabetic" transform="matrix(1, 0, 0, 1, 0.5, 0.5)" fill-opacity="1">Timeline for student 4k4kc2k6 with permutation 2031 for task 1</text></svg>