<svg version="1.1" xmlns="http://www.w3.org/2000/svg" width="1366" height="683"><defs><clipPath id="UvyfKwywbflO"><path fill="none" stroke="none" d="M 58.5 51.5 L 1336.5 51.5 L 1336.5 630.5 L 58.5 630.5 L 58.5 51.5"/></clipPath><clipPath id="VQWtKpiKkPTc"><path fill="none" stroke="none" d="M 58.5 51.5 L 1336.5 51.5 L 1336.5 630.5 L 58.5 630.5 L 58.5 51.5"/></clipPath><clipPath id="SfzrHQDZprqi"><path fill="none" stroke="none" d="M 58.5 51.5 L 1336.5 51.5 L 1336.5 630.5 L 58.5 630.5 L 58.5 51.5"/></clipPath><clipPath id="tVxkytKaETQx"><path fill="none" stroke="none" d="M 58.5 51.5 L 1336.5 51.5 L 1336.5 630.5 L 58.5 630.5 L 58.5 51.5"/></clipPath><clipPath id="SihrutQbJLMk"><path fill="none" stroke="none" d="M 58.5 51.5 L 1336.5 51.5 L 1336.5 630.5 L 58.5 630.5 L 58.5 51.5"/></clipPath><clipPath id="cbRRevcyrTbT"><path fill="none" stroke="none" d="M 58.5 51.5 L 1336.5 51.5 L 1336.5 630.5 L 58.5 630.5 L 58.5 51.5"/></clipPath><clipPath id="vGtulmiwBcvh"><path fill="none" stroke="none" d="M 58.5 51.5 L 1336.5 51.5 L 1336.5 630.5 L 58.5 630.5 L 58.5 51.5"/></clipPath><clipPath id="CVLEFZUyeDUK"><path fill="none" stroke="none" d="M 58.5 51.5 L 1336.5 51.5 L 1336.5 630.5 L 58.5 630.5 L 58.5 51.5"/></clipPath><clipPath id="qrTXxiIvXIsv"><path fill="none" stroke="none" d="M 58.5 51.5 L 1336.5 51.5 L 1336.5 630.5 L 58.5 630.5 L 58.5 51.5"/></clipPath><clipPath id="LfcXDtFxwlpy"><path fill="none" stroke="none" d="M 58.5 51.5 L 1336.5 51.5 L 1336.5 630.5 L 58.5 630.5 L 58.5 51.5"/></clipPath><clipPath id="kzwXMSlEdiFe"><path fill="none" stroke="none" d="M 58.5 51.5 L 1336.5 51.5 L 1336.5 630.5 L 58.5 630.5 L 58.5 51.5"/></clipPath><clipPath id="qZHrQqmFFkpy"><path fill="none" stroke="none" d="M 58.5 51.5 L 1336.5 51.5 L 1336.5 630.5 L 58.5 630.5 L 58.5 51.5"/></clipPath><clipPath id="OEsQoIXAeSge"><path fill="none" stroke="none" d="M 58.5 51.5 L 1336.5 51.5 L 1336.5 630.5 L 58.5 630.5 L 58.5 51.5"/></clipPath><clipPath id="bvzBgTvWXrqg"><path fill="none" stroke="none" d="M 58.5 51.5 L 1336.5 51.5 L 1336.5 630.5 L 58.5 630.5 L 58.5 51.5"/></clipPath><clipPath id="rJVFDPDcKJqP"><path fill="none" stroke="none" d="M 58.5 51.5 L 1336.5 51.5 L 1336.5 630.5 L 58.5 630.5 L 58.5 51.5"/></clipPath><clipPath id="VXpJdqzTpDlk"><path fill="none" stroke="none" d="M 58.5 51.5 L 1336.5 51.5 L 1336.5 630.5 L 58.5 630.5 L 58.5 51.5"/></clipPath><clipPath id="bcPPddTmDaCG"><path fill="none" stroke="none" d="M 58.5 51.5 L 1336.5 51.5 L 1336.5 630.5 L 58.5 630.5 L 58.5 51.5"/></clipPath><clipPath id="erNEcbnULpqO"><path fill="none" stroke="none" d="M 58.5 51.5 L 1336.5 51.5 L 1336.5 630.5 L 58.5 630.5 L 58.5 51.5"/></clipPath><clipPath id="hIvwselemfqC"><path fill="none" stroke="none" d="M 58.5 51.5 L 1336.5 51.5 L 1336.5 630.5 L 58.5 630.5 L 58.5 51.5"/></clipPath><clipPath id="DiHHMCwgUGTd"><path fill="none" stroke="none" d="M 58.5 51.5 L 1336.5 51.5 L 1336.5 630.5 L 58.5 630.5 L 58.5 51.5"/></clipPath><clipPath id="FrMIiKXykHNl"><path fill="none" stroke="none" d="M 58.5 51.5 L 1336.5 51.5 L 1336.5 630.5 L 58.5 630.5 L 58.5 51.5"/></clipPath></defs><path fill="rgb(255,255,255)" stroke="none" paint-order="stroke" d="M 0.5 0.5 L 1366.5 0.5 L 1366.5 683.5 L 0.5 683.5 L 0.5 0.5" fill-opacity="1"/><rect fill="#FFFFFF" stroke="none" x="58" y="51" width="1278" height="579" transform="matrix(1, 0, 0, 1, 0.5, 0.5)"/><path fill="rgb(255,255,255)" stroke="none" paint-order="stroke" d="M 58.5 51.5 L 1336.5 51.5 L 1336.5 630.5 L 58.5 630.5 L 58.5 51.5" fill-opacity="1"/><path fill="none" stroke="rgb(229,229,229)" paint-order="fill" d="M 58.5 51.5 L 1336.5 51.5 L 1336.5 630.5 L 58.5 630.5 L 58.5 51.5" stroke-opacity="1" stroke-linejoin="bevel" stroke-miterlimit="10" stroke-dasharray=""/><path fill="none" stroke="rgb(229,229,229)" paint-order="fill" d="M 314.5 630.5 L 314.5 51.5 M 569.5 630.5 L 569.5 51.5 M 825.5 630.5 L 825.5 51.5 M 1080.5 630.5 L 1080.5 51.5" stroke-opacity="1" stroke-linejoin="bevel" stroke-miterlimit="10" stroke-dasharray="" clip-path="url(#UvyfKwywbflO)"/><path fill="none" stroke="rgb(229,229,229)" paint-order="fill" d="M 58.5 551.5 L 1336.5 551.5 M 58.5 446.5 L 1336.5 446.5 M 58.5 341.5 L 1336.5 341.5 M 58.5 235.5 L 1336.5 235.5 M 58.5 130.5 L 1336.5 130.5" stroke-opacity="1" stroke-linejoin="bevel" stroke-miterlimit="10" stroke-dasharray="" clip-path="url(#VQWtKpiKkPTc)"/><path fill="rgb(0,255,40)" stroke="none" paint-order="stroke" d="M 58.5 77.81818389892578 L 213.8217315673828 77.81818389892578 L 213.8217315673828 130.45454788208008 L 58.5 130.45454788208008 L 58.5 77.81818389892578" fill-opacity="1" clip-path="url(#SfzrHQDZprqi)"/><path fill="rgb(159,255,0)" stroke="none" paint-order="stroke" d="M 213.8217315673828 77.81818389892578 L 254.94393920898438 77.81818389892578 L 254.94393920898438 130.45454788208008 L 213.8217315673828 130.45454788208008 L 213.8217315673828 77.81818389892578" fill-opacity="1" clip-path="url(#SfzrHQDZprqi)"/><path fill="rgb(102,0,183)" stroke="none" paint-order="stroke" d="M 254.94393920898438 77.81818389892578 L 259.1204433441162 77.81818389892578 L 259.1204433441162 130.45454788208008 L 254.94393920898438 130.45454788208008 L 254.94393920898438 77.81818389892578" fill-opacity="1" clip-path="url(#SfzrHQDZprqi)"/><path fill="rgb(42,0,238)" stroke="none" paint-order="stroke" d="M 259.1204528808594 77.81818389892578 L 278.7224178314209 77.81818389892578 L 278.7224178314209 130.45454788208008 L 259.1204528808594 130.45454788208008 L 259.1204528808594 77.81818389892578" fill-opacity="1" clip-path="url(#SfzrHQDZprqi)"/><path fill="rgb(0,0,0)" stroke="none" paint-order="stroke" d="M 278.722412109375 77.81818389892578 L 359.49840545654297 77.81818389892578 L 359.49840545654297 130.45454788208008 L 278.722412109375 130.45454788208008 L 278.722412109375 77.81818389892578" fill-opacity="1" clip-path="url(#SfzrHQDZprqi)"/><path fill="rgb(102,0,183)" stroke="none" paint-order="stroke" d="M 359.4983825683594 77.81818389892578 L 417.2345886230469 77.81818389892578 L 417.2345886230469 130.45454788208008 L 359.4983825683594 130.45454788208008 L 359.4983825683594 77.81818389892578" fill-opacity="1" clip-path="url(#SfzrHQDZprqi)"/><path fill="rgb(251,0,7)" stroke="none" paint-order="stroke" d="M 58.5 130.4545440673828 L 213.8217315673828 130.4545440673828 L 213.8217315673828 183.0909080505371 L 58.5 183.0909080505371 L 58.5 130.4545440673828" fill-opacity="1" clip-path="url(#tVxkytKaETQx)"/><path fill="rgb(251,0,7)" stroke="none" paint-order="stroke" d="M 213.8217315673828 130.4545440673828 L 254.94393920898438 130.4545440673828 L 254.94393920898438 183.0909080505371 L 213.8217315673828 183.0909080505371 L 213.8217315673828 130.4545440673828" fill-opacity="1" clip-path="url(#tVxkytKaETQx)"/><path fill="rgb(255,255,10)" stroke="none" paint-order="stroke" d="M 254.94393920898438 130.4545440673828 L 259.1204433441162 130.4545440673828 L 259.1204433441162 183.0909080505371 L 254.94393920898438 183.0909080505371 L 254.94393920898438 130.4545440673828" fill-opacity="1" clip-path="url(#tVxkytKaETQx)"/><path fill="rgb(56,126,34)" stroke="none" paint-order="stroke" d="M 259.1204528808594 130.4545440673828 L 278.7224178314209 130.4545440673828 L 278.7224178314209 183.0909080505371 L 259.1204528808594 183.0909080505371 L 259.1204528808594 130.4545440673828" fill-opacity="1" clip-path="url(#tVxkytKaETQx)"/><path fill="rgb(27,121,255)" stroke="none" paint-order="stroke" d="M 278.722412109375 130.4545440673828 L 359.49840545654297 130.4545440673828 L 359.49840545654297 183.0909080505371 L 278.722412109375 183.0909080505371 L 278.722412109375 130.4545440673828" fill-opacity="1" clip-path="url(#tVxkytKaETQx)"/><path fill="rgb(255,255,10)" stroke="none" paint-order="stroke" d="M 359.4983825683594 130.4545440673828 L 417.2345886230469 130.4545440673828 L 417.2345886230469 183.0909080505371 L 359.4983825683594 183.0909080505371 L 359.4983825683594 130.4545440673828" fill-opacity="1" clip-path="url(#tVxkytKaETQx)"/><path fill="rgb(105,29,48)" stroke="none" paint-order="stroke" d="M 196.9316864013672 183.09091186523438 L 196.99558640271425 183.09091186523438 L 196.99558640271425 498.9090881347656 L 196.9316864013672 498.9090881347656 L 196.9316864013672 183.09091186523438" fill-opacity="1" clip-path="url(#SihrutQbJLMk)"/><path fill="rgb(162,174,187)" stroke="none" paint-order="stroke" d="M 200.470458984375 183.09091186523438 L 200.53435898572206 183.09091186523438 L 200.53435898572206 498.9090881347656 L 200.470458984375 498.9090881347656 L 200.470458984375 183.09091186523438" fill-opacity="1" clip-path="url(#CVLEFZUyeDUK)"/><path fill="rgb(255,188,66)" stroke="none" paint-order="stroke" d="M 255.21104431152344 183.09091186523438 L 255.4794242978096 183.09091186523438 L 255.4794242978096 498.9090881347656 L 255.21104431152344 498.9090881347656 L 255.21104431152344 183.09091186523438" fill-opacity="1" clip-path="url(#qrTXxiIvXIsv)"/><path fill="rgb(33,131,128)" stroke="none" paint-order="stroke" d="M 210.86061096191406 183.09091186523438 L 213.82173705101013 183.09091186523438 L 213.82173705101013 498.9090881347656 L 210.86061096191406 498.9090881347656 L 210.86061096191406 183.09091186523438" fill-opacity="1" clip-path="url(#kzwXMSlEdiFe)"/><path fill="rgb(33,131,128)" stroke="none" paint-order="stroke" d="M 252.71510314941406 183.09091186523438 L 254.94393515586853 183.09091186523438 L 254.94393515586853 498.9090881347656 L 252.71510314941406 498.9090881347656 L 252.71510314941406 183.09091186523438" fill-opacity="1" clip-path="url(#kzwXMSlEdiFe)"/><path fill="rgb(33,131,128)" stroke="none" paint-order="stroke" d="M 256.8289794921875 183.09091186523438 L 259.12043356895447 183.09091186523438 L 259.12043356895447 498.9090881347656 L 256.8289794921875 498.9090881347656 L 256.8289794921875 183.09091186523438" fill-opacity="1" clip-path="url(#kzwXMSlEdiFe)"/><path fill="rgb(33,131,128)" stroke="none" paint-order="stroke" d="M 276.35809326171875 183.09091186523438 L 278.72239327430725 183.09091186523438 L 278.72239327430725 498.9090881347656 L 276.35809326171875 498.9090881347656 L 276.35809326171875 183.09091186523438" fill-opacity="1" clip-path="url(#kzwXMSlEdiFe)"/><path fill="rgb(33,131,128)" stroke="none" paint-order="stroke" d="M 357.5200500488281 183.09091186523438 L 359.4983940124512 183.09091186523438 L 359.4983940124512 498.9090881347656 L 357.5200500488281 498.9090881347656 L 357.5200500488281 183.09091186523438" fill-opacity="1" clip-path="url(#kzwXMSlEdiFe)"/><path fill="rgb(33,131,128)" stroke="none" paint-order="stroke" d="M 361.5380859375 183.09091186523438 L 363.0908559560776 183.09091186523438 L 363.0908559560776 498.9090881347656 L 361.5380859375 498.9090881347656 L 361.5380859375 183.09091186523438" fill-opacity="1" clip-path="url(#kzwXMSlEdiFe)"/><path fill="rgb(115,210,222)" stroke="none" paint-order="stroke" d="M 237.0762176513672 183.09091186523438 L 241.43419742584229 183.09091186523438 L 241.43419742584229 498.9090881347656 L 237.0762176513672 498.9090881347656 L 237.0762176513672 183.09091186523438" fill-opacity="1" clip-path="url(#qZHrQqmFFkpy)"/><path fill="rgb(115,210,222)" stroke="none" paint-order="stroke" d="M 261.1575622558594 183.09091186523438 L 265.21265602111816 183.09091186523438 L 265.21265602111816 498.9090881347656 L 261.1575622558594 498.9090881347656 L 261.1575622558594 183.09091186523438" fill-opacity="1" clip-path="url(#qZHrQqmFFkpy)"/><path fill="rgb(115,210,222)" stroke="none" paint-order="stroke" d="M 280.759521484375 183.09091186523438 L 287.43195962905884 183.09091186523438 L 287.43195962905884 498.9090881347656 L 280.759521484375 498.9090881347656 L 280.759521484375 183.09091186523438" fill-opacity="1" clip-path="url(#qZHrQqmFFkpy)"/><path fill="rgb(115,210,222)" stroke="none" paint-order="stroke" d="M 299.5129089355469 183.09091186523438 L 306.8524627685547 183.09091186523438 L 306.8524627685547 498.9090881347656 L 299.5129089355469 498.9090881347656 L 299.5129089355469 183.09091186523438" fill-opacity="1" clip-path="url(#qZHrQqmFFkpy)"/><path fill="rgb(115,210,222)" stroke="none" paint-order="stroke" d="M 320.3021240234375 183.09091186523438 L 320.3979740217328 183.09091186523438 L 320.3979740217328 498.9090881347656 L 320.3021240234375 498.9090881347656 L 320.3021240234375 183.09091186523438" fill-opacity="1" clip-path="url(#qZHrQqmFFkpy)"/><path fill="rgb(28,49,68)" stroke="none" paint-order="stroke" d="M 191.72511291503906 183.09091186523438 L 192.43440294265747 183.09091186523438 L 192.43440294265747 498.9090881347656 L 191.72511291503906 498.9090881347656 L 191.72511291503906 183.09091186523438" fill-opacity="1" clip-path="url(#OEsQoIXAeSge)"/><path fill="rgb(239,185,203)" stroke="none" paint-order="stroke" d="M 64.16665267944336 183.09091186523438 L 185.02455520629883 183.09091186523438 L 185.02455520629883 498.9090881347656 L 64.16665267944336 498.9090881347656 L 64.16665267944336 183.09091186523438" fill-opacity="1" clip-path="url(#bvzBgTvWXrqg)"/><path fill="rgb(239,185,203)" stroke="none" paint-order="stroke" d="M 203.0226287841797 183.09091186523438 L 207.30904054641724 183.09091186523438 L 207.30904054641724 498.9090881347656 L 203.0226287841797 498.9090881347656 L 203.0226287841797 183.09091186523438" fill-opacity="1" clip-path="url(#bvzBgTvWXrqg)"/><path fill="rgb(239,185,203)" stroke="none" paint-order="stroke" d="M 215.7042236328125 183.09091186523438 L 229.27402782440186 183.09091186523438 L 229.27402782440186 498.9090881347656 L 215.7042236328125 498.9090881347656 L 215.7042236328125 183.09091186523438" fill-opacity="1" clip-path="url(#bvzBgTvWXrqg)"/><path fill="rgb(239,185,203)" stroke="none" paint-order="stroke" d="M 267.17694091796875 183.09091186523438 L 271.2460927963257 183.09091186523438 L 271.2460927963257 498.9090881347656 L 267.17694091796875 498.9090881347656 L 267.17694091796875 183.09091186523438" fill-opacity="1" clip-path="url(#bvzBgTvWXrqg)"/><path fill="rgb(239,185,203)" stroke="none" paint-order="stroke" d="M 289.2135009765625 183.09091186523438 L 294.79963874816895 183.09091186523438 L 294.79963874816895 498.9090881347656 L 289.2135009765625 498.9090881347656 L 289.2135009765625 183.09091186523438" fill-opacity="1" clip-path="url(#bvzBgTvWXrqg)"/><path fill="rgb(239,185,203)" stroke="none" paint-order="stroke" d="M 336.4611511230469 183.09091186523438 L 349.79708099365234 183.09091186523438 L 349.79708099365234 498.9090881347656 L 336.4611511230469 498.9090881347656 L 336.4611511230469 183.09091186523438" fill-opacity="1" clip-path="url(#bvzBgTvWXrqg)"/><path fill="rgb(143,45,86)" stroke="none" paint-order="stroke" d="M 58.5 551.5454711914062 L 196.9316864013672 551.5454711914062 L 196.9316864013672 604.1818351745605 L 58.5 604.1818351745605 L 58.5 551.5454711914062" fill-opacity="1" clip-path="url(#erNEcbnULpqO)"/><path fill="rgb(63,136,197)" stroke="none" paint-order="stroke" d="M 196.9316864013672 551.5454711914062 L 200.47046828269958 551.5454711914062 L 200.47046828269958 604.1818351745605 L 196.9316864013672 604.1818351745605 L 196.9316864013672 551.5454711914062" fill-opacity="1" clip-path="url(#erNEcbnULpqO)"/><path fill="rgb(81,60,99)" stroke="none" paint-order="stroke" d="M 200.470458984375 551.5454711914062 L 417.2345886230469 551.5454711914062 L 417.2345886230469 604.1818351745605 L 200.470458984375 604.1818351745605 L 200.470458984375 551.5454711914062" fill-opacity="1" clip-path="url(#erNEcbnULpqO)"/><path fill="none" stroke="rgb(0,0,0)" paint-order="fill" d="M 58.5 77.81818389892578 L 417.2345886230469 77.81818389892578 L 417.2345886230469 604.1818313598633 L 58.5 604.1818313598633 L 58.5 77.81818389892578" stroke-opacity="1" stroke-linejoin="bevel" stroke-miterlimit="10" stroke-dasharray="" clip-path="url(#hIvwselemfqC)"/><path fill="none" stroke="rgb(0,0,0)" paint-order="fill" d="M 58.5 630.5 L 1336.5 630.5" stroke-opacity="1" stroke-linejoin="bevel" stroke-miterlimit="10" stroke-dasharray=""/><path fill="none" stroke="rgb(0,0,0)" paint-order="fill" d="M 58.5 636.5 L 58.5 628.5 M 314.5 636.5 L 314.5 628.5 M 569.5 636.5 L 569.5 628.5 M 825.5 636.5 L 825.5 628.5 M 1080.5 636.5 L 1080.5 628.5 M 1336.5 636.5 L 1336.5 628.5" stroke-opacity="1" stroke-linejoin="bevel" stroke-miterlimit="10" stroke-dasharray=""/><path fill="none" stroke="rgb(0,0,0)" paint-order="fill" d="M 58.5 634.5 L 58.5 630.5 M 109.5 634.5 L 109.5 630.5 M 160.5 634.5 L 160.5 630.5 M 211.5 634.5 L 211.5 630.5 M 262.5 634.5 L 262.5 630.5 M 314.5 634.5 L 314.5 630.5 M 365.5 634.5 L 365.5 630.5 M 416.5 634.5 L 416.5 630.5 M 467.5 634.5 L 467.5 630.5 M 518.5 634.5 L 518.5 630.5 M 569.5 634.5 L 569.5 630.5 M 620.5 634.5 L 620.5 630.5 M 671.5 634.5 L 671.5 630.5 M 723.5 634.5 L 723.5 630.5 M 774.5 634.5 L 774.5 630.5 M 825.5 634.5 L 825.5 630.5 M 876.5 634.5 L 876.5 630.5 M 927.5 634.5 L 927.5 630.5 M 978.5 634.5 L 978.5 630.5 M 1029.5 634.5 L 1029.5 630.5 M 1080.5 634.5 L 1080.5 630.5 M 1132.5 634.5 L 1132.5 630.5 M 1183.5 634.5 L 1183.5 630.5 M 1234.5 634.5 L 1234.5 630.5 M 1285.5 634.5 L 1285.5 630.5 M 1336.5 634.5 L 1336.5 630.5" stroke-opacity="1" stroke-linejoin="bevel" stroke-miterlimit="10" stroke-dasharray=""/><text fill="rgb(68,68,68)" stroke="none" font-family="helvetica" font-size="11px" font-style="normal" font-weight="normal" text-decoration="normal" x="54.94166660308838" y="648.89013671875" text-anchor="start" dominant-baseline="alphabetic" transform="matrix(1, 0, 0, 1, 0.5, 0.5)" fill-opacity="1">0</text><text fill="rgb(68,68,68)" stroke="none" font-family="helvetica" font-size="11px" font-style="normal" font-weight="normal" text-decoration="normal" x="304.42500591278076" y="648.89013671875" text-anchor="start" dominant-baseline="alphabetic" transform="matrix(1, 0, 0, 1, 0.5, 0.5)" fill-opacity="1">200</text><text fill="rgb(68,68,68)" stroke="none" font-family="helvetica" font-size="11px" font-style="normal" font-weight="normal" text-decoration="normal" x="560.0250120162964" y="648.89013671875" text-anchor="start" dominant-baseline="alphabetic" transform="matrix(1, 0, 0, 1, 0.5, 0.5)" fill-opacity="1">400</text><text fill="rgb(68,68,68)" stroke="none" font-family="helvetica" font-size="11px" font-style="normal" font-weight="normal" text-decoration="normal" x="815.6249876022339" y="648.89013671875" text-anchor="start" dominant-baseline="alphabetic" transform="matrix(1, 0, 0, 1, 0.5, 0.5)" fill-opacity="1">600</text><text fill="rgb(68,68,68)" stroke="none" font-family="helvetica" font-size="11px" font-style="normal" font-weight="normal" text-decoration="normal" x="1071.2250242233276" y="648.89013671875" text-anchor="start" dominant-baseline="alphabetic" transform="matrix(1, 0, 0, 1, 0.5, 0.5)" fill-opacity="1">800</text><text fill="rgb(68,68,68)" stroke="none" font-family="helvetica" font-size="11px" font-style="normal" font-weight="normal" text-decoration="normal" x="1323.7666664123535" y="648.89013671875" text-anchor="start" dominant-baseline="alphabetic" transform="matrix(1, 0, 0, 1, 0.5, 0.5)" fill-opacity="1">1000</text><text fill="rgb(68,68,68)" stroke="none" font-family="helvetica" font-size="15pt" font-style="italic" font-weight="normal" text-decoration="normal" x="666.4416675567627" y="676.06982421875" text-anchor="start" dominant-baseline="alphabetic" transform="matrix(1, 0, 0, 1, 0.5, 0.5)" fill-opacity="1">time(s)</text><path fill="none" stroke="rgb(0,0,0)" paint-order="fill" d="M 58.5 630.5 L 58.5 51.5" stroke-opacity="1" stroke-linejoin="bevel" stroke-miterlimit="10" stroke-dasharray=""/><path fill="none" stroke="rgb(0,0,0)" paint-order="fill" d="M 52.5 551.5 L 60.5 551.5 M 52.5 446.5 L 60.5 446.5 M 52.5 341.5 L 60.5 341.5 M 52.5 235.5 L 60.5 235.5 M 52.5 130.5 L 60.5 130.5" stroke-opacity="1" stroke-linejoin="bevel" stroke-miterlimit="10" stroke-dasharray=""/><path fill="none" stroke="rgb(0,0,0)" paint-order="fill" d="M 54.5 572.5 L 58.5 572.5 M 54.5 593.5 L 58.5 593.5 M 54.5 614.5 L 58.5 614.5 M 54.5 551.5 L 58.5 551.5 M 54.5 530.5 L 58.5 530.5 M 54.5 509.5 L 58.5 509.5 M 54.5 488.5 L 58.5 488.5 M 54.5 467.5 L 58.5 467.5 M 54.5 446.5 L 58.5 446.5 M 54.5 425.5 L 58.5 425.5 M 54.5 404.5 L 58.5 404.5 M 54.5 383.5 L 58.5 383.5 M 54.5 362.5 L 58.5 362.5 M 54.5 341.5 L 58.5 341.5 M 54.5 319.5 L 58.5 319.5 M 54.5 298.5 L 58.5 298.5 M 54.5 277.5 L 58.5 277.5 M 54.5 256.5 L 58.5 256.5 M 54.5 235.5 L 58.5 235.5 M 54.5 214.5 L 58.5 214.5 M 54.5 193.5 L 58.5 193.5 M 54.5 172.5 L 58.5 172.5 M 54.5 151.5 L 58.5 151.5 M 54.5 130.5 L 58.5 130.5 M 54.5 109.5 L 58.5 109.5 M 54.5 88.5 L 58.5 88.5 M 54.5 67.5 L 58.5 67.5" stroke-opacity="1" stroke-linejoin="bevel" stroke-miterlimit="10" stroke-dasharray=""/><text fill="rgb(68,68,68)" stroke="none" font-family="helvetica" font-size="11px" font-style="normal" font-weight="normal" text-decoration="normal" x="34.46666622161865" y="554.9905395507812" text-anchor="start" dominant-baseline="alphabetic" transform="matrix(1, 0, 0, 1, 0.5, 0.5)" fill-opacity="1">−2</text><text fill="rgb(68,68,68)" stroke="none" font-family="helvetica" font-size="11px" font-style="normal" font-weight="normal" text-decoration="normal" x="34.46666622161865" y="449.7178039550781" text-anchor="start" dominant-baseline="alphabetic" transform="matrix(1, 0, 0, 1, 0.5, 0.5)" fill-opacity="1">−1</text><text fill="rgb(68,68,68)" stroke="none" font-family="helvetica" font-size="11px" font-style="normal" font-weight="normal" text-decoration="normal" x="40.88333320617676" y="344.445068359375" text-anchor="start" dominant-baseline="alphabetic" transform="matrix(1, 0, 0, 1, 0.5, 0.5)" fill-opacity="1">0</text><text fill="rgb(68,68,68)" stroke="none" font-family="helvetica" font-size="11px" font-style="normal" font-weight="normal" text-decoration="normal" x="40.88333320617676" y="239.17234802246094" text-anchor="start" dominant-baseline="alphabetic" transform="matrix(1, 0, 0, 1, 0.5, 0.5)" fill-opacity="1">1</text><text fill="rgb(68,68,68)" stroke="none" font-family="helvetica" font-size="11px" font-style="normal" font-weight="normal" text-decoration="normal" x="40.88333320617676" y="133.8996124267578" text-anchor="start" dominant-baseline="alphabetic" transform="matrix(1, 0, 0, 1, 0.5, 0.5)" fill-opacity="1">2</text><text fill="rgb(68,68,68)" stroke="none" font-family="helvetica" font-size="15pt" font-style="italic" font-weight="normal" text-decoration="normal" x="-11.316666603088379" y="336.076171875" text-anchor="start" dominant-baseline="alphabetic" transform="matrix(6.123233995736766e-17, -1, 1, 6.123233995736766e-17, -313.53333377838135, 367.46666622161865)" fill-opacity="1">students</text><path fill="rgb(255,255,255)" stroke="rgb(229,229,229)" paint-order="fill" d="M 1128.2333374023438 61.5 L 1326.5 61.5 L 1326.5 400.5 L 1128.2333374023438 400.5 L 1128.2333374023438 61.5" fill-opacity="0.9490196078431372" clip-path="url(#DiHHMCwgUGTd)" stroke-opacity="0.5019607843137255" stroke-linejoin="bevel" stroke-miterlimit="10" stroke-dasharray=""/><text fill="rgb(68,68,68)" stroke="none" font-family="helvetica" font-size="13px" font-style="normal" font-weight="normal" text-decoration="normal" x="1162.7333374023438" y="81" text-anchor="start" dominant-baseline="central" clip-path="url(#DiHHMCwgUGTd)" transform="matrix(1, 0, 0, 1, 0.5, 0.5)" fill-opacity="1">wavelength</text><path fill="rgb(0,255,40)" stroke="none" paint-order="stroke" d="M 1140.2333374023438 73.5 L 1156.2333374023438 73.5 L 1156.2333374023438 89.5 L 1140.2333374023438 89.5 L 1140.2333374023438 73.5" fill-opacity="1" clip-path="url(#DiHHMCwgUGTd)"/><text fill="rgb(68,68,68)" stroke="none" font-family="helvetica" font-size="13px" font-style="normal" font-weight="normal" text-decoration="normal" x="1162.7333374023438" y="104" text-anchor="start" dominant-baseline="central" clip-path="url(#DiHHMCwgUGTd)" transform="matrix(1, 0, 0, 1, 0.5, 0.5)" fill-opacity="1">solution</text><path fill="rgb(251,0,7)" stroke="none" paint-order="stroke" d="M 1140.2333374023438 96.5 L 1156.2333374023438 96.5 L 1156.2333374023438 112.5 L 1140.2333374023438 112.5 L 1140.2333374023438 96.5" fill-opacity="1" clip-path="url(#DiHHMCwgUGTd)"/><path fill="rgb(33,131,128)" stroke="none" paint-order="stroke" d="M 1140.2333374023438 96.5 L 1156.2333374023438 96.5 L 1156.2333374023438 112.5 L 1140.2333374023438 112.5 L 1140.2333374023438 96.5" fill-opacity="1" clip-path="url(#DiHHMCwgUGTd)"/><text fill="rgb(68,68,68)" stroke="none" font-family="helvetica" font-size="13px" font-style="normal" font-weight="normal" text-decoration="normal" x="1162.7333374023438" y="127" text-anchor="start" dominant-baseline="central" clip-path="url(#DiHHMCwgUGTd)" transform="matrix(1, 0, 0, 1, 0.5, 0.5)" fill-opacity="1">laser</text><path fill="rgb(105,29,48)" stroke="none" paint-order="stroke" d="M 1140.2333374023438 119.5 L 1156.2333374023438 119.5 L 1156.2333374023438 135.5 L 1140.2333374023438 135.5 L 1140.2333374023438 119.5" fill-opacity="1" clip-path="url(#DiHHMCwgUGTd)"/><text fill="rgb(68,68,68)" stroke="none" font-family="helvetica" font-size="13px" font-style="normal" font-weight="normal" text-decoration="normal" x="1162.7333374023438" y="150" text-anchor="start" dominant-baseline="central" clip-path="url(#DiHHMCwgUGTd)" transform="matrix(1, 0, 0, 1, 0.5, 0.5)" fill-opacity="1">ruler</text><text fill="rgb(68,68,68)" stroke="none" font-family="helvetica" font-size="13px" font-style="normal" font-weight="normal" text-decoration="normal" x="1162.7333374023438" y="173" text-anchor="start" dominant-baseline="central" clip-path="url(#DiHHMCwgUGTd)" transform="matrix(1, 0, 0, 1, 0.5, 0.5)" fill-opacity="1">restarts</text><text fill="rgb(68,68,68)" stroke="none" font-family="helvetica" font-size="13px" font-style="normal" font-weight="normal" text-decoration="normal" x="1162.7333374023438" y="196" text-anchor="start" dominant-baseline="central" clip-path="url(#DiHHMCwgUGTd)" transform="matrix(1, 0, 0, 1, 0.5, 0.5)" fill-opacity="1">transmittance_absorbance</text><path fill="rgb(162,174,187)" stroke="none" paint-order="stroke" d="M 1140.2333374023438 188.5 L 1156.2333374023438 188.5 L 1156.2333374023438 204.5 L 1140.2333374023438 204.5 L 1140.2333374023438 188.5" fill-opacity="1" clip-path="url(#DiHHMCwgUGTd)"/><text fill="rgb(68,68,68)" stroke="none" font-family="helvetica" font-size="13px" font-style="normal" font-weight="normal" text-decoration="normal" x="1162.7333374023438" y="219" text-anchor="start" dominant-baseline="central" clip-path="url(#DiHHMCwgUGTd)" transform="matrix(1, 0, 0, 1, 0.5, 0.5)" fill-opacity="1">magnifier</text><path fill="rgb(255,188,66)" stroke="none" paint-order="stroke" d="M 1140.2333374023438 211.5 L 1156.2333374023438 211.5 L 1156.2333374023438 227.5 L 1140.2333374023438 227.5 L 1140.2333374023438 211.5" fill-opacity="1" clip-path="url(#DiHHMCwgUGTd)"/><text fill="rgb(68,68,68)" stroke="none" font-family="helvetica" font-size="13px" font-style="normal" font-weight="normal" text-decoration="normal" x="1162.7333374023438" y="242" text-anchor="start" dominant-baseline="central" clip-path="url(#DiHHMCwgUGTd)" transform="matrix(1, 0, 0, 1, 0.5, 0.5)" fill-opacity="1">concentration</text><path fill="rgb(115,210,222)" stroke="none" paint-order="stroke" d="M 1140.2333374023438 234.5 L 1156.2333374023438 234.5 L 1156.2333374023438 250.5 L 1140.2333374023438 250.5 L 1140.2333374023438 234.5" fill-opacity="1" clip-path="url(#DiHHMCwgUGTd)"/><text fill="rgb(68,68,68)" stroke="none" font-family="helvetica" font-size="13px" font-style="normal" font-weight="normal" text-decoration="normal" x="1162.7333374023438" y="265" text-anchor="start" dominant-baseline="central" clip-path="url(#DiHHMCwgUGTd)" transform="matrix(1, 0, 0, 1, 0.5, 0.5)" fill-opacity="1">flask</text><path fill="rgb(28,49,68)" stroke="none" paint-order="stroke" d="M 1140.2333374023438 257.5 L 1156.2333374023438 257.5 L 1156.2333374023438 273.5 L 1140.2333374023438 273.5 L 1140.2333374023438 257.5" fill-opacity="1" clip-path="url(#DiHHMCwgUGTd)"/><text fill="rgb(68,68,68)" stroke="none" font-family="helvetica" font-size="13px" font-style="normal" font-weight="normal" text-decoration="normal" x="1162.7333374023438" y="288" text-anchor="start" dominant-baseline="central" clip-path="url(#DiHHMCwgUGTd)" transform="matrix(1, 0, 0, 1, 0.5, 0.5)" fill-opacity="1">pdf</text><path fill="rgb(239,185,203)" stroke="none" paint-order="stroke" d="M 1140.2333374023438 280.5 L 1156.2333374023438 280.5 L 1156.2333374023438 296.5 L 1140.2333374023438 296.5 L 1140.2333374023438 280.5" fill-opacity="1" clip-path="url(#DiHHMCwgUGTd)"/><text fill="rgb(68,68,68)" stroke="none" font-family="helvetica" font-size="13px" font-style="normal" font-weight="normal" text-decoration="normal" x="1162.7333374023438" y="311" text-anchor="start" dominant-baseline="central" clip-path="url(#DiHHMCwgUGTd)" transform="matrix(1, 0, 0, 1, 0.5, 0.5)" fill-opacity="1">concentrationlab</text><text fill="rgb(68,68,68)" stroke="none" font-family="helvetica" font-size="13px" font-style="normal" font-weight="normal" text-decoration="normal" x="1162.7333374023438" y="334" text-anchor="start" dominant-baseline="central" clip-path="url(#DiHHMCwgUGTd)" transform="matrix(1, 0, 0, 1, 0.5, 0.5)" fill-opacity="1">wavelength_slider</text><text fill="rgb(68,68,68)" stroke="none" font-family="helvetica" font-size="13px" font-style="normal" font-weight="normal" text-decoration="normal" x="1162.7333374023438" y="357" text-anchor="start" dominant-baseline="central" clip-path="url(#DiHHMCwgUGTd)" transform="matrix(1, 0, 0, 1, 0.5, 0.5)" fill-opacity="1">ruler measuring</text><text fill="rgb(68,68,68)" stroke="none" font-family="helvetica" font-size="13px" font-style="normal" font-weight="normal" text-decoration="normal" x="1162.7333374023438" y="380" text-anchor="start" dominant-baseline="central" clip-path="url(#DiHHMCwgUGTd)" transform="matrix(1, 0, 0, 1, 0.5, 0.5)" fill-opacity="1">dependent variable</text><path fill="rgb(143,45,86)" stroke="none" paint-order="stroke" d="M 1140.2333374023438 372.5 L 1156.2333374023438 372.5 L 1156.2333374023438 388.5 L 1140.2333374023438 388.5 L 1140.2333374023438 372.5" fill-opacity="1" clip-path="url(#DiHHMCwgUGTd)"/><text fill="rgb(68,68,68)" stroke="none" font-family="helvetica" font-size="25pt" font-style="normal" font-weight="bold" text-decoration="normal" x="58" y="38.740885416666664" text-anchor="start" dominant-baseline="alphabetic" transform="matrix(1, 0, 0, 1, 0.5, 0.5)" fill-opacity="1">Timeline for student djnysnd6 with permutation 2031 for task 3</text></svg>