<svg version="1.1" xmlns="http://www.w3.org/2000/svg" width="1366" height="683"><defs><clipPath id="uILIqENmvEOI"><path fill="none" stroke="none" d="M 58.5 51.5 L 1336.5 51.5 L 1336.5 630.5 L 58.5 630.5 L 58.5 51.5"/></clipPath><clipPath id="TgxQQNeJgEMd"><path fill="none" stroke="none" d="M 58.5 51.5 L 1336.5 51.5 L 1336.5 630.5 L 58.5 630.5 L 58.5 51.5"/></clipPath><clipPath id="JkKhwSEitOGM"><path fill="none" stroke="none" d="M 58.5 51.5 L 1336.5 51.5 L 1336.5 630.5 L 58.5 630.5 L 58.5 51.5"/></clipPath><clipPath id="PDuWyLrvRmTb"><path fill="none" stroke="none" d="M 58.5 51.5 L 1336.5 51.5 L 1336.5 630.5 L 58.5 630.5 L 58.5 51.5"/></clipPath><clipPath id="BSHsVfgsbmAf"><path fill="none" stroke="none" d="M 58.5 51.5 L 1336.5 51.5 L 1336.5 630.5 L 58.5 630.5 L 58.5 51.5"/></clipPath><clipPath id="noboeedLrOPm"><path fill="none" stroke="none" d="M 58.5 51.5 L 1336.5 51.5 L 1336.5 630.5 L 58.5 630.5 L 58.5 51.5"/></clipPath><clipPath id="UunOxDomUCzi"><path fill="none" stroke="none" d="M 58.5 51.5 L 1336.5 51.5 L 1336.5 630.5 L 58.5 630.5 L 58.5 51.5"/></clipPath><clipPath id="zgbMMSrwuGXb"><path fill="none" stroke="none" d="M 58.5 51.5 L 1336.5 51.5 L 1336.5 630.5 L 58.5 630.5 L 58.5 51.5"/></clipPath><clipPath id="brdGlmfGRkXm"><path fill="none" stroke="none" d="M 58.5 51.5 L 1336.5 51.5 L 1336.5 630.5 L 58.5 630.5 L 58.5 51.5"/></clipPath><clipPath id="ThnsgAODQZoa"><path fill="none" stroke="none" d="M 58.5 51.5 L 1336.5 51.5 L 1336.5 630.5 L 58.5 630.5 L 58.5 51.5"/></clipPath><clipPath id="lJsZivOqNTVe"><path fill="none" stroke="none" d="M 58.5 51.5 L 1336.5 51.5 L 1336.5 630.5 L 58.5 630.5 L 58.5 51.5"/></clipPath><clipPath id="LlOQJxxfRfuw"><path fill="none" stroke="none" d="M 58.5 51.5 L 1336.5 51.5 L 1336.5 630.5 L 58.5 630.5 L 58.5 51.5"/></clipPath><clipPath id="zgySanBFkPKT"><path fill="none" stroke="none" d="M 58.5 51.5 L 1336.5 51.5 L 1336.5 630.5 L 58.5 630.5 L 58.5 51.5"/></clipPath><clipPath id="KUFVVkHtmGKk"><path fill="none" stroke="none" d="M 58.5 51.5 L 1336.5 51.5 L 1336.5 630.5 L 58.5 630.5 L 58.5 51.5"/></clipPath><clipPath id="VHWPHuUilwHN"><path fill="none" stroke="none" d="M 58.5 51.5 L 1336.5 51.5 L 1336.5 630.5 L 58.5 630.5 L 58.5 51.5"/></clipPath><clipPath id="prPoCWTWUIQU"><path fill="none" stroke="none" d="M 58.5 51.5 L 1336.5 51.5 L 1336.5 630.5 L 58.5 630.5 L 58.5 51.5"/></clipPath><clipPath id="ogUsNTBaZhNJ"><path fill="none" stroke="none" d="M 58.5 51.5 L 1336.5 51.5 L 1336.5 630.5 L 58.5 630.5 L 58.5 51.5"/></clipPath><clipPath id="TEbbVQcERegv"><path fill="none" stroke="none" d="M 58.5 51.5 L 1336.5 51.5 L 1336.5 630.5 L 58.5 630.5 L 58.5 51.5"/></clipPath><clipPath id="wwMdpyNNNQpO"><path fill="none" stroke="none" d="M 58.5 51.5 L 1336.5 51.5 L 1336.5 630.5 L 58.5 630.5 L 58.5 51.5"/></clipPath><clipPath id="PaNvECzFcXSJ"><path fill="none" stroke="none" d="M 58.5 51.5 L 1336.5 51.5 L 1336.5 630.5 L 58.5 630.5 L 58.5 51.5"/></clipPath><clipPath id="JgPiDETkCgKT"><path fill="none" stroke="none" d="M 58.5 51.5 L 1336.5 51.5 L 1336.5 630.5 L 58.5 630.5 L 58.5 51.5"/></clipPath></defs><path fill="rgb(255,255,255)" stroke="none" paint-order="stroke" d="M 0.5 0.5 L 1366.5 0.5 L 1366.5 683.5 L 0.5 683.5 L 0.5 0.5" fill-opacity="1"/><rect fill="#FFFFFF" stroke="none" x="58" y="51" width="1278" height="579" transform="matrix(1, 0, 0, 1, 0.5, 0.5)"/><path fill="rgb(255,255,255)" stroke="none" paint-order="stroke" d="M 58.5 51.5 L 1336.5 51.5 L 1336.5 630.5 L 58.5 630.5 L 58.5 51.5" fill-opacity="1"/><path fill="none" stroke="rgb(229,229,229)" paint-order="fill" d="M 58.5 51.5 L 1336.5 51.5 L 1336.5 630.5 L 58.5 630.5 L 58.5 51.5" stroke-opacity="1" stroke-linejoin="bevel" stroke-miterlimit="10" stroke-dasharray=""/><path fill="none" stroke="rgb(229,229,229)" paint-order="fill" d="M 314.5 630.5 L 314.5 51.5 M 569.5 630.5 L 569.5 51.5 M 825.5 630.5 L 825.5 51.5 M 1080.5 630.5 L 1080.5 51.5" stroke-opacity="1" stroke-linejoin="bevel" stroke-miterlimit="10" stroke-dasharray="" clip-path="url(#uILIqENmvEOI)"/><path fill="none" stroke="rgb(229,229,229)" paint-order="fill" d="M 58.5 551.5 L 1336.5 551.5 M 58.5 446.5 L 1336.5 446.5 M 58.5 341.5 L 1336.5 341.5 M 58.5 235.5 L 1336.5 235.5 M 58.5 130.5 L 1336.5 130.5" stroke-opacity="1" stroke-linejoin="bevel" stroke-miterlimit="10" stroke-dasharray="" clip-path="url(#TgxQQNeJgEMd)"/><path fill="rgb(0,255,40)" stroke="none" paint-order="stroke" d="M 58.5 77.81818389892578 L 131.29232025146484 77.81818389892578 L 131.29232025146484 130.45454788208008 L 58.5 130.45454788208008 L 58.5 77.81818389892578" fill-opacity="1" clip-path="url(#JkKhwSEitOGM)"/><path fill="rgb(30,255,0)" stroke="none" paint-order="stroke" d="M 131.29232788085938 77.81818389892578 L 133.38313579559326 77.81818389892578 L 133.38313579559326 130.45454788208008 L 131.29232788085938 130.45454788208008 L 131.29232788085938 77.81818389892578" fill-opacity="1" clip-path="url(#JkKhwSEitOGM)"/><path fill="rgb(53,255,0)" stroke="none" paint-order="stroke" d="M 133.3831329345703 77.81818389892578 L 135.92251896858215 77.81818389892578 L 135.92251896858215 130.45454788208008 L 133.3831329345703 130.45454788208008 L 133.3831329345703 77.81818389892578" fill-opacity="1" clip-path="url(#JkKhwSEitOGM)"/><path fill="rgb(0,255,40)" stroke="none" paint-order="stroke" d="M 135.92251586914062 77.81818389892578 L 139.64532995224 77.81818389892578 L 139.64532995224 130.45454788208008 L 135.92251586914062 130.45454788208008 L 135.92251586914062 77.81818389892578" fill-opacity="1" clip-path="url(#JkKhwSEitOGM)"/><path fill="rgb(53,255,0)" stroke="none" paint-order="stroke" d="M 139.64532470703125 77.81818389892578 L 177.41150283813477 77.81818389892578 L 177.41150283813477 130.45454788208008 L 139.64532470703125 130.45454788208008 L 139.64532470703125 77.81818389892578" fill-opacity="1" clip-path="url(#JkKhwSEitOGM)"/><path fill="rgb(159,255,0)" stroke="none" paint-order="stroke" d="M 177.41151428222656 77.81818389892578 L 255.4206314086914 77.81818389892578 L 255.4206314086914 130.45454788208008 L 177.41151428222656 130.45454788208008 L 177.41151428222656 77.81818389892578" fill-opacity="1" clip-path="url(#JkKhwSEitOGM)"/><path fill="rgb(30,255,0)" stroke="none" paint-order="stroke" d="M 255.42062377929688 77.81818389892578 L 262.69244384765625 77.81818389892578 L 262.69244384765625 130.45454788208008 L 255.42062377929688 130.45454788208008 L 255.42062377929688 77.81818389892578" fill-opacity="1" clip-path="url(#JkKhwSEitOGM)"/><path fill="rgb(53,255,0)" stroke="none" paint-order="stroke" d="M 262.69244384765625 77.81818389892578 L 278.1102361679077 77.81818389892578 L 278.1102361679077 130.45454788208008 L 262.69244384765625 130.45454788208008 L 262.69244384765625 77.81818389892578" fill-opacity="1" clip-path="url(#JkKhwSEitOGM)"/><path fill="rgb(42,0,238)" stroke="none" paint-order="stroke" d="M 278.1102294921875 77.81818389892578 L 284.19350957870483 77.81818389892578 L 284.19350957870483 130.45454788208008 L 278.1102294921875 130.45454788208008 L 278.1102294921875 77.81818389892578" fill-opacity="1" clip-path="url(#JkKhwSEitOGM)"/><path fill="rgb(0,255,244)" stroke="none" paint-order="stroke" d="M 284.1935119628906 77.81818389892578 L 286.00188195705414 77.81818389892578 L 286.00188195705414 130.45454788208008 L 284.1935119628906 130.45454788208008 L 284.1935119628906 77.81818389892578" fill-opacity="1" clip-path="url(#JkKhwSEitOGM)"/><path fill="rgb(30,255,0)" stroke="none" paint-order="stroke" d="M 286.00189208984375 77.81818389892578 L 287.6147280931473 77.81818389892578 L 287.6147280931473 130.45454788208008 L 286.00189208984375 130.45454788208008 L 286.00189208984375 77.81818389892578" fill-opacity="1" clip-path="url(#JkKhwSEitOGM)"/><path fill="rgb(53,255,0)" stroke="none" paint-order="stroke" d="M 287.6147155761719 77.81818389892578 L 321.0497512817383 77.81818389892578 L 321.0497512817383 130.45454788208008 L 287.6147155761719 130.45454788208008 L 287.6147155761719 77.81818389892578" fill-opacity="1" clip-path="url(#JkKhwSEitOGM)"/><path fill="rgb(159,255,0)" stroke="none" paint-order="stroke" d="M 321.0497741699219 77.81818389892578 L 324.26394414901733 77.81818389892578 L 324.26394414901733 130.45454788208008 L 321.0497741699219 130.45454788208008 L 321.0497741699219 77.81818389892578" fill-opacity="1" clip-path="url(#JkKhwSEitOGM)"/><path fill="rgb(146,255,0)" stroke="none" paint-order="stroke" d="M 324.2639465332031 77.81818389892578 L 325.7425925731659 77.81818389892578 L 325.7425925731659 130.45454788208008 L 324.2639465332031 130.45454788208008 L 324.2639465332031 77.81818389892578" fill-opacity="1" clip-path="url(#JkKhwSEitOGM)"/><path fill="rgb(0,255,70)" stroke="none" paint-order="stroke" d="M 325.7425842285156 77.81818389892578 L 326.77265226840973 77.81818389892578 L 326.77265226840973 130.45454788208008 L 325.7425842285156 130.45454788208008 L 325.7425842285156 77.81818389892578" fill-opacity="1" clip-path="url(#JkKhwSEitOGM)"/><path fill="rgb(30,255,0)" stroke="none" paint-order="stroke" d="M 326.77264404296875 77.81818389892578 L 329.2097899913788 77.81818389892578 L 329.2097899913788 130.45454788208008 L 326.77264404296875 130.45454788208008 L 326.77264404296875 77.81818389892578" fill-opacity="1" clip-path="url(#JkKhwSEitOGM)"/><path fill="rgb(74,255,0)" stroke="none" paint-order="stroke" d="M 329.2098083496094 77.81818389892578 L 331.34662437438965 77.81818389892578 L 331.34662437438965 130.45454788208008 L 329.2098083496094 130.45454788208008 L 329.2098083496094 77.81818389892578" fill-opacity="1" clip-path="url(#JkKhwSEitOGM)"/><path fill="rgb(0,255,70)" stroke="none" paint-order="stroke" d="M 331.34661865234375 77.81818389892578 L 333.1639347076416 77.81818389892578 L 333.1639347076416 130.45454788208008 L 331.34661865234375 130.45454788208008 L 331.34661865234375 77.81818389892578" fill-opacity="1" clip-path="url(#JkKhwSEitOGM)"/><path fill="rgb(74,255,0)" stroke="none" paint-order="stroke" d="M 333.1639404296875 77.81818389892578 L 335.0004264116287 77.81818389892578 L 335.0004264116287 130.45454788208008 L 333.1639404296875 130.45454788208008 L 333.1639404296875 77.81818389892578" fill-opacity="1" clip-path="url(#JkKhwSEitOGM)"/><path fill="rgb(30,255,0)" stroke="none" paint-order="stroke" d="M 335.00042724609375 77.81818389892578 L 336.475239276886 77.81818389892578 L 336.475239276886 130.45454788208008 L 335.00042724609375 130.45454788208008 L 335.00042724609375 77.81818389892578" fill-opacity="1" clip-path="url(#JkKhwSEitOGM)"/><path fill="rgb(74,255,0)" stroke="none" paint-order="stroke" d="M 336.4752197265625 77.81818389892578 L 338.0369356870651 77.81818389892578 L 338.0369356870651 130.45454788208008 L 336.4752197265625 130.45454788208008 L 336.4752197265625 77.81818389892578" fill-opacity="1" clip-path="url(#JkKhwSEitOGM)"/><path fill="rgb(30,255,0)" stroke="none" paint-order="stroke" d="M 338.03692626953125 77.81818389892578 L 341.8466441631317 77.81818389892578 L 341.8466441631317 130.45454788208008 L 338.03692626953125 130.45454788208008 L 338.03692626953125 77.81818389892578" fill-opacity="1" clip-path="url(#JkKhwSEitOGM)"/><path fill="rgb(44,255,0)" stroke="none" paint-order="stroke" d="M 341.8466491699219 77.81818389892578 L 341.8888231702149 77.81818389892578 L 341.8888231702149 130.45454788208008 L 341.8466491699219 130.45454788208008 L 341.8466491699219 77.81818389892578" fill-opacity="1" clip-path="url(#JkKhwSEitOGM)"/><path fill="rgb(66,255,0)" stroke="none" paint-order="stroke" d="M 341.8888244628906 77.81818389892578 L 341.93099846318364 77.81818389892578 L 341.93099846318364 130.45454788208008 L 341.8888244628906 130.45454788208008 L 341.8888244628906 77.81818389892578" fill-opacity="1" clip-path="url(#JkKhwSEitOGM)"/><path fill="rgb(82,255,0)" stroke="none" paint-order="stroke" d="M 341.9309997558594 77.81818389892578 L 342.25177776813507 77.81818389892578 L 342.25177776813507 130.45454788208008 L 341.9309997558594 130.45454788208008 L 341.9309997558594 77.81818389892578" fill-opacity="1" clip-path="url(#JkKhwSEitOGM)"/><path fill="rgb(101,255,0)" stroke="none" paint-order="stroke" d="M 342.25177001953125 77.81818389892578 L 342.4856440126896 77.81818389892578 L 342.4856440126896 130.45454788208008 L 342.25177001953125 130.45454788208008 L 342.25177001953125 77.81818389892578" fill-opacity="1" clip-path="url(#JkKhwSEitOGM)"/><path fill="rgb(82,255,0)" stroke="none" paint-order="stroke" d="M 342.48565673828125 77.81818389892578 L 342.5061047375202 77.81818389892578 L 342.5061047375202 130.45454788208008 L 342.48565673828125 130.45454788208008 L 342.48565673828125 77.81818389892578" fill-opacity="1" clip-path="url(#JkKhwSEitOGM)"/><path fill="rgb(66,255,0)" stroke="none" paint-order="stroke" d="M 342.506103515625 77.81818389892578 L 342.52655151486397 77.81818389892578 L 342.52655151486397 130.45454788208008 L 342.506103515625 130.45454788208008 L 342.506103515625 77.81818389892578" fill-opacity="1" clip-path="url(#JkKhwSEitOGM)"/><path fill="rgb(44,255,0)" stroke="none" paint-order="stroke" d="M 342.52655029296875 77.81818389892578 L 342.5917282924056 77.81818389892578 L 342.5917282924056 130.45454788208008 L 342.52655029296875 130.45454788208008 L 342.52655029296875 77.81818389892578" fill-opacity="1" clip-path="url(#JkKhwSEitOGM)"/><path fill="rgb(20,255,0)" stroke="none" paint-order="stroke" d="M 342.59173583984375 77.81818389892578 L 342.63390984013677 77.81818389892578 L 342.63390984013677 130.45454788208008 L 342.59173583984375 130.45454788208008 L 342.59173583984375 77.81818389892578" fill-opacity="1" clip-path="url(#JkKhwSEitOGM)"/><path fill="rgb(0,255,40)" stroke="none" paint-order="stroke" d="M 342.6339111328125 77.81818389892578 L 343.31508511304855 77.81818389892578 L 343.31508511304855 130.45454788208008 L 342.6339111328125 130.45454788208008 L 342.6339111328125 77.81818389892578" fill-opacity="1" clip-path="url(#JkKhwSEitOGM)"/><path fill="rgb(20,255,0)" stroke="none" paint-order="stroke" d="M 343.3150939941406 77.81818389892578 L 343.336819993332 77.81818389892578 L 343.336819993332 130.45454788208008 L 343.3150939941406 130.45454788208008 L 343.3150939941406 77.81818389892578" fill-opacity="1" clip-path="url(#JkKhwSEitOGM)"/><path fill="rgb(44,255,0)" stroke="none" paint-order="stroke" d="M 343.3367919921875 77.81818389892578 L 343.3789659924805 77.81818389892578 L 343.3789659924805 130.45454788208008 L 343.3367919921875 130.45454788208008 L 343.3367919921875 77.81818389892578" fill-opacity="1" clip-path="url(#JkKhwSEitOGM)"/><path fill="rgb(66,255,0)" stroke="none" paint-order="stroke" d="M 343.37896728515625 77.81818389892578 L 343.4428672865033 77.81818389892578 L 343.4428672865033 130.45454788208008 L 343.37896728515625 130.45454788208008 L 343.37896728515625 77.81818389892578" fill-opacity="1" clip-path="url(#JkKhwSEitOGM)"/><path fill="rgb(82,255,0)" stroke="none" paint-order="stroke" d="M 343.44287109375 77.81818389892578 L 343.485045094043 77.81818389892578 L 343.485045094043 130.45454788208008 L 343.44287109375 130.45454788208008 L 343.44287109375 77.81818389892578" fill-opacity="1" clip-path="url(#JkKhwSEitOGM)"/><path fill="rgb(101,255,0)" stroke="none" paint-order="stroke" d="M 343.48504638671875 77.81818389892578 L 343.52849838510156 77.81818389892578 L 343.52849838510156 130.45454788208008 L 343.48504638671875 130.45454788208008 L 343.48504638671875 77.81818389892578" fill-opacity="1" clip-path="url(#JkKhwSEitOGM)"/><path fill="rgb(119,255,0)" stroke="none" paint-order="stroke" d="M 343.52850341796875 77.81818389892578 L 343.63457741588354 77.81818389892578 L 343.63457741588354 130.45454788208008 L 343.52850341796875 130.45454788208008 L 343.52850341796875 77.81818389892578" fill-opacity="1" clip-path="url(#JkKhwSEitOGM)"/><path fill="rgb(136,255,0)" stroke="none" paint-order="stroke" d="M 343.63458251953125 77.81818389892578 L 343.67675651982427 77.81818389892578 L 343.67675651982427 130.45454788208008 L 343.63458251953125 130.45454788208008 L 343.63458251953125 77.81818389892578" fill-opacity="1" clip-path="url(#JkKhwSEitOGM)"/><path fill="rgb(153,255,0)" stroke="none" paint-order="stroke" d="M 343.6767578125 77.81818389892578 L 344.1662318110466 77.81818389892578 L 344.1662318110466 130.45454788208008 L 343.6767578125 130.45454788208008 L 343.6767578125 77.81818389892578" fill-opacity="1" clip-path="url(#JkKhwSEitOGM)"/><path fill="rgb(136,255,0)" stroke="none" paint-order="stroke" d="M 344.1662292480469 77.81818389892578 L 344.2096812464297 77.81818389892578 L 344.2096812464297 130.45454788208008 L 344.1662292480469 130.45454788208008 L 344.1662292480469 77.81818389892578" fill-opacity="1" clip-path="url(#JkKhwSEitOGM)"/><path fill="rgb(119,255,0)" stroke="none" paint-order="stroke" d="M 344.2096862792969 77.81818389892578 L 344.2518602795899 77.81818389892578 L 344.2518602795899 130.45454788208008 L 344.2096862792969 130.45454788208008 L 344.2096862792969 77.81818389892578" fill-opacity="1" clip-path="url(#JkKhwSEitOGM)"/><path fill="rgb(101,255,0)" stroke="none" paint-order="stroke" d="M 344.2518615722656 77.81818389892578 L 344.29403557255864 77.81818389892578 L 344.29403557255864 130.45454788208008 L 344.2518615722656 130.45454788208008 L 344.2518615722656 77.81818389892578" fill-opacity="1" clip-path="url(#JkKhwSEitOGM)"/><path fill="rgb(82,255,0)" stroke="none" paint-order="stroke" d="M 344.2940368652344 77.81818389892578 L 344.52918887138367 77.81818389892578 L 344.52918887138367 130.45454788208008 L 344.2940368652344 130.45454788208008 L 344.2940368652344 77.81818389892578" fill-opacity="1" clip-path="url(#JkKhwSEitOGM)"/><path fill="rgb(66,255,0)" stroke="none" paint-order="stroke" d="M 344.5291748046875 77.81818389892578 L 474.8417205810547 77.81818389892578 L 474.8417205810547 130.45454788208008 L 344.5291748046875 130.45454788208008 L 344.5291748046875 77.81818389892578" fill-opacity="1" clip-path="url(#JkKhwSEitOGM)"/><path fill="rgb(251,0,7)" stroke="none" paint-order="stroke" d="M 58.5 130.4545440673828 L 177.41150665283203 130.4545440673828 L 177.41150665283203 183.0909080505371 L 58.5 183.0909080505371 L 58.5 130.4545440673828" fill-opacity="1" clip-path="url(#PDuWyLrvRmTb)"/><path fill="rgb(251,0,7)" stroke="none" paint-order="stroke" d="M 177.41151428222656 130.4545440673828 L 278.11024475097656 130.4545440673828 L 278.11024475097656 183.0909080505371 L 177.41151428222656 183.0909080505371 L 177.41151428222656 130.4545440673828" fill-opacity="1" clip-path="url(#PDuWyLrvRmTb)"/><path fill="rgb(56,126,34)" stroke="none" paint-order="stroke" d="M 278.1102294921875 130.4545440673828 L 321.0497512817383 130.4545440673828 L 321.0497512817383 183.0909080505371 L 278.1102294921875 183.0909080505371 L 278.1102294921875 130.4545440673828" fill-opacity="1" clip-path="url(#PDuWyLrvRmTb)"/><path fill="rgb(251,0,7)" stroke="none" paint-order="stroke" d="M 321.0497741699219 130.4545440673828 L 474.84173583984375 130.4545440673828 L 474.84173583984375 183.0909080505371 L 321.0497741699219 183.0909080505371 L 321.0497741699219 130.4545440673828" fill-opacity="1" clip-path="url(#PDuWyLrvRmTb)"/><path fill="rgb(105,29,48)" stroke="none" paint-order="stroke" d="M 172.93722534179688 183.09091186523438 L 173.00112534314394 183.09091186523438 L 173.00112534314394 498.9090881347656 L 172.93722534179688 498.9090881347656 L 172.93722534179688 183.09091186523438" fill-opacity="1" clip-path="url(#BSHsVfgsbmAf)"/><path fill="rgb(255,188,66)" stroke="none" paint-order="stroke" d="M 142.09780883789062 183.09091186523438 L 142.3661888241768 183.09091186523438 L 142.3661888241768 498.9090881347656 L 142.09780883789062 498.9090881347656 L 142.09780883789062 183.09091186523438" fill-opacity="1" clip-path="url(#noboeedLrOPm)"/><path fill="rgb(255,188,66)" stroke="none" paint-order="stroke" d="M 145.0039825439453 183.09091186523438 L 149.0986943244934 183.09091186523438 L 149.0986943244934 498.9090881347656 L 145.0039825439453 498.9090881347656 L 145.0039825439453 183.09091186523438" fill-opacity="1" clip-path="url(#noboeedLrOPm)"/><path fill="rgb(162,174,187)" stroke="none" paint-order="stroke" d="M 196.53677368164062 183.09091186523438 L 196.6006736829877 183.09091186523438 L 196.6006736829877 498.9090881347656 L 196.53677368164062 498.9090881347656 L 196.53677368164062 183.09091186523438" fill-opacity="1" clip-path="url(#zgbMMSrwuGXb)"/><path fill="rgb(216,17,89)" stroke="none" paint-order="stroke" d="M 128.8436737060547 183.09091186523438 L 128.90757370740175 183.09091186523438 L 128.90757370740175 498.9090881347656 L 128.8436737060547 498.9090881347656 L 128.8436737060547 183.09091186523438" fill-opacity="1" clip-path="url(#ThnsgAODQZoa)"/><path fill="rgb(216,17,89)" stroke="none" paint-order="stroke" d="M 128.8436737060547 183.09091186523438 L 128.90757370740175 183.09091186523438 L 128.90757370740175 498.9090881347656 L 128.8436737060547 498.9090881347656 L 128.8436737060547 183.09091186523438" fill-opacity="1" clip-path="url(#ThnsgAODQZoa)"/><path fill="rgb(216,17,89)" stroke="none" paint-order="stroke" d="M 135.92251586914062 183.09091186523438 L 135.9864158704877 183.09091186523438 L 135.9864158704877 498.9090881347656 L 135.92251586914062 498.9090881347656 L 135.92251586914062 183.09091186523438" fill-opacity="1" clip-path="url(#ThnsgAODQZoa)"/><path fill="rgb(216,17,89)" stroke="none" paint-order="stroke" d="M 137.48806762695312 183.09091186523438 L 137.5519676283002 183.09091186523438 L 137.5519676283002 498.9090881347656 L 137.48806762695312 498.9090881347656 L 137.48806762695312 183.09091186523438" fill-opacity="1" clip-path="url(#ThnsgAODQZoa)"/><path fill="rgb(33,131,128)" stroke="none" paint-order="stroke" d="M 175.65170288085938 183.09091186523438 L 177.41150891780853 183.09091186523438 L 177.41150891780853 498.9090881347656 L 175.65170288085938 498.9090881347656 L 175.65170288085938 183.09091186523438" fill-opacity="1" clip-path="url(#lJsZivOqNTVe)"/><path fill="rgb(33,131,128)" stroke="none" paint-order="stroke" d="M 276.3491516113281 183.09091186523438 L 278.11023557186127 183.09091186523438 L 278.11023557186127 498.9090881347656 L 276.3491516113281 498.9090881347656 L 276.3491516113281 183.09091186523438" fill-opacity="1" clip-path="url(#lJsZivOqNTVe)"/><path fill="rgb(33,131,128)" stroke="none" paint-order="stroke" d="M 319.117431640625 183.09091186523438 L 321.04976761341095 183.09091186523438 L 321.04976761341095 498.9090881347656 L 319.117431640625 498.9090881347656 L 319.117431640625 183.09091186523438" fill-opacity="1" clip-path="url(#lJsZivOqNTVe)"/><path fill="rgb(115,210,222)" stroke="none" paint-order="stroke" d="M 193.92837524414062 183.09091186523438 L 194.75012922286987 183.09091186523438 L 194.75012922286987 498.9090881347656 L 193.92837524414062 498.9090881347656 L 193.92837524414062 183.09091186523438" fill-opacity="1" clip-path="url(#LlOQJxxfRfuw)"/><path fill="rgb(115,210,222)" stroke="none" paint-order="stroke" d="M 207.34866333007812 183.09091186523438 L 208.41962730884552 183.09091186523438 L 208.41962730884552 498.9090881347656 L 207.34866333007812 498.9090881347656 L 207.34866333007812 183.09091186523438" fill-opacity="1" clip-path="url(#LlOQJxxfRfuw)"/><path fill="rgb(115,210,222)" stroke="none" paint-order="stroke" d="M 300.9327697753906 183.09091186523438 L 301.8222577571869 183.09091186523438 L 301.8222577571869 498.9090881347656 L 300.9327697753906 498.9090881347656 L 300.9327697753906 183.09091186523438" fill-opacity="1" clip-path="url(#LlOQJxxfRfuw)"/><path fill="rgb(115,210,222)" stroke="none" paint-order="stroke" d="M 350.43609619140625 183.09091186523438 L 354.59726428985596 183.09091186523438 L 354.59726428985596 498.9090881347656 L 350.43609619140625 498.9090881347656 L 350.43609619140625 183.09091186523438" fill-opacity="1" clip-path="url(#LlOQJxxfRfuw)"/><path fill="rgb(115,210,222)" stroke="none" paint-order="stroke" d="M 358.3494567871094 183.09091186523438 L 358.41335678845644 183.09091186523438 L 358.41335678845644 498.9090881347656 L 358.3494567871094 498.9090881347656 L 358.3494567871094 183.09091186523438" fill-opacity="1" clip-path="url(#LlOQJxxfRfuw)"/><path fill="rgb(115,210,222)" stroke="none" paint-order="stroke" d="M 358.3494567871094 183.09091186523438 L 358.41335678845644 183.09091186523438 L 358.41335678845644 498.9090881347656 L 358.3494567871094 498.9090881347656 L 358.3494567871094 183.09091186523438" fill-opacity="1" clip-path="url(#LlOQJxxfRfuw)"/><path fill="rgb(115,210,222)" stroke="none" paint-order="stroke" d="M 359.8357849121094 183.09091186523438 L 359.89968491345644 183.09091186523438 L 359.89968491345644 498.9090881347656 L 359.8357849121094 498.9090881347656 L 359.8357849121094 183.09091186523438" fill-opacity="1" clip-path="url(#LlOQJxxfRfuw)"/><path fill="rgb(115,210,222)" stroke="none" paint-order="stroke" d="M 359.8357849121094 183.09091186523438 L 359.89968491345644 183.09091186523438 L 359.89968491345644 498.9090881347656 L 359.8357849121094 498.9090881347656 L 359.8357849121094 183.09091186523438" fill-opacity="1" clip-path="url(#LlOQJxxfRfuw)"/><path fill="rgb(115,210,222)" stroke="none" paint-order="stroke" d="M 360.00958251953125 183.09091186523438 L 360.0734825208783 183.09091186523438 L 360.0734825208783 498.9090881347656 L 360.00958251953125 498.9090881347656 L 360.00958251953125 183.09091186523438" fill-opacity="1" clip-path="url(#LlOQJxxfRfuw)"/><path fill="rgb(115,210,222)" stroke="none" paint-order="stroke" d="M 360.00958251953125 183.09091186523438 L 360.0734825208783 183.09091186523438 L 360.0734825208783 498.9090881347656 L 360.00958251953125 498.9090881347656 L 360.00958251953125 183.09091186523438" fill-opacity="1" clip-path="url(#LlOQJxxfRfuw)"/><path fill="rgb(115,210,222)" stroke="none" paint-order="stroke" d="M 360.1476135253906 183.09091186523438 L 360.2115135267377 183.09091186523438 L 360.2115135267377 498.9090881347656 L 360.1476135253906 498.9090881347656 L 360.1476135253906 183.09091186523438" fill-opacity="1" clip-path="url(#LlOQJxxfRfuw)"/><path fill="rgb(115,210,222)" stroke="none" paint-order="stroke" d="M 360.1476135253906 183.09091186523438 L 360.2115135267377 183.09091186523438 L 360.2115135267377 498.9090881347656 L 360.1476135253906 498.9090881347656 L 360.1476135253906 183.09091186523438" fill-opacity="1" clip-path="url(#LlOQJxxfRfuw)"/><path fill="rgb(115,210,222)" stroke="none" paint-order="stroke" d="M 360.2958679199219 183.09091186523438 L 360.35976792126894 183.09091186523438 L 360.35976792126894 498.9090881347656 L 360.2958679199219 498.9090881347656 L 360.2958679199219 183.09091186523438" fill-opacity="1" clip-path="url(#LlOQJxxfRfuw)"/><path fill="rgb(115,210,222)" stroke="none" paint-order="stroke" d="M 360.2958679199219 183.09091186523438 L 360.35976792126894 183.09091186523438 L 360.35976792126894 498.9090881347656 L 360.2958679199219 498.9090881347656 L 360.2958679199219 183.09091186523438" fill-opacity="1" clip-path="url(#LlOQJxxfRfuw)"/><path fill="rgb(115,210,222)" stroke="none" paint-order="stroke" d="M 360.5706481933594 183.09091186523438 L 360.63454819470644 183.09091186523438 L 360.63454819470644 498.9090881347656 L 360.5706481933594 498.9090881347656 L 360.5706481933594 183.09091186523438" fill-opacity="1" clip-path="url(#LlOQJxxfRfuw)"/><path fill="rgb(115,210,222)" stroke="none" paint-order="stroke" d="M 360.5706481933594 183.09091186523438 L 360.63454819470644 183.09091186523438 L 360.63454819470644 498.9090881347656 L 360.5706481933594 498.9090881347656 L 360.5706481933594 183.09091186523438" fill-opacity="1" clip-path="url(#LlOQJxxfRfuw)"/><path fill="rgb(115,210,222)" stroke="none" paint-order="stroke" d="M 362.30487060546875 183.09091186523438 L 362.3687706068158 183.09091186523438 L 362.3687706068158 498.9090881347656 L 362.30487060546875 498.9090881347656 L 362.30487060546875 183.09091186523438" fill-opacity="1" clip-path="url(#LlOQJxxfRfuw)"/><path fill="rgb(115,210,222)" stroke="none" paint-order="stroke" d="M 362.30487060546875 183.09091186523438 L 362.3687706068158 183.09091186523438 L 362.3687706068158 498.9090881347656 L 362.30487060546875 498.9090881347656 L 362.30487060546875 183.09091186523438" fill-opacity="1" clip-path="url(#LlOQJxxfRfuw)"/><path fill="rgb(115,210,222)" stroke="none" paint-order="stroke" d="M 367.3734436035156 183.09091186523438 L 368.767741560936 183.09091186523438 L 368.767741560936 498.9090881347656 L 367.3734436035156 498.9090881347656 L 367.3734436035156 183.09091186523438" fill-opacity="1" clip-path="url(#LlOQJxxfRfuw)"/><path fill="rgb(115,210,222)" stroke="none" paint-order="stroke" d="M 371.9435729980469 183.09091186523438 L 378.3514652252197 183.09091186523438 L 378.3514652252197 498.9090881347656 L 371.9435729980469 498.9090881347656 L 371.9435729980469 183.09091186523438" fill-opacity="1" clip-path="url(#LlOQJxxfRfuw)"/><path fill="rgb(115,210,222)" stroke="none" paint-order="stroke" d="M 426.1575927734375 183.09091186523438 L 426.22149277478456 183.09091186523438 L 426.22149277478456 498.9090881347656 L 426.1575927734375 498.9090881347656 L 426.1575927734375 183.09091186523438" fill-opacity="1" clip-path="url(#LlOQJxxfRfuw)"/><path fill="rgb(115,210,222)" stroke="none" paint-order="stroke" d="M 426.1575927734375 183.09091186523438 L 426.22149277478456 183.09091186523438 L 426.22149277478456 498.9090881347656 L 426.1575927734375 498.9090881347656 L 426.1575927734375 183.09091186523438" fill-opacity="1" clip-path="url(#LlOQJxxfRfuw)"/><path fill="rgb(115,210,222)" stroke="none" paint-order="stroke" d="M 426.3518371582031 183.09091186523438 L 426.4157371595502 183.09091186523438 L 426.4157371595502 498.9090881347656 L 426.3518371582031 498.9090881347656 L 426.3518371582031 183.09091186523438" fill-opacity="1" clip-path="url(#LlOQJxxfRfuw)"/><path fill="rgb(115,210,222)" stroke="none" paint-order="stroke" d="M 426.3518371582031 183.09091186523438 L 426.4157371595502 183.09091186523438 L 426.4157371595502 498.9090881347656 L 426.3518371582031 498.9090881347656 L 426.3518371582031 183.09091186523438" fill-opacity="1" clip-path="url(#LlOQJxxfRfuw)"/><path fill="rgb(115,210,222)" stroke="none" paint-order="stroke" d="M 426.5627136230469 183.09091186523438 L 426.62661362439394 183.09091186523438 L 426.62661362439394 498.9090881347656 L 426.5627136230469 498.9090881347656 L 426.5627136230469 183.09091186523438" fill-opacity="1" clip-path="url(#LlOQJxxfRfuw)"/><path fill="rgb(115,210,222)" stroke="none" paint-order="stroke" d="M 426.5627136230469 183.09091186523438 L 426.62661362439394 183.09091186523438 L 426.62661362439394 498.9090881347656 L 426.5627136230469 498.9090881347656 L 426.5627136230469 183.09091186523438" fill-opacity="1" clip-path="url(#LlOQJxxfRfuw)"/><path fill="rgb(115,210,222)" stroke="none" paint-order="stroke" d="M 431.8894348144531 183.09091186523438 L 433.28628885746 183.09091186523438 L 433.28628885746 498.9090881347656 L 431.8894348144531 498.9090881347656 L 431.8894348144531 183.09091186523438" fill-opacity="1" clip-path="url(#LlOQJxxfRfuw)"/><path fill="rgb(115,210,222)" stroke="none" paint-order="stroke" d="M 439.5612487792969 183.09091186523438 L 445.2572946548462 183.09091186523438 L 445.2572946548462 498.9090881347656 L 439.5612487792969 498.9090881347656 L 439.5612487792969 183.09091186523438" fill-opacity="1" clip-path="url(#LlOQJxxfRfuw)"/><path fill="rgb(115,210,222)" stroke="none" paint-order="stroke" d="M 452.0051574707031 183.09091186523438 L 458.24818754196167 183.09091186523438 L 458.24818754196167 498.9090881347656 L 452.0051574707031 498.9090881347656 L 452.0051574707031 183.09091186523438" fill-opacity="1" clip-path="url(#LlOQJxxfRfuw)"/><path fill="rgb(115,210,222)" stroke="none" paint-order="stroke" d="M 459.64373779296875 183.09091186523438 L 459.7076377943158 183.09091186523438 L 459.7076377943158 498.9090881347656 L 459.64373779296875 498.9090881347656 L 459.64373779296875 183.09091186523438" fill-opacity="1" clip-path="url(#LlOQJxxfRfuw)"/><path fill="rgb(115,210,222)" stroke="none" paint-order="stroke" d="M 459.64373779296875 183.09091186523438 L 459.7076377943158 183.09091186523438 L 459.7076377943158 498.9090881347656 L 459.64373779296875 498.9090881347656 L 459.64373779296875 183.09091186523438" fill-opacity="1" clip-path="url(#LlOQJxxfRfuw)"/><path fill="rgb(115,210,222)" stroke="none" paint-order="stroke" d="M 459.8725280761719 183.09091186523438 L 459.93642807751894 183.09091186523438 L 459.93642807751894 498.9090881347656 L 459.8725280761719 498.9090881347656 L 459.8725280761719 183.09091186523438" fill-opacity="1" clip-path="url(#LlOQJxxfRfuw)"/><path fill="rgb(115,210,222)" stroke="none" paint-order="stroke" d="M 459.8725280761719 183.09091186523438 L 459.93642807751894 183.09091186523438 L 459.93642807751894 498.9090881347656 L 459.8725280761719 498.9090881347656 L 459.8725280761719 183.09091186523438" fill-opacity="1" clip-path="url(#LlOQJxxfRfuw)"/><path fill="rgb(115,210,222)" stroke="none" paint-order="stroke" d="M 460.0744323730469 183.09091186523438 L 460.13833237439394 183.09091186523438 L 460.13833237439394 498.9090881347656 L 460.0744323730469 498.9090881347656 L 460.0744323730469 183.09091186523438" fill-opacity="1" clip-path="url(#LlOQJxxfRfuw)"/><path fill="rgb(115,210,222)" stroke="none" paint-order="stroke" d="M 460.0744323730469 183.09091186523438 L 460.13833237439394 183.09091186523438 L 460.13833237439394 498.9090881347656 L 460.0744323730469 498.9090881347656 L 460.0744323730469 183.09091186523438" fill-opacity="1" clip-path="url(#LlOQJxxfRfuw)"/><path fill="rgb(115,210,222)" stroke="none" paint-order="stroke" d="M 460.4693298339844 183.09091186523438 L 460.53322983533144 183.09091186523438 L 460.53322983533144 498.9090881347656 L 460.4693298339844 498.9090881347656 L 460.4693298339844 183.09091186523438" fill-opacity="1" clip-path="url(#LlOQJxxfRfuw)"/><path fill="rgb(115,210,222)" stroke="none" paint-order="stroke" d="M 460.4693298339844 183.09091186523438 L 460.53322983533144 183.09091186523438 L 460.53322983533144 498.9090881347656 L 460.4693298339844 498.9090881347656 L 460.4693298339844 183.09091186523438" fill-opacity="1" clip-path="url(#LlOQJxxfRfuw)"/><path fill="rgb(115,210,222)" stroke="none" paint-order="stroke" d="M 460.77093505859375 183.09091186523438 L 460.8348350599408 183.09091186523438 L 460.8348350599408 498.9090881347656 L 460.77093505859375 498.9090881347656 L 460.77093505859375 183.09091186523438" fill-opacity="1" clip-path="url(#LlOQJxxfRfuw)"/><path fill="rgb(115,210,222)" stroke="none" paint-order="stroke" d="M 460.77093505859375 183.09091186523438 L 460.8348350599408 183.09091186523438 L 460.8348350599408 498.9090881347656 L 460.77093505859375 498.9090881347656 L 460.77093505859375 183.09091186523438" fill-opacity="1" clip-path="url(#LlOQJxxfRfuw)"/><path fill="rgb(28,49,68)" stroke="none" paint-order="stroke" d="M 150.59011840820312 183.09091186523438 L 153.9244203567505 183.09091186523438 L 153.9244203567505 498.9090881347656 L 150.59011840820312 498.9090881347656 L 150.59011840820312 183.09091186523438" fill-opacity="1" clip-path="url(#zgySanBFkPKT)"/><path fill="rgb(28,49,68)" stroke="none" paint-order="stroke" d="M 221.26991271972656 183.09091186523438 L 246.89381217956543 183.09091186523438 L 246.89381217956543 498.9090881347656 L 221.26991271972656 498.9090881347656 L 221.26991271972656 183.09091186523438" fill-opacity="1" clip-path="url(#zgySanBFkPKT)"/><path fill="rgb(28,49,68)" stroke="none" paint-order="stroke" d="M 415.4735107421875 183.09091186523438 L 418.50492668151855 183.09091186523438 L 418.50492668151855 498.9090881347656 L 415.4735107421875 498.9090881347656 L 415.4735107421875 183.09091186523438" fill-opacity="1" clip-path="url(#zgySanBFkPKT)"/><path fill="rgb(28,49,68)" stroke="none" paint-order="stroke" d="M 436.364990234375 183.09091186523438 L 437.9969962835312 183.09091186523438 L 437.9969962835312 498.9090881347656 L 436.364990234375 498.9090881347656 L 436.364990234375 183.09091186523438" fill-opacity="1" clip-path="url(#zgySanBFkPKT)"/><path fill="rgb(28,49,68)" stroke="none" paint-order="stroke" d="M 447.4068908691406 183.09091186523438 L 450.807648897171 183.09091186523438 L 450.807648897171 498.9090881347656 L 447.4068908691406 498.9090881347656 L 447.4068908691406 183.09091186523438" fill-opacity="1" clip-path="url(#zgySanBFkPKT)"/><path fill="rgb(28,49,68)" stroke="none" paint-order="stroke" d="M 462.3901672363281 183.09091186523438 L 466.97435331344604 183.09091186523438 L 466.97435331344604 498.9090881347656 L 462.3901672363281 498.9090881347656 L 462.3901672363281 183.09091186523438" fill-opacity="1" clip-path="url(#zgySanBFkPKT)"/><path fill="rgb(239,185,203)" stroke="none" paint-order="stroke" d="M 65.10726165771484 183.09091186523438 L 123.83263778686523 183.09091186523438 L 123.83263778686523 498.9090881347656 L 65.10726165771484 498.9090881347656 L 65.10726165771484 183.09091186523438" fill-opacity="1" clip-path="url(#KUFVVkHtmGKk)"/><path fill="rgb(239,185,203)" stroke="none" paint-order="stroke" d="M 156.54049682617188 183.09091186523438 L 171.5416612625122 183.09091186523438 L 171.5416612625122 498.9090881347656 L 156.54049682617188 498.9090881347656 L 156.54049682617188 183.09091186523438" fill-opacity="1" clip-path="url(#KUFVVkHtmGKk)"/><path fill="rgb(239,185,203)" stroke="none" paint-order="stroke" d="M 181.5292205810547 183.09091186523438 L 191.5845241546631 183.09091186523438 L 191.5845241546631 498.9090881347656 L 181.5292205810547 498.9090881347656 L 181.5292205810547 183.09091186523438" fill-opacity="1" clip-path="url(#KUFVVkHtmGKk)"/><path fill="rgb(239,185,203)" stroke="none" paint-order="stroke" d="M 200.35671997070312 183.09091186523438 L 204.57539796829224 183.09091186523438 L 204.57539796829224 498.9090881347656 L 200.35671997070312 498.9090881347656 L 200.35671997070312 183.09091186523438" fill-opacity="1" clip-path="url(#KUFVVkHtmGKk)"/><path fill="rgb(239,185,203)" stroke="none" paint-order="stroke" d="M 211.31045532226562 183.09091186523438 L 219.45003700256348 183.09091186523438 L 219.45003700256348 498.9090881347656 L 211.31045532226562 498.9090881347656 L 211.31045532226562 183.09091186523438" fill-opacity="1" clip-path="url(#KUFVVkHtmGKk)"/><path fill="rgb(239,185,203)" stroke="none" paint-order="stroke" d="M 265.3302307128906 183.09091186523438 L 274.68902492523193 183.09091186523438 L 274.68902492523193 498.9090881347656 L 265.3302307128906 498.9090881347656 L 265.3302307128906 183.09091186523438" fill-opacity="1" clip-path="url(#KUFVVkHtmGKk)"/><path fill="rgb(239,185,203)" stroke="none" paint-order="stroke" d="M 291.0180358886719 183.09091186523438 L 297.0463619232178 183.09091186523438 L 297.0463619232178 498.9090881347656 L 291.0180358886719 498.9090881347656 L 291.0180358886719 183.09091186523438" fill-opacity="1" clip-path="url(#KUFVVkHtmGKk)"/><path fill="rgb(239,185,203)" stroke="none" paint-order="stroke" d="M 305.0185241699219 183.09091186523438 L 316.9397077560425 183.09091186523438 L 316.9397077560425 498.9090881347656 L 305.0185241699219 498.9090881347656 L 305.0185241699219 183.09091186523438" fill-opacity="1" clip-path="url(#KUFVVkHtmGKk)"/><path fill="rgb(239,185,203)" stroke="none" paint-order="stroke" d="M 380.97900390625 183.09091186523438 L 393.3832721710205 183.09091186523438 L 393.3832721710205 498.9090881347656 L 380.97900390625 498.9090881347656 L 380.97900390625 183.09091186523438" fill-opacity="1" clip-path="url(#KUFVVkHtmGKk)"/><path fill="rgb(239,185,203)" stroke="none" paint-order="stroke" d="M 397.46649169921875 183.09091186523438 L 413.6076316833496 183.09091186523438 L 413.6076316833496 498.9090881347656 L 397.46649169921875 498.9090881347656 L 397.46649169921875 183.09091186523438" fill-opacity="1" clip-path="url(#KUFVVkHtmGKk)"/><path fill="rgb(239,185,203)" stroke="none" paint-order="stroke" d="M 421.0366516113281 183.09091186523438 L 423.87381172180176 183.09091186523438 L 423.87381172180176 498.9090881347656 L 421.0366516113281 498.9090881347656 L 421.0366516113281 183.09091186523438" fill-opacity="1" clip-path="url(#KUFVVkHtmGKk)"/><path fill="rgb(105,29,48)" stroke="none" paint-order="stroke" d="M 131.29232788085938 183.09091186523438 L 131.56965386867523 183.09091186523438 L 131.56965386867523 498.9090881347656 L 131.29232788085938 498.9090881347656 L 131.29232788085938 183.09091186523438" fill-opacity="1" clip-path="url(#prPoCWTWUIQU)"/><path fill="rgb(105,29,48)" stroke="none" paint-order="stroke" d="M 132.09107971191406 183.09091186523438 L 132.3645717203617 183.09091186523438 L 132.3645717203617 498.9090881347656 L 132.09107971191406 498.9090881347656 L 132.09107971191406 183.09091186523438" fill-opacity="1" clip-path="url(#prPoCWTWUIQU)"/><path fill="rgb(105,29,48)" stroke="none" paint-order="stroke" d="M 133.3831329345703 183.09091186523438 L 133.6579029262066 183.09091186523438 L 133.6579029262066 498.9090881347656 L 133.3831329345703 498.9090881347656 L 133.3831329345703 183.09091186523438" fill-opacity="1" clip-path="url(#prPoCWTWUIQU)"/><path fill="rgb(105,29,48)" stroke="none" paint-order="stroke" d="M 139.64532470703125 183.09091186523438 L 139.92009469866753 183.09091186523438 L 139.92009469866753 498.9090881347656 L 139.64532470703125 498.9090881347656 L 139.64532470703125 183.09091186523438" fill-opacity="1" clip-path="url(#prPoCWTWUIQU)"/><path fill="rgb(105,29,48)" stroke="none" paint-order="stroke" d="M 255.42062377929688 183.09091186523438 L 255.69155979156494 183.09091186523438 L 255.69155979156494 498.9090881347656 L 255.42062377929688 498.9090881347656 L 255.42062377929688 183.09091186523438" fill-opacity="1" clip-path="url(#prPoCWTWUIQU)"/><path fill="rgb(105,29,48)" stroke="none" paint-order="stroke" d="M 259.0169372558594 183.09091186523438 L 259.28915125131607 183.09091186523438 L 259.28915125131607 498.9090881347656 L 259.0169372558594 498.9090881347656 L 259.0169372558594 183.09091186523438" fill-opacity="1" clip-path="url(#prPoCWTWUIQU)"/><path fill="rgb(105,29,48)" stroke="none" paint-order="stroke" d="M 260.1556091308594 183.09091186523438 L 260.42782312631607 183.09091186523438 L 260.42782312631607 498.9090881347656 L 260.1556091308594 498.9090881347656 L 260.1556091308594 183.09091186523438" fill-opacity="1" clip-path="url(#prPoCWTWUIQU)"/><path fill="rgb(105,29,48)" stroke="none" paint-order="stroke" d="M 262.69244384765625 183.09091186523438 L 262.9595458507538 183.09091186523438 L 262.9595458507538 498.9090881347656 L 262.69244384765625 498.9090881347656 L 262.69244384765625 183.09091186523438" fill-opacity="1" clip-path="url(#prPoCWTWUIQU)"/><path fill="rgb(105,29,48)" stroke="none" paint-order="stroke" d="M 284.1935119628906 183.09091186523438 L 284.4644479751587 183.09091186523438 L 284.4644479751587 498.9090881347656 L 284.1935119628906 498.9090881347656 L 284.1935119628906 183.09091186523438" fill-opacity="1" clip-path="url(#prPoCWTWUIQU)"/><path fill="rgb(105,29,48)" stroke="none" paint-order="stroke" d="M 286.00189208984375 183.09091186523438 L 286.27666208148 183.09091186523438 L 286.27666208148 498.9090881347656 L 286.00189208984375 498.9090881347656 L 286.00189208984375 183.09091186523438" fill-opacity="1" clip-path="url(#prPoCWTWUIQU)"/><path fill="rgb(105,29,48)" stroke="none" paint-order="stroke" d="M 287.6147155761719 183.09091186523438 L 287.8882075846195 183.09091186523438 L 287.8882075846195 498.9090881347656 L 287.6147155761719 498.9090881347656 L 287.6147155761719 183.09091186523438" fill-opacity="1" clip-path="url(#prPoCWTWUIQU)"/><path fill="rgb(105,29,48)" stroke="none" paint-order="stroke" d="M 324.2639465332031 183.09091186523438 L 324.5361605286598 183.09091186523438 L 324.5361605286598 498.9090881347656 L 324.2639465332031 498.9090881347656 L 324.2639465332031 183.09091186523438" fill-opacity="1" clip-path="url(#prPoCWTWUIQU)"/><path fill="rgb(105,29,48)" stroke="none" paint-order="stroke" d="M 325.7425842285156 183.09091186523438 L 326.0135202407837 183.09091186523438 L 326.0135202407837 498.9090881347656 L 325.7425842285156 498.9090881347656 L 325.7425842285156 183.09091186523438" fill-opacity="1" clip-path="url(#prPoCWTWUIQU)"/><path fill="rgb(105,29,48)" stroke="none" paint-order="stroke" d="M 326.77264404296875 183.09091186523438 L 327.04230204224586 183.09091186523438 L 327.04230204224586 498.9090881347656 L 326.77264404296875 498.9090881347656 L 326.77264404296875 183.09091186523438" fill-opacity="1" clip-path="url(#prPoCWTWUIQU)"/><path fill="rgb(105,29,48)" stroke="none" paint-order="stroke" d="M 329.2098083496094 183.09091186523438 L 329.48202234506607 183.09091186523438 L 329.48202234506607 498.9090881347656 L 329.2098083496094 498.9090881347656 L 329.2098083496094 183.09091186523438" fill-opacity="1" clip-path="url(#prPoCWTWUIQU)"/><path fill="rgb(105,29,48)" stroke="none" paint-order="stroke" d="M 331.34661865234375 183.09091186523438 L 331.62138864398 183.09091186523438 L 331.62138864398 498.9090881347656 L 331.34661865234375 498.9090881347656 L 331.34661865234375 183.09091186523438" fill-opacity="1" clip-path="url(#prPoCWTWUIQU)"/><path fill="rgb(105,29,48)" stroke="none" paint-order="stroke" d="M 333.1639404296875 183.09091186523438 L 333.4361544251442 183.09091186523438 L 333.4361544251442 498.9090881347656 L 333.1639404296875 498.9090881347656 L 333.1639404296875 183.09091186523438" fill-opacity="1" clip-path="url(#prPoCWTWUIQU)"/><path fill="rgb(105,29,48)" stroke="none" paint-order="stroke" d="M 335.00042724609375 183.09091186523438 L 335.2713632583618 183.09091186523438 L 335.2713632583618 498.9090881347656 L 335.00042724609375 498.9090881347656 L 335.00042724609375 183.09091186523438" fill-opacity="1" clip-path="url(#prPoCWTWUIQU)"/><path fill="rgb(105,29,48)" stroke="none" paint-order="stroke" d="M 336.4752197265625 183.09091186523438 L 336.7499897181988 183.09091186523438 L 336.7499897181988 498.9090881347656 L 336.4752197265625 498.9090881347656 L 336.4752197265625 183.09091186523438" fill-opacity="1" clip-path="url(#prPoCWTWUIQU)"/><path fill="rgb(105,29,48)" stroke="none" paint-order="stroke" d="M 338.03692626953125 183.09091186523438 L 338.30914026498795 183.09091186523438 L 338.30914026498795 498.9090881347656 L 338.03692626953125 498.9090881347656 L 338.03692626953125 183.09091186523438" fill-opacity="1" clip-path="url(#prPoCWTWUIQU)"/><path fill="rgb(105,29,48)" stroke="none" paint-order="stroke" d="M 338.7615661621094 183.09091186523438 L 339.03378015756607 183.09091186523438 L 339.03378015756607 498.9090881347656 L 338.7615661621094 498.9090881347656 L 338.7615661621094 183.09091186523438" fill-opacity="1" clip-path="url(#prPoCWTWUIQU)"/><path fill="rgb(105,29,48)" stroke="none" paint-order="stroke" d="M 339.9909973144531 183.09091186523438 L 340.2632113099098 183.09091186523438 L 340.2632113099098 498.9090881347656 L 339.9909973144531 498.9090881347656 L 339.9909973144531 183.09091186523438" fill-opacity="1" clip-path="url(#prPoCWTWUIQU)"/><path fill="rgb(105,29,48)" stroke="none" paint-order="stroke" d="M 341.46197509765625 183.09091186523438 L 345.4608371257782 183.09091186523438 L 345.4608371257782 498.9090881347656 L 341.46197509765625 498.9090881347656 L 341.46197509765625 183.09091186523438" fill-opacity="1" clip-path="url(#prPoCWTWUIQU)"/><path fill="rgb(255,188,66)" stroke="none" paint-order="stroke" d="M 146.65260314941406 498.9090881347656 L 147.05645114183426 498.9090881347656 L 147.05645114183426 551.5454521179199 L 146.65260314941406 551.5454521179199 L 146.65260314941406 498.9090881347656" fill-opacity="1" clip-path="url(#ogUsNTBaZhNJ)"/><path fill="rgb(255,188,66)" stroke="none" paint-order="stroke" d="M 147.61109924316406 498.9090881347656 L 474.8417205810547 498.9090881347656 L 474.8417205810547 551.5454521179199 L 147.61109924316406 551.5454521179199 L 147.61109924316406 498.9090881347656" fill-opacity="1" clip-path="url(#ogUsNTBaZhNJ)"/><path fill="rgb(143,45,86)" stroke="none" paint-order="stroke" d="M 58.5 551.5454711914062 L 172.9372329711914 551.5454711914062 L 172.9372329711914 604.1818351745605 L 58.5 604.1818351745605 L 58.5 551.5454711914062" fill-opacity="1" clip-path="url(#TEbbVQcERegv)"/><path fill="rgb(63,136,197)" stroke="none" paint-order="stroke" d="M 172.93722534179688 551.5454711914062 L 196.53677368164062 551.5454711914062 L 196.53677368164062 604.1818351745605 L 172.93722534179688 604.1818351745605 L 172.93722534179688 551.5454711914062" fill-opacity="1" clip-path="url(#TEbbVQcERegv)"/><path fill="rgb(81,60,99)" stroke="none" paint-order="stroke" d="M 196.53677368164062 551.5454711914062 L 474.84173583984375 551.5454711914062 L 474.84173583984375 604.1818351745605 L 196.53677368164062 604.1818351745605 L 196.53677368164062 551.5454711914062" fill-opacity="1" clip-path="url(#TEbbVQcERegv)"/><path fill="none" stroke="rgb(0,0,0)" paint-order="fill" d="M 58.5 77.81818389892578 L 474.84173583984375 77.81818389892578 L 474.84173583984375 604.1818313598633 L 58.5 604.1818313598633 L 58.5 77.81818389892578" stroke-opacity="1" stroke-linejoin="bevel" stroke-miterlimit="10" stroke-dasharray="" clip-path="url(#wwMdpyNNNQpO)"/><path fill="none" stroke="rgb(0,0,0)" paint-order="fill" d="M 58.5 630.5 L 1336.5 630.5" stroke-opacity="1" stroke-linejoin="bevel" stroke-miterlimit="10" stroke-dasharray=""/><path fill="none" stroke="rgb(0,0,0)" paint-order="fill" d="M 58.5 636.5 L 58.5 628.5 M 314.5 636.5 L 314.5 628.5 M 569.5 636.5 L 569.5 628.5 M 825.5 636.5 L 825.5 628.5 M 1080.5 636.5 L 1080.5 628.5 M 1336.5 636.5 L 1336.5 628.5" stroke-opacity="1" stroke-linejoin="bevel" stroke-miterlimit="10" stroke-dasharray=""/><path fill="none" stroke="rgb(0,0,0)" paint-order="fill" d="M 58.5 634.5 L 58.5 630.5 M 109.5 634.5 L 109.5 630.5 M 160.5 634.5 L 160.5 630.5 M 211.5 634.5 L 211.5 630.5 M 262.5 634.5 L 262.5 630.5 M 314.5 634.5 L 314.5 630.5 M 365.5 634.5 L 365.5 630.5 M 416.5 634.5 L 416.5 630.5 M 467.5 634.5 L 467.5 630.5 M 518.5 634.5 L 518.5 630.5 M 569.5 634.5 L 569.5 630.5 M 620.5 634.5 L 620.5 630.5 M 671.5 634.5 L 671.5 630.5 M 723.5 634.5 L 723.5 630.5 M 774.5 634.5 L 774.5 630.5 M 825.5 634.5 L 825.5 630.5 M 876.5 634.5 L 876.5 630.5 M 927.5 634.5 L 927.5 630.5 M 978.5 634.5 L 978.5 630.5 M 1029.5 634.5 L 1029.5 630.5 M 1080.5 634.5 L 1080.5 630.5 M 1132.5 634.5 L 1132.5 630.5 M 1183.5 634.5 L 1183.5 630.5 M 1234.5 634.5 L 1234.5 630.5 M 1285.5 634.5 L 1285.5 630.5 M 1336.5 634.5 L 1336.5 630.5" stroke-opacity="1" stroke-linejoin="bevel" stroke-miterlimit="10" stroke-dasharray=""/><text fill="rgb(68,68,68)" stroke="none" font-family="helvetica" font-size="11px" font-style="normal" font-weight="normal" text-decoration="normal" x="54.94166660308838" y="648.89013671875" text-anchor="start" dominant-baseline="alphabetic" transform="matrix(1, 0, 0, 1, 0.5, 0.5)" fill-opacity="1">0</text><text fill="rgb(68,68,68)" stroke="none" font-family="helvetica" font-size="11px" font-style="normal" font-weight="normal" text-decoration="normal" x="304.42500591278076" y="648.89013671875" text-anchor="start" dominant-baseline="alphabetic" transform="matrix(1, 0, 0, 1, 0.5, 0.5)" fill-opacity="1">200</text><text fill="rgb(68,68,68)" stroke="none" font-family="helvetica" font-size="11px" font-style="normal" font-weight="normal" text-decoration="normal" x="560.0250120162964" y="648.89013671875" text-anchor="start" dominant-baseline="alphabetic" transform="matrix(1, 0, 0, 1, 0.5, 0.5)" fill-opacity="1">400</text><text fill="rgb(68,68,68)" stroke="none" font-family="helvetica" font-size="11px" font-style="normal" font-weight="normal" text-decoration="normal" x="815.6249876022339" y="648.89013671875" text-anchor="start" dominant-baseline="alphabetic" transform="matrix(1, 0, 0, 1, 0.5, 0.5)" fill-opacity="1">600</text><text fill="rgb(68,68,68)" stroke="none" font-family="helvetica" font-size="11px" font-style="normal" font-weight="normal" text-decoration="normal" x="1071.2250242233276" y="648.89013671875" text-anchor="start" dominant-baseline="alphabetic" transform="matrix(1, 0, 0, 1, 0.5, 0.5)" fill-opacity="1">800</text><text fill="rgb(68,68,68)" stroke="none" font-family="helvetica" font-size="11px" font-style="normal" font-weight="normal" text-decoration="normal" x="1323.7666664123535" y="648.89013671875" text-anchor="start" dominant-baseline="alphabetic" transform="matrix(1, 0, 0, 1, 0.5, 0.5)" fill-opacity="1">1000</text><text fill="rgb(68,68,68)" stroke="none" font-family="helvetica" font-size="15pt" font-style="italic" font-weight="normal" text-decoration="normal" x="666.4416675567627" y="676.06982421875" text-anchor="start" dominant-baseline="alphabetic" transform="matrix(1, 0, 0, 1, 0.5, 0.5)" fill-opacity="1">time(s)</text><path fill="none" stroke="rgb(0,0,0)" paint-order="fill" d="M 58.5 630.5 L 58.5 51.5" stroke-opacity="1" stroke-linejoin="bevel" stroke-miterlimit="10" stroke-dasharray=""/><path fill="none" stroke="rgb(0,0,0)" paint-order="fill" d="M 52.5 551.5 L 60.5 551.5 M 52.5 446.5 L 60.5 446.5 M 52.5 341.5 L 60.5 341.5 M 52.5 235.5 L 60.5 235.5 M 52.5 130.5 L 60.5 130.5" stroke-opacity="1" stroke-linejoin="bevel" stroke-miterlimit="10" stroke-dasharray=""/><path fill="none" stroke="rgb(0,0,0)" paint-order="fill" d="M 54.5 572.5 L 58.5 572.5 M 54.5 593.5 L 58.5 593.5 M 54.5 614.5 L 58.5 614.5 M 54.5 551.5 L 58.5 551.5 M 54.5 530.5 L 58.5 530.5 M 54.5 509.5 L 58.5 509.5 M 54.5 488.5 L 58.5 488.5 M 54.5 467.5 L 58.5 467.5 M 54.5 446.5 L 58.5 446.5 M 54.5 425.5 L 58.5 425.5 M 54.5 404.5 L 58.5 404.5 M 54.5 383.5 L 58.5 383.5 M 54.5 362.5 L 58.5 362.5 M 54.5 341.5 L 58.5 341.5 M 54.5 319.5 L 58.5 319.5 M 54.5 298.5 L 58.5 298.5 M 54.5 277.5 L 58.5 277.5 M 54.5 256.5 L 58.5 256.5 M 54.5 235.5 L 58.5 235.5 M 54.5 214.5 L 58.5 214.5 M 54.5 193.5 L 58.5 193.5 M 54.5 172.5 L 58.5 172.5 M 54.5 151.5 L 58.5 151.5 M 54.5 130.5 L 58.5 130.5 M 54.5 109.5 L 58.5 109.5 M 54.5 88.5 L 58.5 88.5 M 54.5 67.5 L 58.5 67.5" stroke-opacity="1" stroke-linejoin="bevel" stroke-miterlimit="10" stroke-dasharray=""/><text fill="rgb(68,68,68)" stroke="none" font-family="helvetica" font-size="11px" font-style="normal" font-weight="normal" text-decoration="normal" x="34.46666622161865" y="554.9905395507812" text-anchor="start" dominant-baseline="alphabetic" transform="matrix(1, 0, 0, 1, 0.5, 0.5)" fill-opacity="1">2</text><text fill="rgb(68,68,68)" stroke="none" font-family="helvetica" font-size="11px" font-style="normal" font-weight="normal" text-decoration="normal" x="34.46666622161865" y="449.7178039550781" text-anchor="start" dominant-baseline="alphabetic" transform="matrix(1, 0, 0, 1, 0.5, 0.5)" fill-opacity="1">1</text><text fill="rgb(68,68,68)" stroke="none" font-family="helvetica" font-size="11px" font-style="normal" font-weight="normal" text-decoration="normal" x="40.88333320617676" y="344.445068359375" text-anchor="start" dominant-baseline="alphabetic" transform="matrix(1, 0, 0, 1, 0.5, 0.5)" fill-opacity="1">0</text><text fill="rgb(68,68,68)" stroke="none" font-family="helvetica" font-size="11px" font-style="normal" font-weight="normal" text-decoration="normal" x="40.88333320617676" y="239.17234802246094" text-anchor="start" dominant-baseline="alphabetic" transform="matrix(1, 0, 0, 1, 0.5, 0.5)" fill-opacity="1">1</text><text fill="rgb(68,68,68)" stroke="none" font-family="helvetica" font-size="11px" font-style="normal" font-weight="normal" text-decoration="normal" x="40.88333320617676" y="133.8996124267578" text-anchor="start" dominant-baseline="alphabetic" transform="matrix(1, 0, 0, 1, 0.5, 0.5)" fill-opacity="1">2</text><text fill="rgb(68,68,68)" stroke="none" font-family="helvetica" font-size="15pt" font-style="italic" font-weight="normal" text-decoration="normal" x="-11.316666603088379" y="336.076171875" text-anchor="start" dominant-baseline="alphabetic" transform="matrix(6.123233995736766e-17, -1, 1, 6.123233995736766e-17, -313.53333377838135, 367.46666622161865)" fill-opacity="1">students</text><path fill="rgb(255,255,255)" stroke="rgb(229,229,229)" paint-order="fill" d="M 1128.2333374023438 61.5 L 1326.5 61.5 L 1326.5 400.5 L 1128.2333374023438 400.5 L 1128.2333374023438 61.5" fill-opacity="0.9490196078431372" clip-path="url(#PaNvECzFcXSJ)" stroke-opacity="0.5019607843137255" stroke-linejoin="bevel" stroke-miterlimit="10" stroke-dasharray=""/><text fill="rgb(68,68,68)" stroke="none" font-family="helvetica" font-size="13px" font-style="normal" font-weight="normal" text-decoration="normal" x="1162.7333374023438" y="81" text-anchor="start" dominant-baseline="central" clip-path="url(#PaNvECzFcXSJ)" transform="matrix(1, 0, 0, 1, 0.5, 0.5)" fill-opacity="1">wavelength</text><path fill="rgb(0,255,40)" stroke="none" paint-order="stroke" d="M 1140.2333374023438 73.5 L 1156.2333374023438 73.5 L 1156.2333374023438 89.5 L 1140.2333374023438 89.5 L 1140.2333374023438 73.5" fill-opacity="1" clip-path="url(#PaNvECzFcXSJ)"/><path fill="rgb(216,17,89)" stroke="none" paint-order="stroke" d="M 1140.2333374023438 73.5 L 1156.2333374023438 73.5 L 1156.2333374023438 89.5 L 1140.2333374023438 89.5 L 1140.2333374023438 73.5" fill-opacity="1" clip-path="url(#PaNvECzFcXSJ)"/><text fill="rgb(68,68,68)" stroke="none" font-family="helvetica" font-size="13px" font-style="normal" font-weight="normal" text-decoration="normal" x="1162.7333374023438" y="104" text-anchor="start" dominant-baseline="central" clip-path="url(#PaNvECzFcXSJ)" transform="matrix(1, 0, 0, 1, 0.5, 0.5)" fill-opacity="1">solution</text><path fill="rgb(251,0,7)" stroke="none" paint-order="stroke" d="M 1140.2333374023438 96.5 L 1156.2333374023438 96.5 L 1156.2333374023438 112.5 L 1140.2333374023438 112.5 L 1140.2333374023438 96.5" fill-opacity="1" clip-path="url(#PaNvECzFcXSJ)"/><path fill="rgb(33,131,128)" stroke="none" paint-order="stroke" d="M 1140.2333374023438 96.5 L 1156.2333374023438 96.5 L 1156.2333374023438 112.5 L 1140.2333374023438 112.5 L 1140.2333374023438 96.5" fill-opacity="1" clip-path="url(#PaNvECzFcXSJ)"/><text fill="rgb(68,68,68)" stroke="none" font-family="helvetica" font-size="13px" font-style="normal" font-weight="normal" text-decoration="normal" x="1162.7333374023438" y="127" text-anchor="start" dominant-baseline="central" clip-path="url(#PaNvECzFcXSJ)" transform="matrix(1, 0, 0, 1, 0.5, 0.5)" fill-opacity="1">laser</text><path fill="rgb(105,29,48)" stroke="none" paint-order="stroke" d="M 1140.2333374023438 119.5 L 1156.2333374023438 119.5 L 1156.2333374023438 135.5 L 1140.2333374023438 135.5 L 1140.2333374023438 119.5" fill-opacity="1" clip-path="url(#PaNvECzFcXSJ)"/><text fill="rgb(68,68,68)" stroke="none" font-family="helvetica" font-size="13px" font-style="normal" font-weight="normal" text-decoration="normal" x="1162.7333374023438" y="150" text-anchor="start" dominant-baseline="central" clip-path="url(#PaNvECzFcXSJ)" transform="matrix(1, 0, 0, 1, 0.5, 0.5)" fill-opacity="1">ruler</text><path fill="rgb(255,188,66)" stroke="none" paint-order="stroke" d="M 1140.2333374023438 142.5 L 1156.2333374023438 142.5 L 1156.2333374023438 158.5 L 1140.2333374023438 158.5 L 1140.2333374023438 142.5" fill-opacity="1" clip-path="url(#PaNvECzFcXSJ)"/><text fill="rgb(68,68,68)" stroke="none" font-family="helvetica" font-size="13px" font-style="normal" font-weight="normal" text-decoration="normal" x="1162.7333374023438" y="173" text-anchor="start" dominant-baseline="central" clip-path="url(#PaNvECzFcXSJ)" transform="matrix(1, 0, 0, 1, 0.5, 0.5)" fill-opacity="1">restarts</text><text fill="rgb(68,68,68)" stroke="none" font-family="helvetica" font-size="13px" font-style="normal" font-weight="normal" text-decoration="normal" x="1162.7333374023438" y="196" text-anchor="start" dominant-baseline="central" clip-path="url(#PaNvECzFcXSJ)" transform="matrix(1, 0, 0, 1, 0.5, 0.5)" fill-opacity="1">transmittance_absorbance</text><path fill="rgb(162,174,187)" stroke="none" paint-order="stroke" d="M 1140.2333374023438 188.5 L 1156.2333374023438 188.5 L 1156.2333374023438 204.5 L 1140.2333374023438 204.5 L 1140.2333374023438 188.5" fill-opacity="1" clip-path="url(#PaNvECzFcXSJ)"/><text fill="rgb(68,68,68)" stroke="none" font-family="helvetica" font-size="13px" font-style="normal" font-weight="normal" text-decoration="normal" x="1162.7333374023438" y="219" text-anchor="start" dominant-baseline="central" clip-path="url(#PaNvECzFcXSJ)" transform="matrix(1, 0, 0, 1, 0.5, 0.5)" fill-opacity="1">magnifier</text><text fill="rgb(68,68,68)" stroke="none" font-family="helvetica" font-size="13px" font-style="normal" font-weight="normal" text-decoration="normal" x="1162.7333374023438" y="242" text-anchor="start" dominant-baseline="central" clip-path="url(#PaNvECzFcXSJ)" transform="matrix(1, 0, 0, 1, 0.5, 0.5)" fill-opacity="1">concentration</text><path fill="rgb(115,210,222)" stroke="none" paint-order="stroke" d="M 1140.2333374023438 234.5 L 1156.2333374023438 234.5 L 1156.2333374023438 250.5 L 1140.2333374023438 250.5 L 1140.2333374023438 234.5" fill-opacity="1" clip-path="url(#PaNvECzFcXSJ)"/><text fill="rgb(68,68,68)" stroke="none" font-family="helvetica" font-size="13px" font-style="normal" font-weight="normal" text-decoration="normal" x="1162.7333374023438" y="265" text-anchor="start" dominant-baseline="central" clip-path="url(#PaNvECzFcXSJ)" transform="matrix(1, 0, 0, 1, 0.5, 0.5)" fill-opacity="1">flask</text><path fill="rgb(28,49,68)" stroke="none" paint-order="stroke" d="M 1140.2333374023438 257.5 L 1156.2333374023438 257.5 L 1156.2333374023438 273.5 L 1140.2333374023438 273.5 L 1140.2333374023438 257.5" fill-opacity="1" clip-path="url(#PaNvECzFcXSJ)"/><text fill="rgb(68,68,68)" stroke="none" font-family="helvetica" font-size="13px" font-style="normal" font-weight="normal" text-decoration="normal" x="1162.7333374023438" y="288" text-anchor="start" dominant-baseline="central" clip-path="url(#PaNvECzFcXSJ)" transform="matrix(1, 0, 0, 1, 0.5, 0.5)" fill-opacity="1">pdf</text><path fill="rgb(239,185,203)" stroke="none" paint-order="stroke" d="M 1140.2333374023438 280.5 L 1156.2333374023438 280.5 L 1156.2333374023438 296.5 L 1140.2333374023438 296.5 L 1140.2333374023438 280.5" fill-opacity="1" clip-path="url(#PaNvECzFcXSJ)"/><text fill="rgb(68,68,68)" stroke="none" font-family="helvetica" font-size="13px" font-style="normal" font-weight="normal" text-decoration="normal" x="1162.7333374023438" y="311" text-anchor="start" dominant-baseline="central" clip-path="url(#PaNvECzFcXSJ)" transform="matrix(1, 0, 0, 1, 0.5, 0.5)" fill-opacity="1">concentrationlab</text><text fill="rgb(68,68,68)" stroke="none" font-family="helvetica" font-size="13px" font-style="normal" font-weight="normal" text-decoration="normal" x="1162.7333374023438" y="334" text-anchor="start" dominant-baseline="central" clip-path="url(#PaNvECzFcXSJ)" transform="matrix(1, 0, 0, 1, 0.5, 0.5)" fill-opacity="1">wavelength_slider</text><path fill="rgb(105,29,48)" stroke="none" paint-order="stroke" d="M 1140.2333374023438 326.5 L 1156.2333374023438 326.5 L 1156.2333374023438 342.5 L 1140.2333374023438 342.5 L 1140.2333374023438 326.5" fill-opacity="1" clip-path="url(#PaNvECzFcXSJ)"/><text fill="rgb(68,68,68)" stroke="none" font-family="helvetica" font-size="13px" font-style="normal" font-weight="normal" text-decoration="normal" x="1162.7333374023438" y="357" text-anchor="start" dominant-baseline="central" clip-path="url(#PaNvECzFcXSJ)" transform="matrix(1, 0, 0, 1, 0.5, 0.5)" fill-opacity="1">ruler measuring</text><path fill="rgb(255,188,66)" stroke="none" paint-order="stroke" d="M 1140.2333374023438 349.5 L 1156.2333374023438 349.5 L 1156.2333374023438 365.5 L 1140.2333374023438 365.5 L 1140.2333374023438 349.5" fill-opacity="1" clip-path="url(#PaNvECzFcXSJ)"/><text fill="rgb(68,68,68)" stroke="none" font-family="helvetica" font-size="13px" font-style="normal" font-weight="normal" text-decoration="normal" x="1162.7333374023438" y="380" text-anchor="start" dominant-baseline="central" clip-path="url(#PaNvECzFcXSJ)" transform="matrix(1, 0, 0, 1, 0.5, 0.5)" fill-opacity="1">dependent variable</text><path fill="rgb(143,45,86)" stroke="none" paint-order="stroke" d="M 1140.2333374023438 372.5 L 1156.2333374023438 372.5 L 1156.2333374023438 388.5 L 1140.2333374023438 388.5 L 1140.2333374023438 372.5" fill-opacity="1" clip-path="url(#PaNvECzFcXSJ)"/><text fill="rgb(68,68,68)" stroke="none" font-family="helvetica" font-size="25pt" font-style="normal" font-weight="bold" text-decoration="normal" x="58" y="38.740885416666664" text-anchor="start" dominant-baseline="alphabetic" transform="matrix(1, 0, 0, 1, 0.5, 0.5)" fill-opacity="1">Timeline for student rgeb7wr9 with permutation 2031 for task 2</text></svg>