<svg version="1.1" xmlns="http://www.w3.org/2000/svg" width="1366" height="683"><defs><clipPath id="ERABBfczVTHM"><path fill="none" stroke="none" d="M 58.5 51.5 L 1336.5 51.5 L 1336.5 630.5 L 58.5 630.5 L 58.5 51.5"/></clipPath><clipPath id="CtzaZtJEUuip"><path fill="none" stroke="none" d="M 58.5 51.5 L 1336.5 51.5 L 1336.5 630.5 L 58.5 630.5 L 58.5 51.5"/></clipPath><clipPath id="NBPzByZvrEpa"><path fill="none" stroke="none" d="M 58.5 51.5 L 1336.5 51.5 L 1336.5 630.5 L 58.5 630.5 L 58.5 51.5"/></clipPath><clipPath id="PEcAAaHSRVcP"><path fill="none" stroke="none" d="M 58.5 51.5 L 1336.5 51.5 L 1336.5 630.5 L 58.5 630.5 L 58.5 51.5"/></clipPath><clipPath id="RgTDtAWWXmvm"><path fill="none" stroke="none" d="M 58.5 51.5 L 1336.5 51.5 L 1336.5 630.5 L 58.5 630.5 L 58.5 51.5"/></clipPath><clipPath id="vkNRueCyngUA"><path fill="none" stroke="none" d="M 58.5 51.5 L 1336.5 51.5 L 1336.5 630.5 L 58.5 630.5 L 58.5 51.5"/></clipPath><clipPath id="VhbzQTEtswyf"><path fill="none" stroke="none" d="M 58.5 51.5 L 1336.5 51.5 L 1336.5 630.5 L 58.5 630.5 L 58.5 51.5"/></clipPath><clipPath id="tHhMoTrwITiX"><path fill="none" stroke="none" d="M 58.5 51.5 L 1336.5 51.5 L 1336.5 630.5 L 58.5 630.5 L 58.5 51.5"/></clipPath><clipPath id="apwTBpXXQrts"><path fill="none" stroke="none" d="M 58.5 51.5 L 1336.5 51.5 L 1336.5 630.5 L 58.5 630.5 L 58.5 51.5"/></clipPath><clipPath id="lOHodPucBsGQ"><path fill="none" stroke="none" d="M 58.5 51.5 L 1336.5 51.5 L 1336.5 630.5 L 58.5 630.5 L 58.5 51.5"/></clipPath><clipPath id="OUswPXcsDwTC"><path fill="none" stroke="none" d="M 58.5 51.5 L 1336.5 51.5 L 1336.5 630.5 L 58.5 630.5 L 58.5 51.5"/></clipPath><clipPath id="WZfEpxzDzptE"><path fill="none" stroke="none" d="M 58.5 51.5 L 1336.5 51.5 L 1336.5 630.5 L 58.5 630.5 L 58.5 51.5"/></clipPath><clipPath id="GrsrEeQATtTd"><path fill="none" stroke="none" d="M 58.5 51.5 L 1336.5 51.5 L 1336.5 630.5 L 58.5 630.5 L 58.5 51.5"/></clipPath><clipPath id="VSuUJZlknfeQ"><path fill="none" stroke="none" d="M 58.5 51.5 L 1336.5 51.5 L 1336.5 630.5 L 58.5 630.5 L 58.5 51.5"/></clipPath><clipPath id="dbMGykoPXnGi"><path fill="none" stroke="none" d="M 58.5 51.5 L 1336.5 51.5 L 1336.5 630.5 L 58.5 630.5 L 58.5 51.5"/></clipPath><clipPath id="khSAKKZLWPLK"><path fill="none" stroke="none" d="M 58.5 51.5 L 1336.5 51.5 L 1336.5 630.5 L 58.5 630.5 L 58.5 51.5"/></clipPath><clipPath id="TQTHrnvvVUHn"><path fill="none" stroke="none" d="M 58.5 51.5 L 1336.5 51.5 L 1336.5 630.5 L 58.5 630.5 L 58.5 51.5"/></clipPath><clipPath id="MvPhUDKZRQkn"><path fill="none" stroke="none" d="M 58.5 51.5 L 1336.5 51.5 L 1336.5 630.5 L 58.5 630.5 L 58.5 51.5"/></clipPath><clipPath id="liCIlNvWifJG"><path fill="none" stroke="none" d="M 58.5 51.5 L 1336.5 51.5 L 1336.5 630.5 L 58.5 630.5 L 58.5 51.5"/></clipPath><clipPath id="OhsvnTDAsyul"><path fill="none" stroke="none" d="M 58.5 51.5 L 1336.5 51.5 L 1336.5 630.5 L 58.5 630.5 L 58.5 51.5"/></clipPath><clipPath id="FrnAfJpRkSXz"><path fill="none" stroke="none" d="M 58.5 51.5 L 1336.5 51.5 L 1336.5 630.5 L 58.5 630.5 L 58.5 51.5"/></clipPath></defs><path fill="rgb(255,255,255)" stroke="none" paint-order="stroke" d="M 0.5 0.5 L 1366.5 0.5 L 1366.5 683.5 L 0.5 683.5 L 0.5 0.5" fill-opacity="1"/><rect fill="#FFFFFF" stroke="none" x="58" y="51" width="1278" height="579" transform="matrix(1, 0, 0, 1, 0.5, 0.5)"/><path fill="rgb(255,255,255)" stroke="none" paint-order="stroke" d="M 58.5 51.5 L 1336.5 51.5 L 1336.5 630.5 L 58.5 630.5 L 58.5 51.5" fill-opacity="1"/><path fill="none" stroke="rgb(229,229,229)" paint-order="fill" d="M 58.5 51.5 L 1336.5 51.5 L 1336.5 630.5 L 58.5 630.5 L 58.5 51.5" stroke-opacity="1" stroke-linejoin="bevel" stroke-miterlimit="10" stroke-dasharray=""/><path fill="none" stroke="rgb(229,229,229)" paint-order="fill" d="M 314.5 630.5 L 314.5 51.5 M 569.5 630.5 L 569.5 51.5 M 825.5 630.5 L 825.5 51.5 M 1080.5 630.5 L 1080.5 51.5" stroke-opacity="1" stroke-linejoin="bevel" stroke-miterlimit="10" stroke-dasharray="" clip-path="url(#ERABBfczVTHM)"/><path fill="none" stroke="rgb(229,229,229)" paint-order="fill" d="M 58.5 551.5 L 1336.5 551.5 M 58.5 446.5 L 1336.5 446.5 M 58.5 341.5 L 1336.5 341.5 M 58.5 235.5 L 1336.5 235.5 M 58.5 130.5 L 1336.5 130.5" stroke-opacity="1" stroke-linejoin="bevel" stroke-miterlimit="10" stroke-dasharray="" clip-path="url(#CtzaZtJEUuip)"/><path fill="rgb(0,255,40)" stroke="none" paint-order="stroke" d="M 58.5 77.81818389892578 L 237.70372009277344 77.81818389892578 L 237.70372009277344 130.45454788208008 L 58.5 130.45454788208008 L 58.5 77.81818389892578" fill-opacity="1" clip-path="url(#NBPzByZvrEpa)"/><path fill="rgb(14,255,0)" stroke="none" paint-order="stroke" d="M 237.70372009277344 77.81818389892578 L 237.78679009526968 77.81818389892578 L 237.78679009526968 130.45454788208008 L 237.70372009277344 130.45454788208008 L 237.70372009277344 77.81818389892578" fill-opacity="1" clip-path="url(#NBPzByZvrEpa)"/><path fill="rgb(40,255,0)" stroke="none" paint-order="stroke" d="M 237.7867889404297 77.81818389892578 L 237.8724149391055 77.81818389892578 L 237.8724149391055 130.45454788208008 L 237.7867889404297 130.45454788208008 L 237.7867889404297 77.81818389892578" fill-opacity="1" clip-path="url(#NBPzByZvrEpa)"/><path fill="rgb(62,255,0)" stroke="none" paint-order="stroke" d="M 237.87240600585938 77.81818389892578 L 238.02193200588226 77.81818389892578 L 238.02193200588226 130.45454788208008 L 237.87240600585938 130.45454788208008 L 237.87240600585938 77.81818389892578" fill-opacity="1" clip-path="url(#NBPzByZvrEpa)"/><path fill="rgb(78,255,0)" stroke="none" paint-order="stroke" d="M 238.02194213867188 77.81818389892578 L 238.13057214021683 77.81818389892578 L 238.13057214021683 130.45454788208008 L 238.02194213867188 130.45454788208008 L 238.02194213867188 77.81818389892578" fill-opacity="1" clip-path="url(#NBPzByZvrEpa)"/><path fill="rgb(97,255,0)" stroke="none" paint-order="stroke" d="M 238.1305694580078 77.81818389892578 L 238.98043948411942 77.81818389892578 L 238.98043948411942 130.45454788208008 L 238.1305694580078 130.45454788208008 L 238.1305694580078 77.81818389892578" fill-opacity="1" clip-path="url(#NBPzByZvrEpa)"/><path fill="rgb(78,255,0)" stroke="none" paint-order="stroke" d="M 238.98043823242188 77.81818389892578 L 239.00088623166084 77.81818389892578 L 239.00088623166084 130.45454788208008 L 238.98043823242188 130.45454788208008 L 238.98043823242188 77.81818389892578" fill-opacity="1" clip-path="url(#NBPzByZvrEpa)"/><path fill="rgb(62,255,0)" stroke="none" paint-order="stroke" d="M 239.00088500976562 77.81818389892578 L 241.6016149520874 77.81818389892578 L 241.6016149520874 130.45454788208008 L 239.00088500976562 130.45454788208008 L 239.00088500976562 77.81818389892578" fill-opacity="1" clip-path="url(#NBPzByZvrEpa)"/><path fill="rgb(58,255,0)" stroke="none" paint-order="stroke" d="M 241.60162353515625 77.81818389892578 L 242.40037351846695 77.81818389892578 L 242.40037351846695 130.45454788208008 L 241.60162353515625 130.45454788208008 L 241.60162353515625 77.81818389892578" fill-opacity="1" clip-path="url(#NBPzByZvrEpa)"/><path fill="rgb(53,255,0)" stroke="none" paint-order="stroke" d="M 242.40036010742188 77.81818389892578 L 254.59631443023682 77.81818389892578 L 254.59631443023682 130.45454788208008 L 242.40036010742188 130.45454788208008 L 242.40036010742188 77.81818389892578" fill-opacity="1" clip-path="url(#NBPzByZvrEpa)"/><path fill="rgb(42,0,238)" stroke="none" paint-order="stroke" d="M 254.5963134765625 77.81818389892578 L 258.8316054344177 77.81818389892578 L 258.8316054344177 130.45454788208008 L 254.5963134765625 130.45454788208008 L 254.5963134765625 77.81818389892578" fill-opacity="1" clip-path="url(#NBPzByZvrEpa)"/><path fill="rgb(74,255,0)" stroke="none" paint-order="stroke" d="M 258.83160400390625 77.81818389892578 L 260.9070761203766 77.81818389892578 L 260.9070761203766 130.45454788208008 L 258.83160400390625 130.45454788208008 L 258.83160400390625 77.81818389892578" fill-opacity="1" clip-path="url(#NBPzByZvrEpa)"/><path fill="rgb(70,255,0)" stroke="none" paint-order="stroke" d="M 260.9070739746094 77.81818389892578 L 261.0374299734831 77.81818389892578 L 261.0374299734831 130.45454788208008 L 260.9070739746094 130.45454788208008 L 260.9070739746094 77.81818389892578" fill-opacity="1" clip-path="url(#NBPzByZvrEpa)"/><path fill="rgb(66,255,0)" stroke="none" paint-order="stroke" d="M 261.0374450683594 77.81818389892578 L 261.3595010638237 77.81818389892578 L 261.3595010638237 130.45454788208008 L 261.0374450683594 130.45454788208008 L 261.0374450683594 77.81818389892578" fill-opacity="1" clip-path="url(#NBPzByZvrEpa)"/><path fill="rgb(62,255,0)" stroke="none" paint-order="stroke" d="M 261.3594970703125 77.81818389892578 L 261.90009105205536 77.81818389892578 L 261.90009105205536 130.45454788208008 L 261.3594970703125 130.45454788208008 L 261.3594970703125 77.81818389892578" fill-opacity="1" clip-path="url(#NBPzByZvrEpa)"/><path fill="rgb(58,255,0)" stroke="none" paint-order="stroke" d="M 261.90008544921875 77.81818389892578 L 262.5352514386177 77.81818389892578 L 262.5352514386177 130.45454788208008 L 261.90008544921875 130.45454788208008 L 261.90008544921875 77.81818389892578" fill-opacity="1" clip-path="url(#NBPzByZvrEpa)"/><path fill="rgb(53,255,0)" stroke="none" paint-order="stroke" d="M 262.5352478027344 77.81818389892578 L 269.30353593826294 77.81818389892578 L 269.30353593826294 130.45454788208008 L 262.5352478027344 130.45454788208008 L 262.5352478027344 77.81818389892578" fill-opacity="1" clip-path="url(#NBPzByZvrEpa)"/><path fill="rgb(230,0,0)" stroke="none" paint-order="stroke" d="M 269.3035583496094 77.81818389892578 L 272.7260422706604 77.81818389892578 L 272.7260422706604 130.45454788208008 L 269.3035583496094 130.45454788208008 L 269.3035583496094 77.81818389892578" fill-opacity="1" clip-path="url(#NBPzByZvrEpa)"/><path fill="rgb(111,255,0)" stroke="none" paint-order="stroke" d="M 272.72601318359375 77.81818389892578 L 276.6341371536255 77.81818389892578 L 276.6341371536255 130.45454788208008 L 272.72601318359375 130.45454788208008 L 272.72601318359375 77.81818389892578" fill-opacity="1" clip-path="url(#NBPzByZvrEpa)"/><path fill="rgb(89,255,0)" stroke="none" paint-order="stroke" d="M 276.6341552734375 77.81818389892578 L 277.59265530109406 77.81818389892578 L 277.59265530109406 130.45454788208008 L 276.6341552734375 130.45454788208008 L 276.6341552734375 77.81818389892578" fill-opacity="1" clip-path="url(#NBPzByZvrEpa)"/><path fill="rgb(74,255,0)" stroke="none" paint-order="stroke" d="M 277.5926513671875 77.81818389892578 L 277.76390336453915 77.81818389892578 L 277.76390336453915 130.45454788208008 L 277.5926513671875 130.45454788208008 L 277.5926513671875 77.81818389892578" fill-opacity="1" clip-path="url(#NBPzByZvrEpa)"/><path fill="rgb(53,255,0)" stroke="none" paint-order="stroke" d="M 277.763916015625 77.81818389892578 L 643.5505065917969 77.81818389892578 L 643.5505065917969 130.45454788208008 L 277.763916015625 130.45454788208008 L 277.763916015625 77.81818389892578" fill-opacity="1" clip-path="url(#NBPzByZvrEpa)"/><path fill="rgb(255,37,0)" stroke="none" paint-order="stroke" d="M 643.550537109375 77.81818389892578 L 646.376195192337 77.81818389892578 L 646.376195192337 130.45454788208008 L 643.550537109375 130.45454788208008 L 643.550537109375 77.81818389892578" fill-opacity="1" clip-path="url(#NBPzByZvrEpa)"/><path fill="rgb(255,83,0)" stroke="none" paint-order="stroke" d="M 646.3761596679688 77.81818389892578 L 646.4809556677938 77.81818389892578 L 646.4809556677938 130.45454788208008 L 646.3761596679688 130.45454788208008 L 646.3761596679688 77.81818389892578" fill-opacity="1" clip-path="url(#NBPzByZvrEpa)"/><path fill="rgb(255,103,0)" stroke="none" paint-order="stroke" d="M 646.48095703125 77.81818389892578 L 646.7378350198269 77.81818389892578 L 646.7378350198269 130.45454788208008 L 646.48095703125 130.45454788208008 L 646.48095703125 77.81818389892578" fill-opacity="1" clip-path="url(#NBPzByZvrEpa)"/><path fill="rgb(255,203,0)" stroke="none" paint-order="stroke" d="M 646.7378540039062 77.81818389892578 L 646.7570240031928 77.81818389892578 L 646.7570240031928 130.45454788208008 L 646.7378540039062 130.45454788208008 L 646.7378540039062 77.81818389892578" fill-opacity="1" clip-path="url(#NBPzByZvrEpa)"/><path fill="rgb(255,251,0)" stroke="none" paint-order="stroke" d="M 646.7570190429688 77.81818389892578 L 646.7787450421602 77.81818389892578 L 646.7787450421602 130.45454788208008 L 646.7570190429688 130.45454788208008 L 646.7570190429688 77.81818389892578" fill-opacity="1" clip-path="url(#NBPzByZvrEpa)"/><path fill="rgb(231,255,0)" stroke="none" paint-order="stroke" d="M 646.7787475585938 77.81818389892578 L 646.7991955578327 77.81818389892578 L 646.7991955578327 130.45454788208008 L 646.7787475585938 130.45454788208008 L 646.7787475585938 77.81818389892578" fill-opacity="1" clip-path="url(#NBPzByZvrEpa)"/><path fill="rgb(216,255,0)" stroke="none" paint-order="stroke" d="M 646.7991943359375 77.81818389892578 L 646.8221983350813 77.81818389892578 L 646.8221983350813 130.45454788208008 L 646.7991943359375 130.45454788208008 L 646.7991943359375 77.81818389892578" fill-opacity="1" clip-path="url(#NBPzByZvrEpa)"/><path fill="rgb(204,255,0)" stroke="none" paint-order="stroke" d="M 646.8222045898438 77.81818389892578 L 646.884826593101 77.81818389892578 L 646.884826593101 130.45454788208008 L 646.8222045898438 130.45454788208008 L 646.8222045898438 77.81818389892578" fill-opacity="1" clip-path="url(#NBPzByZvrEpa)"/><path fill="rgb(172,255,0)" stroke="none" paint-order="stroke" d="M 646.8848266601562 77.81818389892578 L 646.9065526593477 77.81818389892578 L 646.9065526593477 130.45454788208008 L 646.8848266601562 130.45454788208008 L 646.8848266601562 77.81818389892578" fill-opacity="1" clip-path="url(#NBPzByZvrEpa)"/><path fill="rgb(156,255,0)" stroke="none" paint-order="stroke" d="M 646.9065551757812 77.81818389892578 L 646.9308371748775 77.81818389892578 L 646.9308371748775 130.45454788208008 L 646.9065551757812 130.45454788208008 L 646.9065551757812 77.81818389892578" fill-opacity="1" clip-path="url(#NBPzByZvrEpa)"/><path fill="rgb(126,255,0)" stroke="none" paint-order="stroke" d="M 646.9308471679688 77.81818389892578 L 646.9487391673028 77.81818389892578 L 646.9487391673028 130.45454788208008 L 646.9308471679688 130.45454788208008 L 646.9308471679688 77.81818389892578" fill-opacity="1" clip-path="url(#NBPzByZvrEpa)"/><path fill="rgb(108,255,0)" stroke="none" paint-order="stroke" d="M 646.94873046875 77.81818389892578 L 646.9704564679414 77.81818389892578 L 646.9704564679414 130.45454788208008 L 646.94873046875 130.45454788208008 L 646.94873046875 77.81818389892578" fill-opacity="1" clip-path="url(#NBPzByZvrEpa)"/><path fill="rgb(89,255,0)" stroke="none" paint-order="stroke" d="M 646.970458984375 77.81818389892578 L 646.990906983614 77.81818389892578 L 646.990906983614 130.45454788208008 L 646.970458984375 130.45454788208008 L 646.970458984375 77.81818389892578" fill-opacity="1" clip-path="url(#NBPzByZvrEpa)"/><path fill="rgb(74,255,0)" stroke="none" paint-order="stroke" d="M 646.9909057617188 77.81818389892578 L 651.9214296340942 77.81818389892578 L 651.9214296340942 130.45454788208008 L 646.9909057617188 130.45454788208008 L 646.9909057617188 77.81818389892578" fill-opacity="1" clip-path="url(#NBPzByZvrEpa)"/><path fill="rgb(0,255,40)" stroke="none" paint-order="stroke" d="M 651.92138671875 77.81818389892578 L 655.655702829361 77.81818389892578 L 655.655702829361 130.45454788208008 L 651.92138671875 130.45454788208008 L 651.92138671875 77.81818389892578" fill-opacity="1" clip-path="url(#NBPzByZvrEpa)"/><path fill="rgb(0,255,23)" stroke="none" paint-order="stroke" d="M 655.6557006835938 77.81818389892578 L 655.8013926893473 77.81818389892578 L 655.8013926893473 130.45454788208008 L 655.6557006835938 130.45454788208008 L 655.6557006835938 77.81818389892578" fill-opacity="1" clip-path="url(#NBPzByZvrEpa)"/><path fill="rgb(0,255,0)" stroke="none" paint-order="stroke" d="M 655.8013916015625 77.81818389892578 L 656.0582695901394 77.81818389892578 L 656.0582695901394 130.45454788208008 L 655.8013916015625 130.45454788208008 L 655.8013916015625 77.81818389892578" fill-opacity="1" clip-path="url(#NBPzByZvrEpa)"/><path fill="rgb(8,255,0)" stroke="none" paint-order="stroke" d="M 656.0582885742188 77.81818389892578 L 656.2333745807409 77.81818389892578 L 656.2333745807409 130.45454788208008 L 656.0582885742188 130.45454788208008 L 656.0582885742188 77.81818389892578" fill-opacity="1" clip-path="url(#NBPzByZvrEpa)"/><path fill="rgb(14,255,0)" stroke="none" paint-order="stroke" d="M 656.2333984375 77.81818389892578 L 656.4902764260769 77.81818389892578 L 656.4902764260769 130.45454788208008 L 656.2333984375 130.45454788208008 L 656.2333984375 77.81818389892578" fill-opacity="1" clip-path="url(#NBPzByZvrEpa)"/><path fill="rgb(20,255,0)" stroke="none" paint-order="stroke" d="M 656.490234375 77.81818389892578 L 657.1241223812103 77.81818389892578 L 657.1241223812103 130.45454788208008 L 656.490234375 130.45454788208008 L 656.490234375 77.81818389892578" fill-opacity="1" clip-path="url(#NBPzByZvrEpa)"/><path fill="rgb(25,255,0)" stroke="none" paint-order="stroke" d="M 657.1241455078125 77.81818389892578 L 657.4372555017471 77.81818389892578 L 657.4372555017471 130.45454788208008 L 657.1241455078125 130.45454788208008 L 657.1241455078125 77.81818389892578" fill-opacity="1" clip-path="url(#NBPzByZvrEpa)"/><path fill="rgb(30,255,0)" stroke="none" paint-order="stroke" d="M 657.437255859375 77.81818389892578 L 657.6647398620844 77.81818389892578 L 657.6647398620844 130.45454788208008 L 657.437255859375 130.45454788208008 L 657.437255859375 77.81818389892578" fill-opacity="1" clip-path="url(#NBPzByZvrEpa)"/><path fill="rgb(35,255,0)" stroke="none" paint-order="stroke" d="M 657.6647338867188 77.81818389892578 L 658.2436679005623 77.81818389892578 L 658.2436679005623 130.45454788208008 L 657.6647338867188 130.45454788208008 L 657.6647338867188 77.81818389892578" fill-opacity="1" clip-path="url(#NBPzByZvrEpa)"/><path fill="rgb(40,255,0)" stroke="none" paint-order="stroke" d="M 658.24365234375 77.81818389892578 L 659.3299523591995 77.81818389892578 L 659.3299523591995 130.45454788208008 L 658.24365234375 130.45454788208008 L 658.24365234375 77.81818389892578" fill-opacity="1" clip-path="url(#NBPzByZvrEpa)"/><path fill="rgb(44,255,0)" stroke="none" paint-order="stroke" d="M 659.3299560546875 77.81818389892578 L 659.6865180432796 77.81818389892578 L 659.6865180432796 130.45454788208008 L 659.3299560546875 130.45454788208008 L 659.3299560546875 77.81818389892578" fill-opacity="1" clip-path="url(#NBPzByZvrEpa)"/><path fill="rgb(49,255,0)" stroke="none" paint-order="stroke" d="M 659.6865234375 77.81818389892578 L 659.9255094379187 77.81818389892578 L 659.9255094379187 130.45454788208008 L 659.6865234375 130.45454788208008 L 659.6865234375 77.81818389892578" fill-opacity="1" clip-path="url(#NBPzByZvrEpa)"/><path fill="rgb(53,255,0)" stroke="none" paint-order="stroke" d="M 659.925537109375 77.81818389892578 L 660.5146951079369 77.81818389892578 L 660.5146951079369 130.45454788208008 L 659.925537109375 130.45454788208008 L 659.925537109375 77.81818389892578" fill-opacity="1" clip-path="url(#NBPzByZvrEpa)"/><path fill="rgb(58,255,0)" stroke="none" paint-order="stroke" d="M 660.5147094726562 77.81818389892578 L 662.6272435188293 77.81818389892578 L 662.6272435188293 130.45454788208008 L 660.5147094726562 130.45454788208008 L 660.5147094726562 77.81818389892578" fill-opacity="1" clip-path="url(#NBPzByZvrEpa)"/><path fill="rgb(53,255,0)" stroke="none" paint-order="stroke" d="M 662.627197265625 77.81818389892578 L 818.9342651367188 77.81818389892578 L 818.9342651367188 130.45454788208008 L 662.627197265625 130.45454788208008 L 662.627197265625 77.81818389892578" fill-opacity="1" clip-path="url(#NBPzByZvrEpa)"/><path fill="rgb(251,0,7)" stroke="none" paint-order="stroke" d="M 58.5 130.4545440673828 L 254.5963134765625 130.4545440673828 L 254.5963134765625 183.0909080505371 L 58.5 183.0909080505371 L 58.5 130.4545440673828" fill-opacity="1" clip-path="url(#PEcAAaHSRVcP)"/><path fill="rgb(56,126,34)" stroke="none" paint-order="stroke" d="M 254.5963134765625 130.4545440673828 L 651.92138671875 130.4545440673828 L 651.92138671875 183.0909080505371 L 254.5963134765625 183.0909080505371 L 254.5963134765625 130.4545440673828" fill-opacity="1" clip-path="url(#PEcAAaHSRVcP)"/><path fill="rgb(251,0,7)" stroke="none" paint-order="stroke" d="M 651.92138671875 130.4545440673828 L 818.9342651367188 130.4545440673828 L 818.9342651367188 183.0909080505371 L 651.92138671875 183.0909080505371 L 651.92138671875 130.4545440673828" fill-opacity="1" clip-path="url(#PEcAAaHSRVcP)"/><path fill="rgb(105,29,48)" stroke="none" paint-order="stroke" d="M 229.41461181640625 183.09091186523438 L 229.47851181775331 183.09091186523438 L 229.47851181775331 498.9090881347656 L 229.41461181640625 498.9090881347656 L 229.41461181640625 183.09091186523438" fill-opacity="1" clip-path="url(#RgTDtAWWXmvm)"/><path fill="rgb(255,188,66)" stroke="none" paint-order="stroke" d="M 187.3645782470703 183.09091186523438 L 191.96793413162231 183.09091186523438 L 191.96793413162231 498.9090881347656 L 187.3645782470703 498.9090881347656 L 187.3645782470703 183.09091186523438" fill-opacity="1" clip-path="url(#vkNRueCyngUA)"/><path fill="rgb(162,174,187)" stroke="none" paint-order="stroke" d="M 226.91738891601562 183.09091186523438 L 226.9812889173627 183.09091186523438 L 226.9812889173627 498.9090881347656 L 226.91738891601562 498.9090881347656 L 226.91738891601562 183.09091186523438" fill-opacity="1" clip-path="url(#tHhMoTrwITiX)"/><path fill="rgb(216,17,89)" stroke="none" paint-order="stroke" d="M 235.84039306640625 183.09091186523438 L 235.90429306775331 183.09091186523438 L 235.90429306775331 498.9090881347656 L 235.84039306640625 498.9090881347656 L 235.84039306640625 183.09091186523438" fill-opacity="1" clip-path="url(#lOHodPucBsGQ)"/><path fill="rgb(216,17,89)" stroke="none" paint-order="stroke" d="M 235.84039306640625 183.09091186523438 L 235.90429306775331 183.09091186523438 L 235.90429306775331 498.9090881347656 L 235.84039306640625 498.9090881347656 L 235.84039306640625 183.09091186523438" fill-opacity="1" clip-path="url(#lOHodPucBsGQ)"/><path fill="rgb(33,131,128)" stroke="none" paint-order="stroke" d="M 252.66653442382812 183.09091186523438 L 254.59631443023682 183.09091186523438 L 254.59631443023682 498.9090881347656 L 252.66653442382812 498.9090881347656 L 252.66653442382812 183.09091186523438" fill-opacity="1" clip-path="url(#OUswPXcsDwTC)"/><path fill="rgb(33,131,128)" stroke="none" paint-order="stroke" d="M 649.3973388671875 183.09091186523438 L 651.9213888645172 183.09091186523438 L 651.9213888645172 498.9090881347656 L 649.3973388671875 498.9090881347656 L 649.3973388671875 183.09091186523438" fill-opacity="1" clip-path="url(#OUswPXcsDwTC)"/><path fill="rgb(115,210,222)" stroke="none" paint-order="stroke" d="M 302.3244934082031 183.09091186523438 L 308.1981816291809 183.09091186523438 L 308.1981816291809 498.9090881347656 L 302.3244934082031 498.9090881347656 L 302.3244934082031 183.09091186523438" fill-opacity="1" clip-path="url(#WZfEpxzDzptE)"/><path fill="rgb(115,210,222)" stroke="none" paint-order="stroke" d="M 421.3510437011719 183.09091186523438 L 421.5056817084551 183.09091186523438 L 421.5056817084551 498.9090881347656 L 421.3510437011719 498.9090881347656 L 421.3510437011719 183.09091186523438" fill-opacity="1" clip-path="url(#WZfEpxzDzptE)"/><path fill="rgb(115,210,222)" stroke="none" paint-order="stroke" d="M 424.80548095703125 183.09091186523438 L 424.96395295858383 183.09091186523438 L 424.96395295858383 498.9090881347656 L 424.80548095703125 498.9090881347656 L 424.80548095703125 183.09091186523438" fill-opacity="1" clip-path="url(#WZfEpxzDzptE)"/><path fill="rgb(115,210,222)" stroke="none" paint-order="stroke" d="M 456.2442626953125 183.09091186523438 L 459.74470472335815 183.09091186523438 L 459.74470472335815 498.9090881347656 L 456.2442626953125 498.9090881347656 L 456.2442626953125 183.09091186523438" fill-opacity="1" clip-path="url(#WZfEpxzDzptE)"/><path fill="rgb(115,210,222)" stroke="none" paint-order="stroke" d="M 490.3579406738281 183.09091186523438 L 496.8105626106262 183.09091186523438 L 496.8105626106262 498.9090881347656 L 490.3579406738281 498.9090881347656 L 490.3579406738281 183.09091186523438" fill-opacity="1" clip-path="url(#WZfEpxzDzptE)"/><path fill="rgb(115,210,222)" stroke="none" paint-order="stroke" d="M 504.9015808105469 183.09091186523438 L 507.58282470703125 183.09091186523438 L 507.58282470703125 498.9090881347656 L 504.9015808105469 498.9090881347656 L 504.9015808105469 183.09091186523438" fill-opacity="1" clip-path="url(#WZfEpxzDzptE)"/><path fill="rgb(115,210,222)" stroke="none" paint-order="stroke" d="M 541.3296508789062 183.09091186523438 L 544.9630048274994 183.09091186523438 L 544.9630048274994 498.9090881347656 L 541.3296508789062 498.9090881347656 L 541.3296508789062 183.09091186523438" fill-opacity="1" clip-path="url(#WZfEpxzDzptE)"/><path fill="rgb(115,210,222)" stroke="none" paint-order="stroke" d="M 547.67236328125 183.09091186523438 L 547.7362632825971 183.09091186523438 L 547.7362632825971 498.9090881347656 L 547.67236328125 498.9090881347656 L 547.67236328125 183.09091186523438" fill-opacity="1" clip-path="url(#WZfEpxzDzptE)"/><path fill="rgb(115,210,222)" stroke="none" paint-order="stroke" d="M 547.67236328125 183.09091186523438 L 547.7362632825971 183.09091186523438 L 547.7362632825971 498.9090881347656 L 547.67236328125 498.9090881347656 L 547.67236328125 183.09091186523438" fill-opacity="1" clip-path="url(#WZfEpxzDzptE)"/><path fill="rgb(115,210,222)" stroke="none" paint-order="stroke" d="M 548.2794189453125 183.09091186523438 L 548.3433189466596 183.09091186523438 L 548.3433189466596 498.9090881347656 L 548.2794189453125 498.9090881347656 L 548.2794189453125 183.09091186523438" fill-opacity="1" clip-path="url(#WZfEpxzDzptE)"/><path fill="rgb(115,210,222)" stroke="none" paint-order="stroke" d="M 548.2794189453125 183.09091186523438 L 548.3433189466596 183.09091186523438 L 548.3433189466596 498.9090881347656 L 548.2794189453125 498.9090881347656 L 548.2794189453125 183.09091186523438" fill-opacity="1" clip-path="url(#WZfEpxzDzptE)"/><path fill="rgb(115,210,222)" stroke="none" paint-order="stroke" d="M 548.5554809570312 183.09091186523438 L 548.6193809583783 183.09091186523438 L 548.6193809583783 498.9090881347656 L 548.5554809570312 498.9090881347656 L 548.5554809570312 183.09091186523438" fill-opacity="1" clip-path="url(#WZfEpxzDzptE)"/><path fill="rgb(115,210,222)" stroke="none" paint-order="stroke" d="M 548.5554809570312 183.09091186523438 L 548.6193809583783 183.09091186523438 L 548.6193809583783 498.9090881347656 L 548.5554809570312 498.9090881347656 L 548.5554809570312 183.09091186523438" fill-opacity="1" clip-path="url(#WZfEpxzDzptE)"/><path fill="rgb(115,210,222)" stroke="none" paint-order="stroke" d="M 548.793212890625 183.09091186523438 L 548.8571128919721 183.09091186523438 L 548.8571128919721 498.9090881347656 L 548.793212890625 498.9090881347656 L 548.793212890625 183.09091186523438" fill-opacity="1" clip-path="url(#WZfEpxzDzptE)"/><path fill="rgb(115,210,222)" stroke="none" paint-order="stroke" d="M 548.793212890625 183.09091186523438 L 548.8571128919721 183.09091186523438 L 548.8571128919721 498.9090881347656 L 548.793212890625 498.9090881347656 L 548.793212890625 183.09091186523438" fill-opacity="1" clip-path="url(#WZfEpxzDzptE)"/><path fill="rgb(115,210,222)" stroke="none" paint-order="stroke" d="M 549.3465576171875 183.09091186523438 L 549.4104576185346 183.09091186523438 L 549.4104576185346 498.9090881347656 L 549.3465576171875 498.9090881347656 L 549.3465576171875 183.09091186523438" fill-opacity="1" clip-path="url(#WZfEpxzDzptE)"/><path fill="rgb(115,210,222)" stroke="none" paint-order="stroke" d="M 549.3465576171875 183.09091186523438 L 549.4104576185346 183.09091186523438 L 549.4104576185346 498.9090881347656 L 549.3465576171875 498.9090881347656 L 549.3465576171875 183.09091186523438" fill-opacity="1" clip-path="url(#WZfEpxzDzptE)"/><path fill="rgb(115,210,222)" stroke="none" paint-order="stroke" d="M 566.8219604492188 183.09091186523438 L 574.4490642547607 183.09091186523438 L 574.4490642547607 498.9090881347656 L 566.8219604492188 498.9090881347656 L 566.8219604492188 183.09091186523438" fill-opacity="1" clip-path="url(#WZfEpxzDzptE)"/><path fill="rgb(115,210,222)" stroke="none" paint-order="stroke" d="M 576.3775634765625 183.09091186523438 L 576.4414634779096 183.09091186523438 L 576.4414634779096 498.9090881347656 L 576.3775634765625 498.9090881347656 L 576.3775634765625 183.09091186523438" fill-opacity="1" clip-path="url(#WZfEpxzDzptE)"/><path fill="rgb(115,210,222)" stroke="none" paint-order="stroke" d="M 576.3775634765625 183.09091186523438 L 576.4414634779096 183.09091186523438 L 576.4414634779096 498.9090881347656 L 576.3775634765625 498.9090881347656 L 576.3775634765625 183.09091186523438" fill-opacity="1" clip-path="url(#WZfEpxzDzptE)"/><path fill="rgb(115,210,222)" stroke="none" paint-order="stroke" d="M 576.5181274414062 183.09091186523438 L 576.5820274427533 183.09091186523438 L 576.5820274427533 498.9090881347656 L 576.5181274414062 498.9090881347656 L 576.5181274414062 183.09091186523438" fill-opacity="1" clip-path="url(#WZfEpxzDzptE)"/><path fill="rgb(115,210,222)" stroke="none" paint-order="stroke" d="M 576.5181274414062 183.09091186523438 L 576.5820274427533 183.09091186523438 L 576.5820274427533 498.9090881347656 L 576.5181274414062 498.9090881347656 L 576.5181274414062 183.09091186523438" fill-opacity="1" clip-path="url(#WZfEpxzDzptE)"/><path fill="rgb(115,210,222)" stroke="none" paint-order="stroke" d="M 576.837646484375 183.09091186523438 L 576.9015464857221 183.09091186523438 L 576.9015464857221 498.9090881347656 L 576.837646484375 498.9090881347656 L 576.837646484375 183.09091186523438" fill-opacity="1" clip-path="url(#WZfEpxzDzptE)"/><path fill="rgb(115,210,222)" stroke="none" paint-order="stroke" d="M 576.837646484375 183.09091186523438 L 576.9015464857221 183.09091186523438 L 576.9015464857221 498.9090881347656 L 576.837646484375 498.9090881347656 L 576.837646484375 183.09091186523438" fill-opacity="1" clip-path="url(#WZfEpxzDzptE)"/><path fill="rgb(115,210,222)" stroke="none" paint-order="stroke" d="M 577.0753173828125 183.09091186523438 L 577.1392173841596 183.09091186523438 L 577.1392173841596 498.9090881347656 L 577.0753173828125 498.9090881347656 L 577.0753173828125 183.09091186523438" fill-opacity="1" clip-path="url(#WZfEpxzDzptE)"/><path fill="rgb(115,210,222)" stroke="none" paint-order="stroke" d="M 577.0753173828125 183.09091186523438 L 577.1392173841596 183.09091186523438 L 577.1392173841596 498.9090881347656 L 577.0753173828125 498.9090881347656 L 577.0753173828125 183.09091186523438" fill-opacity="1" clip-path="url(#WZfEpxzDzptE)"/><path fill="rgb(115,210,222)" stroke="none" paint-order="stroke" d="M 578.7303466796875 183.09091186523438 L 578.7942466810346 183.09091186523438 L 578.7942466810346 498.9090881347656 L 578.7303466796875 498.9090881347656 L 578.7303466796875 183.09091186523438" fill-opacity="1" clip-path="url(#WZfEpxzDzptE)"/><path fill="rgb(115,210,222)" stroke="none" paint-order="stroke" d="M 578.7303466796875 183.09091186523438 L 578.7942466810346 183.09091186523438 L 578.7942466810346 498.9090881347656 L 578.7303466796875 498.9090881347656 L 578.7303466796875 183.09091186523438" fill-opacity="1" clip-path="url(#WZfEpxzDzptE)"/><path fill="rgb(28,49,68)" stroke="none" paint-order="stroke" d="M 193.7711944580078 183.09091186523438 L 195.28562450408936 183.09091186523438 L 195.28562450408936 498.9090881347656 L 193.7711944580078 498.9090881347656 L 193.7711944580078 183.09091186523438" fill-opacity="1" clip-path="url(#GrsrEeQATtTd)"/><path fill="rgb(28,49,68)" stroke="none" paint-order="stroke" d="M 434.5195617675781 183.09091186523438 L 437.194415807724 183.09091186523438 L 437.194415807724 498.9090881347656 L 434.5195617675781 498.9090881347656 L 434.5195617675781 183.09091186523438" fill-opacity="1" clip-path="url(#GrsrEeQATtTd)"/><path fill="rgb(28,49,68)" stroke="none" paint-order="stroke" d="M 463.27581787109375 183.09091186523438 L 466.524493932724 183.09091186523438 L 466.524493932724 498.9090881347656 L 463.27581787109375 498.9090881347656 L 463.27581787109375 183.09091186523438" fill-opacity="1" clip-path="url(#GrsrEeQATtTd)"/><path fill="rgb(28,49,68)" stroke="none" paint-order="stroke" d="M 473.2889709472656 183.09091186523438 L 482.2733106613159 183.09091186523438 L 482.2733106613159 498.9090881347656 L 473.2889709472656 498.9090881347656 L 473.2889709472656 183.09091186523438" fill-opacity="1" clip-path="url(#GrsrEeQATtTd)"/><path fill="rgb(28,49,68)" stroke="none" paint-order="stroke" d="M 528.9318237304688 183.09091186523438 L 532.1638858318329 183.09091186523438 L 532.1638858318329 498.9090881347656 L 528.9318237304688 498.9090881347656 L 528.9318237304688 183.09091186523438" fill-opacity="1" clip-path="url(#GrsrEeQATtTd)"/><path fill="rgb(28,49,68)" stroke="none" paint-order="stroke" d="M 602.0525512695312 183.09091186523438 L 604.450079202652 183.09091186523438 L 604.450079202652 498.9090881347656 L 602.0525512695312 498.9090881347656 L 602.0525512695312 183.09091186523438" fill-opacity="1" clip-path="url(#GrsrEeQATtTd)"/><path fill="rgb(239,185,203)" stroke="none" paint-order="stroke" d="M 64.85932922363281 183.09091186523438 L 173.20050048828125 183.09091186523438 L 173.20050048828125 498.9090881347656 L 64.85932922363281 498.9090881347656 L 64.85932922363281 183.09091186523438" fill-opacity="1" clip-path="url(#VSuUJZlknfeQ)"/><path fill="rgb(239,185,203)" stroke="none" paint-order="stroke" d="M 178.02366638183594 183.09091186523438 L 185.34405040740967 183.09091186523438 L 185.34405040740967 498.9090881347656 L 178.02366638183594 498.9090881347656 L 178.02366638183594 183.09091186523438" fill-opacity="1" clip-path="url(#VSuUJZlknfeQ)"/><path fill="rgb(239,185,203)" stroke="none" paint-order="stroke" d="M 196.947021484375 183.09091186523438 L 224.26043701171875 183.09091186523438 L 224.26043701171875 498.9090881347656 L 196.947021484375 498.9090881347656 L 196.947021484375 183.09091186523438" fill-opacity="1" clip-path="url(#VSuUJZlknfeQ)"/><path fill="rgb(239,185,203)" stroke="none" paint-order="stroke" d="M 244.09243774414062 183.09091186523438 L 250.81727361679077 183.09091186523438 L 250.81727361679077 498.9090881347656 L 244.09243774414062 498.9090881347656 L 244.09243774414062 183.09091186523438" fill-opacity="1" clip-path="url(#VSuUJZlknfeQ)"/><path fill="rgb(239,185,203)" stroke="none" paint-order="stroke" d="M 283.0382080078125 183.09091186523438 L 296.4060878753662 183.09091186523438 L 296.4060878753662 498.9090881347656 L 283.0382080078125 498.9090881347656 L 283.0382080078125 183.09091186523438" fill-opacity="1" clip-path="url(#VSuUJZlknfeQ)"/><path fill="rgb(239,185,203)" stroke="none" paint-order="stroke" d="M 309.6282653808594 183.09091186523438 L 414.2095642089844 183.09091186523438 L 414.2095642089844 498.9090881347656 L 309.6282653808594 498.9090881347656 L 309.6282653808594 183.09091186523438" fill-opacity="1" clip-path="url(#VSuUJZlknfeQ)"/><path fill="rgb(239,185,203)" stroke="none" paint-order="stroke" d="M 426.84515380859375 183.09091186523438 L 429.9046857357025 183.09091186523438 L 429.9046857357025 498.9090881347656 L 426.84515380859375 498.9090881347656 L 426.84515380859375 183.09091186523438" fill-opacity="1" clip-path="url(#VSuUJZlknfeQ)"/><path fill="rgb(239,185,203)" stroke="none" paint-order="stroke" d="M 439.09478759765625 183.09091186523438 L 443.2891836166382 183.09091186523438 L 443.2891836166382 498.9090881347656 L 439.09478759765625 498.9090881347656 L 439.09478759765625 183.09091186523438" fill-opacity="1" clip-path="url(#VSuUJZlknfeQ)"/><path fill="rgb(239,185,203)" stroke="none" paint-order="stroke" d="M 446.8126220703125 183.09091186523438 L 453.1106061935425 183.09091186523438 L 453.1106061935425 498.9090881347656 L 446.8126220703125 498.9090881347656 L 446.8126220703125 183.09091186523438" fill-opacity="1" clip-path="url(#VSuUJZlknfeQ)"/><path fill="rgb(239,185,203)" stroke="none" paint-order="stroke" d="M 508.9694519042969 183.09091186523438 L 526.9905300140381 183.09091186523438 L 526.9905300140381 498.9090881347656 L 508.9694519042969 498.9090881347656 L 508.9694519042969 183.09091186523438" fill-opacity="1" clip-path="url(#VSuUJZlknfeQ)"/><path fill="rgb(239,185,203)" stroke="none" paint-order="stroke" d="M 533.87255859375 183.09091186523438 L 539.4241905212402 183.09091186523438 L 539.4241905212402 498.9090881347656 L 533.87255859375 498.9090881347656 L 533.87255859375 183.09091186523438" fill-opacity="1" clip-path="url(#VSuUJZlknfeQ)"/><path fill="rgb(239,185,203)" stroke="none" paint-order="stroke" d="M 551.1651611328125 183.09091186523438 L 560.5124530792236 183.09091186523438 L 560.5124530792236 498.9090881347656 L 551.1651611328125 498.9090881347656 L 551.1651611328125 183.09091186523438" fill-opacity="1" clip-path="url(#VSuUJZlknfeQ)"/><path fill="rgb(239,185,203)" stroke="none" paint-order="stroke" d="M 580.208984375 183.09091186523438 L 598.3974800109863 183.09091186523438 L 598.3974800109863 498.9090881347656 L 580.208984375 498.9090881347656 L 580.208984375 183.09091186523438" fill-opacity="1" clip-path="url(#VSuUJZlknfeQ)"/><path fill="rgb(239,185,203)" stroke="none" paint-order="stroke" d="M 618.267822265625 183.09091186523438 L 640.0359954833984 183.09091186523438 L 640.0359954833984 498.9090881347656 L 618.267822265625 498.9090881347656 L 618.267822265625 183.09091186523438" fill-opacity="1" clip-path="url(#VSuUJZlknfeQ)"/><path fill="rgb(239,185,203)" stroke="none" paint-order="stroke" d="M 672.7221069335938 183.09091186523438 L 803.6404266357422 183.09091186523438 L 803.6404266357422 498.9090881347656 L 672.7221069335938 498.9090881347656 L 672.7221069335938 183.09091186523438" fill-opacity="1" clip-path="url(#VSuUJZlknfeQ)"/><path fill="rgb(105,29,48)" stroke="none" paint-order="stroke" d="M 237.27687072753906 183.09091186523438 L 240.029682636261 183.09091186523438 L 240.029682636261 498.9090881347656 L 237.27687072753906 498.9090881347656 L 237.27687072753906 183.09091186523438" fill-opacity="1" clip-path="url(#khSAKKZLWPLK)"/><path fill="rgb(105,29,48)" stroke="none" paint-order="stroke" d="M 258.83160400390625 183.09091186523438 L 258.99774400889874 183.09091186523438 L 258.99774400889874 498.9090881347656 L 258.83160400390625 498.9090881347656 L 258.83160400390625 183.09091186523438" fill-opacity="1" clip-path="url(#khSAKKZLWPLK)"/><path fill="rgb(105,29,48)" stroke="none" paint-order="stroke" d="M 269.3035583496094 183.09091186523438 L 269.46330834925175 183.09091186523438 L 269.46330834925175 498.9090881347656 L 269.3035583496094 498.9090881347656 L 269.3035583496094 183.09091186523438" fill-opacity="1" clip-path="url(#khSAKKZLWPLK)"/><path fill="rgb(105,29,48)" stroke="none" paint-order="stroke" d="M 272.72601318359375 183.09091186523438 L 272.89215318858624 183.09091186523438 L 272.89215318858624 498.9090881347656 L 272.72601318359375 498.9090881347656 L 272.72601318359375 183.09091186523438" fill-opacity="1" clip-path="url(#khSAKKZLWPLK)"/><path fill="rgb(105,29,48)" stroke="none" paint-order="stroke" d="M 275.6104736328125 183.09091186523438 L 279.7946457862854 183.09091186523438 L 279.7946457862854 498.9090881347656 L 275.6104736328125 498.9090881347656 L 275.6104736328125 183.09091186523438" fill-opacity="1" clip-path="url(#khSAKKZLWPLK)"/><path fill="rgb(105,29,48)" stroke="none" paint-order="stroke" d="M 643.550537109375 183.09091186523438 L 643.7077311128378 183.09091186523438 L 643.7077311128378 498.9090881347656 L 643.550537109375 498.9090881347656 L 643.550537109375 183.09091186523438" fill-opacity="1" clip-path="url(#khSAKKZLWPLK)"/><path fill="rgb(105,29,48)" stroke="none" paint-order="stroke" d="M 645.9876708984375 183.09091186523438 L 647.6963568925858 183.09091186523438 L 647.6963568925858 498.9090881347656 L 645.9876708984375 498.9090881347656 L 645.9876708984375 183.09091186523438" fill-opacity="1" clip-path="url(#khSAKKZLWPLK)"/><path fill="rgb(255,188,66)" stroke="none" paint-order="stroke" d="M 189.1026611328125 498.9090881347656 L 189.12310913205147 498.9090881347656 L 189.12310913205147 551.5454521179199 L 189.1026611328125 551.5454521179199 L 189.1026611328125 498.9090881347656" fill-opacity="1" clip-path="url(#TQTHrnvvVUHn)"/><path fill="rgb(255,188,66)" stroke="none" paint-order="stroke" d="M 189.24961853027344 498.9090881347656 L 818.9342498779297 498.9090881347656 L 818.9342498779297 551.5454521179199 L 189.24961853027344 551.5454521179199 L 189.24961853027344 498.9090881347656" fill-opacity="1" clip-path="url(#TQTHrnvvVUHn)"/><path fill="rgb(143,45,86)" stroke="none" paint-order="stroke" d="M 58.5 551.5454711914062 L 229.41461181640625 551.5454711914062 L 229.41461181640625 604.1818351745605 L 58.5 604.1818351745605 L 58.5 551.5454711914062" fill-opacity="1" clip-path="url(#MvPhUDKZRQkn)"/><path fill="rgb(81,60,99)" stroke="none" paint-order="stroke" d="M 229.41461181640625 551.5454711914062 L 818.9342651367188 551.5454711914062 L 818.9342651367188 604.1818351745605 L 229.41461181640625 604.1818351745605 L 229.41461181640625 551.5454711914062" fill-opacity="1" clip-path="url(#MvPhUDKZRQkn)"/><path fill="none" stroke="rgb(0,0,0)" paint-order="fill" d="M 58.5 77.81818389892578 L 818.9342651367188 77.81818389892578 L 818.9342651367188 604.1818313598633 L 58.5 604.1818313598633 L 58.5 77.81818389892578" stroke-opacity="1" stroke-linejoin="bevel" stroke-miterlimit="10" stroke-dasharray="" clip-path="url(#liCIlNvWifJG)"/><path fill="none" stroke="rgb(0,0,0)" paint-order="fill" d="M 58.5 630.5 L 1336.5 630.5" stroke-opacity="1" stroke-linejoin="bevel" stroke-miterlimit="10" stroke-dasharray=""/><path fill="none" stroke="rgb(0,0,0)" paint-order="fill" d="M 58.5 636.5 L 58.5 628.5 M 314.5 636.5 L 314.5 628.5 M 569.5 636.5 L 569.5 628.5 M 825.5 636.5 L 825.5 628.5 M 1080.5 636.5 L 1080.5 628.5 M 1336.5 636.5 L 1336.5 628.5" stroke-opacity="1" stroke-linejoin="bevel" stroke-miterlimit="10" stroke-dasharray=""/><path fill="none" stroke="rgb(0,0,0)" paint-order="fill" d="M 58.5 634.5 L 58.5 630.5 M 109.5 634.5 L 109.5 630.5 M 160.5 634.5 L 160.5 630.5 M 211.5 634.5 L 211.5 630.5 M 262.5 634.5 L 262.5 630.5 M 314.5 634.5 L 314.5 630.5 M 365.5 634.5 L 365.5 630.5 M 416.5 634.5 L 416.5 630.5 M 467.5 634.5 L 467.5 630.5 M 518.5 634.5 L 518.5 630.5 M 569.5 634.5 L 569.5 630.5 M 620.5 634.5 L 620.5 630.5 M 671.5 634.5 L 671.5 630.5 M 723.5 634.5 L 723.5 630.5 M 774.5 634.5 L 774.5 630.5 M 825.5 634.5 L 825.5 630.5 M 876.5 634.5 L 876.5 630.5 M 927.5 634.5 L 927.5 630.5 M 978.5 634.5 L 978.5 630.5 M 1029.5 634.5 L 1029.5 630.5 M 1080.5 634.5 L 1080.5 630.5 M 1132.5 634.5 L 1132.5 630.5 M 1183.5 634.5 L 1183.5 630.5 M 1234.5 634.5 L 1234.5 630.5 M 1285.5 634.5 L 1285.5 630.5 M 1336.5 634.5 L 1336.5 630.5" stroke-opacity="1" stroke-linejoin="bevel" stroke-miterlimit="10" stroke-dasharray=""/><text fill="rgb(68,68,68)" stroke="none" font-family="helvetica" font-size="11px" font-style="normal" font-weight="normal" text-decoration="normal" x="54.94166660308838" y="648.89013671875" text-anchor="start" dominant-baseline="alphabetic" transform="matrix(1, 0, 0, 1, 0.5, 0.5)" fill-opacity="1">0</text><text fill="rgb(68,68,68)" stroke="none" font-family="helvetica" font-size="11px" font-style="normal" font-weight="normal" text-decoration="normal" x="304.42500591278076" y="648.89013671875" text-anchor="start" dominant-baseline="alphabetic" transform="matrix(1, 0, 0, 1, 0.5, 0.5)" fill-opacity="1">200</text><text fill="rgb(68,68,68)" stroke="none" font-family="helvetica" font-size="11px" font-style="normal" font-weight="normal" text-decoration="normal" x="560.0250120162964" y="648.89013671875" text-anchor="start" dominant-baseline="alphabetic" transform="matrix(1, 0, 0, 1, 0.5, 0.5)" fill-opacity="1">400</text><text fill="rgb(68,68,68)" stroke="none" font-family="helvetica" font-size="11px" font-style="normal" font-weight="normal" text-decoration="normal" x="815.6249876022339" y="648.89013671875" text-anchor="start" dominant-baseline="alphabetic" transform="matrix(1, 0, 0, 1, 0.5, 0.5)" fill-opacity="1">600</text><text fill="rgb(68,68,68)" stroke="none" font-family="helvetica" font-size="11px" font-style="normal" font-weight="normal" text-decoration="normal" x="1071.2250242233276" y="648.89013671875" text-anchor="start" dominant-baseline="alphabetic" transform="matrix(1, 0, 0, 1, 0.5, 0.5)" fill-opacity="1">800</text><text fill="rgb(68,68,68)" stroke="none" font-family="helvetica" font-size="11px" font-style="normal" font-weight="normal" text-decoration="normal" x="1323.7666664123535" y="648.89013671875" text-anchor="start" dominant-baseline="alphabetic" transform="matrix(1, 0, 0, 1, 0.5, 0.5)" fill-opacity="1">1000</text><text fill="rgb(68,68,68)" stroke="none" font-family="helvetica" font-size="15pt" font-style="italic" font-weight="normal" text-decoration="normal" x="666.4416675567627" y="676.06982421875" text-anchor="start" dominant-baseline="alphabetic" transform="matrix(1, 0, 0, 1, 0.5, 0.5)" fill-opacity="1">time(s)</text><path fill="none" stroke="rgb(0,0,0)" paint-order="fill" d="M 58.5 630.5 L 58.5 51.5" stroke-opacity="1" stroke-linejoin="bevel" stroke-miterlimit="10" stroke-dasharray=""/><path fill="none" stroke="rgb(0,0,0)" paint-order="fill" d="M 52.5 551.5 L 60.5 551.5 M 52.5 446.5 L 60.5 446.5 M 52.5 341.5 L 60.5 341.5 M 52.5 235.5 L 60.5 235.5 M 52.5 130.5 L 60.5 130.5" stroke-opacity="1" stroke-linejoin="bevel" stroke-miterlimit="10" stroke-dasharray=""/><path fill="none" stroke="rgb(0,0,0)" paint-order="fill" d="M 54.5 572.5 L 58.5 572.5 M 54.5 593.5 L 58.5 593.5 M 54.5 614.5 L 58.5 614.5 M 54.5 551.5 L 58.5 551.5 M 54.5 530.5 L 58.5 530.5 M 54.5 509.5 L 58.5 509.5 M 54.5 488.5 L 58.5 488.5 M 54.5 467.5 L 58.5 467.5 M 54.5 446.5 L 58.5 446.5 M 54.5 425.5 L 58.5 425.5 M 54.5 404.5 L 58.5 404.5 M 54.5 383.5 L 58.5 383.5 M 54.5 362.5 L 58.5 362.5 M 54.5 341.5 L 58.5 341.5 M 54.5 319.5 L 58.5 319.5 M 54.5 298.5 L 58.5 298.5 M 54.5 277.5 L 58.5 277.5 M 54.5 256.5 L 58.5 256.5 M 54.5 235.5 L 58.5 235.5 M 54.5 214.5 L 58.5 214.5 M 54.5 193.5 L 58.5 193.5 M 54.5 172.5 L 58.5 172.5 M 54.5 151.5 L 58.5 151.5 M 54.5 130.5 L 58.5 130.5 M 54.5 109.5 L 58.5 109.5 M 54.5 88.5 L 58.5 88.5 M 54.5 67.5 L 58.5 67.5" stroke-opacity="1" stroke-linejoin="bevel" stroke-miterlimit="10" stroke-dasharray=""/><text fill="rgb(68,68,68)" stroke="none" font-family="helvetica" font-size="11px" font-style="normal" font-weight="normal" text-decoration="normal" x="34.46666622161865" y="554.9905395507812" text-anchor="start" dominant-baseline="alphabetic" transform="matrix(1, 0, 0, 1, 0.5, 0.5)" fill-opacity="1">−2</text><text fill="rgb(68,68,68)" stroke="none" font-family="helvetica" font-size="11px" font-style="normal" font-weight="normal" text-decoration="normal" x="34.46666622161865" y="449.7178039550781" text-anchor="start" dominant-baseline="alphabetic" transform="matrix(1, 0, 0, 1, 0.5, 0.5)" fill-opacity="1">−1</text><text fill="rgb(68,68,68)" stroke="none" font-family="helvetica" font-size="11px" font-style="normal" font-weight="normal" text-decoration="normal" x="40.88333320617676" y="344.445068359375" text-anchor="start" dominant-baseline="alphabetic" transform="matrix(1, 0, 0, 1, 0.5, 0.5)" fill-opacity="1">0</text><text fill="rgb(68,68,68)" stroke="none" font-family="helvetica" font-size="11px" font-style="normal" font-weight="normal" text-decoration="normal" x="40.88333320617676" y="239.17234802246094" text-anchor="start" dominant-baseline="alphabetic" transform="matrix(1, 0, 0, 1, 0.5, 0.5)" fill-opacity="1">1</text><text fill="rgb(68,68,68)" stroke="none" font-family="helvetica" font-size="11px" font-style="normal" font-weight="normal" text-decoration="normal" x="40.88333320617676" y="133.8996124267578" text-anchor="start" dominant-baseline="alphabetic" transform="matrix(1, 0, 0, 1, 0.5, 0.5)" fill-opacity="1">2</text><text fill="rgb(68,68,68)" stroke="none" font-family="helvetica" font-size="15pt" font-style="italic" font-weight="normal" text-decoration="normal" x="-11.316666603088379" y="336.076171875" text-anchor="start" dominant-baseline="alphabetic" transform="matrix(6.123233995736766e-17, -1, 1, 6.123233995736766e-17, -313.53333377838135, 367.46666622161865)" fill-opacity="1">students</text><path fill="rgb(255,255,255)" stroke="rgb(229,229,229)" paint-order="fill" d="M 1128.2333374023438 61.5 L 1326.5 61.5 L 1326.5 400.5 L 1128.2333374023438 400.5 L 1128.2333374023438 61.5" fill-opacity="0.9490196078431372" clip-path="url(#OhsvnTDAsyul)" stroke-opacity="0.5019607843137255" stroke-linejoin="bevel" stroke-miterlimit="10" stroke-dasharray=""/><g clip-path="url(#OhsvnTDAsyul)"><text fill="rgb(68,68,68)" stroke="none" font-family="helvetica" font-size="13px" font-style="normal" font-weight="normal" text-decoration="normal" x="1162.7333374023438" y="81" text-anchor="start" dominant-baseline="central" transform="matrix(1, 0, 0, 1, 0.5, 0.5)" fill-opacity="1">wavelength</text></g><path fill="rgb(0,255,40)" stroke="none" paint-order="stroke" d="M 1140.2333374023438 73.5 L 1156.2333374023438 73.5 L 1156.2333374023438 89.5 L 1140.2333374023438 89.5 L 1140.2333374023438 73.5" fill-opacity="1" clip-path="url(#OhsvnTDAsyul)"/><path fill="rgb(216,17,89)" stroke="none" paint-order="stroke" d="M 1140.2333374023438 73.5 L 1156.2333374023438 73.5 L 1156.2333374023438 89.5 L 1140.2333374023438 89.5 L 1140.2333374023438 73.5" fill-opacity="1" clip-path="url(#OhsvnTDAsyul)"/><g clip-path="url(#OhsvnTDAsyul)"><text fill="rgb(68,68,68)" stroke="none" font-family="helvetica" font-size="13px" font-style="normal" font-weight="normal" text-decoration="normal" x="1162.7333374023438" y="104" text-anchor="start" dominant-baseline="central" transform="matrix(1, 0, 0, 1, 0.5, 0.5)" fill-opacity="1">solution</text></g><path fill="rgb(251,0,7)" stroke="none" paint-order="stroke" d="M 1140.2333374023438 96.5 L 1156.2333374023438 96.5 L 1156.2333374023438 112.5 L 1140.2333374023438 112.5 L 1140.2333374023438 96.5" fill-opacity="1" clip-path="url(#OhsvnTDAsyul)"/><path fill="rgb(33,131,128)" stroke="none" paint-order="stroke" d="M 1140.2333374023438 96.5 L 1156.2333374023438 96.5 L 1156.2333374023438 112.5 L 1140.2333374023438 112.5 L 1140.2333374023438 96.5" fill-opacity="1" clip-path="url(#OhsvnTDAsyul)"/><g clip-path="url(#OhsvnTDAsyul)"><text fill="rgb(68,68,68)" stroke="none" font-family="helvetica" font-size="13px" font-style="normal" font-weight="normal" text-decoration="normal" x="1162.7333374023438" y="127" text-anchor="start" dominant-baseline="central" transform="matrix(1, 0, 0, 1, 0.5, 0.5)" fill-opacity="1">laser</text></g><path fill="rgb(105,29,48)" stroke="none" paint-order="stroke" d="M 1140.2333374023438 119.5 L 1156.2333374023438 119.5 L 1156.2333374023438 135.5 L 1140.2333374023438 135.5 L 1140.2333374023438 119.5" fill-opacity="1" clip-path="url(#OhsvnTDAsyul)"/><g clip-path="url(#OhsvnTDAsyul)"><text fill="rgb(68,68,68)" stroke="none" font-family="helvetica" font-size="13px" font-style="normal" font-weight="normal" text-decoration="normal" x="1162.7333374023438" y="150" text-anchor="start" dominant-baseline="central" transform="matrix(1, 0, 0, 1, 0.5, 0.5)" fill-opacity="1">ruler</text></g><path fill="rgb(255,188,66)" stroke="none" paint-order="stroke" d="M 1140.2333374023438 142.5 L 1156.2333374023438 142.5 L 1156.2333374023438 158.5 L 1140.2333374023438 158.5 L 1140.2333374023438 142.5" fill-opacity="1" clip-path="url(#OhsvnTDAsyul)"/><g clip-path="url(#OhsvnTDAsyul)"><text fill="rgb(68,68,68)" stroke="none" font-family="helvetica" font-size="13px" font-style="normal" font-weight="normal" text-decoration="normal" x="1162.7333374023438" y="173" text-anchor="start" dominant-baseline="central" transform="matrix(1, 0, 0, 1, 0.5, 0.5)" fill-opacity="1">restarts</text></g><g clip-path="url(#OhsvnTDAsyul)"><text fill="rgb(68,68,68)" stroke="none" font-family="helvetica" font-size="13px" font-style="normal" font-weight="normal" text-decoration="normal" x="1162.7333374023438" y="196" text-anchor="start" dominant-baseline="central" transform="matrix(1, 0, 0, 1, 0.5, 0.5)" fill-opacity="1">transmittance_absorbance</text></g><path fill="rgb(162,174,187)" stroke="none" paint-order="stroke" d="M 1140.2333374023438 188.5 L 1156.2333374023438 188.5 L 1156.2333374023438 204.5 L 1140.2333374023438 204.5 L 1140.2333374023438 188.5" fill-opacity="1" clip-path="url(#OhsvnTDAsyul)"/><g clip-path="url(#OhsvnTDAsyul)"><text fill="rgb(68,68,68)" stroke="none" font-family="helvetica" font-size="13px" font-style="normal" font-weight="normal" text-decoration="normal" x="1162.7333374023438" y="219" text-anchor="start" dominant-baseline="central" transform="matrix(1, 0, 0, 1, 0.5, 0.5)" fill-opacity="1">magnifier</text></g><g clip-path="url(#OhsvnTDAsyul)"><text fill="rgb(68,68,68)" stroke="none" font-family="helvetica" font-size="13px" font-style="normal" font-weight="normal" text-decoration="normal" x="1162.7333374023438" y="242" text-anchor="start" dominant-baseline="central" transform="matrix(1, 0, 0, 1, 0.5, 0.5)" fill-opacity="1">concentration</text></g><path fill="rgb(115,210,222)" stroke="none" paint-order="stroke" d="M 1140.2333374023438 234.5 L 1156.2333374023438 234.5 L 1156.2333374023438 250.5 L 1140.2333374023438 250.5 L 1140.2333374023438 234.5" fill-opacity="1" clip-path="url(#OhsvnTDAsyul)"/><g clip-path="url(#OhsvnTDAsyul)"><text fill="rgb(68,68,68)" stroke="none" font-family="helvetica" font-size="13px" font-style="normal" font-weight="normal" text-decoration="normal" x="1162.7333374023438" y="265" text-anchor="start" dominant-baseline="central" transform="matrix(1, 0, 0, 1, 0.5, 0.5)" fill-opacity="1">flask</text></g><path fill="rgb(28,49,68)" stroke="none" paint-order="stroke" d="M 1140.2333374023438 257.5 L 1156.2333374023438 257.5 L 1156.2333374023438 273.5 L 1140.2333374023438 273.5 L 1140.2333374023438 257.5" fill-opacity="1" clip-path="url(#OhsvnTDAsyul)"/><g clip-path="url(#OhsvnTDAsyul)"><text fill="rgb(68,68,68)" stroke="none" font-family="helvetica" font-size="13px" font-style="normal" font-weight="normal" text-decoration="normal" x="1162.7333374023438" y="288" text-anchor="start" dominant-baseline="central" transform="matrix(1, 0, 0, 1, 0.5, 0.5)" fill-opacity="1">pdf</text></g><path fill="rgb(239,185,203)" stroke="none" paint-order="stroke" d="M 1140.2333374023438 280.5 L 1156.2333374023438 280.5 L 1156.2333374023438 296.5 L 1140.2333374023438 296.5 L 1140.2333374023438 280.5" fill-opacity="1" clip-path="url(#OhsvnTDAsyul)"/><g clip-path="url(#OhsvnTDAsyul)"><text fill="rgb(68,68,68)" stroke="none" font-family="helvetica" font-size="13px" font-style="normal" font-weight="normal" text-decoration="normal" x="1162.7333374023438" y="311" text-anchor="start" dominant-baseline="central" transform="matrix(1, 0, 0, 1, 0.5, 0.5)" fill-opacity="1">concentrationlab</text></g><g clip-path="url(#OhsvnTDAsyul)"><text fill="rgb(68,68,68)" stroke="none" font-family="helvetica" font-size="13px" font-style="normal" font-weight="normal" text-decoration="normal" x="1162.7333374023438" y="334" text-anchor="start" dominant-baseline="central" transform="matrix(1, 0, 0, 1, 0.5, 0.5)" fill-opacity="1">wavelength_slider</text></g><path fill="rgb(105,29,48)" stroke="none" paint-order="stroke" d="M 1140.2333374023438 326.5 L 1156.2333374023438 326.5 L 1156.2333374023438 342.5 L 1140.2333374023438 342.5 L 1140.2333374023438 326.5" fill-opacity="1" clip-path="url(#OhsvnTDAsyul)"/><g clip-path="url(#OhsvnTDAsyul)"><text fill="rgb(68,68,68)" stroke="none" font-family="helvetica" font-size="13px" font-style="normal" font-weight="normal" text-decoration="normal" x="1162.7333374023438" y="357" text-anchor="start" dominant-baseline="central" transform="matrix(1, 0, 0, 1, 0.5, 0.5)" fill-opacity="1">ruler measuring</text></g><path fill="rgb(255,188,66)" stroke="none" paint-order="stroke" d="M 1140.2333374023438 349.5 L 1156.2333374023438 349.5 L 1156.2333374023438 365.5 L 1140.2333374023438 365.5 L 1140.2333374023438 349.5" fill-opacity="1" clip-path="url(#OhsvnTDAsyul)"/><g clip-path="url(#OhsvnTDAsyul)"><text fill="rgb(68,68,68)" stroke="none" font-family="helvetica" font-size="13px" font-style="normal" font-weight="normal" text-decoration="normal" x="1162.7333374023438" y="380" text-anchor="start" dominant-baseline="central" transform="matrix(1, 0, 0, 1, 0.5, 0.5)" fill-opacity="1">dependent variable</text></g><path fill="rgb(143,45,86)" stroke="none" paint-order="stroke" d="M 1140.2333374023438 372.5 L 1156.2333374023438 372.5 L 1156.2333374023438 388.5 L 1140.2333374023438 388.5 L 1140.2333374023438 372.5" fill-opacity="1" clip-path="url(#OhsvnTDAsyul)"/><text fill="rgb(68,68,68)" stroke="none" font-family="helvetica" font-size="25pt" font-style="normal" font-weight="bold" text-decoration="normal" x="58" y="38.740885416666664" text-anchor="start" dominant-baseline="alphabetic" transform="matrix(1, 0, 0, 1, 0.5, 0.5)" fill-opacity="1">Timeline for student eau7bsmq with permutation 2031 for task 2</text></svg>