<svg version="1.1" xmlns="http://www.w3.org/2000/svg" width="1366" height="683"><defs><clipPath id="qWXLNKVFFWFS"><path fill="none" stroke="none" d="M 58.5 51.5 L 1336.5 51.5 L 1336.5 630.5 L 58.5 630.5 L 58.5 51.5"/></clipPath><clipPath id="qANfznLfvaLf"><path fill="none" stroke="none" d="M 58.5 51.5 L 1336.5 51.5 L 1336.5 630.5 L 58.5 630.5 L 58.5 51.5"/></clipPath><clipPath id="nWnSNmGaRlzb"><path fill="none" stroke="none" d="M 58.5 51.5 L 1336.5 51.5 L 1336.5 630.5 L 58.5 630.5 L 58.5 51.5"/></clipPath><clipPath id="yvHFmgEqwXbE"><path fill="none" stroke="none" d="M 58.5 51.5 L 1336.5 51.5 L 1336.5 630.5 L 58.5 630.5 L 58.5 51.5"/></clipPath><clipPath id="znOEvnXbXOLW"><path fill="none" stroke="none" d="M 58.5 51.5 L 1336.5 51.5 L 1336.5 630.5 L 58.5 630.5 L 58.5 51.5"/></clipPath><clipPath id="SveBUuCHmQoL"><path fill="none" stroke="none" d="M 58.5 51.5 L 1336.5 51.5 L 1336.5 630.5 L 58.5 630.5 L 58.5 51.5"/></clipPath><clipPath id="cXlAXwAKLOEw"><path fill="none" stroke="none" d="M 58.5 51.5 L 1336.5 51.5 L 1336.5 630.5 L 58.5 630.5 L 58.5 51.5"/></clipPath><clipPath id="wWuJddwQTZUl"><path fill="none" stroke="none" d="M 58.5 51.5 L 1336.5 51.5 L 1336.5 630.5 L 58.5 630.5 L 58.5 51.5"/></clipPath><clipPath id="KboWxQTiMbbr"><path fill="none" stroke="none" d="M 58.5 51.5 L 1336.5 51.5 L 1336.5 630.5 L 58.5 630.5 L 58.5 51.5"/></clipPath><clipPath id="osOpbmaTRNOe"><path fill="none" stroke="none" d="M 58.5 51.5 L 1336.5 51.5 L 1336.5 630.5 L 58.5 630.5 L 58.5 51.5"/></clipPath><clipPath id="bzpyITWGHxTw"><path fill="none" stroke="none" d="M 58.5 51.5 L 1336.5 51.5 L 1336.5 630.5 L 58.5 630.5 L 58.5 51.5"/></clipPath><clipPath id="vwvfbGOsoEbx"><path fill="none" stroke="none" d="M 58.5 51.5 L 1336.5 51.5 L 1336.5 630.5 L 58.5 630.5 L 58.5 51.5"/></clipPath><clipPath id="kbdBrNcVGoqa"><path fill="none" stroke="none" d="M 58.5 51.5 L 1336.5 51.5 L 1336.5 630.5 L 58.5 630.5 L 58.5 51.5"/></clipPath><clipPath id="TaxdbVwewugq"><path fill="none" stroke="none" d="M 58.5 51.5 L 1336.5 51.5 L 1336.5 630.5 L 58.5 630.5 L 58.5 51.5"/></clipPath><clipPath id="BEBZTFnsKgWZ"><path fill="none" stroke="none" d="M 58.5 51.5 L 1336.5 51.5 L 1336.5 630.5 L 58.5 630.5 L 58.5 51.5"/></clipPath><clipPath id="CeeuXZbEhiCF"><path fill="none" stroke="none" d="M 58.5 51.5 L 1336.5 51.5 L 1336.5 630.5 L 58.5 630.5 L 58.5 51.5"/></clipPath><clipPath id="wBVGvzRbJpTs"><path fill="none" stroke="none" d="M 58.5 51.5 L 1336.5 51.5 L 1336.5 630.5 L 58.5 630.5 L 58.5 51.5"/></clipPath><clipPath id="vACKrUurTUaR"><path fill="none" stroke="none" d="M 58.5 51.5 L 1336.5 51.5 L 1336.5 630.5 L 58.5 630.5 L 58.5 51.5"/></clipPath><clipPath id="oRlsWZOyAfZx"><path fill="none" stroke="none" d="M 58.5 51.5 L 1336.5 51.5 L 1336.5 630.5 L 58.5 630.5 L 58.5 51.5"/></clipPath><clipPath id="vqUyhRGlQgtX"><path fill="none" stroke="none" d="M 58.5 51.5 L 1336.5 51.5 L 1336.5 630.5 L 58.5 630.5 L 58.5 51.5"/></clipPath><clipPath id="oXawmwyxWiJx"><path fill="none" stroke="none" d="M 58.5 51.5 L 1336.5 51.5 L 1336.5 630.5 L 58.5 630.5 L 58.5 51.5"/></clipPath></defs><path fill="rgb(255,255,255)" stroke="none" paint-order="stroke" d="M 0.5 0.5 L 1366.5 0.5 L 1366.5 683.5 L 0.5 683.5 L 0.5 0.5" fill-opacity="1"/><rect fill="#FFFFFF" stroke="none" x="58" y="51" width="1278" height="579" transform="matrix(1, 0, 0, 1, 0.5, 0.5)"/><path fill="rgb(255,255,255)" stroke="none" paint-order="stroke" d="M 58.5 51.5 L 1336.5 51.5 L 1336.5 630.5 L 58.5 630.5 L 58.5 51.5" fill-opacity="1"/><path fill="none" stroke="rgb(229,229,229)" paint-order="fill" d="M 58.5 51.5 L 1336.5 51.5 L 1336.5 630.5 L 58.5 630.5 L 58.5 51.5" stroke-opacity="1" stroke-linejoin="bevel" stroke-miterlimit="10" stroke-dasharray=""/><path fill="none" stroke="rgb(229,229,229)" paint-order="fill" d="M 314.5 630.5 L 314.5 51.5 M 569.5 630.5 L 569.5 51.5 M 825.5 630.5 L 825.5 51.5 M 1080.5 630.5 L 1080.5 51.5" stroke-opacity="1" stroke-linejoin="bevel" stroke-miterlimit="10" stroke-dasharray="" clip-path="url(#qWXLNKVFFWFS)"/><path fill="none" stroke="rgb(229,229,229)" paint-order="fill" d="M 58.5 551.5 L 1336.5 551.5 M 58.5 446.5 L 1336.5 446.5 M 58.5 341.5 L 1336.5 341.5 M 58.5 235.5 L 1336.5 235.5 M 58.5 130.5 L 1336.5 130.5" stroke-opacity="1" stroke-linejoin="bevel" stroke-miterlimit="10" stroke-dasharray="" clip-path="url(#qANfznLfvaLf)"/><path fill="rgb(0,255,40)" stroke="none" paint-order="stroke" d="M 58.5 77.81818389892578 L 170.89370727539062 77.81818389892578 L 170.89370727539062 130.45454788208008 L 58.5 130.45454788208008 L 58.5 77.81818389892578" fill-opacity="1" clip-path="url(#nWnSNmGaRlzb)"/><path fill="rgb(0,255,23)" stroke="none" paint-order="stroke" d="M 170.89370727539062 77.81818389892578 L 171.15825328230858 77.81818389892578 L 171.15825328230858 130.45454788208008 L 170.89370727539062 130.45454788208008 L 170.89370727539062 77.81818389892578" fill-opacity="1" clip-path="url(#nWnSNmGaRlzb)"/><path fill="rgb(0,255,0)" stroke="none" paint-order="stroke" d="M 171.1582489013672 77.81818389892578 L 171.42407289147377 77.81818389892578 L 171.42407289147377 130.45454788208008 L 171.1582489013672 130.45454788208008 L 171.1582489013672 77.81818389892578" fill-opacity="1" clip-path="url(#nWnSNmGaRlzb)"/><path fill="rgb(8,255,0)" stroke="none" paint-order="stroke" d="M 171.42408752441406 77.81818389892578 L 171.6387915313244 77.81818389892578 L 171.6387915313244 130.45454788208008 L 171.42408752441406 130.45454788208008 L 171.42408752441406 77.81818389892578" fill-opacity="1" clip-path="url(#nWnSNmGaRlzb)"/><path fill="rgb(14,255,0)" stroke="none" paint-order="stroke" d="M 171.63877868652344 77.81818389892578 L 172.18065071105957 77.81818389892578 L 172.18065071105957 130.45454788208008 L 171.63877868652344 130.45454788208008 L 171.63877868652344 77.81818389892578" fill-opacity="1" clip-path="url(#nWnSNmGaRlzb)"/><path fill="rgb(20,255,0)" stroke="none" paint-order="stroke" d="M 172.18064880371094 77.81818389892578 L 172.39535281062126 77.81818389892578 L 172.39535281062126 130.45454788208008 L 172.18064880371094 130.45454788208008 L 172.18064880371094 77.81818389892578" fill-opacity="1" clip-path="url(#nWnSNmGaRlzb)"/><path fill="rgb(25,255,0)" stroke="none" paint-order="stroke" d="M 172.39535522460938 77.81818389892578 L 172.76469722390175 77.81818389892578 L 172.76469722390175 130.45454788208008 L 172.39535522460938 130.45454788208008 L 172.39535522460938 77.81818389892578" fill-opacity="1" clip-path="url(#nWnSNmGaRlzb)"/><path fill="rgb(30,255,0)" stroke="none" paint-order="stroke" d="M 172.76470947265625 77.81818389892578 L 173.03947946429253 77.81818389892578 L 173.03947946429253 130.45454788208008 L 172.76470947265625 130.45454788208008 L 172.76470947265625 77.81818389892578" fill-opacity="1" clip-path="url(#nWnSNmGaRlzb)"/><path fill="rgb(35,255,0)" stroke="none" paint-order="stroke" d="M 173.0394744873047 77.81818389892578 L 174.80311453342438 77.81818389892578 L 174.80311453342438 130.45454788208008 L 173.0394744873047 130.45454788208008 L 173.0394744873047 77.81818389892578" fill-opacity="1" clip-path="url(#nWnSNmGaRlzb)"/><path fill="rgb(14,255,0)" stroke="none" paint-order="stroke" d="M 174.80311584472656 77.81818389892578 L 174.95264184474945 77.81818389892578 L 174.95264184474945 130.45454788208008 L 174.80311584472656 130.45454788208008 L 174.80311584472656 77.81818389892578" fill-opacity="1" clip-path="url(#nWnSNmGaRlzb)"/><path fill="rgb(0,255,23)" stroke="none" paint-order="stroke" d="M 174.95263671875 77.81818389892578 L 175.95075470209122 77.81818389892578 L 175.95075470209122 130.45454788208008 L 174.95263671875 130.45454788208008 L 174.95263671875 77.81818389892578" fill-opacity="1" clip-path="url(#nWnSNmGaRlzb)"/><path fill="rgb(14,255,0)" stroke="none" paint-order="stroke" d="M 175.9507598876953 77.81818389892578 L 176.4402338862419 77.81818389892578 L 176.4402338862419 130.45454788208008 L 175.9507598876953 130.45454788208008 L 175.9507598876953 77.81818389892578" fill-opacity="1" clip-path="url(#nWnSNmGaRlzb)"/><path fill="rgb(35,255,0)" stroke="none" paint-order="stroke" d="M 176.4402313232422 77.81818389892578 L 176.52330132573843 77.81818389892578 L 176.52330132573843 130.45454788208008 L 176.4402313232422 130.45454788208008 L 176.4402313232422 77.81818389892578" fill-opacity="1" clip-path="url(#nWnSNmGaRlzb)"/><path fill="rgb(49,255,0)" stroke="none" paint-order="stroke" d="M 176.52330017089844 77.81818389892578 L 176.60892616957426 77.81818389892578 L 176.60892616957426 130.45454788208008 L 176.52330017089844 130.45454788208008 L 176.52330017089844 77.81818389892578" fill-opacity="1" clip-path="url(#nWnSNmGaRlzb)"/><path fill="rgb(62,255,0)" stroke="none" paint-order="stroke" d="M 176.6089324951172 77.81818389892578 L 178.71252059936523 77.81818389892578 L 178.71252059936523 130.45454788208008 L 176.6089324951172 130.45454788208008 L 176.6089324951172 77.81818389892578" fill-opacity="1" clip-path="url(#nWnSNmGaRlzb)"/><path fill="rgb(58,255,0)" stroke="none" paint-order="stroke" d="M 178.71250915527344 77.81818389892578 L 179.2556591629982 77.81818389892578 L 179.2556591629982 130.45454788208008 L 178.71250915527344 130.45454788208008 L 178.71250915527344 77.81818389892578" fill-opacity="1" clip-path="url(#nWnSNmGaRlzb)"/><path fill="rgb(53,255,0)" stroke="none" paint-order="stroke" d="M 179.2556610107422 77.81818389892578 L 461.43678283691406 77.81818389892578 L 461.43678283691406 130.45454788208008 L 179.2556610107422 130.45454788208008 L 179.2556610107422 77.81818389892578" fill-opacity="1" clip-path="url(#nWnSNmGaRlzb)"/><path fill="rgb(251,0,7)" stroke="none" paint-order="stroke" d="M 58.5 130.4545440673828 L 461.4367980957031 130.4545440673828 L 461.4367980957031 183.0909080505371 L 58.5 183.0909080505371 L 58.5 130.4545440673828" fill-opacity="1" clip-path="url(#yvHFmgEqwXbE)"/><path fill="rgb(105,29,48)" stroke="none" paint-order="stroke" d="M 411.3966979980469 183.09091186523438 L 411.46059799939394 183.09091186523438 L 411.46059799939394 498.9090881347656 L 411.3966979980469 498.9090881347656 L 411.3966979980469 183.09091186523438" fill-opacity="1" clip-path="url(#znOEvnXbXOLW)"/><path fill="rgb(255,188,66)" stroke="none" paint-order="stroke" d="M 418.9701232910156 183.09091186523438 L 421.61430525779724 183.09091186523438 L 421.61430525779724 498.9090881347656 L 418.9701232910156 498.9090881347656 L 418.9701232910156 183.09091186523438" fill-opacity="1" clip-path="url(#SveBUuCHmQoL)"/><path fill="rgb(162,174,187)" stroke="none" paint-order="stroke" d="M 413.3226318359375 183.09091186523438 L 413.38653183728456 183.09091186523438 L 413.38653183728456 498.9090881347656 L 413.3226318359375 498.9090881347656 L 413.3226318359375 183.09091186523438" fill-opacity="1" clip-path="url(#wWuJddwQTZUl)"/><path fill="rgb(216,17,89)" stroke="none" paint-order="stroke" d="M 168.2763671875 183.09091186523438 L 168.34026718884706 183.09091186523438 L 168.34026718884706 498.9090881347656 L 168.2763671875 498.9090881347656 L 168.2763671875 183.09091186523438" fill-opacity="1" clip-path="url(#osOpbmaTRNOe)"/><path fill="rgb(216,17,89)" stroke="none" paint-order="stroke" d="M 168.2763671875 183.09091186523438 L 168.34026718884706 183.09091186523438 L 168.34026718884706 498.9090881347656 L 168.2763671875 498.9090881347656 L 168.2763671875 183.09091186523438" fill-opacity="1" clip-path="url(#osOpbmaTRNOe)"/><path fill="rgb(33,131,128)" stroke="none" paint-order="stroke" d="M 431.0050354003906 183.09091186523438 L 432.4031673669815 183.09091186523438 L 432.4031673669815 498.9090881347656 L 431.0050354003906 498.9090881347656 L 431.0050354003906 183.09091186523438" fill-opacity="1" clip-path="url(#bzpyITWGHxTw)"/><path fill="rgb(115,210,222)" stroke="none" paint-order="stroke" d="M 436.6678771972656 183.09091186523438 L 461.43679428100586 183.09091186523438 L 461.43679428100586 498.9090881347656 L 436.6678771972656 498.9090881347656 L 436.6678771972656 183.09091186523438" fill-opacity="1" clip-path="url(#vwvfbGOsoEbx)"/><path fill="rgb(28,49,68)" stroke="none" paint-order="stroke" d="M 416.49847412109375 183.09091186523438 L 418.0985301733017 183.09091186523438 L 418.0985301733017 498.9090881347656 L 416.49847412109375 498.9090881347656 L 416.49847412109375 183.09091186523438" fill-opacity="1" clip-path="url(#kbdBrNcVGoqa)"/><path fill="rgb(28,49,68)" stroke="none" paint-order="stroke" d="M 422.6226501464844 183.09091186523438 L 424.60994017124176 183.09091186523438 L 424.60994017124176 498.9090881347656 L 422.6226501464844 498.9090881347656 L 422.6226501464844 183.09091186523438" fill-opacity="1" clip-path="url(#kbdBrNcVGoqa)"/><path fill="rgb(239,185,203)" stroke="none" paint-order="stroke" d="M 66.4172134399414 183.09091186523438 L 153.70716857910156 183.09091186523438 L 153.70716857910156 498.9090881347656 L 66.4172134399414 498.9090881347656 L 66.4172134399414 183.09091186523438" fill-opacity="1" clip-path="url(#TaxdbVwewugq)"/><path fill="rgb(239,185,203)" stroke="none" paint-order="stroke" d="M 157.56161499023438 183.09091186523438 L 161.91576099395752 183.09091186523438 L 161.91576099395752 498.9090881347656 L 157.56161499023438 498.9090881347656 L 157.56161499023438 183.09091186523438" fill-opacity="1" clip-path="url(#TaxdbVwewugq)"/><path fill="rgb(239,185,203)" stroke="none" paint-order="stroke" d="M 188.04830932617188 183.09091186523438 L 408.8560333251953 183.09091186523438 L 408.8560333251953 498.9090881347656 L 188.04830932617188 498.9090881347656 L 188.04830932617188 183.09091186523438" fill-opacity="1" clip-path="url(#TaxdbVwewugq)"/><path fill="rgb(105,29,48)" stroke="none" paint-order="stroke" d="M 174.5398406982422 183.09091186523438 L 177.20063662528992 183.09091186523438 L 177.20063662528992 498.9090881347656 L 174.5398406982422 498.9090881347656 L 174.5398406982422 183.09091186523438" fill-opacity="1" clip-path="url(#CeeuXZbEhiCF)"/><path fill="rgb(255,188,66)" stroke="none" paint-order="stroke" d="M 420.81683349609375 498.9090881347656 L 461.4367866516113 498.9090881347656 L 461.4367866516113 551.5454521179199 L 420.81683349609375 551.5454521179199 L 420.81683349609375 498.9090881347656" fill-opacity="1" clip-path="url(#wBVGvzRbJpTs)"/><path fill="rgb(143,45,86)" stroke="none" paint-order="stroke" d="M 58.5 551.5454711914062 L 411.3966979980469 551.5454711914062 L 411.3966979980469 604.1818351745605 L 58.5 604.1818351745605 L 58.5 551.5454711914062" fill-opacity="1" clip-path="url(#vACKrUurTUaR)"/><path fill="rgb(63,136,197)" stroke="none" paint-order="stroke" d="M 411.3966979980469 551.5454711914062 L 413.32264399528503 551.5454711914062 L 413.32264399528503 604.1818351745605 L 411.3966979980469 604.1818351745605 L 411.3966979980469 551.5454711914062" fill-opacity="1" clip-path="url(#vACKrUurTUaR)"/><path fill="rgb(81,60,99)" stroke="none" paint-order="stroke" d="M 413.3226318359375 551.5454711914062 L 461.43677520751953 551.5454711914062 L 461.43677520751953 604.1818351745605 L 413.3226318359375 604.1818351745605 L 413.3226318359375 551.5454711914062" fill-opacity="1" clip-path="url(#vACKrUurTUaR)"/><path fill="none" stroke="rgb(0,0,0)" paint-order="fill" d="M 58.5 77.81818389892578 L 461.4367980957031 77.81818389892578 L 461.4367980957031 604.1818313598633 L 58.5 604.1818313598633 L 58.5 77.81818389892578" stroke-opacity="1" stroke-linejoin="bevel" stroke-miterlimit="10" stroke-dasharray="" clip-path="url(#oRlsWZOyAfZx)"/><path fill="none" stroke="rgb(0,0,0)" paint-order="fill" d="M 58.5 630.5 L 1336.5 630.5" stroke-opacity="1" stroke-linejoin="bevel" stroke-miterlimit="10" stroke-dasharray=""/><path fill="none" stroke="rgb(0,0,0)" paint-order="fill" d="M 58.5 636.5 L 58.5 628.5 M 314.5 636.5 L 314.5 628.5 M 569.5 636.5 L 569.5 628.5 M 825.5 636.5 L 825.5 628.5 M 1080.5 636.5 L 1080.5 628.5 M 1336.5 636.5 L 1336.5 628.5" stroke-opacity="1" stroke-linejoin="bevel" stroke-miterlimit="10" stroke-dasharray=""/><path fill="none" stroke="rgb(0,0,0)" paint-order="fill" d="M 58.5 634.5 L 58.5 630.5 M 109.5 634.5 L 109.5 630.5 M 160.5 634.5 L 160.5 630.5 M 211.5 634.5 L 211.5 630.5 M 262.5 634.5 L 262.5 630.5 M 314.5 634.5 L 314.5 630.5 M 365.5 634.5 L 365.5 630.5 M 416.5 634.5 L 416.5 630.5 M 467.5 634.5 L 467.5 630.5 M 518.5 634.5 L 518.5 630.5 M 569.5 634.5 L 569.5 630.5 M 620.5 634.5 L 620.5 630.5 M 671.5 634.5 L 671.5 630.5 M 723.5 634.5 L 723.5 630.5 M 774.5 634.5 L 774.5 630.5 M 825.5 634.5 L 825.5 630.5 M 876.5 634.5 L 876.5 630.5 M 927.5 634.5 L 927.5 630.5 M 978.5 634.5 L 978.5 630.5 M 1029.5 634.5 L 1029.5 630.5 M 1080.5 634.5 L 1080.5 630.5 M 1132.5 634.5 L 1132.5 630.5 M 1183.5 634.5 L 1183.5 630.5 M 1234.5 634.5 L 1234.5 630.5 M 1285.5 634.5 L 1285.5 630.5 M 1336.5 634.5 L 1336.5 630.5" stroke-opacity="1" stroke-linejoin="bevel" stroke-miterlimit="10" stroke-dasharray=""/><text fill="rgb(68,68,68)" stroke="none" font-family="helvetica" font-size="11px" font-style="normal" font-weight="normal" text-decoration="normal" x="54.94166660308838" y="648.89013671875" text-anchor="start" dominant-baseline="alphabetic" transform="matrix(1, 0, 0, 1, 0.5, 0.5)" fill-opacity="1">0</text><text fill="rgb(68,68,68)" stroke="none" font-family="helvetica" font-size="11px" font-style="normal" font-weight="normal" text-decoration="normal" x="304.42500591278076" y="648.89013671875" text-anchor="start" dominant-baseline="alphabetic" transform="matrix(1, 0, 0, 1, 0.5, 0.5)" fill-opacity="1">200</text><text fill="rgb(68,68,68)" stroke="none" font-family="helvetica" font-size="11px" font-style="normal" font-weight="normal" text-decoration="normal" x="560.0250120162964" y="648.89013671875" text-anchor="start" dominant-baseline="alphabetic" transform="matrix(1, 0, 0, 1, 0.5, 0.5)" fill-opacity="1">400</text><text fill="rgb(68,68,68)" stroke="none" font-family="helvetica" font-size="11px" font-style="normal" font-weight="normal" text-decoration="normal" x="815.6249876022339" y="648.89013671875" text-anchor="start" dominant-baseline="alphabetic" transform="matrix(1, 0, 0, 1, 0.5, 0.5)" fill-opacity="1">600</text><text fill="rgb(68,68,68)" stroke="none" font-family="helvetica" font-size="11px" font-style="normal" font-weight="normal" text-decoration="normal" x="1071.2250242233276" y="648.89013671875" text-anchor="start" dominant-baseline="alphabetic" transform="matrix(1, 0, 0, 1, 0.5, 0.5)" fill-opacity="1">800</text><text fill="rgb(68,68,68)" stroke="none" font-family="helvetica" font-size="11px" font-style="normal" font-weight="normal" text-decoration="normal" x="1323.7666664123535" y="648.89013671875" text-anchor="start" dominant-baseline="alphabetic" transform="matrix(1, 0, 0, 1, 0.5, 0.5)" fill-opacity="1">1000</text><text fill="rgb(68,68,68)" stroke="none" font-family="helvetica" font-size="15pt" font-style="italic" font-weight="normal" text-decoration="normal" x="666.4416675567627" y="676.06982421875" text-anchor="start" dominant-baseline="alphabetic" transform="matrix(1, 0, 0, 1, 0.5, 0.5)" fill-opacity="1">time(s)</text><path fill="none" stroke="rgb(0,0,0)" paint-order="fill" d="M 58.5 630.5 L 58.5 51.5" stroke-opacity="1" stroke-linejoin="bevel" stroke-miterlimit="10" stroke-dasharray=""/><path fill="none" stroke="rgb(0,0,0)" paint-order="fill" d="M 52.5 551.5 L 60.5 551.5 M 52.5 446.5 L 60.5 446.5 M 52.5 341.5 L 60.5 341.5 M 52.5 235.5 L 60.5 235.5 M 52.5 130.5 L 60.5 130.5" stroke-opacity="1" stroke-linejoin="bevel" stroke-miterlimit="10" stroke-dasharray=""/><path fill="none" stroke="rgb(0,0,0)" paint-order="fill" d="M 54.5 572.5 L 58.5 572.5 M 54.5 593.5 L 58.5 593.5 M 54.5 614.5 L 58.5 614.5 M 54.5 551.5 L 58.5 551.5 M 54.5 530.5 L 58.5 530.5 M 54.5 509.5 L 58.5 509.5 M 54.5 488.5 L 58.5 488.5 M 54.5 467.5 L 58.5 467.5 M 54.5 446.5 L 58.5 446.5 M 54.5 425.5 L 58.5 425.5 M 54.5 404.5 L 58.5 404.5 M 54.5 383.5 L 58.5 383.5 M 54.5 362.5 L 58.5 362.5 M 54.5 341.5 L 58.5 341.5 M 54.5 319.5 L 58.5 319.5 M 54.5 298.5 L 58.5 298.5 M 54.5 277.5 L 58.5 277.5 M 54.5 256.5 L 58.5 256.5 M 54.5 235.5 L 58.5 235.5 M 54.5 214.5 L 58.5 214.5 M 54.5 193.5 L 58.5 193.5 M 54.5 172.5 L 58.5 172.5 M 54.5 151.5 L 58.5 151.5 M 54.5 130.5 L 58.5 130.5 M 54.5 109.5 L 58.5 109.5 M 54.5 88.5 L 58.5 88.5 M 54.5 67.5 L 58.5 67.5" stroke-opacity="1" stroke-linejoin="bevel" stroke-miterlimit="10" stroke-dasharray=""/><text fill="rgb(68,68,68)" stroke="none" font-family="helvetica" font-size="11px" font-style="normal" font-weight="normal" text-decoration="normal" x="34.46666622161865" y="554.9905395507812" text-anchor="start" dominant-baseline="alphabetic" transform="matrix(1, 0, 0, 1, 0.5, 0.5)" fill-opacity="1">−2</text><text fill="rgb(68,68,68)" stroke="none" font-family="helvetica" font-size="11px" font-style="normal" font-weight="normal" text-decoration="normal" x="34.46666622161865" y="449.7178039550781" text-anchor="start" dominant-baseline="alphabetic" transform="matrix(1, 0, 0, 1, 0.5, 0.5)" fill-opacity="1">−1</text><text fill="rgb(68,68,68)" stroke="none" font-family="helvetica" font-size="11px" font-style="normal" font-weight="normal" text-decoration="normal" x="40.88333320617676" y="344.445068359375" text-anchor="start" dominant-baseline="alphabetic" transform="matrix(1, 0, 0, 1, 0.5, 0.5)" fill-opacity="1">0</text><text fill="rgb(68,68,68)" stroke="none" font-family="helvetica" font-size="11px" font-style="normal" font-weight="normal" text-decoration="normal" x="40.88333320617676" y="239.17234802246094" text-anchor="start" dominant-baseline="alphabetic" transform="matrix(1, 0, 0, 1, 0.5, 0.5)" fill-opacity="1">1</text><text fill="rgb(68,68,68)" stroke="none" font-family="helvetica" font-size="11px" font-style="normal" font-weight="normal" text-decoration="normal" x="40.88333320617676" y="133.8996124267578" text-anchor="start" dominant-baseline="alphabetic" transform="matrix(1, 0, 0, 1, 0.5, 0.5)" fill-opacity="1">2</text><text fill="rgb(68,68,68)" stroke="none" font-family="helvetica" font-size="15pt" font-style="italic" font-weight="normal" text-decoration="normal" x="-11.316666603088379" y="336.076171875" text-anchor="start" dominant-baseline="alphabetic" transform="matrix(6.123233995736766e-17, -1, 1, 6.123233995736766e-17, -313.53333377838135, 367.46666622161865)" fill-opacity="1">students</text><path fill="rgb(255,255,255)" stroke="rgb(229,229,229)" paint-order="fill" d="M 1128.2333374023438 61.5 L 1326.5 61.5 L 1326.5 400.5 L 1128.2333374023438 400.5 L 1128.2333374023438 61.5" fill-opacity="0.9490196078431372" clip-path="url(#vqUyhRGlQgtX)" stroke-opacity="0.5019607843137255" stroke-linejoin="bevel" stroke-miterlimit="10" stroke-dasharray=""/><g clip-path="url(#vqUyhRGlQgtX)"><text fill="rgb(68,68,68)" stroke="none" font-family="helvetica" font-size="13px" font-style="normal" font-weight="normal" text-decoration="normal" x="1162.7333374023438" y="81" text-anchor="start" dominant-baseline="central" transform="matrix(1, 0, 0, 1, 0.5, 0.5)" fill-opacity="1">wavelength</text></g><path fill="rgb(0,255,40)" stroke="none" paint-order="stroke" d="M 1140.2333374023438 73.5 L 1156.2333374023438 73.5 L 1156.2333374023438 89.5 L 1140.2333374023438 89.5 L 1140.2333374023438 73.5" fill-opacity="1" clip-path="url(#vqUyhRGlQgtX)"/><path fill="rgb(216,17,89)" stroke="none" paint-order="stroke" d="M 1140.2333374023438 73.5 L 1156.2333374023438 73.5 L 1156.2333374023438 89.5 L 1140.2333374023438 89.5 L 1140.2333374023438 73.5" fill-opacity="1" clip-path="url(#vqUyhRGlQgtX)"/><g clip-path="url(#vqUyhRGlQgtX)"><text fill="rgb(68,68,68)" stroke="none" font-family="helvetica" font-size="13px" font-style="normal" font-weight="normal" text-decoration="normal" x="1162.7333374023438" y="104" text-anchor="start" dominant-baseline="central" transform="matrix(1, 0, 0, 1, 0.5, 0.5)" fill-opacity="1">solution</text></g><path fill="rgb(251,0,7)" stroke="none" paint-order="stroke" d="M 1140.2333374023438 96.5 L 1156.2333374023438 96.5 L 1156.2333374023438 112.5 L 1140.2333374023438 112.5 L 1140.2333374023438 96.5" fill-opacity="1" clip-path="url(#vqUyhRGlQgtX)"/><path fill="rgb(33,131,128)" stroke="none" paint-order="stroke" d="M 1140.2333374023438 96.5 L 1156.2333374023438 96.5 L 1156.2333374023438 112.5 L 1140.2333374023438 112.5 L 1140.2333374023438 96.5" fill-opacity="1" clip-path="url(#vqUyhRGlQgtX)"/><g clip-path="url(#vqUyhRGlQgtX)"><text fill="rgb(68,68,68)" stroke="none" font-family="helvetica" font-size="13px" font-style="normal" font-weight="normal" text-decoration="normal" x="1162.7333374023438" y="127" text-anchor="start" dominant-baseline="central" transform="matrix(1, 0, 0, 1, 0.5, 0.5)" fill-opacity="1">laser</text></g><path fill="rgb(105,29,48)" stroke="none" paint-order="stroke" d="M 1140.2333374023438 119.5 L 1156.2333374023438 119.5 L 1156.2333374023438 135.5 L 1140.2333374023438 135.5 L 1140.2333374023438 119.5" fill-opacity="1" clip-path="url(#vqUyhRGlQgtX)"/><g clip-path="url(#vqUyhRGlQgtX)"><text fill="rgb(68,68,68)" stroke="none" font-family="helvetica" font-size="13px" font-style="normal" font-weight="normal" text-decoration="normal" x="1162.7333374023438" y="150" text-anchor="start" dominant-baseline="central" transform="matrix(1, 0, 0, 1, 0.5, 0.5)" fill-opacity="1">ruler</text></g><path fill="rgb(255,188,66)" stroke="none" paint-order="stroke" d="M 1140.2333374023438 142.5 L 1156.2333374023438 142.5 L 1156.2333374023438 158.5 L 1140.2333374023438 158.5 L 1140.2333374023438 142.5" fill-opacity="1" clip-path="url(#vqUyhRGlQgtX)"/><g clip-path="url(#vqUyhRGlQgtX)"><text fill="rgb(68,68,68)" stroke="none" font-family="helvetica" font-size="13px" font-style="normal" font-weight="normal" text-decoration="normal" x="1162.7333374023438" y="173" text-anchor="start" dominant-baseline="central" transform="matrix(1, 0, 0, 1, 0.5, 0.5)" fill-opacity="1">restarts</text></g><g clip-path="url(#vqUyhRGlQgtX)"><text fill="rgb(68,68,68)" stroke="none" font-family="helvetica" font-size="13px" font-style="normal" font-weight="normal" text-decoration="normal" x="1162.7333374023438" y="196" text-anchor="start" dominant-baseline="central" transform="matrix(1, 0, 0, 1, 0.5, 0.5)" fill-opacity="1">transmittance_absorbance</text></g><path fill="rgb(162,174,187)" stroke="none" paint-order="stroke" d="M 1140.2333374023438 188.5 L 1156.2333374023438 188.5 L 1156.2333374023438 204.5 L 1140.2333374023438 204.5 L 1140.2333374023438 188.5" fill-opacity="1" clip-path="url(#vqUyhRGlQgtX)"/><g clip-path="url(#vqUyhRGlQgtX)"><text fill="rgb(68,68,68)" stroke="none" font-family="helvetica" font-size="13px" font-style="normal" font-weight="normal" text-decoration="normal" x="1162.7333374023438" y="219" text-anchor="start" dominant-baseline="central" transform="matrix(1, 0, 0, 1, 0.5, 0.5)" fill-opacity="1">magnifier</text></g><g clip-path="url(#vqUyhRGlQgtX)"><text fill="rgb(68,68,68)" stroke="none" font-family="helvetica" font-size="13px" font-style="normal" font-weight="normal" text-decoration="normal" x="1162.7333374023438" y="242" text-anchor="start" dominant-baseline="central" transform="matrix(1, 0, 0, 1, 0.5, 0.5)" fill-opacity="1">concentration</text></g><path fill="rgb(115,210,222)" stroke="none" paint-order="stroke" d="M 1140.2333374023438 234.5 L 1156.2333374023438 234.5 L 1156.2333374023438 250.5 L 1140.2333374023438 250.5 L 1140.2333374023438 234.5" fill-opacity="1" clip-path="url(#vqUyhRGlQgtX)"/><g clip-path="url(#vqUyhRGlQgtX)"><text fill="rgb(68,68,68)" stroke="none" font-family="helvetica" font-size="13px" font-style="normal" font-weight="normal" text-decoration="normal" x="1162.7333374023438" y="265" text-anchor="start" dominant-baseline="central" transform="matrix(1, 0, 0, 1, 0.5, 0.5)" fill-opacity="1">flask</text></g><path fill="rgb(28,49,68)" stroke="none" paint-order="stroke" d="M 1140.2333374023438 257.5 L 1156.2333374023438 257.5 L 1156.2333374023438 273.5 L 1140.2333374023438 273.5 L 1140.2333374023438 257.5" fill-opacity="1" clip-path="url(#vqUyhRGlQgtX)"/><g clip-path="url(#vqUyhRGlQgtX)"><text fill="rgb(68,68,68)" stroke="none" font-family="helvetica" font-size="13px" font-style="normal" font-weight="normal" text-decoration="normal" x="1162.7333374023438" y="288" text-anchor="start" dominant-baseline="central" transform="matrix(1, 0, 0, 1, 0.5, 0.5)" fill-opacity="1">pdf</text></g><path fill="rgb(239,185,203)" stroke="none" paint-order="stroke" d="M 1140.2333374023438 280.5 L 1156.2333374023438 280.5 L 1156.2333374023438 296.5 L 1140.2333374023438 296.5 L 1140.2333374023438 280.5" fill-opacity="1" clip-path="url(#vqUyhRGlQgtX)"/><g clip-path="url(#vqUyhRGlQgtX)"><text fill="rgb(68,68,68)" stroke="none" font-family="helvetica" font-size="13px" font-style="normal" font-weight="normal" text-decoration="normal" x="1162.7333374023438" y="311" text-anchor="start" dominant-baseline="central" transform="matrix(1, 0, 0, 1, 0.5, 0.5)" fill-opacity="1">concentrationlab</text></g><g clip-path="url(#vqUyhRGlQgtX)"><text fill="rgb(68,68,68)" stroke="none" font-family="helvetica" font-size="13px" font-style="normal" font-weight="normal" text-decoration="normal" x="1162.7333374023438" y="334" text-anchor="start" dominant-baseline="central" transform="matrix(1, 0, 0, 1, 0.5, 0.5)" fill-opacity="1">wavelength_slider</text></g><path fill="rgb(105,29,48)" stroke="none" paint-order="stroke" d="M 1140.2333374023438 326.5 L 1156.2333374023438 326.5 L 1156.2333374023438 342.5 L 1140.2333374023438 342.5 L 1140.2333374023438 326.5" fill-opacity="1" clip-path="url(#vqUyhRGlQgtX)"/><g clip-path="url(#vqUyhRGlQgtX)"><text fill="rgb(68,68,68)" stroke="none" font-family="helvetica" font-size="13px" font-style="normal" font-weight="normal" text-decoration="normal" x="1162.7333374023438" y="357" text-anchor="start" dominant-baseline="central" transform="matrix(1, 0, 0, 1, 0.5, 0.5)" fill-opacity="1">ruler measuring</text></g><path fill="rgb(255,188,66)" stroke="none" paint-order="stroke" d="M 1140.2333374023438 349.5 L 1156.2333374023438 349.5 L 1156.2333374023438 365.5 L 1140.2333374023438 365.5 L 1140.2333374023438 349.5" fill-opacity="1" clip-path="url(#vqUyhRGlQgtX)"/><g clip-path="url(#vqUyhRGlQgtX)"><text fill="rgb(68,68,68)" stroke="none" font-family="helvetica" font-size="13px" font-style="normal" font-weight="normal" text-decoration="normal" x="1162.7333374023438" y="380" text-anchor="start" dominant-baseline="central" transform="matrix(1, 0, 0, 1, 0.5, 0.5)" fill-opacity="1">dependent variable</text></g><path fill="rgb(143,45,86)" stroke="none" paint-order="stroke" d="M 1140.2333374023438 372.5 L 1156.2333374023438 372.5 L 1156.2333374023438 388.5 L 1140.2333374023438 388.5 L 1140.2333374023438 372.5" fill-opacity="1" clip-path="url(#vqUyhRGlQgtX)"/><text fill="rgb(68,68,68)" stroke="none" font-family="helvetica" font-size="25pt" font-style="normal" font-weight="bold" text-decoration="normal" x="58" y="38.740885416666664" text-anchor="start" dominant-baseline="alphabetic" transform="matrix(1, 0, 0, 1, 0.5, 0.5)" fill-opacity="1">Timeline for student x5sm9pfu with permutation 2103 for task 2</text></svg>