<svg version="1.1" xmlns="http://www.w3.org/2000/svg" width="1366" height="683"><defs><clipPath id="HSSBzHTRWCSP"><path fill="none" stroke="none" d="M 58.5 51.5 L 1336.5 51.5 L 1336.5 630.5 L 58.5 630.5 L 58.5 51.5"/></clipPath><clipPath id="vasksJFMmCrk"><path fill="none" stroke="none" d="M 58.5 51.5 L 1336.5 51.5 L 1336.5 630.5 L 58.5 630.5 L 58.5 51.5"/></clipPath><clipPath id="dzzrnSwGVyoo"><path fill="none" stroke="none" d="M 58.5 51.5 L 1336.5 51.5 L 1336.5 630.5 L 58.5 630.5 L 58.5 51.5"/></clipPath><clipPath id="xgtGVGSQehNM"><path fill="none" stroke="none" d="M 58.5 51.5 L 1336.5 51.5 L 1336.5 630.5 L 58.5 630.5 L 58.5 51.5"/></clipPath><clipPath id="RDTfDEaCylnp"><path fill="none" stroke="none" d="M 58.5 51.5 L 1336.5 51.5 L 1336.5 630.5 L 58.5 630.5 L 58.5 51.5"/></clipPath><clipPath id="HzTqMZehpgeb"><path fill="none" stroke="none" d="M 58.5 51.5 L 1336.5 51.5 L 1336.5 630.5 L 58.5 630.5 L 58.5 51.5"/></clipPath><clipPath id="yopsNiKehkUl"><path fill="none" stroke="none" d="M 58.5 51.5 L 1336.5 51.5 L 1336.5 630.5 L 58.5 630.5 L 58.5 51.5"/></clipPath><clipPath id="ZybxtGOxhyeM"><path fill="none" stroke="none" d="M 58.5 51.5 L 1336.5 51.5 L 1336.5 630.5 L 58.5 630.5 L 58.5 51.5"/></clipPath><clipPath id="gQHyUqdyPElt"><path fill="none" stroke="none" d="M 58.5 51.5 L 1336.5 51.5 L 1336.5 630.5 L 58.5 630.5 L 58.5 51.5"/></clipPath><clipPath id="bMfurJKGzfbo"><path fill="none" stroke="none" d="M 58.5 51.5 L 1336.5 51.5 L 1336.5 630.5 L 58.5 630.5 L 58.5 51.5"/></clipPath><clipPath id="hmIFBCmfyEkg"><path fill="none" stroke="none" d="M 58.5 51.5 L 1336.5 51.5 L 1336.5 630.5 L 58.5 630.5 L 58.5 51.5"/></clipPath><clipPath id="DCvdsHGqApmU"><path fill="none" stroke="none" d="M 58.5 51.5 L 1336.5 51.5 L 1336.5 630.5 L 58.5 630.5 L 58.5 51.5"/></clipPath><clipPath id="vlcLNaViqLii"><path fill="none" stroke="none" d="M 58.5 51.5 L 1336.5 51.5 L 1336.5 630.5 L 58.5 630.5 L 58.5 51.5"/></clipPath><clipPath id="OOAQgATQwDrn"><path fill="none" stroke="none" d="M 58.5 51.5 L 1336.5 51.5 L 1336.5 630.5 L 58.5 630.5 L 58.5 51.5"/></clipPath><clipPath id="OfqOAOoMTtVX"><path fill="none" stroke="none" d="M 58.5 51.5 L 1336.5 51.5 L 1336.5 630.5 L 58.5 630.5 L 58.5 51.5"/></clipPath><clipPath id="axEbESsQTniI"><path fill="none" stroke="none" d="M 58.5 51.5 L 1336.5 51.5 L 1336.5 630.5 L 58.5 630.5 L 58.5 51.5"/></clipPath><clipPath id="LItTPcJBdACc"><path fill="none" stroke="none" d="M 58.5 51.5 L 1336.5 51.5 L 1336.5 630.5 L 58.5 630.5 L 58.5 51.5"/></clipPath><clipPath id="hTOTSVwpQyQs"><path fill="none" stroke="none" d="M 58.5 51.5 L 1336.5 51.5 L 1336.5 630.5 L 58.5 630.5 L 58.5 51.5"/></clipPath><clipPath id="ivSaKAPIrgxC"><path fill="none" stroke="none" d="M 58.5 51.5 L 1336.5 51.5 L 1336.5 630.5 L 58.5 630.5 L 58.5 51.5"/></clipPath><clipPath id="ELoOCQBOzOdo"><path fill="none" stroke="none" d="M 58.5 51.5 L 1336.5 51.5 L 1336.5 630.5 L 58.5 630.5 L 58.5 51.5"/></clipPath><clipPath id="NoyhznnvSzOh"><path fill="none" stroke="none" d="M 58.5 51.5 L 1336.5 51.5 L 1336.5 630.5 L 58.5 630.5 L 58.5 51.5"/></clipPath></defs><path fill="rgb(255,255,255)" stroke="none" paint-order="stroke" d="M 0.5 0.5 L 1366.5 0.5 L 1366.5 683.5 L 0.5 683.5 L 0.5 0.5" fill-opacity="1"/><rect fill="#FFFFFF" stroke="none" x="58" y="51" width="1278" height="579" transform="matrix(1, 0, 0, 1, 0.5, 0.5)"/><path fill="rgb(255,255,255)" stroke="none" paint-order="stroke" d="M 58.5 51.5 L 1336.5 51.5 L 1336.5 630.5 L 58.5 630.5 L 58.5 51.5" fill-opacity="1"/><path fill="none" stroke="rgb(229,229,229)" paint-order="fill" d="M 58.5 51.5 L 1336.5 51.5 L 1336.5 630.5 L 58.5 630.5 L 58.5 51.5" stroke-opacity="1" stroke-linejoin="bevel" stroke-miterlimit="10" stroke-dasharray=""/><path fill="none" stroke="rgb(229,229,229)" paint-order="fill" d="M 314.5 630.5 L 314.5 51.5 M 569.5 630.5 L 569.5 51.5 M 825.5 630.5 L 825.5 51.5 M 1080.5 630.5 L 1080.5 51.5" stroke-opacity="1" stroke-linejoin="bevel" stroke-miterlimit="10" stroke-dasharray="" clip-path="url(#HSSBzHTRWCSP)"/><path fill="none" stroke="rgb(229,229,229)" paint-order="fill" d="M 58.5 551.5 L 1336.5 551.5 M 58.5 446.5 L 1336.5 446.5 M 58.5 341.5 L 1336.5 341.5 M 58.5 235.5 L 1336.5 235.5 M 58.5 130.5 L 1336.5 130.5" stroke-opacity="1" stroke-linejoin="bevel" stroke-miterlimit="10" stroke-dasharray="" clip-path="url(#vasksJFMmCrk)"/><path fill="rgb(0,255,40)" stroke="none" paint-order="stroke" d="M 58.5 77.81818389892578 L 120.70409393310547 77.81818389892578 L 120.70409393310547 130.45454788208008 L 58.5 130.45454788208008 L 58.5 77.81818389892578" fill-opacity="1" clip-path="url(#dzzrnSwGVyoo)"/><path fill="rgb(0,255,84)" stroke="none" paint-order="stroke" d="M 120.70409393310547 77.81818389892578 L 120.723263932392 77.81818389892578 L 120.723263932392 130.45454788208008 L 120.70409393310547 130.45454788208008 L 120.70409393310547 77.81818389892578" fill-opacity="1" clip-path="url(#dzzrnSwGVyoo)"/><path fill="rgb(0,255,122)" stroke="none" paint-order="stroke" d="M 120.7232666015625 77.81818389892578 L 120.91496659815311 77.81818389892578 L 120.91496659815311 130.45454788208008 L 120.7232666015625 130.45454788208008 L 120.7232666015625 77.81818389892578" fill-opacity="1" clip-path="url(#dzzrnSwGVyoo)"/><path fill="rgb(0,255,158)" stroke="none" paint-order="stroke" d="M 120.91496276855469 77.81818389892578 L 120.9584147669375 77.81818389892578 L 120.9584147669375 130.45454788208008 L 120.91496276855469 130.45454788208008 L 120.91496276855469 77.81818389892578" fill-opacity="1" clip-path="url(#dzzrnSwGVyoo)"/><path fill="rgb(0,255,191)" stroke="none" paint-order="stroke" d="M 120.95841979980469 77.81818389892578 L 121.0005938000977 77.81818389892578 L 121.0005938000977 130.45454788208008 L 120.95841979980469 130.45454788208008 L 120.95841979980469 77.81818389892578" fill-opacity="1" clip-path="url(#dzzrnSwGVyoo)"/><path fill="rgb(0,255,255)" stroke="none" paint-order="stroke" d="M 121.0005874633789 77.81818389892578 L 121.11560746282339 77.81818389892578 L 121.11560746282339 130.45454788208008 L 121.0005874633789 130.45454788208008 L 121.0005874633789 77.81818389892578" fill-opacity="1" clip-path="url(#dzzrnSwGVyoo)"/><path fill="rgb(0,246,255)" stroke="none" paint-order="stroke" d="M 121.11560821533203 77.81818389892578 L 121.12838821578771 77.81818389892578 L 121.12838821578771 130.45454788208008 L 121.11560821533203 130.45454788208008 L 121.11560821533203 77.81818389892578" fill-opacity="1" clip-path="url(#dzzrnSwGVyoo)"/><path fill="rgb(0,234,255)" stroke="none" paint-order="stroke" d="M 121.12838745117188 77.81818389892578 L 121.23573945462704 77.81818389892578 L 121.23573945462704 130.45454788208008 L 121.12838745117188 130.45454788208008 L 121.12838745117188 77.81818389892578" fill-opacity="1" clip-path="url(#dzzrnSwGVyoo)"/><path fill="rgb(0,221,255)" stroke="none" paint-order="stroke" d="M 121.2357406616211 77.81818389892578 L 121.34309266507626 77.81818389892578 L 121.34309266507626 130.45454788208008 L 121.2357406616211 130.45454788208008 L 121.2357406616211 77.81818389892578" fill-opacity="1" clip-path="url(#dzzrnSwGVyoo)"/><path fill="rgb(0,209,255)" stroke="none" paint-order="stroke" d="M 121.34309387207031 77.81818389892578 L 121.38398987054825 77.81818389892578 L 121.38398987054825 130.45454788208008 L 121.34309387207031 130.45454788208008 L 121.34309387207031 77.81818389892578" fill-opacity="1" clip-path="url(#dzzrnSwGVyoo)"/><path fill="rgb(0,196,255)" stroke="none" paint-order="stroke" d="M 121.38398742675781 77.81818389892578 L 121.40571342594922 77.81818389892578 L 121.40571342594922 130.45454788208008 L 121.38398742675781 130.45454788208008 L 121.38398742675781 77.81818389892578" fill-opacity="1" clip-path="url(#dzzrnSwGVyoo)"/><path fill="rgb(0,182,255)" stroke="none" paint-order="stroke" d="M 121.40571594238281 77.81818389892578 L 121.44916794076562 77.81818389892578 L 121.44916794076562 130.45454788208008 L 121.40571594238281 130.45454788208008 L 121.40571594238281 77.81818389892578" fill-opacity="1" clip-path="url(#dzzrnSwGVyoo)"/><path fill="rgb(0,169,255)" stroke="none" paint-order="stroke" d="M 121.44916534423828 77.81818389892578 L 121.5360693410039 77.81818389892578 L 121.5360693410039 130.45454788208008 L 121.44916534423828 130.45454788208008 L 121.44916534423828 77.81818389892578" fill-opacity="1" clip-path="url(#dzzrnSwGVyoo)"/><path fill="rgb(0,160,255)" stroke="none" paint-order="stroke" d="M 121.53607177734375 77.81818389892578 L 121.64086777716875 77.81818389892578 L 121.64086777716875 130.45454788208008 L 121.53607177734375 130.45454788208008 L 121.53607177734375 77.81818389892578" fill-opacity="1" clip-path="url(#dzzrnSwGVyoo)"/><path fill="rgb(0,146,255)" stroke="none" paint-order="stroke" d="M 121.640869140625 77.81818389892578 L 121.66131713986397 77.81818389892578 L 121.66131713986397 130.45454788208008 L 121.640869140625 130.45454788208008 L 121.640869140625 77.81818389892578" fill-opacity="1" clip-path="url(#dzzrnSwGVyoo)"/><path fill="rgb(0,132,255)" stroke="none" paint-order="stroke" d="M 121.66131591796875 77.81818389892578 L 121.70476791635156 77.81818389892578 L 121.70476791635156 130.45454788208008 L 121.66131591796875 130.45454788208008 L 121.66131591796875 77.81818389892578" fill-opacity="1" clip-path="url(#dzzrnSwGVyoo)"/><path fill="rgb(0,117,255)" stroke="none" paint-order="stroke" d="M 121.70476531982422 77.81818389892578 L 121.85301332175732 77.81818389892578 L 121.85301332175732 130.45454788208008 L 121.70476531982422 130.45454788208008 L 121.70476531982422 77.81818389892578" fill-opacity="1" clip-path="url(#dzzrnSwGVyoo)"/><path fill="rgb(0,102,255)" stroke="none" paint-order="stroke" d="M 121.85301971435547 77.81818389892578 L 121.9808197170496 77.81818389892578 L 121.9808197170496 130.45454788208008 L 121.85301971435547 130.45454788208008 L 121.85301971435547 77.81818389892578" fill-opacity="1" clip-path="url(#dzzrnSwGVyoo)"/><path fill="rgb(0,70,255)" stroke="none" paint-order="stroke" d="M 121.98081970214844 77.81818389892578 L 122.13034570217133 77.81818389892578 L 122.13034570217133 130.45454788208008 L 121.98081970214844 130.45454788208008 L 121.98081970214844 77.81818389892578" fill-opacity="1" clip-path="url(#dzzrnSwGVyoo)"/><path fill="rgb(0,58,255)" stroke="none" paint-order="stroke" d="M 122.13034057617188 77.81818389892578 L 122.17123657464981 77.81818389892578 L 122.17123657464981 130.45454788208008 L 122.13034057617188 130.45454788208008 L 122.13034057617188 77.81818389892578" fill-opacity="1" clip-path="url(#dzzrnSwGVyoo)"/><path fill="rgb(0,40,255)" stroke="none" paint-order="stroke" d="M 122.1712417602539 77.81818389892578 L 122.30031976103783 77.81818389892578 L 122.30031976103783 130.45454788208008 L 122.1712417602539 130.45454788208008 L 122.1712417602539 77.81818389892578" fill-opacity="1" clip-path="url(#dzzrnSwGVyoo)"/><path fill="rgb(0,19,255)" stroke="none" paint-order="stroke" d="M 122.3003158569336 77.81818389892578 L 122.32076385617256 77.81818389892578 L 122.32076385617256 130.45454788208008 L 122.3003158569336 130.45454788208008 L 122.3003158569336 77.81818389892578" fill-opacity="1" clip-path="url(#dzzrnSwGVyoo)"/><path fill="rgb(9,0,252)" stroke="none" paint-order="stroke" d="M 122.32076263427734 77.81818389892578 L 122.36421463266015 77.81818389892578 L 122.36421463266015 130.45454788208008 L 122.32076263427734 130.45454788208008 L 122.32076263427734 77.81818389892578" fill-opacity="1" clip-path="url(#dzzrnSwGVyoo)"/><path fill="rgb(42,0,238)" stroke="none" paint-order="stroke" d="M 122.36421966552734 77.81818389892578 L 122.42811966687441 77.81818389892578 L 122.42811966687441 130.45454788208008 L 122.36421966552734 130.45454788208008 L 122.36421966552734 77.81818389892578" fill-opacity="1" clip-path="url(#dzzrnSwGVyoo)"/><path fill="rgb(55,0,230)" stroke="none" paint-order="stroke" d="M 122.42811584472656 77.81818389892578 L 122.55591584742069 77.81818389892578 L 122.55591584742069 130.45454788208008 L 122.42811584472656 130.45454788208008 L 122.42811584472656 77.81818389892578" fill-opacity="1" clip-path="url(#dzzrnSwGVyoo)"/><path fill="rgb(62,0,226)" stroke="none" paint-order="stroke" d="M 122.55591583251953 77.81818389892578 L 122.72716782987118 77.81818389892578 L 122.72716782987118 130.45454788208008 L 122.55591583251953 130.45454788208008 L 122.55591583251953 77.81818389892578" fill-opacity="1" clip-path="url(#dzzrnSwGVyoo)"/><path fill="rgb(80,0,211)" stroke="none" paint-order="stroke" d="M 122.72716522216797 77.81818389892578 L 122.98276522755623 77.81818389892578 L 122.98276522755623 130.45454788208008 L 122.72716522216797 130.45454788208008 L 122.72716522216797 77.81818389892578" fill-opacity="1" clip-path="url(#dzzrnSwGVyoo)"/><path fill="rgb(87,0,203)" stroke="none" paint-order="stroke" d="M 122.9827651977539 77.81818389892578 L 123.15146119892597 77.81818389892578 L 123.15146119892597 130.45454788208008 L 122.9827651977539 130.45454788208008 L 122.9827651977539 77.81818389892578" fill-opacity="1" clip-path="url(#dzzrnSwGVyoo)"/><path fill="rgb(94,0,196)" stroke="none" paint-order="stroke" d="M 123.1514663696289 77.81818389892578 L 123.17319236882031 77.81818389892578 L 123.17319236882031 130.45454788208008 L 123.1514663696289 130.45454788208008 L 123.1514663696289 77.81818389892578" fill-opacity="1" clip-path="url(#dzzrnSwGVyoo)"/><path fill="rgb(99,0,188)" stroke="none" paint-order="stroke" d="M 123.17318725585938 77.81818389892578 L 123.23708725720644 77.81818389892578 L 123.23708725720644 130.45454788208008 L 123.17318725585938 130.45454788208008 L 123.17318725585938 77.81818389892578" fill-opacity="1" clip-path="url(#dzzrnSwGVyoo)"/><path fill="rgb(106,0,175)" stroke="none" paint-order="stroke" d="M 123.23709106445312 77.81818389892578 L 123.30099106580019 77.81818389892578 L 123.30099106580019 130.45454788208008 L 123.23709106445312 130.45454788208008 L 123.23709106445312 77.81818389892578" fill-opacity="1" clip-path="url(#dzzrnSwGVyoo)"/><path fill="rgb(108,0,167)" stroke="none" paint-order="stroke" d="M 123.30098724365234 77.81818389892578 L 123.34316124394536 77.81818389892578 L 123.34316124394536 130.45454788208008 L 123.30098724365234 130.45454788208008 L 123.30098724365234 77.81818389892578" fill-opacity="1" clip-path="url(#dzzrnSwGVyoo)"/><path fill="rgb(110,0,159)" stroke="none" paint-order="stroke" d="M 123.3431625366211 77.81818389892578 L 123.38533653691411 77.81818389892578 L 123.38533653691411 130.45454788208008 L 123.3431625366211 130.45454788208008 L 123.3431625366211 77.81818389892578" fill-opacity="1" clip-path="url(#dzzrnSwGVyoo)"/><path fill="rgb(111,0,151)" stroke="none" paint-order="stroke" d="M 123.38533782958984 77.81818389892578 L 123.40706382878125 77.81818389892578 L 123.40706382878125 130.45454788208008 L 123.38533782958984 130.45454788208008 L 123.38533782958984 77.81818389892578" fill-opacity="1" clip-path="url(#dzzrnSwGVyoo)"/><path fill="rgb(111,0,143)" stroke="none" paint-order="stroke" d="M 123.40706634521484 77.81818389892578 L 123.44924034550786 77.81818389892578 L 123.44924034550786 130.45454788208008 L 123.40706634521484 130.45454788208008 L 123.40706634521484 77.81818389892578" fill-opacity="1" clip-path="url(#dzzrnSwGVyoo)"/><path fill="rgb(111,0,135)" stroke="none" paint-order="stroke" d="M 123.4492416381836 77.81818389892578 L 123.49397163838148 77.81818389892578 L 123.49397163838148 130.45454788208008 L 123.4492416381836 130.45454788208008 L 123.4492416381836 77.81818389892578" fill-opacity="1" clip-path="url(#dzzrnSwGVyoo)"/><path fill="rgb(109,0,126)" stroke="none" paint-order="stroke" d="M 123.49396514892578 77.81818389892578 L 123.58981514722109 77.81818389892578 L 123.58981514722109 130.45454788208008 L 123.49396514892578 130.45454788208008 L 123.49396514892578 77.81818389892578" fill-opacity="1" clip-path="url(#dzzrnSwGVyoo)"/><path fill="rgb(104,0,112)" stroke="none" paint-order="stroke" d="M 123.5898208618164 77.81818389892578 L 123.6204928625375 77.81818389892578 L 123.6204928625375 130.45454788208008 L 123.5898208618164 130.45454788208008 L 123.5898208618164 77.81818389892578" fill-opacity="1" clip-path="url(#dzzrnSwGVyoo)"/><path fill="rgb(100,0,103)" stroke="none" paint-order="stroke" d="M 123.62049102783203 77.81818389892578 L 123.72912102937698 77.81818389892578 L 123.72912102937698 130.45454788208008 L 123.62049102783203 130.45454788208008 L 123.62049102783203 77.81818389892578" fill-opacity="1" clip-path="url(#dzzrnSwGVyoo)"/><path fill="rgb(97,0,97)" stroke="none" paint-order="stroke" d="M 123.72911834716797 77.81818389892578 L 124.79113638401031 77.81818389892578 L 124.79113638401031 130.45454788208008 L 123.72911834716797 130.45454788208008 L 123.72911834716797 77.81818389892578" fill-opacity="1" clip-path="url(#dzzrnSwGVyoo)"/><path fill="rgb(104,0,112)" stroke="none" paint-order="stroke" d="M 124.7911376953125 77.81818389892578 L 124.96366769075394 77.81818389892578 L 124.96366769075394 130.45454788208008 L 124.7911376953125 130.45454788208008 L 124.7911376953125 77.81818389892578" fill-opacity="1" clip-path="url(#dzzrnSwGVyoo)"/><path fill="rgb(107,0,120)" stroke="none" paint-order="stroke" d="M 124.96366882324219 77.81818389892578 L 125.1553688198328 77.81818389892578 L 125.1553688198328 130.45454788208008 L 124.96366882324219 130.45454788208008 L 124.96366882324219 77.81818389892578" fill-opacity="1" clip-path="url(#dzzrnSwGVyoo)"/><path fill="rgb(109,0,126)" stroke="none" paint-order="stroke" d="M 125.15536499023438 77.81818389892578 L 125.21798699349165 77.81818389892578 L 125.21798699349165 130.45454788208008 L 125.15536499023438 130.45454788208008 L 125.15536499023438 77.81818389892578" fill-opacity="1" clip-path="url(#dzzrnSwGVyoo)"/><path fill="rgb(111,0,135)" stroke="none" paint-order="stroke" d="M 125.21798706054688 77.81818389892578 L 125.26016106083989 77.81818389892578 L 125.26016106083989 130.45454788208008 L 125.21798706054688 130.45454788208008 L 125.21798706054688 77.81818389892578" fill-opacity="1" clip-path="url(#dzzrnSwGVyoo)"/><path fill="rgb(111,0,143)" stroke="none" paint-order="stroke" d="M 125.26016235351562 77.81818389892578 L 125.30361435189843 77.81818389892578 L 125.30361435189843 130.45454788208008 L 125.26016235351562 130.45454788208008 L 125.26016235351562 77.81818389892578" fill-opacity="1" clip-path="url(#dzzrnSwGVyoo)"/><path fill="rgb(111,0,151)" stroke="none" paint-order="stroke" d="M 125.30361938476562 77.81818389892578 L 125.34451538324356 77.81818389892578 L 125.34451538324356 130.45454788208008 L 125.30361938476562 130.45454788208008 L 125.30361938476562 77.81818389892578" fill-opacity="1" clip-path="url(#dzzrnSwGVyoo)"/><path fill="rgb(110,0,159)" stroke="none" paint-order="stroke" d="M 125.34451293945312 77.81818389892578 L 125.36751693859696 77.81818389892578 L 125.36751693859696 130.45454788208008 L 125.34451293945312 130.45454788208008 L 125.34451293945312 77.81818389892578" fill-opacity="1" clip-path="url(#dzzrnSwGVyoo)"/><path fill="rgb(108,0,167)" stroke="none" paint-order="stroke" d="M 125.36751556396484 77.81818389892578 L 125.51704156398773 77.81818389892578 L 125.51704156398773 130.45454788208008 L 125.36751556396484 130.45454788208008 L 125.36751556396484 77.81818389892578" fill-opacity="1" clip-path="url(#dzzrnSwGVyoo)"/><path fill="rgb(106,0,175)" stroke="none" paint-order="stroke" d="M 125.51704406738281 77.81818389892578 L 125.6231180652976 77.81818389892578 L 125.6231180652976 130.45454788208008 L 125.51704406738281 130.45454788208008 L 125.51704406738281 77.81818389892578" fill-opacity="1" clip-path="url(#dzzrnSwGVyoo)"/><path fill="rgb(103,0,180)" stroke="none" paint-order="stroke" d="M 125.62311553955078 77.81818389892578 L 125.66401153802872 77.81818389892578 L 125.66401153802872 130.45454788208008 L 125.62311553955078 130.45454788208008 L 125.62311553955078 77.81818389892578" fill-opacity="1" clip-path="url(#dzzrnSwGVyoo)"/><path fill="rgb(99,0,188)" stroke="none" paint-order="stroke" d="M 125.66400909423828 77.81818389892578 L 125.70746109262109 77.81818389892578 L 125.70746109262109 130.45454788208008 L 125.66400909423828 130.45454788208008 L 125.66400909423828 77.81818389892578" fill-opacity="1" clip-path="url(#dzzrnSwGVyoo)"/><path fill="rgb(94,0,196)" stroke="none" paint-order="stroke" d="M 125.70746612548828 77.81818389892578 L 125.72919212467968 77.81818389892578 L 125.72919212467968 130.45454788208008 L 125.70746612548828 130.45454788208008 L 125.70746612548828 77.81818389892578" fill-opacity="1" clip-path="url(#dzzrnSwGVyoo)"/><path fill="rgb(87,0,203)" stroke="none" paint-order="stroke" d="M 125.72918701171875 77.81818389892578 L 125.79180901497602 77.81818389892578 L 125.79180901497602 130.45454788208008 L 125.72918701171875 130.45454788208008 L 125.72918701171875 77.81818389892578" fill-opacity="1" clip-path="url(#dzzrnSwGVyoo)"/><path fill="rgb(80,0,211)" stroke="none" paint-order="stroke" d="M 125.79180908203125 77.81818389892578 L 125.81481308117509 77.81818389892578 L 125.81481308117509 130.45454788208008 L 125.79180908203125 130.45454788208008 L 125.79180908203125 77.81818389892578" fill-opacity="1" clip-path="url(#dzzrnSwGVyoo)"/><path fill="rgb(72,0,218)" stroke="none" paint-order="stroke" d="M 125.8148193359375 77.81818389892578 L 125.8365453351289 77.81818389892578 L 125.8365453351289 130.45454788208008 L 125.8148193359375 130.45454788208008 L 125.8148193359375 77.81818389892578" fill-opacity="1" clip-path="url(#dzzrnSwGVyoo)"/><path fill="rgb(62,0,226)" stroke="none" paint-order="stroke" d="M 125.83654022216797 77.81818389892578 L 125.85698822140694 77.81818389892578 L 125.85698822140694 130.45454788208008 L 125.83654022216797 130.45454788208008 L 125.83654022216797 77.81818389892578" fill-opacity="1" clip-path="url(#dzzrnSwGVyoo)"/><path fill="rgb(55,0,230)" stroke="none" paint-order="stroke" d="M 125.85698699951172 77.81818389892578 L 125.87743499875069 77.81818389892578 L 125.87743499875069 130.45454788208008 L 125.85698699951172 130.45454788208008 L 125.85698699951172 77.81818389892578" fill-opacity="1" clip-path="url(#dzzrnSwGVyoo)"/><path fill="rgb(42,0,238)" stroke="none" paint-order="stroke" d="M 125.87744140625 77.81818389892578 L 125.9208934046328 77.81818389892578 L 125.9208934046328 130.45454788208008 L 125.87744140625 130.45454788208008 L 125.87744140625 77.81818389892578" fill-opacity="1" clip-path="url(#dzzrnSwGVyoo)"/><path fill="rgb(28,0,245)" stroke="none" paint-order="stroke" d="M 125.92089080810547 77.81818389892578 L 125.98479080945253 77.81818389892578 L 125.98479080945253 130.45454788208008 L 125.92089080810547 130.45454788208008 L 125.92089080810547 77.81818389892578" fill-opacity="1" clip-path="url(#dzzrnSwGVyoo)"/><path fill="rgb(9,0,252)" stroke="none" paint-order="stroke" d="M 125.98478698730469 77.81818389892578 L 126.0282389856875 77.81818389892578 L 126.0282389856875 130.45454788208008 L 125.98478698730469 130.45454788208008 L 125.98478698730469 77.81818389892578" fill-opacity="1" clip-path="url(#dzzrnSwGVyoo)"/><path fill="rgb(0,19,255)" stroke="none" paint-order="stroke" d="M 126.02824401855469 77.81818389892578 L 126.06914001703262 77.81818389892578 L 126.06914001703262 130.45454788208008 L 126.02824401855469 130.45454788208008 L 126.02824401855469 77.81818389892578" fill-opacity="1" clip-path="url(#dzzrnSwGVyoo)"/><path fill="rgb(0,58,255)" stroke="none" paint-order="stroke" d="M 126.06913757324219 77.81818389892578 L 126.15476357191801 77.81818389892578 L 126.15476357191801 130.45454788208008 L 126.06913757324219 130.45454788208008 L 126.06913757324219 77.81818389892578" fill-opacity="1" clip-path="url(#dzzrnSwGVyoo)"/><path fill="rgb(0,70,255)" stroke="none" paint-order="stroke" d="M 126.1547622680664 77.81818389892578 L 126.19693626835942 77.81818389892578 L 126.19693626835942 130.45454788208008 L 126.1547622680664 130.45454788208008 L 126.1547622680664 77.81818389892578" fill-opacity="1" clip-path="url(#dzzrnSwGVyoo)"/><path fill="rgb(0,86,255)" stroke="none" paint-order="stroke" d="M 126.19693756103516 77.81818389892578 L 126.28256355971098 77.81818389892578 L 126.28256355971098 130.45454788208008 L 126.19693756103516 130.45454788208008 L 126.19693756103516 77.81818389892578" fill-opacity="1" clip-path="url(#dzzrnSwGVyoo)"/><path fill="rgb(0,117,255)" stroke="none" paint-order="stroke" d="M 126.28256225585938 77.81818389892578 L 126.34646225720644 77.81818389892578 L 126.34646225720644 130.45454788208008 L 126.28256225585938 130.45454788208008 L 126.28256225585938 77.81818389892578" fill-opacity="1" clip-path="url(#dzzrnSwGVyoo)"/><path fill="rgb(0,132,255)" stroke="none" paint-order="stroke" d="M 126.34646606445312 77.81818389892578 L 126.49471406638622 77.81818389892578 L 126.49471406638622 130.45454788208008 L 126.34646606445312 130.45454788208008 L 126.34646606445312 77.81818389892578" fill-opacity="1" clip-path="url(#dzzrnSwGVyoo)"/><path fill="rgb(0,169,255)" stroke="none" paint-order="stroke" d="M 126.49471282958984 77.81818389892578 L 128.0717648267746 77.81818389892578 L 128.0717648267746 130.45454788208008 L 126.49471282958984 130.45454788208008 L 126.49471282958984 77.81818389892578" fill-opacity="1" clip-path="url(#dzzrnSwGVyoo)"/><path fill="rgb(251,0,7)" stroke="none" paint-order="stroke" d="M 58.5 130.4545440673828 L 128.07176208496094 130.4545440673828 L 128.07176208496094 183.0909080505371 L 58.5 183.0909080505371 L 58.5 130.4545440673828" fill-opacity="1" clip-path="url(#xgtGVGSQehNM)"/><path fill="rgb(105,29,48)" stroke="none" paint-order="stroke" d="M 99.92125701904297 183.09091186523438 L 99.98515702039003 183.09091186523438 L 99.98515702039003 498.9090881347656 L 99.92125701904297 498.9090881347656 L 99.92125701904297 183.09091186523438" fill-opacity="1" clip-path="url(#RDTfDEaCylnp)"/><path fill="rgb(255,188,66)" stroke="none" paint-order="stroke" d="M 91.44556427001953 183.09091186523438 L 94.3044502735138 183.09091186523438 L 94.3044502735138 498.9090881347656 L 91.44556427001953 498.9090881347656 L 91.44556427001953 183.09091186523438" fill-opacity="1" clip-path="url(#HzTqMZehpgeb)"/><path fill="rgb(216,17,89)" stroke="none" paint-order="stroke" d="M 119.19733428955078 183.09091186523438 L 119.26123429089785 183.09091186523438 L 119.26123429089785 498.9090881347656 L 119.19733428955078 498.9090881347656 L 119.19733428955078 183.09091186523438" fill-opacity="1" clip-path="url(#bMfurJKGzfbo)"/><path fill="rgb(28,49,68)" stroke="none" paint-order="stroke" d="M 87.35596466064453 183.09091186523438 L 90.76694655418396 183.09091186523438 L 90.76694655418396 498.9090881347656 L 87.35596466064453 498.9090881347656 L 87.35596466064453 183.09091186523438" fill-opacity="1" clip-path="url(#vlcLNaViqLii)"/><path fill="rgb(28,49,68)" stroke="none" paint-order="stroke" d="M 95.44314575195312 183.09091186523438 L 98.44516777992249 183.09091186523438 L 98.44516777992249 498.9090881347656 L 95.44314575195312 498.9090881347656 L 95.44314575195312 183.09091186523438" fill-opacity="1" clip-path="url(#vlcLNaViqLii)"/><path fill="rgb(28,49,68)" stroke="none" paint-order="stroke" d="M 102.07852172851562 183.09091186523438 L 113.79139137268066 183.09091186523438 L 113.79139137268066 498.9090881347656 L 102.07852172851562 498.9090881347656 L 102.07852172851562 183.09091186523438" fill-opacity="1" clip-path="url(#vlcLNaViqLii)"/><path fill="rgb(239,185,203)" stroke="none" paint-order="stroke" d="M 65.11875915527344 183.09091186523438 L 84.95970916748047 183.09091186523438 L 84.95970916748047 498.9090881347656 L 65.11875915527344 498.9090881347656 L 65.11875915527344 183.09091186523438" fill-opacity="1" clip-path="url(#OOAQgATQwDrn)"/><path fill="rgb(105,29,48)" stroke="none" paint-order="stroke" d="M 120.53284454345703 183.09091186523438 L 120.5967445448041 183.09091186523438 L 120.5967445448041 498.9090881347656 L 120.53284454345703 498.9090881347656 L 120.53284454345703 183.09091186523438" fill-opacity="1" clip-path="url(#axEbESsQTniI)"/><path fill="rgb(143,45,86)" stroke="none" paint-order="stroke" d="M 58.5 551.5454711914062 L 99.92125701904297 551.5454711914062 L 99.92125701904297 604.1818351745605 L 58.5 604.1818351745605 L 58.5 551.5454711914062" fill-opacity="1" clip-path="url(#hTOTSVwpQyQs)"/><path fill="rgb(63,136,197)" stroke="none" paint-order="stroke" d="M 99.92125701904297 551.5454711914062 L 128.07176208496094 551.5454711914062 L 128.07176208496094 604.1818351745605 L 99.92125701904297 604.1818351745605 L 99.92125701904297 551.5454711914062" fill-opacity="1" clip-path="url(#hTOTSVwpQyQs)"/><path fill="none" stroke="rgb(0,0,0)" paint-order="fill" d="M 58.5 77.81818389892578 L 128.07176208496094 77.81818389892578 L 128.07176208496094 604.1818313598633 L 58.5 604.1818313598633 L 58.5 77.81818389892578" stroke-opacity="1" stroke-linejoin="bevel" stroke-miterlimit="10" stroke-dasharray="" clip-path="url(#ivSaKAPIrgxC)"/><path fill="none" stroke="rgb(0,0,0)" paint-order="fill" d="M 58.5 630.5 L 1336.5 630.5" stroke-opacity="1" stroke-linejoin="bevel" stroke-miterlimit="10" stroke-dasharray=""/><path fill="none" stroke="rgb(0,0,0)" paint-order="fill" d="M 58.5 636.5 L 58.5 628.5 M 314.5 636.5 L 314.5 628.5 M 569.5 636.5 L 569.5 628.5 M 825.5 636.5 L 825.5 628.5 M 1080.5 636.5 L 1080.5 628.5 M 1336.5 636.5 L 1336.5 628.5" stroke-opacity="1" stroke-linejoin="bevel" stroke-miterlimit="10" stroke-dasharray=""/><path fill="none" stroke="rgb(0,0,0)" paint-order="fill" d="M 58.5 634.5 L 58.5 630.5 M 109.5 634.5 L 109.5 630.5 M 160.5 634.5 L 160.5 630.5 M 211.5 634.5 L 211.5 630.5 M 262.5 634.5 L 262.5 630.5 M 314.5 634.5 L 314.5 630.5 M 365.5 634.5 L 365.5 630.5 M 416.5 634.5 L 416.5 630.5 M 467.5 634.5 L 467.5 630.5 M 518.5 634.5 L 518.5 630.5 M 569.5 634.5 L 569.5 630.5 M 620.5 634.5 L 620.5 630.5 M 671.5 634.5 L 671.5 630.5 M 723.5 634.5 L 723.5 630.5 M 774.5 634.5 L 774.5 630.5 M 825.5 634.5 L 825.5 630.5 M 876.5 634.5 L 876.5 630.5 M 927.5 634.5 L 927.5 630.5 M 978.5 634.5 L 978.5 630.5 M 1029.5 634.5 L 1029.5 630.5 M 1080.5 634.5 L 1080.5 630.5 M 1132.5 634.5 L 1132.5 630.5 M 1183.5 634.5 L 1183.5 630.5 M 1234.5 634.5 L 1234.5 630.5 M 1285.5 634.5 L 1285.5 630.5 M 1336.5 634.5 L 1336.5 630.5" stroke-opacity="1" stroke-linejoin="bevel" stroke-miterlimit="10" stroke-dasharray=""/><text fill="rgb(68,68,68)" stroke="none" font-family="helvetica" font-size="11px" font-style="normal" font-weight="normal" text-decoration="normal" x="54.94166660308838" y="648.89013671875" text-anchor="start" dominant-baseline="alphabetic" transform="matrix(1, 0, 0, 1, 0.5, 0.5)" fill-opacity="1">0</text><text fill="rgb(68,68,68)" stroke="none" font-family="helvetica" font-size="11px" font-style="normal" font-weight="normal" text-decoration="normal" x="304.42500591278076" y="648.89013671875" text-anchor="start" dominant-baseline="alphabetic" transform="matrix(1, 0, 0, 1, 0.5, 0.5)" fill-opacity="1">200</text><text fill="rgb(68,68,68)" stroke="none" font-family="helvetica" font-size="11px" font-style="normal" font-weight="normal" text-decoration="normal" x="560.0250120162964" y="648.89013671875" text-anchor="start" dominant-baseline="alphabetic" transform="matrix(1, 0, 0, 1, 0.5, 0.5)" fill-opacity="1">400</text><text fill="rgb(68,68,68)" stroke="none" font-family="helvetica" font-size="11px" font-style="normal" font-weight="normal" text-decoration="normal" x="815.6249876022339" y="648.89013671875" text-anchor="start" dominant-baseline="alphabetic" transform="matrix(1, 0, 0, 1, 0.5, 0.5)" fill-opacity="1">600</text><text fill="rgb(68,68,68)" stroke="none" font-family="helvetica" font-size="11px" font-style="normal" font-weight="normal" text-decoration="normal" x="1071.2250242233276" y="648.89013671875" text-anchor="start" dominant-baseline="alphabetic" transform="matrix(1, 0, 0, 1, 0.5, 0.5)" fill-opacity="1">800</text><text fill="rgb(68,68,68)" stroke="none" font-family="helvetica" font-size="11px" font-style="normal" font-weight="normal" text-decoration="normal" x="1323.7666664123535" y="648.89013671875" text-anchor="start" dominant-baseline="alphabetic" transform="matrix(1, 0, 0, 1, 0.5, 0.5)" fill-opacity="1">1000</text><text fill="rgb(68,68,68)" stroke="none" font-family="helvetica" font-size="15pt" font-style="italic" font-weight="normal" text-decoration="normal" x="666.4416675567627" y="676.06982421875" text-anchor="start" dominant-baseline="alphabetic" transform="matrix(1, 0, 0, 1, 0.5, 0.5)" fill-opacity="1">time(s)</text><path fill="none" stroke="rgb(0,0,0)" paint-order="fill" d="M 58.5 630.5 L 58.5 51.5" stroke-opacity="1" stroke-linejoin="bevel" stroke-miterlimit="10" stroke-dasharray=""/><path fill="none" stroke="rgb(0,0,0)" paint-order="fill" d="M 52.5 551.5 L 60.5 551.5 M 52.5 446.5 L 60.5 446.5 M 52.5 341.5 L 60.5 341.5 M 52.5 235.5 L 60.5 235.5 M 52.5 130.5 L 60.5 130.5" stroke-opacity="1" stroke-linejoin="bevel" stroke-miterlimit="10" stroke-dasharray=""/><path fill="none" stroke="rgb(0,0,0)" paint-order="fill" d="M 54.5 572.5 L 58.5 572.5 M 54.5 593.5 L 58.5 593.5 M 54.5 614.5 L 58.5 614.5 M 54.5 551.5 L 58.5 551.5 M 54.5 530.5 L 58.5 530.5 M 54.5 509.5 L 58.5 509.5 M 54.5 488.5 L 58.5 488.5 M 54.5 467.5 L 58.5 467.5 M 54.5 446.5 L 58.5 446.5 M 54.5 425.5 L 58.5 425.5 M 54.5 404.5 L 58.5 404.5 M 54.5 383.5 L 58.5 383.5 M 54.5 362.5 L 58.5 362.5 M 54.5 341.5 L 58.5 341.5 M 54.5 319.5 L 58.5 319.5 M 54.5 298.5 L 58.5 298.5 M 54.5 277.5 L 58.5 277.5 M 54.5 256.5 L 58.5 256.5 M 54.5 235.5 L 58.5 235.5 M 54.5 214.5 L 58.5 214.5 M 54.5 193.5 L 58.5 193.5 M 54.5 172.5 L 58.5 172.5 M 54.5 151.5 L 58.5 151.5 M 54.5 130.5 L 58.5 130.5 M 54.5 109.5 L 58.5 109.5 M 54.5 88.5 L 58.5 88.5 M 54.5 67.5 L 58.5 67.5" stroke-opacity="1" stroke-linejoin="bevel" stroke-miterlimit="10" stroke-dasharray=""/><text fill="rgb(68,68,68)" stroke="none" font-family="helvetica" font-size="11px" font-style="normal" font-weight="normal" text-decoration="normal" x="34.46666622161865" y="554.9905395507812" text-anchor="start" dominant-baseline="alphabetic" transform="matrix(1, 0, 0, 1, 0.5, 0.5)" fill-opacity="1">−2</text><text fill="rgb(68,68,68)" stroke="none" font-family="helvetica" font-size="11px" font-style="normal" font-weight="normal" text-decoration="normal" x="34.46666622161865" y="449.7178039550781" text-anchor="start" dominant-baseline="alphabetic" transform="matrix(1, 0, 0, 1, 0.5, 0.5)" fill-opacity="1">−1</text><text fill="rgb(68,68,68)" stroke="none" font-family="helvetica" font-size="11px" font-style="normal" font-weight="normal" text-decoration="normal" x="40.88333320617676" y="344.445068359375" text-anchor="start" dominant-baseline="alphabetic" transform="matrix(1, 0, 0, 1, 0.5, 0.5)" fill-opacity="1">0</text><text fill="rgb(68,68,68)" stroke="none" font-family="helvetica" font-size="11px" font-style="normal" font-weight="normal" text-decoration="normal" x="40.88333320617676" y="239.17234802246094" text-anchor="start" dominant-baseline="alphabetic" transform="matrix(1, 0, 0, 1, 0.5, 0.5)" fill-opacity="1">1</text><text fill="rgb(68,68,68)" stroke="none" font-family="helvetica" font-size="11px" font-style="normal" font-weight="normal" text-decoration="normal" x="40.88333320617676" y="133.8996124267578" text-anchor="start" dominant-baseline="alphabetic" transform="matrix(1, 0, 0, 1, 0.5, 0.5)" fill-opacity="1">2</text><text fill="rgb(68,68,68)" stroke="none" font-family="helvetica" font-size="15pt" font-style="italic" font-weight="normal" text-decoration="normal" x="-11.316666603088379" y="336.076171875" text-anchor="start" dominant-baseline="alphabetic" transform="matrix(6.123233995736766e-17, -1, 1, 6.123233995736766e-17, -313.53333377838135, 367.46666622161865)" fill-opacity="1">students</text><path fill="rgb(255,255,255)" stroke="rgb(229,229,229)" paint-order="fill" d="M 1128.2333374023438 61.5 L 1326.5 61.5 L 1326.5 400.5 L 1128.2333374023438 400.5 L 1128.2333374023438 61.5" fill-opacity="0.9490196078431372" clip-path="url(#ELoOCQBOzOdo)" stroke-opacity="0.5019607843137255" stroke-linejoin="bevel" stroke-miterlimit="10" stroke-dasharray=""/><text fill="rgb(68,68,68)" stroke="none" font-family="helvetica" font-size="13px" font-style="normal" font-weight="normal" text-decoration="normal" x="1162.7333374023438" y="81" text-anchor="start" dominant-baseline="central" clip-path="url(#ELoOCQBOzOdo)" transform="matrix(1, 0, 0, 1, 0.5, 0.5)" fill-opacity="1">wavelength</text><path fill="rgb(0,255,40)" stroke="none" paint-order="stroke" d="M 1140.2333374023438 73.5 L 1156.2333374023438 73.5 L 1156.2333374023438 89.5 L 1140.2333374023438 89.5 L 1140.2333374023438 73.5" fill-opacity="1" clip-path="url(#ELoOCQBOzOdo)"/><path fill="rgb(216,17,89)" stroke="none" paint-order="stroke" d="M 1140.2333374023438 73.5 L 1156.2333374023438 73.5 L 1156.2333374023438 89.5 L 1140.2333374023438 89.5 L 1140.2333374023438 73.5" fill-opacity="1" clip-path="url(#ELoOCQBOzOdo)"/><text fill="rgb(68,68,68)" stroke="none" font-family="helvetica" font-size="13px" font-style="normal" font-weight="normal" text-decoration="normal" x="1162.7333374023438" y="104" text-anchor="start" dominant-baseline="central" clip-path="url(#ELoOCQBOzOdo)" transform="matrix(1, 0, 0, 1, 0.5, 0.5)" fill-opacity="1">solution</text><path fill="rgb(251,0,7)" stroke="none" paint-order="stroke" d="M 1140.2333374023438 96.5 L 1156.2333374023438 96.5 L 1156.2333374023438 112.5 L 1140.2333374023438 112.5 L 1140.2333374023438 96.5" fill-opacity="1" clip-path="url(#ELoOCQBOzOdo)"/><text fill="rgb(68,68,68)" stroke="none" font-family="helvetica" font-size="13px" font-style="normal" font-weight="normal" text-decoration="normal" x="1162.7333374023438" y="127" text-anchor="start" dominant-baseline="central" clip-path="url(#ELoOCQBOzOdo)" transform="matrix(1, 0, 0, 1, 0.5, 0.5)" fill-opacity="1">laser</text><path fill="rgb(105,29,48)" stroke="none" paint-order="stroke" d="M 1140.2333374023438 119.5 L 1156.2333374023438 119.5 L 1156.2333374023438 135.5 L 1140.2333374023438 135.5 L 1140.2333374023438 119.5" fill-opacity="1" clip-path="url(#ELoOCQBOzOdo)"/><text fill="rgb(68,68,68)" stroke="none" font-family="helvetica" font-size="13px" font-style="normal" font-weight="normal" text-decoration="normal" x="1162.7333374023438" y="150" text-anchor="start" dominant-baseline="central" clip-path="url(#ELoOCQBOzOdo)" transform="matrix(1, 0, 0, 1, 0.5, 0.5)" fill-opacity="1">ruler</text><path fill="rgb(255,188,66)" stroke="none" paint-order="stroke" d="M 1140.2333374023438 142.5 L 1156.2333374023438 142.5 L 1156.2333374023438 158.5 L 1140.2333374023438 158.5 L 1140.2333374023438 142.5" fill-opacity="1" clip-path="url(#ELoOCQBOzOdo)"/><text fill="rgb(68,68,68)" stroke="none" font-family="helvetica" font-size="13px" font-style="normal" font-weight="normal" text-decoration="normal" x="1162.7333374023438" y="173" text-anchor="start" dominant-baseline="central" clip-path="url(#ELoOCQBOzOdo)" transform="matrix(1, 0, 0, 1, 0.5, 0.5)" fill-opacity="1">restarts</text><text fill="rgb(68,68,68)" stroke="none" font-family="helvetica" font-size="13px" font-style="normal" font-weight="normal" text-decoration="normal" x="1162.7333374023438" y="196" text-anchor="start" dominant-baseline="central" clip-path="url(#ELoOCQBOzOdo)" transform="matrix(1, 0, 0, 1, 0.5, 0.5)" fill-opacity="1">transmittance_absorbance</text><text fill="rgb(68,68,68)" stroke="none" font-family="helvetica" font-size="13px" font-style="normal" font-weight="normal" text-decoration="normal" x="1162.7333374023438" y="219" text-anchor="start" dominant-baseline="central" clip-path="url(#ELoOCQBOzOdo)" transform="matrix(1, 0, 0, 1, 0.5, 0.5)" fill-opacity="1">magnifier</text><text fill="rgb(68,68,68)" stroke="none" font-family="helvetica" font-size="13px" font-style="normal" font-weight="normal" text-decoration="normal" x="1162.7333374023438" y="242" text-anchor="start" dominant-baseline="central" clip-path="url(#ELoOCQBOzOdo)" transform="matrix(1, 0, 0, 1, 0.5, 0.5)" fill-opacity="1">concentration</text><text fill="rgb(68,68,68)" stroke="none" font-family="helvetica" font-size="13px" font-style="normal" font-weight="normal" text-decoration="normal" x="1162.7333374023438" y="265" text-anchor="start" dominant-baseline="central" clip-path="url(#ELoOCQBOzOdo)" transform="matrix(1, 0, 0, 1, 0.5, 0.5)" fill-opacity="1">flask</text><path fill="rgb(28,49,68)" stroke="none" paint-order="stroke" d="M 1140.2333374023438 257.5 L 1156.2333374023438 257.5 L 1156.2333374023438 273.5 L 1140.2333374023438 273.5 L 1140.2333374023438 257.5" fill-opacity="1" clip-path="url(#ELoOCQBOzOdo)"/><text fill="rgb(68,68,68)" stroke="none" font-family="helvetica" font-size="13px" font-style="normal" font-weight="normal" text-decoration="normal" x="1162.7333374023438" y="288" text-anchor="start" dominant-baseline="central" clip-path="url(#ELoOCQBOzOdo)" transform="matrix(1, 0, 0, 1, 0.5, 0.5)" fill-opacity="1">pdf</text><path fill="rgb(239,185,203)" stroke="none" paint-order="stroke" d="M 1140.2333374023438 280.5 L 1156.2333374023438 280.5 L 1156.2333374023438 296.5 L 1140.2333374023438 296.5 L 1140.2333374023438 280.5" fill-opacity="1" clip-path="url(#ELoOCQBOzOdo)"/><text fill="rgb(68,68,68)" stroke="none" font-family="helvetica" font-size="13px" font-style="normal" font-weight="normal" text-decoration="normal" x="1162.7333374023438" y="311" text-anchor="start" dominant-baseline="central" clip-path="url(#ELoOCQBOzOdo)" transform="matrix(1, 0, 0, 1, 0.5, 0.5)" fill-opacity="1">concentrationlab</text><text fill="rgb(68,68,68)" stroke="none" font-family="helvetica" font-size="13px" font-style="normal" font-weight="normal" text-decoration="normal" x="1162.7333374023438" y="334" text-anchor="start" dominant-baseline="central" clip-path="url(#ELoOCQBOzOdo)" transform="matrix(1, 0, 0, 1, 0.5, 0.5)" fill-opacity="1">wavelength_slider</text><path fill="rgb(105,29,48)" stroke="none" paint-order="stroke" d="M 1140.2333374023438 326.5 L 1156.2333374023438 326.5 L 1156.2333374023438 342.5 L 1140.2333374023438 342.5 L 1140.2333374023438 326.5" fill-opacity="1" clip-path="url(#ELoOCQBOzOdo)"/><text fill="rgb(68,68,68)" stroke="none" font-family="helvetica" font-size="13px" font-style="normal" font-weight="normal" text-decoration="normal" x="1162.7333374023438" y="357" text-anchor="start" dominant-baseline="central" clip-path="url(#ELoOCQBOzOdo)" transform="matrix(1, 0, 0, 1, 0.5, 0.5)" fill-opacity="1">ruler measuring</text><text fill="rgb(68,68,68)" stroke="none" font-family="helvetica" font-size="13px" font-style="normal" font-weight="normal" text-decoration="normal" x="1162.7333374023438" y="380" text-anchor="start" dominant-baseline="central" clip-path="url(#ELoOCQBOzOdo)" transform="matrix(1, 0, 0, 1, 0.5, 0.5)" fill-opacity="1">dependent variable</text><path fill="rgb(143,45,86)" stroke="none" paint-order="stroke" d="M 1140.2333374023438 372.5 L 1156.2333374023438 372.5 L 1156.2333374023438 388.5 L 1140.2333374023438 388.5 L 1140.2333374023438 372.5" fill-opacity="1" clip-path="url(#ELoOCQBOzOdo)"/><text fill="rgb(68,68,68)" stroke="none" font-family="helvetica" font-size="25pt" font-style="normal" font-weight="bold" text-decoration="normal" x="58" y="38.740885416666664" text-anchor="start" dominant-baseline="alphabetic" transform="matrix(1, 0, 0, 1, 0.5, 0.5)" fill-opacity="1">Timeline for student u6c3cp6c with permutation 2130 for task 1</text></svg>