<svg version="1.1" xmlns="http://www.w3.org/2000/svg" width="1366" height="683"><defs><clipPath id="BmZgfiRhnFxU"><path fill="none" stroke="none" d="M 58.5 51.5 L 1336.5 51.5 L 1336.5 630.5 L 58.5 630.5 L 58.5 51.5"/></clipPath><clipPath id="ildnEhvwoeoa"><path fill="none" stroke="none" d="M 58.5 51.5 L 1336.5 51.5 L 1336.5 630.5 L 58.5 630.5 L 58.5 51.5"/></clipPath><clipPath id="TakHptKIOHOC"><path fill="none" stroke="none" d="M 58.5 51.5 L 1336.5 51.5 L 1336.5 630.5 L 58.5 630.5 L 58.5 51.5"/></clipPath><clipPath id="RcHgSfXBvgsB"><path fill="none" stroke="none" d="M 58.5 51.5 L 1336.5 51.5 L 1336.5 630.5 L 58.5 630.5 L 58.5 51.5"/></clipPath><clipPath id="rxnvpEQAgTqV"><path fill="none" stroke="none" d="M 58.5 51.5 L 1336.5 51.5 L 1336.5 630.5 L 58.5 630.5 L 58.5 51.5"/></clipPath><clipPath id="IGyafmIWdWpF"><path fill="none" stroke="none" d="M 58.5 51.5 L 1336.5 51.5 L 1336.5 630.5 L 58.5 630.5 L 58.5 51.5"/></clipPath><clipPath id="pIeETiKLgNlI"><path fill="none" stroke="none" d="M 58.5 51.5 L 1336.5 51.5 L 1336.5 630.5 L 58.5 630.5 L 58.5 51.5"/></clipPath><clipPath id="cyxBPtBnFBUZ"><path fill="none" stroke="none" d="M 58.5 51.5 L 1336.5 51.5 L 1336.5 630.5 L 58.5 630.5 L 58.5 51.5"/></clipPath><clipPath id="mpbmBXQVKxXz"><path fill="none" stroke="none" d="M 58.5 51.5 L 1336.5 51.5 L 1336.5 630.5 L 58.5 630.5 L 58.5 51.5"/></clipPath><clipPath id="TMTFrbJGKssP"><path fill="none" stroke="none" d="M 58.5 51.5 L 1336.5 51.5 L 1336.5 630.5 L 58.5 630.5 L 58.5 51.5"/></clipPath><clipPath id="ymoGLnZxvFeP"><path fill="none" stroke="none" d="M 58.5 51.5 L 1336.5 51.5 L 1336.5 630.5 L 58.5 630.5 L 58.5 51.5"/></clipPath><clipPath id="olktrETnutZz"><path fill="none" stroke="none" d="M 58.5 51.5 L 1336.5 51.5 L 1336.5 630.5 L 58.5 630.5 L 58.5 51.5"/></clipPath><clipPath id="GHwmOWiOfgDe"><path fill="none" stroke="none" d="M 58.5 51.5 L 1336.5 51.5 L 1336.5 630.5 L 58.5 630.5 L 58.5 51.5"/></clipPath><clipPath id="flyIdZktDEwv"><path fill="none" stroke="none" d="M 58.5 51.5 L 1336.5 51.5 L 1336.5 630.5 L 58.5 630.5 L 58.5 51.5"/></clipPath><clipPath id="zsHyeZFhandW"><path fill="none" stroke="none" d="M 58.5 51.5 L 1336.5 51.5 L 1336.5 630.5 L 58.5 630.5 L 58.5 51.5"/></clipPath><clipPath id="nnwksvhpamTx"><path fill="none" stroke="none" d="M 58.5 51.5 L 1336.5 51.5 L 1336.5 630.5 L 58.5 630.5 L 58.5 51.5"/></clipPath><clipPath id="iBtHsOxQJNBL"><path fill="none" stroke="none" d="M 58.5 51.5 L 1336.5 51.5 L 1336.5 630.5 L 58.5 630.5 L 58.5 51.5"/></clipPath><clipPath id="ThxZUAyMqDeW"><path fill="none" stroke="none" d="M 58.5 51.5 L 1336.5 51.5 L 1336.5 630.5 L 58.5 630.5 L 58.5 51.5"/></clipPath><clipPath id="WtiRMqqlaiDZ"><path fill="none" stroke="none" d="M 58.5 51.5 L 1336.5 51.5 L 1336.5 630.5 L 58.5 630.5 L 58.5 51.5"/></clipPath><clipPath id="ptBVoZokpvlc"><path fill="none" stroke="none" d="M 58.5 51.5 L 1336.5 51.5 L 1336.5 630.5 L 58.5 630.5 L 58.5 51.5"/></clipPath><clipPath id="GUdphyuBWldz"><path fill="none" stroke="none" d="M 58.5 51.5 L 1336.5 51.5 L 1336.5 630.5 L 58.5 630.5 L 58.5 51.5"/></clipPath></defs><path fill="rgb(255,255,255)" stroke="none" paint-order="stroke" d="M 0.5 0.5 L 1366.5 0.5 L 1366.5 683.5 L 0.5 683.5 L 0.5 0.5" fill-opacity="1"/><rect fill="#FFFFFF" stroke="none" x="58" y="51" width="1278" height="579" transform="matrix(1, 0, 0, 1, 0.5, 0.5)"/><path fill="rgb(255,255,255)" stroke="none" paint-order="stroke" d="M 58.5 51.5 L 1336.5 51.5 L 1336.5 630.5 L 58.5 630.5 L 58.5 51.5" fill-opacity="1"/><path fill="none" stroke="rgb(229,229,229)" paint-order="fill" d="M 58.5 51.5 L 1336.5 51.5 L 1336.5 630.5 L 58.5 630.5 L 58.5 51.5" stroke-opacity="1" stroke-linejoin="bevel" stroke-miterlimit="10" stroke-dasharray=""/><path fill="none" stroke="rgb(229,229,229)" paint-order="fill" d="M 314.5 630.5 L 314.5 51.5 M 569.5 630.5 L 569.5 51.5 M 825.5 630.5 L 825.5 51.5 M 1080.5 630.5 L 1080.5 51.5" stroke-opacity="1" stroke-linejoin="bevel" stroke-miterlimit="10" stroke-dasharray="" clip-path="url(#BmZgfiRhnFxU)"/><path fill="none" stroke="rgb(229,229,229)" paint-order="fill" d="M 58.5 551.5 L 1336.5 551.5 M 58.5 446.5 L 1336.5 446.5 M 58.5 341.5 L 1336.5 341.5 M 58.5 235.5 L 1336.5 235.5 M 58.5 130.5 L 1336.5 130.5" stroke-opacity="1" stroke-linejoin="bevel" stroke-miterlimit="10" stroke-dasharray="" clip-path="url(#ildnEhvwoeoa)"/><path fill="rgb(0,255,40)" stroke="none" paint-order="stroke" d="M 58.5 77.81818389892578 L 167.9785919189453 77.81818389892578 L 167.9785919189453 130.45454788208008 L 58.5 130.45454788208008 L 58.5 77.81818389892578" fill-opacity="1" clip-path="url(#TakHptKIOHOC)"/><path fill="rgb(14,255,0)" stroke="none" paint-order="stroke" d="M 167.9785919189453 77.81818389892578 L 168.00031791813672 77.81818389892578 L 168.00031791813672 130.45454788208008 L 167.9785919189453 130.45454788208008 L 167.9785919189453 77.81818389892578" fill-opacity="1" clip-path="url(#TakHptKIOHOC)"/><path fill="rgb(40,255,0)" stroke="none" paint-order="stroke" d="M 168.0003204345703 77.81818389892578 L 168.02204643376172 77.81818389892578 L 168.02204643376172 130.45454788208008 L 168.0003204345703 130.45454788208008 L 168.0003204345703 77.81818389892578" fill-opacity="1" clip-path="url(#TakHptKIOHOC)"/><path fill="rgb(111,255,0)" stroke="none" paint-order="stroke" d="M 168.0220489501953 77.81818389892578 L 168.04249694943428 77.81818389892578 L 168.04249694943428 130.45454788208008 L 168.0220489501953 130.45454788208008 L 168.0220489501953 77.81818389892578" fill-opacity="1" clip-path="url(#TakHptKIOHOC)"/><path fill="rgb(159,255,0)" stroke="none" paint-order="stroke" d="M 168.04249572753906 77.81818389892578 L 168.06422172673047 77.81818389892578 L 168.06422172673047 130.45454788208008 L 168.04249572753906 130.45454788208008 L 168.04249572753906 77.81818389892578" fill-opacity="1" clip-path="url(#TakHptKIOHOC)"/><path fill="rgb(188,255,0)" stroke="none" paint-order="stroke" d="M 168.06422424316406 77.81818389892578 L 168.08595024235547 77.81818389892578 L 168.08595024235547 130.45454788208008 L 168.06422424316406 130.45454788208008 L 168.06422424316406 77.81818389892578" fill-opacity="1" clip-path="url(#TakHptKIOHOC)"/><path fill="rgb(204,255,0)" stroke="none" paint-order="stroke" d="M 168.0859375 77.81818389892578 L 168.1076634991914 77.81818389892578 L 168.1076634991914 130.45454788208008 L 168.0859375 130.45454788208008 L 168.0859375 77.81818389892578" fill-opacity="1" clip-path="url(#TakHptKIOHOC)"/><path fill="rgb(231,255,0)" stroke="none" paint-order="stroke" d="M 168.107666015625 77.81818389892578 L 168.15750801563263 77.81818389892578 L 168.15750801563263 130.45454788208008 L 168.107666015625 130.45454788208008 L 168.107666015625 77.81818389892578" fill-opacity="1" clip-path="url(#TakHptKIOHOC)"/><path fill="rgb(243,255,0)" stroke="none" paint-order="stroke" d="M 168.1575164794922 77.81818389892578 L 168.1920224800706 77.81818389892578 L 168.1920224800706 130.45454788208008 L 168.1575164794922 130.45454788208008 L 168.1575164794922 77.81818389892578" fill-opacity="1" clip-path="url(#TakHptKIOHOC)"/><path fill="rgb(255,251,0)" stroke="none" paint-order="stroke" d="M 168.1920166015625 77.81818389892578 L 168.2137426007539 77.81818389892578 L 168.2137426007539 130.45454788208008 L 168.1920166015625 130.45454788208008 L 168.1920166015625 77.81818389892578" fill-opacity="1" clip-path="url(#TakHptKIOHOC)"/><path fill="rgb(255,223,0)" stroke="none" paint-order="stroke" d="M 168.2137451171875 77.81818389892578 L 168.25591911748052 77.81818389892578 L 168.25591911748052 130.45454788208008 L 168.2137451171875 130.45454788208008 L 168.2137451171875 77.81818389892578" fill-opacity="1" clip-path="url(#TakHptKIOHOC)"/><path fill="rgb(255,193,0)" stroke="none" paint-order="stroke" d="M 168.25592041015625 77.81818389892578 L 168.29809441044927 77.81818389892578 L 168.29809441044927 130.45454788208008 L 168.25592041015625 130.45454788208008 L 168.25592041015625 77.81818389892578" fill-opacity="1" clip-path="url(#TakHptKIOHOC)"/><path fill="rgb(255,176,0)" stroke="none" paint-order="stroke" d="M 168.298095703125 77.81818389892578 L 168.3198217023164 77.81818389892578 L 168.3198217023164 130.45454788208008 L 168.298095703125 130.45454788208008 L 168.298095703125 77.81818389892578" fill-opacity="1" clip-path="url(#TakHptKIOHOC)"/><path fill="rgb(255,158,0)" stroke="none" paint-order="stroke" d="M 168.31982421875 77.81818389892578 L 168.3415502179414 77.81818389892578 L 168.3415502179414 130.45454788208008 L 168.31982421875 130.45454788208008 L 168.31982421875 77.81818389892578" fill-opacity="1" clip-path="url(#TakHptKIOHOC)"/><path fill="rgb(255,144,0)" stroke="none" paint-order="stroke" d="M 168.34153747558594 77.81818389892578 L 168.36326347477734 77.81818389892578 L 168.36326347477734 130.45454788208008 L 168.34153747558594 130.45454788208008 L 168.34153747558594 77.81818389892578" fill-opacity="1" clip-path="url(#TakHptKIOHOC)"/><path fill="rgb(255,126,0)" stroke="none" paint-order="stroke" d="M 168.36326599121094 77.81818389892578 L 170.5128619670868 77.81818389892578 L 170.5128619670868 130.45454788208008 L 168.36326599121094 130.45454788208008 L 168.36326599121094 77.81818389892578" fill-opacity="1" clip-path="url(#TakHptKIOHOC)"/><path fill="rgb(255,158,0)" stroke="none" paint-order="stroke" d="M 170.5128631591797 77.81818389892578 L 170.5550371594727 77.81818389892578 L 170.5550371594727 130.45454788208008 L 170.5128631591797 130.45454788208008 L 170.5128631591797 77.81818389892578" fill-opacity="1" clip-path="url(#TakHptKIOHOC)"/><path fill="rgb(255,176,0)" stroke="none" paint-order="stroke" d="M 170.55503845214844 77.81818389892578 L 170.57804245129228 77.81818389892578 L 170.57804245129228 130.45454788208008 L 170.55503845214844 130.45454788208008 L 170.55503845214844 77.81818389892578" fill-opacity="1" clip-path="url(#TakHptKIOHOC)"/><path fill="rgb(255,193,0)" stroke="none" paint-order="stroke" d="M 170.5780487060547 77.81818389892578 L 170.6202227063477 77.81818389892578 L 170.6202227063477 130.45454788208008 L 170.5780487060547 130.45454788208008 L 170.5780487060547 77.81818389892578" fill-opacity="1" clip-path="url(#TakHptKIOHOC)"/><path fill="rgb(255,206,0)" stroke="none" paint-order="stroke" d="M 170.62022399902344 77.81818389892578 L 170.66239799931645 77.81818389892578 L 170.66239799931645 130.45454788208008 L 170.62022399902344 130.45454788208008 L 170.62022399902344 77.81818389892578" fill-opacity="1" clip-path="url(#TakHptKIOHOC)"/><path fill="rgb(255,223,0)" stroke="none" paint-order="stroke" d="M 170.6623992919922 77.81818389892578 L 170.705851290375 77.81818389892578 L 170.705851290375 130.45454788208008 L 170.6623992919922 130.45454788208008 L 170.6623992919922 77.81818389892578" fill-opacity="1" clip-path="url(#TakHptKIOHOC)"/><path fill="rgb(255,251,0)" stroke="none" paint-order="stroke" d="M 170.70584106445312 77.81818389892578 L 170.7262890636921 77.81818389892578 L 170.7262890636921 130.45454788208008 L 170.70584106445312 130.45454788208008 L 170.70584106445312 77.81818389892578" fill-opacity="1" clip-path="url(#TakHptKIOHOC)"/><path fill="rgb(243,255,0)" stroke="none" paint-order="stroke" d="M 170.72628784179688 77.81818389892578 L 170.76973984017968 77.81818389892578 L 170.76973984017968 130.45454788208008 L 170.72628784179688 130.45454788208008 L 170.72628784179688 77.81818389892578" fill-opacity="1" clip-path="url(#TakHptKIOHOC)"/><path fill="rgb(231,255,0)" stroke="none" paint-order="stroke" d="M 170.76974487304688 77.81818389892578 L 170.83236687630415 77.81818389892578 L 170.83236687630415 130.45454788208008 L 170.76974487304688 130.45454788208008 L 170.76974487304688 77.81818389892578" fill-opacity="1" clip-path="url(#TakHptKIOHOC)"/><path fill="rgb(216,255,0)" stroke="none" paint-order="stroke" d="M 170.83236694335938 77.81818389892578 L 170.85409294255078 77.81818389892578 L 170.85409294255078 130.45454788208008 L 170.83236694335938 130.45454788208008 L 170.83236694335938 77.81818389892578" fill-opacity="1" clip-path="url(#TakHptKIOHOC)"/><path fill="rgb(204,255,0)" stroke="none" paint-order="stroke" d="M 170.85409545898438 77.81818389892578 L 170.91799546033144 77.81818389892578 L 170.91799546033144 130.45454788208008 L 170.85409545898438 130.45454788208008 L 170.85409545898438 77.81818389892578" fill-opacity="1" clip-path="url(#TakHptKIOHOC)"/><path fill="rgb(172,255,0)" stroke="none" paint-order="stroke" d="M 170.91799926757812 77.81818389892578 L 171.02407326549292 77.81818389892578 L 171.02407326549292 130.45454788208008 L 170.91799926757812 130.45454788208008 L 170.91799926757812 77.81818389892578" fill-opacity="1" clip-path="url(#TakHptKIOHOC)"/><path fill="rgb(159,255,0)" stroke="none" paint-order="stroke" d="M 171.02406311035156 77.81818389892578 L 171.3857371211052 77.81818389892578 L 171.3857371211052 130.45454788208008 L 171.02406311035156 130.45454788208008 L 171.02406311035156 77.81818389892578" fill-opacity="1" clip-path="url(#TakHptKIOHOC)"/><path fill="rgb(143,255,0)" stroke="none" paint-order="stroke" d="M 171.3857421875 77.81818389892578 L 171.5787201821804 77.81818389892578 L 171.5787201821804 130.45454788208008 L 171.3857421875 130.45454788208008 L 171.3857421875 77.81818389892578" fill-opacity="1" clip-path="url(#TakHptKIOHOC)"/><path fill="rgb(129,255,0)" stroke="none" paint-order="stroke" d="M 171.57872009277344 77.81818389892578 L 171.6426200941205 77.81818389892578 L 171.6426200941205 130.45454788208008 L 171.57872009277344 130.45454788208008 L 171.57872009277344 77.81818389892578" fill-opacity="1" clip-path="url(#TakHptKIOHOC)"/><path fill="rgb(111,255,0)" stroke="none" paint-order="stroke" d="M 171.6426239013672 77.81818389892578 L 171.6847979016602 77.81818389892578 L 171.6847979016602 130.45454788208008 L 171.6426239013672 130.45454788208008 L 171.6426239013672 77.81818389892578" fill-opacity="1" clip-path="url(#TakHptKIOHOC)"/><path fill="rgb(93,255,0)" stroke="none" paint-order="stroke" d="M 171.68479919433594 77.81818389892578 L 171.7052471935749 77.81818389892578 L 171.7052471935749 130.45454788208008 L 171.68479919433594 130.45454788208008 L 171.68479919433594 77.81818389892578" fill-opacity="1" clip-path="url(#TakHptKIOHOC)"/><path fill="rgb(78,255,0)" stroke="none" paint-order="stroke" d="M 171.7052459716797 77.81818389892578 L 171.7908719703555 77.81818389892578 L 171.7908719703555 130.45454788208008 L 171.7052459716797 130.45454788208008 L 171.7052459716797 77.81818389892578" fill-opacity="1" clip-path="url(#TakHptKIOHOC)"/><path fill="rgb(58,255,0)" stroke="none" paint-order="stroke" d="M 171.79086303710938 77.81818389892578 L 171.89821504056454 77.81818389892578 L 171.89821504056454 130.45454788208008 L 171.79086303710938 130.45454788208008 L 171.79086303710938 77.81818389892578" fill-opacity="1" clip-path="url(#TakHptKIOHOC)"/><path fill="rgb(40,255,0)" stroke="none" paint-order="stroke" d="M 171.89822387695312 77.81818389892578 L 172.17427188158035 77.81818389892578 L 172.17427188158035 130.45454788208008 L 171.89822387695312 130.45454788208008 L 171.89822387695312 77.81818389892578" fill-opacity="1" clip-path="url(#TakHptKIOHOC)"/><path fill="rgb(0,255,40)" stroke="none" paint-order="stroke" d="M 172.1742706298828 77.81818389892578 L 172.8988966345787 77.81818389892578 L 172.8988966345787 130.45454788208008 L 172.1742706298828 130.45454788208008 L 172.1742706298828 77.81818389892578" fill-opacity="1" clip-path="url(#TakHptKIOHOC)"/><path fill="rgb(14,255,0)" stroke="none" paint-order="stroke" d="M 172.89889526367188 77.81818389892578 L 172.9410692639649 77.81818389892578 L 172.9410692639649 130.45454788208008 L 172.89889526367188 130.45454788208008 L 172.89889526367188 77.81818389892578" fill-opacity="1" clip-path="url(#TakHptKIOHOC)"/><path fill="rgb(40,255,0)" stroke="none" paint-order="stroke" d="M 172.94107055664062 77.81818389892578 L 173.17494454979897 77.81818389892578 L 173.17494454979897 130.45454788208008 L 172.94107055664062 130.45454788208008 L 172.94107055664062 77.81818389892578" fill-opacity="1" clip-path="url(#TakHptKIOHOC)"/><path fill="rgb(58,255,0)" stroke="none" paint-order="stroke" d="M 173.17494201660156 77.81818389892578 L 177.83964204788208 77.81818389892578 L 177.83964204788208 130.45454788208008 L 173.17494201660156 130.45454788208008 L 173.17494201660156 77.81818389892578" fill-opacity="1" clip-path="url(#TakHptKIOHOC)"/><path fill="rgb(40,255,0)" stroke="none" paint-order="stroke" d="M 177.8396453857422 77.81818389892578 L 178.67034536600113 77.81818389892578 L 178.67034536600113 130.45454788208008 L 177.8396453857422 130.45454788208008 L 177.8396453857422 77.81818389892578" fill-opacity="1" clip-path="url(#TakHptKIOHOC)"/><path fill="rgb(58,255,0)" stroke="none" paint-order="stroke" d="M 178.6703338623047 77.81818389892578 L 180.37390780448914 77.81818389892578 L 180.37390780448914 130.45454788208008 L 178.6703338623047 130.45454788208008 L 178.6703338623047 77.81818389892578" fill-opacity="1" clip-path="url(#TakHptKIOHOC)"/><path fill="rgb(53,255,0)" stroke="none" paint-order="stroke" d="M 180.37391662597656 77.81818389892578 L 264.2925109863281 77.81818389892578 L 264.2925109863281 130.45454788208008 L 180.37391662597656 130.45454788208008 L 180.37391662597656 77.81818389892578" fill-opacity="1" clip-path="url(#TakHptKIOHOC)"/><path fill="rgb(159,255,0)" stroke="none" paint-order="stroke" d="M 264.2925109863281 77.81818389892578 L 303.50538635253906 77.81818389892578 L 303.50538635253906 130.45454788208008 L 264.2925109863281 130.45454788208008 L 264.2925109863281 77.81818389892578" fill-opacity="1" clip-path="url(#TakHptKIOHOC)"/><path fill="rgb(156,255,0)" stroke="none" paint-order="stroke" d="M 303.50537109375 77.81818389892578 L 303.8874931037426 77.81818389892578 L 303.8874931037426 130.45454788208008 L 303.50537109375 130.45454788208008 L 303.50537109375 77.81818389892578" fill-opacity="1" clip-path="url(#TakHptKIOHOC)"/><path fill="rgb(153,255,0)" stroke="none" paint-order="stroke" d="M 303.88751220703125 77.81818389892578 L 304.1635602116585 77.81818389892578 L 304.1635602116585 130.45454788208008 L 303.88751220703125 130.45454788208008 L 303.88751220703125 77.81818389892578" fill-opacity="1" clip-path="url(#TakHptKIOHOC)"/><path fill="rgb(149,255,0)" stroke="none" paint-order="stroke" d="M 304.1635437011719 77.81818389892578 L 304.41275370121 77.81818389892578 L 304.41275370121 130.45454788208008 L 304.1635437011719 130.45454788208008 L 304.1635437011719 77.81818389892578" fill-opacity="1" clip-path="url(#TakHptKIOHOC)"/><path fill="rgb(146,255,0)" stroke="none" paint-order="stroke" d="M 304.4127502441406 77.81818389892578 L 304.6504582464695 77.81818389892578 L 304.6504582464695 130.45454788208008 L 304.4127502441406 130.45454788208008 L 304.4127502441406 77.81818389892578" fill-opacity="1" clip-path="url(#TakHptKIOHOC)"/><path fill="rgb(143,255,0)" stroke="none" paint-order="stroke" d="M 304.6504821777344 77.81818389892578 L 304.89841417968273 77.81818389892578 L 304.89841417968273 130.45454788208008 L 304.6504821777344 130.45454788208008 L 304.6504821777344 77.81818389892578" fill-opacity="1" clip-path="url(#TakHptKIOHOC)"/><path fill="rgb(139,255,0)" stroke="none" paint-order="stroke" d="M 304.8984069824219 77.81818389892578 L 305.14633898437023 77.81818389892578 L 305.14633898437023 130.45454788208008 L 304.8984069824219 130.45454788208008 L 304.8984069824219 77.81818389892578" fill-opacity="1" clip-path="url(#TakHptKIOHOC)"/><path fill="rgb(136,255,0)" stroke="none" paint-order="stroke" d="M 305.1463317871094 77.81818389892578 L 305.40320977568626 77.81818389892578 L 305.40320977568626 130.45454788208008 L 305.1463317871094 130.45454788208008 L 305.1463317871094 77.81818389892578" fill-opacity="1" clip-path="url(#TakHptKIOHOC)"/><path fill="rgb(132,255,0)" stroke="none" paint-order="stroke" d="M 305.4031982421875 77.81818389892578 L 305.6409062445164 77.81818389892578 L 305.6409062445164 130.45454788208008 L 305.4031982421875 130.45454788208008 L 305.4031982421875 77.81818389892578" fill-opacity="1" clip-path="url(#TakHptKIOHOC)"/><path fill="rgb(129,255,0)" stroke="none" paint-order="stroke" d="M 305.64093017578125 77.81818389892578 L 305.8990861773491 77.81818389892578 L 305.8990861773491 130.45454788208008 L 305.64093017578125 130.45454788208008 L 305.64093017578125 77.81818389892578" fill-opacity="1" clip-path="url(#TakHptKIOHOC)"/><path fill="rgb(126,255,0)" stroke="none" paint-order="stroke" d="M 305.8990783691406 77.81818389892578 L 306.1674583554268 77.81818389892578 L 306.1674583554268 130.45454788208008 L 305.8990783691406 130.45454788208008 L 305.8990783691406 77.81818389892578" fill-opacity="1" clip-path="url(#TakHptKIOHOC)"/><path fill="rgb(122,255,0)" stroke="none" paint-order="stroke" d="M 306.1674499511719 77.81818389892578 L 306.4345519542694 77.81818389892578 L 306.4345519542694 130.45454788208008 L 306.1674499511719 130.45454788208008 L 306.1674499511719 77.81818389892578" fill-opacity="1" clip-path="url(#TakHptKIOHOC)"/><path fill="rgb(119,255,0)" stroke="none" paint-order="stroke" d="M 306.4345703125 77.81818389892578 L 306.6722783148289 77.81818389892578 L 306.6722783148289 130.45454788208008 L 306.4345703125 130.45454788208008 L 306.4345703125 77.81818389892578" fill-opacity="1" clip-path="url(#TakHptKIOHOC)"/><path fill="rgb(115,255,0)" stroke="none" paint-order="stroke" d="M 306.6722717285156 77.81818389892578 L 306.93042773008347 77.81818389892578 L 306.93042773008347 130.45454788208008 L 306.6722717285156 130.45454788208008 L 306.6722717285156 77.81818389892578" fill-opacity="1" clip-path="url(#TakHptKIOHOC)"/><path fill="rgb(111,255,0)" stroke="none" paint-order="stroke" d="M 306.930419921875 77.81818389892578 L 307.19752192497253 77.81818389892578 L 307.19752192497253 130.45454788208008 L 306.930419921875 130.45454788208008 L 306.930419921875 77.81818389892578" fill-opacity="1" clip-path="url(#TakHptKIOHOC)"/><path fill="rgb(108,255,0)" stroke="none" paint-order="stroke" d="M 307.197509765625 77.81818389892578 L 307.4543877542019 77.81818389892578 L 307.4543877542019 130.45454788208008 L 307.197509765625 130.45454788208008 L 307.197509765625 77.81818389892578" fill-opacity="1" clip-path="url(#TakHptKIOHOC)"/><path fill="rgb(104,255,0)" stroke="none" paint-order="stroke" d="M 307.45440673828125 77.81818389892578 L 307.72662073373795 77.81818389892578 L 307.72662073373795 130.45454788208008 L 307.45440673828125 130.45454788208008 L 307.45440673828125 77.81818389892578" fill-opacity="1" clip-path="url(#TakHptKIOHOC)"/><path fill="rgb(101,255,0)" stroke="none" paint-order="stroke" d="M 307.72662353515625 77.81818389892578 L 307.9847795367241 77.81818389892578 L 307.9847795367241 130.45454788208008 L 307.72662353515625 130.45454788208008 L 307.72662353515625 77.81818389892578" fill-opacity="1" clip-path="url(#TakHptKIOHOC)"/><path fill="rgb(97,255,0)" stroke="none" paint-order="stroke" d="M 307.9847717285156 77.81818389892578 L 308.25187373161316 77.81818389892578 L 308.25187373161316 130.45454788208008 L 307.9847717285156 130.45454788208008 L 307.9847717285156 77.81818389892578" fill-opacity="1" clip-path="url(#TakHptKIOHOC)"/><path fill="rgb(93,255,0)" stroke="none" paint-order="stroke" d="M 308.2518615722656 77.81818389892578 L 308.5943655669689 77.81818389892578 L 308.5943655669689 130.45454788208008 L 308.2518615722656 130.45454788208008 L 308.2518615722656 77.81818389892578" fill-opacity="1" clip-path="url(#TakHptKIOHOC)"/><path fill="rgb(89,255,0)" stroke="none" paint-order="stroke" d="M 308.5943908691406 77.81818389892578 L 309.36885887384415 77.81818389892578 L 309.36885887384415 130.45454788208008 L 308.5943908691406 130.45454788208008 L 308.5943908691406 77.81818389892578" fill-opacity="1" clip-path="url(#TakHptKIOHOC)"/><path fill="rgb(86,255,0)" stroke="none" paint-order="stroke" d="M 309.36883544921875 77.81818389892578 L 309.4774654507637 77.81818389892578 L 309.4774654507637 130.45454788208008 L 309.36883544921875 130.45454788208008 L 309.36883544921875 77.81818389892578" fill-opacity="1" clip-path="url(#TakHptKIOHOC)"/><path fill="rgb(82,255,0)" stroke="none" paint-order="stroke" d="M 309.47747802734375 77.81818389892578 L 309.6040000319481 77.81818389892578 L 309.6040000319481 130.45454788208008 L 309.47747802734375 130.45454788208008 L 309.47747802734375 77.81818389892578" fill-opacity="1" clip-path="url(#TakHptKIOHOC)"/><path fill="rgb(78,255,0)" stroke="none" paint-order="stroke" d="M 309.60400390625 77.81818389892578 L 309.7330819070339 77.81818389892578 L 309.7330819070339 130.45454788208008 L 309.60400390625 130.45454788208008 L 309.60400390625 77.81818389892578" fill-opacity="1" clip-path="url(#TakHptKIOHOC)"/><path fill="rgb(74,255,0)" stroke="none" paint-order="stroke" d="M 309.7330627441406 77.81818389892578 L 309.85958474874496 77.81818389892578 L 309.85958474874496 130.45454788208008 L 309.7330627441406 130.45454788208008 L 309.7330627441406 77.81818389892578" fill-opacity="1" clip-path="url(#TakHptKIOHOC)"/><path fill="rgb(70,255,0)" stroke="none" paint-order="stroke" d="M 309.8595886230469 77.81818389892578 L 309.9886666238308 77.81818389892578 L 309.9886666238308 130.45454788208008 L 309.8595886230469 130.45454788208008 L 309.8595886230469 77.81818389892578" fill-opacity="1" clip-path="url(#TakHptKIOHOC)"/><path fill="rgb(66,255,0)" stroke="none" paint-order="stroke" d="M 309.9886779785156 77.81818389892578 L 310.11519998311996 77.81818389892578 L 310.11519998311996 130.45454788208008 L 309.9886779785156 130.45454788208008 L 309.9886779785156 77.81818389892578" fill-opacity="1" clip-path="url(#TakHptKIOHOC)"/><path fill="rgb(62,255,0)" stroke="none" paint-order="stroke" d="M 310.1152038574219 77.81818389892578 L 310.804045855999 77.81818389892578 L 310.804045855999 130.45454788208008 L 310.1152038574219 130.45454788208008 L 310.1152038574219 77.81818389892578" fill-opacity="1" clip-path="url(#TakHptKIOHOC)"/><path fill="rgb(58,255,0)" stroke="none" paint-order="stroke" d="M 310.8040466308594 77.81818389892578 L 311.38425862789154 77.81818389892578 L 311.38425862789154 130.45454788208008 L 310.8040466308594 130.45454788208008 L 310.8040466308594 77.81818389892578" fill-opacity="1" clip-path="url(#TakHptKIOHOC)"/><path fill="rgb(53,255,0)" stroke="none" paint-order="stroke" d="M 311.3842468261719 77.81818389892578 L 342.78598403930664 77.81818389892578 L 342.78598403930664 130.45454788208008 L 311.3842468261719 130.45454788208008 L 311.3842468261719 77.81818389892578" fill-opacity="1" clip-path="url(#TakHptKIOHOC)"/><path fill="rgb(0,255,40)" stroke="none" paint-order="stroke" d="M 342.7859802246094 77.81818389892578 L 349.85587644577026 77.81818389892578 L 349.85587644577026 130.45454788208008 L 342.7859802246094 130.45454788208008 L 342.7859802246094 77.81818389892578" fill-opacity="1" clip-path="url(#TakHptKIOHOC)"/><path fill="rgb(0,255,23)" stroke="none" paint-order="stroke" d="M 349.85589599609375 77.81818389892578 L 349.9836959987879 77.81818389892578 L 349.9836959987879 130.45454788208008 L 349.85589599609375 130.45454788208008 L 349.85589599609375 77.81818389892578" fill-opacity="1" clip-path="url(#TakHptKIOHOC)"/><path fill="rgb(0,255,0)" stroke="none" paint-order="stroke" d="M 349.9836730957031 77.81818389892578 L 350.11147309839725 77.81818389892578 L 350.11147309839725 130.45454788208008 L 349.9836730957031 130.45454788208008 L 349.9836730957031 77.81818389892578" fill-opacity="1" clip-path="url(#TakHptKIOHOC)"/><path fill="rgb(8,255,0)" stroke="none" paint-order="stroke" d="M 350.1114807128906 77.81818389892578 L 350.24055871367455 77.81818389892578 L 350.24055871367455 130.45454788208008 L 350.1114807128906 130.45454788208008 L 350.1114807128906 77.81818389892578" fill-opacity="1" clip-path="url(#TakHptKIOHOC)"/><path fill="rgb(14,255,0)" stroke="none" paint-order="stroke" d="M 350.2405700683594 77.81818389892578 L 350.3670920729637 77.81818389892578 L 350.3670920729637 130.45454788208008 L 350.2405700683594 130.45454788208008 L 350.2405700683594 77.81818389892578" fill-opacity="1" clip-path="url(#TakHptKIOHOC)"/><path fill="rgb(20,255,0)" stroke="none" paint-order="stroke" d="M 350.3670959472656 77.81818389892578 L 351.0610499382019 77.81818389892578 L 351.0610499382019 130.45454788208008 L 350.3670959472656 130.45454788208008 L 350.3670959472656 77.81818389892578" fill-opacity="1" clip-path="url(#TakHptKIOHOC)"/><path fill="rgb(25,255,0)" stroke="none" paint-order="stroke" d="M 351.06103515625 77.81818389892578 L 351.41376316547394 77.81818389892578 L 351.41376316547394 130.45454788208008 L 351.06103515625 130.45454788208008 L 351.06103515625 77.81818389892578" fill-opacity="1" clip-path="url(#TakHptKIOHOC)"/><path fill="rgb(30,255,0)" stroke="none" paint-order="stroke" d="M 351.41375732421875 77.81818389892578 L 351.7754313349724 77.81818389892578 L 351.7754313349724 130.45454788208008 L 351.41375732421875 130.45454788208008 L 351.41375732421875 77.81818389892578" fill-opacity="1" clip-path="url(#TakHptKIOHOC)"/><path fill="rgb(35,255,0)" stroke="none" paint-order="stroke" d="M 351.77545166015625 77.81818389892578 L 352.1192336678505 77.81818389892578 L 352.1192336678505 130.45454788208008 L 351.77545166015625 130.45454788208008 L 351.77545166015625 77.81818389892578" fill-opacity="1" clip-path="url(#TakHptKIOHOC)"/><path fill="rgb(40,255,0)" stroke="none" paint-order="stroke" d="M 352.1192321777344 77.81818389892578 L 352.6521582007408 77.81818389892578 L 352.6521582007408 130.45454788208008 L 352.1192321777344 130.45454788208008 L 352.1192321777344 77.81818389892578" fill-opacity="1" clip-path="url(#TakHptKIOHOC)"/><path fill="rgb(44,255,0)" stroke="none" paint-order="stroke" d="M 352.65216064453125 77.81818389892578 L 353.27582466602325 77.81818389892578 L 353.27582466602325 130.45454788208008 L 352.65216064453125 130.45454788208008 L 352.65216064453125 77.81818389892578" fill-opacity="1" clip-path="url(#TakHptKIOHOC)"/><path fill="rgb(49,255,0)" stroke="none" paint-order="stroke" d="M 353.27581787109375 77.81818389892578 L 354.02855986356735 77.81818389892578 L 354.02855986356735 130.45454788208008 L 353.27581787109375 130.45454788208008 L 353.27581787109375 77.81818389892578" fill-opacity="1" clip-path="url(#TakHptKIOHOC)"/><path fill="rgb(53,255,0)" stroke="none" paint-order="stroke" d="M 354.028564453125 77.81818389892578 L 469.4894714355469 77.81818389892578 L 469.4894714355469 130.45454788208008 L 354.028564453125 130.45454788208008 L 354.028564453125 77.81818389892578" fill-opacity="1" clip-path="url(#TakHptKIOHOC)"/><path fill="rgb(251,0,7)" stroke="none" paint-order="stroke" d="M 58.5 130.4545440673828 L 264.2925109863281 130.4545440673828 L 264.2925109863281 183.0909080505371 L 58.5 183.0909080505371 L 58.5 130.4545440673828" fill-opacity="1" clip-path="url(#RcHgSfXBvgsB)"/><path fill="rgb(251,0,7)" stroke="none" paint-order="stroke" d="M 264.2925109863281 130.4545440673828 L 274.60341453552246 130.4545440673828 L 274.60341453552246 183.0909080505371 L 264.2925109863281 183.0909080505371 L 264.2925109863281 130.4545440673828" fill-opacity="1" clip-path="url(#RcHgSfXBvgsB)"/><path fill="rgb(237,115,111)" stroke="none" paint-order="stroke" d="M 274.6034240722656 130.4545440673828 L 342.78600311279297 130.4545440673828 L 342.78600311279297 183.0909080505371 L 274.6034240722656 183.0909080505371 L 274.6034240722656 130.4545440673828" fill-opacity="1" clip-path="url(#RcHgSfXBvgsB)"/><path fill="rgb(251,0,7)" stroke="none" paint-order="stroke" d="M 342.7859802246094 130.4545440673828 L 469.4894561767578 130.4545440673828 L 469.4894561767578 183.0909080505371 L 342.7859802246094 183.0909080505371 L 342.7859802246094 130.4545440673828" fill-opacity="1" clip-path="url(#RcHgSfXBvgsB)"/><path fill="rgb(105,29,48)" stroke="none" paint-order="stroke" d="M 383.36248779296875 183.09091186523438 L 383.4263877943158 183.09091186523438 L 383.4263877943158 498.9090881347656 L 383.36248779296875 498.9090881347656 L 383.36248779296875 183.09091186523438" fill-opacity="1" clip-path="url(#rxnvpEQAgTqV)"/><path fill="rgb(255,188,66)" stroke="none" paint-order="stroke" d="M 187.6342315673828 183.09091186523438 L 193.40823554992676 183.09091186523438 L 193.40823554992676 498.9090881347656 L 187.6342315673828 498.9090881347656 L 187.6342315673828 183.09091186523438" fill-opacity="1" clip-path="url(#IGyafmIWdWpF)"/><path fill="rgb(255,188,66)" stroke="none" paint-order="stroke" d="M 213.5968017578125 183.09091186523438 L 215.87419772148132 183.09091186523438 L 215.87419772148132 498.9090881347656 L 213.5968017578125 498.9090881347656 L 213.5968017578125 183.09091186523438" fill-opacity="1" clip-path="url(#IGyafmIWdWpF)"/><path fill="rgb(255,188,66)" stroke="none" paint-order="stroke" d="M 287.1802062988281 183.09091186523438 L 290.3688163757324 183.09091186523438 L 290.3688163757324 498.9090881347656 L 287.1802062988281 498.9090881347656 L 287.1802062988281 183.09091186523438" fill-opacity="1" clip-path="url(#IGyafmIWdWpF)"/><path fill="rgb(162,174,187)" stroke="none" paint-order="stroke" d="M 162.91131591796875 183.09091186523438 L 162.97521591931581 183.09091186523438 L 162.97521591931581 498.9090881347656 L 162.91131591796875 498.9090881347656 L 162.91131591796875 183.09091186523438" fill-opacity="1" clip-path="url(#cyxBPtBnFBUZ)"/><path fill="rgb(255,188,66)" stroke="none" paint-order="stroke" d="M 293.7107849121094 183.09091186523438 L 293.9063189178705 183.09091186523438 L 293.9063189178705 498.9090881347656 L 293.7107849121094 498.9090881347656 L 293.7107849121094 183.09091186523438" fill-opacity="1" clip-path="url(#mpbmBXQVKxXz)"/><path fill="rgb(216,17,89)" stroke="none" paint-order="stroke" d="M 164.6839141845703 183.09091186523438 L 164.74781418591738 183.09091186523438 L 164.74781418591738 498.9090881347656 L 164.6839141845703 498.9090881347656 L 164.6839141845703 183.09091186523438" fill-opacity="1" clip-path="url(#TMTFrbJGKssP)"/><path fill="rgb(33,131,128)" stroke="none" paint-order="stroke" d="M 262.69500732421875 183.09091186523438 L 264.29250729084015 183.09091186523438 L 264.29250729084015 498.9090881347656 L 262.69500732421875 498.9090881347656 L 262.69500732421875 183.09091186523438" fill-opacity="1" clip-path="url(#ymoGLnZxvFeP)"/><path fill="rgb(33,131,128)" stroke="none" paint-order="stroke" d="M 272.4065246582031 183.09091186523438 L 274.60340666770935 183.09091186523438 L 274.60340666770935 498.9090881347656 L 272.4065246582031 498.9090881347656 L 272.4065246582031 183.09091186523438" fill-opacity="1" clip-path="url(#ymoGLnZxvFeP)"/><path fill="rgb(33,131,128)" stroke="none" paint-order="stroke" d="M 297.5268859863281 183.09091186523438 L 303.0082278251648 183.09091186523438 L 303.0082278251648 498.9090881347656 L 297.5268859863281 498.9090881347656 L 297.5268859863281 183.09091186523438" fill-opacity="1" clip-path="url(#ymoGLnZxvFeP)"/><path fill="rgb(33,131,128)" stroke="none" paint-order="stroke" d="M 339.3711853027344 183.09091186523438 L 342.78600120544434 183.09091186523438 L 342.78600120544434 498.9090881347656 L 339.3711853027344 498.9090881347656 L 339.3711853027344 183.09091186523438" fill-opacity="1" clip-path="url(#ymoGLnZxvFeP)"/><path fill="rgb(115,210,222)" stroke="none" paint-order="stroke" d="M 252.14767456054688 183.09091186523438 L 259.31214237213135 183.09091186523438 L 259.31214237213135 498.9090881347656 L 252.14767456054688 498.9090881347656 L 252.14767456054688 183.09091186523438" fill-opacity="1" clip-path="url(#olktrETnutZz)"/><path fill="rgb(115,210,222)" stroke="none" paint-order="stroke" d="M 266.1660461425781 183.09091186523438 L 268.6236400604248 183.09091186523438 L 268.6236400604248 498.9090881347656 L 266.1660461425781 498.9090881347656 L 266.1660461425781 183.09091186523438" fill-opacity="1" clip-path="url(#olktrETnutZz)"/><path fill="rgb(115,210,222)" stroke="none" paint-order="stroke" d="M 277.49298095703125 183.09091186523438 L 282.2995390892029 183.09091186523438 L 282.2995390892029 498.9090881347656 L 277.49298095703125 498.9090881347656 L 277.49298095703125 183.09091186523438" fill-opacity="1" clip-path="url(#olktrETnutZz)"/><path fill="rgb(115,210,222)" stroke="none" paint-order="stroke" d="M 399.6250305175781 183.09091186523438 L 404.8405485153198 183.09091186523438 L 404.8405485153198 498.9090881347656 L 399.6250305175781 498.9090881347656 L 399.6250305175781 183.09091186523438" fill-opacity="1" clip-path="url(#olktrETnutZz)"/><path fill="rgb(115,210,222)" stroke="none" paint-order="stroke" d="M 405.9715881347656 183.09091186523438 L 406.0354881361127 183.09091186523438 L 406.0354881361127 498.9090881347656 L 405.9715881347656 498.9090881347656 L 405.9715881347656 183.09091186523438" fill-opacity="1" clip-path="url(#olktrETnutZz)"/><path fill="rgb(115,210,222)" stroke="none" paint-order="stroke" d="M 405.9715881347656 183.09091186523438 L 406.0354881361127 183.09091186523438 L 406.0354881361127 498.9090881347656 L 405.9715881347656 498.9090881347656 L 405.9715881347656 183.09091186523438" fill-opacity="1" clip-path="url(#olktrETnutZz)"/><path fill="rgb(115,210,222)" stroke="none" paint-order="stroke" d="M 406.6182556152344 183.09091186523438 L 406.68215561658144 183.09091186523438 L 406.68215561658144 498.9090881347656 L 406.6182556152344 498.9090881347656 L 406.6182556152344 183.09091186523438" fill-opacity="1" clip-path="url(#olktrETnutZz)"/><path fill="rgb(115,210,222)" stroke="none" paint-order="stroke" d="M 406.6182556152344 183.09091186523438 L 406.68215561658144 183.09091186523438 L 406.68215561658144 498.9090881347656 L 406.6182556152344 498.9090881347656 L 406.6182556152344 183.09091186523438" fill-opacity="1" clip-path="url(#olktrETnutZz)"/><path fill="rgb(115,210,222)" stroke="none" paint-order="stroke" d="M 407.3722839355469 183.09091186523438 L 407.43618393689394 183.09091186523438 L 407.43618393689394 498.9090881347656 L 407.3722839355469 498.9090881347656 L 407.3722839355469 183.09091186523438" fill-opacity="1" clip-path="url(#olktrETnutZz)"/><path fill="rgb(115,210,222)" stroke="none" paint-order="stroke" d="M 407.3722839355469 183.09091186523438 L 407.43618393689394 183.09091186523438 L 407.43618393689394 498.9090881347656 L 407.3722839355469 498.9090881347656 L 407.3722839355469 183.09091186523438" fill-opacity="1" clip-path="url(#olktrETnutZz)"/><path fill="rgb(115,210,222)" stroke="none" paint-order="stroke" d="M 408.0202331542969 183.09091186523438 L 408.08413315564394 183.09091186523438 L 408.08413315564394 498.9090881347656 L 408.0202331542969 498.9090881347656 L 408.0202331542969 183.09091186523438" fill-opacity="1" clip-path="url(#olktrETnutZz)"/><path fill="rgb(115,210,222)" stroke="none" paint-order="stroke" d="M 408.0202331542969 183.09091186523438 L 408.08413315564394 183.09091186523438 L 408.08413315564394 498.9090881347656 L 408.0202331542969 498.9090881347656 L 408.0202331542969 183.09091186523438" fill-opacity="1" clip-path="url(#olktrETnutZz)"/><path fill="rgb(115,210,222)" stroke="none" paint-order="stroke" d="M 408.59149169921875 183.09091186523438 L 408.6553917005658 183.09091186523438 L 408.6553917005658 498.9090881347656 L 408.59149169921875 498.9090881347656 L 408.59149169921875 183.09091186523438" fill-opacity="1" clip-path="url(#olktrETnutZz)"/><path fill="rgb(115,210,222)" stroke="none" paint-order="stroke" d="M 408.59149169921875 183.09091186523438 L 408.6553917005658 183.09091186523438 L 408.6553917005658 498.9090881347656 L 408.59149169921875 498.9090881347656 L 408.59149169921875 183.09091186523438" fill-opacity="1" clip-path="url(#olktrETnutZz)"/><path fill="rgb(115,210,222)" stroke="none" paint-order="stroke" d="M 437.8359680175781 183.09091186523438 L 437.8998680189252 183.09091186523438 L 437.8998680189252 498.9090881347656 L 437.8359680175781 498.9090881347656 L 437.8359680175781 183.09091186523438" fill-opacity="1" clip-path="url(#olktrETnutZz)"/><path fill="rgb(115,210,222)" stroke="none" paint-order="stroke" d="M 437.8359680175781 183.09091186523438 L 437.8998680189252 183.09091186523438 L 437.8998680189252 498.9090881347656 L 437.8359680175781 498.9090881347656 L 437.8359680175781 183.09091186523438" fill-opacity="1" clip-path="url(#olktrETnutZz)"/><path fill="rgb(115,210,222)" stroke="none" paint-order="stroke" d="M 437.9637451171875 183.09091186523438 L 438.02764511853456 183.09091186523438 L 438.02764511853456 498.9090881347656 L 437.9637451171875 498.9090881347656 L 437.9637451171875 183.09091186523438" fill-opacity="1" clip-path="url(#olktrETnutZz)"/><path fill="rgb(115,210,222)" stroke="none" paint-order="stroke" d="M 437.9637451171875 183.09091186523438 L 438.02764511853456 183.09091186523438 L 438.02764511853456 498.9090881347656 L 437.9637451171875 498.9090881347656 L 437.9637451171875 183.09091186523438" fill-opacity="1" clip-path="url(#olktrETnutZz)"/><path fill="rgb(115,210,222)" stroke="none" paint-order="stroke" d="M 439.07049560546875 183.09091186523438 L 439.1343956068158 183.09091186523438 L 439.1343956068158 498.9090881347656 L 439.07049560546875 498.9090881347656 L 439.07049560546875 183.09091186523438" fill-opacity="1" clip-path="url(#olktrETnutZz)"/><path fill="rgb(115,210,222)" stroke="none" paint-order="stroke" d="M 439.07049560546875 183.09091186523438 L 439.1343956068158 183.09091186523438 L 439.1343956068158 498.9090881347656 L 439.07049560546875 498.9090881347656 L 439.07049560546875 183.09091186523438" fill-opacity="1" clip-path="url(#olktrETnutZz)"/><path fill="rgb(115,210,222)" stroke="none" paint-order="stroke" d="M 439.1995849609375 183.09091186523438 L 439.26348496228456 183.09091186523438 L 439.26348496228456 498.9090881347656 L 439.1995849609375 498.9090881347656 L 439.1995849609375 183.09091186523438" fill-opacity="1" clip-path="url(#olktrETnutZz)"/><path fill="rgb(115,210,222)" stroke="none" paint-order="stroke" d="M 439.1995849609375 183.09091186523438 L 439.26348496228456 183.09091186523438 L 439.26348496228456 498.9090881347656 L 439.1995849609375 498.9090881347656 L 439.1995849609375 183.09091186523438" fill-opacity="1" clip-path="url(#olktrETnutZz)"/><path fill="rgb(115,210,222)" stroke="none" paint-order="stroke" d="M 439.32611083984375 183.09091186523438 L 439.3900108411908 183.09091186523438 L 439.3900108411908 498.9090881347656 L 439.32611083984375 498.9090881347656 L 439.32611083984375 183.09091186523438" fill-opacity="1" clip-path="url(#olktrETnutZz)"/><path fill="rgb(115,210,222)" stroke="none" paint-order="stroke" d="M 439.32611083984375 183.09091186523438 L 439.3900108411908 183.09091186523438 L 439.3900108411908 498.9090881347656 L 439.32611083984375 498.9090881347656 L 439.32611083984375 183.09091186523438" fill-opacity="1" clip-path="url(#olktrETnutZz)"/><path fill="rgb(115,210,222)" stroke="none" paint-order="stroke" d="M 439.45391845703125 183.09091186523438 L 439.5178184583783 183.09091186523438 L 439.5178184583783 498.9090881347656 L 439.45391845703125 498.9090881347656 L 439.45391845703125 183.09091186523438" fill-opacity="1" clip-path="url(#olktrETnutZz)"/><path fill="rgb(115,210,222)" stroke="none" paint-order="stroke" d="M 439.45391845703125 183.09091186523438 L 439.5178184583783 183.09091186523438 L 439.5178184583783 498.9090881347656 L 439.45391845703125 498.9090881347656 L 439.45391845703125 183.09091186523438" fill-opacity="1" clip-path="url(#olktrETnutZz)"/><path fill="rgb(115,210,222)" stroke="none" paint-order="stroke" d="M 439.5829772949219 183.09091186523438 L 439.64687729626894 183.09091186523438 L 439.64687729626894 498.9090881347656 L 439.5829772949219 498.9090881347656 L 439.5829772949219 183.09091186523438" fill-opacity="1" clip-path="url(#olktrETnutZz)"/><path fill="rgb(115,210,222)" stroke="none" paint-order="stroke" d="M 439.5829772949219 183.09091186523438 L 439.64687729626894 183.09091186523438 L 439.64687729626894 498.9090881347656 L 439.5829772949219 498.9090881347656 L 439.5829772949219 183.09091186523438" fill-opacity="1" clip-path="url(#olktrETnutZz)"/><path fill="rgb(115,210,222)" stroke="none" paint-order="stroke" d="M 439.7095031738281 183.09091186523438 L 439.7734031751752 183.09091186523438 L 439.7734031751752 498.9090881347656 L 439.7095031738281 498.9090881347656 L 439.7095031738281 183.09091186523438" fill-opacity="1" clip-path="url(#olktrETnutZz)"/><path fill="rgb(115,210,222)" stroke="none" paint-order="stroke" d="M 439.7095031738281 183.09091186523438 L 439.7734031751752 183.09091186523438 L 439.7734031751752 498.9090881347656 L 439.7095031738281 498.9090881347656 L 439.7095031738281 183.09091186523438" fill-opacity="1" clip-path="url(#olktrETnutZz)"/><path fill="rgb(115,210,222)" stroke="none" paint-order="stroke" d="M 439.8385925292969 183.09091186523438 L 439.90249253064394 183.09091186523438 L 439.90249253064394 498.9090881347656 L 439.8385925292969 498.9090881347656 L 439.8385925292969 183.09091186523438" fill-opacity="1" clip-path="url(#olktrETnutZz)"/><path fill="rgb(115,210,222)" stroke="none" paint-order="stroke" d="M 439.8385925292969 183.09091186523438 L 439.90249253064394 183.09091186523438 L 439.90249253064394 498.9090881347656 L 439.8385925292969 498.9090881347656 L 439.8385925292969 183.09091186523438" fill-opacity="1" clip-path="url(#olktrETnutZz)"/><path fill="rgb(115,210,222)" stroke="none" paint-order="stroke" d="M 439.9651184082031 183.09091186523438 L 440.0290184095502 183.09091186523438 L 440.0290184095502 498.9090881347656 L 439.9651184082031 498.9090881347656 L 439.9651184082031 183.09091186523438" fill-opacity="1" clip-path="url(#olktrETnutZz)"/><path fill="rgb(115,210,222)" stroke="none" paint-order="stroke" d="M 439.9651184082031 183.09091186523438 L 440.0290184095502 183.09091186523438 L 440.0290184095502 498.9090881347656 L 439.9651184082031 498.9090881347656 L 439.9651184082031 183.09091186523438" fill-opacity="1" clip-path="url(#olktrETnutZz)"/><path fill="rgb(115,210,222)" stroke="none" paint-order="stroke" d="M 440.0928955078125 183.09091186523438 L 440.15679550915956 183.09091186523438 L 440.15679550915956 498.9090881347656 L 440.0928955078125 498.9090881347656 L 440.0928955078125 183.09091186523438" fill-opacity="1" clip-path="url(#olktrETnutZz)"/><path fill="rgb(115,210,222)" stroke="none" paint-order="stroke" d="M 440.0928955078125 183.09091186523438 L 440.15679550915956 183.09091186523438 L 440.15679550915956 498.9090881347656 L 440.0928955078125 498.9090881347656 L 440.0928955078125 183.09091186523438" fill-opacity="1" clip-path="url(#olktrETnutZz)"/><path fill="rgb(115,210,222)" stroke="none" paint-order="stroke" d="M 440.22198486328125 183.09091186523438 L 440.2858848646283 183.09091186523438 L 440.2858848646283 498.9090881347656 L 440.22198486328125 498.9090881347656 L 440.22198486328125 183.09091186523438" fill-opacity="1" clip-path="url(#olktrETnutZz)"/><path fill="rgb(115,210,222)" stroke="none" paint-order="stroke" d="M 440.22198486328125 183.09091186523438 L 440.2858848646283 183.09091186523438 L 440.2858848646283 498.9090881347656 L 440.22198486328125 498.9090881347656 L 440.22198486328125 183.09091186523438" fill-opacity="1" clip-path="url(#olktrETnutZz)"/><path fill="rgb(115,210,222)" stroke="none" paint-order="stroke" d="M 440.3485107421875 183.09091186523438 L 440.41241074353456 183.09091186523438 L 440.41241074353456 498.9090881347656 L 440.3485107421875 498.9090881347656 L 440.3485107421875 183.09091186523438" fill-opacity="1" clip-path="url(#olktrETnutZz)"/><path fill="rgb(115,210,222)" stroke="none" paint-order="stroke" d="M 440.3485107421875 183.09091186523438 L 440.41241074353456 183.09091186523438 L 440.41241074353456 498.9090881347656 L 440.3485107421875 498.9090881347656 L 440.3485107421875 183.09091186523438" fill-opacity="1" clip-path="url(#olktrETnutZz)"/><path fill="rgb(115,210,222)" stroke="none" paint-order="stroke" d="M 441.2392883300781 183.09091186523438 L 442.7230463027954 183.09091186523438 L 442.7230463027954 498.9090881347656 L 441.2392883300781 498.9090881347656 L 441.2392883300781 183.09091186523438" fill-opacity="1" clip-path="url(#olktrETnutZz)"/><path fill="rgb(115,210,222)" stroke="none" paint-order="stroke" d="M 444.3179626464844 183.09091186523438 L 445.3940386772156 183.09091186523438 L 445.3940386772156 498.9090881347656 L 444.3179626464844 498.9090881347656 L 444.3179626464844 183.09091186523438" fill-opacity="1" clip-path="url(#olktrETnutZz)"/><path fill="rgb(115,210,222)" stroke="none" paint-order="stroke" d="M 446.3717346191406 183.09091186523438 L 446.4356346204877 183.09091186523438 L 446.4356346204877 498.9090881347656 L 446.3717346191406 498.9090881347656 L 446.3717346191406 183.09091186523438" fill-opacity="1" clip-path="url(#olktrETnutZz)"/><path fill="rgb(115,210,222)" stroke="none" paint-order="stroke" d="M 446.3717346191406 183.09091186523438 L 446.4356346204877 183.09091186523438 L 446.4356346204877 498.9090881347656 L 446.3717346191406 498.9090881347656 L 446.3717346191406 183.09091186523438" fill-opacity="1" clip-path="url(#olktrETnutZz)"/><path fill="rgb(115,210,222)" stroke="none" paint-order="stroke" d="M 446.6490478515625 183.09091186523438 L 446.71294785290956 183.09091186523438 L 446.71294785290956 498.9090881347656 L 446.6490478515625 498.9090881347656 L 446.6490478515625 183.09091186523438" fill-opacity="1" clip-path="url(#olktrETnutZz)"/><path fill="rgb(115,210,222)" stroke="none" paint-order="stroke" d="M 446.6490478515625 183.09091186523438 L 446.71294785290956 183.09091186523438 L 446.71294785290956 498.9090881347656 L 446.6490478515625 498.9090881347656 L 446.6490478515625 183.09091186523438" fill-opacity="1" clip-path="url(#olktrETnutZz)"/><path fill="rgb(115,210,222)" stroke="none" paint-order="stroke" d="M 446.9046630859375 183.09091186523438 L 446.96856308728456 183.09091186523438 L 446.96856308728456 498.9090881347656 L 446.9046630859375 498.9090881347656 L 446.9046630859375 183.09091186523438" fill-opacity="1" clip-path="url(#olktrETnutZz)"/><path fill="rgb(115,210,222)" stroke="none" paint-order="stroke" d="M 446.9046630859375 183.09091186523438 L 446.96856308728456 183.09091186523438 L 446.96856308728456 498.9090881347656 L 446.9046630859375 498.9090881347656 L 446.9046630859375 183.09091186523438" fill-opacity="1" clip-path="url(#olktrETnutZz)"/><path fill="rgb(115,210,222)" stroke="none" paint-order="stroke" d="M 447.12445068359375 183.09091186523438 L 447.1883506849408 183.09091186523438 L 447.1883506849408 498.9090881347656 L 447.12445068359375 498.9090881347656 L 447.12445068359375 183.09091186523438" fill-opacity="1" clip-path="url(#olktrETnutZz)"/><path fill="rgb(115,210,222)" stroke="none" paint-order="stroke" d="M 447.12445068359375 183.09091186523438 L 447.1883506849408 183.09091186523438 L 447.1883506849408 498.9090881347656 L 447.12445068359375 498.9090881347656 L 447.12445068359375 183.09091186523438" fill-opacity="1" clip-path="url(#olktrETnutZz)"/><path fill="rgb(115,210,222)" stroke="none" paint-order="stroke" d="M 447.50531005859375 183.09091186523438 L 447.5692100599408 183.09091186523438 L 447.5692100599408 498.9090881347656 L 447.50531005859375 498.9090881347656 L 447.50531005859375 183.09091186523438" fill-opacity="1" clip-path="url(#olktrETnutZz)"/><path fill="rgb(115,210,222)" stroke="none" paint-order="stroke" d="M 447.50531005859375 183.09091186523438 L 447.5692100599408 183.09091186523438 L 447.5692100599408 498.9090881347656 L 447.50531005859375 498.9090881347656 L 447.50531005859375 183.09091186523438" fill-opacity="1" clip-path="url(#olktrETnutZz)"/><path fill="rgb(28,49,68)" stroke="none" paint-order="stroke" d="M 185.8245849609375 183.09091186523438 L 186.71918493509293 183.09091186523438 L 186.71918493509293 498.9090881347656 L 185.8245849609375 498.9090881347656 L 185.8245849609375 183.09091186523438" fill-opacity="1" clip-path="url(#GHwmOWiOfgDe)"/><path fill="rgb(28,49,68)" stroke="none" paint-order="stroke" d="M 212.4478759765625 183.09091186523438 L 212.5871779769659 183.09091186523438 L 212.5871779769659 498.9090881347656 L 212.4478759765625 498.9090881347656 L 212.4478759765625 183.09091186523438" fill-opacity="1" clip-path="url(#GHwmOWiOfgDe)"/><path fill="rgb(28,49,68)" stroke="none" paint-order="stroke" d="M 217.66212463378906 183.09091186523438 L 223.8208065032959 183.09091186523438 L 223.8208065032959 498.9090881347656 L 217.66212463378906 498.9090881347656 L 217.66212463378906 183.09091186523438" fill-opacity="1" clip-path="url(#GHwmOWiOfgDe)"/><path fill="rgb(28,49,68)" stroke="none" paint-order="stroke" d="M 283.787109375 183.09091186523438 L 285.6427654027939 183.09091186523438 L 285.6427654027939 498.9090881347656 L 283.787109375 498.9090881347656 L 283.787109375 183.09091186523438" fill-opacity="1" clip-path="url(#GHwmOWiOfgDe)"/><path fill="rgb(28,49,68)" stroke="none" paint-order="stroke" d="M 291.07684326171875 183.09091186523438 L 291.8168052434921 183.09091186523438 L 291.8168052434921 498.9090881347656 L 291.07684326171875 498.9090881347656 L 291.07684326171875 183.09091186523438" fill-opacity="1" clip-path="url(#GHwmOWiOfgDe)"/><path fill="rgb(28,49,68)" stroke="none" paint-order="stroke" d="M 363.5905456542969 183.09091186523438 L 367.15744376182556 183.09091186523438 L 367.15744376182556 498.9090881347656 L 363.5905456542969 498.9090881347656 L 363.5905456542969 183.09091186523438" fill-opacity="1" clip-path="url(#GHwmOWiOfgDe)"/><path fill="rgb(28,49,68)" stroke="none" paint-order="stroke" d="M 468.7200927734375 183.09091186523438 L 469.48944878578186 183.09091186523438 L 469.48944878578186 498.9090881347656 L 468.7200927734375 498.9090881347656 L 468.7200927734375 183.09091186523438" fill-opacity="1" clip-path="url(#GHwmOWiOfgDe)"/><path fill="rgb(239,185,203)" stroke="none" paint-order="stroke" d="M 68.03004455566406 183.09091186523438 L 155.74173736572266 183.09091186523438 L 155.74173736572266 498.9090881347656 L 68.03004455566406 498.9090881347656 L 68.03004455566406 183.09091186523438" fill-opacity="1" clip-path="url(#flyIdZktDEwv)"/><path fill="rgb(239,185,203)" stroke="none" paint-order="stroke" d="M 230.85874938964844 183.09091186523438 L 248.2139892578125 183.09091186523438 L 248.2139892578125 498.9090881347656 L 230.85874938964844 498.9090881347656 L 230.85874938964844 183.09091186523438" fill-opacity="1" clip-path="url(#flyIdZktDEwv)"/><path fill="rgb(239,185,203)" stroke="none" paint-order="stroke" d="M 321.8165588378906 183.09091186523438 L 335.5895652770996 183.09091186523438 L 335.5895652770996 498.9090881347656 L 321.8165588378906 498.9090881347656 L 321.8165588378906 183.09091186523438" fill-opacity="1" clip-path="url(#flyIdZktDEwv)"/><path fill="rgb(105,29,48)" stroke="none" paint-order="stroke" d="M 167.62075805664062 183.09091186523438 L 179.47804164886475 183.09091186523438 L 179.47804164886475 498.9090881347656 L 167.62075805664062 498.9090881347656 L 167.62075805664062 183.09091186523438" fill-opacity="1" clip-path="url(#nnwksvhpamTx)"/><path fill="rgb(255,188,66)" stroke="none" paint-order="stroke" d="M 189.7889404296875 498.9090881347656 L 192.55581045150757 498.9090881347656 L 192.55581045150757 551.5454521179199 L 189.7889404296875 551.5454521179199 L 189.7889404296875 498.9090881347656" fill-opacity="1" clip-path="url(#iBtHsOxQJNBL)"/><path fill="rgb(255,188,66)" stroke="none" paint-order="stroke" d="M 214.06582641601562 498.9090881347656 L 214.15145241469145 498.9090881347656 L 214.15145241469145 551.5454521179199 L 214.06582641601562 551.5454521179199 L 214.06582641601562 498.9090881347656" fill-opacity="1" clip-path="url(#iBtHsOxQJNBL)"/><path fill="rgb(255,188,66)" stroke="none" paint-order="stroke" d="M 214.4914093017578 498.9090881347656 L 214.53486130014062 498.9090881347656 L 214.53486130014062 551.5454521179199 L 214.4914093017578 551.5454521179199 L 214.4914093017578 498.9090881347656" fill-opacity="1" clip-path="url(#iBtHsOxQJNBL)"/><path fill="rgb(255,188,66)" stroke="none" paint-order="stroke" d="M 214.9182586669922 498.9090881347656 L 288.1169891357422 498.9090881347656 L 288.1169891357422 551.5454521179199 L 214.9182586669922 551.5454521179199 L 214.9182586669922 498.9090881347656" fill-opacity="1" clip-path="url(#iBtHsOxQJNBL)"/><path fill="rgb(255,188,66)" stroke="none" paint-order="stroke" d="M 288.3508605957031 498.9090881347656 L 469.4894714355469 498.9090881347656 L 469.4894714355469 551.5454521179199 L 288.3508605957031 551.5454521179199 L 288.3508605957031 498.9090881347656" fill-opacity="1" clip-path="url(#iBtHsOxQJNBL)"/><path fill="rgb(143,45,86)" stroke="none" paint-order="stroke" d="M 58.5 551.5454711914062 L 383.36248779296875 551.5454711914062 L 383.36248779296875 604.1818351745605 L 58.5 604.1818351745605 L 58.5 551.5454711914062" fill-opacity="1" clip-path="url(#ThxZUAyMqDeW)"/><path fill="rgb(81,60,99)" stroke="none" paint-order="stroke" d="M 383.36248779296875 551.5454711914062 L 469.48946380615234 551.5454711914062 L 469.48946380615234 604.1818351745605 L 383.36248779296875 604.1818351745605 L 383.36248779296875 551.5454711914062" fill-opacity="1" clip-path="url(#ThxZUAyMqDeW)"/><path fill="none" stroke="rgb(0,0,0)" paint-order="fill" d="M 58.5 77.81818389892578 L 469.4894714355469 77.81818389892578 L 469.4894714355469 604.1818313598633 L 58.5 604.1818313598633 L 58.5 77.81818389892578" stroke-opacity="1" stroke-linejoin="bevel" stroke-miterlimit="10" stroke-dasharray="" clip-path="url(#WtiRMqqlaiDZ)"/><path fill="none" stroke="rgb(0,0,0)" paint-order="fill" d="M 58.5 630.5 L 1336.5 630.5" stroke-opacity="1" stroke-linejoin="bevel" stroke-miterlimit="10" stroke-dasharray=""/><path fill="none" stroke="rgb(0,0,0)" paint-order="fill" d="M 58.5 636.5 L 58.5 628.5 M 314.5 636.5 L 314.5 628.5 M 569.5 636.5 L 569.5 628.5 M 825.5 636.5 L 825.5 628.5 M 1080.5 636.5 L 1080.5 628.5 M 1336.5 636.5 L 1336.5 628.5" stroke-opacity="1" stroke-linejoin="bevel" stroke-miterlimit="10" stroke-dasharray=""/><path fill="none" stroke="rgb(0,0,0)" paint-order="fill" d="M 58.5 634.5 L 58.5 630.5 M 109.5 634.5 L 109.5 630.5 M 160.5 634.5 L 160.5 630.5 M 211.5 634.5 L 211.5 630.5 M 262.5 634.5 L 262.5 630.5 M 314.5 634.5 L 314.5 630.5 M 365.5 634.5 L 365.5 630.5 M 416.5 634.5 L 416.5 630.5 M 467.5 634.5 L 467.5 630.5 M 518.5 634.5 L 518.5 630.5 M 569.5 634.5 L 569.5 630.5 M 620.5 634.5 L 620.5 630.5 M 671.5 634.5 L 671.5 630.5 M 723.5 634.5 L 723.5 630.5 M 774.5 634.5 L 774.5 630.5 M 825.5 634.5 L 825.5 630.5 M 876.5 634.5 L 876.5 630.5 M 927.5 634.5 L 927.5 630.5 M 978.5 634.5 L 978.5 630.5 M 1029.5 634.5 L 1029.5 630.5 M 1080.5 634.5 L 1080.5 630.5 M 1132.5 634.5 L 1132.5 630.5 M 1183.5 634.5 L 1183.5 630.5 M 1234.5 634.5 L 1234.5 630.5 M 1285.5 634.5 L 1285.5 630.5 M 1336.5 634.5 L 1336.5 630.5" stroke-opacity="1" stroke-linejoin="bevel" stroke-miterlimit="10" stroke-dasharray=""/><text fill="rgb(68,68,68)" stroke="none" font-family="helvetica" font-size="11px" font-style="normal" font-weight="normal" text-decoration="normal" x="54.94166660308838" y="648.89013671875" text-anchor="start" dominant-baseline="alphabetic" transform="matrix(1, 0, 0, 1, 0.5, 0.5)" fill-opacity="1">0</text><text fill="rgb(68,68,68)" stroke="none" font-family="helvetica" font-size="11px" font-style="normal" font-weight="normal" text-decoration="normal" x="304.42500591278076" y="648.89013671875" text-anchor="start" dominant-baseline="alphabetic" transform="matrix(1, 0, 0, 1, 0.5, 0.5)" fill-opacity="1">200</text><text fill="rgb(68,68,68)" stroke="none" font-family="helvetica" font-size="11px" font-style="normal" font-weight="normal" text-decoration="normal" x="560.0250120162964" y="648.89013671875" text-anchor="start" dominant-baseline="alphabetic" transform="matrix(1, 0, 0, 1, 0.5, 0.5)" fill-opacity="1">400</text><text fill="rgb(68,68,68)" stroke="none" font-family="helvetica" font-size="11px" font-style="normal" font-weight="normal" text-decoration="normal" x="815.6249876022339" y="648.89013671875" text-anchor="start" dominant-baseline="alphabetic" transform="matrix(1, 0, 0, 1, 0.5, 0.5)" fill-opacity="1">600</text><text fill="rgb(68,68,68)" stroke="none" font-family="helvetica" font-size="11px" font-style="normal" font-weight="normal" text-decoration="normal" x="1071.2250242233276" y="648.89013671875" text-anchor="start" dominant-baseline="alphabetic" transform="matrix(1, 0, 0, 1, 0.5, 0.5)" fill-opacity="1">800</text><text fill="rgb(68,68,68)" stroke="none" font-family="helvetica" font-size="11px" font-style="normal" font-weight="normal" text-decoration="normal" x="1323.7666664123535" y="648.89013671875" text-anchor="start" dominant-baseline="alphabetic" transform="matrix(1, 0, 0, 1, 0.5, 0.5)" fill-opacity="1">1000</text><text fill="rgb(68,68,68)" stroke="none" font-family="helvetica" font-size="15pt" font-style="italic" font-weight="normal" text-decoration="normal" x="666.4416675567627" y="676.06982421875" text-anchor="start" dominant-baseline="alphabetic" transform="matrix(1, 0, 0, 1, 0.5, 0.5)" fill-opacity="1">time(s)</text><path fill="none" stroke="rgb(0,0,0)" paint-order="fill" d="M 58.5 630.5 L 58.5 51.5" stroke-opacity="1" stroke-linejoin="bevel" stroke-miterlimit="10" stroke-dasharray=""/><path fill="none" stroke="rgb(0,0,0)" paint-order="fill" d="M 52.5 551.5 L 60.5 551.5 M 52.5 446.5 L 60.5 446.5 M 52.5 341.5 L 60.5 341.5 M 52.5 235.5 L 60.5 235.5 M 52.5 130.5 L 60.5 130.5" stroke-opacity="1" stroke-linejoin="bevel" stroke-miterlimit="10" stroke-dasharray=""/><path fill="none" stroke="rgb(0,0,0)" paint-order="fill" d="M 54.5 572.5 L 58.5 572.5 M 54.5 593.5 L 58.5 593.5 M 54.5 614.5 L 58.5 614.5 M 54.5 551.5 L 58.5 551.5 M 54.5 530.5 L 58.5 530.5 M 54.5 509.5 L 58.5 509.5 M 54.5 488.5 L 58.5 488.5 M 54.5 467.5 L 58.5 467.5 M 54.5 446.5 L 58.5 446.5 M 54.5 425.5 L 58.5 425.5 M 54.5 404.5 L 58.5 404.5 M 54.5 383.5 L 58.5 383.5 M 54.5 362.5 L 58.5 362.5 M 54.5 341.5 L 58.5 341.5 M 54.5 319.5 L 58.5 319.5 M 54.5 298.5 L 58.5 298.5 M 54.5 277.5 L 58.5 277.5 M 54.5 256.5 L 58.5 256.5 M 54.5 235.5 L 58.5 235.5 M 54.5 214.5 L 58.5 214.5 M 54.5 193.5 L 58.5 193.5 M 54.5 172.5 L 58.5 172.5 M 54.5 151.5 L 58.5 151.5 M 54.5 130.5 L 58.5 130.5 M 54.5 109.5 L 58.5 109.5 M 54.5 88.5 L 58.5 88.5 M 54.5 67.5 L 58.5 67.5" stroke-opacity="1" stroke-linejoin="bevel" stroke-miterlimit="10" stroke-dasharray=""/><text fill="rgb(68,68,68)" stroke="none" font-family="helvetica" font-size="11px" font-style="normal" font-weight="normal" text-decoration="normal" x="34.46666622161865" y="554.9905395507812" text-anchor="start" dominant-baseline="alphabetic" transform="matrix(1, 0, 0, 1, 0.5, 0.5)" fill-opacity="1">2</text><text fill="rgb(68,68,68)" stroke="none" font-family="helvetica" font-size="11px" font-style="normal" font-weight="normal" text-decoration="normal" x="34.46666622161865" y="449.7178039550781" text-anchor="start" dominant-baseline="alphabetic" transform="matrix(1, 0, 0, 1, 0.5, 0.5)" fill-opacity="1">1</text><text fill="rgb(68,68,68)" stroke="none" font-family="helvetica" font-size="11px" font-style="normal" font-weight="normal" text-decoration="normal" x="40.88333320617676" y="344.445068359375" text-anchor="start" dominant-baseline="alphabetic" transform="matrix(1, 0, 0, 1, 0.5, 0.5)" fill-opacity="1">0</text><text fill="rgb(68,68,68)" stroke="none" font-family="helvetica" font-size="11px" font-style="normal" font-weight="normal" text-decoration="normal" x="40.88333320617676" y="239.17234802246094" text-anchor="start" dominant-baseline="alphabetic" transform="matrix(1, 0, 0, 1, 0.5, 0.5)" fill-opacity="1">1</text><text fill="rgb(68,68,68)" stroke="none" font-family="helvetica" font-size="11px" font-style="normal" font-weight="normal" text-decoration="normal" x="40.88333320617676" y="133.8996124267578" text-anchor="start" dominant-baseline="alphabetic" transform="matrix(1, 0, 0, 1, 0.5, 0.5)" fill-opacity="1">2</text><text fill="rgb(68,68,68)" stroke="none" font-family="helvetica" font-size="15pt" font-style="italic" font-weight="normal" text-decoration="normal" x="-11.316666603088379" y="336.076171875" text-anchor="start" dominant-baseline="alphabetic" transform="matrix(6.123233995736766e-17, -1, 1, 6.123233995736766e-17, -313.53333377838135, 367.46666622161865)" fill-opacity="1">students</text><path fill="rgb(255,255,255)" stroke="rgb(229,229,229)" paint-order="fill" d="M 1128.2333374023438 61.5 L 1326.5 61.5 L 1326.5 400.5 L 1128.2333374023438 400.5 L 1128.2333374023438 61.5" fill-opacity="0.9490196078431372" clip-path="url(#ptBVoZokpvlc)" stroke-opacity="0.5019607843137255" stroke-linejoin="bevel" stroke-miterlimit="10" stroke-dasharray=""/><text fill="rgb(68,68,68)" stroke="none" font-family="helvetica" font-size="13px" font-style="normal" font-weight="normal" text-decoration="normal" x="1162.7333374023438" y="81" text-anchor="start" dominant-baseline="central" clip-path="url(#ptBVoZokpvlc)" transform="matrix(1, 0, 0, 1, 0.5, 0.5)" fill-opacity="1">wavelength</text><path fill="rgb(0,255,40)" stroke="none" paint-order="stroke" d="M 1140.2333374023438 73.5 L 1156.2333374023438 73.5 L 1156.2333374023438 89.5 L 1140.2333374023438 89.5 L 1140.2333374023438 73.5" fill-opacity="1" clip-path="url(#ptBVoZokpvlc)"/><path fill="rgb(216,17,89)" stroke="none" paint-order="stroke" d="M 1140.2333374023438 73.5 L 1156.2333374023438 73.5 L 1156.2333374023438 89.5 L 1140.2333374023438 89.5 L 1140.2333374023438 73.5" fill-opacity="1" clip-path="url(#ptBVoZokpvlc)"/><text fill="rgb(68,68,68)" stroke="none" font-family="helvetica" font-size="13px" font-style="normal" font-weight="normal" text-decoration="normal" x="1162.7333374023438" y="104" text-anchor="start" dominant-baseline="central" clip-path="url(#ptBVoZokpvlc)" transform="matrix(1, 0, 0, 1, 0.5, 0.5)" fill-opacity="1">solution</text><path fill="rgb(251,0,7)" stroke="none" paint-order="stroke" d="M 1140.2333374023438 96.5 L 1156.2333374023438 96.5 L 1156.2333374023438 112.5 L 1140.2333374023438 112.5 L 1140.2333374023438 96.5" fill-opacity="1" clip-path="url(#ptBVoZokpvlc)"/><path fill="rgb(33,131,128)" stroke="none" paint-order="stroke" d="M 1140.2333374023438 96.5 L 1156.2333374023438 96.5 L 1156.2333374023438 112.5 L 1140.2333374023438 112.5 L 1140.2333374023438 96.5" fill-opacity="1" clip-path="url(#ptBVoZokpvlc)"/><text fill="rgb(68,68,68)" stroke="none" font-family="helvetica" font-size="13px" font-style="normal" font-weight="normal" text-decoration="normal" x="1162.7333374023438" y="127" text-anchor="start" dominant-baseline="central" clip-path="url(#ptBVoZokpvlc)" transform="matrix(1, 0, 0, 1, 0.5, 0.5)" fill-opacity="1">laser</text><path fill="rgb(105,29,48)" stroke="none" paint-order="stroke" d="M 1140.2333374023438 119.5 L 1156.2333374023438 119.5 L 1156.2333374023438 135.5 L 1140.2333374023438 135.5 L 1140.2333374023438 119.5" fill-opacity="1" clip-path="url(#ptBVoZokpvlc)"/><text fill="rgb(68,68,68)" stroke="none" font-family="helvetica" font-size="13px" font-style="normal" font-weight="normal" text-decoration="normal" x="1162.7333374023438" y="150" text-anchor="start" dominant-baseline="central" clip-path="url(#ptBVoZokpvlc)" transform="matrix(1, 0, 0, 1, 0.5, 0.5)" fill-opacity="1">ruler</text><path fill="rgb(255,188,66)" stroke="none" paint-order="stroke" d="M 1140.2333374023438 142.5 L 1156.2333374023438 142.5 L 1156.2333374023438 158.5 L 1140.2333374023438 158.5 L 1140.2333374023438 142.5" fill-opacity="1" clip-path="url(#ptBVoZokpvlc)"/><text fill="rgb(68,68,68)" stroke="none" font-family="helvetica" font-size="13px" font-style="normal" font-weight="normal" text-decoration="normal" x="1162.7333374023438" y="173" text-anchor="start" dominant-baseline="central" clip-path="url(#ptBVoZokpvlc)" transform="matrix(1, 0, 0, 1, 0.5, 0.5)" fill-opacity="1">restarts</text><text fill="rgb(68,68,68)" stroke="none" font-family="helvetica" font-size="13px" font-style="normal" font-weight="normal" text-decoration="normal" x="1162.7333374023438" y="196" text-anchor="start" dominant-baseline="central" clip-path="url(#ptBVoZokpvlc)" transform="matrix(1, 0, 0, 1, 0.5, 0.5)" fill-opacity="1">transmittance_absorbance</text><path fill="rgb(162,174,187)" stroke="none" paint-order="stroke" d="M 1140.2333374023438 188.5 L 1156.2333374023438 188.5 L 1156.2333374023438 204.5 L 1140.2333374023438 204.5 L 1140.2333374023438 188.5" fill-opacity="1" clip-path="url(#ptBVoZokpvlc)"/><text fill="rgb(68,68,68)" stroke="none" font-family="helvetica" font-size="13px" font-style="normal" font-weight="normal" text-decoration="normal" x="1162.7333374023438" y="219" text-anchor="start" dominant-baseline="central" clip-path="url(#ptBVoZokpvlc)" transform="matrix(1, 0, 0, 1, 0.5, 0.5)" fill-opacity="1">magnifier</text><path fill="rgb(255,188,66)" stroke="none" paint-order="stroke" d="M 1140.2333374023438 211.5 L 1156.2333374023438 211.5 L 1156.2333374023438 227.5 L 1140.2333374023438 227.5 L 1140.2333374023438 211.5" fill-opacity="1" clip-path="url(#ptBVoZokpvlc)"/><text fill="rgb(68,68,68)" stroke="none" font-family="helvetica" font-size="13px" font-style="normal" font-weight="normal" text-decoration="normal" x="1162.7333374023438" y="242" text-anchor="start" dominant-baseline="central" clip-path="url(#ptBVoZokpvlc)" transform="matrix(1, 0, 0, 1, 0.5, 0.5)" fill-opacity="1">concentration</text><path fill="rgb(115,210,222)" stroke="none" paint-order="stroke" d="M 1140.2333374023438 234.5 L 1156.2333374023438 234.5 L 1156.2333374023438 250.5 L 1140.2333374023438 250.5 L 1140.2333374023438 234.5" fill-opacity="1" clip-path="url(#ptBVoZokpvlc)"/><text fill="rgb(68,68,68)" stroke="none" font-family="helvetica" font-size="13px" font-style="normal" font-weight="normal" text-decoration="normal" x="1162.7333374023438" y="265" text-anchor="start" dominant-baseline="central" clip-path="url(#ptBVoZokpvlc)" transform="matrix(1, 0, 0, 1, 0.5, 0.5)" fill-opacity="1">flask</text><path fill="rgb(28,49,68)" stroke="none" paint-order="stroke" d="M 1140.2333374023438 257.5 L 1156.2333374023438 257.5 L 1156.2333374023438 273.5 L 1140.2333374023438 273.5 L 1140.2333374023438 257.5" fill-opacity="1" clip-path="url(#ptBVoZokpvlc)"/><text fill="rgb(68,68,68)" stroke="none" font-family="helvetica" font-size="13px" font-style="normal" font-weight="normal" text-decoration="normal" x="1162.7333374023438" y="288" text-anchor="start" dominant-baseline="central" clip-path="url(#ptBVoZokpvlc)" transform="matrix(1, 0, 0, 1, 0.5, 0.5)" fill-opacity="1">pdf</text><path fill="rgb(239,185,203)" stroke="none" paint-order="stroke" d="M 1140.2333374023438 280.5 L 1156.2333374023438 280.5 L 1156.2333374023438 296.5 L 1140.2333374023438 296.5 L 1140.2333374023438 280.5" fill-opacity="1" clip-path="url(#ptBVoZokpvlc)"/><text fill="rgb(68,68,68)" stroke="none" font-family="helvetica" font-size="13px" font-style="normal" font-weight="normal" text-decoration="normal" x="1162.7333374023438" y="311" text-anchor="start" dominant-baseline="central" clip-path="url(#ptBVoZokpvlc)" transform="matrix(1, 0, 0, 1, 0.5, 0.5)" fill-opacity="1">concentrationlab</text><text fill="rgb(68,68,68)" stroke="none" font-family="helvetica" font-size="13px" font-style="normal" font-weight="normal" text-decoration="normal" x="1162.7333374023438" y="334" text-anchor="start" dominant-baseline="central" clip-path="url(#ptBVoZokpvlc)" transform="matrix(1, 0, 0, 1, 0.5, 0.5)" fill-opacity="1">wavelength_slider</text><path fill="rgb(105,29,48)" stroke="none" paint-order="stroke" d="M 1140.2333374023438 326.5 L 1156.2333374023438 326.5 L 1156.2333374023438 342.5 L 1140.2333374023438 342.5 L 1140.2333374023438 326.5" fill-opacity="1" clip-path="url(#ptBVoZokpvlc)"/><text fill="rgb(68,68,68)" stroke="none" font-family="helvetica" font-size="13px" font-style="normal" font-weight="normal" text-decoration="normal" x="1162.7333374023438" y="357" text-anchor="start" dominant-baseline="central" clip-path="url(#ptBVoZokpvlc)" transform="matrix(1, 0, 0, 1, 0.5, 0.5)" fill-opacity="1">ruler measuring</text><path fill="rgb(255,188,66)" stroke="none" paint-order="stroke" d="M 1140.2333374023438 349.5 L 1156.2333374023438 349.5 L 1156.2333374023438 365.5 L 1140.2333374023438 365.5 L 1140.2333374023438 349.5" fill-opacity="1" clip-path="url(#ptBVoZokpvlc)"/><text fill="rgb(68,68,68)" stroke="none" font-family="helvetica" font-size="13px" font-style="normal" font-weight="normal" text-decoration="normal" x="1162.7333374023438" y="380" text-anchor="start" dominant-baseline="central" clip-path="url(#ptBVoZokpvlc)" transform="matrix(1, 0, 0, 1, 0.5, 0.5)" fill-opacity="1">dependent variable</text><path fill="rgb(143,45,86)" stroke="none" paint-order="stroke" d="M 1140.2333374023438 372.5 L 1156.2333374023438 372.5 L 1156.2333374023438 388.5 L 1140.2333374023438 388.5 L 1140.2333374023438 372.5" fill-opacity="1" clip-path="url(#ptBVoZokpvlc)"/><text fill="rgb(68,68,68)" stroke="none" font-family="helvetica" font-size="25pt" font-style="normal" font-weight="bold" text-decoration="normal" x="58" y="38.740885416666664" text-anchor="start" dominant-baseline="alphabetic" transform="matrix(1, 0, 0, 1, 0.5, 0.5)" fill-opacity="1">Timeline for student araav4jr with permutation 2130 for task 2</text></svg>