<svg version="1.1" xmlns="http://www.w3.org/2000/svg" width="1366" height="683"><defs><clipPath id="icBUsQQTsLQe"><path fill="none" stroke="none" d="M 58.5 51.5 L 1336.5 51.5 L 1336.5 630.5 L 58.5 630.5 L 58.5 51.5"/></clipPath><clipPath id="hmhymoodkuOM"><path fill="none" stroke="none" d="M 58.5 51.5 L 1336.5 51.5 L 1336.5 630.5 L 58.5 630.5 L 58.5 51.5"/></clipPath><clipPath id="DihCMztnLmiC"><path fill="none" stroke="none" d="M 58.5 51.5 L 1336.5 51.5 L 1336.5 630.5 L 58.5 630.5 L 58.5 51.5"/></clipPath><clipPath id="WmFNVilBQrZV"><path fill="none" stroke="none" d="M 58.5 51.5 L 1336.5 51.5 L 1336.5 630.5 L 58.5 630.5 L 58.5 51.5"/></clipPath><clipPath id="svOrqlbbTSfx"><path fill="none" stroke="none" d="M 58.5 51.5 L 1336.5 51.5 L 1336.5 630.5 L 58.5 630.5 L 58.5 51.5"/></clipPath><clipPath id="GVkBTnBJwTRP"><path fill="none" stroke="none" d="M 58.5 51.5 L 1336.5 51.5 L 1336.5 630.5 L 58.5 630.5 L 58.5 51.5"/></clipPath><clipPath id="JkVaAEQzpJyk"><path fill="none" stroke="none" d="M 58.5 51.5 L 1336.5 51.5 L 1336.5 630.5 L 58.5 630.5 L 58.5 51.5"/></clipPath><clipPath id="bdbCqXzkimVQ"><path fill="none" stroke="none" d="M 58.5 51.5 L 1336.5 51.5 L 1336.5 630.5 L 58.5 630.5 L 58.5 51.5"/></clipPath><clipPath id="FZgZzLZzJROS"><path fill="none" stroke="none" d="M 58.5 51.5 L 1336.5 51.5 L 1336.5 630.5 L 58.5 630.5 L 58.5 51.5"/></clipPath><clipPath id="NhalTwGCNnDq"><path fill="none" stroke="none" d="M 58.5 51.5 L 1336.5 51.5 L 1336.5 630.5 L 58.5 630.5 L 58.5 51.5"/></clipPath><clipPath id="zzufZZdruqfV"><path fill="none" stroke="none" d="M 58.5 51.5 L 1336.5 51.5 L 1336.5 630.5 L 58.5 630.5 L 58.5 51.5"/></clipPath><clipPath id="BzayyxgCNmsi"><path fill="none" stroke="none" d="M 58.5 51.5 L 1336.5 51.5 L 1336.5 630.5 L 58.5 630.5 L 58.5 51.5"/></clipPath><clipPath id="AkRNSJlRGHcW"><path fill="none" stroke="none" d="M 58.5 51.5 L 1336.5 51.5 L 1336.5 630.5 L 58.5 630.5 L 58.5 51.5"/></clipPath><clipPath id="yaxfLSARAvbJ"><path fill="none" stroke="none" d="M 58.5 51.5 L 1336.5 51.5 L 1336.5 630.5 L 58.5 630.5 L 58.5 51.5"/></clipPath><clipPath id="fBMUvCFPBhZM"><path fill="none" stroke="none" d="M 58.5 51.5 L 1336.5 51.5 L 1336.5 630.5 L 58.5 630.5 L 58.5 51.5"/></clipPath><clipPath id="VhJHMGEgXOKT"><path fill="none" stroke="none" d="M 58.5 51.5 L 1336.5 51.5 L 1336.5 630.5 L 58.5 630.5 L 58.5 51.5"/></clipPath><clipPath id="dDnnLuHJTJqc"><path fill="none" stroke="none" d="M 58.5 51.5 L 1336.5 51.5 L 1336.5 630.5 L 58.5 630.5 L 58.5 51.5"/></clipPath><clipPath id="hDXwLGgcylaR"><path fill="none" stroke="none" d="M 58.5 51.5 L 1336.5 51.5 L 1336.5 630.5 L 58.5 630.5 L 58.5 51.5"/></clipPath><clipPath id="upMoCrxlVsBg"><path fill="none" stroke="none" d="M 58.5 51.5 L 1336.5 51.5 L 1336.5 630.5 L 58.5 630.5 L 58.5 51.5"/></clipPath><clipPath id="RLwCoFXBnnmm"><path fill="none" stroke="none" d="M 58.5 51.5 L 1336.5 51.5 L 1336.5 630.5 L 58.5 630.5 L 58.5 51.5"/></clipPath><clipPath id="CLpzSrVzTnAz"><path fill="none" stroke="none" d="M 58.5 51.5 L 1336.5 51.5 L 1336.5 630.5 L 58.5 630.5 L 58.5 51.5"/></clipPath></defs><path fill="rgb(255,255,255)" stroke="none" paint-order="stroke" d="M 0.5 0.5 L 1366.5 0.5 L 1366.5 683.5 L 0.5 683.5 L 0.5 0.5" fill-opacity="1"/><rect fill="#FFFFFF" stroke="none" x="58" y="51" width="1278" height="579" transform="matrix(1, 0, 0, 1, 0.5, 0.5)"/><path fill="rgb(255,255,255)" stroke="none" paint-order="stroke" d="M 58.5 51.5 L 1336.5 51.5 L 1336.5 630.5 L 58.5 630.5 L 58.5 51.5" fill-opacity="1"/><path fill="none" stroke="rgb(229,229,229)" paint-order="fill" d="M 58.5 51.5 L 1336.5 51.5 L 1336.5 630.5 L 58.5 630.5 L 58.5 51.5" stroke-opacity="1" stroke-linejoin="bevel" stroke-miterlimit="10" stroke-dasharray=""/><path fill="none" stroke="rgb(229,229,229)" paint-order="fill" d="M 314.5 630.5 L 314.5 51.5 M 569.5 630.5 L 569.5 51.5 M 825.5 630.5 L 825.5 51.5 M 1080.5 630.5 L 1080.5 51.5" stroke-opacity="1" stroke-linejoin="bevel" stroke-miterlimit="10" stroke-dasharray="" clip-path="url(#icBUsQQTsLQe)"/><path fill="none" stroke="rgb(229,229,229)" paint-order="fill" d="M 58.5 551.5 L 1336.5 551.5 M 58.5 446.5 L 1336.5 446.5 M 58.5 341.5 L 1336.5 341.5 M 58.5 235.5 L 1336.5 235.5 M 58.5 130.5 L 1336.5 130.5" stroke-opacity="1" stroke-linejoin="bevel" stroke-miterlimit="10" stroke-dasharray="" clip-path="url(#hmhymoodkuOM)"/><path fill="rgb(0,255,40)" stroke="none" paint-order="stroke" d="M 58.5 77.81818389892578 L 96.81699752807617 77.81818389892578 L 96.81699752807617 130.45454788208008 L 58.5 130.45454788208008 L 58.5 77.81818389892578" fill-opacity="1" clip-path="url(#DihCMztnLmiC)"/><path fill="rgb(159,255,0)" stroke="none" paint-order="stroke" d="M 96.8169937133789 77.81818389892578 L 108.28704357147217 77.81818389892578 L 108.28704357147217 130.45454788208008 L 96.8169937133789 130.45454788208008 L 96.8169937133789 77.81818389892578" fill-opacity="1" clip-path="url(#DihCMztnLmiC)"/><path fill="rgb(110,0,132)" stroke="none" paint-order="stroke" d="M 108.28704833984375 77.81818389892578 L 111.44626426696777 77.81818389892578 L 111.44626426696777 130.45454788208008 L 108.28704833984375 130.45454788208008 L 108.28704833984375 77.81818389892578" fill-opacity="1" clip-path="url(#DihCMztnLmiC)"/><path fill="rgb(42,0,238)" stroke="none" paint-order="stroke" d="M 111.44625854492188 77.81818389892578 L 113.64441847801208 77.81818389892578 L 113.64441847801208 130.45454788208008 L 111.44625854492188 130.45454788208008 L 111.44625854492188 77.81818389892578" fill-opacity="1" clip-path="url(#DihCMztnLmiC)"/><path fill="rgb(0,0,0)" stroke="none" paint-order="stroke" d="M 113.64442443847656 77.81818389892578 L 115.69944834709167 77.81818389892578 L 115.69944834709167 130.45454788208008 L 113.64442443847656 130.45454788208008 L 113.64442443847656 77.81818389892578" fill-opacity="1" clip-path="url(#DihCMztnLmiC)"/><path fill="rgb(143,255,0)" stroke="none" paint-order="stroke" d="M 115.69944763183594 77.81818389892578 L 122.28370380401611 77.81818389892578 L 122.28370380401611 130.45454788208008 L 115.69944763183594 130.45454788208008 L 115.69944763183594 77.81818389892578" fill-opacity="1" clip-path="url(#DihCMztnLmiC)"/><path fill="rgb(0,255,40)" stroke="none" paint-order="stroke" d="M 122.28369903564453 77.81818389892578 L 136.89123916625977 77.81818389892578 L 136.89123916625977 130.45454788208008 L 122.28369903564453 130.45454788208008 L 122.28369903564453 77.81818389892578" fill-opacity="1" clip-path="url(#DihCMztnLmiC)"/><path fill="rgb(0,255,97)" stroke="none" paint-order="stroke" d="M 136.8912353515625 77.81818389892578 L 137.0394833534956 77.81818389892578 L 137.0394833534956 130.45454788208008 L 136.8912353515625 130.45454788208008 L 136.8912353515625 77.81818389892578" fill-opacity="1" clip-path="url(#DihCMztnLmiC)"/><path fill="rgb(0,255,134)" stroke="none" paint-order="stroke" d="M 137.03948974609375 77.81818389892578 L 137.10211174935102 77.81818389892578 L 137.10211174935102 130.45454788208008 L 137.03948974609375 130.45454788208008 L 137.03948974609375 77.81818389892578" fill-opacity="1" clip-path="url(#DihCMztnLmiC)"/><path fill="rgb(0,255,97)" stroke="none" paint-order="stroke" d="M 137.10211181640625 77.81818389892578 L 137.12383781559765 77.81818389892578 L 137.12383781559765 130.45454788208008 L 137.10211181640625 130.45454788208008 L 137.10211181640625 77.81818389892578" fill-opacity="1" clip-path="url(#DihCMztnLmiC)"/><path fill="rgb(40,255,0)" stroke="none" paint-order="stroke" d="M 137.12384033203125 77.81818389892578 L 137.14556633122265 77.81818389892578 L 137.14556633122265 130.45454788208008 L 137.12384033203125 130.45454788208008 L 137.12384033203125 77.81818389892578" fill-opacity="1" clip-path="url(#DihCMztnLmiC)"/><path fill="rgb(53,255,0)" stroke="none" paint-order="stroke" d="M 137.14556884765625 77.81818389892578 L 137.16729484684765 77.81818389892578 L 137.16729484684765 130.45454788208008 L 137.14556884765625 130.45454788208008 L 137.14556884765625 77.81818389892578" fill-opacity="1" clip-path="url(#DihCMztnLmiC)"/><path fill="rgb(66,255,0)" stroke="none" paint-order="stroke" d="M 137.16729736328125 77.81818389892578 L 137.29509736597538 77.81818389892578 L 137.29509736597538 130.45454788208008 L 137.16729736328125 130.45454788208008 L 137.16729736328125 77.81818389892578" fill-opacity="1" clip-path="url(#DihCMztnLmiC)"/><path fill="rgb(78,255,0)" stroke="none" paint-order="stroke" d="M 137.2950897216797 77.81818389892578 L 137.31553772091866 77.81818389892578 L 137.31553772091866 130.45454788208008 L 137.2950897216797 130.45454788208008 L 137.2950897216797 77.81818389892578" fill-opacity="1" clip-path="url(#DihCMztnLmiC)"/><path fill="rgb(89,255,0)" stroke="none" paint-order="stroke" d="M 137.31553649902344 77.81818389892578 L 137.33726249821484 77.81818389892578 L 137.33726249821484 130.45454788208008 L 137.31553649902344 130.45454788208008 L 137.31553649902344 77.81818389892578" fill-opacity="1" clip-path="url(#DihCMztnLmiC)"/><path fill="rgb(101,255,0)" stroke="none" paint-order="stroke" d="M 137.33726501464844 77.81818389892578 L 137.35899101383984 77.81818389892578 L 137.35899101383984 130.45454788208008 L 137.33726501464844 130.45454788208008 L 137.33726501464844 77.81818389892578" fill-opacity="1" clip-path="url(#DihCMztnLmiC)"/><path fill="rgb(111,255,0)" stroke="none" paint-order="stroke" d="M 137.35899353027344 77.81818389892578 L 137.3794415295124 77.81818389892578 L 137.3794415295124 130.45454788208008 L 137.35899353027344 130.45454788208008 L 137.35899353027344 77.81818389892578" fill-opacity="1" clip-path="url(#DihCMztnLmiC)"/><path fill="rgb(122,255,0)" stroke="none" paint-order="stroke" d="M 137.3794403076172 77.81818389892578 L 137.39988830685616 77.81818389892578 L 137.39988830685616 130.45454788208008 L 137.3794403076172 130.45454788208008 L 137.3794403076172 77.81818389892578" fill-opacity="1" clip-path="url(#DihCMztnLmiC)"/><path fill="rgb(132,255,0)" stroke="none" paint-order="stroke" d="M 137.39988708496094 77.81818389892578 L 137.44333908334374 77.81818389892578 L 137.44333908334374 130.45454788208008 L 137.39988708496094 130.45454788208008 L 137.39988708496094 77.81818389892578" fill-opacity="1" clip-path="url(#DihCMztnLmiC)"/><path fill="rgb(153,255,0)" stroke="none" paint-order="stroke" d="M 137.44334411621094 77.81818389892578 L 137.46507011540234 77.81818389892578 L 137.46507011540234 130.45454788208008 L 137.44334411621094 130.45454788208008 L 137.44334411621094 77.81818389892578" fill-opacity="1" clip-path="url(#DihCMztnLmiC)"/><path fill="rgb(172,255,0)" stroke="none" paint-order="stroke" d="M 137.46505737304688 77.81818389892578 L 137.48550537228584 77.81818389892578 L 137.48550537228584 130.45454788208008 L 137.46505737304688 130.45454788208008 L 137.46505737304688 77.81818389892578" fill-opacity="1" clip-path="url(#DihCMztnLmiC)"/><path fill="rgb(191,255,0)" stroke="none" paint-order="stroke" d="M 137.4855194091797 77.81818389892578 L 137.59287141263485 77.81818389892578 L 137.59287141263485 130.45454788208008 L 137.4855194091797 130.45454788208008 L 137.4855194091797 77.81818389892578" fill-opacity="1" clip-path="url(#DihCMztnLmiC)"/><path fill="rgb(201,255,0)" stroke="none" paint-order="stroke" d="M 137.59286499023438 77.81818389892578 L 137.61331298947334 77.81818389892578 L 137.61331298947334 130.45454788208008 L 137.59286499023438 130.45454788208008 L 137.59286499023438 77.81818389892578" fill-opacity="1" clip-path="url(#DihCMztnLmiC)"/><path fill="rgb(210,255,0)" stroke="none" paint-order="stroke" d="M 137.61331176757812 77.81818389892578 L 137.6337597668171 77.81818389892578 L 137.6337597668171 130.45454788208008 L 137.61331176757812 130.45454788208008 L 137.61331176757812 77.81818389892578" fill-opacity="1" clip-path="url(#DihCMztnLmiC)"/><path fill="rgb(219,255,0)" stroke="none" paint-order="stroke" d="M 137.63375854492188 77.81818389892578 L 137.6759325452149 77.81818389892578 L 137.6759325452149 130.45454788208008 L 137.63375854492188 130.45454788208008 L 137.63375854492188 77.81818389892578" fill-opacity="1" clip-path="url(#DihCMztnLmiC)"/><path fill="rgb(231,255,0)" stroke="none" paint-order="stroke" d="M 137.67593383789062 77.81818389892578 L 137.69765983708203 77.81818389892578 L 137.69765983708203 130.45454788208008 L 137.67593383789062 130.45454788208008 L 137.67593383789062 77.81818389892578" fill-opacity="1" clip-path="url(#DihCMztnLmiC)"/><path fill="rgb(240,255,0)" stroke="none" paint-order="stroke" d="M 137.69766235351562 77.81818389892578 L 137.73983635380864 77.81818389892578 L 137.73983635380864 130.45454788208008 L 137.69766235351562 130.45454788208008 L 137.69766235351562 77.81818389892578" fill-opacity="1" clip-path="url(#DihCMztnLmiC)"/><path fill="rgb(255,251,0)" stroke="none" paint-order="stroke" d="M 137.73983764648438 77.81818389892578 L 138.01844164729118 77.81818389892578 L 138.01844164729118 130.45454788208008 L 137.73983764648438 130.45454788208008 L 137.73983764648438 77.81818389892578" fill-opacity="1" clip-path="url(#DihCMztnLmiC)"/><path fill="rgb(255,242,0)" stroke="none" paint-order="stroke" d="M 138.0184326171875 77.81818389892578 L 138.1654026210308 77.81818389892578 L 138.1654026210308 130.45454788208008 L 138.0184326171875 130.45454788208008 L 138.0184326171875 77.81818389892578" fill-opacity="1" clip-path="url(#DihCMztnLmiC)"/><path fill="rgb(255,251,0)" stroke="none" paint-order="stroke" d="M 138.1654052734375 77.81818389892578 L 138.1871312726289 77.81818389892578 L 138.1871312726289 130.45454788208008 L 138.1654052734375 130.45454788208008 L 138.1654052734375 77.81818389892578" fill-opacity="1" clip-path="url(#DihCMztnLmiC)"/><path fill="rgb(249,255,0)" stroke="none" paint-order="stroke" d="M 138.1871337890625 77.81818389892578 L 138.20758178830147 77.81818389892578 L 138.20758178830147 130.45454788208008 L 138.1871337890625 130.45454788208008 L 138.1871337890625 77.81818389892578" fill-opacity="1" clip-path="url(#DihCMztnLmiC)"/><path fill="rgb(240,255,0)" stroke="none" paint-order="stroke" d="M 138.20758056640625 77.81818389892578 L 138.2305845655501 77.81818389892578 L 138.2305845655501 130.45454788208008 L 138.20758056640625 130.45454788208008 L 138.20758056640625 77.81818389892578" fill-opacity="1" clip-path="url(#DihCMztnLmiC)"/><path fill="rgb(231,255,0)" stroke="none" paint-order="stroke" d="M 138.2305908203125 77.81818389892578 L 138.27276482060552 77.81818389892578 L 138.27276482060552 130.45454788208008 L 138.2305908203125 130.45454788208008 L 138.2305908203125 77.81818389892578" fill-opacity="1" clip-path="url(#DihCMztnLmiC)"/><path fill="rgb(219,255,0)" stroke="none" paint-order="stroke" d="M 138.27276611328125 77.81818389892578 L 138.5053621083498 77.81818389892578 L 138.5053621083498 130.45454788208008 L 138.27276611328125 130.45454788208008 L 138.27276611328125 77.81818389892578" fill-opacity="1" clip-path="url(#DihCMztnLmiC)"/><path fill="rgb(210,255,0)" stroke="none" paint-order="stroke" d="M 138.50535583496094 77.81818389892578 L 138.5258038341999 77.81818389892578 L 138.5258038341999 130.45454788208008 L 138.50535583496094 130.45454788208008 L 138.50535583496094 77.81818389892578" fill-opacity="1" clip-path="url(#DihCMztnLmiC)"/><path fill="rgb(201,255,0)" stroke="none" paint-order="stroke" d="M 138.5258026123047 77.81818389892578 L 138.5679766125977 77.81818389892578 L 138.5679766125977 130.45454788208008 L 138.5258026123047 130.45454788208008 L 138.5258026123047 77.81818389892578" fill-opacity="1" clip-path="url(#DihCMztnLmiC)"/><path fill="rgb(191,255,0)" stroke="none" paint-order="stroke" d="M 138.56797790527344 77.81818389892578 L 138.58970390446484 77.81818389892578 L 138.58970390446484 130.45454788208008 L 138.56797790527344 130.45454788208008 L 138.56797790527344 77.81818389892578" fill-opacity="1" clip-path="url(#DihCMztnLmiC)"/><path fill="rgb(172,255,0)" stroke="none" paint-order="stroke" d="M 138.58970642089844 77.81818389892578 L 139.29132843017578 77.81818389892578 L 139.29132843017578 130.45454788208008 L 138.58970642089844 130.45454788208008 L 138.58970642089844 77.81818389892578" fill-opacity="1" clip-path="url(#DihCMztnLmiC)"/><path fill="rgb(153,255,0)" stroke="none" paint-order="stroke" d="M 139.29132080078125 77.81818389892578 L 139.35522080212831 77.81818389892578 L 139.35522080212831 130.45454788208008 L 139.29132080078125 130.45454788208008 L 139.29132080078125 77.81818389892578" fill-opacity="1" clip-path="url(#DihCMztnLmiC)"/><path fill="rgb(132,255,0)" stroke="none" paint-order="stroke" d="M 139.355224609375 77.81818389892578 L 139.37567260861397 77.81818389892578 L 139.37567260861397 130.45454788208008 L 139.355224609375 130.45454788208008 L 139.355224609375 77.81818389892578" fill-opacity="1" clip-path="url(#DihCMztnLmiC)"/><path fill="rgb(122,255,0)" stroke="none" paint-order="stroke" d="M 139.37567138671875 77.81818389892578 L 139.46001938730478 77.81818389892578 L 139.46001938730478 130.45454788208008 L 139.37567138671875 130.45454788208008 L 139.37567138671875 77.81818389892578" fill-opacity="1" clip-path="url(#DihCMztnLmiC)"/><path fill="rgb(111,255,0)" stroke="none" paint-order="stroke" d="M 139.46002197265625 77.81818389892578 L 139.50475197285414 77.81818389892578 L 139.50475197285414 130.45454788208008 L 139.46002197265625 130.45454788208008 L 139.46002197265625 77.81818389892578" fill-opacity="1" clip-path="url(#DihCMztnLmiC)"/><path fill="rgb(101,255,0)" stroke="none" paint-order="stroke" d="M 139.50474548339844 77.81818389892578 L 139.61081948131323 77.81818389892578 L 139.61081948131323 130.45454788208008 L 139.50474548339844 130.45454788208008 L 139.50474548339844 77.81818389892578" fill-opacity="1" clip-path="url(#DihCMztnLmiC)"/><path fill="rgb(89,255,0)" stroke="none" paint-order="stroke" d="M 139.61082458496094 77.81818389892578 L 139.73734658956528 77.81818389892578 L 139.73734658956528 130.45454788208008 L 139.61082458496094 130.45454788208008 L 139.61082458496094 77.81818389892578" fill-opacity="1" clip-path="url(#DihCMztnLmiC)"/><path fill="rgb(78,255,0)" stroke="none" paint-order="stroke" d="M 139.7373504638672 77.81818389892578 L 139.80125046521425 77.81818389892578 L 139.80125046521425 130.45454788208008 L 139.7373504638672 130.45454788208008 L 139.7373504638672 77.81818389892578" fill-opacity="1" clip-path="url(#DihCMztnLmiC)"/><path fill="rgb(66,255,0)" stroke="none" paint-order="stroke" d="M 139.80125427246094 77.81818389892578 L 140.3968022465706 77.81818389892578 L 140.3968022465706 130.45454788208008 L 139.80125427246094 130.45454788208008 L 139.80125427246094 77.81818389892578" fill-opacity="1" clip-path="url(#DihCMztnLmiC)"/><path fill="rgb(40,255,0)" stroke="none" paint-order="stroke" d="M 140.39678955078125 77.81818389892578 L 141.0127855539322 77.81818389892578 L 141.0127855539322 130.45454788208008 L 140.39678955078125 130.45454788208008 L 140.39678955078125 77.81818389892578" fill-opacity="1" clip-path="url(#DihCMztnLmiC)"/><path fill="rgb(53,255,0)" stroke="none" paint-order="stroke" d="M 141.01278686523438 77.81818389892578 L 141.16103486716747 77.81818389892578 L 141.16103486716747 130.45454788208008 L 141.01278686523438 130.45454788208008 L 141.01278686523438 77.81818389892578" fill-opacity="1" clip-path="url(#DihCMztnLmiC)"/><path fill="rgb(66,255,0)" stroke="none" paint-order="stroke" d="M 141.16104125976562 77.81818389892578 L 141.45881524682045 77.81818389892578 L 141.45881524682045 130.45454788208008 L 141.16104125976562 130.45454788208008 L 141.16104125976562 77.81818389892578" fill-opacity="1" clip-path="url(#DihCMztnLmiC)"/><path fill="rgb(78,255,0)" stroke="none" paint-order="stroke" d="M 141.4588165283203 77.81818389892578 L 141.98918652534485 77.81818389892578 L 141.98918652534485 130.45454788208008 L 141.4588165283203 130.45454788208008 L 141.4588165283203 77.81818389892578" fill-opacity="1" clip-path="url(#DihCMztnLmiC)"/><path fill="rgb(66,255,0)" stroke="none" paint-order="stroke" d="M 141.9891815185547 77.81818389892578 L 142.05180352181196 77.81818389892578 L 142.05180352181196 130.45454788208008 L 141.9891815185547 130.45454788208008 L 141.9891815185547 77.81818389892578" fill-opacity="1" clip-path="url(#DihCMztnLmiC)"/><path fill="rgb(53,255,0)" stroke="none" paint-order="stroke" d="M 142.0518035888672 77.81818389892578 L 142.09525558725 77.81818389892578 L 142.09525558725 130.45454788208008 L 142.0518035888672 130.45454788208008 L 142.0518035888672 77.81818389892578" fill-opacity="1" clip-path="url(#DihCMztnLmiC)"/><path fill="rgb(40,255,0)" stroke="none" paint-order="stroke" d="M 142.0952606201172 77.81818389892578 L 142.180886618793 77.81818389892578 L 142.180886618793 130.45454788208008 L 142.0952606201172 130.45454788208008 L 142.0952606201172 77.81818389892578" fill-opacity="1" clip-path="url(#DihCMztnLmiC)"/><path fill="rgb(25,255,0)" stroke="none" paint-order="stroke" d="M 142.18087768554688 77.81818389892578 L 142.69079971313477 77.81818389892578 L 142.69079971313477 130.45454788208008 L 142.18087768554688 130.45454788208008 L 142.18087768554688 77.81818389892578" fill-opacity="1" clip-path="url(#DihCMztnLmiC)"/><path fill="rgb(40,255,0)" stroke="none" paint-order="stroke" d="M 142.69081115722656 77.81818389892578 L 142.90295915305614 77.81818389892578 L 142.90295915305614 130.45454788208008 L 142.69081115722656 130.45454788208008 L 142.69081115722656 77.81818389892578" fill-opacity="1" clip-path="url(#DihCMztnLmiC)"/><path fill="rgb(53,255,0)" stroke="none" paint-order="stroke" d="M 142.9029541015625 77.81818389892578 L 191.39027404785156 77.81818389892578 L 191.39027404785156 130.45454788208008 L 142.9029541015625 130.45454788208008 L 142.9029541015625 77.81818389892578" fill-opacity="1" clip-path="url(#DihCMztnLmiC)"/><path fill="rgb(251,0,7)" stroke="none" paint-order="stroke" d="M 58.5 130.4545440673828 L 96.81699752807617 130.4545440673828 L 96.81699752807617 183.0909080505371 L 58.5 183.0909080505371 L 58.5 130.4545440673828" fill-opacity="1" clip-path="url(#WmFNVilBQrZV)"/><path fill="rgb(251,0,7)" stroke="none" paint-order="stroke" d="M 96.8169937133789 130.4545440673828 L 104.80065965652466 130.4545440673828 L 104.80065965652466 183.0909080505371 L 96.8169937133789 183.0909080505371 L 96.8169937133789 130.4545440673828" fill-opacity="1" clip-path="url(#WmFNVilBQrZV)"/><path fill="rgb(237,115,111)" stroke="none" paint-order="stroke" d="M 104.8006591796875 130.4545440673828 L 108.28704309463501 130.4545440673828 L 108.28704309463501 183.0909080505371 L 104.8006591796875 183.0909080505371 L 104.8006591796875 130.4545440673828" fill-opacity="1" clip-path="url(#WmFNVilBQrZV)"/><path fill="rgb(252,105,8)" stroke="none" paint-order="stroke" d="M 108.28704833984375 130.4545440673828 L 111.44626426696777 130.4545440673828 L 111.44626426696777 183.0909080505371 L 108.28704833984375 183.0909080505371 L 108.28704833984375 130.4545440673828" fill-opacity="1" clip-path="url(#WmFNVilBQrZV)"/><path fill="rgb(56,126,34)" stroke="none" paint-order="stroke" d="M 111.44625854492188 130.4545440673828 L 113.64441847801208 130.4545440673828 L 113.64441847801208 183.0909080505371 L 111.44625854492188 183.0909080505371 L 111.44625854492188 130.4545440673828" fill-opacity="1" clip-path="url(#WmFNVilBQrZV)"/><path fill="rgb(27,121,255)" stroke="none" paint-order="stroke" d="M 113.64442443847656 130.4545440673828 L 115.69944834709167 130.4545440673828 L 115.69944834709167 183.0909080505371 L 113.64442443847656 183.0909080505371 L 113.64442443847656 130.4545440673828" fill-opacity="1" clip-path="url(#WmFNVilBQrZV)"/><path fill="rgb(62,0,101)" stroke="none" paint-order="stroke" d="M 115.69944763183594 130.4545440673828 L 122.28370380401611 130.4545440673828 L 122.28370380401611 183.0909080505371 L 115.69944763183594 183.0909080505371 L 115.69944763183594 130.4545440673828" fill-opacity="1" clip-path="url(#WmFNVilBQrZV)"/><path fill="rgb(251,0,7)" stroke="none" paint-order="stroke" d="M 122.28369903564453 130.4545440673828 L 191.39027404785156 130.4545440673828 L 191.39027404785156 183.0909080505371 L 122.28369903564453 183.0909080505371 L 122.28369903564453 130.4545440673828" fill-opacity="1" clip-path="url(#WmFNVilBQrZV)"/><path fill="rgb(105,29,48)" stroke="none" paint-order="stroke" d="M 146.1439666748047 183.09091186523438 L 146.20786667615175 183.09091186523438 L 146.20786667615175 498.9090881347656 L 146.1439666748047 498.9090881347656 L 146.1439666748047 183.09091186523438" fill-opacity="1" clip-path="url(#svOrqlbbTSfx)"/><path fill="rgb(255,188,66)" stroke="none" paint-order="stroke" d="M 65.78843688964844 183.09091186523438 L 68.84413480758667 183.09091186523438 L 68.84413480758667 498.9090881347656 L 65.78843688964844 498.9090881347656 L 65.78843688964844 183.09091186523438" fill-opacity="1" clip-path="url(#GVkBTnBJwTRP)"/><path fill="rgb(255,188,66)" stroke="none" paint-order="stroke" d="M 69.65310668945312 183.09091186523438 L 71.49087071418762 183.09091186523438 L 71.49087071418762 498.9090881347656 L 69.65310668945312 498.9090881347656 L 69.65310668945312 183.09091186523438" fill-opacity="1" clip-path="url(#GVkBTnBJwTRP)"/><path fill="rgb(216,17,89)" stroke="none" paint-order="stroke" d="M 135.90206909179688 183.09091186523438 L 135.96596909314394 183.09091186523438 L 135.96596909314394 498.9090881347656 L 135.90206909179688 498.9090881347656 L 135.90206909179688 183.09091186523438" fill-opacity="1" clip-path="url(#NhalTwGCNnDq)"/><path fill="rgb(216,17,89)" stroke="none" paint-order="stroke" d="M 135.90206909179688 183.09091186523438 L 135.96596909314394 183.09091186523438 L 135.96596909314394 498.9090881347656 L 135.90206909179688 498.9090881347656 L 135.90206909179688 183.09091186523438" fill-opacity="1" clip-path="url(#NhalTwGCNnDq)"/><path fill="rgb(33,131,128)" stroke="none" paint-order="stroke" d="M 92.48457336425781 183.09091186523438 L 94.33128333091736 183.09091186523438 L 94.33128333091736 498.9090881347656 L 92.48457336425781 498.9090881347656 L 92.48457336425781 183.09091186523438" fill-opacity="1" clip-path="url(#zzufZZdruqfV)"/><path fill="rgb(33,131,128)" stroke="none" paint-order="stroke" d="M 95.9211196899414 183.09091186523438 L 96.8169977068901 183.09091186523438 L 96.8169977068901 498.9090881347656 L 95.9211196899414 498.9090881347656 L 95.9211196899414 183.09091186523438" fill-opacity="1" clip-path="url(#zzufZZdruqfV)"/><path fill="rgb(33,131,128)" stroke="none" paint-order="stroke" d="M 103.60829162597656 183.09091186523438 L 104.80066561698914 183.09091186523438 L 104.80066561698914 498.9090881347656 L 103.60829162597656 498.9090881347656 L 103.60829162597656 183.09091186523438" fill-opacity="1" clip-path="url(#zzufZZdruqfV)"/><path fill="rgb(33,131,128)" stroke="none" paint-order="stroke" d="M 107.19563293457031 183.09091186523438 L 108.28704488277435 183.09091186523438 L 108.28704488277435 498.9090881347656 L 107.19563293457031 498.9090881347656 L 107.19563293457031 183.09091186523438" fill-opacity="1" clip-path="url(#zzufZZdruqfV)"/><path fill="rgb(33,131,128)" stroke="none" paint-order="stroke" d="M 110.5695571899414 183.09091186523438 L 111.44626516103745 183.09091186523438 L 111.44626516103745 498.9090881347656 L 110.5695571899414 498.9090881347656 L 110.5695571899414 183.09091186523438" fill-opacity="1" clip-path="url(#zzufZZdruqfV)"/><path fill="rgb(33,131,128)" stroke="none" paint-order="stroke" d="M 112.84950256347656 183.09091186523438 L 113.64441853761673 183.09091186523438 L 113.64441853761673 498.9090881347656 L 112.84950256347656 498.9090881347656 L 112.84950256347656 183.09091186523438" fill-opacity="1" clip-path="url(#zzufZZdruqfV)"/><path fill="rgb(33,131,128)" stroke="none" paint-order="stroke" d="M 114.53902435302734 183.09091186523438 L 115.69944834709167 183.09091186523438 L 115.69944834709167 498.9090881347656 L 114.53902435302734 498.9090881347656 L 114.53902435302734 183.09091186523438" fill-opacity="1" clip-path="url(#zzufZZdruqfV)"/><path fill="rgb(33,131,128)" stroke="none" paint-order="stroke" d="M 121.3277587890625 183.09091186523438 L 122.28370279073715 183.09091186523438 L 122.28370279073715 498.9090881347656 L 121.3277587890625 498.9090881347656 L 121.3277587890625 183.09091186523438" fill-opacity="1" clip-path="url(#zzufZZdruqfV)"/><path fill="rgb(115,210,222)" stroke="none" paint-order="stroke" d="M 90.12410736083984 183.09091186523438 L 91.7752833366394 183.09091186523438 L 91.7752833366394 498.9090881347656 L 90.12410736083984 498.9090881347656 L 90.12410736083984 183.09091186523438" fill-opacity="1" clip-path="url(#BzayyxgCNmsi)"/><path fill="rgb(115,210,222)" stroke="none" paint-order="stroke" d="M 98.89502716064453 183.09091186523438 L 100.0874011516571 183.09091186523438 L 100.0874011516571 498.9090881347656 L 98.89502716064453 498.9090881347656 L 98.89502716064453 183.09091186523438" fill-opacity="1" clip-path="url(#BzayyxgCNmsi)"/><path fill="rgb(115,210,222)" stroke="none" paint-order="stroke" d="M 117.3710708618164 183.09091186523438 L 120.83189487457275 183.09091186523438 L 120.83189487457275 498.9090881347656 L 117.3710708618164 498.9090881347656 L 117.3710708618164 183.09091186523438" fill-opacity="1" clip-path="url(#BzayyxgCNmsi)"/><path fill="rgb(28,49,68)" stroke="none" paint-order="stroke" d="M 62.88865280151367 183.09091186523438 L 65.01013278961182 183.09091186523438 L 65.01013278961182 498.9090881347656 L 62.88865280151367 498.9090881347656 L 62.88865280151367 183.09091186523438" fill-opacity="1" clip-path="url(#AkRNSJlRGHcW)"/><path fill="rgb(28,49,68)" stroke="none" paint-order="stroke" d="M 72.43531036376953 183.09091186523438 L 73.90373241901398 183.09091186523438 L 73.90373241901398 498.9090881347656 L 72.43531036376953 498.9090881347656 L 72.43531036376953 183.09091186523438" fill-opacity="1" clip-path="url(#AkRNSJlRGHcW)"/><path fill="rgb(239,185,203)" stroke="none" paint-order="stroke" d="M 79.10135650634766 183.09091186523438 L 87.53360080718994 183.09091186523438 L 87.53360080718994 498.9090881347656 L 79.10135650634766 498.9090881347656 L 79.10135650634766 183.09091186523438" fill-opacity="1" clip-path="url(#yaxfLSARAvbJ)"/><path fill="rgb(239,185,203)" stroke="none" paint-order="stroke" d="M 127.72415161132812 183.09091186523438 L 131.9466633796692 183.09091186523438 L 131.9466633796692 498.9090881347656 L 127.72415161132812 498.9090881347656 L 127.72415161132812 183.09091186523438" fill-opacity="1" clip-path="url(#yaxfLSARAvbJ)"/><path fill="rgb(239,185,203)" stroke="none" paint-order="stroke" d="M 152.9672088623047 183.09091186523438 L 191.39027786254883 183.09091186523438 L 191.39027786254883 498.9090881347656 L 152.9672088623047 498.9090881347656 L 152.9672088623047 183.09091186523438" fill-opacity="1" clip-path="url(#yaxfLSARAvbJ)"/><path fill="rgb(105,29,48)" stroke="none" paint-order="stroke" d="M 136.8056182861328 183.09091186523438 L 143.539400100708 183.09091186523438 L 143.539400100708 498.9090881347656 L 136.8056182861328 498.9090881347656 L 136.8056182861328 183.09091186523438" fill-opacity="1" clip-path="url(#VhJHMGEgXOKT)"/><path fill="rgb(255,188,66)" stroke="none" paint-order="stroke" d="M 66.32008361816406 498.9090881347656 L 191.39027404785156 498.9090881347656 L 191.39027404785156 551.5454521179199 L 66.32008361816406 551.5454521179199 L 66.32008361816406 498.9090881347656" fill-opacity="1" clip-path="url(#dDnnLuHJTJqc)"/><path fill="rgb(143,45,86)" stroke="none" paint-order="stroke" d="M 58.5 551.5454711914062 L 146.14395904541016 551.5454711914062 L 146.14395904541016 604.1818351745605 L 58.5 604.1818351745605 L 58.5 551.5454711914062" fill-opacity="1" clip-path="url(#hDXwLGgcylaR)"/><path fill="rgb(63,136,197)" stroke="none" paint-order="stroke" d="M 146.1439666748047 551.5454711914062 L 191.39027786254883 551.5454711914062 L 191.39027786254883 604.1818351745605 L 146.1439666748047 604.1818351745605 L 146.1439666748047 551.5454711914062" fill-opacity="1" clip-path="url(#hDXwLGgcylaR)"/><path fill="none" stroke="rgb(0,0,0)" paint-order="fill" d="M 58.5 77.81818389892578 L 191.39027404785156 77.81818389892578 L 191.39027404785156 604.1818313598633 L 58.5 604.1818313598633 L 58.5 77.81818389892578" stroke-opacity="1" stroke-linejoin="bevel" stroke-miterlimit="10" stroke-dasharray="" clip-path="url(#upMoCrxlVsBg)"/><path fill="none" stroke="rgb(0,0,0)" paint-order="fill" d="M 58.5 630.5 L 1336.5 630.5" stroke-opacity="1" stroke-linejoin="bevel" stroke-miterlimit="10" stroke-dasharray=""/><path fill="none" stroke="rgb(0,0,0)" paint-order="fill" d="M 58.5 636.5 L 58.5 628.5 M 314.5 636.5 L 314.5 628.5 M 569.5 636.5 L 569.5 628.5 M 825.5 636.5 L 825.5 628.5 M 1080.5 636.5 L 1080.5 628.5 M 1336.5 636.5 L 1336.5 628.5" stroke-opacity="1" stroke-linejoin="bevel" stroke-miterlimit="10" stroke-dasharray=""/><path fill="none" stroke="rgb(0,0,0)" paint-order="fill" d="M 58.5 634.5 L 58.5 630.5 M 109.5 634.5 L 109.5 630.5 M 160.5 634.5 L 160.5 630.5 M 211.5 634.5 L 211.5 630.5 M 262.5 634.5 L 262.5 630.5 M 314.5 634.5 L 314.5 630.5 M 365.5 634.5 L 365.5 630.5 M 416.5 634.5 L 416.5 630.5 M 467.5 634.5 L 467.5 630.5 M 518.5 634.5 L 518.5 630.5 M 569.5 634.5 L 569.5 630.5 M 620.5 634.5 L 620.5 630.5 M 671.5 634.5 L 671.5 630.5 M 723.5 634.5 L 723.5 630.5 M 774.5 634.5 L 774.5 630.5 M 825.5 634.5 L 825.5 630.5 M 876.5 634.5 L 876.5 630.5 M 927.5 634.5 L 927.5 630.5 M 978.5 634.5 L 978.5 630.5 M 1029.5 634.5 L 1029.5 630.5 M 1080.5 634.5 L 1080.5 630.5 M 1132.5 634.5 L 1132.5 630.5 M 1183.5 634.5 L 1183.5 630.5 M 1234.5 634.5 L 1234.5 630.5 M 1285.5 634.5 L 1285.5 630.5 M 1336.5 634.5 L 1336.5 630.5" stroke-opacity="1" stroke-linejoin="bevel" stroke-miterlimit="10" stroke-dasharray=""/><text fill="rgb(68,68,68)" stroke="none" font-family="helvetica" font-size="11px" font-style="normal" font-weight="normal" text-decoration="normal" x="54.94166660308838" y="648.89013671875" text-anchor="start" dominant-baseline="alphabetic" transform="matrix(1, 0, 0, 1, 0.5, 0.5)" fill-opacity="1">0</text><text fill="rgb(68,68,68)" stroke="none" font-family="helvetica" font-size="11px" font-style="normal" font-weight="normal" text-decoration="normal" x="304.42500591278076" y="648.89013671875" text-anchor="start" dominant-baseline="alphabetic" transform="matrix(1, 0, 0, 1, 0.5, 0.5)" fill-opacity="1">200</text><text fill="rgb(68,68,68)" stroke="none" font-family="helvetica" font-size="11px" font-style="normal" font-weight="normal" text-decoration="normal" x="560.0250120162964" y="648.89013671875" text-anchor="start" dominant-baseline="alphabetic" transform="matrix(1, 0, 0, 1, 0.5, 0.5)" fill-opacity="1">400</text><text fill="rgb(68,68,68)" stroke="none" font-family="helvetica" font-size="11px" font-style="normal" font-weight="normal" text-decoration="normal" x="815.6249876022339" y="648.89013671875" text-anchor="start" dominant-baseline="alphabetic" transform="matrix(1, 0, 0, 1, 0.5, 0.5)" fill-opacity="1">600</text><text fill="rgb(68,68,68)" stroke="none" font-family="helvetica" font-size="11px" font-style="normal" font-weight="normal" text-decoration="normal" x="1071.2250242233276" y="648.89013671875" text-anchor="start" dominant-baseline="alphabetic" transform="matrix(1, 0, 0, 1, 0.5, 0.5)" fill-opacity="1">800</text><text fill="rgb(68,68,68)" stroke="none" font-family="helvetica" font-size="11px" font-style="normal" font-weight="normal" text-decoration="normal" x="1323.7666664123535" y="648.89013671875" text-anchor="start" dominant-baseline="alphabetic" transform="matrix(1, 0, 0, 1, 0.5, 0.5)" fill-opacity="1">1000</text><text fill="rgb(68,68,68)" stroke="none" font-family="helvetica" font-size="15pt" font-style="italic" font-weight="normal" text-decoration="normal" x="666.4416675567627" y="676.06982421875" text-anchor="start" dominant-baseline="alphabetic" transform="matrix(1, 0, 0, 1, 0.5, 0.5)" fill-opacity="1">time(s)</text><path fill="none" stroke="rgb(0,0,0)" paint-order="fill" d="M 58.5 630.5 L 58.5 51.5" stroke-opacity="1" stroke-linejoin="bevel" stroke-miterlimit="10" stroke-dasharray=""/><path fill="none" stroke="rgb(0,0,0)" paint-order="fill" d="M 52.5 551.5 L 60.5 551.5 M 52.5 446.5 L 60.5 446.5 M 52.5 341.5 L 60.5 341.5 M 52.5 235.5 L 60.5 235.5 M 52.5 130.5 L 60.5 130.5" stroke-opacity="1" stroke-linejoin="bevel" stroke-miterlimit="10" stroke-dasharray=""/><path fill="none" stroke="rgb(0,0,0)" paint-order="fill" d="M 54.5 572.5 L 58.5 572.5 M 54.5 593.5 L 58.5 593.5 M 54.5 614.5 L 58.5 614.5 M 54.5 551.5 L 58.5 551.5 M 54.5 530.5 L 58.5 530.5 M 54.5 509.5 L 58.5 509.5 M 54.5 488.5 L 58.5 488.5 M 54.5 467.5 L 58.5 467.5 M 54.5 446.5 L 58.5 446.5 M 54.5 425.5 L 58.5 425.5 M 54.5 404.5 L 58.5 404.5 M 54.5 383.5 L 58.5 383.5 M 54.5 362.5 L 58.5 362.5 M 54.5 341.5 L 58.5 341.5 M 54.5 319.5 L 58.5 319.5 M 54.5 298.5 L 58.5 298.5 M 54.5 277.5 L 58.5 277.5 M 54.5 256.5 L 58.5 256.5 M 54.5 235.5 L 58.5 235.5 M 54.5 214.5 L 58.5 214.5 M 54.5 193.5 L 58.5 193.5 M 54.5 172.5 L 58.5 172.5 M 54.5 151.5 L 58.5 151.5 M 54.5 130.5 L 58.5 130.5 M 54.5 109.5 L 58.5 109.5 M 54.5 88.5 L 58.5 88.5 M 54.5 67.5 L 58.5 67.5" stroke-opacity="1" stroke-linejoin="bevel" stroke-miterlimit="10" stroke-dasharray=""/><text fill="rgb(68,68,68)" stroke="none" font-family="helvetica" font-size="11px" font-style="normal" font-weight="normal" text-decoration="normal" x="34.46666622161865" y="554.9905395507812" text-anchor="start" dominant-baseline="alphabetic" transform="matrix(1, 0, 0, 1, 0.5, 0.5)" fill-opacity="1">−2</text><text fill="rgb(68,68,68)" stroke="none" font-family="helvetica" font-size="11px" font-style="normal" font-weight="normal" text-decoration="normal" x="34.46666622161865" y="449.7178039550781" text-anchor="start" dominant-baseline="alphabetic" transform="matrix(1, 0, 0, 1, 0.5, 0.5)" fill-opacity="1">−1</text><text fill="rgb(68,68,68)" stroke="none" font-family="helvetica" font-size="11px" font-style="normal" font-weight="normal" text-decoration="normal" x="40.88333320617676" y="344.445068359375" text-anchor="start" dominant-baseline="alphabetic" transform="matrix(1, 0, 0, 1, 0.5, 0.5)" fill-opacity="1">0</text><text fill="rgb(68,68,68)" stroke="none" font-family="helvetica" font-size="11px" font-style="normal" font-weight="normal" text-decoration="normal" x="40.88333320617676" y="239.17234802246094" text-anchor="start" dominant-baseline="alphabetic" transform="matrix(1, 0, 0, 1, 0.5, 0.5)" fill-opacity="1">1</text><text fill="rgb(68,68,68)" stroke="none" font-family="helvetica" font-size="11px" font-style="normal" font-weight="normal" text-decoration="normal" x="40.88333320617676" y="133.8996124267578" text-anchor="start" dominant-baseline="alphabetic" transform="matrix(1, 0, 0, 1, 0.5, 0.5)" fill-opacity="1">2</text><text fill="rgb(68,68,68)" stroke="none" font-family="helvetica" font-size="15pt" font-style="italic" font-weight="normal" text-decoration="normal" x="-11.316666603088379" y="336.076171875" text-anchor="start" dominant-baseline="alphabetic" transform="matrix(6.123233995736766e-17, -1, 1, 6.123233995736766e-17, -313.53333377838135, 367.46666622161865)" fill-opacity="1">students</text><path fill="rgb(255,255,255)" stroke="rgb(229,229,229)" paint-order="fill" d="M 1128.2333374023438 61.5 L 1326.5 61.5 L 1326.5 400.5 L 1128.2333374023438 400.5 L 1128.2333374023438 61.5" fill-opacity="0.9490196078431372" clip-path="url(#RLwCoFXBnnmm)" stroke-opacity="0.5019607843137255" stroke-linejoin="bevel" stroke-miterlimit="10" stroke-dasharray=""/><g clip-path="url(#RLwCoFXBnnmm)"><text fill="rgb(68,68,68)" stroke="none" font-family="helvetica" font-size="13px" font-style="normal" font-weight="normal" text-decoration="normal" x="1162.7333374023438" y="81" text-anchor="start" dominant-baseline="central" transform="matrix(1, 0, 0, 1, 0.5, 0.5)" fill-opacity="1">wavelength</text></g><path fill="rgb(0,255,40)" stroke="none" paint-order="stroke" d="M 1140.2333374023438 73.5 L 1156.2333374023438 73.5 L 1156.2333374023438 89.5 L 1140.2333374023438 89.5 L 1140.2333374023438 73.5" fill-opacity="1" clip-path="url(#RLwCoFXBnnmm)"/><path fill="rgb(216,17,89)" stroke="none" paint-order="stroke" d="M 1140.2333374023438 73.5 L 1156.2333374023438 73.5 L 1156.2333374023438 89.5 L 1140.2333374023438 89.5 L 1140.2333374023438 73.5" fill-opacity="1" clip-path="url(#RLwCoFXBnnmm)"/><g clip-path="url(#RLwCoFXBnnmm)"><text fill="rgb(68,68,68)" stroke="none" font-family="helvetica" font-size="13px" font-style="normal" font-weight="normal" text-decoration="normal" x="1162.7333374023438" y="104" text-anchor="start" dominant-baseline="central" transform="matrix(1, 0, 0, 1, 0.5, 0.5)" fill-opacity="1">solution</text></g><path fill="rgb(251,0,7)" stroke="none" paint-order="stroke" d="M 1140.2333374023438 96.5 L 1156.2333374023438 96.5 L 1156.2333374023438 112.5 L 1140.2333374023438 112.5 L 1140.2333374023438 96.5" fill-opacity="1" clip-path="url(#RLwCoFXBnnmm)"/><path fill="rgb(33,131,128)" stroke="none" paint-order="stroke" d="M 1140.2333374023438 96.5 L 1156.2333374023438 96.5 L 1156.2333374023438 112.5 L 1140.2333374023438 112.5 L 1140.2333374023438 96.5" fill-opacity="1" clip-path="url(#RLwCoFXBnnmm)"/><g clip-path="url(#RLwCoFXBnnmm)"><text fill="rgb(68,68,68)" stroke="none" font-family="helvetica" font-size="13px" font-style="normal" font-weight="normal" text-decoration="normal" x="1162.7333374023438" y="127" text-anchor="start" dominant-baseline="central" transform="matrix(1, 0, 0, 1, 0.5, 0.5)" fill-opacity="1">laser</text></g><path fill="rgb(105,29,48)" stroke="none" paint-order="stroke" d="M 1140.2333374023438 119.5 L 1156.2333374023438 119.5 L 1156.2333374023438 135.5 L 1140.2333374023438 135.5 L 1140.2333374023438 119.5" fill-opacity="1" clip-path="url(#RLwCoFXBnnmm)"/><g clip-path="url(#RLwCoFXBnnmm)"><text fill="rgb(68,68,68)" stroke="none" font-family="helvetica" font-size="13px" font-style="normal" font-weight="normal" text-decoration="normal" x="1162.7333374023438" y="150" text-anchor="start" dominant-baseline="central" transform="matrix(1, 0, 0, 1, 0.5, 0.5)" fill-opacity="1">ruler</text></g><path fill="rgb(255,188,66)" stroke="none" paint-order="stroke" d="M 1140.2333374023438 142.5 L 1156.2333374023438 142.5 L 1156.2333374023438 158.5 L 1140.2333374023438 158.5 L 1140.2333374023438 142.5" fill-opacity="1" clip-path="url(#RLwCoFXBnnmm)"/><g clip-path="url(#RLwCoFXBnnmm)"><text fill="rgb(68,68,68)" stroke="none" font-family="helvetica" font-size="13px" font-style="normal" font-weight="normal" text-decoration="normal" x="1162.7333374023438" y="173" text-anchor="start" dominant-baseline="central" transform="matrix(1, 0, 0, 1, 0.5, 0.5)" fill-opacity="1">restarts</text></g><g clip-path="url(#RLwCoFXBnnmm)"><text fill="rgb(68,68,68)" stroke="none" font-family="helvetica" font-size="13px" font-style="normal" font-weight="normal" text-decoration="normal" x="1162.7333374023438" y="196" text-anchor="start" dominant-baseline="central" transform="matrix(1, 0, 0, 1, 0.5, 0.5)" fill-opacity="1">transmittance_absorbance</text></g><g clip-path="url(#RLwCoFXBnnmm)"><text fill="rgb(68,68,68)" stroke="none" font-family="helvetica" font-size="13px" font-style="normal" font-weight="normal" text-decoration="normal" x="1162.7333374023438" y="219" text-anchor="start" dominant-baseline="central" transform="matrix(1, 0, 0, 1, 0.5, 0.5)" fill-opacity="1">magnifier</text></g><g clip-path="url(#RLwCoFXBnnmm)"><text fill="rgb(68,68,68)" stroke="none" font-family="helvetica" font-size="13px" font-style="normal" font-weight="normal" text-decoration="normal" x="1162.7333374023438" y="242" text-anchor="start" dominant-baseline="central" transform="matrix(1, 0, 0, 1, 0.5, 0.5)" fill-opacity="1">concentration</text></g><path fill="rgb(115,210,222)" stroke="none" paint-order="stroke" d="M 1140.2333374023438 234.5 L 1156.2333374023438 234.5 L 1156.2333374023438 250.5 L 1140.2333374023438 250.5 L 1140.2333374023438 234.5" fill-opacity="1" clip-path="url(#RLwCoFXBnnmm)"/><g clip-path="url(#RLwCoFXBnnmm)"><text fill="rgb(68,68,68)" stroke="none" font-family="helvetica" font-size="13px" font-style="normal" font-weight="normal" text-decoration="normal" x="1162.7333374023438" y="265" text-anchor="start" dominant-baseline="central" transform="matrix(1, 0, 0, 1, 0.5, 0.5)" fill-opacity="1">flask</text></g><path fill="rgb(28,49,68)" stroke="none" paint-order="stroke" d="M 1140.2333374023438 257.5 L 1156.2333374023438 257.5 L 1156.2333374023438 273.5 L 1140.2333374023438 273.5 L 1140.2333374023438 257.5" fill-opacity="1" clip-path="url(#RLwCoFXBnnmm)"/><g clip-path="url(#RLwCoFXBnnmm)"><text fill="rgb(68,68,68)" stroke="none" font-family="helvetica" font-size="13px" font-style="normal" font-weight="normal" text-decoration="normal" x="1162.7333374023438" y="288" text-anchor="start" dominant-baseline="central" transform="matrix(1, 0, 0, 1, 0.5, 0.5)" fill-opacity="1">pdf</text></g><path fill="rgb(239,185,203)" stroke="none" paint-order="stroke" d="M 1140.2333374023438 280.5 L 1156.2333374023438 280.5 L 1156.2333374023438 296.5 L 1140.2333374023438 296.5 L 1140.2333374023438 280.5" fill-opacity="1" clip-path="url(#RLwCoFXBnnmm)"/><g clip-path="url(#RLwCoFXBnnmm)"><text fill="rgb(68,68,68)" stroke="none" font-family="helvetica" font-size="13px" font-style="normal" font-weight="normal" text-decoration="normal" x="1162.7333374023438" y="311" text-anchor="start" dominant-baseline="central" transform="matrix(1, 0, 0, 1, 0.5, 0.5)" fill-opacity="1">concentrationlab</text></g><g clip-path="url(#RLwCoFXBnnmm)"><text fill="rgb(68,68,68)" stroke="none" font-family="helvetica" font-size="13px" font-style="normal" font-weight="normal" text-decoration="normal" x="1162.7333374023438" y="334" text-anchor="start" dominant-baseline="central" transform="matrix(1, 0, 0, 1, 0.5, 0.5)" fill-opacity="1">wavelength_slider</text></g><path fill="rgb(105,29,48)" stroke="none" paint-order="stroke" d="M 1140.2333374023438 326.5 L 1156.2333374023438 326.5 L 1156.2333374023438 342.5 L 1140.2333374023438 342.5 L 1140.2333374023438 326.5" fill-opacity="1" clip-path="url(#RLwCoFXBnnmm)"/><g clip-path="url(#RLwCoFXBnnmm)"><text fill="rgb(68,68,68)" stroke="none" font-family="helvetica" font-size="13px" font-style="normal" font-weight="normal" text-decoration="normal" x="1162.7333374023438" y="357" text-anchor="start" dominant-baseline="central" transform="matrix(1, 0, 0, 1, 0.5, 0.5)" fill-opacity="1">ruler measuring</text></g><path fill="rgb(255,188,66)" stroke="none" paint-order="stroke" d="M 1140.2333374023438 349.5 L 1156.2333374023438 349.5 L 1156.2333374023438 365.5 L 1140.2333374023438 365.5 L 1140.2333374023438 349.5" fill-opacity="1" clip-path="url(#RLwCoFXBnnmm)"/><g clip-path="url(#RLwCoFXBnnmm)"><text fill="rgb(68,68,68)" stroke="none" font-family="helvetica" font-size="13px" font-style="normal" font-weight="normal" text-decoration="normal" x="1162.7333374023438" y="380" text-anchor="start" dominant-baseline="central" transform="matrix(1, 0, 0, 1, 0.5, 0.5)" fill-opacity="1">dependent variable</text></g><path fill="rgb(143,45,86)" stroke="none" paint-order="stroke" d="M 1140.2333374023438 372.5 L 1156.2333374023438 372.5 L 1156.2333374023438 388.5 L 1140.2333374023438 388.5 L 1140.2333374023438 372.5" fill-opacity="1" clip-path="url(#RLwCoFXBnnmm)"/><text fill="rgb(68,68,68)" stroke="none" font-family="helvetica" font-size="25pt" font-style="normal" font-weight="bold" text-decoration="normal" x="58" y="38.740885416666664" text-anchor="start" dominant-baseline="alphabetic" transform="matrix(1, 0, 0, 1, 0.5, 0.5)" fill-opacity="1">Timeline for student uhq3p7yr with permutation 3012 for task 2</text></svg>