<svg version="1.1" xmlns="http://www.w3.org/2000/svg" width="1366" height="683"><defs><clipPath id="ORfToakqGUAe"><path fill="none" stroke="none" d="M 58.5 51.5 L 1336.5 51.5 L 1336.5 630.5 L 58.5 630.5 L 58.5 51.5"/></clipPath><clipPath id="AItqlyqLlUKP"><path fill="none" stroke="none" d="M 58.5 51.5 L 1336.5 51.5 L 1336.5 630.5 L 58.5 630.5 L 58.5 51.5"/></clipPath><clipPath id="tVDgznESLIRX"><path fill="none" stroke="none" d="M 58.5 51.5 L 1336.5 51.5 L 1336.5 630.5 L 58.5 630.5 L 58.5 51.5"/></clipPath><clipPath id="ecstPdRyEHRn"><path fill="none" stroke="none" d="M 58.5 51.5 L 1336.5 51.5 L 1336.5 630.5 L 58.5 630.5 L 58.5 51.5"/></clipPath><clipPath id="GQNuxcTDFLFf"><path fill="none" stroke="none" d="M 58.5 51.5 L 1336.5 51.5 L 1336.5 630.5 L 58.5 630.5 L 58.5 51.5"/></clipPath><clipPath id="OpTMahmhhJqd"><path fill="none" stroke="none" d="M 58.5 51.5 L 1336.5 51.5 L 1336.5 630.5 L 58.5 630.5 L 58.5 51.5"/></clipPath><clipPath id="aZgzAarrqnEL"><path fill="none" stroke="none" d="M 58.5 51.5 L 1336.5 51.5 L 1336.5 630.5 L 58.5 630.5 L 58.5 51.5"/></clipPath><clipPath id="eTbOyvQcOLEP"><path fill="none" stroke="none" d="M 58.5 51.5 L 1336.5 51.5 L 1336.5 630.5 L 58.5 630.5 L 58.5 51.5"/></clipPath><clipPath id="WAoUwqDTQoRq"><path fill="none" stroke="none" d="M 58.5 51.5 L 1336.5 51.5 L 1336.5 630.5 L 58.5 630.5 L 58.5 51.5"/></clipPath><clipPath id="skdywNskHpuX"><path fill="none" stroke="none" d="M 58.5 51.5 L 1336.5 51.5 L 1336.5 630.5 L 58.5 630.5 L 58.5 51.5"/></clipPath><clipPath id="pOBNvxoPshfu"><path fill="none" stroke="none" d="M 58.5 51.5 L 1336.5 51.5 L 1336.5 630.5 L 58.5 630.5 L 58.5 51.5"/></clipPath><clipPath id="CttprmyeiOao"><path fill="none" stroke="none" d="M 58.5 51.5 L 1336.5 51.5 L 1336.5 630.5 L 58.5 630.5 L 58.5 51.5"/></clipPath><clipPath id="TvWwLnCDlazg"><path fill="none" stroke="none" d="M 58.5 51.5 L 1336.5 51.5 L 1336.5 630.5 L 58.5 630.5 L 58.5 51.5"/></clipPath><clipPath id="ARCiyRuhHSBy"><path fill="none" stroke="none" d="M 58.5 51.5 L 1336.5 51.5 L 1336.5 630.5 L 58.5 630.5 L 58.5 51.5"/></clipPath><clipPath id="QcyHMutgnhVC"><path fill="none" stroke="none" d="M 58.5 51.5 L 1336.5 51.5 L 1336.5 630.5 L 58.5 630.5 L 58.5 51.5"/></clipPath><clipPath id="ERbvkVxnekKz"><path fill="none" stroke="none" d="M 58.5 51.5 L 1336.5 51.5 L 1336.5 630.5 L 58.5 630.5 L 58.5 51.5"/></clipPath><clipPath id="TExVwVPqZiIk"><path fill="none" stroke="none" d="M 58.5 51.5 L 1336.5 51.5 L 1336.5 630.5 L 58.5 630.5 L 58.5 51.5"/></clipPath><clipPath id="CzsfRFCdezsA"><path fill="none" stroke="none" d="M 58.5 51.5 L 1336.5 51.5 L 1336.5 630.5 L 58.5 630.5 L 58.5 51.5"/></clipPath><clipPath id="URAqHopdliBs"><path fill="none" stroke="none" d="M 58.5 51.5 L 1336.5 51.5 L 1336.5 630.5 L 58.5 630.5 L 58.5 51.5"/></clipPath><clipPath id="WlpyeZsIEfbA"><path fill="none" stroke="none" d="M 58.5 51.5 L 1336.5 51.5 L 1336.5 630.5 L 58.5 630.5 L 58.5 51.5"/></clipPath><clipPath id="JsJOnJSfyKEP"><path fill="none" stroke="none" d="M 58.5 51.5 L 1336.5 51.5 L 1336.5 630.5 L 58.5 630.5 L 58.5 51.5"/></clipPath></defs><path fill="rgb(255,255,255)" stroke="none" paint-order="stroke" d="M 0.5 0.5 L 1366.5 0.5 L 1366.5 683.5 L 0.5 683.5 L 0.5 0.5" fill-opacity="1"/><rect fill="#FFFFFF" stroke="none" x="58" y="51" width="1278" height="579" transform="matrix(1, 0, 0, 1, 0.5, 0.5)"/><path fill="rgb(255,255,255)" stroke="none" paint-order="stroke" d="M 58.5 51.5 L 1336.5 51.5 L 1336.5 630.5 L 58.5 630.5 L 58.5 51.5" fill-opacity="1"/><path fill="none" stroke="rgb(229,229,229)" paint-order="fill" d="M 58.5 51.5 L 1336.5 51.5 L 1336.5 630.5 L 58.5 630.5 L 58.5 51.5" stroke-opacity="1" stroke-linejoin="bevel" stroke-miterlimit="10" stroke-dasharray=""/><path fill="none" stroke="rgb(229,229,229)" paint-order="fill" d="M 314.5 630.5 L 314.5 51.5 M 569.5 630.5 L 569.5 51.5 M 825.5 630.5 L 825.5 51.5 M 1080.5 630.5 L 1080.5 51.5" stroke-opacity="1" stroke-linejoin="bevel" stroke-miterlimit="10" stroke-dasharray="" clip-path="url(#ORfToakqGUAe)"/><path fill="none" stroke="rgb(229,229,229)" paint-order="fill" d="M 58.5 551.5 L 1336.5 551.5 M 58.5 446.5 L 1336.5 446.5 M 58.5 341.5 L 1336.5 341.5 M 58.5 235.5 L 1336.5 235.5 M 58.5 130.5 L 1336.5 130.5" stroke-opacity="1" stroke-linejoin="bevel" stroke-miterlimit="10" stroke-dasharray="" clip-path="url(#AItqlyqLlUKP)"/><path fill="rgb(0,255,40)" stroke="none" paint-order="stroke" d="M 58.5 77.81818389892578 L 148.7945327758789 77.81818389892578 L 148.7945327758789 130.45454788208008 L 58.5 130.45454788208008 L 58.5 77.81818389892578" fill-opacity="1" clip-path="url(#tVDgznESLIRX)"/><path fill="rgb(251,0,7)" stroke="none" paint-order="stroke" d="M 58.5 130.4545440673828 L 148.7945327758789 130.4545440673828 L 148.7945327758789 183.0909080505371 L 58.5 183.0909080505371 L 58.5 130.4545440673828" fill-opacity="1" clip-path="url(#ecstPdRyEHRn)"/><path fill="rgb(105,29,48)" stroke="none" paint-order="stroke" d="M 102.34818267822266 183.09091186523438 L 102.41208267956972 183.09091186523438 L 102.41208267956972 498.9090881347656 L 102.34818267822266 498.9090881347656 L 102.34818267822266 183.09091186523438" fill-opacity="1" clip-path="url(#GQNuxcTDFLFf)"/><path fill="rgb(105,29,48)" stroke="none" paint-order="stroke" d="M 103.68624877929688 183.09091186523438 L 103.75014878064394 183.09091186523438 L 103.75014878064394 498.9090881347656 L 103.68624877929688 498.9090881347656 L 103.68624877929688 183.09091186523438" fill-opacity="1" clip-path="url(#GQNuxcTDFLFf)"/><path fill="rgb(105,29,48)" stroke="none" paint-order="stroke" d="M 111.43603515625 183.09091186523438 L 111.49993515759706 183.09091186523438 L 111.49993515759706 498.9090881347656 L 111.43603515625 498.9090881347656 L 111.43603515625 183.09091186523438" fill-opacity="1" clip-path="url(#GQNuxcTDFLFf)"/><path fill="rgb(255,188,66)" stroke="none" paint-order="stroke" d="M 88.04096984863281 183.09091186523438 L 88.13937585055828 183.09091186523438 L 88.13937585055828 498.9090881347656 L 88.04096984863281 498.9090881347656 L 88.04096984863281 183.09091186523438" fill-opacity="1" clip-path="url(#OpTMahmhhJqd)"/><path fill="rgb(255,188,66)" stroke="none" paint-order="stroke" d="M 88.49849700927734 183.09091186523438 L 92.91143083572388 183.09091186523438 L 92.91143083572388 498.9090881347656 L 88.49849700927734 498.9090881347656 L 88.49849700927734 183.09091186523438" fill-opacity="1" clip-path="url(#OpTMahmhhJqd)"/><path fill="rgb(255,188,66)" stroke="none" paint-order="stroke" d="M 144.74072265625 183.09091186523438 L 145.12795665860176 183.09091186523438 L 145.12795665860176 498.9090881347656 L 144.74072265625 498.9090881347656 L 144.74072265625 183.09091186523438" fill-opacity="1" clip-path="url(#OpTMahmhhJqd)"/><path fill="rgb(255,188,66)" stroke="none" paint-order="stroke" d="M 63.40113067626953 183.09091186523438 L 63.44713867455721 183.09091186523438 L 63.44713867455721 498.9090881347656 L 63.40113067626953 498.9090881347656 L 63.40113067626953 183.09091186523438" fill-opacity="1" clip-path="url(#WAoUwqDTQoRq)"/><path fill="rgb(255,188,66)" stroke="none" paint-order="stroke" d="M 113.42716217041016 183.09091186523438 L 116.35506010055542 183.09091186523438 L 116.35506010055542 498.9090881347656 L 113.42716217041016 498.9090881347656 L 113.42716217041016 183.09091186523438" fill-opacity="1" clip-path="url(#WAoUwqDTQoRq)"/><path fill="rgb(216,17,89)" stroke="none" paint-order="stroke" d="M 106.6678237915039 183.09091186523438 L 106.73172379285097 183.09091186523438 L 106.73172379285097 498.9090881347656 L 106.6678237915039 498.9090881347656 L 106.6678237915039 183.09091186523438" fill-opacity="1" clip-path="url(#skdywNskHpuX)"/><path fill="rgb(216,17,89)" stroke="none" paint-order="stroke" d="M 108.64232635498047 183.09091186523438 L 108.70622635632753 183.09091186523438 L 108.70622635632753 498.9090881347656 L 108.64232635498047 498.9090881347656 L 108.64232635498047 183.09091186523438" fill-opacity="1" clip-path="url(#skdywNskHpuX)"/><path fill="rgb(33,131,128)" stroke="none" paint-order="stroke" d="M 147.1842498779297 183.09091186523438 L 148.79452991485596 183.09091186523438 L 148.79452991485596 498.9090881347656 L 147.1842498779297 498.9090881347656 L 147.1842498779297 183.09091186523438" fill-opacity="1" clip-path="url(#pOBNvxoPshfu)"/><path fill="rgb(115,210,222)" stroke="none" paint-order="stroke" d="M 130.61370849609375 183.09091186523438 L 139.8881540298462 183.09091186523438 L 139.8881540298462 498.9090881347656 L 130.61370849609375 498.9090881347656 L 130.61370849609375 183.09091186523438" fill-opacity="1" clip-path="url(#CttprmyeiOao)"/><path fill="rgb(115,210,222)" stroke="none" paint-order="stroke" d="M 140.9028778076172 183.09091186523438 L 141.53293180465698 183.09091186523438 L 141.53293180465698 498.9090881347656 L 140.9028778076172 498.9090881347656 L 140.9028778076172 183.09091186523438" fill-opacity="1" clip-path="url(#CttprmyeiOao)"/><path fill="rgb(28,49,68)" stroke="none" paint-order="stroke" d="M 80.69630432128906 183.09091186523438 L 81.36597633361816 183.09091186523438 L 81.36597633361816 498.9090881347656 L 80.69630432128906 498.9090881347656 L 80.69630432128906 183.09091186523438" fill-opacity="1" clip-path="url(#TvWwLnCDlazg)"/><path fill="rgb(28,49,68)" stroke="none" paint-order="stroke" d="M 81.9730224609375 183.09091186523438 L 82.47655445337296 183.09091186523438 L 82.47655445337296 498.9090881347656 L 81.9730224609375 498.9090881347656 L 81.9730224609375 183.09091186523438" fill-opacity="1" clip-path="url(#TvWwLnCDlazg)"/><path fill="rgb(28,49,68)" stroke="none" paint-order="stroke" d="M 82.94941711425781 183.09091186523438 L 83.01715111732483 183.09091186523438 L 83.01715111732483 498.9090881347656 L 82.94941711425781 498.9090881347656 L 82.94941711425781 183.09091186523438" fill-opacity="1" clip-path="url(#TvWwLnCDlazg)"/><path fill="rgb(28,49,68)" stroke="none" paint-order="stroke" d="M 84.50346374511719 183.09091186523438 L 85.03766775131226 183.09091186523438 L 85.03766775131226 498.9090881347656 L 84.50346374511719 498.9090881347656 L 84.50346374511719 183.09091186523438" fill-opacity="1" clip-path="url(#TvWwLnCDlazg)"/><path fill="rgb(28,49,68)" stroke="none" paint-order="stroke" d="M 85.52458953857422 183.09091186523438 L 85.87220552563667 183.09091186523438 L 85.87220552563667 498.9090881347656 L 85.52458953857422 498.9090881347656 L 85.52458953857422 183.09091186523438" fill-opacity="1" clip-path="url(#TvWwLnCDlazg)"/><path fill="rgb(28,49,68)" stroke="none" paint-order="stroke" d="M 86.16741943359375 183.09091186523438 L 87.01728945970535 183.09091186523438 L 87.01728945970535 498.9090881347656 L 86.16741943359375 498.9090881347656 L 86.16741943359375 183.09091186523438" fill-opacity="1" clip-path="url(#TvWwLnCDlazg)"/><path fill="rgb(28,49,68)" stroke="none" paint-order="stroke" d="M 93.57598876953125 183.09091186523438 L 95.61823272705078 183.09091186523438 L 95.61823272705078 498.9090881347656 L 93.57598876953125 498.9090881347656 L 93.57598876953125 183.09091186523438" fill-opacity="1" clip-path="url(#TvWwLnCDlazg)"/><path fill="rgb(28,49,68)" stroke="none" paint-order="stroke" d="M 116.92376708984375 183.09091186523438 L 122.24408102035522 183.09091186523438 L 122.24408102035522 498.9090881347656 L 116.92376708984375 498.9090881347656 L 116.92376708984375 183.09091186523438" fill-opacity="1" clip-path="url(#TvWwLnCDlazg)"/><path fill="rgb(28,49,68)" stroke="none" paint-order="stroke" d="M 142.6524658203125 183.09091186523438 L 144.53495979309082 183.09091186523438 L 144.53495979309082 498.9090881347656 L 142.6524658203125 498.9090881347656 L 142.6524658203125 183.09091186523438" fill-opacity="1" clip-path="url(#TvWwLnCDlazg)"/><path fill="rgb(28,49,68)" stroke="none" paint-order="stroke" d="M 145.5931396484375 183.09091186523438 L 146.73694968223572 183.09091186523438 L 146.73694968223572 498.9090881347656 L 145.5931396484375 498.9090881347656 L 145.5931396484375 183.09091186523438" fill-opacity="1" clip-path="url(#TvWwLnCDlazg)"/><path fill="rgb(239,185,203)" stroke="none" paint-order="stroke" d="M 67.37059783935547 183.09091186523438 L 76.26420021057129 183.09091186523438 L 76.26420021057129 498.9090881347656 L 67.37059783935547 498.9090881347656 L 67.37059783935547 183.09091186523438" fill-opacity="1" clip-path="url(#ARCiyRuhHSBy)"/><path fill="rgb(255,188,66)" stroke="none" paint-order="stroke" d="M 90.35159301757812 498.9090881347656 L 144.76116561889648 498.9090881347656 L 144.76116561889648 551.5454521179199 L 90.35159301757812 551.5454521179199 L 90.35159301757812 498.9090881347656" fill-opacity="1" clip-path="url(#TExVwVPqZiIk)"/><path fill="rgb(143,45,86)" stroke="none" paint-order="stroke" d="M 58.5 551.5454711914062 L 102.34817886352539 551.5454711914062 L 102.34817886352539 604.1818351745605 L 58.5 604.1818351745605 L 58.5 551.5454711914062" fill-opacity="1" clip-path="url(#CzsfRFCdezsA)"/><path fill="rgb(63,136,197)" stroke="none" paint-order="stroke" d="M 102.34818267822266 551.5454711914062 L 103.68624866008759 551.5454711914062 L 103.68624866008759 604.1818351745605 L 102.34818267822266 604.1818351745605 L 102.34818267822266 551.5454711914062" fill-opacity="1" clip-path="url(#CzsfRFCdezsA)"/><path fill="rgb(143,45,86)" stroke="none" paint-order="stroke" d="M 103.68624877929688 551.5454711914062 L 111.4360408782959 551.5454711914062 L 111.4360408782959 604.1818351745605 L 103.68624877929688 604.1818351745605 L 103.68624877929688 551.5454711914062" fill-opacity="1" clip-path="url(#CzsfRFCdezsA)"/><path fill="rgb(63,136,197)" stroke="none" paint-order="stroke" d="M 111.43603515625 551.5454711914062 L 113.51022911071777 551.5454711914062 L 113.51022911071777 604.1818351745605 L 111.43603515625 604.1818351745605 L 111.43603515625 551.5454711914062" fill-opacity="1" clip-path="url(#CzsfRFCdezsA)"/><path fill="rgb(143,45,86)" stroke="none" paint-order="stroke" d="M 113.5102310180664 551.5454711914062 L 114.38182699680328 551.5454711914062 L 114.38182699680328 604.1818351745605 L 113.5102310180664 604.1818351745605 L 113.5102310180664 551.5454711914062" fill-opacity="1" clip-path="url(#CzsfRFCdezsA)"/><path fill="rgb(63,136,197)" stroke="none" paint-order="stroke" d="M 114.38182830810547 551.5454711914062 L 114.53135430812836 551.5454711914062 L 114.53135430812836 604.1818351745605 L 114.38182830810547 604.1818351745605 L 114.38182830810547 551.5454711914062" fill-opacity="1" clip-path="url(#CzsfRFCdezsA)"/><path fill="rgb(143,45,86)" stroke="none" paint-order="stroke" d="M 114.53135681152344 551.5454711914062 L 115.63554883003235 551.5454711914062 L 115.63554883003235 604.1818351745605 L 114.53135681152344 604.1818351745605 L 114.53135681152344 551.5454711914062" fill-opacity="1" clip-path="url(#CzsfRFCdezsA)"/><path fill="rgb(63,136,197)" stroke="none" paint-order="stroke" d="M 115.63554382324219 551.5454711914062 L 148.7945327758789 551.5454711914062 L 148.7945327758789 604.1818351745605 L 115.63554382324219 604.1818351745605 L 115.63554382324219 551.5454711914062" fill-opacity="1" clip-path="url(#CzsfRFCdezsA)"/><path fill="none" stroke="rgb(0,0,0)" paint-order="fill" d="M 58.5 77.81818389892578 L 148.7945327758789 77.81818389892578 L 148.7945327758789 604.1818313598633 L 58.5 604.1818313598633 L 58.5 77.81818389892578" stroke-opacity="1" stroke-linejoin="bevel" stroke-miterlimit="10" stroke-dasharray="" clip-path="url(#URAqHopdliBs)"/><path fill="none" stroke="rgb(0,0,0)" paint-order="fill" d="M 58.5 630.5 L 1336.5 630.5" stroke-opacity="1" stroke-linejoin="bevel" stroke-miterlimit="10" stroke-dasharray=""/><path fill="none" stroke="rgb(0,0,0)" paint-order="fill" d="M 58.5 636.5 L 58.5 628.5 M 314.5 636.5 L 314.5 628.5 M 569.5 636.5 L 569.5 628.5 M 825.5 636.5 L 825.5 628.5 M 1080.5 636.5 L 1080.5 628.5 M 1336.5 636.5 L 1336.5 628.5" stroke-opacity="1" stroke-linejoin="bevel" stroke-miterlimit="10" stroke-dasharray=""/><path fill="none" stroke="rgb(0,0,0)" paint-order="fill" d="M 58.5 634.5 L 58.5 630.5 M 109.5 634.5 L 109.5 630.5 M 160.5 634.5 L 160.5 630.5 M 211.5 634.5 L 211.5 630.5 M 262.5 634.5 L 262.5 630.5 M 314.5 634.5 L 314.5 630.5 M 365.5 634.5 L 365.5 630.5 M 416.5 634.5 L 416.5 630.5 M 467.5 634.5 L 467.5 630.5 M 518.5 634.5 L 518.5 630.5 M 569.5 634.5 L 569.5 630.5 M 620.5 634.5 L 620.5 630.5 M 671.5 634.5 L 671.5 630.5 M 723.5 634.5 L 723.5 630.5 M 774.5 634.5 L 774.5 630.5 M 825.5 634.5 L 825.5 630.5 M 876.5 634.5 L 876.5 630.5 M 927.5 634.5 L 927.5 630.5 M 978.5 634.5 L 978.5 630.5 M 1029.5 634.5 L 1029.5 630.5 M 1080.5 634.5 L 1080.5 630.5 M 1132.5 634.5 L 1132.5 630.5 M 1183.5 634.5 L 1183.5 630.5 M 1234.5 634.5 L 1234.5 630.5 M 1285.5 634.5 L 1285.5 630.5 M 1336.5 634.5 L 1336.5 630.5" stroke-opacity="1" stroke-linejoin="bevel" stroke-miterlimit="10" stroke-dasharray=""/><text fill="rgb(68,68,68)" stroke="none" font-family="helvetica" font-size="11px" font-style="normal" font-weight="normal" text-decoration="normal" x="54.94166660308838" y="648.89013671875" text-anchor="start" dominant-baseline="alphabetic" transform="matrix(1, 0, 0, 1, 0.5, 0.5)" fill-opacity="1">0</text><text fill="rgb(68,68,68)" stroke="none" font-family="helvetica" font-size="11px" font-style="normal" font-weight="normal" text-decoration="normal" x="304.42500591278076" y="648.89013671875" text-anchor="start" dominant-baseline="alphabetic" transform="matrix(1, 0, 0, 1, 0.5, 0.5)" fill-opacity="1">200</text><text fill="rgb(68,68,68)" stroke="none" font-family="helvetica" font-size="11px" font-style="normal" font-weight="normal" text-decoration="normal" x="560.0250120162964" y="648.89013671875" text-anchor="start" dominant-baseline="alphabetic" transform="matrix(1, 0, 0, 1, 0.5, 0.5)" fill-opacity="1">400</text><text fill="rgb(68,68,68)" stroke="none" font-family="helvetica" font-size="11px" font-style="normal" font-weight="normal" text-decoration="normal" x="815.6249876022339" y="648.89013671875" text-anchor="start" dominant-baseline="alphabetic" transform="matrix(1, 0, 0, 1, 0.5, 0.5)" fill-opacity="1">600</text><text fill="rgb(68,68,68)" stroke="none" font-family="helvetica" font-size="11px" font-style="normal" font-weight="normal" text-decoration="normal" x="1071.2250242233276" y="648.89013671875" text-anchor="start" dominant-baseline="alphabetic" transform="matrix(1, 0, 0, 1, 0.5, 0.5)" fill-opacity="1">800</text><text fill="rgb(68,68,68)" stroke="none" font-family="helvetica" font-size="11px" font-style="normal" font-weight="normal" text-decoration="normal" x="1323.7666664123535" y="648.89013671875" text-anchor="start" dominant-baseline="alphabetic" transform="matrix(1, 0, 0, 1, 0.5, 0.5)" fill-opacity="1">1000</text><text fill="rgb(68,68,68)" stroke="none" font-family="helvetica" font-size="15pt" font-style="italic" font-weight="normal" text-decoration="normal" x="666.4416675567627" y="676.06982421875" text-anchor="start" dominant-baseline="alphabetic" transform="matrix(1, 0, 0, 1, 0.5, 0.5)" fill-opacity="1">time(s)</text><path fill="none" stroke="rgb(0,0,0)" paint-order="fill" d="M 58.5 630.5 L 58.5 51.5" stroke-opacity="1" stroke-linejoin="bevel" stroke-miterlimit="10" stroke-dasharray=""/><path fill="none" stroke="rgb(0,0,0)" paint-order="fill" d="M 52.5 551.5 L 60.5 551.5 M 52.5 446.5 L 60.5 446.5 M 52.5 341.5 L 60.5 341.5 M 52.5 235.5 L 60.5 235.5 M 52.5 130.5 L 60.5 130.5" stroke-opacity="1" stroke-linejoin="bevel" stroke-miterlimit="10" stroke-dasharray=""/><path fill="none" stroke="rgb(0,0,0)" paint-order="fill" d="M 54.5 572.5 L 58.5 572.5 M 54.5 593.5 L 58.5 593.5 M 54.5 614.5 L 58.5 614.5 M 54.5 551.5 L 58.5 551.5 M 54.5 530.5 L 58.5 530.5 M 54.5 509.5 L 58.5 509.5 M 54.5 488.5 L 58.5 488.5 M 54.5 467.5 L 58.5 467.5 M 54.5 446.5 L 58.5 446.5 M 54.5 425.5 L 58.5 425.5 M 54.5 404.5 L 58.5 404.5 M 54.5 383.5 L 58.5 383.5 M 54.5 362.5 L 58.5 362.5 M 54.5 341.5 L 58.5 341.5 M 54.5 319.5 L 58.5 319.5 M 54.5 298.5 L 58.5 298.5 M 54.5 277.5 L 58.5 277.5 M 54.5 256.5 L 58.5 256.5 M 54.5 235.5 L 58.5 235.5 M 54.5 214.5 L 58.5 214.5 M 54.5 193.5 L 58.5 193.5 M 54.5 172.5 L 58.5 172.5 M 54.5 151.5 L 58.5 151.5 M 54.5 130.5 L 58.5 130.5 M 54.5 109.5 L 58.5 109.5 M 54.5 88.5 L 58.5 88.5 M 54.5 67.5 L 58.5 67.5" stroke-opacity="1" stroke-linejoin="bevel" stroke-miterlimit="10" stroke-dasharray=""/><text fill="rgb(68,68,68)" stroke="none" font-family="helvetica" font-size="11px" font-style="normal" font-weight="normal" text-decoration="normal" x="34.46666622161865" y="554.9905395507812" text-anchor="start" dominant-baseline="alphabetic" transform="matrix(1, 0, 0, 1, 0.5, 0.5)" fill-opacity="1">−2</text><text fill="rgb(68,68,68)" stroke="none" font-family="helvetica" font-size="11px" font-style="normal" font-weight="normal" text-decoration="normal" x="34.46666622161865" y="449.7178039550781" text-anchor="start" dominant-baseline="alphabetic" transform="matrix(1, 0, 0, 1, 0.5, 0.5)" fill-opacity="1">−1</text><text fill="rgb(68,68,68)" stroke="none" font-family="helvetica" font-size="11px" font-style="normal" font-weight="normal" text-decoration="normal" x="40.88333320617676" y="344.445068359375" text-anchor="start" dominant-baseline="alphabetic" transform="matrix(1, 0, 0, 1, 0.5, 0.5)" fill-opacity="1">0</text><text fill="rgb(68,68,68)" stroke="none" font-family="helvetica" font-size="11px" font-style="normal" font-weight="normal" text-decoration="normal" x="40.88333320617676" y="239.17234802246094" text-anchor="start" dominant-baseline="alphabetic" transform="matrix(1, 0, 0, 1, 0.5, 0.5)" fill-opacity="1">1</text><text fill="rgb(68,68,68)" stroke="none" font-family="helvetica" font-size="11px" font-style="normal" font-weight="normal" text-decoration="normal" x="40.88333320617676" y="133.8996124267578" text-anchor="start" dominant-baseline="alphabetic" transform="matrix(1, 0, 0, 1, 0.5, 0.5)" fill-opacity="1">2</text><text fill="rgb(68,68,68)" stroke="none" font-family="helvetica" font-size="15pt" font-style="italic" font-weight="normal" text-decoration="normal" x="-11.316666603088379" y="336.076171875" text-anchor="start" dominant-baseline="alphabetic" transform="matrix(6.123233995736766e-17, -1, 1, 6.123233995736766e-17, -313.53333377838135, 367.46666622161865)" fill-opacity="1">students</text><path fill="rgb(255,255,255)" stroke="rgb(229,229,229)" paint-order="fill" d="M 1128.2333374023438 61.5 L 1326.5 61.5 L 1326.5 400.5 L 1128.2333374023438 400.5 L 1128.2333374023438 61.5" fill-opacity="0.9490196078431372" clip-path="url(#WlpyeZsIEfbA)" stroke-opacity="0.5019607843137255" stroke-linejoin="bevel" stroke-miterlimit="10" stroke-dasharray=""/><text fill="rgb(68,68,68)" stroke="none" font-family="helvetica" font-size="13px" font-style="normal" font-weight="normal" text-decoration="normal" x="1162.7333374023438" y="81" text-anchor="start" dominant-baseline="central" clip-path="url(#WlpyeZsIEfbA)" transform="matrix(1, 0, 0, 1, 0.5, 0.5)" fill-opacity="1">wavelength</text><path fill="rgb(0,255,40)" stroke="none" paint-order="stroke" d="M 1140.2333374023438 73.5 L 1156.2333374023438 73.5 L 1156.2333374023438 89.5 L 1140.2333374023438 89.5 L 1140.2333374023438 73.5" fill-opacity="1" clip-path="url(#WlpyeZsIEfbA)"/><path fill="rgb(216,17,89)" stroke="none" paint-order="stroke" d="M 1140.2333374023438 73.5 L 1156.2333374023438 73.5 L 1156.2333374023438 89.5 L 1140.2333374023438 89.5 L 1140.2333374023438 73.5" fill-opacity="1" clip-path="url(#WlpyeZsIEfbA)"/><text fill="rgb(68,68,68)" stroke="none" font-family="helvetica" font-size="13px" font-style="normal" font-weight="normal" text-decoration="normal" x="1162.7333374023438" y="104" text-anchor="start" dominant-baseline="central" clip-path="url(#WlpyeZsIEfbA)" transform="matrix(1, 0, 0, 1, 0.5, 0.5)" fill-opacity="1">solution</text><path fill="rgb(251,0,7)" stroke="none" paint-order="stroke" d="M 1140.2333374023438 96.5 L 1156.2333374023438 96.5 L 1156.2333374023438 112.5 L 1140.2333374023438 112.5 L 1140.2333374023438 96.5" fill-opacity="1" clip-path="url(#WlpyeZsIEfbA)"/><path fill="rgb(33,131,128)" stroke="none" paint-order="stroke" d="M 1140.2333374023438 96.5 L 1156.2333374023438 96.5 L 1156.2333374023438 112.5 L 1140.2333374023438 112.5 L 1140.2333374023438 96.5" fill-opacity="1" clip-path="url(#WlpyeZsIEfbA)"/><text fill="rgb(68,68,68)" stroke="none" font-family="helvetica" font-size="13px" font-style="normal" font-weight="normal" text-decoration="normal" x="1162.7333374023438" y="127" text-anchor="start" dominant-baseline="central" clip-path="url(#WlpyeZsIEfbA)" transform="matrix(1, 0, 0, 1, 0.5, 0.5)" fill-opacity="1">laser</text><path fill="rgb(105,29,48)" stroke="none" paint-order="stroke" d="M 1140.2333374023438 119.5 L 1156.2333374023438 119.5 L 1156.2333374023438 135.5 L 1140.2333374023438 135.5 L 1140.2333374023438 119.5" fill-opacity="1" clip-path="url(#WlpyeZsIEfbA)"/><text fill="rgb(68,68,68)" stroke="none" font-family="helvetica" font-size="13px" font-style="normal" font-weight="normal" text-decoration="normal" x="1162.7333374023438" y="150" text-anchor="start" dominant-baseline="central" clip-path="url(#WlpyeZsIEfbA)" transform="matrix(1, 0, 0, 1, 0.5, 0.5)" fill-opacity="1">ruler</text><path fill="rgb(255,188,66)" stroke="none" paint-order="stroke" d="M 1140.2333374023438 142.5 L 1156.2333374023438 142.5 L 1156.2333374023438 158.5 L 1140.2333374023438 158.5 L 1140.2333374023438 142.5" fill-opacity="1" clip-path="url(#WlpyeZsIEfbA)"/><text fill="rgb(68,68,68)" stroke="none" font-family="helvetica" font-size="13px" font-style="normal" font-weight="normal" text-decoration="normal" x="1162.7333374023438" y="173" text-anchor="start" dominant-baseline="central" clip-path="url(#WlpyeZsIEfbA)" transform="matrix(1, 0, 0, 1, 0.5, 0.5)" fill-opacity="1">restarts</text><text fill="rgb(68,68,68)" stroke="none" font-family="helvetica" font-size="13px" font-style="normal" font-weight="normal" text-decoration="normal" x="1162.7333374023438" y="196" text-anchor="start" dominant-baseline="central" clip-path="url(#WlpyeZsIEfbA)" transform="matrix(1, 0, 0, 1, 0.5, 0.5)" fill-opacity="1">transmittance_absorbance</text><text fill="rgb(68,68,68)" stroke="none" font-family="helvetica" font-size="13px" font-style="normal" font-weight="normal" text-decoration="normal" x="1162.7333374023438" y="219" text-anchor="start" dominant-baseline="central" clip-path="url(#WlpyeZsIEfbA)" transform="matrix(1, 0, 0, 1, 0.5, 0.5)" fill-opacity="1">magnifier</text><path fill="rgb(255,188,66)" stroke="none" paint-order="stroke" d="M 1140.2333374023438 211.5 L 1156.2333374023438 211.5 L 1156.2333374023438 227.5 L 1140.2333374023438 227.5 L 1140.2333374023438 211.5" fill-opacity="1" clip-path="url(#WlpyeZsIEfbA)"/><text fill="rgb(68,68,68)" stroke="none" font-family="helvetica" font-size="13px" font-style="normal" font-weight="normal" text-decoration="normal" x="1162.7333374023438" y="242" text-anchor="start" dominant-baseline="central" clip-path="url(#WlpyeZsIEfbA)" transform="matrix(1, 0, 0, 1, 0.5, 0.5)" fill-opacity="1">concentration</text><path fill="rgb(115,210,222)" stroke="none" paint-order="stroke" d="M 1140.2333374023438 234.5 L 1156.2333374023438 234.5 L 1156.2333374023438 250.5 L 1140.2333374023438 250.5 L 1140.2333374023438 234.5" fill-opacity="1" clip-path="url(#WlpyeZsIEfbA)"/><text fill="rgb(68,68,68)" stroke="none" font-family="helvetica" font-size="13px" font-style="normal" font-weight="normal" text-decoration="normal" x="1162.7333374023438" y="265" text-anchor="start" dominant-baseline="central" clip-path="url(#WlpyeZsIEfbA)" transform="matrix(1, 0, 0, 1, 0.5, 0.5)" fill-opacity="1">flask</text><path fill="rgb(28,49,68)" stroke="none" paint-order="stroke" d="M 1140.2333374023438 257.5 L 1156.2333374023438 257.5 L 1156.2333374023438 273.5 L 1140.2333374023438 273.5 L 1140.2333374023438 257.5" fill-opacity="1" clip-path="url(#WlpyeZsIEfbA)"/><text fill="rgb(68,68,68)" stroke="none" font-family="helvetica" font-size="13px" font-style="normal" font-weight="normal" text-decoration="normal" x="1162.7333374023438" y="288" text-anchor="start" dominant-baseline="central" clip-path="url(#WlpyeZsIEfbA)" transform="matrix(1, 0, 0, 1, 0.5, 0.5)" fill-opacity="1">pdf</text><path fill="rgb(239,185,203)" stroke="none" paint-order="stroke" d="M 1140.2333374023438 280.5 L 1156.2333374023438 280.5 L 1156.2333374023438 296.5 L 1140.2333374023438 296.5 L 1140.2333374023438 280.5" fill-opacity="1" clip-path="url(#WlpyeZsIEfbA)"/><text fill="rgb(68,68,68)" stroke="none" font-family="helvetica" font-size="13px" font-style="normal" font-weight="normal" text-decoration="normal" x="1162.7333374023438" y="311" text-anchor="start" dominant-baseline="central" clip-path="url(#WlpyeZsIEfbA)" transform="matrix(1, 0, 0, 1, 0.5, 0.5)" fill-opacity="1">concentrationlab</text><text fill="rgb(68,68,68)" stroke="none" font-family="helvetica" font-size="13px" font-style="normal" font-weight="normal" text-decoration="normal" x="1162.7333374023438" y="334" text-anchor="start" dominant-baseline="central" clip-path="url(#WlpyeZsIEfbA)" transform="matrix(1, 0, 0, 1, 0.5, 0.5)" fill-opacity="1">wavelength_slider</text><text fill="rgb(68,68,68)" stroke="none" font-family="helvetica" font-size="13px" font-style="normal" font-weight="normal" text-decoration="normal" x="1162.7333374023438" y="357" text-anchor="start" dominant-baseline="central" clip-path="url(#WlpyeZsIEfbA)" transform="matrix(1, 0, 0, 1, 0.5, 0.5)" fill-opacity="1">ruler measuring</text><path fill="rgb(255,188,66)" stroke="none" paint-order="stroke" d="M 1140.2333374023438 349.5 L 1156.2333374023438 349.5 L 1156.2333374023438 365.5 L 1140.2333374023438 365.5 L 1140.2333374023438 349.5" fill-opacity="1" clip-path="url(#WlpyeZsIEfbA)"/><text fill="rgb(68,68,68)" stroke="none" font-family="helvetica" font-size="13px" font-style="normal" font-weight="normal" text-decoration="normal" x="1162.7333374023438" y="380" text-anchor="start" dominant-baseline="central" clip-path="url(#WlpyeZsIEfbA)" transform="matrix(1, 0, 0, 1, 0.5, 0.5)" fill-opacity="1">dependent variable</text><path fill="rgb(143,45,86)" stroke="none" paint-order="stroke" d="M 1140.2333374023438 372.5 L 1156.2333374023438 372.5 L 1156.2333374023438 388.5 L 1140.2333374023438 388.5 L 1140.2333374023438 372.5" fill-opacity="1" clip-path="url(#WlpyeZsIEfbA)"/><text fill="rgb(68,68,68)" stroke="none" font-family="helvetica" font-size="25pt" font-style="normal" font-weight="bold" text-decoration="normal" x="58" y="38.740885416666664" text-anchor="start" dominant-baseline="alphabetic" transform="matrix(1, 0, 0, 1, 0.5, 0.5)" fill-opacity="1">Timeline for student nfshnktq with permutation 3012 for task 1</text></svg>