<svg version="1.1" xmlns="http://www.w3.org/2000/svg" width="1366" height="683"><defs><clipPath id="zelnMIPbNWVp"><path fill="none" stroke="none" d="M 58.5 51.5 L 1336.5 51.5 L 1336.5 630.5 L 58.5 630.5 L 58.5 51.5"/></clipPath><clipPath id="AMzyQKwESlUn"><path fill="none" stroke="none" d="M 58.5 51.5 L 1336.5 51.5 L 1336.5 630.5 L 58.5 630.5 L 58.5 51.5"/></clipPath><clipPath id="xruxZehFNufA"><path fill="none" stroke="none" d="M 58.5 51.5 L 1336.5 51.5 L 1336.5 630.5 L 58.5 630.5 L 58.5 51.5"/></clipPath><clipPath id="cAqvACHqTWGd"><path fill="none" stroke="none" d="M 58.5 51.5 L 1336.5 51.5 L 1336.5 630.5 L 58.5 630.5 L 58.5 51.5"/></clipPath><clipPath id="xgeFJwQrVobS"><path fill="none" stroke="none" d="M 58.5 51.5 L 1336.5 51.5 L 1336.5 630.5 L 58.5 630.5 L 58.5 51.5"/></clipPath><clipPath id="ltcIHQDTeKxX"><path fill="none" stroke="none" d="M 58.5 51.5 L 1336.5 51.5 L 1336.5 630.5 L 58.5 630.5 L 58.5 51.5"/></clipPath><clipPath id="VrcEznOJeInV"><path fill="none" stroke="none" d="M 58.5 51.5 L 1336.5 51.5 L 1336.5 630.5 L 58.5 630.5 L 58.5 51.5"/></clipPath><clipPath id="EvIBdgoNgDof"><path fill="none" stroke="none" d="M 58.5 51.5 L 1336.5 51.5 L 1336.5 630.5 L 58.5 630.5 L 58.5 51.5"/></clipPath><clipPath id="uJcvQggSMQRQ"><path fill="none" stroke="none" d="M 58.5 51.5 L 1336.5 51.5 L 1336.5 630.5 L 58.5 630.5 L 58.5 51.5"/></clipPath><clipPath id="dQNUpGKuNOBz"><path fill="none" stroke="none" d="M 58.5 51.5 L 1336.5 51.5 L 1336.5 630.5 L 58.5 630.5 L 58.5 51.5"/></clipPath><clipPath id="ldcXGXInmrWQ"><path fill="none" stroke="none" d="M 58.5 51.5 L 1336.5 51.5 L 1336.5 630.5 L 58.5 630.5 L 58.5 51.5"/></clipPath><clipPath id="MDBhHofakEUg"><path fill="none" stroke="none" d="M 58.5 51.5 L 1336.5 51.5 L 1336.5 630.5 L 58.5 630.5 L 58.5 51.5"/></clipPath><clipPath id="lutssRFAzRFu"><path fill="none" stroke="none" d="M 58.5 51.5 L 1336.5 51.5 L 1336.5 630.5 L 58.5 630.5 L 58.5 51.5"/></clipPath><clipPath id="HXvDIWbAnNrJ"><path fill="none" stroke="none" d="M 58.5 51.5 L 1336.5 51.5 L 1336.5 630.5 L 58.5 630.5 L 58.5 51.5"/></clipPath><clipPath id="DJZlWOfTfUsT"><path fill="none" stroke="none" d="M 58.5 51.5 L 1336.5 51.5 L 1336.5 630.5 L 58.5 630.5 L 58.5 51.5"/></clipPath><clipPath id="TeRyOdTDdLGv"><path fill="none" stroke="none" d="M 58.5 51.5 L 1336.5 51.5 L 1336.5 630.5 L 58.5 630.5 L 58.5 51.5"/></clipPath><clipPath id="ADdmpmhRTssn"><path fill="none" stroke="none" d="M 58.5 51.5 L 1336.5 51.5 L 1336.5 630.5 L 58.5 630.5 L 58.5 51.5"/></clipPath><clipPath id="qzgnxTAuNxio"><path fill="none" stroke="none" d="M 58.5 51.5 L 1336.5 51.5 L 1336.5 630.5 L 58.5 630.5 L 58.5 51.5"/></clipPath><clipPath id="cGVSMLrEhStE"><path fill="none" stroke="none" d="M 58.5 51.5 L 1336.5 51.5 L 1336.5 630.5 L 58.5 630.5 L 58.5 51.5"/></clipPath><clipPath id="iKgWWgylDJkc"><path fill="none" stroke="none" d="M 58.5 51.5 L 1336.5 51.5 L 1336.5 630.5 L 58.5 630.5 L 58.5 51.5"/></clipPath><clipPath id="BHJdIEZJXAis"><path fill="none" stroke="none" d="M 58.5 51.5 L 1336.5 51.5 L 1336.5 630.5 L 58.5 630.5 L 58.5 51.5"/></clipPath></defs><path fill="rgb(255,255,255)" stroke="none" paint-order="stroke" d="M 0.5 0.5 L 1366.5 0.5 L 1366.5 683.5 L 0.5 683.5 L 0.5 0.5" fill-opacity="1"/><rect fill="#FFFFFF" stroke="none" x="58" y="51" width="1278" height="579" transform="matrix(1, 0, 0, 1, 0.5, 0.5)"/><path fill="rgb(255,255,255)" stroke="none" paint-order="stroke" d="M 58.5 51.5 L 1336.5 51.5 L 1336.5 630.5 L 58.5 630.5 L 58.5 51.5" fill-opacity="1"/><path fill="none" stroke="rgb(229,229,229)" paint-order="fill" d="M 58.5 51.5 L 1336.5 51.5 L 1336.5 630.5 L 58.5 630.5 L 58.5 51.5" stroke-opacity="1" stroke-linejoin="bevel" stroke-miterlimit="10" stroke-dasharray=""/><path fill="none" stroke="rgb(229,229,229)" paint-order="fill" d="M 314.5 630.5 L 314.5 51.5 M 569.5 630.5 L 569.5 51.5 M 825.5 630.5 L 825.5 51.5 M 1080.5 630.5 L 1080.5 51.5" stroke-opacity="1" stroke-linejoin="bevel" stroke-miterlimit="10" stroke-dasharray="" clip-path="url(#zelnMIPbNWVp)"/><path fill="none" stroke="rgb(229,229,229)" paint-order="fill" d="M 58.5 551.5 L 1336.5 551.5 M 58.5 446.5 L 1336.5 446.5 M 58.5 341.5 L 1336.5 341.5 M 58.5 235.5 L 1336.5 235.5 M 58.5 130.5 L 1336.5 130.5" stroke-opacity="1" stroke-linejoin="bevel" stroke-miterlimit="10" stroke-dasharray="" clip-path="url(#AMzyQKwESlUn)"/><path fill="rgb(0,255,40)" stroke="none" paint-order="stroke" d="M 58.5 77.81818389892578 L 344.42437744140625 77.81818389892578 L 344.42437744140625 130.45454788208008 L 58.5 130.45454788208008 L 58.5 77.81818389892578" fill-opacity="1" clip-path="url(#xruxZehFNufA)"/><path fill="rgb(159,255,0)" stroke="none" paint-order="stroke" d="M 344.42437744140625 77.81818389892578 L 379.56554412841797 77.81818389892578 L 379.56554412841797 130.45454788208008 L 344.42437744140625 130.45454788208008 L 344.42437744140625 77.81818389892578" fill-opacity="1" clip-path="url(#xruxZehFNufA)"/><path fill="rgb(110,0,132)" stroke="none" paint-order="stroke" d="M 379.5655517578125 77.81818389892578 L 391.92253398895264 77.81818389892578 L 391.92253398895264 130.45454788208008 L 379.5655517578125 130.45454788208008 L 379.5655517578125 77.81818389892578" fill-opacity="1" clip-path="url(#xruxZehFNufA)"/><path fill="rgb(102,0,183)" stroke="none" paint-order="stroke" d="M 391.92254638671875 77.81818389892578 L 402.1337661743164 77.81818389892578 L 402.1337661743164 130.45454788208008 L 391.92254638671875 130.45454788208008 L 391.92254638671875 77.81818389892578" fill-opacity="1" clip-path="url(#xruxZehFNufA)"/><path fill="rgb(42,0,238)" stroke="none" paint-order="stroke" d="M 402.1337585449219 77.81818389892578 L 412.7309341430664 77.81818389892578 L 412.7309341430664 130.45454788208008 L 402.1337585449219 130.45454788208008 L 402.1337585449219 77.81818389892578" fill-opacity="1" clip-path="url(#xruxZehFNufA)"/><path fill="rgb(0,0,0)" stroke="none" paint-order="stroke" d="M 412.7309265136719 77.81818389892578 L 422.9881544113159 77.81818389892578 L 422.9881544113159 130.45454788208008 L 412.7309265136719 130.45454788208008 L 412.7309265136719 77.81818389892578" fill-opacity="1" clip-path="url(#xruxZehFNufA)"/><path fill="rgb(143,255,0)" stroke="none" paint-order="stroke" d="M 422.9881591796875 77.81818389892578 L 600.4704132080078 77.81818389892578 L 600.4704132080078 130.45454788208008 L 422.9881591796875 130.45454788208008 L 422.9881591796875 77.81818389892578" fill-opacity="1" clip-path="url(#xruxZehFNufA)"/><path fill="rgb(251,0,7)" stroke="none" paint-order="stroke" d="M 58.5 130.4545440673828 L 344.42437744140625 130.4545440673828 L 344.42437744140625 183.0909080505371 L 58.5 183.0909080505371 L 58.5 130.4545440673828" fill-opacity="1" clip-path="url(#cAqvACHqTWGd)"/><path fill="rgb(251,0,7)" stroke="none" paint-order="stroke" d="M 344.42437744140625 130.4545440673828 L 366.8072700500488 130.4545440673828 L 366.8072700500488 183.0909080505371 L 344.42437744140625 183.0909080505371 L 344.42437744140625 130.4545440673828" fill-opacity="1" clip-path="url(#cAqvACHqTWGd)"/><path fill="rgb(237,115,111)" stroke="none" paint-order="stroke" d="M 366.8072814941406 130.4545440673828 L 379.56555557250977 130.4545440673828 L 379.56555557250977 183.0909080505371 L 366.8072814941406 183.0909080505371 L 366.8072814941406 130.4545440673828" fill-opacity="1" clip-path="url(#cAqvACHqTWGd)"/><path fill="rgb(252,105,8)" stroke="none" paint-order="stroke" d="M 379.5655517578125 130.4545440673828 L 391.92253398895264 130.4545440673828 L 391.92253398895264 183.0909080505371 L 379.5655517578125 183.0909080505371 L 379.5655517578125 130.4545440673828" fill-opacity="1" clip-path="url(#cAqvACHqTWGd)"/><path fill="rgb(255,255,10)" stroke="none" paint-order="stroke" d="M 391.92254638671875 130.4545440673828 L 402.1337661743164 130.4545440673828 L 402.1337661743164 183.0909080505371 L 391.92254638671875 183.0909080505371 L 391.92254638671875 130.4545440673828" fill-opacity="1" clip-path="url(#cAqvACHqTWGd)"/><path fill="rgb(56,126,34)" stroke="none" paint-order="stroke" d="M 402.1337585449219 130.4545440673828 L 412.7309341430664 130.4545440673828 L 412.7309341430664 183.0909080505371 L 402.1337585449219 183.0909080505371 L 402.1337585449219 130.4545440673828" fill-opacity="1" clip-path="url(#cAqvACHqTWGd)"/><path fill="rgb(27,121,255)" stroke="none" paint-order="stroke" d="M 412.7309265136719 130.4545440673828 L 422.9881544113159 130.4545440673828 L 422.9881544113159 183.0909080505371 L 412.7309265136719 183.0909080505371 L 412.7309265136719 130.4545440673828" fill-opacity="1" clip-path="url(#cAqvACHqTWGd)"/><path fill="rgb(62,0,101)" stroke="none" paint-order="stroke" d="M 422.9881591796875 130.4545440673828 L 600.4704132080078 130.4545440673828 L 600.4704132080078 183.0909080505371 L 422.9881591796875 183.0909080505371 L 422.9881591796875 130.4545440673828" fill-opacity="1" clip-path="url(#cAqvACHqTWGd)"/><path fill="rgb(105,29,48)" stroke="none" paint-order="stroke" d="M 332.49169921875 183.09091186523438 L 332.55559922009706 183.09091186523438 L 332.55559922009706 498.9090881347656 L 332.49169921875 498.9090881347656 L 332.49169921875 183.09091186523438" fill-opacity="1" clip-path="url(#xgeFJwQrVobS)"/><path fill="rgb(105,29,48)" stroke="none" paint-order="stroke" d="M 335.7838134765625 183.09091186523438 L 335.84771347790956 183.09091186523438 L 335.84771347790956 498.9090881347656 L 335.7838134765625 498.9090881347656 L 335.7838134765625 183.09091186523438" fill-opacity="1" clip-path="url(#xgeFJwQrVobS)"/><path fill="rgb(105,29,48)" stroke="none" paint-order="stroke" d="M 336.5301818847656 183.09091186523438 L 336.5940818861127 183.09091186523438 L 336.5940818861127 498.9090881347656 L 336.5301818847656 498.9090881347656 L 336.5301818847656 183.09091186523438" fill-opacity="1" clip-path="url(#xgeFJwQrVobS)"/><path fill="rgb(162,174,187)" stroke="none" paint-order="stroke" d="M 81.82733154296875 183.09091186523438 L 81.89123154431581 183.09091186523438 L 81.89123154431581 498.9090881347656 L 81.82733154296875 498.9090881347656 L 81.82733154296875 183.09091186523438" fill-opacity="1" clip-path="url(#VrcEznOJeInV)"/><path fill="rgb(162,174,187)" stroke="none" paint-order="stroke" d="M 83.12577819824219 183.09091186523438 L 83.18967819958925 183.09091186523438 L 83.18967819958925 498.9090881347656 L 83.12577819824219 498.9090881347656 L 83.12577819824219 183.09091186523438" fill-opacity="1" clip-path="url(#VrcEznOJeInV)"/><path fill="rgb(162,174,187)" stroke="none" paint-order="stroke" d="M 96.72114562988281 183.09091186523438 L 96.78504563122988 183.09091186523438 L 96.78504563122988 498.9090881347656 L 96.72114562988281 498.9090881347656 L 96.72114562988281 183.09091186523438" fill-opacity="1" clip-path="url(#EvIBdgoNgDof)"/><path fill="rgb(162,174,187)" stroke="none" paint-order="stroke" d="M 98.6803207397461 183.09091186523438 L 98.74422074109316 183.09091186523438 L 98.74422074109316 498.9090881347656 L 98.6803207397461 498.9090881347656 L 98.6803207397461 183.09091186523438" fill-opacity="1" clip-path="url(#EvIBdgoNgDof)"/><path fill="rgb(162,174,187)" stroke="none" paint-order="stroke" d="M 451.3111877441406 183.09091186523438 L 451.3750877454877 183.09091186523438 L 451.3750877454877 498.9090881347656 L 451.3111877441406 498.9090881347656 L 451.3111877441406 183.09091186523438" fill-opacity="1" clip-path="url(#EvIBdgoNgDof)"/><path fill="rgb(162,174,187)" stroke="none" paint-order="stroke" d="M 454.2314147949219 183.09091186523438 L 454.29531479626894 183.09091186523438 L 454.29531479626894 498.9090881347656 L 454.2314147949219 498.9090881347656 L 454.2314147949219 183.09091186523438" fill-opacity="1" clip-path="url(#EvIBdgoNgDof)"/><path fill="rgb(162,174,187)" stroke="none" paint-order="stroke" d="M 467.28619384765625 183.09091186523438 L 467.3500938490033 183.09091186523438 L 467.3500938490033 498.9090881347656 L 467.28619384765625 498.9090881347656 L 467.28619384765625 183.09091186523438" fill-opacity="1" clip-path="url(#EvIBdgoNgDof)"/><path fill="rgb(33,131,128)" stroke="none" paint-order="stroke" d="M 81.82733154296875 183.09091186523438 L 81.89123154431581 183.09091186523438 L 81.89123154431581 498.9090881347656 L 81.82733154296875 498.9090881347656 L 81.82733154296875 183.09091186523438" fill-opacity="1" clip-path="url(#ldcXGXInmrWQ)"/><path fill="rgb(33,131,128)" stroke="none" paint-order="stroke" d="M 83.12577819824219 183.09091186523438 L 83.18967819958925 183.09091186523438 L 83.18967819958925 498.9090881347656 L 83.12577819824219 498.9090881347656 L 83.12577819824219 183.09091186523438" fill-opacity="1" clip-path="url(#ldcXGXInmrWQ)"/><path fill="rgb(33,131,128)" stroke="none" paint-order="stroke" d="M 110.809814453125 183.09091186523438 L 117.41707468032837 183.09091186523438 L 117.41707468032837 498.9090881347656 L 110.809814453125 498.9090881347656 L 110.809814453125 183.09091186523438" fill-opacity="1" clip-path="url(#ldcXGXInmrWQ)"/><path fill="rgb(33,131,128)" stroke="none" paint-order="stroke" d="M 134.39785766601562 183.09091186523438 L 150.63101387023926 183.09091186523438 L 150.63101387023926 498.9090881347656 L 134.39785766601562 498.9090881347656 L 134.39785766601562 183.09091186523438" fill-opacity="1" clip-path="url(#ldcXGXInmrWQ)"/><path fill="rgb(33,131,128)" stroke="none" paint-order="stroke" d="M 339.41717529296875 183.09091186523438 L 344.4243793487549 183.09091186523438 L 344.4243793487549 498.9090881347656 L 339.41717529296875 498.9090881347656 L 339.41717529296875 183.09091186523438" fill-opacity="1" clip-path="url(#ldcXGXInmrWQ)"/><path fill="rgb(33,131,128)" stroke="none" paint-order="stroke" d="M 350.48211669921875 183.09091186523438 L 359.2734785079956 183.09091186523438 L 359.2734785079956 498.9090881347656 L 350.48211669921875 498.9090881347656 L 350.48211669921875 183.09091186523438" fill-opacity="1" clip-path="url(#ldcXGXInmrWQ)"/><path fill="rgb(33,131,128)" stroke="none" paint-order="stroke" d="M 363.47552490234375 183.09091186523438 L 366.80727100372314 183.09091186523438 L 366.80727100372314 498.9090881347656 L 363.47552490234375 498.9090881347656 L 363.47552490234375 183.09091186523438" fill-opacity="1" clip-path="url(#ldcXGXInmrWQ)"/><path fill="rgb(33,131,128)" stroke="none" paint-order="stroke" d="M 374.787109375 183.09091186523438 L 379.56555128097534 183.09091186523438 L 379.56555128097534 498.9090881347656 L 374.787109375 498.9090881347656 L 374.787109375 183.09091186523438" fill-opacity="1" clip-path="url(#ldcXGXInmrWQ)"/><path fill="rgb(33,131,128)" stroke="none" paint-order="stroke" d="M 387.8597717285156 183.09091186523438 L 391.9225335121155 183.09091186523438 L 391.9225335121155 498.9090881347656 L 387.8597717285156 498.9090881347656 L 387.8597717285156 183.09091186523438" fill-opacity="1" clip-path="url(#ldcXGXInmrWQ)"/><path fill="rgb(33,131,128)" stroke="none" paint-order="stroke" d="M 399.0000915527344 183.09091186523438 L 402.13374757766724 183.09091186523438 L 402.13374757766724 498.9090881347656 L 399.0000915527344 498.9090881347656 L 399.0000915527344 183.09091186523438" fill-opacity="1" clip-path="url(#ldcXGXInmrWQ)"/><path fill="rgb(33,131,128)" stroke="none" paint-order="stroke" d="M 410.51361083984375 183.09091186523438 L 412.7309408187866 183.09091186523438 L 412.7309408187866 498.9090881347656 L 410.51361083984375 498.9090881347656 L 410.51361083984375 183.09091186523438" fill-opacity="1" clip-path="url(#ldcXGXInmrWQ)"/><path fill="rgb(33,131,128)" stroke="none" paint-order="stroke" d="M 420.71075439453125 183.09091186523438 L 422.9881503582001 183.09091186523438 L 422.9881503582001 498.9090881347656 L 420.71075439453125 498.9090881347656 L 420.71075439453125 183.09091186523438" fill-opacity="1" clip-path="url(#ldcXGXInmrWQ)"/><path fill="rgb(115,210,222)" stroke="none" paint-order="stroke" d="M 132.45147705078125 183.09091186523438 L 132.51537705212831 183.09091186523438 L 132.51537705212831 498.9090881347656 L 132.45147705078125 498.9090881347656 L 132.45147705078125 183.09091186523438" fill-opacity="1" clip-path="url(#MDBhHofakEUg)"/><path fill="rgb(115,210,222)" stroke="none" paint-order="stroke" d="M 132.45147705078125 183.09091186523438 L 132.51537705212831 183.09091186523438 L 132.51537705212831 498.9090881347656 L 132.45147705078125 498.9090881347656 L 132.45147705078125 183.09091186523438" fill-opacity="1" clip-path="url(#MDBhHofakEUg)"/><path fill="rgb(28,49,68)" stroke="none" paint-order="stroke" d="M 101.65294647216797 183.09091186523438 L 101.91877046227455 183.09091186523438 L 101.91877046227455 498.9090881347656 L 101.65294647216797 498.9090881347656 L 101.65294647216797 183.09091186523438" fill-opacity="1" clip-path="url(#lutssRFAzRFu)"/><path fill="rgb(28,49,68)" stroke="none" paint-order="stroke" d="M 102.83892822265625 183.09091186523438 L 108.85575199127197 183.09091186523438 L 108.85575199127197 498.9090881347656 L 102.83892822265625 498.9090881347656 L 102.83892822265625 183.09091186523438" fill-opacity="1" clip-path="url(#lutssRFAzRFu)"/><path fill="rgb(28,49,68)" stroke="none" paint-order="stroke" d="M 437.03338623046875 183.09091186523438 L 437.308156222105 183.09091186523438 L 437.308156222105 498.9090881347656 L 437.03338623046875 498.9090881347656 L 437.03338623046875 183.09091186523438" fill-opacity="1" clip-path="url(#lutssRFAzRFu)"/><path fill="rgb(239,185,203)" stroke="none" paint-order="stroke" d="M 161.48635864257812 183.09091186523438 L 179.17899131774902 183.09091186523438 L 179.17899131774902 498.9090881347656 L 161.48635864257812 498.9090881347656 L 161.48635864257812 183.09091186523438" fill-opacity="1" clip-path="url(#HXvDIWbAnNrJ)"/><path fill="rgb(239,185,203)" stroke="none" paint-order="stroke" d="M 184.67437744140625 183.09091186523438 L 319.635009765625 183.09091186523438 L 319.635009765625 498.9090881347656 L 184.67437744140625 498.9090881347656 L 184.67437744140625 183.09091186523438" fill-opacity="1" clip-path="url(#HXvDIWbAnNrJ)"/><path fill="rgb(239,185,203)" stroke="none" paint-order="stroke" d="M 504.9437255859375 183.09091186523438 L 565.639778137207 183.09091186523438 L 565.639778137207 498.9090881347656 L 504.9437255859375 498.9090881347656 L 504.9437255859375 183.09091186523438" fill-opacity="1" clip-path="url(#HXvDIWbAnNrJ)"/><path fill="rgb(143,45,86)" stroke="none" paint-order="stroke" d="M 58.5 551.5454711914062 L 332.49169921875 551.5454711914062 L 332.49169921875 604.1818351745605 L 58.5 604.1818351745605 L 58.5 551.5454711914062" fill-opacity="1" clip-path="url(#qzgnxTAuNxio)"/><path fill="rgb(63,136,197)" stroke="none" paint-order="stroke" d="M 332.49169921875 551.5454711914062 L 335.7838273048401 551.5454711914062 L 335.7838273048401 604.1818351745605 L 332.49169921875 604.1818351745605 L 332.49169921875 551.5454711914062" fill-opacity="1" clip-path="url(#qzgnxTAuNxio)"/><path fill="rgb(143,45,86)" stroke="none" paint-order="stroke" d="M 335.7838134765625 551.5454711914062 L 336.5301654934883 551.5454711914062 L 336.5301654934883 604.1818351745605 L 335.7838134765625 604.1818351745605 L 335.7838134765625 551.5454711914062" fill-opacity="1" clip-path="url(#qzgnxTAuNxio)"/><path fill="rgb(63,136,197)" stroke="none" paint-order="stroke" d="M 336.5301818847656 551.5454711914062 L 451.31119537353516 551.5454711914062 L 451.31119537353516 604.1818351745605 L 336.5301818847656 604.1818351745605 L 336.5301818847656 551.5454711914062" fill-opacity="1" clip-path="url(#qzgnxTAuNxio)"/><path fill="rgb(81,60,99)" stroke="none" paint-order="stroke" d="M 451.3111877441406 551.5454711914062 L 454.2314176559448 551.5454711914062 L 454.2314176559448 604.1818351745605 L 451.3111877441406 604.1818351745605 L 451.3111877441406 551.5454711914062" fill-opacity="1" clip-path="url(#qzgnxTAuNxio)"/><path fill="rgb(63,136,197)" stroke="none" paint-order="stroke" d="M 454.2314147949219 551.5454711914062 L 467.2861852645874 551.5454711914062 L 467.2861852645874 604.1818351745605 L 454.2314147949219 604.1818351745605 L 454.2314147949219 551.5454711914062" fill-opacity="1" clip-path="url(#qzgnxTAuNxio)"/><path fill="rgb(81,60,99)" stroke="none" paint-order="stroke" d="M 467.28619384765625 551.5454711914062 L 600.4704132080078 551.5454711914062 L 600.4704132080078 604.1818351745605 L 467.28619384765625 604.1818351745605 L 467.28619384765625 551.5454711914062" fill-opacity="1" clip-path="url(#qzgnxTAuNxio)"/><path fill="none" stroke="rgb(0,0,0)" paint-order="fill" d="M 58.5 77.81818389892578 L 600.4703979492188 77.81818389892578 L 600.4703979492188 604.1818313598633 L 58.5 604.1818313598633 L 58.5 77.81818389892578" stroke-opacity="1" stroke-linejoin="bevel" stroke-miterlimit="10" stroke-dasharray="" clip-path="url(#cGVSMLrEhStE)"/><path fill="none" stroke="rgb(0,0,0)" paint-order="fill" d="M 58.5 630.5 L 1336.5 630.5" stroke-opacity="1" stroke-linejoin="bevel" stroke-miterlimit="10" stroke-dasharray=""/><path fill="none" stroke="rgb(0,0,0)" paint-order="fill" d="M 58.5 636.5 L 58.5 628.5 M 314.5 636.5 L 314.5 628.5 M 569.5 636.5 L 569.5 628.5 M 825.5 636.5 L 825.5 628.5 M 1080.5 636.5 L 1080.5 628.5 M 1336.5 636.5 L 1336.5 628.5" stroke-opacity="1" stroke-linejoin="bevel" stroke-miterlimit="10" stroke-dasharray=""/><path fill="none" stroke="rgb(0,0,0)" paint-order="fill" d="M 58.5 634.5 L 58.5 630.5 M 109.5 634.5 L 109.5 630.5 M 160.5 634.5 L 160.5 630.5 M 211.5 634.5 L 211.5 630.5 M 262.5 634.5 L 262.5 630.5 M 314.5 634.5 L 314.5 630.5 M 365.5 634.5 L 365.5 630.5 M 416.5 634.5 L 416.5 630.5 M 467.5 634.5 L 467.5 630.5 M 518.5 634.5 L 518.5 630.5 M 569.5 634.5 L 569.5 630.5 M 620.5 634.5 L 620.5 630.5 M 671.5 634.5 L 671.5 630.5 M 723.5 634.5 L 723.5 630.5 M 774.5 634.5 L 774.5 630.5 M 825.5 634.5 L 825.5 630.5 M 876.5 634.5 L 876.5 630.5 M 927.5 634.5 L 927.5 630.5 M 978.5 634.5 L 978.5 630.5 M 1029.5 634.5 L 1029.5 630.5 M 1080.5 634.5 L 1080.5 630.5 M 1132.5 634.5 L 1132.5 630.5 M 1183.5 634.5 L 1183.5 630.5 M 1234.5 634.5 L 1234.5 630.5 M 1285.5 634.5 L 1285.5 630.5 M 1336.5 634.5 L 1336.5 630.5" stroke-opacity="1" stroke-linejoin="bevel" stroke-miterlimit="10" stroke-dasharray=""/><text fill="rgb(68,68,68)" stroke="none" font-family="helvetica" font-size="11px" font-style="normal" font-weight="normal" text-decoration="normal" x="54.94166660308838" y="648.89013671875" text-anchor="start" dominant-baseline="alphabetic" transform="matrix(1, 0, 0, 1, 0.5, 0.5)" fill-opacity="1">0</text><text fill="rgb(68,68,68)" stroke="none" font-family="helvetica" font-size="11px" font-style="normal" font-weight="normal" text-decoration="normal" x="304.42500591278076" y="648.89013671875" text-anchor="start" dominant-baseline="alphabetic" transform="matrix(1, 0, 0, 1, 0.5, 0.5)" fill-opacity="1">200</text><text fill="rgb(68,68,68)" stroke="none" font-family="helvetica" font-size="11px" font-style="normal" font-weight="normal" text-decoration="normal" x="560.0250120162964" y="648.89013671875" text-anchor="start" dominant-baseline="alphabetic" transform="matrix(1, 0, 0, 1, 0.5, 0.5)" fill-opacity="1">400</text><text fill="rgb(68,68,68)" stroke="none" font-family="helvetica" font-size="11px" font-style="normal" font-weight="normal" text-decoration="normal" x="815.6249876022339" y="648.89013671875" text-anchor="start" dominant-baseline="alphabetic" transform="matrix(1, 0, 0, 1, 0.5, 0.5)" fill-opacity="1">600</text><text fill="rgb(68,68,68)" stroke="none" font-family="helvetica" font-size="11px" font-style="normal" font-weight="normal" text-decoration="normal" x="1071.2250242233276" y="648.89013671875" text-anchor="start" dominant-baseline="alphabetic" transform="matrix(1, 0, 0, 1, 0.5, 0.5)" fill-opacity="1">800</text><text fill="rgb(68,68,68)" stroke="none" font-family="helvetica" font-size="11px" font-style="normal" font-weight="normal" text-decoration="normal" x="1323.7666664123535" y="648.89013671875" text-anchor="start" dominant-baseline="alphabetic" transform="matrix(1, 0, 0, 1, 0.5, 0.5)" fill-opacity="1">1000</text><text fill="rgb(68,68,68)" stroke="none" font-family="helvetica" font-size="15pt" font-style="italic" font-weight="normal" text-decoration="normal" x="666.4416675567627" y="676.06982421875" text-anchor="start" dominant-baseline="alphabetic" transform="matrix(1, 0, 0, 1, 0.5, 0.5)" fill-opacity="1">time(s)</text><path fill="none" stroke="rgb(0,0,0)" paint-order="fill" d="M 58.5 630.5 L 58.5 51.5" stroke-opacity="1" stroke-linejoin="bevel" stroke-miterlimit="10" stroke-dasharray=""/><path fill="none" stroke="rgb(0,0,0)" paint-order="fill" d="M 52.5 551.5 L 60.5 551.5 M 52.5 446.5 L 60.5 446.5 M 52.5 341.5 L 60.5 341.5 M 52.5 235.5 L 60.5 235.5 M 52.5 130.5 L 60.5 130.5" stroke-opacity="1" stroke-linejoin="bevel" stroke-miterlimit="10" stroke-dasharray=""/><path fill="none" stroke="rgb(0,0,0)" paint-order="fill" d="M 54.5 572.5 L 58.5 572.5 M 54.5 593.5 L 58.5 593.5 M 54.5 614.5 L 58.5 614.5 M 54.5 551.5 L 58.5 551.5 M 54.5 530.5 L 58.5 530.5 M 54.5 509.5 L 58.5 509.5 M 54.5 488.5 L 58.5 488.5 M 54.5 467.5 L 58.5 467.5 M 54.5 446.5 L 58.5 446.5 M 54.5 425.5 L 58.5 425.5 M 54.5 404.5 L 58.5 404.5 M 54.5 383.5 L 58.5 383.5 M 54.5 362.5 L 58.5 362.5 M 54.5 341.5 L 58.5 341.5 M 54.5 319.5 L 58.5 319.5 M 54.5 298.5 L 58.5 298.5 M 54.5 277.5 L 58.5 277.5 M 54.5 256.5 L 58.5 256.5 M 54.5 235.5 L 58.5 235.5 M 54.5 214.5 L 58.5 214.5 M 54.5 193.5 L 58.5 193.5 M 54.5 172.5 L 58.5 172.5 M 54.5 151.5 L 58.5 151.5 M 54.5 130.5 L 58.5 130.5 M 54.5 109.5 L 58.5 109.5 M 54.5 88.5 L 58.5 88.5 M 54.5 67.5 L 58.5 67.5" stroke-opacity="1" stroke-linejoin="bevel" stroke-miterlimit="10" stroke-dasharray=""/><text fill="rgb(68,68,68)" stroke="none" font-family="helvetica" font-size="11px" font-style="normal" font-weight="normal" text-decoration="normal" x="34.46666622161865" y="554.9905395507812" text-anchor="start" dominant-baseline="alphabetic" transform="matrix(1, 0, 0, 1, 0.5, 0.5)" fill-opacity="1">−2</text><text fill="rgb(68,68,68)" stroke="none" font-family="helvetica" font-size="11px" font-style="normal" font-weight="normal" text-decoration="normal" x="34.46666622161865" y="449.7178039550781" text-anchor="start" dominant-baseline="alphabetic" transform="matrix(1, 0, 0, 1, 0.5, 0.5)" fill-opacity="1">−1</text><text fill="rgb(68,68,68)" stroke="none" font-family="helvetica" font-size="11px" font-style="normal" font-weight="normal" text-decoration="normal" x="40.88333320617676" y="344.445068359375" text-anchor="start" dominant-baseline="alphabetic" transform="matrix(1, 0, 0, 1, 0.5, 0.5)" fill-opacity="1">0</text><text fill="rgb(68,68,68)" stroke="none" font-family="helvetica" font-size="11px" font-style="normal" font-weight="normal" text-decoration="normal" x="40.88333320617676" y="239.17234802246094" text-anchor="start" dominant-baseline="alphabetic" transform="matrix(1, 0, 0, 1, 0.5, 0.5)" fill-opacity="1">1</text><text fill="rgb(68,68,68)" stroke="none" font-family="helvetica" font-size="11px" font-style="normal" font-weight="normal" text-decoration="normal" x="40.88333320617676" y="133.8996124267578" text-anchor="start" dominant-baseline="alphabetic" transform="matrix(1, 0, 0, 1, 0.5, 0.5)" fill-opacity="1">2</text><text fill="rgb(68,68,68)" stroke="none" font-family="helvetica" font-size="15pt" font-style="italic" font-weight="normal" text-decoration="normal" x="-11.316666603088379" y="336.076171875" text-anchor="start" dominant-baseline="alphabetic" transform="matrix(6.123233995736766e-17, -1, 1, 6.123233995736766e-17, -313.53333377838135, 367.46666622161865)" fill-opacity="1">students</text><path fill="rgb(255,255,255)" stroke="rgb(229,229,229)" paint-order="fill" d="M 1128.2333374023438 61.5 L 1326.5 61.5 L 1326.5 400.5 L 1128.2333374023438 400.5 L 1128.2333374023438 61.5" fill-opacity="0.9490196078431372" clip-path="url(#iKgWWgylDJkc)" stroke-opacity="0.5019607843137255" stroke-linejoin="bevel" stroke-miterlimit="10" stroke-dasharray=""/><g clip-path="url(#iKgWWgylDJkc)"><text fill="rgb(68,68,68)" stroke="none" font-family="helvetica" font-size="13px" font-style="normal" font-weight="normal" text-decoration="normal" x="1162.7333374023438" y="81" text-anchor="start" dominant-baseline="central" transform="matrix(1, 0, 0, 1, 0.5, 0.5)" fill-opacity="1">wavelength</text></g><path fill="rgb(0,255,40)" stroke="none" paint-order="stroke" d="M 1140.2333374023438 73.5 L 1156.2333374023438 73.5 L 1156.2333374023438 89.5 L 1140.2333374023438 89.5 L 1140.2333374023438 73.5" fill-opacity="1" clip-path="url(#iKgWWgylDJkc)"/><g clip-path="url(#iKgWWgylDJkc)"><text fill="rgb(68,68,68)" stroke="none" font-family="helvetica" font-size="13px" font-style="normal" font-weight="normal" text-decoration="normal" x="1162.7333374023438" y="104" text-anchor="start" dominant-baseline="central" transform="matrix(1, 0, 0, 1, 0.5, 0.5)" fill-opacity="1">solution</text></g><path fill="rgb(251,0,7)" stroke="none" paint-order="stroke" d="M 1140.2333374023438 96.5 L 1156.2333374023438 96.5 L 1156.2333374023438 112.5 L 1140.2333374023438 112.5 L 1140.2333374023438 96.5" fill-opacity="1" clip-path="url(#iKgWWgylDJkc)"/><path fill="rgb(33,131,128)" stroke="none" paint-order="stroke" d="M 1140.2333374023438 96.5 L 1156.2333374023438 96.5 L 1156.2333374023438 112.5 L 1140.2333374023438 112.5 L 1140.2333374023438 96.5" fill-opacity="1" clip-path="url(#iKgWWgylDJkc)"/><g clip-path="url(#iKgWWgylDJkc)"><text fill="rgb(68,68,68)" stroke="none" font-family="helvetica" font-size="13px" font-style="normal" font-weight="normal" text-decoration="normal" x="1162.7333374023438" y="127" text-anchor="start" dominant-baseline="central" transform="matrix(1, 0, 0, 1, 0.5, 0.5)" fill-opacity="1">laser</text></g><path fill="rgb(105,29,48)" stroke="none" paint-order="stroke" d="M 1140.2333374023438 119.5 L 1156.2333374023438 119.5 L 1156.2333374023438 135.5 L 1140.2333374023438 135.5 L 1140.2333374023438 119.5" fill-opacity="1" clip-path="url(#iKgWWgylDJkc)"/><g clip-path="url(#iKgWWgylDJkc)"><text fill="rgb(68,68,68)" stroke="none" font-family="helvetica" font-size="13px" font-style="normal" font-weight="normal" text-decoration="normal" x="1162.7333374023438" y="150" text-anchor="start" dominant-baseline="central" transform="matrix(1, 0, 0, 1, 0.5, 0.5)" fill-opacity="1">ruler</text></g><g clip-path="url(#iKgWWgylDJkc)"><text fill="rgb(68,68,68)" stroke="none" font-family="helvetica" font-size="13px" font-style="normal" font-weight="normal" text-decoration="normal" x="1162.7333374023438" y="173" text-anchor="start" dominant-baseline="central" transform="matrix(1, 0, 0, 1, 0.5, 0.5)" fill-opacity="1">restarts</text></g><path fill="rgb(162,174,187)" stroke="none" paint-order="stroke" d="M 1140.2333374023438 165.5 L 1156.2333374023438 165.5 L 1156.2333374023438 181.5 L 1140.2333374023438 181.5 L 1140.2333374023438 165.5" fill-opacity="1" clip-path="url(#iKgWWgylDJkc)"/><g clip-path="url(#iKgWWgylDJkc)"><text fill="rgb(68,68,68)" stroke="none" font-family="helvetica" font-size="13px" font-style="normal" font-weight="normal" text-decoration="normal" x="1162.7333374023438" y="196" text-anchor="start" dominant-baseline="central" transform="matrix(1, 0, 0, 1, 0.5, 0.5)" fill-opacity="1">transmittance_absorbance</text></g><path fill="rgb(162,174,187)" stroke="none" paint-order="stroke" d="M 1140.2333374023438 188.5 L 1156.2333374023438 188.5 L 1156.2333374023438 204.5 L 1140.2333374023438 204.5 L 1140.2333374023438 188.5" fill-opacity="1" clip-path="url(#iKgWWgylDJkc)"/><g clip-path="url(#iKgWWgylDJkc)"><text fill="rgb(68,68,68)" stroke="none" font-family="helvetica" font-size="13px" font-style="normal" font-weight="normal" text-decoration="normal" x="1162.7333374023438" y="219" text-anchor="start" dominant-baseline="central" transform="matrix(1, 0, 0, 1, 0.5, 0.5)" fill-opacity="1">magnifier</text></g><g clip-path="url(#iKgWWgylDJkc)"><text fill="rgb(68,68,68)" stroke="none" font-family="helvetica" font-size="13px" font-style="normal" font-weight="normal" text-decoration="normal" x="1162.7333374023438" y="242" text-anchor="start" dominant-baseline="central" transform="matrix(1, 0, 0, 1, 0.5, 0.5)" fill-opacity="1">concentration</text></g><path fill="rgb(115,210,222)" stroke="none" paint-order="stroke" d="M 1140.2333374023438 234.5 L 1156.2333374023438 234.5 L 1156.2333374023438 250.5 L 1140.2333374023438 250.5 L 1140.2333374023438 234.5" fill-opacity="1" clip-path="url(#iKgWWgylDJkc)"/><g clip-path="url(#iKgWWgylDJkc)"><text fill="rgb(68,68,68)" stroke="none" font-family="helvetica" font-size="13px" font-style="normal" font-weight="normal" text-decoration="normal" x="1162.7333374023438" y="265" text-anchor="start" dominant-baseline="central" transform="matrix(1, 0, 0, 1, 0.5, 0.5)" fill-opacity="1">flask</text></g><path fill="rgb(28,49,68)" stroke="none" paint-order="stroke" d="M 1140.2333374023438 257.5 L 1156.2333374023438 257.5 L 1156.2333374023438 273.5 L 1140.2333374023438 273.5 L 1140.2333374023438 257.5" fill-opacity="1" clip-path="url(#iKgWWgylDJkc)"/><g clip-path="url(#iKgWWgylDJkc)"><text fill="rgb(68,68,68)" stroke="none" font-family="helvetica" font-size="13px" font-style="normal" font-weight="normal" text-decoration="normal" x="1162.7333374023438" y="288" text-anchor="start" dominant-baseline="central" transform="matrix(1, 0, 0, 1, 0.5, 0.5)" fill-opacity="1">pdf</text></g><path fill="rgb(239,185,203)" stroke="none" paint-order="stroke" d="M 1140.2333374023438 280.5 L 1156.2333374023438 280.5 L 1156.2333374023438 296.5 L 1140.2333374023438 296.5 L 1140.2333374023438 280.5" fill-opacity="1" clip-path="url(#iKgWWgylDJkc)"/><g clip-path="url(#iKgWWgylDJkc)"><text fill="rgb(68,68,68)" stroke="none" font-family="helvetica" font-size="13px" font-style="normal" font-weight="normal" text-decoration="normal" x="1162.7333374023438" y="311" text-anchor="start" dominant-baseline="central" transform="matrix(1, 0, 0, 1, 0.5, 0.5)" fill-opacity="1">concentrationlab</text></g><g clip-path="url(#iKgWWgylDJkc)"><text fill="rgb(68,68,68)" stroke="none" font-family="helvetica" font-size="13px" font-style="normal" font-weight="normal" text-decoration="normal" x="1162.7333374023438" y="334" text-anchor="start" dominant-baseline="central" transform="matrix(1, 0, 0, 1, 0.5, 0.5)" fill-opacity="1">wavelength_slider</text></g><g clip-path="url(#iKgWWgylDJkc)"><text fill="rgb(68,68,68)" stroke="none" font-family="helvetica" font-size="13px" font-style="normal" font-weight="normal" text-decoration="normal" x="1162.7333374023438" y="357" text-anchor="start" dominant-baseline="central" transform="matrix(1, 0, 0, 1, 0.5, 0.5)" fill-opacity="1">ruler measuring</text></g><g clip-path="url(#iKgWWgylDJkc)"><text fill="rgb(68,68,68)" stroke="none" font-family="helvetica" font-size="13px" font-style="normal" font-weight="normal" text-decoration="normal" x="1162.7333374023438" y="380" text-anchor="start" dominant-baseline="central" transform="matrix(1, 0, 0, 1, 0.5, 0.5)" fill-opacity="1">dependent variable</text></g><path fill="rgb(143,45,86)" stroke="none" paint-order="stroke" d="M 1140.2333374023438 372.5 L 1156.2333374023438 372.5 L 1156.2333374023438 388.5 L 1140.2333374023438 388.5 L 1140.2333374023438 372.5" fill-opacity="1" clip-path="url(#iKgWWgylDJkc)"/><text fill="rgb(68,68,68)" stroke="none" font-family="helvetica" font-size="25pt" font-style="normal" font-weight="bold" text-decoration="normal" x="58" y="38.740885416666664" text-anchor="start" dominant-baseline="alphabetic" transform="matrix(1, 0, 0, 1, 0.5, 0.5)" fill-opacity="1">Timeline for student zxp438xr with permutation 3012 for task 2</text></svg>