<svg version="1.1" xmlns="http://www.w3.org/2000/svg" width="1366" height="683"><defs><clipPath id="NRoRklWBLprO"><path fill="none" stroke="none" d="M 58.5 51.5 L 1336.5 51.5 L 1336.5 630.5 L 58.5 630.5 L 58.5 51.5"/></clipPath><clipPath id="xnQWtffkKMoM"><path fill="none" stroke="none" d="M 58.5 51.5 L 1336.5 51.5 L 1336.5 630.5 L 58.5 630.5 L 58.5 51.5"/></clipPath><clipPath id="EwZUSKUhyKUu"><path fill="none" stroke="none" d="M 58.5 51.5 L 1336.5 51.5 L 1336.5 630.5 L 58.5 630.5 L 58.5 51.5"/></clipPath><clipPath id="WfzHpWlHMZhi"><path fill="none" stroke="none" d="M 58.5 51.5 L 1336.5 51.5 L 1336.5 630.5 L 58.5 630.5 L 58.5 51.5"/></clipPath><clipPath id="yTOZSIytPeKy"><path fill="none" stroke="none" d="M 58.5 51.5 L 1336.5 51.5 L 1336.5 630.5 L 58.5 630.5 L 58.5 51.5"/></clipPath><clipPath id="xClAtvsTrlyR"><path fill="none" stroke="none" d="M 58.5 51.5 L 1336.5 51.5 L 1336.5 630.5 L 58.5 630.5 L 58.5 51.5"/></clipPath><clipPath id="rmldpKQDulVn"><path fill="none" stroke="none" d="M 58.5 51.5 L 1336.5 51.5 L 1336.5 630.5 L 58.5 630.5 L 58.5 51.5"/></clipPath><clipPath id="sovKBoTBVEhE"><path fill="none" stroke="none" d="M 58.5 51.5 L 1336.5 51.5 L 1336.5 630.5 L 58.5 630.5 L 58.5 51.5"/></clipPath><clipPath id="wTtGtFMAOtqA"><path fill="none" stroke="none" d="M 58.5 51.5 L 1336.5 51.5 L 1336.5 630.5 L 58.5 630.5 L 58.5 51.5"/></clipPath><clipPath id="hdmPTKxxvGdD"><path fill="none" stroke="none" d="M 58.5 51.5 L 1336.5 51.5 L 1336.5 630.5 L 58.5 630.5 L 58.5 51.5"/></clipPath><clipPath id="fgqtAxyGPKSl"><path fill="none" stroke="none" d="M 58.5 51.5 L 1336.5 51.5 L 1336.5 630.5 L 58.5 630.5 L 58.5 51.5"/></clipPath><clipPath id="EmQoszlpqgkG"><path fill="none" stroke="none" d="M 58.5 51.5 L 1336.5 51.5 L 1336.5 630.5 L 58.5 630.5 L 58.5 51.5"/></clipPath><clipPath id="ibfxLlpoATaL"><path fill="none" stroke="none" d="M 58.5 51.5 L 1336.5 51.5 L 1336.5 630.5 L 58.5 630.5 L 58.5 51.5"/></clipPath><clipPath id="TDgTtttGDzdO"><path fill="none" stroke="none" d="M 58.5 51.5 L 1336.5 51.5 L 1336.5 630.5 L 58.5 630.5 L 58.5 51.5"/></clipPath><clipPath id="VZatlisQbZga"><path fill="none" stroke="none" d="M 58.5 51.5 L 1336.5 51.5 L 1336.5 630.5 L 58.5 630.5 L 58.5 51.5"/></clipPath><clipPath id="BEtBgQwsVEHw"><path fill="none" stroke="none" d="M 58.5 51.5 L 1336.5 51.5 L 1336.5 630.5 L 58.5 630.5 L 58.5 51.5"/></clipPath><clipPath id="WsvzodOZizmg"><path fill="none" stroke="none" d="M 58.5 51.5 L 1336.5 51.5 L 1336.5 630.5 L 58.5 630.5 L 58.5 51.5"/></clipPath><clipPath id="cNOamUAbTZHV"><path fill="none" stroke="none" d="M 58.5 51.5 L 1336.5 51.5 L 1336.5 630.5 L 58.5 630.5 L 58.5 51.5"/></clipPath><clipPath id="TARiLqOIvKil"><path fill="none" stroke="none" d="M 58.5 51.5 L 1336.5 51.5 L 1336.5 630.5 L 58.5 630.5 L 58.5 51.5"/></clipPath><clipPath id="WLiapKLTyBhE"><path fill="none" stroke="none" d="M 58.5 51.5 L 1336.5 51.5 L 1336.5 630.5 L 58.5 630.5 L 58.5 51.5"/></clipPath><clipPath id="lJwiHKusicUs"><path fill="none" stroke="none" d="M 58.5 51.5 L 1336.5 51.5 L 1336.5 630.5 L 58.5 630.5 L 58.5 51.5"/></clipPath></defs><path fill="rgb(255,255,255)" stroke="none" paint-order="stroke" d="M 0.5 0.5 L 1366.5 0.5 L 1366.5 683.5 L 0.5 683.5 L 0.5 0.5" fill-opacity="1"/><rect fill="#FFFFFF" stroke="none" x="58" y="51" width="1278" height="579" transform="matrix(1, 0, 0, 1, 0.5, 0.5)"/><path fill="rgb(255,255,255)" stroke="none" paint-order="stroke" d="M 58.5 51.5 L 1336.5 51.5 L 1336.5 630.5 L 58.5 630.5 L 58.5 51.5" fill-opacity="1"/><path fill="none" stroke="rgb(229,229,229)" paint-order="fill" d="M 58.5 51.5 L 1336.5 51.5 L 1336.5 630.5 L 58.5 630.5 L 58.5 51.5" stroke-opacity="1" stroke-linejoin="bevel" stroke-miterlimit="10" stroke-dasharray=""/><path fill="none" stroke="rgb(229,229,229)" paint-order="fill" d="M 314.5 630.5 L 314.5 51.5 M 569.5 630.5 L 569.5 51.5 M 825.5 630.5 L 825.5 51.5 M 1080.5 630.5 L 1080.5 51.5" stroke-opacity="1" stroke-linejoin="bevel" stroke-miterlimit="10" stroke-dasharray="" clip-path="url(#NRoRklWBLprO)"/><path fill="none" stroke="rgb(229,229,229)" paint-order="fill" d="M 58.5 551.5 L 1336.5 551.5 M 58.5 446.5 L 1336.5 446.5 M 58.5 341.5 L 1336.5 341.5 M 58.5 235.5 L 1336.5 235.5 M 58.5 130.5 L 1336.5 130.5" stroke-opacity="1" stroke-linejoin="bevel" stroke-miterlimit="10" stroke-dasharray="" clip-path="url(#xnQWtffkKMoM)"/><path fill="rgb(0,255,40)" stroke="none" paint-order="stroke" d="M 58.5 77.81818389892578 L 136.44393920898438 77.81818389892578 L 136.44393920898438 130.45454788208008 L 58.5 130.45454788208008 L 58.5 77.81818389892578" fill-opacity="1" clip-path="url(#EwZUSKUhyKUu)"/><path fill="rgb(30,255,0)" stroke="none" paint-order="stroke" d="M 136.44393920898438 77.81818389892578 L 136.48739120736718 77.81818389892578 L 136.48739120736718 130.45454788208008 L 136.44393920898438 130.45454788208008 L 136.44393920898438 77.81818389892578" fill-opacity="1" clip-path="url(#EwZUSKUhyKUu)"/><path fill="rgb(49,255,0)" stroke="none" paint-order="stroke" d="M 136.48739624023438 77.81818389892578 L 136.50784423947334 77.81818389892578 L 136.50784423947334 130.45454788208008 L 136.48739624023438 130.45454788208008 L 136.48739624023438 77.81818389892578" fill-opacity="1" clip-path="url(#EwZUSKUhyKUu)"/><path fill="rgb(62,255,0)" stroke="none" paint-order="stroke" d="M 136.50784301757812 77.81818389892578 L 136.52956901676953 77.81818389892578 L 136.52956901676953 130.45454788208008 L 136.50784301757812 130.45454788208008 L 136.50784301757812 77.81818389892578" fill-opacity="1" clip-path="url(#EwZUSKUhyKUu)"/><path fill="rgb(93,255,0)" stroke="none" paint-order="stroke" d="M 136.52957153320312 77.81818389892578 L 136.5500195324421 77.81818389892578 L 136.5500195324421 130.45454788208008 L 136.52957153320312 130.45454788208008 L 136.52957153320312 77.81818389892578" fill-opacity="1" clip-path="url(#EwZUSKUhyKUu)"/><path fill="rgb(119,255,0)" stroke="none" paint-order="stroke" d="M 136.55001831054688 77.81818389892578 L 136.57174430973828 77.81818389892578 L 136.57174430973828 130.45454788208008 L 136.55001831054688 130.45454788208008 L 136.55001831054688 77.81818389892578" fill-opacity="1" clip-path="url(#EwZUSKUhyKUu)"/><path fill="rgb(143,255,0)" stroke="none" paint-order="stroke" d="M 136.57174682617188 77.81818389892578 L 136.59347282536328 77.81818389892578 L 136.59347282536328 130.45454788208008 L 136.57174682617188 130.45454788208008 L 136.57174682617188 77.81818389892578" fill-opacity="1" clip-path="url(#EwZUSKUhyKUu)"/><path fill="rgb(182,255,0)" stroke="none" paint-order="stroke" d="M 136.59347534179688 77.81818389892578 L 136.61520134098828 77.81818389892578 L 136.61520134098828 130.45454788208008 L 136.59347534179688 130.45454788208008 L 136.59347534179688 77.81818389892578" fill-opacity="1" clip-path="url(#EwZUSKUhyKUu)"/><path fill="rgb(191,255,0)" stroke="none" paint-order="stroke" d="M 136.6151885986328 77.81818389892578 L 136.63563659787178 77.81818389892578 L 136.63563659787178 130.45454788208008 L 136.6151885986328 130.45454788208008 L 136.6151885986328 77.81818389892578" fill-opacity="1" clip-path="url(#EwZUSKUhyKUu)"/><path fill="rgb(237,255,0)" stroke="none" paint-order="stroke" d="M 136.63563537597656 77.81818389892578 L 136.65736137516797 77.81818389892578 L 136.65736137516797 130.45454788208008 L 136.63563537597656 130.45454788208008 L 136.63563537597656 77.81818389892578" fill-opacity="1" clip-path="url(#EwZUSKUhyKUu)"/><path fill="rgb(249,255,0)" stroke="none" paint-order="stroke" d="M 136.65736389160156 77.81818389892578 L 136.67781189084053 77.81818389892578 L 136.67781189084053 130.45454788208008 L 136.65736389160156 130.45454788208008 L 136.65736389160156 77.81818389892578" fill-opacity="1" clip-path="url(#EwZUSKUhyKUu)"/><path fill="rgb(255,226,0)" stroke="none" paint-order="stroke" d="M 136.6778106689453 77.81818389892578 L 136.69953666813672 77.81818389892578 L 136.69953666813672 130.45454788208008 L 136.6778106689453 130.45454788208008 L 136.6778106689453 77.81818389892578" fill-opacity="1" clip-path="url(#EwZUSKUhyKUu)"/><path fill="rgb(255,203,0)" stroke="none" paint-order="stroke" d="M 136.6995391845703 77.81818389892578 L 136.71998718380928 77.81818389892578 L 136.71998718380928 130.45454788208008 L 136.6995391845703 130.45454788208008 L 136.6995391845703 77.81818389892578" fill-opacity="1" clip-path="url(#EwZUSKUhyKUu)"/><path fill="rgb(255,137,0)" stroke="none" paint-order="stroke" d="M 136.71998596191406 77.81818389892578 L 136.74171196110547 77.81818389892578 L 136.74171196110547 130.45454788208008 L 136.71998596191406 130.45454788208008 L 136.71998596191406 77.81818389892578" fill-opacity="1" clip-path="url(#EwZUSKUhyKUu)"/><path fill="rgb(255,111,0)" stroke="none" paint-order="stroke" d="M 136.74171447753906 77.81818389892578 L 136.76344047673047 77.81818389892578 L 136.76344047673047 130.45454788208008 L 136.74171447753906 130.45454788208008 L 136.74171447753906 77.81818389892578" fill-opacity="1" clip-path="url(#EwZUSKUhyKUu)"/><path fill="rgb(255,66,0)" stroke="none" paint-order="stroke" d="M 136.76344299316406 77.81818389892578 L 136.78389099240303 77.81818389892578 L 136.78389099240303 130.45454788208008 L 136.76344299316406 130.45454788208008 L 136.76344299316406 77.81818389892578" fill-opacity="1" clip-path="url(#EwZUSKUhyKUu)"/><path fill="rgb(250,0,0)" stroke="none" paint-order="stroke" d="M 136.7838897705078 77.81818389892578 L 136.80561576969922 77.81818389892578 L 136.80561576969922 130.45454788208008 L 136.7838897705078 130.45454788208008 L 136.7838897705078 77.81818389892578" fill-opacity="1" clip-path="url(#EwZUSKUhyKUu)"/><path fill="rgb(230,0,0)" stroke="none" paint-order="stroke" d="M 136.8056182861328 77.81818389892578 L 136.82734428532422 77.81818389892578 L 136.82734428532422 130.45454788208008 L 136.8056182861328 130.45454788208008 L 136.8056182861328 77.81818389892578" fill-opacity="1" clip-path="url(#EwZUSKUhyKUu)"/><path fill="rgb(209,0,0)" stroke="none" paint-order="stroke" d="M 136.8273468017578 77.81818389892578 L 136.8516288008541 77.81818389892578 L 136.8516288008541 130.45454788208008 L 136.8273468017578 130.45454788208008 L 136.8273468017578 77.81818389892578" fill-opacity="1" clip-path="url(#EwZUSKUhyKUu)"/><path fill="rgb(204,0,0)" stroke="none" paint-order="stroke" d="M 136.85162353515625 77.81818389892578 L 136.86951553449035 77.81818389892578 L 136.86951553449035 130.45454788208008 L 136.85162353515625 130.45454788208008 L 136.85162353515625 77.81818389892578" fill-opacity="1" clip-path="url(#EwZUSKUhyKUu)"/><path fill="rgb(182,0,0)" stroke="none" paint-order="stroke" d="M 136.86952209472656 77.81818389892578 L 136.89124809391797 77.81818389892578 L 136.89124809391797 130.45454788208008 L 136.86952209472656 130.45454788208008 L 136.86952209472656 77.81818389892578" fill-opacity="1" clip-path="url(#EwZUSKUhyKUu)"/><path fill="rgb(160,0,0)" stroke="none" paint-order="stroke" d="M 136.8912353515625 77.81818389892578 L 136.9129613507539 77.81818389892578 L 136.9129613507539 130.45454788208008 L 136.8912353515625 130.45454788208008 L 136.8912353515625 77.81818389892578" fill-opacity="1" clip-path="url(#EwZUSKUhyKUu)"/><path fill="rgb(137,0,0)" stroke="none" paint-order="stroke" d="M 136.9129638671875 77.81818389892578 L 136.93341186642647 77.81818389892578 L 136.93341186642647 130.45454788208008 L 136.9129638671875 130.45454788208008 L 136.9129638671875 77.81818389892578" fill-opacity="1" clip-path="url(#EwZUSKUhyKUu)"/><path fill="rgb(100,0,0)" stroke="none" paint-order="stroke" d="M 136.93341064453125 77.81818389892578 L 136.95513664372265 77.81818389892578 L 136.95513664372265 130.45454788208008 L 136.93341064453125 130.45454788208008 L 136.93341064453125 77.81818389892578" fill-opacity="1" clip-path="url(#EwZUSKUhyKUu)"/><path fill="rgb(0,0,0)" stroke="none" paint-order="stroke" d="M 136.95513916015625 77.81818389892578 L 136.97686515934765 77.81818389892578 L 136.97686515934765 130.45454788208008 L 136.95513916015625 130.45454788208008 L 136.95513916015625 77.81818389892578" fill-opacity="1" clip-path="url(#EwZUSKUhyKUu)"/><path fill="rgb(0,0,0)" stroke="none" paint-order="stroke" d="M 136.97686767578125 77.81818389892578 L 136.99859367497265 77.81818389892578 L 136.99859367497265 130.45454788208008 L 136.97686767578125 130.45454788208008 L 136.97686767578125 77.81818389892578" fill-opacity="1" clip-path="url(#EwZUSKUhyKUu)"/><path fill="rgb(0,0,0)" stroke="none" paint-order="stroke" d="M 136.99859619140625 77.81818389892578 L 137.01904419064522 77.81818389892578 L 137.01904419064522 130.45454788208008 L 136.99859619140625 130.45454788208008 L 136.99859619140625 77.81818389892578" fill-opacity="1" clip-path="url(#EwZUSKUhyKUu)"/><path fill="rgb(0,0,0)" stroke="none" paint-order="stroke" d="M 137.01904296875 77.81818389892578 L 137.594142973423 77.81818389892578 L 137.594142973423 130.45454788208008 L 137.01904296875 130.45454788208008 L 137.01904296875 77.81818389892578" fill-opacity="1" clip-path="url(#EwZUSKUhyKUu)"/><path fill="rgb(0,0,0)" stroke="none" paint-order="stroke" d="M 137.59414672851562 77.81818389892578 L 137.61587272770703 77.81818389892578 L 137.61587272770703 130.45454788208008 L 137.59414672851562 130.45454788208008 L 137.59414672851562 77.81818389892578" fill-opacity="1" clip-path="url(#EwZUSKUhyKUu)"/><path fill="rgb(0,0,0)" stroke="none" paint-order="stroke" d="M 137.61587524414062 77.81818389892578 L 137.6363232433796 77.81818389892578 L 137.6363232433796 130.45454788208008 L 137.61587524414062 130.45454788208008 L 137.61587524414062 77.81818389892578" fill-opacity="1" clip-path="url(#EwZUSKUhyKUu)"/><path fill="rgb(0,0,0)" stroke="none" paint-order="stroke" d="M 137.63632202148438 77.81818389892578 L 137.65804802067578 77.81818389892578 L 137.65804802067578 130.45454788208008 L 137.63632202148438 130.45454788208008 L 137.63632202148438 77.81818389892578" fill-opacity="1" clip-path="url(#EwZUSKUhyKUu)"/><path fill="rgb(0,0,0)" stroke="none" paint-order="stroke" d="M 137.6580352783203 77.81818389892578 L 137.67848327755928 77.81818389892578 L 137.67848327755928 130.45454788208008 L 137.6580352783203 130.45454788208008 L 137.6580352783203 77.81818389892578" fill-opacity="1" clip-path="url(#EwZUSKUhyKUu)"/><path fill="rgb(107,0,0)" stroke="none" paint-order="stroke" d="M 137.67849731445312 77.81818389892578 L 137.70022331364453 77.81818389892578 L 137.70022331364453 130.45454788208008 L 137.67849731445312 130.45454788208008 L 137.67849731445312 77.81818389892578" fill-opacity="1" clip-path="url(#EwZUSKUhyKUu)"/><path fill="rgb(119,0,0)" stroke="none" paint-order="stroke" d="M 137.70021057128906 77.81818389892578 L 137.74238457158208 77.81818389892578 L 137.74238457158208 130.45454788208008 L 137.70021057128906 130.45454788208008 L 137.70021057128906 77.81818389892578" fill-opacity="1" clip-path="url(#EwZUSKUhyKUu)"/><path fill="rgb(132,0,0)" stroke="none" paint-order="stroke" d="M 137.7423858642578 77.81818389892578 L 137.78583786264062 77.81818389892578 L 137.78583786264062 130.45454788208008 L 137.7423858642578 130.45454788208008 L 137.7423858642578 77.81818389892578" fill-opacity="1" clip-path="url(#EwZUSKUhyKUu)"/><path fill="rgb(143,0,0)" stroke="none" paint-order="stroke" d="M 137.7858428955078 77.81818389892578 L 137.80756889469922 77.81818389892578 L 137.80756889469922 130.45454788208008 L 137.7858428955078 130.45454788208008 L 137.7858428955078 77.81818389892578" fill-opacity="1" clip-path="url(#EwZUSKUhyKUu)"/><path fill="rgb(149,0,0)" stroke="none" paint-order="stroke" d="M 137.8075714111328 77.81818389892578 L 137.82801941037178 77.81818389892578 L 137.82801941037178 130.45454788208008 L 137.8075714111328 130.45454788208008 L 137.8075714111328 77.81818389892578" fill-opacity="1" clip-path="url(#EwZUSKUhyKUu)"/><path fill="rgb(154,0,0)" stroke="none" paint-order="stroke" d="M 137.82801818847656 77.81818389892578 L 137.84974418766797 77.81818389892578 L 137.84974418766797 130.45454788208008 L 137.82801818847656 130.45454788208008 L 137.82801818847656 77.81818389892578" fill-opacity="1" clip-path="url(#EwZUSKUhyKUu)"/><path fill="rgb(166,0,0)" stroke="none" paint-order="stroke" d="M 137.84974670410156 77.81818389892578 L 137.89192070439458 77.81818389892578 L 137.89192070439458 130.45454788208008 L 137.84974670410156 130.45454788208008 L 137.84974670410156 77.81818389892578" fill-opacity="1" clip-path="url(#EwZUSKUhyKUu)"/><path fill="rgb(182,0,0)" stroke="none" paint-order="stroke" d="M 137.8919219970703 77.81818389892578 L 137.91364799626172 77.81818389892578 L 137.91364799626172 130.45454788208008 L 137.8919219970703 130.45454788208008 L 137.8919219970703 77.81818389892578" fill-opacity="1" clip-path="url(#EwZUSKUhyKUu)"/><path fill="rgb(193,0,0)" stroke="none" paint-order="stroke" d="M 137.91363525390625 77.81818389892578 L 137.93536125309765 77.81818389892578 L 137.93536125309765 130.45454788208008 L 137.91363525390625 130.45454788208008 L 137.91363525390625 77.81818389892578" fill-opacity="1" clip-path="url(#EwZUSKUhyKUu)"/><path fill="rgb(220,0,0)" stroke="none" paint-order="stroke" d="M 137.93536376953125 77.81818389892578 L 137.95581176877022 77.81818389892578 L 137.95581176877022 130.45454788208008 L 137.93536376953125 130.45454788208008 L 137.93536376953125 77.81818389892578" fill-opacity="1" clip-path="url(#EwZUSKUhyKUu)"/><path fill="rgb(235,0,0)" stroke="none" paint-order="stroke" d="M 137.955810546875 77.81818389892578 L 137.9775365460664 77.81818389892578 L 137.9775365460664 130.45454788208008 L 137.955810546875 130.45454788208008 L 137.955810546875 77.81818389892578" fill-opacity="1" clip-path="url(#EwZUSKUhyKUu)"/><path fill="rgb(255,9,0)" stroke="none" paint-order="stroke" d="M 137.9775390625 77.81818389892578 L 138.00309906341136 77.81818389892578 L 138.00309906341136 130.45454788208008 L 137.9775390625 130.45454788208008 L 137.9775390625 77.81818389892578" fill-opacity="1" clip-path="url(#EwZUSKUhyKUu)"/><path fill="rgb(255,66,0)" stroke="none" paint-order="stroke" d="M 138.0030975341797 77.81818389892578 L 138.01971153356135 77.81818389892578 L 138.01971153356135 130.45454788208008 L 138.0030975341797 130.45454788208008 L 138.0030975341797 77.81818389892578" fill-opacity="1" clip-path="url(#EwZUSKUhyKUu)"/><path fill="rgb(255,126,0)" stroke="none" paint-order="stroke" d="M 138.01971435546875 77.81818389892578 L 138.04144035466015 77.81818389892578 L 138.04144035466015 130.45454788208008 L 138.01971435546875 130.45454788208008 L 138.01971435546875 77.81818389892578" fill-opacity="1" clip-path="url(#EwZUSKUhyKUu)"/><path fill="rgb(255,203,0)" stroke="none" paint-order="stroke" d="M 138.04144287109375 77.81818389892578 L 138.06316887028515 77.81818389892578 L 138.06316887028515 130.45454788208008 L 138.04144287109375 130.45454788208008 L 138.04144287109375 77.81818389892578" fill-opacity="1" clip-path="url(#EwZUSKUhyKUu)"/><path fill="rgb(255,239,0)" stroke="none" paint-order="stroke" d="M 138.06317138671875 77.81818389892578 L 138.08361938595772 77.81818389892578 L 138.08361938595772 130.45454788208008 L 138.06317138671875 130.45454788208008 L 138.06317138671875 77.81818389892578" fill-opacity="1" clip-path="url(#EwZUSKUhyKUu)"/><path fill="rgb(204,255,0)" stroke="none" paint-order="stroke" d="M 138.0836181640625 77.81818389892578 L 138.10662216320634 77.81818389892578 L 138.10662216320634 130.45454788208008 L 138.0836181640625 130.45454788208008 L 138.0836181640625 77.81818389892578" fill-opacity="1" clip-path="url(#EwZUSKUhyKUu)"/><path fill="rgb(156,255,0)" stroke="none" paint-order="stroke" d="M 138.1066131591797 77.81818389892578 L 138.12706115841866 77.81818389892578 L 138.12706115841866 130.45454788208008 L 138.1066131591797 130.45454788208008 L 138.1066131591797 77.81818389892578" fill-opacity="1" clip-path="url(#EwZUSKUhyKUu)"/><path fill="rgb(132,255,0)" stroke="none" paint-order="stroke" d="M 138.1270751953125 77.81818389892578 L 138.14752319455147 77.81818389892578 L 138.14752319455147 130.45454788208008 L 138.1270751953125 130.45454788208008 L 138.1270751953125 77.81818389892578" fill-opacity="1" clip-path="url(#EwZUSKUhyKUu)"/><path fill="rgb(93,255,0)" stroke="none" paint-order="stroke" d="M 138.14752197265625 77.81818389892578 L 138.16924797184765 77.81818389892578 L 138.16924797184765 130.45454788208008 L 138.14752197265625 130.45454788208008 L 138.14752197265625 77.81818389892578" fill-opacity="1" clip-path="url(#EwZUSKUhyKUu)"/><path fill="rgb(49,255,0)" stroke="none" paint-order="stroke" d="M 138.1692352294922 77.81818389892578 L 138.18968322873116 77.81818389892578 L 138.18968322873116 130.45454788208008 L 138.1692352294922 130.45454788208008 L 138.1692352294922 77.81818389892578" fill-opacity="1" clip-path="url(#EwZUSKUhyKUu)"/><path fill="rgb(0,255,146)" stroke="none" paint-order="stroke" d="M 138.189697265625 77.81818389892578 L 138.2331492640078 77.81818389892578 L 138.2331492640078 130.45454788208008 L 138.189697265625 130.45454788208008 L 138.189697265625 77.81818389892578" fill-opacity="1" clip-path="url(#EwZUSKUhyKUu)"/><path fill="rgb(0,250,255)" stroke="none" paint-order="stroke" d="M 138.23313903808594 77.81818389892578 L 138.2535870373249 77.81818389892578 L 138.2535870373249 130.45454788208008 L 138.23313903808594 130.45454788208008 L 138.23313903808594 77.81818389892578" fill-opacity="1" clip-path="url(#EwZUSKUhyKUu)"/><path fill="rgb(0,221,255)" stroke="none" paint-order="stroke" d="M 138.2535858154297 77.81818389892578 L 138.2753118146211 77.81818389892578 L 138.2753118146211 130.45454788208008 L 138.2535858154297 130.45454788208008 L 138.2535858154297 77.81818389892578" fill-opacity="1" clip-path="url(#EwZUSKUhyKUu)"/><path fill="rgb(0,173,255)" stroke="none" paint-order="stroke" d="M 138.2753143310547 77.81818389892578 L 138.2970403302461 77.81818389892578 L 138.2970403302461 130.45454788208008 L 138.2753143310547 130.45454788208008 L 138.2753143310547 77.81818389892578" fill-opacity="1" clip-path="url(#EwZUSKUhyKUu)"/><path fill="rgb(0,155,255)" stroke="none" paint-order="stroke" d="M 138.2970428466797 77.81818389892578 L 138.31749084591866 77.81818389892578 L 138.31749084591866 130.45454788208008 L 138.2970428466797 130.45454788208008 L 138.2970428466797 77.81818389892578" fill-opacity="1" clip-path="url(#EwZUSKUhyKUu)"/><path fill="rgb(0,117,255)" stroke="none" paint-order="stroke" d="M 138.31748962402344 77.81818389892578 L 138.33921562321484 77.81818389892578 L 138.33921562321484 130.45454788208008 L 138.31748962402344 130.45454788208008 L 138.31748962402344 77.81818389892578" fill-opacity="1" clip-path="url(#EwZUSKUhyKUu)"/><path fill="rgb(0,102,255)" stroke="none" paint-order="stroke" d="M 138.33921813964844 77.81818389892578 L 138.36094413883984 77.81818389892578 L 138.36094413883984 130.45454788208008 L 138.33921813964844 130.45454788208008 L 138.33921813964844 77.81818389892578" fill-opacity="1" clip-path="url(#EwZUSKUhyKUu)"/><path fill="rgb(0,40,255)" stroke="none" paint-order="stroke" d="M 138.36094665527344 77.81818389892578 L 138.3813946545124 77.81818389892578 L 138.3813946545124 130.45454788208008 L 138.36094665527344 130.45454788208008 L 138.36094665527344 77.81818389892578" fill-opacity="1" clip-path="url(#EwZUSKUhyKUu)"/><path fill="rgb(0,11,255)" stroke="none" paint-order="stroke" d="M 138.3813934326172 77.81818389892578 L 138.4095094334334 77.81818389892578 L 138.4095094334334 130.45454788208008 L 138.3813934326172 130.45454788208008 L 138.3813934326172 77.81818389892578" fill-opacity="1" clip-path="url(#EwZUSKUhyKUu)"/><path fill="rgb(55,0,230)" stroke="none" paint-order="stroke" d="M 138.4095001220703 77.81818389892578 L 138.42483612243086 77.81818389892578 L 138.42483612243086 130.45454788208008 L 138.4095001220703 130.45454788208008 L 138.4095001220703 77.81818389892578" fill-opacity="1" clip-path="url(#EwZUSKUhyKUu)"/><path fill="rgb(69,0,221)" stroke="none" paint-order="stroke" d="M 138.42483520507812 77.81818389892578 L 138.4452832043171 77.81818389892578 L 138.4452832043171 130.45454788208008 L 138.42483520507812 130.45454788208008 L 138.42483520507812 77.81818389892578" fill-opacity="1" clip-path="url(#EwZUSKUhyKUu)"/><path fill="rgb(87,0,203)" stroke="none" paint-order="stroke" d="M 138.44529724121094 77.81818389892578 L 138.46702324040234 77.81818389892578 L 138.46702324040234 130.45454788208008 L 138.44529724121094 130.45454788208008 L 138.44529724121094 77.81818389892578" fill-opacity="1" clip-path="url(#EwZUSKUhyKUu)"/><path fill="rgb(96,0,193)" stroke="none" paint-order="stroke" d="M 138.46701049804688 77.81818389892578 L 138.48873649723828 77.81818389892578 L 138.48873649723828 130.45454788208008 L 138.46701049804688 130.45454788208008 L 138.46701049804688 77.81818389892578" fill-opacity="1" clip-path="url(#EwZUSKUhyKUu)"/><path fill="rgb(102,0,183)" stroke="none" paint-order="stroke" d="M 138.48873901367188 77.81818389892578 L 138.50918701291084 77.81818389892578 L 138.50918701291084 130.45454788208008 L 138.48873901367188 130.45454788208008 L 138.48873901367188 77.81818389892578" fill-opacity="1" clip-path="url(#EwZUSKUhyKUu)"/><path fill="rgb(109,0,164)" stroke="none" paint-order="stroke" d="M 138.50918579101562 77.81818389892578 L 138.53091179020703 77.81818389892578 L 138.53091179020703 130.45454788208008 L 138.50918579101562 130.45454788208008 L 138.50918579101562 77.81818389892578" fill-opacity="1" clip-path="url(#EwZUSKUhyKUu)"/><path fill="rgb(111,0,154)" stroke="none" paint-order="stroke" d="M 138.53091430664062 77.81818389892578 L 138.55264030583203 77.81818389892578 L 138.55264030583203 130.45454788208008 L 138.53091430664062 130.45454788208008 L 138.53091430664062 77.81818389892578" fill-opacity="1" clip-path="url(#EwZUSKUhyKUu)"/><path fill="rgb(111,0,146)" stroke="none" paint-order="stroke" d="M 138.55264282226562 77.81818389892578 L 138.5730908215046 77.81818389892578 L 138.5730908215046 130.45454788208008 L 138.55264282226562 130.45454788208008 L 138.55264282226562 77.81818389892578" fill-opacity="1" clip-path="url(#EwZUSKUhyKUu)"/><path fill="rgb(111,0,135)" stroke="none" paint-order="stroke" d="M 138.57308959960938 77.81818389892578 L 138.59481559880078 77.81818389892578 L 138.59481559880078 130.45454788208008 L 138.57308959960938 130.45454788208008 L 138.57308959960938 77.81818389892578" fill-opacity="1" clip-path="url(#EwZUSKUhyKUu)"/><path fill="rgb(108,0,123)" stroke="none" paint-order="stroke" d="M 138.59481811523438 77.81818389892578 L 138.61654411442578 77.81818389892578 L 138.61654411442578 130.45454788208008 L 138.59481811523438 130.45454788208008 L 138.59481811523438 77.81818389892578" fill-opacity="1" clip-path="url(#EwZUSKUhyKUu)"/><path fill="rgb(100,0,103)" stroke="none" paint-order="stroke" d="M 138.61654663085938 77.81818389892578 L 138.63699463009834 77.81818389892578 L 138.63699463009834 130.45454788208008 L 138.61654663085938 130.45454788208008 L 138.61654663085938 77.81818389892578" fill-opacity="1" clip-path="url(#EwZUSKUhyKUu)"/><path fill="rgb(97,0,97)" stroke="none" paint-order="stroke" d="M 138.63699340820312 77.81818389892578 L 139.61721938848495 77.81818389892578 L 139.61721938848495 130.45454788208008 L 138.63699340820312 130.45454788208008 L 138.63699340820312 77.81818389892578" fill-opacity="1" clip-path="url(#EwZUSKUhyKUu)"/><path fill="rgb(100,0,103)" stroke="none" paint-order="stroke" d="M 139.61721801757812 77.81818389892578 L 139.6811180189252 77.81818389892578 L 139.6811180189252 130.45454788208008 L 139.61721801757812 130.45454788208008 L 139.61721801757812 77.81818389892578" fill-opacity="1" clip-path="url(#EwZUSKUhyKUu)"/><path fill="rgb(104,0,112)" stroke="none" paint-order="stroke" d="M 139.68112182617188 77.81818389892578 L 139.70284782536328 77.81818389892578 L 139.70284782536328 130.45454788208008 L 139.68112182617188 130.45454788208008 L 139.68112182617188 77.81818389892578" fill-opacity="1" clip-path="url(#EwZUSKUhyKUu)"/><path fill="rgb(108,0,123)" stroke="none" paint-order="stroke" d="M 139.7028350830078 77.81818389892578 L 139.76673508435488 77.81818389892578 L 139.76673508435488 130.45454788208008 L 139.7028350830078 130.45454788208008 L 139.7028350830078 77.81818389892578" fill-opacity="1" clip-path="url(#EwZUSKUhyKUu)"/><path fill="rgb(111,0,135)" stroke="none" paint-order="stroke" d="M 139.76673889160156 77.81818389892578 L 139.78718689084053 77.81818389892578 L 139.78718689084053 130.45454788208008 L 139.76673889160156 130.45454788208008 L 139.76673889160156 77.81818389892578" fill-opacity="1" clip-path="url(#EwZUSKUhyKUu)"/><path fill="rgb(111,0,146)" stroke="none" paint-order="stroke" d="M 139.7871856689453 77.81818389892578 L 139.83063766732812 77.81818389892578 L 139.83063766732812 130.45454788208008 L 139.7871856689453 130.45454788208008 L 139.7871856689453 77.81818389892578" fill-opacity="1" clip-path="url(#EwZUSKUhyKUu)"/><path fill="rgb(109,0,164)" stroke="none" paint-order="stroke" d="M 139.8306427001953 77.81818389892578 L 139.85236869938672 77.81818389892578 L 139.85236869938672 130.45454788208008 L 139.8306427001953 130.45454788208008 L 139.8306427001953 77.81818389892578" fill-opacity="1" clip-path="url(#EwZUSKUhyKUu)"/><path fill="rgb(106,0,175)" stroke="none" paint-order="stroke" d="M 139.8523712158203 77.81818389892578 L 139.87281921505928 77.81818389892578 L 139.87281921505928 130.45454788208008 L 139.8523712158203 130.45454788208008 L 139.8523712158203 77.81818389892578" fill-opacity="1" clip-path="url(#EwZUSKUhyKUu)"/><path fill="rgb(102,0,183)" stroke="none" paint-order="stroke" d="M 139.87281799316406 77.81818389892578 L 139.91499199345708 77.81818389892578 L 139.91499199345708 130.45454788208008 L 139.87281799316406 130.45454788208008 L 139.87281799316406 77.81818389892578" fill-opacity="1" clip-path="url(#EwZUSKUhyKUu)"/><path fill="rgb(87,0,203)" stroke="none" paint-order="stroke" d="M 139.9149932861328 77.81818389892578 L 139.95844528451562 77.81818389892578 L 139.95844528451562 130.45454788208008 L 139.9149932861328 130.45454788208008 L 139.9149932861328 77.81818389892578" fill-opacity="1" clip-path="url(#EwZUSKUhyKUu)"/><path fill="rgb(80,0,211)" stroke="none" paint-order="stroke" d="M 139.95843505859375 77.81818389892578 L 139.97888305783272 77.81818389892578 L 139.97888305783272 130.45454788208008 L 139.95843505859375 130.45454788208008 L 139.95843505859375 77.81818389892578" fill-opacity="1" clip-path="url(#EwZUSKUhyKUu)"/><path fill="rgb(69,0,221)" stroke="none" paint-order="stroke" d="M 139.97889709472656 77.81818389892578 L 140.04279709607363 77.81818389892578 L 140.04279709607363 130.45454788208008 L 139.97889709472656 130.45454788208008 L 139.97889709472656 77.81818389892578" fill-opacity="1" clip-path="url(#EwZUSKUhyKUu)"/><path fill="rgb(55,0,230)" stroke="none" paint-order="stroke" d="M 140.04278564453125 77.81818389892578 L 140.06451164372265 77.81818389892578 L 140.06451164372265 130.45454788208008 L 140.04278564453125 130.45454788208008 L 140.04278564453125 77.81818389892578" fill-opacity="1" clip-path="url(#EwZUSKUhyKUu)"/><path fill="rgb(22,0,247)" stroke="none" paint-order="stroke" d="M 140.06451416015625 77.81818389892578 L 140.08624015934765 77.81818389892578 L 140.08624015934765 130.45454788208008 L 140.06451416015625 130.45454788208008 L 140.06451416015625 77.81818389892578" fill-opacity="1" clip-path="url(#EwZUSKUhyKUu)"/><path fill="rgb(0,11,255)" stroke="none" paint-order="stroke" d="M 140.08624267578125 77.81818389892578 L 140.10669067502022 77.81818389892578 L 140.10669067502022 130.45454788208008 L 140.08624267578125 130.45454788208008 L 140.08624267578125 77.81818389892578" fill-opacity="1" clip-path="url(#EwZUSKUhyKUu)"/><path fill="rgb(0,81,255)" stroke="none" paint-order="stroke" d="M 140.106689453125 77.81818389892578 L 140.1284154523164 77.81818389892578 L 140.1284154523164 130.45454788208008 L 140.106689453125 130.45454788208008 L 140.106689453125 77.81818389892578" fill-opacity="1" clip-path="url(#EwZUSKUhyKUu)"/><path fill="rgb(0,102,255)" stroke="none" paint-order="stroke" d="M 140.12841796875 77.81818389892578 L 140.1501439679414 77.81818389892578 L 140.1501439679414 130.45454788208008 L 140.12841796875 130.45454788208008 L 140.12841796875 77.81818389892578" fill-opacity="1" clip-path="url(#EwZUSKUhyKUu)"/><path fill="rgb(0,117,255)" stroke="none" paint-order="stroke" d="M 140.150146484375 77.81818389892578 L 140.17059448361397 77.81818389892578 L 140.17059448361397 130.45454788208008 L 140.150146484375 130.45454788208008 L 140.150146484375 77.81818389892578" fill-opacity="1" clip-path="url(#EwZUSKUhyKUu)"/><path fill="rgb(0,173,255)" stroke="none" paint-order="stroke" d="M 140.17059326171875 77.81818389892578 L 140.19231926091015 77.81818389892578 L 140.19231926091015 130.45454788208008 L 140.17059326171875 130.45454788208008 L 140.17059326171875 77.81818389892578" fill-opacity="1" clip-path="url(#EwZUSKUhyKUu)"/><path fill="rgb(0,204,255)" stroke="none" paint-order="stroke" d="M 140.19232177734375 77.81818389892578 L 140.21404777653515 77.81818389892578 L 140.21404777653515 130.45454788208008 L 140.19232177734375 130.45454788208008 L 140.19232177734375 77.81818389892578" fill-opacity="1" clip-path="url(#EwZUSKUhyKUu)"/><path fill="rgb(0,234,255)" stroke="none" paint-order="stroke" d="M 140.2140350341797 77.81818389892578 L 140.23448303341866 77.81818389892578 L 140.23448303341866 130.45454788208008 L 140.2140350341797 130.45454788208008 L 140.2140350341797 77.81818389892578" fill-opacity="1" clip-path="url(#EwZUSKUhyKUu)"/><path fill="rgb(0,250,255)" stroke="none" paint-order="stroke" d="M 140.2344970703125 77.81818389892578 L 140.2562230695039 77.81818389892578 L 140.2562230695039 130.45454788208008 L 140.2344970703125 130.45454788208008 L 140.2344970703125 77.81818389892578" fill-opacity="1" clip-path="url(#EwZUSKUhyKUu)"/><path fill="rgb(0,255,223)" stroke="none" paint-order="stroke" d="M 140.25621032714844 77.81818389892578 L 140.27793632633984 77.81818389892578 L 140.27793632633984 130.45454788208008 L 140.25621032714844 130.45454788208008 L 140.25621032714844 77.81818389892578" fill-opacity="1" clip-path="url(#EwZUSKUhyKUu)"/><path fill="rgb(0,255,146)" stroke="none" paint-order="stroke" d="M 140.27793884277344 77.81818389892578 L 140.32011284306645 77.81818389892578 L 140.32011284306645 130.45454788208008 L 140.27793884277344 130.45454788208008 L 140.27793884277344 77.81818389892578" fill-opacity="1" clip-path="url(#EwZUSKUhyKUu)"/><path fill="rgb(0,255,97)" stroke="none" paint-order="stroke" d="M 140.3201141357422 77.81818389892578 L 140.3418401349336 77.81818389892578 L 140.3418401349336 130.45454788208008 L 140.3201141357422 130.45454788208008 L 140.3201141357422 77.81818389892578" fill-opacity="1" clip-path="url(#EwZUSKUhyKUu)"/><path fill="rgb(0,255,40)" stroke="none" paint-order="stroke" d="M 140.3418426513672 77.81818389892578 L 140.3635686505586 77.81818389892578 L 140.3635686505586 130.45454788208008 L 140.3418426513672 130.45454788208008 L 140.3418426513672 77.81818389892578" fill-opacity="1" clip-path="url(#EwZUSKUhyKUu)"/><path fill="rgb(8,255,0)" stroke="none" paint-order="stroke" d="M 140.3635711669922 77.81818389892578 L 140.38401916623116 77.81818389892578 L 140.38401916623116 130.45454788208008 L 140.3635711669922 130.45454788208008 L 140.3635711669922 77.81818389892578" fill-opacity="1" clip-path="url(#EwZUSKUhyKUu)"/><path fill="rgb(30,255,0)" stroke="none" paint-order="stroke" d="M 140.38401794433594 77.81818389892578 L 140.49009194225073 77.81818389892578 L 140.49009194225073 130.45454788208008 L 140.38401794433594 130.45454788208008 L 140.38401794433594 77.81818389892578" fill-opacity="1" clip-path="url(#EwZUSKUhyKUu)"/><path fill="rgb(49,255,0)" stroke="none" paint-order="stroke" d="M 140.49009704589844 77.81818389892578 L 140.51182304508984 77.81818389892578 L 140.51182304508984 130.45454788208008 L 140.49009704589844 130.45454788208008 L 140.49009704589844 77.81818389892578" fill-opacity="1" clip-path="url(#EwZUSKUhyKUu)"/><path fill="rgb(62,255,0)" stroke="none" paint-order="stroke" d="M 140.51181030273438 77.81818389892578 L 140.57571030408144 77.81818389892578 L 140.57571030408144 130.45454788208008 L 140.51181030273438 130.45454788208008 L 140.51181030273438 77.81818389892578" fill-opacity="1" clip-path="url(#EwZUSKUhyKUu)"/><path fill="rgb(78,255,0)" stroke="none" paint-order="stroke" d="M 140.57571411132812 77.81818389892578 L 140.59744011051953 77.81818389892578 L 140.59744011051953 130.45454788208008 L 140.57571411132812 130.45454788208008 L 140.57571411132812 77.81818389892578" fill-opacity="1" clip-path="url(#EwZUSKUhyKUu)"/><path fill="rgb(93,255,0)" stroke="none" paint-order="stroke" d="M 140.59744262695312 77.81818389892578 L 140.70351662486792 77.81818389892578 L 140.70351662486792 130.45454788208008 L 140.59744262695312 130.45454788208008 L 140.59744262695312 77.81818389892578" fill-opacity="1" clip-path="url(#EwZUSKUhyKUu)"/><path fill="rgb(104,255,0)" stroke="none" paint-order="stroke" d="M 140.70352172851562 77.81818389892578 L 140.72524772770703 77.81818389892578 L 140.72524772770703 130.45454788208008 L 140.70352172851562 130.45454788208008 L 140.70352172851562 77.81818389892578" fill-opacity="1" clip-path="url(#EwZUSKUhyKUu)"/><path fill="rgb(119,255,0)" stroke="none" paint-order="stroke" d="M 140.72523498535156 77.81818389892578 L 140.93866097927094 77.81818389892578 L 140.93866097927094 130.45454788208008 L 140.72523498535156 130.45454788208008 L 140.72523498535156 77.81818389892578" fill-opacity="1" clip-path="url(#EwZUSKUhyKUu)"/><path fill="rgb(132,255,0)" stroke="none" paint-order="stroke" d="M 140.9386749267578 77.81818389892578 L 140.95912292599678 77.81818389892578 L 140.95912292599678 130.45454788208008 L 140.9386749267578 130.45454788208008 L 140.9386749267578 77.81818389892578" fill-opacity="1" clip-path="url(#EwZUSKUhyKUu)"/><path fill="rgb(143,255,0)" stroke="none" paint-order="stroke" d="M 140.95912170410156 77.81818389892578 L 141.10864770412445 77.81818389892578 L 141.10864770412445 130.45454788208008 L 140.95912170410156 130.45454788208008 L 140.95912170410156 77.81818389892578" fill-opacity="1" clip-path="url(#EwZUSKUhyKUu)"/><path fill="rgb(156,255,0)" stroke="none" paint-order="stroke" d="M 141.108642578125 77.81818389892578 L 147.92421674728394 77.81818389892578 L 147.92421674728394 130.45454788208008 L 141.108642578125 130.45454788208008 L 141.108642578125 77.81818389892578" fill-opacity="1" clip-path="url(#EwZUSKUhyKUu)"/><path fill="rgb(166,255,0)" stroke="none" paint-order="stroke" d="M 147.92420959472656 77.81818389892578 L 147.94593559391797 77.81818389892578 L 147.94593559391797 130.45454788208008 L 147.92420959472656 130.45454788208008 L 147.92420959472656 77.81818389892578" fill-opacity="1" clip-path="url(#EwZUSKUhyKUu)"/><path fill="rgb(179,255,0)" stroke="none" paint-order="stroke" d="M 147.94593811035156 77.81818389892578 L 147.96766410954297 77.81818389892578 L 147.96766410954297 130.45454788208008 L 147.94593811035156 130.45454788208008 L 147.94593811035156 77.81818389892578" fill-opacity="1" clip-path="url(#EwZUSKUhyKUu)"/><path fill="rgb(191,255,0)" stroke="none" paint-order="stroke" d="M 147.96766662597656 77.81818389892578 L 147.98811462521553 77.81818389892578 L 147.98811462521553 130.45454788208008 L 147.96766662597656 130.45454788208008 L 147.96766662597656 77.81818389892578" fill-opacity="1" clip-path="url(#EwZUSKUhyKUu)"/><path fill="rgb(213,255,0)" stroke="none" paint-order="stroke" d="M 147.9881134033203 77.81818389892578 L 148.00983940251172 77.81818389892578 L 148.00983940251172 130.45454788208008 L 147.9881134033203 130.45454788208008 L 147.9881134033203 77.81818389892578" fill-opacity="1" clip-path="url(#EwZUSKUhyKUu)"/><path fill="rgb(225,255,0)" stroke="none" paint-order="stroke" d="M 148.0098419189453 77.81818389892578 L 148.03156791813672 77.81818389892578 L 148.03156791813672 130.45454788208008 L 148.0098419189453 130.45454788208008 L 148.0098419189453 77.81818389892578" fill-opacity="1" clip-path="url(#EwZUSKUhyKUu)"/><path fill="rgb(246,255,0)" stroke="none" paint-order="stroke" d="M 148.0315704345703 77.81818389892578 L 148.05201843380928 77.81818389892578 L 148.05201843380928 130.45454788208008 L 148.0315704345703 130.45454788208008 L 148.0315704345703 77.81818389892578" fill-opacity="1" clip-path="url(#EwZUSKUhyKUu)"/><path fill="rgb(255,251,0)" stroke="none" paint-order="stroke" d="M 148.05201721191406 77.81818389892578 L 148.07374321110547 77.81818389892578 L 148.07374321110547 130.45454788208008 L 148.05201721191406 130.45454788208008 L 148.05201721191406 77.81818389892578" fill-opacity="1" clip-path="url(#EwZUSKUhyKUu)"/><path fill="rgb(255,203,0)" stroke="none" paint-order="stroke" d="M 148.07374572753906 77.81818389892578 L 148.09547172673047 77.81818389892578 L 148.09547172673047 130.45454788208008 L 148.07374572753906 130.45454788208008 L 148.07374572753906 77.81818389892578" fill-opacity="1" clip-path="url(#EwZUSKUhyKUu)"/><path fill="rgb(255,179,0)" stroke="none" paint-order="stroke" d="M 148.09547424316406 77.81818389892578 L 148.11720024235547 77.81818389892578 L 148.11720024235547 130.45454788208008 L 148.09547424316406 130.45454788208008 L 148.09547424316406 77.81818389892578" fill-opacity="1" clip-path="url(#EwZUSKUhyKUu)"/><path fill="rgb(255,155,0)" stroke="none" paint-order="stroke" d="M 148.1171875 77.81818389892578 L 148.13763549923897 77.81818389892578 L 148.13763549923897 130.45454788208008 L 148.1171875 130.45454788208008 L 148.1171875 77.81818389892578" fill-opacity="1" clip-path="url(#EwZUSKUhyKUu)"/><path fill="rgb(255,126,0)" stroke="none" paint-order="stroke" d="M 148.1376495361328 77.81818389892578 L 148.15937553532422 77.81818389892578 L 148.15937553532422 130.45454788208008 L 148.1376495361328 130.45454788208008 L 148.1376495361328 77.81818389892578" fill-opacity="1" clip-path="url(#EwZUSKUhyKUu)"/><path fill="rgb(255,99,0)" stroke="none" paint-order="stroke" d="M 148.15936279296875 77.81818389892578 L 148.17981079220772 77.81818389892578 L 148.17981079220772 130.45454788208008 L 148.15936279296875 130.45454788208008 L 148.15936279296875 77.81818389892578" fill-opacity="1" clip-path="url(#EwZUSKUhyKUu)"/><path fill="rgb(255,66,0)" stroke="none" paint-order="stroke" d="M 148.1798095703125 77.81818389892578 L 148.2015355695039 77.81818389892578 L 148.2015355695039 130.45454788208008 L 148.1798095703125 130.45454788208008 L 148.1798095703125 77.81818389892578" fill-opacity="1" clip-path="url(#EwZUSKUhyKUu)"/><path fill="rgb(255,32,0)" stroke="none" paint-order="stroke" d="M 148.2015380859375 77.81818389892578 L 148.24371208623052 77.81818389892578 L 148.24371208623052 130.45454788208008 L 148.2015380859375 130.45454788208008 L 148.2015380859375 77.81818389892578" fill-opacity="1" clip-path="url(#EwZUSKUhyKUu)"/><path fill="rgb(246,0,0)" stroke="none" paint-order="stroke" d="M 148.24371337890625 77.81818389892578 L 148.26543937809765 77.81818389892578 L 148.26543937809765 130.45454788208008 L 148.24371337890625 130.45454788208008 L 148.24371337890625 77.81818389892578" fill-opacity="1" clip-path="url(#EwZUSKUhyKUu)"/><path fill="rgb(241,0,0)" stroke="none" paint-order="stroke" d="M 148.26544189453125 77.81818389892578 L 148.28716789372265 77.81818389892578 L 148.28716789372265 130.45454788208008 L 148.26544189453125 130.45454788208008 L 148.26544189453125 77.81818389892578" fill-opacity="1" clip-path="url(#EwZUSKUhyKUu)"/><path fill="rgb(237,0,0)" stroke="none" paint-order="stroke" d="M 148.28717041015625 77.81818389892578 L 148.30761840939522 77.81818389892578 L 148.30761840939522 130.45454788208008 L 148.28717041015625 130.45454788208008 L 148.28717041015625 77.81818389892578" fill-opacity="1" clip-path="url(#EwZUSKUhyKUu)"/><path fill="rgb(220,0,0)" stroke="none" paint-order="stroke" d="M 148.3076171875 77.81818389892578 L 148.3382891882211 77.81818389892578 L 148.3382891882211 130.45454788208008 L 148.3076171875 130.45454788208008 L 148.3076171875 77.81818389892578" fill-opacity="1" clip-path="url(#EwZUSKUhyKUu)"/><path fill="rgb(210,0,0)" stroke="none" paint-order="stroke" d="M 148.33828735351562 77.81818389892578 L 148.34978935308754 77.81818389892578 L 148.34978935308754 130.45454788208008 L 148.33828735351562 130.45454788208008 L 148.33828735351562 77.81818389892578" fill-opacity="1" clip-path="url(#EwZUSKUhyKUu)"/><path fill="rgb(200,0,0)" stroke="none" paint-order="stroke" d="M 148.34979248046875 77.81818389892578 L 148.39324447885156 77.81818389892578 L 148.39324447885156 130.45454788208008 L 148.34979248046875 130.45454788208008 L 148.34979248046875 77.81818389892578" fill-opacity="1" clip-path="url(#EwZUSKUhyKUu)"/><path fill="rgb(188,0,0)" stroke="none" paint-order="stroke" d="M 148.39324951171875 77.81818389892578 L 148.41369751095772 77.81818389892578 L 148.41369751095772 130.45454788208008 L 148.39324951171875 130.45454788208008 L 148.39324951171875 77.81818389892578" fill-opacity="1" clip-path="url(#EwZUSKUhyKUu)"/><path fill="rgb(184,0,0)" stroke="none" paint-order="stroke" d="M 148.4136962890625 77.81818389892578 L 148.4354222882539 77.81818389892578 L 148.4354222882539 130.45454788208008 L 148.4136962890625 130.45454788208008 L 148.4136962890625 77.81818389892578" fill-opacity="1" clip-path="url(#EwZUSKUhyKUu)"/><path fill="rgb(178,0,0)" stroke="none" paint-order="stroke" d="M 148.43540954589844 77.81818389892578 L 148.45713554508984 77.81818389892578 L 148.45713554508984 130.45454788208008 L 148.43540954589844 130.45454788208008 L 148.43540954589844 77.81818389892578" fill-opacity="1" clip-path="url(#EwZUSKUhyKUu)"/><path fill="rgb(166,0,0)" stroke="none" paint-order="stroke" d="M 148.45713806152344 77.81818389892578 L 148.4775860607624 77.81818389892578 L 148.4775860607624 130.45454788208008 L 148.45713806152344 130.45454788208008 L 148.45713806152344 77.81818389892578" fill-opacity="1" clip-path="url(#EwZUSKUhyKUu)"/><path fill="rgb(161,0,0)" stroke="none" paint-order="stroke" d="M 148.4775848388672 77.81818389892578 L 148.4993108380586 77.81818389892578 L 148.4993108380586 130.45454788208008 L 148.4775848388672 130.45454788208008 L 148.4775848388672 77.81818389892578" fill-opacity="1" clip-path="url(#EwZUSKUhyKUu)"/><path fill="rgb(155,0,0)" stroke="none" paint-order="stroke" d="M 148.4993133544922 77.81818389892578 L 148.5210393536836 77.81818389892578 L 148.5210393536836 130.45454788208008 L 148.4993133544922 130.45454788208008 L 148.4993133544922 77.81818389892578" fill-opacity="1" clip-path="url(#EwZUSKUhyKUu)"/><path fill="rgb(144,0,0)" stroke="none" paint-order="stroke" d="M 148.5210418701172 77.81818389892578 L 148.54660187102854 77.81818389892578 L 148.54660187102854 130.45454788208008 L 148.5210418701172 130.45454788208008 L 148.5210418701172 77.81818389892578" fill-opacity="1" clip-path="url(#EwZUSKUhyKUu)"/><path fill="rgb(138,0,0)" stroke="none" paint-order="stroke" d="M 148.54660034179688 77.81818389892578 L 148.56321434117854 77.81818389892578 L 148.56321434117854 130.45454788208008 L 148.54660034179688 130.45454788208008 L 148.54660034179688 77.81818389892578" fill-opacity="1" clip-path="url(#EwZUSKUhyKUu)"/><path fill="rgb(132,0,0)" stroke="none" paint-order="stroke" d="M 148.56321716308594 77.81818389892578 L 148.60666916146874 77.81818389892578 L 148.60666916146874 130.45454788208008 L 148.56321716308594 130.45454788208008 L 148.56321716308594 77.81818389892578" fill-opacity="1" clip-path="url(#EwZUSKUhyKUu)"/><path fill="rgb(120,0,0)" stroke="none" paint-order="stroke" d="M 148.60667419433594 77.81818389892578 L 148.6271221935749 77.81818389892578 L 148.6271221935749 130.45454788208008 L 148.60667419433594 130.45454788208008 L 148.60667419433594 77.81818389892578" fill-opacity="1" clip-path="url(#EwZUSKUhyKUu)"/><path fill="rgb(114,0,0)" stroke="none" paint-order="stroke" d="M 148.6271209716797 77.81818389892578 L 148.6488469708711 77.81818389892578 L 148.6488469708711 130.45454788208008 L 148.6271209716797 130.45454788208008 L 148.6271209716797 77.81818389892578" fill-opacity="1" clip-path="url(#EwZUSKUhyKUu)"/><path fill="rgb(107,0,0)" stroke="none" paint-order="stroke" d="M 148.6488494873047 77.81818389892578 L 148.6705754864961 77.81818389892578 L 148.6705754864961 130.45454788208008 L 148.6488494873047 130.45454788208008 L 148.6488494873047 77.81818389892578" fill-opacity="1" clip-path="url(#EwZUSKUhyKUu)"/><path fill="rgb(102,0,0)" stroke="none" paint-order="stroke" d="M 148.67056274414062 77.81818389892578 L 148.69228874333203 77.81818389892578 L 148.69228874333203 130.45454788208008 L 148.67056274414062 130.45454788208008 L 148.67056274414062 77.81818389892578" fill-opacity="1" clip-path="url(#EwZUSKUhyKUu)"/><path fill="rgb(0,0,0)" stroke="none" paint-order="stroke" d="M 148.69229125976562 77.81818389892578 L 148.7127392590046 77.81818389892578 L 148.7127392590046 130.45454788208008 L 148.69229125976562 130.45454788208008 L 148.69229125976562 77.81818389892578" fill-opacity="1" clip-path="url(#EwZUSKUhyKUu)"/><path fill="rgb(0,0,0)" stroke="none" paint-order="stroke" d="M 148.71273803710938 77.81818389892578 L 148.73446403630078 77.81818389892578 L 148.73446403630078 130.45454788208008 L 148.71273803710938 130.45454788208008 L 148.71273803710938 77.81818389892578" fill-opacity="1" clip-path="url(#EwZUSKUhyKUu)"/><path fill="rgb(0,0,0)" stroke="none" paint-order="stroke" d="M 148.73446655273438 77.81818389892578 L 148.76513855345547 77.81818389892578 L 148.76513855345547 130.45454788208008 L 148.73446655273438 130.45454788208008 L 148.73446655273438 77.81818389892578" fill-opacity="1" clip-path="url(#EwZUSKUhyKUu)"/><path fill="rgb(0,0,0)" stroke="none" paint-order="stroke" d="M 148.76513671875 77.81818389892578 L 148.79836471751332 77.81818389892578 L 148.79836471751332 130.45454788208008 L 148.76513671875 130.45454788208008 L 148.76513671875 77.81818389892578" fill-opacity="1" clip-path="url(#EwZUSKUhyKUu)"/><path fill="rgb(0,0,0)" stroke="none" paint-order="stroke" d="M 148.79837036132812 77.81818389892578 L 149.62907034158707 77.81818389892578 L 149.62907034158707 130.45454788208008 L 148.79837036132812 130.45454788208008 L 148.79837036132812 77.81818389892578" fill-opacity="1" clip-path="url(#EwZUSKUhyKUu)"/><path fill="rgb(0,0,0)" stroke="none" paint-order="stroke" d="M 149.6290740966797 77.81818389892578 L 149.64952209591866 77.81818389892578 L 149.64952209591866 130.45454788208008 L 149.6290740966797 130.45454788208008 L 149.6290740966797 77.81818389892578" fill-opacity="1" clip-path="url(#EwZUSKUhyKUu)"/><path fill="rgb(144,0,0)" stroke="none" paint-order="stroke" d="M 149.64952087402344 77.81818389892578 L 149.67124687321484 77.81818389892578 L 149.67124687321484 130.45454788208008 L 149.64952087402344 130.45454788208008 L 149.64952087402344 77.81818389892578" fill-opacity="1" clip-path="url(#EwZUSKUhyKUu)"/><path fill="rgb(172,0,0)" stroke="none" paint-order="stroke" d="M 149.67124938964844 77.81818389892578 L 149.69297538883984 77.81818389892578 L 149.69297538883984 130.45454788208008 L 149.67124938964844 130.45454788208008 L 149.67124938964844 77.81818389892578" fill-opacity="1" clip-path="url(#EwZUSKUhyKUu)"/><path fill="rgb(200,0,0)" stroke="none" paint-order="stroke" d="M 149.69296264648438 77.81818389892578 L 149.71724464558065 77.81818389892578 L 149.71724464558065 130.45454788208008 L 149.69296264648438 130.45454788208008 L 149.69296264648438 77.81818389892578" fill-opacity="1" clip-path="url(#EwZUSKUhyKUu)"/><path fill="rgb(255,99,0)" stroke="none" paint-order="stroke" d="M 149.71725463867188 77.81818389892578 L 149.73514663800597 77.81818389892578 L 149.73514663800597 130.45454788208008 L 149.71725463867188 130.45454788208008 L 149.71725463867188 77.81818389892578" fill-opacity="1" clip-path="url(#EwZUSKUhyKUu)"/><path fill="rgb(201,255,0)" stroke="none" paint-order="stroke" d="M 149.73513793945312 77.81818389892578 L 149.7555859386921 77.81818389892578 L 149.7555859386921 130.45454788208008 L 149.73513793945312 130.45454788208008 L 149.73513793945312 77.81818389892578" fill-opacity="1" clip-path="url(#EwZUSKUhyKUu)"/><path fill="rgb(0,200,255)" stroke="none" paint-order="stroke" d="M 149.75558471679688 77.81818389892578 L 149.77731071598828 77.81818389892578 L 149.77731071598828 130.45454788208008 L 149.75558471679688 130.45454788208008 L 149.75558471679688 77.81818389892578" fill-opacity="1" clip-path="url(#EwZUSKUhyKUu)"/><path fill="rgb(42,0,238)" stroke="none" paint-order="stroke" d="M 149.77731323242188 77.81818389892578 L 149.8003172315657 77.81818389892578 L 149.8003172315657 130.45454788208008 L 149.77731323242188 130.45454788208008 L 149.77731323242188 77.81818389892578" fill-opacity="1" clip-path="url(#EwZUSKUhyKUu)"/><path fill="rgb(107,0,120)" stroke="none" paint-order="stroke" d="M 149.80032348632812 77.81818389892578 L 149.8207714855671 77.81818389892578 L 149.8207714855671 130.45454788208008 L 149.80032348632812 130.45454788208008 L 149.80032348632812 77.81818389892578" fill-opacity="1" clip-path="url(#EwZUSKUhyKUu)"/><path fill="rgb(97,0,97)" stroke="none" paint-order="stroke" d="M 149.82077026367188 77.81818389892578 L 151.94991827011108 77.81818389892578 L 151.94991827011108 130.45454788208008 L 149.82077026367188 130.45454788208008 L 149.82077026367188 77.81818389892578" fill-opacity="1" clip-path="url(#EwZUSKUhyKUu)"/><path fill="rgb(104,0,112)" stroke="none" paint-order="stroke" d="M 151.94992065429688 77.81818389892578 L 151.97164665348828 77.81818389892578 L 151.97164665348828 130.45454788208008 L 151.94992065429688 130.45454788208008 L 151.94992065429688 77.81818389892578" fill-opacity="1" clip-path="url(#EwZUSKUhyKUu)"/><path fill="rgb(107,0,120)" stroke="none" paint-order="stroke" d="M 151.97164916992188 77.81818389892578 L 151.99209716916084 77.81818389892578 L 151.99209716916084 130.45454788208008 L 151.97164916992188 130.45454788208008 L 151.97164916992188 77.81818389892578" fill-opacity="1" clip-path="url(#EwZUSKUhyKUu)"/><path fill="rgb(111,0,154)" stroke="none" paint-order="stroke" d="M 151.99209594726562 77.81818389892578 L 152.01382194645703 77.81818389892578 L 152.01382194645703 130.45454788208008 L 151.99209594726562 130.45454788208008 L 151.99209594726562 77.81818389892578" fill-opacity="1" clip-path="url(#EwZUSKUhyKUu)"/><path fill="rgb(110,0,162)" stroke="none" paint-order="stroke" d="M 152.01380920410156 77.81818389892578 L 152.03553520329297 77.81818389892578 L 152.03553520329297 130.45454788208008 L 152.01380920410156 130.45454788208008 L 152.01380920410156 77.81818389892578" fill-opacity="1" clip-path="url(#EwZUSKUhyKUu)"/><path fill="rgb(90,0,201)" stroke="none" paint-order="stroke" d="M 152.03553771972656 77.81818389892578 L 152.05598571896553 77.81818389892578 L 152.05598571896553 130.45454788208008 L 152.03553771972656 130.45454788208008 L 152.03553771972656 77.81818389892578" fill-opacity="1" clip-path="url(#EwZUSKUhyKUu)"/><path fill="rgb(72,0,218)" stroke="none" paint-order="stroke" d="M 152.0559844970703 77.81818389892578 L 152.07771049626172 77.81818389892578 L 152.07771049626172 130.45454788208008 L 152.0559844970703 130.45454788208008 L 152.0559844970703 77.81818389892578" fill-opacity="1" clip-path="url(#EwZUSKUhyKUu)"/><path fill="rgb(0,0,255)" stroke="none" paint-order="stroke" d="M 152.0777130126953 77.81818389892578 L 152.09943901188672 77.81818389892578 L 152.09943901188672 130.45454788208008 L 152.0777130126953 130.45454788208008 L 152.0777130126953 77.81818389892578" fill-opacity="1" clip-path="url(#EwZUSKUhyKUu)"/><path fill="rgb(0,169,255)" stroke="none" paint-order="stroke" d="M 152.0994415283203 77.81818389892578 L 152.12116752751172 77.81818389892578 L 152.12116752751172 130.45454788208008 L 152.0994415283203 130.45454788208008 L 152.0994415283203 77.81818389892578" fill-opacity="1" clip-path="url(#EwZUSKUhyKUu)"/><path fill="rgb(0,246,255)" stroke="none" paint-order="stroke" d="M 152.1211700439453 77.81818389892578 L 152.14161804318428 77.81818389892578 L 152.14161804318428 130.45454788208008 L 152.1211700439453 130.45454788208008 L 152.1211700439453 77.81818389892578" fill-opacity="1" clip-path="url(#EwZUSKUhyKUu)"/><path fill="rgb(25,255,0)" stroke="none" paint-order="stroke" d="M 152.14161682128906 77.81818389892578 L 152.16334282048047 77.81818389892578 L 152.16334282048047 130.45454788208008 L 152.14161682128906 130.45454788208008 L 152.14161682128906 77.81818389892578" fill-opacity="1" clip-path="url(#EwZUSKUhyKUu)"/><path fill="rgb(89,255,0)" stroke="none" paint-order="stroke" d="M 152.16334533691406 77.81818389892578 L 152.18379333615303 77.81818389892578 L 152.18379333615303 130.45454788208008 L 152.16334533691406 130.45454788208008 L 152.16334533691406 77.81818389892578" fill-opacity="1" clip-path="url(#EwZUSKUhyKUu)"/><path fill="rgb(115,255,0)" stroke="none" paint-order="stroke" d="M 152.1837921142578 77.81818389892578 L 152.22724411264062 77.81818389892578 L 152.22724411264062 130.45454788208008 L 152.1837921142578 130.45454788208008 L 152.1837921142578 77.81818389892578" fill-opacity="1" clip-path="url(#EwZUSKUhyKUu)"/><path fill="rgb(143,255,0)" stroke="none" paint-order="stroke" d="M 152.2272491455078 77.81818389892578 L 152.24897514469922 77.81818389892578 L 152.24897514469922 130.45454788208008 L 152.2272491455078 130.45454788208008 L 152.2272491455078 77.81818389892578" fill-opacity="1" clip-path="url(#EwZUSKUhyKUu)"/><path fill="rgb(166,255,0)" stroke="none" paint-order="stroke" d="M 152.24896240234375 77.81818389892578 L 152.26941040158272 77.81818389892578 L 152.26941040158272 130.45454788208008 L 152.24896240234375 130.45454788208008 L 152.24896240234375 77.81818389892578" fill-opacity="1" clip-path="url(#EwZUSKUhyKUu)"/><path fill="rgb(213,255,0)" stroke="none" paint-order="stroke" d="M 152.2694091796875 77.81818389892578 L 152.2911351788789 77.81818389892578 L 152.2911351788789 130.45454788208008 L 152.2694091796875 130.45454788208008 L 152.2694091796875 77.81818389892578" fill-opacity="1" clip-path="url(#EwZUSKUhyKUu)"/><path fill="rgb(255,155,0)" stroke="none" paint-order="stroke" d="M 152.2911376953125 77.81818389892578 L 152.31158569455147 77.81818389892578 L 152.31158569455147 130.45454788208008 L 152.2911376953125 130.45454788208008 L 152.2911376953125 77.81818389892578" fill-opacity="1" clip-path="url(#EwZUSKUhyKUu)"/><path fill="rgb(255,32,0)" stroke="none" paint-order="stroke" d="M 152.31158447265625 77.81818389892578 L 152.33331047184765 77.81818389892578 L 152.33331047184765 130.45454788208008 L 152.31158447265625 130.45454788208008 L 152.31158447265625 77.81818389892578" fill-opacity="1" clip-path="url(#EwZUSKUhyKUu)"/><path fill="rgb(241,0,0)" stroke="none" paint-order="stroke" d="M 152.33331298828125 77.81818389892578 L 152.35503898747265 77.81818389892578 L 152.35503898747265 130.45454788208008 L 152.33331298828125 130.45454788208008 L 152.33331298828125 77.81818389892578" fill-opacity="1" clip-path="url(#EwZUSKUhyKUu)"/><path fill="rgb(220,0,0)" stroke="none" paint-order="stroke" d="M 152.35504150390625 77.81818389892578 L 152.37548950314522 77.81818389892578 L 152.37548950314522 130.45454788208008 L 152.35504150390625 130.45454788208008 L 152.35504150390625 77.81818389892578" fill-opacity="1" clip-path="url(#EwZUSKUhyKUu)"/><path fill="rgb(216,0,0)" stroke="none" paint-order="stroke" d="M 152.37548828125 77.81818389892578 L 152.3972142804414 77.81818389892578 L 152.3972142804414 130.45454788208008 L 152.37548828125 130.45454788208008 L 152.37548828125 77.81818389892578" fill-opacity="1" clip-path="url(#EwZUSKUhyKUu)"/><path fill="rgb(210,0,0)" stroke="none" paint-order="stroke" d="M 152.397216796875 77.81818389892578 L 152.4189427960664 77.81818389892578 L 152.4189427960664 130.45454788208008 L 152.397216796875 130.45454788208008 L 152.397216796875 77.81818389892578" fill-opacity="1" clip-path="url(#EwZUSKUhyKUu)"/><path fill="rgb(204,0,0)" stroke="none" paint-order="stroke" d="M 152.4189453125 77.81818389892578 L 152.46111931279302 77.81818389892578 L 152.46111931279302 130.45454788208008 L 152.4189453125 130.45454788208008 L 152.4189453125 77.81818389892578" fill-opacity="1" clip-path="url(#EwZUSKUhyKUu)"/><path fill="rgb(200,0,0)" stroke="none" paint-order="stroke" d="M 152.46112060546875 77.81818389892578 L 152.50457260385156 77.81818389892578 L 152.50457260385156 130.45454788208008 L 152.46112060546875 130.45454788208008 L 152.46112060546875 77.81818389892578" fill-opacity="1" clip-path="url(#EwZUSKUhyKUu)"/><path fill="rgb(194,0,0)" stroke="none" paint-order="stroke" d="M 152.5045623779297 77.81818389892578 L 152.5262883771211 77.81818389892578 L 152.5262883771211 130.45454788208008 L 152.5045623779297 130.45454788208008 L 152.5045623779297 77.81818389892578" fill-opacity="1" clip-path="url(#EwZUSKUhyKUu)"/><path fill="rgb(188,0,0)" stroke="none" paint-order="stroke" d="M 152.5262908935547 77.81818389892578 L 152.54673889279366 77.81818389892578 L 152.54673889279366 130.45454788208008 L 152.5262908935547 130.45454788208008 L 152.5262908935547 77.81818389892578" fill-opacity="1" clip-path="url(#EwZUSKUhyKUu)"/><path fill="rgb(184,0,0)" stroke="none" paint-order="stroke" d="M 152.54673767089844 77.81818389892578 L 170.5448112487793 77.81818389892578 L 170.5448112487793 130.45454788208008 L 152.54673767089844 130.45454788208008 L 152.54673767089844 77.81818389892578" fill-opacity="1" clip-path="url(#EwZUSKUhyKUu)"/><path fill="rgb(251,0,7)" stroke="none" paint-order="stroke" d="M 58.5 130.4545440673828 L 170.54481506347656 130.4545440673828 L 170.54481506347656 183.0909080505371 L 58.5 183.0909080505371 L 58.5 130.4545440673828" fill-opacity="1" clip-path="url(#WfzHpWlHMZhi)"/><path fill="rgb(105,29,48)" stroke="none" paint-order="stroke" d="M 142.7342529296875 183.09091186523438 L 142.79815293103456 183.09091186523438 L 142.79815293103456 498.9090881347656 L 142.7342529296875 498.9090881347656 L 142.7342529296875 183.09091186523438" fill-opacity="1" clip-path="url(#yTOZSIytPeKy)"/><path fill="rgb(255,188,66)" stroke="none" paint-order="stroke" d="M 129.78939819335938 183.09091186523438 L 131.55431616306305 183.09091186523438 L 131.55431616306305 498.9090881347656 L 129.78939819335938 498.9090881347656 L 129.78939819335938 183.09091186523438" fill-opacity="1" clip-path="url(#xClAtvsTrlyR)"/><path fill="rgb(255,188,66)" stroke="none" paint-order="stroke" d="M 154.26437377929688 183.09091186523438 L 155.70723581314087 183.09091186523438 L 155.70723581314087 498.9090881347656 L 154.26437377929688 498.9090881347656 L 154.26437377929688 183.09091186523438" fill-opacity="1" clip-path="url(#xClAtvsTrlyR)"/><path fill="rgb(255,188,66)" stroke="none" paint-order="stroke" d="M 161.9196014404297 183.09091186523438 L 167.97093152999878 183.09091186523438 L 167.97093152999878 498.9090881347656 L 161.9196014404297 498.9090881347656 L 161.9196014404297 183.09091186523438" fill-opacity="1" clip-path="url(#xClAtvsTrlyR)"/><path fill="rgb(216,17,89)" stroke="none" paint-order="stroke" d="M 134.0937042236328 183.09091186523438 L 134.15760422497988 183.09091186523438 L 134.15760422497988 498.9090881347656 L 134.0937042236328 498.9090881347656 L 134.0937042236328 183.09091186523438" fill-opacity="1" clip-path="url(#hdmPTKxxvGdD)"/><path fill="rgb(239,185,203)" stroke="none" paint-order="stroke" d="M 64.06568908691406 183.09091186523438 L 106.11955642700195 183.09091186523438 L 106.11955642700195 498.9090881347656 L 64.06568908691406 498.9090881347656 L 64.06568908691406 183.09091186523438" fill-opacity="1" clip-path="url(#TDgTtttGDzdO)"/><path fill="rgb(105,29,48)" stroke="none" paint-order="stroke" d="M 136.1576690673828 183.09091186523438 L 141.14953708648682 183.09091186523438 L 141.14953708648682 498.9090881347656 L 136.1576690673828 498.9090881347656 L 136.1576690673828 183.09091186523438" fill-opacity="1" clip-path="url(#BEtBgQwsVEHw)"/><path fill="rgb(105,29,48)" stroke="none" paint-order="stroke" d="M 147.3337860107422 183.09091186523438 L 152.6336522102356 183.09091186523438 L 152.6336522102356 498.9090881347656 L 147.3337860107422 498.9090881347656 L 147.3337860107422 183.09091186523438" fill-opacity="1" clip-path="url(#BEtBgQwsVEHw)"/><path fill="rgb(255,188,66)" stroke="none" paint-order="stroke" d="M 164.19827270507812 498.9090881347656 L 165.41237270832062 498.9090881347656 L 165.41237270832062 551.5454521179199 L 164.19827270507812 551.5454521179199 L 164.19827270507812 498.9090881347656" fill-opacity="1" clip-path="url(#WsvzodOZizmg)"/><path fill="rgb(143,45,86)" stroke="none" paint-order="stroke" d="M 58.5 551.5454711914062 L 142.73426055908203 551.5454711914062 L 142.73426055908203 604.1818351745605 L 58.5 604.1818351745605 L 58.5 551.5454711914062" fill-opacity="1" clip-path="url(#cNOamUAbTZHV)"/><path fill="rgb(63,136,197)" stroke="none" paint-order="stroke" d="M 142.7342529296875 551.5454711914062 L 170.5448112487793 551.5454711914062 L 170.5448112487793 604.1818351745605 L 142.7342529296875 604.1818351745605 L 142.7342529296875 551.5454711914062" fill-opacity="1" clip-path="url(#cNOamUAbTZHV)"/><path fill="none" stroke="rgb(0,0,0)" paint-order="fill" d="M 58.5 77.81818389892578 L 170.54481506347656 77.81818389892578 L 170.54481506347656 604.1818313598633 L 58.5 604.1818313598633 L 58.5 77.81818389892578" stroke-opacity="1" stroke-linejoin="bevel" stroke-miterlimit="10" stroke-dasharray="" clip-path="url(#TARiLqOIvKil)"/><path fill="none" stroke="rgb(0,0,0)" paint-order="fill" d="M 58.5 630.5 L 1336.5 630.5" stroke-opacity="1" stroke-linejoin="bevel" stroke-miterlimit="10" stroke-dasharray=""/><path fill="none" stroke="rgb(0,0,0)" paint-order="fill" d="M 58.5 636.5 L 58.5 628.5 M 314.5 636.5 L 314.5 628.5 M 569.5 636.5 L 569.5 628.5 M 825.5 636.5 L 825.5 628.5 M 1080.5 636.5 L 1080.5 628.5 M 1336.5 636.5 L 1336.5 628.5" stroke-opacity="1" stroke-linejoin="bevel" stroke-miterlimit="10" stroke-dasharray=""/><path fill="none" stroke="rgb(0,0,0)" paint-order="fill" d="M 58.5 634.5 L 58.5 630.5 M 109.5 634.5 L 109.5 630.5 M 160.5 634.5 L 160.5 630.5 M 211.5 634.5 L 211.5 630.5 M 262.5 634.5 L 262.5 630.5 M 314.5 634.5 L 314.5 630.5 M 365.5 634.5 L 365.5 630.5 M 416.5 634.5 L 416.5 630.5 M 467.5 634.5 L 467.5 630.5 M 518.5 634.5 L 518.5 630.5 M 569.5 634.5 L 569.5 630.5 M 620.5 634.5 L 620.5 630.5 M 671.5 634.5 L 671.5 630.5 M 723.5 634.5 L 723.5 630.5 M 774.5 634.5 L 774.5 630.5 M 825.5 634.5 L 825.5 630.5 M 876.5 634.5 L 876.5 630.5 M 927.5 634.5 L 927.5 630.5 M 978.5 634.5 L 978.5 630.5 M 1029.5 634.5 L 1029.5 630.5 M 1080.5 634.5 L 1080.5 630.5 M 1132.5 634.5 L 1132.5 630.5 M 1183.5 634.5 L 1183.5 630.5 M 1234.5 634.5 L 1234.5 630.5 M 1285.5 634.5 L 1285.5 630.5 M 1336.5 634.5 L 1336.5 630.5" stroke-opacity="1" stroke-linejoin="bevel" stroke-miterlimit="10" stroke-dasharray=""/><text fill="rgb(68,68,68)" stroke="none" font-family="helvetica" font-size="11px" font-style="normal" font-weight="normal" text-decoration="normal" x="54.94166660308838" y="648.89013671875" text-anchor="start" dominant-baseline="alphabetic" transform="matrix(1, 0, 0, 1, 0.5, 0.5)" fill-opacity="1">0</text><text fill="rgb(68,68,68)" stroke="none" font-family="helvetica" font-size="11px" font-style="normal" font-weight="normal" text-decoration="normal" x="304.42500591278076" y="648.89013671875" text-anchor="start" dominant-baseline="alphabetic" transform="matrix(1, 0, 0, 1, 0.5, 0.5)" fill-opacity="1">200</text><text fill="rgb(68,68,68)" stroke="none" font-family="helvetica" font-size="11px" font-style="normal" font-weight="normal" text-decoration="normal" x="560.0250120162964" y="648.89013671875" text-anchor="start" dominant-baseline="alphabetic" transform="matrix(1, 0, 0, 1, 0.5, 0.5)" fill-opacity="1">400</text><text fill="rgb(68,68,68)" stroke="none" font-family="helvetica" font-size="11px" font-style="normal" font-weight="normal" text-decoration="normal" x="815.6249876022339" y="648.89013671875" text-anchor="start" dominant-baseline="alphabetic" transform="matrix(1, 0, 0, 1, 0.5, 0.5)" fill-opacity="1">600</text><text fill="rgb(68,68,68)" stroke="none" font-family="helvetica" font-size="11px" font-style="normal" font-weight="normal" text-decoration="normal" x="1071.2250242233276" y="648.89013671875" text-anchor="start" dominant-baseline="alphabetic" transform="matrix(1, 0, 0, 1, 0.5, 0.5)" fill-opacity="1">800</text><text fill="rgb(68,68,68)" stroke="none" font-family="helvetica" font-size="11px" font-style="normal" font-weight="normal" text-decoration="normal" x="1323.7666664123535" y="648.89013671875" text-anchor="start" dominant-baseline="alphabetic" transform="matrix(1, 0, 0, 1, 0.5, 0.5)" fill-opacity="1">1000</text><text fill="rgb(68,68,68)" stroke="none" font-family="helvetica" font-size="15pt" font-style="italic" font-weight="normal" text-decoration="normal" x="666.4416675567627" y="676.06982421875" text-anchor="start" dominant-baseline="alphabetic" transform="matrix(1, 0, 0, 1, 0.5, 0.5)" fill-opacity="1">time(s)</text><path fill="none" stroke="rgb(0,0,0)" paint-order="fill" d="M 58.5 630.5 L 58.5 51.5" stroke-opacity="1" stroke-linejoin="bevel" stroke-miterlimit="10" stroke-dasharray=""/><path fill="none" stroke="rgb(0,0,0)" paint-order="fill" d="M 52.5 551.5 L 60.5 551.5 M 52.5 446.5 L 60.5 446.5 M 52.5 341.5 L 60.5 341.5 M 52.5 235.5 L 60.5 235.5 M 52.5 130.5 L 60.5 130.5" stroke-opacity="1" stroke-linejoin="bevel" stroke-miterlimit="10" stroke-dasharray=""/><path fill="none" stroke="rgb(0,0,0)" paint-order="fill" d="M 54.5 572.5 L 58.5 572.5 M 54.5 593.5 L 58.5 593.5 M 54.5 614.5 L 58.5 614.5 M 54.5 551.5 L 58.5 551.5 M 54.5 530.5 L 58.5 530.5 M 54.5 509.5 L 58.5 509.5 M 54.5 488.5 L 58.5 488.5 M 54.5 467.5 L 58.5 467.5 M 54.5 446.5 L 58.5 446.5 M 54.5 425.5 L 58.5 425.5 M 54.5 404.5 L 58.5 404.5 M 54.5 383.5 L 58.5 383.5 M 54.5 362.5 L 58.5 362.5 M 54.5 341.5 L 58.5 341.5 M 54.5 319.5 L 58.5 319.5 M 54.5 298.5 L 58.5 298.5 M 54.5 277.5 L 58.5 277.5 M 54.5 256.5 L 58.5 256.5 M 54.5 235.5 L 58.5 235.5 M 54.5 214.5 L 58.5 214.5 M 54.5 193.5 L 58.5 193.5 M 54.5 172.5 L 58.5 172.5 M 54.5 151.5 L 58.5 151.5 M 54.5 130.5 L 58.5 130.5 M 54.5 109.5 L 58.5 109.5 M 54.5 88.5 L 58.5 88.5 M 54.5 67.5 L 58.5 67.5" stroke-opacity="1" stroke-linejoin="bevel" stroke-miterlimit="10" stroke-dasharray=""/><text fill="rgb(68,68,68)" stroke="none" font-family="helvetica" font-size="11px" font-style="normal" font-weight="normal" text-decoration="normal" x="34.46666622161865" y="554.9905395507812" text-anchor="start" dominant-baseline="alphabetic" transform="matrix(1, 0, 0, 1, 0.5, 0.5)" fill-opacity="1">2</text><text fill="rgb(68,68,68)" stroke="none" font-family="helvetica" font-size="11px" font-style="normal" font-weight="normal" text-decoration="normal" x="34.46666622161865" y="449.7178039550781" text-anchor="start" dominant-baseline="alphabetic" transform="matrix(1, 0, 0, 1, 0.5, 0.5)" fill-opacity="1">1</text><text fill="rgb(68,68,68)" stroke="none" font-family="helvetica" font-size="11px" font-style="normal" font-weight="normal" text-decoration="normal" x="40.88333320617676" y="344.445068359375" text-anchor="start" dominant-baseline="alphabetic" transform="matrix(1, 0, 0, 1, 0.5, 0.5)" fill-opacity="1">0</text><text fill="rgb(68,68,68)" stroke="none" font-family="helvetica" font-size="11px" font-style="normal" font-weight="normal" text-decoration="normal" x="40.88333320617676" y="239.17234802246094" text-anchor="start" dominant-baseline="alphabetic" transform="matrix(1, 0, 0, 1, 0.5, 0.5)" fill-opacity="1">1</text><text fill="rgb(68,68,68)" stroke="none" font-family="helvetica" font-size="11px" font-style="normal" font-weight="normal" text-decoration="normal" x="40.88333320617676" y="133.8996124267578" text-anchor="start" dominant-baseline="alphabetic" transform="matrix(1, 0, 0, 1, 0.5, 0.5)" fill-opacity="1">2</text><text fill="rgb(68,68,68)" stroke="none" font-family="helvetica" font-size="15pt" font-style="italic" font-weight="normal" text-decoration="normal" x="-11.316666603088379" y="336.076171875" text-anchor="start" dominant-baseline="alphabetic" transform="matrix(6.123233995736766e-17, -1, 1, 6.123233995736766e-17, -313.53333377838135, 367.46666622161865)" fill-opacity="1">students</text><path fill="rgb(255,255,255)" stroke="rgb(229,229,229)" paint-order="fill" d="M 1128.2333374023438 61.5 L 1326.5 61.5 L 1326.5 400.5 L 1128.2333374023438 400.5 L 1128.2333374023438 61.5" fill-opacity="0.9490196078431372" clip-path="url(#WLiapKLTyBhE)" stroke-opacity="0.5019607843137255" stroke-linejoin="bevel" stroke-miterlimit="10" stroke-dasharray=""/><text fill="rgb(68,68,68)" stroke="none" font-family="helvetica" font-size="13px" font-style="normal" font-weight="normal" text-decoration="normal" x="1162.7333374023438" y="81" text-anchor="start" dominant-baseline="central" clip-path="url(#WLiapKLTyBhE)" transform="matrix(1, 0, 0, 1, 0.5, 0.5)" fill-opacity="1">wavelength</text><path fill="rgb(0,255,40)" stroke="none" paint-order="stroke" d="M 1140.2333374023438 73.5 L 1156.2333374023438 73.5 L 1156.2333374023438 89.5 L 1140.2333374023438 89.5 L 1140.2333374023438 73.5" fill-opacity="1" clip-path="url(#WLiapKLTyBhE)"/><path fill="rgb(216,17,89)" stroke="none" paint-order="stroke" d="M 1140.2333374023438 73.5 L 1156.2333374023438 73.5 L 1156.2333374023438 89.5 L 1140.2333374023438 89.5 L 1140.2333374023438 73.5" fill-opacity="1" clip-path="url(#WLiapKLTyBhE)"/><text fill="rgb(68,68,68)" stroke="none" font-family="helvetica" font-size="13px" font-style="normal" font-weight="normal" text-decoration="normal" x="1162.7333374023438" y="104" text-anchor="start" dominant-baseline="central" clip-path="url(#WLiapKLTyBhE)" transform="matrix(1, 0, 0, 1, 0.5, 0.5)" fill-opacity="1">solution</text><path fill="rgb(251,0,7)" stroke="none" paint-order="stroke" d="M 1140.2333374023438 96.5 L 1156.2333374023438 96.5 L 1156.2333374023438 112.5 L 1140.2333374023438 112.5 L 1140.2333374023438 96.5" fill-opacity="1" clip-path="url(#WLiapKLTyBhE)"/><text fill="rgb(68,68,68)" stroke="none" font-family="helvetica" font-size="13px" font-style="normal" font-weight="normal" text-decoration="normal" x="1162.7333374023438" y="127" text-anchor="start" dominant-baseline="central" clip-path="url(#WLiapKLTyBhE)" transform="matrix(1, 0, 0, 1, 0.5, 0.5)" fill-opacity="1">laser</text><path fill="rgb(105,29,48)" stroke="none" paint-order="stroke" d="M 1140.2333374023438 119.5 L 1156.2333374023438 119.5 L 1156.2333374023438 135.5 L 1140.2333374023438 135.5 L 1140.2333374023438 119.5" fill-opacity="1" clip-path="url(#WLiapKLTyBhE)"/><text fill="rgb(68,68,68)" stroke="none" font-family="helvetica" font-size="13px" font-style="normal" font-weight="normal" text-decoration="normal" x="1162.7333374023438" y="150" text-anchor="start" dominant-baseline="central" clip-path="url(#WLiapKLTyBhE)" transform="matrix(1, 0, 0, 1, 0.5, 0.5)" fill-opacity="1">ruler</text><path fill="rgb(255,188,66)" stroke="none" paint-order="stroke" d="M 1140.2333374023438 142.5 L 1156.2333374023438 142.5 L 1156.2333374023438 158.5 L 1140.2333374023438 158.5 L 1140.2333374023438 142.5" fill-opacity="1" clip-path="url(#WLiapKLTyBhE)"/><text fill="rgb(68,68,68)" stroke="none" font-family="helvetica" font-size="13px" font-style="normal" font-weight="normal" text-decoration="normal" x="1162.7333374023438" y="173" text-anchor="start" dominant-baseline="central" clip-path="url(#WLiapKLTyBhE)" transform="matrix(1, 0, 0, 1, 0.5, 0.5)" fill-opacity="1">restarts</text><text fill="rgb(68,68,68)" stroke="none" font-family="helvetica" font-size="13px" font-style="normal" font-weight="normal" text-decoration="normal" x="1162.7333374023438" y="196" text-anchor="start" dominant-baseline="central" clip-path="url(#WLiapKLTyBhE)" transform="matrix(1, 0, 0, 1, 0.5, 0.5)" fill-opacity="1">transmittance_absorbance</text><text fill="rgb(68,68,68)" stroke="none" font-family="helvetica" font-size="13px" font-style="normal" font-weight="normal" text-decoration="normal" x="1162.7333374023438" y="219" text-anchor="start" dominant-baseline="central" clip-path="url(#WLiapKLTyBhE)" transform="matrix(1, 0, 0, 1, 0.5, 0.5)" fill-opacity="1">magnifier</text><text fill="rgb(68,68,68)" stroke="none" font-family="helvetica" font-size="13px" font-style="normal" font-weight="normal" text-decoration="normal" x="1162.7333374023438" y="242" text-anchor="start" dominant-baseline="central" clip-path="url(#WLiapKLTyBhE)" transform="matrix(1, 0, 0, 1, 0.5, 0.5)" fill-opacity="1">concentration</text><text fill="rgb(68,68,68)" stroke="none" font-family="helvetica" font-size="13px" font-style="normal" font-weight="normal" text-decoration="normal" x="1162.7333374023438" y="265" text-anchor="start" dominant-baseline="central" clip-path="url(#WLiapKLTyBhE)" transform="matrix(1, 0, 0, 1, 0.5, 0.5)" fill-opacity="1">flask</text><text fill="rgb(68,68,68)" stroke="none" font-family="helvetica" font-size="13px" font-style="normal" font-weight="normal" text-decoration="normal" x="1162.7333374023438" y="288" text-anchor="start" dominant-baseline="central" clip-path="url(#WLiapKLTyBhE)" transform="matrix(1, 0, 0, 1, 0.5, 0.5)" fill-opacity="1">pdf</text><path fill="rgb(239,185,203)" stroke="none" paint-order="stroke" d="M 1140.2333374023438 280.5 L 1156.2333374023438 280.5 L 1156.2333374023438 296.5 L 1140.2333374023438 296.5 L 1140.2333374023438 280.5" fill-opacity="1" clip-path="url(#WLiapKLTyBhE)"/><text fill="rgb(68,68,68)" stroke="none" font-family="helvetica" font-size="13px" font-style="normal" font-weight="normal" text-decoration="normal" x="1162.7333374023438" y="311" text-anchor="start" dominant-baseline="central" clip-path="url(#WLiapKLTyBhE)" transform="matrix(1, 0, 0, 1, 0.5, 0.5)" fill-opacity="1">concentrationlab</text><text fill="rgb(68,68,68)" stroke="none" font-family="helvetica" font-size="13px" font-style="normal" font-weight="normal" text-decoration="normal" x="1162.7333374023438" y="334" text-anchor="start" dominant-baseline="central" clip-path="url(#WLiapKLTyBhE)" transform="matrix(1, 0, 0, 1, 0.5, 0.5)" fill-opacity="1">wavelength_slider</text><path fill="rgb(105,29,48)" stroke="none" paint-order="stroke" d="M 1140.2333374023438 326.5 L 1156.2333374023438 326.5 L 1156.2333374023438 342.5 L 1140.2333374023438 342.5 L 1140.2333374023438 326.5" fill-opacity="1" clip-path="url(#WLiapKLTyBhE)"/><text fill="rgb(68,68,68)" stroke="none" font-family="helvetica" font-size="13px" font-style="normal" font-weight="normal" text-decoration="normal" x="1162.7333374023438" y="357" text-anchor="start" dominant-baseline="central" clip-path="url(#WLiapKLTyBhE)" transform="matrix(1, 0, 0, 1, 0.5, 0.5)" fill-opacity="1">ruler measuring</text><path fill="rgb(255,188,66)" stroke="none" paint-order="stroke" d="M 1140.2333374023438 349.5 L 1156.2333374023438 349.5 L 1156.2333374023438 365.5 L 1140.2333374023438 365.5 L 1140.2333374023438 349.5" fill-opacity="1" clip-path="url(#WLiapKLTyBhE)"/><text fill="rgb(68,68,68)" stroke="none" font-family="helvetica" font-size="13px" font-style="normal" font-weight="normal" text-decoration="normal" x="1162.7333374023438" y="380" text-anchor="start" dominant-baseline="central" clip-path="url(#WLiapKLTyBhE)" transform="matrix(1, 0, 0, 1, 0.5, 0.5)" fill-opacity="1">dependent variable</text><path fill="rgb(143,45,86)" stroke="none" paint-order="stroke" d="M 1140.2333374023438 372.5 L 1156.2333374023438 372.5 L 1156.2333374023438 388.5 L 1140.2333374023438 388.5 L 1140.2333374023438 372.5" fill-opacity="1" clip-path="url(#WLiapKLTyBhE)"/><text fill="rgb(68,68,68)" stroke="none" font-family="helvetica" font-size="25pt" font-style="normal" font-weight="bold" text-decoration="normal" x="58" y="38.740885416666664" text-anchor="start" dominant-baseline="alphabetic" transform="matrix(1, 0, 0, 1, 0.5, 0.5)" fill-opacity="1">Timeline for student j9ukgkp5 with permutation 3012 for task 2</text></svg>