<svg version="1.1" xmlns="http://www.w3.org/2000/svg" width="1366" height="683"><defs><clipPath id="OmSDZXHOVgGq"><path fill="none" stroke="none" d="M 58.5 51.5 L 1336.5 51.5 L 1336.5 630.5 L 58.5 630.5 L 58.5 51.5"/></clipPath><clipPath id="bZJUOcLoviEU"><path fill="none" stroke="none" d="M 58.5 51.5 L 1336.5 51.5 L 1336.5 630.5 L 58.5 630.5 L 58.5 51.5"/></clipPath><clipPath id="tHaFxMFhctvu"><path fill="none" stroke="none" d="M 58.5 51.5 L 1336.5 51.5 L 1336.5 630.5 L 58.5 630.5 L 58.5 51.5"/></clipPath><clipPath id="qBVVQSoMqKza"><path fill="none" stroke="none" d="M 58.5 51.5 L 1336.5 51.5 L 1336.5 630.5 L 58.5 630.5 L 58.5 51.5"/></clipPath><clipPath id="TJEtFSzwXsED"><path fill="none" stroke="none" d="M 58.5 51.5 L 1336.5 51.5 L 1336.5 630.5 L 58.5 630.5 L 58.5 51.5"/></clipPath><clipPath id="UBNIynLbUxmx"><path fill="none" stroke="none" d="M 58.5 51.5 L 1336.5 51.5 L 1336.5 630.5 L 58.5 630.5 L 58.5 51.5"/></clipPath><clipPath id="XCWbqIzAyuqO"><path fill="none" stroke="none" d="M 58.5 51.5 L 1336.5 51.5 L 1336.5 630.5 L 58.5 630.5 L 58.5 51.5"/></clipPath><clipPath id="gaIcSbJJPTTT"><path fill="none" stroke="none" d="M 58.5 51.5 L 1336.5 51.5 L 1336.5 630.5 L 58.5 630.5 L 58.5 51.5"/></clipPath><clipPath id="zaGsFteJpAFQ"><path fill="none" stroke="none" d="M 58.5 51.5 L 1336.5 51.5 L 1336.5 630.5 L 58.5 630.5 L 58.5 51.5"/></clipPath><clipPath id="ySDQZTBtdRCz"><path fill="none" stroke="none" d="M 58.5 51.5 L 1336.5 51.5 L 1336.5 630.5 L 58.5 630.5 L 58.5 51.5"/></clipPath><clipPath id="lVaMhPqygcNs"><path fill="none" stroke="none" d="M 58.5 51.5 L 1336.5 51.5 L 1336.5 630.5 L 58.5 630.5 L 58.5 51.5"/></clipPath><clipPath id="eXKDDsfGUoFn"><path fill="none" stroke="none" d="M 58.5 51.5 L 1336.5 51.5 L 1336.5 630.5 L 58.5 630.5 L 58.5 51.5"/></clipPath><clipPath id="ToPCykELhFCR"><path fill="none" stroke="none" d="M 58.5 51.5 L 1336.5 51.5 L 1336.5 630.5 L 58.5 630.5 L 58.5 51.5"/></clipPath><clipPath id="zFZHHDWKFmeh"><path fill="none" stroke="none" d="M 58.5 51.5 L 1336.5 51.5 L 1336.5 630.5 L 58.5 630.5 L 58.5 51.5"/></clipPath><clipPath id="pNnKJzZgsXeG"><path fill="none" stroke="none" d="M 58.5 51.5 L 1336.5 51.5 L 1336.5 630.5 L 58.5 630.5 L 58.5 51.5"/></clipPath><clipPath id="AcMGsSRWpvEt"><path fill="none" stroke="none" d="M 58.5 51.5 L 1336.5 51.5 L 1336.5 630.5 L 58.5 630.5 L 58.5 51.5"/></clipPath><clipPath id="lckJtqbhTdmD"><path fill="none" stroke="none" d="M 58.5 51.5 L 1336.5 51.5 L 1336.5 630.5 L 58.5 630.5 L 58.5 51.5"/></clipPath><clipPath id="BcofdbyNNTTF"><path fill="none" stroke="none" d="M 58.5 51.5 L 1336.5 51.5 L 1336.5 630.5 L 58.5 630.5 L 58.5 51.5"/></clipPath><clipPath id="cvruLmFVfWEC"><path fill="none" stroke="none" d="M 58.5 51.5 L 1336.5 51.5 L 1336.5 630.5 L 58.5 630.5 L 58.5 51.5"/></clipPath><clipPath id="cZUtQwcsRltT"><path fill="none" stroke="none" d="M 58.5 51.5 L 1336.5 51.5 L 1336.5 630.5 L 58.5 630.5 L 58.5 51.5"/></clipPath><clipPath id="pCkAKiIMBEXB"><path fill="none" stroke="none" d="M 58.5 51.5 L 1336.5 51.5 L 1336.5 630.5 L 58.5 630.5 L 58.5 51.5"/></clipPath></defs><path fill="rgb(255,255,255)" stroke="none" paint-order="stroke" d="M 0.5 0.5 L 1366.5 0.5 L 1366.5 683.5 L 0.5 683.5 L 0.5 0.5" fill-opacity="1"/><rect fill="#FFFFFF" stroke="none" x="58" y="51" width="1278" height="579" transform="matrix(1, 0, 0, 1, 0.5, 0.5)"/><path fill="rgb(255,255,255)" stroke="none" paint-order="stroke" d="M 58.5 51.5 L 1336.5 51.5 L 1336.5 630.5 L 58.5 630.5 L 58.5 51.5" fill-opacity="1"/><path fill="none" stroke="rgb(229,229,229)" paint-order="fill" d="M 58.5 51.5 L 1336.5 51.5 L 1336.5 630.5 L 58.5 630.5 L 58.5 51.5" stroke-opacity="1" stroke-linejoin="bevel" stroke-miterlimit="10" stroke-dasharray=""/><path fill="none" stroke="rgb(229,229,229)" paint-order="fill" d="M 314.5 630.5 L 314.5 51.5 M 569.5 630.5 L 569.5 51.5 M 825.5 630.5 L 825.5 51.5 M 1080.5 630.5 L 1080.5 51.5" stroke-opacity="1" stroke-linejoin="bevel" stroke-miterlimit="10" stroke-dasharray="" clip-path="url(#OmSDZXHOVgGq)"/><path fill="none" stroke="rgb(229,229,229)" paint-order="fill" d="M 58.5 551.5 L 1336.5 551.5 M 58.5 446.5 L 1336.5 446.5 M 58.5 341.5 L 1336.5 341.5 M 58.5 235.5 L 1336.5 235.5 M 58.5 130.5 L 1336.5 130.5" stroke-opacity="1" stroke-linejoin="bevel" stroke-miterlimit="10" stroke-dasharray="" clip-path="url(#bZJUOcLoviEU)"/><path fill="rgb(0,255,40)" stroke="none" paint-order="stroke" d="M 58.5 77.81818389892578 L 154.32572174072266 77.81818389892578 L 154.32572174072266 130.45454788208008 L 58.5 130.45454788208008 L 58.5 77.81818389892578" fill-opacity="1" clip-path="url(#tHaFxMFhctvu)"/><path fill="rgb(143,255,0)" stroke="none" paint-order="stroke" d="M 154.32571411132812 77.81818389892578 L 169.37288570404053 77.81818389892578 L 169.37288570404053 130.45454788208008 L 154.32571411132812 130.45454788208008 L 154.32571411132812 77.81818389892578" fill-opacity="1" clip-path="url(#tHaFxMFhctvu)"/><path fill="rgb(159,255,0)" stroke="none" paint-order="stroke" d="M 169.37289428710938 77.81818389892578 L 169.39334228634834 77.81818389892578 L 169.39334228634834 130.45454788208008 L 169.37289428710938 130.45454788208008 L 169.37289428710938 77.81818389892578" fill-opacity="1" clip-path="url(#tHaFxMFhctvu)"/><path fill="rgb(182,255,0)" stroke="none" paint-order="stroke" d="M 169.39334106445312 77.81818389892578 L 169.41634506359696 77.81818389892578 L 169.41634506359696 130.45454788208008 L 169.39334106445312 130.45454788208008 L 169.39334106445312 77.81818389892578" fill-opacity="1" clip-path="url(#tHaFxMFhctvu)"/><path fill="rgb(216,255,0)" stroke="none" paint-order="stroke" d="M 169.4163360595703 77.81818389892578 L 169.43934005871415 77.81818389892578 L 169.43934005871415 130.45454788208008 L 169.4163360595703 130.45454788208008 L 169.4163360595703 77.81818389892578" fill-opacity="1" clip-path="url(#tHaFxMFhctvu)"/><path fill="rgb(225,255,0)" stroke="none" paint-order="stroke" d="M 169.43934631347656 77.81818389892578 L 169.45979431271553 77.81818389892578 L 169.45979431271553 130.45454788208008 L 169.43934631347656 130.45454788208008 L 169.43934631347656 77.81818389892578" fill-opacity="1" clip-path="url(#tHaFxMFhctvu)"/><path fill="rgb(246,255,0)" stroke="none" paint-order="stroke" d="M 169.4597930908203 77.81818389892578 L 169.47896309010684 77.81818389892578 L 169.47896309010684 130.45454788208008 L 169.4597930908203 130.45454788208008 L 169.4597930908203 77.81818389892578" fill-opacity="1" clip-path="url(#tHaFxMFhctvu)"/><path fill="rgb(255,251,0)" stroke="none" paint-order="stroke" d="M 169.4789581298828 77.81818389892578 L 169.50068412907422 77.81818389892578 L 169.50068412907422 130.45454788208008 L 169.4789581298828 130.45454788208008 L 169.4789581298828 77.81818389892578" fill-opacity="1" clip-path="url(#tHaFxMFhctvu)"/><path fill="rgb(255,229,0)" stroke="none" paint-order="stroke" d="M 169.5006866455078 77.81818389892578 L 169.5249686446041 77.81818389892578 L 169.5249686446041 130.45454788208008 L 169.5006866455078 130.45454788208008 L 169.5006866455078 77.81818389892578" fill-opacity="1" clip-path="url(#tHaFxMFhctvu)"/><path fill="rgb(255,206,0)" stroke="none" paint-order="stroke" d="M 169.5249786376953 77.81818389892578 L 169.54414863698184 77.81818389892578 L 169.54414863698184 130.45454788208008 L 169.5249786376953 130.45454788208008 L 169.5249786376953 77.81818389892578" fill-opacity="1" clip-path="url(#tHaFxMFhctvu)"/><path fill="rgb(255,193,0)" stroke="none" paint-order="stroke" d="M 169.5441436767578 77.81818389892578 L 169.56459167599678 77.81818389892578 L 169.56459167599678 130.45454788208008 L 169.5441436767578 130.45454788208008 L 169.5441436767578 77.81818389892578" fill-opacity="1" clip-path="url(#tHaFxMFhctvu)"/><path fill="rgb(255,169,0)" stroke="none" paint-order="stroke" d="M 169.56459045410156 77.81818389892578 L 169.58631645329297 77.81818389892578 L 169.58631645329297 130.45454788208008 L 169.56459045410156 130.45454788208008 L 169.56459045410156 77.81818389892578" fill-opacity="1" clip-path="url(#tHaFxMFhctvu)"/><path fill="rgb(255,158,0)" stroke="none" paint-order="stroke" d="M 169.58631896972656 77.81818389892578 L 169.60676696896553 77.81818389892578 L 169.60676696896553 130.45454788208008 L 169.58631896972656 130.45454788208008 L 169.58631896972656 77.81818389892578" fill-opacity="1" clip-path="url(#tHaFxMFhctvu)"/><path fill="rgb(255,133,0)" stroke="none" paint-order="stroke" d="M 169.6067657470703 77.81818389892578 L 169.62849174626172 77.81818389892578 L 169.62849174626172 130.45454788208008 L 169.6067657470703 130.45454788208008 L 169.6067657470703 77.81818389892578" fill-opacity="1" clip-path="url(#tHaFxMFhctvu)"/><path fill="rgb(255,107,0)" stroke="none" paint-order="stroke" d="M 169.6284942626953 77.81818389892578 L 169.65022026188672 77.81818389892578 L 169.65022026188672 130.45454788208008 L 169.6284942626953 130.45454788208008 L 169.6284942626953 77.81818389892578" fill-opacity="1" clip-path="url(#tHaFxMFhctvu)"/><path fill="rgb(255,91,0)" stroke="none" paint-order="stroke" d="M 169.6502227783203 77.81818389892578 L 169.67322677746415 77.81818389892578 L 169.67322677746415 130.45454788208008 L 169.6502227783203 130.45454788208008 L 169.6502227783203 77.81818389892578" fill-opacity="1" clip-path="url(#tHaFxMFhctvu)"/><path fill="rgb(255,78,0)" stroke="none" paint-order="stroke" d="M 169.6732177734375 77.81818389892578 L 169.69238777272403 77.81818389892578 L 169.69238777272403 130.45454788208008 L 169.6732177734375 130.45454788208008 L 169.6732177734375 77.81818389892578" fill-opacity="1" clip-path="url(#tHaFxMFhctvu)"/><path fill="rgb(255,61,0)" stroke="none" paint-order="stroke" d="M 169.6923828125 77.81818389892578 L 169.71666481159627 77.81818389892578 L 169.71666481159627 130.45454788208008 L 169.6923828125 130.45454788208008 L 169.6923828125 77.81818389892578" fill-opacity="1" clip-path="url(#tHaFxMFhctvu)"/><path fill="rgb(255,47,0)" stroke="none" paint-order="stroke" d="M 169.7166748046875 77.81818389892578 L 169.73584480397403 77.81818389892578 L 169.73584480397403 130.45454788208008 L 169.7166748046875 130.45454788208008 L 169.7166748046875 77.81818389892578" fill-opacity="1" clip-path="url(#tHaFxMFhctvu)"/><path fill="rgb(255,27,0)" stroke="none" paint-order="stroke" d="M 169.73583984375 77.81818389892578 L 169.75628784298897 77.81818389892578 L 169.75628784298897 130.45454788208008 L 169.73583984375 130.45454788208008 L 169.73583984375 77.81818389892578" fill-opacity="1" clip-path="url(#tHaFxMFhctvu)"/><path fill="rgb(255,9,0)" stroke="none" paint-order="stroke" d="M 169.75628662109375 77.81818389892578 L 169.80101662129164 77.81818389892578 L 169.80101662129164 130.45454788208008 L 169.75628662109375 130.45454788208008 L 169.75628662109375 77.81818389892578" fill-opacity="1" clip-path="url(#tHaFxMFhctvu)"/><path fill="rgb(250,0,0)" stroke="none" paint-order="stroke" d="M 169.801025390625 77.81818389892578 L 169.84192138910294 77.81818389892578 L 169.84192138910294 130.45454788208008 L 169.801025390625 130.45454788208008 L 169.801025390625 77.81818389892578" fill-opacity="1" clip-path="url(#tHaFxMFhctvu)"/><path fill="rgb(246,0,0)" stroke="none" paint-order="stroke" d="M 169.8419189453125 77.81818389892578 L 169.88409294560552 77.81818389892578 L 169.88409294560552 130.45454788208008 L 169.8419189453125 130.45454788208008 L 169.8419189453125 77.81818389892578" fill-opacity="1" clip-path="url(#tHaFxMFhctvu)"/><path fill="rgb(241,0,0)" stroke="none" paint-order="stroke" d="M 169.88409423828125 77.81818389892578 L 169.90454223752022 77.81818389892578 L 169.90454223752022 130.45454788208008 L 169.88409423828125 130.45454788208008 L 169.88409423828125 77.81818389892578" fill-opacity="1" clip-path="url(#tHaFxMFhctvu)"/><path fill="rgb(235,0,0)" stroke="none" paint-order="stroke" d="M 169.904541015625 77.81818389892578 L 169.9479930140078 77.81818389892578 L 169.9479930140078 130.45454788208008 L 169.904541015625 130.45454788208008 L 169.904541015625 77.81818389892578" fill-opacity="1" clip-path="url(#tHaFxMFhctvu)"/><path fill="rgb(231,0,0)" stroke="none" paint-order="stroke" d="M 169.94798278808594 77.81818389892578 L 169.99015678837895 77.81818389892578 L 169.99015678837895 130.45454788208008 L 169.94798278808594 130.45454788208008 L 169.94798278808594 77.81818389892578" fill-opacity="1" clip-path="url(#tHaFxMFhctvu)"/><path fill="rgb(226,0,0)" stroke="none" paint-order="stroke" d="M 169.9901580810547 77.81818389892578 L 170.03488808125257 77.81818389892578 L 170.03488808125257 130.45454788208008 L 169.9901580810547 130.45454788208008 L 169.9901580810547 77.81818389892578" fill-opacity="1" clip-path="url(#tHaFxMFhctvu)"/><path fill="rgb(221,0,0)" stroke="none" paint-order="stroke" d="M 170.03489685058594 77.81818389892578 L 170.05662284977734 77.81818389892578 L 170.05662284977734 130.45454788208008 L 170.03489685058594 130.45454788208008 L 170.03489685058594 77.81818389892578" fill-opacity="1" clip-path="url(#tHaFxMFhctvu)"/><path fill="rgb(216,0,0)" stroke="none" paint-order="stroke" d="M 170.05662536621094 77.81818389892578 L 170.07579536549747 77.81818389892578 L 170.07579536549747 130.45454788208008 L 170.05662536621094 130.45454788208008 L 170.05662536621094 77.81818389892578" fill-opacity="1" clip-path="url(#tHaFxMFhctvu)"/><path fill="rgb(211,0,0)" stroke="none" paint-order="stroke" d="M 170.07579040527344 77.81818389892578 L 170.1013504061848 77.81818389892578 L 170.1013504061848 130.45454788208008 L 170.07579040527344 130.45454788208008 L 170.07579040527344 77.81818389892578" fill-opacity="1" clip-path="url(#tHaFxMFhctvu)"/><path fill="rgb(206,0,0)" stroke="none" paint-order="stroke" d="M 170.10134887695312 77.81818389892578 L 170.14096687734127 77.81818389892578 L 170.14096687734127 130.45454788208008 L 170.10134887695312 130.45454788208008 L 170.10134887695312 77.81818389892578" fill-opacity="1" clip-path="url(#tHaFxMFhctvu)"/><path fill="rgb(196,0,0)" stroke="none" paint-order="stroke" d="M 170.14096069335938 77.81818389892578 L 170.1831346936524 77.81818389892578 L 170.1831346936524 130.45454788208008 L 170.14096069335938 130.45454788208008 L 170.14096069335938 77.81818389892578" fill-opacity="1" clip-path="url(#tHaFxMFhctvu)"/><path fill="rgb(191,0,0)" stroke="none" paint-order="stroke" d="M 170.18313598632812 77.81818389892578 L 170.22658798471093 77.81818389892578 L 170.22658798471093 130.45454788208008 L 170.18313598632812 130.45454788208008 L 170.18313598632812 77.81818389892578" fill-opacity="1" clip-path="url(#tHaFxMFhctvu)"/><path fill="rgb(185,0,0)" stroke="none" paint-order="stroke" d="M 170.22659301757812 77.81818389892578 L 170.26876701787114 77.81818389892578 L 170.26876701787114 130.45454788208008 L 170.22659301757812 130.45454788208008 L 170.22659301757812 77.81818389892578" fill-opacity="1" clip-path="url(#tHaFxMFhctvu)"/><path fill="rgb(181,0,0)" stroke="none" paint-order="stroke" d="M 170.26876831054688 77.81818389892578 L 170.3109423108399 77.81818389892578 L 170.3109423108399 130.45454788208008 L 170.26876831054688 130.45454788208008 L 170.26876831054688 77.81818389892578" fill-opacity="1" clip-path="url(#tHaFxMFhctvu)"/><path fill="rgb(175,0,0)" stroke="none" paint-order="stroke" d="M 170.31094360351562 77.81818389892578 L 170.33266960270703 77.81818389892578 L 170.33266960270703 130.45454788208008 L 170.31094360351562 130.45454788208008 L 170.31094360351562 77.81818389892578" fill-opacity="1" clip-path="url(#tHaFxMFhctvu)"/><path fill="rgb(170,0,0)" stroke="none" paint-order="stroke" d="M 170.33267211914062 77.81818389892578 L 170.37484611943364 77.81818389892578 L 170.37484611943364 130.45454788208008 L 170.33267211914062 130.45454788208008 L 170.33267211914062 77.81818389892578" fill-opacity="1" clip-path="url(#tHaFxMFhctvu)"/><path fill="rgb(164,0,0)" stroke="none" paint-order="stroke" d="M 170.37484741210938 77.81818389892578 L 170.4170214124024 77.81818389892578 L 170.4170214124024 130.45454788208008 L 170.37484741210938 130.45454788208008 L 170.37484741210938 77.81818389892578" fill-opacity="1" clip-path="url(#tHaFxMFhctvu)"/><path fill="rgb(160,0,0)" stroke="none" paint-order="stroke" d="M 170.41702270507812 77.81818389892578 L 170.45919670537114 77.81818389892578 L 170.45919670537114 130.45454788208008 L 170.41702270507812 130.45454788208008 L 170.41702270507812 77.81818389892578" fill-opacity="1" clip-path="url(#tHaFxMFhctvu)"/><path fill="rgb(154,0,0)" stroke="none" paint-order="stroke" d="M 170.4591827392578 77.81818389892578 L 170.52308274060488 77.81818389892578 L 170.52308274060488 130.45454788208008 L 170.4591827392578 130.45454788208008 L 170.4591827392578 77.81818389892578" fill-opacity="1" clip-path="url(#tHaFxMFhctvu)"/><path fill="rgb(149,0,0)" stroke="none" paint-order="stroke" d="M 170.52308654785156 77.81818389892578 L 170.58826454728842 77.81818389892578 L 170.58826454728842 130.45454788208008 L 170.52308654785156 130.45454788208008 L 170.52308654785156 77.81818389892578" fill-opacity="1" clip-path="url(#tHaFxMFhctvu)"/><path fill="rgb(143,0,0)" stroke="none" paint-order="stroke" d="M 170.58827209472656 77.81818389892578 L 170.65217209607363 77.81818389892578 L 170.65217209607363 130.45454788208008 L 170.58827209472656 130.45454788208008 L 170.58827209472656 77.81818389892578" fill-opacity="1" clip-path="url(#tHaFxMFhctvu)"/><path fill="rgb(137,0,0)" stroke="none" paint-order="stroke" d="M 170.65216064453125 77.81818389892578 L 170.67260864377022 77.81818389892578 L 170.67260864377022 130.45454788208008 L 170.65216064453125 130.45454788208008 L 170.65216064453125 77.81818389892578" fill-opacity="1" clip-path="url(#tHaFxMFhctvu)"/><path fill="rgb(132,0,0)" stroke="none" paint-order="stroke" d="M 170.67262268066406 77.81818389892578 L 170.71479668095708 77.81818389892578 L 170.71479668095708 130.45454788208008 L 170.67262268066406 130.45454788208008 L 170.67262268066406 77.81818389892578" fill-opacity="1" clip-path="url(#tHaFxMFhctvu)"/><path fill="rgb(125,0,0)" stroke="none" paint-order="stroke" d="M 170.71478271484375 77.81818389892578 L 170.7377867139876 77.81818389892578 L 170.7377867139876 130.45454788208008 L 170.71478271484375 130.45454788208008 L 170.71478271484375 77.81818389892578" fill-opacity="1" clip-path="url(#tHaFxMFhctvu)"/><path fill="rgb(120,0,0)" stroke="none" paint-order="stroke" d="M 170.73779296875 77.81818389892578 L 170.80169297009706 77.81818389892578 L 170.80169297009706 130.45454788208008 L 170.73779296875 130.45454788208008 L 170.73779296875 77.81818389892578" fill-opacity="1" clip-path="url(#tHaFxMFhctvu)"/><path fill="rgb(114,0,0)" stroke="none" paint-order="stroke" d="M 170.80169677734375 77.81818389892578 L 170.86431878060102 77.81818389892578 L 170.86431878060102 130.45454788208008 L 170.80169677734375 130.45454788208008 L 170.80169677734375 77.81818389892578" fill-opacity="1" clip-path="url(#tHaFxMFhctvu)"/><path fill="rgb(109,0,0)" stroke="none" paint-order="stroke" d="M 170.86431884765625 77.81818389892578 L 170.90777084603906 77.81818389892578 L 170.90777084603906 130.45454788208008 L 170.86431884765625 130.45454788208008 L 170.86431884765625 77.81818389892578" fill-opacity="1" clip-path="url(#tHaFxMFhctvu)"/><path fill="rgb(102,0,0)" stroke="none" paint-order="stroke" d="M 170.9077606201172 77.81818389892578 L 170.9499346204102 77.81818389892578 L 170.9499346204102 130.45454788208008 L 170.9077606201172 130.45454788208008 L 170.9077606201172 77.81818389892578" fill-opacity="1" clip-path="url(#tHaFxMFhctvu)"/><path fill="rgb(97,0,0)" stroke="none" paint-order="stroke" d="M 170.94993591308594 77.81818389892578 L 170.96910591237247 77.81818389892578 L 170.96910591237247 130.45454788208008 L 170.94993591308594 130.45454788208008 L 170.94993591308594 77.81818389892578" fill-opacity="1" clip-path="url(#tHaFxMFhctvu)"/><path fill="rgb(0,0,0)" stroke="none" paint-order="stroke" d="M 170.9691162109375 77.81818389892578 L 170.99212021008134 77.81818389892578 L 170.99212021008134 130.45454788208008 L 170.9691162109375 130.45454788208008 L 170.9691162109375 77.81818389892578" fill-opacity="1" clip-path="url(#tHaFxMFhctvu)"/><path fill="rgb(0,0,0)" stroke="none" paint-order="stroke" d="M 170.9921112060547 77.81818389892578 L 171.0355632044375 77.81818389892578 L 171.0355632044375 130.45454788208008 L 170.9921112060547 130.45454788208008 L 170.9921112060547 77.81818389892578" fill-opacity="1" clip-path="url(#tHaFxMFhctvu)"/><path fill="rgb(0,0,0)" stroke="none" paint-order="stroke" d="M 171.0355682373047 77.81818389892578 L 171.05601623654366 77.81818389892578 L 171.05601623654366 130.45454788208008 L 171.0355682373047 130.45454788208008 L 171.0355682373047 77.81818389892578" fill-opacity="1" clip-path="url(#tHaFxMFhctvu)"/><path fill="rgb(0,0,0)" stroke="none" paint-order="stroke" d="M 171.05601501464844 77.81818389892578 L 171.07774101383984 77.81818389892578 L 171.07774101383984 130.45454788208008 L 171.05601501464844 130.45454788208008 L 171.05601501464844 77.81818389892578" fill-opacity="1" clip-path="url(#tHaFxMFhctvu)"/><path fill="rgb(0,0,0)" stroke="none" paint-order="stroke" d="M 171.07774353027344 77.81818389892578 L 171.0981915295124 77.81818389892578 L 171.0981915295124 130.45454788208008 L 171.07774353027344 130.45454788208008 L 171.07774353027344 77.81818389892578" fill-opacity="1" clip-path="url(#tHaFxMFhctvu)"/><path fill="rgb(0,0,0)" stroke="none" paint-order="stroke" d="M 171.0981903076172 77.81818389892578 L 171.1199163068086 77.81818389892578 L 171.1199163068086 130.45454788208008 L 171.0981903076172 130.45454788208008 L 171.0981903076172 77.81818389892578" fill-opacity="1" clip-path="url(#tHaFxMFhctvu)"/><path fill="rgb(0,0,0)" stroke="none" paint-order="stroke" d="M 171.1199188232422 77.81818389892578 L 171.1416448224336 77.81818389892578 L 171.1416448224336 130.45454788208008 L 171.1199188232422 130.45454788208008 L 171.1199188232422 77.81818389892578" fill-opacity="1" clip-path="url(#tHaFxMFhctvu)"/><path fill="rgb(0,0,0)" stroke="none" paint-order="stroke" d="M 171.1416473388672 77.81818389892578 L 172.27139937877655 77.81818389892578 L 172.27139937877655 130.45454788208008 L 171.1416473388672 130.45454788208008 L 171.1416473388672 77.81818389892578" fill-opacity="1" clip-path="url(#tHaFxMFhctvu)"/><path fill="rgb(0,0,0)" stroke="none" paint-order="stroke" d="M 172.27139282226562 77.81818389892578 L 172.29439682140946 77.81818389892578 L 172.29439682140946 130.45454788208008 L 172.27139282226562 130.45454788208008 L 172.27139282226562 77.81818389892578" fill-opacity="1" clip-path="url(#tHaFxMFhctvu)"/><path fill="rgb(0,0,0)" stroke="none" paint-order="stroke" d="M 172.29440307617188 77.81818389892578 L 172.31229507550597 77.81818389892578 L 172.31229507550597 130.45454788208008 L 172.29440307617188 130.45454788208008 L 172.29440307617188 77.81818389892578" fill-opacity="1" clip-path="url(#tHaFxMFhctvu)"/><path fill="rgb(0,0,0)" stroke="none" paint-order="stroke" d="M 172.31228637695312 77.81818389892578 L 172.3327343761921 77.81818389892578 L 172.3327343761921 130.45454788208008 L 172.31228637695312 130.45454788208008 L 172.31228637695312 77.81818389892578" fill-opacity="1" clip-path="url(#tHaFxMFhctvu)"/><path fill="rgb(109,0,0)" stroke="none" paint-order="stroke" d="M 172.33273315429688 77.81818389892578 L 172.35445915348828 77.81818389892578 L 172.35445915348828 130.45454788208008 L 172.33273315429688 130.45454788208008 L 172.33273315429688 77.81818389892578" fill-opacity="1" clip-path="url(#tHaFxMFhctvu)"/><path fill="rgb(137,0,0)" stroke="none" paint-order="stroke" d="M 172.35446166992188 77.81818389892578 L 172.37618766911328 77.81818389892578 L 172.37618766911328 130.45454788208008 L 172.35446166992188 130.45454788208008 L 172.35446166992188 77.81818389892578" fill-opacity="1" clip-path="url(#tHaFxMFhctvu)"/><path fill="rgb(164,0,0)" stroke="none" paint-order="stroke" d="M 172.37619018554688 77.81818389892578 L 172.39791618473828 77.81818389892578 L 172.39791618473828 130.45454788208008 L 172.37619018554688 130.45454788208008 L 172.37619018554688 77.81818389892578" fill-opacity="1" clip-path="url(#tHaFxMFhctvu)"/><path fill="rgb(191,0,0)" stroke="none" paint-order="stroke" d="M 172.39791870117188 77.81818389892578 L 172.41964470036328 77.81818389892578 L 172.41964470036328 130.45454788208008 L 172.39791870117188 130.45454788208008 L 172.39791870117188 77.81818389892578" fill-opacity="1" clip-path="url(#tHaFxMFhctvu)"/><path fill="rgb(226,0,0)" stroke="none" paint-order="stroke" d="M 172.41964721679688 77.81818389892578 L 172.44009521603584 77.81818389892578 L 172.44009521603584 130.45454788208008 L 172.41964721679688 130.45454788208008 L 172.41964721679688 77.81818389892578" fill-opacity="1" clip-path="url(#tHaFxMFhctvu)"/><path fill="rgb(250,0,0)" stroke="none" paint-order="stroke" d="M 172.44009399414062 77.81818389892578 L 172.4605419933796 77.81818389892578 L 172.4605419933796 130.45454788208008 L 172.44009399414062 130.45454788208008 L 172.44009399414062 77.81818389892578" fill-opacity="1" clip-path="url(#tHaFxMFhctvu)"/><path fill="rgb(255,107,0)" stroke="none" paint-order="stroke" d="M 172.46054077148438 77.81818389892578 L 172.48482277058065 77.81818389892578 L 172.48482277058065 130.45454788208008 L 172.46054077148438 130.45454788208008 L 172.46054077148438 77.81818389892578" fill-opacity="1" clip-path="url(#tHaFxMFhctvu)"/><path fill="rgb(255,193,0)" stroke="none" paint-order="stroke" d="M 172.4848175048828 77.81818389892578 L 172.51037750579417 77.81818389892578 L 172.51037750579417 130.45454788208008 L 172.4848175048828 130.45454788208008 L 172.4848175048828 77.81818389892578" fill-opacity="1" clip-path="url(#tHaFxMFhctvu)"/><path fill="rgb(255,251,0)" stroke="none" paint-order="stroke" d="M 172.5103759765625 77.81818389892578 L 172.52571197692305 77.81818389892578 L 172.52571197692305 130.45454788208008 L 172.5103759765625 130.45454788208008 L 172.5103759765625 77.81818389892578" fill-opacity="1" clip-path="url(#tHaFxMFhctvu)"/><path fill="rgb(204,255,0)" stroke="none" paint-order="stroke" d="M 172.5257110595703 77.81818389892578 L 172.54743705876172 77.81818389892578 L 172.54743705876172 130.45454788208008 L 172.5257110595703 130.45454788208008 L 172.5257110595703 77.81818389892578" fill-opacity="1" clip-path="url(#tHaFxMFhctvu)"/><path fill="rgb(149,255,0)" stroke="none" paint-order="stroke" d="M 172.5474395751953 77.81818389892578 L 172.56916557438672 77.81818389892578 L 172.56916557438672 130.45454788208008 L 172.5474395751953 130.45454788208008 L 172.5474395751953 77.81818389892578" fill-opacity="1" clip-path="url(#tHaFxMFhctvu)"/><path fill="rgb(86,255,0)" stroke="none" paint-order="stroke" d="M 172.5691680908203 77.81818389892578 L 172.58961609005928 77.81818389892578 L 172.58961609005928 130.45454788208008 L 172.5691680908203 130.45454788208008 L 172.5691680908203 77.81818389892578" fill-opacity="1" clip-path="url(#tHaFxMFhctvu)"/><path fill="rgb(25,255,0)" stroke="none" paint-order="stroke" d="M 172.58961486816406 77.81818389892578 L 172.61134086735547 77.81818389892578 L 172.61134086735547 130.45454788208008 L 172.58961486816406 130.45454788208008 L 172.58961486816406 77.81818389892578" fill-opacity="1" clip-path="url(#tHaFxMFhctvu)"/><path fill="rgb(0,255,223)" stroke="none" paint-order="stroke" d="M 172.61134338378906 77.81818389892578 L 172.63179138302803 77.81818389892578 L 172.63179138302803 130.45454788208008 L 172.61134338378906 130.45454788208008 L 172.61134338378906 77.81818389892578" fill-opacity="1" clip-path="url(#tHaFxMFhctvu)"/><path fill="rgb(0,209,255)" stroke="none" paint-order="stroke" d="M 172.6317901611328 77.81818389892578 L 172.65351616032422 77.81818389892578 L 172.65351616032422 130.45454788208008 L 172.6317901611328 130.45454788208008 L 172.6317901611328 77.81818389892578" fill-opacity="1" clip-path="url(#tHaFxMFhctvu)"/><path fill="rgb(0,146,255)" stroke="none" paint-order="stroke" d="M 172.6535186767578 77.81818389892578 L 172.67524467594922 77.81818389892578 L 172.67524467594922 130.45454788208008 L 172.6535186767578 130.45454788208008 L 172.6535186767578 77.81818389892578" fill-opacity="1" clip-path="url(#tHaFxMFhctvu)"/><path fill="rgb(0,70,255)" stroke="none" paint-order="stroke" d="M 172.6752471923828 77.81818389892578 L 172.69569519162178 77.81818389892578 L 172.69569519162178 130.45454788208008 L 172.6752471923828 130.45454788208008 L 172.6752471923828 77.81818389892578" fill-opacity="1" clip-path="url(#tHaFxMFhctvu)"/><path fill="rgb(0,0,255)" stroke="none" paint-order="stroke" d="M 172.69569396972656 77.81818389892578 L 172.71741996891797 77.81818389892578 L 172.71741996891797 130.45454788208008 L 172.69569396972656 130.45454788208008 L 172.69569396972656 77.81818389892578" fill-opacity="1" clip-path="url(#tHaFxMFhctvu)"/><path fill="rgb(69,0,221)" stroke="none" paint-order="stroke" d="M 172.71742248535156 77.81818389892578 L 172.73787048459053 77.81818389892578 L 172.73787048459053 130.45454788208008 L 172.71742248535156 130.45454788208008 L 172.71742248535156 77.81818389892578" fill-opacity="1" clip-path="url(#tHaFxMFhctvu)"/><path fill="rgb(96,0,193)" stroke="none" paint-order="stroke" d="M 172.7378692626953 77.81818389892578 L 172.76342926360667 77.81818389892578 L 172.76342926360667 130.45454788208008 L 172.7378692626953 130.45454788208008 L 172.7378692626953 77.81818389892578" fill-opacity="1" clip-path="url(#tHaFxMFhctvu)"/><path fill="rgb(108,0,167)" stroke="none" paint-order="stroke" d="M 172.763427734375 77.81818389892578 L 172.78259773366153 77.81818389892578 L 172.78259773366153 130.45454788208008 L 172.763427734375 130.45454788208008 L 172.763427734375 77.81818389892578" fill-opacity="1" clip-path="url(#tHaFxMFhctvu)"/><path fill="rgb(111,0,137)" stroke="none" paint-order="stroke" d="M 172.7825927734375 77.81818389892578 L 172.80304077267647 77.81818389892578 L 172.80304077267647 130.45454788208008 L 172.7825927734375 130.45454788208008 L 172.7825927734375 77.81818389892578" fill-opacity="1" clip-path="url(#tHaFxMFhctvu)"/><path fill="rgb(102,0,106)" stroke="none" paint-order="stroke" d="M 172.80303955078125 77.81818389892578 L 172.82476554997265 77.81818389892578 L 172.82476554997265 130.45454788208008 L 172.80303955078125 130.45454788208008 L 172.80303955078125 77.81818389892578" fill-opacity="1" clip-path="url(#tHaFxMFhctvu)"/><path fill="rgb(97,0,97)" stroke="none" paint-order="stroke" d="M 172.82476806640625 77.81818389892578 L 173.71809005737305 77.81818389892578 L 173.71809005737305 130.45454788208008 L 172.82476806640625 130.45454788208008 L 172.82476806640625 77.81818389892578" fill-opacity="1" clip-path="url(#tHaFxMFhctvu)"/><path fill="rgb(102,0,106)" stroke="none" paint-order="stroke" d="M 173.7180938720703 77.81818389892578 L 173.73854187130928 77.81818389892578 L 173.73854187130928 130.45454788208008 L 173.7180938720703 130.45454788208008 L 173.7180938720703 77.81818389892578" fill-opacity="1" clip-path="url(#tHaFxMFhctvu)"/><path fill="rgb(106,0,118)" stroke="none" paint-order="stroke" d="M 173.73854064941406 77.81818389892578 L 173.8049966469407 77.81818389892578 L 173.8049966469407 130.45454788208008 L 173.73854064941406 130.45454788208008 L 173.73854064941406 77.81818389892578" fill-opacity="1" clip-path="url(#tHaFxMFhctvu)"/><path fill="rgb(110,0,129)" stroke="none" paint-order="stroke" d="M 173.80499267578125 77.81818389892578 L 173.88934067636728 77.81818389892578 L 173.88934067636728 130.45454788208008 L 173.80499267578125 130.45454788208008 L 173.80499267578125 77.81818389892578" fill-opacity="1" clip-path="url(#tHaFxMFhctvu)"/><path fill="rgb(111,0,137)" stroke="none" paint-order="stroke" d="M 173.88934326171875 77.81818389892578 L 173.93151726201177 77.81818389892578 L 173.93151726201177 130.45454788208008 L 173.88934326171875 130.45454788208008 L 173.88934326171875 77.81818389892578" fill-opacity="1" clip-path="url(#tHaFxMFhctvu)"/><path fill="rgb(111,0,148)" stroke="none" paint-order="stroke" d="M 173.9315185546875 77.81818389892578 L 173.97369255498052 77.81818389892578 L 173.97369255498052 130.45454788208008 L 173.9315185546875 130.45454788208008 L 173.9315185546875 77.81818389892578" fill-opacity="1" clip-path="url(#tHaFxMFhctvu)"/><path fill="rgb(111,0,156)" stroke="none" paint-order="stroke" d="M 173.97369384765625 77.81818389892578 L 174.01714584603906 77.81818389892578 L 174.01714584603906 130.45454788208008 L 173.97369384765625 130.45454788208008 L 173.97369384765625 77.81818389892578" fill-opacity="1" clip-path="url(#tHaFxMFhctvu)"/><path fill="rgb(108,0,167)" stroke="none" paint-order="stroke" d="M 174.0171356201172 77.81818389892578 L 174.03758361935616 77.81818389892578 L 174.03758361935616 130.45454788208008 L 174.0171356201172 130.45454788208008 L 174.0171356201172 77.81818389892578" fill-opacity="1" clip-path="url(#tHaFxMFhctvu)"/><path fill="rgb(106,0,175)" stroke="none" paint-order="stroke" d="M 174.03758239746094 77.81818389892578 L 174.08103439584374 77.81818389892578 L 174.08103439584374 130.45454788208008 L 174.03758239746094 130.45454788208008 L 174.03758239746094 77.81818389892578" fill-opacity="1" clip-path="url(#tHaFxMFhctvu)"/><path fill="rgb(101,0,185)" stroke="none" paint-order="stroke" d="M 174.08103942871094 77.81818389892578 L 174.12449142709374 77.81818389892578 L 174.12449142709374 130.45454788208008 L 174.08103942871094 130.45454788208008 L 174.08103942871094 77.81818389892578" fill-opacity="1" clip-path="url(#tHaFxMFhctvu)"/><path fill="rgb(96,0,193)" stroke="none" paint-order="stroke" d="M 174.12449645996094 77.81818389892578 L 174.1871184632182 77.81818389892578 L 174.1871184632182 130.45454788208008 L 174.12449645996094 130.45454788208008 L 174.12449645996094 77.81818389892578" fill-opacity="1" clip-path="url(#tHaFxMFhctvu)"/><path fill="rgb(87,0,203)" stroke="none" paint-order="stroke" d="M 174.18711853027344 77.81818389892578 L 194.47792434692383 77.81818389892578 L 194.47792434692383 130.45454788208008 L 174.18711853027344 130.45454788208008 L 174.18711853027344 77.81818389892578" fill-opacity="1" clip-path="url(#tHaFxMFhctvu)"/><path fill="rgb(0,0,0)" stroke="none" paint-order="stroke" d="M 194.47792053222656 77.81818389892578 L 197.625634431839 77.81818389892578 L 197.625634431839 130.45454788208008 L 194.47792053222656 130.45454788208008 L 194.47792053222656 77.81818389892578" fill-opacity="1" clip-path="url(#tHaFxMFhctvu)"/><path fill="rgb(251,0,7)" stroke="none" paint-order="stroke" d="M 58.5 130.4545440673828 L 154.32572174072266 130.4545440673828 L 154.32572174072266 183.0909080505371 L 58.5 183.0909080505371 L 58.5 130.4545440673828" fill-opacity="1" clip-path="url(#qBVVQSoMqKza)"/><path fill="rgb(62,0,101)" stroke="none" paint-order="stroke" d="M 154.32571411132812 130.4545440673828 L 194.4779167175293 130.4545440673828 L 194.4779167175293 183.0909080505371 L 154.32571411132812 183.0909080505371 L 154.32571411132812 130.4545440673828" fill-opacity="1" clip-path="url(#qBVVQSoMqKza)"/><path fill="rgb(27,121,255)" stroke="none" paint-order="stroke" d="M 194.47792053222656 130.4545440673828 L 197.625634431839 130.4545440673828 L 197.625634431839 183.0909080505371 L 194.47792053222656 183.0909080505371 L 194.47792053222656 130.4545440673828" fill-opacity="1" clip-path="url(#qBVVQSoMqKza)"/><path fill="rgb(105,29,48)" stroke="none" paint-order="stroke" d="M 122.84091186523438 183.09091186523438 L 122.90481186658144 183.09091186523438 L 122.90481186658144 498.9090881347656 L 122.84091186523438 498.9090881347656 L 122.84091186523438 183.09091186523438" fill-opacity="1" clip-path="url(#TJEtFSzwXsED)"/><path fill="rgb(105,29,48)" stroke="none" paint-order="stroke" d="M 124.69145202636719 183.09091186523438 L 124.75535202771425 183.09091186523438 L 124.75535202771425 498.9090881347656 L 124.69145202636719 498.9090881347656 L 124.69145202636719 183.09091186523438" fill-opacity="1" clip-path="url(#TJEtFSzwXsED)"/><path fill="rgb(105,29,48)" stroke="none" paint-order="stroke" d="M 124.8051986694336 183.09091186523438 L 124.86909867078066 183.09091186523438 L 124.86909867078066 498.9090881347656 L 124.8051986694336 498.9090881347656 L 124.8051986694336 183.09091186523438" fill-opacity="1" clip-path="url(#TJEtFSzwXsED)"/><path fill="rgb(105,29,48)" stroke="none" paint-order="stroke" d="M 125.21287536621094 183.09091186523438 L 125.276775367558 183.09091186523438 L 125.276775367558 498.9090881347656 L 125.21287536621094 498.9090881347656 L 125.21287536621094 183.09091186523438" fill-opacity="1" clip-path="url(#TJEtFSzwXsED)"/><path fill="rgb(105,29,48)" stroke="none" paint-order="stroke" d="M 135.3499755859375 183.09091186523438 L 135.41387558728456 183.09091186523438 L 135.41387558728456 498.9090881347656 L 135.3499755859375 498.9090881347656 L 135.3499755859375 183.09091186523438" fill-opacity="1" clip-path="url(#TJEtFSzwXsED)"/><path fill="rgb(105,29,48)" stroke="none" paint-order="stroke" d="M 137.04588317871094 183.09091186523438 L 137.109783180058 183.09091186523438 L 137.109783180058 498.9090881347656 L 137.04588317871094 498.9090881347656 L 137.04588317871094 183.09091186523438" fill-opacity="1" clip-path="url(#TJEtFSzwXsED)"/><path fill="rgb(105,29,48)" stroke="none" paint-order="stroke" d="M 141.94061279296875 183.09091186523438 L 142.00451279431581 183.09091186523438 L 142.00451279431581 498.9090881347656 L 141.94061279296875 498.9090881347656 L 141.94061279296875 183.09091186523438" fill-opacity="1" clip-path="url(#TJEtFSzwXsED)"/><path fill="rgb(255,188,66)" stroke="none" paint-order="stroke" d="M 166.26991271972656 183.09091186523438 L 166.39132271707058 183.09091186523438 L 166.39132271707058 498.9090881347656 L 166.26991271972656 498.9090881347656 L 166.26991271972656 183.09091186523438" fill-opacity="1" clip-path="url(#UBNIynLbUxmx)"/><path fill="rgb(216,17,89)" stroke="none" paint-order="stroke" d="M 167.9594268798828 183.09091186523438 L 168.02332688122988 183.09091186523438 L 168.02332688122988 498.9090881347656 L 167.9594268798828 498.9090881347656 L 167.9594268798828 183.09091186523438" fill-opacity="1" clip-path="url(#ySDQZTBtdRCz)"/><path fill="rgb(33,131,128)" stroke="none" paint-order="stroke" d="M 150.2718963623047 183.09091186523438 L 154.3257122039795 183.09091186523438 L 154.3257122039795 498.9090881347656 L 150.2718963623047 498.9090881347656 L 150.2718963623047 183.09091186523438" fill-opacity="1" clip-path="url(#lVaMhPqygcNs)"/><path fill="rgb(33,131,128)" stroke="none" paint-order="stroke" d="M 193.4031219482422 183.09091186523438 L 194.47791993618011 183.09091186523438 L 194.47791993618011 498.9090881347656 L 193.4031219482422 498.9090881347656 L 193.4031219482422 183.09091186523438" fill-opacity="1" clip-path="url(#lVaMhPqygcNs)"/><path fill="rgb(115,210,222)" stroke="none" paint-order="stroke" d="M 132.21759033203125 183.09091186523438 L 134.4694263935089 183.09091186523438 L 134.4694263935089 498.9090881347656 L 132.21759033203125 498.9090881347656 L 132.21759033203125 183.09091186523438" fill-opacity="1" clip-path="url(#eXKDDsfGUoFn)"/><path fill="rgb(115,210,222)" stroke="none" paint-order="stroke" d="M 139.7654571533203 183.09091186523438 L 141.01150715351105 183.09091186523438 L 141.01150715351105 498.9090881347656 L 139.7654571533203 498.9090881347656 L 139.7654571533203 183.09091186523438" fill-opacity="1" clip-path="url(#eXKDDsfGUoFn)"/><path fill="rgb(115,210,222)" stroke="none" paint-order="stroke" d="M 143.1687774658203 183.09091186523438 L 147.54209327697754 183.09091186523438 L 147.54209327697754 498.9090881347656 L 143.1687774658203 498.9090881347656 L 143.1687774658203 183.09091186523438" fill-opacity="1" clip-path="url(#eXKDDsfGUoFn)"/><path fill="rgb(115,210,222)" stroke="none" paint-order="stroke" d="M 155.7724151611328 183.09091186523438 L 164.97401523590088 183.09091186523438 L 164.97401523590088 498.9090881347656 L 155.7724151611328 498.9090881347656 L 155.7724151611328 183.09091186523438" fill-opacity="1" clip-path="url(#eXKDDsfGUoFn)"/><path fill="rgb(115,210,222)" stroke="none" paint-order="stroke" d="M 195.53610229492188 183.09091186523438 L 197.62563228607178 183.09091186523438 L 197.62563228607178 498.9090881347656 L 195.53610229492188 498.9090881347656 L 195.53610229492188 183.09091186523438" fill-opacity="1" clip-path="url(#eXKDDsfGUoFn)"/><path fill="rgb(34,116,165)" stroke="none" paint-order="stroke" d="M 65.65168762207031 183.09091186523438 L 65.71558762341738 183.09091186523438 L 65.71558762341738 498.9090881347656 L 65.65168762207031 498.9090881347656 L 65.65168762207031 183.09091186523438" fill-opacity="1" clip-path="url(#pNnKJzZgsXeG)"/><path fill="rgb(105,29,48)" stroke="none" paint-order="stroke" d="M 169.12879943847656 183.09091186523438 L 174.50662326812744 183.09091186523438 L 174.50662326812744 498.9090881347656 L 169.12879943847656 498.9090881347656 L 169.12879943847656 183.09091186523438" fill-opacity="1" clip-path="url(#AcMGsSRWpvEt)"/><path fill="rgb(143,45,86)" stroke="none" paint-order="stroke" d="M 58.5 551.5454711914062 L 122.84091186523438 551.5454711914062 L 122.84091186523438 604.1818351745605 L 58.5 604.1818351745605 L 58.5 551.5454711914062" fill-opacity="1" clip-path="url(#BcofdbyNNTTF)"/><path fill="rgb(63,136,197)" stroke="none" paint-order="stroke" d="M 122.84091186523438 551.5454711914062 L 124.69145584106445 551.5454711914062 L 124.69145584106445 604.1818351745605 L 122.84091186523438 604.1818351745605 L 122.84091186523438 551.5454711914062" fill-opacity="1" clip-path="url(#BcofdbyNNTTF)"/><path fill="rgb(143,45,86)" stroke="none" paint-order="stroke" d="M 124.69145202636719 551.5454711914062 L 124.80519402772188 551.5454711914062 L 124.80519402772188 604.1818351745605 L 124.69145202636719 604.1818351745605 L 124.69145202636719 551.5454711914062" fill-opacity="1" clip-path="url(#BcofdbyNNTTF)"/><path fill="rgb(63,136,197)" stroke="none" paint-order="stroke" d="M 124.8051986694336 551.5454711914062 L 125.21288067102432 551.5454711914062 L 125.21288067102432 604.1818351745605 L 124.8051986694336 604.1818351745605 L 124.8051986694336 551.5454711914062" fill-opacity="1" clip-path="url(#BcofdbyNNTTF)"/><path fill="rgb(143,45,86)" stroke="none" paint-order="stroke" d="M 125.21287536621094 551.5454711914062 L 135.34997177124023 551.5454711914062 L 135.34997177124023 604.1818351745605 L 125.21287536621094 604.1818351745605 L 125.21287536621094 551.5454711914062" fill-opacity="1" clip-path="url(#BcofdbyNNTTF)"/><path fill="rgb(63,136,197)" stroke="none" paint-order="stroke" d="M 135.3499755859375 551.5454711914062 L 137.04588162899017 551.5454711914062 L 137.04588162899017 604.1818351745605 L 135.3499755859375 604.1818351745605 L 135.3499755859375 551.5454711914062" fill-opacity="1" clip-path="url(#BcofdbyNNTTF)"/><path fill="rgb(143,45,86)" stroke="none" paint-order="stroke" d="M 137.04588317871094 551.5454711914062 L 141.94062328338623 551.5454711914062 L 141.94062328338623 604.1818351745605 L 137.04588317871094 604.1818351745605 L 137.04588317871094 551.5454711914062" fill-opacity="1" clip-path="url(#BcofdbyNNTTF)"/><path fill="rgb(63,136,197)" stroke="none" paint-order="stroke" d="M 141.94061279296875 551.5454711914062 L 197.62562942504883 551.5454711914062 L 197.62562942504883 604.1818351745605 L 141.94061279296875 604.1818351745605 L 141.94061279296875 551.5454711914062" fill-opacity="1" clip-path="url(#BcofdbyNNTTF)"/><path fill="none" stroke="rgb(0,0,0)" paint-order="fill" d="M 58.5 77.81818389892578 L 197.62564086914062 77.81818389892578 L 197.62564086914062 604.1818313598633 L 58.5 604.1818313598633 L 58.5 77.81818389892578" stroke-opacity="1" stroke-linejoin="bevel" stroke-miterlimit="10" stroke-dasharray="" clip-path="url(#cvruLmFVfWEC)"/><path fill="none" stroke="rgb(0,0,0)" paint-order="fill" d="M 58.5 630.5 L 1336.5 630.5" stroke-opacity="1" stroke-linejoin="bevel" stroke-miterlimit="10" stroke-dasharray=""/><path fill="none" stroke="rgb(0,0,0)" paint-order="fill" d="M 58.5 636.5 L 58.5 628.5 M 314.5 636.5 L 314.5 628.5 M 569.5 636.5 L 569.5 628.5 M 825.5 636.5 L 825.5 628.5 M 1080.5 636.5 L 1080.5 628.5 M 1336.5 636.5 L 1336.5 628.5" stroke-opacity="1" stroke-linejoin="bevel" stroke-miterlimit="10" stroke-dasharray=""/><path fill="none" stroke="rgb(0,0,0)" paint-order="fill" d="M 58.5 634.5 L 58.5 630.5 M 109.5 634.5 L 109.5 630.5 M 160.5 634.5 L 160.5 630.5 M 211.5 634.5 L 211.5 630.5 M 262.5 634.5 L 262.5 630.5 M 314.5 634.5 L 314.5 630.5 M 365.5 634.5 L 365.5 630.5 M 416.5 634.5 L 416.5 630.5 M 467.5 634.5 L 467.5 630.5 M 518.5 634.5 L 518.5 630.5 M 569.5 634.5 L 569.5 630.5 M 620.5 634.5 L 620.5 630.5 M 671.5 634.5 L 671.5 630.5 M 723.5 634.5 L 723.5 630.5 M 774.5 634.5 L 774.5 630.5 M 825.5 634.5 L 825.5 630.5 M 876.5 634.5 L 876.5 630.5 M 927.5 634.5 L 927.5 630.5 M 978.5 634.5 L 978.5 630.5 M 1029.5 634.5 L 1029.5 630.5 M 1080.5 634.5 L 1080.5 630.5 M 1132.5 634.5 L 1132.5 630.5 M 1183.5 634.5 L 1183.5 630.5 M 1234.5 634.5 L 1234.5 630.5 M 1285.5 634.5 L 1285.5 630.5 M 1336.5 634.5 L 1336.5 630.5" stroke-opacity="1" stroke-linejoin="bevel" stroke-miterlimit="10" stroke-dasharray=""/><text fill="rgb(68,68,68)" stroke="none" font-family="helvetica" font-size="11px" font-style="normal" font-weight="normal" text-decoration="normal" x="54.94166660308838" y="648.89013671875" text-anchor="start" dominant-baseline="alphabetic" transform="matrix(1, 0, 0, 1, 0.5, 0.5)" fill-opacity="1">0</text><text fill="rgb(68,68,68)" stroke="none" font-family="helvetica" font-size="11px" font-style="normal" font-weight="normal" text-decoration="normal" x="304.42500591278076" y="648.89013671875" text-anchor="start" dominant-baseline="alphabetic" transform="matrix(1, 0, 0, 1, 0.5, 0.5)" fill-opacity="1">200</text><text fill="rgb(68,68,68)" stroke="none" font-family="helvetica" font-size="11px" font-style="normal" font-weight="normal" text-decoration="normal" x="560.0250120162964" y="648.89013671875" text-anchor="start" dominant-baseline="alphabetic" transform="matrix(1, 0, 0, 1, 0.5, 0.5)" fill-opacity="1">400</text><text fill="rgb(68,68,68)" stroke="none" font-family="helvetica" font-size="11px" font-style="normal" font-weight="normal" text-decoration="normal" x="815.6249876022339" y="648.89013671875" text-anchor="start" dominant-baseline="alphabetic" transform="matrix(1, 0, 0, 1, 0.5, 0.5)" fill-opacity="1">600</text><text fill="rgb(68,68,68)" stroke="none" font-family="helvetica" font-size="11px" font-style="normal" font-weight="normal" text-decoration="normal" x="1071.2250242233276" y="648.89013671875" text-anchor="start" dominant-baseline="alphabetic" transform="matrix(1, 0, 0, 1, 0.5, 0.5)" fill-opacity="1">800</text><text fill="rgb(68,68,68)" stroke="none" font-family="helvetica" font-size="11px" font-style="normal" font-weight="normal" text-decoration="normal" x="1323.7666664123535" y="648.89013671875" text-anchor="start" dominant-baseline="alphabetic" transform="matrix(1, 0, 0, 1, 0.5, 0.5)" fill-opacity="1">1000</text><text fill="rgb(68,68,68)" stroke="none" font-family="helvetica" font-size="15pt" font-style="italic" font-weight="normal" text-decoration="normal" x="666.4416675567627" y="676.06982421875" text-anchor="start" dominant-baseline="alphabetic" transform="matrix(1, 0, 0, 1, 0.5, 0.5)" fill-opacity="1">time(s)</text><path fill="none" stroke="rgb(0,0,0)" paint-order="fill" d="M 58.5 630.5 L 58.5 51.5" stroke-opacity="1" stroke-linejoin="bevel" stroke-miterlimit="10" stroke-dasharray=""/><path fill="none" stroke="rgb(0,0,0)" paint-order="fill" d="M 52.5 551.5 L 60.5 551.5 M 52.5 446.5 L 60.5 446.5 M 52.5 341.5 L 60.5 341.5 M 52.5 235.5 L 60.5 235.5 M 52.5 130.5 L 60.5 130.5" stroke-opacity="1" stroke-linejoin="bevel" stroke-miterlimit="10" stroke-dasharray=""/><path fill="none" stroke="rgb(0,0,0)" paint-order="fill" d="M 54.5 572.5 L 58.5 572.5 M 54.5 593.5 L 58.5 593.5 M 54.5 614.5 L 58.5 614.5 M 54.5 551.5 L 58.5 551.5 M 54.5 530.5 L 58.5 530.5 M 54.5 509.5 L 58.5 509.5 M 54.5 488.5 L 58.5 488.5 M 54.5 467.5 L 58.5 467.5 M 54.5 446.5 L 58.5 446.5 M 54.5 425.5 L 58.5 425.5 M 54.5 404.5 L 58.5 404.5 M 54.5 383.5 L 58.5 383.5 M 54.5 362.5 L 58.5 362.5 M 54.5 341.5 L 58.5 341.5 M 54.5 319.5 L 58.5 319.5 M 54.5 298.5 L 58.5 298.5 M 54.5 277.5 L 58.5 277.5 M 54.5 256.5 L 58.5 256.5 M 54.5 235.5 L 58.5 235.5 M 54.5 214.5 L 58.5 214.5 M 54.5 193.5 L 58.5 193.5 M 54.5 172.5 L 58.5 172.5 M 54.5 151.5 L 58.5 151.5 M 54.5 130.5 L 58.5 130.5 M 54.5 109.5 L 58.5 109.5 M 54.5 88.5 L 58.5 88.5 M 54.5 67.5 L 58.5 67.5" stroke-opacity="1" stroke-linejoin="bevel" stroke-miterlimit="10" stroke-dasharray=""/><text fill="rgb(68,68,68)" stroke="none" font-family="helvetica" font-size="11px" font-style="normal" font-weight="normal" text-decoration="normal" x="34.46666622161865" y="554.9905395507812" text-anchor="start" dominant-baseline="alphabetic" transform="matrix(1, 0, 0, 1, 0.5, 0.5)" fill-opacity="1">−2</text><text fill="rgb(68,68,68)" stroke="none" font-family="helvetica" font-size="11px" font-style="normal" font-weight="normal" text-decoration="normal" x="34.46666622161865" y="449.7178039550781" text-anchor="start" dominant-baseline="alphabetic" transform="matrix(1, 0, 0, 1, 0.5, 0.5)" fill-opacity="1">−1</text><text fill="rgb(68,68,68)" stroke="none" font-family="helvetica" font-size="11px" font-style="normal" font-weight="normal" text-decoration="normal" x="40.88333320617676" y="344.445068359375" text-anchor="start" dominant-baseline="alphabetic" transform="matrix(1, 0, 0, 1, 0.5, 0.5)" fill-opacity="1">0</text><text fill="rgb(68,68,68)" stroke="none" font-family="helvetica" font-size="11px" font-style="normal" font-weight="normal" text-decoration="normal" x="40.88333320617676" y="239.17234802246094" text-anchor="start" dominant-baseline="alphabetic" transform="matrix(1, 0, 0, 1, 0.5, 0.5)" fill-opacity="1">1</text><text fill="rgb(68,68,68)" stroke="none" font-family="helvetica" font-size="11px" font-style="normal" font-weight="normal" text-decoration="normal" x="40.88333320617676" y="133.8996124267578" text-anchor="start" dominant-baseline="alphabetic" transform="matrix(1, 0, 0, 1, 0.5, 0.5)" fill-opacity="1">2</text><text fill="rgb(68,68,68)" stroke="none" font-family="helvetica" font-size="15pt" font-style="italic" font-weight="normal" text-decoration="normal" x="-11.316666603088379" y="336.076171875" text-anchor="start" dominant-baseline="alphabetic" transform="matrix(6.123233995736766e-17, -1, 1, 6.123233995736766e-17, -313.53333377838135, 367.46666622161865)" fill-opacity="1">students</text><path fill="rgb(255,255,255)" stroke="rgb(229,229,229)" paint-order="fill" d="M 1128.2333374023438 61.5 L 1326.5 61.5 L 1326.5 400.5 L 1128.2333374023438 400.5 L 1128.2333374023438 61.5" fill-opacity="0.9490196078431372" clip-path="url(#cZUtQwcsRltT)" stroke-opacity="0.5019607843137255" stroke-linejoin="bevel" stroke-miterlimit="10" stroke-dasharray=""/><text fill="rgb(68,68,68)" stroke="none" font-family="helvetica" font-size="13px" font-style="normal" font-weight="normal" text-decoration="normal" x="1162.7333374023438" y="81" text-anchor="start" dominant-baseline="central" clip-path="url(#cZUtQwcsRltT)" transform="matrix(1, 0, 0, 1, 0.5, 0.5)" fill-opacity="1">wavelength</text><path fill="rgb(0,255,40)" stroke="none" paint-order="stroke" d="M 1140.2333374023438 73.5 L 1156.2333374023438 73.5 L 1156.2333374023438 89.5 L 1140.2333374023438 89.5 L 1140.2333374023438 73.5" fill-opacity="1" clip-path="url(#cZUtQwcsRltT)"/><path fill="rgb(216,17,89)" stroke="none" paint-order="stroke" d="M 1140.2333374023438 73.5 L 1156.2333374023438 73.5 L 1156.2333374023438 89.5 L 1140.2333374023438 89.5 L 1140.2333374023438 73.5" fill-opacity="1" clip-path="url(#cZUtQwcsRltT)"/><text fill="rgb(68,68,68)" stroke="none" font-family="helvetica" font-size="13px" font-style="normal" font-weight="normal" text-decoration="normal" x="1162.7333374023438" y="104" text-anchor="start" dominant-baseline="central" clip-path="url(#cZUtQwcsRltT)" transform="matrix(1, 0, 0, 1, 0.5, 0.5)" fill-opacity="1">solution</text><path fill="rgb(251,0,7)" stroke="none" paint-order="stroke" d="M 1140.2333374023438 96.5 L 1156.2333374023438 96.5 L 1156.2333374023438 112.5 L 1140.2333374023438 112.5 L 1140.2333374023438 96.5" fill-opacity="1" clip-path="url(#cZUtQwcsRltT)"/><path fill="rgb(33,131,128)" stroke="none" paint-order="stroke" d="M 1140.2333374023438 96.5 L 1156.2333374023438 96.5 L 1156.2333374023438 112.5 L 1140.2333374023438 112.5 L 1140.2333374023438 96.5" fill-opacity="1" clip-path="url(#cZUtQwcsRltT)"/><text fill="rgb(68,68,68)" stroke="none" font-family="helvetica" font-size="13px" font-style="normal" font-weight="normal" text-decoration="normal" x="1162.7333374023438" y="127" text-anchor="start" dominant-baseline="central" clip-path="url(#cZUtQwcsRltT)" transform="matrix(1, 0, 0, 1, 0.5, 0.5)" fill-opacity="1">laser</text><path fill="rgb(105,29,48)" stroke="none" paint-order="stroke" d="M 1140.2333374023438 119.5 L 1156.2333374023438 119.5 L 1156.2333374023438 135.5 L 1140.2333374023438 135.5 L 1140.2333374023438 119.5" fill-opacity="1" clip-path="url(#cZUtQwcsRltT)"/><text fill="rgb(68,68,68)" stroke="none" font-family="helvetica" font-size="13px" font-style="normal" font-weight="normal" text-decoration="normal" x="1162.7333374023438" y="150" text-anchor="start" dominant-baseline="central" clip-path="url(#cZUtQwcsRltT)" transform="matrix(1, 0, 0, 1, 0.5, 0.5)" fill-opacity="1">ruler</text><path fill="rgb(255,188,66)" stroke="none" paint-order="stroke" d="M 1140.2333374023438 142.5 L 1156.2333374023438 142.5 L 1156.2333374023438 158.5 L 1140.2333374023438 158.5 L 1140.2333374023438 142.5" fill-opacity="1" clip-path="url(#cZUtQwcsRltT)"/><text fill="rgb(68,68,68)" stroke="none" font-family="helvetica" font-size="13px" font-style="normal" font-weight="normal" text-decoration="normal" x="1162.7333374023438" y="173" text-anchor="start" dominant-baseline="central" clip-path="url(#cZUtQwcsRltT)" transform="matrix(1, 0, 0, 1, 0.5, 0.5)" fill-opacity="1">restarts</text><text fill="rgb(68,68,68)" stroke="none" font-family="helvetica" font-size="13px" font-style="normal" font-weight="normal" text-decoration="normal" x="1162.7333374023438" y="196" text-anchor="start" dominant-baseline="central" clip-path="url(#cZUtQwcsRltT)" transform="matrix(1, 0, 0, 1, 0.5, 0.5)" fill-opacity="1">transmittance_absorbance</text><text fill="rgb(68,68,68)" stroke="none" font-family="helvetica" font-size="13px" font-style="normal" font-weight="normal" text-decoration="normal" x="1162.7333374023438" y="219" text-anchor="start" dominant-baseline="central" clip-path="url(#cZUtQwcsRltT)" transform="matrix(1, 0, 0, 1, 0.5, 0.5)" fill-opacity="1">magnifier</text><text fill="rgb(68,68,68)" stroke="none" font-family="helvetica" font-size="13px" font-style="normal" font-weight="normal" text-decoration="normal" x="1162.7333374023438" y="242" text-anchor="start" dominant-baseline="central" clip-path="url(#cZUtQwcsRltT)" transform="matrix(1, 0, 0, 1, 0.5, 0.5)" fill-opacity="1">concentration</text><path fill="rgb(115,210,222)" stroke="none" paint-order="stroke" d="M 1140.2333374023438 234.5 L 1156.2333374023438 234.5 L 1156.2333374023438 250.5 L 1140.2333374023438 250.5 L 1140.2333374023438 234.5" fill-opacity="1" clip-path="url(#cZUtQwcsRltT)"/><text fill="rgb(68,68,68)" stroke="none" font-family="helvetica" font-size="13px" font-style="normal" font-weight="normal" text-decoration="normal" x="1162.7333374023438" y="265" text-anchor="start" dominant-baseline="central" clip-path="url(#cZUtQwcsRltT)" transform="matrix(1, 0, 0, 1, 0.5, 0.5)" fill-opacity="1">flask</text><text fill="rgb(68,68,68)" stroke="none" font-family="helvetica" font-size="13px" font-style="normal" font-weight="normal" text-decoration="normal" x="1162.7333374023438" y="288" text-anchor="start" dominant-baseline="central" clip-path="url(#cZUtQwcsRltT)" transform="matrix(1, 0, 0, 1, 0.5, 0.5)" fill-opacity="1">pdf</text><text fill="rgb(68,68,68)" stroke="none" font-family="helvetica" font-size="13px" font-style="normal" font-weight="normal" text-decoration="normal" x="1162.7333374023438" y="311" text-anchor="start" dominant-baseline="central" clip-path="url(#cZUtQwcsRltT)" transform="matrix(1, 0, 0, 1, 0.5, 0.5)" fill-opacity="1">concentrationlab</text><path fill="rgb(34,116,165)" stroke="none" paint-order="stroke" d="M 1140.2333374023438 303.5 L 1156.2333374023438 303.5 L 1156.2333374023438 319.5 L 1140.2333374023438 319.5 L 1140.2333374023438 303.5" fill-opacity="1" clip-path="url(#cZUtQwcsRltT)"/><text fill="rgb(68,68,68)" stroke="none" font-family="helvetica" font-size="13px" font-style="normal" font-weight="normal" text-decoration="normal" x="1162.7333374023438" y="334" text-anchor="start" dominant-baseline="central" clip-path="url(#cZUtQwcsRltT)" transform="matrix(1, 0, 0, 1, 0.5, 0.5)" fill-opacity="1">wavelength_slider</text><path fill="rgb(105,29,48)" stroke="none" paint-order="stroke" d="M 1140.2333374023438 326.5 L 1156.2333374023438 326.5 L 1156.2333374023438 342.5 L 1140.2333374023438 342.5 L 1140.2333374023438 326.5" fill-opacity="1" clip-path="url(#cZUtQwcsRltT)"/><text fill="rgb(68,68,68)" stroke="none" font-family="helvetica" font-size="13px" font-style="normal" font-weight="normal" text-decoration="normal" x="1162.7333374023438" y="357" text-anchor="start" dominant-baseline="central" clip-path="url(#cZUtQwcsRltT)" transform="matrix(1, 0, 0, 1, 0.5, 0.5)" fill-opacity="1">ruler measuring</text><text fill="rgb(68,68,68)" stroke="none" font-family="helvetica" font-size="13px" font-style="normal" font-weight="normal" text-decoration="normal" x="1162.7333374023438" y="380" text-anchor="start" dominant-baseline="central" clip-path="url(#cZUtQwcsRltT)" transform="matrix(1, 0, 0, 1, 0.5, 0.5)" fill-opacity="1">dependent variable</text><path fill="rgb(143,45,86)" stroke="none" paint-order="stroke" d="M 1140.2333374023438 372.5 L 1156.2333374023438 372.5 L 1156.2333374023438 388.5 L 1140.2333374023438 388.5 L 1140.2333374023438 372.5" fill-opacity="1" clip-path="url(#cZUtQwcsRltT)"/><text fill="rgb(68,68,68)" stroke="none" font-family="helvetica" font-size="25pt" font-style="normal" font-weight="bold" text-decoration="normal" x="58" y="38.740885416666664" text-anchor="start" dominant-baseline="alphabetic" transform="matrix(1, 0, 0, 1, 0.5, 0.5)" fill-opacity="1">Timeline for student 5vvwhzqs with permutation 3012 for task 1</text></svg>