<svg version="1.1" xmlns="http://www.w3.org/2000/svg" width="1366" height="683"><defs><clipPath id="BBQImWoNAcfd"><path fill="none" stroke="none" d="M 58.5 51.5 L 1336.5 51.5 L 1336.5 630.5 L 58.5 630.5 L 58.5 51.5"/></clipPath><clipPath id="BWNROrgKXvTs"><path fill="none" stroke="none" d="M 58.5 51.5 L 1336.5 51.5 L 1336.5 630.5 L 58.5 630.5 L 58.5 51.5"/></clipPath><clipPath id="kptTpmBcFbFT"><path fill="none" stroke="none" d="M 58.5 51.5 L 1336.5 51.5 L 1336.5 630.5 L 58.5 630.5 L 58.5 51.5"/></clipPath><clipPath id="TsNFRiRXXtek"><path fill="none" stroke="none" d="M 58.5 51.5 L 1336.5 51.5 L 1336.5 630.5 L 58.5 630.5 L 58.5 51.5"/></clipPath><clipPath id="iCyWEfUJfqbs"><path fill="none" stroke="none" d="M 58.5 51.5 L 1336.5 51.5 L 1336.5 630.5 L 58.5 630.5 L 58.5 51.5"/></clipPath><clipPath id="QnpFBGPMMIBs"><path fill="none" stroke="none" d="M 58.5 51.5 L 1336.5 51.5 L 1336.5 630.5 L 58.5 630.5 L 58.5 51.5"/></clipPath><clipPath id="FoTgtkOclSaD"><path fill="none" stroke="none" d="M 58.5 51.5 L 1336.5 51.5 L 1336.5 630.5 L 58.5 630.5 L 58.5 51.5"/></clipPath><clipPath id="hrNGzLrLamzf"><path fill="none" stroke="none" d="M 58.5 51.5 L 1336.5 51.5 L 1336.5 630.5 L 58.5 630.5 L 58.5 51.5"/></clipPath><clipPath id="gEDVLnAxOZnZ"><path fill="none" stroke="none" d="M 58.5 51.5 L 1336.5 51.5 L 1336.5 630.5 L 58.5 630.5 L 58.5 51.5"/></clipPath><clipPath id="hyZeKSvcTpVC"><path fill="none" stroke="none" d="M 58.5 51.5 L 1336.5 51.5 L 1336.5 630.5 L 58.5 630.5 L 58.5 51.5"/></clipPath><clipPath id="oTmHJbRJyHpV"><path fill="none" stroke="none" d="M 58.5 51.5 L 1336.5 51.5 L 1336.5 630.5 L 58.5 630.5 L 58.5 51.5"/></clipPath><clipPath id="KcyBNrNzODds"><path fill="none" stroke="none" d="M 58.5 51.5 L 1336.5 51.5 L 1336.5 630.5 L 58.5 630.5 L 58.5 51.5"/></clipPath><clipPath id="wINnzOlWLWbA"><path fill="none" stroke="none" d="M 58.5 51.5 L 1336.5 51.5 L 1336.5 630.5 L 58.5 630.5 L 58.5 51.5"/></clipPath><clipPath id="NLtstLLQUNmB"><path fill="none" stroke="none" d="M 58.5 51.5 L 1336.5 51.5 L 1336.5 630.5 L 58.5 630.5 L 58.5 51.5"/></clipPath><clipPath id="anOZQvetioJs"><path fill="none" stroke="none" d="M 58.5 51.5 L 1336.5 51.5 L 1336.5 630.5 L 58.5 630.5 L 58.5 51.5"/></clipPath><clipPath id="GVeFbNiTQGqq"><path fill="none" stroke="none" d="M 58.5 51.5 L 1336.5 51.5 L 1336.5 630.5 L 58.5 630.5 L 58.5 51.5"/></clipPath><clipPath id="CWPrqTPQxnyH"><path fill="none" stroke="none" d="M 58.5 51.5 L 1336.5 51.5 L 1336.5 630.5 L 58.5 630.5 L 58.5 51.5"/></clipPath><clipPath id="iGvcTdLEamzF"><path fill="none" stroke="none" d="M 58.5 51.5 L 1336.5 51.5 L 1336.5 630.5 L 58.5 630.5 L 58.5 51.5"/></clipPath><clipPath id="oQyESgoOvzGc"><path fill="none" stroke="none" d="M 58.5 51.5 L 1336.5 51.5 L 1336.5 630.5 L 58.5 630.5 L 58.5 51.5"/></clipPath><clipPath id="TlWODKsWKhWe"><path fill="none" stroke="none" d="M 58.5 51.5 L 1336.5 51.5 L 1336.5 630.5 L 58.5 630.5 L 58.5 51.5"/></clipPath><clipPath id="iVkBaXuThfXp"><path fill="none" stroke="none" d="M 58.5 51.5 L 1336.5 51.5 L 1336.5 630.5 L 58.5 630.5 L 58.5 51.5"/></clipPath></defs><path fill="rgb(255,255,255)" stroke="none" paint-order="stroke" d="M 0.5 0.5 L 1366.5 0.5 L 1366.5 683.5 L 0.5 683.5 L 0.5 0.5" fill-opacity="1"/><rect fill="#FFFFFF" stroke="none" x="58" y="51" width="1278" height="579" transform="matrix(1, 0, 0, 1, 0.5, 0.5)"/><path fill="rgb(255,255,255)" stroke="none" paint-order="stroke" d="M 58.5 51.5 L 1336.5 51.5 L 1336.5 630.5 L 58.5 630.5 L 58.5 51.5" fill-opacity="1"/><path fill="none" stroke="rgb(229,229,229)" paint-order="fill" d="M 58.5 51.5 L 1336.5 51.5 L 1336.5 630.5 L 58.5 630.5 L 58.5 51.5" stroke-opacity="1" stroke-linejoin="bevel" stroke-miterlimit="10" stroke-dasharray=""/><path fill="none" stroke="rgb(229,229,229)" paint-order="fill" d="M 314.5 630.5 L 314.5 51.5 M 569.5 630.5 L 569.5 51.5 M 825.5 630.5 L 825.5 51.5 M 1080.5 630.5 L 1080.5 51.5" stroke-opacity="1" stroke-linejoin="bevel" stroke-miterlimit="10" stroke-dasharray="" clip-path="url(#BBQImWoNAcfd)"/><path fill="none" stroke="rgb(229,229,229)" paint-order="fill" d="M 58.5 551.5 L 1336.5 551.5 M 58.5 446.5 L 1336.5 446.5 M 58.5 341.5 L 1336.5 341.5 M 58.5 235.5 L 1336.5 235.5 M 58.5 130.5 L 1336.5 130.5" stroke-opacity="1" stroke-linejoin="bevel" stroke-miterlimit="10" stroke-dasharray="" clip-path="url(#BWNROrgKXvTs)"/><path fill="rgb(0,255,40)" stroke="none" paint-order="stroke" d="M 58.5 77.81818389892578 L 197.72659301757812 77.81818389892578 L 197.72659301757812 130.45454788208008 L 58.5 130.45454788208008 L 58.5 77.81818389892578" fill-opacity="1" clip-path="url(#kptTpmBcFbFT)"/><path fill="rgb(42,0,238)" stroke="none" paint-order="stroke" d="M 197.72659301757812 77.81818389892578 L 211.7756471633911 77.81818389892578 L 211.7756471633911 130.45454788208008 L 197.72659301757812 130.45454788208008 L 197.72659301757812 77.81818389892578" fill-opacity="1" clip-path="url(#kptTpmBcFbFT)"/><path fill="rgb(251,0,7)" stroke="none" paint-order="stroke" d="M 58.5 130.4545440673828 L 197.72659301757812 130.4545440673828 L 197.72659301757812 183.0909080505371 L 58.5 183.0909080505371 L 58.5 130.4545440673828" fill-opacity="1" clip-path="url(#TsNFRiRXXtek)"/><path fill="rgb(56,126,34)" stroke="none" paint-order="stroke" d="M 197.72659301757812 130.4545440673828 L 211.7756471633911 130.4545440673828 L 211.7756471633911 183.0909080505371 L 197.72659301757812 183.0909080505371 L 197.72659301757812 130.4545440673828" fill-opacity="1" clip-path="url(#TsNFRiRXXtek)"/><path fill="rgb(105,29,48)" stroke="none" paint-order="stroke" d="M 122.78211975097656 183.09091186523438 L 122.84601975232363 183.09091186523438 L 122.84601975232363 498.9090881347656 L 122.78211975097656 498.9090881347656 L 122.78211975097656 183.09091186523438" fill-opacity="1" clip-path="url(#iCyWEfUJfqbs)"/><path fill="rgb(255,188,66)" stroke="none" paint-order="stroke" d="M 166.09864807128906 183.09091186523438 L 174.41587162017822 183.09091186523438 L 174.41587162017822 498.9090881347656 L 166.09864807128906 498.9090881347656 L 166.09864807128906 183.09091186523438" fill-opacity="1" clip-path="url(#QnpFBGPMMIBs)"/><path fill="rgb(162,174,187)" stroke="none" paint-order="stroke" d="M 140.9897918701172 183.09091186523438 L 141.05369187146425 183.09091186523438 L 141.05369187146425 498.9090881347656 L 140.9897918701172 498.9090881347656 L 140.9897918701172 183.09091186523438" fill-opacity="1" clip-path="url(#hrNGzLrLamzf)"/><path fill="rgb(255,188,66)" stroke="none" paint-order="stroke" d="M 142.85055541992188 183.09091186523438 L 155.92066097259521 183.09091186523438 L 155.92066097259521 498.9090881347656 L 142.85055541992188 498.9090881347656 L 142.85055541992188 183.09091186523438" fill-opacity="1" clip-path="url(#gEDVLnAxOZnZ)"/><path fill="rgb(255,188,66)" stroke="none" paint-order="stroke" d="M 162.9087677001953 183.09091186523438 L 165.40853571891785 183.09091186523438 L 165.40853571891785 498.9090881347656 L 162.9087677001953 498.9090881347656 L 162.9087677001953 183.09091186523438" fill-opacity="1" clip-path="url(#gEDVLnAxOZnZ)"/><path fill="rgb(33,131,128)" stroke="none" paint-order="stroke" d="M 196.3655242919922 183.09091186523438 L 197.7265943288803 183.09091186523438 L 197.7265943288803 498.9090881347656 L 196.3655242919922 498.9090881347656 L 196.3655242919922 183.09091186523438" fill-opacity="1" clip-path="url(#oTmHJbRJyHpV)"/><path fill="rgb(115,210,222)" stroke="none" paint-order="stroke" d="M 187.4272003173828 183.09091186523438 L 188.73076033592224 183.09091186523438 L 188.73076033592224 498.9090881347656 L 187.4272003173828 498.9090881347656 L 187.4272003173828 183.09091186523438" fill-opacity="1" clip-path="url(#KcyBNrNzODds)"/><path fill="rgb(115,210,222)" stroke="none" paint-order="stroke" d="M 200.21359252929688 183.09091186523438 L 202.60345244407654 183.09091186523438 L 202.60345244407654 498.9090881347656 L 200.21359252929688 498.9090881347656 L 200.21359252929688 183.09091186523438" fill-opacity="1" clip-path="url(#KcyBNrNzODds)"/><path fill="rgb(115,210,222)" stroke="none" paint-order="stroke" d="M 209.58004760742188 183.09091186523438 L 210.3736855983734 183.09091186523438 L 210.3736855983734 498.9090881347656 L 209.58004760742188 498.9090881347656 L 209.58004760742188 183.09091186523438" fill-opacity="1" clip-path="url(#KcyBNrNzODds)"/><path fill="rgb(28,49,68)" stroke="none" paint-order="stroke" d="M 124.23265075683594 183.09091186523438 L 126.65062665939331 183.09091186523438 L 126.65062665939331 498.9090881347656 L 124.23265075683594 498.9090881347656 L 124.23265075683594 183.09091186523438" fill-opacity="1" clip-path="url(#wINnzOlWLWbA)"/><path fill="rgb(28,49,68)" stroke="none" paint-order="stroke" d="M 159.10671997070312 183.09091186523438 L 162.32088994979858 183.09091186523438 L 162.32088994979858 498.9090881347656 L 159.10671997070312 498.9090881347656 L 159.10671997070312 183.09091186523438" fill-opacity="1" clip-path="url(#wINnzOlWLWbA)"/><path fill="rgb(28,49,68)" stroke="none" paint-order="stroke" d="M 184.2769317626953 183.09091186523438 L 185.82714581489563 183.09091186523438 L 185.82714581489563 498.9090881347656 L 184.2769317626953 498.9090881347656 L 184.2769317626953 183.09091186523438" fill-opacity="1" clip-path="url(#wINnzOlWLWbA)"/><path fill="rgb(239,185,203)" stroke="none" paint-order="stroke" d="M 66.45426940917969 183.09091186523438 L 120.4753303527832 183.09091186523438 L 120.4753303527832 498.9090881347656 L 66.45426940917969 498.9090881347656 L 66.45426940917969 183.09091186523438" fill-opacity="1" clip-path="url(#NLtstLLQUNmB)"/><path fill="rgb(239,185,203)" stroke="none" paint-order="stroke" d="M 129.03282165527344 183.09091186523438 L 139.2363739013672 183.09091186523438 L 139.2363739013672 498.9090881347656 L 129.03282165527344 498.9090881347656 L 129.03282165527344 183.09091186523438" fill-opacity="1" clip-path="url(#NLtstLLQUNmB)"/><path fill="rgb(239,185,203)" stroke="none" paint-order="stroke" d="M 176.28814697265625 183.09091186523438 L 181.3912010192871 183.09091186523438 L 181.3912010192871 498.9090881347656 L 176.28814697265625 498.9090881347656 L 176.28814697265625 183.09091186523438" fill-opacity="1" clip-path="url(#NLtstLLQUNmB)"/><path fill="rgb(239,185,203)" stroke="none" paint-order="stroke" d="M 190.4279327392578 183.09091186523438 L 194.84470081329346 183.09091186523438 L 194.84470081329346 498.9090881347656 L 190.4279327392578 498.9090881347656 L 190.4279327392578 183.09091186523438" fill-opacity="1" clip-path="url(#NLtstLLQUNmB)"/><path fill="rgb(239,185,203)" stroke="none" paint-order="stroke" d="M 203.5862274169922 183.09091186523438 L 208.04389142990112 183.09091186523438 L 208.04389142990112 498.9090881347656 L 203.5862274169922 498.9090881347656 L 203.5862274169922 183.09091186523438" fill-opacity="1" clip-path="url(#NLtstLLQUNmB)"/><path fill="rgb(255,188,66)" stroke="none" paint-order="stroke" d="M 167.15684509277344 498.9090881347656 L 211.7756576538086 498.9090881347656 L 211.7756576538086 551.5454521179199 L 167.15684509277344 551.5454521179199 L 167.15684509277344 498.9090881347656" fill-opacity="1" clip-path="url(#CWPrqTPQxnyH)"/><path fill="rgb(143,45,86)" stroke="none" paint-order="stroke" d="M 58.5 551.5454711914062 L 122.78211975097656 551.5454711914062 L 122.78211975097656 604.1818351745605 L 58.5 604.1818351745605 L 58.5 551.5454711914062" fill-opacity="1" clip-path="url(#iGvcTdLEamzF)"/><path fill="rgb(63,136,197)" stroke="none" paint-order="stroke" d="M 122.78211975097656 551.5454711914062 L 140.9897861480713 551.5454711914062 L 140.9897861480713 604.1818351745605 L 122.78211975097656 604.1818351745605 L 122.78211975097656 551.5454711914062" fill-opacity="1" clip-path="url(#iGvcTdLEamzF)"/><path fill="rgb(81,60,99)" stroke="none" paint-order="stroke" d="M 140.9897918701172 551.5454711914062 L 142.96046781539917 551.5454711914062 L 142.96046781539917 604.1818351745605 L 140.9897918701172 604.1818351745605 L 140.9897918701172 551.5454711914062" fill-opacity="1" clip-path="url(#iGvcTdLEamzF)"/><path fill="rgb(143,45,86)" stroke="none" paint-order="stroke" d="M 142.96046447753906 551.5454711914062 L 144.1720085144043 551.5454711914062 L 144.1720085144043 604.1818351745605 L 142.96046447753906 604.1818351745605 L 142.96046447753906 551.5454711914062" fill-opacity="1" clip-path="url(#iGvcTdLEamzF)"/><path fill="rgb(81,60,99)" stroke="none" paint-order="stroke" d="M 144.17201232910156 551.5454711914062 L 144.2998123317957 551.5454711914062 L 144.2998123317957 604.1818351745605 L 144.17201232910156 604.1818351745605 L 144.17201232910156 551.5454711914062" fill-opacity="1" clip-path="url(#iGvcTdLEamzF)"/><path fill="rgb(143,45,86)" stroke="none" paint-order="stroke" d="M 144.2998046875 551.5454711914062 L 145.2761966586113 551.5454711914062 L 145.2761966586113 604.1818351745605 L 144.2998046875 604.1818351745605 L 144.2998046875 551.5454711914062" fill-opacity="1" clip-path="url(#iGvcTdLEamzF)"/><path fill="rgb(81,60,99)" stroke="none" paint-order="stroke" d="M 145.2761993408203 551.5454711914062 L 146.48646533489227 551.5454711914062 L 146.48646533489227 604.1818351745605 L 145.2761993408203 604.1818351745605 L 145.2761993408203 551.5454711914062" fill-opacity="1" clip-path="url(#iGvcTdLEamzF)"/><path fill="rgb(143,45,86)" stroke="none" paint-order="stroke" d="M 146.48646545410156 551.5454711914062 L 147.03856146335602 551.5454711914062 L 147.03856146335602 604.1818351745605 L 146.48646545410156 604.1818351745605 L 146.48646545410156 551.5454711914062" fill-opacity="1" clip-path="url(#iGvcTdLEamzF)"/><path fill="rgb(81,60,99)" stroke="none" paint-order="stroke" d="M 147.03855895996094 551.5454711914062 L 150.1619908809662 551.5454711914062 L 150.1619908809662 604.1818351745605 L 147.03855895996094 604.1818351745605 L 147.03855895996094 551.5454711914062" fill-opacity="1" clip-path="url(#iGvcTdLEamzF)"/><path fill="rgb(143,45,86)" stroke="none" paint-order="stroke" d="M 150.1619873046875 551.5454711914062 L 150.5019353032112 551.5454711914062 L 150.5019353032112 604.1818351745605 L 150.1619873046875 604.1818351745605 L 150.1619873046875 551.5454711914062" fill-opacity="1" clip-path="url(#iGvcTdLEamzF)"/><path fill="rgb(81,60,99)" stroke="none" paint-order="stroke" d="M 150.50193786621094 551.5454711914062 L 211.7756462097168 551.5454711914062 L 211.7756462097168 604.1818351745605 L 150.50193786621094 604.1818351745605 L 150.50193786621094 551.5454711914062" fill-opacity="1" clip-path="url(#iGvcTdLEamzF)"/><path fill="none" stroke="rgb(0,0,0)" paint-order="fill" d="M 58.5 77.81818389892578 L 211.77565002441406 77.81818389892578 L 211.77565002441406 604.1818313598633 L 58.5 604.1818313598633 L 58.5 77.81818389892578" stroke-opacity="1" stroke-linejoin="bevel" stroke-miterlimit="10" stroke-dasharray="" clip-path="url(#oQyESgoOvzGc)"/><path fill="none" stroke="rgb(0,0,0)" paint-order="fill" d="M 58.5 630.5 L 1336.5 630.5" stroke-opacity="1" stroke-linejoin="bevel" stroke-miterlimit="10" stroke-dasharray=""/><path fill="none" stroke="rgb(0,0,0)" paint-order="fill" d="M 58.5 636.5 L 58.5 628.5 M 314.5 636.5 L 314.5 628.5 M 569.5 636.5 L 569.5 628.5 M 825.5 636.5 L 825.5 628.5 M 1080.5 636.5 L 1080.5 628.5 M 1336.5 636.5 L 1336.5 628.5" stroke-opacity="1" stroke-linejoin="bevel" stroke-miterlimit="10" stroke-dasharray=""/><path fill="none" stroke="rgb(0,0,0)" paint-order="fill" d="M 58.5 634.5 L 58.5 630.5 M 109.5 634.5 L 109.5 630.5 M 160.5 634.5 L 160.5 630.5 M 211.5 634.5 L 211.5 630.5 M 262.5 634.5 L 262.5 630.5 M 314.5 634.5 L 314.5 630.5 M 365.5 634.5 L 365.5 630.5 M 416.5 634.5 L 416.5 630.5 M 467.5 634.5 L 467.5 630.5 M 518.5 634.5 L 518.5 630.5 M 569.5 634.5 L 569.5 630.5 M 620.5 634.5 L 620.5 630.5 M 671.5 634.5 L 671.5 630.5 M 723.5 634.5 L 723.5 630.5 M 774.5 634.5 L 774.5 630.5 M 825.5 634.5 L 825.5 630.5 M 876.5 634.5 L 876.5 630.5 M 927.5 634.5 L 927.5 630.5 M 978.5 634.5 L 978.5 630.5 M 1029.5 634.5 L 1029.5 630.5 M 1080.5 634.5 L 1080.5 630.5 M 1132.5 634.5 L 1132.5 630.5 M 1183.5 634.5 L 1183.5 630.5 M 1234.5 634.5 L 1234.5 630.5 M 1285.5 634.5 L 1285.5 630.5 M 1336.5 634.5 L 1336.5 630.5" stroke-opacity="1" stroke-linejoin="bevel" stroke-miterlimit="10" stroke-dasharray=""/><text fill="rgb(68,68,68)" stroke="none" font-family="helvetica" font-size="11px" font-style="normal" font-weight="normal" text-decoration="normal" x="54.94166660308838" y="648.89013671875" text-anchor="start" dominant-baseline="alphabetic" transform="matrix(1, 0, 0, 1, 0.5, 0.5)" fill-opacity="1">0</text><text fill="rgb(68,68,68)" stroke="none" font-family="helvetica" font-size="11px" font-style="normal" font-weight="normal" text-decoration="normal" x="304.42500591278076" y="648.89013671875" text-anchor="start" dominant-baseline="alphabetic" transform="matrix(1, 0, 0, 1, 0.5, 0.5)" fill-opacity="1">200</text><text fill="rgb(68,68,68)" stroke="none" font-family="helvetica" font-size="11px" font-style="normal" font-weight="normal" text-decoration="normal" x="560.0250120162964" y="648.89013671875" text-anchor="start" dominant-baseline="alphabetic" transform="matrix(1, 0, 0, 1, 0.5, 0.5)" fill-opacity="1">400</text><text fill="rgb(68,68,68)" stroke="none" font-family="helvetica" font-size="11px" font-style="normal" font-weight="normal" text-decoration="normal" x="815.6249876022339" y="648.89013671875" text-anchor="start" dominant-baseline="alphabetic" transform="matrix(1, 0, 0, 1, 0.5, 0.5)" fill-opacity="1">600</text><text fill="rgb(68,68,68)" stroke="none" font-family="helvetica" font-size="11px" font-style="normal" font-weight="normal" text-decoration="normal" x="1071.2250242233276" y="648.89013671875" text-anchor="start" dominant-baseline="alphabetic" transform="matrix(1, 0, 0, 1, 0.5, 0.5)" fill-opacity="1">800</text><text fill="rgb(68,68,68)" stroke="none" font-family="helvetica" font-size="11px" font-style="normal" font-weight="normal" text-decoration="normal" x="1323.7666664123535" y="648.89013671875" text-anchor="start" dominant-baseline="alphabetic" transform="matrix(1, 0, 0, 1, 0.5, 0.5)" fill-opacity="1">1000</text><text fill="rgb(68,68,68)" stroke="none" font-family="helvetica" font-size="15pt" font-style="italic" font-weight="normal" text-decoration="normal" x="666.4416675567627" y="676.06982421875" text-anchor="start" dominant-baseline="alphabetic" transform="matrix(1, 0, 0, 1, 0.5, 0.5)" fill-opacity="1">time(s)</text><path fill="none" stroke="rgb(0,0,0)" paint-order="fill" d="M 58.5 630.5 L 58.5 51.5" stroke-opacity="1" stroke-linejoin="bevel" stroke-miterlimit="10" stroke-dasharray=""/><path fill="none" stroke="rgb(0,0,0)" paint-order="fill" d="M 52.5 551.5 L 60.5 551.5 M 52.5 446.5 L 60.5 446.5 M 52.5 341.5 L 60.5 341.5 M 52.5 235.5 L 60.5 235.5 M 52.5 130.5 L 60.5 130.5" stroke-opacity="1" stroke-linejoin="bevel" stroke-miterlimit="10" stroke-dasharray=""/><path fill="none" stroke="rgb(0,0,0)" paint-order="fill" d="M 54.5 572.5 L 58.5 572.5 M 54.5 593.5 L 58.5 593.5 M 54.5 614.5 L 58.5 614.5 M 54.5 551.5 L 58.5 551.5 M 54.5 530.5 L 58.5 530.5 M 54.5 509.5 L 58.5 509.5 M 54.5 488.5 L 58.5 488.5 M 54.5 467.5 L 58.5 467.5 M 54.5 446.5 L 58.5 446.5 M 54.5 425.5 L 58.5 425.5 M 54.5 404.5 L 58.5 404.5 M 54.5 383.5 L 58.5 383.5 M 54.5 362.5 L 58.5 362.5 M 54.5 341.5 L 58.5 341.5 M 54.5 319.5 L 58.5 319.5 M 54.5 298.5 L 58.5 298.5 M 54.5 277.5 L 58.5 277.5 M 54.5 256.5 L 58.5 256.5 M 54.5 235.5 L 58.5 235.5 M 54.5 214.5 L 58.5 214.5 M 54.5 193.5 L 58.5 193.5 M 54.5 172.5 L 58.5 172.5 M 54.5 151.5 L 58.5 151.5 M 54.5 130.5 L 58.5 130.5 M 54.5 109.5 L 58.5 109.5 M 54.5 88.5 L 58.5 88.5 M 54.5 67.5 L 58.5 67.5" stroke-opacity="1" stroke-linejoin="bevel" stroke-miterlimit="10" stroke-dasharray=""/><text fill="rgb(68,68,68)" stroke="none" font-family="helvetica" font-size="11px" font-style="normal" font-weight="normal" text-decoration="normal" x="34.46666622161865" y="554.9905395507812" text-anchor="start" dominant-baseline="alphabetic" transform="matrix(1, 0, 0, 1, 0.5, 0.5)" fill-opacity="1">−2</text><text fill="rgb(68,68,68)" stroke="none" font-family="helvetica" font-size="11px" font-style="normal" font-weight="normal" text-decoration="normal" x="34.46666622161865" y="449.7178039550781" text-anchor="start" dominant-baseline="alphabetic" transform="matrix(1, 0, 0, 1, 0.5, 0.5)" fill-opacity="1">−1</text><text fill="rgb(68,68,68)" stroke="none" font-family="helvetica" font-size="11px" font-style="normal" font-weight="normal" text-decoration="normal" x="40.88333320617676" y="344.445068359375" text-anchor="start" dominant-baseline="alphabetic" transform="matrix(1, 0, 0, 1, 0.5, 0.5)" fill-opacity="1">0</text><text fill="rgb(68,68,68)" stroke="none" font-family="helvetica" font-size="11px" font-style="normal" font-weight="normal" text-decoration="normal" x="40.88333320617676" y="239.17234802246094" text-anchor="start" dominant-baseline="alphabetic" transform="matrix(1, 0, 0, 1, 0.5, 0.5)" fill-opacity="1">1</text><text fill="rgb(68,68,68)" stroke="none" font-family="helvetica" font-size="11px" font-style="normal" font-weight="normal" text-decoration="normal" x="40.88333320617676" y="133.8996124267578" text-anchor="start" dominant-baseline="alphabetic" transform="matrix(1, 0, 0, 1, 0.5, 0.5)" fill-opacity="1">2</text><text fill="rgb(68,68,68)" stroke="none" font-family="helvetica" font-size="15pt" font-style="italic" font-weight="normal" text-decoration="normal" x="-11.316666603088379" y="336.076171875" text-anchor="start" dominant-baseline="alphabetic" transform="matrix(6.123233995736766e-17, -1, 1, 6.123233995736766e-17, -313.53333377838135, 367.46666622161865)" fill-opacity="1">students</text><path fill="rgb(255,255,255)" stroke="rgb(229,229,229)" paint-order="fill" d="M 1128.2333374023438 61.5 L 1326.5 61.5 L 1326.5 400.5 L 1128.2333374023438 400.5 L 1128.2333374023438 61.5" fill-opacity="0.9490196078431372" clip-path="url(#TlWODKsWKhWe)" stroke-opacity="0.5019607843137255" stroke-linejoin="bevel" stroke-miterlimit="10" stroke-dasharray=""/><g clip-path="url(#TlWODKsWKhWe)"><text fill="rgb(68,68,68)" stroke="none" font-family="helvetica" font-size="13px" font-style="normal" font-weight="normal" text-decoration="normal" x="1162.7333374023438" y="81" text-anchor="start" dominant-baseline="central" transform="matrix(1, 0, 0, 1, 0.5, 0.5)" fill-opacity="1">wavelength</text></g><path fill="rgb(0,255,40)" stroke="none" paint-order="stroke" d="M 1140.2333374023438 73.5 L 1156.2333374023438 73.5 L 1156.2333374023438 89.5 L 1140.2333374023438 89.5 L 1140.2333374023438 73.5" fill-opacity="1" clip-path="url(#TlWODKsWKhWe)"/><g clip-path="url(#TlWODKsWKhWe)"><text fill="rgb(68,68,68)" stroke="none" font-family="helvetica" font-size="13px" font-style="normal" font-weight="normal" text-decoration="normal" x="1162.7333374023438" y="104" text-anchor="start" dominant-baseline="central" transform="matrix(1, 0, 0, 1, 0.5, 0.5)" fill-opacity="1">solution</text></g><path fill="rgb(251,0,7)" stroke="none" paint-order="stroke" d="M 1140.2333374023438 96.5 L 1156.2333374023438 96.5 L 1156.2333374023438 112.5 L 1140.2333374023438 112.5 L 1140.2333374023438 96.5" fill-opacity="1" clip-path="url(#TlWODKsWKhWe)"/><path fill="rgb(33,131,128)" stroke="none" paint-order="stroke" d="M 1140.2333374023438 96.5 L 1156.2333374023438 96.5 L 1156.2333374023438 112.5 L 1140.2333374023438 112.5 L 1140.2333374023438 96.5" fill-opacity="1" clip-path="url(#TlWODKsWKhWe)"/><g clip-path="url(#TlWODKsWKhWe)"><text fill="rgb(68,68,68)" stroke="none" font-family="helvetica" font-size="13px" font-style="normal" font-weight="normal" text-decoration="normal" x="1162.7333374023438" y="127" text-anchor="start" dominant-baseline="central" transform="matrix(1, 0, 0, 1, 0.5, 0.5)" fill-opacity="1">laser</text></g><path fill="rgb(105,29,48)" stroke="none" paint-order="stroke" d="M 1140.2333374023438 119.5 L 1156.2333374023438 119.5 L 1156.2333374023438 135.5 L 1140.2333374023438 135.5 L 1140.2333374023438 119.5" fill-opacity="1" clip-path="url(#TlWODKsWKhWe)"/><g clip-path="url(#TlWODKsWKhWe)"><text fill="rgb(68,68,68)" stroke="none" font-family="helvetica" font-size="13px" font-style="normal" font-weight="normal" text-decoration="normal" x="1162.7333374023438" y="150" text-anchor="start" dominant-baseline="central" transform="matrix(1, 0, 0, 1, 0.5, 0.5)" fill-opacity="1">ruler</text></g><path fill="rgb(255,188,66)" stroke="none" paint-order="stroke" d="M 1140.2333374023438 142.5 L 1156.2333374023438 142.5 L 1156.2333374023438 158.5 L 1140.2333374023438 158.5 L 1140.2333374023438 142.5" fill-opacity="1" clip-path="url(#TlWODKsWKhWe)"/><g clip-path="url(#TlWODKsWKhWe)"><text fill="rgb(68,68,68)" stroke="none" font-family="helvetica" font-size="13px" font-style="normal" font-weight="normal" text-decoration="normal" x="1162.7333374023438" y="173" text-anchor="start" dominant-baseline="central" transform="matrix(1, 0, 0, 1, 0.5, 0.5)" fill-opacity="1">restarts</text></g><g clip-path="url(#TlWODKsWKhWe)"><text fill="rgb(68,68,68)" stroke="none" font-family="helvetica" font-size="13px" font-style="normal" font-weight="normal" text-decoration="normal" x="1162.7333374023438" y="196" text-anchor="start" dominant-baseline="central" transform="matrix(1, 0, 0, 1, 0.5, 0.5)" fill-opacity="1">transmittance_absorbance</text></g><path fill="rgb(162,174,187)" stroke="none" paint-order="stroke" d="M 1140.2333374023438 188.5 L 1156.2333374023438 188.5 L 1156.2333374023438 204.5 L 1140.2333374023438 204.5 L 1140.2333374023438 188.5" fill-opacity="1" clip-path="url(#TlWODKsWKhWe)"/><g clip-path="url(#TlWODKsWKhWe)"><text fill="rgb(68,68,68)" stroke="none" font-family="helvetica" font-size="13px" font-style="normal" font-weight="normal" text-decoration="normal" x="1162.7333374023438" y="219" text-anchor="start" dominant-baseline="central" transform="matrix(1, 0, 0, 1, 0.5, 0.5)" fill-opacity="1">magnifier</text></g><path fill="rgb(255,188,66)" stroke="none" paint-order="stroke" d="M 1140.2333374023438 211.5 L 1156.2333374023438 211.5 L 1156.2333374023438 227.5 L 1140.2333374023438 227.5 L 1140.2333374023438 211.5" fill-opacity="1" clip-path="url(#TlWODKsWKhWe)"/><g clip-path="url(#TlWODKsWKhWe)"><text fill="rgb(68,68,68)" stroke="none" font-family="helvetica" font-size="13px" font-style="normal" font-weight="normal" text-decoration="normal" x="1162.7333374023438" y="242" text-anchor="start" dominant-baseline="central" transform="matrix(1, 0, 0, 1, 0.5, 0.5)" fill-opacity="1">concentration</text></g><path fill="rgb(115,210,222)" stroke="none" paint-order="stroke" d="M 1140.2333374023438 234.5 L 1156.2333374023438 234.5 L 1156.2333374023438 250.5 L 1140.2333374023438 250.5 L 1140.2333374023438 234.5" fill-opacity="1" clip-path="url(#TlWODKsWKhWe)"/><g clip-path="url(#TlWODKsWKhWe)"><text fill="rgb(68,68,68)" stroke="none" font-family="helvetica" font-size="13px" font-style="normal" font-weight="normal" text-decoration="normal" x="1162.7333374023438" y="265" text-anchor="start" dominant-baseline="central" transform="matrix(1, 0, 0, 1, 0.5, 0.5)" fill-opacity="1">flask</text></g><path fill="rgb(28,49,68)" stroke="none" paint-order="stroke" d="M 1140.2333374023438 257.5 L 1156.2333374023438 257.5 L 1156.2333374023438 273.5 L 1140.2333374023438 273.5 L 1140.2333374023438 257.5" fill-opacity="1" clip-path="url(#TlWODKsWKhWe)"/><g clip-path="url(#TlWODKsWKhWe)"><text fill="rgb(68,68,68)" stroke="none" font-family="helvetica" font-size="13px" font-style="normal" font-weight="normal" text-decoration="normal" x="1162.7333374023438" y="288" text-anchor="start" dominant-baseline="central" transform="matrix(1, 0, 0, 1, 0.5, 0.5)" fill-opacity="1">pdf</text></g><path fill="rgb(239,185,203)" stroke="none" paint-order="stroke" d="M 1140.2333374023438 280.5 L 1156.2333374023438 280.5 L 1156.2333374023438 296.5 L 1140.2333374023438 296.5 L 1140.2333374023438 280.5" fill-opacity="1" clip-path="url(#TlWODKsWKhWe)"/><g clip-path="url(#TlWODKsWKhWe)"><text fill="rgb(68,68,68)" stroke="none" font-family="helvetica" font-size="13px" font-style="normal" font-weight="normal" text-decoration="normal" x="1162.7333374023438" y="311" text-anchor="start" dominant-baseline="central" transform="matrix(1, 0, 0, 1, 0.5, 0.5)" fill-opacity="1">concentrationlab</text></g><g clip-path="url(#TlWODKsWKhWe)"><text fill="rgb(68,68,68)" stroke="none" font-family="helvetica" font-size="13px" font-style="normal" font-weight="normal" text-decoration="normal" x="1162.7333374023438" y="334" text-anchor="start" dominant-baseline="central" transform="matrix(1, 0, 0, 1, 0.5, 0.5)" fill-opacity="1">wavelength_slider</text></g><g clip-path="url(#TlWODKsWKhWe)"><text fill="rgb(68,68,68)" stroke="none" font-family="helvetica" font-size="13px" font-style="normal" font-weight="normal" text-decoration="normal" x="1162.7333374023438" y="357" text-anchor="start" dominant-baseline="central" transform="matrix(1, 0, 0, 1, 0.5, 0.5)" fill-opacity="1">ruler measuring</text></g><path fill="rgb(255,188,66)" stroke="none" paint-order="stroke" d="M 1140.2333374023438 349.5 L 1156.2333374023438 349.5 L 1156.2333374023438 365.5 L 1140.2333374023438 365.5 L 1140.2333374023438 349.5" fill-opacity="1" clip-path="url(#TlWODKsWKhWe)"/><g clip-path="url(#TlWODKsWKhWe)"><text fill="rgb(68,68,68)" stroke="none" font-family="helvetica" font-size="13px" font-style="normal" font-weight="normal" text-decoration="normal" x="1162.7333374023438" y="380" text-anchor="start" dominant-baseline="central" transform="matrix(1, 0, 0, 1, 0.5, 0.5)" fill-opacity="1">dependent variable</text></g><path fill="rgb(143,45,86)" stroke="none" paint-order="stroke" d="M 1140.2333374023438 372.5 L 1156.2333374023438 372.5 L 1156.2333374023438 388.5 L 1140.2333374023438 388.5 L 1140.2333374023438 372.5" fill-opacity="1" clip-path="url(#TlWODKsWKhWe)"/><text fill="rgb(68,68,68)" stroke="none" font-family="helvetica" font-size="25pt" font-style="normal" font-weight="bold" text-decoration="normal" x="58" y="38.740885416666664" text-anchor="start" dominant-baseline="alphabetic" transform="matrix(1, 0, 0, 1, 0.5, 0.5)" fill-opacity="1">Timeline for student dmdc53tx with permutation 3012 for task 2</text></svg>