<svg version="1.1" xmlns="http://www.w3.org/2000/svg" width="1366" height="683"><defs><clipPath id="itglwUDZOMgn"><path fill="none" stroke="none" d="M 58.5 51.5 L 1336.5 51.5 L 1336.5 630.5 L 58.5 630.5 L 58.5 51.5"/></clipPath><clipPath id="ObeeacOZoJRa"><path fill="none" stroke="none" d="M 58.5 51.5 L 1336.5 51.5 L 1336.5 630.5 L 58.5 630.5 L 58.5 51.5"/></clipPath><clipPath id="EgrEQZVbpJkz"><path fill="none" stroke="none" d="M 58.5 51.5 L 1336.5 51.5 L 1336.5 630.5 L 58.5 630.5 L 58.5 51.5"/></clipPath><clipPath id="QtCrCQTrxcJP"><path fill="none" stroke="none" d="M 58.5 51.5 L 1336.5 51.5 L 1336.5 630.5 L 58.5 630.5 L 58.5 51.5"/></clipPath><clipPath id="lsKSdcMFfiUD"><path fill="none" stroke="none" d="M 58.5 51.5 L 1336.5 51.5 L 1336.5 630.5 L 58.5 630.5 L 58.5 51.5"/></clipPath><clipPath id="RbTvSgdWrVnV"><path fill="none" stroke="none" d="M 58.5 51.5 L 1336.5 51.5 L 1336.5 630.5 L 58.5 630.5 L 58.5 51.5"/></clipPath><clipPath id="MTtWetWFwVWD"><path fill="none" stroke="none" d="M 58.5 51.5 L 1336.5 51.5 L 1336.5 630.5 L 58.5 630.5 L 58.5 51.5"/></clipPath><clipPath id="GiCJOQWrtFoP"><path fill="none" stroke="none" d="M 58.5 51.5 L 1336.5 51.5 L 1336.5 630.5 L 58.5 630.5 L 58.5 51.5"/></clipPath><clipPath id="TIMfqDSXhIOR"><path fill="none" stroke="none" d="M 58.5 51.5 L 1336.5 51.5 L 1336.5 630.5 L 58.5 630.5 L 58.5 51.5"/></clipPath><clipPath id="OPfcoZUEAuLV"><path fill="none" stroke="none" d="M 58.5 51.5 L 1336.5 51.5 L 1336.5 630.5 L 58.5 630.5 L 58.5 51.5"/></clipPath><clipPath id="LULZBAOmTLAC"><path fill="none" stroke="none" d="M 58.5 51.5 L 1336.5 51.5 L 1336.5 630.5 L 58.5 630.5 L 58.5 51.5"/></clipPath><clipPath id="DcVsgfzlLMeL"><path fill="none" stroke="none" d="M 58.5 51.5 L 1336.5 51.5 L 1336.5 630.5 L 58.5 630.5 L 58.5 51.5"/></clipPath><clipPath id="ukGJOIWhyfoh"><path fill="none" stroke="none" d="M 58.5 51.5 L 1336.5 51.5 L 1336.5 630.5 L 58.5 630.5 L 58.5 51.5"/></clipPath><clipPath id="nODAvDfBwyem"><path fill="none" stroke="none" d="M 58.5 51.5 L 1336.5 51.5 L 1336.5 630.5 L 58.5 630.5 L 58.5 51.5"/></clipPath><clipPath id="vLmQuiayVzRU"><path fill="none" stroke="none" d="M 58.5 51.5 L 1336.5 51.5 L 1336.5 630.5 L 58.5 630.5 L 58.5 51.5"/></clipPath><clipPath id="hhnhyuPTvAOi"><path fill="none" stroke="none" d="M 58.5 51.5 L 1336.5 51.5 L 1336.5 630.5 L 58.5 630.5 L 58.5 51.5"/></clipPath><clipPath id="exmdciwniDpZ"><path fill="none" stroke="none" d="M 58.5 51.5 L 1336.5 51.5 L 1336.5 630.5 L 58.5 630.5 L 58.5 51.5"/></clipPath><clipPath id="cHEtyonfgvJG"><path fill="none" stroke="none" d="M 58.5 51.5 L 1336.5 51.5 L 1336.5 630.5 L 58.5 630.5 L 58.5 51.5"/></clipPath><clipPath id="xsrKmELvQeTp"><path fill="none" stroke="none" d="M 58.5 51.5 L 1336.5 51.5 L 1336.5 630.5 L 58.5 630.5 L 58.5 51.5"/></clipPath><clipPath id="mcxNeDgdUoni"><path fill="none" stroke="none" d="M 58.5 51.5 L 1336.5 51.5 L 1336.5 630.5 L 58.5 630.5 L 58.5 51.5"/></clipPath><clipPath id="KZpJOiQzQxHh"><path fill="none" stroke="none" d="M 58.5 51.5 L 1336.5 51.5 L 1336.5 630.5 L 58.5 630.5 L 58.5 51.5"/></clipPath></defs><path fill="rgb(255,255,255)" stroke="none" paint-order="stroke" d="M 0.5 0.5 L 1366.5 0.5 L 1366.5 683.5 L 0.5 683.5 L 0.5 0.5" fill-opacity="1"/><rect fill="#FFFFFF" stroke="none" x="58" y="51" width="1278" height="579" transform="matrix(1, 0, 0, 1, 0.5, 0.5)"/><path fill="rgb(255,255,255)" stroke="none" paint-order="stroke" d="M 58.5 51.5 L 1336.5 51.5 L 1336.5 630.5 L 58.5 630.5 L 58.5 51.5" fill-opacity="1"/><path fill="none" stroke="rgb(229,229,229)" paint-order="fill" d="M 58.5 51.5 L 1336.5 51.5 L 1336.5 630.5 L 58.5 630.5 L 58.5 51.5" stroke-opacity="1" stroke-linejoin="bevel" stroke-miterlimit="10" stroke-dasharray=""/><path fill="none" stroke="rgb(229,229,229)" paint-order="fill" d="M 314.5 630.5 L 314.5 51.5 M 569.5 630.5 L 569.5 51.5 M 825.5 630.5 L 825.5 51.5 M 1080.5 630.5 L 1080.5 51.5" stroke-opacity="1" stroke-linejoin="bevel" stroke-miterlimit="10" stroke-dasharray="" clip-path="url(#itglwUDZOMgn)"/><path fill="none" stroke="rgb(229,229,229)" paint-order="fill" d="M 58.5 551.5 L 1336.5 551.5 M 58.5 446.5 L 1336.5 446.5 M 58.5 341.5 L 1336.5 341.5 M 58.5 235.5 L 1336.5 235.5 M 58.5 130.5 L 1336.5 130.5" stroke-opacity="1" stroke-linejoin="bevel" stroke-miterlimit="10" stroke-dasharray="" clip-path="url(#ObeeacOZoJRa)"/><path fill="rgb(0,255,40)" stroke="none" paint-order="stroke" d="M 58.5 77.81818389892578 L 144.43016052246094 77.81818389892578 L 144.43016052246094 130.45454788208008 L 58.5 130.45454788208008 L 58.5 77.81818389892578" fill-opacity="1" clip-path="url(#EgrEQZVbpJkz)"/><path fill="rgb(8,255,0)" stroke="none" paint-order="stroke" d="M 144.43016052246094 77.81818389892578 L 144.45188652165234 77.81818389892578 L 144.45188652165234 130.45454788208008 L 144.43016052246094 130.45454788208008 L 144.43016052246094 77.81818389892578" fill-opacity="1" clip-path="url(#EgrEQZVbpJkz)"/><path fill="rgb(25,255,0)" stroke="none" paint-order="stroke" d="M 144.45188903808594 77.81818389892578 L 144.49406303837895 77.81818389892578 L 144.49406303837895 130.45454788208008 L 144.45188903808594 130.45454788208008 L 144.45188903808594 77.81818389892578" fill-opacity="1" clip-path="url(#EgrEQZVbpJkz)"/><path fill="rgb(40,255,0)" stroke="none" paint-order="stroke" d="M 144.4940643310547 77.81818389892578 L 144.5157903302461 77.81818389892578 L 144.5157903302461 130.45454788208008 L 144.4940643310547 130.45454788208008 L 144.4940643310547 77.81818389892578" fill-opacity="1" clip-path="url(#EgrEQZVbpJkz)"/><path fill="rgb(66,255,0)" stroke="none" paint-order="stroke" d="M 144.5157928466797 77.81818389892578 L 144.5375188458711 77.81818389892578 L 144.5375188458711 130.45454788208008 L 144.5157928466797 130.45454788208008 L 144.5157928466797 77.81818389892578" fill-opacity="1" clip-path="url(#EgrEQZVbpJkz)"/><path fill="rgb(78,255,0)" stroke="none" paint-order="stroke" d="M 144.5375213623047 77.81818389892578 L 144.5592473614961 77.81818389892578 L 144.5592473614961 130.45454788208008 L 144.5375213623047 130.45454788208008 L 144.5375213623047 77.81818389892578" fill-opacity="1" clip-path="url(#EgrEQZVbpJkz)"/><path fill="rgb(89,255,0)" stroke="none" paint-order="stroke" d="M 144.55923461914062 77.81818389892578 L 144.5796826183796 77.81818389892578 L 144.5796826183796 130.45454788208008 L 144.55923461914062 130.45454788208008 L 144.55923461914062 77.81818389892578" fill-opacity="1" clip-path="url(#EgrEQZVbpJkz)"/><path fill="rgb(101,255,0)" stroke="none" paint-order="stroke" d="M 144.57969665527344 77.81818389892578 L 144.60142265446484 77.81818389892578 L 144.60142265446484 130.45454788208008 L 144.57969665527344 130.45454788208008 L 144.57969665527344 77.81818389892578" fill-opacity="1" clip-path="url(#EgrEQZVbpJkz)"/><path fill="rgb(115,255,0)" stroke="none" paint-order="stroke" d="M 144.60140991210938 77.81818389892578 L 144.62313591130078 77.81818389892578 L 144.62313591130078 130.45454788208008 L 144.60140991210938 130.45454788208008 L 144.60140991210938 77.81818389892578" fill-opacity="1" clip-path="url(#EgrEQZVbpJkz)"/><path fill="rgb(136,255,0)" stroke="none" paint-order="stroke" d="M 144.62313842773438 77.81818389892578 L 144.64358642697334 77.81818389892578 L 144.64358642697334 130.45454788208008 L 144.62313842773438 130.45454788208008 L 144.62313842773438 77.81818389892578" fill-opacity="1" clip-path="url(#EgrEQZVbpJkz)"/><path fill="rgb(146,255,0)" stroke="none" paint-order="stroke" d="M 144.64358520507812 77.81818389892578 L 144.66531120426953 77.81818389892578 L 144.66531120426953 130.45454788208008 L 144.64358520507812 130.45454788208008 L 144.64358520507812 77.81818389892578" fill-opacity="1" clip-path="url(#EgrEQZVbpJkz)"/><path fill="rgb(156,255,0)" stroke="none" paint-order="stroke" d="M 144.66531372070312 77.81818389892578 L 144.68703971989453 77.81818389892578 L 144.68703971989453 130.45454788208008 L 144.66531372070312 130.45454788208008 L 144.66531372070312 77.81818389892578" fill-opacity="1" clip-path="url(#EgrEQZVbpJkz)"/><path fill="rgb(166,255,0)" stroke="none" paint-order="stroke" d="M 144.68704223632812 77.81818389892578 L 144.7074902355671 77.81818389892578 L 144.7074902355671 130.45454788208008 L 144.68704223632812 130.45454788208008 L 144.68704223632812 77.81818389892578" fill-opacity="1" clip-path="url(#EgrEQZVbpJkz)"/><path fill="rgb(175,255,0)" stroke="none" paint-order="stroke" d="M 144.70748901367188 77.81818389892578 L 144.72921501286328 77.81818389892578 L 144.72921501286328 130.45454788208008 L 144.70748901367188 130.45454788208008 L 144.70748901367188 77.81818389892578" fill-opacity="1" clip-path="url(#EgrEQZVbpJkz)"/><path fill="rgb(185,255,0)" stroke="none" paint-order="stroke" d="M 144.72921752929688 77.81818389892578 L 144.7713915295899 77.81818389892578 L 144.7713915295899 130.45454788208008 L 144.72921752929688 130.45454788208008 L 144.72921752929688 77.81818389892578" fill-opacity="1" clip-path="url(#EgrEQZVbpJkz)"/><path fill="rgb(207,255,0)" stroke="none" paint-order="stroke" d="M 144.77139282226562 77.81818389892578 L 144.79311882145703 77.81818389892578 L 144.79311882145703 130.45454788208008 L 144.77139282226562 130.45454788208008 L 144.77139282226562 77.81818389892578" fill-opacity="1" clip-path="url(#EgrEQZVbpJkz)"/><path fill="rgb(216,255,0)" stroke="none" paint-order="stroke" d="M 144.79312133789062 77.81818389892578 L 144.81484733708203 77.81818389892578 L 144.81484733708203 130.45454788208008 L 144.79312133789062 130.45454788208008 L 144.79312133789062 77.81818389892578" fill-opacity="1" clip-path="url(#EgrEQZVbpJkz)"/><path fill="rgb(225,255,0)" stroke="none" paint-order="stroke" d="M 144.81483459472656 77.81818389892578 L 144.83528259396553 77.81818389892578 L 144.83528259396553 130.45454788208008 L 144.81483459472656 130.45454788208008 L 144.81483459472656 77.81818389892578" fill-opacity="1" clip-path="url(#EgrEQZVbpJkz)"/><path fill="rgb(243,255,0)" stroke="none" paint-order="stroke" d="M 144.83529663085938 77.81818389892578 L 144.85702263005078 77.81818389892578 L 144.85702263005078 130.45454788208008 L 144.83529663085938 130.45454788208008 L 144.83529663085938 77.81818389892578" fill-opacity="1" clip-path="url(#EgrEQZVbpJkz)"/><path fill="rgb(252,255,0)" stroke="none" paint-order="stroke" d="M 144.8570098876953 77.81818389892578 L 144.87873588688672 77.81818389892578 L 144.87873588688672 130.45454788208008 L 144.8570098876953 130.45454788208008 L 144.8570098876953 77.81818389892578" fill-opacity="1" clip-path="url(#EgrEQZVbpJkz)"/><path fill="rgb(255,248,0)" stroke="none" paint-order="stroke" d="M 144.8787384033203 77.81818389892578 L 144.89918640255928 77.81818389892578 L 144.89918640255928 130.45454788208008 L 144.8787384033203 130.45454788208008 L 144.8787384033203 77.81818389892578" fill-opacity="1" clip-path="url(#EgrEQZVbpJkz)"/><path fill="rgb(255,239,0)" stroke="none" paint-order="stroke" d="M 144.89918518066406 77.81818389892578 L 144.92091117985547 77.81818389892578 L 144.92091117985547 130.45454788208008 L 144.89918518066406 130.45454788208008 L 144.89918518066406 77.81818389892578" fill-opacity="1" clip-path="url(#EgrEQZVbpJkz)"/><path fill="rgb(255,216,0)" stroke="none" paint-order="stroke" d="M 144.92091369628906 77.81818389892578 L 144.94263969548047 77.81818389892578 L 144.94263969548047 130.45454788208008 L 144.92091369628906 130.45454788208008 L 144.92091369628906 77.81818389892578" fill-opacity="1" clip-path="url(#EgrEQZVbpJkz)"/><path fill="rgb(255,206,0)" stroke="none" paint-order="stroke" d="M 144.94264221191406 77.81818389892578 L 144.96309021115303 77.81818389892578 L 144.96309021115303 130.45454788208008 L 144.94264221191406 130.45454788208008 L 144.94264221191406 77.81818389892578" fill-opacity="1" clip-path="url(#EgrEQZVbpJkz)"/><path fill="rgb(255,186,0)" stroke="none" paint-order="stroke" d="M 144.9630889892578 77.81818389892578 L 144.98481498844922 77.81818389892578 L 144.98481498844922 130.45454788208008 L 144.9630889892578 130.45454788208008 L 144.9630889892578 77.81818389892578" fill-opacity="1" clip-path="url(#EgrEQZVbpJkz)"/><path fill="rgb(255,176,0)" stroke="none" paint-order="stroke" d="M 144.9848175048828 77.81818389892578 L 145.00654350407422 77.81818389892578 L 145.00654350407422 130.45454788208008 L 144.9848175048828 130.45454788208008 L 144.9848175048828 77.81818389892578" fill-opacity="1" clip-path="url(#EgrEQZVbpJkz)"/><path fill="rgb(255,165,0)" stroke="none" paint-order="stroke" d="M 145.0065460205078 77.81818389892578 L 145.02699401974678 77.81818389892578 L 145.02699401974678 130.45454788208008 L 145.0065460205078 130.45454788208008 L 145.0065460205078 77.81818389892578" fill-opacity="1" clip-path="url(#EgrEQZVbpJkz)"/><path fill="rgb(255,155,0)" stroke="none" paint-order="stroke" d="M 145.02699279785156 77.81818389892578 L 145.04871879704297 77.81818389892578 L 145.04871879704297 130.45454788208008 L 145.02699279785156 130.45454788208008 L 145.02699279785156 77.81818389892578" fill-opacity="1" clip-path="url(#EgrEQZVbpJkz)"/><path fill="rgb(255,144,0)" stroke="none" paint-order="stroke" d="M 145.04872131347656 77.81818389892578 L 145.13434731215239 77.81818389892578 L 145.13434731215239 130.45454788208008 L 145.04872131347656 130.45454788208008 L 145.04872131347656 77.81818389892578" fill-opacity="1" clip-path="url(#EgrEQZVbpJkz)"/><path fill="rgb(255,129,0)" stroke="none" paint-order="stroke" d="M 145.13433837890625 77.81818389892578 L 145.15478637814522 77.81818389892578 L 145.15478637814522 130.45454788208008 L 145.13433837890625 130.45454788208008 L 145.13433837890625 77.81818389892578" fill-opacity="1" clip-path="url(#EgrEQZVbpJkz)"/><path fill="rgb(255,118,0)" stroke="none" paint-order="stroke" d="M 145.15478515625 77.81818389892578 L 145.1765111554414 77.81818389892578 L 145.1765111554414 130.45454788208008 L 145.15478515625 130.45454788208008 L 145.15478515625 77.81818389892578" fill-opacity="1" clip-path="url(#EgrEQZVbpJkz)"/><path fill="rgb(255,95,0)" stroke="none" paint-order="stroke" d="M 145.176513671875 77.81818389892578 L 145.1982396710664 77.81818389892578 L 145.1982396710664 130.45454788208008 L 145.176513671875 130.45454788208008 L 145.176513671875 77.81818389892578" fill-opacity="1" clip-path="url(#EgrEQZVbpJkz)"/><path fill="rgb(255,83,0)" stroke="none" paint-order="stroke" d="M 145.1982421875 77.81818389892578 L 145.21869018673897 77.81818389892578 L 145.21869018673897 130.45454788208008 L 145.1982421875 130.45454788208008 L 145.1982421875 77.81818389892578" fill-opacity="1" clip-path="url(#EgrEQZVbpJkz)"/><path fill="rgb(255,57,0)" stroke="none" paint-order="stroke" d="M 145.21868896484375 77.81818389892578 L 145.27364296466112 77.81818389892578 L 145.27364296466112 130.45454788208008 L 145.21868896484375 130.45454788208008 L 145.21868896484375 77.81818389892578" fill-opacity="1" clip-path="url(#EgrEQZVbpJkz)"/><path fill="rgb(255,42,0)" stroke="none" paint-order="stroke" d="M 145.27365112304688 77.81818389892578 L 145.43340112268925 77.81818389892578 L 145.43340112268925 130.45454788208008 L 145.27365112304688 130.45454788208008 L 145.27365112304688 77.81818389892578" fill-opacity="1" clip-path="url(#EgrEQZVbpJkz)"/><path fill="rgb(255,27,0)" stroke="none" paint-order="stroke" d="M 145.4333953857422 77.81818389892578 L 145.49729538708925 77.81818389892578 L 145.49729538708925 130.45454788208008 L 145.4333953857422 130.45454788208008 L 145.4333953857422 77.81818389892578" fill-opacity="1" clip-path="url(#EgrEQZVbpJkz)"/><path fill="rgb(250,0,0)" stroke="none" paint-order="stroke" d="M 145.49729919433594 77.81818389892578 L 145.51902519352734 77.81818389892578 L 145.51902519352734 130.45454788208008 L 145.49729919433594 130.45454788208008 L 145.49729919433594 77.81818389892578" fill-opacity="1" clip-path="url(#EgrEQZVbpJkz)"/><path fill="rgb(246,0,0)" stroke="none" paint-order="stroke" d="M 145.51901245117188 77.81818389892578 L 145.53946045041084 77.81818389892578 L 145.53946045041084 130.45454788208008 L 145.51901245117188 130.45454788208008 L 145.51901245117188 77.81818389892578" fill-opacity="1" clip-path="url(#EgrEQZVbpJkz)"/><path fill="rgb(242,0,0)" stroke="none" paint-order="stroke" d="M 145.5394744873047 77.81818389892578 L 145.5612004864961 77.81818389892578 L 145.5612004864961 130.45454788208008 L 145.5394744873047 130.45454788208008 L 145.5394744873047 77.81818389892578" fill-opacity="1" clip-path="url(#EgrEQZVbpJkz)"/><path fill="rgb(238,0,0)" stroke="none" paint-order="stroke" d="M 145.56118774414062 77.81818389892578 L 145.5816357433796 77.81818389892578 L 145.5816357433796 130.45454788208008 L 145.56118774414062 130.45454788208008 L 145.56118774414062 77.81818389892578" fill-opacity="1" clip-path="url(#EgrEQZVbpJkz)"/><path fill="rgb(234,0,0)" stroke="none" paint-order="stroke" d="M 145.58163452148438 77.81818389892578 L 147.24431252479553 77.81818389892578 L 147.24431252479553 130.45454788208008 L 145.58163452148438 130.45454788208008 L 145.58163452148438 77.81818389892578" fill-opacity="1" clip-path="url(#EgrEQZVbpJkz)"/><path fill="rgb(239,0,0)" stroke="none" paint-order="stroke" d="M 147.24432373046875 77.81818389892578 L 147.26604972966015 77.81818389892578 L 147.26604972966015 130.45454788208008 L 147.24432373046875 130.45454788208008 L 147.24432373046875 77.81818389892578" fill-opacity="1" clip-path="url(#EgrEQZVbpJkz)"/><path fill="rgb(244,0,0)" stroke="none" paint-order="stroke" d="M 147.26605224609375 77.81818389892578 L 147.28777824528515 77.81818389892578 L 147.28777824528515 130.45454788208008 L 147.26605224609375 130.45454788208008 L 147.26605224609375 77.81818389892578" fill-opacity="1" clip-path="url(#EgrEQZVbpJkz)"/><path fill="rgb(248,0,0)" stroke="none" paint-order="stroke" d="M 147.2877655029297 77.81818389892578 L 147.30821350216866 77.81818389892578 L 147.30821350216866 130.45454788208008 L 147.2877655029297 130.45454788208008 L 147.2877655029297 77.81818389892578" fill-opacity="1" clip-path="url(#EgrEQZVbpJkz)"/><path fill="rgb(252,0,0)" stroke="none" paint-order="stroke" d="M 147.3082275390625 77.81818389892578 L 147.3299535382539 77.81818389892578 L 147.3299535382539 130.45454788208008 L 147.3082275390625 130.45454788208008 L 147.3082275390625 77.81818389892578" fill-opacity="1" clip-path="url(#EgrEQZVbpJkz)"/><path fill="rgb(255,27,0)" stroke="none" paint-order="stroke" d="M 147.32994079589844 77.81818389892578 L 147.35166679508984 77.81818389892578 L 147.35166679508984 130.45454788208008 L 147.32994079589844 130.45454788208008 L 147.32994079589844 77.81818389892578" fill-opacity="1" clip-path="url(#EgrEQZVbpJkz)"/><path fill="rgb(255,57,0)" stroke="none" paint-order="stroke" d="M 147.35166931152344 77.81818389892578 L 147.39384331181645 77.81818389892578 L 147.39384331181645 130.45454788208008 L 147.35166931152344 130.45454788208008 L 147.35166931152344 77.81818389892578" fill-opacity="1" clip-path="url(#EgrEQZVbpJkz)"/><path fill="rgb(255,87,0)" stroke="none" paint-order="stroke" d="M 147.3938446044922 77.81818389892578 L 147.4360186047852 77.81818389892578 L 147.4360186047852 130.45454788208008 L 147.3938446044922 130.45454788208008 L 147.3938446044922 77.81818389892578" fill-opacity="1" clip-path="url(#EgrEQZVbpJkz)"/><path fill="rgb(255,111,0)" stroke="none" paint-order="stroke" d="M 147.43601989746094 77.81818389892578 L 147.4603018965572 77.81818389892578 L 147.4603018965572 130.45454788208008 L 147.43601989746094 130.45454788208008 L 147.43601989746094 77.81818389892578" fill-opacity="1" clip-path="url(#EgrEQZVbpJkz)"/><path fill="rgb(255,144,0)" stroke="none" paint-order="stroke" d="M 147.46029663085938 77.81818389892578 L 147.4794666301459 77.81818389892578 L 147.4794666301459 130.45454788208008 L 147.46029663085938 130.45454788208008 L 147.46029663085938 77.81818389892578" fill-opacity="1" clip-path="url(#EgrEQZVbpJkz)"/><path fill="rgb(255,179,0)" stroke="none" paint-order="stroke" d="M 147.47947692871094 77.81818389892578 L 147.4999249279499 77.81818389892578 L 147.4999249279499 130.45454788208008 L 147.47947692871094 130.45454788208008 L 147.47947692871094 77.81818389892578" fill-opacity="1" clip-path="url(#EgrEQZVbpJkz)"/><path fill="rgb(255,219,0)" stroke="none" paint-order="stroke" d="M 147.4999237060547 77.81818389892578 L 147.5216497052461 77.81818389892578 L 147.5216497052461 130.45454788208008 L 147.4999237060547 130.45454788208008 L 147.4999237060547 77.81818389892578" fill-opacity="1" clip-path="url(#EgrEQZVbpJkz)"/><path fill="rgb(240,255,0)" stroke="none" paint-order="stroke" d="M 147.5216522216797 77.81818389892578 L 147.5433782208711 77.81818389892578 L 147.5433782208711 130.45454788208008 L 147.5216522216797 130.45454788208008 L 147.5216522216797 77.81818389892578" fill-opacity="1" clip-path="url(#EgrEQZVbpJkz)"/><path fill="rgb(222,255,0)" stroke="none" paint-order="stroke" d="M 147.54336547851562 77.81818389892578 L 147.5638134777546 77.81818389892578 L 147.5638134777546 130.45454788208008 L 147.54336547851562 130.45454788208008 L 147.54336547851562 77.81818389892578" fill-opacity="1" clip-path="url(#EgrEQZVbpJkz)"/><path fill="rgb(213,255,0)" stroke="none" paint-order="stroke" d="M 147.56382751464844 77.81818389892578 L 147.58555351383984 77.81818389892578 L 147.58555351383984 130.45454788208008 L 147.56382751464844 130.45454788208008 L 147.56382751464844 77.81818389892578" fill-opacity="1" clip-path="url(#EgrEQZVbpJkz)"/><path fill="rgb(204,255,0)" stroke="none" paint-order="stroke" d="M 147.58554077148438 77.81818389892578 L 147.6277147717774 77.81818389892578 L 147.6277147717774 130.45454788208008 L 147.58554077148438 130.45454788208008 L 147.58554077148438 77.81818389892578" fill-opacity="1" clip-path="url(#EgrEQZVbpJkz)"/><path fill="rgb(194,255,0)" stroke="none" paint-order="stroke" d="M 147.62771606445312 77.81818389892578 L 147.64944206364453 77.81818389892578 L 147.64944206364453 130.45454788208008 L 147.62771606445312 130.45454788208008 L 147.62771606445312 77.81818389892578" fill-opacity="1" clip-path="url(#EgrEQZVbpJkz)"/><path fill="rgb(185,255,0)" stroke="none" paint-order="stroke" d="M 147.64944458007812 77.81818389892578 L 147.69161858037114 77.81818389892578 L 147.69161858037114 130.45454788208008 L 147.64944458007812 130.45454788208008 L 147.64944458007812 77.81818389892578" fill-opacity="1" clip-path="url(#EgrEQZVbpJkz)"/><path fill="rgb(143,255,0)" stroke="none" paint-order="stroke" d="M 147.69161987304688 77.81818389892578 L 147.71334587223828 77.81818389892578 L 147.71334587223828 130.45454788208008 L 147.69161987304688 130.45454788208008 L 147.69161987304688 77.81818389892578" fill-opacity="1" clip-path="url(#EgrEQZVbpJkz)"/><path fill="rgb(78,255,0)" stroke="none" paint-order="stroke" d="M 147.71334838867188 77.81818389892578 L 147.73379638791084 77.81818389892578 L 147.73379638791084 130.45454788208008 L 147.71334838867188 130.45454788208008 L 147.71334838867188 77.81818389892578" fill-opacity="1" clip-path="url(#EgrEQZVbpJkz)"/><path fill="rgb(0,255,0)" stroke="none" paint-order="stroke" d="M 147.73379516601562 77.81818389892578 L 147.75552116520703 77.81818389892578 L 147.75552116520703 130.45454788208008 L 147.73379516601562 130.45454788208008 L 147.73379516601562 77.81818389892578" fill-opacity="1" clip-path="url(#EgrEQZVbpJkz)"/><path fill="rgb(0,255,97)" stroke="none" paint-order="stroke" d="M 147.75552368164062 77.81818389892578 L 147.77724968083203 77.81818389892578 L 147.77724968083203 130.45454788208008 L 147.75552368164062 130.45454788208008 L 147.75552368164062 77.81818389892578" fill-opacity="1" clip-path="url(#EgrEQZVbpJkz)"/><path fill="rgb(0,255,213)" stroke="none" paint-order="stroke" d="M 147.77725219726562 77.81818389892578 L 147.82070419564843 77.81818389892578 L 147.82070419564843 130.45454788208008 L 147.77725219726562 130.45454788208008 L 147.77725219726562 77.81818389892578" fill-opacity="1" clip-path="url(#EgrEQZVbpJkz)"/><path fill="rgb(0,255,244)" stroke="none" paint-order="stroke" d="M 147.82069396972656 77.81818389892578 L 147.84114196896553 77.81818389892578 L 147.84114196896553 130.45454788208008 L 147.82069396972656 130.45454788208008 L 147.82069396972656 77.81818389892578" fill-opacity="1" clip-path="url(#EgrEQZVbpJkz)"/><path fill="rgb(0,246,255)" stroke="none" paint-order="stroke" d="M 147.8411407470703 77.81818389892578 L 147.88459274545312 77.81818389892578 L 147.88459274545312 130.45454788208008 L 147.8411407470703 130.45454788208008 L 147.8411407470703 77.81818389892578" fill-opacity="1" clip-path="url(#EgrEQZVbpJkz)"/><path fill="rgb(0,234,255)" stroke="none" paint-order="stroke" d="M 147.8845977783203 77.81818389892578 L 147.90504577755928 77.81818389892578 L 147.90504577755928 130.45454788208008 L 147.8845977783203 130.45454788208008 L 147.8845977783203 77.81818389892578" fill-opacity="1" clip-path="url(#EgrEQZVbpJkz)"/><path fill="rgb(0,209,255)" stroke="none" paint-order="stroke" d="M 147.90504455566406 77.81818389892578 L 147.92677055485547 77.81818389892578 L 147.92677055485547 130.45454788208008 L 147.90504455566406 130.45454788208008 L 147.90504455566406 77.81818389892578" fill-opacity="1" clip-path="url(#EgrEQZVbpJkz)"/><path fill="rgb(0,182,255)" stroke="none" paint-order="stroke" d="M 147.92677307128906 77.81818389892578 L 147.94849907048047 77.81818389892578 L 147.94849907048047 130.45454788208008 L 147.92677307128906 130.45454788208008 L 147.92677307128906 77.81818389892578" fill-opacity="1" clip-path="url(#EgrEQZVbpJkz)"/><path fill="rgb(0,122,255)" stroke="none" paint-order="stroke" d="M 147.94850158691406 77.81818389892578 L 147.96894958615303 77.81818389892578 L 147.96894958615303 130.45454788208008 L 147.94850158691406 130.45454788208008 L 147.94850158691406 77.81818389892578" fill-opacity="1" clip-path="url(#EgrEQZVbpJkz)"/><path fill="rgb(0,75,255)" stroke="none" paint-order="stroke" d="M 147.9689483642578 77.81818389892578 L 147.99195236340165 77.81818389892578 L 147.99195236340165 130.45454788208008 L 147.9689483642578 130.45454788208008 L 147.9689483642578 77.81818389892578" fill-opacity="1" clip-path="url(#EgrEQZVbpJkz)"/><path fill="rgb(0,58,255)" stroke="none" paint-order="stroke" d="M 147.991943359375 77.81818389892578 L 148.01111335866153 77.81818389892578 L 148.01111335866153 130.45454788208008 L 147.991943359375 130.45454788208008 L 147.991943359375 77.81818389892578" fill-opacity="1" clip-path="url(#EgrEQZVbpJkz)"/><path fill="rgb(0,40,255)" stroke="none" paint-order="stroke" d="M 148.01112365722656 77.81818389892578 L 148.03284965641797 77.81818389892578 L 148.03284965641797 130.45454788208008 L 148.01112365722656 130.45454788208008 L 148.01112365722656 77.81818389892578" fill-opacity="1" clip-path="url(#EgrEQZVbpJkz)"/><path fill="rgb(0,11,255)" stroke="none" paint-order="stroke" d="M 148.03285217285156 77.81818389892578 L 148.07630417123437 77.81818389892578 L 148.07630417123437 130.45454788208008 L 148.03285217285156 130.45454788208008 L 148.03285217285156 77.81818389892578" fill-opacity="1" clip-path="url(#EgrEQZVbpJkz)"/><path fill="rgb(16,0,250)" stroke="none" paint-order="stroke" d="M 148.0762939453125 77.81818389892578 L 148.1823679432273 77.81818389892578 L 148.1823679432273 130.45454788208008 L 148.0762939453125 130.45454788208008 L 148.0762939453125 77.81818389892578" fill-opacity="1" clip-path="url(#EgrEQZVbpJkz)"/><path fill="rgb(33,0,243)" stroke="none" paint-order="stroke" d="M 148.182373046875 77.81818389892578 L 148.3318990468979 77.81818389892578 L 148.3318990468979 130.45454788208008 L 148.182373046875 130.45454788208008 L 148.182373046875 77.81818389892578" fill-opacity="1" clip-path="url(#EgrEQZVbpJkz)"/><path fill="rgb(47,0,235)" stroke="none" paint-order="stroke" d="M 148.33189392089844 77.81818389892578 L 148.3523419201374 77.81818389892578 L 148.3523419201374 130.45454788208008 L 148.33189392089844 130.45454788208008 L 148.33189392089844 77.81818389892578" fill-opacity="1" clip-path="url(#EgrEQZVbpJkz)"/><path fill="rgb(58,0,228)" stroke="none" paint-order="stroke" d="M 148.3523406982422 77.81818389892578 L 148.395792696625 77.81818389892578 L 148.395792696625 130.45454788208008 L 148.3523406982422 130.45454788208008 L 148.3523406982422 77.81818389892578" fill-opacity="1" clip-path="url(#EgrEQZVbpJkz)"/><path fill="rgb(77,0,213)" stroke="none" paint-order="stroke" d="M 148.3957977294922 77.81818389892578 L 148.41624572873116 77.81818389892578 L 148.41624572873116 130.45454788208008 L 148.3957977294922 130.45454788208008 L 148.3957977294922 77.81818389892578" fill-opacity="1" clip-path="url(#EgrEQZVbpJkz)"/><path fill="rgb(85,0,206)" stroke="none" paint-order="stroke" d="M 148.41624450683594 77.81818389892578 L 148.45969650521874 77.81818389892578 L 148.45969650521874 130.45454788208008 L 148.41624450683594 130.45454788208008 L 148.41624450683594 77.81818389892578" fill-opacity="1" clip-path="url(#EgrEQZVbpJkz)"/><path fill="rgb(92,0,198)" stroke="none" paint-order="stroke" d="M 148.45970153808594 77.81818389892578 L 148.4801495373249 77.81818389892578 L 148.4801495373249 130.45454788208008 L 148.45970153808594 130.45454788208008 L 148.45970153808594 77.81818389892578" fill-opacity="1" clip-path="url(#EgrEQZVbpJkz)"/><path fill="rgb(99,0,188)" stroke="none" paint-order="stroke" d="M 148.4801483154297 77.81818389892578 L 148.79964831471443 77.81818389892578 L 148.79964831471443 130.45454788208008 L 148.4801483154297 130.45454788208008 L 148.4801483154297 77.81818389892578" fill-opacity="1" clip-path="url(#EgrEQZVbpJkz)"/><path fill="rgb(92,0,198)" stroke="none" paint-order="stroke" d="M 148.79965209960938 77.81818389892578 L 148.82137809880078 77.81818389892578 L 148.82137809880078 130.45454788208008 L 148.79965209960938 130.45454788208008 L 148.79965209960938 77.81818389892578" fill-opacity="1" clip-path="url(#EgrEQZVbpJkz)"/><path fill="rgb(77,0,213)" stroke="none" paint-order="stroke" d="M 148.8213653564453 77.81818389892578 L 148.86353935673833 77.81818389892578 L 148.86353935673833 130.45454788208008 L 148.8213653564453 130.45454788208008 L 148.8213653564453 77.81818389892578" fill-opacity="1" clip-path="url(#EgrEQZVbpJkz)"/><path fill="rgb(69,0,221)" stroke="none" paint-order="stroke" d="M 148.86354064941406 77.81818389892578 L 148.88526664860547 77.81818389892578 L 148.88526664860547 130.45454788208008 L 148.86354064941406 130.45454788208008 L 148.86354064941406 77.81818389892578" fill-opacity="1" clip-path="url(#EgrEQZVbpJkz)"/><path fill="rgb(58,0,228)" stroke="none" paint-order="stroke" d="M 148.88526916503906 77.81818389892578 L 148.90699516423047 77.81818389892578 L 148.90699516423047 130.45454788208008 L 148.88526916503906 130.45454788208008 L 148.88526916503906 77.81818389892578" fill-opacity="1" clip-path="url(#EgrEQZVbpJkz)"/><path fill="rgb(47,0,235)" stroke="none" paint-order="stroke" d="M 148.90699768066406 77.81818389892578 L 148.92744567990303 77.81818389892578 L 148.92744567990303 130.45454788208008 L 148.90699768066406 130.45454788208008 L 148.90699768066406 77.81818389892578" fill-opacity="1" clip-path="url(#EgrEQZVbpJkz)"/><path fill="rgb(33,0,243)" stroke="none" paint-order="stroke" d="M 148.9274444580078 77.81818389892578 L 148.97089645639062 77.81818389892578 L 148.97089645639062 130.45454788208008 L 148.9274444580078 130.45454788208008 L 148.9274444580078 77.81818389892578" fill-opacity="1" clip-path="url(#EgrEQZVbpJkz)"/><path fill="rgb(16,0,250)" stroke="none" paint-order="stroke" d="M 148.9709014892578 77.81818389892578 L 149.0335234925151 77.81818389892578 L 149.0335234925151 130.45454788208008 L 148.9709014892578 130.45454788208008 L 148.9709014892578 77.81818389892578" fill-opacity="1" clip-path="url(#EgrEQZVbpJkz)"/><path fill="rgb(0,11,255)" stroke="none" paint-order="stroke" d="M 149.0335235595703 77.81818389892578 L 149.11914955824614 77.81818389892578 L 149.11914955824614 130.45454788208008 L 149.0335235595703 130.45454788208008 L 149.0335235595703 77.81818389892578" fill-opacity="1" clip-path="url(#EgrEQZVbpJkz)"/><path fill="rgb(0,40,255)" stroke="none" paint-order="stroke" d="M 149.119140625 77.81818389892578 L 154.06244468688965 77.81818389892578 L 154.06244468688965 130.45454788208008 L 149.119140625 130.45454788208008 L 149.119140625 77.81818389892578" fill-opacity="1" clip-path="url(#EgrEQZVbpJkz)"/><path fill="rgb(0,52,255)" stroke="none" paint-order="stroke" d="M 154.0624542236328 77.81818389892578 L 154.08290222287178 77.81818389892578 L 154.08290222287178 130.45454788208008 L 154.0624542236328 130.45454788208008 L 154.0624542236328 77.81818389892578" fill-opacity="1" clip-path="url(#EgrEQZVbpJkz)"/><path fill="rgb(0,70,255)" stroke="none" paint-order="stroke" d="M 154.08290100097656 77.81818389892578 L 154.1059050001204 77.81818389892578 L 154.1059050001204 130.45454788208008 L 154.08290100097656 130.45454788208008 L 154.08290100097656 77.81818389892578" fill-opacity="1" clip-path="url(#EgrEQZVbpJkz)"/><path fill="rgb(0,102,255)" stroke="none" paint-order="stroke" d="M 154.10589599609375 77.81818389892578 L 154.12634399533272 77.81818389892578 L 154.12634399533272 130.45454788208008 L 154.10589599609375 130.45454788208008 L 154.10589599609375 77.81818389892578" fill-opacity="1" clip-path="url(#EgrEQZVbpJkz)"/><path fill="rgb(0,146,255)" stroke="none" paint-order="stroke" d="M 154.1263427734375 77.81818389892578 L 154.14679077267647 77.81818389892578 L 154.14679077267647 130.45454788208008 L 154.1263427734375 130.45454788208008 L 154.1263427734375 77.81818389892578" fill-opacity="1" clip-path="url(#EgrEQZVbpJkz)"/><path fill="rgb(0,191,255)" stroke="none" paint-order="stroke" d="M 154.1468048095703 77.81818389892578 L 154.16853080876172 77.81818389892578 L 154.16853080876172 130.45454788208008 L 154.1468048095703 130.45454788208008 L 154.1468048095703 77.81818389892578" fill-opacity="1" clip-path="url(#EgrEQZVbpJkz)"/><path fill="rgb(0,230,255)" stroke="none" paint-order="stroke" d="M 154.16851806640625 77.81818389892578 L 154.19024406559765 77.81818389892578 L 154.19024406559765 130.45454788208008 L 154.16851806640625 130.45454788208008 L 154.16851806640625 77.81818389892578" fill-opacity="1" clip-path="url(#EgrEQZVbpJkz)"/><path fill="rgb(0,255,255)" stroke="none" paint-order="stroke" d="M 154.19024658203125 77.81818389892578 L 154.21069458127022 77.81818389892578 L 154.21069458127022 130.45454788208008 L 154.19024658203125 130.45454788208008 L 154.19024658203125 77.81818389892578" fill-opacity="1" clip-path="url(#EgrEQZVbpJkz)"/><path fill="rgb(0,255,70)" stroke="none" paint-order="stroke" d="M 154.210693359375 77.81818389892578 L 154.23497535847127 77.81818389892578 L 154.23497535847127 130.45454788208008 L 154.210693359375 130.45454788208008 L 154.210693359375 77.81818389892578" fill-opacity="1" clip-path="url(#EgrEQZVbpJkz)"/><path fill="rgb(14,255,0)" stroke="none" paint-order="stroke" d="M 154.2349853515625 77.81818389892578 L 154.25415535084903 77.81818389892578 L 154.25415535084903 130.45454788208008 L 154.2349853515625 130.45454788208008 L 154.2349853515625 77.81818389892578" fill-opacity="1" clip-path="url(#EgrEQZVbpJkz)"/><path fill="rgb(30,255,0)" stroke="none" paint-order="stroke" d="M 154.254150390625 77.81818389892578 L 154.27459838986397 77.81818389892578 L 154.27459838986397 130.45454788208008 L 154.254150390625 130.45454788208008 L 154.254150390625 77.81818389892578" fill-opacity="1" clip-path="url(#EgrEQZVbpJkz)"/><path fill="rgb(44,255,0)" stroke="none" paint-order="stroke" d="M 154.27459716796875 77.81818389892578 L 154.31804916635156 77.81818389892578 L 154.31804916635156 130.45454788208008 L 154.27459716796875 130.45454788208008 L 154.27459716796875 77.81818389892578" fill-opacity="1" clip-path="url(#EgrEQZVbpJkz)"/><path fill="rgb(58,255,0)" stroke="none" paint-order="stroke" d="M 154.31805419921875 77.81818389892578 L 154.36150619760156 77.81818389892578 L 154.36150619760156 130.45454788208008 L 154.31805419921875 130.45454788208008 L 154.31805419921875 77.81818389892578" fill-opacity="1" clip-path="url(#EgrEQZVbpJkz)"/><path fill="rgb(70,255,0)" stroke="none" paint-order="stroke" d="M 154.3614959716797 77.81818389892578 L 154.42411797493696 77.81818389892578 L 154.42411797493696 130.45454788208008 L 154.3614959716797 130.45454788208008 L 154.3614959716797 77.81818389892578" fill-opacity="1" clip-path="url(#EgrEQZVbpJkz)"/><path fill="rgb(86,255,0)" stroke="none" paint-order="stroke" d="M 154.4241180419922 77.81818389892578 L 154.467570040375 77.81818389892578 L 154.467570040375 130.45454788208008 L 154.4241180419922 130.45454788208008 L 154.4241180419922 77.81818389892578" fill-opacity="1" clip-path="url(#EgrEQZVbpJkz)"/><path fill="rgb(97,255,0)" stroke="none" paint-order="stroke" d="M 154.4675750732422 77.81818389892578 L 172.31612396240234 77.81818389892578 L 172.31612396240234 130.45454788208008 L 154.4675750732422 130.45454788208008 L 154.4675750732422 77.81818389892578" fill-opacity="1" clip-path="url(#EgrEQZVbpJkz)"/><path fill="rgb(0,255,40)" stroke="none" paint-order="stroke" d="M 172.31613159179688 77.81818389892578 L 179.9394016265869 77.81818389892578 L 179.9394016265869 130.45454788208008 L 172.31613159179688 130.45454788208008 L 172.31613159179688 77.81818389892578" fill-opacity="1" clip-path="url(#EgrEQZVbpJkz)"/><path fill="rgb(102,0,183)" stroke="none" paint-order="stroke" d="M 179.93939208984375 77.81818389892578 L 218.979736328125 77.81818389892578 L 218.979736328125 130.45454788208008 L 179.93939208984375 130.45454788208008 L 179.93939208984375 77.81818389892578" fill-opacity="1" clip-path="url(#EgrEQZVbpJkz)"/><path fill="rgb(251,0,7)" stroke="none" paint-order="stroke" d="M 58.5 130.4545440673828 L 179.93939208984375 130.4545440673828 L 179.93939208984375 183.0909080505371 L 58.5 183.0909080505371 L 58.5 130.4545440673828" fill-opacity="1" clip-path="url(#QtCrCQTrxcJP)"/><path fill="rgb(255,255,10)" stroke="none" paint-order="stroke" d="M 179.93939208984375 130.4545440673828 L 218.979736328125 130.4545440673828 L 218.979736328125 183.0909080505371 L 179.93939208984375 183.0909080505371 L 179.93939208984375 130.4545440673828" fill-opacity="1" clip-path="url(#QtCrCQTrxcJP)"/><path fill="rgb(105,29,48)" stroke="none" paint-order="stroke" d="M 136.539794921875 183.09091186523438 L 136.60369492322206 183.09091186523438 L 136.60369492322206 498.9090881347656 L 136.539794921875 498.9090881347656 L 136.539794921875 183.09091186523438" fill-opacity="1" clip-path="url(#lsKSdcMFfiUD)"/><path fill="rgb(105,29,48)" stroke="none" paint-order="stroke" d="M 138.63059997558594 183.09091186523438 L 138.694499976933 183.09091186523438 L 138.694499976933 498.9090881347656 L 138.63059997558594 498.9090881347656 L 138.63059997558594 183.09091186523438" fill-opacity="1" clip-path="url(#lsKSdcMFfiUD)"/><path fill="rgb(105,29,48)" stroke="none" paint-order="stroke" d="M 150.747314453125 183.09091186523438 L 150.81121445447206 183.09091186523438 L 150.81121445447206 498.9090881347656 L 150.747314453125 498.9090881347656 L 150.747314453125 183.09091186523438" fill-opacity="1" clip-path="url(#lsKSdcMFfiUD)"/><path fill="rgb(105,29,48)" stroke="none" paint-order="stroke" d="M 151.956298828125 183.09091186523438 L 152.02019882947206 183.09091186523438 L 152.02019882947206 498.9090881347656 L 151.956298828125 498.9090881347656 L 151.956298828125 183.09091186523438" fill-opacity="1" clip-path="url(#lsKSdcMFfiUD)"/><path fill="rgb(105,29,48)" stroke="none" paint-order="stroke" d="M 199.57586669921875 183.09091186523438 L 199.63976670056581 183.09091186523438 L 199.63976670056581 498.9090881347656 L 199.57586669921875 498.9090881347656 L 199.57586669921875 183.09091186523438" fill-opacity="1" clip-path="url(#lsKSdcMFfiUD)"/><path fill="rgb(255,188,66)" stroke="none" paint-order="stroke" d="M 155.9078826904297 183.09091186523438 L 156.01906868815422 183.09091186523438 L 156.01906868815422 498.9090881347656 L 155.9078826904297 498.9090881347656 L 155.9078826904297 183.09091186523438" fill-opacity="1" clip-path="url(#RbTvSgdWrVnV)"/><path fill="rgb(255,188,66)" stroke="none" paint-order="stroke" d="M 156.8881072998047 183.09091186523438 L 161.06461143493652 183.09091186523438 L 161.06461143493652 498.9090881347656 L 156.8881072998047 498.9090881347656 L 156.8881072998047 183.09091186523438" fill-opacity="1" clip-path="url(#RbTvSgdWrVnV)"/><path fill="rgb(255,188,66)" stroke="none" paint-order="stroke" d="M 163.22698974609375 183.09091186523438 L 169.44318151474 183.09091186523438 L 169.44318151474 498.9090881347656 L 163.22698974609375 498.9090881347656 L 163.22698974609375 183.09091186523438" fill-opacity="1" clip-path="url(#RbTvSgdWrVnV)"/><path fill="rgb(255,188,66)" stroke="none" paint-order="stroke" d="M 213.10861206054688 183.09091186523438 L 216.99884414672852 183.09091186523438 L 216.99884414672852 498.9090881347656 L 213.10861206054688 498.9090881347656 L 213.10861206054688 183.09091186523438" fill-opacity="1" clip-path="url(#RbTvSgdWrVnV)"/><path fill="rgb(255,188,66)" stroke="none" paint-order="stroke" d="M 218.3343505859375 183.09091186523438 L 218.39825058728456 183.09091186523438 L 218.39825058728456 498.9090881347656 L 218.3343505859375 498.9090881347656 L 218.3343505859375 183.09091186523438" fill-opacity="1" clip-path="url(#RbTvSgdWrVnV)"/><path fill="rgb(162,174,187)" stroke="none" paint-order="stroke" d="M 195.16676330566406 183.09091186523438 L 195.23066330701113 183.09091186523438 L 195.23066330701113 498.9090881347656 L 195.16676330566406 498.9090881347656 L 195.16676330566406 183.09091186523438" fill-opacity="1" clip-path="url(#GiCJOQWrtFoP)"/><path fill="rgb(162,174,187)" stroke="none" paint-order="stroke" d="M 208.50653076171875 183.09091186523438 L 208.57043076306581 183.09091186523438 L 208.57043076306581 498.9090881347656 L 208.50653076171875 498.9090881347656 L 208.50653076171875 183.09091186523438" fill-opacity="1" clip-path="url(#GiCJOQWrtFoP)"/><path fill="rgb(162,174,187)" stroke="none" paint-order="stroke" d="M 210.1270294189453 183.09091186523438 L 210.19092942029238 183.09091186523438 L 210.19092942029238 498.9090881347656 L 210.1270294189453 498.9090881347656 L 210.1270294189453 183.09091186523438" fill-opacity="1" clip-path="url(#GiCJOQWrtFoP)"/><path fill="rgb(255,188,66)" stroke="none" paint-order="stroke" d="M 189.44644165039062 183.09091186523438 L 190.6273136138916 183.09091186523438 L 190.6273136138916 498.9090881347656 L 189.44644165039062 498.9090881347656 L 189.44644165039062 183.09091186523438" fill-opacity="1" clip-path="url(#TIMfqDSXhIOR)"/><path fill="rgb(255,188,66)" stroke="none" paint-order="stroke" d="M 191.88613891601562 183.09091186523438 L 193.8286988735199 183.09091186523438 L 193.8286988735199 498.9090881347656 L 191.88613891601562 498.9090881347656 L 191.88613891601562 183.09091186523438" fill-opacity="1" clip-path="url(#TIMfqDSXhIOR)"/><path fill="rgb(255,188,66)" stroke="none" paint-order="stroke" d="M 197.14894104003906 183.09091186523438 L 198.51384508609772 183.09091186523438 L 198.51384508609772 498.9090881347656 L 197.14894104003906 498.9090881347656 L 197.14894104003906 183.09091186523438" fill-opacity="1" clip-path="url(#TIMfqDSXhIOR)"/><path fill="rgb(255,188,66)" stroke="none" paint-order="stroke" d="M 200.97271728515625 183.09091186523438 L 207.125009059906 183.09091186523438 L 207.125009059906 498.9090881347656 L 200.97271728515625 498.9090881347656 L 200.97271728515625 183.09091186523438" fill-opacity="1" clip-path="url(#TIMfqDSXhIOR)"/><path fill="rgb(216,17,89)" stroke="none" paint-order="stroke" d="M 141.87033081054688 183.09091186523438 L 141.93423081189394 183.09091186523438 L 141.93423081189394 498.9090881347656 L 141.87033081054688 498.9090881347656 L 141.87033081054688 183.09091186523438" fill-opacity="1" clip-path="url(#OPfcoZUEAuLV)"/><path fill="rgb(216,17,89)" stroke="none" paint-order="stroke" d="M 141.87033081054688 183.09091186523438 L 141.93423081189394 183.09091186523438 L 141.93423081189394 498.9090881347656 L 141.87033081054688 498.9090881347656 L 141.87033081054688 183.09091186523438" fill-opacity="1" clip-path="url(#OPfcoZUEAuLV)"/><path fill="rgb(216,17,89)" stroke="none" paint-order="stroke" d="M 172.31613159179688 183.09091186523438 L 172.38003159314394 183.09091186523438 L 172.38003159314394 498.9090881347656 L 172.31613159179688 498.9090881347656 L 172.31613159179688 183.09091186523438" fill-opacity="1" clip-path="url(#OPfcoZUEAuLV)"/><path fill="rgb(216,17,89)" stroke="none" paint-order="stroke" d="M 172.31613159179688 183.09091186523438 L 172.38003159314394 183.09091186523438 L 172.38003159314394 498.9090881347656 L 172.31613159179688 498.9090881347656 L 172.31613159179688 183.09091186523438" fill-opacity="1" clip-path="url(#OPfcoZUEAuLV)"/><path fill="rgb(216,17,89)" stroke="none" paint-order="stroke" d="M 174.4043731689453 183.09091186523438 L 174.46827317029238 183.09091186523438 L 174.46827317029238 498.9090881347656 L 174.4043731689453 498.9090881347656 L 174.4043731689453 183.09091186523438" fill-opacity="1" clip-path="url(#OPfcoZUEAuLV)"/><path fill="rgb(216,17,89)" stroke="none" paint-order="stroke" d="M 175.7488250732422 183.09091186523438 L 175.81272507458925 183.09091186523438 L 175.81272507458925 498.9090881347656 L 175.7488250732422 498.9090881347656 L 175.7488250732422 183.09091186523438" fill-opacity="1" clip-path="url(#OPfcoZUEAuLV)"/><path fill="rgb(33,131,128)" stroke="none" paint-order="stroke" d="M 178.05433654785156 183.09091186523438 L 179.93938660621643 183.09091186523438 L 179.93938660621643 498.9090881347656 L 178.05433654785156 498.9090881347656 L 178.05433654785156 183.09091186523438" fill-opacity="1" clip-path="url(#LULZBAOmTLAC)"/><path fill="rgb(115,210,222)" stroke="none" paint-order="stroke" d="M 183.43089294433594 183.09091186523438 L 187.36968898773193 183.09091186523438 L 187.36968898773193 498.9090881347656 L 183.43089294433594 498.9090881347656 L 183.43089294433594 183.09091186523438" fill-opacity="1" clip-path="url(#DcVsgfzlLMeL)"/><path fill="rgb(239,185,203)" stroke="none" paint-order="stroke" d="M 69.22881317138672 183.09091186523438 L 131.41757202148438 183.09091186523438 L 131.41757202148438 498.9090881347656 L 69.22881317138672 498.9090881347656 L 69.22881317138672 183.09091186523438" fill-opacity="1" clip-path="url(#nODAvDfBwyem)"/><path fill="rgb(105,29,48)" stroke="none" paint-order="stroke" d="M 144.03143310546875 183.09091186523438 L 145.9803831577301 183.09091186523438 L 145.9803831577301 498.9090881347656 L 144.03143310546875 498.9090881347656 L 144.03143310546875 183.09091186523438" fill-opacity="1" clip-path="url(#hhnhyuPTvAOi)"/><path fill="rgb(105,29,48)" stroke="none" paint-order="stroke" d="M 146.9235382080078 183.09091186523438 L 149.50509810447693 183.09091186523438 L 149.50509810447693 498.9090881347656 L 146.9235382080078 498.9090881347656 L 146.9235382080078 183.09091186523438" fill-opacity="1" clip-path="url(#hhnhyuPTvAOi)"/><path fill="rgb(105,29,48)" stroke="none" paint-order="stroke" d="M 153.8502960205078 183.09091186523438 L 154.76662200689316 183.09091186523438 L 154.76662200689316 498.9090881347656 L 153.8502960205078 498.9090881347656 L 153.8502960205078 183.09091186523438" fill-opacity="1" clip-path="url(#hhnhyuPTvAOi)"/><path fill="rgb(255,188,66)" stroke="none" paint-order="stroke" d="M 166.18556213378906 498.9090881347656 L 168.50641012191772 498.9090881347656 L 168.50641012191772 551.5454521179199 L 166.18556213378906 551.5454521179199 L 166.18556213378906 498.9090881347656" fill-opacity="1" clip-path="url(#exmdciwniDpZ)"/><path fill="rgb(143,45,86)" stroke="none" paint-order="stroke" d="M 58.5 551.5454711914062 L 136.539794921875 551.5454711914062 L 136.539794921875 604.1818351745605 L 58.5 604.1818351745605 L 58.5 551.5454711914062" fill-opacity="1" clip-path="url(#cHEtyonfgvJG)"/><path fill="rgb(63,136,197)" stroke="none" paint-order="stroke" d="M 136.539794921875 551.5454711914062 L 138.6306028366089 551.5454711914062 L 138.6306028366089 604.1818351745605 L 136.539794921875 604.1818351745605 L 136.539794921875 551.5454711914062" fill-opacity="1" clip-path="url(#cHEtyonfgvJG)"/><path fill="rgb(143,45,86)" stroke="none" paint-order="stroke" d="M 138.63059997558594 551.5454711914062 L 150.74731826782227 551.5454711914062 L 150.74731826782227 604.1818351745605 L 138.63059997558594 604.1818351745605 L 138.63059997558594 551.5454711914062" fill-opacity="1" clip-path="url(#cHEtyonfgvJG)"/><path fill="rgb(63,136,197)" stroke="none" paint-order="stroke" d="M 150.747314453125 551.5454711914062 L 151.9563024044037 551.5454711914062 L 151.9563024044037 604.1818351745605 L 150.747314453125 604.1818351745605 L 150.747314453125 551.5454711914062" fill-opacity="1" clip-path="url(#cHEtyonfgvJG)"/><path fill="rgb(143,45,86)" stroke="none" paint-order="stroke" d="M 151.956298828125 551.5454711914062 L 201.59637451171875 551.5454711914062 L 201.59637451171875 604.1818351745605 L 151.956298828125 604.1818351745605 L 151.956298828125 551.5454711914062" fill-opacity="1" clip-path="url(#cHEtyonfgvJG)"/><path fill="rgb(81,60,99)" stroke="none" paint-order="stroke" d="M 201.59637451171875 551.5454711914062 L 203.2130445241928 551.5454711914062 L 203.2130445241928 604.1818351745605 L 201.59637451171875 604.1818351745605 L 201.59637451171875 551.5454711914062" fill-opacity="1" clip-path="url(#cHEtyonfgvJG)"/><path fill="rgb(143,45,86)" stroke="none" paint-order="stroke" d="M 203.2130584716797 551.5454711914062 L 204.42715847492218 551.5454711914062 L 204.42715847492218 604.1818351745605 L 203.2130584716797 604.1818351745605 L 203.2130584716797 551.5454711914062" fill-opacity="1" clip-path="url(#cHEtyonfgvJG)"/><path fill="rgb(81,60,99)" stroke="none" paint-order="stroke" d="M 204.42715454101562 551.5454711914062 L 205.8546805381775 551.5454711914062 L 205.8546805381775 604.1818351745605 L 204.42715454101562 604.1818351745605 L 204.42715454101562 551.5454711914062" fill-opacity="1" clip-path="url(#cHEtyonfgvJG)"/><path fill="rgb(143,45,86)" stroke="none" paint-order="stroke" d="M 205.85467529296875 551.5454711914062 L 206.49495327472687 551.5454711914062 L 206.49495327472687 604.1818351745605 L 205.85467529296875 604.1818351745605 L 205.85467529296875 551.5454711914062" fill-opacity="1" clip-path="url(#cHEtyonfgvJG)"/><path fill="rgb(81,60,99)" stroke="none" paint-order="stroke" d="M 206.4949493408203 551.5454711914062 L 208.5065212249756 551.5454711914062 L 208.5065212249756 604.1818351745605 L 206.4949493408203 604.1818351745605 L 206.4949493408203 551.5454711914062" fill-opacity="1" clip-path="url(#cHEtyonfgvJG)"/><path fill="rgb(63,136,197)" stroke="none" paint-order="stroke" d="M 208.50653076171875 551.5454711914062 L 210.12703478336334 551.5454711914062 L 210.12703478336334 604.1818351745605 L 208.50653076171875 604.1818351745605 L 208.50653076171875 551.5454711914062" fill-opacity="1" clip-path="url(#cHEtyonfgvJG)"/><path fill="rgb(81,60,99)" stroke="none" paint-order="stroke" d="M 210.1270294189453 551.5454711914062 L 218.97973537445068 551.5454711914062 L 218.97973537445068 604.1818351745605 L 210.1270294189453 604.1818351745605 L 210.1270294189453 551.5454711914062" fill-opacity="1" clip-path="url(#cHEtyonfgvJG)"/><path fill="none" stroke="rgb(0,0,0)" paint-order="fill" d="M 58.5 77.81818389892578 L 218.979736328125 77.81818389892578 L 218.979736328125 604.1818313598633 L 58.5 604.1818313598633 L 58.5 77.81818389892578" stroke-opacity="1" stroke-linejoin="bevel" stroke-miterlimit="10" stroke-dasharray="" clip-path="url(#xsrKmELvQeTp)"/><path fill="none" stroke="rgb(0,0,0)" paint-order="fill" d="M 58.5 630.5 L 1336.5 630.5" stroke-opacity="1" stroke-linejoin="bevel" stroke-miterlimit="10" stroke-dasharray=""/><path fill="none" stroke="rgb(0,0,0)" paint-order="fill" d="M 58.5 636.5 L 58.5 628.5 M 314.5 636.5 L 314.5 628.5 M 569.5 636.5 L 569.5 628.5 M 825.5 636.5 L 825.5 628.5 M 1080.5 636.5 L 1080.5 628.5 M 1336.5 636.5 L 1336.5 628.5" stroke-opacity="1" stroke-linejoin="bevel" stroke-miterlimit="10" stroke-dasharray=""/><path fill="none" stroke="rgb(0,0,0)" paint-order="fill" d="M 58.5 634.5 L 58.5 630.5 M 109.5 634.5 L 109.5 630.5 M 160.5 634.5 L 160.5 630.5 M 211.5 634.5 L 211.5 630.5 M 262.5 634.5 L 262.5 630.5 M 314.5 634.5 L 314.5 630.5 M 365.5 634.5 L 365.5 630.5 M 416.5 634.5 L 416.5 630.5 M 467.5 634.5 L 467.5 630.5 M 518.5 634.5 L 518.5 630.5 M 569.5 634.5 L 569.5 630.5 M 620.5 634.5 L 620.5 630.5 M 671.5 634.5 L 671.5 630.5 M 723.5 634.5 L 723.5 630.5 M 774.5 634.5 L 774.5 630.5 M 825.5 634.5 L 825.5 630.5 M 876.5 634.5 L 876.5 630.5 M 927.5 634.5 L 927.5 630.5 M 978.5 634.5 L 978.5 630.5 M 1029.5 634.5 L 1029.5 630.5 M 1080.5 634.5 L 1080.5 630.5 M 1132.5 634.5 L 1132.5 630.5 M 1183.5 634.5 L 1183.5 630.5 M 1234.5 634.5 L 1234.5 630.5 M 1285.5 634.5 L 1285.5 630.5 M 1336.5 634.5 L 1336.5 630.5" stroke-opacity="1" stroke-linejoin="bevel" stroke-miterlimit="10" stroke-dasharray=""/><text fill="rgb(68,68,68)" stroke="none" font-family="helvetica" font-size="11px" font-style="normal" font-weight="normal" text-decoration="normal" x="54.94166660308838" y="648.89013671875" text-anchor="start" dominant-baseline="alphabetic" transform="matrix(1, 0, 0, 1, 0.5, 0.5)" fill-opacity="1">0</text><text fill="rgb(68,68,68)" stroke="none" font-family="helvetica" font-size="11px" font-style="normal" font-weight="normal" text-decoration="normal" x="304.42500591278076" y="648.89013671875" text-anchor="start" dominant-baseline="alphabetic" transform="matrix(1, 0, 0, 1, 0.5, 0.5)" fill-opacity="1">200</text><text fill="rgb(68,68,68)" stroke="none" font-family="helvetica" font-size="11px" font-style="normal" font-weight="normal" text-decoration="normal" x="560.0250120162964" y="648.89013671875" text-anchor="start" dominant-baseline="alphabetic" transform="matrix(1, 0, 0, 1, 0.5, 0.5)" fill-opacity="1">400</text><text fill="rgb(68,68,68)" stroke="none" font-family="helvetica" font-size="11px" font-style="normal" font-weight="normal" text-decoration="normal" x="815.6249876022339" y="648.89013671875" text-anchor="start" dominant-baseline="alphabetic" transform="matrix(1, 0, 0, 1, 0.5, 0.5)" fill-opacity="1">600</text><text fill="rgb(68,68,68)" stroke="none" font-family="helvetica" font-size="11px" font-style="normal" font-weight="normal" text-decoration="normal" x="1071.2250242233276" y="648.89013671875" text-anchor="start" dominant-baseline="alphabetic" transform="matrix(1, 0, 0, 1, 0.5, 0.5)" fill-opacity="1">800</text><text fill="rgb(68,68,68)" stroke="none" font-family="helvetica" font-size="11px" font-style="normal" font-weight="normal" text-decoration="normal" x="1323.7666664123535" y="648.89013671875" text-anchor="start" dominant-baseline="alphabetic" transform="matrix(1, 0, 0, 1, 0.5, 0.5)" fill-opacity="1">1000</text><text fill="rgb(68,68,68)" stroke="none" font-family="helvetica" font-size="15pt" font-style="italic" font-weight="normal" text-decoration="normal" x="666.4416675567627" y="676.06982421875" text-anchor="start" dominant-baseline="alphabetic" transform="matrix(1, 0, 0, 1, 0.5, 0.5)" fill-opacity="1">time(s)</text><path fill="none" stroke="rgb(0,0,0)" paint-order="fill" d="M 58.5 630.5 L 58.5 51.5" stroke-opacity="1" stroke-linejoin="bevel" stroke-miterlimit="10" stroke-dasharray=""/><path fill="none" stroke="rgb(0,0,0)" paint-order="fill" d="M 52.5 551.5 L 60.5 551.5 M 52.5 446.5 L 60.5 446.5 M 52.5 341.5 L 60.5 341.5 M 52.5 235.5 L 60.5 235.5 M 52.5 130.5 L 60.5 130.5" stroke-opacity="1" stroke-linejoin="bevel" stroke-miterlimit="10" stroke-dasharray=""/><path fill="none" stroke="rgb(0,0,0)" paint-order="fill" d="M 54.5 572.5 L 58.5 572.5 M 54.5 593.5 L 58.5 593.5 M 54.5 614.5 L 58.5 614.5 M 54.5 551.5 L 58.5 551.5 M 54.5 530.5 L 58.5 530.5 M 54.5 509.5 L 58.5 509.5 M 54.5 488.5 L 58.5 488.5 M 54.5 467.5 L 58.5 467.5 M 54.5 446.5 L 58.5 446.5 M 54.5 425.5 L 58.5 425.5 M 54.5 404.5 L 58.5 404.5 M 54.5 383.5 L 58.5 383.5 M 54.5 362.5 L 58.5 362.5 M 54.5 341.5 L 58.5 341.5 M 54.5 319.5 L 58.5 319.5 M 54.5 298.5 L 58.5 298.5 M 54.5 277.5 L 58.5 277.5 M 54.5 256.5 L 58.5 256.5 M 54.5 235.5 L 58.5 235.5 M 54.5 214.5 L 58.5 214.5 M 54.5 193.5 L 58.5 193.5 M 54.5 172.5 L 58.5 172.5 M 54.5 151.5 L 58.5 151.5 M 54.5 130.5 L 58.5 130.5 M 54.5 109.5 L 58.5 109.5 M 54.5 88.5 L 58.5 88.5 M 54.5 67.5 L 58.5 67.5" stroke-opacity="1" stroke-linejoin="bevel" stroke-miterlimit="10" stroke-dasharray=""/><text fill="rgb(68,68,68)" stroke="none" font-family="helvetica" font-size="11px" font-style="normal" font-weight="normal" text-decoration="normal" x="34.46666622161865" y="554.9905395507812" text-anchor="start" dominant-baseline="alphabetic" transform="matrix(1, 0, 0, 1, 0.5, 0.5)" fill-opacity="1">2</text><text fill="rgb(68,68,68)" stroke="none" font-family="helvetica" font-size="11px" font-style="normal" font-weight="normal" text-decoration="normal" x="34.46666622161865" y="449.7178039550781" text-anchor="start" dominant-baseline="alphabetic" transform="matrix(1, 0, 0, 1, 0.5, 0.5)" fill-opacity="1">1</text><text fill="rgb(68,68,68)" stroke="none" font-family="helvetica" font-size="11px" font-style="normal" font-weight="normal" text-decoration="normal" x="40.88333320617676" y="344.445068359375" text-anchor="start" dominant-baseline="alphabetic" transform="matrix(1, 0, 0, 1, 0.5, 0.5)" fill-opacity="1">0</text><text fill="rgb(68,68,68)" stroke="none" font-family="helvetica" font-size="11px" font-style="normal" font-weight="normal" text-decoration="normal" x="40.88333320617676" y="239.17234802246094" text-anchor="start" dominant-baseline="alphabetic" transform="matrix(1, 0, 0, 1, 0.5, 0.5)" fill-opacity="1">1</text><text fill="rgb(68,68,68)" stroke="none" font-family="helvetica" font-size="11px" font-style="normal" font-weight="normal" text-decoration="normal" x="40.88333320617676" y="133.8996124267578" text-anchor="start" dominant-baseline="alphabetic" transform="matrix(1, 0, 0, 1, 0.5, 0.5)" fill-opacity="1">2</text><text fill="rgb(68,68,68)" stroke="none" font-family="helvetica" font-size="15pt" font-style="italic" font-weight="normal" text-decoration="normal" x="-11.316666603088379" y="336.076171875" text-anchor="start" dominant-baseline="alphabetic" transform="matrix(6.123233995736766e-17, -1, 1, 6.123233995736766e-17, -313.53333377838135, 367.46666622161865)" fill-opacity="1">students</text><path fill="rgb(255,255,255)" stroke="rgb(229,229,229)" paint-order="fill" d="M 1128.2333374023438 61.5 L 1326.5 61.5 L 1326.5 400.5 L 1128.2333374023438 400.5 L 1128.2333374023438 61.5" fill-opacity="0.9490196078431372" clip-path="url(#mcxNeDgdUoni)" stroke-opacity="0.5019607843137255" stroke-linejoin="bevel" stroke-miterlimit="10" stroke-dasharray=""/><text fill="rgb(68,68,68)" stroke="none" font-family="helvetica" font-size="13px" font-style="normal" font-weight="normal" text-decoration="normal" x="1162.7333374023438" y="81" text-anchor="start" dominant-baseline="central" clip-path="url(#mcxNeDgdUoni)" transform="matrix(1, 0, 0, 1, 0.5, 0.5)" fill-opacity="1">wavelength</text><path fill="rgb(0,255,40)" stroke="none" paint-order="stroke" d="M 1140.2333374023438 73.5 L 1156.2333374023438 73.5 L 1156.2333374023438 89.5 L 1140.2333374023438 89.5 L 1140.2333374023438 73.5" fill-opacity="1" clip-path="url(#mcxNeDgdUoni)"/><path fill="rgb(216,17,89)" stroke="none" paint-order="stroke" d="M 1140.2333374023438 73.5 L 1156.2333374023438 73.5 L 1156.2333374023438 89.5 L 1140.2333374023438 89.5 L 1140.2333374023438 73.5" fill-opacity="1" clip-path="url(#mcxNeDgdUoni)"/><text fill="rgb(68,68,68)" stroke="none" font-family="helvetica" font-size="13px" font-style="normal" font-weight="normal" text-decoration="normal" x="1162.7333374023438" y="104" text-anchor="start" dominant-baseline="central" clip-path="url(#mcxNeDgdUoni)" transform="matrix(1, 0, 0, 1, 0.5, 0.5)" fill-opacity="1">solution</text><path fill="rgb(251,0,7)" stroke="none" paint-order="stroke" d="M 1140.2333374023438 96.5 L 1156.2333374023438 96.5 L 1156.2333374023438 112.5 L 1140.2333374023438 112.5 L 1140.2333374023438 96.5" fill-opacity="1" clip-path="url(#mcxNeDgdUoni)"/><path fill="rgb(33,131,128)" stroke="none" paint-order="stroke" d="M 1140.2333374023438 96.5 L 1156.2333374023438 96.5 L 1156.2333374023438 112.5 L 1140.2333374023438 112.5 L 1140.2333374023438 96.5" fill-opacity="1" clip-path="url(#mcxNeDgdUoni)"/><text fill="rgb(68,68,68)" stroke="none" font-family="helvetica" font-size="13px" font-style="normal" font-weight="normal" text-decoration="normal" x="1162.7333374023438" y="127" text-anchor="start" dominant-baseline="central" clip-path="url(#mcxNeDgdUoni)" transform="matrix(1, 0, 0, 1, 0.5, 0.5)" fill-opacity="1">laser</text><path fill="rgb(105,29,48)" stroke="none" paint-order="stroke" d="M 1140.2333374023438 119.5 L 1156.2333374023438 119.5 L 1156.2333374023438 135.5 L 1140.2333374023438 135.5 L 1140.2333374023438 119.5" fill-opacity="1" clip-path="url(#mcxNeDgdUoni)"/><text fill="rgb(68,68,68)" stroke="none" font-family="helvetica" font-size="13px" font-style="normal" font-weight="normal" text-decoration="normal" x="1162.7333374023438" y="150" text-anchor="start" dominant-baseline="central" clip-path="url(#mcxNeDgdUoni)" transform="matrix(1, 0, 0, 1, 0.5, 0.5)" fill-opacity="1">ruler</text><path fill="rgb(255,188,66)" stroke="none" paint-order="stroke" d="M 1140.2333374023438 142.5 L 1156.2333374023438 142.5 L 1156.2333374023438 158.5 L 1140.2333374023438 158.5 L 1140.2333374023438 142.5" fill-opacity="1" clip-path="url(#mcxNeDgdUoni)"/><text fill="rgb(68,68,68)" stroke="none" font-family="helvetica" font-size="13px" font-style="normal" font-weight="normal" text-decoration="normal" x="1162.7333374023438" y="173" text-anchor="start" dominant-baseline="central" clip-path="url(#mcxNeDgdUoni)" transform="matrix(1, 0, 0, 1, 0.5, 0.5)" fill-opacity="1">restarts</text><text fill="rgb(68,68,68)" stroke="none" font-family="helvetica" font-size="13px" font-style="normal" font-weight="normal" text-decoration="normal" x="1162.7333374023438" y="196" text-anchor="start" dominant-baseline="central" clip-path="url(#mcxNeDgdUoni)" transform="matrix(1, 0, 0, 1, 0.5, 0.5)" fill-opacity="1">transmittance_absorbance</text><path fill="rgb(162,174,187)" stroke="none" paint-order="stroke" d="M 1140.2333374023438 188.5 L 1156.2333374023438 188.5 L 1156.2333374023438 204.5 L 1140.2333374023438 204.5 L 1140.2333374023438 188.5" fill-opacity="1" clip-path="url(#mcxNeDgdUoni)"/><text fill="rgb(68,68,68)" stroke="none" font-family="helvetica" font-size="13px" font-style="normal" font-weight="normal" text-decoration="normal" x="1162.7333374023438" y="219" text-anchor="start" dominant-baseline="central" clip-path="url(#mcxNeDgdUoni)" transform="matrix(1, 0, 0, 1, 0.5, 0.5)" fill-opacity="1">magnifier</text><path fill="rgb(255,188,66)" stroke="none" paint-order="stroke" d="M 1140.2333374023438 211.5 L 1156.2333374023438 211.5 L 1156.2333374023438 227.5 L 1140.2333374023438 227.5 L 1140.2333374023438 211.5" fill-opacity="1" clip-path="url(#mcxNeDgdUoni)"/><text fill="rgb(68,68,68)" stroke="none" font-family="helvetica" font-size="13px" font-style="normal" font-weight="normal" text-decoration="normal" x="1162.7333374023438" y="242" text-anchor="start" dominant-baseline="central" clip-path="url(#mcxNeDgdUoni)" transform="matrix(1, 0, 0, 1, 0.5, 0.5)" fill-opacity="1">concentration</text><path fill="rgb(115,210,222)" stroke="none" paint-order="stroke" d="M 1140.2333374023438 234.5 L 1156.2333374023438 234.5 L 1156.2333374023438 250.5 L 1140.2333374023438 250.5 L 1140.2333374023438 234.5" fill-opacity="1" clip-path="url(#mcxNeDgdUoni)"/><text fill="rgb(68,68,68)" stroke="none" font-family="helvetica" font-size="13px" font-style="normal" font-weight="normal" text-decoration="normal" x="1162.7333374023438" y="265" text-anchor="start" dominant-baseline="central" clip-path="url(#mcxNeDgdUoni)" transform="matrix(1, 0, 0, 1, 0.5, 0.5)" fill-opacity="1">flask</text><text fill="rgb(68,68,68)" stroke="none" font-family="helvetica" font-size="13px" font-style="normal" font-weight="normal" text-decoration="normal" x="1162.7333374023438" y="288" text-anchor="start" dominant-baseline="central" clip-path="url(#mcxNeDgdUoni)" transform="matrix(1, 0, 0, 1, 0.5, 0.5)" fill-opacity="1">pdf</text><path fill="rgb(239,185,203)" stroke="none" paint-order="stroke" d="M 1140.2333374023438 280.5 L 1156.2333374023438 280.5 L 1156.2333374023438 296.5 L 1140.2333374023438 296.5 L 1140.2333374023438 280.5" fill-opacity="1" clip-path="url(#mcxNeDgdUoni)"/><text fill="rgb(68,68,68)" stroke="none" font-family="helvetica" font-size="13px" font-style="normal" font-weight="normal" text-decoration="normal" x="1162.7333374023438" y="311" text-anchor="start" dominant-baseline="central" clip-path="url(#mcxNeDgdUoni)" transform="matrix(1, 0, 0, 1, 0.5, 0.5)" fill-opacity="1">concentrationlab</text><text fill="rgb(68,68,68)" stroke="none" font-family="helvetica" font-size="13px" font-style="normal" font-weight="normal" text-decoration="normal" x="1162.7333374023438" y="334" text-anchor="start" dominant-baseline="central" clip-path="url(#mcxNeDgdUoni)" transform="matrix(1, 0, 0, 1, 0.5, 0.5)" fill-opacity="1">wavelength_slider</text><path fill="rgb(105,29,48)" stroke="none" paint-order="stroke" d="M 1140.2333374023438 326.5 L 1156.2333374023438 326.5 L 1156.2333374023438 342.5 L 1140.2333374023438 342.5 L 1140.2333374023438 326.5" fill-opacity="1" clip-path="url(#mcxNeDgdUoni)"/><text fill="rgb(68,68,68)" stroke="none" font-family="helvetica" font-size="13px" font-style="normal" font-weight="normal" text-decoration="normal" x="1162.7333374023438" y="357" text-anchor="start" dominant-baseline="central" clip-path="url(#mcxNeDgdUoni)" transform="matrix(1, 0, 0, 1, 0.5, 0.5)" fill-opacity="1">ruler measuring</text><path fill="rgb(255,188,66)" stroke="none" paint-order="stroke" d="M 1140.2333374023438 349.5 L 1156.2333374023438 349.5 L 1156.2333374023438 365.5 L 1140.2333374023438 365.5 L 1140.2333374023438 349.5" fill-opacity="1" clip-path="url(#mcxNeDgdUoni)"/><text fill="rgb(68,68,68)" stroke="none" font-family="helvetica" font-size="13px" font-style="normal" font-weight="normal" text-decoration="normal" x="1162.7333374023438" y="380" text-anchor="start" dominant-baseline="central" clip-path="url(#mcxNeDgdUoni)" transform="matrix(1, 0, 0, 1, 0.5, 0.5)" fill-opacity="1">dependent variable</text><path fill="rgb(143,45,86)" stroke="none" paint-order="stroke" d="M 1140.2333374023438 372.5 L 1156.2333374023438 372.5 L 1156.2333374023438 388.5 L 1140.2333374023438 388.5 L 1140.2333374023438 372.5" fill-opacity="1" clip-path="url(#mcxNeDgdUoni)"/><text fill="rgb(68,68,68)" stroke="none" font-family="helvetica" font-size="25pt" font-style="normal" font-weight="bold" text-decoration="normal" x="58" y="38.740885416666664" text-anchor="start" dominant-baseline="alphabetic" transform="matrix(1, 0, 0, 1, 0.5, 0.5)" fill-opacity="1">Timeline for student 4vuc8rr3 with permutation 3021 for task 1</text></svg>