<svg version="1.1" xmlns="http://www.w3.org/2000/svg" width="1366" height="683"><defs><clipPath id="FUqJDPHiQaTP"><path fill="none" stroke="none" d="M 58.5 51.5 L 1336.5 51.5 L 1336.5 630.5 L 58.5 630.5 L 58.5 51.5"/></clipPath><clipPath id="gAXRmcJcAHoP"><path fill="none" stroke="none" d="M 58.5 51.5 L 1336.5 51.5 L 1336.5 630.5 L 58.5 630.5 L 58.5 51.5"/></clipPath><clipPath id="QwBALFUAOKcc"><path fill="none" stroke="none" d="M 58.5 51.5 L 1336.5 51.5 L 1336.5 630.5 L 58.5 630.5 L 58.5 51.5"/></clipPath><clipPath id="iTRyRfXduFwx"><path fill="none" stroke="none" d="M 58.5 51.5 L 1336.5 51.5 L 1336.5 630.5 L 58.5 630.5 L 58.5 51.5"/></clipPath><clipPath id="SRGhlcAXZOpz"><path fill="none" stroke="none" d="M 58.5 51.5 L 1336.5 51.5 L 1336.5 630.5 L 58.5 630.5 L 58.5 51.5"/></clipPath><clipPath id="rmqZFTNLiteb"><path fill="none" stroke="none" d="M 58.5 51.5 L 1336.5 51.5 L 1336.5 630.5 L 58.5 630.5 L 58.5 51.5"/></clipPath><clipPath id="hMQQcRGzaSkw"><path fill="none" stroke="none" d="M 58.5 51.5 L 1336.5 51.5 L 1336.5 630.5 L 58.5 630.5 L 58.5 51.5"/></clipPath><clipPath id="UekyZKlEdnlK"><path fill="none" stroke="none" d="M 58.5 51.5 L 1336.5 51.5 L 1336.5 630.5 L 58.5 630.5 L 58.5 51.5"/></clipPath><clipPath id="FzSwFrgLFVoQ"><path fill="none" stroke="none" d="M 58.5 51.5 L 1336.5 51.5 L 1336.5 630.5 L 58.5 630.5 L 58.5 51.5"/></clipPath><clipPath id="HRQmpNkTvMEI"><path fill="none" stroke="none" d="M 58.5 51.5 L 1336.5 51.5 L 1336.5 630.5 L 58.5 630.5 L 58.5 51.5"/></clipPath><clipPath id="IgrSbykKCVQe"><path fill="none" stroke="none" d="M 58.5 51.5 L 1336.5 51.5 L 1336.5 630.5 L 58.5 630.5 L 58.5 51.5"/></clipPath><clipPath id="VTBTQNhHIGRn"><path fill="none" stroke="none" d="M 58.5 51.5 L 1336.5 51.5 L 1336.5 630.5 L 58.5 630.5 L 58.5 51.5"/></clipPath><clipPath id="wVnCULbuKsVB"><path fill="none" stroke="none" d="M 58.5 51.5 L 1336.5 51.5 L 1336.5 630.5 L 58.5 630.5 L 58.5 51.5"/></clipPath><clipPath id="dQttDkMqUFgf"><path fill="none" stroke="none" d="M 58.5 51.5 L 1336.5 51.5 L 1336.5 630.5 L 58.5 630.5 L 58.5 51.5"/></clipPath><clipPath id="dWiCCIbVsGNb"><path fill="none" stroke="none" d="M 58.5 51.5 L 1336.5 51.5 L 1336.5 630.5 L 58.5 630.5 L 58.5 51.5"/></clipPath><clipPath id="NpPGfMSGgrsA"><path fill="none" stroke="none" d="M 58.5 51.5 L 1336.5 51.5 L 1336.5 630.5 L 58.5 630.5 L 58.5 51.5"/></clipPath><clipPath id="eiClXOzWHfpd"><path fill="none" stroke="none" d="M 58.5 51.5 L 1336.5 51.5 L 1336.5 630.5 L 58.5 630.5 L 58.5 51.5"/></clipPath><clipPath id="wScmiagTiszC"><path fill="none" stroke="none" d="M 58.5 51.5 L 1336.5 51.5 L 1336.5 630.5 L 58.5 630.5 L 58.5 51.5"/></clipPath><clipPath id="vqhMiMyTUBHb"><path fill="none" stroke="none" d="M 58.5 51.5 L 1336.5 51.5 L 1336.5 630.5 L 58.5 630.5 L 58.5 51.5"/></clipPath><clipPath id="VWnrzOoGeseo"><path fill="none" stroke="none" d="M 58.5 51.5 L 1336.5 51.5 L 1336.5 630.5 L 58.5 630.5 L 58.5 51.5"/></clipPath><clipPath id="WBvTVCXZDFyp"><path fill="none" stroke="none" d="M 58.5 51.5 L 1336.5 51.5 L 1336.5 630.5 L 58.5 630.5 L 58.5 51.5"/></clipPath></defs><path fill="rgb(255,255,255)" stroke="none" paint-order="stroke" d="M 0.5 0.5 L 1366.5 0.5 L 1366.5 683.5 L 0.5 683.5 L 0.5 0.5" fill-opacity="1"/><rect fill="#FFFFFF" stroke="none" x="58" y="51" width="1278" height="579" transform="matrix(1, 0, 0, 1, 0.5, 0.5)"/><path fill="rgb(255,255,255)" stroke="none" paint-order="stroke" d="M 58.5 51.5 L 1336.5 51.5 L 1336.5 630.5 L 58.5 630.5 L 58.5 51.5" fill-opacity="1"/><path fill="none" stroke="rgb(229,229,229)" paint-order="fill" d="M 58.5 51.5 L 1336.5 51.5 L 1336.5 630.5 L 58.5 630.5 L 58.5 51.5" stroke-opacity="1" stroke-linejoin="bevel" stroke-miterlimit="10" stroke-dasharray=""/><path fill="none" stroke="rgb(229,229,229)" paint-order="fill" d="M 314.5 630.5 L 314.5 51.5 M 569.5 630.5 L 569.5 51.5 M 825.5 630.5 L 825.5 51.5 M 1080.5 630.5 L 1080.5 51.5" stroke-opacity="1" stroke-linejoin="bevel" stroke-miterlimit="10" stroke-dasharray="" clip-path="url(#FUqJDPHiQaTP)"/><path fill="none" stroke="rgb(229,229,229)" paint-order="fill" d="M 58.5 551.5 L 1336.5 551.5 M 58.5 446.5 L 1336.5 446.5 M 58.5 341.5 L 1336.5 341.5 M 58.5 235.5 L 1336.5 235.5 M 58.5 130.5 L 1336.5 130.5" stroke-opacity="1" stroke-linejoin="bevel" stroke-miterlimit="10" stroke-dasharray="" clip-path="url(#gAXRmcJcAHoP)"/><path fill="rgb(0,255,40)" stroke="none" paint-order="stroke" d="M 58.5 77.81818389892578 L 118.0599136352539 77.81818389892578 L 118.0599136352539 130.45454788208008 L 58.5 130.45454788208008 L 58.5 77.81818389892578" fill-opacity="1" clip-path="url(#QwBALFUAOKcc)"/><path fill="rgb(0,255,23)" stroke="none" paint-order="stroke" d="M 118.0599136352539 77.81818389892578 L 118.28100763261318 77.81818389892578 L 118.28100763261318 130.45454788208008 L 118.0599136352539 130.45454788208008 L 118.0599136352539 77.81818389892578" fill-opacity="1" clip-path="url(#QwBALFUAOKcc)"/><path fill="rgb(0,255,0)" stroke="none" paint-order="stroke" d="M 118.281005859375 77.81818389892578 L 118.4995438605547 77.81818389892578 L 118.4995438605547 130.45454788208008 L 118.281005859375 130.45454788208008 L 118.281005859375 77.81818389892578" fill-opacity="1" clip-path="url(#QwBALFUAOKcc)"/><path fill="rgb(8,255,0)" stroke="none" paint-order="stroke" d="M 118.49954223632812 77.81818389892578 L 118.70402224361897 77.81818389892578 L 118.70402224361897 130.45454788208008 L 118.49954223632812 130.45454788208008 L 118.49954223632812 77.81818389892578" fill-opacity="1" clip-path="url(#QwBALFUAOKcc)"/><path fill="rgb(14,255,0)" stroke="none" paint-order="stroke" d="M 118.70402526855469 77.81818389892578 L 118.90594926476479 77.81818389892578 L 118.90594926476479 130.45454788208008 L 118.70402526855469 130.45454788208008 L 118.70402526855469 77.81818389892578" fill-opacity="1" clip-path="url(#QwBALFUAOKcc)"/><path fill="rgb(20,255,0)" stroke="none" paint-order="stroke" d="M 118.90594482421875 77.81818389892578 L 119.11681482195854 77.81818389892578 L 119.11681482195854 130.45454788208008 L 118.90594482421875 130.45454788208008 L 118.90594482421875 77.81818389892578" fill-opacity="1" clip-path="url(#QwBALFUAOKcc)"/><path fill="rgb(25,255,0)" stroke="none" paint-order="stroke" d="M 119.1168212890625 77.81818389892578 L 119.33791528642178 77.81818389892578 L 119.33791528642178 130.45454788208008 L 119.1168212890625 130.45454788208008 L 119.1168212890625 77.81818389892578" fill-opacity="1" clip-path="url(#QwBALFUAOKcc)"/><path fill="rgb(30,255,0)" stroke="none" paint-order="stroke" d="M 119.3379135131836 77.81818389892578 L 119.53344751894474 77.81818389892578 L 119.53344751894474 130.45454788208008 L 119.3379135131836 130.45454788208008 L 119.3379135131836 77.81818389892578" fill-opacity="1" clip-path="url(#QwBALFUAOKcc)"/><path fill="rgb(35,255,0)" stroke="none" paint-order="stroke" d="M 119.533447265625 77.81818389892578 L 119.7264252603054 77.81818389892578 L 119.7264252603054 130.45454788208008 L 119.533447265625 130.45454788208008 L 119.533447265625 77.81818389892578" fill-opacity="1" clip-path="url(#QwBALFUAOKcc)"/><path fill="rgb(40,255,0)" stroke="none" paint-order="stroke" d="M 119.72642517089844 77.81818389892578 L 119.93729516863823 77.81818389892578 L 119.93729516863823 130.45454788208008 L 119.72642517089844 130.45454788208008 L 119.72642517089844 77.81818389892578" fill-opacity="1" clip-path="url(#QwBALFUAOKcc)"/><path fill="rgb(44,255,0)" stroke="none" paint-order="stroke" d="M 119.93729400634766 77.81818389892578 L 120.15838800370693 77.81818389892578 L 120.15838800370693 130.45454788208008 L 119.93729400634766 130.45454788208008 L 119.93729400634766 77.81818389892578" fill-opacity="1" clip-path="url(#QwBALFUAOKcc)"/><path fill="rgb(49,255,0)" stroke="none" paint-order="stroke" d="M 120.15838623046875 77.81818389892578 L 120.57245823740959 77.81818389892578 L 120.57245823740959 130.45454788208008 L 120.15838623046875 130.45454788208008 L 120.15838623046875 77.81818389892578" fill-opacity="1" clip-path="url(#QwBALFUAOKcc)"/><path fill="rgb(53,255,0)" stroke="none" paint-order="stroke" d="M 120.57245635986328 77.81818389892578 L 165.8289909362793 77.81818389892578 L 165.8289909362793 130.45454788208008 L 120.57245635986328 130.45454788208008 L 120.57245635986328 77.81818389892578" fill-opacity="1" clip-path="url(#QwBALFUAOKcc)"/><path fill="rgb(159,255,0)" stroke="none" paint-order="stroke" d="M 165.82899475097656 77.81818389892578 L 171.95572662353516 77.81818389892578 L 171.95572662353516 130.45454788208008 L 165.82899475097656 130.45454788208008 L 165.82899475097656 77.81818389892578" fill-opacity="1" clip-path="url(#QwBALFUAOKcc)"/><path fill="rgb(156,255,0)" stroke="none" paint-order="stroke" d="M 171.9557342529297 77.81818389892578 L 172.08864624798298 77.81818389892578 L 172.08864624798298 130.45454788208008 L 171.9557342529297 130.45454788208008 L 171.9557342529297 77.81818389892578" fill-opacity="1" clip-path="url(#QwBALFUAOKcc)"/><path fill="rgb(153,255,0)" stroke="none" paint-order="stroke" d="M 172.08863830566406 77.81818389892578 L 172.2241063117981 77.81818389892578 L 172.2241063117981 130.45454788208008 L 172.08863830566406 130.45454788208008 L 172.08863830566406 77.81818389892578" fill-opacity="1" clip-path="url(#QwBALFUAOKcc)"/><path fill="rgb(149,255,0)" stroke="none" paint-order="stroke" d="M 172.22410583496094 77.81818389892578 L 172.35701783001423 77.81818389892578 L 172.35701783001423 130.45454788208008 L 172.22410583496094 130.45454788208008 L 172.22410583496094 77.81818389892578" fill-opacity="1" clip-path="url(#QwBALFUAOKcc)"/><path fill="rgb(146,255,0)" stroke="none" paint-order="stroke" d="M 172.35702514648438 77.81818389892578 L 172.47204514592886 77.81818389892578 L 172.47204514592886 130.45454788208008 L 172.35702514648438 130.45454788208008 L 172.35702514648438 77.81818389892578" fill-opacity="1" clip-path="url(#QwBALFUAOKcc)"/><path fill="rgb(143,255,0)" stroke="none" paint-order="stroke" d="M 172.4720458984375 77.81818389892578 L 172.6049578934908 77.81818389892578 L 172.6049578934908 130.45454788208008 L 172.4720458984375 130.45454788208008 L 172.4720458984375 77.81818389892578" fill-opacity="1" clip-path="url(#QwBALFUAOKcc)"/><path fill="rgb(139,255,0)" stroke="none" paint-order="stroke" d="M 172.60494995117188 77.81818389892578 L 172.73913994431496 77.81818389892578 L 172.73913994431496 130.45454788208008 L 172.60494995117188 130.45454788208008 L 172.60494995117188 77.81818389892578" fill-opacity="1" clip-path="url(#QwBALFUAOKcc)"/><path fill="rgb(136,255,0)" stroke="none" paint-order="stroke" d="M 172.7391357421875 77.81818389892578 L 172.85415574163198 77.81818389892578 L 172.85415574163198 130.45454788208008 L 172.7391357421875 130.45454788208008 L 172.7391357421875 77.81818389892578" fill-opacity="1" clip-path="url(#QwBALFUAOKcc)"/><path fill="rgb(132,255,0)" stroke="none" paint-order="stroke" d="M 172.85415649414062 77.81818389892578 L 172.9883464872837 77.81818389892578 L 172.9883464872837 130.45454788208008 L 172.85415649414062 130.45454788208008 L 172.85415649414062 77.81818389892578" fill-opacity="1" clip-path="url(#QwBALFUAOKcc)"/><path fill="rgb(129,255,0)" stroke="none" paint-order="stroke" d="M 172.9883575439453 77.81818389892578 L 173.1225475370884 77.81818389892578 L 173.1225475370884 130.45454788208008 L 172.9883575439453 130.45454788208008 L 172.9883575439453 77.81818389892578" fill-opacity="1" clip-path="url(#QwBALFUAOKcc)"/><path fill="rgb(126,255,0)" stroke="none" paint-order="stroke" d="M 173.12254333496094 77.81818389892578 L 173.2388413324952 77.81818389892578 L 173.2388413324952 130.45454788208008 L 173.12254333496094 130.45454788208008 L 173.12254333496094 77.81818389892578" fill-opacity="1" clip-path="url(#QwBALFUAOKcc)"/><path fill="rgb(122,255,0)" stroke="none" paint-order="stroke" d="M 173.2388458251953 77.81818389892578 L 173.3717578202486 77.81818389892578 L 173.3717578202486 130.45454788208008 L 173.2388458251953 130.45454788208008 L 173.2388458251953 77.81818389892578" fill-opacity="1" clip-path="url(#QwBALFUAOKcc)"/><path fill="rgb(119,255,0)" stroke="none" paint-order="stroke" d="M 173.3717498779297 77.81818389892578 L 173.50593987107277 77.81818389892578 L 173.50593987107277 130.45454788208008 L 173.3717498779297 130.45454788208008 L 173.3717498779297 77.81818389892578" fill-opacity="1" clip-path="url(#QwBALFUAOKcc)"/><path fill="rgb(115,255,0)" stroke="none" paint-order="stroke" d="M 173.5059356689453 77.81818389892578 L 173.6222336664796 77.81818389892578 L 173.6222336664796 130.45454788208008 L 173.5059356689453 130.45454788208008 L 173.5059356689453 77.81818389892578" fill-opacity="1" clip-path="url(#QwBALFUAOKcc)"/><path fill="rgb(111,255,0)" stroke="none" paint-order="stroke" d="M 173.6222381591797 77.81818389892578 L 173.75642815232277 77.81818389892578 L 173.75642815232277 130.45454788208008 L 173.6222381591797 130.45454788208008 L 173.6222381591797 77.81818389892578" fill-opacity="1" clip-path="url(#QwBALFUAOKcc)"/><path fill="rgb(108,255,0)" stroke="none" paint-order="stroke" d="M 173.7564239501953 77.81818389892578 L 173.8727219477296 77.81818389892578 L 173.8727219477296 130.45454788208008 L 173.7564239501953 130.45454788208008 L 173.7564239501953 77.81818389892578" fill-opacity="1" clip-path="url(#QwBALFUAOKcc)"/><path fill="rgb(104,255,0)" stroke="none" paint-order="stroke" d="M 173.8727264404297 77.81818389892578 L 174.0043604373932 77.81818389892578 L 174.0043604373932 130.45454788208008 L 173.8727264404297 130.45454788208008 L 173.8727264404297 77.81818389892578" fill-opacity="1" clip-path="url(#QwBALFUAOKcc)"/><path fill="rgb(101,255,0)" stroke="none" paint-order="stroke" d="M 174.00436401367188 77.81818389892578 L 174.1411100178957 77.81818389892578 L 174.1411100178957 130.45454788208008 L 174.00436401367188 130.45454788208008 L 174.00436401367188 77.81818389892578" fill-opacity="1" clip-path="url(#QwBALFUAOKcc)"/><path fill="rgb(97,255,0)" stroke="none" paint-order="stroke" d="M 174.14111328125 77.81818389892578 L 174.2727472782135 77.81818389892578 L 174.2727472782135 130.45454788208008 L 174.14111328125 130.45454788208008 L 174.14111328125 77.81818389892578" fill-opacity="1" clip-path="url(#QwBALFUAOKcc)"/><path fill="rgb(93,255,0)" stroke="none" paint-order="stroke" d="M 174.27273559570312 77.81818389892578 L 174.38647759705782 77.81818389892578 L 174.38647759705782 130.45454788208008 L 174.27273559570312 130.45454788208008 L 174.27273559570312 77.81818389892578" fill-opacity="1" clip-path="url(#QwBALFUAOKcc)"/><path fill="rgb(89,255,0)" stroke="none" paint-order="stroke" d="M 174.38648986816406 77.81818389892578 L 174.5219578742981 77.81818389892578 L 174.5219578742981 130.45454788208008 L 174.38648986816406 130.45454788208008 L 174.38648986816406 77.81818389892578" fill-opacity="1" clip-path="url(#QwBALFUAOKcc)"/><path fill="rgb(86,255,0)" stroke="none" paint-order="stroke" d="M 174.52195739746094 77.81818389892578 L 174.63953340053558 77.81818389892578 L 174.63953340053558 130.45454788208008 L 174.52195739746094 130.45454788208008 L 174.52195739746094 77.81818389892578" fill-opacity="1" clip-path="url(#QwBALFUAOKcc)"/><path fill="rgb(82,255,0)" stroke="none" paint-order="stroke" d="M 174.6395263671875 77.81818389892578 L 174.771160364151 77.81818389892578 L 174.771160364151 130.45454788208008 L 174.6395263671875 130.45454788208008 L 174.6395263671875 77.81818389892578" fill-opacity="1" clip-path="url(#QwBALFUAOKcc)"/><path fill="rgb(78,255,0)" stroke="none" paint-order="stroke" d="M 174.7711639404297 77.81818389892578 L 174.90535393357277 77.81818389892578 L 174.90535393357277 130.45454788208008 L 174.7711639404297 130.45454788208008 L 174.7711639404297 77.81818389892578" fill-opacity="1" clip-path="url(#QwBALFUAOKcc)"/><path fill="rgb(74,255,0)" stroke="none" paint-order="stroke" d="M 174.9053497314453 77.81818389892578 L 175.0395397245884 77.81818389892578 L 175.0395397245884 130.45454788208008 L 174.9053497314453 130.45454788208008 L 174.9053497314453 77.81818389892578" fill-opacity="1" clip-path="url(#QwBALFUAOKcc)"/><path fill="rgb(70,255,0)" stroke="none" paint-order="stroke" d="M 175.03953552246094 77.81818389892578 L 175.15455552190542 77.81818389892578 L 175.15455552190542 130.45454788208008 L 175.03953552246094 130.45454788208008 L 175.03953552246094 77.81818389892578" fill-opacity="1" clip-path="url(#QwBALFUAOKcc)"/><path fill="rgb(66,255,0)" stroke="none" paint-order="stroke" d="M 175.15455627441406 77.81818389892578 L 175.28874626755714 77.81818389892578 L 175.28874626755714 130.45454788208008 L 175.15455627441406 130.45454788208008 L 175.15455627441406 77.81818389892578" fill-opacity="1" clip-path="url(#QwBALFUAOKcc)"/><path fill="rgb(62,255,0)" stroke="none" paint-order="stroke" d="M 175.28875732421875 77.81818389892578 L 175.42294731736183 77.81818389892578 L 175.42294731736183 130.45454788208008 L 175.28875732421875 130.45454788208008 L 175.28875732421875 77.81818389892578" fill-opacity="1" clip-path="url(#QwBALFUAOKcc)"/><path fill="rgb(58,255,0)" stroke="none" paint-order="stroke" d="M 175.42294311523438 77.81818389892578 L 175.53668511658907 77.81818389892578 L 175.53668511658907 130.45454788208008 L 175.42294311523438 130.45454788208008 L 175.42294311523438 77.81818389892578" fill-opacity="1" clip-path="url(#QwBALFUAOKcc)"/><path fill="rgb(53,255,0)" stroke="none" paint-order="stroke" d="M 175.53668212890625 77.81818389892578 L 191.02987575531006 77.81818389892578 L 191.02987575531006 130.45454788208008 L 175.53668212890625 130.45454788208008 L 175.53668212890625 77.81818389892578" fill-opacity="1" clip-path="url(#QwBALFUAOKcc)"/><path fill="rgb(159,255,0)" stroke="none" paint-order="stroke" d="M 191.02987670898438 77.81818389892578 L 208.05283737182617 77.81818389892578 L 208.05283737182617 130.45454788208008 L 191.02987670898438 130.45454788208008 L 191.02987670898438 77.81818389892578" fill-opacity="1" clip-path="url(#QwBALFUAOKcc)"/><path fill="rgb(156,255,0)" stroke="none" paint-order="stroke" d="M 208.05284118652344 77.81818389892578 L 208.18575318157673 77.81818389892578 L 208.18575318157673 130.45454788208008 L 208.05284118652344 130.45454788208008 L 208.05284118652344 77.81818389892578" fill-opacity="1" clip-path="url(#QwBALFUAOKcc)"/><path fill="rgb(153,255,0)" stroke="none" paint-order="stroke" d="M 208.1857452392578 77.81818389892578 L 208.32249124348164 77.81818389892578 L 208.32249124348164 130.45454788208008 L 208.1857452392578 130.45454788208008 L 208.1857452392578 77.81818389892578" fill-opacity="1" clip-path="url(#QwBALFUAOKcc)"/><path fill="rgb(149,255,0)" stroke="none" paint-order="stroke" d="M 208.32249450683594 77.81818389892578 L 208.45540650188923 77.81818389892578 L 208.45540650188923 130.45454788208008 L 208.32249450683594 130.45454788208008 L 208.32249450683594 77.81818389892578" fill-opacity="1" clip-path="url(#QwBALFUAOKcc)"/><path fill="rgb(146,255,0)" stroke="none" paint-order="stroke" d="M 208.45541381835938 77.81818389892578 L 208.57171181589365 77.81818389892578 L 208.57171181589365 130.45454788208008 L 208.45541381835938 130.45454788208008 L 208.45541381835938 77.81818389892578" fill-opacity="1" clip-path="url(#QwBALFUAOKcc)"/><path fill="rgb(143,255,0)" stroke="none" paint-order="stroke" d="M 208.5717010498047 77.81818389892578 L 208.70461304485798 77.81818389892578 L 208.70461304485798 130.45454788208008 L 208.5717010498047 130.45454788208008 L 208.5717010498047 77.81818389892578" fill-opacity="1" clip-path="url(#QwBALFUAOKcc)"/><path fill="rgb(139,255,0)" stroke="none" paint-order="stroke" d="M 208.70462036132812 77.81818389892578 L 208.84008836746216 77.81818389892578 L 208.84008836746216 130.45454788208008 L 208.70462036132812 130.45454788208008 L 208.70462036132812 77.81818389892578" fill-opacity="1" clip-path="url(#QwBALFUAOKcc)"/><path fill="rgb(136,255,0)" stroke="none" paint-order="stroke" d="M 208.840087890625 77.81818389892578 L 208.9538298919797 77.81818389892578 L 208.9538298919797 130.45454788208008 L 208.840087890625 130.45454788208008 L 208.840087890625 77.81818389892578" fill-opacity="1" clip-path="url(#QwBALFUAOKcc)"/><path fill="rgb(132,255,0)" stroke="none" paint-order="stroke" d="M 208.95382690429688 77.81818389892578 L 209.0892949104309 77.81818389892578 L 209.0892949104309 130.45454788208008 L 208.95382690429688 130.45454788208008 L 208.95382690429688 77.81818389892578" fill-opacity="1" clip-path="url(#QwBALFUAOKcc)"/><path fill="rgb(129,255,0)" stroke="none" paint-order="stroke" d="M 209.08929443359375 77.81818389892578 L 209.22220642864704 77.81818389892578 L 209.22220642864704 130.45454788208008 L 209.08929443359375 130.45454788208008 L 209.08929443359375 77.81818389892578" fill-opacity="1" clip-path="url(#QwBALFUAOKcc)"/><path fill="rgb(126,255,0)" stroke="none" paint-order="stroke" d="M 209.2222137451172 77.81818389892578 L 209.33723374456167 77.81818389892578 L 209.33723374456167 130.45454788208008 L 209.2222137451172 130.45454788208008 L 209.2222137451172 77.81818389892578" fill-opacity="1" clip-path="url(#QwBALFUAOKcc)"/><path fill="rgb(122,255,0)" stroke="none" paint-order="stroke" d="M 209.3372344970703 77.81818389892578 L 209.47270250320435 77.81818389892578 L 209.47270250320435 130.45454788208008 L 209.3372344970703 130.45454788208008 L 209.3372344970703 77.81818389892578" fill-opacity="1" clip-path="url(#QwBALFUAOKcc)"/><path fill="rgb(119,255,0)" stroke="none" paint-order="stroke" d="M 209.4727020263672 77.81818389892578 L 209.60689201951027 77.81818389892578 L 209.60689201951027 130.45454788208008 L 209.4727020263672 130.45454788208008 L 209.4727020263672 77.81818389892578" fill-opacity="1" clip-path="url(#QwBALFUAOKcc)"/><path fill="rgb(115,255,0)" stroke="none" paint-order="stroke" d="M 209.6068878173828 77.81818389892578 L 209.7219078168273 77.81818389892578 L 209.7219078168273 130.45454788208008 L 209.6068878173828 130.45454788208008 L 209.6068878173828 77.81818389892578" fill-opacity="1" clip-path="url(#QwBALFUAOKcc)"/><path fill="rgb(111,255,0)" stroke="none" paint-order="stroke" d="M 209.72190856933594 77.81818389892578 L 209.85482056438923 77.81818389892578 L 209.85482056438923 130.45454788208008 L 209.72190856933594 130.45454788208008 L 209.72190856933594 77.81818389892578" fill-opacity="1" clip-path="url(#QwBALFUAOKcc)"/><path fill="rgb(108,255,0)" stroke="none" paint-order="stroke" d="M 209.8548126220703 77.81818389892578 L 209.9711106196046 77.81818389892578 L 209.9711106196046 130.45454788208008 L 209.8548126220703 130.45454788208008 L 209.8548126220703 77.81818389892578" fill-opacity="1" clip-path="url(#QwBALFUAOKcc)"/><path fill="rgb(104,255,0)" stroke="none" paint-order="stroke" d="M 209.9711151123047 77.81818389892578 L 210.10530510544777 77.81818389892578 L 210.10530510544777 130.45454788208008 L 209.9711151123047 130.45454788208008 L 209.9711151123047 77.81818389892578" fill-opacity="1" clip-path="url(#QwBALFUAOKcc)"/><path fill="rgb(101,255,0)" stroke="none" paint-order="stroke" d="M 210.1053009033203 77.81818389892578 L 210.2394908964634 77.81818389892578 L 210.2394908964634 130.45454788208008 L 210.1053009033203 130.45454788208008 L 210.1053009033203 77.81818389892578" fill-opacity="1" clip-path="url(#QwBALFUAOKcc)"/><path fill="rgb(97,255,0)" stroke="none" paint-order="stroke" d="M 210.239501953125 77.81818389892578 L 210.37496995925903 77.81818389892578 L 210.37496995925903 130.45454788208008 L 210.239501953125 130.45454788208008 L 210.239501953125 77.81818389892578" fill-opacity="1" clip-path="url(#QwBALFUAOKcc)"/><path fill="rgb(93,255,0)" stroke="none" paint-order="stroke" d="M 210.37496948242188 77.81818389892578 L 210.48871148377657 77.81818389892578 L 210.48871148377657 130.45454788208008 L 210.37496948242188 130.45454788208008 L 210.37496948242188 77.81818389892578" fill-opacity="1" clip-path="url(#QwBALFUAOKcc)"/><path fill="rgb(89,255,0)" stroke="none" paint-order="stroke" d="M 210.48870849609375 77.81818389892578 L 210.62289848923683 77.81818389892578 L 210.62289848923683 130.45454788208008 L 210.48870849609375 130.45454788208008 L 210.48870849609375 77.81818389892578" fill-opacity="1" clip-path="url(#QwBALFUAOKcc)"/><path fill="rgb(86,255,0)" stroke="none" paint-order="stroke" d="M 210.62289428710938 77.81818389892578 L 210.75580628216267 77.81818389892578 L 210.75580628216267 130.45454788208008 L 210.62289428710938 130.45454788208008 L 210.62289428710938 77.81818389892578" fill-opacity="1" clip-path="url(#QwBALFUAOKcc)"/><path fill="rgb(82,255,0)" stroke="none" paint-order="stroke" d="M 210.7558135986328 77.81818389892578 L 210.8695555999875 77.81818389892578 L 210.8695555999875 130.45454788208008 L 210.7558135986328 130.45454788208008 L 210.7558135986328 77.81818389892578" fill-opacity="1" clip-path="url(#QwBALFUAOKcc)"/><path fill="rgb(78,255,0)" stroke="none" paint-order="stroke" d="M 210.8695526123047 77.81818389892578 L 211.43059462308884 77.81818389892578 L 211.43059462308884 130.45454788208008 L 210.8695526123047 130.45454788208008 L 210.8695526123047 77.81818389892578" fill-opacity="1" clip-path="url(#QwBALFUAOKcc)"/><path fill="rgb(74,255,0)" stroke="none" paint-order="stroke" d="M 211.4305877685547 77.81818389892578 L 211.68746575713158 77.81818389892578 L 211.68746575713158 130.45454788208008 L 211.4305877685547 130.45454788208008 L 211.4305877685547 77.81818389892578" fill-opacity="1" clip-path="url(#QwBALFUAOKcc)"/><path fill="rgb(70,255,0)" stroke="none" paint-order="stroke" d="M 211.68746948242188 77.81818389892578 L 211.90600748360157 77.81818389892578 L 211.90600748360157 130.45454788208008 L 211.68746948242188 130.45454788208008 L 211.68746948242188 77.81818389892578" fill-opacity="1" clip-path="url(#QwBALFUAOKcc)"/><path fill="rgb(66,255,0)" stroke="none" paint-order="stroke" d="M 211.906005859375 77.81818389892578 L 212.15393786132336 77.81818389892578 L 212.15393786132336 130.45454788208008 L 211.906005859375 130.45454788208008 L 211.906005859375 77.81818389892578" fill-opacity="1" clip-path="url(#QwBALFUAOKcc)"/><path fill="rgb(62,255,0)" stroke="none" paint-order="stroke" d="M 212.15394592285156 77.81818389892578 L 212.37376192212105 77.81818389892578 L 212.37376192212105 130.45454788208008 L 212.15394592285156 130.45454788208008 L 212.15394592285156 77.81818389892578" fill-opacity="1" clip-path="url(#QwBALFUAOKcc)"/><path fill="rgb(58,255,0)" stroke="none" paint-order="stroke" d="M 212.37374877929688 77.81818389892578 L 212.75203678011894 77.81818389892578 L 212.75203678011894 130.45454788208008 L 212.37374877929688 130.45454788208008 L 212.37374877929688 77.81818389892578" fill-opacity="1" clip-path="url(#QwBALFUAOKcc)"/><path fill="rgb(53,255,0)" stroke="none" paint-order="stroke" d="M 212.75204467773438 77.81818389892578 L 213.7412166595459 77.81818389892578 L 213.7412166595459 130.45454788208008 L 212.75204467773438 130.45454788208008 L 212.75204467773438 77.81818389892578" fill-opacity="1" clip-path="url(#QwBALFUAOKcc)"/><path fill="rgb(159,255,0)" stroke="none" paint-order="stroke" d="M 213.7412109375 77.81818389892578 L 216.91959691047668 77.81818389892578 L 216.91959691047668 130.45454788208008 L 213.7412109375 130.45454788208008 L 213.7412109375 77.81818389892578" fill-opacity="1" clip-path="url(#QwBALFUAOKcc)"/><path fill="rgb(156,255,0)" stroke="none" paint-order="stroke" d="M 216.9196014404297 77.81818389892578 L 217.05379143357277 77.81818389892578 L 217.05379143357277 130.45454788208008 L 216.9196014404297 130.45454788208008 L 216.9196014404297 77.81818389892578" fill-opacity="1" clip-path="url(#QwBALFUAOKcc)"/><path fill="rgb(153,255,0)" stroke="none" paint-order="stroke" d="M 217.0537872314453 77.81818389892578 L 217.18925523757935 77.81818389892578 L 217.18925523757935 130.45454788208008 L 217.0537872314453 130.45454788208008 L 217.0537872314453 77.81818389892578" fill-opacity="1" clip-path="url(#QwBALFUAOKcc)"/><path fill="rgb(149,255,0)" stroke="none" paint-order="stroke" d="M 217.1892547607422 77.81818389892578 L 217.32344475388527 77.81818389892578 L 217.32344475388527 130.45454788208008 L 217.1892547607422 130.45454788208008 L 217.1892547607422 77.81818389892578" fill-opacity="1" clip-path="url(#QwBALFUAOKcc)"/><path fill="rgb(146,255,0)" stroke="none" paint-order="stroke" d="M 217.32345581054688 77.81818389892578 L 217.43719781190157 77.81818389892578 L 217.43719781190157 130.45454788208008 L 217.32345581054688 130.45454788208008 L 217.32345581054688 77.81818389892578" fill-opacity="1" clip-path="url(#QwBALFUAOKcc)"/><path fill="rgb(143,255,0)" stroke="none" paint-order="stroke" d="M 217.43719482421875 77.81818389892578 L 217.57138481736183 77.81818389892578 L 217.57138481736183 130.45454788208008 L 217.43719482421875 130.45454788208008 L 217.43719482421875 77.81818389892578" fill-opacity="1" clip-path="url(#QwBALFUAOKcc)"/><path fill="rgb(139,255,0)" stroke="none" paint-order="stroke" d="M 217.57138061523438 77.81818389892578 L 217.7068486213684 77.81818389892578 L 217.7068486213684 130.45454788208008 L 217.57138061523438 130.45454788208008 L 217.57138061523438 77.81818389892578" fill-opacity="1" clip-path="url(#QwBALFUAOKcc)"/><path fill="rgb(136,255,0)" stroke="none" paint-order="stroke" d="M 217.70684814453125 77.81818389892578 L 217.82059014588594 77.81818389892578 L 217.82059014588594 130.45454788208008 L 217.70684814453125 130.45454788208008 L 217.70684814453125 77.81818389892578" fill-opacity="1" clip-path="url(#QwBALFUAOKcc)"/><path fill="rgb(132,255,0)" stroke="none" paint-order="stroke" d="M 217.82058715820312 77.81818389892578 L 217.95605516433716 77.81818389892578 L 217.95605516433716 130.45454788208008 L 217.82058715820312 130.45454788208008 L 217.82058715820312 77.81818389892578" fill-opacity="1" clip-path="url(#QwBALFUAOKcc)"/><path fill="rgb(129,255,0)" stroke="none" paint-order="stroke" d="M 217.9560546875 77.81818389892578 L 218.09024468064308 77.81818389892578 L 218.09024468064308 130.45454788208008 L 217.9560546875 130.45454788208008 L 217.9560546875 77.81818389892578" fill-opacity="1" clip-path="url(#QwBALFUAOKcc)"/><path fill="rgb(126,255,0)" stroke="none" paint-order="stroke" d="M 218.0902557373047 77.81818389892578 L 218.20783174037933 77.81818389892578 L 218.20783174037933 130.45454788208008 L 218.0902557373047 130.45454788208008 L 218.0902557373047 77.81818389892578" fill-opacity="1" clip-path="url(#QwBALFUAOKcc)"/><path fill="rgb(122,255,0)" stroke="none" paint-order="stroke" d="M 218.20782470703125 77.81818389892578 L 218.33818070590496 77.81818389892578 L 218.33818070590496 130.45454788208008 L 218.20782470703125 130.45454788208008 L 218.20782470703125 77.81818389892578" fill-opacity="1" clip-path="url(#QwBALFUAOKcc)"/><path fill="rgb(119,255,0)" stroke="none" paint-order="stroke" d="M 218.3381805419922 77.81818389892578 L 218.47237053513527 77.81818389892578 L 218.47237053513527 130.45454788208008 L 218.3381805419922 130.45454788208008 L 218.3381805419922 77.81818389892578" fill-opacity="1" clip-path="url(#QwBALFUAOKcc)"/><path fill="rgb(115,255,0)" stroke="none" paint-order="stroke" d="M 218.4723663330078 77.81818389892578 L 218.5873863324523 77.81818389892578 L 218.5873863324523 130.45454788208008 L 218.4723663330078 130.45454788208008 L 218.4723663330078 77.81818389892578" fill-opacity="1" clip-path="url(#QwBALFUAOKcc)"/><path fill="rgb(111,255,0)" stroke="none" paint-order="stroke" d="M 218.58738708496094 77.81818389892578 L 219.06663709878922 77.81818389892578 L 219.06663709878922 130.45454788208008 L 218.58738708496094 130.45454788208008 L 218.58738708496094 77.81818389892578" fill-opacity="1" clip-path="url(#QwBALFUAOKcc)"/><path fill="rgb(108,255,0)" stroke="none" paint-order="stroke" d="M 219.06663513183594 77.81818389892578 L 219.73758512735367 77.81818389892578 L 219.73758512735367 130.45454788208008 L 219.06663513183594 130.45454788208008 L 219.06663513183594 77.81818389892578" fill-opacity="1" clip-path="url(#QwBALFUAOKcc)"/><path fill="rgb(104,255,0)" stroke="none" paint-order="stroke" d="M 219.7375946044922 77.81818389892578 L 219.87306261062622 77.81818389892578 L 219.87306261062622 130.45454788208008 L 219.7375946044922 130.45454788208008 L 219.7375946044922 77.81818389892578" fill-opacity="1" clip-path="url(#QwBALFUAOKcc)"/><path fill="rgb(101,255,0)" stroke="none" paint-order="stroke" d="M 219.87306213378906 77.81818389892578 L 220.00725212693214 77.81818389892578 L 220.00725212693214 130.45454788208008 L 219.87306213378906 130.45454788208008 L 219.87306213378906 77.81818389892578" fill-opacity="1" clip-path="url(#QwBALFUAOKcc)"/><path fill="rgb(97,255,0)" stroke="none" paint-order="stroke" d="M 220.0072479248047 77.81818389892578 L 220.1388819217682 77.81818389892578 L 220.1388819217682 130.45454788208008 L 220.0072479248047 130.45454788208008 L 220.0072479248047 77.81818389892578" fill-opacity="1" clip-path="url(#QwBALFUAOKcc)"/><path fill="rgb(93,255,0)" stroke="none" paint-order="stroke" d="M 220.13888549804688 77.81818389892578 L 220.25390549749136 77.81818389892578 L 220.25390549749136 130.45454788208008 L 220.13888549804688 130.45454788208008 L 220.13888549804688 77.81818389892578" fill-opacity="1" clip-path="url(#QwBALFUAOKcc)"/><path fill="rgb(89,255,0)" stroke="none" paint-order="stroke" d="M 220.25390625 77.81818389892578 L 220.38809624314308 77.81818389892578 L 220.38809624314308 130.45454788208008 L 220.25390625 130.45454788208008 L 220.25390625 77.81818389892578" fill-opacity="1" clip-path="url(#QwBALFUAOKcc)"/><path fill="rgb(86,255,0)" stroke="none" paint-order="stroke" d="M 220.38809204101562 77.81818389892578 L 220.52356004714966 77.81818389892578 L 220.52356004714966 130.45454788208008 L 220.38809204101562 130.45454788208008 L 220.38809204101562 77.81818389892578" fill-opacity="1" clip-path="url(#QwBALFUAOKcc)"/><path fill="rgb(82,255,0)" stroke="none" paint-order="stroke" d="M 220.5235595703125 77.81818389892578 L 220.63857956975698 77.81818389892578 L 220.63857956975698 130.45454788208008 L 220.5235595703125 130.45454788208008 L 220.5235595703125 77.81818389892578" fill-opacity="1" clip-path="url(#QwBALFUAOKcc)"/><path fill="rgb(78,255,0)" stroke="none" paint-order="stroke" d="M 220.63858032226562 77.81818389892578 L 220.7727703154087 77.81818389892578 L 220.7727703154087 130.45454788208008 L 220.63858032226562 130.45454788208008 L 220.63858032226562 77.81818389892578" fill-opacity="1" clip-path="url(#QwBALFUAOKcc)"/><path fill="rgb(74,255,0)" stroke="none" paint-order="stroke" d="M 220.77276611328125 77.81818389892578 L 220.90695610642433 77.81818389892578 L 220.90695610642433 130.45454788208008 L 220.77276611328125 130.45454788208008 L 220.77276611328125 77.81818389892578" fill-opacity="1" clip-path="url(#QwBALFUAOKcc)"/><path fill="rgb(70,255,0)" stroke="none" paint-order="stroke" d="M 220.90696716308594 77.81818389892578 L 221.02070916444063 77.81818389892578 L 221.02070916444063 130.45454788208008 L 220.90696716308594 130.45454788208008 L 220.90696716308594 77.81818389892578" fill-opacity="1" clip-path="url(#QwBALFUAOKcc)"/><path fill="rgb(66,255,0)" stroke="none" paint-order="stroke" d="M 221.0207061767578 77.81818389892578 L 221.56130015850067 77.81818389892578 L 221.56130015850067 130.45454788208008 L 221.0207061767578 130.45454788208008 L 221.0207061767578 77.81818389892578" fill-opacity="1" clip-path="url(#QwBALFUAOKcc)"/><path fill="rgb(62,255,0)" stroke="none" paint-order="stroke" d="M 221.56129455566406 77.81818389892578 L 221.8616245687008 77.81818389892578 L 221.8616245687008 130.45454788208008 L 221.56129455566406 130.45454788208008 L 221.56129455566406 77.81818389892578" fill-opacity="1" clip-path="url(#QwBALFUAOKcc)"/><path fill="rgb(58,255,0)" stroke="none" paint-order="stroke" d="M 221.86163330078125 77.81818389892578 L 222.2271412909031 77.81818389892578 L 222.2271412909031 130.45454788208008 L 221.86163330078125 130.45454788208008 L 221.86163330078125 77.81818389892578" fill-opacity="1" clip-path="url(#QwBALFUAOKcc)"/><path fill="rgb(53,255,0)" stroke="none" paint-order="stroke" d="M 222.22714233398438 77.81818389892578 L 344.92281341552734 77.81818389892578 L 344.92281341552734 130.45454788208008 L 222.22714233398438 130.45454788208008 L 222.22714233398438 77.81818389892578" fill-opacity="1" clip-path="url(#QwBALFUAOKcc)"/><path fill="rgb(0,255,40)" stroke="none" paint-order="stroke" d="M 344.92279052734375 77.81818389892578 L 375.11426162719727 77.81818389892578 L 375.11426162719727 130.45454788208008 L 344.92279052734375 130.45454788208008 L 344.92279052734375 77.81818389892578" fill-opacity="1" clip-path="url(#QwBALFUAOKcc)"/><path fill="rgb(0,255,23)" stroke="none" paint-order="stroke" d="M 375.1142883300781 77.81818389892578 L 375.24975633621216 77.81818389892578 L 375.24975633621216 130.45454788208008 L 375.1142883300781 130.45454788208008 L 375.1142883300781 77.81818389892578" fill-opacity="1" clip-path="url(#QwBALFUAOKcc)"/><path fill="rgb(0,255,0)" stroke="none" paint-order="stroke" d="M 375.249755859375 77.81818389892578 L 375.3826678544283 77.81818389892578 L 375.3826678544283 130.45454788208008 L 375.249755859375 130.45454788208008 L 375.249755859375 77.81818389892578" fill-opacity="1" clip-path="url(#QwBALFUAOKcc)"/><path fill="rgb(8,255,0)" stroke="none" paint-order="stroke" d="M 375.3826599121094 77.81818389892578 L 375.51684990525246 77.81818389892578 L 375.51684990525246 130.45454788208008 L 375.3826599121094 130.45454788208008 L 375.3826599121094 77.81818389892578" fill-opacity="1" clip-path="url(#QwBALFUAOKcc)"/><path fill="rgb(14,255,0)" stroke="none" paint-order="stroke" d="M 375.516845703125 77.81818389892578 L 375.6318657025695 77.81818389892578 L 375.6318657025695 130.45454788208008 L 375.516845703125 130.45454788208008 L 375.516845703125 77.81818389892578" fill-opacity="1" clip-path="url(#QwBALFUAOKcc)"/><path fill="rgb(20,255,0)" stroke="none" paint-order="stroke" d="M 375.6318664550781 77.81818389892578 L 386.86293029785156 77.81818389892578 L 386.86293029785156 130.45454788208008 L 375.6318664550781 130.45454788208008 L 375.6318664550781 77.81818389892578" fill-opacity="1" clip-path="url(#QwBALFUAOKcc)"/><path fill="rgb(42,0,238)" stroke="none" paint-order="stroke" d="M 386.8629150390625 77.81818389892578 L 395.49580478668213 77.81818389892578 L 395.49580478668213 130.45454788208008 L 386.8629150390625 130.45454788208008 L 386.8629150390625 77.81818389892578" fill-opacity="1" clip-path="url(#QwBALFUAOKcc)"/><path fill="rgb(20,255,0)" stroke="none" paint-order="stroke" d="M 395.4958190917969 77.81818389892578 L 397.75787901878357 77.81818389892578 L 397.75787901878357 130.45454788208008 L 395.4958190917969 130.45454788208008 L 395.4958190917969 77.81818389892578" fill-opacity="1" clip-path="url(#QwBALFUAOKcc)"/><path fill="rgb(25,255,0)" stroke="none" paint-order="stroke" d="M 397.75787353515625 77.81818389892578 L 397.89078553020954 77.81818389892578 L 397.89078553020954 130.45454788208008 L 397.75787353515625 130.45454788208008 L 397.75787353515625 77.81818389892578" fill-opacity="1" clip-path="url(#QwBALFUAOKcc)"/><path fill="rgb(30,255,0)" stroke="none" paint-order="stroke" d="M 397.8907775878906 77.81818389892578 L 398.0249675810337 77.81818389892578 L 398.0249675810337 130.45454788208008 L 397.8907775878906 130.45454788208008 L 397.8907775878906 77.81818389892578" fill-opacity="1" clip-path="url(#QwBALFUAOKcc)"/><path fill="rgb(35,255,0)" stroke="none" paint-order="stroke" d="M 398.0249938964844 77.81818389892578 L 398.41606190800667 77.81818389892578 L 398.41606190800667 130.45454788208008 L 398.0249938964844 130.45454788208008 L 398.0249938964844 77.81818389892578" fill-opacity="1" clip-path="url(#QwBALFUAOKcc)"/><path fill="rgb(40,255,0)" stroke="none" paint-order="stroke" d="M 398.4160461425781 77.81818389892578 L 398.6716461479664 77.81818389892578 L 398.6716461479664 130.45454788208008 L 398.4160461425781 130.45454788208008 L 398.4160461425781 77.81818389892578" fill-opacity="1" clip-path="url(#QwBALFUAOKcc)"/><path fill="rgb(44,255,0)" stroke="none" paint-order="stroke" d="M 398.6716613769531 77.81818389892578 L 398.9464313685894 77.81818389892578 L 398.9464313685894 130.45454788208008 L 398.6716613769531 130.45454788208008 L 398.6716613769531 77.81818389892578" fill-opacity="1" clip-path="url(#QwBALFUAOKcc)"/><path fill="rgb(49,255,0)" stroke="none" paint-order="stroke" d="M 398.9464111328125 77.81818389892578 L 399.2186251282692 77.81818389892578 L 399.2186251282692 130.45454788208008 L 398.9464111328125 130.45454788208008 L 398.9464111328125 77.81818389892578" fill-opacity="1" clip-path="url(#QwBALFUAOKcc)"/><path fill="rgb(53,255,0)" stroke="none" paint-order="stroke" d="M 399.2186279296875 77.81818389892578 L 399.63397791981697 77.81818389892578 L 399.63397791981697 130.45454788208008 L 399.2186279296875 130.45454788208008 L 399.2186279296875 77.81818389892578" fill-opacity="1" clip-path="url(#QwBALFUAOKcc)"/><path fill="rgb(58,255,0)" stroke="none" paint-order="stroke" d="M 399.63397216796875 77.81818389892578 L 401.0091001987457 77.81818389892578 L 401.0091001987457 130.45454788208008 L 399.63397216796875 130.45454788208008 L 399.63397216796875 77.81818389892578" fill-opacity="1" clip-path="url(#QwBALFUAOKcc)"/><path fill="rgb(53,255,0)" stroke="none" paint-order="stroke" d="M 401.0091247558594 77.81818389892578 L 465.89190673828125 77.81818389892578 L 465.89190673828125 130.45454788208008 L 401.0091247558594 130.45454788208008 L 401.0091247558594 77.81818389892578" fill-opacity="1" clip-path="url(#QwBALFUAOKcc)"/><path fill="rgb(251,0,7)" stroke="none" paint-order="stroke" d="M 58.5 130.4545440673828 L 165.82899475097656 130.4545440673828 L 165.82899475097656 183.0909080505371 L 58.5 183.0909080505371 L 58.5 130.4545440673828" fill-opacity="1" clip-path="url(#iTRyRfXduFwx)"/><path fill="rgb(251,0,7)" stroke="none" paint-order="stroke" d="M 165.82899475097656 130.4545440673828 L 191.02987670898438 130.4545440673828 L 191.02987670898438 183.0909080505371 L 165.82899475097656 183.0909080505371 L 165.82899475097656 130.4545440673828" fill-opacity="1" clip-path="url(#iTRyRfXduFwx)"/><path fill="rgb(237,115,111)" stroke="none" paint-order="stroke" d="M 191.02987670898438 130.4545440673828 L 202.2622184753418 130.4545440673828 L 202.2622184753418 183.0909080505371 L 191.02987670898438 183.0909080505371 L 191.02987670898438 130.4545440673828" fill-opacity="1" clip-path="url(#iTRyRfXduFwx)"/><path fill="rgb(251,0,7)" stroke="none" paint-order="stroke" d="M 202.26222229003906 130.4545440673828 L 344.9228057861328 130.4545440673828 L 344.9228057861328 183.0909080505371 L 202.26222229003906 183.0909080505371 L 202.26222229003906 130.4545440673828" fill-opacity="1" clip-path="url(#iTRyRfXduFwx)"/><path fill="rgb(251,0,7)" stroke="none" paint-order="stroke" d="M 344.92279052734375 130.4545440673828 L 386.8629150390625 130.4545440673828 L 386.8629150390625 183.0909080505371 L 344.92279052734375 183.0909080505371 L 344.92279052734375 130.4545440673828" fill-opacity="1" clip-path="url(#iTRyRfXduFwx)"/><path fill="rgb(56,126,34)" stroke="none" paint-order="stroke" d="M 386.8629150390625 130.4545440673828 L 465.8918762207031 130.4545440673828 L 465.8918762207031 183.0909080505371 L 386.8629150390625 183.0909080505371 L 386.8629150390625 130.4545440673828" fill-opacity="1" clip-path="url(#iTRyRfXduFwx)"/><path fill="rgb(105,29,48)" stroke="none" paint-order="stroke" d="M 141.93167114257812 183.09091186523438 L 141.9955711439252 183.09091186523438 L 141.9955711439252 498.9090881347656 L 141.93167114257812 498.9090881347656 L 141.93167114257812 183.09091186523438" fill-opacity="1" clip-path="url(#SRGhlcAXZOpz)"/><path fill="rgb(105,29,48)" stroke="none" paint-order="stroke" d="M 344.92279052734375 183.09091186523438 L 344.9866905286908 183.09091186523438 L 344.9866905286908 498.9090881347656 L 344.92279052734375 498.9090881347656 L 344.92279052734375 183.09091186523438" fill-opacity="1" clip-path="url(#SRGhlcAXZOpz)"/><path fill="rgb(105,29,48)" stroke="none" paint-order="stroke" d="M 372.07904052734375 183.09091186523438 L 372.1429405286908 183.09091186523438 L 372.1429405286908 498.9090881347656 L 372.07904052734375 498.9090881347656 L 372.07904052734375 183.09091186523438" fill-opacity="1" clip-path="url(#SRGhlcAXZOpz)"/><path fill="rgb(255,188,66)" stroke="none" paint-order="stroke" d="M 337.20623779296875 183.09091186523438 L 341.3328995704651 183.09091186523438 L 341.3328995704651 498.9090881347656 L 337.20623779296875 498.9090881347656 L 337.20623779296875 183.09091186523438" fill-opacity="1" clip-path="url(#rmqZFTNLiteb)"/><path fill="rgb(255,188,66)" stroke="none" paint-order="stroke" d="M 346.2902526855469 183.09091186523438 L 351.23100090026855 183.09091186523438 L 351.23100090026855 498.9090881347656 L 346.2902526855469 498.9090881347656 L 346.2902526855469 183.09091186523438" fill-opacity="1" clip-path="url(#rmqZFTNLiteb)"/><path fill="rgb(162,174,187)" stroke="none" paint-order="stroke" d="M 344.92279052734375 183.09091186523438 L 344.9866905286908 183.09091186523438 L 344.9866905286908 498.9090881347656 L 344.92279052734375 498.9090881347656 L 344.92279052734375 183.09091186523438" fill-opacity="1" clip-path="url(#hMQQcRGzaSkw)"/><path fill="rgb(162,174,187)" stroke="none" paint-order="stroke" d="M 289.27484130859375 183.09091186523438 L 289.3387413099408 183.09091186523438 L 289.3387413099408 498.9090881347656 L 289.27484130859375 498.9090881347656 L 289.27484130859375 183.09091186523438" fill-opacity="1" clip-path="url(#UekyZKlEdnlK)"/><path fill="rgb(162,174,187)" stroke="none" paint-order="stroke" d="M 344.92279052734375 183.09091186523438 L 344.9866905286908 183.09091186523438 L 344.9866905286908 498.9090881347656 L 344.92279052734375 498.9090881347656 L 344.92279052734375 183.09091186523438" fill-opacity="1" clip-path="url(#UekyZKlEdnlK)"/><path fill="rgb(162,174,187)" stroke="none" paint-order="stroke" d="M 450.4536437988281 183.09091186523438 L 450.5175438001752 183.09091186523438 L 450.5175438001752 498.9090881347656 L 450.4536437988281 498.9090881347656 L 450.4536437988281 183.09091186523438" fill-opacity="1" clip-path="url(#UekyZKlEdnlK)"/><path fill="rgb(255,188,66)" stroke="none" paint-order="stroke" d="M 143.68125915527344 183.09091186523438 L 147.3823471069336 183.09091186523438 L 147.3823471069336 498.9090881347656 L 143.68125915527344 498.9090881347656 L 143.68125915527344 183.09091186523438" fill-opacity="1" clip-path="url(#FzSwFrgLFVoQ)"/><path fill="rgb(255,188,66)" stroke="none" paint-order="stroke" d="M 360.9859924316406 183.09091186523438 L 363.60589241981506 183.09091186523438 L 363.60589241981506 498.9090881347656 L 360.9859924316406 498.9090881347656 L 360.9859924316406 183.09091186523438" fill-opacity="1" clip-path="url(#FzSwFrgLFVoQ)"/><path fill="rgb(255,188,66)" stroke="none" paint-order="stroke" d="M 364.9873962402344 183.09091186523438 L 367.503778219223 183.09091186523438 L 367.503778219223 498.9090881347656 L 364.9873962402344 498.9090881347656 L 364.9873962402344 183.09091186523438" fill-opacity="1" clip-path="url(#FzSwFrgLFVoQ)"/><path fill="rgb(255,188,66)" stroke="none" paint-order="stroke" d="M 435.5163879394531 183.09091186523438 L 441.3619599342346 183.09091186523438 L 441.3619599342346 498.9090881347656 L 435.5163879394531 498.9090881347656 L 435.5163879394531 183.09091186523438" fill-opacity="1" clip-path="url(#FzSwFrgLFVoQ)"/><path fill="rgb(216,17,89)" stroke="none" paint-order="stroke" d="M 115.57547760009766 183.09091186523438 L 115.63937760144472 183.09091186523438 L 115.63937760144472 498.9090881347656 L 115.57547760009766 498.9090881347656 L 115.57547760009766 183.09091186523438" fill-opacity="1" clip-path="url(#HRQmpNkTvMEI)"/><path fill="rgb(216,17,89)" stroke="none" paint-order="stroke" d="M 115.57547760009766 183.09091186523438 L 115.63937760144472 183.09091186523438 L 115.63937760144472 498.9090881347656 L 115.57547760009766 498.9090881347656 L 115.57547760009766 183.09091186523438" fill-opacity="1" clip-path="url(#HRQmpNkTvMEI)"/><path fill="rgb(216,17,89)" stroke="none" paint-order="stroke" d="M 213.7412109375 183.09091186523438 L 213.80511093884706 183.09091186523438 L 213.80511093884706 498.9090881347656 L 213.7412109375 498.9090881347656 L 213.7412109375 183.09091186523438" fill-opacity="1" clip-path="url(#HRQmpNkTvMEI)"/><path fill="rgb(216,17,89)" stroke="none" paint-order="stroke" d="M 215.48696899414062 183.09091186523438 L 215.5508689954877 183.09091186523438 L 215.5508689954877 498.9090881347656 L 215.48696899414062 498.9090881347656 L 215.48696899414062 183.09091186523438" fill-opacity="1" clip-path="url(#HRQmpNkTvMEI)"/><path fill="rgb(216,17,89)" stroke="none" paint-order="stroke" d="M 344.92279052734375 183.09091186523438 L 344.9866905286908 183.09091186523438 L 344.9866905286908 498.9090881347656 L 344.92279052734375 498.9090881347656 L 344.92279052734375 183.09091186523438" fill-opacity="1" clip-path="url(#HRQmpNkTvMEI)"/><path fill="rgb(216,17,89)" stroke="none" paint-order="stroke" d="M 373.4400939941406 183.09091186523438 L 373.5039939954877 183.09091186523438 L 373.5039939954877 498.9090881347656 L 373.4400939941406 498.9090881347656 L 373.4400939941406 183.09091186523438" fill-opacity="1" clip-path="url(#HRQmpNkTvMEI)"/><path fill="rgb(33,131,128)" stroke="none" paint-order="stroke" d="M 164.0870819091797 183.09091186523438 L 165.82899594306946 183.09091186523438 L 165.82899594306946 498.9090881347656 L 164.0870819091797 498.9090881347656 L 164.0870819091797 183.09091186523438" fill-opacity="1" clip-path="url(#IgrSbykKCVQe)"/><path fill="rgb(33,131,128)" stroke="none" paint-order="stroke" d="M 189.17294311523438 183.09091186523438 L 191.02987706661224 183.09091186523438 L 191.02987706661224 498.9090881347656 L 189.17294311523438 498.9090881347656 L 189.17294311523438 183.09091186523438" fill-opacity="1" clip-path="url(#IgrSbykKCVQe)"/><path fill="rgb(33,131,128)" stroke="none" paint-order="stroke" d="M 199.88258361816406 183.09091186523438 L 202.2622196674347 183.09091186523438 L 202.2622196674347 498.9090881347656 L 199.88258361816406 498.9090881347656 L 199.88258361816406 183.09091186523438" fill-opacity="1" clip-path="url(#IgrSbykKCVQe)"/><path fill="rgb(33,131,128)" stroke="none" paint-order="stroke" d="M 344.92279052734375 183.09091186523438 L 344.9866905286908 183.09091186523438 L 344.9866905286908 498.9090881347656 L 344.92279052734375 498.9090881347656 L 344.92279052734375 183.09091186523438" fill-opacity="1" clip-path="url(#IgrSbykKCVQe)"/><path fill="rgb(33,131,128)" stroke="none" paint-order="stroke" d="M 385.52996826171875 183.09091186523438 L 386.86292231082916 183.09091186523438 L 386.86292231082916 498.9090881347656 L 385.52996826171875 498.9090881347656 L 385.52996826171875 183.09091186523438" fill-opacity="1" clip-path="url(#IgrSbykKCVQe)"/><path fill="rgb(115,210,222)" stroke="none" paint-order="stroke" d="M 159.35464477539062 183.09091186523438 L 162.41545486450195 183.09091186523438 L 162.41545486450195 498.9090881347656 L 159.35464477539062 498.9090881347656 L 159.35464477539062 183.09091186523438" fill-opacity="1" clip-path="url(#VTBTQNhHIGRn)"/><path fill="rgb(115,210,222)" stroke="none" paint-order="stroke" d="M 167.8814697265625 183.09091186523438 L 169.81252777576447 183.09091186523438 L 169.81252777576447 498.9090881347656 L 167.8814697265625 498.9090881347656 L 167.8814697265625 183.09091186523438" fill-opacity="1" clip-path="url(#VTBTQNhHIGRn)"/><path fill="rgb(115,210,222)" stroke="none" paint-order="stroke" d="M 205.59268188476562 183.09091186523438 L 206.27385586500168 183.09091186523438 L 206.27385586500168 498.9090881347656 L 205.59268188476562 498.9090881347656 L 205.59268188476562 183.09091186523438" fill-opacity="1" clip-path="url(#VTBTQNhHIGRn)"/><path fill="rgb(115,210,222)" stroke="none" paint-order="stroke" d="M 415.7367858886719 183.09091186523438 L 418.47426199913025 183.09091186523438 L 418.47426199913025 498.9090881347656 L 415.7367858886719 498.9090881347656 L 415.7367858886719 183.09091186523438" fill-opacity="1" clip-path="url(#VTBTQNhHIGRn)"/><path fill="rgb(115,210,222)" stroke="none" paint-order="stroke" d="M 419.10687255859375 183.09091186523438 L 419.75226253271103 183.09091186523438 L 419.75226253271103 498.9090881347656 L 419.10687255859375 498.9090881347656 L 419.10687255859375 183.09091186523438" fill-opacity="1" clip-path="url(#VTBTQNhHIGRn)"/><path fill="rgb(115,210,222)" stroke="none" paint-order="stroke" d="M 420.7273864746094 183.09091186523438 L 423.28722047805786 183.09091186523438 L 423.28722047805786 498.9090881347656 L 420.7273864746094 498.9090881347656 L 420.7273864746094 183.09091186523438" fill-opacity="1" clip-path="url(#VTBTQNhHIGRn)"/><path fill="rgb(28,49,68)" stroke="none" paint-order="stroke" d="M 334.7626953125 183.09091186523438 L 335.8387713432312 183.09091186523438 L 335.8387713432312 498.9090881347656 L 334.7626953125 498.9090881347656 L 334.7626953125 183.09091186523438" fill-opacity="1" clip-path="url(#wVnCULbuKsVB)"/><path fill="rgb(28,49,68)" stroke="none" paint-order="stroke" d="M 358.44659423828125 183.09091186523438 L 359.8741202354431 183.09091186523438 L 359.8741202354431 498.9090881347656 L 358.44659423828125 498.9090881347656 L 358.44659423828125 183.09091186523438" fill-opacity="1" clip-path="url(#wVnCULbuKsVB)"/><path fill="rgb(239,185,203)" stroke="none" paint-order="stroke" d="M 69.51124572753906 183.09091186523438 L 112.23478698730469 183.09091186523438 L 112.23478698730469 498.9090881347656 L 69.51124572753906 498.9090881347656 L 69.51124572753906 183.09091186523438" fill-opacity="1" clip-path="url(#dQttDkMqUFgf)"/><path fill="rgb(239,185,203)" stroke="none" paint-order="stroke" d="M 123.68949890136719 183.09091186523438 L 135.1557149887085 183.09091186523438 L 135.1557149887085 498.9090881347656 L 123.68949890136719 498.9090881347656 L 123.68949890136719 183.09091186523438" fill-opacity="1" clip-path="url(#dQttDkMqUFgf)"/><path fill="rgb(239,185,203)" stroke="none" paint-order="stroke" d="M 152.11477661132812 183.09091186523438 L 156.25421857833862 183.09091186523438 L 156.25421857833862 498.9090881347656 L 152.11477661132812 498.9090881347656 L 152.11477661132812 183.09091186523438" fill-opacity="1" clip-path="url(#dQttDkMqUFgf)"/><path fill="rgb(239,185,203)" stroke="none" paint-order="stroke" d="M 180.19244384765625 183.09091186523438 L 186.93261575698853 183.09091186523438 L 186.93261575698853 498.9090881347656 L 180.19244384765625 498.9090881347656 L 180.19244384765625 183.09091186523438" fill-opacity="1" clip-path="url(#dQttDkMqUFgf)"/><path fill="rgb(239,185,203)" stroke="none" paint-order="stroke" d="M 193.32388305664062 183.09091186523438 L 197.85567092895508 183.09091186523438 L 197.85567092895508 498.9090881347656 L 193.32388305664062 498.9090881347656 L 193.32388305664062 183.09091186523438" fill-opacity="1" clip-path="url(#dQttDkMqUFgf)"/><path fill="rgb(239,185,203)" stroke="none" paint-order="stroke" d="M 226.8011016845703 183.09091186523438 L 268.6837158203125 183.09091186523438 L 268.6837158203125 498.9090881347656 L 226.8011016845703 498.9090881347656 L 226.8011016845703 183.09091186523438" fill-opacity="1" clip-path="url(#dQttDkMqUFgf)"/><path fill="rgb(239,185,203)" stroke="none" paint-order="stroke" d="M 273.9950866699219 183.09091186523438 L 277.50191855430603 183.09091186523438 L 277.50191855430603 498.9090881347656 L 273.9950866699219 498.9090881347656 L 273.9950866699219 183.09091186523438" fill-opacity="1" clip-path="url(#dQttDkMqUFgf)"/><path fill="rgb(239,185,203)" stroke="none" paint-order="stroke" d="M 318.1001281738281 183.09091186523438 L 331.26991844177246 183.09091186523438 L 331.26991844177246 498.9090881347656 L 318.1001281738281 498.9090881347656 L 318.1001281738281 183.09091186523438" fill-opacity="1" clip-path="url(#dQttDkMqUFgf)"/><path fill="rgb(239,185,203)" stroke="none" paint-order="stroke" d="M 377.4057312011719 183.09091186523438 L 382.939471244812 183.09091186523438 L 382.939471244812 498.9090881347656 L 377.4057312011719 498.9090881347656 L 377.4057312011719 183.09091186523438" fill-opacity="1" clip-path="url(#dQttDkMqUFgf)"/><path fill="rgb(239,185,203)" stroke="none" paint-order="stroke" d="M 407.5537414550781 183.09091186523438 L 412.3692455291748 183.09091186523438 L 412.3692455291748 498.9090881347656 L 407.5537414550781 498.9090881347656 L 407.5537414550781 183.09091186523438" fill-opacity="1" clip-path="url(#dQttDkMqUFgf)"/><path fill="rgb(105,29,48)" stroke="none" paint-order="stroke" d="M 395.4958190917969 183.09091186523438 L 395.58527909219265 183.09091186523438 L 395.58527909219265 498.9090881347656 L 395.4958190917969 498.9090881347656 L 395.4958190917969 183.09091186523438" fill-opacity="1" clip-path="url(#NpPGfMSGgrsA)"/><path fill="rgb(255,188,66)" stroke="none" paint-order="stroke" d="M 338.4689025878906 498.9090881347656 L 338.6107605844736 498.9090881347656 L 338.6107605844736 551.5454521179199 L 338.4689025878906 551.5454521179199 L 338.4689025878906 498.9090881347656" fill-opacity="1" clip-path="url(#eiClXOzWHfpd)"/><path fill="rgb(255,188,66)" stroke="none" paint-order="stroke" d="M 338.90216064453125 498.9090881347656 L 344.9228186607361 498.9090881347656 L 344.9228186607361 551.5454521179199 L 338.90216064453125 551.5454521179199 L 338.90216064453125 498.9090881347656" fill-opacity="1" clip-path="url(#eiClXOzWHfpd)"/><path fill="rgb(255,188,66)" stroke="none" paint-order="stroke" d="M 347.4660339355469 498.9090881347656 L 465.89190673828125 498.9090881347656 L 465.89190673828125 551.5454521179199 L 347.4660339355469 551.5454521179199 L 347.4660339355469 498.9090881347656" fill-opacity="1" clip-path="url(#eiClXOzWHfpd)"/><path fill="rgb(143,45,86)" stroke="none" paint-order="stroke" d="M 58.5 551.5454711914062 L 141.93167114257812 551.5454711914062 L 141.93167114257812 604.1818351745605 L 58.5 604.1818351745605 L 58.5 551.5454711914062" fill-opacity="1" clip-path="url(#wScmiagTiszC)"/><path fill="rgb(63,136,197)" stroke="none" paint-order="stroke" d="M 141.93167114257812 551.5454711914062 L 145.55352306365967 551.5454711914062 L 145.55352306365967 604.1818351745605 L 141.93167114257812 604.1818351745605 L 141.93167114257812 551.5454711914062" fill-opacity="1" clip-path="url(#wScmiagTiszC)"/><path fill="rgb(143,45,86)" stroke="none" paint-order="stroke" d="M 145.55352783203125 551.5454711914062 L 145.92159181833267 551.5454711914062 L 145.92159181833267 604.1818351745605 L 145.55352783203125 604.1818351745605 L 145.55352783203125 551.5454711914062" fill-opacity="1" clip-path="url(#wScmiagTiszC)"/><path fill="rgb(63,136,197)" stroke="none" paint-order="stroke" d="M 145.9215850830078 551.5454711914062 L 146.19507709145546 551.5454711914062 L 146.19507709145546 604.1818351745605 L 145.9215850830078 604.1818351745605 L 145.9215850830078 551.5454711914062" fill-opacity="1" clip-path="url(#wScmiagTiszC)"/><path fill="rgb(143,45,86)" stroke="none" paint-order="stroke" d="M 146.19508361816406 551.5454711914062 L 146.75101363658905 551.5454711914062 L 146.75101363658905 604.1818351745605 L 146.19508361816406 604.1818351745605 L 146.19508361816406 551.5454711914062" fill-opacity="1" clip-path="url(#wScmiagTiszC)"/><path fill="rgb(63,136,197)" stroke="none" paint-order="stroke" d="M 146.75100708007812 551.5454711914062 L 289.27484130859375 551.5454711914062 L 289.27484130859375 604.1818351745605 L 146.75100708007812 604.1818351745605 L 146.75100708007812 551.5454711914062" fill-opacity="1" clip-path="url(#wScmiagTiszC)"/><path fill="rgb(81,60,99)" stroke="none" paint-order="stroke" d="M 289.27484130859375 551.5454711914062 L 344.922794342041 551.5454711914062 L 344.922794342041 604.1818351745605 L 289.27484130859375 604.1818351745605 L 289.27484130859375 551.5454711914062" fill-opacity="1" clip-path="url(#wScmiagTiszC)"/><path fill="rgb(143,45,86)" stroke="none" paint-order="stroke" d="M 344.92279052734375 551.5454711914062 L 372.07901191711426 551.5454711914062 L 372.07901191711426 604.1818351745605 L 344.92279052734375 604.1818351745605 L 344.92279052734375 551.5454711914062" fill-opacity="1" clip-path="url(#wScmiagTiszC)"/><path fill="rgb(63,136,197)" stroke="none" paint-order="stroke" d="M 372.07904052734375 551.5454711914062 L 437.6787796020508 551.5454711914062 L 437.6787796020508 604.1818351745605 L 372.07904052734375 604.1818351745605 L 372.07904052734375 551.5454711914062" fill-opacity="1" clip-path="url(#wScmiagTiszC)"/><path fill="rgb(143,45,86)" stroke="none" paint-order="stroke" d="M 437.67877197265625 551.5454711914062 L 438.64877396821976 551.5454711914062 L 438.64877396821976 604.1818351745605 L 437.67877197265625 604.1818351745605 L 437.67877197265625 551.5454711914062" fill-opacity="1" clip-path="url(#wScmiagTiszC)"/><path fill="rgb(63,136,197)" stroke="none" paint-order="stroke" d="M 438.6487731933594 551.5454711914062 L 450.4536590576172 551.5454711914062 L 450.4536590576172 604.1818351745605 L 438.6487731933594 604.1818351745605 L 438.6487731933594 551.5454711914062" fill-opacity="1" clip-path="url(#wScmiagTiszC)"/><path fill="rgb(81,60,99)" stroke="none" paint-order="stroke" d="M 450.4536437988281 551.5454711914062 L 465.89188385009766 551.5454711914062 L 465.89188385009766 604.1818351745605 L 450.4536437988281 604.1818351745605 L 450.4536437988281 551.5454711914062" fill-opacity="1" clip-path="url(#wScmiagTiszC)"/><path fill="none" stroke="rgb(0,0,0)" paint-order="fill" d="M 58.5 77.81818389892578 L 465.89190673828125 77.81818389892578 L 465.89190673828125 604.1818313598633 L 58.5 604.1818313598633 L 58.5 77.81818389892578" stroke-opacity="1" stroke-linejoin="bevel" stroke-miterlimit="10" stroke-dasharray="" clip-path="url(#vqhMiMyTUBHb)"/><path fill="none" stroke="rgb(0,0,0)" paint-order="fill" d="M 58.5 630.5 L 1336.5 630.5" stroke-opacity="1" stroke-linejoin="bevel" stroke-miterlimit="10" stroke-dasharray=""/><path fill="none" stroke="rgb(0,0,0)" paint-order="fill" d="M 58.5 636.5 L 58.5 628.5 M 314.5 636.5 L 314.5 628.5 M 569.5 636.5 L 569.5 628.5 M 825.5 636.5 L 825.5 628.5 M 1080.5 636.5 L 1080.5 628.5 M 1336.5 636.5 L 1336.5 628.5" stroke-opacity="1" stroke-linejoin="bevel" stroke-miterlimit="10" stroke-dasharray=""/><path fill="none" stroke="rgb(0,0,0)" paint-order="fill" d="M 58.5 634.5 L 58.5 630.5 M 109.5 634.5 L 109.5 630.5 M 160.5 634.5 L 160.5 630.5 M 211.5 634.5 L 211.5 630.5 M 262.5 634.5 L 262.5 630.5 M 314.5 634.5 L 314.5 630.5 M 365.5 634.5 L 365.5 630.5 M 416.5 634.5 L 416.5 630.5 M 467.5 634.5 L 467.5 630.5 M 518.5 634.5 L 518.5 630.5 M 569.5 634.5 L 569.5 630.5 M 620.5 634.5 L 620.5 630.5 M 671.5 634.5 L 671.5 630.5 M 723.5 634.5 L 723.5 630.5 M 774.5 634.5 L 774.5 630.5 M 825.5 634.5 L 825.5 630.5 M 876.5 634.5 L 876.5 630.5 M 927.5 634.5 L 927.5 630.5 M 978.5 634.5 L 978.5 630.5 M 1029.5 634.5 L 1029.5 630.5 M 1080.5 634.5 L 1080.5 630.5 M 1132.5 634.5 L 1132.5 630.5 M 1183.5 634.5 L 1183.5 630.5 M 1234.5 634.5 L 1234.5 630.5 M 1285.5 634.5 L 1285.5 630.5 M 1336.5 634.5 L 1336.5 630.5" stroke-opacity="1" stroke-linejoin="bevel" stroke-miterlimit="10" stroke-dasharray=""/><text fill="rgb(68,68,68)" stroke="none" font-family="helvetica" font-size="11px" font-style="normal" font-weight="normal" text-decoration="normal" x="54.94166660308838" y="648.89013671875" text-anchor="start" dominant-baseline="alphabetic" transform="matrix(1, 0, 0, 1, 0.5, 0.5)" fill-opacity="1">0</text><text fill="rgb(68,68,68)" stroke="none" font-family="helvetica" font-size="11px" font-style="normal" font-weight="normal" text-decoration="normal" x="304.42500591278076" y="648.89013671875" text-anchor="start" dominant-baseline="alphabetic" transform="matrix(1, 0, 0, 1, 0.5, 0.5)" fill-opacity="1">200</text><text fill="rgb(68,68,68)" stroke="none" font-family="helvetica" font-size="11px" font-style="normal" font-weight="normal" text-decoration="normal" x="560.0250120162964" y="648.89013671875" text-anchor="start" dominant-baseline="alphabetic" transform="matrix(1, 0, 0, 1, 0.5, 0.5)" fill-opacity="1">400</text><text fill="rgb(68,68,68)" stroke="none" font-family="helvetica" font-size="11px" font-style="normal" font-weight="normal" text-decoration="normal" x="815.6249876022339" y="648.89013671875" text-anchor="start" dominant-baseline="alphabetic" transform="matrix(1, 0, 0, 1, 0.5, 0.5)" fill-opacity="1">600</text><text fill="rgb(68,68,68)" stroke="none" font-family="helvetica" font-size="11px" font-style="normal" font-weight="normal" text-decoration="normal" x="1071.2250242233276" y="648.89013671875" text-anchor="start" dominant-baseline="alphabetic" transform="matrix(1, 0, 0, 1, 0.5, 0.5)" fill-opacity="1">800</text><text fill="rgb(68,68,68)" stroke="none" font-family="helvetica" font-size="11px" font-style="normal" font-weight="normal" text-decoration="normal" x="1323.7666664123535" y="648.89013671875" text-anchor="start" dominant-baseline="alphabetic" transform="matrix(1, 0, 0, 1, 0.5, 0.5)" fill-opacity="1">1000</text><text fill="rgb(68,68,68)" stroke="none" font-family="helvetica" font-size="15pt" font-style="italic" font-weight="normal" text-decoration="normal" x="666.4416675567627" y="676.06982421875" text-anchor="start" dominant-baseline="alphabetic" transform="matrix(1, 0, 0, 1, 0.5, 0.5)" fill-opacity="1">time(s)</text><path fill="none" stroke="rgb(0,0,0)" paint-order="fill" d="M 58.5 630.5 L 58.5 51.5" stroke-opacity="1" stroke-linejoin="bevel" stroke-miterlimit="10" stroke-dasharray=""/><path fill="none" stroke="rgb(0,0,0)" paint-order="fill" d="M 52.5 551.5 L 60.5 551.5 M 52.5 446.5 L 60.5 446.5 M 52.5 341.5 L 60.5 341.5 M 52.5 235.5 L 60.5 235.5 M 52.5 130.5 L 60.5 130.5" stroke-opacity="1" stroke-linejoin="bevel" stroke-miterlimit="10" stroke-dasharray=""/><path fill="none" stroke="rgb(0,0,0)" paint-order="fill" d="M 54.5 572.5 L 58.5 572.5 M 54.5 593.5 L 58.5 593.5 M 54.5 614.5 L 58.5 614.5 M 54.5 551.5 L 58.5 551.5 M 54.5 530.5 L 58.5 530.5 M 54.5 509.5 L 58.5 509.5 M 54.5 488.5 L 58.5 488.5 M 54.5 467.5 L 58.5 467.5 M 54.5 446.5 L 58.5 446.5 M 54.5 425.5 L 58.5 425.5 M 54.5 404.5 L 58.5 404.5 M 54.5 383.5 L 58.5 383.5 M 54.5 362.5 L 58.5 362.5 M 54.5 341.5 L 58.5 341.5 M 54.5 319.5 L 58.5 319.5 M 54.5 298.5 L 58.5 298.5 M 54.5 277.5 L 58.5 277.5 M 54.5 256.5 L 58.5 256.5 M 54.5 235.5 L 58.5 235.5 M 54.5 214.5 L 58.5 214.5 M 54.5 193.5 L 58.5 193.5 M 54.5 172.5 L 58.5 172.5 M 54.5 151.5 L 58.5 151.5 M 54.5 130.5 L 58.5 130.5 M 54.5 109.5 L 58.5 109.5 M 54.5 88.5 L 58.5 88.5 M 54.5 67.5 L 58.5 67.5" stroke-opacity="1" stroke-linejoin="bevel" stroke-miterlimit="10" stroke-dasharray=""/><text fill="rgb(68,68,68)" stroke="none" font-family="helvetica" font-size="11px" font-style="normal" font-weight="normal" text-decoration="normal" x="34.46666622161865" y="554.9905395507812" text-anchor="start" dominant-baseline="alphabetic" transform="matrix(1, 0, 0, 1, 0.5, 0.5)" fill-opacity="1">2</text><text fill="rgb(68,68,68)" stroke="none" font-family="helvetica" font-size="11px" font-style="normal" font-weight="normal" text-decoration="normal" x="34.46666622161865" y="449.7178039550781" text-anchor="start" dominant-baseline="alphabetic" transform="matrix(1, 0, 0, 1, 0.5, 0.5)" fill-opacity="1">1</text><text fill="rgb(68,68,68)" stroke="none" font-family="helvetica" font-size="11px" font-style="normal" font-weight="normal" text-decoration="normal" x="40.88333320617676" y="344.445068359375" text-anchor="start" dominant-baseline="alphabetic" transform="matrix(1, 0, 0, 1, 0.5, 0.5)" fill-opacity="1">0</text><text fill="rgb(68,68,68)" stroke="none" font-family="helvetica" font-size="11px" font-style="normal" font-weight="normal" text-decoration="normal" x="40.88333320617676" y="239.17234802246094" text-anchor="start" dominant-baseline="alphabetic" transform="matrix(1, 0, 0, 1, 0.5, 0.5)" fill-opacity="1">1</text><text fill="rgb(68,68,68)" stroke="none" font-family="helvetica" font-size="11px" font-style="normal" font-weight="normal" text-decoration="normal" x="40.88333320617676" y="133.8996124267578" text-anchor="start" dominant-baseline="alphabetic" transform="matrix(1, 0, 0, 1, 0.5, 0.5)" fill-opacity="1">2</text><text fill="rgb(68,68,68)" stroke="none" font-family="helvetica" font-size="15pt" font-style="italic" font-weight="normal" text-decoration="normal" x="-11.316666603088379" y="336.076171875" text-anchor="start" dominant-baseline="alphabetic" transform="matrix(6.123233995736766e-17, -1, 1, 6.123233995736766e-17, -313.53333377838135, 367.46666622161865)" fill-opacity="1">students</text><path fill="rgb(255,255,255)" stroke="rgb(229,229,229)" paint-order="fill" d="M 1128.2333374023438 61.5 L 1326.5 61.5 L 1326.5 400.5 L 1128.2333374023438 400.5 L 1128.2333374023438 61.5" fill-opacity="0.9490196078431372" clip-path="url(#VWnrzOoGeseo)" stroke-opacity="0.5019607843137255" stroke-linejoin="bevel" stroke-miterlimit="10" stroke-dasharray=""/><text fill="rgb(68,68,68)" stroke="none" font-family="helvetica" font-size="13px" font-style="normal" font-weight="normal" text-decoration="normal" x="1162.7333374023438" y="81" text-anchor="start" dominant-baseline="central" clip-path="url(#VWnrzOoGeseo)" transform="matrix(1, 0, 0, 1, 0.5, 0.5)" fill-opacity="1">wavelength</text><path fill="rgb(0,255,40)" stroke="none" paint-order="stroke" d="M 1140.2333374023438 73.5 L 1156.2333374023438 73.5 L 1156.2333374023438 89.5 L 1140.2333374023438 89.5 L 1140.2333374023438 73.5" fill-opacity="1" clip-path="url(#VWnrzOoGeseo)"/><path fill="rgb(216,17,89)" stroke="none" paint-order="stroke" d="M 1140.2333374023438 73.5 L 1156.2333374023438 73.5 L 1156.2333374023438 89.5 L 1140.2333374023438 89.5 L 1140.2333374023438 73.5" fill-opacity="1" clip-path="url(#VWnrzOoGeseo)"/><text fill="rgb(68,68,68)" stroke="none" font-family="helvetica" font-size="13px" font-style="normal" font-weight="normal" text-decoration="normal" x="1162.7333374023438" y="104" text-anchor="start" dominant-baseline="central" clip-path="url(#VWnrzOoGeseo)" transform="matrix(1, 0, 0, 1, 0.5, 0.5)" fill-opacity="1">solution</text><path fill="rgb(251,0,7)" stroke="none" paint-order="stroke" d="M 1140.2333374023438 96.5 L 1156.2333374023438 96.5 L 1156.2333374023438 112.5 L 1140.2333374023438 112.5 L 1140.2333374023438 96.5" fill-opacity="1" clip-path="url(#VWnrzOoGeseo)"/><path fill="rgb(33,131,128)" stroke="none" paint-order="stroke" d="M 1140.2333374023438 96.5 L 1156.2333374023438 96.5 L 1156.2333374023438 112.5 L 1140.2333374023438 112.5 L 1140.2333374023438 96.5" fill-opacity="1" clip-path="url(#VWnrzOoGeseo)"/><text fill="rgb(68,68,68)" stroke="none" font-family="helvetica" font-size="13px" font-style="normal" font-weight="normal" text-decoration="normal" x="1162.7333374023438" y="127" text-anchor="start" dominant-baseline="central" clip-path="url(#VWnrzOoGeseo)" transform="matrix(1, 0, 0, 1, 0.5, 0.5)" fill-opacity="1">laser</text><path fill="rgb(105,29,48)" stroke="none" paint-order="stroke" d="M 1140.2333374023438 119.5 L 1156.2333374023438 119.5 L 1156.2333374023438 135.5 L 1140.2333374023438 135.5 L 1140.2333374023438 119.5" fill-opacity="1" clip-path="url(#VWnrzOoGeseo)"/><text fill="rgb(68,68,68)" stroke="none" font-family="helvetica" font-size="13px" font-style="normal" font-weight="normal" text-decoration="normal" x="1162.7333374023438" y="150" text-anchor="start" dominant-baseline="central" clip-path="url(#VWnrzOoGeseo)" transform="matrix(1, 0, 0, 1, 0.5, 0.5)" fill-opacity="1">ruler</text><path fill="rgb(255,188,66)" stroke="none" paint-order="stroke" d="M 1140.2333374023438 142.5 L 1156.2333374023438 142.5 L 1156.2333374023438 158.5 L 1140.2333374023438 158.5 L 1140.2333374023438 142.5" fill-opacity="1" clip-path="url(#VWnrzOoGeseo)"/><text fill="rgb(68,68,68)" stroke="none" font-family="helvetica" font-size="13px" font-style="normal" font-weight="normal" text-decoration="normal" x="1162.7333374023438" y="173" text-anchor="start" dominant-baseline="central" clip-path="url(#VWnrzOoGeseo)" transform="matrix(1, 0, 0, 1, 0.5, 0.5)" fill-opacity="1">restarts</text><path fill="rgb(162,174,187)" stroke="none" paint-order="stroke" d="M 1140.2333374023438 165.5 L 1156.2333374023438 165.5 L 1156.2333374023438 181.5 L 1140.2333374023438 181.5 L 1140.2333374023438 165.5" fill-opacity="1" clip-path="url(#VWnrzOoGeseo)"/><text fill="rgb(68,68,68)" stroke="none" font-family="helvetica" font-size="13px" font-style="normal" font-weight="normal" text-decoration="normal" x="1162.7333374023438" y="196" text-anchor="start" dominant-baseline="central" clip-path="url(#VWnrzOoGeseo)" transform="matrix(1, 0, 0, 1, 0.5, 0.5)" fill-opacity="1">transmittance_absorbance</text><path fill="rgb(162,174,187)" stroke="none" paint-order="stroke" d="M 1140.2333374023438 188.5 L 1156.2333374023438 188.5 L 1156.2333374023438 204.5 L 1140.2333374023438 204.5 L 1140.2333374023438 188.5" fill-opacity="1" clip-path="url(#VWnrzOoGeseo)"/><text fill="rgb(68,68,68)" stroke="none" font-family="helvetica" font-size="13px" font-style="normal" font-weight="normal" text-decoration="normal" x="1162.7333374023438" y="219" text-anchor="start" dominant-baseline="central" clip-path="url(#VWnrzOoGeseo)" transform="matrix(1, 0, 0, 1, 0.5, 0.5)" fill-opacity="1">magnifier</text><path fill="rgb(255,188,66)" stroke="none" paint-order="stroke" d="M 1140.2333374023438 211.5 L 1156.2333374023438 211.5 L 1156.2333374023438 227.5 L 1140.2333374023438 227.5 L 1140.2333374023438 211.5" fill-opacity="1" clip-path="url(#VWnrzOoGeseo)"/><text fill="rgb(68,68,68)" stroke="none" font-family="helvetica" font-size="13px" font-style="normal" font-weight="normal" text-decoration="normal" x="1162.7333374023438" y="242" text-anchor="start" dominant-baseline="central" clip-path="url(#VWnrzOoGeseo)" transform="matrix(1, 0, 0, 1, 0.5, 0.5)" fill-opacity="1">concentration</text><path fill="rgb(115,210,222)" stroke="none" paint-order="stroke" d="M 1140.2333374023438 234.5 L 1156.2333374023438 234.5 L 1156.2333374023438 250.5 L 1140.2333374023438 250.5 L 1140.2333374023438 234.5" fill-opacity="1" clip-path="url(#VWnrzOoGeseo)"/><text fill="rgb(68,68,68)" stroke="none" font-family="helvetica" font-size="13px" font-style="normal" font-weight="normal" text-decoration="normal" x="1162.7333374023438" y="265" text-anchor="start" dominant-baseline="central" clip-path="url(#VWnrzOoGeseo)" transform="matrix(1, 0, 0, 1, 0.5, 0.5)" fill-opacity="1">flask</text><path fill="rgb(28,49,68)" stroke="none" paint-order="stroke" d="M 1140.2333374023438 257.5 L 1156.2333374023438 257.5 L 1156.2333374023438 273.5 L 1140.2333374023438 273.5 L 1140.2333374023438 257.5" fill-opacity="1" clip-path="url(#VWnrzOoGeseo)"/><text fill="rgb(68,68,68)" stroke="none" font-family="helvetica" font-size="13px" font-style="normal" font-weight="normal" text-decoration="normal" x="1162.7333374023438" y="288" text-anchor="start" dominant-baseline="central" clip-path="url(#VWnrzOoGeseo)" transform="matrix(1, 0, 0, 1, 0.5, 0.5)" fill-opacity="1">pdf</text><path fill="rgb(239,185,203)" stroke="none" paint-order="stroke" d="M 1140.2333374023438 280.5 L 1156.2333374023438 280.5 L 1156.2333374023438 296.5 L 1140.2333374023438 296.5 L 1140.2333374023438 280.5" fill-opacity="1" clip-path="url(#VWnrzOoGeseo)"/><text fill="rgb(68,68,68)" stroke="none" font-family="helvetica" font-size="13px" font-style="normal" font-weight="normal" text-decoration="normal" x="1162.7333374023438" y="311" text-anchor="start" dominant-baseline="central" clip-path="url(#VWnrzOoGeseo)" transform="matrix(1, 0, 0, 1, 0.5, 0.5)" fill-opacity="1">concentrationlab</text><text fill="rgb(68,68,68)" stroke="none" font-family="helvetica" font-size="13px" font-style="normal" font-weight="normal" text-decoration="normal" x="1162.7333374023438" y="334" text-anchor="start" dominant-baseline="central" clip-path="url(#VWnrzOoGeseo)" transform="matrix(1, 0, 0, 1, 0.5, 0.5)" fill-opacity="1">wavelength_slider</text><path fill="rgb(105,29,48)" stroke="none" paint-order="stroke" d="M 1140.2333374023438 326.5 L 1156.2333374023438 326.5 L 1156.2333374023438 342.5 L 1140.2333374023438 342.5 L 1140.2333374023438 326.5" fill-opacity="1" clip-path="url(#VWnrzOoGeseo)"/><text fill="rgb(68,68,68)" stroke="none" font-family="helvetica" font-size="13px" font-style="normal" font-weight="normal" text-decoration="normal" x="1162.7333374023438" y="357" text-anchor="start" dominant-baseline="central" clip-path="url(#VWnrzOoGeseo)" transform="matrix(1, 0, 0, 1, 0.5, 0.5)" fill-opacity="1">ruler measuring</text><path fill="rgb(255,188,66)" stroke="none" paint-order="stroke" d="M 1140.2333374023438 349.5 L 1156.2333374023438 349.5 L 1156.2333374023438 365.5 L 1140.2333374023438 365.5 L 1140.2333374023438 349.5" fill-opacity="1" clip-path="url(#VWnrzOoGeseo)"/><text fill="rgb(68,68,68)" stroke="none" font-family="helvetica" font-size="13px" font-style="normal" font-weight="normal" text-decoration="normal" x="1162.7333374023438" y="380" text-anchor="start" dominant-baseline="central" clip-path="url(#VWnrzOoGeseo)" transform="matrix(1, 0, 0, 1, 0.5, 0.5)" fill-opacity="1">dependent variable</text><path fill="rgb(143,45,86)" stroke="none" paint-order="stroke" d="M 1140.2333374023438 372.5 L 1156.2333374023438 372.5 L 1156.2333374023438 388.5 L 1140.2333374023438 388.5 L 1140.2333374023438 372.5" fill-opacity="1" clip-path="url(#VWnrzOoGeseo)"/><text fill="rgb(68,68,68)" stroke="none" font-family="helvetica" font-size="25pt" font-style="normal" font-weight="bold" text-decoration="normal" x="58" y="38.740885416666664" text-anchor="start" dominant-baseline="alphabetic" transform="matrix(1, 0, 0, 1, 0.5, 0.5)" fill-opacity="1">Timeline for student 39htvmt5 with permutation 3021 for task 2</text></svg>