<svg version="1.1" xmlns="http://www.w3.org/2000/svg" width="1366" height="683"><defs><clipPath id="OnPIIsWtwENF"><path fill="none" stroke="none" d="M 58.5 51.5 L 1336.5 51.5 L 1336.5 630.5 L 58.5 630.5 L 58.5 51.5"/></clipPath><clipPath id="fGLHvhUwHgNL"><path fill="none" stroke="none" d="M 58.5 51.5 L 1336.5 51.5 L 1336.5 630.5 L 58.5 630.5 L 58.5 51.5"/></clipPath><clipPath id="SFThDRTkAAay"><path fill="none" stroke="none" d="M 58.5 51.5 L 1336.5 51.5 L 1336.5 630.5 L 58.5 630.5 L 58.5 51.5"/></clipPath><clipPath id="kirPKvVkZvmH"><path fill="none" stroke="none" d="M 58.5 51.5 L 1336.5 51.5 L 1336.5 630.5 L 58.5 630.5 L 58.5 51.5"/></clipPath><clipPath id="KPCfuObyrTTl"><path fill="none" stroke="none" d="M 58.5 51.5 L 1336.5 51.5 L 1336.5 630.5 L 58.5 630.5 L 58.5 51.5"/></clipPath><clipPath id="JzRbcMQFiHup"><path fill="none" stroke="none" d="M 58.5 51.5 L 1336.5 51.5 L 1336.5 630.5 L 58.5 630.5 L 58.5 51.5"/></clipPath><clipPath id="TfEaxnqVvGxw"><path fill="none" stroke="none" d="M 58.5 51.5 L 1336.5 51.5 L 1336.5 630.5 L 58.5 630.5 L 58.5 51.5"/></clipPath><clipPath id="uefLiOOWfFXc"><path fill="none" stroke="none" d="M 58.5 51.5 L 1336.5 51.5 L 1336.5 630.5 L 58.5 630.5 L 58.5 51.5"/></clipPath><clipPath id="PBHwKxEEtEML"><path fill="none" stroke="none" d="M 58.5 51.5 L 1336.5 51.5 L 1336.5 630.5 L 58.5 630.5 L 58.5 51.5"/></clipPath><clipPath id="XUwAhbtTmPse"><path fill="none" stroke="none" d="M 58.5 51.5 L 1336.5 51.5 L 1336.5 630.5 L 58.5 630.5 L 58.5 51.5"/></clipPath><clipPath id="nifCrdCIaDxI"><path fill="none" stroke="none" d="M 58.5 51.5 L 1336.5 51.5 L 1336.5 630.5 L 58.5 630.5 L 58.5 51.5"/></clipPath><clipPath id="dKLmatzbAkNT"><path fill="none" stroke="none" d="M 58.5 51.5 L 1336.5 51.5 L 1336.5 630.5 L 58.5 630.5 L 58.5 51.5"/></clipPath><clipPath id="KEFcZSofrLZn"><path fill="none" stroke="none" d="M 58.5 51.5 L 1336.5 51.5 L 1336.5 630.5 L 58.5 630.5 L 58.5 51.5"/></clipPath><clipPath id="razluvkgbSUI"><path fill="none" stroke="none" d="M 58.5 51.5 L 1336.5 51.5 L 1336.5 630.5 L 58.5 630.5 L 58.5 51.5"/></clipPath><clipPath id="kmOsDzbvTSMa"><path fill="none" stroke="none" d="M 58.5 51.5 L 1336.5 51.5 L 1336.5 630.5 L 58.5 630.5 L 58.5 51.5"/></clipPath><clipPath id="NHKttZqIznKs"><path fill="none" stroke="none" d="M 58.5 51.5 L 1336.5 51.5 L 1336.5 630.5 L 58.5 630.5 L 58.5 51.5"/></clipPath><clipPath id="COfXbvRRfILQ"><path fill="none" stroke="none" d="M 58.5 51.5 L 1336.5 51.5 L 1336.5 630.5 L 58.5 630.5 L 58.5 51.5"/></clipPath><clipPath id="oBnppieUoJya"><path fill="none" stroke="none" d="M 58.5 51.5 L 1336.5 51.5 L 1336.5 630.5 L 58.5 630.5 L 58.5 51.5"/></clipPath><clipPath id="xchrTkXQczxC"><path fill="none" stroke="none" d="M 58.5 51.5 L 1336.5 51.5 L 1336.5 630.5 L 58.5 630.5 L 58.5 51.5"/></clipPath><clipPath id="CxoUNDTckFMt"><path fill="none" stroke="none" d="M 58.5 51.5 L 1336.5 51.5 L 1336.5 630.5 L 58.5 630.5 L 58.5 51.5"/></clipPath><clipPath id="bWhGUmRdScne"><path fill="none" stroke="none" d="M 58.5 51.5 L 1336.5 51.5 L 1336.5 630.5 L 58.5 630.5 L 58.5 51.5"/></clipPath></defs><path fill="rgb(255,255,255)" stroke="none" paint-order="stroke" d="M 0.5 0.5 L 1366.5 0.5 L 1366.5 683.5 L 0.5 683.5 L 0.5 0.5" fill-opacity="1"/><rect fill="#FFFFFF" stroke="none" x="58" y="51" width="1278" height="579" transform="matrix(1, 0, 0, 1, 0.5, 0.5)"/><path fill="rgb(255,255,255)" stroke="none" paint-order="stroke" d="M 58.5 51.5 L 1336.5 51.5 L 1336.5 630.5 L 58.5 630.5 L 58.5 51.5" fill-opacity="1"/><path fill="none" stroke="rgb(229,229,229)" paint-order="fill" d="M 58.5 51.5 L 1336.5 51.5 L 1336.5 630.5 L 58.5 630.5 L 58.5 51.5" stroke-opacity="1" stroke-linejoin="bevel" stroke-miterlimit="10" stroke-dasharray=""/><path fill="none" stroke="rgb(229,229,229)" paint-order="fill" d="M 314.5 630.5 L 314.5 51.5 M 569.5 630.5 L 569.5 51.5 M 825.5 630.5 L 825.5 51.5 M 1080.5 630.5 L 1080.5 51.5" stroke-opacity="1" stroke-linejoin="bevel" stroke-miterlimit="10" stroke-dasharray="" clip-path="url(#OnPIIsWtwENF)"/><path fill="none" stroke="rgb(229,229,229)" paint-order="fill" d="M 58.5 551.5 L 1336.5 551.5 M 58.5 446.5 L 1336.5 446.5 M 58.5 341.5 L 1336.5 341.5 M 58.5 235.5 L 1336.5 235.5 M 58.5 130.5 L 1336.5 130.5" stroke-opacity="1" stroke-linejoin="bevel" stroke-miterlimit="10" stroke-dasharray="" clip-path="url(#fGLHvhUwHgNL)"/><path fill="rgb(0,255,40)" stroke="none" paint-order="stroke" d="M 58.5 77.81818389892578 L 129.28075408935547 77.81818389892578 L 129.28075408935547 130.45454788208008 L 58.5 130.45454788208008 L 58.5 77.81818389892578" fill-opacity="1" clip-path="url(#SFThDRTkAAay)"/><path fill="rgb(251,0,7)" stroke="none" paint-order="stroke" d="M 58.5 130.4545440673828 L 129.28075408935547 130.4545440673828 L 129.28075408935547 183.0909080505371 L 58.5 183.0909080505371 L 58.5 130.4545440673828" fill-opacity="1" clip-path="url(#kirPKvVkZvmH)"/><path fill="rgb(105,29,48)" stroke="none" paint-order="stroke" d="M 65.54817199707031 183.09091186523438 L 65.61207199841738 183.09091186523438 L 65.61207199841738 498.9090881347656 L 65.54817199707031 498.9090881347656 L 65.54817199707031 183.09091186523438" fill-opacity="1" clip-path="url(#KPCfuObyrTTl)"/><path fill="rgb(162,174,187)" stroke="none" paint-order="stroke" d="M 69.14318084716797 183.09091186523438 L 69.20708084851503 183.09091186523438 L 69.20708084851503 498.9090881347656 L 69.14318084716797 498.9090881347656 L 69.14318084716797 183.09091186523438" fill-opacity="1" clip-path="url(#uefLiOOWfFXc)"/><path fill="rgb(255,188,66)" stroke="none" paint-order="stroke" d="M 63.62733459472656 183.09091186523438 L 64.0720785856247 183.09091186523438 L 64.0720785856247 498.9090881347656 L 63.62733459472656 498.9090881347656 L 63.62733459472656 183.09091186523438" fill-opacity="1" clip-path="url(#PBHwKxEEtEML)"/><path fill="rgb(255,188,66)" stroke="none" paint-order="stroke" d="M 66.99742126464844 183.09091186523438 L 67.60958325862885 183.09091186523438 L 67.60958325862885 498.9090881347656 L 66.99742126464844 498.9090881347656 L 66.99742126464844 183.09091186523438" fill-opacity="1" clip-path="url(#PBHwKxEEtEML)"/><path fill="rgb(255,188,66)" stroke="none" paint-order="stroke" d="M 70.26910400390625 183.09091186523438 L 72.57844996452332 183.09091186523438 L 72.57844996452332 498.9090881347656 L 70.26910400390625 498.9090881347656 L 70.26910400390625 183.09091186523438" fill-opacity="1" clip-path="url(#PBHwKxEEtEML)"/><path fill="rgb(255,188,66)" stroke="none" paint-order="stroke" d="M 73.19572448730469 183.09091186523438 L 74.27563452720642 183.09091186523438 L 74.27563452720642 498.9090881347656 L 73.19572448730469 498.9090881347656 L 73.19572448730469 183.09091186523438" fill-opacity="1" clip-path="url(#PBHwKxEEtEML)"/><path fill="rgb(255,188,66)" stroke="none" paint-order="stroke" d="M 77.43868255615234 183.09091186523438 L 78.1198565363884 183.09091186523438 L 78.1198565363884 498.9090881347656 L 77.43868255615234 498.9090881347656 L 77.43868255615234 183.09091186523438" fill-opacity="1" clip-path="url(#PBHwKxEEtEML)"/><path fill="rgb(255,188,66)" stroke="none" paint-order="stroke" d="M 78.8368148803711 183.09091186523438 L 84.72456073760986 183.09091186523438 L 84.72456073760986 498.9090881347656 L 78.8368148803711 498.9090881347656 L 78.8368148803711 183.09091186523438" fill-opacity="1" clip-path="url(#PBHwKxEEtEML)"/><path fill="rgb(255,188,66)" stroke="none" paint-order="stroke" d="M 85.86581420898438 183.09091186523438 L 91.20657634735107 183.09091186523438 L 91.20657634735107 498.9090881347656 L 85.86581420898438 498.9090881347656 L 85.86581420898438 183.09091186523438" fill-opacity="1" clip-path="url(#PBHwKxEEtEML)"/><path fill="rgb(28,49,68)" stroke="none" paint-order="stroke" d="M 75.4552230834961 183.09091186523438 L 76.49423706531525 183.09091186523438 L 76.49423706531525 498.9090881347656 L 75.4552230834961 498.9090881347656 L 75.4552230834961 183.09091186523438" fill-opacity="1" clip-path="url(#KEFcZSofrLZn)"/><path fill="rgb(28,49,68)" stroke="none" paint-order="stroke" d="M 95.3613510131836 183.09091186523438 L 96.36969304084778 183.09091186523438 L 96.36969304084778 498.9090881347656 L 95.3613510131836 498.9090881347656 L 95.3613510131836 183.09091186523438" fill-opacity="1" clip-path="url(#KEFcZSofrLZn)"/><path fill="rgb(28,49,68)" stroke="none" paint-order="stroke" d="M 104.75720977783203 183.09091186523438 L 105.75532776117325 183.09091186523438 L 105.75532776117325 498.9090881347656 L 104.75720977783203 498.9090881347656 L 104.75720977783203 183.09091186523438" fill-opacity="1" clip-path="url(#KEFcZSofrLZn)"/><path fill="rgb(143,45,86)" stroke="none" paint-order="stroke" d="M 58.5 551.5454711914062 L 67.6095838546753 551.5454711914062 L 67.6095838546753 604.1818351745605 L 58.5 604.1818351745605 L 58.5 551.5454711914062" fill-opacity="1" clip-path="url(#oBnppieUoJya)"/><path fill="rgb(63,136,197)" stroke="none" paint-order="stroke" d="M 67.60958099365234 551.5454711914062 L 69.14318096637726 551.5454711914062 L 69.14318096637726 604.1818351745605 L 67.60958099365234 604.1818351745605 L 67.60958099365234 551.5454711914062" fill-opacity="1" clip-path="url(#oBnppieUoJya)"/><path fill="rgb(81,60,99)" stroke="none" paint-order="stroke" d="M 69.14318084716797 551.5454711914062 L 70.45696485042572 551.5454711914062 L 70.45696485042572 604.1818351745605 L 69.14318084716797 604.1818351745605 L 69.14318084716797 551.5454711914062" fill-opacity="1" clip-path="url(#oBnppieUoJya)"/><path fill="rgb(143,45,86)" stroke="none" paint-order="stroke" d="M 70.45697021484375 551.5454711914062 L 71.28767019510269 551.5454711914062 L 71.28767019510269 604.1818351745605 L 70.45697021484375 604.1818351745605 L 70.45697021484375 551.5454711914062" fill-opacity="1" clip-path="url(#oBnppieUoJya)"/><path fill="rgb(81,60,99)" stroke="none" paint-order="stroke" d="M 71.28766632080078 551.5454711914062 L 71.3298403210938 551.5454711914062 L 71.3298403210938 604.1818351745605 L 71.28766632080078 604.1818351745605 L 71.28766632080078 551.5454711914062" fill-opacity="1" clip-path="url(#oBnppieUoJya)"/><path fill="rgb(143,45,86)" stroke="none" paint-order="stroke" d="M 71.32984161376953 551.5454711914062 L 72.00973761081696 551.5454711914062 L 72.00973761081696 604.1818351745605 L 71.32984161376953 604.1818351745605 L 71.32984161376953 551.5454711914062" fill-opacity="1" clip-path="url(#oBnppieUoJya)"/><path fill="rgb(81,60,99)" stroke="none" paint-order="stroke" d="M 72.00973510742188 551.5454711914062 L 73.37463915348053 551.5454711914062 L 73.37463915348053 604.1818351745605 L 72.00973510742188 604.1818351745605 L 72.00973510742188 551.5454711914062" fill-opacity="1" clip-path="url(#oBnppieUoJya)"/><path fill="rgb(143,45,86)" stroke="none" paint-order="stroke" d="M 73.37464141845703 551.5454711914062 L 73.92801541090012 551.5454711914062 L 73.92801541090012 604.1818351745605 L 73.37464141845703 604.1818351745605 L 73.37464141845703 551.5454711914062" fill-opacity="1" clip-path="url(#oBnppieUoJya)"/><path fill="rgb(81,60,99)" stroke="none" paint-order="stroke" d="M 73.92801666259766 551.5454711914062 L 79.4438648223877 551.5454711914062 L 79.4438648223877 604.1818351745605 L 73.92801666259766 604.1818351745605 L 73.92801666259766 551.5454711914062" fill-opacity="1" clip-path="url(#oBnppieUoJya)"/><path fill="rgb(143,45,86)" stroke="none" paint-order="stroke" d="M 79.44386291503906 551.5454711914062 L 81.5947368144989 551.5454711914062 L 81.5947368144989 604.1818351745605 L 79.44386291503906 604.1818351745605 L 79.44386291503906 551.5454711914062" fill-opacity="1" clip-path="url(#oBnppieUoJya)"/><path fill="rgb(81,60,99)" stroke="none" paint-order="stroke" d="M 81.59473419189453 551.5454711914062 L 82.33980816602707 551.5454711914062 L 82.33980816602707 604.1818351745605 L 81.59473419189453 604.1818351745605 L 81.59473419189453 551.5454711914062" fill-opacity="1" clip-path="url(#oBnppieUoJya)"/><path fill="rgb(143,45,86)" stroke="none" paint-order="stroke" d="M 82.33981323242188 551.5454711914062 L 83.36221325397491 551.5454711914062 L 83.36221325397491 604.1818351745605 L 82.33981323242188 604.1818351745605 L 82.33981323242188 551.5454711914062" fill-opacity="1" clip-path="url(#oBnppieUoJya)"/><path fill="rgb(81,60,99)" stroke="none" paint-order="stroke" d="M 83.36221313476562 551.5454711914062 L 83.44783913344145 551.5454711914062 L 83.44783913344145 604.1818351745605 L 83.36221313476562 604.1818351745605 L 83.36221313476562 551.5454711914062" fill-opacity="1" clip-path="url(#oBnppieUoJya)"/><path fill="rgb(143,45,86)" stroke="none" paint-order="stroke" d="M 83.44783782958984 551.5454711914062 L 83.80951184034348 551.5454711914062 L 83.80951184034348 604.1818351745605 L 83.44783782958984 604.1818351745605 L 83.44783782958984 551.5454711914062" fill-opacity="1" clip-path="url(#oBnppieUoJya)"/><path fill="rgb(81,60,99)" stroke="none" paint-order="stroke" d="M 83.80950927734375 551.5454711914062 L 85.98338723182678 551.5454711914062 L 85.98338723182678 604.1818351745605 L 83.80950927734375 604.1818351745605 L 83.80950927734375 551.5454711914062" fill-opacity="1" clip-path="url(#oBnppieUoJya)"/><path fill="rgb(143,45,86)" stroke="none" paint-order="stroke" d="M 85.98339080810547 551.5454711914062 L 129.28075408935547 551.5454711914062 L 129.28075408935547 604.1818351745605 L 85.98339080810547 604.1818351745605 L 85.98339080810547 551.5454711914062" fill-opacity="1" clip-path="url(#oBnppieUoJya)"/><path fill="none" stroke="rgb(0,0,0)" paint-order="fill" d="M 58.5 77.81818389892578 L 129.28075408935547 77.81818389892578 L 129.28075408935547 604.1818313598633 L 58.5 604.1818313598633 L 58.5 77.81818389892578" stroke-opacity="1" stroke-linejoin="bevel" stroke-miterlimit="10" stroke-dasharray="" clip-path="url(#xchrTkXQczxC)"/><path fill="none" stroke="rgb(0,0,0)" paint-order="fill" d="M 58.5 630.5 L 1336.5 630.5" stroke-opacity="1" stroke-linejoin="bevel" stroke-miterlimit="10" stroke-dasharray=""/><path fill="none" stroke="rgb(0,0,0)" paint-order="fill" d="M 58.5 636.5 L 58.5 628.5 M 314.5 636.5 L 314.5 628.5 M 569.5 636.5 L 569.5 628.5 M 825.5 636.5 L 825.5 628.5 M 1080.5 636.5 L 1080.5 628.5 M 1336.5 636.5 L 1336.5 628.5" stroke-opacity="1" stroke-linejoin="bevel" stroke-miterlimit="10" stroke-dasharray=""/><path fill="none" stroke="rgb(0,0,0)" paint-order="fill" d="M 58.5 634.5 L 58.5 630.5 M 109.5 634.5 L 109.5 630.5 M 160.5 634.5 L 160.5 630.5 M 211.5 634.5 L 211.5 630.5 M 262.5 634.5 L 262.5 630.5 M 314.5 634.5 L 314.5 630.5 M 365.5 634.5 L 365.5 630.5 M 416.5 634.5 L 416.5 630.5 M 467.5 634.5 L 467.5 630.5 M 518.5 634.5 L 518.5 630.5 M 569.5 634.5 L 569.5 630.5 M 620.5 634.5 L 620.5 630.5 M 671.5 634.5 L 671.5 630.5 M 723.5 634.5 L 723.5 630.5 M 774.5 634.5 L 774.5 630.5 M 825.5 634.5 L 825.5 630.5 M 876.5 634.5 L 876.5 630.5 M 927.5 634.5 L 927.5 630.5 M 978.5 634.5 L 978.5 630.5 M 1029.5 634.5 L 1029.5 630.5 M 1080.5 634.5 L 1080.5 630.5 M 1132.5 634.5 L 1132.5 630.5 M 1183.5 634.5 L 1183.5 630.5 M 1234.5 634.5 L 1234.5 630.5 M 1285.5 634.5 L 1285.5 630.5 M 1336.5 634.5 L 1336.5 630.5" stroke-opacity="1" stroke-linejoin="bevel" stroke-miterlimit="10" stroke-dasharray=""/><text fill="rgb(68,68,68)" stroke="none" font-family="helvetica" font-size="11px" font-style="normal" font-weight="normal" text-decoration="normal" x="54.94166660308838" y="648.89013671875" text-anchor="start" dominant-baseline="alphabetic" transform="matrix(1, 0, 0, 1, 0.5, 0.5)" fill-opacity="1">0</text><text fill="rgb(68,68,68)" stroke="none" font-family="helvetica" font-size="11px" font-style="normal" font-weight="normal" text-decoration="normal" x="304.42500591278076" y="648.89013671875" text-anchor="start" dominant-baseline="alphabetic" transform="matrix(1, 0, 0, 1, 0.5, 0.5)" fill-opacity="1">200</text><text fill="rgb(68,68,68)" stroke="none" font-family="helvetica" font-size="11px" font-style="normal" font-weight="normal" text-decoration="normal" x="560.0250120162964" y="648.89013671875" text-anchor="start" dominant-baseline="alphabetic" transform="matrix(1, 0, 0, 1, 0.5, 0.5)" fill-opacity="1">400</text><text fill="rgb(68,68,68)" stroke="none" font-family="helvetica" font-size="11px" font-style="normal" font-weight="normal" text-decoration="normal" x="815.6249876022339" y="648.89013671875" text-anchor="start" dominant-baseline="alphabetic" transform="matrix(1, 0, 0, 1, 0.5, 0.5)" fill-opacity="1">600</text><text fill="rgb(68,68,68)" stroke="none" font-family="helvetica" font-size="11px" font-style="normal" font-weight="normal" text-decoration="normal" x="1071.2250242233276" y="648.89013671875" text-anchor="start" dominant-baseline="alphabetic" transform="matrix(1, 0, 0, 1, 0.5, 0.5)" fill-opacity="1">800</text><text fill="rgb(68,68,68)" stroke="none" font-family="helvetica" font-size="11px" font-style="normal" font-weight="normal" text-decoration="normal" x="1323.7666664123535" y="648.89013671875" text-anchor="start" dominant-baseline="alphabetic" transform="matrix(1, 0, 0, 1, 0.5, 0.5)" fill-opacity="1">1000</text><text fill="rgb(68,68,68)" stroke="none" font-family="helvetica" font-size="15pt" font-style="italic" font-weight="normal" text-decoration="normal" x="666.4416675567627" y="676.06982421875" text-anchor="start" dominant-baseline="alphabetic" transform="matrix(1, 0, 0, 1, 0.5, 0.5)" fill-opacity="1">time(s)</text><path fill="none" stroke="rgb(0,0,0)" paint-order="fill" d="M 58.5 630.5 L 58.5 51.5" stroke-opacity="1" stroke-linejoin="bevel" stroke-miterlimit="10" stroke-dasharray=""/><path fill="none" stroke="rgb(0,0,0)" paint-order="fill" d="M 52.5 551.5 L 60.5 551.5 M 52.5 446.5 L 60.5 446.5 M 52.5 341.5 L 60.5 341.5 M 52.5 235.5 L 60.5 235.5 M 52.5 130.5 L 60.5 130.5" stroke-opacity="1" stroke-linejoin="bevel" stroke-miterlimit="10" stroke-dasharray=""/><path fill="none" stroke="rgb(0,0,0)" paint-order="fill" d="M 54.5 572.5 L 58.5 572.5 M 54.5 593.5 L 58.5 593.5 M 54.5 614.5 L 58.5 614.5 M 54.5 551.5 L 58.5 551.5 M 54.5 530.5 L 58.5 530.5 M 54.5 509.5 L 58.5 509.5 M 54.5 488.5 L 58.5 488.5 M 54.5 467.5 L 58.5 467.5 M 54.5 446.5 L 58.5 446.5 M 54.5 425.5 L 58.5 425.5 M 54.5 404.5 L 58.5 404.5 M 54.5 383.5 L 58.5 383.5 M 54.5 362.5 L 58.5 362.5 M 54.5 341.5 L 58.5 341.5 M 54.5 319.5 L 58.5 319.5 M 54.5 298.5 L 58.5 298.5 M 54.5 277.5 L 58.5 277.5 M 54.5 256.5 L 58.5 256.5 M 54.5 235.5 L 58.5 235.5 M 54.5 214.5 L 58.5 214.5 M 54.5 193.5 L 58.5 193.5 M 54.5 172.5 L 58.5 172.5 M 54.5 151.5 L 58.5 151.5 M 54.5 130.5 L 58.5 130.5 M 54.5 109.5 L 58.5 109.5 M 54.5 88.5 L 58.5 88.5 M 54.5 67.5 L 58.5 67.5" stroke-opacity="1" stroke-linejoin="bevel" stroke-miterlimit="10" stroke-dasharray=""/><text fill="rgb(68,68,68)" stroke="none" font-family="helvetica" font-size="11px" font-style="normal" font-weight="normal" text-decoration="normal" x="34.46666622161865" y="554.9905395507812" text-anchor="start" dominant-baseline="alphabetic" transform="matrix(1, 0, 0, 1, 0.5, 0.5)" fill-opacity="1">−2</text><text fill="rgb(68,68,68)" stroke="none" font-family="helvetica" font-size="11px" font-style="normal" font-weight="normal" text-decoration="normal" x="34.46666622161865" y="449.7178039550781" text-anchor="start" dominant-baseline="alphabetic" transform="matrix(1, 0, 0, 1, 0.5, 0.5)" fill-opacity="1">−1</text><text fill="rgb(68,68,68)" stroke="none" font-family="helvetica" font-size="11px" font-style="normal" font-weight="normal" text-decoration="normal" x="40.88333320617676" y="344.445068359375" text-anchor="start" dominant-baseline="alphabetic" transform="matrix(1, 0, 0, 1, 0.5, 0.5)" fill-opacity="1">0</text><text fill="rgb(68,68,68)" stroke="none" font-family="helvetica" font-size="11px" font-style="normal" font-weight="normal" text-decoration="normal" x="40.88333320617676" y="239.17234802246094" text-anchor="start" dominant-baseline="alphabetic" transform="matrix(1, 0, 0, 1, 0.5, 0.5)" fill-opacity="1">1</text><text fill="rgb(68,68,68)" stroke="none" font-family="helvetica" font-size="11px" font-style="normal" font-weight="normal" text-decoration="normal" x="40.88333320617676" y="133.8996124267578" text-anchor="start" dominant-baseline="alphabetic" transform="matrix(1, 0, 0, 1, 0.5, 0.5)" fill-opacity="1">2</text><text fill="rgb(68,68,68)" stroke="none" font-family="helvetica" font-size="15pt" font-style="italic" font-weight="normal" text-decoration="normal" x="-11.316666603088379" y="336.076171875" text-anchor="start" dominant-baseline="alphabetic" transform="matrix(6.123233995736766e-17, -1, 1, 6.123233995736766e-17, -313.53333377838135, 367.46666622161865)" fill-opacity="1">students</text><path fill="rgb(255,255,255)" stroke="rgb(229,229,229)" paint-order="fill" d="M 1128.2333374023438 61.5 L 1326.5 61.5 L 1326.5 400.5 L 1128.2333374023438 400.5 L 1128.2333374023438 61.5" fill-opacity="0.9490196078431372" clip-path="url(#CxoUNDTckFMt)" stroke-opacity="0.5019607843137255" stroke-linejoin="bevel" stroke-miterlimit="10" stroke-dasharray=""/><text fill="rgb(68,68,68)" stroke="none" font-family="helvetica" font-size="13px" font-style="normal" font-weight="normal" text-decoration="normal" x="1162.7333374023438" y="81" text-anchor="start" dominant-baseline="central" clip-path="url(#CxoUNDTckFMt)" transform="matrix(1, 0, 0, 1, 0.5, 0.5)" fill-opacity="1">wavelength</text><path fill="rgb(0,255,40)" stroke="none" paint-order="stroke" d="M 1140.2333374023438 73.5 L 1156.2333374023438 73.5 L 1156.2333374023438 89.5 L 1140.2333374023438 89.5 L 1140.2333374023438 73.5" fill-opacity="1" clip-path="url(#CxoUNDTckFMt)"/><text fill="rgb(68,68,68)" stroke="none" font-family="helvetica" font-size="13px" font-style="normal" font-weight="normal" text-decoration="normal" x="1162.7333374023438" y="104" text-anchor="start" dominant-baseline="central" clip-path="url(#CxoUNDTckFMt)" transform="matrix(1, 0, 0, 1, 0.5, 0.5)" fill-opacity="1">solution</text><path fill="rgb(251,0,7)" stroke="none" paint-order="stroke" d="M 1140.2333374023438 96.5 L 1156.2333374023438 96.5 L 1156.2333374023438 112.5 L 1140.2333374023438 112.5 L 1140.2333374023438 96.5" fill-opacity="1" clip-path="url(#CxoUNDTckFMt)"/><text fill="rgb(68,68,68)" stroke="none" font-family="helvetica" font-size="13px" font-style="normal" font-weight="normal" text-decoration="normal" x="1162.7333374023438" y="127" text-anchor="start" dominant-baseline="central" clip-path="url(#CxoUNDTckFMt)" transform="matrix(1, 0, 0, 1, 0.5, 0.5)" fill-opacity="1">laser</text><path fill="rgb(105,29,48)" stroke="none" paint-order="stroke" d="M 1140.2333374023438 119.5 L 1156.2333374023438 119.5 L 1156.2333374023438 135.5 L 1140.2333374023438 135.5 L 1140.2333374023438 119.5" fill-opacity="1" clip-path="url(#CxoUNDTckFMt)"/><text fill="rgb(68,68,68)" stroke="none" font-family="helvetica" font-size="13px" font-style="normal" font-weight="normal" text-decoration="normal" x="1162.7333374023438" y="150" text-anchor="start" dominant-baseline="central" clip-path="url(#CxoUNDTckFMt)" transform="matrix(1, 0, 0, 1, 0.5, 0.5)" fill-opacity="1">ruler</text><text fill="rgb(68,68,68)" stroke="none" font-family="helvetica" font-size="13px" font-style="normal" font-weight="normal" text-decoration="normal" x="1162.7333374023438" y="173" text-anchor="start" dominant-baseline="central" clip-path="url(#CxoUNDTckFMt)" transform="matrix(1, 0, 0, 1, 0.5, 0.5)" fill-opacity="1">restarts</text><text fill="rgb(68,68,68)" stroke="none" font-family="helvetica" font-size="13px" font-style="normal" font-weight="normal" text-decoration="normal" x="1162.7333374023438" y="196" text-anchor="start" dominant-baseline="central" clip-path="url(#CxoUNDTckFMt)" transform="matrix(1, 0, 0, 1, 0.5, 0.5)" fill-opacity="1">transmittance_absorbance</text><path fill="rgb(162,174,187)" stroke="none" paint-order="stroke" d="M 1140.2333374023438 188.5 L 1156.2333374023438 188.5 L 1156.2333374023438 204.5 L 1140.2333374023438 204.5 L 1140.2333374023438 188.5" fill-opacity="1" clip-path="url(#CxoUNDTckFMt)"/><text fill="rgb(68,68,68)" stroke="none" font-family="helvetica" font-size="13px" font-style="normal" font-weight="normal" text-decoration="normal" x="1162.7333374023438" y="219" text-anchor="start" dominant-baseline="central" clip-path="url(#CxoUNDTckFMt)" transform="matrix(1, 0, 0, 1, 0.5, 0.5)" fill-opacity="1">magnifier</text><path fill="rgb(255,188,66)" stroke="none" paint-order="stroke" d="M 1140.2333374023438 211.5 L 1156.2333374023438 211.5 L 1156.2333374023438 227.5 L 1140.2333374023438 227.5 L 1140.2333374023438 211.5" fill-opacity="1" clip-path="url(#CxoUNDTckFMt)"/><text fill="rgb(68,68,68)" stroke="none" font-family="helvetica" font-size="13px" font-style="normal" font-weight="normal" text-decoration="normal" x="1162.7333374023438" y="242" text-anchor="start" dominant-baseline="central" clip-path="url(#CxoUNDTckFMt)" transform="matrix(1, 0, 0, 1, 0.5, 0.5)" fill-opacity="1">concentration</text><text fill="rgb(68,68,68)" stroke="none" font-family="helvetica" font-size="13px" font-style="normal" font-weight="normal" text-decoration="normal" x="1162.7333374023438" y="265" text-anchor="start" dominant-baseline="central" clip-path="url(#CxoUNDTckFMt)" transform="matrix(1, 0, 0, 1, 0.5, 0.5)" fill-opacity="1">flask</text><path fill="rgb(28,49,68)" stroke="none" paint-order="stroke" d="M 1140.2333374023438 257.5 L 1156.2333374023438 257.5 L 1156.2333374023438 273.5 L 1140.2333374023438 273.5 L 1140.2333374023438 257.5" fill-opacity="1" clip-path="url(#CxoUNDTckFMt)"/><text fill="rgb(68,68,68)" stroke="none" font-family="helvetica" font-size="13px" font-style="normal" font-weight="normal" text-decoration="normal" x="1162.7333374023438" y="288" text-anchor="start" dominant-baseline="central" clip-path="url(#CxoUNDTckFMt)" transform="matrix(1, 0, 0, 1, 0.5, 0.5)" fill-opacity="1">pdf</text><text fill="rgb(68,68,68)" stroke="none" font-family="helvetica" font-size="13px" font-style="normal" font-weight="normal" text-decoration="normal" x="1162.7333374023438" y="311" text-anchor="start" dominant-baseline="central" clip-path="url(#CxoUNDTckFMt)" transform="matrix(1, 0, 0, 1, 0.5, 0.5)" fill-opacity="1">concentrationlab</text><text fill="rgb(68,68,68)" stroke="none" font-family="helvetica" font-size="13px" font-style="normal" font-weight="normal" text-decoration="normal" x="1162.7333374023438" y="334" text-anchor="start" dominant-baseline="central" clip-path="url(#CxoUNDTckFMt)" transform="matrix(1, 0, 0, 1, 0.5, 0.5)" fill-opacity="1">wavelength_slider</text><text fill="rgb(68,68,68)" stroke="none" font-family="helvetica" font-size="13px" font-style="normal" font-weight="normal" text-decoration="normal" x="1162.7333374023438" y="357" text-anchor="start" dominant-baseline="central" clip-path="url(#CxoUNDTckFMt)" transform="matrix(1, 0, 0, 1, 0.5, 0.5)" fill-opacity="1">ruler measuring</text><text fill="rgb(68,68,68)" stroke="none" font-family="helvetica" font-size="13px" font-style="normal" font-weight="normal" text-decoration="normal" x="1162.7333374023438" y="380" text-anchor="start" dominant-baseline="central" clip-path="url(#CxoUNDTckFMt)" transform="matrix(1, 0, 0, 1, 0.5, 0.5)" fill-opacity="1">dependent variable</text><path fill="rgb(143,45,86)" stroke="none" paint-order="stroke" d="M 1140.2333374023438 372.5 L 1156.2333374023438 372.5 L 1156.2333374023438 388.5 L 1140.2333374023438 388.5 L 1140.2333374023438 372.5" fill-opacity="1" clip-path="url(#CxoUNDTckFMt)"/><text fill="rgb(68,68,68)" stroke="none" font-family="helvetica" font-size="25pt" font-style="normal" font-weight="bold" text-decoration="normal" x="58" y="38.740885416666664" text-anchor="start" dominant-baseline="alphabetic" transform="matrix(1, 0, 0, 1, 0.5, 0.5)" fill-opacity="1">Timeline for student 26mtbtye with permutation 3021 for task 3</text></svg>