<svg version="1.1" xmlns="http://www.w3.org/2000/svg" width="1366" height="683"><defs><clipPath id="QPgINBdmZJRb"><path fill="none" stroke="none" d="M 58.5 51.5 L 1336.5 51.5 L 1336.5 630.5 L 58.5 630.5 L 58.5 51.5"/></clipPath><clipPath id="WAHOTbdpXxJP"><path fill="none" stroke="none" d="M 58.5 51.5 L 1336.5 51.5 L 1336.5 630.5 L 58.5 630.5 L 58.5 51.5"/></clipPath><clipPath id="FgPXLvkQktzS"><path fill="none" stroke="none" d="M 58.5 51.5 L 1336.5 51.5 L 1336.5 630.5 L 58.5 630.5 L 58.5 51.5"/></clipPath><clipPath id="TIQrDTGNeGCA"><path fill="none" stroke="none" d="M 58.5 51.5 L 1336.5 51.5 L 1336.5 630.5 L 58.5 630.5 L 58.5 51.5"/></clipPath><clipPath id="mQzLkuOiGfng"><path fill="none" stroke="none" d="M 58.5 51.5 L 1336.5 51.5 L 1336.5 630.5 L 58.5 630.5 L 58.5 51.5"/></clipPath><clipPath id="anXRldqKviMf"><path fill="none" stroke="none" d="M 58.5 51.5 L 1336.5 51.5 L 1336.5 630.5 L 58.5 630.5 L 58.5 51.5"/></clipPath><clipPath id="WyIQrfyOKfMP"><path fill="none" stroke="none" d="M 58.5 51.5 L 1336.5 51.5 L 1336.5 630.5 L 58.5 630.5 L 58.5 51.5"/></clipPath><clipPath id="nxKxrhOShkKN"><path fill="none" stroke="none" d="M 58.5 51.5 L 1336.5 51.5 L 1336.5 630.5 L 58.5 630.5 L 58.5 51.5"/></clipPath><clipPath id="fRseQsRQDPoe"><path fill="none" stroke="none" d="M 58.5 51.5 L 1336.5 51.5 L 1336.5 630.5 L 58.5 630.5 L 58.5 51.5"/></clipPath><clipPath id="xnQcDBIPoeRT"><path fill="none" stroke="none" d="M 58.5 51.5 L 1336.5 51.5 L 1336.5 630.5 L 58.5 630.5 L 58.5 51.5"/></clipPath><clipPath id="grZyBfIluMHh"><path fill="none" stroke="none" d="M 58.5 51.5 L 1336.5 51.5 L 1336.5 630.5 L 58.5 630.5 L 58.5 51.5"/></clipPath><clipPath id="xlbRfbqwvCuX"><path fill="none" stroke="none" d="M 58.5 51.5 L 1336.5 51.5 L 1336.5 630.5 L 58.5 630.5 L 58.5 51.5"/></clipPath><clipPath id="bhfzKQXOasAA"><path fill="none" stroke="none" d="M 58.5 51.5 L 1336.5 51.5 L 1336.5 630.5 L 58.5 630.5 L 58.5 51.5"/></clipPath><clipPath id="nXvSWeuShyqh"><path fill="none" stroke="none" d="M 58.5 51.5 L 1336.5 51.5 L 1336.5 630.5 L 58.5 630.5 L 58.5 51.5"/></clipPath><clipPath id="dPOPGwJnLHBQ"><path fill="none" stroke="none" d="M 58.5 51.5 L 1336.5 51.5 L 1336.5 630.5 L 58.5 630.5 L 58.5 51.5"/></clipPath><clipPath id="iLNeXWVBbhxd"><path fill="none" stroke="none" d="M 58.5 51.5 L 1336.5 51.5 L 1336.5 630.5 L 58.5 630.5 L 58.5 51.5"/></clipPath><clipPath id="BqSTmKddbnoC"><path fill="none" stroke="none" d="M 58.5 51.5 L 1336.5 51.5 L 1336.5 630.5 L 58.5 630.5 L 58.5 51.5"/></clipPath><clipPath id="mtWiaQIKuJWR"><path fill="none" stroke="none" d="M 58.5 51.5 L 1336.5 51.5 L 1336.5 630.5 L 58.5 630.5 L 58.5 51.5"/></clipPath><clipPath id="QTCcoxtWNmbs"><path fill="none" stroke="none" d="M 58.5 51.5 L 1336.5 51.5 L 1336.5 630.5 L 58.5 630.5 L 58.5 51.5"/></clipPath><clipPath id="qRIGuJnCFNtc"><path fill="none" stroke="none" d="M 58.5 51.5 L 1336.5 51.5 L 1336.5 630.5 L 58.5 630.5 L 58.5 51.5"/></clipPath><clipPath id="vtlJMKpEDCde"><path fill="none" stroke="none" d="M 58.5 51.5 L 1336.5 51.5 L 1336.5 630.5 L 58.5 630.5 L 58.5 51.5"/></clipPath></defs><path fill="rgb(255,255,255)" stroke="none" paint-order="stroke" d="M 0.5 0.5 L 1366.5 0.5 L 1366.5 683.5 L 0.5 683.5 L 0.5 0.5" fill-opacity="1"/><rect fill="#FFFFFF" stroke="none" x="58" y="51" width="1278" height="579" transform="matrix(1, 0, 0, 1, 0.5, 0.5)"/><path fill="rgb(255,255,255)" stroke="none" paint-order="stroke" d="M 58.5 51.5 L 1336.5 51.5 L 1336.5 630.5 L 58.5 630.5 L 58.5 51.5" fill-opacity="1"/><path fill="none" stroke="rgb(229,229,229)" paint-order="fill" d="M 58.5 51.5 L 1336.5 51.5 L 1336.5 630.5 L 58.5 630.5 L 58.5 51.5" stroke-opacity="1" stroke-linejoin="bevel" stroke-miterlimit="10" stroke-dasharray=""/><path fill="none" stroke="rgb(229,229,229)" paint-order="fill" d="M 314.5 630.5 L 314.5 51.5 M 569.5 630.5 L 569.5 51.5 M 825.5 630.5 L 825.5 51.5 M 1080.5 630.5 L 1080.5 51.5" stroke-opacity="1" stroke-linejoin="bevel" stroke-miterlimit="10" stroke-dasharray="" clip-path="url(#QPgINBdmZJRb)"/><path fill="none" stroke="rgb(229,229,229)" paint-order="fill" d="M 58.5 551.5 L 1336.5 551.5 M 58.5 446.5 L 1336.5 446.5 M 58.5 341.5 L 1336.5 341.5 M 58.5 235.5 L 1336.5 235.5 M 58.5 130.5 L 1336.5 130.5" stroke-opacity="1" stroke-linejoin="bevel" stroke-miterlimit="10" stroke-dasharray="" clip-path="url(#WAHOTbdpXxJP)"/><path fill="rgb(0,255,40)" stroke="none" paint-order="stroke" d="M 58.5 77.81818389892578 L 311.3267364501953 77.81818389892578 L 311.3267364501953 130.45454788208008 L 58.5 130.45454788208008 L 58.5 77.81818389892578" fill-opacity="1" clip-path="url(#FgPXLvkQktzS)"/><path fill="rgb(159,255,0)" stroke="none" paint-order="stroke" d="M 311.3267517089844 77.81818389892578 L 315.99400758743286 77.81818389892578 L 315.99400758743286 130.45454788208008 L 311.3267517089844 130.45454788208008 L 311.3267517089844 77.81818389892578" fill-opacity="1" clip-path="url(#FgPXLvkQktzS)"/><path fill="rgb(110,0,132)" stroke="none" paint-order="stroke" d="M 315.9939880371094 77.81818389892578 L 323.2900900840759 77.81818389892578 L 323.2900900840759 130.45454788208008 L 315.9939880371094 130.45454788208008 L 315.9939880371094 77.81818389892578" fill-opacity="1" clip-path="url(#FgPXLvkQktzS)"/><path fill="rgb(251,0,7)" stroke="none" paint-order="stroke" d="M 58.5 130.4545440673828 L 311.3267364501953 130.4545440673828 L 311.3267364501953 183.0909080505371 L 58.5 183.0909080505371 L 58.5 130.4545440673828" fill-opacity="1" clip-path="url(#TIQrDTGNeGCA)"/><path fill="rgb(251,0,7)" stroke="none" paint-order="stroke" d="M 311.3267517089844 130.4545440673828 L 313.9568758010864 130.4545440673828 L 313.9568758010864 183.0909080505371 L 311.3267517089844 183.0909080505371 L 311.3267517089844 130.4545440673828" fill-opacity="1" clip-path="url(#TIQrDTGNeGCA)"/><path fill="rgb(237,115,111)" stroke="none" paint-order="stroke" d="M 313.9568786621094 130.4545440673828 L 315.9940106868744 130.4545440673828 L 315.9940106868744 183.0909080505371 L 313.9568786621094 183.0909080505371 L 313.9568786621094 130.4545440673828" fill-opacity="1" clip-path="url(#TIQrDTGNeGCA)"/><path fill="rgb(252,105,8)" stroke="none" paint-order="stroke" d="M 315.9939880371094 130.4545440673828 L 323.2900900840759 130.4545440673828 L 323.2900900840759 183.0909080505371 L 315.9939880371094 183.0909080505371 L 315.9939880371094 130.4545440673828" fill-opacity="1" clip-path="url(#TIQrDTGNeGCA)"/><path fill="rgb(105,29,48)" stroke="none" paint-order="stroke" d="M 259.10894775390625 183.09091186523438 L 259.1728477552533 183.09091186523438 L 259.1728477552533 498.9090881347656 L 259.10894775390625 498.9090881347656 L 259.10894775390625 183.09091186523438" fill-opacity="1" clip-path="url(#mQzLkuOiGfng)"/><path fill="rgb(255,188,66)" stroke="none" paint-order="stroke" d="M 234.70936584472656 183.09091186523438 L 238.30437994003296 183.09091186523438 L 238.30437994003296 498.9090881347656 L 234.70936584472656 498.9090881347656 L 234.70936584472656 183.09091186523438" fill-opacity="1" clip-path="url(#anXRldqKviMf)"/><path fill="rgb(162,174,187)" stroke="none" paint-order="stroke" d="M 256.1682586669922 183.09091186523438 L 256.23215866833925 183.09091186523438 L 256.23215866833925 498.9090881347656 L 256.1682586669922 498.9090881347656 L 256.1682586669922 183.09091186523438" fill-opacity="1" clip-path="url(#nxKxrhOShkKN)"/><path fill="rgb(255,188,66)" stroke="none" paint-order="stroke" d="M 250.84027099609375 183.09091186523438 L 254.30748510360718 183.09091186523438 L 254.30748510360718 498.9090881347656 L 250.84027099609375 498.9090881347656 L 250.84027099609375 183.09091186523438" fill-opacity="1" clip-path="url(#fRseQsRQDPoe)"/><path fill="rgb(255,188,66)" stroke="none" paint-order="stroke" d="M 269.06201171875 183.09091186523438 L 271.88766980171204 183.09091186523438 L 271.88766980171204 498.9090881347656 L 269.06201171875 498.9090881347656 L 269.06201171875 183.09091186523438" fill-opacity="1" clip-path="url(#fRseQsRQDPoe)"/><path fill="rgb(255,188,66)" stroke="none" paint-order="stroke" d="M 271.9259948730469 183.09091186523438 L 272.0563508719206 183.09091186523438 L 272.0563508719206 498.9090881347656 L 271.9259948730469 498.9090881347656 L 271.9259948730469 183.09091186523438" fill-opacity="1" clip-path="url(#fRseQsRQDPoe)"/><path fill="rgb(255,188,66)" stroke="none" paint-order="stroke" d="M 272.1189880371094 183.09091186523438 L 272.15477203577757 183.09091186523438 L 272.15477203577757 498.9090881347656 L 272.1189880371094 498.9090881347656 L 272.1189880371094 183.09091186523438" fill-opacity="1" clip-path="url(#fRseQsRQDPoe)"/><path fill="rgb(255,188,66)" stroke="none" paint-order="stroke" d="M 274.5165100097656 183.09091186523438 L 277.32555389404297 183.09091186523438 L 277.32555389404297 498.9090881347656 L 274.5165100097656 498.9090881347656 L 274.5165100097656 183.09091186523438" fill-opacity="1" clip-path="url(#fRseQsRQDPoe)"/><path fill="rgb(255,188,66)" stroke="none" paint-order="stroke" d="M 293.05902099609375 183.09091186523438 L 303.10537910461426 183.09091186523438 L 303.10537910461426 498.9090881347656 L 293.05902099609375 498.9090881347656 L 293.05902099609375 183.09091186523438" fill-opacity="1" clip-path="url(#fRseQsRQDPoe)"/><path fill="rgb(216,17,89)" stroke="none" paint-order="stroke" d="M 243.69369506835938 183.09091186523438 L 243.75759506970644 183.09091186523438 L 243.75759506970644 498.9090881347656 L 243.69369506835938 498.9090881347656 L 243.69369506835938 183.09091186523438" fill-opacity="1" clip-path="url(#xnQcDBIPoeRT)"/><path fill="rgb(216,17,89)" stroke="none" paint-order="stroke" d="M 243.69369506835938 183.09091186523438 L 243.75759506970644 183.09091186523438 L 243.75759506970644 498.9090881347656 L 243.69369506835938 498.9090881347656 L 243.69369506835938 183.09091186523438" fill-opacity="1" clip-path="url(#xnQcDBIPoeRT)"/><path fill="rgb(33,131,128)" stroke="none" paint-order="stroke" d="M 309.8238220214844 183.09091186523438 L 311.3267500400543 183.09091186523438 L 311.3267500400543 498.9090881347656 L 309.8238220214844 498.9090881347656 L 309.8238220214844 183.09091186523438" fill-opacity="1" clip-path="url(#grZyBfIluMHh)"/><path fill="rgb(33,131,128)" stroke="none" paint-order="stroke" d="M 312.9728088378906 183.09091186523438 L 313.956868827343 183.09091186523438 L 313.956868827343 498.9090881347656 L 312.9728088378906 498.9090881347656 L 312.9728088378906 183.09091186523438" fill-opacity="1" clip-path="url(#grZyBfIluMHh)"/><path fill="rgb(33,131,128)" stroke="none" paint-order="stroke" d="M 314.8834228515625 183.09091186523438 L 315.9940048456192 183.09091186523438 L 315.9940048456192 498.9090881347656 L 314.8834228515625 498.9090881347656 L 314.8834228515625 183.09091186523438" fill-opacity="1" clip-path="url(#grZyBfIluMHh)"/><path fill="rgb(33,131,128)" stroke="none" paint-order="stroke" d="M 317.06878662109375 183.09091186523438 L 320.2880685329437 183.09091186523438 L 320.2880685329437 498.9090881347656 L 317.06878662109375 498.9090881347656 L 317.06878662109375 183.09091186523438" fill-opacity="1" clip-path="url(#grZyBfIluMHh)"/><path fill="rgb(33,131,128)" stroke="none" paint-order="stroke" d="M 321.4510498046875 183.09091186523438 L 323.290091753006 183.09091186523438 L 323.290091753006 498.9090881347656 L 321.4510498046875 498.9090881347656 L 321.4510498046875 183.09091186523438" fill-opacity="1" clip-path="url(#grZyBfIluMHh)"/><path fill="rgb(115,210,222)" stroke="none" paint-order="stroke" d="M 285.8907165527344 183.09091186523438 L 289.25313448905945 183.09091186523438 L 289.25313448905945 498.9090881347656 L 285.8907165527344 498.9090881347656 L 285.8907165527344 183.09091186523438" fill-opacity="1" clip-path="url(#xlbRfbqwvCuX)"/><path fill="rgb(115,210,222)" stroke="none" paint-order="stroke" d="M 290.59503173828125 183.09091186523438 L 290.6589317396283 183.09091186523438 L 290.6589317396283 498.9090881347656 L 290.59503173828125 498.9090881347656 L 290.59503173828125 183.09091186523438" fill-opacity="1" clip-path="url(#xlbRfbqwvCuX)"/><path fill="rgb(115,210,222)" stroke="none" paint-order="stroke" d="M 290.59503173828125 183.09091186523438 L 290.6589317396283 183.09091186523438 L 290.6589317396283 498.9090881347656 L 290.59503173828125 498.9090881347656 L 290.59503173828125 183.09091186523438" fill-opacity="1" clip-path="url(#xlbRfbqwvCuX)"/><path fill="rgb(115,210,222)" stroke="none" paint-order="stroke" d="M 290.8148498535156 183.09091186523438 L 290.8787498548627 183.09091186523438 L 290.8787498548627 498.9090881347656 L 290.8148498535156 498.9090881347656 L 290.8148498535156 183.09091186523438" fill-opacity="1" clip-path="url(#xlbRfbqwvCuX)"/><path fill="rgb(115,210,222)" stroke="none" paint-order="stroke" d="M 290.8148498535156 183.09091186523438 L 290.8787498548627 183.09091186523438 L 290.8787498548627 498.9090881347656 L 290.8148498535156 498.9090881347656 L 290.8148498535156 183.09091186523438" fill-opacity="1" clip-path="url(#xlbRfbqwvCuX)"/><path fill="rgb(115,210,222)" stroke="none" paint-order="stroke" d="M 291.0180358886719 183.09091186523438 L 291.08193589001894 183.09091186523438 L 291.08193589001894 498.9090881347656 L 291.0180358886719 498.9090881347656 L 291.0180358886719 183.09091186523438" fill-opacity="1" clip-path="url(#xlbRfbqwvCuX)"/><path fill="rgb(115,210,222)" stroke="none" paint-order="stroke" d="M 291.0180358886719 183.09091186523438 L 291.08193589001894 183.09091186523438 L 291.08193589001894 498.9090881347656 L 291.0180358886719 498.9090881347656 L 291.0180358886719 183.09091186523438" fill-opacity="1" clip-path="url(#xlbRfbqwvCuX)"/><path fill="rgb(115,210,222)" stroke="none" paint-order="stroke" d="M 291.2557373046875 183.09091186523438 L 291.31963730603456 183.09091186523438 L 291.31963730603456 498.9090881347656 L 291.2557373046875 498.9090881347656 L 291.2557373046875 183.09091186523438" fill-opacity="1" clip-path="url(#xlbRfbqwvCuX)"/><path fill="rgb(115,210,222)" stroke="none" paint-order="stroke" d="M 291.2557373046875 183.09091186523438 L 291.31963730603456 183.09091186523438 L 291.31963730603456 498.9090881347656 L 291.2557373046875 498.9090881347656 L 291.2557373046875 183.09091186523438" fill-opacity="1" clip-path="url(#xlbRfbqwvCuX)"/><path fill="rgb(115,210,222)" stroke="none" paint-order="stroke" d="M 291.8116760253906 183.09091186523438 L 291.8755760267377 183.09091186523438 L 291.8755760267377 498.9090881347656 L 291.8116760253906 498.9090881347656 L 291.8116760253906 183.09091186523438" fill-opacity="1" clip-path="url(#xlbRfbqwvCuX)"/><path fill="rgb(115,210,222)" stroke="none" paint-order="stroke" d="M 291.8116760253906 183.09091186523438 L 291.8755760267377 183.09091186523438 L 291.8755760267377 498.9090881347656 L 291.8116760253906 498.9090881347656 L 291.8116760253906 183.09091186523438" fill-opacity="1" clip-path="url(#xlbRfbqwvCuX)"/><path fill="rgb(28,49,68)" stroke="none" paint-order="stroke" d="M 231.8594207763672 183.09091186523438 L 233.21665680408478 183.09091186523438 L 233.21665680408478 498.9090881347656 L 231.8594207763672 498.9090881347656 L 231.8594207763672 183.09091186523438" fill-opacity="1" clip-path="url(#bhfzKQXOasAA)"/><path fill="rgb(239,185,203)" stroke="none" paint-order="stroke" d="M 65.16988372802734 183.09091186523438 L 228.74877166748047 183.09091186523438 L 228.74877166748047 498.9090881347656 L 65.16988372802734 498.9090881347656 L 65.16988372802734 183.09091186523438" fill-opacity="1" clip-path="url(#nXvSWeuShyqh)"/><path fill="rgb(239,185,203)" stroke="none" paint-order="stroke" d="M 262.2285461425781 183.09091186523438 L 267.40316820144653 183.09091186523438 L 267.40316820144653 498.9090881347656 L 262.2285461425781 498.9090881347656 L 262.2285461425781 183.09091186523438" fill-opacity="1" clip-path="url(#nXvSWeuShyqh)"/><path fill="rgb(239,185,203)" stroke="none" paint-order="stroke" d="M 280.1064758300781 183.09091186523438 L 283.18389987945557 183.09091186523438 L 283.18389987945557 498.9090881347656 L 280.1064758300781 498.9090881347656 L 280.1064758300781 183.09091186523438" fill-opacity="1" clip-path="url(#nXvSWeuShyqh)"/><path fill="rgb(239,185,203)" stroke="none" paint-order="stroke" d="M 304.7987060546875 183.09091186523438 L 308.37966203689575 183.09091186523438 L 308.37966203689575 498.9090881347656 L 304.7987060546875 498.9090881347656 L 304.7987060546875 183.09091186523438" fill-opacity="1" clip-path="url(#nXvSWeuShyqh)"/><path fill="rgb(255,188,66)" stroke="none" paint-order="stroke" d="M 236.37460327148438 498.9090881347656 L 323.2901077270508 498.9090881347656 L 323.2901077270508 551.5454521179199 L 236.37460327148438 551.5454521179199 L 236.37460327148438 498.9090881347656" fill-opacity="1" clip-path="url(#BqSTmKddbnoC)"/><path fill="rgb(143,45,86)" stroke="none" paint-order="stroke" d="M 58.5 551.5454711914062 L 259.1089324951172 551.5454711914062 L 259.1089324951172 604.1818351745605 L 58.5 604.1818351745605 L 58.5 551.5454711914062" fill-opacity="1" clip-path="url(#mtWiaQIKuJWR)"/><path fill="rgb(81,60,99)" stroke="none" paint-order="stroke" d="M 259.10894775390625 551.5454711914062 L 270.2761116027832 551.5454711914062 L 270.2761116027832 604.1818351745605 L 259.10894775390625 604.1818351745605 L 259.10894775390625 551.5454711914062" fill-opacity="1" clip-path="url(#mtWiaQIKuJWR)"/><path fill="rgb(143,45,86)" stroke="none" paint-order="stroke" d="M 270.2760925292969 551.5454711914062 L 270.336158528924 551.5454711914062 L 270.336158528924 604.1818351745605 L 270.2760925292969 604.1818351745605 L 270.2760925292969 551.5454711914062" fill-opacity="1" clip-path="url(#mtWiaQIKuJWR)"/><path fill="rgb(81,60,99)" stroke="none" paint-order="stroke" d="M 270.336181640625 551.5454711914062 L 293.3772430419922 551.5454711914062 L 293.3772430419922 604.1818351745605 L 270.336181640625 604.1818351745605 L 270.336181640625 551.5454711914062" fill-opacity="1" clip-path="url(#mtWiaQIKuJWR)"/><path fill="rgb(143,45,86)" stroke="none" paint-order="stroke" d="M 293.3772277832031 551.5454711914062 L 293.63410577178 551.5454711914062 L 293.63410577178 604.1818351745605 L 293.3772277832031 604.1818351745605 L 293.3772277832031 551.5454711914062" fill-opacity="1" clip-path="url(#mtWiaQIKuJWR)"/><path fill="rgb(81,60,99)" stroke="none" paint-order="stroke" d="M 293.63409423828125 551.5454711914062 L 323.2900848388672 551.5454711914062 L 323.2900848388672 604.1818351745605 L 293.63409423828125 604.1818351745605 L 293.63409423828125 551.5454711914062" fill-opacity="1" clip-path="url(#mtWiaQIKuJWR)"/><path fill="none" stroke="rgb(0,0,0)" paint-order="fill" d="M 58.5 77.81818389892578 L 323.29010009765625 77.81818389892578 L 323.29010009765625 604.1818313598633 L 58.5 604.1818313598633 L 58.5 77.81818389892578" stroke-opacity="1" stroke-linejoin="bevel" stroke-miterlimit="10" stroke-dasharray="" clip-path="url(#QTCcoxtWNmbs)"/><path fill="none" stroke="rgb(0,0,0)" paint-order="fill" d="M 58.5 630.5 L 1336.5 630.5" stroke-opacity="1" stroke-linejoin="bevel" stroke-miterlimit="10" stroke-dasharray=""/><path fill="none" stroke="rgb(0,0,0)" paint-order="fill" d="M 58.5 636.5 L 58.5 628.5 M 314.5 636.5 L 314.5 628.5 M 569.5 636.5 L 569.5 628.5 M 825.5 636.5 L 825.5 628.5 M 1080.5 636.5 L 1080.5 628.5 M 1336.5 636.5 L 1336.5 628.5" stroke-opacity="1" stroke-linejoin="bevel" stroke-miterlimit="10" stroke-dasharray=""/><path fill="none" stroke="rgb(0,0,0)" paint-order="fill" d="M 58.5 634.5 L 58.5 630.5 M 109.5 634.5 L 109.5 630.5 M 160.5 634.5 L 160.5 630.5 M 211.5 634.5 L 211.5 630.5 M 262.5 634.5 L 262.5 630.5 M 314.5 634.5 L 314.5 630.5 M 365.5 634.5 L 365.5 630.5 M 416.5 634.5 L 416.5 630.5 M 467.5 634.5 L 467.5 630.5 M 518.5 634.5 L 518.5 630.5 M 569.5 634.5 L 569.5 630.5 M 620.5 634.5 L 620.5 630.5 M 671.5 634.5 L 671.5 630.5 M 723.5 634.5 L 723.5 630.5 M 774.5 634.5 L 774.5 630.5 M 825.5 634.5 L 825.5 630.5 M 876.5 634.5 L 876.5 630.5 M 927.5 634.5 L 927.5 630.5 M 978.5 634.5 L 978.5 630.5 M 1029.5 634.5 L 1029.5 630.5 M 1080.5 634.5 L 1080.5 630.5 M 1132.5 634.5 L 1132.5 630.5 M 1183.5 634.5 L 1183.5 630.5 M 1234.5 634.5 L 1234.5 630.5 M 1285.5 634.5 L 1285.5 630.5 M 1336.5 634.5 L 1336.5 630.5" stroke-opacity="1" stroke-linejoin="bevel" stroke-miterlimit="10" stroke-dasharray=""/><text fill="rgb(68,68,68)" stroke="none" font-family="helvetica" font-size="11px" font-style="normal" font-weight="normal" text-decoration="normal" x="54.94166660308838" y="648.89013671875" text-anchor="start" dominant-baseline="alphabetic" transform="matrix(1, 0, 0, 1, 0.5, 0.5)" fill-opacity="1">0</text><text fill="rgb(68,68,68)" stroke="none" font-family="helvetica" font-size="11px" font-style="normal" font-weight="normal" text-decoration="normal" x="304.42500591278076" y="648.89013671875" text-anchor="start" dominant-baseline="alphabetic" transform="matrix(1, 0, 0, 1, 0.5, 0.5)" fill-opacity="1">200</text><text fill="rgb(68,68,68)" stroke="none" font-family="helvetica" font-size="11px" font-style="normal" font-weight="normal" text-decoration="normal" x="560.0250120162964" y="648.89013671875" text-anchor="start" dominant-baseline="alphabetic" transform="matrix(1, 0, 0, 1, 0.5, 0.5)" fill-opacity="1">400</text><text fill="rgb(68,68,68)" stroke="none" font-family="helvetica" font-size="11px" font-style="normal" font-weight="normal" text-decoration="normal" x="815.6249876022339" y="648.89013671875" text-anchor="start" dominant-baseline="alphabetic" transform="matrix(1, 0, 0, 1, 0.5, 0.5)" fill-opacity="1">600</text><text fill="rgb(68,68,68)" stroke="none" font-family="helvetica" font-size="11px" font-style="normal" font-weight="normal" text-decoration="normal" x="1071.2250242233276" y="648.89013671875" text-anchor="start" dominant-baseline="alphabetic" transform="matrix(1, 0, 0, 1, 0.5, 0.5)" fill-opacity="1">800</text><text fill="rgb(68,68,68)" stroke="none" font-family="helvetica" font-size="11px" font-style="normal" font-weight="normal" text-decoration="normal" x="1323.7666664123535" y="648.89013671875" text-anchor="start" dominant-baseline="alphabetic" transform="matrix(1, 0, 0, 1, 0.5, 0.5)" fill-opacity="1">1000</text><text fill="rgb(68,68,68)" stroke="none" font-family="helvetica" font-size="15pt" font-style="italic" font-weight="normal" text-decoration="normal" x="666.4416675567627" y="676.06982421875" text-anchor="start" dominant-baseline="alphabetic" transform="matrix(1, 0, 0, 1, 0.5, 0.5)" fill-opacity="1">time(s)</text><path fill="none" stroke="rgb(0,0,0)" paint-order="fill" d="M 58.5 630.5 L 58.5 51.5" stroke-opacity="1" stroke-linejoin="bevel" stroke-miterlimit="10" stroke-dasharray=""/><path fill="none" stroke="rgb(0,0,0)" paint-order="fill" d="M 52.5 551.5 L 60.5 551.5 M 52.5 446.5 L 60.5 446.5 M 52.5 341.5 L 60.5 341.5 M 52.5 235.5 L 60.5 235.5 M 52.5 130.5 L 60.5 130.5" stroke-opacity="1" stroke-linejoin="bevel" stroke-miterlimit="10" stroke-dasharray=""/><path fill="none" stroke="rgb(0,0,0)" paint-order="fill" d="M 54.5 572.5 L 58.5 572.5 M 54.5 593.5 L 58.5 593.5 M 54.5 614.5 L 58.5 614.5 M 54.5 551.5 L 58.5 551.5 M 54.5 530.5 L 58.5 530.5 M 54.5 509.5 L 58.5 509.5 M 54.5 488.5 L 58.5 488.5 M 54.5 467.5 L 58.5 467.5 M 54.5 446.5 L 58.5 446.5 M 54.5 425.5 L 58.5 425.5 M 54.5 404.5 L 58.5 404.5 M 54.5 383.5 L 58.5 383.5 M 54.5 362.5 L 58.5 362.5 M 54.5 341.5 L 58.5 341.5 M 54.5 319.5 L 58.5 319.5 M 54.5 298.5 L 58.5 298.5 M 54.5 277.5 L 58.5 277.5 M 54.5 256.5 L 58.5 256.5 M 54.5 235.5 L 58.5 235.5 M 54.5 214.5 L 58.5 214.5 M 54.5 193.5 L 58.5 193.5 M 54.5 172.5 L 58.5 172.5 M 54.5 151.5 L 58.5 151.5 M 54.5 130.5 L 58.5 130.5 M 54.5 109.5 L 58.5 109.5 M 54.5 88.5 L 58.5 88.5 M 54.5 67.5 L 58.5 67.5" stroke-opacity="1" stroke-linejoin="bevel" stroke-miterlimit="10" stroke-dasharray=""/><text fill="rgb(68,68,68)" stroke="none" font-family="helvetica" font-size="11px" font-style="normal" font-weight="normal" text-decoration="normal" x="34.46666622161865" y="554.9905395507812" text-anchor="start" dominant-baseline="alphabetic" transform="matrix(1, 0, 0, 1, 0.5, 0.5)" fill-opacity="1">−2</text><text fill="rgb(68,68,68)" stroke="none" font-family="helvetica" font-size="11px" font-style="normal" font-weight="normal" text-decoration="normal" x="34.46666622161865" y="449.7178039550781" text-anchor="start" dominant-baseline="alphabetic" transform="matrix(1, 0, 0, 1, 0.5, 0.5)" fill-opacity="1">−1</text><text fill="rgb(68,68,68)" stroke="none" font-family="helvetica" font-size="11px" font-style="normal" font-weight="normal" text-decoration="normal" x="40.88333320617676" y="344.445068359375" text-anchor="start" dominant-baseline="alphabetic" transform="matrix(1, 0, 0, 1, 0.5, 0.5)" fill-opacity="1">0</text><text fill="rgb(68,68,68)" stroke="none" font-family="helvetica" font-size="11px" font-style="normal" font-weight="normal" text-decoration="normal" x="40.88333320617676" y="239.17234802246094" text-anchor="start" dominant-baseline="alphabetic" transform="matrix(1, 0, 0, 1, 0.5, 0.5)" fill-opacity="1">1</text><text fill="rgb(68,68,68)" stroke="none" font-family="helvetica" font-size="11px" font-style="normal" font-weight="normal" text-decoration="normal" x="40.88333320617676" y="133.8996124267578" text-anchor="start" dominant-baseline="alphabetic" transform="matrix(1, 0, 0, 1, 0.5, 0.5)" fill-opacity="1">2</text><text fill="rgb(68,68,68)" stroke="none" font-family="helvetica" font-size="15pt" font-style="italic" font-weight="normal" text-decoration="normal" x="-11.316666603088379" y="336.076171875" text-anchor="start" dominant-baseline="alphabetic" transform="matrix(6.123233995736766e-17, -1, 1, 6.123233995736766e-17, -313.53333377838135, 367.46666622161865)" fill-opacity="1">students</text><path fill="rgb(255,255,255)" stroke="rgb(229,229,229)" paint-order="fill" d="M 1128.2333374023438 61.5 L 1326.5 61.5 L 1326.5 400.5 L 1128.2333374023438 400.5 L 1128.2333374023438 61.5" fill-opacity="0.9490196078431372" clip-path="url(#qRIGuJnCFNtc)" stroke-opacity="0.5019607843137255" stroke-linejoin="bevel" stroke-miterlimit="10" stroke-dasharray=""/><g clip-path="url(#qRIGuJnCFNtc)"><text fill="rgb(68,68,68)" stroke="none" font-family="helvetica" font-size="13px" font-style="normal" font-weight="normal" text-decoration="normal" x="1162.7333374023438" y="81" text-anchor="start" dominant-baseline="central" transform="matrix(1, 0, 0, 1, 0.5, 0.5)" fill-opacity="1">wavelength</text></g><path fill="rgb(0,255,40)" stroke="none" paint-order="stroke" d="M 1140.2333374023438 73.5 L 1156.2333374023438 73.5 L 1156.2333374023438 89.5 L 1140.2333374023438 89.5 L 1140.2333374023438 73.5" fill-opacity="1" clip-path="url(#qRIGuJnCFNtc)"/><path fill="rgb(216,17,89)" stroke="none" paint-order="stroke" d="M 1140.2333374023438 73.5 L 1156.2333374023438 73.5 L 1156.2333374023438 89.5 L 1140.2333374023438 89.5 L 1140.2333374023438 73.5" fill-opacity="1" clip-path="url(#qRIGuJnCFNtc)"/><g clip-path="url(#qRIGuJnCFNtc)"><text fill="rgb(68,68,68)" stroke="none" font-family="helvetica" font-size="13px" font-style="normal" font-weight="normal" text-decoration="normal" x="1162.7333374023438" y="104" text-anchor="start" dominant-baseline="central" transform="matrix(1, 0, 0, 1, 0.5, 0.5)" fill-opacity="1">solution</text></g><path fill="rgb(251,0,7)" stroke="none" paint-order="stroke" d="M 1140.2333374023438 96.5 L 1156.2333374023438 96.5 L 1156.2333374023438 112.5 L 1140.2333374023438 112.5 L 1140.2333374023438 96.5" fill-opacity="1" clip-path="url(#qRIGuJnCFNtc)"/><path fill="rgb(33,131,128)" stroke="none" paint-order="stroke" d="M 1140.2333374023438 96.5 L 1156.2333374023438 96.5 L 1156.2333374023438 112.5 L 1140.2333374023438 112.5 L 1140.2333374023438 96.5" fill-opacity="1" clip-path="url(#qRIGuJnCFNtc)"/><g clip-path="url(#qRIGuJnCFNtc)"><text fill="rgb(68,68,68)" stroke="none" font-family="helvetica" font-size="13px" font-style="normal" font-weight="normal" text-decoration="normal" x="1162.7333374023438" y="127" text-anchor="start" dominant-baseline="central" transform="matrix(1, 0, 0, 1, 0.5, 0.5)" fill-opacity="1">laser</text></g><path fill="rgb(105,29,48)" stroke="none" paint-order="stroke" d="M 1140.2333374023438 119.5 L 1156.2333374023438 119.5 L 1156.2333374023438 135.5 L 1140.2333374023438 135.5 L 1140.2333374023438 119.5" fill-opacity="1" clip-path="url(#qRIGuJnCFNtc)"/><g clip-path="url(#qRIGuJnCFNtc)"><text fill="rgb(68,68,68)" stroke="none" font-family="helvetica" font-size="13px" font-style="normal" font-weight="normal" text-decoration="normal" x="1162.7333374023438" y="150" text-anchor="start" dominant-baseline="central" transform="matrix(1, 0, 0, 1, 0.5, 0.5)" fill-opacity="1">ruler</text></g><path fill="rgb(255,188,66)" stroke="none" paint-order="stroke" d="M 1140.2333374023438 142.5 L 1156.2333374023438 142.5 L 1156.2333374023438 158.5 L 1140.2333374023438 158.5 L 1140.2333374023438 142.5" fill-opacity="1" clip-path="url(#qRIGuJnCFNtc)"/><g clip-path="url(#qRIGuJnCFNtc)"><text fill="rgb(68,68,68)" stroke="none" font-family="helvetica" font-size="13px" font-style="normal" font-weight="normal" text-decoration="normal" x="1162.7333374023438" y="173" text-anchor="start" dominant-baseline="central" transform="matrix(1, 0, 0, 1, 0.5, 0.5)" fill-opacity="1">restarts</text></g><g clip-path="url(#qRIGuJnCFNtc)"><text fill="rgb(68,68,68)" stroke="none" font-family="helvetica" font-size="13px" font-style="normal" font-weight="normal" text-decoration="normal" x="1162.7333374023438" y="196" text-anchor="start" dominant-baseline="central" transform="matrix(1, 0, 0, 1, 0.5, 0.5)" fill-opacity="1">transmittance_absorbance</text></g><path fill="rgb(162,174,187)" stroke="none" paint-order="stroke" d="M 1140.2333374023438 188.5 L 1156.2333374023438 188.5 L 1156.2333374023438 204.5 L 1140.2333374023438 204.5 L 1140.2333374023438 188.5" fill-opacity="1" clip-path="url(#qRIGuJnCFNtc)"/><g clip-path="url(#qRIGuJnCFNtc)"><text fill="rgb(68,68,68)" stroke="none" font-family="helvetica" font-size="13px" font-style="normal" font-weight="normal" text-decoration="normal" x="1162.7333374023438" y="219" text-anchor="start" dominant-baseline="central" transform="matrix(1, 0, 0, 1, 0.5, 0.5)" fill-opacity="1">magnifier</text></g><path fill="rgb(255,188,66)" stroke="none" paint-order="stroke" d="M 1140.2333374023438 211.5 L 1156.2333374023438 211.5 L 1156.2333374023438 227.5 L 1140.2333374023438 227.5 L 1140.2333374023438 211.5" fill-opacity="1" clip-path="url(#qRIGuJnCFNtc)"/><g clip-path="url(#qRIGuJnCFNtc)"><text fill="rgb(68,68,68)" stroke="none" font-family="helvetica" font-size="13px" font-style="normal" font-weight="normal" text-decoration="normal" x="1162.7333374023438" y="242" text-anchor="start" dominant-baseline="central" transform="matrix(1, 0, 0, 1, 0.5, 0.5)" fill-opacity="1">concentration</text></g><path fill="rgb(115,210,222)" stroke="none" paint-order="stroke" d="M 1140.2333374023438 234.5 L 1156.2333374023438 234.5 L 1156.2333374023438 250.5 L 1140.2333374023438 250.5 L 1140.2333374023438 234.5" fill-opacity="1" clip-path="url(#qRIGuJnCFNtc)"/><g clip-path="url(#qRIGuJnCFNtc)"><text fill="rgb(68,68,68)" stroke="none" font-family="helvetica" font-size="13px" font-style="normal" font-weight="normal" text-decoration="normal" x="1162.7333374023438" y="265" text-anchor="start" dominant-baseline="central" transform="matrix(1, 0, 0, 1, 0.5, 0.5)" fill-opacity="1">flask</text></g><path fill="rgb(28,49,68)" stroke="none" paint-order="stroke" d="M 1140.2333374023438 257.5 L 1156.2333374023438 257.5 L 1156.2333374023438 273.5 L 1140.2333374023438 273.5 L 1140.2333374023438 257.5" fill-opacity="1" clip-path="url(#qRIGuJnCFNtc)"/><g clip-path="url(#qRIGuJnCFNtc)"><text fill="rgb(68,68,68)" stroke="none" font-family="helvetica" font-size="13px" font-style="normal" font-weight="normal" text-decoration="normal" x="1162.7333374023438" y="288" text-anchor="start" dominant-baseline="central" transform="matrix(1, 0, 0, 1, 0.5, 0.5)" fill-opacity="1">pdf</text></g><path fill="rgb(239,185,203)" stroke="none" paint-order="stroke" d="M 1140.2333374023438 280.5 L 1156.2333374023438 280.5 L 1156.2333374023438 296.5 L 1140.2333374023438 296.5 L 1140.2333374023438 280.5" fill-opacity="1" clip-path="url(#qRIGuJnCFNtc)"/><g clip-path="url(#qRIGuJnCFNtc)"><text fill="rgb(68,68,68)" stroke="none" font-family="helvetica" font-size="13px" font-style="normal" font-weight="normal" text-decoration="normal" x="1162.7333374023438" y="311" text-anchor="start" dominant-baseline="central" transform="matrix(1, 0, 0, 1, 0.5, 0.5)" fill-opacity="1">concentrationlab</text></g><g clip-path="url(#qRIGuJnCFNtc)"><text fill="rgb(68,68,68)" stroke="none" font-family="helvetica" font-size="13px" font-style="normal" font-weight="normal" text-decoration="normal" x="1162.7333374023438" y="334" text-anchor="start" dominant-baseline="central" transform="matrix(1, 0, 0, 1, 0.5, 0.5)" fill-opacity="1">wavelength_slider</text></g><g clip-path="url(#qRIGuJnCFNtc)"><text fill="rgb(68,68,68)" stroke="none" font-family="helvetica" font-size="13px" font-style="normal" font-weight="normal" text-decoration="normal" x="1162.7333374023438" y="357" text-anchor="start" dominant-baseline="central" transform="matrix(1, 0, 0, 1, 0.5, 0.5)" fill-opacity="1">ruler measuring</text></g><path fill="rgb(255,188,66)" stroke="none" paint-order="stroke" d="M 1140.2333374023438 349.5 L 1156.2333374023438 349.5 L 1156.2333374023438 365.5 L 1140.2333374023438 365.5 L 1140.2333374023438 349.5" fill-opacity="1" clip-path="url(#qRIGuJnCFNtc)"/><g clip-path="url(#qRIGuJnCFNtc)"><text fill="rgb(68,68,68)" stroke="none" font-family="helvetica" font-size="13px" font-style="normal" font-weight="normal" text-decoration="normal" x="1162.7333374023438" y="380" text-anchor="start" dominant-baseline="central" transform="matrix(1, 0, 0, 1, 0.5, 0.5)" fill-opacity="1">dependent variable</text></g><path fill="rgb(143,45,86)" stroke="none" paint-order="stroke" d="M 1140.2333374023438 372.5 L 1156.2333374023438 372.5 L 1156.2333374023438 388.5 L 1140.2333374023438 388.5 L 1140.2333374023438 372.5" fill-opacity="1" clip-path="url(#qRIGuJnCFNtc)"/><text fill="rgb(68,68,68)" stroke="none" font-family="helvetica" font-size="25pt" font-style="normal" font-weight="bold" text-decoration="normal" x="58" y="38.740885416666664" text-anchor="start" dominant-baseline="alphabetic" transform="matrix(1, 0, 0, 1, 0.5, 0.5)" fill-opacity="1">Timeline for student 39htvmt5 with permutation 3021 for task 3</text></svg>