<svg version="1.1" xmlns="http://www.w3.org/2000/svg" width="1366" height="683"><defs><clipPath id="syoPzgLkhXnH"><path fill="none" stroke="none" d="M 58.5 51.5 L 1336.5 51.5 L 1336.5 630.5 L 58.5 630.5 L 58.5 51.5"/></clipPath><clipPath id="ITXzbVaBDhVU"><path fill="none" stroke="none" d="M 58.5 51.5 L 1336.5 51.5 L 1336.5 630.5 L 58.5 630.5 L 58.5 51.5"/></clipPath><clipPath id="rUvUIiTrcQvF"><path fill="none" stroke="none" d="M 58.5 51.5 L 1336.5 51.5 L 1336.5 630.5 L 58.5 630.5 L 58.5 51.5"/></clipPath><clipPath id="zwWIUumGFpTo"><path fill="none" stroke="none" d="M 58.5 51.5 L 1336.5 51.5 L 1336.5 630.5 L 58.5 630.5 L 58.5 51.5"/></clipPath><clipPath id="JCHxFJZDDISn"><path fill="none" stroke="none" d="M 58.5 51.5 L 1336.5 51.5 L 1336.5 630.5 L 58.5 630.5 L 58.5 51.5"/></clipPath><clipPath id="MSGPdzKzPNZv"><path fill="none" stroke="none" d="M 58.5 51.5 L 1336.5 51.5 L 1336.5 630.5 L 58.5 630.5 L 58.5 51.5"/></clipPath><clipPath id="RRaIqmqOMvzI"><path fill="none" stroke="none" d="M 58.5 51.5 L 1336.5 51.5 L 1336.5 630.5 L 58.5 630.5 L 58.5 51.5"/></clipPath><clipPath id="KLnpGazSMQZi"><path fill="none" stroke="none" d="M 58.5 51.5 L 1336.5 51.5 L 1336.5 630.5 L 58.5 630.5 L 58.5 51.5"/></clipPath><clipPath id="aLemnKcIpdBV"><path fill="none" stroke="none" d="M 58.5 51.5 L 1336.5 51.5 L 1336.5 630.5 L 58.5 630.5 L 58.5 51.5"/></clipPath><clipPath id="swTfkkouAEvd"><path fill="none" stroke="none" d="M 58.5 51.5 L 1336.5 51.5 L 1336.5 630.5 L 58.5 630.5 L 58.5 51.5"/></clipPath><clipPath id="gLMXSFPmprOe"><path fill="none" stroke="none" d="M 58.5 51.5 L 1336.5 51.5 L 1336.5 630.5 L 58.5 630.5 L 58.5 51.5"/></clipPath><clipPath id="JDFmurubfxIy"><path fill="none" stroke="none" d="M 58.5 51.5 L 1336.5 51.5 L 1336.5 630.5 L 58.5 630.5 L 58.5 51.5"/></clipPath><clipPath id="EQFsFcaNAVxQ"><path fill="none" stroke="none" d="M 58.5 51.5 L 1336.5 51.5 L 1336.5 630.5 L 58.5 630.5 L 58.5 51.5"/></clipPath><clipPath id="xLIumTKSuzkQ"><path fill="none" stroke="none" d="M 58.5 51.5 L 1336.5 51.5 L 1336.5 630.5 L 58.5 630.5 L 58.5 51.5"/></clipPath><clipPath id="tTxfgCuivZgz"><path fill="none" stroke="none" d="M 58.5 51.5 L 1336.5 51.5 L 1336.5 630.5 L 58.5 630.5 L 58.5 51.5"/></clipPath><clipPath id="kWFpzpmfTFgC"><path fill="none" stroke="none" d="M 58.5 51.5 L 1336.5 51.5 L 1336.5 630.5 L 58.5 630.5 L 58.5 51.5"/></clipPath><clipPath id="NwzcovUlUwrR"><path fill="none" stroke="none" d="M 58.5 51.5 L 1336.5 51.5 L 1336.5 630.5 L 58.5 630.5 L 58.5 51.5"/></clipPath><clipPath id="xisztZpwLLKT"><path fill="none" stroke="none" d="M 58.5 51.5 L 1336.5 51.5 L 1336.5 630.5 L 58.5 630.5 L 58.5 51.5"/></clipPath><clipPath id="yCXimnrTfGTQ"><path fill="none" stroke="none" d="M 58.5 51.5 L 1336.5 51.5 L 1336.5 630.5 L 58.5 630.5 L 58.5 51.5"/></clipPath><clipPath id="CznDEsNCzKJQ"><path fill="none" stroke="none" d="M 58.5 51.5 L 1336.5 51.5 L 1336.5 630.5 L 58.5 630.5 L 58.5 51.5"/></clipPath><clipPath id="TyUxsrsruWJR"><path fill="none" stroke="none" d="M 58.5 51.5 L 1336.5 51.5 L 1336.5 630.5 L 58.5 630.5 L 58.5 51.5"/></clipPath></defs><path fill="rgb(255,255,255)" stroke="none" paint-order="stroke" d="M 0.5 0.5 L 1366.5 0.5 L 1366.5 683.5 L 0.5 683.5 L 0.5 0.5" fill-opacity="1"/><rect fill="#FFFFFF" stroke="none" x="58" y="51" width="1278" height="579" transform="matrix(1, 0, 0, 1, 0.5, 0.5)"/><path fill="rgb(255,255,255)" stroke="none" paint-order="stroke" d="M 58.5 51.5 L 1336.5 51.5 L 1336.5 630.5 L 58.5 630.5 L 58.5 51.5" fill-opacity="1"/><path fill="none" stroke="rgb(229,229,229)" paint-order="fill" d="M 58.5 51.5 L 1336.5 51.5 L 1336.5 630.5 L 58.5 630.5 L 58.5 51.5" stroke-opacity="1" stroke-linejoin="bevel" stroke-miterlimit="10" stroke-dasharray=""/><path fill="none" stroke="rgb(229,229,229)" paint-order="fill" d="M 314.5 630.5 L 314.5 51.5 M 569.5 630.5 L 569.5 51.5 M 825.5 630.5 L 825.5 51.5 M 1080.5 630.5 L 1080.5 51.5" stroke-opacity="1" stroke-linejoin="bevel" stroke-miterlimit="10" stroke-dasharray="" clip-path="url(#syoPzgLkhXnH)"/><path fill="none" stroke="rgb(229,229,229)" paint-order="fill" d="M 58.5 551.5 L 1336.5 551.5 M 58.5 446.5 L 1336.5 446.5 M 58.5 341.5 L 1336.5 341.5 M 58.5 235.5 L 1336.5 235.5 M 58.5 130.5 L 1336.5 130.5" stroke-opacity="1" stroke-linejoin="bevel" stroke-miterlimit="10" stroke-dasharray="" clip-path="url(#ITXzbVaBDhVU)"/><path fill="rgb(0,255,40)" stroke="none" paint-order="stroke" d="M 58.5 77.81818389892578 L 218.353515625 77.81818389892578 L 218.353515625 130.45454788208008 L 58.5 130.45454788208008 L 58.5 77.81818389892578" fill-opacity="1" clip-path="url(#rUvUIiTrcQvF)"/><path fill="rgb(251,0,7)" stroke="none" paint-order="stroke" d="M 58.5 130.4545440673828 L 218.353515625 130.4545440673828 L 218.353515625 183.0909080505371 L 58.5 183.0909080505371 L 58.5 130.4545440673828" fill-opacity="1" clip-path="url(#zwWIUumGFpTo)"/><path fill="rgb(105,29,48)" stroke="none" paint-order="stroke" d="M 188.4611053466797 183.09091186523438 L 188.52500534802675 183.09091186523438 L 188.52500534802675 498.9090881347656 L 188.4611053466797 498.9090881347656 L 188.4611053466797 183.09091186523438" fill-opacity="1" clip-path="url(#JCHxFJZDDISn)"/><path fill="rgb(105,29,48)" stroke="none" paint-order="stroke" d="M 206.5882568359375 183.09091186523438 L 206.65215683728456 183.09091186523438 L 206.65215683728456 498.9090881347656 L 206.5882568359375 498.9090881347656 L 206.5882568359375 183.09091186523438" fill-opacity="1" clip-path="url(#JCHxFJZDDISn)"/><path fill="rgb(255,188,66)" stroke="none" paint-order="stroke" d="M 172.60751342773438 183.09091186523438 L 177.3514494895935 183.09091186523438 L 177.3514494895935 498.9090881347656 L 172.60751342773438 498.9090881347656 L 172.60751342773438 183.09091186523438" fill-opacity="1" clip-path="url(#MSGPdzKzPNZv)"/><path fill="rgb(162,174,187)" stroke="none" paint-order="stroke" d="M 206.5882568359375 183.09091186523438 L 206.65215683728456 183.09091186523438 L 206.65215683728456 498.9090881347656 L 206.5882568359375 498.9090881347656 L 206.5882568359375 183.09091186523438" fill-opacity="1" clip-path="url(#RRaIqmqOMvzI)"/><path fill="rgb(162,174,187)" stroke="none" paint-order="stroke" d="M 170.6815643310547 183.09091186523438 L 170.74546433240175 183.09091186523438 L 170.74546433240175 498.9090881347656 L 170.6815643310547 498.9090881347656 L 170.6815643310547 183.09091186523438" fill-opacity="1" clip-path="url(#KLnpGazSMQZi)"/><path fill="rgb(162,174,187)" stroke="none" paint-order="stroke" d="M 206.5882568359375 183.09091186523438 L 206.65215683728456 183.09091186523438 L 206.65215683728456 498.9090881347656 L 206.5882568359375 498.9090881347656 L 206.5882568359375 183.09091186523438" fill-opacity="1" clip-path="url(#KLnpGazSMQZi)"/><path fill="rgb(255,188,66)" stroke="none" paint-order="stroke" d="M 147.47691345214844 183.09091186523438 L 149.09102749824524 183.09091186523438 L 149.09102749824524 498.9090881347656 L 147.47691345214844 498.9090881347656 L 147.47691345214844 183.09091186523438" fill-opacity="1" clip-path="url(#aLemnKcIpdBV)"/><path fill="rgb(255,188,66)" stroke="none" paint-order="stroke" d="M 149.84249877929688 183.09091186523438 L 150.4572167992592 183.09091186523438 L 150.4572167992592 498.9090881347656 L 149.84249877929688 498.9090881347656 L 149.84249877929688 183.09091186523438" fill-opacity="1" clip-path="url(#aLemnKcIpdBV)"/><path fill="rgb(255,188,66)" stroke="none" paint-order="stroke" d="M 151.05276489257812 183.09091186523438 L 152.20296490192413 183.09091186523438 L 152.20296490192413 498.9090881347656 L 151.05276489257812 498.9090881347656 L 151.05276489257812 183.09091186523438" fill-opacity="1" clip-path="url(#aLemnKcIpdBV)"/><path fill="rgb(255,188,66)" stroke="none" paint-order="stroke" d="M 168.72622680664062 183.09091186523438 L 169.69367283582687 183.09091186523438 L 169.69367283582687 498.9090881347656 L 168.72622680664062 498.9090881347656 L 168.72622680664062 183.09091186523438" fill-opacity="1" clip-path="url(#aLemnKcIpdBV)"/><path fill="rgb(255,188,66)" stroke="none" paint-order="stroke" d="M 191.98582458496094 183.09091186523438 L 203.54789066314697 183.09091186523438 L 203.54789066314697 498.9090881347656 L 191.98582458496094 498.9090881347656 L 191.98582458496094 183.09091186523438" fill-opacity="1" clip-path="url(#aLemnKcIpdBV)"/><path fill="rgb(216,17,89)" stroke="none" paint-order="stroke" d="M 157.3047332763672 183.09091186523438 L 157.36863327771425 183.09091186523438 L 157.36863327771425 498.9090881347656 L 157.3047332763672 498.9090881347656 L 157.3047332763672 183.09091186523438" fill-opacity="1" clip-path="url(#swTfkkouAEvd)"/><path fill="rgb(216,17,89)" stroke="none" paint-order="stroke" d="M 159.16038513183594 183.09091186523438 L 159.224285133183 183.09091186523438 L 159.224285133183 498.9090881347656 L 159.16038513183594 498.9090881347656 L 159.16038513183594 183.09091186523438" fill-opacity="1" clip-path="url(#swTfkkouAEvd)"/><path fill="rgb(33,131,128)" stroke="none" paint-order="stroke" d="M 206.5882568359375 183.09091186523438 L 206.65215683728456 183.09091186523438 L 206.65215683728456 498.9090881347656 L 206.5882568359375 498.9090881347656 L 206.5882568359375 183.09091186523438" fill-opacity="1" clip-path="url(#gLMXSFPmprOe)"/><path fill="rgb(33,131,128)" stroke="none" paint-order="stroke" d="M 217.14964294433594 183.09091186523438 L 218.3535189628601 183.09091186523438 L 218.3535189628601 498.9090881347656 L 217.14964294433594 498.9090881347656 L 217.14964294433594 183.09091186523438" fill-opacity="1" clip-path="url(#gLMXSFPmprOe)"/><path fill="rgb(115,210,222)" stroke="none" paint-order="stroke" d="M 163.81358337402344 183.09091186523438 L 167.7076494693756 183.09091186523438 L 167.7076494693756 498.9090881347656 L 163.81358337402344 498.9090881347656 L 163.81358337402344 183.09091186523438" fill-opacity="1" clip-path="url(#JDFmurubfxIy)"/><path fill="rgb(143,45,86)" stroke="none" paint-order="stroke" d="M 58.5 551.5454711914062 L 192.2248077392578 551.5454711914062 L 192.2248077392578 604.1818351745605 L 58.5 604.1818351745605 L 58.5 551.5454711914062" fill-opacity="1" clip-path="url(#xisztZpwLLKT)"/><path fill="rgb(81,60,99)" stroke="none" paint-order="stroke" d="M 192.2248077392578 551.5454711914062 L 192.8638077378273 551.5454711914062 L 192.8638077378273 604.1818351745605 L 192.2248077392578 604.1818351745605 L 192.2248077392578 551.5454711914062" fill-opacity="1" clip-path="url(#xisztZpwLLKT)"/><path fill="rgb(143,45,86)" stroke="none" paint-order="stroke" d="M 192.8638153076172 551.5454711914062 L 194.39485931396484 551.5454711914062 L 194.39485931396484 604.1818351745605 L 192.8638153076172 604.1818351745605 L 192.8638153076172 551.5454711914062" fill-opacity="1" clip-path="url(#xisztZpwLLKT)"/><path fill="rgb(81,60,99)" stroke="none" paint-order="stroke" d="M 194.3948516845703 551.5454711914062 L 194.9482256770134 551.5454711914062 L 194.9482256770134 604.1818351745605 L 194.3948516845703 604.1818351745605 L 194.3948516845703 551.5454711914062" fill-opacity="1" clip-path="url(#xisztZpwLLKT)"/><path fill="rgb(143,45,86)" stroke="none" paint-order="stroke" d="M 194.94822692871094 551.5454711914062 L 196.33230090141296 551.5454711914062 L 196.33230090141296 604.1818351745605 L 194.94822692871094 604.1818351745605 L 194.94822692871094 551.5454711914062" fill-opacity="1" clip-path="url(#xisztZpwLLKT)"/><path fill="rgb(81,60,99)" stroke="none" paint-order="stroke" d="M 196.33230590820312 551.5454711914062 L 197.54384994506836 551.5454711914062 L 197.54384994506836 604.1818351745605 L 196.33230590820312 604.1818351745605 L 196.33230590820312 551.5454711914062" fill-opacity="1" clip-path="url(#xisztZpwLLKT)"/><path fill="rgb(143,45,86)" stroke="none" paint-order="stroke" d="M 197.54383850097656 551.5454711914062 L 198.24673849344254 551.5454711914062 L 198.24673849344254 604.1818351745605 L 197.54383850097656 604.1818351745605 L 197.54383850097656 551.5454711914062" fill-opacity="1" clip-path="url(#xisztZpwLLKT)"/><path fill="rgb(81,60,99)" stroke="none" paint-order="stroke" d="M 198.2467498779297 551.5454711914062 L 201.54526782035828 551.5454711914062 L 201.54526782035828 604.1818351745605 L 198.2467498779297 604.1818351745605 L 198.2467498779297 551.5454711914062" fill-opacity="1" clip-path="url(#xisztZpwLLKT)"/><path fill="rgb(143,45,86)" stroke="none" paint-order="stroke" d="M 201.54525756835938 551.5454711914062 L 202.39768356084824 551.5454711914062 L 202.39768356084824 604.1818351745605 L 201.54525756835938 604.1818351745605 L 201.54525756835938 551.5454711914062" fill-opacity="1" clip-path="url(#xisztZpwLLKT)"/><path fill="rgb(81,60,99)" stroke="none" paint-order="stroke" d="M 202.39768981933594 551.5454711914062 L 202.86543780565262 551.5454711914062 L 202.86543780565262 604.1818351745605 L 202.39768981933594 604.1818351745605 L 202.39768981933594 551.5454711914062" fill-opacity="1" clip-path="url(#xisztZpwLLKT)"/><path fill="rgb(143,45,86)" stroke="none" paint-order="stroke" d="M 202.8654327392578 551.5454711914062 L 203.54788476228714 551.5454711914062 L 203.54788476228714 604.1818351745605 L 202.8654327392578 604.1818351745605 L 202.8654327392578 551.5454711914062" fill-opacity="1" clip-path="url(#xisztZpwLLKT)"/><path fill="rgb(81,60,99)" stroke="none" paint-order="stroke" d="M 203.54788208007812 551.5454711914062 L 206.58824396133423 551.5454711914062 L 206.58824396133423 604.1818351745605 L 203.54788208007812 604.1818351745605 L 203.54788208007812 551.5454711914062" fill-opacity="1" clip-path="url(#xisztZpwLLKT)"/><path fill="rgb(143,45,86)" stroke="none" paint-order="stroke" d="M 206.5882568359375 551.5454711914062 L 218.35352516174316 551.5454711914062 L 218.35352516174316 604.1818351745605 L 206.5882568359375 604.1818351745605 L 206.5882568359375 551.5454711914062" fill-opacity="1" clip-path="url(#xisztZpwLLKT)"/><path fill="none" stroke="rgb(0,0,0)" paint-order="fill" d="M 58.5 77.81818389892578 L 218.353515625 77.81818389892578 L 218.353515625 604.1818313598633 L 58.5 604.1818313598633 L 58.5 77.81818389892578" stroke-opacity="1" stroke-linejoin="bevel" stroke-miterlimit="10" stroke-dasharray="" clip-path="url(#yCXimnrTfGTQ)"/><path fill="none" stroke="rgb(0,0,0)" paint-order="fill" d="M 58.5 630.5 L 1336.5 630.5" stroke-opacity="1" stroke-linejoin="bevel" stroke-miterlimit="10" stroke-dasharray=""/><path fill="none" stroke="rgb(0,0,0)" paint-order="fill" d="M 58.5 636.5 L 58.5 628.5 M 314.5 636.5 L 314.5 628.5 M 569.5 636.5 L 569.5 628.5 M 825.5 636.5 L 825.5 628.5 M 1080.5 636.5 L 1080.5 628.5 M 1336.5 636.5 L 1336.5 628.5" stroke-opacity="1" stroke-linejoin="bevel" stroke-miterlimit="10" stroke-dasharray=""/><path fill="none" stroke="rgb(0,0,0)" paint-order="fill" d="M 58.5 634.5 L 58.5 630.5 M 109.5 634.5 L 109.5 630.5 M 160.5 634.5 L 160.5 630.5 M 211.5 634.5 L 211.5 630.5 M 262.5 634.5 L 262.5 630.5 M 314.5 634.5 L 314.5 630.5 M 365.5 634.5 L 365.5 630.5 M 416.5 634.5 L 416.5 630.5 M 467.5 634.5 L 467.5 630.5 M 518.5 634.5 L 518.5 630.5 M 569.5 634.5 L 569.5 630.5 M 620.5 634.5 L 620.5 630.5 M 671.5 634.5 L 671.5 630.5 M 723.5 634.5 L 723.5 630.5 M 774.5 634.5 L 774.5 630.5 M 825.5 634.5 L 825.5 630.5 M 876.5 634.5 L 876.5 630.5 M 927.5 634.5 L 927.5 630.5 M 978.5 634.5 L 978.5 630.5 M 1029.5 634.5 L 1029.5 630.5 M 1080.5 634.5 L 1080.5 630.5 M 1132.5 634.5 L 1132.5 630.5 M 1183.5 634.5 L 1183.5 630.5 M 1234.5 634.5 L 1234.5 630.5 M 1285.5 634.5 L 1285.5 630.5 M 1336.5 634.5 L 1336.5 630.5" stroke-opacity="1" stroke-linejoin="bevel" stroke-miterlimit="10" stroke-dasharray=""/><text fill="rgb(68,68,68)" stroke="none" font-family="helvetica" font-size="11px" font-style="normal" font-weight="normal" text-decoration="normal" x="54.94166660308838" y="648.89013671875" text-anchor="start" dominant-baseline="alphabetic" transform="matrix(1, 0, 0, 1, 0.5, 0.5)" fill-opacity="1">0</text><text fill="rgb(68,68,68)" stroke="none" font-family="helvetica" font-size="11px" font-style="normal" font-weight="normal" text-decoration="normal" x="304.42500591278076" y="648.89013671875" text-anchor="start" dominant-baseline="alphabetic" transform="matrix(1, 0, 0, 1, 0.5, 0.5)" fill-opacity="1">200</text><text fill="rgb(68,68,68)" stroke="none" font-family="helvetica" font-size="11px" font-style="normal" font-weight="normal" text-decoration="normal" x="560.0250120162964" y="648.89013671875" text-anchor="start" dominant-baseline="alphabetic" transform="matrix(1, 0, 0, 1, 0.5, 0.5)" fill-opacity="1">400</text><text fill="rgb(68,68,68)" stroke="none" font-family="helvetica" font-size="11px" font-style="normal" font-weight="normal" text-decoration="normal" x="815.6249876022339" y="648.89013671875" text-anchor="start" dominant-baseline="alphabetic" transform="matrix(1, 0, 0, 1, 0.5, 0.5)" fill-opacity="1">600</text><text fill="rgb(68,68,68)" stroke="none" font-family="helvetica" font-size="11px" font-style="normal" font-weight="normal" text-decoration="normal" x="1071.2250242233276" y="648.89013671875" text-anchor="start" dominant-baseline="alphabetic" transform="matrix(1, 0, 0, 1, 0.5, 0.5)" fill-opacity="1">800</text><text fill="rgb(68,68,68)" stroke="none" font-family="helvetica" font-size="11px" font-style="normal" font-weight="normal" text-decoration="normal" x="1323.7666664123535" y="648.89013671875" text-anchor="start" dominant-baseline="alphabetic" transform="matrix(1, 0, 0, 1, 0.5, 0.5)" fill-opacity="1">1000</text><text fill="rgb(68,68,68)" stroke="none" font-family="helvetica" font-size="15pt" font-style="italic" font-weight="normal" text-decoration="normal" x="666.4416675567627" y="676.06982421875" text-anchor="start" dominant-baseline="alphabetic" transform="matrix(1, 0, 0, 1, 0.5, 0.5)" fill-opacity="1">time(s)</text><path fill="none" stroke="rgb(0,0,0)" paint-order="fill" d="M 58.5 630.5 L 58.5 51.5" stroke-opacity="1" stroke-linejoin="bevel" stroke-miterlimit="10" stroke-dasharray=""/><path fill="none" stroke="rgb(0,0,0)" paint-order="fill" d="M 52.5 551.5 L 60.5 551.5 M 52.5 446.5 L 60.5 446.5 M 52.5 341.5 L 60.5 341.5 M 52.5 235.5 L 60.5 235.5 M 52.5 130.5 L 60.5 130.5" stroke-opacity="1" stroke-linejoin="bevel" stroke-miterlimit="10" stroke-dasharray=""/><path fill="none" stroke="rgb(0,0,0)" paint-order="fill" d="M 54.5 572.5 L 58.5 572.5 M 54.5 593.5 L 58.5 593.5 M 54.5 614.5 L 58.5 614.5 M 54.5 551.5 L 58.5 551.5 M 54.5 530.5 L 58.5 530.5 M 54.5 509.5 L 58.5 509.5 M 54.5 488.5 L 58.5 488.5 M 54.5 467.5 L 58.5 467.5 M 54.5 446.5 L 58.5 446.5 M 54.5 425.5 L 58.5 425.5 M 54.5 404.5 L 58.5 404.5 M 54.5 383.5 L 58.5 383.5 M 54.5 362.5 L 58.5 362.5 M 54.5 341.5 L 58.5 341.5 M 54.5 319.5 L 58.5 319.5 M 54.5 298.5 L 58.5 298.5 M 54.5 277.5 L 58.5 277.5 M 54.5 256.5 L 58.5 256.5 M 54.5 235.5 L 58.5 235.5 M 54.5 214.5 L 58.5 214.5 M 54.5 193.5 L 58.5 193.5 M 54.5 172.5 L 58.5 172.5 M 54.5 151.5 L 58.5 151.5 M 54.5 130.5 L 58.5 130.5 M 54.5 109.5 L 58.5 109.5 M 54.5 88.5 L 58.5 88.5 M 54.5 67.5 L 58.5 67.5" stroke-opacity="1" stroke-linejoin="bevel" stroke-miterlimit="10" stroke-dasharray=""/><text fill="rgb(68,68,68)" stroke="none" font-family="helvetica" font-size="11px" font-style="normal" font-weight="normal" text-decoration="normal" x="34.46666622161865" y="554.9905395507812" text-anchor="start" dominant-baseline="alphabetic" transform="matrix(1, 0, 0, 1, 0.5, 0.5)" fill-opacity="1">−2</text><text fill="rgb(68,68,68)" stroke="none" font-family="helvetica" font-size="11px" font-style="normal" font-weight="normal" text-decoration="normal" x="34.46666622161865" y="449.7178039550781" text-anchor="start" dominant-baseline="alphabetic" transform="matrix(1, 0, 0, 1, 0.5, 0.5)" fill-opacity="1">−1</text><text fill="rgb(68,68,68)" stroke="none" font-family="helvetica" font-size="11px" font-style="normal" font-weight="normal" text-decoration="normal" x="40.88333320617676" y="344.445068359375" text-anchor="start" dominant-baseline="alphabetic" transform="matrix(1, 0, 0, 1, 0.5, 0.5)" fill-opacity="1">0</text><text fill="rgb(68,68,68)" stroke="none" font-family="helvetica" font-size="11px" font-style="normal" font-weight="normal" text-decoration="normal" x="40.88333320617676" y="239.17234802246094" text-anchor="start" dominant-baseline="alphabetic" transform="matrix(1, 0, 0, 1, 0.5, 0.5)" fill-opacity="1">1</text><text fill="rgb(68,68,68)" stroke="none" font-family="helvetica" font-size="11px" font-style="normal" font-weight="normal" text-decoration="normal" x="40.88333320617676" y="133.8996124267578" text-anchor="start" dominant-baseline="alphabetic" transform="matrix(1, 0, 0, 1, 0.5, 0.5)" fill-opacity="1">2</text><text fill="rgb(68,68,68)" stroke="none" font-family="helvetica" font-size="15pt" font-style="italic" font-weight="normal" text-decoration="normal" x="-11.316666603088379" y="336.076171875" text-anchor="start" dominant-baseline="alphabetic" transform="matrix(6.123233995736766e-17, -1, 1, 6.123233995736766e-17, -313.53333377838135, 367.46666622161865)" fill-opacity="1">students</text><path fill="rgb(255,255,255)" stroke="rgb(229,229,229)" paint-order="fill" d="M 1128.2333374023438 61.5 L 1326.5 61.5 L 1326.5 400.5 L 1128.2333374023438 400.5 L 1128.2333374023438 61.5" fill-opacity="0.9490196078431372" clip-path="url(#CznDEsNCzKJQ)" stroke-opacity="0.5019607843137255" stroke-linejoin="bevel" stroke-miterlimit="10" stroke-dasharray=""/><text fill="rgb(68,68,68)" stroke="none" font-family="helvetica" font-size="13px" font-style="normal" font-weight="normal" text-decoration="normal" x="1162.7333374023438" y="81" text-anchor="start" dominant-baseline="central" clip-path="url(#CznDEsNCzKJQ)" transform="matrix(1, 0, 0, 1, 0.5, 0.5)" fill-opacity="1">wavelength</text><path fill="rgb(0,255,40)" stroke="none" paint-order="stroke" d="M 1140.2333374023438 73.5 L 1156.2333374023438 73.5 L 1156.2333374023438 89.5 L 1140.2333374023438 89.5 L 1140.2333374023438 73.5" fill-opacity="1" clip-path="url(#CznDEsNCzKJQ)"/><path fill="rgb(216,17,89)" stroke="none" paint-order="stroke" d="M 1140.2333374023438 73.5 L 1156.2333374023438 73.5 L 1156.2333374023438 89.5 L 1140.2333374023438 89.5 L 1140.2333374023438 73.5" fill-opacity="1" clip-path="url(#CznDEsNCzKJQ)"/><text fill="rgb(68,68,68)" stroke="none" font-family="helvetica" font-size="13px" font-style="normal" font-weight="normal" text-decoration="normal" x="1162.7333374023438" y="104" text-anchor="start" dominant-baseline="central" clip-path="url(#CznDEsNCzKJQ)" transform="matrix(1, 0, 0, 1, 0.5, 0.5)" fill-opacity="1">solution</text><path fill="rgb(251,0,7)" stroke="none" paint-order="stroke" d="M 1140.2333374023438 96.5 L 1156.2333374023438 96.5 L 1156.2333374023438 112.5 L 1140.2333374023438 112.5 L 1140.2333374023438 96.5" fill-opacity="1" clip-path="url(#CznDEsNCzKJQ)"/><path fill="rgb(33,131,128)" stroke="none" paint-order="stroke" d="M 1140.2333374023438 96.5 L 1156.2333374023438 96.5 L 1156.2333374023438 112.5 L 1140.2333374023438 112.5 L 1140.2333374023438 96.5" fill-opacity="1" clip-path="url(#CznDEsNCzKJQ)"/><text fill="rgb(68,68,68)" stroke="none" font-family="helvetica" font-size="13px" font-style="normal" font-weight="normal" text-decoration="normal" x="1162.7333374023438" y="127" text-anchor="start" dominant-baseline="central" clip-path="url(#CznDEsNCzKJQ)" transform="matrix(1, 0, 0, 1, 0.5, 0.5)" fill-opacity="1">laser</text><path fill="rgb(105,29,48)" stroke="none" paint-order="stroke" d="M 1140.2333374023438 119.5 L 1156.2333374023438 119.5 L 1156.2333374023438 135.5 L 1140.2333374023438 135.5 L 1140.2333374023438 119.5" fill-opacity="1" clip-path="url(#CznDEsNCzKJQ)"/><text fill="rgb(68,68,68)" stroke="none" font-family="helvetica" font-size="13px" font-style="normal" font-weight="normal" text-decoration="normal" x="1162.7333374023438" y="150" text-anchor="start" dominant-baseline="central" clip-path="url(#CznDEsNCzKJQ)" transform="matrix(1, 0, 0, 1, 0.5, 0.5)" fill-opacity="1">ruler</text><path fill="rgb(255,188,66)" stroke="none" paint-order="stroke" d="M 1140.2333374023438 142.5 L 1156.2333374023438 142.5 L 1156.2333374023438 158.5 L 1140.2333374023438 158.5 L 1140.2333374023438 142.5" fill-opacity="1" clip-path="url(#CznDEsNCzKJQ)"/><text fill="rgb(68,68,68)" stroke="none" font-family="helvetica" font-size="13px" font-style="normal" font-weight="normal" text-decoration="normal" x="1162.7333374023438" y="173" text-anchor="start" dominant-baseline="central" clip-path="url(#CznDEsNCzKJQ)" transform="matrix(1, 0, 0, 1, 0.5, 0.5)" fill-opacity="1">restarts</text><path fill="rgb(162,174,187)" stroke="none" paint-order="stroke" d="M 1140.2333374023438 165.5 L 1156.2333374023438 165.5 L 1156.2333374023438 181.5 L 1140.2333374023438 181.5 L 1140.2333374023438 165.5" fill-opacity="1" clip-path="url(#CznDEsNCzKJQ)"/><text fill="rgb(68,68,68)" stroke="none" font-family="helvetica" font-size="13px" font-style="normal" font-weight="normal" text-decoration="normal" x="1162.7333374023438" y="196" text-anchor="start" dominant-baseline="central" clip-path="url(#CznDEsNCzKJQ)" transform="matrix(1, 0, 0, 1, 0.5, 0.5)" fill-opacity="1">transmittance_absorbance</text><path fill="rgb(162,174,187)" stroke="none" paint-order="stroke" d="M 1140.2333374023438 188.5 L 1156.2333374023438 188.5 L 1156.2333374023438 204.5 L 1140.2333374023438 204.5 L 1140.2333374023438 188.5" fill-opacity="1" clip-path="url(#CznDEsNCzKJQ)"/><text fill="rgb(68,68,68)" stroke="none" font-family="helvetica" font-size="13px" font-style="normal" font-weight="normal" text-decoration="normal" x="1162.7333374023438" y="219" text-anchor="start" dominant-baseline="central" clip-path="url(#CznDEsNCzKJQ)" transform="matrix(1, 0, 0, 1, 0.5, 0.5)" fill-opacity="1">magnifier</text><path fill="rgb(255,188,66)" stroke="none" paint-order="stroke" d="M 1140.2333374023438 211.5 L 1156.2333374023438 211.5 L 1156.2333374023438 227.5 L 1140.2333374023438 227.5 L 1140.2333374023438 211.5" fill-opacity="1" clip-path="url(#CznDEsNCzKJQ)"/><text fill="rgb(68,68,68)" stroke="none" font-family="helvetica" font-size="13px" font-style="normal" font-weight="normal" text-decoration="normal" x="1162.7333374023438" y="242" text-anchor="start" dominant-baseline="central" clip-path="url(#CznDEsNCzKJQ)" transform="matrix(1, 0, 0, 1, 0.5, 0.5)" fill-opacity="1">concentration</text><path fill="rgb(115,210,222)" stroke="none" paint-order="stroke" d="M 1140.2333374023438 234.5 L 1156.2333374023438 234.5 L 1156.2333374023438 250.5 L 1140.2333374023438 250.5 L 1140.2333374023438 234.5" fill-opacity="1" clip-path="url(#CznDEsNCzKJQ)"/><text fill="rgb(68,68,68)" stroke="none" font-family="helvetica" font-size="13px" font-style="normal" font-weight="normal" text-decoration="normal" x="1162.7333374023438" y="265" text-anchor="start" dominant-baseline="central" clip-path="url(#CznDEsNCzKJQ)" transform="matrix(1, 0, 0, 1, 0.5, 0.5)" fill-opacity="1">flask</text><text fill="rgb(68,68,68)" stroke="none" font-family="helvetica" font-size="13px" font-style="normal" font-weight="normal" text-decoration="normal" x="1162.7333374023438" y="288" text-anchor="start" dominant-baseline="central" clip-path="url(#CznDEsNCzKJQ)" transform="matrix(1, 0, 0, 1, 0.5, 0.5)" fill-opacity="1">pdf</text><text fill="rgb(68,68,68)" stroke="none" font-family="helvetica" font-size="13px" font-style="normal" font-weight="normal" text-decoration="normal" x="1162.7333374023438" y="311" text-anchor="start" dominant-baseline="central" clip-path="url(#CznDEsNCzKJQ)" transform="matrix(1, 0, 0, 1, 0.5, 0.5)" fill-opacity="1">concentrationlab</text><text fill="rgb(68,68,68)" stroke="none" font-family="helvetica" font-size="13px" font-style="normal" font-weight="normal" text-decoration="normal" x="1162.7333374023438" y="334" text-anchor="start" dominant-baseline="central" clip-path="url(#CznDEsNCzKJQ)" transform="matrix(1, 0, 0, 1, 0.5, 0.5)" fill-opacity="1">wavelength_slider</text><text fill="rgb(68,68,68)" stroke="none" font-family="helvetica" font-size="13px" font-style="normal" font-weight="normal" text-decoration="normal" x="1162.7333374023438" y="357" text-anchor="start" dominant-baseline="central" clip-path="url(#CznDEsNCzKJQ)" transform="matrix(1, 0, 0, 1, 0.5, 0.5)" fill-opacity="1">ruler measuring</text><text fill="rgb(68,68,68)" stroke="none" font-family="helvetica" font-size="13px" font-style="normal" font-weight="normal" text-decoration="normal" x="1162.7333374023438" y="380" text-anchor="start" dominant-baseline="central" clip-path="url(#CznDEsNCzKJQ)" transform="matrix(1, 0, 0, 1, 0.5, 0.5)" fill-opacity="1">dependent variable</text><path fill="rgb(143,45,86)" stroke="none" paint-order="stroke" d="M 1140.2333374023438 372.5 L 1156.2333374023438 372.5 L 1156.2333374023438 388.5 L 1140.2333374023438 388.5 L 1140.2333374023438 372.5" fill-opacity="1" clip-path="url(#CznDEsNCzKJQ)"/><text fill="rgb(68,68,68)" stroke="none" font-family="helvetica" font-size="25pt" font-style="normal" font-weight="bold" text-decoration="normal" x="58" y="38.740885416666664" text-anchor="start" dominant-baseline="alphabetic" transform="matrix(1, 0, 0, 1, 0.5, 0.5)" fill-opacity="1">Timeline for student s47edumx with permutation 3102 for task 1</text></svg>