<svg version="1.1" xmlns="http://www.w3.org/2000/svg" width="1366" height="683"><defs><clipPath id="xIwVvoClnrQo"><path fill="none" stroke="none" d="M 58.5 51.5 L 1336.5 51.5 L 1336.5 630.5 L 58.5 630.5 L 58.5 51.5"/></clipPath><clipPath id="viEFhSgTtTpZ"><path fill="none" stroke="none" d="M 58.5 51.5 L 1336.5 51.5 L 1336.5 630.5 L 58.5 630.5 L 58.5 51.5"/></clipPath><clipPath id="TdLvDIWQcsRt"><path fill="none" stroke="none" d="M 58.5 51.5 L 1336.5 51.5 L 1336.5 630.5 L 58.5 630.5 L 58.5 51.5"/></clipPath><clipPath id="VPBypMbUfKox"><path fill="none" stroke="none" d="M 58.5 51.5 L 1336.5 51.5 L 1336.5 630.5 L 58.5 630.5 L 58.5 51.5"/></clipPath><clipPath id="RfOGvTpFxqQF"><path fill="none" stroke="none" d="M 58.5 51.5 L 1336.5 51.5 L 1336.5 630.5 L 58.5 630.5 L 58.5 51.5"/></clipPath><clipPath id="ASudtoSSeohF"><path fill="none" stroke="none" d="M 58.5 51.5 L 1336.5 51.5 L 1336.5 630.5 L 58.5 630.5 L 58.5 51.5"/></clipPath><clipPath id="DOLtUJihTNUf"><path fill="none" stroke="none" d="M 58.5 51.5 L 1336.5 51.5 L 1336.5 630.5 L 58.5 630.5 L 58.5 51.5"/></clipPath><clipPath id="VZvcthCDoRnL"><path fill="none" stroke="none" d="M 58.5 51.5 L 1336.5 51.5 L 1336.5 630.5 L 58.5 630.5 L 58.5 51.5"/></clipPath><clipPath id="AsFxhCJooaas"><path fill="none" stroke="none" d="M 58.5 51.5 L 1336.5 51.5 L 1336.5 630.5 L 58.5 630.5 L 58.5 51.5"/></clipPath><clipPath id="DotqouTKTcSA"><path fill="none" stroke="none" d="M 58.5 51.5 L 1336.5 51.5 L 1336.5 630.5 L 58.5 630.5 L 58.5 51.5"/></clipPath><clipPath id="DvgvNJPRmkHe"><path fill="none" stroke="none" d="M 58.5 51.5 L 1336.5 51.5 L 1336.5 630.5 L 58.5 630.5 L 58.5 51.5"/></clipPath><clipPath id="MUEsxCSNqhhH"><path fill="none" stroke="none" d="M 58.5 51.5 L 1336.5 51.5 L 1336.5 630.5 L 58.5 630.5 L 58.5 51.5"/></clipPath><clipPath id="uPDsQzeoxiax"><path fill="none" stroke="none" d="M 58.5 51.5 L 1336.5 51.5 L 1336.5 630.5 L 58.5 630.5 L 58.5 51.5"/></clipPath><clipPath id="LrmzZUgZEcSk"><path fill="none" stroke="none" d="M 58.5 51.5 L 1336.5 51.5 L 1336.5 630.5 L 58.5 630.5 L 58.5 51.5"/></clipPath><clipPath id="eQkgmXdBTllX"><path fill="none" stroke="none" d="M 58.5 51.5 L 1336.5 51.5 L 1336.5 630.5 L 58.5 630.5 L 58.5 51.5"/></clipPath><clipPath id="wWFFPHZCIaea"><path fill="none" stroke="none" d="M 58.5 51.5 L 1336.5 51.5 L 1336.5 630.5 L 58.5 630.5 L 58.5 51.5"/></clipPath><clipPath id="QwAMiqHMPTgr"><path fill="none" stroke="none" d="M 58.5 51.5 L 1336.5 51.5 L 1336.5 630.5 L 58.5 630.5 L 58.5 51.5"/></clipPath><clipPath id="aGiFSfEadJAA"><path fill="none" stroke="none" d="M 58.5 51.5 L 1336.5 51.5 L 1336.5 630.5 L 58.5 630.5 L 58.5 51.5"/></clipPath><clipPath id="KyDTenkxTfTa"><path fill="none" stroke="none" d="M 58.5 51.5 L 1336.5 51.5 L 1336.5 630.5 L 58.5 630.5 L 58.5 51.5"/></clipPath><clipPath id="tyGMrMSiRBvL"><path fill="none" stroke="none" d="M 58.5 51.5 L 1336.5 51.5 L 1336.5 630.5 L 58.5 630.5 L 58.5 51.5"/></clipPath><clipPath id="BAVcyRMnOfZa"><path fill="none" stroke="none" d="M 58.5 51.5 L 1336.5 51.5 L 1336.5 630.5 L 58.5 630.5 L 58.5 51.5"/></clipPath></defs><path fill="rgb(255,255,255)" stroke="none" paint-order="stroke" d="M 0.5 0.5 L 1366.5 0.5 L 1366.5 683.5 L 0.5 683.5 L 0.5 0.5" fill-opacity="1"/><rect fill="#FFFFFF" stroke="none" x="58" y="51" width="1278" height="579" transform="matrix(1, 0, 0, 1, 0.5, 0.5)"/><path fill="rgb(255,255,255)" stroke="none" paint-order="stroke" d="M 58.5 51.5 L 1336.5 51.5 L 1336.5 630.5 L 58.5 630.5 L 58.5 51.5" fill-opacity="1"/><path fill="none" stroke="rgb(229,229,229)" paint-order="fill" d="M 58.5 51.5 L 1336.5 51.5 L 1336.5 630.5 L 58.5 630.5 L 58.5 51.5" stroke-opacity="1" stroke-linejoin="bevel" stroke-miterlimit="10" stroke-dasharray=""/><path fill="none" stroke="rgb(229,229,229)" paint-order="fill" d="M 314.5 630.5 L 314.5 51.5 M 569.5 630.5 L 569.5 51.5 M 825.5 630.5 L 825.5 51.5 M 1080.5 630.5 L 1080.5 51.5" stroke-opacity="1" stroke-linejoin="bevel" stroke-miterlimit="10" stroke-dasharray="" clip-path="url(#xIwVvoClnrQo)"/><path fill="none" stroke="rgb(229,229,229)" paint-order="fill" d="M 58.5 551.5 L 1336.5 551.5 M 58.5 446.5 L 1336.5 446.5 M 58.5 341.5 L 1336.5 341.5 M 58.5 235.5 L 1336.5 235.5 M 58.5 130.5 L 1336.5 130.5" stroke-opacity="1" stroke-linejoin="bevel" stroke-miterlimit="10" stroke-dasharray="" clip-path="url(#viEFhSgTtTpZ)"/><path fill="rgb(0,255,40)" stroke="none" paint-order="stroke" d="M 58.5 77.81818389892578 L 114.44061660766602 77.81818389892578 L 114.44061660766602 130.45454788208008 L 58.5 130.45454788208008 L 58.5 77.81818389892578" fill-opacity="1" clip-path="url(#TdLvDIWQcsRt)"/><path fill="rgb(78,255,0)" stroke="none" paint-order="stroke" d="M 114.44061279296875 77.81818389892578 L 114.46106079220772 77.81818389892578 L 114.46106079220772 130.45454788208008 L 114.44061279296875 130.45454788208008 L 114.44061279296875 77.81818389892578" fill-opacity="1" clip-path="url(#TdLvDIWQcsRt)"/><path fill="rgb(129,255,0)" stroke="none" paint-order="stroke" d="M 114.46106719970703 77.81818389892578 L 114.48279319889843 77.81818389892578 L 114.48279319889843 130.45454788208008 L 114.46106719970703 130.45454788208008 L 114.46106719970703 77.81818389892578" fill-opacity="1" clip-path="url(#TdLvDIWQcsRt)"/><path fill="rgb(175,255,0)" stroke="none" paint-order="stroke" d="M 114.4827880859375 77.81818389892578 L 114.52496208623052 77.81818389892578 L 114.52496208623052 130.45454788208008 L 114.4827880859375 130.45454788208008 L 114.4827880859375 77.81818389892578" fill-opacity="1" clip-path="url(#TdLvDIWQcsRt)"/><path fill="rgb(188,255,0)" stroke="none" paint-order="stroke" d="M 114.52496337890625 77.81818389892578 L 114.54668937809765 77.81818389892578 L 114.54668937809765 130.45454788208008 L 114.52496337890625 130.45454788208008 L 114.52496337890625 77.81818389892578" fill-opacity="1" clip-path="url(#TdLvDIWQcsRt)"/><path fill="rgb(204,255,0)" stroke="none" paint-order="stroke" d="M 114.54669189453125 77.81818389892578 L 114.58886589482427 77.81818389892578 L 114.58886589482427 130.45454788208008 L 114.54669189453125 130.45454788208008 L 114.54669189453125 77.81818389892578" fill-opacity="1" clip-path="url(#TdLvDIWQcsRt)"/><path fill="rgb(216,255,0)" stroke="none" paint-order="stroke" d="M 114.5888671875 77.81818389892578 L 114.60931518673897 77.81818389892578 L 114.60931518673897 130.45454788208008 L 114.5888671875 130.45454788208008 L 114.5888671875 77.81818389892578" fill-opacity="1" clip-path="url(#TdLvDIWQcsRt)"/><path fill="rgb(231,255,0)" stroke="none" paint-order="stroke" d="M 114.60931396484375 77.81818389892578 L 114.65276596322656 77.81818389892578 L 114.65276596322656 130.45454788208008 L 114.60931396484375 130.45454788208008 L 114.60931396484375 77.81818389892578" fill-opacity="1" clip-path="url(#TdLvDIWQcsRt)"/><path fill="rgb(246,255,0)" stroke="none" paint-order="stroke" d="M 114.65276336669922 77.81818389892578 L 114.67448936589062 77.81818389892578 L 114.67448936589062 130.45454788208008 L 114.65276336669922 130.45454788208008 L 114.65276336669922 77.81818389892578" fill-opacity="1" clip-path="url(#TdLvDIWQcsRt)"/><path fill="rgb(255,235,0)" stroke="none" paint-order="stroke" d="M 114.67449188232422 77.81818389892578 L 114.69493988156319 77.81818389892578 L 114.69493988156319 130.45454788208008 L 114.67449188232422 130.45454788208008 L 114.67449188232422 77.81818389892578" fill-opacity="1" clip-path="url(#TdLvDIWQcsRt)"/><path fill="rgb(255,206,0)" stroke="none" paint-order="stroke" d="M 114.69493865966797 77.81818389892578 L 114.71666465885937 77.81818389892578 L 114.71666465885937 130.45454788208008 L 114.69493865966797 130.45454788208008 L 114.69493865966797 77.81818389892578" fill-opacity="1" clip-path="url(#TdLvDIWQcsRt)"/><path fill="rgb(255,190,0)" stroke="none" paint-order="stroke" d="M 114.71666717529297 77.81818389892578 L 114.8444671779871 77.81818389892578 L 114.8444671779871 130.45454788208008 L 114.71666717529297 130.45454788208008 L 114.71666717529297 77.81818389892578" fill-opacity="1" clip-path="url(#TdLvDIWQcsRt)"/><path fill="rgb(255,176,0)" stroke="none" paint-order="stroke" d="M 114.84446716308594 77.81818389892578 L 115.41956716775894 77.81818389892578 L 115.41956716775894 130.45454788208008 L 114.84446716308594 130.45454788208008 L 114.84446716308594 77.81818389892578" fill-opacity="1" clip-path="url(#TdLvDIWQcsRt)"/><path fill="rgb(255,190,0)" stroke="none" paint-order="stroke" d="M 115.41956329345703 77.81818389892578 L 115.44128929264843 77.81818389892578 L 115.44128929264843 130.45454788208008 L 115.41956329345703 130.45454788208008 L 115.41956329345703 77.81818389892578" fill-opacity="1" clip-path="url(#TdLvDIWQcsRt)"/><path fill="rgb(255,206,0)" stroke="none" paint-order="stroke" d="M 115.44129180908203 77.81818389892578 L 115.46301780827343 77.81818389892578 L 115.46301780827343 130.45454788208008 L 115.44129180908203 130.45454788208008 L 115.44129180908203 77.81818389892578" fill-opacity="1" clip-path="url(#TdLvDIWQcsRt)"/><path fill="rgb(255,223,0)" stroke="none" paint-order="stroke" d="M 115.4630126953125 77.81818389892578 L 115.48346069455147 77.81818389892578 L 115.48346069455147 130.45454788208008 L 115.4630126953125 130.45454788208008 L 115.4630126953125 77.81818389892578" fill-opacity="1" clip-path="url(#TdLvDIWQcsRt)"/><path fill="rgb(255,235,0)" stroke="none" paint-order="stroke" d="M 115.48346710205078 77.81818389892578 L 115.5256411023438 77.81818389892578 L 115.5256411023438 130.45454788208008 L 115.48346710205078 130.45454788208008 L 115.48346710205078 77.81818389892578" fill-opacity="1" clip-path="url(#TdLvDIWQcsRt)"/><path fill="rgb(255,251,0)" stroke="none" paint-order="stroke" d="M 115.525634765625 77.81818389892578 L 115.58953476697206 77.81818389892578 L 115.58953476697206 130.45454788208008 L 115.525634765625 130.45454788208008 L 115.525634765625 77.81818389892578" fill-opacity="1" clip-path="url(#TdLvDIWQcsRt)"/><path fill="rgb(231,255,0)" stroke="none" paint-order="stroke" d="M 115.58953857421875 77.81818389892578 L 115.61126457341015 77.81818389892578 L 115.61126457341015 130.45454788208008 L 115.58953857421875 130.45454788208008 L 115.58953857421875 77.81818389892578" fill-opacity="1" clip-path="url(#TdLvDIWQcsRt)"/><path fill="rgb(216,255,0)" stroke="none" paint-order="stroke" d="M 115.61126708984375 77.81818389892578 L 115.63299308903515 77.81818389892578 L 115.63299308903515 130.45454788208008 L 115.61126708984375 130.45454788208008 L 115.61126708984375 77.81818389892578" fill-opacity="1" clip-path="url(#TdLvDIWQcsRt)"/><path fill="rgb(204,255,0)" stroke="none" paint-order="stroke" d="M 115.63298797607422 77.81818389892578 L 115.74033997952938 77.81818389892578 L 115.74033997952938 130.45454788208008 L 115.63298797607422 130.45454788208008 L 115.63298797607422 77.81818389892578" fill-opacity="1" clip-path="url(#TdLvDIWQcsRt)"/><path fill="rgb(188,255,0)" stroke="none" paint-order="stroke" d="M 115.74034118652344 77.81818389892578 L 115.8042411878705 77.81818389892578 L 115.8042411878705 130.45454788208008 L 115.74034118652344 130.45454788208008 L 115.74034118652344 77.81818389892578" fill-opacity="1" clip-path="url(#TdLvDIWQcsRt)"/><path fill="rgb(175,255,0)" stroke="none" paint-order="stroke" d="M 115.80424499511719 77.81818389892578 L 116.18636700510979 77.81818389892578 L 116.18636700510979 130.45454788208008 L 115.80424499511719 130.45454788208008 L 115.80424499511719 77.81818389892578" fill-opacity="1" clip-path="url(#TdLvDIWQcsRt)"/><path fill="rgb(159,255,0)" stroke="none" paint-order="stroke" d="M 116.18636322021484 77.81818389892578 L 116.50458520650864 77.81818389892578 L 116.50458520650864 130.45454788208008 L 116.18636322021484 130.45454788208008 L 116.18636322021484 77.81818389892578" fill-opacity="1" clip-path="url(#TdLvDIWQcsRt)"/><path fill="rgb(143,255,0)" stroke="none" paint-order="stroke" d="M 116.50458526611328 77.81818389892578 L 117.56915926933289 77.81818389892578 L 117.56915926933289 130.45454788208008 L 116.50458526611328 130.45454788208008 L 116.50458526611328 77.81818389892578" fill-opacity="1" clip-path="url(#TdLvDIWQcsRt)"/><path fill="rgb(129,255,0)" stroke="none" paint-order="stroke" d="M 117.56916046142578 77.81818389892578 L 117.6547864601016 77.81818389892578 L 117.6547864601016 130.45454788208008 L 117.56916046142578 130.45454788208008 L 117.56916046142578 77.81818389892578" fill-opacity="1" clip-path="url(#TdLvDIWQcsRt)"/><path fill="rgb(111,255,0)" stroke="none" paint-order="stroke" d="M 117.65478515625 77.81818389892578 L 117.80431115627289 77.81818389892578 L 117.80431115627289 130.45454788208008 L 117.65478515625 130.45454788208008 L 117.65478515625 77.81818389892578" fill-opacity="1" clip-path="url(#TdLvDIWQcsRt)"/><path fill="rgb(97,255,0)" stroke="none" paint-order="stroke" d="M 117.80431365966797 77.81818389892578 L 117.84648765996099 77.81818389892578 L 117.84648765996099 130.45454788208008 L 117.80431365966797 130.45454788208008 L 117.80431365966797 77.81818389892578" fill-opacity="1" clip-path="url(#TdLvDIWQcsRt)"/><path fill="rgb(78,255,0)" stroke="none" paint-order="stroke" d="M 117.84648895263672 77.81818389892578 L 118.84716296195984 77.81818389892578 L 118.84716296195984 130.45454788208008 L 117.84648895263672 130.45454788208008 L 117.84648895263672 77.81818389892578" fill-opacity="1" clip-path="url(#TdLvDIWQcsRt)"/><path fill="rgb(58,255,0)" stroke="none" paint-order="stroke" d="M 118.84716033935547 77.81818389892578 L 118.91106034070253 77.81818389892578 L 118.91106034070253 130.45454788208008 L 118.84716033935547 130.45454788208008 L 118.84716033935547 77.81818389892578" fill-opacity="1" clip-path="url(#TdLvDIWQcsRt)"/><path fill="rgb(40,255,0)" stroke="none" paint-order="stroke" d="M 118.91105651855469 77.81818389892578 L 122.61470055580139 77.81818389892578 L 122.61470055580139 130.45454788208008 L 118.91105651855469 130.45454788208008 L 118.91105651855469 77.81818389892578" fill-opacity="1" clip-path="url(#TdLvDIWQcsRt)"/><path fill="rgb(58,255,0)" stroke="none" paint-order="stroke" d="M 122.61470031738281 77.81818389892578 L 122.70032631605864 77.81818389892578 L 122.70032631605864 130.45454788208008 L 122.61470031738281 130.45454788208008 L 122.61470031738281 77.81818389892578" fill-opacity="1" clip-path="url(#TdLvDIWQcsRt)"/><path fill="rgb(78,255,0)" stroke="none" paint-order="stroke" d="M 122.70033264160156 77.81818389892578 L 122.84858064353466 77.81818389892578 L 122.84858064353466 130.45454788208008 L 122.70033264160156 130.45454788208008 L 122.70033264160156 77.81818389892578" fill-opacity="1" clip-path="url(#TdLvDIWQcsRt)"/><path fill="rgb(97,255,0)" stroke="none" paint-order="stroke" d="M 122.84857940673828 77.81818389892578 L 126.2135534286499 77.81818389892578 L 126.2135534286499 130.45454788208008 L 122.84857940673828 130.45454788208008 L 122.84857940673828 77.81818389892578" fill-opacity="1" clip-path="url(#TdLvDIWQcsRt)"/><path fill="rgb(78,255,0)" stroke="none" paint-order="stroke" d="M 126.21355438232422 77.81818389892578 L 126.38352838158607 77.81818389892578 L 126.38352838158607 130.45454788208008 L 126.21355438232422 130.45454788208008 L 126.21355438232422 77.81818389892578" fill-opacity="1" clip-path="url(#TdLvDIWQcsRt)"/><path fill="rgb(58,255,0)" stroke="none" paint-order="stroke" d="M 126.38352966308594 77.81818389892578 L 126.48960366100073 77.81818389892578 L 126.48960366100073 130.45454788208008 L 126.38352966308594 130.45454788208008 L 126.38352966308594 77.81818389892578" fill-opacity="1" clip-path="url(#TdLvDIWQcsRt)"/><path fill="rgb(40,255,0)" stroke="none" paint-order="stroke" d="M 126.4896011352539 77.81818389892578 L 127.51200115680695 77.81818389892578 L 127.51200115680695 130.45454788208008 L 126.4896011352539 130.45454788208008 L 126.4896011352539 77.81818389892578" fill-opacity="1" clip-path="url(#TdLvDIWQcsRt)"/><path fill="rgb(58,255,0)" stroke="none" paint-order="stroke" d="M 127.51200103759766 77.81818389892578 L 127.55545303598046 77.81818389892578 L 127.55545303598046 130.45454788208008 L 127.51200103759766 130.45454788208008 L 127.51200103759766 77.81818389892578" fill-opacity="1" clip-path="url(#TdLvDIWQcsRt)"/><path fill="rgb(78,255,0)" stroke="none" paint-order="stroke" d="M 127.55545043945312 77.81818389892578 L 127.6180724427104 77.81818389892578 L 127.6180724427104 130.45454788208008 L 127.55545043945312 130.45454788208008 L 127.55545043945312 77.81818389892578" fill-opacity="1" clip-path="url(#TdLvDIWQcsRt)"/><path fill="rgb(97,255,0)" stroke="none" paint-order="stroke" d="M 127.61807250976562 77.81818389892578 L 127.68325050920248 77.81818389892578 L 127.68325050920248 130.45454788208008 L 127.61807250976562 130.45454788208008 L 127.61807250976562 77.81818389892578" fill-opacity="1" clip-path="url(#TdLvDIWQcsRt)"/><path fill="rgb(111,255,0)" stroke="none" paint-order="stroke" d="M 127.6832504272461 77.81818389892578 L 128.32097244262695 77.81818389892578 L 128.32097244262695 130.45454788208008 L 127.6832504272461 130.45454788208008 L 127.6832504272461 77.81818389892578" fill-opacity="1" clip-path="url(#TdLvDIWQcsRt)"/><path fill="rgb(97,255,0)" stroke="none" paint-order="stroke" d="M 128.32097625732422 77.81818389892578 L 128.36442825570703 77.81818389892578 L 128.36442825570703 130.45454788208008 L 128.32097625732422 130.45454788208008 L 128.32097625732422 77.81818389892578" fill-opacity="1" clip-path="url(#TdLvDIWQcsRt)"/><path fill="rgb(78,255,0)" stroke="none" paint-order="stroke" d="M 128.3644256591797 77.81818389892578 L 128.4692216590047 77.81818389892578 L 128.4692216590047 130.45454788208008 L 128.3644256591797 130.45454788208008 L 128.3644256591797 77.81818389892578" fill-opacity="1" clip-path="url(#TdLvDIWQcsRt)"/><path fill="rgb(58,255,0)" stroke="none" paint-order="stroke" d="M 128.46922302246094 77.81818389892578 L 128.55484902113676 77.81818389892578 L 128.55484902113676 130.45454788208008 L 128.46922302246094 130.45454788208008 L 128.46922302246094 77.81818389892578" fill-opacity="1" clip-path="url(#TdLvDIWQcsRt)"/><path fill="rgb(40,255,0)" stroke="none" paint-order="stroke" d="M 128.5548553466797 77.81818389892578 L 128.5983073450625 77.81818389892578 L 128.5983073450625 130.45454788208008 L 128.5548553466797 130.45454788208008 L 128.5548553466797 77.81818389892578" fill-opacity="1" clip-path="url(#TdLvDIWQcsRt)"/><path fill="rgb(14,255,0)" stroke="none" paint-order="stroke" d="M 128.59829711914062 77.81818389892578 L 132.54220509529114 77.81818389892578 L 132.54220509529114 130.45454788208008 L 128.59829711914062 130.45454788208008 L 128.59829711914062 77.81818389892578" fill-opacity="1" clip-path="url(#TdLvDIWQcsRt)"/><path fill="rgb(20,255,0)" stroke="none" paint-order="stroke" d="M 132.54220581054688 77.81818389892578 L 133.18376183509827 77.81818389892578 L 133.18376183509827 130.45454788208008 L 132.54220581054688 130.45454788208008 L 132.54220581054688 77.81818389892578" fill-opacity="1" clip-path="url(#TdLvDIWQcsRt)"/><path fill="rgb(25,255,0)" stroke="none" paint-order="stroke" d="M 133.1837615966797 77.81818389892578 L 133.40357759594917 77.81818389892578 L 133.40357759594917 130.45454788208008 L 133.1837615966797 130.45454788208008 L 133.1837615966797 77.81818389892578" fill-opacity="1" clip-path="url(#TdLvDIWQcsRt)"/><path fill="rgb(30,255,0)" stroke="none" paint-order="stroke" d="M 133.40357971191406 77.81818389892578 L 133.68346172571182 77.81818389892578 L 133.68346172571182 130.45454788208008 L 133.40357971191406 130.45454788208008 L 133.40357971191406 77.81818389892578" fill-opacity="1" clip-path="url(#TdLvDIWQcsRt)"/><path fill="rgb(35,255,0)" stroke="none" paint-order="stroke" d="M 133.68345642089844 77.81818389892578 L 134.19465643167496 77.81818389892578 L 134.19465643167496 130.45454788208008 L 133.68345642089844 130.45454788208008 L 133.68345642089844 77.81818389892578" fill-opacity="1" clip-path="url(#TdLvDIWQcsRt)"/><path fill="rgb(40,255,0)" stroke="none" paint-order="stroke" d="M 134.1946563720703 77.81818389892578 L 134.47709438204765 77.81818389892578 L 134.47709438204765 130.45454788208008 L 134.1946563720703 130.45454788208008 L 134.1946563720703 77.81818389892578" fill-opacity="1" clip-path="url(#TdLvDIWQcsRt)"/><path fill="rgb(44,255,0)" stroke="none" paint-order="stroke" d="M 134.4770965576172 77.81818389892578 L 134.86049655079842 77.81818389892578 L 134.86049655079842 130.45454788208008 L 134.4770965576172 130.45454788208008 L 134.4770965576172 77.81818389892578" fill-opacity="1" clip-path="url(#TdLvDIWQcsRt)"/><path fill="rgb(49,255,0)" stroke="none" paint-order="stroke" d="M 134.86050415039062 77.81818389892578 L 135.2579621374607 77.81818389892578 L 135.2579621374607 130.45454788208008 L 134.86050415039062 130.45454788208008 L 134.86050415039062 77.81818389892578" fill-opacity="1" clip-path="url(#TdLvDIWQcsRt)"/><path fill="rgb(53,255,0)" stroke="none" paint-order="stroke" d="M 135.25796508789062 77.81818389892578 L 135.85351306200027 77.81818389892578 L 135.85351306200027 130.45454788208008 L 135.25796508789062 130.45454788208008 L 135.25796508789062 77.81818389892578" fill-opacity="1" clip-path="url(#TdLvDIWQcsRt)"/><path fill="rgb(58,255,0)" stroke="none" paint-order="stroke" d="M 135.85350036621094 77.81818389892578 L 138.73283433914185 77.81818389892578 L 138.73283433914185 130.45454788208008 L 135.85350036621094 130.45454788208008 L 135.85350036621094 77.81818389892578" fill-opacity="1" clip-path="url(#TdLvDIWQcsRt)"/><path fill="rgb(53,255,0)" stroke="none" paint-order="stroke" d="M 138.7328338623047 77.81818389892578 L 145.78100395202637 77.81818389892578 L 145.78100395202637 130.45454788208008 L 138.7328338623047 130.45454788208008 L 138.7328338623047 77.81818389892578" fill-opacity="1" clip-path="url(#TdLvDIWQcsRt)"/><path fill="rgb(0,255,40)" stroke="none" paint-order="stroke" d="M 145.781005859375 77.81818389892578 L 149.87188386917114 77.81818389892578 L 149.87188386917114 130.45454788208008 L 145.781005859375 130.45454788208008 L 145.781005859375 77.81818389892578" fill-opacity="1" clip-path="url(#TdLvDIWQcsRt)"/><path fill="rgb(0,255,23)" stroke="none" paint-order="stroke" d="M 149.87188720703125 77.81818389892578 L 150.06230920553207 77.81818389892578 L 150.06230920553207 130.45454788208008 L 149.87188720703125 130.45454788208008 L 149.87188720703125 77.81818389892578" fill-opacity="1" clip-path="url(#TdLvDIWQcsRt)"/><path fill="rgb(0,255,0)" stroke="none" paint-order="stroke" d="M 150.06231689453125 77.81818389892578 L 150.28213289380074 77.81818389892578 L 150.28213289380074 130.45454788208008 L 150.06231689453125 130.45454788208008 L 150.06231689453125 77.81818389892578" fill-opacity="1" clip-path="url(#TdLvDIWQcsRt)"/><path fill="rgb(8,255,0)" stroke="none" paint-order="stroke" d="M 150.28211975097656 77.81818389892578 L 150.50193575024605 77.81818389892578 L 150.50193575024605 130.45454788208008 L 150.28211975097656 130.45454788208008 L 150.28211975097656 77.81818389892578" fill-opacity="1" clip-path="url(#TdLvDIWQcsRt)"/><path fill="rgb(14,255,0)" stroke="none" paint-order="stroke" d="M 150.50193786621094 77.81818389892578 L 150.71025186777115 77.81818389892578 L 150.71025186777115 130.45454788208008 L 150.50193786621094 130.45454788208008 L 150.50193786621094 77.81818389892578" fill-opacity="1" clip-path="url(#TdLvDIWQcsRt)"/><path fill="rgb(20,255,0)" stroke="none" paint-order="stroke" d="M 150.7102508544922 77.81818389892578 L 150.9108968526125 77.81818389892578 L 150.9108968526125 130.45454788208008 L 150.7102508544922 130.45454788208008 L 150.7102508544922 77.81818389892578" fill-opacity="1" clip-path="url(#TdLvDIWQcsRt)"/><path fill="rgb(25,255,0)" stroke="none" paint-order="stroke" d="M 150.91090393066406 77.81818389892578 L 151.13966593146324 77.81818389892578 L 151.13966593146324 130.45454788208008 L 150.91090393066406 130.45454788208008 L 150.91090393066406 77.81818389892578" fill-opacity="1" clip-path="url(#TdLvDIWQcsRt)"/><path fill="rgb(30,255,0)" stroke="none" paint-order="stroke" d="M 151.13966369628906 77.81818389892578 L 151.41698968410492 77.81818389892578 L 151.41698968410492 130.45454788208008 L 151.13966369628906 130.45454788208008 L 151.13966369628906 77.81818389892578" fill-opacity="1" clip-path="url(#TdLvDIWQcsRt)"/><path fill="rgb(35,255,0)" stroke="none" paint-order="stroke" d="M 151.4169921875 77.81818389892578 L 151.77738818526268 77.81818389892578 L 151.77738818526268 130.45454788208008 L 151.4169921875 130.45454788208008 L 151.4169921875 77.81818389892578" fill-opacity="1" clip-path="url(#TdLvDIWQcsRt)"/><path fill="rgb(40,255,0)" stroke="none" paint-order="stroke" d="M 151.7773895263672 77.81818389892578 L 152.0623835325241 77.81818389892578 L 152.0623835325241 130.45454788208008 L 151.7773895263672 130.45454788208008 L 151.7773895263672 77.81818389892578" fill-opacity="1" clip-path="url(#TdLvDIWQcsRt)"/><path fill="rgb(44,255,0)" stroke="none" paint-order="stroke" d="M 152.0623779296875 77.81818389892578 L 152.49561992287636 77.81818389892578 L 152.49561992287636 130.45454788208008 L 152.0623779296875 130.45454788208008 L 152.0623779296875 77.81818389892578" fill-opacity="1" clip-path="url(#TdLvDIWQcsRt)"/><path fill="rgb(49,255,0)" stroke="none" paint-order="stroke" d="M 152.49562072753906 77.81818389892578 L 152.78572672605515 77.81818389892578 L 152.78572672605515 130.45454788208008 L 152.49562072753906 130.45454788208008 L 152.49562072753906 77.81818389892578" fill-opacity="1" clip-path="url(#TdLvDIWQcsRt)"/><path fill="rgb(53,255,0)" stroke="none" paint-order="stroke" d="M 152.7857208251953 77.81818389892578 L 314.16517639160156 77.81818389892578 L 314.16517639160156 130.45454788208008 L 152.7857208251953 130.45454788208008 L 152.7857208251953 77.81818389892578" fill-opacity="1" clip-path="url(#TdLvDIWQcsRt)"/><path fill="rgb(0,255,23)" stroke="none" paint-order="stroke" d="M 314.1651916503906 77.81818389892578 L 314.1856396496296 77.81818389892578 L 314.1856396496296 130.45454788208008 L 314.1651916503906 130.45454788208008 L 314.1651916503906 77.81818389892578" fill-opacity="1" clip-path="url(#TdLvDIWQcsRt)"/><path fill="rgb(0,255,97)" stroke="none" paint-order="stroke" d="M 314.1856384277344 77.81818389892578 L 314.20608642697334 77.81818389892578 L 314.20608642697334 130.45454788208008 L 314.1856384277344 130.45454788208008 L 314.1856384277344 77.81818389892578" fill-opacity="1" clip-path="url(#TdLvDIWQcsRt)"/><path fill="rgb(0,238,255)" stroke="none" paint-order="stroke" d="M 314.2060852050781 77.81818389892578 L 314.2278112042695 77.81818389892578 L 314.2278112042695 130.45454788208008 L 314.2060852050781 130.45454788208008 L 314.2060852050781 77.81818389892578" fill-opacity="1" clip-path="url(#TdLvDIWQcsRt)"/><path fill="rgb(0,217,255)" stroke="none" paint-order="stroke" d="M 314.2278137207031 77.81818389892578 L 314.2495397198945 77.81818389892578 L 314.2495397198945 130.45454788208008 L 314.2278137207031 130.45454788208008 L 314.2278137207031 77.81818389892578" fill-opacity="1" clip-path="url(#TdLvDIWQcsRt)"/><path fill="rgb(0,178,255)" stroke="none" paint-order="stroke" d="M 314.24951171875 77.81818389892578 L 314.26995971798897 77.81818389892578 L 314.26995971798897 130.45454788208008 L 314.24951171875 130.45454788208008 L 314.24951171875 77.81818389892578" fill-opacity="1" clip-path="url(#TdLvDIWQcsRt)"/><path fill="rgb(0,155,255)" stroke="none" paint-order="stroke" d="M 314.2699890136719 77.81818389892578 L 314.2917150128633 77.81818389892578 L 314.2917150128633 130.45454788208008 L 314.2699890136719 130.45454788208008 L 314.2699890136719 77.81818389892578" fill-opacity="1" clip-path="url(#TdLvDIWQcsRt)"/><path fill="rgb(0,137,255)" stroke="none" paint-order="stroke" d="M 314.29168701171875 77.81818389892578 L 314.33386101201177 77.81818389892578 L 314.33386101201177 130.45454788208008 L 314.29168701171875 130.45454788208008 L 314.29168701171875 77.81818389892578" fill-opacity="1" clip-path="url(#TdLvDIWQcsRt)"/><path fill="rgb(0,112,255)" stroke="none" paint-order="stroke" d="M 314.3338623046875 77.81818389892578 L 314.3773143030703 77.81818389892578 L 314.3773143030703 130.45454788208008 L 314.3338623046875 130.45454788208008 L 314.3338623046875 77.81818389892578" fill-opacity="1" clip-path="url(#TdLvDIWQcsRt)"/><path fill="rgb(0,92,255)" stroke="none" paint-order="stroke" d="M 314.3773193359375 77.81818389892578 L 314.4833933338523 77.81818389892578 L 314.4833933338523 130.45454788208008 L 314.3773193359375 130.45454788208008 L 314.3773193359375 77.81818389892578" fill-opacity="1" clip-path="url(#TdLvDIWQcsRt)"/><path fill="rgb(0,64,255)" stroke="none" paint-order="stroke" d="M 314.4833984375 77.81818389892578 L 314.82462444901466 77.81818389892578 L 314.82462444901466 130.45454788208008 L 314.4833984375 130.45454788208008 L 314.4833984375 77.81818389892578" fill-opacity="1" clip-path="url(#TdLvDIWQcsRt)"/><path fill="rgb(0,33,255)" stroke="none" paint-order="stroke" d="M 314.8246154785156 77.81818389892578 L 315.14411547780037 77.81818389892578 L 315.14411547780037 130.45454788208008 L 314.8246154785156 130.45454788208008 L 314.8246154785156 77.81818389892578" fill-opacity="1" clip-path="url(#TdLvDIWQcsRt)"/><path fill="rgb(0,0,255)" stroke="none" paint-order="stroke" d="M 315.1441345214844 77.81818389892578 L 315.1863085217774 77.81818389892578 L 315.1863085217774 130.45454788208008 L 315.1441345214844 130.45454788208008 L 315.1441345214844 77.81818389892578" fill-opacity="1" clip-path="url(#TdLvDIWQcsRt)"/><path fill="rgb(33,0,243)" stroke="none" paint-order="stroke" d="M 315.1863098144531 77.81818389892578 L 315.2923838123679 77.81818389892578 L 315.2923838123679 130.45454788208008 L 315.1863098144531 130.45454788208008 L 315.1863098144531 77.81818389892578" fill-opacity="1" clip-path="url(#TdLvDIWQcsRt)"/><path fill="rgb(51,0,233)" stroke="none" paint-order="stroke" d="M 315.2923889160156 77.81818389892578 L 315.33584091439843 77.81818389892578 L 315.33584091439843 130.45454788208008 L 315.2923889160156 130.45454788208008 L 315.2923889160156 77.81818389892578" fill-opacity="1" clip-path="url(#TdLvDIWQcsRt)"/><path fill="rgb(69,0,221)" stroke="none" paint-order="stroke" d="M 315.3358154296875 77.81818389892578 L 315.3779894299805 77.81818389892578 L 315.3779894299805 130.45454788208008 L 315.3358154296875 130.45454788208008 L 315.3358154296875 77.81818389892578" fill-opacity="1" clip-path="url(#TdLvDIWQcsRt)"/><path fill="rgb(83,0,208)" stroke="none" paint-order="stroke" d="M 315.37799072265625 77.81818389892578 L 315.42016472294927 77.81818389892578 L 315.42016472294927 130.45454788208008 L 315.37799072265625 130.45454788208008 L 315.37799072265625 77.81818389892578" fill-opacity="1" clip-path="url(#TdLvDIWQcsRt)"/><path fill="rgb(92,0,198)" stroke="none" paint-order="stroke" d="M 315.420166015625 77.81818389892578 L 316.0591660141945 77.81818389892578 L 316.0591660141945 130.45454788208008 L 315.420166015625 130.45454788208008 L 315.420166015625 77.81818389892578" fill-opacity="1" clip-path="url(#TdLvDIWQcsRt)"/><path fill="rgb(101,0,185)" stroke="none" paint-order="stroke" d="M 316.0591735839844 77.81818389892578 L 316.12307358533144 77.81818389892578 L 316.12307358533144 130.45454788208008 L 316.0591735839844 130.45454788208008 L 316.0591735839844 77.81818389892578" fill-opacity="1" clip-path="url(#TdLvDIWQcsRt)"/><path fill="rgb(106,0,175)" stroke="none" paint-order="stroke" d="M 316.1230773925781 77.81818389892578 L 316.16652939096093 77.81818389892578 L 316.16652939096093 130.45454788208008 L 316.1230773925781 130.45454788208008 L 316.1230773925781 77.81818389892578" fill-opacity="1" clip-path="url(#TdLvDIWQcsRt)"/><path fill="rgb(110,0,162)" stroke="none" paint-order="stroke" d="M 316.1665344238281 77.81818389892578 L 316.20870842412114 77.81818389892578 L 316.20870842412114 130.45454788208008 L 316.1665344238281 130.45454788208008 L 316.1665344238281 77.81818389892578" fill-opacity="1" clip-path="url(#TdLvDIWQcsRt)"/><path fill="rgb(111,0,148)" stroke="none" paint-order="stroke" d="M 316.2087097167969 77.81818389892578 L 316.2930577173829 77.81818389892578 L 316.2930577173829 130.45454788208008 L 316.2087097167969 130.45454788208008 L 316.2087097167969 77.81818389892578" fill-opacity="1" clip-path="url(#TdLvDIWQcsRt)"/><path fill="rgb(111,0,137)" stroke="none" paint-order="stroke" d="M 316.2930603027344 77.81818389892578 L 316.35696030408144 77.81818389892578 L 316.35696030408144 130.45454788208008 L 316.2930603027344 130.45454788208008 L 316.2930603027344 77.81818389892578" fill-opacity="1" clip-path="url(#TdLvDIWQcsRt)"/><path fill="rgb(108,0,123)" stroke="none" paint-order="stroke" d="M 316.35693359375 77.81818389892578 L 316.4463935941458 77.81818389892578 L 316.4463935941458 130.45454788208008 L 316.35693359375 130.45454788208008 L 316.35693359375 77.81818389892578" fill-opacity="1" clip-path="url(#TdLvDIWQcsRt)"/><path fill="rgb(104,0,112)" stroke="none" paint-order="stroke" d="M 316.4464111328125 77.81818389892578 L 316.48475113138556 77.81818389892578 L 316.48475113138556 130.45454788208008 L 316.4464111328125 130.45454788208008 L 316.4464111328125 77.81818389892578" fill-opacity="1" clip-path="url(#TdLvDIWQcsRt)"/><path fill="rgb(97,0,97)" stroke="none" paint-order="stroke" d="M 316.4847412109375 77.81818389892578 L 323.256863117218 77.81818389892578 L 323.256863117218 130.45454788208008 L 316.4847412109375 130.45454788208008 L 316.4847412109375 77.81818389892578" fill-opacity="1" clip-path="url(#TdLvDIWQcsRt)"/><path fill="rgb(0,86,255)" stroke="none" paint-order="stroke" d="M 323.2568664550781 77.81818389892578 L 323.27603645436466 77.81818389892578 L 323.27603645436466 130.45454788208008 L 323.2568664550781 130.45454788208008 L 323.2568664550781 77.81818389892578" fill-opacity="1" clip-path="url(#TdLvDIWQcsRt)"/><path fill="rgb(62,255,0)" stroke="none" paint-order="stroke" d="M 323.2760314941406 77.81818389892578 L 323.297757493332 77.81818389892578 L 323.297757493332 130.45454788208008 L 323.2760314941406 130.45454788208008 L 323.2760314941406 77.81818389892578" fill-opacity="1" clip-path="url(#TdLvDIWQcsRt)"/><path fill="rgb(234,255,0)" stroke="none" paint-order="stroke" d="M 323.2977600097656 77.81818389892578 L 323.319486008957 77.81818389892578 L 323.319486008957 130.45454788208008 L 323.2977600097656 130.45454788208008 L 323.2977600097656 77.81818389892578" fill-opacity="1" clip-path="url(#TdLvDIWQcsRt)"/><path fill="rgb(252,0,0)" stroke="none" paint-order="stroke" d="M 323.3194885253906 77.81818389892578 L 323.3399365246296 77.81818389892578 L 323.3399365246296 130.45454788208008 L 323.3194885253906 130.45454788208008 L 323.3194885253906 77.81818389892578" fill-opacity="1" clip-path="url(#TdLvDIWQcsRt)"/><path fill="rgb(187,0,0)" stroke="none" paint-order="stroke" d="M 323.3399353027344 77.81818389892578 L 323.3616613019258 77.81818389892578 L 323.3616613019258 130.45454788208008 L 323.3399353027344 130.45454788208008 L 323.3399353027344 77.81818389892578" fill-opacity="1" clip-path="url(#TdLvDIWQcsRt)"/><path fill="rgb(138,0,0)" stroke="none" paint-order="stroke" d="M 323.3616638183594 77.81818389892578 L 323.3833898175508 77.81818389892578 L 323.3833898175508 130.45454788208008 L 323.3616638183594 130.45454788208008 L 323.3616638183594 77.81818389892578" fill-opacity="1" clip-path="url(#TdLvDIWQcsRt)"/><path fill="rgb(0,0,0)" stroke="none" paint-order="stroke" d="M 323.3833923339844 77.81818389892578 L 323.40384033322334 77.81818389892578 L 323.40384033322334 130.45454788208008 L 323.3833923339844 130.45454788208008 L 323.3833923339844 77.81818389892578" fill-opacity="1" clip-path="url(#TdLvDIWQcsRt)"/><path fill="rgb(0,0,0)" stroke="none" paint-order="stroke" d="M 323.4038391113281 77.81818389892578 L 324.1067391037941 77.81818389892578 L 324.1067391037941 130.45454788208008 L 323.4038391113281 130.45454788208008 L 323.4038391113281 77.81818389892578" fill-opacity="1" clip-path="url(#TdLvDIWQcsRt)"/><path fill="rgb(160,0,0)" stroke="none" paint-order="stroke" d="M 324.10675048828125 77.81818389892578 L 324.12847648747265 77.81818389892578 L 324.12847648747265 130.45454788208008 L 324.10675048828125 130.45454788208008 L 324.10675048828125 77.81818389892578" fill-opacity="1" clip-path="url(#TdLvDIWQcsRt)"/><path fill="rgb(255,186,0)" stroke="none" paint-order="stroke" d="M 324.12847900390625 77.81818389892578 L 324.1489270031452 77.81818389892578 L 324.1489270031452 130.45454788208008 L 324.12847900390625 130.45454788208008 L 324.12847900390625 77.81818389892578" fill-opacity="1" clip-path="url(#TdLvDIWQcsRt)"/><path fill="rgb(0,132,255)" stroke="none" paint-order="stroke" d="M 324.14892578125 77.81818389892578 L 324.1706517804414 77.81818389892578 L 324.1706517804414 130.45454788208008 L 324.14892578125 130.45454788208008 L 324.14892578125 77.81818389892578" fill-opacity="1" clip-path="url(#TdLvDIWQcsRt)"/><path fill="rgb(101,0,185)" stroke="none" paint-order="stroke" d="M 324.170654296875 77.81818389892578 L 324.1923802960664 77.81818389892578 L 324.1923802960664 130.45454788208008 L 324.170654296875 130.45454788208008 L 324.170654296875 77.81818389892578" fill-opacity="1" clip-path="url(#TdLvDIWQcsRt)"/><path fill="rgb(97,0,97)" stroke="none" paint-order="stroke" d="M 324.1923522949219 77.81818389892578 L 326.4071261882782 77.81818389892578 L 326.4071261882782 130.45454788208008 L 324.1923522949219 130.45454788208008 L 324.1923522949219 77.81818389892578" fill-opacity="1" clip-path="url(#TdLvDIWQcsRt)"/><path fill="rgb(103,0,109)" stroke="none" paint-order="stroke" d="M 326.4071350097656 77.81818389892578 L 326.4275830090046 77.81818389892578 L 326.4275830090046 130.45454788208008 L 326.4071350097656 130.45454788208008 L 326.4071350097656 77.81818389892578" fill-opacity="1" clip-path="url(#TdLvDIWQcsRt)"/><path fill="rgb(111,0,135)" stroke="none" paint-order="stroke" d="M 326.4275817871094 77.81818389892578 L 326.4493077863008 77.81818389892578 L 326.4493077863008 130.45454788208008 L 326.4275817871094 130.45454788208008 L 326.4275817871094 77.81818389892578" fill-opacity="1" clip-path="url(#TdLvDIWQcsRt)"/><path fill="rgb(110,0,162)" stroke="none" paint-order="stroke" d="M 326.4493103027344 77.81818389892578 L 326.46975830197334 77.81818389892578 L 326.46975830197334 130.45454788208008 L 326.4493103027344 130.45454788208008 L 326.4493103027344 77.81818389892578" fill-opacity="1" clip-path="url(#TdLvDIWQcsRt)"/><path fill="rgb(107,0,172)" stroke="none" paint-order="stroke" d="M 326.4697570800781 77.81818389892578 L 326.4914830792695 77.81818389892578 L 326.4914830792695 130.45454788208008 L 326.4697570800781 130.45454788208008 L 326.4697570800781 77.81818389892578" fill-opacity="1" clip-path="url(#TdLvDIWQcsRt)"/><path fill="rgb(101,0,185)" stroke="none" paint-order="stroke" d="M 326.4914855957031 77.81818389892578 L 326.5132115948945 77.81818389892578 L 326.5132115948945 130.45454788208008 L 326.4914855957031 130.45454788208008 L 326.4914855957031 77.81818389892578" fill-opacity="1" clip-path="url(#TdLvDIWQcsRt)"/><path fill="rgb(94,0,196)" stroke="none" paint-order="stroke" d="M 326.5132141113281 77.81818389892578 L 326.5336621105671 77.81818389892578 L 326.5336621105671 130.45454788208008 L 326.5132141113281 130.45454788208008 L 326.5132141113281 77.81818389892578" fill-opacity="1" clip-path="url(#TdLvDIWQcsRt)"/><path fill="rgb(69,0,221)" stroke="none" paint-order="stroke" d="M 326.5336608886719 77.81818389892578 L 326.5553868878633 77.81818389892578 L 326.5553868878633 130.45454788208008 L 326.5336608886719 130.45454788208008 L 326.5336608886719 77.81818389892578" fill-opacity="1" clip-path="url(#TdLvDIWQcsRt)"/><path fill="rgb(9,0,252)" stroke="none" paint-order="stroke" d="M 326.5553894042969 77.81818389892578 L 326.5771154034883 77.81818389892578 L 326.5771154034883 130.45454788208008 L 326.5553894042969 130.45454788208008 L 326.5553894042969 77.81818389892578" fill-opacity="1" clip-path="url(#TdLvDIWQcsRt)"/><path fill="rgb(0,33,255)" stroke="none" paint-order="stroke" d="M 326.5771179199219 77.81818389892578 L 326.59756591916084 77.81818389892578 L 326.59756591916084 130.45454788208008 L 326.5771179199219 130.45454788208008 L 326.5771179199219 77.81818389892578" fill-opacity="1" clip-path="url(#TdLvDIWQcsRt)"/><path fill="rgb(0,64,255)" stroke="none" paint-order="stroke" d="M 326.5975646972656 77.81818389892578 L 326.619290696457 77.81818389892578 L 326.619290696457 130.45454788208008 L 326.5975646972656 130.45454788208008 L 326.5975646972656 77.81818389892578" fill-opacity="1" clip-path="url(#TdLvDIWQcsRt)"/><path fill="rgb(0,112,255)" stroke="none" paint-order="stroke" d="M 326.6192932128906 77.81818389892578 L 326.641019212082 77.81818389892578 L 326.641019212082 130.45454788208008 L 326.6192932128906 130.45454788208008 L 326.6192932128906 77.81818389892578" fill-opacity="1" clip-path="url(#TdLvDIWQcsRt)"/><path fill="rgb(0,132,255)" stroke="none" paint-order="stroke" d="M 326.6410217285156 77.81818389892578 L 326.662747727707 77.81818389892578 L 326.662747727707 130.45454788208008 L 326.6410217285156 130.45454788208008 L 326.6410217285156 77.81818389892578" fill-opacity="1" clip-path="url(#TdLvDIWQcsRt)"/><path fill="rgb(0,178,255)" stroke="none" paint-order="stroke" d="M 326.6627502441406 77.81818389892578 L 326.6831982433796 77.81818389892578 L 326.6831982433796 130.45454788208008 L 326.6627502441406 130.45454788208008 L 326.6627502441406 77.81818389892578" fill-opacity="1" clip-path="url(#TdLvDIWQcsRt)"/><path fill="rgb(0,196,255)" stroke="none" paint-order="stroke" d="M 326.6831970214844 77.81818389892578 L 326.7049230206758 77.81818389892578 L 326.7049230206758 130.45454788208008 L 326.6831970214844 130.45454788208008 L 326.6831970214844 77.81818389892578" fill-opacity="1" clip-path="url(#TdLvDIWQcsRt)"/><path fill="rgb(0,234,255)" stroke="none" paint-order="stroke" d="M 326.7049255371094 77.81818389892578 L 326.72537353634834 77.81818389892578 L 326.72537353634834 130.45454788208008 L 326.7049255371094 130.45454788208008 L 326.7049255371094 77.81818389892578" fill-opacity="1" clip-path="url(#TdLvDIWQcsRt)"/><path fill="rgb(0,255,255)" stroke="none" paint-order="stroke" d="M 326.7253723144531 77.81818389892578 L 326.8314463123679 77.81818389892578 L 326.8314463123679 130.45454788208008 L 326.7253723144531 130.45454788208008 L 326.7253723144531 77.81818389892578" fill-opacity="1" clip-path="url(#TdLvDIWQcsRt)"/><path fill="rgb(0,255,202)" stroke="none" paint-order="stroke" d="M 326.8314208984375 77.81818389892578 L 326.8531468976289 77.81818389892578 L 326.8531468976289 130.45454788208008 L 326.8314208984375 130.45454788208008 L 326.8314208984375 77.81818389892578" fill-opacity="1" clip-path="url(#TdLvDIWQcsRt)"/><path fill="rgb(0,255,158)" stroke="none" paint-order="stroke" d="M 326.8531494140625 77.81818389892578 L 326.8966014124453 77.81818389892578 L 326.8966014124453 130.45454788208008 L 326.8531494140625 130.45454788208008 L 326.8531494140625 77.81818389892578" fill-opacity="1" clip-path="url(#TdLvDIWQcsRt)"/><path fill="rgb(0,255,97)" stroke="none" paint-order="stroke" d="M 326.8966064453125 77.81818389892578 L 326.91705444455147 77.81818389892578 L 326.91705444455147 130.45454788208008 L 326.8966064453125 130.45454788208008 L 326.8966064453125 77.81818389892578" fill-opacity="1" clip-path="url(#TdLvDIWQcsRt)"/><path fill="rgb(0,255,23)" stroke="none" paint-order="stroke" d="M 326.91705322265625 77.81818389892578 L 327.010347224772 77.81818389892578 L 327.010347224772 130.45454788208008 L 326.91705322265625 130.45454788208008 L 326.91705322265625 77.81818389892578" fill-opacity="1" clip-path="url(#TdLvDIWQcsRt)"/><path fill="rgb(20,255,0)" stroke="none" paint-order="stroke" d="M 327.0103454589844 77.81818389892578 L 327.0448514595628 77.81818389892578 L 327.0448514595628 130.45454788208008 L 327.0103454589844 130.45454788208008 L 327.0103454589844 77.81818389892578" fill-opacity="1" clip-path="url(#TdLvDIWQcsRt)"/><path fill="rgb(44,255,0)" stroke="none" paint-order="stroke" d="M 327.04486083984375 77.81818389892578 L 327.7899348139763 77.81818389892578 L 327.7899348139763 130.45454788208008 L 327.04486083984375 130.45454788208008 L 327.04486083984375 77.81818389892578" fill-opacity="1" clip-path="url(#TdLvDIWQcsRt)"/><path fill="rgb(62,255,0)" stroke="none" paint-order="stroke" d="M 327.7899475097656 77.81818389892578 L 327.83339950814843 77.81818389892578 L 327.83339950814843 130.45454788208008 L 327.7899475097656 130.45454788208008 L 327.7899475097656 77.81818389892578" fill-opacity="1" clip-path="url(#TdLvDIWQcsRt)"/><path fill="rgb(82,255,0)" stroke="none" paint-order="stroke" d="M 327.8333740234375 77.81818389892578 L 327.89727402478456 77.81818389892578 L 327.89727402478456 130.45454788208008 L 327.8333740234375 130.45454788208008 L 327.8333740234375 77.81818389892578" fill-opacity="1" clip-path="url(#TdLvDIWQcsRt)"/><path fill="rgb(101,255,0)" stroke="none" paint-order="stroke" d="M 327.89727783203125 77.81818389892578 L 329.9446337223053 77.81818389892578 L 329.9446337223053 130.45454788208008 L 327.89727783203125 130.45454788208008 L 327.89727783203125 77.81818389892578" fill-opacity="1" clip-path="url(#TdLvDIWQcsRt)"/><path fill="rgb(97,255,0)" stroke="none" paint-order="stroke" d="M 329.94464111328125 77.81818389892578 L 330.15551111102104 77.81818389892578 L 330.15551111102104 130.45454788208008 L 329.94464111328125 130.45454788208008 L 329.94464111328125 77.81818389892578" fill-opacity="1" clip-path="url(#TdLvDIWQcsRt)"/><path fill="rgb(93,255,0)" stroke="none" paint-order="stroke" d="M 330.155517578125 77.81818389892578 L 330.3638315796852 77.81818389892578 L 330.3638315796852 130.45454788208008 L 330.155517578125 130.45454788208008 L 330.155517578125 77.81818389892578" fill-opacity="1" clip-path="url(#TdLvDIWQcsRt)"/><path fill="rgb(89,255,0)" stroke="none" paint-order="stroke" d="M 330.36383056640625 77.81818389892578 L 330.57470056414604 77.81818389892578 L 330.57470056414604 130.45454788208008 L 330.36383056640625 130.45454788208008 L 330.36383056640625 77.81818389892578" fill-opacity="1" clip-path="url(#TdLvDIWQcsRt)"/><path fill="rgb(86,255,0)" stroke="none" paint-order="stroke" d="M 330.57470703125 77.81818389892578 L 330.7919670343399 77.81818389892578 L 330.7919670343399 130.45454788208008 L 330.57470703125 130.45454788208008 L 330.57470703125 77.81818389892578" fill-opacity="1" clip-path="url(#TdLvDIWQcsRt)"/><path fill="rgb(82,255,0)" stroke="none" paint-order="stroke" d="M 330.7919616699219 77.81818389892578 L 331.08462366461754 77.81818389892578 L 331.08462366461754 130.45454788208008 L 330.7919616699219 130.45454788208008 L 330.7919616699219 77.81818389892578" fill-opacity="1" clip-path="url(#TdLvDIWQcsRt)"/><path fill="rgb(78,255,0)" stroke="none" paint-order="stroke" d="M 331.0846252441406 77.81818389892578 L 331.561319231987 77.81818389892578 L 331.561319231987 130.45454788208008 L 331.0846252441406 130.45454788208008 L 331.0846252441406 77.81818389892578" fill-opacity="1" clip-path="url(#TdLvDIWQcsRt)"/><path fill="rgb(74,255,0)" stroke="none" paint-order="stroke" d="M 331.5613098144531 77.81818389892578 L 332.16835981607437 77.81818389892578 L 332.16835981607437 130.45454788208008 L 331.5613098144531 130.45454788208008 L 331.5613098144531 77.81818389892578" fill-opacity="1" clip-path="url(#TdLvDIWQcsRt)"/><path fill="rgb(70,255,0)" stroke="none" paint-order="stroke" d="M 332.1683654785156 77.81818389892578 L 332.4546374678612 77.81818389892578 L 332.4546374678612 130.45454788208008 L 332.1683654785156 130.45454788208008 L 332.1683654785156 77.81818389892578" fill-opacity="1" clip-path="url(#TdLvDIWQcsRt)"/><path fill="rgb(66,255,0)" stroke="none" paint-order="stroke" d="M 332.45465087890625 77.81818389892578 L 333.14860486984253 77.81818389892578 L 333.14860486984253 130.45454788208008 L 332.45465087890625 130.45454788208008 L 332.45465087890625 77.81818389892578" fill-opacity="1" clip-path="url(#TdLvDIWQcsRt)"/><path fill="rgb(62,255,0)" stroke="none" paint-order="stroke" d="M 333.1485900878906 77.81818389892578 L 333.6188941001892 77.81818389892578 L 333.6188941001892 130.45454788208008 L 333.1485900878906 130.45454788208008 L 333.1485900878906 77.81818389892578" fill-opacity="1" clip-path="url(#TdLvDIWQcsRt)"/><path fill="rgb(58,255,0)" stroke="none" paint-order="stroke" d="M 333.618896484375 77.81818389892578 L 334.15821248292923 77.81818389892578 L 334.15821248292923 130.45454788208008 L 333.618896484375 130.45454788208008 L 333.618896484375 77.81818389892578" fill-opacity="1" clip-path="url(#TdLvDIWQcsRt)"/><path fill="rgb(53,255,0)" stroke="none" paint-order="stroke" d="M 334.158203125 77.81818389892578 L 623.381103515625 77.81818389892578 L 623.381103515625 130.45454788208008 L 334.158203125 130.45454788208008 L 334.158203125 77.81818389892578" fill-opacity="1" clip-path="url(#TdLvDIWQcsRt)"/><path fill="rgb(251,0,7)" stroke="none" paint-order="stroke" d="M 58.5 130.4545440673828 L 623.381103515625 130.4545440673828 L 623.381103515625 183.0909080505371 L 58.5 183.0909080505371 L 58.5 130.4545440673828" fill-opacity="1" clip-path="url(#VPBypMbUfKox)"/><path fill="rgb(105,29,48)" stroke="none" paint-order="stroke" d="M 107.2761459350586 183.09091186523438 L 107.34004593640566 183.09091186523438 L 107.34004593640566 498.9090881347656 L 107.2761459350586 498.9090881347656 L 107.2761459350586 183.09091186523438" fill-opacity="1" clip-path="url(#RfOGvTpFxqQF)"/><path fill="rgb(105,29,48)" stroke="none" paint-order="stroke" d="M 108.23847961425781 183.09091186523438 L 108.30237961560488 183.09091186523438 L 108.30237961560488 498.9090881347656 L 108.23847961425781 498.9090881347656 L 108.23847961425781 183.09091186523438" fill-opacity="1" clip-path="url(#RfOGvTpFxqQF)"/><path fill="rgb(105,29,48)" stroke="none" paint-order="stroke" d="M 306.4639587402344 183.09091186523438 L 306.52785874158144 183.09091186523438 L 306.52785874158144 498.9090881347656 L 306.4639587402344 498.9090881347656 L 306.4639587402344 183.09091186523438" fill-opacity="1" clip-path="url(#RfOGvTpFxqQF)"/><path fill="rgb(255,188,66)" stroke="none" paint-order="stroke" d="M 154.8548126220703 183.09091186523438 L 159.0581545829773 183.09091186523438 L 159.0581545829773 498.9090881347656 L 154.8548126220703 498.9090881347656 L 154.8548126220703 183.09091186523438" fill-opacity="1" clip-path="url(#ASudtoSSeohF)"/><path fill="rgb(162,174,187)" stroke="none" paint-order="stroke" d="M 591.3787231445312 183.09091186523438 L 591.4426231458783 183.09091186523438 L 591.4426231458783 498.9090881347656 L 591.3787231445312 498.9090881347656 L 591.3787231445312 183.09091186523438" fill-opacity="1" clip-path="url(#VZvcthCDoRnL)"/><path fill="rgb(216,17,89)" stroke="none" paint-order="stroke" d="M 111.80538177490234 183.09091186523438 L 111.86928177624941 183.09091186523438 L 111.86928177624941 498.9090881347656 L 111.80538177490234 498.9090881347656 L 111.80538177490234 183.09091186523438" fill-opacity="1" clip-path="url(#DotqouTKTcSA)"/><path fill="rgb(216,17,89)" stroke="none" paint-order="stroke" d="M 111.80538177490234 183.09091186523438 L 111.86928177624941 183.09091186523438 L 111.86928177624941 498.9090881347656 L 111.80538177490234 498.9090881347656 L 111.80538177490234 183.09091186523438" fill-opacity="1" clip-path="url(#DotqouTKTcSA)"/><path fill="rgb(216,17,89)" stroke="none" paint-order="stroke" d="M 145.781005859375 183.09091186523438 L 145.84490586072206 183.09091186523438 L 145.84490586072206 498.9090881347656 L 145.781005859375 498.9090881347656 L 145.781005859375 183.09091186523438" fill-opacity="1" clip-path="url(#DotqouTKTcSA)"/><path fill="rgb(216,17,89)" stroke="none" paint-order="stroke" d="M 145.781005859375 183.09091186523438 L 145.84490586072206 183.09091186523438 L 145.84490586072206 498.9090881347656 L 145.781005859375 498.9090881347656 L 145.781005859375 183.09091186523438" fill-opacity="1" clip-path="url(#DotqouTKTcSA)"/><path fill="rgb(216,17,89)" stroke="none" paint-order="stroke" d="M 147.2647705078125 183.09091186523438 L 147.32867050915956 183.09091186523438 L 147.32867050915956 498.9090881347656 L 147.2647705078125 498.9090881347656 L 147.2647705078125 183.09091186523438" fill-opacity="1" clip-path="url(#DotqouTKTcSA)"/><path fill="rgb(216,17,89)" stroke="none" paint-order="stroke" d="M 147.2647705078125 183.09091186523438 L 147.32867050915956 183.09091186523438 L 147.32867050915956 498.9090881347656 L 147.2647705078125 498.9090881347656 L 147.2647705078125 183.09091186523438" fill-opacity="1" clip-path="url(#DotqouTKTcSA)"/><path fill="rgb(115,210,222)" stroke="none" paint-order="stroke" d="M 581.0946655273438 183.09091186523438 L 583.4308495521545 183.09091186523438 L 583.4308495521545 498.9090881347656 L 581.0946655273438 498.9090881347656 L 581.0946655273438 183.09091186523438" fill-opacity="1" clip-path="url(#MUEsxCSNqhhH)"/><path fill="rgb(115,210,222)" stroke="none" paint-order="stroke" d="M 584.5682373046875 183.09091186523438 L 584.6321373060346 183.09091186523438 L 584.6321373060346 498.9090881347656 L 584.5682373046875 498.9090881347656 L 584.5682373046875 183.09091186523438" fill-opacity="1" clip-path="url(#MUEsxCSNqhhH)"/><path fill="rgb(115,210,222)" stroke="none" paint-order="stroke" d="M 584.5682373046875 183.09091186523438 L 584.6321373060346 183.09091186523438 L 584.6321373060346 498.9090881347656 L 584.5682373046875 498.9090881347656 L 584.5682373046875 183.09091186523438" fill-opacity="1" clip-path="url(#MUEsxCSNqhhH)"/><path fill="rgb(115,210,222)" stroke="none" paint-order="stroke" d="M 585.044921875 183.09091186523438 L 585.1088218763471 183.09091186523438 L 585.1088218763471 498.9090881347656 L 585.044921875 498.9090881347656 L 585.044921875 183.09091186523438" fill-opacity="1" clip-path="url(#MUEsxCSNqhhH)"/><path fill="rgb(115,210,222)" stroke="none" paint-order="stroke" d="M 585.044921875 183.09091186523438 L 585.1088218763471 183.09091186523438 L 585.1088218763471 498.9090881347656 L 585.044921875 498.9090881347656 L 585.044921875 183.09091186523438" fill-opacity="1" clip-path="url(#MUEsxCSNqhhH)"/><path fill="rgb(115,210,222)" stroke="none" paint-order="stroke" d="M 585.3338012695312 183.09091186523438 L 585.3977012708783 183.09091186523438 L 585.3977012708783 498.9090881347656 L 585.3338012695312 498.9090881347656 L 585.3338012695312 183.09091186523438" fill-opacity="1" clip-path="url(#MUEsxCSNqhhH)"/><path fill="rgb(115,210,222)" stroke="none" paint-order="stroke" d="M 585.3338012695312 183.09091186523438 L 585.3977012708783 183.09091186523438 L 585.3977012708783 498.9090881347656 L 585.3338012695312 498.9090881347656 L 585.3338012695312 183.09091186523438" fill-opacity="1" clip-path="url(#MUEsxCSNqhhH)"/><path fill="rgb(115,210,222)" stroke="none" paint-order="stroke" d="M 585.7453002929688 183.09091186523438 L 585.8092002943158 183.09091186523438 L 585.8092002943158 498.9090881347656 L 585.7453002929688 498.9090881347656 L 585.7453002929688 183.09091186523438" fill-opacity="1" clip-path="url(#MUEsxCSNqhhH)"/><path fill="rgb(115,210,222)" stroke="none" paint-order="stroke" d="M 585.7453002929688 183.09091186523438 L 585.8092002943158 183.09091186523438 L 585.8092002943158 498.9090881347656 L 585.7453002929688 498.9090881347656 L 585.7453002929688 183.09091186523438" fill-opacity="1" clip-path="url(#MUEsxCSNqhhH)"/><path fill="rgb(115,210,222)" stroke="none" paint-order="stroke" d="M 586.291015625 183.09091186523438 L 586.3549156263471 183.09091186523438 L 586.3549156263471 498.9090881347656 L 586.291015625 498.9090881347656 L 586.291015625 183.09091186523438" fill-opacity="1" clip-path="url(#MUEsxCSNqhhH)"/><path fill="rgb(115,210,222)" stroke="none" paint-order="stroke" d="M 586.291015625 183.09091186523438 L 586.3549156263471 183.09091186523438 L 586.3549156263471 498.9090881347656 L 586.291015625 498.9090881347656 L 586.291015625 183.09091186523438" fill-opacity="1" clip-path="url(#MUEsxCSNqhhH)"/><path fill="rgb(115,210,222)" stroke="none" paint-order="stroke" d="M 609.9608154296875 183.09091186523438 L 610.5167454481125 183.09091186523438 L 610.5167454481125 498.9090881347656 L 609.9608154296875 498.9090881347656 L 609.9608154296875 183.09091186523438" fill-opacity="1" clip-path="url(#MUEsxCSNqhhH)"/><path fill="rgb(28,49,68)" stroke="none" paint-order="stroke" d="M 164.687744140625 183.09091186523438 L 166.72232007980347 183.09091186523438 L 166.72232007980347 498.9090881347656 L 164.687744140625 498.9090881347656 L 164.687744140625 183.09091186523438" fill-opacity="1" clip-path="url(#uPDsQzeoxiax)"/><path fill="rgb(28,49,68)" stroke="none" paint-order="stroke" d="M 617.5240478515625 183.09091186523438 L 623.381121635437 183.09091186523438 L 623.381121635437 498.9090881347656 L 617.5240478515625 498.9090881347656 L 617.5240478515625 183.09091186523438" fill-opacity="1" clip-path="url(#uPDsQzeoxiax)"/><path fill="rgb(239,185,203)" stroke="none" paint-order="stroke" d="M 63.381961822509766 183.09091186523438 L 101.39223861694336 183.09091186523438 L 101.39223861694336 498.9090881347656 L 63.381961822509766 498.9090881347656 L 63.381961822509766 183.09091186523438" fill-opacity="1" clip-path="url(#LrmzZUgZEcSk)"/><path fill="rgb(239,185,203)" stroke="none" paint-order="stroke" d="M 168.98309326171875 183.09091186523438 L 253.04226684570312 183.09091186523438 L 253.04226684570312 498.9090881347656 L 168.98309326171875 498.9090881347656 L 168.98309326171875 183.09091186523438" fill-opacity="1" clip-path="url(#LrmzZUgZEcSk)"/><path fill="rgb(239,185,203)" stroke="none" paint-order="stroke" d="M 347.07623291015625 183.09091186523438 L 570.0706176757812 183.09091186523438 L 570.0706176757812 498.9090881347656 L 347.07623291015625 498.9090881347656 L 347.07623291015625 183.09091186523438" fill-opacity="1" clip-path="url(#LrmzZUgZEcSk)"/><path fill="rgb(105,29,48)" stroke="none" paint-order="stroke" d="M 114.13134002685547 183.09091186523438 L 129.46478366851807 183.09091186523438 L 129.46478366851807 498.9090881347656 L 114.13134002685547 498.9090881347656 L 114.13134002685547 183.09091186523438" fill-opacity="1" clip-path="url(#wWFFPHZCIaea)"/><path fill="rgb(105,29,48)" stroke="none" paint-order="stroke" d="M 313.83673095703125 183.09091186523438 L 317.2477128505707 183.09091186523438 L 317.2477128505707 498.9090881347656 L 313.83673095703125 498.9090881347656 L 313.83673095703125 183.09091186523438" fill-opacity="1" clip-path="url(#wWFFPHZCIaea)"/><path fill="rgb(105,29,48)" stroke="none" paint-order="stroke" d="M 322.9859313964844 183.09091186523438 L 328.44938135147095 183.09091186523438 L 328.44938135147095 498.9090881347656 L 322.9859313964844 498.9090881347656 L 322.9859313964844 183.09091186523438" fill-opacity="1" clip-path="url(#wWFFPHZCIaea)"/><path fill="rgb(255,188,66)" stroke="none" paint-order="stroke" d="M 157.341796875 498.9090881347656 L 157.40441887825727 498.9090881347656 L 157.40441887825727 551.5454521179199 L 157.341796875 551.5454521179199 L 157.341796875 498.9090881347656" fill-opacity="1" clip-path="url(#QwAMiqHMPTgr)"/><path fill="rgb(255,188,66)" stroke="none" paint-order="stroke" d="M 158.1277618408203 498.9090881347656 L 623.3811187744141 498.9090881347656 L 623.3811187744141 551.5454521179199 L 158.1277618408203 551.5454521179199 L 158.1277618408203 498.9090881347656" fill-opacity="1" clip-path="url(#QwAMiqHMPTgr)"/><path fill="rgb(143,45,86)" stroke="none" paint-order="stroke" d="M 58.5 551.5454711914062 L 107.27614974975586 551.5454711914062 L 107.27614974975586 604.1818351745605 L 58.5 604.1818351745605 L 58.5 551.5454711914062" fill-opacity="1" clip-path="url(#aGiFSfEadJAA)"/><path fill="rgb(63,136,197)" stroke="none" paint-order="stroke" d="M 107.2761459350586 551.5454711914062 L 108.23847991228104 551.5454711914062 L 108.23847991228104 604.1818351745605 L 107.2761459350586 604.1818351745605 L 107.2761459350586 551.5454711914062" fill-opacity="1" clip-path="url(#aGiFSfEadJAA)"/><path fill="rgb(143,45,86)" stroke="none" paint-order="stroke" d="M 108.23847961425781 551.5454711914062 L 306.4639434814453 551.5454711914062 L 306.4639434814453 604.1818351745605 L 108.23847961425781 604.1818351745605 L 108.23847961425781 551.5454711914062" fill-opacity="1" clip-path="url(#aGiFSfEadJAA)"/><path fill="rgb(63,136,197)" stroke="none" paint-order="stroke" d="M 306.4639587402344 551.5454711914062 L 591.3787231445312 551.5454711914062 L 591.3787231445312 604.1818351745605 L 306.4639587402344 604.1818351745605 L 306.4639587402344 551.5454711914062" fill-opacity="1" clip-path="url(#aGiFSfEadJAA)"/><path fill="rgb(81,60,99)" stroke="none" paint-order="stroke" d="M 591.3787231445312 551.5454711914062 L 623.3811225891113 551.5454711914062 L 623.3811225891113 604.1818351745605 L 591.3787231445312 604.1818351745605 L 591.3787231445312 551.5454711914062" fill-opacity="1" clip-path="url(#aGiFSfEadJAA)"/><path fill="none" stroke="rgb(0,0,0)" paint-order="fill" d="M 58.5 77.81818389892578 L 623.381103515625 77.81818389892578 L 623.381103515625 604.1818313598633 L 58.5 604.1818313598633 L 58.5 77.81818389892578" stroke-opacity="1" stroke-linejoin="bevel" stroke-miterlimit="10" stroke-dasharray="" clip-path="url(#KyDTenkxTfTa)"/><path fill="none" stroke="rgb(0,0,0)" paint-order="fill" d="M 58.5 630.5 L 1336.5 630.5" stroke-opacity="1" stroke-linejoin="bevel" stroke-miterlimit="10" stroke-dasharray=""/><path fill="none" stroke="rgb(0,0,0)" paint-order="fill" d="M 58.5 636.5 L 58.5 628.5 M 314.5 636.5 L 314.5 628.5 M 569.5 636.5 L 569.5 628.5 M 825.5 636.5 L 825.5 628.5 M 1080.5 636.5 L 1080.5 628.5 M 1336.5 636.5 L 1336.5 628.5" stroke-opacity="1" stroke-linejoin="bevel" stroke-miterlimit="10" stroke-dasharray=""/><path fill="none" stroke="rgb(0,0,0)" paint-order="fill" d="M 58.5 634.5 L 58.5 630.5 M 109.5 634.5 L 109.5 630.5 M 160.5 634.5 L 160.5 630.5 M 211.5 634.5 L 211.5 630.5 M 262.5 634.5 L 262.5 630.5 M 314.5 634.5 L 314.5 630.5 M 365.5 634.5 L 365.5 630.5 M 416.5 634.5 L 416.5 630.5 M 467.5 634.5 L 467.5 630.5 M 518.5 634.5 L 518.5 630.5 M 569.5 634.5 L 569.5 630.5 M 620.5 634.5 L 620.5 630.5 M 671.5 634.5 L 671.5 630.5 M 723.5 634.5 L 723.5 630.5 M 774.5 634.5 L 774.5 630.5 M 825.5 634.5 L 825.5 630.5 M 876.5 634.5 L 876.5 630.5 M 927.5 634.5 L 927.5 630.5 M 978.5 634.5 L 978.5 630.5 M 1029.5 634.5 L 1029.5 630.5 M 1080.5 634.5 L 1080.5 630.5 M 1132.5 634.5 L 1132.5 630.5 M 1183.5 634.5 L 1183.5 630.5 M 1234.5 634.5 L 1234.5 630.5 M 1285.5 634.5 L 1285.5 630.5 M 1336.5 634.5 L 1336.5 630.5" stroke-opacity="1" stroke-linejoin="bevel" stroke-miterlimit="10" stroke-dasharray=""/><text fill="rgb(68,68,68)" stroke="none" font-family="helvetica" font-size="11px" font-style="normal" font-weight="normal" text-decoration="normal" x="54.94166660308838" y="648.89013671875" text-anchor="start" dominant-baseline="alphabetic" transform="matrix(1, 0, 0, 1, 0.5, 0.5)" fill-opacity="1">0</text><text fill="rgb(68,68,68)" stroke="none" font-family="helvetica" font-size="11px" font-style="normal" font-weight="normal" text-decoration="normal" x="304.42500591278076" y="648.89013671875" text-anchor="start" dominant-baseline="alphabetic" transform="matrix(1, 0, 0, 1, 0.5, 0.5)" fill-opacity="1">200</text><text fill="rgb(68,68,68)" stroke="none" font-family="helvetica" font-size="11px" font-style="normal" font-weight="normal" text-decoration="normal" x="560.0250120162964" y="648.89013671875" text-anchor="start" dominant-baseline="alphabetic" transform="matrix(1, 0, 0, 1, 0.5, 0.5)" fill-opacity="1">400</text><text fill="rgb(68,68,68)" stroke="none" font-family="helvetica" font-size="11px" font-style="normal" font-weight="normal" text-decoration="normal" x="815.6249876022339" y="648.89013671875" text-anchor="start" dominant-baseline="alphabetic" transform="matrix(1, 0, 0, 1, 0.5, 0.5)" fill-opacity="1">600</text><text fill="rgb(68,68,68)" stroke="none" font-family="helvetica" font-size="11px" font-style="normal" font-weight="normal" text-decoration="normal" x="1071.2250242233276" y="648.89013671875" text-anchor="start" dominant-baseline="alphabetic" transform="matrix(1, 0, 0, 1, 0.5, 0.5)" fill-opacity="1">800</text><text fill="rgb(68,68,68)" stroke="none" font-family="helvetica" font-size="11px" font-style="normal" font-weight="normal" text-decoration="normal" x="1323.7666664123535" y="648.89013671875" text-anchor="start" dominant-baseline="alphabetic" transform="matrix(1, 0, 0, 1, 0.5, 0.5)" fill-opacity="1">1000</text><text fill="rgb(68,68,68)" stroke="none" font-family="helvetica" font-size="15pt" font-style="italic" font-weight="normal" text-decoration="normal" x="666.4416675567627" y="676.06982421875" text-anchor="start" dominant-baseline="alphabetic" transform="matrix(1, 0, 0, 1, 0.5, 0.5)" fill-opacity="1">time(s)</text><path fill="none" stroke="rgb(0,0,0)" paint-order="fill" d="M 58.5 630.5 L 58.5 51.5" stroke-opacity="1" stroke-linejoin="bevel" stroke-miterlimit="10" stroke-dasharray=""/><path fill="none" stroke="rgb(0,0,0)" paint-order="fill" d="M 52.5 551.5 L 60.5 551.5 M 52.5 446.5 L 60.5 446.5 M 52.5 341.5 L 60.5 341.5 M 52.5 235.5 L 60.5 235.5 M 52.5 130.5 L 60.5 130.5" stroke-opacity="1" stroke-linejoin="bevel" stroke-miterlimit="10" stroke-dasharray=""/><path fill="none" stroke="rgb(0,0,0)" paint-order="fill" d="M 54.5 572.5 L 58.5 572.5 M 54.5 593.5 L 58.5 593.5 M 54.5 614.5 L 58.5 614.5 M 54.5 551.5 L 58.5 551.5 M 54.5 530.5 L 58.5 530.5 M 54.5 509.5 L 58.5 509.5 M 54.5 488.5 L 58.5 488.5 M 54.5 467.5 L 58.5 467.5 M 54.5 446.5 L 58.5 446.5 M 54.5 425.5 L 58.5 425.5 M 54.5 404.5 L 58.5 404.5 M 54.5 383.5 L 58.5 383.5 M 54.5 362.5 L 58.5 362.5 M 54.5 341.5 L 58.5 341.5 M 54.5 319.5 L 58.5 319.5 M 54.5 298.5 L 58.5 298.5 M 54.5 277.5 L 58.5 277.5 M 54.5 256.5 L 58.5 256.5 M 54.5 235.5 L 58.5 235.5 M 54.5 214.5 L 58.5 214.5 M 54.5 193.5 L 58.5 193.5 M 54.5 172.5 L 58.5 172.5 M 54.5 151.5 L 58.5 151.5 M 54.5 130.5 L 58.5 130.5 M 54.5 109.5 L 58.5 109.5 M 54.5 88.5 L 58.5 88.5 M 54.5 67.5 L 58.5 67.5" stroke-opacity="1" stroke-linejoin="bevel" stroke-miterlimit="10" stroke-dasharray=""/><text fill="rgb(68,68,68)" stroke="none" font-family="helvetica" font-size="11px" font-style="normal" font-weight="normal" text-decoration="normal" x="34.46666622161865" y="554.9905395507812" text-anchor="start" dominant-baseline="alphabetic" transform="matrix(1, 0, 0, 1, 0.5, 0.5)" fill-opacity="1">2</text><text fill="rgb(68,68,68)" stroke="none" font-family="helvetica" font-size="11px" font-style="normal" font-weight="normal" text-decoration="normal" x="34.46666622161865" y="449.7178039550781" text-anchor="start" dominant-baseline="alphabetic" transform="matrix(1, 0, 0, 1, 0.5, 0.5)" fill-opacity="1">1</text><text fill="rgb(68,68,68)" stroke="none" font-family="helvetica" font-size="11px" font-style="normal" font-weight="normal" text-decoration="normal" x="40.88333320617676" y="344.445068359375" text-anchor="start" dominant-baseline="alphabetic" transform="matrix(1, 0, 0, 1, 0.5, 0.5)" fill-opacity="1">0</text><text fill="rgb(68,68,68)" stroke="none" font-family="helvetica" font-size="11px" font-style="normal" font-weight="normal" text-decoration="normal" x="40.88333320617676" y="239.17234802246094" text-anchor="start" dominant-baseline="alphabetic" transform="matrix(1, 0, 0, 1, 0.5, 0.5)" fill-opacity="1">1</text><text fill="rgb(68,68,68)" stroke="none" font-family="helvetica" font-size="11px" font-style="normal" font-weight="normal" text-decoration="normal" x="40.88333320617676" y="133.8996124267578" text-anchor="start" dominant-baseline="alphabetic" transform="matrix(1, 0, 0, 1, 0.5, 0.5)" fill-opacity="1">2</text><text fill="rgb(68,68,68)" stroke="none" font-family="helvetica" font-size="15pt" font-style="italic" font-weight="normal" text-decoration="normal" x="-11.316666603088379" y="336.076171875" text-anchor="start" dominant-baseline="alphabetic" transform="matrix(6.123233995736766e-17, -1, 1, 6.123233995736766e-17, -313.53333377838135, 367.46666622161865)" fill-opacity="1">students</text><path fill="rgb(255,255,255)" stroke="rgb(229,229,229)" paint-order="fill" d="M 1128.2333374023438 61.5 L 1326.5 61.5 L 1326.5 400.5 L 1128.2333374023438 400.5 L 1128.2333374023438 61.5" fill-opacity="0.9490196078431372" clip-path="url(#tyGMrMSiRBvL)" stroke-opacity="0.5019607843137255" stroke-linejoin="bevel" stroke-miterlimit="10" stroke-dasharray=""/><g clip-path="url(#tyGMrMSiRBvL)"><text fill="rgb(68,68,68)" stroke="none" font-family="helvetica" font-size="13px" font-style="normal" font-weight="normal" text-decoration="normal" x="1162.7333374023438" y="81" text-anchor="start" dominant-baseline="central" transform="matrix(1, 0, 0, 1, 0.5, 0.5)" fill-opacity="1">wavelength</text></g><path fill="rgb(0,255,40)" stroke="none" paint-order="stroke" d="M 1140.2333374023438 73.5 L 1156.2333374023438 73.5 L 1156.2333374023438 89.5 L 1140.2333374023438 89.5 L 1140.2333374023438 73.5" fill-opacity="1" clip-path="url(#tyGMrMSiRBvL)"/><path fill="rgb(216,17,89)" stroke="none" paint-order="stroke" d="M 1140.2333374023438 73.5 L 1156.2333374023438 73.5 L 1156.2333374023438 89.5 L 1140.2333374023438 89.5 L 1140.2333374023438 73.5" fill-opacity="1" clip-path="url(#tyGMrMSiRBvL)"/><g clip-path="url(#tyGMrMSiRBvL)"><text fill="rgb(68,68,68)" stroke="none" font-family="helvetica" font-size="13px" font-style="normal" font-weight="normal" text-decoration="normal" x="1162.7333374023438" y="104" text-anchor="start" dominant-baseline="central" transform="matrix(1, 0, 0, 1, 0.5, 0.5)" fill-opacity="1">solution</text></g><path fill="rgb(251,0,7)" stroke="none" paint-order="stroke" d="M 1140.2333374023438 96.5 L 1156.2333374023438 96.5 L 1156.2333374023438 112.5 L 1140.2333374023438 112.5 L 1140.2333374023438 96.5" fill-opacity="1" clip-path="url(#tyGMrMSiRBvL)"/><g clip-path="url(#tyGMrMSiRBvL)"><text fill="rgb(68,68,68)" stroke="none" font-family="helvetica" font-size="13px" font-style="normal" font-weight="normal" text-decoration="normal" x="1162.7333374023438" y="127" text-anchor="start" dominant-baseline="central" transform="matrix(1, 0, 0, 1, 0.5, 0.5)" fill-opacity="1">laser</text></g><path fill="rgb(105,29,48)" stroke="none" paint-order="stroke" d="M 1140.2333374023438 119.5 L 1156.2333374023438 119.5 L 1156.2333374023438 135.5 L 1140.2333374023438 135.5 L 1140.2333374023438 119.5" fill-opacity="1" clip-path="url(#tyGMrMSiRBvL)"/><g clip-path="url(#tyGMrMSiRBvL)"><text fill="rgb(68,68,68)" stroke="none" font-family="helvetica" font-size="13px" font-style="normal" font-weight="normal" text-decoration="normal" x="1162.7333374023438" y="150" text-anchor="start" dominant-baseline="central" transform="matrix(1, 0, 0, 1, 0.5, 0.5)" fill-opacity="1">ruler</text></g><path fill="rgb(255,188,66)" stroke="none" paint-order="stroke" d="M 1140.2333374023438 142.5 L 1156.2333374023438 142.5 L 1156.2333374023438 158.5 L 1140.2333374023438 158.5 L 1140.2333374023438 142.5" fill-opacity="1" clip-path="url(#tyGMrMSiRBvL)"/><g clip-path="url(#tyGMrMSiRBvL)"><text fill="rgb(68,68,68)" stroke="none" font-family="helvetica" font-size="13px" font-style="normal" font-weight="normal" text-decoration="normal" x="1162.7333374023438" y="173" text-anchor="start" dominant-baseline="central" transform="matrix(1, 0, 0, 1, 0.5, 0.5)" fill-opacity="1">restarts</text></g><g clip-path="url(#tyGMrMSiRBvL)"><text fill="rgb(68,68,68)" stroke="none" font-family="helvetica" font-size="13px" font-style="normal" font-weight="normal" text-decoration="normal" x="1162.7333374023438" y="196" text-anchor="start" dominant-baseline="central" transform="matrix(1, 0, 0, 1, 0.5, 0.5)" fill-opacity="1">transmittance_absorbance</text></g><path fill="rgb(162,174,187)" stroke="none" paint-order="stroke" d="M 1140.2333374023438 188.5 L 1156.2333374023438 188.5 L 1156.2333374023438 204.5 L 1140.2333374023438 204.5 L 1140.2333374023438 188.5" fill-opacity="1" clip-path="url(#tyGMrMSiRBvL)"/><g clip-path="url(#tyGMrMSiRBvL)"><text fill="rgb(68,68,68)" stroke="none" font-family="helvetica" font-size="13px" font-style="normal" font-weight="normal" text-decoration="normal" x="1162.7333374023438" y="219" text-anchor="start" dominant-baseline="central" transform="matrix(1, 0, 0, 1, 0.5, 0.5)" fill-opacity="1">magnifier</text></g><g clip-path="url(#tyGMrMSiRBvL)"><text fill="rgb(68,68,68)" stroke="none" font-family="helvetica" font-size="13px" font-style="normal" font-weight="normal" text-decoration="normal" x="1162.7333374023438" y="242" text-anchor="start" dominant-baseline="central" transform="matrix(1, 0, 0, 1, 0.5, 0.5)" fill-opacity="1">concentration</text></g><path fill="rgb(115,210,222)" stroke="none" paint-order="stroke" d="M 1140.2333374023438 234.5 L 1156.2333374023438 234.5 L 1156.2333374023438 250.5 L 1140.2333374023438 250.5 L 1140.2333374023438 234.5" fill-opacity="1" clip-path="url(#tyGMrMSiRBvL)"/><g clip-path="url(#tyGMrMSiRBvL)"><text fill="rgb(68,68,68)" stroke="none" font-family="helvetica" font-size="13px" font-style="normal" font-weight="normal" text-decoration="normal" x="1162.7333374023438" y="265" text-anchor="start" dominant-baseline="central" transform="matrix(1, 0, 0, 1, 0.5, 0.5)" fill-opacity="1">flask</text></g><path fill="rgb(28,49,68)" stroke="none" paint-order="stroke" d="M 1140.2333374023438 257.5 L 1156.2333374023438 257.5 L 1156.2333374023438 273.5 L 1140.2333374023438 273.5 L 1140.2333374023438 257.5" fill-opacity="1" clip-path="url(#tyGMrMSiRBvL)"/><g clip-path="url(#tyGMrMSiRBvL)"><text fill="rgb(68,68,68)" stroke="none" font-family="helvetica" font-size="13px" font-style="normal" font-weight="normal" text-decoration="normal" x="1162.7333374023438" y="288" text-anchor="start" dominant-baseline="central" transform="matrix(1, 0, 0, 1, 0.5, 0.5)" fill-opacity="1">pdf</text></g><path fill="rgb(239,185,203)" stroke="none" paint-order="stroke" d="M 1140.2333374023438 280.5 L 1156.2333374023438 280.5 L 1156.2333374023438 296.5 L 1140.2333374023438 296.5 L 1140.2333374023438 280.5" fill-opacity="1" clip-path="url(#tyGMrMSiRBvL)"/><g clip-path="url(#tyGMrMSiRBvL)"><text fill="rgb(68,68,68)" stroke="none" font-family="helvetica" font-size="13px" font-style="normal" font-weight="normal" text-decoration="normal" x="1162.7333374023438" y="311" text-anchor="start" dominant-baseline="central" transform="matrix(1, 0, 0, 1, 0.5, 0.5)" fill-opacity="1">concentrationlab</text></g><g clip-path="url(#tyGMrMSiRBvL)"><text fill="rgb(68,68,68)" stroke="none" font-family="helvetica" font-size="13px" font-style="normal" font-weight="normal" text-decoration="normal" x="1162.7333374023438" y="334" text-anchor="start" dominant-baseline="central" transform="matrix(1, 0, 0, 1, 0.5, 0.5)" fill-opacity="1">wavelength_slider</text></g><path fill="rgb(105,29,48)" stroke="none" paint-order="stroke" d="M 1140.2333374023438 326.5 L 1156.2333374023438 326.5 L 1156.2333374023438 342.5 L 1140.2333374023438 342.5 L 1140.2333374023438 326.5" fill-opacity="1" clip-path="url(#tyGMrMSiRBvL)"/><g clip-path="url(#tyGMrMSiRBvL)"><text fill="rgb(68,68,68)" stroke="none" font-family="helvetica" font-size="13px" font-style="normal" font-weight="normal" text-decoration="normal" x="1162.7333374023438" y="357" text-anchor="start" dominant-baseline="central" transform="matrix(1, 0, 0, 1, 0.5, 0.5)" fill-opacity="1">ruler measuring</text></g><path fill="rgb(255,188,66)" stroke="none" paint-order="stroke" d="M 1140.2333374023438 349.5 L 1156.2333374023438 349.5 L 1156.2333374023438 365.5 L 1140.2333374023438 365.5 L 1140.2333374023438 349.5" fill-opacity="1" clip-path="url(#tyGMrMSiRBvL)"/><g clip-path="url(#tyGMrMSiRBvL)"><text fill="rgb(68,68,68)" stroke="none" font-family="helvetica" font-size="13px" font-style="normal" font-weight="normal" text-decoration="normal" x="1162.7333374023438" y="380" text-anchor="start" dominant-baseline="central" transform="matrix(1, 0, 0, 1, 0.5, 0.5)" fill-opacity="1">dependent variable</text></g><path fill="rgb(143,45,86)" stroke="none" paint-order="stroke" d="M 1140.2333374023438 372.5 L 1156.2333374023438 372.5 L 1156.2333374023438 388.5 L 1140.2333374023438 388.5 L 1140.2333374023438 372.5" fill-opacity="1" clip-path="url(#tyGMrMSiRBvL)"/><text fill="rgb(68,68,68)" stroke="none" font-family="helvetica" font-size="25pt" font-style="normal" font-weight="bold" text-decoration="normal" x="58" y="38.740885416666664" text-anchor="start" dominant-baseline="alphabetic" transform="matrix(1, 0, 0, 1, 0.5, 0.5)" fill-opacity="1">Timeline for student 982cf4dn with permutation 3120 for task 2</text></svg>