<svg version="1.1" xmlns="http://www.w3.org/2000/svg" width="1366" height="683"><defs><clipPath id="owrpSOpmVzqA"><path fill="none" stroke="none" d="M 58.5 51.5 L 1336.5 51.5 L 1336.5 630.5 L 58.5 630.5 L 58.5 51.5"/></clipPath><clipPath id="AdVpsHghTmvQ"><path fill="none" stroke="none" d="M 58.5 51.5 L 1336.5 51.5 L 1336.5 630.5 L 58.5 630.5 L 58.5 51.5"/></clipPath><clipPath id="mtJhSWmcsWvA"><path fill="none" stroke="none" d="M 58.5 51.5 L 1336.5 51.5 L 1336.5 630.5 L 58.5 630.5 L 58.5 51.5"/></clipPath><clipPath id="NnUTTlqxFwgL"><path fill="none" stroke="none" d="M 58.5 51.5 L 1336.5 51.5 L 1336.5 630.5 L 58.5 630.5 L 58.5 51.5"/></clipPath><clipPath id="QNiWSAXgMAiX"><path fill="none" stroke="none" d="M 58.5 51.5 L 1336.5 51.5 L 1336.5 630.5 L 58.5 630.5 L 58.5 51.5"/></clipPath><clipPath id="UGBHDCyHGuRT"><path fill="none" stroke="none" d="M 58.5 51.5 L 1336.5 51.5 L 1336.5 630.5 L 58.5 630.5 L 58.5 51.5"/></clipPath><clipPath id="ZswrxcSQCuKu"><path fill="none" stroke="none" d="M 58.5 51.5 L 1336.5 51.5 L 1336.5 630.5 L 58.5 630.5 L 58.5 51.5"/></clipPath><clipPath id="fkyoPZZeEGHz"><path fill="none" stroke="none" d="M 58.5 51.5 L 1336.5 51.5 L 1336.5 630.5 L 58.5 630.5 L 58.5 51.5"/></clipPath><clipPath id="cPtWfoKMBLeG"><path fill="none" stroke="none" d="M 58.5 51.5 L 1336.5 51.5 L 1336.5 630.5 L 58.5 630.5 L 58.5 51.5"/></clipPath><clipPath id="EpRTibUaJFnk"><path fill="none" stroke="none" d="M 58.5 51.5 L 1336.5 51.5 L 1336.5 630.5 L 58.5 630.5 L 58.5 51.5"/></clipPath><clipPath id="eqLxWnwkfzFW"><path fill="none" stroke="none" d="M 58.5 51.5 L 1336.5 51.5 L 1336.5 630.5 L 58.5 630.5 L 58.5 51.5"/></clipPath><clipPath id="fHGBgMqGNWzQ"><path fill="none" stroke="none" d="M 58.5 51.5 L 1336.5 51.5 L 1336.5 630.5 L 58.5 630.5 L 58.5 51.5"/></clipPath><clipPath id="fTNMcNIRluHT"><path fill="none" stroke="none" d="M 58.5 51.5 L 1336.5 51.5 L 1336.5 630.5 L 58.5 630.5 L 58.5 51.5"/></clipPath><clipPath id="xwAXTaSLsvIq"><path fill="none" stroke="none" d="M 58.5 51.5 L 1336.5 51.5 L 1336.5 630.5 L 58.5 630.5 L 58.5 51.5"/></clipPath><clipPath id="KRLCyJpEhOxS"><path fill="none" stroke="none" d="M 58.5 51.5 L 1336.5 51.5 L 1336.5 630.5 L 58.5 630.5 L 58.5 51.5"/></clipPath><clipPath id="lXNtxmIpuwoR"><path fill="none" stroke="none" d="M 58.5 51.5 L 1336.5 51.5 L 1336.5 630.5 L 58.5 630.5 L 58.5 51.5"/></clipPath><clipPath id="TtRAgIMTPJTg"><path fill="none" stroke="none" d="M 58.5 51.5 L 1336.5 51.5 L 1336.5 630.5 L 58.5 630.5 L 58.5 51.5"/></clipPath><clipPath id="WHMCzeGnrtaH"><path fill="none" stroke="none" d="M 58.5 51.5 L 1336.5 51.5 L 1336.5 630.5 L 58.5 630.5 L 58.5 51.5"/></clipPath><clipPath id="ektOfJmzcQSg"><path fill="none" stroke="none" d="M 58.5 51.5 L 1336.5 51.5 L 1336.5 630.5 L 58.5 630.5 L 58.5 51.5"/></clipPath><clipPath id="ChAcsAeTUdpm"><path fill="none" stroke="none" d="M 58.5 51.5 L 1336.5 51.5 L 1336.5 630.5 L 58.5 630.5 L 58.5 51.5"/></clipPath><clipPath id="AFHlGKCEstrs"><path fill="none" stroke="none" d="M 58.5 51.5 L 1336.5 51.5 L 1336.5 630.5 L 58.5 630.5 L 58.5 51.5"/></clipPath></defs><path fill="rgb(255,255,255)" stroke="none" paint-order="stroke" d="M 0.5 0.5 L 1366.5 0.5 L 1366.5 683.5 L 0.5 683.5 L 0.5 0.5" fill-opacity="1"/><rect fill="#FFFFFF" stroke="none" x="58" y="51" width="1278" height="579" transform="matrix(1, 0, 0, 1, 0.5, 0.5)"/><path fill="rgb(255,255,255)" stroke="none" paint-order="stroke" d="M 58.5 51.5 L 1336.5 51.5 L 1336.5 630.5 L 58.5 630.5 L 58.5 51.5" fill-opacity="1"/><path fill="none" stroke="rgb(229,229,229)" paint-order="fill" d="M 58.5 51.5 L 1336.5 51.5 L 1336.5 630.5 L 58.5 630.5 L 58.5 51.5" stroke-opacity="1" stroke-linejoin="bevel" stroke-miterlimit="10" stroke-dasharray=""/><path fill="none" stroke="rgb(229,229,229)" paint-order="fill" d="M 314.5 630.5 L 314.5 51.5 M 569.5 630.5 L 569.5 51.5 M 825.5 630.5 L 825.5 51.5 M 1080.5 630.5 L 1080.5 51.5" stroke-opacity="1" stroke-linejoin="bevel" stroke-miterlimit="10" stroke-dasharray="" clip-path="url(#owrpSOpmVzqA)"/><path fill="none" stroke="rgb(229,229,229)" paint-order="fill" d="M 58.5 551.5 L 1336.5 551.5 M 58.5 446.5 L 1336.5 446.5 M 58.5 341.5 L 1336.5 341.5 M 58.5 235.5 L 1336.5 235.5 M 58.5 130.5 L 1336.5 130.5" stroke-opacity="1" stroke-linejoin="bevel" stroke-miterlimit="10" stroke-dasharray="" clip-path="url(#AdVpsHghTmvQ)"/><path fill="rgb(0,255,40)" stroke="none" paint-order="stroke" d="M 58.5 77.81818389892578 L 297.8847351074219 77.81818389892578 L 297.8847351074219 130.45454788208008 L 58.5 130.45454788208008 L 58.5 77.81818389892578" fill-opacity="1" clip-path="url(#mtJhSWmcsWvA)"/><path fill="rgb(8,255,0)" stroke="none" paint-order="stroke" d="M 297.8847351074219 77.81818389892578 L 298.012535110116 77.81818389892578 L 298.012535110116 130.45454788208008 L 297.8847351074219 130.45454788208008 L 297.8847351074219 77.81818389892578" fill-opacity="1" clip-path="url(#mtJhSWmcsWvA)"/><path fill="rgb(30,255,0)" stroke="none" paint-order="stroke" d="M 298.0125427246094 77.81818389892578 L 298.03299072384834 77.81818389892578 L 298.03299072384834 130.45454788208008 L 298.0125427246094 130.45454788208008 L 298.0125427246094 77.81818389892578" fill-opacity="1" clip-path="url(#mtJhSWmcsWvA)"/><path fill="rgb(49,255,0)" stroke="none" paint-order="stroke" d="M 298.0329895019531 77.81818389892578 L 298.0968895033002 77.81818389892578 L 298.0968895033002 130.45454788208008 L 298.0329895019531 130.45454788208008 L 298.0329895019531 77.81818389892578" fill-opacity="1" clip-path="url(#mtJhSWmcsWvA)"/><path fill="rgb(62,255,0)" stroke="none" paint-order="stroke" d="M 298.0968933105469 77.81818389892578 L 298.1186193097383 77.81818389892578 L 298.1186193097383 130.45454788208008 L 298.0968933105469 130.45454788208008 L 298.0968933105469 77.81818389892578" fill-opacity="1" clip-path="url(#mtJhSWmcsWvA)"/><path fill="rgb(104,255,0)" stroke="none" paint-order="stroke" d="M 298.1186218261719 77.81818389892578 L 299.60876977443695 77.81818389892578 L 299.60876977443695 130.45454788208008 L 298.1186218261719 130.45454788208008 L 298.1186218261719 77.81818389892578" fill-opacity="1" clip-path="url(#mtJhSWmcsWvA)"/><path fill="rgb(78,255,0)" stroke="none" paint-order="stroke" d="M 299.6087646484375 77.81818389892578 L 299.6509386487305 77.81818389892578 L 299.6509386487305 130.45454788208008 L 299.6087646484375 130.45454788208008 L 299.6087646484375 77.81818389892578" fill-opacity="1" clip-path="url(#mtJhSWmcsWvA)"/><path fill="rgb(62,255,0)" stroke="none" paint-order="stroke" d="M 299.65093994140625 77.81818389892578 L 299.69311394169927 77.81818389892578 L 299.69311394169927 130.45454788208008 L 299.65093994140625 130.45454788208008 L 299.65093994140625 77.81818389892578" fill-opacity="1" clip-path="url(#mtJhSWmcsWvA)"/><path fill="rgb(49,255,0)" stroke="none" paint-order="stroke" d="M 299.693115234375 77.81818389892578 L 299.80046723783016 77.81818389892578 L 299.80046723783016 130.45454788208008 L 299.693115234375 130.45454788208008 L 299.693115234375 77.81818389892578" fill-opacity="1" clip-path="url(#mtJhSWmcsWvA)"/><path fill="rgb(30,255,0)" stroke="none" paint-order="stroke" d="M 299.8004455566406 77.81818389892578 L 299.82344955578446 77.81818389892578 L 299.82344955578446 130.45454788208008 L 299.8004455566406 130.45454788208008 L 299.8004455566406 77.81818389892578" fill-opacity="1" clip-path="url(#mtJhSWmcsWvA)"/><path fill="rgb(8,255,0)" stroke="none" paint-order="stroke" d="M 299.8234558105469 77.81818389892578 L 299.8643518090248 77.81818389892578 L 299.8643518090248 130.45454788208008 L 299.8234558105469 130.45454788208008 L 299.8234558105469 77.81818389892578" fill-opacity="1" clip-path="url(#mtJhSWmcsWvA)"/><path fill="rgb(0,255,40)" stroke="none" paint-order="stroke" d="M 299.8643493652344 77.81818389892578 L 299.97170136868954 77.81818389892578 L 299.97170136868954 130.45454788208008 L 299.8643493652344 130.45454788208008 L 299.8643493652344 77.81818389892578" fill-opacity="1" clip-path="url(#mtJhSWmcsWvA)"/><path fill="rgb(0,255,97)" stroke="none" paint-order="stroke" d="M 299.9717102050781 77.81818389892578 L 300.80113220214844 77.81818389892578 L 300.80113220214844 130.45454788208008 L 299.9717102050781 130.45454788208008 L 299.9717102050781 77.81818389892578" fill-opacity="1" clip-path="url(#mtJhSWmcsWvA)"/><path fill="rgb(0,255,40)" stroke="none" paint-order="stroke" d="M 300.8011169433594 77.81818389892578 L 300.972368940711 77.81818389892578 L 300.972368940711 130.45454788208008 L 300.8011169433594 130.45454788208008 L 300.8011169433594 77.81818389892578" fill-opacity="1" clip-path="url(#mtJhSWmcsWvA)"/><path fill="rgb(8,255,0)" stroke="none" paint-order="stroke" d="M 300.9723815917969 77.81818389892578 L 301.0771775916219 77.81818389892578 L 301.0771775916219 130.45454788208008 L 300.9723815917969 130.45454788208008 L 300.9723815917969 77.81818389892578" fill-opacity="1" clip-path="url(#mtJhSWmcsWvA)"/><path fill="rgb(30,255,0)" stroke="none" paint-order="stroke" d="M 301.0771789550781 77.81818389892578 L 302.4420830011368 77.81818389892578 L 302.4420830011368 130.45454788208008 L 301.0771789550781 130.45454788208008 L 301.0771789550781 77.81818389892578" fill-opacity="1" clip-path="url(#mtJhSWmcsWvA)"/><path fill="rgb(49,255,0)" stroke="none" paint-order="stroke" d="M 302.44207763671875 77.81818389892578 L 304.01657366752625 77.81818389892578 L 304.01657366752625 130.45454788208008 L 302.44207763671875 130.45454788208008 L 302.44207763671875 77.81818389892578" fill-opacity="1" clip-path="url(#mtJhSWmcsWvA)"/><path fill="rgb(62,255,0)" stroke="none" paint-order="stroke" d="M 304.0165710449219 77.81818389892578 L 305.8249410390854 77.81818389892578 L 305.8249410390854 130.45454788208008 L 304.0165710449219 130.45454788208008 L 304.0165710449219 77.81818389892578" fill-opacity="1" clip-path="url(#mtJhSWmcsWvA)"/><path fill="rgb(49,255,0)" stroke="none" paint-order="stroke" d="M 305.824951171875 77.81818389892578 L 313.02009105682373 77.81818389892578 L 313.02009105682373 130.45454788208008 L 305.824951171875 130.45454788208008 L 305.824951171875 77.81818389892578" fill-opacity="1" clip-path="url(#mtJhSWmcsWvA)"/><path fill="rgb(62,255,0)" stroke="none" paint-order="stroke" d="M 313.02008056640625 77.81818389892578 L 314.0424805879593 77.81818389892578 L 314.0424805879593 130.45454788208008 L 313.02008056640625 130.45454788208008 L 313.02008056640625 77.81818389892578" fill-opacity="1" clip-path="url(#mtJhSWmcsWvA)"/><path fill="rgb(49,255,0)" stroke="none" paint-order="stroke" d="M 314.04248046875 77.81818389892578 L 314.10638047009706 77.81818389892578 L 314.10638047009706 130.45454788208008 L 314.04248046875 130.45454788208008 L 314.04248046875 77.81818389892578" fill-opacity="1" clip-path="url(#mtJhSWmcsWvA)"/><path fill="rgb(8,255,0)" stroke="none" paint-order="stroke" d="M 314.10638427734375 77.81818389892578 L 314.14983627572656 77.81818389892578 L 314.14983627572656 130.45454788208008 L 314.10638427734375 130.45454788208008 L 314.10638427734375 77.81818389892578" fill-opacity="1" clip-path="url(#mtJhSWmcsWvA)"/><path fill="rgb(0,255,40)" stroke="none" paint-order="stroke" d="M 314.14984130859375 77.81818389892578 L 314.1907373070717 77.81818389892578 L 314.1907373070717 130.45454788208008 L 314.14984130859375 130.45454788208008 L 314.14984130859375 77.81818389892578" fill-opacity="1" clip-path="url(#mtJhSWmcsWvA)"/><path fill="rgb(0,255,97)" stroke="none" paint-order="stroke" d="M 314.19073486328125 77.81818389892578 L 315.3831088542938 77.81818389892578 L 315.3831088542938 130.45454788208008 L 314.19073486328125 130.45454788208008 L 314.19073486328125 77.81818389892578" fill-opacity="1" clip-path="url(#mtJhSWmcsWvA)"/><path fill="rgb(0,255,40)" stroke="none" paint-order="stroke" d="M 315.38311767578125 77.81818389892578 L 315.5543696731329 77.81818389892578 L 315.5543696731329 130.45454788208008 L 315.38311767578125 130.45454788208008 L 315.38311767578125 77.81818389892578" fill-opacity="1" clip-path="url(#mtJhSWmcsWvA)"/><path fill="rgb(8,255,0)" stroke="none" paint-order="stroke" d="M 315.5543518066406 77.81818389892578 L 315.59652580693364 77.81818389892578 L 315.59652580693364 130.45454788208008 L 315.5543518066406 130.45454788208008 L 315.5543518066406 77.81818389892578" fill-opacity="1" clip-path="url(#mtJhSWmcsWvA)"/><path fill="rgb(30,255,0)" stroke="none" paint-order="stroke" d="M 315.5965270996094 77.81818389892578 L 315.6821530982852 77.81818389892578 L 315.6821530982852 130.45454788208008 L 315.5965270996094 130.45454788208008 L 315.5965270996094 77.81818389892578" fill-opacity="1" clip-path="url(#mtJhSWmcsWvA)"/><path fill="rgb(49,255,0)" stroke="none" paint-order="stroke" d="M 315.6821594238281 77.81818389892578 L 323.8396329879761 77.81818389892578 L 323.8396329879761 130.45454788208008 L 315.6821594238281 130.45454788208008 L 315.6821594238281 77.81818389892578" fill-opacity="1" clip-path="url(#mtJhSWmcsWvA)"/><path fill="rgb(70,255,0)" stroke="none" paint-order="stroke" d="M 323.8396301269531 77.81818389892578 L 326.7675280570984 77.81818389892578 L 326.7675280570984 130.45454788208008 L 323.8396301269531 130.45454788208008 L 323.8396301269531 77.81818389892578" fill-opacity="1" clip-path="url(#mtJhSWmcsWvA)"/><path fill="rgb(35,255,0)" stroke="none" paint-order="stroke" d="M 326.7675476074219 77.81818389892578 L 328.60658955574036 77.81818389892578 L 328.60658955574036 130.45454788208008 L 326.7675476074219 130.45454788208008 L 326.7675476074219 77.81818389892578" fill-opacity="1" clip-path="url(#mtJhSWmcsWvA)"/><path fill="rgb(53,255,0)" stroke="none" paint-order="stroke" d="M 328.6065673828125 77.81818389892578 L 677.155517578125 77.81818389892578 L 677.155517578125 130.45454788208008 L 328.6065673828125 130.45454788208008 L 328.6065673828125 77.81818389892578" fill-opacity="1" clip-path="url(#mtJhSWmcsWvA)"/><path fill="rgb(251,0,7)" stroke="none" paint-order="stroke" d="M 58.5 130.4545440673828 L 677.155517578125 130.4545440673828 L 677.155517578125 183.0909080505371 L 58.5 183.0909080505371 L 58.5 130.4545440673828" fill-opacity="1" clip-path="url(#NnUTTlqxFwgL)"/><path fill="rgb(105,29,48)" stroke="none" paint-order="stroke" d="M 193.3404998779297 183.09091186523438 L 193.40439987927675 183.09091186523438 L 193.40439987927675 498.9090881347656 L 193.3404998779297 498.9090881347656 L 193.3404998779297 183.09091186523438" fill-opacity="1" clip-path="url(#QNiWSAXgMAiX)"/><path fill="rgb(255,188,66)" stroke="none" paint-order="stroke" d="M 137.50979614257812 183.09091186523438 L 139.03189408779144 183.09091186523438 L 139.03189408779144 498.9090881347656 L 137.50979614257812 498.9090881347656 L 137.50979614257812 183.09091186523438" fill-opacity="1" clip-path="url(#UGBHDCyHGuRT)"/><path fill="rgb(255,188,66)" stroke="none" paint-order="stroke" d="M 140.96295166015625 183.09091186523438 L 143.7643277645111 183.09091186523438 L 143.7643277645111 498.9090881347656 L 140.96295166015625 498.9090881347656 L 140.96295166015625 183.09091186523438" fill-opacity="1" clip-path="url(#UGBHDCyHGuRT)"/><path fill="rgb(255,188,66)" stroke="none" paint-order="stroke" d="M 255.79891967773438 183.09091186523438 L 255.8001976776868 183.09091186523438 L 255.8001976776868 498.9090881347656 L 255.79891967773438 498.9090881347656 L 255.79891967773438 183.09091186523438" fill-opacity="1" clip-path="url(#UGBHDCyHGuRT)"/><path fill="rgb(162,174,187)" stroke="none" paint-order="stroke" d="M 612.4618530273438 183.09091186523438 L 612.5257530286908 183.09091186523438 L 612.5257530286908 498.9090881347656 L 612.4618530273438 498.9090881347656 L 612.4618530273438 183.09091186523438" fill-opacity="1" clip-path="url(#fkyoPZZeEGHz)"/><path fill="rgb(255,188,66)" stroke="none" paint-order="stroke" d="M 384.63153076171875 183.09091186523438 L 385.50568276643753 183.09091186523438 L 385.50568276643753 498.9090881347656 L 384.63153076171875 498.9090881347656 L 384.63153076171875 183.09091186523438" fill-opacity="1" clip-path="url(#cPtWfoKMBLeG)"/><path fill="rgb(255,188,66)" stroke="none" paint-order="stroke" d="M 614.1079711914062 183.09091186523438 L 614.8159831762314 183.09091186523438 L 614.8159831762314 498.9090881347656 L 614.1079711914062 498.9090881347656 L 614.1079711914062 183.09091186523438" fill-opacity="1" clip-path="url(#cPtWfoKMBLeG)"/><path fill="rgb(255,188,66)" stroke="none" paint-order="stroke" d="M 649.8599853515625 183.09091186523438 L 650.4823713302612 183.09091186523438 L 650.4823713302612 498.9090881347656 L 649.8599853515625 498.9090881347656 L 649.8599853515625 183.09091186523438" fill-opacity="1" clip-path="url(#cPtWfoKMBLeG)"/><path fill="rgb(255,188,66)" stroke="none" paint-order="stroke" d="M 652.7470092773438 183.09091186523438 L 653.2965492606163 183.09091186523438 L 653.2965492606163 498.9090881347656 L 652.7470092773438 498.9090881347656 L 652.7470092773438 183.09091186523438" fill-opacity="1" clip-path="url(#cPtWfoKMBLeG)"/><path fill="rgb(255,188,66)" stroke="none" paint-order="stroke" d="M 654.4237060546875 183.09091186523438 L 654.9285160303116 183.09091186523438 L 654.9285160303116 498.9090881347656 L 654.4237060546875 498.9090881347656 L 654.4237060546875 183.09091186523438" fill-opacity="1" clip-path="url(#cPtWfoKMBLeG)"/><path fill="rgb(216,17,89)" stroke="none" paint-order="stroke" d="M 293.637939453125 183.09091186523438 L 293.70183945447206 183.09091186523438 L 293.70183945447206 498.9090881347656 L 293.637939453125 498.9090881347656 L 293.637939453125 183.09091186523438" fill-opacity="1" clip-path="url(#EpRTibUaJFnk)"/><path fill="rgb(115,210,222)" stroke="none" paint-order="stroke" d="M 387.5274963378906 183.09091186523438 L 387.5913963392377 183.09091186523438 L 387.5913963392377 498.9090881347656 L 387.5274963378906 498.9090881347656 L 387.5274963378906 183.09091186523438" fill-opacity="1" clip-path="url(#fHGBgMqGNWzQ)"/><path fill="rgb(115,210,222)" stroke="none" paint-order="stroke" d="M 387.5274963378906 183.09091186523438 L 387.5913963392377 183.09091186523438 L 387.5913963392377 498.9090881347656 L 387.5274963378906 498.9090881347656 L 387.5274963378906 183.09091186523438" fill-opacity="1" clip-path="url(#fHGBgMqGNWzQ)"/><path fill="rgb(115,210,222)" stroke="none" paint-order="stroke" d="M 388.2303771972656 183.09091186523438 L 388.2942771986127 183.09091186523438 L 388.2942771986127 498.9090881347656 L 388.2303771972656 498.9090881347656 L 388.2303771972656 183.09091186523438" fill-opacity="1" clip-path="url(#fHGBgMqGNWzQ)"/><path fill="rgb(115,210,222)" stroke="none" paint-order="stroke" d="M 388.2303771972656 183.09091186523438 L 388.2942771986127 183.09091186523438 L 388.2942771986127 498.9090881347656 L 388.2303771972656 498.9090881347656 L 388.2303771972656 183.09091186523438" fill-opacity="1" clip-path="url(#fHGBgMqGNWzQ)"/><path fill="rgb(115,210,222)" stroke="none" paint-order="stroke" d="M 388.3709716796875 183.09091186523438 L 388.43487168103456 183.09091186523438 L 388.43487168103456 498.9090881347656 L 388.3709716796875 498.9090881347656 L 388.3709716796875 183.09091186523438" fill-opacity="1" clip-path="url(#fHGBgMqGNWzQ)"/><path fill="rgb(115,210,222)" stroke="none" paint-order="stroke" d="M 388.3709716796875 183.09091186523438 L 388.43487168103456 183.09091186523438 L 388.43487168103456 498.9090881347656 L 388.3709716796875 498.9090881347656 L 388.3709716796875 183.09091186523438" fill-opacity="1" clip-path="url(#fHGBgMqGNWzQ)"/><path fill="rgb(115,210,222)" stroke="none" paint-order="stroke" d="M 388.498779296875 183.09091186523438 L 388.56267929822206 183.09091186523438 L 388.56267929822206 498.9090881347656 L 388.498779296875 498.9090881347656 L 388.498779296875 183.09091186523438" fill-opacity="1" clip-path="url(#fHGBgMqGNWzQ)"/><path fill="rgb(115,210,222)" stroke="none" paint-order="stroke" d="M 388.498779296875 183.09091186523438 L 388.56267929822206 183.09091186523438 L 388.56267929822206 498.9090881347656 L 388.498779296875 498.9090881347656 L 388.498779296875 183.09091186523438" fill-opacity="1" clip-path="url(#fHGBgMqGNWzQ)"/><path fill="rgb(115,210,222)" stroke="none" paint-order="stroke" d="M 388.6265563964844 183.09091186523438 L 388.69045639783144 183.09091186523438 L 388.69045639783144 498.9090881347656 L 388.6265563964844 498.9090881347656 L 388.6265563964844 183.09091186523438" fill-opacity="1" clip-path="url(#fHGBgMqGNWzQ)"/><path fill="rgb(115,210,222)" stroke="none" paint-order="stroke" d="M 388.6265563964844 183.09091186523438 L 388.69045639783144 183.09091186523438 L 388.69045639783144 498.9090881347656 L 388.6265563964844 498.9090881347656 L 388.6265563964844 183.09091186523438" fill-opacity="1" clip-path="url(#fHGBgMqGNWzQ)"/><path fill="rgb(115,210,222)" stroke="none" paint-order="stroke" d="M 388.7530822753906 183.09091186523438 L 388.8169822767377 183.09091186523438 L 388.8169822767377 498.9090881347656 L 388.7530822753906 498.9090881347656 L 388.7530822753906 183.09091186523438" fill-opacity="1" clip-path="url(#fHGBgMqGNWzQ)"/><path fill="rgb(115,210,222)" stroke="none" paint-order="stroke" d="M 388.7530822753906 183.09091186523438 L 388.8169822767377 183.09091186523438 L 388.8169822767377 498.9090881347656 L 388.7530822753906 498.9090881347656 L 388.7530822753906 183.09091186523438" fill-opacity="1" clip-path="url(#fHGBgMqGNWzQ)"/><path fill="rgb(115,210,222)" stroke="none" paint-order="stroke" d="M 388.8808898925781 183.09091186523438 L 388.9447898939252 183.09091186523438 L 388.9447898939252 498.9090881347656 L 388.8808898925781 498.9090881347656 L 388.8808898925781 183.09091186523438" fill-opacity="1" clip-path="url(#fHGBgMqGNWzQ)"/><path fill="rgb(115,210,222)" stroke="none" paint-order="stroke" d="M 388.8808898925781 183.09091186523438 L 388.9447898939252 183.09091186523438 L 388.9447898939252 498.9090881347656 L 388.8808898925781 498.9090881347656 L 388.8808898925781 183.09091186523438" fill-opacity="1" clip-path="url(#fHGBgMqGNWzQ)"/><path fill="rgb(115,210,222)" stroke="none" paint-order="stroke" d="M 389.0086975097656 183.09091186523438 L 389.0725975111127 183.09091186523438 L 389.0725975111127 498.9090881347656 L 389.0086975097656 498.9090881347656 L 389.0086975097656 183.09091186523438" fill-opacity="1" clip-path="url(#fHGBgMqGNWzQ)"/><path fill="rgb(115,210,222)" stroke="none" paint-order="stroke" d="M 389.0086975097656 183.09091186523438 L 389.0725975111127 183.09091186523438 L 389.0725975111127 498.9090881347656 L 389.0086975097656 498.9090881347656 L 389.0086975097656 183.09091186523438" fill-opacity="1" clip-path="url(#fHGBgMqGNWzQ)"/><path fill="rgb(115,210,222)" stroke="none" paint-order="stroke" d="M 389.1365051269531 183.09091186523438 L 389.2004051283002 183.09091186523438 L 389.2004051283002 498.9090881347656 L 389.1365051269531 498.9090881347656 L 389.1365051269531 183.09091186523438" fill-opacity="1" clip-path="url(#fHGBgMqGNWzQ)"/><path fill="rgb(115,210,222)" stroke="none" paint-order="stroke" d="M 389.1365051269531 183.09091186523438 L 389.2004051283002 183.09091186523438 L 389.2004051283002 498.9090881347656 L 389.1365051269531 498.9090881347656 L 389.1365051269531 183.09091186523438" fill-opacity="1" clip-path="url(#fHGBgMqGNWzQ)"/><path fill="rgb(115,210,222)" stroke="none" paint-order="stroke" d="M 390.6534729003906 183.09091186523438 L 390.83367089927197 183.09091186523438 L 390.83367089927197 498.9090881347656 L 390.6534729003906 498.9090881347656 L 390.6534729003906 183.09091186523438" fill-opacity="1" clip-path="url(#fHGBgMqGNWzQ)"/><path fill="rgb(115,210,222)" stroke="none" paint-order="stroke" d="M 391.3614807128906 183.09091186523438 L 392.1282806992531 183.09091186523438 L 392.1282806992531 498.9090881347656 L 391.3614807128906 498.9090881347656 L 391.3614807128906 183.09091186523438" fill-opacity="1" clip-path="url(#fHGBgMqGNWzQ)"/><path fill="rgb(115,210,222)" stroke="none" paint-order="stroke" d="M 598.11376953125 183.09091186523438 L 605.2629013061523 183.09091186523438 L 605.2629013061523 498.9090881347656 L 598.11376953125 498.9090881347656 L 598.11376953125 183.09091186523438" fill-opacity="1" clip-path="url(#fHGBgMqGNWzQ)"/><path fill="rgb(115,210,222)" stroke="none" paint-order="stroke" d="M 607.5569458007812 183.09091186523438 L 607.6208458021283 183.09091186523438 L 607.6208458021283 498.9090881347656 L 607.5569458007812 498.9090881347656 L 607.5569458007812 183.09091186523438" fill-opacity="1" clip-path="url(#fHGBgMqGNWzQ)"/><path fill="rgb(115,210,222)" stroke="none" paint-order="stroke" d="M 607.5569458007812 183.09091186523438 L 607.6208458021283 183.09091186523438 L 607.6208458021283 498.9090881347656 L 607.5569458007812 498.9090881347656 L 607.5569458007812 183.09091186523438" fill-opacity="1" clip-path="url(#fHGBgMqGNWzQ)"/><path fill="rgb(115,210,222)" stroke="none" paint-order="stroke" d="M 607.7933349609375 183.09091186523438 L 607.8572349622846 183.09091186523438 L 607.8572349622846 498.9090881347656 L 607.7933349609375 498.9090881347656 L 607.7933349609375 183.09091186523438" fill-opacity="1" clip-path="url(#fHGBgMqGNWzQ)"/><path fill="rgb(115,210,222)" stroke="none" paint-order="stroke" d="M 607.7933349609375 183.09091186523438 L 607.8572349622846 183.09091186523438 L 607.8572349622846 498.9090881347656 L 607.7933349609375 498.9090881347656 L 607.7933349609375 183.09091186523438" fill-opacity="1" clip-path="url(#fHGBgMqGNWzQ)"/><path fill="rgb(115,210,222)" stroke="none" paint-order="stroke" d="M 608.0310668945312 183.09091186523438 L 608.0949668958783 183.09091186523438 L 608.0949668958783 498.9090881347656 L 608.0310668945312 498.9090881347656 L 608.0310668945312 183.09091186523438" fill-opacity="1" clip-path="url(#fHGBgMqGNWzQ)"/><path fill="rgb(115,210,222)" stroke="none" paint-order="stroke" d="M 608.0310668945312 183.09091186523438 L 608.0949668958783 183.09091186523438 L 608.0949668958783 498.9090881347656 L 608.0310668945312 498.9090881347656 L 608.0310668945312 183.09091186523438" fill-opacity="1" clip-path="url(#fHGBgMqGNWzQ)"/><path fill="rgb(115,210,222)" stroke="none" paint-order="stroke" d="M 608.308349609375 183.09091186523438 L 608.3722496107221 183.09091186523438 L 608.3722496107221 498.9090881347656 L 608.308349609375 498.9090881347656 L 608.308349609375 183.09091186523438" fill-opacity="1" clip-path="url(#fHGBgMqGNWzQ)"/><path fill="rgb(115,210,222)" stroke="none" paint-order="stroke" d="M 608.308349609375 183.09091186523438 L 608.3722496107221 183.09091186523438 L 608.3722496107221 498.9090881347656 L 608.308349609375 498.9090881347656 L 608.308349609375 183.09091186523438" fill-opacity="1" clip-path="url(#fHGBgMqGNWzQ)"/><path fill="rgb(115,210,222)" stroke="none" paint-order="stroke" d="M 608.5064697265625 183.09091186523438 L 608.5703697279096 183.09091186523438 L 608.5703697279096 498.9090881347656 L 608.5064697265625 498.9090881347656 L 608.5064697265625 183.09091186523438" fill-opacity="1" clip-path="url(#fHGBgMqGNWzQ)"/><path fill="rgb(115,210,222)" stroke="none" paint-order="stroke" d="M 608.5064697265625 183.09091186523438 L 608.5703697279096 183.09091186523438 L 608.5703697279096 498.9090881347656 L 608.5064697265625 498.9090881347656 L 608.5064697265625 183.09091186523438" fill-opacity="1" clip-path="url(#fHGBgMqGNWzQ)"/><path fill="rgb(115,210,222)" stroke="none" paint-order="stroke" d="M 608.7237548828125 183.09091186523438 L 608.7876548841596 183.09091186523438 L 608.7876548841596 498.9090881347656 L 608.7237548828125 498.9090881347656 L 608.7237548828125 183.09091186523438" fill-opacity="1" clip-path="url(#fHGBgMqGNWzQ)"/><path fill="rgb(115,210,222)" stroke="none" paint-order="stroke" d="M 608.7237548828125 183.09091186523438 L 608.7876548841596 183.09091186523438 L 608.7876548841596 498.9090881347656 L 608.7237548828125 498.9090881347656 L 608.7237548828125 183.09091186523438" fill-opacity="1" clip-path="url(#fHGBgMqGNWzQ)"/><path fill="rgb(115,210,222)" stroke="none" paint-order="stroke" d="M 608.9409790039062 183.09091186523438 L 609.0048790052533 183.09091186523438 L 609.0048790052533 498.9090881347656 L 608.9409790039062 498.9090881347656 L 608.9409790039062 183.09091186523438" fill-opacity="1" clip-path="url(#fHGBgMqGNWzQ)"/><path fill="rgb(115,210,222)" stroke="none" paint-order="stroke" d="M 608.9409790039062 183.09091186523438 L 609.0048790052533 183.09091186523438 L 609.0048790052533 498.9090881347656 L 608.9409790039062 498.9090881347656 L 608.9409790039062 183.09091186523438" fill-opacity="1" clip-path="url(#fHGBgMqGNWzQ)"/><path fill="rgb(115,210,222)" stroke="none" paint-order="stroke" d="M 609.2579345703125 183.09091186523438 L 609.3218345716596 183.09091186523438 L 609.3218345716596 498.9090881347656 L 609.2579345703125 498.9090881347656 L 609.2579345703125 183.09091186523438" fill-opacity="1" clip-path="url(#fHGBgMqGNWzQ)"/><path fill="rgb(115,210,222)" stroke="none" paint-order="stroke" d="M 609.2579345703125 183.09091186523438 L 609.3218345716596 183.09091186523438 L 609.3218345716596 498.9090881347656 L 609.2579345703125 498.9090881347656 L 609.2579345703125 183.09091186523438" fill-opacity="1" clip-path="url(#fHGBgMqGNWzQ)"/><path fill="rgb(115,210,222)" stroke="none" paint-order="stroke" d="M 609.5148315429688 183.09091186523438 L 609.5787315443158 183.09091186523438 L 609.5787315443158 498.9090881347656 L 609.5148315429688 498.9090881347656 L 609.5148315429688 183.09091186523438" fill-opacity="1" clip-path="url(#fHGBgMqGNWzQ)"/><path fill="rgb(115,210,222)" stroke="none" paint-order="stroke" d="M 609.5148315429688 183.09091186523438 L 609.5787315443158 183.09091186523438 L 609.5787315443158 498.9090881347656 L 609.5148315429688 498.9090881347656 L 609.5148315429688 183.09091186523438" fill-opacity="1" clip-path="url(#fHGBgMqGNWzQ)"/><path fill="rgb(115,210,222)" stroke="none" paint-order="stroke" d="M 609.7921142578125 183.09091186523438 L 609.8560142591596 183.09091186523438 L 609.8560142591596 498.9090881347656 L 609.7921142578125 498.9090881347656 L 609.7921142578125 183.09091186523438" fill-opacity="1" clip-path="url(#fHGBgMqGNWzQ)"/><path fill="rgb(115,210,222)" stroke="none" paint-order="stroke" d="M 609.7921142578125 183.09091186523438 L 609.8560142591596 183.09091186523438 L 609.8560142591596 498.9090881347656 L 609.7921142578125 498.9090881347656 L 609.7921142578125 183.09091186523438" fill-opacity="1" clip-path="url(#fHGBgMqGNWzQ)"/><path fill="rgb(115,210,222)" stroke="none" paint-order="stroke" d="M 610.088623046875 183.09091186523438 L 610.1525230482221 183.09091186523438 L 610.1525230482221 498.9090881347656 L 610.088623046875 498.9090881347656 L 610.088623046875 183.09091186523438" fill-opacity="1" clip-path="url(#fHGBgMqGNWzQ)"/><path fill="rgb(115,210,222)" stroke="none" paint-order="stroke" d="M 610.088623046875 183.09091186523438 L 610.1525230482221 183.09091186523438 L 610.1525230482221 498.9090881347656 L 610.088623046875 498.9090881347656 L 610.088623046875 183.09091186523438" fill-opacity="1" clip-path="url(#fHGBgMqGNWzQ)"/><path fill="rgb(115,210,222)" stroke="none" paint-order="stroke" d="M 622.7664184570312 183.09091186523438 L 628.390896320343 183.09091186523438 L 628.390896320343 498.9090881347656 L 622.7664184570312 498.9090881347656 L 622.7664184570312 183.09091186523438" fill-opacity="1" clip-path="url(#fHGBgMqGNWzQ)"/><path fill="rgb(115,210,222)" stroke="none" paint-order="stroke" d="M 629.3851318359375 183.09091186523438 L 629.4490318372846 183.09091186523438 L 629.4490318372846 498.9090881347656 L 629.3851318359375 498.9090881347656 L 629.3851318359375 183.09091186523438" fill-opacity="1" clip-path="url(#fHGBgMqGNWzQ)"/><path fill="rgb(115,210,222)" stroke="none" paint-order="stroke" d="M 629.3851318359375 183.09091186523438 L 629.4490318372846 183.09091186523438 L 629.4490318372846 498.9090881347656 L 629.3851318359375 498.9090881347656 L 629.3851318359375 183.09091186523438" fill-opacity="1" clip-path="url(#fHGBgMqGNWzQ)"/><path fill="rgb(115,210,222)" stroke="none" paint-order="stroke" d="M 629.6126098632812 183.09091186523438 L 629.6765098646283 183.09091186523438 L 629.6765098646283 498.9090881347656 L 629.6126098632812 498.9090881347656 L 629.6126098632812 183.09091186523438" fill-opacity="1" clip-path="url(#fHGBgMqGNWzQ)"/><path fill="rgb(115,210,222)" stroke="none" paint-order="stroke" d="M 629.6126098632812 183.09091186523438 L 629.6765098646283 183.09091186523438 L 629.6765098646283 498.9090881347656 L 629.6126098632812 498.9090881347656 L 629.6126098632812 183.09091186523438" fill-opacity="1" clip-path="url(#fHGBgMqGNWzQ)"/><path fill="rgb(115,210,222)" stroke="none" paint-order="stroke" d="M 629.8695068359375 183.09091186523438 L 629.9334068372846 183.09091186523438 L 629.9334068372846 498.9090881347656 L 629.8695068359375 498.9090881347656 L 629.8695068359375 183.09091186523438" fill-opacity="1" clip-path="url(#fHGBgMqGNWzQ)"/><path fill="rgb(115,210,222)" stroke="none" paint-order="stroke" d="M 629.8695068359375 183.09091186523438 L 629.9334068372846 183.09091186523438 L 629.9334068372846 498.9090881347656 L 629.8695068359375 498.9090881347656 L 629.8695068359375 183.09091186523438" fill-opacity="1" clip-path="url(#fHGBgMqGNWzQ)"/><path fill="rgb(115,210,222)" stroke="none" paint-order="stroke" d="M 630.0394897460938 183.09091186523438 L 630.1033897474408 183.09091186523438 L 630.1033897474408 498.9090881347656 L 630.0394897460938 498.9090881347656 L 630.0394897460938 183.09091186523438" fill-opacity="1" clip-path="url(#fHGBgMqGNWzQ)"/><path fill="rgb(115,210,222)" stroke="none" paint-order="stroke" d="M 630.0394897460938 183.09091186523438 L 630.1033897474408 183.09091186523438 L 630.1033897474408 498.9090881347656 L 630.0394897460938 498.9090881347656 L 630.0394897460938 183.09091186523438" fill-opacity="1" clip-path="url(#fHGBgMqGNWzQ)"/><path fill="rgb(115,210,222)" stroke="none" paint-order="stroke" d="M 630.20947265625 183.09091186523438 L 630.2733726575971 183.09091186523438 L 630.2733726575971 498.9090881347656 L 630.20947265625 498.9090881347656 L 630.20947265625 183.09091186523438" fill-opacity="1" clip-path="url(#fHGBgMqGNWzQ)"/><path fill="rgb(115,210,222)" stroke="none" paint-order="stroke" d="M 630.20947265625 183.09091186523438 L 630.2733726575971 183.09091186523438 L 630.2733726575971 498.9090881347656 L 630.20947265625 498.9090881347656 L 630.20947265625 183.09091186523438" fill-opacity="1" clip-path="url(#fHGBgMqGNWzQ)"/><path fill="rgb(115,210,222)" stroke="none" paint-order="stroke" d="M 630.5353393554688 183.09091186523438 L 630.5992393568158 183.09091186523438 L 630.5992393568158 498.9090881347656 L 630.5353393554688 498.9090881347656 L 630.5353393554688 183.09091186523438" fill-opacity="1" clip-path="url(#fHGBgMqGNWzQ)"/><path fill="rgb(115,210,222)" stroke="none" paint-order="stroke" d="M 630.5353393554688 183.09091186523438 L 630.5992393568158 183.09091186523438 L 630.5992393568158 498.9090881347656 L 630.5353393554688 498.9090881347656 L 630.5353393554688 183.09091186523438" fill-opacity="1" clip-path="url(#fHGBgMqGNWzQ)"/><path fill="rgb(115,210,222)" stroke="none" paint-order="stroke" d="M 630.7385864257812 183.09091186523438 L 630.8024864271283 183.09091186523438 L 630.8024864271283 498.9090881347656 L 630.7385864257812 498.9090881347656 L 630.7385864257812 183.09091186523438" fill-opacity="1" clip-path="url(#fHGBgMqGNWzQ)"/><path fill="rgb(115,210,222)" stroke="none" paint-order="stroke" d="M 630.7385864257812 183.09091186523438 L 630.8024864271283 183.09091186523438 L 630.8024864271283 498.9090881347656 L 630.7385864257812 498.9090881347656 L 630.7385864257812 183.09091186523438" fill-opacity="1" clip-path="url(#fHGBgMqGNWzQ)"/><path fill="rgb(115,210,222)" stroke="none" paint-order="stroke" d="M 631.0631713867188 183.09091186523438 L 631.1270713880658 183.09091186523438 L 631.1270713880658 498.9090881347656 L 631.0631713867188 498.9090881347656 L 631.0631713867188 183.09091186523438" fill-opacity="1" clip-path="url(#fHGBgMqGNWzQ)"/><path fill="rgb(115,210,222)" stroke="none" paint-order="stroke" d="M 631.0631713867188 183.09091186523438 L 631.1270713880658 183.09091186523438 L 631.1270713880658 498.9090881347656 L 631.0631713867188 498.9090881347656 L 631.0631713867188 183.09091186523438" fill-opacity="1" clip-path="url(#fHGBgMqGNWzQ)"/><path fill="rgb(115,210,222)" stroke="none" paint-order="stroke" d="M 631.293212890625 183.09091186523438 L 631.3571128919721 183.09091186523438 L 631.3571128919721 498.9090881347656 L 631.293212890625 498.9090881347656 L 631.293212890625 183.09091186523438" fill-opacity="1" clip-path="url(#fHGBgMqGNWzQ)"/><path fill="rgb(115,210,222)" stroke="none" paint-order="stroke" d="M 631.293212890625 183.09091186523438 L 631.3571128919721 183.09091186523438 L 631.3571128919721 498.9090881347656 L 631.293212890625 498.9090881347656 L 631.293212890625 183.09091186523438" fill-opacity="1" clip-path="url(#fHGBgMqGNWzQ)"/><path fill="rgb(115,210,222)" stroke="none" paint-order="stroke" d="M 631.680419921875 183.09091186523438 L 631.7443199232221 183.09091186523438 L 631.7443199232221 498.9090881347656 L 631.680419921875 498.9090881347656 L 631.680419921875 183.09091186523438" fill-opacity="1" clip-path="url(#fHGBgMqGNWzQ)"/><path fill="rgb(115,210,222)" stroke="none" paint-order="stroke" d="M 631.680419921875 183.09091186523438 L 631.7443199232221 183.09091186523438 L 631.7443199232221 498.9090881347656 L 631.680419921875 498.9090881347656 L 631.680419921875 183.09091186523438" fill-opacity="1" clip-path="url(#fHGBgMqGNWzQ)"/><path fill="rgb(115,210,222)" stroke="none" paint-order="stroke" d="M 632.1469116210938 183.09091186523438 L 632.2108116224408 183.09091186523438 L 632.2108116224408 498.9090881347656 L 632.1469116210938 498.9090881347656 L 632.1469116210938 183.09091186523438" fill-opacity="1" clip-path="url(#fHGBgMqGNWzQ)"/><path fill="rgb(115,210,222)" stroke="none" paint-order="stroke" d="M 632.1469116210938 183.09091186523438 L 632.2108116224408 183.09091186523438 L 632.2108116224408 498.9090881347656 L 632.1469116210938 498.9090881347656 L 632.1469116210938 183.09091186523438" fill-opacity="1" clip-path="url(#fHGBgMqGNWzQ)"/><path fill="rgb(115,210,222)" stroke="none" paint-order="stroke" d="M 632.3641967773438 183.09091186523438 L 632.4280967786908 183.09091186523438 L 632.4280967786908 498.9090881347656 L 632.3641967773438 498.9090881347656 L 632.3641967773438 183.09091186523438" fill-opacity="1" clip-path="url(#fHGBgMqGNWzQ)"/><path fill="rgb(115,210,222)" stroke="none" paint-order="stroke" d="M 632.3641967773438 183.09091186523438 L 632.4280967786908 183.09091186523438 L 632.4280967786908 498.9090881347656 L 632.3641967773438 498.9090881347656 L 632.3641967773438 183.09091186523438" fill-opacity="1" clip-path="url(#fHGBgMqGNWzQ)"/><path fill="rgb(115,210,222)" stroke="none" paint-order="stroke" d="M 632.5596923828125 183.09091186523438 L 632.6235923841596 183.09091186523438 L 632.6235923841596 498.9090881347656 L 632.5596923828125 498.9090881347656 L 632.5596923828125 183.09091186523438" fill-opacity="1" clip-path="url(#fHGBgMqGNWzQ)"/><path fill="rgb(115,210,222)" stroke="none" paint-order="stroke" d="M 632.5596923828125 183.09091186523438 L 632.6235923841596 183.09091186523438 L 632.6235923841596 498.9090881347656 L 632.5596923828125 498.9090881347656 L 632.5596923828125 183.09091186523438" fill-opacity="1" clip-path="url(#fHGBgMqGNWzQ)"/><path fill="rgb(115,210,222)" stroke="none" paint-order="stroke" d="M 632.769287109375 183.09091186523438 L 632.8331871107221 183.09091186523438 L 632.8331871107221 498.9090881347656 L 632.769287109375 498.9090881347656 L 632.769287109375 183.09091186523438" fill-opacity="1" clip-path="url(#fHGBgMqGNWzQ)"/><path fill="rgb(115,210,222)" stroke="none" paint-order="stroke" d="M 632.769287109375 183.09091186523438 L 632.8331871107221 183.09091186523438 L 632.8331871107221 498.9090881347656 L 632.769287109375 498.9090881347656 L 632.769287109375 183.09091186523438" fill-opacity="1" clip-path="url(#fHGBgMqGNWzQ)"/><path fill="rgb(115,210,222)" stroke="none" paint-order="stroke" d="M 632.9840087890625 183.09091186523438 L 633.0479087904096 183.09091186523438 L 633.0479087904096 498.9090881347656 L 632.9840087890625 498.9090881347656 L 632.9840087890625 183.09091186523438" fill-opacity="1" clip-path="url(#fHGBgMqGNWzQ)"/><path fill="rgb(115,210,222)" stroke="none" paint-order="stroke" d="M 632.9840087890625 183.09091186523438 L 633.0479087904096 183.09091186523438 L 633.0479087904096 498.9090881347656 L 632.9840087890625 498.9090881347656 L 632.9840087890625 183.09091186523438" fill-opacity="1" clip-path="url(#fHGBgMqGNWzQ)"/><path fill="rgb(115,210,222)" stroke="none" paint-order="stroke" d="M 633.1948852539062 183.09091186523438 L 633.2587852552533 183.09091186523438 L 633.2587852552533 498.9090881347656 L 633.1948852539062 498.9090881347656 L 633.1948852539062 183.09091186523438" fill-opacity="1" clip-path="url(#fHGBgMqGNWzQ)"/><path fill="rgb(115,210,222)" stroke="none" paint-order="stroke" d="M 633.1948852539062 183.09091186523438 L 633.2587852552533 183.09091186523438 L 633.2587852552533 498.9090881347656 L 633.1948852539062 498.9090881347656 L 633.1948852539062 183.09091186523438" fill-opacity="1" clip-path="url(#fHGBgMqGNWzQ)"/><path fill="rgb(115,210,222)" stroke="none" paint-order="stroke" d="M 633.6306762695312 183.09091186523438 L 633.6945762708783 183.09091186523438 L 633.6945762708783 498.9090881347656 L 633.6306762695312 498.9090881347656 L 633.6306762695312 183.09091186523438" fill-opacity="1" clip-path="url(#fHGBgMqGNWzQ)"/><path fill="rgb(115,210,222)" stroke="none" paint-order="stroke" d="M 633.6306762695312 183.09091186523438 L 633.6945762708783 183.09091186523438 L 633.6945762708783 498.9090881347656 L 633.6306762695312 498.9090881347656 L 633.6306762695312 183.09091186523438" fill-opacity="1" clip-path="url(#fHGBgMqGNWzQ)"/><path fill="rgb(115,210,222)" stroke="none" paint-order="stroke" d="M 633.9412231445312 183.09091186523438 L 634.0051231458783 183.09091186523438 L 634.0051231458783 498.9090881347656 L 633.9412231445312 498.9090881347656 L 633.9412231445312 183.09091186523438" fill-opacity="1" clip-path="url(#fHGBgMqGNWzQ)"/><path fill="rgb(115,210,222)" stroke="none" paint-order="stroke" d="M 633.9412231445312 183.09091186523438 L 634.0051231458783 183.09091186523438 L 634.0051231458783 498.9090881347656 L 633.9412231445312 498.9090881347656 L 633.9412231445312 183.09091186523438" fill-opacity="1" clip-path="url(#fHGBgMqGNWzQ)"/><path fill="rgb(115,210,222)" stroke="none" paint-order="stroke" d="M 634.2799072265625 183.09091186523438 L 634.3438072279096 183.09091186523438 L 634.3438072279096 498.9090881347656 L 634.2799072265625 498.9090881347656 L 634.2799072265625 183.09091186523438" fill-opacity="1" clip-path="url(#fHGBgMqGNWzQ)"/><path fill="rgb(115,210,222)" stroke="none" paint-order="stroke" d="M 634.2799072265625 183.09091186523438 L 634.3438072279096 183.09091186523438 L 634.3438072279096 498.9090881347656 L 634.2799072265625 498.9090881347656 L 634.2799072265625 183.09091186523438" fill-opacity="1" clip-path="url(#fHGBgMqGNWzQ)"/><path fill="rgb(115,210,222)" stroke="none" paint-order="stroke" d="M 634.7642822265625 183.09091186523438 L 634.8281822279096 183.09091186523438 L 634.8281822279096 498.9090881347656 L 634.7642822265625 498.9090881347656 L 634.7642822265625 183.09091186523438" fill-opacity="1" clip-path="url(#fHGBgMqGNWzQ)"/><path fill="rgb(115,210,222)" stroke="none" paint-order="stroke" d="M 634.7642822265625 183.09091186523438 L 634.8281822279096 183.09091186523438 L 634.8281822279096 498.9090881347656 L 634.7642822265625 498.9090881347656 L 634.7642822265625 183.09091186523438" fill-opacity="1" clip-path="url(#fHGBgMqGNWzQ)"/><path fill="rgb(115,210,222)" stroke="none" paint-order="stroke" d="M 667.5756225585938 183.09091186523438 L 667.7251485586166 183.09091186523438 L 667.7251485586166 498.9090881347656 L 667.5756225585938 498.9090881347656 L 667.5756225585938 183.09091186523438" fill-opacity="1" clip-path="url(#fHGBgMqGNWzQ)"/><path fill="rgb(115,210,222)" stroke="none" paint-order="stroke" d="M 668.7335205078125 183.09091186523438 L 668.8242585062981 183.09091186523438 L 668.8242585062981 498.9090881347656 L 668.7335205078125 498.9090881347656 L 668.7335205078125 183.09091186523438" fill-opacity="1" clip-path="url(#fHGBgMqGNWzQ)"/><path fill="rgb(115,210,222)" stroke="none" paint-order="stroke" d="M 671.19873046875 183.09091186523438 L 671.2818004712462 183.09091186523438 L 671.2818004712462 498.9090881347656 L 671.19873046875 498.9090881347656 L 671.19873046875 183.09091186523438" fill-opacity="1" clip-path="url(#fHGBgMqGNWzQ)"/><path fill="rgb(115,210,222)" stroke="none" paint-order="stroke" d="M 672.2339477539062 183.09091186523438 L 674.5854678153992 183.09091186523438 L 674.5854678153992 498.9090881347656 L 672.2339477539062 498.9090881347656 L 672.2339477539062 183.09091186523438" fill-opacity="1" clip-path="url(#fHGBgMqGNWzQ)"/><path fill="rgb(115,210,222)" stroke="none" paint-order="stroke" d="M 675.7318115234375 183.09091186523438 L 675.7957115247846 183.09091186523438 L 675.7957115247846 498.9090881347656 L 675.7318115234375 498.9090881347656 L 675.7318115234375 183.09091186523438" fill-opacity="1" clip-path="url(#fHGBgMqGNWzQ)"/><path fill="rgb(115,210,222)" stroke="none" paint-order="stroke" d="M 675.7318115234375 183.09091186523438 L 675.7957115247846 183.09091186523438 L 675.7957115247846 498.9090881347656 L 675.7318115234375 498.9090881347656 L 675.7318115234375 183.09091186523438" fill-opacity="1" clip-path="url(#fHGBgMqGNWzQ)"/><path fill="rgb(115,210,222)" stroke="none" paint-order="stroke" d="M 675.9695434570312 183.09091186523438 L 676.0334434583783 183.09091186523438 L 676.0334434583783 498.9090881347656 L 675.9695434570312 498.9090881347656 L 675.9695434570312 183.09091186523438" fill-opacity="1" clip-path="url(#fHGBgMqGNWzQ)"/><path fill="rgb(115,210,222)" stroke="none" paint-order="stroke" d="M 675.9695434570312 183.09091186523438 L 676.0334434583783 183.09091186523438 L 676.0334434583783 498.9090881347656 L 675.9695434570312 498.9090881347656 L 675.9695434570312 183.09091186523438" fill-opacity="1" clip-path="url(#fHGBgMqGNWzQ)"/><path fill="rgb(115,210,222)" stroke="none" paint-order="stroke" d="M 676.1778564453125 183.09091186523438 L 676.2417564466596 183.09091186523438 L 676.2417564466596 498.9090881347656 L 676.1778564453125 498.9090881347656 L 676.1778564453125 183.09091186523438" fill-opacity="1" clip-path="url(#fHGBgMqGNWzQ)"/><path fill="rgb(115,210,222)" stroke="none" paint-order="stroke" d="M 676.1778564453125 183.09091186523438 L 676.2417564466596 183.09091186523438 L 676.2417564466596 498.9090881347656 L 676.1778564453125 498.9090881347656 L 676.1778564453125 183.09091186523438" fill-opacity="1" clip-path="url(#fHGBgMqGNWzQ)"/><path fill="rgb(28,49,68)" stroke="none" paint-order="stroke" d="M 131.30126953125 183.09091186523438 L 132.26488155126572 183.09091186523438 L 132.26488155126572 498.9090881347656 L 131.30126953125 498.9090881347656 L 131.30126953125 183.09091186523438" fill-opacity="1" clip-path="url(#fTNMcNIRluHT)"/><path fill="rgb(28,49,68)" stroke="none" paint-order="stroke" d="M 133.3805694580078 183.09091186523438 L 134.915447473526 183.09091186523438 L 134.915447473526 498.9090881347656 L 133.3805694580078 498.9090881347656 L 133.3805694580078 183.09091186523438" fill-opacity="1" clip-path="url(#fTNMcNIRluHT)"/><path fill="rgb(28,49,68)" stroke="none" paint-order="stroke" d="M 162.11129760742188 183.09091186523438 L 165.1388795375824 183.09091186523438 L 165.1388795375824 498.9090881347656 L 162.11129760742188 498.9090881347656 L 162.11129760742188 183.09091186523438" fill-opacity="1" clip-path="url(#fTNMcNIRluHT)"/><path fill="rgb(28,49,68)" stroke="none" paint-order="stroke" d="M 184.87503051757812 183.09091186523438 L 185.70445251464844 183.09091186523438 L 185.70445251464844 498.9090881347656 L 184.87503051757812 498.9090881347656 L 184.87503051757812 183.09091186523438" fill-opacity="1" clip-path="url(#fTNMcNIRluHT)"/><path fill="rgb(28,49,68)" stroke="none" paint-order="stroke" d="M 374.6682434082031 183.09091186523438 L 380.12402534484863 183.09091186523438 L 380.12402534484863 498.9090881347656 L 374.6682434082031 498.9090881347656 L 374.6682434082031 183.09091186523438" fill-opacity="1" clip-path="url(#fTNMcNIRluHT)"/><path fill="rgb(28,49,68)" stroke="none" paint-order="stroke" d="M 658.0455932617188 183.09091186523438 L 661.9102652072906 183.09091186523438 L 661.9102652072906 498.9090881347656 L 658.0455932617188 498.9090881347656 L 658.0455932617188 183.09091186523438" fill-opacity="1" clip-path="url(#fTNMcNIRluHT)"/><path fill="rgb(239,185,203)" stroke="none" paint-order="stroke" d="M 62.74551773071289 183.09091186523438 L 100.81202697753906 183.09091186523438 L 100.81202697753906 498.9090881347656 L 62.74551773071289 498.9090881347656 L 62.74551773071289 183.09091186523438" fill-opacity="1" clip-path="url(#xwAXTaSLsvIq)"/><path fill="rgb(239,185,203)" stroke="none" paint-order="stroke" d="M 106.65248107910156 183.09091186523438 L 128.74271202087402 183.09091186523438 L 128.74271202087402 498.9090881347656 L 106.65248107910156 498.9090881347656 L 106.65248107910156 183.09091186523438" fill-opacity="1" clip-path="url(#xwAXTaSLsvIq)"/><path fill="rgb(239,185,203)" stroke="none" paint-order="stroke" d="M 146.30116271972656 183.09091186523438 L 156.0152406692505 183.09091186523438 L 156.0152406692505 498.9090881347656 L 146.30116271972656 498.9090881347656 L 146.30116271972656 183.09091186523438" fill-opacity="1" clip-path="url(#xwAXTaSLsvIq)"/><path fill="rgb(239,185,203)" stroke="none" paint-order="stroke" d="M 166.98046875 183.09091186523438 L 181.99824714660645 183.09091186523438 L 181.99824714660645 498.9090881347656 L 166.98046875 498.9090881347656 L 166.98046875 183.09091186523438" fill-opacity="1" clip-path="url(#xwAXTaSLsvIq)"/><path fill="rgb(239,185,203)" stroke="none" paint-order="stroke" d="M 201.1963653564453 183.09091186523438 L 205.95180320739746 183.09091186523438 L 205.95180320739746 498.9090881347656 L 201.1963653564453 498.9090881347656 L 201.1963653564453 183.09091186523438" fill-opacity="1" clip-path="url(#xwAXTaSLsvIq)"/><path fill="rgb(239,185,203)" stroke="none" paint-order="stroke" d="M 214.8837432861328 183.09091186523438 L 221.88334941864014 183.09091186523438 L 221.88334941864014 498.9090881347656 L 214.8837432861328 498.9090881347656 L 214.8837432861328 183.09091186523438" fill-opacity="1" clip-path="url(#xwAXTaSLsvIq)"/><path fill="rgb(239,185,203)" stroke="none" paint-order="stroke" d="M 231.15396118164062 183.09091186523438 L 248.80058479309082 183.09091186523438 L 248.80058479309082 498.9090881347656 L 231.15396118164062 498.9090881347656 L 231.15396118164062 183.09091186523438" fill-opacity="1" clip-path="url(#xwAXTaSLsvIq)"/><path fill="rgb(239,185,203)" stroke="none" paint-order="stroke" d="M 280.2904968261719 183.09091186523438 L 284.2280147075653 183.09091186523438 L 284.2280147075653 498.9090881347656 L 280.2904968261719 498.9090881347656 L 280.2904968261719 183.09091186523438" fill-opacity="1" clip-path="url(#xwAXTaSLsvIq)"/><path fill="rgb(239,185,203)" stroke="none" paint-order="stroke" d="M 336.5966491699219 183.09091186523438 L 371.8796730041504 183.09091186523438 L 371.8796730041504 498.9090881347656 L 336.5966491699219 498.9090881347656 L 336.5966491699219 183.09091186523438" fill-opacity="1" clip-path="url(#xwAXTaSLsvIq)"/><path fill="rgb(239,185,203)" stroke="none" paint-order="stroke" d="M 394.3890686035156 183.09091186523438 L 417.3675079345703 183.09091186523438 L 417.3675079345703 498.9090881347656 L 394.3890686035156 498.9090881347656 L 394.3890686035156 183.09091186523438" fill-opacity="1" clip-path="url(#xwAXTaSLsvIq)"/><path fill="rgb(239,185,203)" stroke="none" paint-order="stroke" d="M 427.853515625 183.09091186523438 L 543.4115524291992 183.09091186523438 L 543.4115524291992 498.9090881347656 L 427.853515625 498.9090881347656 L 427.853515625 183.09091186523438" fill-opacity="1" clip-path="url(#xwAXTaSLsvIq)"/><path fill="rgb(239,185,203)" stroke="none" paint-order="stroke" d="M 547.4500122070312 183.09091186523438 L 585.047492980957 183.09091186523438 L 585.047492980957 498.9090881347656 L 547.4500122070312 498.9090881347656 L 547.4500122070312 183.09091186523438" fill-opacity="1" clip-path="url(#xwAXTaSLsvIq)"/><path fill="rgb(105,29,48)" stroke="none" paint-order="stroke" d="M 297.3390197753906 183.09091186523438 L 317.1748580932617 183.09091186523438 L 317.1748580932617 498.9090881347656 L 297.3390197753906 498.9090881347656 L 297.3390197753906 183.09091186523438" fill-opacity="1" clip-path="url(#lXNtxmIpuwoR)"/><path fill="rgb(105,29,48)" stroke="none" paint-order="stroke" d="M 323.8396301269531 183.09091186523438 L 323.9278121292591 183.09091186523438 L 323.9278121292591 498.9090881347656 L 323.8396301269531 498.9090881347656 L 323.8396301269531 183.09091186523438" fill-opacity="1" clip-path="url(#lXNtxmIpuwoR)"/><path fill="rgb(105,29,48)" stroke="none" paint-order="stroke" d="M 325.0205078125 183.09091186523438 L 325.1585318148136 183.09091186523438 L 325.1585318148136 498.9090881347656 L 325.0205078125 498.9090881347656 L 325.0205078125 183.09091186523438" fill-opacity="1" clip-path="url(#lXNtxmIpuwoR)"/><path fill="rgb(105,29,48)" stroke="none" paint-order="stroke" d="M 326.7675476074219 183.09091186523438 L 326.85828560590744 183.09091186523438 L 326.85828560590744 498.9090881347656 L 326.7675476074219 498.9090881347656 L 326.7675476074219 183.09091186523438" fill-opacity="1" clip-path="url(#lXNtxmIpuwoR)"/><path fill="rgb(105,29,48)" stroke="none" paint-order="stroke" d="M 328.6065673828125 183.09091186523438 L 328.67941338568926 183.09091186523438 L 328.67941338568926 498.9090881347656 L 328.6065673828125 498.9090881347656 L 328.6065673828125 183.09091186523438" fill-opacity="1" clip-path="url(#lXNtxmIpuwoR)"/><path fill="rgb(255,188,66)" stroke="none" paint-order="stroke" d="M 142.28695678710938 498.9090881347656 L 142.49910478293896 498.9090881347656 L 142.49910478293896 551.5454521179199 L 142.28695678710938 551.5454521179199 L 142.28695678710938 498.9090881347656" fill-opacity="1" clip-path="url(#TtRAgIMTPJTg)"/><path fill="rgb(255,188,66)" stroke="none" paint-order="stroke" d="M 142.92596435546875 498.9090881347656 L 677.155517578125 498.9090881347656 L 677.155517578125 551.5454521179199 L 142.92596435546875 551.5454521179199 L 142.92596435546875 498.9090881347656" fill-opacity="1" clip-path="url(#TtRAgIMTPJTg)"/><path fill="rgb(143,45,86)" stroke="none" paint-order="stroke" d="M 58.5 551.5454711914062 L 193.3404998779297 551.5454711914062 L 193.3404998779297 604.1818351745605 L 58.5 604.1818351745605 L 58.5 551.5454711914062" fill-opacity="1" clip-path="url(#WHMCzeGnrtaH)"/><path fill="rgb(63,136,197)" stroke="none" paint-order="stroke" d="M 193.3404998779297 551.5454711914062 L 385.11334228515625 551.5454711914062 L 385.11334228515625 604.1818351745605 L 193.3404998779297 604.1818351745605 L 193.3404998779297 551.5454711914062" fill-opacity="1" clip-path="url(#WHMCzeGnrtaH)"/><path fill="rgb(143,45,86)" stroke="none" paint-order="stroke" d="M 385.11334228515625 551.5454711914062 L 385.5056882798672 551.5454711914062 L 385.5056882798672 604.1818351745605 L 385.11334228515625 604.1818351745605 L 385.11334228515625 551.5454711914062" fill-opacity="1" clip-path="url(#WHMCzeGnrtaH)"/><path fill="rgb(63,136,197)" stroke="none" paint-order="stroke" d="M 385.5057067871094 551.5454711914062 L 612.4618988037109 551.5454711914062 L 612.4618988037109 604.1818351745605 L 385.5057067871094 604.1818351745605 L 385.5057067871094 551.5454711914062" fill-opacity="1" clip-path="url(#WHMCzeGnrtaH)"/><path fill="rgb(81,60,99)" stroke="none" paint-order="stroke" d="M 612.4618530273438 551.5454711914062 L 649.897029876709 551.5454711914062 L 649.897029876709 604.1818351745605 L 612.4618530273438 604.1818351745605 L 612.4618530273438 551.5454711914062" fill-opacity="1" clip-path="url(#WHMCzeGnrtaH)"/><path fill="rgb(143,45,86)" stroke="none" paint-order="stroke" d="M 649.8970336914062 551.5454711914062 L 650.4823576807976 551.5454711914062 L 650.4823576807976 604.1818351745605 L 649.8970336914062 604.1818351745605 L 649.8970336914062 551.5454711914062" fill-opacity="1" clip-path="url(#WHMCzeGnrtaH)"/><path fill="rgb(81,60,99)" stroke="none" paint-order="stroke" d="M 650.4823608398438 551.5454711914062 L 653.0907588005066 551.5454711914062 L 653.0907588005066 604.1818351745605 L 650.4823608398438 604.1818351745605 L 650.4823608398438 551.5454711914062" fill-opacity="1" clip-path="url(#WHMCzeGnrtaH)"/><path fill="rgb(143,45,86)" stroke="none" paint-order="stroke" d="M 653.0907592773438 551.5454711914062 L 653.2965172827244 551.5454711914062 L 653.2965172827244 604.1818351745605 L 653.0907592773438 604.1818351745605 L 653.0907592773438 551.5454711914062" fill-opacity="1" clip-path="url(#WHMCzeGnrtaH)"/><path fill="rgb(81,60,99)" stroke="none" paint-order="stroke" d="M 653.2965087890625 551.5454711914062 L 677.1554908752441 551.5454711914062 L 677.1554908752441 604.1818351745605 L 653.2965087890625 604.1818351745605 L 653.2965087890625 551.5454711914062" fill-opacity="1" clip-path="url(#WHMCzeGnrtaH)"/><path fill="none" stroke="rgb(0,0,0)" paint-order="fill" d="M 58.5 77.81818389892578 L 677.155517578125 77.81818389892578 L 677.155517578125 604.1818313598633 L 58.5 604.1818313598633 L 58.5 77.81818389892578" stroke-opacity="1" stroke-linejoin="bevel" stroke-miterlimit="10" stroke-dasharray="" clip-path="url(#ektOfJmzcQSg)"/><path fill="none" stroke="rgb(0,0,0)" paint-order="fill" d="M 58.5 630.5 L 1336.5 630.5" stroke-opacity="1" stroke-linejoin="bevel" stroke-miterlimit="10" stroke-dasharray=""/><path fill="none" stroke="rgb(0,0,0)" paint-order="fill" d="M 58.5 636.5 L 58.5 628.5 M 314.5 636.5 L 314.5 628.5 M 569.5 636.5 L 569.5 628.5 M 825.5 636.5 L 825.5 628.5 M 1080.5 636.5 L 1080.5 628.5 M 1336.5 636.5 L 1336.5 628.5" stroke-opacity="1" stroke-linejoin="bevel" stroke-miterlimit="10" stroke-dasharray=""/><path fill="none" stroke="rgb(0,0,0)" paint-order="fill" d="M 58.5 634.5 L 58.5 630.5 M 109.5 634.5 L 109.5 630.5 M 160.5 634.5 L 160.5 630.5 M 211.5 634.5 L 211.5 630.5 M 262.5 634.5 L 262.5 630.5 M 314.5 634.5 L 314.5 630.5 M 365.5 634.5 L 365.5 630.5 M 416.5 634.5 L 416.5 630.5 M 467.5 634.5 L 467.5 630.5 M 518.5 634.5 L 518.5 630.5 M 569.5 634.5 L 569.5 630.5 M 620.5 634.5 L 620.5 630.5 M 671.5 634.5 L 671.5 630.5 M 723.5 634.5 L 723.5 630.5 M 774.5 634.5 L 774.5 630.5 M 825.5 634.5 L 825.5 630.5 M 876.5 634.5 L 876.5 630.5 M 927.5 634.5 L 927.5 630.5 M 978.5 634.5 L 978.5 630.5 M 1029.5 634.5 L 1029.5 630.5 M 1080.5 634.5 L 1080.5 630.5 M 1132.5 634.5 L 1132.5 630.5 M 1183.5 634.5 L 1183.5 630.5 M 1234.5 634.5 L 1234.5 630.5 M 1285.5 634.5 L 1285.5 630.5 M 1336.5 634.5 L 1336.5 630.5" stroke-opacity="1" stroke-linejoin="bevel" stroke-miterlimit="10" stroke-dasharray=""/><text fill="rgb(68,68,68)" stroke="none" font-family="helvetica" font-size="11px" font-style="normal" font-weight="normal" text-decoration="normal" x="54.94166660308838" y="648.89013671875" text-anchor="start" dominant-baseline="alphabetic" transform="matrix(1, 0, 0, 1, 0.5, 0.5)" fill-opacity="1">0</text><text fill="rgb(68,68,68)" stroke="none" font-family="helvetica" font-size="11px" font-style="normal" font-weight="normal" text-decoration="normal" x="304.42500591278076" y="648.89013671875" text-anchor="start" dominant-baseline="alphabetic" transform="matrix(1, 0, 0, 1, 0.5, 0.5)" fill-opacity="1">200</text><text fill="rgb(68,68,68)" stroke="none" font-family="helvetica" font-size="11px" font-style="normal" font-weight="normal" text-decoration="normal" x="560.0250120162964" y="648.89013671875" text-anchor="start" dominant-baseline="alphabetic" transform="matrix(1, 0, 0, 1, 0.5, 0.5)" fill-opacity="1">400</text><text fill="rgb(68,68,68)" stroke="none" font-family="helvetica" font-size="11px" font-style="normal" font-weight="normal" text-decoration="normal" x="815.6249876022339" y="648.89013671875" text-anchor="start" dominant-baseline="alphabetic" transform="matrix(1, 0, 0, 1, 0.5, 0.5)" fill-opacity="1">600</text><text fill="rgb(68,68,68)" stroke="none" font-family="helvetica" font-size="11px" font-style="normal" font-weight="normal" text-decoration="normal" x="1071.2250242233276" y="648.89013671875" text-anchor="start" dominant-baseline="alphabetic" transform="matrix(1, 0, 0, 1, 0.5, 0.5)" fill-opacity="1">800</text><text fill="rgb(68,68,68)" stroke="none" font-family="helvetica" font-size="11px" font-style="normal" font-weight="normal" text-decoration="normal" x="1323.7666664123535" y="648.89013671875" text-anchor="start" dominant-baseline="alphabetic" transform="matrix(1, 0, 0, 1, 0.5, 0.5)" fill-opacity="1">1000</text><text fill="rgb(68,68,68)" stroke="none" font-family="helvetica" font-size="15pt" font-style="italic" font-weight="normal" text-decoration="normal" x="666.4416675567627" y="676.06982421875" text-anchor="start" dominant-baseline="alphabetic" transform="matrix(1, 0, 0, 1, 0.5, 0.5)" fill-opacity="1">time(s)</text><path fill="none" stroke="rgb(0,0,0)" paint-order="fill" d="M 58.5 630.5 L 58.5 51.5" stroke-opacity="1" stroke-linejoin="bevel" stroke-miterlimit="10" stroke-dasharray=""/><path fill="none" stroke="rgb(0,0,0)" paint-order="fill" d="M 52.5 551.5 L 60.5 551.5 M 52.5 446.5 L 60.5 446.5 M 52.5 341.5 L 60.5 341.5 M 52.5 235.5 L 60.5 235.5 M 52.5 130.5 L 60.5 130.5" stroke-opacity="1" stroke-linejoin="bevel" stroke-miterlimit="10" stroke-dasharray=""/><path fill="none" stroke="rgb(0,0,0)" paint-order="fill" d="M 54.5 572.5 L 58.5 572.5 M 54.5 593.5 L 58.5 593.5 M 54.5 614.5 L 58.5 614.5 M 54.5 551.5 L 58.5 551.5 M 54.5 530.5 L 58.5 530.5 M 54.5 509.5 L 58.5 509.5 M 54.5 488.5 L 58.5 488.5 M 54.5 467.5 L 58.5 467.5 M 54.5 446.5 L 58.5 446.5 M 54.5 425.5 L 58.5 425.5 M 54.5 404.5 L 58.5 404.5 M 54.5 383.5 L 58.5 383.5 M 54.5 362.5 L 58.5 362.5 M 54.5 341.5 L 58.5 341.5 M 54.5 319.5 L 58.5 319.5 M 54.5 298.5 L 58.5 298.5 M 54.5 277.5 L 58.5 277.5 M 54.5 256.5 L 58.5 256.5 M 54.5 235.5 L 58.5 235.5 M 54.5 214.5 L 58.5 214.5 M 54.5 193.5 L 58.5 193.5 M 54.5 172.5 L 58.5 172.5 M 54.5 151.5 L 58.5 151.5 M 54.5 130.5 L 58.5 130.5 M 54.5 109.5 L 58.5 109.5 M 54.5 88.5 L 58.5 88.5 M 54.5 67.5 L 58.5 67.5" stroke-opacity="1" stroke-linejoin="bevel" stroke-miterlimit="10" stroke-dasharray=""/><text fill="rgb(68,68,68)" stroke="none" font-family="helvetica" font-size="11px" font-style="normal" font-weight="normal" text-decoration="normal" x="34.46666622161865" y="554.9905395507812" text-anchor="start" dominant-baseline="alphabetic" transform="matrix(1, 0, 0, 1, 0.5, 0.5)" fill-opacity="1">2</text><text fill="rgb(68,68,68)" stroke="none" font-family="helvetica" font-size="11px" font-style="normal" font-weight="normal" text-decoration="normal" x="34.46666622161865" y="449.7178039550781" text-anchor="start" dominant-baseline="alphabetic" transform="matrix(1, 0, 0, 1, 0.5, 0.5)" fill-opacity="1">1</text><text fill="rgb(68,68,68)" stroke="none" font-family="helvetica" font-size="11px" font-style="normal" font-weight="normal" text-decoration="normal" x="40.88333320617676" y="344.445068359375" text-anchor="start" dominant-baseline="alphabetic" transform="matrix(1, 0, 0, 1, 0.5, 0.5)" fill-opacity="1">0</text><text fill="rgb(68,68,68)" stroke="none" font-family="helvetica" font-size="11px" font-style="normal" font-weight="normal" text-decoration="normal" x="40.88333320617676" y="239.17234802246094" text-anchor="start" dominant-baseline="alphabetic" transform="matrix(1, 0, 0, 1, 0.5, 0.5)" fill-opacity="1">1</text><text fill="rgb(68,68,68)" stroke="none" font-family="helvetica" font-size="11px" font-style="normal" font-weight="normal" text-decoration="normal" x="40.88333320617676" y="133.8996124267578" text-anchor="start" dominant-baseline="alphabetic" transform="matrix(1, 0, 0, 1, 0.5, 0.5)" fill-opacity="1">2</text><text fill="rgb(68,68,68)" stroke="none" font-family="helvetica" font-size="15pt" font-style="italic" font-weight="normal" text-decoration="normal" x="-11.316666603088379" y="336.076171875" text-anchor="start" dominant-baseline="alphabetic" transform="matrix(6.123233995736766e-17, -1, 1, 6.123233995736766e-17, -313.53333377838135, 367.46666622161865)" fill-opacity="1">students</text><path fill="rgb(255,255,255)" stroke="rgb(229,229,229)" paint-order="fill" d="M 1128.2333374023438 61.5 L 1326.5 61.5 L 1326.5 400.5 L 1128.2333374023438 400.5 L 1128.2333374023438 61.5" fill-opacity="0.9490196078431372" clip-path="url(#ChAcsAeTUdpm)" stroke-opacity="0.5019607843137255" stroke-linejoin="bevel" stroke-miterlimit="10" stroke-dasharray=""/><text fill="rgb(68,68,68)" stroke="none" font-family="helvetica" font-size="13px" font-style="normal" font-weight="normal" text-decoration="normal" x="1162.7333374023438" y="81" text-anchor="start" dominant-baseline="central" clip-path="url(#ChAcsAeTUdpm)" transform="matrix(1, 0, 0, 1, 0.5, 0.5)" fill-opacity="1">wavelength</text><path fill="rgb(0,255,40)" stroke="none" paint-order="stroke" d="M 1140.2333374023438 73.5 L 1156.2333374023438 73.5 L 1156.2333374023438 89.5 L 1140.2333374023438 89.5 L 1140.2333374023438 73.5" fill-opacity="1" clip-path="url(#ChAcsAeTUdpm)"/><path fill="rgb(216,17,89)" stroke="none" paint-order="stroke" d="M 1140.2333374023438 73.5 L 1156.2333374023438 73.5 L 1156.2333374023438 89.5 L 1140.2333374023438 89.5 L 1140.2333374023438 73.5" fill-opacity="1" clip-path="url(#ChAcsAeTUdpm)"/><text fill="rgb(68,68,68)" stroke="none" font-family="helvetica" font-size="13px" font-style="normal" font-weight="normal" text-decoration="normal" x="1162.7333374023438" y="104" text-anchor="start" dominant-baseline="central" clip-path="url(#ChAcsAeTUdpm)" transform="matrix(1, 0, 0, 1, 0.5, 0.5)" fill-opacity="1">solution</text><path fill="rgb(251,0,7)" stroke="none" paint-order="stroke" d="M 1140.2333374023438 96.5 L 1156.2333374023438 96.5 L 1156.2333374023438 112.5 L 1140.2333374023438 112.5 L 1140.2333374023438 96.5" fill-opacity="1" clip-path="url(#ChAcsAeTUdpm)"/><text fill="rgb(68,68,68)" stroke="none" font-family="helvetica" font-size="13px" font-style="normal" font-weight="normal" text-decoration="normal" x="1162.7333374023438" y="127" text-anchor="start" dominant-baseline="central" clip-path="url(#ChAcsAeTUdpm)" transform="matrix(1, 0, 0, 1, 0.5, 0.5)" fill-opacity="1">laser</text><path fill="rgb(105,29,48)" stroke="none" paint-order="stroke" d="M 1140.2333374023438 119.5 L 1156.2333374023438 119.5 L 1156.2333374023438 135.5 L 1140.2333374023438 135.5 L 1140.2333374023438 119.5" fill-opacity="1" clip-path="url(#ChAcsAeTUdpm)"/><text fill="rgb(68,68,68)" stroke="none" font-family="helvetica" font-size="13px" font-style="normal" font-weight="normal" text-decoration="normal" x="1162.7333374023438" y="150" text-anchor="start" dominant-baseline="central" clip-path="url(#ChAcsAeTUdpm)" transform="matrix(1, 0, 0, 1, 0.5, 0.5)" fill-opacity="1">ruler</text><path fill="rgb(255,188,66)" stroke="none" paint-order="stroke" d="M 1140.2333374023438 142.5 L 1156.2333374023438 142.5 L 1156.2333374023438 158.5 L 1140.2333374023438 158.5 L 1140.2333374023438 142.5" fill-opacity="1" clip-path="url(#ChAcsAeTUdpm)"/><text fill="rgb(68,68,68)" stroke="none" font-family="helvetica" font-size="13px" font-style="normal" font-weight="normal" text-decoration="normal" x="1162.7333374023438" y="173" text-anchor="start" dominant-baseline="central" clip-path="url(#ChAcsAeTUdpm)" transform="matrix(1, 0, 0, 1, 0.5, 0.5)" fill-opacity="1">restarts</text><text fill="rgb(68,68,68)" stroke="none" font-family="helvetica" font-size="13px" font-style="normal" font-weight="normal" text-decoration="normal" x="1162.7333374023438" y="196" text-anchor="start" dominant-baseline="central" clip-path="url(#ChAcsAeTUdpm)" transform="matrix(1, 0, 0, 1, 0.5, 0.5)" fill-opacity="1">transmittance_absorbance</text><path fill="rgb(162,174,187)" stroke="none" paint-order="stroke" d="M 1140.2333374023438 188.5 L 1156.2333374023438 188.5 L 1156.2333374023438 204.5 L 1140.2333374023438 204.5 L 1140.2333374023438 188.5" fill-opacity="1" clip-path="url(#ChAcsAeTUdpm)"/><text fill="rgb(68,68,68)" stroke="none" font-family="helvetica" font-size="13px" font-style="normal" font-weight="normal" text-decoration="normal" x="1162.7333374023438" y="219" text-anchor="start" dominant-baseline="central" clip-path="url(#ChAcsAeTUdpm)" transform="matrix(1, 0, 0, 1, 0.5, 0.5)" fill-opacity="1">magnifier</text><path fill="rgb(255,188,66)" stroke="none" paint-order="stroke" d="M 1140.2333374023438 211.5 L 1156.2333374023438 211.5 L 1156.2333374023438 227.5 L 1140.2333374023438 227.5 L 1140.2333374023438 211.5" fill-opacity="1" clip-path="url(#ChAcsAeTUdpm)"/><text fill="rgb(68,68,68)" stroke="none" font-family="helvetica" font-size="13px" font-style="normal" font-weight="normal" text-decoration="normal" x="1162.7333374023438" y="242" text-anchor="start" dominant-baseline="central" clip-path="url(#ChAcsAeTUdpm)" transform="matrix(1, 0, 0, 1, 0.5, 0.5)" fill-opacity="1">concentration</text><path fill="rgb(115,210,222)" stroke="none" paint-order="stroke" d="M 1140.2333374023438 234.5 L 1156.2333374023438 234.5 L 1156.2333374023438 250.5 L 1140.2333374023438 250.5 L 1140.2333374023438 234.5" fill-opacity="1" clip-path="url(#ChAcsAeTUdpm)"/><text fill="rgb(68,68,68)" stroke="none" font-family="helvetica" font-size="13px" font-style="normal" font-weight="normal" text-decoration="normal" x="1162.7333374023438" y="265" text-anchor="start" dominant-baseline="central" clip-path="url(#ChAcsAeTUdpm)" transform="matrix(1, 0, 0, 1, 0.5, 0.5)" fill-opacity="1">flask</text><path fill="rgb(28,49,68)" stroke="none" paint-order="stroke" d="M 1140.2333374023438 257.5 L 1156.2333374023438 257.5 L 1156.2333374023438 273.5 L 1140.2333374023438 273.5 L 1140.2333374023438 257.5" fill-opacity="1" clip-path="url(#ChAcsAeTUdpm)"/><text fill="rgb(68,68,68)" stroke="none" font-family="helvetica" font-size="13px" font-style="normal" font-weight="normal" text-decoration="normal" x="1162.7333374023438" y="288" text-anchor="start" dominant-baseline="central" clip-path="url(#ChAcsAeTUdpm)" transform="matrix(1, 0, 0, 1, 0.5, 0.5)" fill-opacity="1">pdf</text><path fill="rgb(239,185,203)" stroke="none" paint-order="stroke" d="M 1140.2333374023438 280.5 L 1156.2333374023438 280.5 L 1156.2333374023438 296.5 L 1140.2333374023438 296.5 L 1140.2333374023438 280.5" fill-opacity="1" clip-path="url(#ChAcsAeTUdpm)"/><text fill="rgb(68,68,68)" stroke="none" font-family="helvetica" font-size="13px" font-style="normal" font-weight="normal" text-decoration="normal" x="1162.7333374023438" y="311" text-anchor="start" dominant-baseline="central" clip-path="url(#ChAcsAeTUdpm)" transform="matrix(1, 0, 0, 1, 0.5, 0.5)" fill-opacity="1">concentrationlab</text><text fill="rgb(68,68,68)" stroke="none" font-family="helvetica" font-size="13px" font-style="normal" font-weight="normal" text-decoration="normal" x="1162.7333374023438" y="334" text-anchor="start" dominant-baseline="central" clip-path="url(#ChAcsAeTUdpm)" transform="matrix(1, 0, 0, 1, 0.5, 0.5)" fill-opacity="1">wavelength_slider</text><path fill="rgb(105,29,48)" stroke="none" paint-order="stroke" d="M 1140.2333374023438 326.5 L 1156.2333374023438 326.5 L 1156.2333374023438 342.5 L 1140.2333374023438 342.5 L 1140.2333374023438 326.5" fill-opacity="1" clip-path="url(#ChAcsAeTUdpm)"/><text fill="rgb(68,68,68)" stroke="none" font-family="helvetica" font-size="13px" font-style="normal" font-weight="normal" text-decoration="normal" x="1162.7333374023438" y="357" text-anchor="start" dominant-baseline="central" clip-path="url(#ChAcsAeTUdpm)" transform="matrix(1, 0, 0, 1, 0.5, 0.5)" fill-opacity="1">ruler measuring</text><path fill="rgb(255,188,66)" stroke="none" paint-order="stroke" d="M 1140.2333374023438 349.5 L 1156.2333374023438 349.5 L 1156.2333374023438 365.5 L 1140.2333374023438 365.5 L 1140.2333374023438 349.5" fill-opacity="1" clip-path="url(#ChAcsAeTUdpm)"/><text fill="rgb(68,68,68)" stroke="none" font-family="helvetica" font-size="13px" font-style="normal" font-weight="normal" text-decoration="normal" x="1162.7333374023438" y="380" text-anchor="start" dominant-baseline="central" clip-path="url(#ChAcsAeTUdpm)" transform="matrix(1, 0, 0, 1, 0.5, 0.5)" fill-opacity="1">dependent variable</text><path fill="rgb(143,45,86)" stroke="none" paint-order="stroke" d="M 1140.2333374023438 372.5 L 1156.2333374023438 372.5 L 1156.2333374023438 388.5 L 1140.2333374023438 388.5 L 1140.2333374023438 372.5" fill-opacity="1" clip-path="url(#ChAcsAeTUdpm)"/><text fill="rgb(68,68,68)" stroke="none" font-family="helvetica" font-size="25pt" font-style="normal" font-weight="bold" text-decoration="normal" x="58" y="38.740885416666664" text-anchor="start" dominant-baseline="alphabetic" transform="matrix(1, 0, 0, 1, 0.5, 0.5)" fill-opacity="1">Timeline for student mwfdr4ys with permutation 3120 for task 2</text></svg>