<svg version="1.1" xmlns="http://www.w3.org/2000/svg" width="1366" height="683"><defs><clipPath id="BFcHREXUtnEQ"><path fill="none" stroke="none" d="M 58.5 51.5 L 1336.5 51.5 L 1336.5 630.5 L 58.5 630.5 L 58.5 51.5"/></clipPath><clipPath id="tvyAMGNkDDGv"><path fill="none" stroke="none" d="M 58.5 51.5 L 1336.5 51.5 L 1336.5 630.5 L 58.5 630.5 L 58.5 51.5"/></clipPath><clipPath id="ENCFiUoimwWy"><path fill="none" stroke="none" d="M 58.5 51.5 L 1336.5 51.5 L 1336.5 630.5 L 58.5 630.5 L 58.5 51.5"/></clipPath><clipPath id="SbrgihVboFMl"><path fill="none" stroke="none" d="M 58.5 51.5 L 1336.5 51.5 L 1336.5 630.5 L 58.5 630.5 L 58.5 51.5"/></clipPath><clipPath id="vrmEhnDPzkhN"><path fill="none" stroke="none" d="M 58.5 51.5 L 1336.5 51.5 L 1336.5 630.5 L 58.5 630.5 L 58.5 51.5"/></clipPath><clipPath id="hfuwwKnHeZZD"><path fill="none" stroke="none" d="M 58.5 51.5 L 1336.5 51.5 L 1336.5 630.5 L 58.5 630.5 L 58.5 51.5"/></clipPath><clipPath id="yUoeiaScaizH"><path fill="none" stroke="none" d="M 58.5 51.5 L 1336.5 51.5 L 1336.5 630.5 L 58.5 630.5 L 58.5 51.5"/></clipPath><clipPath id="nBpHXipKqPsK"><path fill="none" stroke="none" d="M 58.5 51.5 L 1336.5 51.5 L 1336.5 630.5 L 58.5 630.5 L 58.5 51.5"/></clipPath><clipPath id="fdHvSFKqPVXw"><path fill="none" stroke="none" d="M 58.5 51.5 L 1336.5 51.5 L 1336.5 630.5 L 58.5 630.5 L 58.5 51.5"/></clipPath><clipPath id="lSTiZEPwzXpe"><path fill="none" stroke="none" d="M 58.5 51.5 L 1336.5 51.5 L 1336.5 630.5 L 58.5 630.5 L 58.5 51.5"/></clipPath><clipPath id="TdJXgaLMLHiw"><path fill="none" stroke="none" d="M 58.5 51.5 L 1336.5 51.5 L 1336.5 630.5 L 58.5 630.5 L 58.5 51.5"/></clipPath><clipPath id="aslSXJTsteos"><path fill="none" stroke="none" d="M 58.5 51.5 L 1336.5 51.5 L 1336.5 630.5 L 58.5 630.5 L 58.5 51.5"/></clipPath><clipPath id="ecDgJvfMiBTT"><path fill="none" stroke="none" d="M 58.5 51.5 L 1336.5 51.5 L 1336.5 630.5 L 58.5 630.5 L 58.5 51.5"/></clipPath><clipPath id="odbqBDZblTBa"><path fill="none" stroke="none" d="M 58.5 51.5 L 1336.5 51.5 L 1336.5 630.5 L 58.5 630.5 L 58.5 51.5"/></clipPath><clipPath id="eJTOrUVXpRzf"><path fill="none" stroke="none" d="M 58.5 51.5 L 1336.5 51.5 L 1336.5 630.5 L 58.5 630.5 L 58.5 51.5"/></clipPath><clipPath id="aVZATGJIkzCA"><path fill="none" stroke="none" d="M 58.5 51.5 L 1336.5 51.5 L 1336.5 630.5 L 58.5 630.5 L 58.5 51.5"/></clipPath><clipPath id="ZlPdzuAqzJcF"><path fill="none" stroke="none" d="M 58.5 51.5 L 1336.5 51.5 L 1336.5 630.5 L 58.5 630.5 L 58.5 51.5"/></clipPath><clipPath id="pGMPZZdRxXCr"><path fill="none" stroke="none" d="M 58.5 51.5 L 1336.5 51.5 L 1336.5 630.5 L 58.5 630.5 L 58.5 51.5"/></clipPath><clipPath id="htAaBulRZxow"><path fill="none" stroke="none" d="M 58.5 51.5 L 1336.5 51.5 L 1336.5 630.5 L 58.5 630.5 L 58.5 51.5"/></clipPath><clipPath id="EiGxUrcHWiTm"><path fill="none" stroke="none" d="M 58.5 51.5 L 1336.5 51.5 L 1336.5 630.5 L 58.5 630.5 L 58.5 51.5"/></clipPath><clipPath id="tqToTflexBZS"><path fill="none" stroke="none" d="M 58.5 51.5 L 1336.5 51.5 L 1336.5 630.5 L 58.5 630.5 L 58.5 51.5"/></clipPath></defs><path fill="rgb(255,255,255)" stroke="none" paint-order="stroke" d="M 0.5 0.5 L 1366.5 0.5 L 1366.5 683.5 L 0.5 683.5 L 0.5 0.5" fill-opacity="1"/><rect fill="#FFFFFF" stroke="none" x="58" y="51" width="1278" height="579" transform="matrix(1, 0, 0, 1, 0.5, 0.5)"/><path fill="rgb(255,255,255)" stroke="none" paint-order="stroke" d="M 58.5 51.5 L 1336.5 51.5 L 1336.5 630.5 L 58.5 630.5 L 58.5 51.5" fill-opacity="1"/><path fill="none" stroke="rgb(229,229,229)" paint-order="fill" d="M 58.5 51.5 L 1336.5 51.5 L 1336.5 630.5 L 58.5 630.5 L 58.5 51.5" stroke-opacity="1" stroke-linejoin="bevel" stroke-miterlimit="10" stroke-dasharray=""/><path fill="none" stroke="rgb(229,229,229)" paint-order="fill" d="M 314.5 630.5 L 314.5 51.5 M 569.5 630.5 L 569.5 51.5 M 825.5 630.5 L 825.5 51.5 M 1080.5 630.5 L 1080.5 51.5" stroke-opacity="1" stroke-linejoin="bevel" stroke-miterlimit="10" stroke-dasharray="" clip-path="url(#BFcHREXUtnEQ)"/><path fill="none" stroke="rgb(229,229,229)" paint-order="fill" d="M 58.5 551.5 L 1336.5 551.5 M 58.5 446.5 L 1336.5 446.5 M 58.5 341.5 L 1336.5 341.5 M 58.5 235.5 L 1336.5 235.5 M 58.5 130.5 L 1336.5 130.5" stroke-opacity="1" stroke-linejoin="bevel" stroke-miterlimit="10" stroke-dasharray="" clip-path="url(#tvyAMGNkDDGv)"/><path fill="rgb(0,255,40)" stroke="none" paint-order="stroke" d="M 58.5 77.81818389892578 L 312.16766357421875 77.81818389892578 L 312.16766357421875 130.45454788208008 L 58.5 130.45454788208008 L 58.5 77.81818389892578" fill-opacity="1" clip-path="url(#ENCFiUoimwWy)"/><path fill="rgb(14,255,0)" stroke="none" paint-order="stroke" d="M 312.16766357421875 77.81818389892578 L 312.37981157004833 77.81818389892578 L 312.37981157004833 130.45454788208008 L 312.16766357421875 130.45454788208008 L 312.16766357421875 77.81818389892578" fill-opacity="1" clip-path="url(#ENCFiUoimwWy)"/><path fill="rgb(35,255,0)" stroke="none" paint-order="stroke" d="M 312.37982177734375 77.81818389892578 L 312.4437217786908 77.81818389892578 L 312.4437217786908 130.45454788208008 L 312.37982177734375 130.45454788208008 L 312.37982177734375 77.81818389892578" fill-opacity="1" clip-path="url(#ENCFiUoimwWy)"/><path fill="rgb(53,255,0)" stroke="none" paint-order="stroke" d="M 312.4437255859375 77.81818389892578 L 315.26299357414246 77.81818389892578 L 315.26299357414246 130.45454788208008 L 312.4437255859375 130.45454788208008 L 312.4437255859375 77.81818389892578" fill-opacity="1" clip-path="url(#ENCFiUoimwWy)"/><path fill="rgb(0,255,40)" stroke="none" paint-order="stroke" d="M 315.2629699707031 77.81818389892578 L 320.78648614883423 77.81818389892578 L 320.78648614883423 130.45454788208008 L 315.2629699707031 130.45454788208008 L 315.2629699707031 77.81818389892578" fill-opacity="1" clip-path="url(#ENCFiUoimwWy)"/><path fill="rgb(14,255,0)" stroke="none" paint-order="stroke" d="M 320.7864990234375 77.81818389892578 L 320.8491210266948 77.81818389892578 L 320.8491210266948 130.45454788208008 L 320.7864990234375 130.45454788208008 L 320.7864990234375 77.81818389892578" fill-opacity="1" clip-path="url(#ENCFiUoimwWy)"/><path fill="rgb(35,255,0)" stroke="none" paint-order="stroke" d="M 320.84912109375 77.81818389892578 L 320.91302109509706 77.81818389892578 L 320.91302109509706 130.45454788208008 L 320.84912109375 130.45454788208008 L 320.84912109375 77.81818389892578" fill-opacity="1" clip-path="url(#ENCFiUoimwWy)"/><path fill="rgb(53,255,0)" stroke="none" paint-order="stroke" d="M 320.91302490234375 77.81818389892578 L 407.318603515625 77.81818389892578 L 407.318603515625 130.45454788208008 L 320.91302490234375 130.45454788208008 L 320.91302490234375 77.81818389892578" fill-opacity="1" clip-path="url(#ENCFiUoimwWy)"/><path fill="rgb(159,255,0)" stroke="none" paint-order="stroke" d="M 407.318603515625 77.81818389892578 L 414.96359968185425 77.81818389892578 L 414.96359968185425 130.45454788208008 L 407.318603515625 130.45454788208008 L 407.318603515625 77.81818389892578" fill-opacity="1" clip-path="url(#ENCFiUoimwWy)"/><path fill="rgb(0,255,40)" stroke="none" paint-order="stroke" d="M 414.9635925292969 77.81818389892578 L 418.82315254211426 77.81818389892578 L 418.82315254211426 130.45454788208008 L 414.9635925292969 130.45454788208008 L 414.9635925292969 77.81818389892578" fill-opacity="1" clip-path="url(#ENCFiUoimwWy)"/><path fill="rgb(14,255,0)" stroke="none" paint-order="stroke" d="M 418.8231506347656 77.81818389892578 L 418.844876633957 77.81818389892578 L 418.844876633957 130.45454788208008 L 418.8231506347656 130.45454788208008 L 418.8231506347656 77.81818389892578" fill-opacity="1" clip-path="url(#ENCFiUoimwWy)"/><path fill="rgb(35,255,0)" stroke="none" paint-order="stroke" d="M 418.8448791503906 77.81818389892578 L 418.9087791517377 77.81818389892578 L 418.9087791517377 130.45454788208008 L 418.8448791503906 130.45454788208008 L 418.8448791503906 77.81818389892578" fill-opacity="1" clip-path="url(#ENCFiUoimwWy)"/><path fill="rgb(53,255,0)" stroke="none" paint-order="stroke" d="M 418.9087829589844 77.81818389892578 L 418.97268296033144 77.81818389892578 L 418.97268296033144 130.45454788208008 L 418.9087829589844 130.45454788208008 L 418.9087829589844 77.81818389892578" fill-opacity="1" clip-path="url(#ENCFiUoimwWy)"/><path fill="rgb(86,255,0)" stroke="none" paint-order="stroke" d="M 418.9726867675781 77.81818389892578 L 419.01486076787114 77.81818389892578 L 419.01486076787114 130.45454788208008 L 418.9726867675781 130.45454788208008 L 418.9726867675781 77.81818389892578" fill-opacity="1" clip-path="url(#ENCFiUoimwWy)"/><path fill="rgb(101,255,0)" stroke="none" paint-order="stroke" d="M 419.0148620605469 77.81818389892578 L 419.0365880597383 77.81818389892578 L 419.0365880597383 130.45454788208008 L 419.0148620605469 130.45454788208008 L 419.0148620605469 77.81818389892578" fill-opacity="1" clip-path="url(#ENCFiUoimwWy)"/><path fill="rgb(115,255,0)" stroke="none" paint-order="stroke" d="M 419.0365905761719 77.81818389892578 L 419.05703857541084 77.81818389892578 L 419.05703857541084 130.45454788208008 L 419.0365905761719 130.45454788208008 L 419.0365905761719 77.81818389892578" fill-opacity="1" clip-path="url(#ENCFiUoimwWy)"/><path fill="rgb(129,255,0)" stroke="none" paint-order="stroke" d="M 419.0570373535156 77.81818389892578 L 419.078763352707 77.81818389892578 L 419.078763352707 130.45454788208008 L 419.0570373535156 130.45454788208008 L 419.0570373535156 77.81818389892578" fill-opacity="1" clip-path="url(#ENCFiUoimwWy)"/><path fill="rgb(156,255,0)" stroke="none" paint-order="stroke" d="M 419.0787658691406 77.81818389892578 L 419.7599398493767 77.81818389892578 L 419.7599398493767 130.45454788208008 L 419.0787658691406 130.45454788208008 L 419.0787658691406 77.81818389892578" fill-opacity="1" clip-path="url(#ENCFiUoimwWy)"/><path fill="rgb(143,255,0)" stroke="none" paint-order="stroke" d="M 419.7599182128906 77.81818389892578 L 419.7803662121296 77.81818389892578 L 419.7803662121296 130.45454788208008 L 419.7599182128906 130.45454788208008 L 419.7599182128906 77.81818389892578" fill-opacity="1" clip-path="url(#ENCFiUoimwWy)"/><path fill="rgb(129,255,0)" stroke="none" paint-order="stroke" d="M 419.7803649902344 77.81818389892578 L 419.8020909894258 77.81818389892578 L 419.8020909894258 130.45454788208008 L 419.7803649902344 130.45454788208008 L 419.7803649902344 77.81818389892578" fill-opacity="1" clip-path="url(#ENCFiUoimwWy)"/><path fill="rgb(115,255,0)" stroke="none" paint-order="stroke" d="M 419.8020935058594 77.81818389892578 L 419.8238195050508 77.81818389892578 L 419.8238195050508 130.45454788208008 L 419.8020935058594 130.45454788208008 L 419.8020935058594 77.81818389892578" fill-opacity="1" clip-path="url(#ENCFiUoimwWy)"/><path fill="rgb(101,255,0)" stroke="none" paint-order="stroke" d="M 419.8238220214844 77.81818389892578 L 419.9081700220704 77.81818389892578 L 419.9081700220704 130.45454788208008 L 419.8238220214844 130.45454788208008 L 419.8238220214844 77.81818389892578" fill-opacity="1" clip-path="url(#ENCFiUoimwWy)"/><path fill="rgb(86,255,0)" stroke="none" paint-order="stroke" d="M 419.9081726074219 77.81818389892578 L 420.01424660533667 77.81818389892578 L 420.01424660533667 130.45454788208008 L 419.9081726074219 130.45454788208008 L 419.9081726074219 77.81818389892578" fill-opacity="1" clip-path="url(#ENCFiUoimwWy)"/><path fill="rgb(70,255,0)" stroke="none" paint-order="stroke" d="M 420.0142517089844 77.81818389892578 L 420.6110777258873 77.81818389892578 L 420.6110777258873 130.45454788208008 L 420.0142517089844 130.45454788208008 L 420.0142517089844 77.81818389892578" fill-opacity="1" clip-path="url(#ENCFiUoimwWy)"/><path fill="rgb(35,255,0)" stroke="none" paint-order="stroke" d="M 420.611083984375 77.81818389892578 L 422.9932758808136 77.81818389892578 L 422.9932758808136 130.45454788208008 L 420.611083984375 130.45454788208008 L 420.611083984375 77.81818389892578" fill-opacity="1" clip-path="url(#ENCFiUoimwWy)"/><path fill="rgb(53,255,0)" stroke="none" paint-order="stroke" d="M 422.9932556152344 77.81818389892578 L 423.0788816139102 77.81818389892578 L 423.0788816139102 130.45454788208008 L 422.9932556152344 130.45454788208008 L 422.9932556152344 77.81818389892578" fill-opacity="1" clip-path="url(#ENCFiUoimwWy)"/><path fill="rgb(70,255,0)" stroke="none" paint-order="stroke" d="M 423.0788879394531 77.81818389892578 L 423.16451393812895 77.81818389892578 L 423.16451393812895 130.45454788208008 L 423.0788879394531 130.45454788208008 L 423.0788879394531 77.81818389892578" fill-opacity="1" clip-path="url(#ENCFiUoimwWy)"/><path fill="rgb(86,255,0)" stroke="none" paint-order="stroke" d="M 423.1645202636719 77.81818389892578 L 423.2488682642579 77.81818389892578 L 423.2488682642579 130.45454788208008 L 423.1645202636719 130.45454788208008 L 423.1645202636719 77.81818389892578" fill-opacity="1" clip-path="url(#ENCFiUoimwWy)"/><path fill="rgb(101,255,0)" stroke="none" paint-order="stroke" d="M 423.2488708496094 77.81818389892578 L 424.80291879177094 77.81818389892578 L 424.80291879177094 130.45454788208008 L 423.2488708496094 130.45454788208008 L 423.2488708496094 77.81818389892578" fill-opacity="1" clip-path="url(#ENCFiUoimwWy)"/><path fill="rgb(86,255,0)" stroke="none" paint-order="stroke" d="M 424.80291748046875 77.81818389892578 L 424.8668174818158 77.81818389892578 L 424.8668174818158 130.45454788208008 L 424.80291748046875 130.45454788208008 L 424.80291748046875 77.81818389892578" fill-opacity="1" clip-path="url(#ENCFiUoimwWy)"/><path fill="rgb(70,255,0)" stroke="none" paint-order="stroke" d="M 424.8668212890625 77.81818389892578 L 424.95116928964853 77.81818389892578 L 424.95116928964853 130.45454788208008 L 424.8668212890625 130.45454788208008 L 424.8668212890625 77.81818389892578" fill-opacity="1" clip-path="url(#ENCFiUoimwWy)"/><path fill="rgb(53,255,0)" stroke="none" paint-order="stroke" d="M 424.951171875 77.81818389892578 L 425.01634987443686 77.81818389892578 L 425.01634987443686 130.45454788208008 L 424.951171875 130.45454788208008 L 424.951171875 77.81818389892578" fill-opacity="1" clip-path="url(#ENCFiUoimwWy)"/><path fill="rgb(35,255,0)" stroke="none" paint-order="stroke" d="M 425.0163269042969 77.81818389892578 L 425.1006749048829 77.81818389892578 L 425.1006749048829 130.45454788208008 L 425.0163269042969 130.45454788208008 L 425.0163269042969 77.81818389892578" fill-opacity="1" clip-path="url(#ENCFiUoimwWy)"/><path fill="rgb(14,255,0)" stroke="none" paint-order="stroke" d="M 425.1006774902344 77.81818389892578 L 428.5052695274353 77.81818389892578 L 428.5052695274353 130.45454788208008 L 425.1006774902344 130.45454788208008 L 425.1006774902344 77.81818389892578" fill-opacity="1" clip-path="url(#ENCFiUoimwWy)"/><path fill="rgb(35,255,0)" stroke="none" paint-order="stroke" d="M 428.5052795410156 77.81818389892578 L 430.0593274831772 77.81818389892578 L 430.0593274831772 130.45454788208008 L 428.5052795410156 130.45454788208008 L 428.5052795410156 77.81818389892578" fill-opacity="1" clip-path="url(#ENCFiUoimwWy)"/><path fill="rgb(53,255,0)" stroke="none" paint-order="stroke" d="M 430.059326171875 77.81818389892578 L 885.3276672363281 77.81818389892578 L 885.3276672363281 130.45454788208008 L 430.059326171875 130.45454788208008 L 430.059326171875 77.81818389892578" fill-opacity="1" clip-path="url(#ENCFiUoimwWy)"/><path fill="rgb(251,0,7)" stroke="none" paint-order="stroke" d="M 58.5 130.4545440673828 L 407.318603515625 130.4545440673828 L 407.318603515625 183.0909080505371 L 58.5 183.0909080505371 L 58.5 130.4545440673828" fill-opacity="1" clip-path="url(#SbrgihVboFMl)"/><path fill="rgb(251,0,7)" stroke="none" paint-order="stroke" d="M 407.318603515625 130.4545440673828 L 414.96359968185425 130.4545440673828 L 414.96359968185425 183.0909080505371 L 407.318603515625 183.0909080505371 L 407.318603515625 130.4545440673828" fill-opacity="1" clip-path="url(#SbrgihVboFMl)"/><path fill="rgb(251,0,7)" stroke="none" paint-order="stroke" d="M 414.9635925292969 130.4545440673828 L 885.3276672363281 130.4545440673828 L 885.3276672363281 183.0909080505371 L 414.9635925292969 183.0909080505371 L 414.9635925292969 130.4545440673828" fill-opacity="1" clip-path="url(#SbrgihVboFMl)"/><path fill="rgb(105,29,48)" stroke="none" paint-order="stroke" d="M 630.187744140625 183.09091186523438 L 630.2516441419721 183.09091186523438 L 630.2516441419721 498.9090881347656 L 630.187744140625 498.9090881347656 L 630.187744140625 183.09091186523438" fill-opacity="1" clip-path="url(#vrmEhnDPzkhN)"/><path fill="rgb(255,188,66)" stroke="none" paint-order="stroke" d="M 445.62921142578125 183.09091186523438 L 452.60709142684937 183.09091186523438 L 452.60709142684937 498.9090881347656 L 445.62921142578125 498.9090881347656 L 445.62921142578125 183.09091186523438" fill-opacity="1" clip-path="url(#hfuwwKnHeZZD)"/><path fill="rgb(255,188,66)" stroke="none" paint-order="stroke" d="M 873.9393920898438 183.09091186523438 L 876.5235080718994 183.09091186523438 L 876.5235080718994 498.9090881347656 L 873.9393920898438 498.9090881347656 L 873.9393920898438 183.09091186523438" fill-opacity="1" clip-path="url(#hfuwwKnHeZZD)"/><path fill="rgb(162,174,187)" stroke="none" paint-order="stroke" d="M 331.7887878417969 183.09091186523438 L 331.85268784314394 183.09091186523438 L 331.85268784314394 498.9090881347656 L 331.7887878417969 498.9090881347656 L 331.7887878417969 183.09091186523438" fill-opacity="1" clip-path="url(#nBpHXipKqPsK)"/><path fill="rgb(255,188,66)" stroke="none" paint-order="stroke" d="M 623.9945678710938 183.09091186523438 L 625.0565859079361 183.09091186523438 L 625.0565859079361 498.9090881347656 L 623.9945678710938 498.9090881347656 L 623.9945678710938 183.09091186523438" fill-opacity="1" clip-path="url(#fdHvSFKqPVXw)"/><path fill="rgb(255,188,66)" stroke="none" paint-order="stroke" d="M 737.7544555664062 183.09091186523438 L 743.7086577415466 183.09091186523438 L 743.7086577415466 498.9090881347656 L 737.7544555664062 498.9090881347656 L 737.7544555664062 183.09091186523438" fill-opacity="1" clip-path="url(#fdHvSFKqPVXw)"/><path fill="rgb(255,188,66)" stroke="none" paint-order="stroke" d="M 808.4661865234375 183.09091186523438 L 810.8228185176849 183.09091186523438 L 810.8228185176849 498.9090881347656 L 808.4661865234375 498.9090881347656 L 808.4661865234375 183.09091186523438" fill-opacity="1" clip-path="url(#fdHvSFKqPVXw)"/><path fill="rgb(216,17,89)" stroke="none" paint-order="stroke" d="M 308.5419921875 183.09091186523438 L 308.60589218884706 183.09091186523438 L 308.60589218884706 498.9090881347656 L 308.5419921875 498.9090881347656 L 308.5419921875 183.09091186523438" fill-opacity="1" clip-path="url(#lSTiZEPwzXpe)"/><path fill="rgb(216,17,89)" stroke="none" paint-order="stroke" d="M 308.5419921875 183.09091186523438 L 308.60589218884706 183.09091186523438 L 308.60589218884706 498.9090881347656 L 308.5419921875 498.9090881347656 L 308.5419921875 183.09091186523438" fill-opacity="1" clip-path="url(#lSTiZEPwzXpe)"/><path fill="rgb(216,17,89)" stroke="none" paint-order="stroke" d="M 315.2629699707031 183.09091186523438 L 315.3268699720502 183.09091186523438 L 315.3268699720502 498.9090881347656 L 315.2629699707031 498.9090881347656 L 315.2629699707031 183.09091186523438" fill-opacity="1" clip-path="url(#lSTiZEPwzXpe)"/><path fill="rgb(216,17,89)" stroke="none" paint-order="stroke" d="M 317.7755432128906 183.09091186523438 L 317.8394432142377 183.09091186523438 L 317.8394432142377 498.9090881347656 L 317.7755432128906 498.9090881347656 L 317.7755432128906 183.09091186523438" fill-opacity="1" clip-path="url(#lSTiZEPwzXpe)"/><path fill="rgb(33,131,128)" stroke="none" paint-order="stroke" d="M 336.477783203125 183.09091186523438 L 345.8736391067505 183.09091186523438 L 345.8736391067505 498.9090881347656 L 336.477783203125 498.9090881347656 L 336.477783203125 183.09091186523438" fill-opacity="1" clip-path="url(#TdJXgaLMLHiw)"/><path fill="rgb(33,131,128)" stroke="none" paint-order="stroke" d="M 405.14215087890625 183.09091186523438 L 407.31858491897583 183.09091186523438 L 407.31858491897583 498.9090881347656 L 405.14215087890625 498.9090881347656 L 405.14215087890625 183.09091186523438" fill-opacity="1" clip-path="url(#TdJXgaLMLHiw)"/><path fill="rgb(33,131,128)" stroke="none" paint-order="stroke" d="M 412.85107421875 183.09091186523438 L 414.9636082649231 183.09091186523438 L 414.9636082649231 498.9090881347656 L 412.85107421875 498.9090881347656 L 412.85107421875 183.09091186523438" fill-opacity="1" clip-path="url(#TdJXgaLMLHiw)"/><path fill="rgb(115,210,222)" stroke="none" paint-order="stroke" d="M 384.5216369628906 183.09091186523438 L 392.51169300079346 183.09091186523438 L 392.51169300079346 498.9090881347656 L 384.5216369628906 498.9090881347656 L 384.5216369628906 183.09091186523438" fill-opacity="1" clip-path="url(#aslSXJTsteos)"/><path fill="rgb(115,210,222)" stroke="none" paint-order="stroke" d="M 410.71551513671875 183.09091186523438 L 411.5973351597786 183.09091186523438 L 411.5973351597786 498.9090881347656 L 410.71551513671875 498.9090881347656 L 410.71551513671875 183.09091186523438" fill-opacity="1" clip-path="url(#aslSXJTsteos)"/><path fill="rgb(115,210,222)" stroke="none" paint-order="stroke" d="M 432.9680480957031 183.09091186523438 L 438.47878408432007 183.09091186523438 L 438.47878408432007 498.9090881347656 L 432.9680480957031 498.9090881347656 L 432.9680480957031 183.09091186523438" fill-opacity="1" clip-path="url(#aslSXJTsteos)"/><path fill="rgb(115,210,222)" stroke="none" paint-order="stroke" d="M 660.055908203125 183.09091186523438 L 666.1903080940247 183.09091186523438 L 666.1903080940247 498.9090881347656 L 660.055908203125 498.9090881347656 L 660.055908203125 183.09091186523438" fill-opacity="1" clip-path="url(#aslSXJTsteos)"/><path fill="rgb(115,210,222)" stroke="none" paint-order="stroke" d="M 668.562255859375 183.09091186523438 L 669.2332058548927 183.09091186523438 L 669.2332058548927 498.9090881347656 L 668.562255859375 498.9090881347656 L 668.562255859375 183.09091186523438" fill-opacity="1" clip-path="url(#aslSXJTsteos)"/><path fill="rgb(115,210,222)" stroke="none" paint-order="stroke" d="M 721.06884765625 183.09091186523438 L 733.5727996826172 183.09091186523438 L 733.5727996826172 498.9090881347656 L 721.06884765625 498.9090881347656 L 721.06884765625 183.09091186523438" fill-opacity="1" clip-path="url(#aslSXJTsteos)"/><path fill="rgb(115,210,222)" stroke="none" paint-order="stroke" d="M 777.3519897460938 183.09091186523438 L 785.7688980102539 183.09091186523438 L 785.7688980102539 498.9090881347656 L 777.3519897460938 498.9090881347656 L 777.3519897460938 183.09091186523438" fill-opacity="1" clip-path="url(#aslSXJTsteos)"/><path fill="rgb(115,210,222)" stroke="none" paint-order="stroke" d="M 817.775146484375 183.09091186523438 L 826.4655466079712 183.09091186523438 L 826.4655466079712 498.9090881347656 L 817.775146484375 498.9090881347656 L 817.775146484375 183.09091186523438" fill-opacity="1" clip-path="url(#aslSXJTsteos)"/><path fill="rgb(115,210,222)" stroke="none" paint-order="stroke" d="M 867.4075317382812 183.09091186523438 L 872.3853416442871 183.09091186523438 L 872.3853416442871 498.9090881347656 L 867.4075317382812 498.9090881347656 L 867.4075317382812 183.09091186523438" fill-opacity="1" clip-path="url(#aslSXJTsteos)"/><path fill="rgb(28,49,68)" stroke="none" paint-order="stroke" d="M 441.0923156738281 183.09091186523438 L 444.1211757659912 183.09091186523438 L 444.1211757659912 498.9090881347656 L 441.0923156738281 498.9090881347656 L 441.0923156738281 183.09091186523438" fill-opacity="1" clip-path="url(#ecDgJvfMiBTT)"/><path fill="rgb(28,49,68)" stroke="none" paint-order="stroke" d="M 460.1843566894531 183.09091186523438 L 477.59710693359375 183.09091186523438 L 477.59710693359375 498.9090881347656 L 460.1843566894531 498.9090881347656 L 460.1843566894531 183.09091186523438" fill-opacity="1" clip-path="url(#ecDgJvfMiBTT)"/><path fill="rgb(28,49,68)" stroke="none" paint-order="stroke" d="M 617.6824951171875 183.09091186523438 L 622.5031108856201 183.09091186523438 L 622.5031108856201 498.9090881347656 L 617.6824951171875 498.9090881347656 L 617.6824951171875 183.09091186523438" fill-opacity="1" clip-path="url(#ecDgJvfMiBTT)"/><path fill="rgb(28,49,68)" stroke="none" paint-order="stroke" d="M 759.4037475585938 183.09091186523438 L 768.4711580276489 183.09091186523438 L 768.4711580276489 498.9090881347656 L 759.4037475585938 498.9090881347656 L 759.4037475585938 183.09091186523438" fill-opacity="1" clip-path="url(#ecDgJvfMiBTT)"/><path fill="rgb(28,49,68)" stroke="none" paint-order="stroke" d="M 801.8320922851562 183.09091186523438 L 807.2980980873108 183.09091186523438 L 807.2980980873108 498.9090881347656 L 801.8320922851562 498.9090881347656 L 801.8320922851562 183.09091186523438" fill-opacity="1" clip-path="url(#ecDgJvfMiBTT)"/><path fill="rgb(28,49,68)" stroke="none" paint-order="stroke" d="M 846.0739135742188 183.09091186523438 L 849.1181094646454 183.09091186523438 L 849.1181094646454 498.9090881347656 L 846.0739135742188 498.9090881347656 L 846.0739135742188 183.09091186523438" fill-opacity="1" clip-path="url(#ecDgJvfMiBTT)"/><path fill="rgb(28,49,68)" stroke="none" paint-order="stroke" d="M 880.2156372070312 183.09091186523438 L 885.3276371955872 183.09091186523438 L 885.3276371955872 498.9090881347656 L 880.2156372070312 498.9090881347656 L 880.2156372070312 183.09091186523438" fill-opacity="1" clip-path="url(#ecDgJvfMiBTT)"/><path fill="rgb(239,185,203)" stroke="none" paint-order="stroke" d="M 118.12892150878906 183.09091186523438 L 282.5653533935547 183.09091186523438 L 282.5653533935547 498.9090881347656 L 118.12892150878906 498.9090881347656 L 118.12892150878906 183.09091186523438" fill-opacity="1" clip-path="url(#odbqBDZblTBa)"/><path fill="rgb(239,185,203)" stroke="none" paint-order="stroke" d="M 349.79071044921875 183.09091186523438 L 376.52902603149414 183.09091186523438 L 376.52902603149414 498.9090881347656 L 349.79071044921875 498.9090881347656 L 349.79071044921875 183.09091186523438" fill-opacity="1" clip-path="url(#odbqBDZblTBa)"/><path fill="rgb(105,29,48)" stroke="none" paint-order="stroke" d="M 311.5555114746094 183.09091186523438 L 313.2756994962692 183.09091186523438 L 313.2756994962692 498.9090881347656 L 311.5555114746094 498.9090881347656 L 311.5555114746094 183.09091186523438" fill-opacity="1" clip-path="url(#aVZATGJIkzCA)"/><path fill="rgb(105,29,48)" stroke="none" paint-order="stroke" d="M 320.20245361328125 183.09091186523438 L 321.70921564102173 183.09091186523438 L 321.70921564102173 498.9090881347656 L 320.20245361328125 498.9090881347656 L 320.20245361328125 183.09091186523438" fill-opacity="1" clip-path="url(#aVZATGJIkzCA)"/><path fill="rgb(105,29,48)" stroke="none" paint-order="stroke" d="M 418.3323974609375 183.09091186523438 L 430.9334774017334 183.09091186523438 L 430.9334774017334 498.9090881347656 L 418.3323974609375 498.9090881347656 L 418.3323974609375 183.09091186523438" fill-opacity="1" clip-path="url(#aVZATGJIkzCA)"/><path fill="rgb(255,188,66)" stroke="none" paint-order="stroke" d="M 447.359619140625 498.9090881347656 L 874.4723205566406 498.9090881347656 L 874.4723205566406 551.5454521179199 L 447.359619140625 551.5454521179199 L 447.359619140625 498.9090881347656" fill-opacity="1" clip-path="url(#ZlPdzuAqzJcF)"/><path fill="rgb(255,188,66)" stroke="none" paint-order="stroke" d="M 875.1317749023438 498.9090881347656 L 885.3276586532593 498.9090881347656 L 885.3276586532593 551.5454521179199 L 875.1317749023438 551.5454521179199 L 875.1317749023438 498.9090881347656" fill-opacity="1" clip-path="url(#ZlPdzuAqzJcF)"/><path fill="rgb(143,45,86)" stroke="none" paint-order="stroke" d="M 58.5 551.5454711914062 L 738.025390625 551.5454711914062 L 738.025390625 604.1818351745605 L 58.5 604.1818351745605 L 58.5 551.5454711914062" fill-opacity="1" clip-path="url(#pGMPZZdRxXCr)"/><path fill="rgb(81,60,99)" stroke="none" paint-order="stroke" d="M 738.025390625 551.5454711914062 L 738.0662866234779 551.5454711914062 L 738.0662866234779 604.1818351745605 L 738.025390625 604.1818351745605 L 738.025390625 551.5454711914062" fill-opacity="1" clip-path="url(#pGMPZZdRxXCr)"/><path fill="rgb(143,45,86)" stroke="none" paint-order="stroke" d="M 738.0662841796875 551.5454711914062 L 738.7909101843834 551.5454711914062 L 738.7909101843834 604.1818351745605 L 738.0662841796875 604.1818351745605 L 738.0662841796875 551.5454711914062" fill-opacity="1" clip-path="url(#pGMPZZdRxXCr)"/><path fill="rgb(81,60,99)" stroke="none" paint-order="stroke" d="M 738.7908935546875 551.5454711914062 L 739.9193675518036 551.5454711914062 L 739.9193675518036 604.1818351745605 L 738.7908935546875 604.1818351745605 L 738.7908935546875 551.5454711914062" fill-opacity="1" clip-path="url(#pGMPZZdRxXCr)"/><path fill="rgb(143,45,86)" stroke="none" paint-order="stroke" d="M 739.9193725585938 551.5454711914062 L 741.1960945129395 551.5454711914062 L 741.1960945129395 604.1818351745605 L 739.9193725585938 604.1818351745605 L 739.9193725585938 551.5454711914062" fill-opacity="1" clip-path="url(#pGMPZZdRxXCr)"/><path fill="rgb(81,60,99)" stroke="none" paint-order="stroke" d="M 741.1961059570312 551.5454711914062 L 885.3276672363281 551.5454711914062 L 885.3276672363281 604.1818351745605 L 741.1961059570312 604.1818351745605 L 741.1961059570312 551.5454711914062" fill-opacity="1" clip-path="url(#pGMPZZdRxXCr)"/><path fill="none" stroke="rgb(0,0,0)" paint-order="fill" d="M 58.5 77.81818389892578 L 885.32763671875 77.81818389892578 L 885.32763671875 604.1818313598633 L 58.5 604.1818313598633 L 58.5 77.81818389892578" stroke-opacity="1" stroke-linejoin="bevel" stroke-miterlimit="10" stroke-dasharray="" clip-path="url(#htAaBulRZxow)"/><path fill="none" stroke="rgb(0,0,0)" paint-order="fill" d="M 58.5 630.5 L 1336.5 630.5" stroke-opacity="1" stroke-linejoin="bevel" stroke-miterlimit="10" stroke-dasharray=""/><path fill="none" stroke="rgb(0,0,0)" paint-order="fill" d="M 58.5 636.5 L 58.5 628.5 M 314.5 636.5 L 314.5 628.5 M 569.5 636.5 L 569.5 628.5 M 825.5 636.5 L 825.5 628.5 M 1080.5 636.5 L 1080.5 628.5 M 1336.5 636.5 L 1336.5 628.5" stroke-opacity="1" stroke-linejoin="bevel" stroke-miterlimit="10" stroke-dasharray=""/><path fill="none" stroke="rgb(0,0,0)" paint-order="fill" d="M 58.5 634.5 L 58.5 630.5 M 109.5 634.5 L 109.5 630.5 M 160.5 634.5 L 160.5 630.5 M 211.5 634.5 L 211.5 630.5 M 262.5 634.5 L 262.5 630.5 M 314.5 634.5 L 314.5 630.5 M 365.5 634.5 L 365.5 630.5 M 416.5 634.5 L 416.5 630.5 M 467.5 634.5 L 467.5 630.5 M 518.5 634.5 L 518.5 630.5 M 569.5 634.5 L 569.5 630.5 M 620.5 634.5 L 620.5 630.5 M 671.5 634.5 L 671.5 630.5 M 723.5 634.5 L 723.5 630.5 M 774.5 634.5 L 774.5 630.5 M 825.5 634.5 L 825.5 630.5 M 876.5 634.5 L 876.5 630.5 M 927.5 634.5 L 927.5 630.5 M 978.5 634.5 L 978.5 630.5 M 1029.5 634.5 L 1029.5 630.5 M 1080.5 634.5 L 1080.5 630.5 M 1132.5 634.5 L 1132.5 630.5 M 1183.5 634.5 L 1183.5 630.5 M 1234.5 634.5 L 1234.5 630.5 M 1285.5 634.5 L 1285.5 630.5 M 1336.5 634.5 L 1336.5 630.5" stroke-opacity="1" stroke-linejoin="bevel" stroke-miterlimit="10" stroke-dasharray=""/><text fill="rgb(68,68,68)" stroke="none" font-family="helvetica" font-size="11px" font-style="normal" font-weight="normal" text-decoration="normal" x="54.94166660308838" y="648.89013671875" text-anchor="start" dominant-baseline="alphabetic" transform="matrix(1, 0, 0, 1, 0.5, 0.5)" fill-opacity="1">0</text><text fill="rgb(68,68,68)" stroke="none" font-family="helvetica" font-size="11px" font-style="normal" font-weight="normal" text-decoration="normal" x="304.42500591278076" y="648.89013671875" text-anchor="start" dominant-baseline="alphabetic" transform="matrix(1, 0, 0, 1, 0.5, 0.5)" fill-opacity="1">200</text><text fill="rgb(68,68,68)" stroke="none" font-family="helvetica" font-size="11px" font-style="normal" font-weight="normal" text-decoration="normal" x="560.0250120162964" y="648.89013671875" text-anchor="start" dominant-baseline="alphabetic" transform="matrix(1, 0, 0, 1, 0.5, 0.5)" fill-opacity="1">400</text><text fill="rgb(68,68,68)" stroke="none" font-family="helvetica" font-size="11px" font-style="normal" font-weight="normal" text-decoration="normal" x="815.6249876022339" y="648.89013671875" text-anchor="start" dominant-baseline="alphabetic" transform="matrix(1, 0, 0, 1, 0.5, 0.5)" fill-opacity="1">600</text><text fill="rgb(68,68,68)" stroke="none" font-family="helvetica" font-size="11px" font-style="normal" font-weight="normal" text-decoration="normal" x="1071.2250242233276" y="648.89013671875" text-anchor="start" dominant-baseline="alphabetic" transform="matrix(1, 0, 0, 1, 0.5, 0.5)" fill-opacity="1">800</text><text fill="rgb(68,68,68)" stroke="none" font-family="helvetica" font-size="11px" font-style="normal" font-weight="normal" text-decoration="normal" x="1323.7666664123535" y="648.89013671875" text-anchor="start" dominant-baseline="alphabetic" transform="matrix(1, 0, 0, 1, 0.5, 0.5)" fill-opacity="1">1000</text><text fill="rgb(68,68,68)" stroke="none" font-family="helvetica" font-size="15pt" font-style="italic" font-weight="normal" text-decoration="normal" x="666.4416675567627" y="676.06982421875" text-anchor="start" dominant-baseline="alphabetic" transform="matrix(1, 0, 0, 1, 0.5, 0.5)" fill-opacity="1">time(s)</text><path fill="none" stroke="rgb(0,0,0)" paint-order="fill" d="M 58.5 630.5 L 58.5 51.5" stroke-opacity="1" stroke-linejoin="bevel" stroke-miterlimit="10" stroke-dasharray=""/><path fill="none" stroke="rgb(0,0,0)" paint-order="fill" d="M 52.5 551.5 L 60.5 551.5 M 52.5 446.5 L 60.5 446.5 M 52.5 341.5 L 60.5 341.5 M 52.5 235.5 L 60.5 235.5 M 52.5 130.5 L 60.5 130.5" stroke-opacity="1" stroke-linejoin="bevel" stroke-miterlimit="10" stroke-dasharray=""/><path fill="none" stroke="rgb(0,0,0)" paint-order="fill" d="M 54.5 572.5 L 58.5 572.5 M 54.5 593.5 L 58.5 593.5 M 54.5 614.5 L 58.5 614.5 M 54.5 551.5 L 58.5 551.5 M 54.5 530.5 L 58.5 530.5 M 54.5 509.5 L 58.5 509.5 M 54.5 488.5 L 58.5 488.5 M 54.5 467.5 L 58.5 467.5 M 54.5 446.5 L 58.5 446.5 M 54.5 425.5 L 58.5 425.5 M 54.5 404.5 L 58.5 404.5 M 54.5 383.5 L 58.5 383.5 M 54.5 362.5 L 58.5 362.5 M 54.5 341.5 L 58.5 341.5 M 54.5 319.5 L 58.5 319.5 M 54.5 298.5 L 58.5 298.5 M 54.5 277.5 L 58.5 277.5 M 54.5 256.5 L 58.5 256.5 M 54.5 235.5 L 58.5 235.5 M 54.5 214.5 L 58.5 214.5 M 54.5 193.5 L 58.5 193.5 M 54.5 172.5 L 58.5 172.5 M 54.5 151.5 L 58.5 151.5 M 54.5 130.5 L 58.5 130.5 M 54.5 109.5 L 58.5 109.5 M 54.5 88.5 L 58.5 88.5 M 54.5 67.5 L 58.5 67.5" stroke-opacity="1" stroke-linejoin="bevel" stroke-miterlimit="10" stroke-dasharray=""/><text fill="rgb(68,68,68)" stroke="none" font-family="helvetica" font-size="11px" font-style="normal" font-weight="normal" text-decoration="normal" x="34.46666622161865" y="554.9905395507812" text-anchor="start" dominant-baseline="alphabetic" transform="matrix(1, 0, 0, 1, 0.5, 0.5)" fill-opacity="1">−2</text><text fill="rgb(68,68,68)" stroke="none" font-family="helvetica" font-size="11px" font-style="normal" font-weight="normal" text-decoration="normal" x="34.46666622161865" y="449.7178039550781" text-anchor="start" dominant-baseline="alphabetic" transform="matrix(1, 0, 0, 1, 0.5, 0.5)" fill-opacity="1">−1</text><text fill="rgb(68,68,68)" stroke="none" font-family="helvetica" font-size="11px" font-style="normal" font-weight="normal" text-decoration="normal" x="40.88333320617676" y="344.445068359375" text-anchor="start" dominant-baseline="alphabetic" transform="matrix(1, 0, 0, 1, 0.5, 0.5)" fill-opacity="1">0</text><text fill="rgb(68,68,68)" stroke="none" font-family="helvetica" font-size="11px" font-style="normal" font-weight="normal" text-decoration="normal" x="40.88333320617676" y="239.17234802246094" text-anchor="start" dominant-baseline="alphabetic" transform="matrix(1, 0, 0, 1, 0.5, 0.5)" fill-opacity="1">1</text><text fill="rgb(68,68,68)" stroke="none" font-family="helvetica" font-size="11px" font-style="normal" font-weight="normal" text-decoration="normal" x="40.88333320617676" y="133.8996124267578" text-anchor="start" dominant-baseline="alphabetic" transform="matrix(1, 0, 0, 1, 0.5, 0.5)" fill-opacity="1">2</text><text fill="rgb(68,68,68)" stroke="none" font-family="helvetica" font-size="15pt" font-style="italic" font-weight="normal" text-decoration="normal" x="-11.316666603088379" y="336.076171875" text-anchor="start" dominant-baseline="alphabetic" transform="matrix(6.123233995736766e-17, -1, 1, 6.123233995736766e-17, -313.53333377838135, 367.46666622161865)" fill-opacity="1">students</text><path fill="rgb(255,255,255)" stroke="rgb(229,229,229)" paint-order="fill" d="M 1128.2333374023438 61.5 L 1326.5 61.5 L 1326.5 400.5 L 1128.2333374023438 400.5 L 1128.2333374023438 61.5" fill-opacity="0.9490196078431372" clip-path="url(#EiGxUrcHWiTm)" stroke-opacity="0.5019607843137255" stroke-linejoin="bevel" stroke-miterlimit="10" stroke-dasharray=""/><text fill="rgb(68,68,68)" stroke="none" font-family="helvetica" font-size="13px" font-style="normal" font-weight="normal" text-decoration="normal" x="1162.7333374023438" y="81" text-anchor="start" dominant-baseline="central" clip-path="url(#EiGxUrcHWiTm)" transform="matrix(1, 0, 0, 1, 0.5, 0.5)" fill-opacity="1">wavelength</text><path fill="rgb(0,255,40)" stroke="none" paint-order="stroke" d="M 1140.2333374023438 73.5 L 1156.2333374023438 73.5 L 1156.2333374023438 89.5 L 1140.2333374023438 89.5 L 1140.2333374023438 73.5" fill-opacity="1" clip-path="url(#EiGxUrcHWiTm)"/><path fill="rgb(216,17,89)" stroke="none" paint-order="stroke" d="M 1140.2333374023438 73.5 L 1156.2333374023438 73.5 L 1156.2333374023438 89.5 L 1140.2333374023438 89.5 L 1140.2333374023438 73.5" fill-opacity="1" clip-path="url(#EiGxUrcHWiTm)"/><text fill="rgb(68,68,68)" stroke="none" font-family="helvetica" font-size="13px" font-style="normal" font-weight="normal" text-decoration="normal" x="1162.7333374023438" y="104" text-anchor="start" dominant-baseline="central" clip-path="url(#EiGxUrcHWiTm)" transform="matrix(1, 0, 0, 1, 0.5, 0.5)" fill-opacity="1">solution</text><path fill="rgb(251,0,7)" stroke="none" paint-order="stroke" d="M 1140.2333374023438 96.5 L 1156.2333374023438 96.5 L 1156.2333374023438 112.5 L 1140.2333374023438 112.5 L 1140.2333374023438 96.5" fill-opacity="1" clip-path="url(#EiGxUrcHWiTm)"/><path fill="rgb(33,131,128)" stroke="none" paint-order="stroke" d="M 1140.2333374023438 96.5 L 1156.2333374023438 96.5 L 1156.2333374023438 112.5 L 1140.2333374023438 112.5 L 1140.2333374023438 96.5" fill-opacity="1" clip-path="url(#EiGxUrcHWiTm)"/><text fill="rgb(68,68,68)" stroke="none" font-family="helvetica" font-size="13px" font-style="normal" font-weight="normal" text-decoration="normal" x="1162.7333374023438" y="127" text-anchor="start" dominant-baseline="central" clip-path="url(#EiGxUrcHWiTm)" transform="matrix(1, 0, 0, 1, 0.5, 0.5)" fill-opacity="1">laser</text><path fill="rgb(105,29,48)" stroke="none" paint-order="stroke" d="M 1140.2333374023438 119.5 L 1156.2333374023438 119.5 L 1156.2333374023438 135.5 L 1140.2333374023438 135.5 L 1140.2333374023438 119.5" fill-opacity="1" clip-path="url(#EiGxUrcHWiTm)"/><text fill="rgb(68,68,68)" stroke="none" font-family="helvetica" font-size="13px" font-style="normal" font-weight="normal" text-decoration="normal" x="1162.7333374023438" y="150" text-anchor="start" dominant-baseline="central" clip-path="url(#EiGxUrcHWiTm)" transform="matrix(1, 0, 0, 1, 0.5, 0.5)" fill-opacity="1">ruler</text><path fill="rgb(255,188,66)" stroke="none" paint-order="stroke" d="M 1140.2333374023438 142.5 L 1156.2333374023438 142.5 L 1156.2333374023438 158.5 L 1140.2333374023438 158.5 L 1140.2333374023438 142.5" fill-opacity="1" clip-path="url(#EiGxUrcHWiTm)"/><text fill="rgb(68,68,68)" stroke="none" font-family="helvetica" font-size="13px" font-style="normal" font-weight="normal" text-decoration="normal" x="1162.7333374023438" y="173" text-anchor="start" dominant-baseline="central" clip-path="url(#EiGxUrcHWiTm)" transform="matrix(1, 0, 0, 1, 0.5, 0.5)" fill-opacity="1">restarts</text><text fill="rgb(68,68,68)" stroke="none" font-family="helvetica" font-size="13px" font-style="normal" font-weight="normal" text-decoration="normal" x="1162.7333374023438" y="196" text-anchor="start" dominant-baseline="central" clip-path="url(#EiGxUrcHWiTm)" transform="matrix(1, 0, 0, 1, 0.5, 0.5)" fill-opacity="1">transmittance_absorbance</text><path fill="rgb(162,174,187)" stroke="none" paint-order="stroke" d="M 1140.2333374023438 188.5 L 1156.2333374023438 188.5 L 1156.2333374023438 204.5 L 1140.2333374023438 204.5 L 1140.2333374023438 188.5" fill-opacity="1" clip-path="url(#EiGxUrcHWiTm)"/><text fill="rgb(68,68,68)" stroke="none" font-family="helvetica" font-size="13px" font-style="normal" font-weight="normal" text-decoration="normal" x="1162.7333374023438" y="219" text-anchor="start" dominant-baseline="central" clip-path="url(#EiGxUrcHWiTm)" transform="matrix(1, 0, 0, 1, 0.5, 0.5)" fill-opacity="1">magnifier</text><path fill="rgb(255,188,66)" stroke="none" paint-order="stroke" d="M 1140.2333374023438 211.5 L 1156.2333374023438 211.5 L 1156.2333374023438 227.5 L 1140.2333374023438 227.5 L 1140.2333374023438 211.5" fill-opacity="1" clip-path="url(#EiGxUrcHWiTm)"/><text fill="rgb(68,68,68)" stroke="none" font-family="helvetica" font-size="13px" font-style="normal" font-weight="normal" text-decoration="normal" x="1162.7333374023438" y="242" text-anchor="start" dominant-baseline="central" clip-path="url(#EiGxUrcHWiTm)" transform="matrix(1, 0, 0, 1, 0.5, 0.5)" fill-opacity="1">concentration</text><path fill="rgb(115,210,222)" stroke="none" paint-order="stroke" d="M 1140.2333374023438 234.5 L 1156.2333374023438 234.5 L 1156.2333374023438 250.5 L 1140.2333374023438 250.5 L 1140.2333374023438 234.5" fill-opacity="1" clip-path="url(#EiGxUrcHWiTm)"/><text fill="rgb(68,68,68)" stroke="none" font-family="helvetica" font-size="13px" font-style="normal" font-weight="normal" text-decoration="normal" x="1162.7333374023438" y="265" text-anchor="start" dominant-baseline="central" clip-path="url(#EiGxUrcHWiTm)" transform="matrix(1, 0, 0, 1, 0.5, 0.5)" fill-opacity="1">flask</text><path fill="rgb(28,49,68)" stroke="none" paint-order="stroke" d="M 1140.2333374023438 257.5 L 1156.2333374023438 257.5 L 1156.2333374023438 273.5 L 1140.2333374023438 273.5 L 1140.2333374023438 257.5" fill-opacity="1" clip-path="url(#EiGxUrcHWiTm)"/><text fill="rgb(68,68,68)" stroke="none" font-family="helvetica" font-size="13px" font-style="normal" font-weight="normal" text-decoration="normal" x="1162.7333374023438" y="288" text-anchor="start" dominant-baseline="central" clip-path="url(#EiGxUrcHWiTm)" transform="matrix(1, 0, 0, 1, 0.5, 0.5)" fill-opacity="1">pdf</text><path fill="rgb(239,185,203)" stroke="none" paint-order="stroke" d="M 1140.2333374023438 280.5 L 1156.2333374023438 280.5 L 1156.2333374023438 296.5 L 1140.2333374023438 296.5 L 1140.2333374023438 280.5" fill-opacity="1" clip-path="url(#EiGxUrcHWiTm)"/><text fill="rgb(68,68,68)" stroke="none" font-family="helvetica" font-size="13px" font-style="normal" font-weight="normal" text-decoration="normal" x="1162.7333374023438" y="311" text-anchor="start" dominant-baseline="central" clip-path="url(#EiGxUrcHWiTm)" transform="matrix(1, 0, 0, 1, 0.5, 0.5)" fill-opacity="1">concentrationlab</text><text fill="rgb(68,68,68)" stroke="none" font-family="helvetica" font-size="13px" font-style="normal" font-weight="normal" text-decoration="normal" x="1162.7333374023438" y="334" text-anchor="start" dominant-baseline="central" clip-path="url(#EiGxUrcHWiTm)" transform="matrix(1, 0, 0, 1, 0.5, 0.5)" fill-opacity="1">wavelength_slider</text><path fill="rgb(105,29,48)" stroke="none" paint-order="stroke" d="M 1140.2333374023438 326.5 L 1156.2333374023438 326.5 L 1156.2333374023438 342.5 L 1140.2333374023438 342.5 L 1140.2333374023438 326.5" fill-opacity="1" clip-path="url(#EiGxUrcHWiTm)"/><text fill="rgb(68,68,68)" stroke="none" font-family="helvetica" font-size="13px" font-style="normal" font-weight="normal" text-decoration="normal" x="1162.7333374023438" y="357" text-anchor="start" dominant-baseline="central" clip-path="url(#EiGxUrcHWiTm)" transform="matrix(1, 0, 0, 1, 0.5, 0.5)" fill-opacity="1">ruler measuring</text><path fill="rgb(255,188,66)" stroke="none" paint-order="stroke" d="M 1140.2333374023438 349.5 L 1156.2333374023438 349.5 L 1156.2333374023438 365.5 L 1140.2333374023438 365.5 L 1140.2333374023438 349.5" fill-opacity="1" clip-path="url(#EiGxUrcHWiTm)"/><text fill="rgb(68,68,68)" stroke="none" font-family="helvetica" font-size="13px" font-style="normal" font-weight="normal" text-decoration="normal" x="1162.7333374023438" y="380" text-anchor="start" dominant-baseline="central" clip-path="url(#EiGxUrcHWiTm)" transform="matrix(1, 0, 0, 1, 0.5, 0.5)" fill-opacity="1">dependent variable</text><path fill="rgb(143,45,86)" stroke="none" paint-order="stroke" d="M 1140.2333374023438 372.5 L 1156.2333374023438 372.5 L 1156.2333374023438 388.5 L 1140.2333374023438 388.5 L 1140.2333374023438 372.5" fill-opacity="1" clip-path="url(#EiGxUrcHWiTm)"/><text fill="rgb(68,68,68)" stroke="none" font-family="helvetica" font-size="25pt" font-style="normal" font-weight="bold" text-decoration="normal" x="58" y="38.740885416666664" text-anchor="start" dominant-baseline="alphabetic" transform="matrix(1, 0, 0, 1, 0.5, 0.5)" fill-opacity="1">Timeline for student 4rhnvke9 with permutation 3120 for task 2</text></svg>