<svg version="1.1" xmlns="http://www.w3.org/2000/svg" width="1366" height="683"><defs><clipPath id="CpKipqwLZaJf"><path fill="none" stroke="none" d="M 58.5 51.5 L 1336.5 51.5 L 1336.5 630.5 L 58.5 630.5 L 58.5 51.5"/></clipPath><clipPath id="RpanKclKUTgT"><path fill="none" stroke="none" d="M 58.5 51.5 L 1336.5 51.5 L 1336.5 630.5 L 58.5 630.5 L 58.5 51.5"/></clipPath><clipPath id="aezSkokABqDe"><path fill="none" stroke="none" d="M 58.5 51.5 L 1336.5 51.5 L 1336.5 630.5 L 58.5 630.5 L 58.5 51.5"/></clipPath><clipPath id="uEpQLBEVMwAR"><path fill="none" stroke="none" d="M 58.5 51.5 L 1336.5 51.5 L 1336.5 630.5 L 58.5 630.5 L 58.5 51.5"/></clipPath><clipPath id="OTEqZemkbKnX"><path fill="none" stroke="none" d="M 58.5 51.5 L 1336.5 51.5 L 1336.5 630.5 L 58.5 630.5 L 58.5 51.5"/></clipPath><clipPath id="icmBMPKUTtDB"><path fill="none" stroke="none" d="M 58.5 51.5 L 1336.5 51.5 L 1336.5 630.5 L 58.5 630.5 L 58.5 51.5"/></clipPath><clipPath id="olsZRohzNCmH"><path fill="none" stroke="none" d="M 58.5 51.5 L 1336.5 51.5 L 1336.5 630.5 L 58.5 630.5 L 58.5 51.5"/></clipPath><clipPath id="CsNbguUzZtUJ"><path fill="none" stroke="none" d="M 58.5 51.5 L 1336.5 51.5 L 1336.5 630.5 L 58.5 630.5 L 58.5 51.5"/></clipPath><clipPath id="KxTQFvkyXZIt"><path fill="none" stroke="none" d="M 58.5 51.5 L 1336.5 51.5 L 1336.5 630.5 L 58.5 630.5 L 58.5 51.5"/></clipPath><clipPath id="xOtVeaXaZiEF"><path fill="none" stroke="none" d="M 58.5 51.5 L 1336.5 51.5 L 1336.5 630.5 L 58.5 630.5 L 58.5 51.5"/></clipPath><clipPath id="DdOKeULzpflU"><path fill="none" stroke="none" d="M 58.5 51.5 L 1336.5 51.5 L 1336.5 630.5 L 58.5 630.5 L 58.5 51.5"/></clipPath><clipPath id="QtiNNOOZDcGF"><path fill="none" stroke="none" d="M 58.5 51.5 L 1336.5 51.5 L 1336.5 630.5 L 58.5 630.5 L 58.5 51.5"/></clipPath><clipPath id="sLDgFoqnSqzP"><path fill="none" stroke="none" d="M 58.5 51.5 L 1336.5 51.5 L 1336.5 630.5 L 58.5 630.5 L 58.5 51.5"/></clipPath><clipPath id="doftThKcOWVP"><path fill="none" stroke="none" d="M 58.5 51.5 L 1336.5 51.5 L 1336.5 630.5 L 58.5 630.5 L 58.5 51.5"/></clipPath><clipPath id="GtxQxGeUVudH"><path fill="none" stroke="none" d="M 58.5 51.5 L 1336.5 51.5 L 1336.5 630.5 L 58.5 630.5 L 58.5 51.5"/></clipPath><clipPath id="qfzmIBUBRrSL"><path fill="none" stroke="none" d="M 58.5 51.5 L 1336.5 51.5 L 1336.5 630.5 L 58.5 630.5 L 58.5 51.5"/></clipPath><clipPath id="dbvHXKpZHemw"><path fill="none" stroke="none" d="M 58.5 51.5 L 1336.5 51.5 L 1336.5 630.5 L 58.5 630.5 L 58.5 51.5"/></clipPath><clipPath id="cNTcMHDbqENl"><path fill="none" stroke="none" d="M 58.5 51.5 L 1336.5 51.5 L 1336.5 630.5 L 58.5 630.5 L 58.5 51.5"/></clipPath><clipPath id="bfvWbgdSgrDp"><path fill="none" stroke="none" d="M 58.5 51.5 L 1336.5 51.5 L 1336.5 630.5 L 58.5 630.5 L 58.5 51.5"/></clipPath><clipPath id="kVbMUSDfZRWN"><path fill="none" stroke="none" d="M 58.5 51.5 L 1336.5 51.5 L 1336.5 630.5 L 58.5 630.5 L 58.5 51.5"/></clipPath><clipPath id="uATFTEtZxhZD"><path fill="none" stroke="none" d="M 58.5 51.5 L 1336.5 51.5 L 1336.5 630.5 L 58.5 630.5 L 58.5 51.5"/></clipPath></defs><path fill="rgb(255,255,255)" stroke="none" paint-order="stroke" d="M 0.5 0.5 L 1366.5 0.5 L 1366.5 683.5 L 0.5 683.5 L 0.5 0.5" fill-opacity="1"/><rect fill="#FFFFFF" stroke="none" x="58" y="51" width="1278" height="579" transform="matrix(1, 0, 0, 1, 0.5, 0.5)"/><path fill="rgb(255,255,255)" stroke="none" paint-order="stroke" d="M 58.5 51.5 L 1336.5 51.5 L 1336.5 630.5 L 58.5 630.5 L 58.5 51.5" fill-opacity="1"/><path fill="none" stroke="rgb(229,229,229)" paint-order="fill" d="M 58.5 51.5 L 1336.5 51.5 L 1336.5 630.5 L 58.5 630.5 L 58.5 51.5" stroke-opacity="1" stroke-linejoin="bevel" stroke-miterlimit="10" stroke-dasharray=""/><path fill="none" stroke="rgb(229,229,229)" paint-order="fill" d="M 314.5 630.5 L 314.5 51.5 M 569.5 630.5 L 569.5 51.5 M 825.5 630.5 L 825.5 51.5 M 1080.5 630.5 L 1080.5 51.5" stroke-opacity="1" stroke-linejoin="bevel" stroke-miterlimit="10" stroke-dasharray="" clip-path="url(#CpKipqwLZaJf)"/><path fill="none" stroke="rgb(229,229,229)" paint-order="fill" d="M 58.5 551.5 L 1336.5 551.5 M 58.5 446.5 L 1336.5 446.5 M 58.5 341.5 L 1336.5 341.5 M 58.5 235.5 L 1336.5 235.5 M 58.5 130.5 L 1336.5 130.5" stroke-opacity="1" stroke-linejoin="bevel" stroke-miterlimit="10" stroke-dasharray="" clip-path="url(#RpanKclKUTgT)"/><path fill="rgb(0,255,40)" stroke="none" paint-order="stroke" d="M 58.5 77.81818389892578 L 270.24159240722656 77.81818389892578 L 270.24159240722656 130.45454788208008 L 58.5 130.45454788208008 L 58.5 77.81818389892578" fill-opacity="1" clip-path="url(#aezSkokABqDe)"/><path fill="rgb(42,0,238)" stroke="none" paint-order="stroke" d="M 270.2416076660156 77.81818389892578 L 296.3639278411865 77.81818389892578 L 296.3639278411865 130.45454788208008 L 270.2416076660156 130.45454788208008 L 270.2416076660156 77.81818389892578" fill-opacity="1" clip-path="url(#aezSkokABqDe)"/><path fill="rgb(28,0,245)" stroke="none" paint-order="stroke" d="M 296.3639221191406 77.81818389892578 L 296.40609611943364 77.81818389892578 L 296.40609611943364 130.45454788208008 L 296.3639221191406 130.45454788208008 L 296.3639221191406 77.81818389892578" fill-opacity="1" clip-path="url(#aezSkokABqDe)"/><path fill="rgb(9,0,252)" stroke="none" paint-order="stroke" d="M 296.4060974121094 77.81818389892578 L 296.4278234113008 77.81818389892578 L 296.4278234113008 130.45454788208008 L 296.4060974121094 130.45454788208008 L 296.4060974121094 77.81818389892578" fill-opacity="1" clip-path="url(#aezSkokABqDe)"/><path fill="rgb(0,19,255)" stroke="none" paint-order="stroke" d="M 296.4278259277344 77.81818389892578 L 296.44827392697334 77.81818389892578 L 296.44827392697334 130.45454788208008 L 296.4278259277344 130.45454788208008 L 296.4278259277344 77.81818389892578" fill-opacity="1" clip-path="url(#aezSkokABqDe)"/><path fill="rgb(0,40,255)" stroke="none" paint-order="stroke" d="M 296.4482727050781 77.81818389892578 L 296.53389870375395 77.81818389892578 L 296.53389870375395 130.45454788208008 L 296.4482727050781 130.45454788208008 L 296.4482727050781 77.81818389892578" fill-opacity="1" clip-path="url(#aezSkokABqDe)"/><path fill="rgb(0,81,255)" stroke="none" paint-order="stroke" d="M 296.5339050292969 77.81818389892578 L 296.6182530298829 77.81818389892578 L 296.6182530298829 130.45454788208008 L 296.5339050292969 130.45454788208008 L 296.5339050292969 77.81818389892578" fill-opacity="1" clip-path="url(#aezSkokABqDe)"/><path fill="rgb(0,97,255)" stroke="none" paint-order="stroke" d="M 296.61822509765625 77.81818389892578 L 296.66167709603906 77.81818389892578 L 296.66167709603906 130.45454788208008 L 296.61822509765625 130.45454788208008 L 296.61822509765625 77.81818389892578" fill-opacity="1" clip-path="url(#aezSkokABqDe)"/><path fill="rgb(0,112,255)" stroke="none" paint-order="stroke" d="M 296.66168212890625 77.81818389892578 L 296.7473081275821 77.81818389892578 L 296.7473081275821 130.45454788208008 L 296.66168212890625 130.45454788208008 L 296.66168212890625 77.81818389892578" fill-opacity="1" clip-path="url(#aezSkokABqDe)"/><path fill="rgb(0,127,255)" stroke="none" paint-order="stroke" d="M 296.747314453125 77.81818389892578 L 296.789488453418 77.81818389892578 L 296.789488453418 130.45454788208008 L 296.747314453125 130.45454788208008 L 296.747314453125 77.81818389892578" fill-opacity="1" clip-path="url(#aezSkokABqDe)"/><path fill="rgb(0,141,255)" stroke="none" paint-order="stroke" d="M 296.78948974609375 77.81818389892578 L 296.83166374638677 77.81818389892578 L 296.83166374638677 130.45454788208008 L 296.78948974609375 130.45454788208008 L 296.78948974609375 77.81818389892578" fill-opacity="1" clip-path="url(#aezSkokABqDe)"/><path fill="rgb(0,169,255)" stroke="none" paint-order="stroke" d="M 296.8316650390625 77.81818389892578 L 296.8533910382539 77.81818389892578 L 296.8533910382539 130.45454788208008 L 296.8316650390625 130.45454788208008 L 296.8316650390625 77.81818389892578" fill-opacity="1" clip-path="url(#aezSkokABqDe)"/><path fill="rgb(0,182,255)" stroke="none" paint-order="stroke" d="M 296.8533935546875 77.81818389892578 L 296.87384155392647 77.81818389892578 L 296.87384155392647 130.45454788208008 L 296.8533935546875 130.45454788208008 L 296.8533935546875 77.81818389892578" fill-opacity="1" clip-path="url(#aezSkokABqDe)"/><path fill="rgb(0,234,255)" stroke="none" paint-order="stroke" d="M 296.87384033203125 77.81818389892578 L 296.89556633122265 77.81818389892578 L 296.89556633122265 130.45454788208008 L 296.87384033203125 130.45454788208008 L 296.87384033203125 77.81818389892578" fill-opacity="1" clip-path="url(#aezSkokABqDe)"/><path fill="rgb(0,246,255)" stroke="none" paint-order="stroke" d="M 296.89556884765625 77.81818389892578 L 296.91729484684765 77.81818389892578 L 296.91729484684765 130.45454788208008 L 296.89556884765625 130.45454788208008 L 296.89556884765625 77.81818389892578" fill-opacity="1" clip-path="url(#aezSkokABqDe)"/><path fill="rgb(0,255,213)" stroke="none" paint-order="stroke" d="M 296.91729736328125 77.81818389892578 L 296.9377453625202 77.81818389892578 L 296.9377453625202 130.45454788208008 L 296.91729736328125 130.45454788208008 L 296.91729736328125 77.81818389892578" fill-opacity="1" clip-path="url(#aezSkokABqDe)"/><path fill="rgb(0,255,180)" stroke="none" paint-order="stroke" d="M 296.937744140625 77.81818389892578 L 297.00164414197206 77.81818389892578 L 297.00164414197206 130.45454788208008 L 296.937744140625 130.45454788208008 L 296.937744140625 77.81818389892578" fill-opacity="1" clip-path="url(#aezSkokABqDe)"/><path fill="rgb(0,255,146)" stroke="none" paint-order="stroke" d="M 297.00164794921875 77.81818389892578 L 297.0220959484577 77.81818389892578 L 297.0220959484577 130.45454788208008 L 297.00164794921875 130.45454788208008 L 297.00164794921875 77.81818389892578" fill-opacity="1" clip-path="url(#aezSkokABqDe)"/><path fill="rgb(0,255,110)" stroke="none" paint-order="stroke" d="M 297.0220947265625 77.81818389892578 L 297.08727272599936 77.81818389892578 L 297.08727272599936 130.45454788208008 L 297.0220947265625 130.45454788208008 L 297.0220947265625 77.81818389892578" fill-opacity="1" clip-path="url(#aezSkokABqDe)"/><path fill="rgb(0,255,70)" stroke="none" paint-order="stroke" d="M 297.0872497558594 77.81818389892578 L 297.2150497585535 77.81818389892578 L 297.2150497585535 130.45454788208008 L 297.0872497558594 130.45454788208008 L 297.0872497558594 77.81818389892578" fill-opacity="1" clip-path="url(#aezSkokABqDe)"/><path fill="rgb(0,255,23)" stroke="none" paint-order="stroke" d="M 297.2150573730469 77.81818389892578 L 297.72242337465286 77.81818389892578 L 297.72242337465286 130.45454788208008 L 297.2150573730469 130.45454788208008 L 297.2150573730469 77.81818389892578" fill-opacity="1" clip-path="url(#aezSkokABqDe)"/><path fill="rgb(0,255,70)" stroke="none" paint-order="stroke" d="M 297.7224426269531 77.81818389892578 L 297.76589462533593 77.81818389892578 L 297.76589462533593 130.45454788208008 L 297.7224426269531 130.45454788208008 L 297.7224426269531 77.81818389892578" fill-opacity="1" clip-path="url(#aezSkokABqDe)"/><path fill="rgb(0,255,146)" stroke="none" paint-order="stroke" d="M 297.765869140625 77.81818389892578 L 297.82976914197206 77.81818389892578 L 297.82976914197206 130.45454788208008 L 297.765869140625 130.45454788208008 L 297.765869140625 77.81818389892578" fill-opacity="1" clip-path="url(#aezSkokABqDe)"/><path fill="rgb(0,255,213)" stroke="none" paint-order="stroke" d="M 297.82977294921875 77.81818389892578 L 298.02147294580936 77.81818389892578 L 298.02147294580936 130.45454788208008 L 297.82977294921875 130.45454788208008 L 297.82977294921875 77.81818389892578" fill-opacity="1" clip-path="url(#aezSkokABqDe)"/><path fill="rgb(0,255,244)" stroke="none" paint-order="stroke" d="M 298.021484375 77.81818389892578 L 298.34098437428474 77.81818389892578 L 298.34098437428474 130.45454788208008 L 298.021484375 130.45454788208008 L 298.021484375 77.81818389892578" fill-opacity="1" clip-path="url(#aezSkokABqDe)"/><path fill="rgb(0,246,255)" stroke="none" paint-order="stroke" d="M 298.3409729003906 77.81818389892578 L 298.36014289967716 77.81818389892578 L 298.36014289967716 130.45454788208008 L 298.3409729003906 130.45454788208008 L 298.3409729003906 77.81818389892578" fill-opacity="1" clip-path="url(#aezSkokABqDe)"/><path fill="rgb(0,234,255)" stroke="none" paint-order="stroke" d="M 298.3601379394531 77.81818389892578 L 298.40358993783593 77.81818389892578 L 298.40358993783593 130.45454788208008 L 298.3601379394531 130.45454788208008 L 298.3601379394531 77.81818389892578" fill-opacity="1" clip-path="url(#aezSkokABqDe)"/><path fill="rgb(0,221,255)" stroke="none" paint-order="stroke" d="M 298.4035949707031 77.81818389892578 L 298.44449096918106 77.81818389892578 L 298.44449096918106 130.45454788208008 L 298.4035949707031 130.45454788208008 L 298.4035949707031 77.81818389892578" fill-opacity="1" clip-path="url(#aezSkokABqDe)"/><path fill="rgb(0,209,255)" stroke="none" paint-order="stroke" d="M 298.4444885253906 77.81818389892578 L 299.6151365041733 77.81818389892578 L 299.6151365041733 130.45454788208008 L 298.4444885253906 130.45454788208008 L 298.4444885253906 77.81818389892578" fill-opacity="1" clip-path="url(#aezSkokABqDe)"/><path fill="rgb(0,221,255)" stroke="none" paint-order="stroke" d="M 299.6151428222656 77.81818389892578 L 299.6355908215046 77.81818389892578 L 299.6355908215046 130.45454788208008 L 299.6151428222656 130.45454788208008 L 299.6151428222656 77.81818389892578" fill-opacity="1" clip-path="url(#aezSkokABqDe)"/><path fill="rgb(0,234,255)" stroke="none" paint-order="stroke" d="M 299.6355895996094 77.81818389892578 L 299.65603759884834 77.81818389892578 L 299.65603759884834 130.45454788208008 L 299.6355895996094 130.45454788208008 L 299.6355895996094 77.81818389892578" fill-opacity="1" clip-path="url(#aezSkokABqDe)"/><path fill="rgb(0,255,213)" stroke="none" paint-order="stroke" d="M 299.6560363769531 77.81818389892578 L 299.67904037609696 77.81818389892578 L 299.67904037609696 130.45454788208008 L 299.6560363769531 130.45454788208008 L 299.6560363769531 77.81818389892578" fill-opacity="1" clip-path="url(#aezSkokABqDe)"/><path fill="rgb(0,255,180)" stroke="none" paint-order="stroke" d="M 299.6790466308594 77.81818389892578 L 299.69949463009834 77.81818389892578 L 299.69949463009834 130.45454788208008 L 299.6790466308594 130.45454788208008 L 299.6790466308594 77.81818389892578" fill-opacity="1" clip-path="url(#aezSkokABqDe)"/><path fill="rgb(0,255,70)" stroke="none" paint-order="stroke" d="M 299.6994934082031 77.81818389892578 L 299.7199414074421 77.81818389892578 L 299.7199414074421 130.45454788208008 L 299.6994934082031 130.45454788208008 L 299.6994934082031 77.81818389892578" fill-opacity="1" clip-path="url(#aezSkokABqDe)"/><path fill="rgb(35,255,0)" stroke="none" paint-order="stroke" d="M 299.7199401855469 77.81818389892578 L 299.7416661847383 77.81818389892578 L 299.7416661847383 130.45454788208008 L 299.7199401855469 130.45454788208008 L 299.7199401855469 77.81818389892578" fill-opacity="1" clip-path="url(#aezSkokABqDe)"/><path fill="rgb(49,255,0)" stroke="none" paint-order="stroke" d="M 299.7416687011719 77.81818389892578 L 299.8272946998477 77.81818389892578 L 299.8272946998477 130.45454788208008 L 299.7416687011719 130.45454788208008 L 299.7416687011719 77.81818389892578" fill-opacity="1" clip-path="url(#aezSkokABqDe)"/><path fill="rgb(62,255,0)" stroke="none" paint-order="stroke" d="M 299.8273010253906 77.81818389892578 L 299.91164902597666 77.81818389892578 L 299.91164902597666 130.45454788208008 L 299.8273010253906 130.45454788208008 L 299.8273010253906 77.81818389892578" fill-opacity="1" clip-path="url(#aezSkokABqDe)"/><path fill="rgb(74,255,0)" stroke="none" paint-order="stroke" d="M 299.9116516113281 77.81818389892578 L 299.95510360971093 77.81818389892578 L 299.95510360971093 130.45454788208008 L 299.9116516113281 130.45454788208008 L 299.9116516113281 77.81818389892578" fill-opacity="1" clip-path="url(#aezSkokABqDe)"/><path fill="rgb(86,255,0)" stroke="none" paint-order="stroke" d="M 299.9551086425781 77.81818389892578 L 299.99728264287114 77.81818389892578 L 299.99728264287114 130.45454788208008 L 299.9551086425781 130.45454788208008 L 299.9551086425781 77.81818389892578" fill-opacity="1" clip-path="url(#aezSkokABqDe)"/><path fill="rgb(108,255,0)" stroke="none" paint-order="stroke" d="M 299.9972839355469 77.81818389892578 L 300.0381799340248 77.81818389892578 L 300.0381799340248 130.45454788208008 L 299.9972839355469 130.45454788208008 L 299.9972839355469 77.81818389892578" fill-opacity="1" clip-path="url(#aezSkokABqDe)"/><path fill="rgb(119,255,0)" stroke="none" paint-order="stroke" d="M 300.0381774902344 77.81818389892578 L 300.0611814893782 77.81818389892578 L 300.0611814893782 130.45454788208008 L 300.0381774902344 130.45454788208008 L 300.0381774902344 77.81818389892578" fill-opacity="1" clip-path="url(#aezSkokABqDe)"/><path fill="rgb(139,255,0)" stroke="none" paint-order="stroke" d="M 300.0611572265625 77.81818389892578 L 300.08160522580147 77.81818389892578 L 300.08160522580147 130.45454788208008 L 300.0611572265625 130.45454788208008 L 300.0611572265625 77.81818389892578" fill-opacity="1" clip-path="url(#aezSkokABqDe)"/><path fill="rgb(159,255,0)" stroke="none" paint-order="stroke" d="M 300.08160400390625 77.81818389892578 L 300.10333000309765 77.81818389892578 L 300.10333000309765 130.45454788208008 L 300.08160400390625 130.45454788208008 L 300.08160400390625 77.81818389892578" fill-opacity="1" clip-path="url(#aezSkokABqDe)"/><path fill="rgb(169,255,0)" stroke="none" paint-order="stroke" d="M 300.10333251953125 77.81818389892578 L 300.12505851872265 77.81818389892578 L 300.12505851872265 130.45454788208008 L 300.10333251953125 130.45454788208008 L 300.10333251953125 77.81818389892578" fill-opacity="1" clip-path="url(#aezSkokABqDe)"/><path fill="rgb(234,255,0)" stroke="none" paint-order="stroke" d="M 300.12506103515625 77.81818389892578 L 300.14678703434765 77.81818389892578 L 300.14678703434765 130.45454788208008 L 300.12506103515625 130.45454788208008 L 300.12506103515625 77.81818389892578" fill-opacity="1" clip-path="url(#aezSkokABqDe)"/><path fill="rgb(255,235,0)" stroke="none" paint-order="stroke" d="M 300.14678955078125 77.81818389892578 L 300.1659595500678 77.81818389892578 L 300.1659595500678 130.45454788208008 L 300.14678955078125 130.45454788208008 L 300.14678955078125 77.81818389892578" fill-opacity="1" clip-path="url(#aezSkokABqDe)"/><path fill="rgb(255,216,0)" stroke="none" paint-order="stroke" d="M 300.16595458984375 77.81818389892578 L 300.1864025890827 77.81818389892578 L 300.1864025890827 130.45454788208008 L 300.16595458984375 130.45454788208008 L 300.16595458984375 77.81818389892578" fill-opacity="1" clip-path="url(#aezSkokABqDe)"/><path fill="rgb(255,186,0)" stroke="none" paint-order="stroke" d="M 300.1864013671875 77.81818389892578 L 300.20940536633134 77.81818389892578 L 300.20940536633134 130.45454788208008 L 300.1864013671875 130.45454788208008 L 300.1864013671875 77.81818389892578" fill-opacity="1" clip-path="url(#aezSkokABqDe)"/><path fill="rgb(255,176,0)" stroke="none" paint-order="stroke" d="M 300.20941162109375 77.81818389892578 L 300.25158562138677 77.81818389892578 L 300.25158562138677 130.45454788208008 L 300.20941162109375 130.45454788208008 L 300.20941162109375 77.81818389892578" fill-opacity="1" clip-path="url(#aezSkokABqDe)"/><path fill="rgb(255,165,0)" stroke="none" paint-order="stroke" d="M 300.2515869140625 77.81818389892578 L 300.2733129132539 77.81818389892578 L 300.2733129132539 130.45454788208008 L 300.2515869140625 130.45454788208008 L 300.2515869140625 77.81818389892578" fill-opacity="1" clip-path="url(#aezSkokABqDe)"/><path fill="rgb(255,155,0)" stroke="none" paint-order="stroke" d="M 300.2733154296875 77.81818389892578 L 300.3589414283633 77.81818389892578 L 300.3589414283633 130.45454788208008 L 300.2733154296875 130.45454788208008 L 300.2733154296875 77.81818389892578" fill-opacity="1" clip-path="url(#aezSkokABqDe)"/><path fill="rgb(255,144,0)" stroke="none" paint-order="stroke" d="M 300.35894775390625 77.81818389892578 L 300.40112175419927 77.81818389892578 L 300.40112175419927 130.45454788208008 L 300.35894775390625 130.45454788208008 L 300.35894775390625 77.81818389892578" fill-opacity="1" clip-path="url(#aezSkokABqDe)"/><path fill="rgb(255,133,0)" stroke="none" paint-order="stroke" d="M 300.401123046875 77.81818389892578 L 300.4867490455508 77.81818389892578 L 300.4867490455508 130.45454788208008 L 300.401123046875 130.45454788208008 L 300.401123046875 77.81818389892578" fill-opacity="1" clip-path="url(#aezSkokABqDe)"/><path fill="rgb(255,122,0)" stroke="none" paint-order="stroke" d="M 300.48675537109375 77.81818389892578 L 300.5276513695717 77.81818389892578 L 300.5276513695717 130.45454788208008 L 300.48675537109375 130.45454788208008 L 300.48675537109375 77.81818389892578" fill-opacity="1" clip-path="url(#aezSkokABqDe)"/><path fill="rgb(255,111,0)" stroke="none" paint-order="stroke" d="M 300.52764892578125 77.81818389892578 L 300.54937492497265 77.81818389892578 L 300.54937492497265 130.45454788208008 L 300.52764892578125 130.45454788208008 L 300.52764892578125 77.81818389892578" fill-opacity="1" clip-path="url(#aezSkokABqDe)"/><path fill="rgb(255,99,0)" stroke="none" paint-order="stroke" d="M 300.54937744140625 77.81818389892578 L 300.57110344059765 77.81818389892578 L 300.57110344059765 130.45454788208008 L 300.54937744140625 130.45454788208008 L 300.54937744140625 77.81818389892578" fill-opacity="1" clip-path="url(#aezSkokABqDe)"/><path fill="rgb(255,87,0)" stroke="none" paint-order="stroke" d="M 300.57110595703125 77.81818389892578 L 300.6337279602885 77.81818389892578 L 300.6337279602885 130.45454788208008 L 300.57110595703125 130.45454788208008 L 300.57110595703125 77.81818389892578" fill-opacity="1" clip-path="url(#aezSkokABqDe)"/><path fill="rgb(255,74,0)" stroke="none" paint-order="stroke" d="M 300.63372802734375 77.81818389892578 L 300.6976280286908 77.81818389892578 L 300.6976280286908 130.45454788208008 L 300.63372802734375 130.45454788208008 L 300.63372802734375 77.81818389892578" fill-opacity="1" clip-path="url(#aezSkokABqDe)"/><path fill="rgb(255,61,0)" stroke="none" paint-order="stroke" d="M 300.6976013183594 77.81818389892578 L 300.7397753186524 77.81818389892578 L 300.7397753186524 130.45454788208008 L 300.6976013183594 130.45454788208008 L 300.6976013183594 77.81818389892578" fill-opacity="1" clip-path="url(#aezSkokABqDe)"/><path fill="rgb(255,27,0)" stroke="none" paint-order="stroke" d="M 300.7397766113281 77.81818389892578 L 300.7615026105195 77.81818389892578 L 300.7615026105195 130.45454788208008 L 300.7397766113281 130.45454788208008 L 300.7397766113281 77.81818389892578" fill-opacity="1" clip-path="url(#aezSkokABqDe)"/><path fill="rgb(255,9,0)" stroke="none" paint-order="stroke" d="M 300.7615051269531 77.81818389892578 L 300.7832311261445 77.81818389892578 L 300.7832311261445 130.45454788208008 L 300.7615051269531 130.45454788208008 L 300.7615051269531 77.81818389892578" fill-opacity="1" clip-path="url(#aezSkokABqDe)"/><path fill="rgb(252,0,0)" stroke="none" paint-order="stroke" d="M 300.7832336425781 77.81818389892578 L 300.8036816418171 77.81818389892578 L 300.8036816418171 130.45454788208008 L 300.7832336425781 130.45454788208008 L 300.7832336425781 77.81818389892578" fill-opacity="1" clip-path="url(#aezSkokABqDe)"/><path fill="rgb(248,0,0)" stroke="none" paint-order="stroke" d="M 300.8036804199219 77.81818389892578 L 300.8458544202149 77.81818389892578 L 300.8458544202149 130.45454788208008 L 300.8036804199219 130.45454788208008 L 300.8036804199219 77.81818389892578" fill-opacity="1" clip-path="url(#aezSkokABqDe)"/><path fill="rgb(239,0,0)" stroke="none" paint-order="stroke" d="M 300.8458557128906 77.81818389892578 L 300.867581712082 77.81818389892578 L 300.867581712082 130.45454788208008 L 300.8458557128906 130.45454788208008 L 300.8458557128906 77.81818389892578" fill-opacity="1" clip-path="url(#aezSkokABqDe)"/><path fill="rgb(231,0,0)" stroke="none" paint-order="stroke" d="M 300.8675842285156 77.81818389892578 L 300.8880322277546 77.81818389892578 L 300.8880322277546 130.45454788208008 L 300.8675842285156 130.45454788208008 L 300.8675842285156 77.81818389892578" fill-opacity="1" clip-path="url(#aezSkokABqDe)"/><path fill="rgb(223,0,0)" stroke="none" paint-order="stroke" d="M 300.8880310058594 77.81818389892578 L 300.9097570050508 77.81818389892578 L 300.9097570050508 130.45454788208008 L 300.8880310058594 130.45454788208008 L 300.8880310058594 77.81818389892578" fill-opacity="1" clip-path="url(#aezSkokABqDe)"/><path fill="rgb(214,0,0)" stroke="none" paint-order="stroke" d="M 300.9097595214844 77.81818389892578 L 300.9314855206758 77.81818389892578 L 300.9314855206758 130.45454788208008 L 300.9097595214844 130.45454788208008 L 300.9097595214844 77.81818389892578" fill-opacity="1" clip-path="url(#aezSkokABqDe)"/><path fill="rgb(206,0,0)" stroke="none" paint-order="stroke" d="M 300.9314880371094 77.81818389892578 L 300.95193603634834 77.81818389892578 L 300.95193603634834 130.45454788208008 L 300.9314880371094 130.45454788208008 L 300.9314880371094 77.81818389892578" fill-opacity="1" clip-path="url(#aezSkokABqDe)"/><path fill="rgb(197,0,0)" stroke="none" paint-order="stroke" d="M 300.9519348144531 77.81818389892578 L 300.9736608136445 77.81818389892578 L 300.9736608136445 130.45454788208008 L 300.9519348144531 130.45454788208008 L 300.9519348144531 77.81818389892578" fill-opacity="1" clip-path="url(#aezSkokABqDe)"/><path fill="rgb(193,0,0)" stroke="none" paint-order="stroke" d="M 300.9736633300781 77.81818389892578 L 300.9953893292695 77.81818389892578 L 300.9953893292695 130.45454788208008 L 300.9736633300781 130.45454788208008 L 300.9736633300781 77.81818389892578" fill-opacity="1" clip-path="url(#aezSkokABqDe)"/><path fill="rgb(188,0,0)" stroke="none" paint-order="stroke" d="M 300.9953918457031 77.81818389892578 L 301.0158398449421 77.81818389892578 L 301.0158398449421 130.45454788208008 L 300.9953918457031 130.45454788208008 L 300.9953918457031 77.81818389892578" fill-opacity="1" clip-path="url(#aezSkokABqDe)"/><path fill="rgb(184,0,0)" stroke="none" paint-order="stroke" d="M 301.0158386230469 77.81818389892578 L 301.1014646217227 77.81818389892578 L 301.1014646217227 130.45454788208008 L 301.0158386230469 130.45454788208008 L 301.0158386230469 77.81818389892578" fill-opacity="1" clip-path="url(#aezSkokABqDe)"/><path fill="rgb(179,0,0)" stroke="none" paint-order="stroke" d="M 301.1014709472656 77.81818389892578 L 301.18709694594145 77.81818389892578 L 301.18709694594145 130.45454788208008 L 301.1014709472656 130.45454788208008 L 301.1014709472656 77.81818389892578" fill-opacity="1" clip-path="url(#aezSkokABqDe)"/><path fill="rgb(173,0,0)" stroke="none" paint-order="stroke" d="M 301.18707275390625 77.81818389892578 L 301.2075207531452 77.81818389892578 L 301.2075207531452 130.45454788208008 L 301.18707275390625 130.45454788208008 L 301.18707275390625 77.81818389892578" fill-opacity="1" clip-path="url(#aezSkokABqDe)"/><path fill="rgb(164,0,0)" stroke="none" paint-order="stroke" d="M 301.2075500488281 77.81818389892578 L 301.2279980480671 77.81818389892578 L 301.2279980480671 130.45454788208008 L 301.2075500488281 130.45454788208008 L 301.2075500488281 77.81818389892578" fill-opacity="1" clip-path="url(#aezSkokABqDe)"/><path fill="rgb(160,0,0)" stroke="none" paint-order="stroke" d="M 301.2279968261719 77.81818389892578 L 301.29189682751894 77.81818389892578 L 301.29189682751894 130.45454788208008 L 301.2279968261719 130.45454788208008 L 301.2279968261719 77.81818389892578" fill-opacity="1" clip-path="url(#aezSkokABqDe)"/><path fill="rgb(155,0,0)" stroke="none" paint-order="stroke" d="M 301.2918701171875 77.81818389892578 L 301.3340441174805 77.81818389892578 L 301.3340441174805 130.45454788208008 L 301.2918701171875 130.45454788208008 L 301.2918701171875 77.81818389892578" fill-opacity="1" clip-path="url(#aezSkokABqDe)"/><path fill="rgb(151,0,0)" stroke="none" paint-order="stroke" d="M 301.33404541015625 77.81818389892578 L 301.35577140934765 77.81818389892578 L 301.35577140934765 130.45454788208008 L 301.33404541015625 130.45454788208008 L 301.33404541015625 77.81818389892578" fill-opacity="1" clip-path="url(#aezSkokABqDe)"/><path fill="rgb(146,0,0)" stroke="none" paint-order="stroke" d="M 301.35577392578125 77.81818389892578 L 301.37749992497265 77.81818389892578 L 301.37749992497265 130.45454788208008 L 301.35577392578125 130.45454788208008 L 301.35577392578125 77.81818389892578" fill-opacity="1" clip-path="url(#aezSkokABqDe)"/><path fill="rgb(141,0,0)" stroke="none" paint-order="stroke" d="M 301.37750244140625 77.81818389892578 L 301.3979504406452 77.81818389892578 L 301.3979504406452 130.45454788208008 L 301.37750244140625 130.45454788208008 L 301.37750244140625 77.81818389892578" fill-opacity="1" clip-path="url(#aezSkokABqDe)"/><path fill="rgb(137,0,0)" stroke="none" paint-order="stroke" d="M 301.39794921875 77.81818389892578 L 301.4414012171328 77.81818389892578 L 301.4414012171328 130.45454788208008 L 301.39794921875 130.45454788208008 L 301.39794921875 77.81818389892578" fill-opacity="1" clip-path="url(#aezSkokABqDe)"/><path fill="rgb(132,0,0)" stroke="none" paint-order="stroke" d="M 301.44140625 77.81818389892578 L 301.5474802479148 77.81818389892578 L 301.5474802479148 130.45454788208008 L 301.44140625 130.45454788208008 L 301.44140625 77.81818389892578" fill-opacity="1" clip-path="url(#aezSkokABqDe)"/><path fill="rgb(127,0,0)" stroke="none" paint-order="stroke" d="M 301.5474853515625 77.81818389892578 L 301.5692113507539 77.81818389892578 L 301.5692113507539 130.45454788208008 L 301.5474853515625 130.45454788208008 L 301.5474853515625 77.81818389892578" fill-opacity="1" clip-path="url(#aezSkokABqDe)"/><path fill="rgb(112,0,0)" stroke="none" paint-order="stroke" d="M 301.5692138671875 77.81818389892578 L 301.58966186642647 77.81818389892578 L 301.58966186642647 130.45454788208008 L 301.5692138671875 130.45454788208008 L 301.5692138671875 77.81818389892578" fill-opacity="1" clip-path="url(#aezSkokABqDe)"/><path fill="rgb(102,0,0)" stroke="none" paint-order="stroke" d="M 301.58966064453125 77.81818389892578 L 301.61138664372265 77.81818389892578 L 301.61138664372265 130.45454788208008 L 301.58966064453125 130.45454788208008 L 301.58966064453125 77.81818389892578" fill-opacity="1" clip-path="url(#aezSkokABqDe)"/><path fill="rgb(97,0,0)" stroke="none" paint-order="stroke" d="M 301.61138916015625 77.81818389892578 L 301.63311515934765 77.81818389892578 L 301.63311515934765 130.45454788208008 L 301.61138916015625 130.45454788208008 L 301.61138916015625 77.81818389892578" fill-opacity="1" clip-path="url(#aezSkokABqDe)"/><path fill="rgb(0,0,0)" stroke="none" paint-order="stroke" d="M 301.63311767578125 77.81818389892578 L 301.6535656750202 77.81818389892578 L 301.6535656750202 130.45454788208008 L 301.63311767578125 130.45454788208008 L 301.63311767578125 77.81818389892578" fill-opacity="1" clip-path="url(#aezSkokABqDe)"/><path fill="rgb(0,0,0)" stroke="none" paint-order="stroke" d="M 301.653564453125 77.81818389892578 L 301.6752904523164 77.81818389892578 L 301.6752904523164 130.45454788208008 L 301.653564453125 130.45454788208008 L 301.653564453125 77.81818389892578" fill-opacity="1" clip-path="url(#aezSkokABqDe)"/><path fill="rgb(0,0,0)" stroke="none" paint-order="stroke" d="M 301.67529296875 77.81818389892578 L 301.69574096798897 77.81818389892578 L 301.69574096798897 130.45454788208008 L 301.67529296875 130.45454788208008 L 301.67529296875 77.81818389892578" fill-opacity="1" clip-path="url(#aezSkokABqDe)"/><path fill="rgb(0,0,0)" stroke="none" paint-order="stroke" d="M 301.69573974609375 77.81818389892578 L 301.71746574528515 77.81818389892578 L 301.71746574528515 130.45454788208008 L 301.69573974609375 130.45454788208008 L 301.69573974609375 77.81818389892578" fill-opacity="1" clip-path="url(#aezSkokABqDe)"/><path fill="rgb(0,0,0)" stroke="none" paint-order="stroke" d="M 301.71746826171875 77.81818389892578 L 302.3551902770996 77.81818389892578 L 302.3551902770996 130.45454788208008 L 301.71746826171875 130.45454788208008 L 301.71746826171875 77.81818389892578" fill-opacity="1" clip-path="url(#aezSkokABqDe)"/><path fill="rgb(0,0,0)" stroke="none" paint-order="stroke" d="M 302.3551940917969 77.81818389892578 L 303.56546008586884 77.81818389892578 L 303.56546008586884 130.45454788208008 L 302.3551940917969 130.45454788208008 L 302.3551940917969 77.81818389892578" fill-opacity="1" clip-path="url(#aezSkokABqDe)"/><path fill="rgb(0,0,0)" stroke="none" paint-order="stroke" d="M 303.5654602050781 77.81818389892578 L 303.5859082043171 77.81818389892578 L 303.5859082043171 130.45454788208008 L 303.5654602050781 130.45454788208008 L 303.5654602050781 77.81818389892578" fill-opacity="1" clip-path="url(#aezSkokABqDe)"/><path fill="rgb(0,0,0)" stroke="none" paint-order="stroke" d="M 303.5859069824219 77.81818389892578 L 303.6076329816133 77.81818389892578 L 303.6076329816133 130.45454788208008 L 303.5859069824219 130.45454788208008 L 303.5859069824219 77.81818389892578" fill-opacity="1" clip-path="url(#aezSkokABqDe)"/><path fill="rgb(0,0,0)" stroke="none" paint-order="stroke" d="M 303.60760498046875 77.81818389892578 L 303.62933097966015 77.81818389892578 L 303.62933097966015 130.45454788208008 L 303.60760498046875 130.45454788208008 L 303.60760498046875 77.81818389892578" fill-opacity="1" clip-path="url(#aezSkokABqDe)"/><path fill="rgb(0,0,0)" stroke="none" paint-order="stroke" d="M 303.62933349609375 77.81818389892578 L 303.65105949528515 77.81818389892578 L 303.65105949528515 130.45454788208008 L 303.62933349609375 130.45454788208008 L 303.62933349609375 77.81818389892578" fill-opacity="1" clip-path="url(#aezSkokABqDe)"/><path fill="rgb(0,0,0)" stroke="none" paint-order="stroke" d="M 303.65106201171875 77.81818389892578 L 303.69323601201177 77.81818389892578 L 303.69323601201177 130.45454788208008 L 303.65106201171875 130.45454788208008 L 303.65106201171875 77.81818389892578" fill-opacity="1" clip-path="url(#aezSkokABqDe)"/><path fill="rgb(97,0,0)" stroke="none" paint-order="stroke" d="M 303.6932373046875 77.81818389892578 L 303.7354113049805 77.81818389892578 L 303.7354113049805 130.45454788208008 L 303.6932373046875 130.45454788208008 L 303.6932373046875 77.81818389892578" fill-opacity="1" clip-path="url(#aezSkokABqDe)"/><path fill="rgb(102,0,0)" stroke="none" paint-order="stroke" d="M 303.73541259765625 77.81818389892578 L 303.75713859684765 77.81818389892578 L 303.75713859684765 130.45454788208008 L 303.73541259765625 130.45454788208008 L 303.73541259765625 77.81818389892578" fill-opacity="1" clip-path="url(#aezSkokABqDe)"/><path fill="rgb(112,0,0)" stroke="none" paint-order="stroke" d="M 303.75714111328125 77.81818389892578 L 303.7775891125202 77.81818389892578 L 303.7775891125202 130.45454788208008 L 303.75714111328125 130.45454788208008 L 303.75714111328125 77.81818389892578" fill-opacity="1" clip-path="url(#aezSkokABqDe)"/><path fill="rgb(122,0,0)" stroke="none" paint-order="stroke" d="M 303.777587890625 77.81818389892578 L 303.7993138898164 77.81818389892578 L 303.7993138898164 130.45454788208008 L 303.777587890625 130.45454788208008 L 303.777587890625 77.81818389892578" fill-opacity="1" clip-path="url(#aezSkokABqDe)"/><path fill="rgb(127,0,0)" stroke="none" paint-order="stroke" d="M 303.79931640625 77.81818389892578 L 303.86321640759706 77.81818389892578 L 303.86321640759706 130.45454788208008 L 303.79931640625 130.45454788208008 L 303.79931640625 77.81818389892578" fill-opacity="1" clip-path="url(#aezSkokABqDe)"/><path fill="rgb(132,0,0)" stroke="none" paint-order="stroke" d="M 303.86322021484375 77.81818389892578 L 303.9271202161908 77.81818389892578 L 303.9271202161908 130.45454788208008 L 303.86322021484375 130.45454788208008 L 303.86322021484375 77.81818389892578" fill-opacity="1" clip-path="url(#aezSkokABqDe)"/><path fill="rgb(141,0,0)" stroke="none" paint-order="stroke" d="M 303.9271240234375 77.81818389892578 L 303.9692980237305 77.81818389892578 L 303.9692980237305 130.45454788208008 L 303.9271240234375 130.45454788208008 L 303.9271240234375 77.81818389892578" fill-opacity="1" clip-path="url(#aezSkokABqDe)"/><path fill="rgb(146,0,0)" stroke="none" paint-order="stroke" d="M 303.96929931640625 77.81818389892578 L 303.99102531559765 77.81818389892578 L 303.99102531559765 130.45454788208008 L 303.96929931640625 130.45454788208008 L 303.96929931640625 77.81818389892578" fill-opacity="1" clip-path="url(#aezSkokABqDe)"/><path fill="rgb(151,0,0)" stroke="none" paint-order="stroke" d="M 303.99102783203125 77.81818389892578 L 304.0536498352885 77.81818389892578 L 304.0536498352885 130.45454788208008 L 303.99102783203125 130.45454788208008 L 303.99102783203125 77.81818389892578" fill-opacity="1" clip-path="url(#aezSkokABqDe)"/><path fill="rgb(155,0,0)" stroke="none" paint-order="stroke" d="M 304.05364990234375 77.81818389892578 L 304.309249907732 77.81818389892578 L 304.309249907732 130.45454788208008 L 304.05364990234375 130.45454788208008 L 304.05364990234375 77.81818389892578" fill-opacity="1" clip-path="url(#aezSkokABqDe)"/><path fill="rgb(160,0,0)" stroke="none" paint-order="stroke" d="M 304.3092346191406 77.81818389892578 L 304.3296826183796 77.81818389892578 L 304.3296826183796 130.45454788208008 L 304.3092346191406 130.45454788208008 L 304.3092346191406 77.81818389892578" fill-opacity="1" clip-path="url(#aezSkokABqDe)"/><path fill="rgb(164,0,0)" stroke="none" paint-order="stroke" d="M 304.3296813964844 77.81818389892578 L 304.39358139783144 77.81818389892578 L 304.39358139783144 130.45454788208008 L 304.3296813964844 130.45454788208008 L 304.3296813964844 77.81818389892578" fill-opacity="1" clip-path="url(#aezSkokABqDe)"/><path fill="rgb(169,0,0)" stroke="none" paint-order="stroke" d="M 304.3935852050781 77.81818389892578 L 304.43703720346093 77.81818389892578 L 304.43703720346093 130.45454788208008 L 304.3935852050781 130.45454788208008 L 304.3935852050781 77.81818389892578" fill-opacity="1" clip-path="url(#aezSkokABqDe)"/><path fill="rgb(173,0,0)" stroke="none" paint-order="stroke" d="M 304.4370422363281 77.81818389892578 L 304.5009422376752 77.81818389892578 L 304.5009422376752 130.45454788208008 L 304.4370422363281 130.45454788208008 L 304.4370422363281 77.81818389892578" fill-opacity="1" clip-path="url(#aezSkokABqDe)"/><path fill="rgb(188,0,0)" stroke="none" paint-order="stroke" d="M 304.5009460449219 77.81818389892578 L 304.52139404416084 77.81818389892578 L 304.52139404416084 130.45454788208008 L 304.5009460449219 130.45454788208008 L 304.5009460449219 77.81818389892578" fill-opacity="1" clip-path="url(#aezSkokABqDe)"/><path fill="rgb(201,0,0)" stroke="none" paint-order="stroke" d="M 304.5213928222656 77.81818389892578 L 304.5316168218851 77.81818389892578 L 304.5316168218851 130.45454788208008 L 304.5213928222656 130.45454788208008 L 304.5213928222656 77.81818389892578" fill-opacity="1" clip-path="url(#aezSkokABqDe)"/><path fill="rgb(206,0,0)" stroke="none" paint-order="stroke" d="M 304.5316162109375 77.81818389892578 L 320.30597019195557 77.81818389892578 L 320.30597019195557 130.45454788208008 L 304.5316162109375 130.45454788208008 L 304.5316162109375 77.81818389892578" fill-opacity="1" clip-path="url(#aezSkokABqDe)"/><path fill="rgb(213,0,0)" stroke="none" paint-order="stroke" d="M 320.30596923828125 77.81818389892578 L 320.3264172375202 77.81818389892578 L 320.3264172375202 130.45454788208008 L 320.30596923828125 130.45454788208008 L 320.30596923828125 77.81818389892578" fill-opacity="1" clip-path="url(#aezSkokABqDe)"/><path fill="rgb(217,0,0)" stroke="none" paint-order="stroke" d="M 320.326416015625 77.81818389892578 L 320.3481420148164 77.81818389892578 L 320.3481420148164 130.45454788208008 L 320.326416015625 130.45454788208008 L 320.326416015625 77.81818389892578" fill-opacity="1" clip-path="url(#aezSkokABqDe)"/><path fill="rgb(238,0,0)" stroke="none" paint-order="stroke" d="M 320.34814453125 77.81818389892578 L 320.36859253048897 77.81818389892578 L 320.36859253048897 130.45454788208008 L 320.34814453125 130.45454788208008 L 320.34814453125 77.81818389892578" fill-opacity="1" clip-path="url(#aezSkokABqDe)"/><path fill="rgb(255,37,0)" stroke="none" paint-order="stroke" d="M 320.36859130859375 77.81818389892578 L 320.3915953077376 77.81818389892578 L 320.3915953077376 130.45454788208008 L 320.36859130859375 130.45454788208008 L 320.36859130859375 77.81818389892578" fill-opacity="1" clip-path="url(#aezSkokABqDe)"/><path fill="rgb(255,107,0)" stroke="none" paint-order="stroke" d="M 320.3916015625 77.81818389892578 L 320.41204956173897 77.81818389892578 L 320.41204956173897 130.45454788208008 L 320.3916015625 130.45454788208008 L 320.3916015625 77.81818389892578" fill-opacity="1" clip-path="url(#aezSkokABqDe)"/><path fill="rgb(255,203,0)" stroke="none" paint-order="stroke" d="M 320.41204833984375 77.81818389892578 L 320.4324963390827 77.81818389892578 L 320.4324963390827 130.45454788208008 L 320.41204833984375 130.45454788208008 L 320.41204833984375 77.81818389892578" fill-opacity="1" clip-path="url(#aezSkokABqDe)"/><path fill="rgb(101,255,0)" stroke="none" paint-order="stroke" d="M 320.4324951171875 77.81818389892578 L 320.4542211163789 77.81818389892578 L 320.4542211163789 130.45454788208008 L 320.4324951171875 130.45454788208008 L 320.4324951171875 77.81818389892578" fill-opacity="1" clip-path="url(#aezSkokABqDe)"/><path fill="rgb(0,200,255)" stroke="none" paint-order="stroke" d="M 320.4542236328125 77.81818389892578 L 320.47467163205147 77.81818389892578 L 320.47467163205147 130.45454788208008 L 320.4542236328125 130.45454788208008 L 320.4542236328125 77.81818389892578" fill-opacity="1" clip-path="url(#aezSkokABqDe)"/><path fill="rgb(0,0,255)" stroke="none" paint-order="stroke" d="M 320.47467041015625 77.81818389892578 L 320.4951184093952 77.81818389892578 L 320.4951184093952 130.45454788208008 L 320.47467041015625 130.45454788208008 L 320.47467041015625 77.81818389892578" fill-opacity="1" clip-path="url(#aezSkokABqDe)"/><path fill="rgb(94,0,196)" stroke="none" paint-order="stroke" d="M 320.4951171875 77.81818389892578 L 320.51812118664384 77.81818389892578 L 320.51812118664384 130.45454788208008 L 320.4951171875 130.45454788208008 L 320.4951171875 77.81818389892578" fill-opacity="1" clip-path="url(#aezSkokABqDe)"/><path fill="rgb(111,0,148)" stroke="none" paint-order="stroke" d="M 320.51812744140625 77.81818389892578 L 320.53985344059765 77.81818389892578 L 320.53985344059765 130.45454788208008 L 320.51812744140625 130.45454788208008 L 320.51812744140625 77.81818389892578" fill-opacity="1" clip-path="url(#aezSkokABqDe)"/><path fill="rgb(110,0,132)" stroke="none" paint-order="stroke" d="M 320.53985595703125 77.81818389892578 L 320.56158195622265 77.81818389892578 L 320.56158195622265 130.45454788208008 L 320.53985595703125 130.45454788208008 L 320.53985595703125 77.81818389892578" fill-opacity="1" clip-path="url(#aezSkokABqDe)"/><path fill="rgb(108,0,123)" stroke="none" paint-order="stroke" d="M 320.5615539550781 77.81818389892578 L 320.60244995355606 77.81818389892578 L 320.60244995355606 130.45454788208008 L 320.5615539550781 130.45454788208008 L 320.5615539550781 77.81818389892578" fill-opacity="1" clip-path="url(#aezSkokABqDe)"/><path fill="rgb(104,0,112)" stroke="none" paint-order="stroke" d="M 320.60247802734375 77.81818389892578 L 321.09195202589035 77.81818389892578 L 321.09195202589035 130.45454788208008 L 320.60247802734375 130.45454788208008 L 320.60247802734375 77.81818389892578" fill-opacity="1" clip-path="url(#aezSkokABqDe)"/><path fill="rgb(108,0,123)" stroke="none" paint-order="stroke" d="M 321.0919494628906 77.81818389892578 L 321.1545714661479 77.81818389892578 L 321.1545714661479 130.45454788208008 L 321.0919494628906 130.45454788208008 L 321.0919494628906 77.81818389892578" fill-opacity="1" clip-path="url(#aezSkokABqDe)"/><path fill="rgb(110,0,132)" stroke="none" paint-order="stroke" d="M 321.1545715332031 77.81818389892578 L 321.24019753187895 77.81818389892578 L 321.24019753187895 130.45454788208008 L 321.1545715332031 130.45454788208008 L 321.1545715332031 77.81818389892578" fill-opacity="1" clip-path="url(#aezSkokABqDe)"/><path fill="rgb(111,0,140)" stroke="none" paint-order="stroke" d="M 321.24017333984375 77.81818389892578 L 321.28234734013677 77.81818389892578 L 321.28234734013677 130.45454788208008 L 321.24017333984375 130.45454788208008 L 321.24017333984375 77.81818389892578" fill-opacity="1" clip-path="url(#aezSkokABqDe)"/><path fill="rgb(111,0,148)" stroke="none" paint-order="stroke" d="M 321.2823486328125 77.81818389892578 L 321.3679746314883 77.81818389892578 L 321.3679746314883 130.45454788208008 L 321.2823486328125 130.45454788208008 L 321.2823486328125 77.81818389892578" fill-opacity="1" clip-path="url(#aezSkokABqDe)"/><path fill="rgb(111,0,156)" stroke="none" paint-order="stroke" d="M 321.36798095703125 77.81818389892578 L 321.38970695622265 77.81818389892578 L 321.38970695622265 130.45454788208008 L 321.36798095703125 130.45454788208008 L 321.36798095703125 77.81818389892578" fill-opacity="1" clip-path="url(#aezSkokABqDe)"/><path fill="rgb(107,0,172)" stroke="none" paint-order="stroke" d="M 321.38970947265625 77.81818389892578 L 321.43188347294927 77.81818389892578 L 321.43188347294927 130.45454788208008 L 321.38970947265625 130.45454788208008 L 321.38970947265625 77.81818389892578" fill-opacity="1" clip-path="url(#aezSkokABqDe)"/><path fill="rgb(103,0,180)" stroke="none" paint-order="stroke" d="M 321.431884765625 77.81818389892578 L 321.45233276486397 77.81818389892578 L 321.45233276486397 130.45454788208008 L 321.431884765625 130.45454788208008 L 321.431884765625 77.81818389892578" fill-opacity="1" clip-path="url(#aezSkokABqDe)"/><path fill="rgb(94,0,196)" stroke="none" paint-order="stroke" d="M 321.45233154296875 77.81818389892578 L 321.4727795422077 77.81818389892578 L 321.4727795422077 130.45454788208008 L 321.45233154296875 130.45454788208008 L 321.45233154296875 77.81818389892578" fill-opacity="1" clip-path="url(#aezSkokABqDe)"/><path fill="rgb(80,0,211)" stroke="none" paint-order="stroke" d="M 321.4727783203125 77.81818389892578 L 321.4945043195039 77.81818389892578 L 321.4945043195039 130.45454788208008 L 321.4727783203125 130.45454788208008 L 321.4727783203125 77.81818389892578" fill-opacity="1" clip-path="url(#aezSkokABqDe)"/><path fill="rgb(72,0,218)" stroke="none" paint-order="stroke" d="M 321.4945068359375 77.81818389892578 L 321.5162328351289 77.81818389892578 L 321.5162328351289 130.45454788208008 L 321.4945068359375 130.45454788208008 L 321.4945068359375 77.81818389892578" fill-opacity="1" clip-path="url(#aezSkokABqDe)"/><path fill="rgb(62,0,226)" stroke="none" paint-order="stroke" d="M 321.5162353515625 77.81818389892578 L 321.53668335080147 77.81818389892578 L 321.53668335080147 130.45454788208008 L 321.5162353515625 130.45454788208008 L 321.5162353515625 77.81818389892578" fill-opacity="1" clip-path="url(#aezSkokABqDe)"/><path fill="rgb(51,0,233)" stroke="none" paint-order="stroke" d="M 321.53668212890625 77.81818389892578 L 321.6223081275821 77.81818389892578 L 321.6223081275821 130.45454788208008 L 321.53668212890625 130.45454788208008 L 321.53668212890625 77.81818389892578" fill-opacity="1" clip-path="url(#aezSkokABqDe)"/><path fill="rgb(38,0,240)" stroke="none" paint-order="stroke" d="M 321.622314453125 77.81818389892578 L 323.0076664686203 77.81818389892578 L 323.0076664686203 130.45454788208008 L 321.622314453125 130.45454788208008 L 321.622314453125 77.81818389892578" fill-opacity="1" clip-path="url(#aezSkokABqDe)"/><path fill="rgb(42,0,238)" stroke="none" paint-order="stroke" d="M 323.0076599121094 77.81818389892578 L 418.12281036376953 77.81818389892578 L 418.12281036376953 130.45454788208008 L 323.0076599121094 130.45454788208008 L 323.0076599121094 77.81818389892578" fill-opacity="1" clip-path="url(#aezSkokABqDe)"/><path fill="rgb(251,0,7)" stroke="none" paint-order="stroke" d="M 58.5 130.4545440673828 L 270.24159240722656 130.4545440673828 L 270.24159240722656 183.0909080505371 L 58.5 183.0909080505371 L 58.5 130.4545440673828" fill-opacity="1" clip-path="url(#uEpQLBEVMwAR)"/><path fill="rgb(56,126,34)" stroke="none" paint-order="stroke" d="M 270.2416076660156 130.4545440673828 L 418.12281799316406 130.4545440673828 L 418.12281799316406 183.0909080505371 L 270.2416076660156 183.0909080505371 L 270.2416076660156 130.4545440673828" fill-opacity="1" clip-path="url(#uEpQLBEVMwAR)"/><path fill="rgb(105,29,48)" stroke="none" paint-order="stroke" d="M 197.0914306640625 183.09091186523438 L 197.15533066540956 183.09091186523438 L 197.15533066540956 498.9090881347656 L 197.0914306640625 498.9090881347656 L 197.0914306640625 183.09091186523438" fill-opacity="1" clip-path="url(#OTEqZemkbKnX)"/><path fill="rgb(105,29,48)" stroke="none" paint-order="stroke" d="M 200.08323669433594 183.09091186523438 L 200.147136695683 183.09091186523438 L 200.147136695683 498.9090881347656 L 200.08323669433594 498.9090881347656 L 200.08323669433594 183.09091186523438" fill-opacity="1" clip-path="url(#OTEqZemkbKnX)"/><path fill="rgb(105,29,48)" stroke="none" paint-order="stroke" d="M 203.24627685546875 183.09091186523438 L 203.31017685681581 183.09091186523438 L 203.31017685681581 498.9090881347656 L 203.24627685546875 498.9090881347656 L 203.24627685546875 183.09091186523438" fill-opacity="1" clip-path="url(#OTEqZemkbKnX)"/><path fill="rgb(105,29,48)" stroke="none" paint-order="stroke" d="M 205.2271728515625 183.09091186523438 L 205.29107285290956 183.09091186523438 L 205.29107285290956 498.9090881347656 L 205.2271728515625 498.9090881347656 L 205.2271728515625 183.09091186523438" fill-opacity="1" clip-path="url(#OTEqZemkbKnX)"/><path fill="rgb(105,29,48)" stroke="none" paint-order="stroke" d="M 208.42218017578125 183.09091186523438 L 208.48608017712831 183.09091186523438 L 208.48608017712831 498.9090881347656 L 208.42218017578125 498.9090881347656 L 208.42218017578125 183.09091186523438" fill-opacity="1" clip-path="url(#OTEqZemkbKnX)"/><path fill="rgb(255,188,66)" stroke="none" paint-order="stroke" d="M 216.7943572998047 183.09091186523438 L 218.11964333057404 183.09091186523438 L 218.11964333057404 498.9090881347656 L 216.7943572998047 498.9090881347656 L 216.7943572998047 183.09091186523438" fill-opacity="1" clip-path="url(#icmBMPKUTtDB)"/><path fill="rgb(255,188,66)" stroke="none" paint-order="stroke" d="M 218.2129364013672 183.09091186523438 L 222.5964765548706 183.09091186523438 L 222.5964765548706 498.9090881347656 L 218.2129364013672 498.9090881347656 L 218.2129364013672 183.09091186523438" fill-opacity="1" clip-path="url(#icmBMPKUTtDB)"/><path fill="rgb(162,174,187)" stroke="none" paint-order="stroke" d="M 243.70904541015625 183.09091186523438 L 243.77294541150331 183.09091186523438 L 243.77294541150331 498.9090881347656 L 243.70904541015625 498.9090881347656 L 243.70904541015625 183.09091186523438" fill-opacity="1" clip-path="url(#CsNbguUzZtUJ)"/><path fill="rgb(162,174,187)" stroke="none" paint-order="stroke" d="M 257.54339599609375 183.09091186523438 L 257.6072959974408 183.09091186523438 L 257.6072959974408 498.9090881347656 L 257.54339599609375 498.9090881347656 L 257.54339599609375 183.09091186523438" fill-opacity="1" clip-path="url(#CsNbguUzZtUJ)"/><path fill="rgb(162,174,187)" stroke="none" paint-order="stroke" d="M 283.36920166015625 183.09091186523438 L 283.4331016615033 183.09091186523438 L 283.4331016615033 498.9090881347656 L 283.36920166015625 498.9090881347656 L 283.36920166015625 183.09091186523438" fill-opacity="1" clip-path="url(#CsNbguUzZtUJ)"/><path fill="rgb(162,174,187)" stroke="none" paint-order="stroke" d="M 311.1989440917969 183.09091186523438 L 311.26284409314394 183.09091186523438 L 311.26284409314394 498.9090881347656 L 311.1989440917969 498.9090881347656 L 311.1989440917969 183.09091186523438" fill-opacity="1" clip-path="url(#CsNbguUzZtUJ)"/><path fill="rgb(162,174,187)" stroke="none" paint-order="stroke" d="M 316.27899169921875 183.09091186523438 L 316.3428917005658 183.09091186523438 L 316.3428917005658 498.9090881347656 L 316.27899169921875 498.9090881347656 L 316.27899169921875 183.09091186523438" fill-opacity="1" clip-path="url(#CsNbguUzZtUJ)"/><path fill="rgb(162,174,187)" stroke="none" paint-order="stroke" d="M 336.9225158691406 183.09091186523438 L 336.9864158704877 183.09091186523438 L 336.9864158704877 498.9090881347656 L 336.9225158691406 498.9090881347656 L 336.9225158691406 183.09091186523438" fill-opacity="1" clip-path="url(#CsNbguUzZtUJ)"/><path fill="rgb(216,17,89)" stroke="none" paint-order="stroke" d="M 295.09613037109375 183.09091186523438 L 295.1600303724408 183.09091186523438 L 295.1600303724408 498.9090881347656 L 295.09613037109375 498.9090881347656 L 295.09613037109375 183.09091186523438" fill-opacity="1" clip-path="url(#xOtVeaXaZiEF)"/><path fill="rgb(216,17,89)" stroke="none" paint-order="stroke" d="M 295.09613037109375 183.09091186523438 L 295.1600303724408 183.09091186523438 L 295.1600303724408 498.9090881347656 L 295.09613037109375 498.9090881347656 L 295.09613037109375 183.09091186523438" fill-opacity="1" clip-path="url(#xOtVeaXaZiEF)"/><path fill="rgb(216,17,89)" stroke="none" paint-order="stroke" d="M 323.0076599121094 183.09091186523438 L 323.07155991345644 183.09091186523438 L 323.07155991345644 498.9090881347656 L 323.0076599121094 498.9090881347656 L 323.0076599121094 183.09091186523438" fill-opacity="1" clip-path="url(#xOtVeaXaZiEF)"/><path fill="rgb(216,17,89)" stroke="none" paint-order="stroke" d="M 323.0076599121094 183.09091186523438 L 323.07155991345644 183.09091186523438 L 323.07155991345644 498.9090881347656 L 323.0076599121094 498.9090881347656 L 323.0076599121094 183.09091186523438" fill-opacity="1" clip-path="url(#xOtVeaXaZiEF)"/><path fill="rgb(33,131,128)" stroke="none" paint-order="stroke" d="M 260.1224060058594 183.09091186523438 L 264.34236192703247 183.09091186523438 L 264.34236192703247 498.9090881347656 L 260.1224060058594 498.9090881347656 L 260.1224060058594 183.09091186523438" fill-opacity="1" clip-path="url(#DdOKeULzpflU)"/><path fill="rgb(33,131,128)" stroke="none" paint-order="stroke" d="M 266.76800537109375 183.09091186523438 L 270.2416093349457 183.09091186523438 L 270.2416093349457 498.9090881347656 L 266.76800537109375 498.9090881347656 L 266.76800537109375 183.09091186523438" fill-opacity="1" clip-path="url(#DdOKeULzpflU)"/><path fill="rgb(115,210,222)" stroke="none" paint-order="stroke" d="M 327.57012939453125 183.09091186523438 L 335.42982959747314 183.09091186523438 L 335.42982959747314 498.9090881347656 L 327.57012939453125 498.9090881347656 L 327.57012939453125 183.09091186523438" fill-opacity="1" clip-path="url(#QtiNNOOZDcGF)"/><path fill="rgb(115,210,222)" stroke="none" paint-order="stroke" d="M 342.31695556640625 183.09091186523438 L 342.5661655664444 183.09091186523438 L 342.5661655664444 498.9090881347656 L 342.31695556640625 498.9090881347656 L 342.31695556640625 183.09091186523438" fill-opacity="1" clip-path="url(#QtiNNOOZDcGF)"/><path fill="rgb(115,210,222)" stroke="none" paint-order="stroke" d="M 342.9994201660156 183.09091186523438 L 343.17961816489697 183.09091186523438 L 343.17961816489697 498.9090881347656 L 342.9994201660156 498.9090881347656 L 342.9994201660156 183.09091186523438" fill-opacity="1" clip-path="url(#QtiNNOOZDcGF)"/><path fill="rgb(115,210,222)" stroke="none" paint-order="stroke" d="M 343.4390563964844 183.09091186523438 L 343.50295639783144 183.09091186523438 L 343.50295639783144 498.9090881347656 L 343.4390563964844 498.9090881347656 L 343.4390563964844 183.09091186523438" fill-opacity="1" clip-path="url(#QtiNNOOZDcGF)"/><path fill="rgb(28,49,68)" stroke="none" paint-order="stroke" d="M 201.03790283203125 183.09091186523438 L 202.05774688720703 183.09091186523438 L 202.05774688720703 498.9090881347656 L 201.03790283203125 498.9090881347656 L 201.03790283203125 183.09091186523438" fill-opacity="1" clip-path="url(#sLDgFoqnSqzP)"/><path fill="rgb(28,49,68)" stroke="none" paint-order="stroke" d="M 206.79400634765625 183.09091186523438 L 207.63876432180405 183.09091186523438 L 207.63876432180405 498.9090881347656 L 206.79400634765625 498.9090881347656 L 206.79400634765625 183.09091186523438" fill-opacity="1" clip-path="url(#sLDgFoqnSqzP)"/><path fill="rgb(28,49,68)" stroke="none" paint-order="stroke" d="M 209.87142944335938 183.09091186523438 L 212.02613735198975 183.09091186523438 L 212.02613735198975 498.9090881347656 L 209.87142944335938 498.9090881347656 L 209.87142944335938 183.09091186523438" fill-opacity="1" clip-path="url(#sLDgFoqnSqzP)"/><path fill="rgb(28,49,68)" stroke="none" paint-order="stroke" d="M 224.5748291015625 183.09091186523438 L 232.58661079406738 183.09091186523438 L 232.58661079406738 498.9090881347656 L 224.5748291015625 498.9090881347656 L 224.5748291015625 183.09091186523438" fill-opacity="1" clip-path="url(#sLDgFoqnSqzP)"/><path fill="rgb(28,49,68)" stroke="none" paint-order="stroke" d="M 245.95193481445312 183.09091186523438 L 255.39635467529297 183.09091186523438 L 255.39635467529297 498.9090881347656 L 245.95193481445312 498.9090881347656 L 245.95193481445312 183.09091186523438" fill-opacity="1" clip-path="url(#sLDgFoqnSqzP)"/><path fill="rgb(28,49,68)" stroke="none" paint-order="stroke" d="M 274.7452697753906 183.09091186523438 L 279.5147657394409 183.09091186523438 L 279.5147657394409 498.9090881347656 L 274.7452697753906 498.9090881347656 L 274.7452697753906 183.09091186523438" fill-opacity="1" clip-path="url(#sLDgFoqnSqzP)"/><path fill="rgb(28,49,68)" stroke="none" paint-order="stroke" d="M 286.0721740722656 183.09091186523438 L 287.8370920419693 183.09091186523438 L 287.8370920419693 498.9090881347656 L 286.0721740722656 498.9090881347656 L 286.0721740722656 183.09091186523438" fill-opacity="1" clip-path="url(#sLDgFoqnSqzP)"/><path fill="rgb(28,49,68)" stroke="none" paint-order="stroke" d="M 308.5061950683594 183.09091186523438 L 309.81742310523987 183.09091186523438 L 309.81742310523987 498.9090881347656 L 308.5061950683594 498.9090881347656 L 308.5061950683594 183.09091186523438" fill-opacity="1" clip-path="url(#sLDgFoqnSqzP)"/><path fill="rgb(28,49,68)" stroke="none" paint-order="stroke" d="M 312.8692932128906 183.09091186523438 L 314.94093132019043 183.09091186523438 L 314.94093132019043 498.9090881347656 L 312.8692932128906 498.9090881347656 L 312.8692932128906 183.09091186523438" fill-opacity="1" clip-path="url(#sLDgFoqnSqzP)"/><path fill="rgb(28,49,68)" stroke="none" paint-order="stroke" d="M 317.9608459472656 183.09091186523438 L 319.1941159963608 183.09091186523438 L 319.1941159963608 498.9090881347656 L 317.9608459472656 498.9090881347656 L 317.9608459472656 183.09091186523438" fill-opacity="1" clip-path="url(#sLDgFoqnSqzP)"/><path fill="rgb(28,49,68)" stroke="none" paint-order="stroke" d="M 324.2383728027344 183.09091186523438 L 326.23844289779663 183.09091186523438 L 326.23844289779663 498.9090881347656 L 324.2383728027344 498.9090881347656 L 324.2383728027344 183.09091186523438" fill-opacity="1" clip-path="url(#sLDgFoqnSqzP)"/><path fill="rgb(28,49,68)" stroke="none" paint-order="stroke" d="M 338.70660400390625 183.09091186523438 L 339.5091879963875 183.09091186523438 L 339.5091879963875 498.9090881347656 L 338.70660400390625 498.9090881347656 L 338.70660400390625 183.09091186523438" fill-opacity="1" clip-path="url(#sLDgFoqnSqzP)"/><path fill="rgb(28,49,68)" stroke="none" paint-order="stroke" d="M 340.5648193359375 183.09091186523438 L 341.0121193230152 183.09091186523438 L 341.0121193230152 498.9090881347656 L 340.5648193359375 498.9090881347656 L 340.5648193359375 183.09091186523438" fill-opacity="1" clip-path="url(#sLDgFoqnSqzP)"/><path fill="rgb(239,185,203)" stroke="none" paint-order="stroke" d="M 176.5002899169922 183.09091186523438 L 192.1008358001709 183.09091186523438 L 192.1008358001709 498.9090881347656 L 176.5002899169922 498.9090881347656 L 176.5002899169922 183.09091186523438" fill-opacity="1" clip-path="url(#doftThKcOWVP)"/><path fill="rgb(239,185,203)" stroke="none" paint-order="stroke" d="M 404.3919677734375 183.09091186523438 L 418.12279987335205 183.09091186523438 L 418.12279987335205 498.9090881347656 L 404.3919677734375 498.9090881347656 L 404.3919677734375 183.09091186523438" fill-opacity="1" clip-path="url(#doftThKcOWVP)"/><path fill="rgb(105,29,48)" stroke="none" paint-order="stroke" d="M 296.3306884765625 183.09091186523438 L 304.53417015075684 183.09091186523438 L 304.53417015075684 498.9090881347656 L 296.3306884765625 498.9090881347656 L 296.3306884765625 183.09091186523438" fill-opacity="1" clip-path="url(#qfzmIBUBRrSL)"/><path fill="rgb(105,29,48)" stroke="none" paint-order="stroke" d="M 304.8114929199219 183.09091186523438 L 304.95207291841507 183.09091186523438 L 304.95207291841507 498.9090881347656 L 304.8114929199219 498.9090881347656 L 304.8114929199219 183.09091186523438" fill-opacity="1" clip-path="url(#qfzmIBUBRrSL)"/><path fill="rgb(105,29,48)" stroke="none" paint-order="stroke" d="M 320.26123046875 183.09091186523438 L 322.1283885240555 183.09091186523438 L 322.1283885240555 498.9090881347656 L 320.26123046875 498.9090881347656 L 320.26123046875 183.09091186523438" fill-opacity="1" clip-path="url(#qfzmIBUBRrSL)"/><path fill="rgb(255,188,66)" stroke="none" paint-order="stroke" d="M 219.2928466796875 498.9090881347656 L 418.122802734375 498.9090881347656 L 418.122802734375 551.5454521179199 L 219.2928466796875 551.5454521179199 L 219.2928466796875 498.9090881347656" fill-opacity="1" clip-path="url(#dbvHXKpZHemw)"/><path fill="rgb(143,45,86)" stroke="none" paint-order="stroke" d="M 58.5 551.5454711914062 L 197.0914306640625 551.5454711914062 L 197.0914306640625 604.1818351745605 L 58.5 604.1818351745605 L 58.5 551.5454711914062" fill-opacity="1" clip-path="url(#cNTcMHDbqENl)"/><path fill="rgb(63,136,197)" stroke="none" paint-order="stroke" d="M 197.0914306640625 551.5454711914062 L 200.08322858810425 551.5454711914062 L 200.08322858810425 604.1818351745605 L 197.0914306640625 604.1818351745605 L 197.0914306640625 551.5454711914062" fill-opacity="1" clip-path="url(#cNTcMHDbqENl)"/><path fill="rgb(143,45,86)" stroke="none" paint-order="stroke" d="M 200.08323669433594 551.5454711914062 L 203.2462866306305 551.5454711914062 L 203.2462866306305 604.1818351745605 L 200.08323669433594 604.1818351745605 L 200.08323669433594 551.5454711914062" fill-opacity="1" clip-path="url(#cNTcMHDbqENl)"/><path fill="rgb(63,136,197)" stroke="none" paint-order="stroke" d="M 203.24627685546875 551.5454711914062 L 205.22717690467834 551.5454711914062 L 205.22717690467834 604.1818351745605 L 203.24627685546875 604.1818351745605 L 203.24627685546875 551.5454711914062" fill-opacity="1" clip-path="url(#cNTcMHDbqENl)"/><path fill="rgb(143,45,86)" stroke="none" paint-order="stroke" d="M 205.2271728515625 551.5454711914062 L 208.4221727848053 551.5454711914062 L 208.4221727848053 604.1818351745605 L 205.2271728515625 604.1818351745605 L 205.2271728515625 551.5454711914062" fill-opacity="1" clip-path="url(#cNTcMHDbqENl)"/><path fill="rgb(63,136,197)" stroke="none" paint-order="stroke" d="M 208.42218017578125 551.5454711914062 L 243.70903778076172 551.5454711914062 L 243.70903778076172 604.1818351745605 L 208.42218017578125 604.1818351745605 L 208.42218017578125 551.5454711914062" fill-opacity="1" clip-path="url(#cNTcMHDbqENl)"/><path fill="rgb(81,60,99)" stroke="none" paint-order="stroke" d="M 243.70904541015625 551.5454711914062 L 257.54339504241943 551.5454711914062 L 257.54339504241943 604.1818351745605 L 243.70904541015625 604.1818351745605 L 243.70904541015625 551.5454711914062" fill-opacity="1" clip-path="url(#cNTcMHDbqENl)"/><path fill="rgb(63,136,197)" stroke="none" paint-order="stroke" d="M 257.54339599609375 551.5454711914062 L 283.3692207336426 551.5454711914062 L 283.3692207336426 604.1818351745605 L 257.54339599609375 604.1818351745605 L 257.54339599609375 551.5454711914062" fill-opacity="1" clip-path="url(#cNTcMHDbqENl)"/><path fill="rgb(81,60,99)" stroke="none" paint-order="stroke" d="M 283.36920166015625 551.5454711914062 L 311.1989288330078 551.5454711914062 L 311.1989288330078 604.1818351745605 L 283.36920166015625 604.1818351745605 L 283.36920166015625 551.5454711914062" fill-opacity="1" clip-path="url(#cNTcMHDbqENl)"/><path fill="rgb(63,136,197)" stroke="none" paint-order="stroke" d="M 311.1989440917969 551.5454711914062 L 316.27899408340454 551.5454711914062 L 316.27899408340454 604.1818351745605 L 311.1989440917969 604.1818351745605 L 311.1989440917969 551.5454711914062" fill-opacity="1" clip-path="url(#cNTcMHDbqENl)"/><path fill="rgb(81,60,99)" stroke="none" paint-order="stroke" d="M 316.27899169921875 551.5454711914062 L 336.9225254058838 551.5454711914062 L 336.9225254058838 604.1818351745605 L 316.27899169921875 604.1818351745605 L 316.27899169921875 551.5454711914062" fill-opacity="1" clip-path="url(#cNTcMHDbqENl)"/><path fill="rgb(63,136,197)" stroke="none" paint-order="stroke" d="M 336.9225158691406 551.5454711914062 L 418.122802734375 551.5454711914062 L 418.122802734375 604.1818351745605 L 336.9225158691406 604.1818351745605 L 336.9225158691406 551.5454711914062" fill-opacity="1" clip-path="url(#cNTcMHDbqENl)"/><path fill="none" stroke="rgb(0,0,0)" paint-order="fill" d="M 58.5 77.81818389892578 L 418.122802734375 77.81818389892578 L 418.122802734375 604.1818313598633 L 58.5 604.1818313598633 L 58.5 77.81818389892578" stroke-opacity="1" stroke-linejoin="bevel" stroke-miterlimit="10" stroke-dasharray="" clip-path="url(#bfvWbgdSgrDp)"/><path fill="none" stroke="rgb(0,0,0)" paint-order="fill" d="M 58.5 630.5 L 1336.5 630.5" stroke-opacity="1" stroke-linejoin="bevel" stroke-miterlimit="10" stroke-dasharray=""/><path fill="none" stroke="rgb(0,0,0)" paint-order="fill" d="M 58.5 636.5 L 58.5 628.5 M 314.5 636.5 L 314.5 628.5 M 569.5 636.5 L 569.5 628.5 M 825.5 636.5 L 825.5 628.5 M 1080.5 636.5 L 1080.5 628.5 M 1336.5 636.5 L 1336.5 628.5" stroke-opacity="1" stroke-linejoin="bevel" stroke-miterlimit="10" stroke-dasharray=""/><path fill="none" stroke="rgb(0,0,0)" paint-order="fill" d="M 58.5 634.5 L 58.5 630.5 M 109.5 634.5 L 109.5 630.5 M 160.5 634.5 L 160.5 630.5 M 211.5 634.5 L 211.5 630.5 M 262.5 634.5 L 262.5 630.5 M 314.5 634.5 L 314.5 630.5 M 365.5 634.5 L 365.5 630.5 M 416.5 634.5 L 416.5 630.5 M 467.5 634.5 L 467.5 630.5 M 518.5 634.5 L 518.5 630.5 M 569.5 634.5 L 569.5 630.5 M 620.5 634.5 L 620.5 630.5 M 671.5 634.5 L 671.5 630.5 M 723.5 634.5 L 723.5 630.5 M 774.5 634.5 L 774.5 630.5 M 825.5 634.5 L 825.5 630.5 M 876.5 634.5 L 876.5 630.5 M 927.5 634.5 L 927.5 630.5 M 978.5 634.5 L 978.5 630.5 M 1029.5 634.5 L 1029.5 630.5 M 1080.5 634.5 L 1080.5 630.5 M 1132.5 634.5 L 1132.5 630.5 M 1183.5 634.5 L 1183.5 630.5 M 1234.5 634.5 L 1234.5 630.5 M 1285.5 634.5 L 1285.5 630.5 M 1336.5 634.5 L 1336.5 630.5" stroke-opacity="1" stroke-linejoin="bevel" stroke-miterlimit="10" stroke-dasharray=""/><text fill="rgb(68,68,68)" stroke="none" font-family="helvetica" font-size="11px" font-style="normal" font-weight="normal" text-decoration="normal" x="54.94166660308838" y="648.89013671875" text-anchor="start" dominant-baseline="alphabetic" transform="matrix(1, 0, 0, 1, 0.5, 0.5)" fill-opacity="1">0</text><text fill="rgb(68,68,68)" stroke="none" font-family="helvetica" font-size="11px" font-style="normal" font-weight="normal" text-decoration="normal" x="304.42500591278076" y="648.89013671875" text-anchor="start" dominant-baseline="alphabetic" transform="matrix(1, 0, 0, 1, 0.5, 0.5)" fill-opacity="1">200</text><text fill="rgb(68,68,68)" stroke="none" font-family="helvetica" font-size="11px" font-style="normal" font-weight="normal" text-decoration="normal" x="560.0250120162964" y="648.89013671875" text-anchor="start" dominant-baseline="alphabetic" transform="matrix(1, 0, 0, 1, 0.5, 0.5)" fill-opacity="1">400</text><text fill="rgb(68,68,68)" stroke="none" font-family="helvetica" font-size="11px" font-style="normal" font-weight="normal" text-decoration="normal" x="815.6249876022339" y="648.89013671875" text-anchor="start" dominant-baseline="alphabetic" transform="matrix(1, 0, 0, 1, 0.5, 0.5)" fill-opacity="1">600</text><text fill="rgb(68,68,68)" stroke="none" font-family="helvetica" font-size="11px" font-style="normal" font-weight="normal" text-decoration="normal" x="1071.2250242233276" y="648.89013671875" text-anchor="start" dominant-baseline="alphabetic" transform="matrix(1, 0, 0, 1, 0.5, 0.5)" fill-opacity="1">800</text><text fill="rgb(68,68,68)" stroke="none" font-family="helvetica" font-size="11px" font-style="normal" font-weight="normal" text-decoration="normal" x="1323.7666664123535" y="648.89013671875" text-anchor="start" dominant-baseline="alphabetic" transform="matrix(1, 0, 0, 1, 0.5, 0.5)" fill-opacity="1">1000</text><text fill="rgb(68,68,68)" stroke="none" font-family="helvetica" font-size="15pt" font-style="italic" font-weight="normal" text-decoration="normal" x="666.4416675567627" y="676.06982421875" text-anchor="start" dominant-baseline="alphabetic" transform="matrix(1, 0, 0, 1, 0.5, 0.5)" fill-opacity="1">time(s)</text><path fill="none" stroke="rgb(0,0,0)" paint-order="fill" d="M 58.5 630.5 L 58.5 51.5" stroke-opacity="1" stroke-linejoin="bevel" stroke-miterlimit="10" stroke-dasharray=""/><path fill="none" stroke="rgb(0,0,0)" paint-order="fill" d="M 52.5 551.5 L 60.5 551.5 M 52.5 446.5 L 60.5 446.5 M 52.5 341.5 L 60.5 341.5 M 52.5 235.5 L 60.5 235.5 M 52.5 130.5 L 60.5 130.5" stroke-opacity="1" stroke-linejoin="bevel" stroke-miterlimit="10" stroke-dasharray=""/><path fill="none" stroke="rgb(0,0,0)" paint-order="fill" d="M 54.5 572.5 L 58.5 572.5 M 54.5 593.5 L 58.5 593.5 M 54.5 614.5 L 58.5 614.5 M 54.5 551.5 L 58.5 551.5 M 54.5 530.5 L 58.5 530.5 M 54.5 509.5 L 58.5 509.5 M 54.5 488.5 L 58.5 488.5 M 54.5 467.5 L 58.5 467.5 M 54.5 446.5 L 58.5 446.5 M 54.5 425.5 L 58.5 425.5 M 54.5 404.5 L 58.5 404.5 M 54.5 383.5 L 58.5 383.5 M 54.5 362.5 L 58.5 362.5 M 54.5 341.5 L 58.5 341.5 M 54.5 319.5 L 58.5 319.5 M 54.5 298.5 L 58.5 298.5 M 54.5 277.5 L 58.5 277.5 M 54.5 256.5 L 58.5 256.5 M 54.5 235.5 L 58.5 235.5 M 54.5 214.5 L 58.5 214.5 M 54.5 193.5 L 58.5 193.5 M 54.5 172.5 L 58.5 172.5 M 54.5 151.5 L 58.5 151.5 M 54.5 130.5 L 58.5 130.5 M 54.5 109.5 L 58.5 109.5 M 54.5 88.5 L 58.5 88.5 M 54.5 67.5 L 58.5 67.5" stroke-opacity="1" stroke-linejoin="bevel" stroke-miterlimit="10" stroke-dasharray=""/><text fill="rgb(68,68,68)" stroke="none" font-family="helvetica" font-size="11px" font-style="normal" font-weight="normal" text-decoration="normal" x="34.46666622161865" y="554.9905395507812" text-anchor="start" dominant-baseline="alphabetic" transform="matrix(1, 0, 0, 1, 0.5, 0.5)" fill-opacity="1">2</text><text fill="rgb(68,68,68)" stroke="none" font-family="helvetica" font-size="11px" font-style="normal" font-weight="normal" text-decoration="normal" x="34.46666622161865" y="449.7178039550781" text-anchor="start" dominant-baseline="alphabetic" transform="matrix(1, 0, 0, 1, 0.5, 0.5)" fill-opacity="1">1</text><text fill="rgb(68,68,68)" stroke="none" font-family="helvetica" font-size="11px" font-style="normal" font-weight="normal" text-decoration="normal" x="40.88333320617676" y="344.445068359375" text-anchor="start" dominant-baseline="alphabetic" transform="matrix(1, 0, 0, 1, 0.5, 0.5)" fill-opacity="1">0</text><text fill="rgb(68,68,68)" stroke="none" font-family="helvetica" font-size="11px" font-style="normal" font-weight="normal" text-decoration="normal" x="40.88333320617676" y="239.17234802246094" text-anchor="start" dominant-baseline="alphabetic" transform="matrix(1, 0, 0, 1, 0.5, 0.5)" fill-opacity="1">1</text><text fill="rgb(68,68,68)" stroke="none" font-family="helvetica" font-size="11px" font-style="normal" font-weight="normal" text-decoration="normal" x="40.88333320617676" y="133.8996124267578" text-anchor="start" dominant-baseline="alphabetic" transform="matrix(1, 0, 0, 1, 0.5, 0.5)" fill-opacity="1">2</text><text fill="rgb(68,68,68)" stroke="none" font-family="helvetica" font-size="15pt" font-style="italic" font-weight="normal" text-decoration="normal" x="-11.316666603088379" y="336.076171875" text-anchor="start" dominant-baseline="alphabetic" transform="matrix(6.123233995736766e-17, -1, 1, 6.123233995736766e-17, -313.53333377838135, 367.46666622161865)" fill-opacity="1">students</text><path fill="rgb(255,255,255)" stroke="rgb(229,229,229)" paint-order="fill" d="M 1128.2333374023438 61.5 L 1326.5 61.5 L 1326.5 400.5 L 1128.2333374023438 400.5 L 1128.2333374023438 61.5" fill-opacity="0.9490196078431372" clip-path="url(#kVbMUSDfZRWN)" stroke-opacity="0.5019607843137255" stroke-linejoin="bevel" stroke-miterlimit="10" stroke-dasharray=""/><g clip-path="url(#kVbMUSDfZRWN)"><text fill="rgb(68,68,68)" stroke="none" font-family="helvetica" font-size="13px" font-style="normal" font-weight="normal" text-decoration="normal" x="1162.7333374023438" y="81" text-anchor="start" dominant-baseline="central" transform="matrix(1, 0, 0, 1, 0.5, 0.5)" fill-opacity="1">wavelength</text></g><path fill="rgb(0,255,40)" stroke="none" paint-order="stroke" d="M 1140.2333374023438 73.5 L 1156.2333374023438 73.5 L 1156.2333374023438 89.5 L 1140.2333374023438 89.5 L 1140.2333374023438 73.5" fill-opacity="1" clip-path="url(#kVbMUSDfZRWN)"/><path fill="rgb(216,17,89)" stroke="none" paint-order="stroke" d="M 1140.2333374023438 73.5 L 1156.2333374023438 73.5 L 1156.2333374023438 89.5 L 1140.2333374023438 89.5 L 1140.2333374023438 73.5" fill-opacity="1" clip-path="url(#kVbMUSDfZRWN)"/><g clip-path="url(#kVbMUSDfZRWN)"><text fill="rgb(68,68,68)" stroke="none" font-family="helvetica" font-size="13px" font-style="normal" font-weight="normal" text-decoration="normal" x="1162.7333374023438" y="104" text-anchor="start" dominant-baseline="central" transform="matrix(1, 0, 0, 1, 0.5, 0.5)" fill-opacity="1">solution</text></g><path fill="rgb(251,0,7)" stroke="none" paint-order="stroke" d="M 1140.2333374023438 96.5 L 1156.2333374023438 96.5 L 1156.2333374023438 112.5 L 1140.2333374023438 112.5 L 1140.2333374023438 96.5" fill-opacity="1" clip-path="url(#kVbMUSDfZRWN)"/><path fill="rgb(33,131,128)" stroke="none" paint-order="stroke" d="M 1140.2333374023438 96.5 L 1156.2333374023438 96.5 L 1156.2333374023438 112.5 L 1140.2333374023438 112.5 L 1140.2333374023438 96.5" fill-opacity="1" clip-path="url(#kVbMUSDfZRWN)"/><g clip-path="url(#kVbMUSDfZRWN)"><text fill="rgb(68,68,68)" stroke="none" font-family="helvetica" font-size="13px" font-style="normal" font-weight="normal" text-decoration="normal" x="1162.7333374023438" y="127" text-anchor="start" dominant-baseline="central" transform="matrix(1, 0, 0, 1, 0.5, 0.5)" fill-opacity="1">laser</text></g><path fill="rgb(105,29,48)" stroke="none" paint-order="stroke" d="M 1140.2333374023438 119.5 L 1156.2333374023438 119.5 L 1156.2333374023438 135.5 L 1140.2333374023438 135.5 L 1140.2333374023438 119.5" fill-opacity="1" clip-path="url(#kVbMUSDfZRWN)"/><g clip-path="url(#kVbMUSDfZRWN)"><text fill="rgb(68,68,68)" stroke="none" font-family="helvetica" font-size="13px" font-style="normal" font-weight="normal" text-decoration="normal" x="1162.7333374023438" y="150" text-anchor="start" dominant-baseline="central" transform="matrix(1, 0, 0, 1, 0.5, 0.5)" fill-opacity="1">ruler</text></g><path fill="rgb(255,188,66)" stroke="none" paint-order="stroke" d="M 1140.2333374023438 142.5 L 1156.2333374023438 142.5 L 1156.2333374023438 158.5 L 1140.2333374023438 158.5 L 1140.2333374023438 142.5" fill-opacity="1" clip-path="url(#kVbMUSDfZRWN)"/><g clip-path="url(#kVbMUSDfZRWN)"><text fill="rgb(68,68,68)" stroke="none" font-family="helvetica" font-size="13px" font-style="normal" font-weight="normal" text-decoration="normal" x="1162.7333374023438" y="173" text-anchor="start" dominant-baseline="central" transform="matrix(1, 0, 0, 1, 0.5, 0.5)" fill-opacity="1">restarts</text></g><g clip-path="url(#kVbMUSDfZRWN)"><text fill="rgb(68,68,68)" stroke="none" font-family="helvetica" font-size="13px" font-style="normal" font-weight="normal" text-decoration="normal" x="1162.7333374023438" y="196" text-anchor="start" dominant-baseline="central" transform="matrix(1, 0, 0, 1, 0.5, 0.5)" fill-opacity="1">transmittance_absorbance</text></g><path fill="rgb(162,174,187)" stroke="none" paint-order="stroke" d="M 1140.2333374023438 188.5 L 1156.2333374023438 188.5 L 1156.2333374023438 204.5 L 1140.2333374023438 204.5 L 1140.2333374023438 188.5" fill-opacity="1" clip-path="url(#kVbMUSDfZRWN)"/><g clip-path="url(#kVbMUSDfZRWN)"><text fill="rgb(68,68,68)" stroke="none" font-family="helvetica" font-size="13px" font-style="normal" font-weight="normal" text-decoration="normal" x="1162.7333374023438" y="219" text-anchor="start" dominant-baseline="central" transform="matrix(1, 0, 0, 1, 0.5, 0.5)" fill-opacity="1">magnifier</text></g><g clip-path="url(#kVbMUSDfZRWN)"><text fill="rgb(68,68,68)" stroke="none" font-family="helvetica" font-size="13px" font-style="normal" font-weight="normal" text-decoration="normal" x="1162.7333374023438" y="242" text-anchor="start" dominant-baseline="central" transform="matrix(1, 0, 0, 1, 0.5, 0.5)" fill-opacity="1">concentration</text></g><path fill="rgb(115,210,222)" stroke="none" paint-order="stroke" d="M 1140.2333374023438 234.5 L 1156.2333374023438 234.5 L 1156.2333374023438 250.5 L 1140.2333374023438 250.5 L 1140.2333374023438 234.5" fill-opacity="1" clip-path="url(#kVbMUSDfZRWN)"/><g clip-path="url(#kVbMUSDfZRWN)"><text fill="rgb(68,68,68)" stroke="none" font-family="helvetica" font-size="13px" font-style="normal" font-weight="normal" text-decoration="normal" x="1162.7333374023438" y="265" text-anchor="start" dominant-baseline="central" transform="matrix(1, 0, 0, 1, 0.5, 0.5)" fill-opacity="1">flask</text></g><path fill="rgb(28,49,68)" stroke="none" paint-order="stroke" d="M 1140.2333374023438 257.5 L 1156.2333374023438 257.5 L 1156.2333374023438 273.5 L 1140.2333374023438 273.5 L 1140.2333374023438 257.5" fill-opacity="1" clip-path="url(#kVbMUSDfZRWN)"/><g clip-path="url(#kVbMUSDfZRWN)"><text fill="rgb(68,68,68)" stroke="none" font-family="helvetica" font-size="13px" font-style="normal" font-weight="normal" text-decoration="normal" x="1162.7333374023438" y="288" text-anchor="start" dominant-baseline="central" transform="matrix(1, 0, 0, 1, 0.5, 0.5)" fill-opacity="1">pdf</text></g><path fill="rgb(239,185,203)" stroke="none" paint-order="stroke" d="M 1140.2333374023438 280.5 L 1156.2333374023438 280.5 L 1156.2333374023438 296.5 L 1140.2333374023438 296.5 L 1140.2333374023438 280.5" fill-opacity="1" clip-path="url(#kVbMUSDfZRWN)"/><g clip-path="url(#kVbMUSDfZRWN)"><text fill="rgb(68,68,68)" stroke="none" font-family="helvetica" font-size="13px" font-style="normal" font-weight="normal" text-decoration="normal" x="1162.7333374023438" y="311" text-anchor="start" dominant-baseline="central" transform="matrix(1, 0, 0, 1, 0.5, 0.5)" fill-opacity="1">concentrationlab</text></g><g clip-path="url(#kVbMUSDfZRWN)"><text fill="rgb(68,68,68)" stroke="none" font-family="helvetica" font-size="13px" font-style="normal" font-weight="normal" text-decoration="normal" x="1162.7333374023438" y="334" text-anchor="start" dominant-baseline="central" transform="matrix(1, 0, 0, 1, 0.5, 0.5)" fill-opacity="1">wavelength_slider</text></g><path fill="rgb(105,29,48)" stroke="none" paint-order="stroke" d="M 1140.2333374023438 326.5 L 1156.2333374023438 326.5 L 1156.2333374023438 342.5 L 1140.2333374023438 342.5 L 1140.2333374023438 326.5" fill-opacity="1" clip-path="url(#kVbMUSDfZRWN)"/><g clip-path="url(#kVbMUSDfZRWN)"><text fill="rgb(68,68,68)" stroke="none" font-family="helvetica" font-size="13px" font-style="normal" font-weight="normal" text-decoration="normal" x="1162.7333374023438" y="357" text-anchor="start" dominant-baseline="central" transform="matrix(1, 0, 0, 1, 0.5, 0.5)" fill-opacity="1">ruler measuring</text></g><path fill="rgb(255,188,66)" stroke="none" paint-order="stroke" d="M 1140.2333374023438 349.5 L 1156.2333374023438 349.5 L 1156.2333374023438 365.5 L 1140.2333374023438 365.5 L 1140.2333374023438 349.5" fill-opacity="1" clip-path="url(#kVbMUSDfZRWN)"/><g clip-path="url(#kVbMUSDfZRWN)"><text fill="rgb(68,68,68)" stroke="none" font-family="helvetica" font-size="13px" font-style="normal" font-weight="normal" text-decoration="normal" x="1162.7333374023438" y="380" text-anchor="start" dominant-baseline="central" transform="matrix(1, 0, 0, 1, 0.5, 0.5)" fill-opacity="1">dependent variable</text></g><path fill="rgb(143,45,86)" stroke="none" paint-order="stroke" d="M 1140.2333374023438 372.5 L 1156.2333374023438 372.5 L 1156.2333374023438 388.5 L 1140.2333374023438 388.5 L 1140.2333374023438 372.5" fill-opacity="1" clip-path="url(#kVbMUSDfZRWN)"/><text fill="rgb(68,68,68)" stroke="none" font-family="helvetica" font-size="25pt" font-style="normal" font-weight="bold" text-decoration="normal" x="58" y="38.740885416666664" text-anchor="start" dominant-baseline="alphabetic" transform="matrix(1, 0, 0, 1, 0.5, 0.5)" fill-opacity="1">Timeline for student h4hxzc6s with permutation 3201 for task 1</text></svg>