<svg version="1.1" xmlns="http://www.w3.org/2000/svg" width="1366" height="683"><defs><clipPath id="ZlVoWUWDqaJk"><path fill="none" stroke="none" d="M 58.5 51.5 L 1336.5 51.5 L 1336.5 630.5 L 58.5 630.5 L 58.5 51.5"/></clipPath><clipPath id="lancCrfwiXVx"><path fill="none" stroke="none" d="M 58.5 51.5 L 1336.5 51.5 L 1336.5 630.5 L 58.5 630.5 L 58.5 51.5"/></clipPath><clipPath id="clvpwaPZSEqy"><path fill="none" stroke="none" d="M 58.5 51.5 L 1336.5 51.5 L 1336.5 630.5 L 58.5 630.5 L 58.5 51.5"/></clipPath><clipPath id="tsHGytuSpqSb"><path fill="none" stroke="none" d="M 58.5 51.5 L 1336.5 51.5 L 1336.5 630.5 L 58.5 630.5 L 58.5 51.5"/></clipPath><clipPath id="aCdwzVQAnDEr"><path fill="none" stroke="none" d="M 58.5 51.5 L 1336.5 51.5 L 1336.5 630.5 L 58.5 630.5 L 58.5 51.5"/></clipPath><clipPath id="XumlazZLtpeF"><path fill="none" stroke="none" d="M 58.5 51.5 L 1336.5 51.5 L 1336.5 630.5 L 58.5 630.5 L 58.5 51.5"/></clipPath><clipPath id="ZcGhdJTJVODP"><path fill="none" stroke="none" d="M 58.5 51.5 L 1336.5 51.5 L 1336.5 630.5 L 58.5 630.5 L 58.5 51.5"/></clipPath><clipPath id="TJQAkywWUJdv"><path fill="none" stroke="none" d="M 58.5 51.5 L 1336.5 51.5 L 1336.5 630.5 L 58.5 630.5 L 58.5 51.5"/></clipPath><clipPath id="LGTRKguAgUaT"><path fill="none" stroke="none" d="M 58.5 51.5 L 1336.5 51.5 L 1336.5 630.5 L 58.5 630.5 L 58.5 51.5"/></clipPath><clipPath id="oORPMfTfyTPq"><path fill="none" stroke="none" d="M 58.5 51.5 L 1336.5 51.5 L 1336.5 630.5 L 58.5 630.5 L 58.5 51.5"/></clipPath><clipPath id="IghwPPMznReT"><path fill="none" stroke="none" d="M 58.5 51.5 L 1336.5 51.5 L 1336.5 630.5 L 58.5 630.5 L 58.5 51.5"/></clipPath><clipPath id="xVVLCUOtBhdd"><path fill="none" stroke="none" d="M 58.5 51.5 L 1336.5 51.5 L 1336.5 630.5 L 58.5 630.5 L 58.5 51.5"/></clipPath><clipPath id="ZRDPEQnHNNUs"><path fill="none" stroke="none" d="M 58.5 51.5 L 1336.5 51.5 L 1336.5 630.5 L 58.5 630.5 L 58.5 51.5"/></clipPath><clipPath id="vzcepTKAOHNl"><path fill="none" stroke="none" d="M 58.5 51.5 L 1336.5 51.5 L 1336.5 630.5 L 58.5 630.5 L 58.5 51.5"/></clipPath><clipPath id="ayBJMQVnlTqr"><path fill="none" stroke="none" d="M 58.5 51.5 L 1336.5 51.5 L 1336.5 630.5 L 58.5 630.5 L 58.5 51.5"/></clipPath><clipPath id="hsqPTOdWkblL"><path fill="none" stroke="none" d="M 58.5 51.5 L 1336.5 51.5 L 1336.5 630.5 L 58.5 630.5 L 58.5 51.5"/></clipPath><clipPath id="VoFuZqOITPAK"><path fill="none" stroke="none" d="M 58.5 51.5 L 1336.5 51.5 L 1336.5 630.5 L 58.5 630.5 L 58.5 51.5"/></clipPath><clipPath id="PkcsOtfEXHiJ"><path fill="none" stroke="none" d="M 58.5 51.5 L 1336.5 51.5 L 1336.5 630.5 L 58.5 630.5 L 58.5 51.5"/></clipPath><clipPath id="iURpkpJbJnOH"><path fill="none" stroke="none" d="M 58.5 51.5 L 1336.5 51.5 L 1336.5 630.5 L 58.5 630.5 L 58.5 51.5"/></clipPath><clipPath id="fwMnqwrHOWhn"><path fill="none" stroke="none" d="M 58.5 51.5 L 1336.5 51.5 L 1336.5 630.5 L 58.5 630.5 L 58.5 51.5"/></clipPath><clipPath id="hsrPDoHkugSq"><path fill="none" stroke="none" d="M 58.5 51.5 L 1336.5 51.5 L 1336.5 630.5 L 58.5 630.5 L 58.5 51.5"/></clipPath></defs><path fill="rgb(255,255,255)" stroke="none" paint-order="stroke" d="M 0.5 0.5 L 1366.5 0.5 L 1366.5 683.5 L 0.5 683.5 L 0.5 0.5" fill-opacity="1"/><rect fill="#FFFFFF" stroke="none" x="58" y="51" width="1278" height="579" transform="matrix(1, 0, 0, 1, 0.5, 0.5)"/><path fill="rgb(255,255,255)" stroke="none" paint-order="stroke" d="M 58.5 51.5 L 1336.5 51.5 L 1336.5 630.5 L 58.5 630.5 L 58.5 51.5" fill-opacity="1"/><path fill="none" stroke="rgb(229,229,229)" paint-order="fill" d="M 58.5 51.5 L 1336.5 51.5 L 1336.5 630.5 L 58.5 630.5 L 58.5 51.5" stroke-opacity="1" stroke-linejoin="bevel" stroke-miterlimit="10" stroke-dasharray=""/><path fill="none" stroke="rgb(229,229,229)" paint-order="fill" d="M 314.5 630.5 L 314.5 51.5 M 569.5 630.5 L 569.5 51.5 M 825.5 630.5 L 825.5 51.5 M 1080.5 630.5 L 1080.5 51.5" stroke-opacity="1" stroke-linejoin="bevel" stroke-miterlimit="10" stroke-dasharray="" clip-path="url(#ZlVoWUWDqaJk)"/><path fill="none" stroke="rgb(229,229,229)" paint-order="fill" d="M 58.5 551.5 L 1336.5 551.5 M 58.5 446.5 L 1336.5 446.5 M 58.5 341.5 L 1336.5 341.5 M 58.5 235.5 L 1336.5 235.5 M 58.5 130.5 L 1336.5 130.5" stroke-opacity="1" stroke-linejoin="bevel" stroke-miterlimit="10" stroke-dasharray="" clip-path="url(#lancCrfwiXVx)"/><path fill="rgb(0,255,40)" stroke="none" paint-order="stroke" d="M 58.5 77.81818389892578 L 202.36830139160156 77.81818389892578 L 202.36830139160156 130.45454788208008 L 58.5 130.45454788208008 L 58.5 77.81818389892578" fill-opacity="1" clip-path="url(#clvpwaPZSEqy)"/><path fill="rgb(49,255,0)" stroke="none" paint-order="stroke" d="M 202.36830139160156 77.81818389892578 L 202.3874713908881 77.81818389892578 L 202.3874713908881 130.45454788208008 L 202.36830139160156 130.45454788208008 L 202.36830139160156 77.81818389892578" fill-opacity="1" clip-path="url(#clvpwaPZSEqy)"/><path fill="rgb(82,255,0)" stroke="none" paint-order="stroke" d="M 202.38746643066406 77.81818389892578 L 202.40791442990303 77.81818389892578 L 202.40791442990303 130.45454788208008 L 202.38746643066406 130.45454788208008 L 202.38746643066406 77.81818389892578" fill-opacity="1" clip-path="url(#clvpwaPZSEqy)"/><path fill="rgb(104,255,0)" stroke="none" paint-order="stroke" d="M 202.4079132080078 77.81818389892578 L 202.42963920719922 77.81818389892578 L 202.42963920719922 130.45454788208008 L 202.4079132080078 130.45454788208008 L 202.4079132080078 77.81818389892578" fill-opacity="1" clip-path="url(#clvpwaPZSEqy)"/><path fill="rgb(115,255,0)" stroke="none" paint-order="stroke" d="M 202.4296417236328 77.81818389892578 L 202.5178237259388 77.81818389892578 L 202.5178237259388 130.45454788208008 L 202.4296417236328 130.45454788208008 L 202.4296417236328 77.81818389892578" fill-opacity="1" clip-path="url(#clvpwaPZSEqy)"/><path fill="rgb(126,255,0)" stroke="none" paint-order="stroke" d="M 202.517822265625 77.81818389892578 L 204.07187020778656 77.81818389892578 L 204.07187020778656 130.45454788208008 L 202.517822265625 130.45454788208008 L 202.517822265625 77.81818389892578" fill-opacity="1" clip-path="url(#clvpwaPZSEqy)"/><path fill="rgb(136,255,0)" stroke="none" paint-order="stroke" d="M 204.07186889648438 77.81818389892578 L 204.0910388957709 77.81818389892578 L 204.0910388957709 130.45454788208008 L 204.07186889648438 130.45454788208008 L 204.07186889648438 77.81818389892578" fill-opacity="1" clip-path="url(#clvpwaPZSEqy)"/><path fill="rgb(146,255,0)" stroke="none" paint-order="stroke" d="M 204.09103393554688 77.81818389892578 L 204.28401193022728 77.81818389892578 L 204.28401193022728 130.45454788208008 L 204.09103393554688 130.45454788208008 L 204.09103393554688 77.81818389892578" fill-opacity="1" clip-path="url(#clvpwaPZSEqy)"/><path fill="rgb(172,255,0)" stroke="none" paint-order="stroke" d="M 204.2840118408203 77.81818389892578 L 204.30573784001172 77.81818389892578 L 204.30573784001172 130.45454788208008 L 204.2840118408203 130.45454788208008 L 204.2840118408203 77.81818389892578" fill-opacity="1" clip-path="url(#clvpwaPZSEqy)"/><path fill="rgb(191,255,0)" stroke="none" paint-order="stroke" d="M 204.3057403564453 77.81818389892578 L 204.32618835568428 77.81818389892578 L 204.32618835568428 130.45454788208008 L 204.3057403564453 130.45454788208008 L 204.3057403564453 77.81818389892578" fill-opacity="1" clip-path="url(#clvpwaPZSEqy)"/><path fill="rgb(201,255,0)" stroke="none" paint-order="stroke" d="M 204.32618713378906 77.81818389892578 L 204.34663513302803 77.81818389892578 L 204.34663513302803 130.45454788208008 L 204.32618713378906 130.45454788208008 L 204.32618713378906 77.81818389892578" fill-opacity="1" clip-path="url(#clvpwaPZSEqy)"/><path fill="rgb(210,255,0)" stroke="none" paint-order="stroke" d="M 204.3466339111328 77.81818389892578 L 204.56133791804314 77.81818389892578 L 204.56133791804314 130.45454788208008 L 204.3466339111328 130.45454788208008 L 204.3466339111328 77.81818389892578" fill-opacity="1" clip-path="url(#clvpwaPZSEqy)"/><path fill="rgb(234,255,0)" stroke="none" paint-order="stroke" d="M 204.56134033203125 77.81818389892578 L 204.58178833127022 77.81818389892578 L 204.58178833127022 130.45454788208008 L 204.56134033203125 130.45454788208008 L 204.56134033203125 77.81818389892578" fill-opacity="1" clip-path="url(#clvpwaPZSEqy)"/><path fill="rgb(243,255,0)" stroke="none" paint-order="stroke" d="M 204.581787109375 77.81818389892578 L 204.60223510861397 77.81818389892578 L 204.60223510861397 130.45454788208008 L 204.581787109375 130.45454788208008 L 204.581787109375 77.81818389892578" fill-opacity="1" clip-path="url(#clvpwaPZSEqy)"/><path fill="rgb(255,248,0)" stroke="none" paint-order="stroke" d="M 204.60223388671875 77.81818389892578 L 204.6252378858626 77.81818389892578 L 204.6252378858626 130.45454788208008 L 204.60223388671875 130.45454788208008 L 204.60223388671875 77.81818389892578" fill-opacity="1" clip-path="url(#clvpwaPZSEqy)"/><path fill="rgb(255,239,0)" stroke="none" paint-order="stroke" d="M 204.625244140625 77.81818389892578 L 204.66741814091802 77.81818389892578 L 204.66741814091802 130.45454788208008 L 204.625244140625 130.45454788208008 L 204.625244140625 77.81818389892578" fill-opacity="1" clip-path="url(#clvpwaPZSEqy)"/><path fill="rgb(255,232,0)" stroke="none" paint-order="stroke" d="M 204.66741943359375 77.81818389892578 L 204.6929794345051 77.81818389892578 L 204.6929794345051 130.45454788208008 L 204.66741943359375 130.45454788208008 L 204.66741943359375 77.81818389892578" fill-opacity="1" clip-path="url(#clvpwaPZSEqy)"/><path fill="rgb(255,223,0)" stroke="none" paint-order="stroke" d="M 204.69297790527344 77.81818389892578 L 204.708313905634 77.81818389892578 L 204.708313905634 130.45454788208008 L 204.69297790527344 130.45454788208008 L 204.69297790527344 77.81818389892578" fill-opacity="1" clip-path="url(#clvpwaPZSEqy)"/><path fill="rgb(255,213,0)" stroke="none" paint-order="stroke" d="M 204.70831298828125 77.81818389892578 L 204.96519097685814 77.81818389892578 L 204.96519097685814 130.45454788208008 L 204.70831298828125 130.45454788208008 L 204.70831298828125 77.81818389892578" fill-opacity="1" clip-path="url(#clvpwaPZSEqy)"/><path fill="rgb(255,203,0)" stroke="none" paint-order="stroke" d="M 204.96519470214844 77.81818389892578 L 204.9856427013874 77.81818389892578 L 204.9856427013874 130.45454788208008 L 204.96519470214844 130.45454788208008 L 204.96519470214844 77.81818389892578" fill-opacity="1" clip-path="url(#clvpwaPZSEqy)"/><path fill="rgb(255,172,0)" stroke="none" paint-order="stroke" d="M 204.9856414794922 77.81818389892578 L 205.00864547863603 77.81818389892578 L 205.00864547863603 130.45454788208008 L 204.9856414794922 130.45454788208008 L 204.9856414794922 77.81818389892578" fill-opacity="1" clip-path="url(#clvpwaPZSEqy)"/><path fill="rgb(255,165,0)" stroke="none" paint-order="stroke" d="M 205.00863647460938 77.81818389892578 L 205.02908447384834 77.81818389892578 L 205.02908447384834 130.45454788208008 L 205.00863647460938 130.45454788208008 L 205.00863647460938 77.81818389892578" fill-opacity="1" clip-path="url(#clvpwaPZSEqy)"/><path fill="rgb(255,155,0)" stroke="none" paint-order="stroke" d="M 205.02908325195312 77.81818389892578 L 205.15688325464725 77.81818389892578 L 205.15688325464725 130.45454788208008 L 205.02908325195312 130.45454788208008 L 205.02908325195312 77.81818389892578" fill-opacity="1" clip-path="url(#clvpwaPZSEqy)"/><path fill="rgb(255,144,0)" stroke="none" paint-order="stroke" d="M 205.15689086914062 77.81818389892578 L 205.1773388683796 77.81818389892578 L 205.1773388683796 130.45454788208008 L 205.15689086914062 130.45454788208008 L 205.15689086914062 77.81818389892578" fill-opacity="1" clip-path="url(#clvpwaPZSEqy)"/><path fill="rgb(255,133,0)" stroke="none" paint-order="stroke" d="M 205.17733764648438 77.81818389892578 L 205.19906364567578 77.81818389892578 L 205.19906364567578 130.45454788208008 L 205.17733764648438 130.45454788208008 L 205.17733764648438 77.81818389892578" fill-opacity="1" clip-path="url(#clvpwaPZSEqy)"/><path fill="rgb(255,122,0)" stroke="none" paint-order="stroke" d="M 205.19906616210938 77.81818389892578 L 205.4993961751461 77.81818389892578 L 205.4993961751461 130.45454788208008 L 205.19906616210938 130.45454788208008 L 205.19906616210938 77.81818389892578" fill-opacity="1" clip-path="url(#clvpwaPZSEqy)"/><path fill="rgb(255,111,0)" stroke="none" paint-order="stroke" d="M 205.4993896484375 77.81818389892578 L 205.54028564691544 77.81818389892578 L 205.54028564691544 130.45454788208008 L 205.4993896484375 130.45454788208008 L 205.4993896484375 77.81818389892578" fill-opacity="1" clip-path="url(#clvpwaPZSEqy)"/><path fill="rgb(255,144,0)" stroke="none" paint-order="stroke" d="M 205.540283203125 77.81818389892578 L 205.56073120236397 77.81818389892578 L 205.56073120236397 130.45454788208008 L 205.540283203125 130.45454788208008 L 205.540283203125 77.81818389892578" fill-opacity="1" clip-path="url(#clvpwaPZSEqy)"/><path fill="rgb(255,183,0)" stroke="none" paint-order="stroke" d="M 205.5607452392578 77.81818389892578 L 205.58247123844922 77.81818389892578 L 205.58247123844922 130.45454788208008 L 205.5607452392578 130.45454788208008 L 205.5607452392578 77.81818389892578" fill-opacity="1" clip-path="url(#clvpwaPZSEqy)"/><path fill="rgb(255,223,0)" stroke="none" paint-order="stroke" d="M 205.58245849609375 77.81818389892578 L 205.60418449528515 77.81818389892578 L 205.60418449528515 130.45454788208008 L 205.58245849609375 130.45454788208008 L 205.58245849609375 77.81818389892578" fill-opacity="1" clip-path="url(#clvpwaPZSEqy)"/><path fill="rgb(255,232,0)" stroke="none" paint-order="stroke" d="M 205.60418701171875 77.81818389892578 L 205.62463501095772 77.81818389892578 L 205.62463501095772 130.45454788208008 L 205.60418701171875 130.45454788208008 L 205.60418701171875 77.81818389892578" fill-opacity="1" clip-path="url(#clvpwaPZSEqy)"/><path fill="rgb(255,239,0)" stroke="none" paint-order="stroke" d="M 205.6246337890625 77.81818389892578 L 205.68981178849936 77.81818389892578 L 205.68981178849936 130.45454788208008 L 205.6246337890625 130.45454788208008 L 205.6246337890625 77.81818389892578" fill-opacity="1" clip-path="url(#clvpwaPZSEqy)"/><path fill="rgb(252,255,0)" stroke="none" paint-order="stroke" d="M 205.6898193359375 77.81818389892578 L 205.71410133503377 77.81818389892578 L 205.71410133503377 130.45454788208008 L 205.6898193359375 130.45454788208008 L 205.6898193359375 77.81818389892578" fill-opacity="1" clip-path="url(#clvpwaPZSEqy)"/><path fill="rgb(234,255,0)" stroke="none" paint-order="stroke" d="M 205.71409606933594 77.81818389892578 L 205.73326606862247 77.81818389892578 L 205.73326606862247 130.45454788208008 L 205.71409606933594 130.45454788208008 L 205.71409606933594 77.81818389892578" fill-opacity="1" clip-path="url(#clvpwaPZSEqy)"/><path fill="rgb(225,255,0)" stroke="none" paint-order="stroke" d="M 205.73326110839844 77.81818389892578 L 205.7537091076374 77.81818389892578 L 205.7537091076374 130.45454788208008 L 205.73326110839844 130.45454788208008 L 205.73326110839844 77.81818389892578" fill-opacity="1" clip-path="url(#clvpwaPZSEqy)"/><path fill="rgb(210,255,0)" stroke="none" paint-order="stroke" d="M 205.75372314453125 77.81818389892578 L 205.79717514291406 77.81818389892578 L 205.79717514291406 130.45454788208008 L 205.75372314453125 130.45454788208008 L 205.75372314453125 77.81818389892578" fill-opacity="1" clip-path="url(#clvpwaPZSEqy)"/><path fill="rgb(201,255,0)" stroke="none" paint-order="stroke" d="M 205.7971649169922 77.81818389892578 L 205.81633491627872 77.81818389892578 L 205.81633491627872 130.45454788208008 L 205.7971649169922 130.45454788208008 L 205.7971649169922 77.81818389892578" fill-opacity="1" clip-path="url(#clvpwaPZSEqy)"/><path fill="rgb(191,255,0)" stroke="none" paint-order="stroke" d="M 205.81634521484375 77.81818389892578 L 205.83679321408272 77.81818389892578 L 205.83679321408272 130.45454788208008 L 205.81634521484375 130.45454788208008 L 205.81634521484375 77.81818389892578" fill-opacity="1" clip-path="url(#clvpwaPZSEqy)"/><path fill="rgb(172,255,0)" stroke="none" paint-order="stroke" d="M 205.8367919921875 77.81818389892578 L 205.85979599133134 77.81818389892578 L 205.85979599133134 130.45454788208008 L 205.8367919921875 130.45454788208008 L 205.8367919921875 77.81818389892578" fill-opacity="1" clip-path="url(#clvpwaPZSEqy)"/><path fill="rgb(162,255,0)" stroke="none" paint-order="stroke" d="M 205.8597869873047 77.81818389892578 L 205.88023498654366 77.81818389892578 L 205.88023498654366 130.45454788208008 L 205.8597869873047 130.45454788208008 L 205.8597869873047 77.81818389892578" fill-opacity="1" clip-path="url(#clvpwaPZSEqy)"/><path fill="rgb(153,255,0)" stroke="none" paint-order="stroke" d="M 205.88023376464844 77.81818389892578 L 205.9875857681036 77.81818389892578 L 205.9875857681036 130.45454788208008 L 205.88023376464844 130.45454788208008 L 205.88023376464844 77.81818389892578" fill-opacity="1" clip-path="url(#clvpwaPZSEqy)"/><path fill="rgb(146,255,0)" stroke="none" paint-order="stroke" d="M 205.9875946044922 77.81818389892578 L 206.0093206036836 77.81818389892578 L 206.0093206036836 130.45454788208008 L 205.9875946044922 130.45454788208008 L 205.9875946044922 77.81818389892578" fill-opacity="1" clip-path="url(#clvpwaPZSEqy)"/><path fill="rgb(136,255,0)" stroke="none" paint-order="stroke" d="M 206.0093231201172 77.81818389892578 L 206.22147111594677 77.81818389892578 L 206.22147111594677 130.45454788208008 L 206.0093231201172 130.45454788208008 L 206.0093231201172 77.81818389892578" fill-opacity="1" clip-path="url(#clvpwaPZSEqy)"/><path fill="rgb(126,255,0)" stroke="none" paint-order="stroke" d="M 206.22146606445312 77.81818389892578 L 206.56141406297684 77.81818389892578 L 206.56141406297684 130.45454788208008 L 206.22146606445312 130.45454788208008 L 206.22146606445312 77.81818389892578" fill-opacity="1" clip-path="url(#clvpwaPZSEqy)"/><path fill="rgb(104,255,0)" stroke="none" paint-order="stroke" d="M 206.56141662597656 77.81818389892578 L 206.58314262516797 77.81818389892578 L 206.58314262516797 130.45454788208008 L 206.56141662597656 130.45454788208008 L 206.56141662597656 77.81818389892578" fill-opacity="1" clip-path="url(#clvpwaPZSEqy)"/><path fill="rgb(93,255,0)" stroke="none" paint-order="stroke" d="M 206.58314514160156 77.81818389892578 L 207.0956231355667 77.81818389892578 L 207.0956231355667 130.45454788208008 L 206.58314514160156 130.45454788208008 L 206.58314514160156 77.81818389892578" fill-opacity="1" clip-path="url(#clvpwaPZSEqy)"/><path fill="rgb(74,255,0)" stroke="none" paint-order="stroke" d="M 207.09561157226562 77.81818389892578 L 207.20168557018042 77.81818389892578 L 207.20168557018042 130.45454788208008 L 207.09561157226562 130.45454788208008 L 207.09561157226562 77.81818389892578" fill-opacity="1" clip-path="url(#clvpwaPZSEqy)"/><path fill="rgb(49,255,0)" stroke="none" paint-order="stroke" d="M 207.20169067382812 77.81818389892578 L 207.58509066700935 77.81818389892578 L 207.58509066700935 130.45454788208008 L 207.20169067382812 130.45454788208008 L 207.20169067382812 77.81818389892578" fill-opacity="1" clip-path="url(#clvpwaPZSEqy)"/><path fill="rgb(62,255,0)" stroke="none" paint-order="stroke" d="M 207.5850830078125 77.81818389892578 L 207.6068090070039 77.81818389892578 L 207.6068090070039 130.45454788208008 L 207.5850830078125 130.45454788208008 L 207.5850830078125 77.81818389892578" fill-opacity="1" clip-path="url(#clvpwaPZSEqy)"/><path fill="rgb(74,255,0)" stroke="none" paint-order="stroke" d="M 207.6068115234375 77.81818389892578 L 207.7563375234604 77.81818389892578 L 207.7563375234604 130.45454788208008 L 207.6068115234375 130.45454788208008 L 207.6068115234375 77.81818389892578" fill-opacity="1" clip-path="url(#clvpwaPZSEqy)"/><path fill="rgb(82,255,0)" stroke="none" paint-order="stroke" d="M 207.75634765625 77.81818389892578 L 207.7780736554414 77.81818389892578 L 207.7780736554414 130.45454788208008 L 207.75634765625 130.45454788208008 L 207.75634765625 77.81818389892578" fill-opacity="1" clip-path="url(#clvpwaPZSEqy)"/><path fill="rgb(93,255,0)" stroke="none" paint-order="stroke" d="M 207.77806091308594 77.81818389892578 L 207.79723091237247 77.81818389892578 L 207.79723091237247 130.45454788208008 L 207.77806091308594 130.45454788208008 L 207.77806091308594 77.81818389892578" fill-opacity="1" clip-path="url(#clvpwaPZSEqy)"/><path fill="rgb(104,255,0)" stroke="none" paint-order="stroke" d="M 207.7972412109375 77.81818389892578 L 207.8189672101289 77.81818389892578 L 207.8189672101289 130.45454788208008 L 207.7972412109375 130.45454788208008 L 207.7972412109375 77.81818389892578" fill-opacity="1" clip-path="url(#clvpwaPZSEqy)"/><path fill="rgb(115,255,0)" stroke="none" paint-order="stroke" d="M 207.8189697265625 77.81818389892578 L 207.86114372685552 77.81818389892578 L 207.86114372685552 130.45454788208008 L 207.8189697265625 130.45454788208008 L 207.8189697265625 77.81818389892578" fill-opacity="1" clip-path="url(#clvpwaPZSEqy)"/><path fill="rgb(126,255,0)" stroke="none" paint-order="stroke" d="M 207.86114501953125 77.81818389892578 L 208.11802300810814 77.81818389892578 L 208.11802300810814 130.45454788208008 L 207.86114501953125 130.45454788208008 L 207.86114501953125 77.81818389892578" fill-opacity="1" clip-path="url(#clvpwaPZSEqy)"/><path fill="rgb(104,255,0)" stroke="none" paint-order="stroke" d="M 208.11801147460938 77.81818389892578 L 208.587037473917 77.81818389892578 L 208.587037473917 130.45454788208008 L 208.11801147460938 130.45454788208008 L 208.11801147460938 77.81818389892578" fill-opacity="1" clip-path="url(#clvpwaPZSEqy)"/><path fill="rgb(93,255,0)" stroke="none" paint-order="stroke" d="M 208.5870361328125 77.81818389892578 L 209.22731411457062 77.81818389892578 L 209.22731411457062 130.45454788208008 L 208.5870361328125 130.45454788208008 L 208.5870361328125 77.81818389892578" fill-opacity="1" clip-path="url(#clvpwaPZSEqy)"/><path fill="rgb(82,255,0)" stroke="none" paint-order="stroke" d="M 209.22732543945312 77.81818389892578 L 210.80054342746735 77.81818389892578 L 210.80054342746735 130.45454788208008 L 209.22732543945312 130.45454788208008 L 209.22732543945312 77.81818389892578" fill-opacity="1" clip-path="url(#clvpwaPZSEqy)"/><path fill="rgb(62,255,0)" stroke="none" paint-order="stroke" d="M 210.800537109375 77.81818389892578 L 213.44216299057007 77.81818389892578 L 213.44216299057007 130.45454788208008 L 210.800537109375 130.45454788208008 L 210.800537109375 77.81818389892578" fill-opacity="1" clip-path="url(#clvpwaPZSEqy)"/><path fill="rgb(74,255,0)" stroke="none" paint-order="stroke" d="M 213.44216918945312 77.81818389892578 L 213.4626171886921 77.81818389892578 L 213.4626171886921 130.45454788208008 L 213.44216918945312 130.45454788208008 L 213.44216918945312 77.81818389892578" fill-opacity="1" clip-path="url(#clvpwaPZSEqy)"/><path fill="rgb(82,255,0)" stroke="none" paint-order="stroke" d="M 213.46261596679688 77.81818389892578 L 215.35789000988007 77.81818389892578 L 215.35789000988007 130.45454788208008 L 213.46261596679688 130.45454788208008 L 213.46261596679688 77.81818389892578" fill-opacity="1" clip-path="url(#clvpwaPZSEqy)"/><path fill="rgb(74,255,0)" stroke="none" paint-order="stroke" d="M 215.35787963867188 77.81818389892578 L 215.55085763335228 77.81818389892578 L 215.55085763335228 130.45454788208008 L 215.35787963867188 130.45454788208008 L 215.35787963867188 77.81818389892578" fill-opacity="1" clip-path="url(#clvpwaPZSEqy)"/><path fill="rgb(62,255,0)" stroke="none" paint-order="stroke" d="M 215.5508575439453 77.81818389892578 L 215.63520554453135 77.81818389892578 L 215.63520554453135 130.45454788208008 L 215.5508575439453 130.45454788208008 L 215.5508575439453 77.81818389892578" fill-opacity="1" clip-path="url(#clvpwaPZSEqy)"/><path fill="rgb(49,255,0)" stroke="none" paint-order="stroke" d="M 215.6352081298828 77.81818389892578 L 215.82690812647343 77.81818389892578 L 215.82690812647343 130.45454788208008 L 215.6352081298828 130.45454788208008 L 215.6352081298828 77.81818389892578" fill-opacity="1" clip-path="url(#clvpwaPZSEqy)"/><path fill="rgb(35,255,0)" stroke="none" paint-order="stroke" d="M 215.82691955566406 77.81818389892578 L 217.4448676109314 77.81818389892578 L 217.4448676109314 130.45454788208008 L 215.82691955566406 130.45454788208008 L 215.82691955566406 77.81818389892578" fill-opacity="1" clip-path="url(#clvpwaPZSEqy)"/><path fill="rgb(49,255,0)" stroke="none" paint-order="stroke" d="M 217.44485473632812 77.81818389892578 L 217.68000674247742 77.81818389892578 L 217.68000674247742 130.45454788208008 L 217.44485473632812 130.45454788208008 L 217.44485473632812 77.81818389892578" fill-opacity="1" clip-path="url(#clvpwaPZSEqy)"/><path fill="rgb(62,255,0)" stroke="none" paint-order="stroke" d="M 217.6800079345703 77.81818389892578 L 217.89471194148064 77.81818389892578 L 217.89471194148064 130.45454788208008 L 217.6800079345703 130.45454788208008 L 217.6800079345703 77.81818389892578" fill-opacity="1" clip-path="url(#clvpwaPZSEqy)"/><path fill="rgb(74,255,0)" stroke="none" paint-order="stroke" d="M 217.89471435546875 77.81818389892578 L 218.76631033420563 77.81818389892578 L 218.76631033420563 130.45454788208008 L 217.89471435546875 130.45454788208008 L 217.89471435546875 77.81818389892578" fill-opacity="1" clip-path="url(#clvpwaPZSEqy)"/><path fill="rgb(62,255,0)" stroke="none" paint-order="stroke" d="M 218.7663116455078 77.81818389892578 L 219.7657076716423 77.81818389892578 L 219.7657076716423 130.45454788208008 L 218.7663116455078 130.45454788208008 L 218.7663116455078 77.81818389892578" fill-opacity="1" clip-path="url(#clvpwaPZSEqy)"/><path fill="rgb(49,255,0)" stroke="none" paint-order="stroke" d="M 219.7657012939453 77.81818389892578 L 273.44297790527344 77.81818389892578 L 273.44297790527344 130.45454788208008 L 219.7657012939453 130.45454788208008 L 219.7657012939453 77.81818389892578" fill-opacity="1" clip-path="url(#clvpwaPZSEqy)"/><path fill="rgb(102,0,183)" stroke="none" paint-order="stroke" d="M 273.4429931640625 77.81818389892578 L 315.1901397705078 77.81818389892578 L 315.1901397705078 130.45454788208008 L 273.4429931640625 130.45454788208008 L 273.4429931640625 77.81818389892578" fill-opacity="1" clip-path="url(#clvpwaPZSEqy)"/><path fill="rgb(0,160,255)" stroke="none" paint-order="stroke" d="M 315.19012451171875 77.81818389892578 L 315.7728925347328 77.81818389892578 L 315.7728925347328 130.45454788208008 L 315.19012451171875 130.45454788208008 L 315.19012451171875 77.81818389892578" fill-opacity="1" clip-path="url(#clvpwaPZSEqy)"/><path fill="rgb(0,151,255)" stroke="none" paint-order="stroke" d="M 315.77288818359375 77.81818389892578 L 315.8188961818814 77.81818389892578 L 315.8188961818814 130.45454788208008 L 315.77288818359375 130.45454788208008 L 315.77288818359375 77.81818389892578" fill-opacity="1" clip-path="url(#clvpwaPZSEqy)"/><path fill="rgb(0,137,255)" stroke="none" paint-order="stroke" d="M 315.81890869140625 77.81818389892578 L 316.10006868839264 77.81818389892578 L 316.10006868839264 130.45454788208008 L 315.81890869140625 130.45454788208008 L 315.81890869140625 77.81818389892578" fill-opacity="1" clip-path="url(#clvpwaPZSEqy)"/><path fill="rgb(0,255,180)" stroke="none" paint-order="stroke" d="M 316.1000671386719 77.81818389892578 L 317.3180011510849 77.81818389892578 L 317.3180011510849 130.45454788208008 L 316.1000671386719 130.45454788208008 L 316.1000671386719 77.81818389892578" fill-opacity="1" clip-path="url(#clvpwaPZSEqy)"/><path fill="rgb(86,255,0)" stroke="none" paint-order="stroke" d="M 317.3179931640625 77.81818389892578 L 317.7985211610794 77.81818389892578 L 317.7985211610794 130.45454788208008 L 317.3179931640625 130.45454788208008 L 317.3179931640625 77.81818389892578" fill-opacity="1" clip-path="url(#clvpwaPZSEqy)"/><path fill="rgb(78,255,0)" stroke="none" paint-order="stroke" d="M 317.79852294921875 77.81818389892578 L 317.94932694733143 77.81818389892578 L 317.94932694733143 130.45454788208008 L 317.79852294921875 130.45454788208008 L 317.79852294921875 77.81818389892578" fill-opacity="1" clip-path="url(#clvpwaPZSEqy)"/><path fill="rgb(66,255,0)" stroke="none" paint-order="stroke" d="M 317.9493408203125 77.81818389892578 L 318.07586282491684 77.81818389892578 L 318.07586282491684 130.45454788208008 L 317.9493408203125 130.45454788208008 L 317.9493408203125 77.81818389892578" fill-opacity="1" clip-path="url(#clvpwaPZSEqy)"/><path fill="rgb(53,255,0)" stroke="none" paint-order="stroke" d="M 318.07586669921875 77.81818389892578 L 318.2483966946602 77.81818389892578 L 318.2483966946602 130.45454788208008 L 318.07586669921875 130.45454788208008 L 318.07586669921875 77.81818389892578" fill-opacity="1" clip-path="url(#clvpwaPZSEqy)"/><path fill="rgb(40,255,0)" stroke="none" paint-order="stroke" d="M 318.2483825683594 77.81818389892578 L 319.41775262355804 77.81818389892578 L 319.41775262355804 130.45454788208008 L 318.2483825683594 130.45454788208008 L 318.2483825683594 77.81818389892578" fill-opacity="1" clip-path="url(#clvpwaPZSEqy)"/><path fill="rgb(53,255,0)" stroke="none" paint-order="stroke" d="M 319.4177551269531 77.81818389892578 L 319.4382031261921 77.81818389892578 L 319.4382031261921 130.45454788208008 L 319.4177551269531 130.45454788208008 L 319.4177551269531 77.81818389892578" fill-opacity="1" clip-path="url(#clvpwaPZSEqy)"/><path fill="rgb(66,255,0)" stroke="none" paint-order="stroke" d="M 319.4382019042969 77.81818389892578 L 319.48293190449476 77.81818389892578 L 319.48293190449476 130.45454788208008 L 319.4382019042969 130.45454788208008 L 319.4382019042969 77.81818389892578" fill-opacity="1" clip-path="url(#clvpwaPZSEqy)"/><path fill="rgb(78,255,0)" stroke="none" paint-order="stroke" d="M 319.4829406738281 77.81818389892578 L 320.0363146662712 77.81818389892578 L 320.0363146662712 130.45454788208008 L 319.4829406738281 130.45454788208008 L 319.4829406738281 77.81818389892578" fill-opacity="1" clip-path="url(#clvpwaPZSEqy)"/><path fill="rgb(66,255,0)" stroke="none" paint-order="stroke" d="M 320.03631591796875 77.81818389892578 L 320.2062899172306 77.81818389892578 L 320.2062899172306 130.45454788208008 L 320.03631591796875 130.45454788208008 L 320.03631591796875 77.81818389892578" fill-opacity="1" clip-path="url(#clvpwaPZSEqy)"/><path fill="rgb(53,255,0)" stroke="none" paint-order="stroke" d="M 320.206298828125 77.81818389892578 L 320.44017282128334 77.81818389892578 L 320.44017282128334 130.45454788208008 L 320.206298828125 130.45454788208008 L 320.206298828125 77.81818389892578" fill-opacity="1" clip-path="url(#clvpwaPZSEqy)"/><path fill="rgb(40,255,0)" stroke="none" paint-order="stroke" d="M 320.4401550292969 77.81818389892578 L 321.7603290081024 77.81818389892578 L 321.7603290081024 130.45454788208008 L 320.4401550292969 130.45454788208008 L 320.4401550292969 77.81818389892578" fill-opacity="1" clip-path="url(#clvpwaPZSEqy)"/><path fill="rgb(53,255,0)" stroke="none" paint-order="stroke" d="M 321.7603454589844 77.81818389892578 L 323.50864946842194 77.81818389892578 L 323.50864946842194 130.45454788208008 L 321.7603454589844 130.45454788208008 L 321.7603454589844 77.81818389892578" fill-opacity="1" clip-path="url(#clvpwaPZSEqy)"/><path fill="rgb(102,0,183)" stroke="none" paint-order="stroke" d="M 323.5086364746094 77.81818389892578 L 325.8639905452728 77.81818389892578 L 325.8639905452728 130.45454788208008 L 323.5086364746094 130.45454788208008 L 323.5086364746094 77.81818389892578" fill-opacity="1" clip-path="url(#clvpwaPZSEqy)"/><path fill="rgb(129,255,0)" stroke="none" paint-order="stroke" d="M 325.8639831542969 77.81818389892578 L 326.9375030994415 77.81818389892578 L 326.9375030994415 130.45454788208008 L 325.8639831542969 130.45454788208008 L 325.8639831542969 77.81818389892578" fill-opacity="1" clip-path="url(#clvpwaPZSEqy)"/><path fill="rgb(40,255,0)" stroke="none" paint-order="stroke" d="M 326.9375 77.81818389892578 L 328.25639605522156 77.81818389892578 L 328.25639605522156 130.45454788208008 L 326.9375 130.45454788208008 L 326.9375 77.81818389892578" fill-opacity="1" clip-path="url(#clvpwaPZSEqy)"/><path fill="rgb(8,255,0)" stroke="none" paint-order="stroke" d="M 328.25640869140625 77.81818389892578 L 328.7778326869011 77.81818389892578 L 328.7778326869011 130.45454788208008 L 328.25640869140625 130.45454788208008 L 328.25640869140625 77.81818389892578" fill-opacity="1" clip-path="url(#clvpwaPZSEqy)"/><path fill="rgb(53,255,0)" stroke="none" paint-order="stroke" d="M 328.77783203125 77.81818389892578 L 329.1867920458317 77.81818389892578 L 329.1867920458317 130.45454788208008 L 328.77783203125 130.45454788208008 L 328.77783203125 77.81818389892578" fill-opacity="1" clip-path="url(#clvpwaPZSEqy)"/><path fill="rgb(78,255,0)" stroke="none" paint-order="stroke" d="M 329.1867980957031 77.81818389892578 L 331.73385214805603 77.81818389892578 L 331.73385214805603 130.45454788208008 L 329.1867980957031 130.45454788208008 L 329.1867980957031 77.81818389892578" fill-opacity="1" clip-path="url(#clvpwaPZSEqy)"/><path fill="rgb(53,255,0)" stroke="none" paint-order="stroke" d="M 331.7338562011719 77.81818389892578 L 335.2764720916748 77.81818389892578 L 335.2764720916748 130.45454788208008 L 331.7338562011719 130.45454788208008 L 331.7338562011719 77.81818389892578" fill-opacity="1" clip-path="url(#clvpwaPZSEqy)"/><path fill="rgb(159,255,0)" stroke="none" paint-order="stroke" d="M 335.2764587402344 77.81818389892578 L 337.8056206703186 77.81818389892578 L 337.8056206703186 130.45454788208008 L 335.2764587402344 130.45454788208008 L 335.2764587402344 77.81818389892578" fill-opacity="1" clip-path="url(#clvpwaPZSEqy)"/><path fill="rgb(66,255,0)" stroke="none" paint-order="stroke" d="M 337.8056335449219 77.81818389892578 L 444.8675308227539 77.81818389892578 L 444.8675308227539 130.45454788208008 L 337.8056335449219 130.45454788208008 L 337.8056335449219 77.81818389892578" fill-opacity="1" clip-path="url(#clvpwaPZSEqy)"/><path fill="rgb(0,0,0)" stroke="none" paint-order="stroke" d="M 444.8675231933594 77.81818389892578 L 448.04718708992004 77.81818389892578 L 448.04718708992004 130.45454788208008 L 444.8675231933594 130.45454788208008 L 444.8675231933594 77.81818389892578" fill-opacity="1" clip-path="url(#clvpwaPZSEqy)"/><path fill="rgb(143,255,0)" stroke="none" paint-order="stroke" d="M 448.04718017578125 77.81818389892578 L 456.15481185913086 77.81818389892578 L 456.15481185913086 130.45454788208008 L 448.04718017578125 130.45454788208008 L 448.04718017578125 77.81818389892578" fill-opacity="1" clip-path="url(#clvpwaPZSEqy)"/><path fill="rgb(0,0,0)" stroke="none" paint-order="stroke" d="M 456.1548156738281 77.81818389892578 L 493.4212951660156 77.81818389892578 L 493.4212951660156 130.45454788208008 L 456.1548156738281 130.45454788208008 L 456.1548156738281 77.81818389892578" fill-opacity="1" clip-path="url(#clvpwaPZSEqy)"/><path fill="rgb(251,0,7)" stroke="none" paint-order="stroke" d="M 58.5 130.4545440673828 L 273.4429931640625 130.4545440673828 L 273.4429931640625 183.0909080505371 L 58.5 183.0909080505371 L 58.5 130.4545440673828" fill-opacity="1" clip-path="url(#tsHGytuSpqSb)"/><path fill="rgb(255,255,10)" stroke="none" paint-order="stroke" d="M 273.4429931640625 130.4545440673828 L 335.2764663696289 130.4545440673828 L 335.2764663696289 183.0909080505371 L 273.4429931640625 183.0909080505371 L 273.4429931640625 130.4545440673828" fill-opacity="1" clip-path="url(#tsHGytuSpqSb)"/><path fill="rgb(237,115,111)" stroke="none" paint-order="stroke" d="M 335.2764587402344 130.4545440673828 L 444.86751556396484 130.4545440673828 L 444.86751556396484 183.0909080505371 L 335.2764587402344 183.0909080505371 L 335.2764587402344 130.4545440673828" fill-opacity="1" clip-path="url(#tsHGytuSpqSb)"/><path fill="rgb(27,121,255)" stroke="none" paint-order="stroke" d="M 444.8675231933594 130.4545440673828 L 448.04718708992004 130.4545440673828 L 448.04718708992004 183.0909080505371 L 444.8675231933594 183.0909080505371 L 444.8675231933594 130.4545440673828" fill-opacity="1" clip-path="url(#tsHGytuSpqSb)"/><path fill="rgb(62,0,101)" stroke="none" paint-order="stroke" d="M 448.04718017578125 130.4545440673828 L 456.15481185913086 130.4545440673828 L 456.15481185913086 183.0909080505371 L 448.04718017578125 183.0909080505371 L 448.04718017578125 130.4545440673828" fill-opacity="1" clip-path="url(#tsHGytuSpqSb)"/><path fill="rgb(27,121,255)" stroke="none" paint-order="stroke" d="M 456.1548156738281 130.4545440673828 L 493.4212951660156 130.4545440673828 L 493.4212951660156 183.0909080505371 L 456.1548156738281 183.0909080505371 L 456.1548156738281 130.4545440673828" fill-opacity="1" clip-path="url(#tsHGytuSpqSb)"/><path fill="rgb(105,29,48)" stroke="none" paint-order="stroke" d="M 223.00160217285156 183.09091186523438 L 223.06550217419863 183.09091186523438 L 223.06550217419863 498.9090881347656 L 223.00160217285156 498.9090881347656 L 223.00160217285156 183.09091186523438" fill-opacity="1" clip-path="url(#aCdwzVQAnDEr)"/><path fill="rgb(255,188,66)" stroke="none" paint-order="stroke" d="M 232.1916961669922 183.09091186523438 L 236.46149396896362 183.09091186523438 L 236.46149396896362 498.9090881347656 L 232.1916961669922 498.9090881347656 L 232.1916961669922 183.09091186523438" fill-opacity="1" clip-path="url(#XumlazZLtpeF)"/><path fill="rgb(162,174,187)" stroke="none" paint-order="stroke" d="M 256.6155700683594 183.09091186523438 L 256.67947006970644 183.09091186523438 L 256.67947006970644 498.9090881347656 L 256.6155700683594 498.9090881347656 L 256.6155700683594 183.09091186523438" fill-opacity="1" clip-path="url(#TJQAkywWUJdv)"/><path fill="rgb(216,17,89)" stroke="none" paint-order="stroke" d="M 197.82627868652344 183.09091186523438 L 197.8901786878705 183.09091186523438 L 197.8901786878705 498.9090881347656 L 197.82627868652344 498.9090881347656 L 197.82627868652344 183.09091186523438" fill-opacity="1" clip-path="url(#oORPMfTfyTPq)"/><path fill="rgb(216,17,89)" stroke="none" paint-order="stroke" d="M 197.82627868652344 183.09091186523438 L 197.8901786878705 183.09091186523438 L 197.8901786878705 498.9090881347656 L 197.82627868652344 498.9090881347656 L 197.82627868652344 183.09091186523438" fill-opacity="1" clip-path="url(#oORPMfTfyTPq)"/><path fill="rgb(216,17,89)" stroke="none" paint-order="stroke" d="M 198.53045654296875 183.09091186523438 L 198.59435654431581 183.09091186523438 L 198.59435654431581 498.9090881347656 L 198.53045654296875 498.9090881347656 L 198.53045654296875 183.09091186523438" fill-opacity="1" clip-path="url(#oORPMfTfyTPq)"/><path fill="rgb(216,17,89)" stroke="none" paint-order="stroke" d="M 198.53045654296875 183.09091186523438 L 198.59435654431581 183.09091186523438 L 198.59435654431581 498.9090881347656 L 198.53045654296875 498.9090881347656 L 198.53045654296875 183.09091186523438" fill-opacity="1" clip-path="url(#oORPMfTfyTPq)"/><path fill="rgb(216,17,89)" stroke="none" paint-order="stroke" d="M 201.014892578125 183.09091186523438 L 201.07879257947206 183.09091186523438 L 201.07879257947206 498.9090881347656 L 201.014892578125 498.9090881347656 L 201.014892578125 183.09091186523438" fill-opacity="1" clip-path="url(#oORPMfTfyTPq)"/><path fill="rgb(216,17,89)" stroke="none" paint-order="stroke" d="M 201.014892578125 183.09091186523438 L 201.07879257947206 183.09091186523438 L 201.07879257947206 498.9090881347656 L 201.014892578125 498.9090881347656 L 201.014892578125 183.09091186523438" fill-opacity="1" clip-path="url(#oORPMfTfyTPq)"/><path fill="rgb(216,17,89)" stroke="none" paint-order="stroke" d="M 311.75103759765625 183.09091186523438 L 311.8149375990033 183.09091186523438 L 311.8149375990033 498.9090881347656 L 311.75103759765625 498.9090881347656 L 311.75103759765625 183.09091186523438" fill-opacity="1" clip-path="url(#oORPMfTfyTPq)"/><path fill="rgb(216,17,89)" stroke="none" paint-order="stroke" d="M 311.75103759765625 183.09091186523438 L 311.8149375990033 183.09091186523438 L 311.8149375990033 498.9090881347656 L 311.75103759765625 498.9090881347656 L 311.75103759765625 183.09091186523438" fill-opacity="1" clip-path="url(#oORPMfTfyTPq)"/><path fill="rgb(216,17,89)" stroke="none" paint-order="stroke" d="M 313.6833801269531 183.09091186523438 L 313.7472801283002 183.09091186523438 L 313.7472801283002 498.9090881347656 L 313.6833801269531 498.9090881347656 L 313.6833801269531 183.09091186523438" fill-opacity="1" clip-path="url(#oORPMfTfyTPq)"/><path fill="rgb(216,17,89)" stroke="none" paint-order="stroke" d="M 313.6833801269531 183.09091186523438 L 313.7472801283002 183.09091186523438 L 313.7472801283002 498.9090881347656 L 313.6833801269531 498.9090881347656 L 313.6833801269531 183.09091186523438" fill-opacity="1" clip-path="url(#oORPMfTfyTPq)"/><path fill="rgb(216,17,89)" stroke="none" paint-order="stroke" d="M 323.5086364746094 183.09091186523438 L 323.57253647595644 183.09091186523438 L 323.57253647595644 498.9090881347656 L 323.5086364746094 498.9090881347656 L 323.5086364746094 183.09091186523438" fill-opacity="1" clip-path="url(#oORPMfTfyTPq)"/><path fill="rgb(216,17,89)" stroke="none" paint-order="stroke" d="M 323.5086364746094 183.09091186523438 L 323.57253647595644 183.09091186523438 L 323.57253647595644 498.9090881347656 L 323.5086364746094 498.9090881347656 L 323.5086364746094 183.09091186523438" fill-opacity="1" clip-path="url(#oORPMfTfyTPq)"/><path fill="rgb(216,17,89)" stroke="none" paint-order="stroke" d="M 325.0524597167969 183.09091186523438 L 325.11635971814394 183.09091186523438 L 325.11635971814394 498.9090881347656 L 325.0524597167969 498.9090881347656 L 325.0524597167969 183.09091186523438" fill-opacity="1" clip-path="url(#oORPMfTfyTPq)"/><path fill="rgb(216,17,89)" stroke="none" paint-order="stroke" d="M 325.0524597167969 183.09091186523438 L 325.11635971814394 183.09091186523438 L 325.11635971814394 498.9090881347656 L 325.0524597167969 498.9090881347656 L 325.0524597167969 183.09091186523438" fill-opacity="1" clip-path="url(#oORPMfTfyTPq)"/><path fill="rgb(33,131,128)" stroke="none" paint-order="stroke" d="M 271.80841064453125 183.09091186523438 L 273.4429726600647 183.09091186523438 L 273.4429726600647 498.9090881347656 L 271.80841064453125 498.9090881347656 L 271.80841064453125 183.09091186523438" fill-opacity="1" clip-path="url(#IghwPPMznReT)"/><path fill="rgb(33,131,128)" stroke="none" paint-order="stroke" d="M 333.9588317871094 183.09091186523438 L 335.27644979953766 183.09091186523438 L 335.27644979953766 498.9090881347656 L 333.9588317871094 498.9090881347656 L 333.9588317871094 183.09091186523438" fill-opacity="1" clip-path="url(#IghwPPMznReT)"/><path fill="rgb(33,131,128)" stroke="none" paint-order="stroke" d="M 443.8988037109375 183.09091186523438 L 444.8675277233124 183.09091186523438 L 444.8675277233124 498.9090881347656 L 443.8988037109375 498.9090881347656 L 443.8988037109375 183.09091186523438" fill-opacity="1" clip-path="url(#IghwPPMznReT)"/><path fill="rgb(33,131,128)" stroke="none" paint-order="stroke" d="M 447.446533203125 183.09091186523438 L 448.04719322919846 183.09091186523438 L 448.04719322919846 498.9090881347656 L 447.446533203125 498.9090881347656 L 447.446533203125 183.09091186523438" fill-opacity="1" clip-path="url(#IghwPPMznReT)"/><path fill="rgb(33,131,128)" stroke="none" paint-order="stroke" d="M 455.4110107421875 183.09091186523438 L 456.1548067331314 183.09091186523438 L 456.1548067331314 498.9090881347656 L 455.4110107421875 498.9090881347656 L 455.4110107421875 183.09091186523438" fill-opacity="1" clip-path="url(#IghwPPMznReT)"/><path fill="rgb(115,210,222)" stroke="none" paint-order="stroke" d="M 266.3092041015625 183.09091186523438 L 271.12087392807007 183.09091186523438 L 271.12087392807007 498.9090881347656 L 266.3092041015625 498.9090881347656 L 266.3092041015625 183.09091186523438" fill-opacity="1" clip-path="url(#xVVLCUOtBhdd)"/><path fill="rgb(115,210,222)" stroke="none" paint-order="stroke" d="M 386.36962890625 183.09091186523438 L 397.8882427215576 183.09091186523438 L 397.8882427215576 498.9090881347656 L 386.36962890625 498.9090881347656 L 386.36962890625 183.09091186523438" fill-opacity="1" clip-path="url(#xVVLCUOtBhdd)"/><path fill="rgb(115,210,222)" stroke="none" paint-order="stroke" d="M 446.12762451171875 183.09091186523438 L 446.52252650260925 183.09091186523438 L 446.52252650260925 498.9090881347656 L 446.12762451171875 498.9090881347656 L 446.12762451171875 183.09091186523438" fill-opacity="1" clip-path="url(#xVVLCUOtBhdd)"/><path fill="rgb(115,210,222)" stroke="none" paint-order="stroke" d="M 449.63446044921875 183.09091186523438 L 454.7426266670227 183.09091186523438 L 454.7426266670227 498.9090881347656 L 449.63446044921875 498.9090881347656 L 449.63446044921875 183.09091186523438" fill-opacity="1" clip-path="url(#xVVLCUOtBhdd)"/><path fill="rgb(28,49,68)" stroke="none" paint-order="stroke" d="M 237.25257873535156 183.09091186523438 L 239.16063272953033 183.09091186523438 L 239.16063272953033 498.9090881347656 L 237.25257873535156 498.9090881347656 L 237.25257873535156 183.09091186523438" fill-opacity="1" clip-path="url(#ZRDPEQnHNNUs)"/><path fill="rgb(28,49,68)" stroke="none" paint-order="stroke" d="M 243.3665313720703 183.09091186523438 L 246.2062473297119 183.09091186523438 L 246.2062473297119 498.9090881347656 L 243.3665313720703 498.9090881347656 L 243.3665313720703 183.09091186523438" fill-opacity="1" clip-path="url(#ZRDPEQnHNNUs)"/><path fill="rgb(28,49,68)" stroke="none" paint-order="stroke" d="M 257.83349609375 183.09091186523438 L 262.3588938713074 183.09091186523438 L 262.3588938713074 498.9090881347656 L 257.83349609375 498.9090881347656 L 257.83349609375 183.09091186523438" fill-opacity="1" clip-path="url(#ZRDPEQnHNNUs)"/><path fill="rgb(239,185,203)" stroke="none" paint-order="stroke" d="M 65.42803955078125 183.09091186523438 L 193.6459503173828 183.09091186523438 L 193.6459503173828 498.9090881347656 L 65.42803955078125 498.9090881347656 L 65.42803955078125 183.09091186523438" fill-opacity="1" clip-path="url(#vzcepTKAOHNl)"/><path fill="rgb(239,185,203)" stroke="none" paint-order="stroke" d="M 225.11541748046875 183.09091186523438 L 230.89069938659668 183.09091186523438 L 230.89069938659668 498.9090881347656 L 225.11541748046875 498.9090881347656 L 225.11541748046875 183.09091186523438" fill-opacity="1" clip-path="url(#vzcepTKAOHNl)"/><path fill="rgb(239,185,203)" stroke="none" paint-order="stroke" d="M 247.45358276367188 183.09091186523438 L 254.79441499710083 183.09091186523438 L 254.79441499710083 498.9090881347656 L 247.45358276367188 498.9090881347656 L 247.45358276367188 183.09091186523438" fill-opacity="1" clip-path="url(#vzcepTKAOHNl)"/><path fill="rgb(239,185,203)" stroke="none" paint-order="stroke" d="M 276.83734130859375 183.09091186523438 L 307.89785385131836 183.09091186523438 L 307.89785385131836 498.9090881347656 L 276.83734130859375 498.9090881347656 L 276.83734130859375 183.09091186523438" fill-opacity="1" clip-path="url(#vzcepTKAOHNl)"/><path fill="rgb(239,185,203)" stroke="none" paint-order="stroke" d="M 344.172607421875 183.09091186523438 L 383.504337310791 183.09091186523438 L 383.504337310791 498.9090881347656 L 344.172607421875 498.9090881347656 L 344.172607421875 183.09091186523438" fill-opacity="1" clip-path="url(#vzcepTKAOHNl)"/><path fill="rgb(239,185,203)" stroke="none" paint-order="stroke" d="M 404.8213806152344 183.09091186523438 L 441.46419525146484 183.09091186523438 L 441.46419525146484 498.9090881347656 L 404.8213806152344 498.9090881347656 L 404.8213806152344 183.09091186523438" fill-opacity="1" clip-path="url(#vzcepTKAOHNl)"/><path fill="rgb(239,185,203)" stroke="none" paint-order="stroke" d="M 465.1838684082031 183.09091186523438 L 489.7713108062744 183.09091186523438 L 489.7713108062744 498.9090881347656 L 465.1838684082031 498.9090881347656 L 465.1838684082031 183.09091186523438" fill-opacity="1" clip-path="url(#vzcepTKAOHNl)"/><path fill="rgb(105,29,48)" stroke="none" paint-order="stroke" d="M 202.32867431640625 183.09091186523438 L 220.61046409606934 183.09091186523438 L 220.61046409606934 498.9090881347656 L 202.32867431640625 498.9090881347656 L 202.32867431640625 183.09091186523438" fill-opacity="1" clip-path="url(#hsqPTOdWkblL)"/><path fill="rgb(105,29,48)" stroke="none" paint-order="stroke" d="M 315.19012451171875 183.09091186523438 L 315.3089785128832 183.09091186523438 L 315.3089785128832 498.9090881347656 L 315.19012451171875 498.9090881347656 L 315.19012451171875 183.09091186523438" fill-opacity="1" clip-path="url(#hsqPTOdWkblL)"/><path fill="rgb(105,29,48)" stroke="none" paint-order="stroke" d="M 315.77288818359375 183.09091186523438 L 315.90196618437767 183.09091186523438 L 315.90196618437767 498.9090881347656 L 315.77288818359375 498.9090881347656 L 315.77288818359375 183.09091186523438" fill-opacity="1" clip-path="url(#hsqPTOdWkblL)"/><path fill="rgb(105,29,48)" stroke="none" paint-order="stroke" d="M 316.1000671386719 183.09091186523438 L 316.19847314059734 183.09091186523438 L 316.19847314059734 498.9090881347656 L 316.1000671386719 498.9090881347656 L 316.1000671386719 183.09091186523438" fill-opacity="1" clip-path="url(#hsqPTOdWkblL)"/><path fill="rgb(105,29,48)" stroke="none" paint-order="stroke" d="M 316.3339538574219 183.09091186523438 L 316.42341385781765 183.09091186523438 L 316.42341385781765 498.9090881347656 L 316.3339538574219 498.9090881347656 L 316.3339538574219 183.09091186523438" fill-opacity="1" clip-path="url(#hsqPTOdWkblL)"/><path fill="rgb(105,29,48)" stroke="none" paint-order="stroke" d="M 316.52947998046875 183.09091186523438 L 316.6278859823942 183.09091186523438 L 316.6278859823942 498.9090881347656 L 316.52947998046875 498.9090881347656 L 316.52947998046875 183.09091186523438" fill-opacity="1" clip-path="url(#hsqPTOdWkblL)"/><path fill="rgb(105,29,48)" stroke="none" paint-order="stroke" d="M 317.3179931640625 183.09091186523438 L 322.35331296920776 183.09091186523438 L 322.35331296920776 498.9090881347656 L 317.3179931640625 498.9090881347656 L 317.3179931640625 183.09091186523438" fill-opacity="1" clip-path="url(#hsqPTOdWkblL)"/><path fill="rgb(105,29,48)" stroke="none" paint-order="stroke" d="M 325.8639831542969 183.09091186523438 L 325.9828371554613 183.09091186523438 L 325.9828371554613 498.9090881347656 L 325.8639831542969 498.9090881347656 L 325.8639831542969 183.09091186523438" fill-opacity="1" clip-path="url(#hsqPTOdWkblL)"/><path fill="rgb(105,29,48)" stroke="none" paint-order="stroke" d="M 326.9375 183.09091186523438 L 327.0665780007839 183.09091186523438 L 327.0665780007839 498.9090881347656 L 326.9375 498.9090881347656 L 326.9375 183.09091186523438" fill-opacity="1" clip-path="url(#hsqPTOdWkblL)"/><path fill="rgb(105,29,48)" stroke="none" paint-order="stroke" d="M 328.25640869140625 183.09091186523438 L 328.3752626925707 183.09091186523438 L 328.3752626925707 498.9090881347656 L 328.25640869140625 498.9090881347656 L 328.25640869140625 183.09091186523438" fill-opacity="1" clip-path="url(#hsqPTOdWkblL)"/><path fill="rgb(105,29,48)" stroke="none" paint-order="stroke" d="M 328.77783203125 183.09091186523438 L 328.89668603241444 183.09091186523438 L 328.89668603241444 498.9090881347656 L 328.77783203125 498.9090881347656 L 328.77783203125 183.09091186523438" fill-opacity="1" clip-path="url(#hsqPTOdWkblL)"/><path fill="rgb(105,29,48)" stroke="none" paint-order="stroke" d="M 329.1867980957031 183.09091186523438 L 329.336324095726 183.09091186523438 L 329.336324095726 498.9090881347656 L 329.1867980957031 498.9090881347656 L 329.1867980957031 183.09091186523438" fill-opacity="1" clip-path="url(#hsqPTOdWkblL)"/><path fill="rgb(105,29,48)" stroke="none" paint-order="stroke" d="M 329.7491149902344 183.09091186523438 L 329.8884169906378 183.09091186523438 L 329.8884169906378 498.9090881347656 L 329.7491149902344 498.9090881347656 L 329.7491149902344 183.09091186523438" fill-opacity="1" clip-path="url(#hsqPTOdWkblL)"/><path fill="rgb(105,29,48)" stroke="none" paint-order="stroke" d="M 331.7338562011719 183.09091186523438 L 331.8514322042465 183.09091186523438 L 331.8514322042465 498.9090881347656 L 331.7338562011719 498.9090881347656 L 331.7338562011719 183.09091186523438" fill-opacity="1" clip-path="url(#hsqPTOdWkblL)"/><path fill="rgb(105,29,48)" stroke="none" paint-order="stroke" d="M 337.8056335449219 183.09091186523438 L 337.89381554722786 183.09091186523438 L 337.89381554722786 498.9090881347656 L 337.8056335449219 498.9090881347656 L 337.8056335449219 183.09091186523438" fill-opacity="1" clip-path="url(#hsqPTOdWkblL)"/><path fill="rgb(255,188,66)" stroke="none" paint-order="stroke" d="M 233.99368286132812 498.9090881347656 L 493.4212951660156 498.9090881347656 L 493.4212951660156 551.5454521179199 L 233.99368286132812 551.5454521179199 L 233.99368286132812 498.9090881347656" fill-opacity="1" clip-path="url(#VoFuZqOITPAK)"/><path fill="rgb(143,45,86)" stroke="none" paint-order="stroke" d="M 58.5 551.5454711914062 L 223.00160217285156 551.5454711914062 L 223.00160217285156 604.1818351745605 L 58.5 604.1818351745605 L 58.5 551.5454711914062" fill-opacity="1" clip-path="url(#PkcsOtfEXHiJ)"/><path fill="rgb(63,136,197)" stroke="none" paint-order="stroke" d="M 223.00160217285156 551.5454711914062 L 256.6155586242676 551.5454711914062 L 256.6155586242676 604.1818351745605 L 223.00160217285156 604.1818351745605 L 223.00160217285156 551.5454711914062" fill-opacity="1" clip-path="url(#PkcsOtfEXHiJ)"/><path fill="rgb(81,60,99)" stroke="none" paint-order="stroke" d="M 256.6155700683594 551.5454711914062 L 493.4212951660156 551.5454711914062 L 493.4212951660156 604.1818351745605 L 256.6155700683594 604.1818351745605 L 256.6155700683594 551.5454711914062" fill-opacity="1" clip-path="url(#PkcsOtfEXHiJ)"/><path fill="none" stroke="rgb(0,0,0)" paint-order="fill" d="M 58.5 77.81818389892578 L 493.4212951660156 77.81818389892578 L 493.4212951660156 604.1818313598633 L 58.5 604.1818313598633 L 58.5 77.81818389892578" stroke-opacity="1" stroke-linejoin="bevel" stroke-miterlimit="10" stroke-dasharray="" clip-path="url(#iURpkpJbJnOH)"/><path fill="none" stroke="rgb(0,0,0)" paint-order="fill" d="M 58.5 630.5 L 1336.5 630.5" stroke-opacity="1" stroke-linejoin="bevel" stroke-miterlimit="10" stroke-dasharray=""/><path fill="none" stroke="rgb(0,0,0)" paint-order="fill" d="M 58.5 636.5 L 58.5 628.5 M 314.5 636.5 L 314.5 628.5 M 569.5 636.5 L 569.5 628.5 M 825.5 636.5 L 825.5 628.5 M 1080.5 636.5 L 1080.5 628.5 M 1336.5 636.5 L 1336.5 628.5" stroke-opacity="1" stroke-linejoin="bevel" stroke-miterlimit="10" stroke-dasharray=""/><path fill="none" stroke="rgb(0,0,0)" paint-order="fill" d="M 58.5 634.5 L 58.5 630.5 M 109.5 634.5 L 109.5 630.5 M 160.5 634.5 L 160.5 630.5 M 211.5 634.5 L 211.5 630.5 M 262.5 634.5 L 262.5 630.5 M 314.5 634.5 L 314.5 630.5 M 365.5 634.5 L 365.5 630.5 M 416.5 634.5 L 416.5 630.5 M 467.5 634.5 L 467.5 630.5 M 518.5 634.5 L 518.5 630.5 M 569.5 634.5 L 569.5 630.5 M 620.5 634.5 L 620.5 630.5 M 671.5 634.5 L 671.5 630.5 M 723.5 634.5 L 723.5 630.5 M 774.5 634.5 L 774.5 630.5 M 825.5 634.5 L 825.5 630.5 M 876.5 634.5 L 876.5 630.5 M 927.5 634.5 L 927.5 630.5 M 978.5 634.5 L 978.5 630.5 M 1029.5 634.5 L 1029.5 630.5 M 1080.5 634.5 L 1080.5 630.5 M 1132.5 634.5 L 1132.5 630.5 M 1183.5 634.5 L 1183.5 630.5 M 1234.5 634.5 L 1234.5 630.5 M 1285.5 634.5 L 1285.5 630.5 M 1336.5 634.5 L 1336.5 630.5" stroke-opacity="1" stroke-linejoin="bevel" stroke-miterlimit="10" stroke-dasharray=""/><text fill="rgb(68,68,68)" stroke="none" font-family="helvetica" font-size="11px" font-style="normal" font-weight="normal" text-decoration="normal" x="54.94166660308838" y="648.89013671875" text-anchor="start" dominant-baseline="alphabetic" transform="matrix(1, 0, 0, 1, 0.5, 0.5)" fill-opacity="1">0</text><text fill="rgb(68,68,68)" stroke="none" font-family="helvetica" font-size="11px" font-style="normal" font-weight="normal" text-decoration="normal" x="304.42500591278076" y="648.89013671875" text-anchor="start" dominant-baseline="alphabetic" transform="matrix(1, 0, 0, 1, 0.5, 0.5)" fill-opacity="1">200</text><text fill="rgb(68,68,68)" stroke="none" font-family="helvetica" font-size="11px" font-style="normal" font-weight="normal" text-decoration="normal" x="560.0250120162964" y="648.89013671875" text-anchor="start" dominant-baseline="alphabetic" transform="matrix(1, 0, 0, 1, 0.5, 0.5)" fill-opacity="1">400</text><text fill="rgb(68,68,68)" stroke="none" font-family="helvetica" font-size="11px" font-style="normal" font-weight="normal" text-decoration="normal" x="815.6249876022339" y="648.89013671875" text-anchor="start" dominant-baseline="alphabetic" transform="matrix(1, 0, 0, 1, 0.5, 0.5)" fill-opacity="1">600</text><text fill="rgb(68,68,68)" stroke="none" font-family="helvetica" font-size="11px" font-style="normal" font-weight="normal" text-decoration="normal" x="1071.2250242233276" y="648.89013671875" text-anchor="start" dominant-baseline="alphabetic" transform="matrix(1, 0, 0, 1, 0.5, 0.5)" fill-opacity="1">800</text><text fill="rgb(68,68,68)" stroke="none" font-family="helvetica" font-size="11px" font-style="normal" font-weight="normal" text-decoration="normal" x="1323.7666664123535" y="648.89013671875" text-anchor="start" dominant-baseline="alphabetic" transform="matrix(1, 0, 0, 1, 0.5, 0.5)" fill-opacity="1">1000</text><text fill="rgb(68,68,68)" stroke="none" font-family="helvetica" font-size="15pt" font-style="italic" font-weight="normal" text-decoration="normal" x="666.4416675567627" y="676.06982421875" text-anchor="start" dominant-baseline="alphabetic" transform="matrix(1, 0, 0, 1, 0.5, 0.5)" fill-opacity="1">time(s)</text><path fill="none" stroke="rgb(0,0,0)" paint-order="fill" d="M 58.5 630.5 L 58.5 51.5" stroke-opacity="1" stroke-linejoin="bevel" stroke-miterlimit="10" stroke-dasharray=""/><path fill="none" stroke="rgb(0,0,0)" paint-order="fill" d="M 52.5 551.5 L 60.5 551.5 M 52.5 446.5 L 60.5 446.5 M 52.5 341.5 L 60.5 341.5 M 52.5 235.5 L 60.5 235.5 M 52.5 130.5 L 60.5 130.5" stroke-opacity="1" stroke-linejoin="bevel" stroke-miterlimit="10" stroke-dasharray=""/><path fill="none" stroke="rgb(0,0,0)" paint-order="fill" d="M 54.5 572.5 L 58.5 572.5 M 54.5 593.5 L 58.5 593.5 M 54.5 614.5 L 58.5 614.5 M 54.5 551.5 L 58.5 551.5 M 54.5 530.5 L 58.5 530.5 M 54.5 509.5 L 58.5 509.5 M 54.5 488.5 L 58.5 488.5 M 54.5 467.5 L 58.5 467.5 M 54.5 446.5 L 58.5 446.5 M 54.5 425.5 L 58.5 425.5 M 54.5 404.5 L 58.5 404.5 M 54.5 383.5 L 58.5 383.5 M 54.5 362.5 L 58.5 362.5 M 54.5 341.5 L 58.5 341.5 M 54.5 319.5 L 58.5 319.5 M 54.5 298.5 L 58.5 298.5 M 54.5 277.5 L 58.5 277.5 M 54.5 256.5 L 58.5 256.5 M 54.5 235.5 L 58.5 235.5 M 54.5 214.5 L 58.5 214.5 M 54.5 193.5 L 58.5 193.5 M 54.5 172.5 L 58.5 172.5 M 54.5 151.5 L 58.5 151.5 M 54.5 130.5 L 58.5 130.5 M 54.5 109.5 L 58.5 109.5 M 54.5 88.5 L 58.5 88.5 M 54.5 67.5 L 58.5 67.5" stroke-opacity="1" stroke-linejoin="bevel" stroke-miterlimit="10" stroke-dasharray=""/><text fill="rgb(68,68,68)" stroke="none" font-family="helvetica" font-size="11px" font-style="normal" font-weight="normal" text-decoration="normal" x="34.46666622161865" y="554.9905395507812" text-anchor="start" dominant-baseline="alphabetic" transform="matrix(1, 0, 0, 1, 0.5, 0.5)" fill-opacity="1">2</text><text fill="rgb(68,68,68)" stroke="none" font-family="helvetica" font-size="11px" font-style="normal" font-weight="normal" text-decoration="normal" x="34.46666622161865" y="449.7178039550781" text-anchor="start" dominant-baseline="alphabetic" transform="matrix(1, 0, 0, 1, 0.5, 0.5)" fill-opacity="1">1</text><text fill="rgb(68,68,68)" stroke="none" font-family="helvetica" font-size="11px" font-style="normal" font-weight="normal" text-decoration="normal" x="40.88333320617676" y="344.445068359375" text-anchor="start" dominant-baseline="alphabetic" transform="matrix(1, 0, 0, 1, 0.5, 0.5)" fill-opacity="1">0</text><text fill="rgb(68,68,68)" stroke="none" font-family="helvetica" font-size="11px" font-style="normal" font-weight="normal" text-decoration="normal" x="40.88333320617676" y="239.17234802246094" text-anchor="start" dominant-baseline="alphabetic" transform="matrix(1, 0, 0, 1, 0.5, 0.5)" fill-opacity="1">1</text><text fill="rgb(68,68,68)" stroke="none" font-family="helvetica" font-size="11px" font-style="normal" font-weight="normal" text-decoration="normal" x="40.88333320617676" y="133.8996124267578" text-anchor="start" dominant-baseline="alphabetic" transform="matrix(1, 0, 0, 1, 0.5, 0.5)" fill-opacity="1">2</text><text fill="rgb(68,68,68)" stroke="none" font-family="helvetica" font-size="15pt" font-style="italic" font-weight="normal" text-decoration="normal" x="-11.316666603088379" y="336.076171875" text-anchor="start" dominant-baseline="alphabetic" transform="matrix(6.123233995736766e-17, -1, 1, 6.123233995736766e-17, -313.53333377838135, 367.46666622161865)" fill-opacity="1">students</text><path fill="rgb(255,255,255)" stroke="rgb(229,229,229)" paint-order="fill" d="M 1128.2333374023438 61.5 L 1326.5 61.5 L 1326.5 400.5 L 1128.2333374023438 400.5 L 1128.2333374023438 61.5" fill-opacity="0.9490196078431372" clip-path="url(#fwMnqwrHOWhn)" stroke-opacity="0.5019607843137255" stroke-linejoin="bevel" stroke-miterlimit="10" stroke-dasharray=""/><g clip-path="url(#fwMnqwrHOWhn)"><text fill="rgb(68,68,68)" stroke="none" font-family="helvetica" font-size="13px" font-style="normal" font-weight="normal" text-decoration="normal" x="1162.7333374023438" y="81" text-anchor="start" dominant-baseline="central" transform="matrix(1, 0, 0, 1, 0.5, 0.5)" fill-opacity="1">wavelength</text></g><path fill="rgb(0,255,40)" stroke="none" paint-order="stroke" d="M 1140.2333374023438 73.5 L 1156.2333374023438 73.5 L 1156.2333374023438 89.5 L 1140.2333374023438 89.5 L 1140.2333374023438 73.5" fill-opacity="1" clip-path="url(#fwMnqwrHOWhn)"/><path fill="rgb(216,17,89)" stroke="none" paint-order="stroke" d="M 1140.2333374023438 73.5 L 1156.2333374023438 73.5 L 1156.2333374023438 89.5 L 1140.2333374023438 89.5 L 1140.2333374023438 73.5" fill-opacity="1" clip-path="url(#fwMnqwrHOWhn)"/><g clip-path="url(#fwMnqwrHOWhn)"><text fill="rgb(68,68,68)" stroke="none" font-family="helvetica" font-size="13px" font-style="normal" font-weight="normal" text-decoration="normal" x="1162.7333374023438" y="104" text-anchor="start" dominant-baseline="central" transform="matrix(1, 0, 0, 1, 0.5, 0.5)" fill-opacity="1">solution</text></g><path fill="rgb(251,0,7)" stroke="none" paint-order="stroke" d="M 1140.2333374023438 96.5 L 1156.2333374023438 96.5 L 1156.2333374023438 112.5 L 1140.2333374023438 112.5 L 1140.2333374023438 96.5" fill-opacity="1" clip-path="url(#fwMnqwrHOWhn)"/><path fill="rgb(33,131,128)" stroke="none" paint-order="stroke" d="M 1140.2333374023438 96.5 L 1156.2333374023438 96.5 L 1156.2333374023438 112.5 L 1140.2333374023438 112.5 L 1140.2333374023438 96.5" fill-opacity="1" clip-path="url(#fwMnqwrHOWhn)"/><g clip-path="url(#fwMnqwrHOWhn)"><text fill="rgb(68,68,68)" stroke="none" font-family="helvetica" font-size="13px" font-style="normal" font-weight="normal" text-decoration="normal" x="1162.7333374023438" y="127" text-anchor="start" dominant-baseline="central" transform="matrix(1, 0, 0, 1, 0.5, 0.5)" fill-opacity="1">laser</text></g><path fill="rgb(105,29,48)" stroke="none" paint-order="stroke" d="M 1140.2333374023438 119.5 L 1156.2333374023438 119.5 L 1156.2333374023438 135.5 L 1140.2333374023438 135.5 L 1140.2333374023438 119.5" fill-opacity="1" clip-path="url(#fwMnqwrHOWhn)"/><g clip-path="url(#fwMnqwrHOWhn)"><text fill="rgb(68,68,68)" stroke="none" font-family="helvetica" font-size="13px" font-style="normal" font-weight="normal" text-decoration="normal" x="1162.7333374023438" y="150" text-anchor="start" dominant-baseline="central" transform="matrix(1, 0, 0, 1, 0.5, 0.5)" fill-opacity="1">ruler</text></g><path fill="rgb(255,188,66)" stroke="none" paint-order="stroke" d="M 1140.2333374023438 142.5 L 1156.2333374023438 142.5 L 1156.2333374023438 158.5 L 1140.2333374023438 158.5 L 1140.2333374023438 142.5" fill-opacity="1" clip-path="url(#fwMnqwrHOWhn)"/><g clip-path="url(#fwMnqwrHOWhn)"><text fill="rgb(68,68,68)" stroke="none" font-family="helvetica" font-size="13px" font-style="normal" font-weight="normal" text-decoration="normal" x="1162.7333374023438" y="173" text-anchor="start" dominant-baseline="central" transform="matrix(1, 0, 0, 1, 0.5, 0.5)" fill-opacity="1">restarts</text></g><g clip-path="url(#fwMnqwrHOWhn)"><text fill="rgb(68,68,68)" stroke="none" font-family="helvetica" font-size="13px" font-style="normal" font-weight="normal" text-decoration="normal" x="1162.7333374023438" y="196" text-anchor="start" dominant-baseline="central" transform="matrix(1, 0, 0, 1, 0.5, 0.5)" fill-opacity="1">transmittance_absorbance</text></g><path fill="rgb(162,174,187)" stroke="none" paint-order="stroke" d="M 1140.2333374023438 188.5 L 1156.2333374023438 188.5 L 1156.2333374023438 204.5 L 1140.2333374023438 204.5 L 1140.2333374023438 188.5" fill-opacity="1" clip-path="url(#fwMnqwrHOWhn)"/><g clip-path="url(#fwMnqwrHOWhn)"><text fill="rgb(68,68,68)" stroke="none" font-family="helvetica" font-size="13px" font-style="normal" font-weight="normal" text-decoration="normal" x="1162.7333374023438" y="219" text-anchor="start" dominant-baseline="central" transform="matrix(1, 0, 0, 1, 0.5, 0.5)" fill-opacity="1">magnifier</text></g><g clip-path="url(#fwMnqwrHOWhn)"><text fill="rgb(68,68,68)" stroke="none" font-family="helvetica" font-size="13px" font-style="normal" font-weight="normal" text-decoration="normal" x="1162.7333374023438" y="242" text-anchor="start" dominant-baseline="central" transform="matrix(1, 0, 0, 1, 0.5, 0.5)" fill-opacity="1">concentration</text></g><path fill="rgb(115,210,222)" stroke="none" paint-order="stroke" d="M 1140.2333374023438 234.5 L 1156.2333374023438 234.5 L 1156.2333374023438 250.5 L 1140.2333374023438 250.5 L 1140.2333374023438 234.5" fill-opacity="1" clip-path="url(#fwMnqwrHOWhn)"/><g clip-path="url(#fwMnqwrHOWhn)"><text fill="rgb(68,68,68)" stroke="none" font-family="helvetica" font-size="13px" font-style="normal" font-weight="normal" text-decoration="normal" x="1162.7333374023438" y="265" text-anchor="start" dominant-baseline="central" transform="matrix(1, 0, 0, 1, 0.5, 0.5)" fill-opacity="1">flask</text></g><path fill="rgb(28,49,68)" stroke="none" paint-order="stroke" d="M 1140.2333374023438 257.5 L 1156.2333374023438 257.5 L 1156.2333374023438 273.5 L 1140.2333374023438 273.5 L 1140.2333374023438 257.5" fill-opacity="1" clip-path="url(#fwMnqwrHOWhn)"/><g clip-path="url(#fwMnqwrHOWhn)"><text fill="rgb(68,68,68)" stroke="none" font-family="helvetica" font-size="13px" font-style="normal" font-weight="normal" text-decoration="normal" x="1162.7333374023438" y="288" text-anchor="start" dominant-baseline="central" transform="matrix(1, 0, 0, 1, 0.5, 0.5)" fill-opacity="1">pdf</text></g><path fill="rgb(239,185,203)" stroke="none" paint-order="stroke" d="M 1140.2333374023438 280.5 L 1156.2333374023438 280.5 L 1156.2333374023438 296.5 L 1140.2333374023438 296.5 L 1140.2333374023438 280.5" fill-opacity="1" clip-path="url(#fwMnqwrHOWhn)"/><g clip-path="url(#fwMnqwrHOWhn)"><text fill="rgb(68,68,68)" stroke="none" font-family="helvetica" font-size="13px" font-style="normal" font-weight="normal" text-decoration="normal" x="1162.7333374023438" y="311" text-anchor="start" dominant-baseline="central" transform="matrix(1, 0, 0, 1, 0.5, 0.5)" fill-opacity="1">concentrationlab</text></g><g clip-path="url(#fwMnqwrHOWhn)"><text fill="rgb(68,68,68)" stroke="none" font-family="helvetica" font-size="13px" font-style="normal" font-weight="normal" text-decoration="normal" x="1162.7333374023438" y="334" text-anchor="start" dominant-baseline="central" transform="matrix(1, 0, 0, 1, 0.5, 0.5)" fill-opacity="1">wavelength_slider</text></g><path fill="rgb(105,29,48)" stroke="none" paint-order="stroke" d="M 1140.2333374023438 326.5 L 1156.2333374023438 326.5 L 1156.2333374023438 342.5 L 1140.2333374023438 342.5 L 1140.2333374023438 326.5" fill-opacity="1" clip-path="url(#fwMnqwrHOWhn)"/><g clip-path="url(#fwMnqwrHOWhn)"><text fill="rgb(68,68,68)" stroke="none" font-family="helvetica" font-size="13px" font-style="normal" font-weight="normal" text-decoration="normal" x="1162.7333374023438" y="357" text-anchor="start" dominant-baseline="central" transform="matrix(1, 0, 0, 1, 0.5, 0.5)" fill-opacity="1">ruler measuring</text></g><path fill="rgb(255,188,66)" stroke="none" paint-order="stroke" d="M 1140.2333374023438 349.5 L 1156.2333374023438 349.5 L 1156.2333374023438 365.5 L 1140.2333374023438 365.5 L 1140.2333374023438 349.5" fill-opacity="1" clip-path="url(#fwMnqwrHOWhn)"/><g clip-path="url(#fwMnqwrHOWhn)"><text fill="rgb(68,68,68)" stroke="none" font-family="helvetica" font-size="13px" font-style="normal" font-weight="normal" text-decoration="normal" x="1162.7333374023438" y="380" text-anchor="start" dominant-baseline="central" transform="matrix(1, 0, 0, 1, 0.5, 0.5)" fill-opacity="1">dependent variable</text></g><path fill="rgb(143,45,86)" stroke="none" paint-order="stroke" d="M 1140.2333374023438 372.5 L 1156.2333374023438 372.5 L 1156.2333374023438 388.5 L 1140.2333374023438 388.5 L 1140.2333374023438 372.5" fill-opacity="1" clip-path="url(#fwMnqwrHOWhn)"/><text fill="rgb(68,68,68)" stroke="none" font-family="helvetica" font-size="25pt" font-style="normal" font-weight="bold" text-decoration="normal" x="58" y="38.740885416666664" text-anchor="start" dominant-baseline="alphabetic" transform="matrix(1, 0, 0, 1, 0.5, 0.5)" fill-opacity="1">Timeline for student 22wyn9xy with permutation 3210 for task 2</text></svg>