<svg version="1.1" xmlns="http://www.w3.org/2000/svg" width="1366" height="683"><defs><clipPath id="HtcXOOGGMXQh"><path fill="none" stroke="none" d="M 58.5 51.5 L 1336.5 51.5 L 1336.5 630.5 L 58.5 630.5 L 58.5 51.5"/></clipPath><clipPath id="QJIFHIHkuyOT"><path fill="none" stroke="none" d="M 58.5 51.5 L 1336.5 51.5 L 1336.5 630.5 L 58.5 630.5 L 58.5 51.5"/></clipPath><clipPath id="surORphzdpke"><path fill="none" stroke="none" d="M 58.5 51.5 L 1336.5 51.5 L 1336.5 630.5 L 58.5 630.5 L 58.5 51.5"/></clipPath><clipPath id="FADZpoOvgoxO"><path fill="none" stroke="none" d="M 58.5 51.5 L 1336.5 51.5 L 1336.5 630.5 L 58.5 630.5 L 58.5 51.5"/></clipPath><clipPath id="ZuhTDxwgHTki"><path fill="none" stroke="none" d="M 58.5 51.5 L 1336.5 51.5 L 1336.5 630.5 L 58.5 630.5 L 58.5 51.5"/></clipPath><clipPath id="CGtXcuUaPHVm"><path fill="none" stroke="none" d="M 58.5 51.5 L 1336.5 51.5 L 1336.5 630.5 L 58.5 630.5 L 58.5 51.5"/></clipPath><clipPath id="yaEMAXsHfORw"><path fill="none" stroke="none" d="M 58.5 51.5 L 1336.5 51.5 L 1336.5 630.5 L 58.5 630.5 L 58.5 51.5"/></clipPath><clipPath id="TQuDakrnwAiw"><path fill="none" stroke="none" d="M 58.5 51.5 L 1336.5 51.5 L 1336.5 630.5 L 58.5 630.5 L 58.5 51.5"/></clipPath><clipPath id="rCvFclpVedNW"><path fill="none" stroke="none" d="M 58.5 51.5 L 1336.5 51.5 L 1336.5 630.5 L 58.5 630.5 L 58.5 51.5"/></clipPath><clipPath id="qTxpxxcfXLJi"><path fill="none" stroke="none" d="M 58.5 51.5 L 1336.5 51.5 L 1336.5 630.5 L 58.5 630.5 L 58.5 51.5"/></clipPath><clipPath id="ZmhTKzFcBIfh"><path fill="none" stroke="none" d="M 58.5 51.5 L 1336.5 51.5 L 1336.5 630.5 L 58.5 630.5 L 58.5 51.5"/></clipPath><clipPath id="IkRwlpypuqJP"><path fill="none" stroke="none" d="M 58.5 51.5 L 1336.5 51.5 L 1336.5 630.5 L 58.5 630.5 L 58.5 51.5"/></clipPath><clipPath id="qdKqKIZOCLWc"><path fill="none" stroke="none" d="M 58.5 51.5 L 1336.5 51.5 L 1336.5 630.5 L 58.5 630.5 L 58.5 51.5"/></clipPath><clipPath id="hzxoVLCFmccA"><path fill="none" stroke="none" d="M 58.5 51.5 L 1336.5 51.5 L 1336.5 630.5 L 58.5 630.5 L 58.5 51.5"/></clipPath><clipPath id="BttLbwekJumU"><path fill="none" stroke="none" d="M 58.5 51.5 L 1336.5 51.5 L 1336.5 630.5 L 58.5 630.5 L 58.5 51.5"/></clipPath><clipPath id="kDttfdBawwga"><path fill="none" stroke="none" d="M 58.5 51.5 L 1336.5 51.5 L 1336.5 630.5 L 58.5 630.5 L 58.5 51.5"/></clipPath><clipPath id="lyVuATDWONAI"><path fill="none" stroke="none" d="M 58.5 51.5 L 1336.5 51.5 L 1336.5 630.5 L 58.5 630.5 L 58.5 51.5"/></clipPath><clipPath id="mUekBoaSHLeq"><path fill="none" stroke="none" d="M 58.5 51.5 L 1336.5 51.5 L 1336.5 630.5 L 58.5 630.5 L 58.5 51.5"/></clipPath><clipPath id="xPGZklMwEQuf"><path fill="none" stroke="none" d="M 58.5 51.5 L 1336.5 51.5 L 1336.5 630.5 L 58.5 630.5 L 58.5 51.5"/></clipPath><clipPath id="rNQnUWVBeJUZ"><path fill="none" stroke="none" d="M 58.5 51.5 L 1336.5 51.5 L 1336.5 630.5 L 58.5 630.5 L 58.5 51.5"/></clipPath><clipPath id="SWZhFhwbcVxl"><path fill="none" stroke="none" d="M 58.5 51.5 L 1336.5 51.5 L 1336.5 630.5 L 58.5 630.5 L 58.5 51.5"/></clipPath></defs><path fill="rgb(255,255,255)" stroke="none" paint-order="stroke" d="M 0.5 0.5 L 1366.5 0.5 L 1366.5 683.5 L 0.5 683.5 L 0.5 0.5" fill-opacity="1"/><rect fill="#FFFFFF" stroke="none" x="58" y="51" width="1278" height="579" transform="matrix(1, 0, 0, 1, 0.5, 0.5)"/><path fill="rgb(255,255,255)" stroke="none" paint-order="stroke" d="M 58.5 51.5 L 1336.5 51.5 L 1336.5 630.5 L 58.5 630.5 L 58.5 51.5" fill-opacity="1"/><path fill="none" stroke="rgb(229,229,229)" paint-order="fill" d="M 58.5 51.5 L 1336.5 51.5 L 1336.5 630.5 L 58.5 630.5 L 58.5 51.5" stroke-opacity="1" stroke-linejoin="bevel" stroke-miterlimit="10" stroke-dasharray=""/><path fill="none" stroke="rgb(229,229,229)" paint-order="fill" d="M 314.5 630.5 L 314.5 51.5 M 569.5 630.5 L 569.5 51.5 M 825.5 630.5 L 825.5 51.5 M 1080.5 630.5 L 1080.5 51.5" stroke-opacity="1" stroke-linejoin="bevel" stroke-miterlimit="10" stroke-dasharray="" clip-path="url(#HtcXOOGGMXQh)"/><path fill="none" stroke="rgb(229,229,229)" paint-order="fill" d="M 58.5 551.5 L 1336.5 551.5 M 58.5 446.5 L 1336.5 446.5 M 58.5 341.5 L 1336.5 341.5 M 58.5 235.5 L 1336.5 235.5 M 58.5 130.5 L 1336.5 130.5" stroke-opacity="1" stroke-linejoin="bevel" stroke-miterlimit="10" stroke-dasharray="" clip-path="url(#QJIFHIHkuyOT)"/><path fill="rgb(0,255,40)" stroke="none" paint-order="stroke" d="M 58.5 77.81818389892578 L 92.16763305664062 77.81818389892578 L 92.16763305664062 130.45454788208008 L 58.5 130.45454788208008 L 58.5 77.81818389892578" fill-opacity="1" clip-path="url(#surORphzdpke)"/><path fill="rgb(8,255,0)" stroke="none" paint-order="stroke" d="M 92.16763305664062 77.81818389892578 L 92.3427190631628 77.81818389892578 L 92.3427190631628 130.45454788208008 L 92.16763305664062 130.45454788208008 L 92.16763305664062 77.81818389892578" fill-opacity="1" clip-path="url(#surORphzdpke)"/><path fill="rgb(30,255,0)" stroke="none" paint-order="stroke" d="M 92.34272003173828 77.81818389892578 L 92.39511803165078 77.81818389892578 L 92.39511803165078 130.45454788208008 L 92.34272003173828 130.45454788208008 L 92.34272003173828 77.81818389892578" fill-opacity="1" clip-path="url(#surORphzdpke)"/><path fill="rgb(44,255,0)" stroke="none" paint-order="stroke" d="M 92.3951187133789 77.81818389892578 L 92.41684471257031 77.81818389892578 L 92.41684471257031 130.45454788208008 L 92.3951187133789 130.45454788208008 L 92.3951187133789 77.81818389892578" fill-opacity="1" clip-path="url(#surORphzdpke)"/><path fill="rgb(62,255,0)" stroke="none" paint-order="stroke" d="M 92.41683959960938 77.81818389892578 L 92.42450759978965 77.81818389892578 L 92.42450759978965 130.45454788208008 L 92.41683959960938 130.45454788208008 L 92.41683959960938 77.81818389892578" fill-opacity="1" clip-path="url(#surORphzdpke)"/><path fill="rgb(74,255,0)" stroke="none" paint-order="stroke" d="M 92.42450714111328 77.81818389892578 L 92.45645714178681 77.81818389892578 L 92.45645714178681 130.45454788208008 L 92.42450714111328 130.45454788208008 L 92.42450714111328 77.81818389892578" fill-opacity="1" clip-path="url(#surORphzdpke)"/><path fill="rgb(89,255,0)" stroke="none" paint-order="stroke" d="M 92.45645904541016 77.81818389892578 L 92.87947705388069 77.81818389892578 L 92.87947705388069 130.45454788208008 L 92.45645904541016 130.45454788208008 L 92.45645904541016 77.81818389892578" fill-opacity="1" clip-path="url(#surORphzdpke)"/><path fill="rgb(74,255,0)" stroke="none" paint-order="stroke" d="M 92.87947845458984 77.81818389892578 L 93.37534245848656 77.81818389892578 L 93.37534245848656 130.45454788208008 L 92.87947845458984 130.45454788208008 L 92.87947845458984 77.81818389892578" fill-opacity="1" clip-path="url(#surORphzdpke)"/><path fill="rgb(62,255,0)" stroke="none" paint-order="stroke" d="M 93.3753433227539 77.81818389892578 L 94.70829737186432 77.81818389892578 L 94.70829737186432 130.45454788208008 L 93.3753433227539 130.45454788208008 L 93.3753433227539 77.81818389892578" fill-opacity="1" clip-path="url(#surORphzdpke)"/><path fill="rgb(44,255,0)" stroke="none" paint-order="stroke" d="M 94.70829772949219 77.81818389892578 L 95.52366173267365 77.81818389892578 L 95.52366173267365 130.45454788208008 L 94.70829772949219 130.45454788208008 L 94.70829772949219 77.81818389892578" fill-opacity="1" clip-path="url(#surORphzdpke)"/><path fill="rgb(62,255,0)" stroke="none" paint-order="stroke" d="M 95.5236587524414 77.81818389892578 L 96.22655874490738 77.81818389892578 L 96.22655874490738 130.45454788208008 L 95.5236587524414 130.45454788208008 L 95.5236587524414 77.81818389892578" fill-opacity="1" clip-path="url(#surORphzdpke)"/><path fill="rgb(44,255,0)" stroke="none" paint-order="stroke" d="M 96.2265625 77.81818389892578 L 97.95953047275543 77.81818389892578 L 97.95953047275543 130.45454788208008 L 96.2265625 130.45454788208008 L 96.2265625 77.81818389892578" fill-opacity="1" clip-path="url(#surORphzdpke)"/><path fill="rgb(62,255,0)" stroke="none" paint-order="stroke" d="M 97.95952606201172 77.81818389892578 L 142.19366073608398 77.81818389892578 L 142.19366073608398 130.45454788208008 L 97.95952606201172 130.45454788208008 L 97.95952606201172 77.81818389892578" fill-opacity="1" clip-path="url(#surORphzdpke)"/><path fill="rgb(42,0,238)" stroke="none" paint-order="stroke" d="M 142.19366455078125 77.81818389892578 L 145.6826045513153 77.81818389892578 L 145.6826045513153 130.45454788208008 L 142.19366455078125 130.45454788208008 L 142.19366455078125 77.81818389892578" fill-opacity="1" clip-path="url(#surORphzdpke)"/><path fill="rgb(38,0,240)" stroke="none" paint-order="stroke" d="M 145.68260192871094 77.81818389892578 L 145.70432792790234 77.81818389892578 L 145.70432792790234 130.45454788208008 L 145.68260192871094 130.45454788208008 L 145.68260192871094 77.81818389892578" fill-opacity="1" clip-path="url(#surORphzdpke)"/><path fill="rgb(22,0,247)" stroke="none" paint-order="stroke" d="M 145.70433044433594 77.81818389892578 L 145.76439644396305 77.81818389892578 L 145.76439644396305 130.45454788208008 L 145.70433044433594 130.45454788208008 L 145.70433044433594 77.81818389892578" fill-opacity="1" clip-path="url(#surORphzdpke)"/><path fill="rgb(0,11,255)" stroke="none" paint-order="stroke" d="M 145.76438903808594 77.81818389892578 L 145.87940903753042 77.81818389892578 L 145.87940903753042 130.45454788208008 L 145.76438903808594 130.45454788208008 L 145.76438903808594 77.81818389892578" fill-opacity="1" clip-path="url(#surORphzdpke)"/><path fill="rgb(0,40,255)" stroke="none" paint-order="stroke" d="M 145.87940979003906 77.81818389892578 L 145.92158379033208 77.81818389892578 L 145.92158379033208 130.45454788208008 L 145.87940979003906 130.45454788208008 L 145.87940979003906 77.81818389892578" fill-opacity="1" clip-path="url(#surORphzdpke)"/><path fill="rgb(0,58,255)" stroke="none" paint-order="stroke" d="M 145.9215850830078 77.81818389892578 L 145.95097908377647 77.81818389892578 L 145.95097908377647 130.45454788208008 L 145.9215850830078 130.45454788208008 L 145.9215850830078 77.81818389892578" fill-opacity="1" clip-path="url(#surORphzdpke)"/><path fill="rgb(0,81,255)" stroke="none" paint-order="stroke" d="M 145.95098876953125 77.81818389892578 L 145.98293877020478 77.81818389892578 L 145.98293877020478 130.45454788208008 L 145.95098876953125 130.45454788208008 L 145.95098876953125 77.81818389892578" fill-opacity="1" clip-path="url(#surORphzdpke)"/><path fill="rgb(0,97,255)" stroke="none" paint-order="stroke" d="M 145.98294067382812 77.81818389892578 L 146.0033886730671 77.81818389892578 L 146.0033886730671 130.45454788208008 L 145.98294067382812 130.45454788208008 L 145.98294067382812 77.81818389892578" fill-opacity="1" clip-path="url(#surORphzdpke)"/><path fill="rgb(0,117,255)" stroke="none" paint-order="stroke" d="M 146.00338745117188 77.81818389892578 L 146.03405945189297 77.81818389892578 L 146.03405945189297 130.45454788208008 L 146.00338745117188 130.45454788208008 L 146.00338745117188 77.81818389892578" fill-opacity="1" clip-path="url(#surORphzdpke)"/><path fill="rgb(0,132,255)" stroke="none" paint-order="stroke" d="M 146.0340576171875 77.81818389892578 L 146.0647296179086 77.81818389892578 L 146.0647296179086 130.45454788208008 L 146.0340576171875 130.45454788208008 L 146.0340576171875 77.81818389892578" fill-opacity="1" clip-path="url(#surORphzdpke)"/><path fill="rgb(0,151,255)" stroke="none" paint-order="stroke" d="M 146.06472778320312 77.81818389892578 L 146.37400379776955 77.81818389892578 L 146.37400379776955 130.45454788208008 L 146.06472778320312 130.45454788208008 L 146.06472778320312 77.81818389892578" fill-opacity="1" clip-path="url(#surORphzdpke)"/><path fill="rgb(0,169,255)" stroke="none" paint-order="stroke" d="M 146.37400817871094 77.81818389892578 L 146.41618217900395 77.81818389892578 L 146.41618217900395 130.45454788208008 L 146.37400817871094 130.45454788208008 L 146.37400817871094 77.81818389892578" fill-opacity="1" clip-path="url(#surORphzdpke)"/><path fill="rgb(0,182,255)" stroke="none" paint-order="stroke" d="M 146.4161834716797 77.81818389892578 L 146.44046547077596 77.81818389892578 L 146.44046547077596 130.45454788208008 L 146.4161834716797 130.45454788208008 L 146.4161834716797 77.81818389892578" fill-opacity="1" clip-path="url(#surORphzdpke)"/><path fill="rgb(0,200,255)" stroke="none" paint-order="stroke" d="M 146.44046020507812 77.81818389892578 L 146.46729820594192 77.81818389892578 L 146.46729820594192 130.45454788208008 L 146.44046020507812 130.45454788208008 L 146.44046020507812 77.81818389892578" fill-opacity="1" clip-path="url(#surORphzdpke)"/><path fill="rgb(0,213,255)" stroke="none" paint-order="stroke" d="M 146.46730041503906 77.81818389892578 L 147.66606438159943 77.81818389892578 L 147.66606438159943 130.45454788208008 L 146.46730041503906 130.45454788208008 L 146.46730041503906 77.81818389892578" fill-opacity="1" clip-path="url(#surORphzdpke)"/><path fill="rgb(0,221,255)" stroke="none" paint-order="stroke" d="M 147.6660614013672 77.81818389892578 L 147.6775634009391 77.81818389892578 L 147.6775634009391 130.45454788208008 L 147.6660614013672 130.45454788208008 L 147.6660614013672 77.81818389892578" fill-opacity="1" clip-path="url(#surORphzdpke)"/><path fill="rgb(0,234,255)" stroke="none" paint-order="stroke" d="M 147.6775665283203 77.81818389892578 L 147.690346528776 77.81818389892578 L 147.690346528776 130.45454788208008 L 147.6775665283203 130.45454788208008 L 147.6775665283203 77.81818389892578" fill-opacity="1" clip-path="url(#surORphzdpke)"/><path fill="rgb(0,250,255)" stroke="none" paint-order="stroke" d="M 147.69033813476562 77.81818389892578 L 147.7005621343851 77.81818389892578 L 147.7005621343851 130.45454788208008 L 147.69033813476562 130.45454788208008 L 147.69033813476562 77.81818389892578" fill-opacity="1" clip-path="url(#surORphzdpke)"/><path fill="rgb(0,255,191)" stroke="none" paint-order="stroke" d="M 147.7005615234375 77.81818389892578 L 147.70822952361777 77.81818389892578 L 147.70822952361777 130.45454788208008 L 147.7005615234375 130.45454788208008 L 147.7005615234375 77.81818389892578" fill-opacity="1" clip-path="url(#surORphzdpke)"/><path fill="rgb(0,255,146)" stroke="none" paint-order="stroke" d="M 147.70823669433594 77.81818389892578 L 147.71973869390786 77.81818389892578 L 147.71973869390786 130.45454788208008 L 147.70823669433594 130.45454788208008 L 147.70823669433594 77.81818389892578" fill-opacity="1" clip-path="url(#surORphzdpke)"/><path fill="rgb(0,255,110)" stroke="none" paint-order="stroke" d="M 147.71974182128906 77.81818389892578 L 147.7286878209561 77.81818389892578 L 147.7286878209561 130.45454788208008 L 147.71974182128906 130.45454788208008 L 147.71974182128906 77.81818389892578" fill-opacity="1" clip-path="url(#surORphzdpke)"/><path fill="rgb(0,255,55)" stroke="none" paint-order="stroke" d="M 147.7286834716797 77.81818389892578 L 147.74146347213537 77.81818389892578 L 147.74146347213537 130.45454788208008 L 147.7286834716797 130.45454788208008 L 147.7286834716797 77.81818389892578" fill-opacity="1" clip-path="url(#surORphzdpke)"/><path fill="rgb(25,255,0)" stroke="none" paint-order="stroke" d="M 147.741455078125 77.81818389892578 L 147.76190307736397 77.81818389892578 L 147.76190307736397 130.45454788208008 L 147.741455078125 130.45454788208008 L 147.741455078125 77.81818389892578" fill-opacity="1" clip-path="url(#surORphzdpke)"/><path fill="rgb(44,255,0)" stroke="none" paint-order="stroke" d="M 147.7619171142578 77.81818389892578 L 147.77853111363947 77.81818389892578 L 147.77853111363947 130.45454788208008 L 147.7619171142578 130.45454788208008 L 147.7619171142578 77.81818389892578" fill-opacity="1" clip-path="url(#surORphzdpke)"/><path fill="rgb(58,255,0)" stroke="none" paint-order="stroke" d="M 147.7785186767578 77.81818389892578 L 148.66800665855408 77.81818389892578 L 148.66800665855408 130.45454788208008 L 147.7785186767578 130.45454788208008 L 147.7785186767578 77.81818389892578" fill-opacity="1" clip-path="url(#surORphzdpke)"/><path fill="rgb(44,255,0)" stroke="none" paint-order="stroke" d="M 148.6680145263672 77.81818389892578 L 166.36575889587402 77.81818389892578 L 166.36575889587402 130.45454788208008 L 148.6680145263672 130.45454788208008 L 148.6680145263672 77.81818389892578" fill-opacity="1" clip-path="url(#surORphzdpke)"/><path fill="rgb(251,0,7)" stroke="none" paint-order="stroke" d="M 58.5 130.4545440673828 L 142.19366455078125 130.4545440673828 L 142.19366455078125 183.0909080505371 L 58.5 183.0909080505371 L 58.5 130.4545440673828" fill-opacity="1" clip-path="url(#FADZpoOvgoxO)"/><path fill="rgb(56,126,34)" stroke="none" paint-order="stroke" d="M 142.19366455078125 130.4545440673828 L 166.3657569885254 130.4545440673828 L 166.3657569885254 183.0909080505371 L 142.19366455078125 183.0909080505371 L 142.19366455078125 130.4545440673828" fill-opacity="1" clip-path="url(#FADZpoOvgoxO)"/><path fill="rgb(105,29,48)" stroke="none" paint-order="stroke" d="M 104.05814361572266 183.09091186523438 L 104.12204361706972 183.09091186523438 L 104.12204361706972 498.9090881347656 L 104.05814361572266 498.9090881347656 L 104.05814361572266 183.09091186523438" fill-opacity="1" clip-path="url(#ZuhTDxwgHTki)"/><path fill="rgb(162,174,187)" stroke="none" paint-order="stroke" d="M 112.2859115600586 183.09091186523438 L 112.34981156140566 183.09091186523438 L 112.34981156140566 498.9090881347656 L 112.2859115600586 498.9090881347656 L 112.2859115600586 183.09091186523438" fill-opacity="1" clip-path="url(#TQuDakrnwAiw)"/><path fill="rgb(216,17,89)" stroke="none" paint-order="stroke" d="M 90.40399169921875 183.09091186523438 L 90.46789170056581 183.09091186523438 L 90.46789170056581 498.9090881347656 L 90.40399169921875 498.9090881347656 L 90.40399169921875 183.09091186523438" fill-opacity="1" clip-path="url(#qTxpxxcfXLJi)"/><path fill="rgb(33,131,128)" stroke="none" paint-order="stroke" d="M 100.11167907714844 183.09091186523438 L 101.33089113235474 183.09091186523438 L 101.33089113235474 498.9090881347656 L 100.11167907714844 498.9090881347656 L 100.11167907714844 183.09091186523438" fill-opacity="1" clip-path="url(#ZmhTKzFcBIfh)"/><path fill="rgb(33,131,128)" stroke="none" paint-order="stroke" d="M 140.64601135253906 183.09091186523438 L 142.19366931915283 183.09091186523438 L 142.19366931915283 498.9090881347656 L 140.64601135253906 498.9090881347656 L 140.64601135253906 183.09091186523438" fill-opacity="1" clip-path="url(#ZmhTKzFcBIfh)"/><path fill="rgb(115,210,222)" stroke="none" paint-order="stroke" d="M 109.37590026855469 183.09091186523438 L 110.17848426103592 183.09091186523438 L 110.17848426103592 498.9090881347656 L 109.37590026855469 498.9090881347656 L 109.37590026855469 183.09091186523438" fill-opacity="1" clip-path="url(#IkRwlpypuqJP)"/><path fill="rgb(115,210,222)" stroke="none" paint-order="stroke" d="M 135.7845001220703 183.09091186523438 L 138.4861922264099 183.09091186523438 L 138.4861922264099 498.9090881347656 L 135.7845001220703 498.9090881347656 L 135.7845001220703 183.09091186523438" fill-opacity="1" clip-path="url(#IkRwlpypuqJP)"/><path fill="rgb(115,210,222)" stroke="none" paint-order="stroke" d="M 151.08982849121094 183.09091186523438 L 153.0898985862732 183.09091186523438 L 153.0898985862732 498.9090881347656 L 151.08982849121094 498.9090881347656 L 151.08982849121094 183.09091186523438" fill-opacity="1" clip-path="url(#IkRwlpypuqJP)"/><path fill="rgb(28,49,68)" stroke="none" paint-order="stroke" d="M 105.41027069091797 183.09091186523438 L 105.56363068521023 183.09091186523438 L 105.56363068521023 498.9090881347656 L 105.41027069091797 498.9090881347656 L 105.41027069091797 183.09091186523438" fill-opacity="1" clip-path="url(#qdKqKIZOCLWc)"/><path fill="rgb(239,185,203)" stroke="none" paint-order="stroke" d="M 68.24602508544922 183.09091186523438 L 87.89399719238281 183.09091186523438 L 87.89399719238281 498.9090881347656 L 68.24602508544922 498.9090881347656 L 68.24602508544922 183.09091186523438" fill-opacity="1" clip-path="url(#hzxoVLCFmccA)"/><path fill="rgb(239,185,203)" stroke="none" paint-order="stroke" d="M 113.28785705566406 183.09091186523438 L 133.44575119018555 183.09091186523438 L 133.44575119018555 498.9090881347656 L 113.28785705566406 498.9090881347656 L 113.28785705566406 183.09091186523438" fill-opacity="1" clip-path="url(#hzxoVLCFmccA)"/><path fill="rgb(239,185,203)" stroke="none" paint-order="stroke" d="M 157.08619689941406 183.09091186523438 L 166.36575508117676 183.09091186523438 L 166.36575508117676 498.9090881347656 L 157.08619689941406 498.9090881347656 L 157.08619689941406 183.09091186523438" fill-opacity="1" clip-path="url(#hzxoVLCFmccA)"/><path fill="rgb(105,29,48)" stroke="none" paint-order="stroke" d="M 91.5222396850586 183.09091186523438 L 98.43749761581421 183.09091186523438 L 98.43749761581421 498.9090881347656 L 91.5222396850586 498.9090881347656 L 91.5222396850586 183.09091186523438" fill-opacity="1" clip-path="url(#kDttfdBawwga)"/><path fill="rgb(105,29,48)" stroke="none" paint-order="stroke" d="M 145.46023559570312 183.09091186523438 L 146.49030363559723 183.09091186523438 L 146.49030363559723 498.9090881347656 L 145.46023559570312 498.9090881347656 L 145.46023559570312 183.09091186523438" fill-opacity="1" clip-path="url(#kDttfdBawwga)"/><path fill="rgb(105,29,48)" stroke="none" paint-order="stroke" d="M 147.06028747558594 183.09091186523438 L 149.63034558296204 183.09091186523438 L 149.63034558296204 498.9090881347656 L 147.06028747558594 498.9090881347656 L 147.06028747558594 183.09091186523438" fill-opacity="1" clip-path="url(#kDttfdBawwga)"/><path fill="rgb(143,45,86)" stroke="none" paint-order="stroke" d="M 58.5 551.5454711914062 L 104.05814361572266 551.5454711914062 L 104.05814361572266 604.1818351745605 L 58.5 604.1818351745605 L 58.5 551.5454711914062" fill-opacity="1" clip-path="url(#mUekBoaSHLeq)"/><path fill="rgb(63,136,197)" stroke="none" paint-order="stroke" d="M 104.05814361572266 551.5454711914062 L 112.28590774536133 551.5454711914062 L 112.28590774536133 604.1818351745605 L 104.05814361572266 604.1818351745605 L 104.05814361572266 551.5454711914062" fill-opacity="1" clip-path="url(#mUekBoaSHLeq)"/><path fill="rgb(81,60,99)" stroke="none" paint-order="stroke" d="M 112.2859115600586 551.5454711914062 L 166.36576080322266 551.5454711914062 L 166.36576080322266 604.1818351745605 L 112.2859115600586 604.1818351745605 L 112.2859115600586 551.5454711914062" fill-opacity="1" clip-path="url(#mUekBoaSHLeq)"/><path fill="none" stroke="rgb(0,0,0)" paint-order="fill" d="M 58.5 77.81818389892578 L 166.36575317382812 77.81818389892578 L 166.36575317382812 604.1818313598633 L 58.5 604.1818313598633 L 58.5 77.81818389892578" stroke-opacity="1" stroke-linejoin="bevel" stroke-miterlimit="10" stroke-dasharray="" clip-path="url(#xPGZklMwEQuf)"/><path fill="none" stroke="rgb(0,0,0)" paint-order="fill" d="M 58.5 630.5 L 1336.5 630.5" stroke-opacity="1" stroke-linejoin="bevel" stroke-miterlimit="10" stroke-dasharray=""/><path fill="none" stroke="rgb(0,0,0)" paint-order="fill" d="M 58.5 636.5 L 58.5 628.5 M 314.5 636.5 L 314.5 628.5 M 569.5 636.5 L 569.5 628.5 M 825.5 636.5 L 825.5 628.5 M 1080.5 636.5 L 1080.5 628.5 M 1336.5 636.5 L 1336.5 628.5" stroke-opacity="1" stroke-linejoin="bevel" stroke-miterlimit="10" stroke-dasharray=""/><path fill="none" stroke="rgb(0,0,0)" paint-order="fill" d="M 58.5 634.5 L 58.5 630.5 M 109.5 634.5 L 109.5 630.5 M 160.5 634.5 L 160.5 630.5 M 211.5 634.5 L 211.5 630.5 M 262.5 634.5 L 262.5 630.5 M 314.5 634.5 L 314.5 630.5 M 365.5 634.5 L 365.5 630.5 M 416.5 634.5 L 416.5 630.5 M 467.5 634.5 L 467.5 630.5 M 518.5 634.5 L 518.5 630.5 M 569.5 634.5 L 569.5 630.5 M 620.5 634.5 L 620.5 630.5 M 671.5 634.5 L 671.5 630.5 M 723.5 634.5 L 723.5 630.5 M 774.5 634.5 L 774.5 630.5 M 825.5 634.5 L 825.5 630.5 M 876.5 634.5 L 876.5 630.5 M 927.5 634.5 L 927.5 630.5 M 978.5 634.5 L 978.5 630.5 M 1029.5 634.5 L 1029.5 630.5 M 1080.5 634.5 L 1080.5 630.5 M 1132.5 634.5 L 1132.5 630.5 M 1183.5 634.5 L 1183.5 630.5 M 1234.5 634.5 L 1234.5 630.5 M 1285.5 634.5 L 1285.5 630.5 M 1336.5 634.5 L 1336.5 630.5" stroke-opacity="1" stroke-linejoin="bevel" stroke-miterlimit="10" stroke-dasharray=""/><text fill="rgb(68,68,68)" stroke="none" font-family="helvetica" font-size="11px" font-style="normal" font-weight="normal" text-decoration="normal" x="54.94166660308838" y="648.89013671875" text-anchor="start" dominant-baseline="alphabetic" transform="matrix(1, 0, 0, 1, 0.5, 0.5)" fill-opacity="1">0</text><text fill="rgb(68,68,68)" stroke="none" font-family="helvetica" font-size="11px" font-style="normal" font-weight="normal" text-decoration="normal" x="304.42500591278076" y="648.89013671875" text-anchor="start" dominant-baseline="alphabetic" transform="matrix(1, 0, 0, 1, 0.5, 0.5)" fill-opacity="1">200</text><text fill="rgb(68,68,68)" stroke="none" font-family="helvetica" font-size="11px" font-style="normal" font-weight="normal" text-decoration="normal" x="560.0250120162964" y="648.89013671875" text-anchor="start" dominant-baseline="alphabetic" transform="matrix(1, 0, 0, 1, 0.5, 0.5)" fill-opacity="1">400</text><text fill="rgb(68,68,68)" stroke="none" font-family="helvetica" font-size="11px" font-style="normal" font-weight="normal" text-decoration="normal" x="815.6249876022339" y="648.89013671875" text-anchor="start" dominant-baseline="alphabetic" transform="matrix(1, 0, 0, 1, 0.5, 0.5)" fill-opacity="1">600</text><text fill="rgb(68,68,68)" stroke="none" font-family="helvetica" font-size="11px" font-style="normal" font-weight="normal" text-decoration="normal" x="1071.2250242233276" y="648.89013671875" text-anchor="start" dominant-baseline="alphabetic" transform="matrix(1, 0, 0, 1, 0.5, 0.5)" fill-opacity="1">800</text><text fill="rgb(68,68,68)" stroke="none" font-family="helvetica" font-size="11px" font-style="normal" font-weight="normal" text-decoration="normal" x="1323.7666664123535" y="648.89013671875" text-anchor="start" dominant-baseline="alphabetic" transform="matrix(1, 0, 0, 1, 0.5, 0.5)" fill-opacity="1">1000</text><text fill="rgb(68,68,68)" stroke="none" font-family="helvetica" font-size="15pt" font-style="italic" font-weight="normal" text-decoration="normal" x="666.4416675567627" y="676.06982421875" text-anchor="start" dominant-baseline="alphabetic" transform="matrix(1, 0, 0, 1, 0.5, 0.5)" fill-opacity="1">time(s)</text><path fill="none" stroke="rgb(0,0,0)" paint-order="fill" d="M 58.5 630.5 L 58.5 51.5" stroke-opacity="1" stroke-linejoin="bevel" stroke-miterlimit="10" stroke-dasharray=""/><path fill="none" stroke="rgb(0,0,0)" paint-order="fill" d="M 52.5 551.5 L 60.5 551.5 M 52.5 446.5 L 60.5 446.5 M 52.5 341.5 L 60.5 341.5 M 52.5 235.5 L 60.5 235.5 M 52.5 130.5 L 60.5 130.5" stroke-opacity="1" stroke-linejoin="bevel" stroke-miterlimit="10" stroke-dasharray=""/><path fill="none" stroke="rgb(0,0,0)" paint-order="fill" d="M 54.5 572.5 L 58.5 572.5 M 54.5 593.5 L 58.5 593.5 M 54.5 614.5 L 58.5 614.5 M 54.5 551.5 L 58.5 551.5 M 54.5 530.5 L 58.5 530.5 M 54.5 509.5 L 58.5 509.5 M 54.5 488.5 L 58.5 488.5 M 54.5 467.5 L 58.5 467.5 M 54.5 446.5 L 58.5 446.5 M 54.5 425.5 L 58.5 425.5 M 54.5 404.5 L 58.5 404.5 M 54.5 383.5 L 58.5 383.5 M 54.5 362.5 L 58.5 362.5 M 54.5 341.5 L 58.5 341.5 M 54.5 319.5 L 58.5 319.5 M 54.5 298.5 L 58.5 298.5 M 54.5 277.5 L 58.5 277.5 M 54.5 256.5 L 58.5 256.5 M 54.5 235.5 L 58.5 235.5 M 54.5 214.5 L 58.5 214.5 M 54.5 193.5 L 58.5 193.5 M 54.5 172.5 L 58.5 172.5 M 54.5 151.5 L 58.5 151.5 M 54.5 130.5 L 58.5 130.5 M 54.5 109.5 L 58.5 109.5 M 54.5 88.5 L 58.5 88.5 M 54.5 67.5 L 58.5 67.5" stroke-opacity="1" stroke-linejoin="bevel" stroke-miterlimit="10" stroke-dasharray=""/><text fill="rgb(68,68,68)" stroke="none" font-family="helvetica" font-size="11px" font-style="normal" font-weight="normal" text-decoration="normal" x="34.46666622161865" y="554.9905395507812" text-anchor="start" dominant-baseline="alphabetic" transform="matrix(1, 0, 0, 1, 0.5, 0.5)" fill-opacity="1">−2</text><text fill="rgb(68,68,68)" stroke="none" font-family="helvetica" font-size="11px" font-style="normal" font-weight="normal" text-decoration="normal" x="34.46666622161865" y="449.7178039550781" text-anchor="start" dominant-baseline="alphabetic" transform="matrix(1, 0, 0, 1, 0.5, 0.5)" fill-opacity="1">−1</text><text fill="rgb(68,68,68)" stroke="none" font-family="helvetica" font-size="11px" font-style="normal" font-weight="normal" text-decoration="normal" x="40.88333320617676" y="344.445068359375" text-anchor="start" dominant-baseline="alphabetic" transform="matrix(1, 0, 0, 1, 0.5, 0.5)" fill-opacity="1">0</text><text fill="rgb(68,68,68)" stroke="none" font-family="helvetica" font-size="11px" font-style="normal" font-weight="normal" text-decoration="normal" x="40.88333320617676" y="239.17234802246094" text-anchor="start" dominant-baseline="alphabetic" transform="matrix(1, 0, 0, 1, 0.5, 0.5)" fill-opacity="1">1</text><text fill="rgb(68,68,68)" stroke="none" font-family="helvetica" font-size="11px" font-style="normal" font-weight="normal" text-decoration="normal" x="40.88333320617676" y="133.8996124267578" text-anchor="start" dominant-baseline="alphabetic" transform="matrix(1, 0, 0, 1, 0.5, 0.5)" fill-opacity="1">2</text><text fill="rgb(68,68,68)" stroke="none" font-family="helvetica" font-size="15pt" font-style="italic" font-weight="normal" text-decoration="normal" x="-11.316666603088379" y="336.076171875" text-anchor="start" dominant-baseline="alphabetic" transform="matrix(6.123233995736766e-17, -1, 1, 6.123233995736766e-17, -313.53333377838135, 367.46666622161865)" fill-opacity="1">students</text><path fill="rgb(255,255,255)" stroke="rgb(229,229,229)" paint-order="fill" d="M 1128.2333374023438 61.5 L 1326.5 61.5 L 1326.5 400.5 L 1128.2333374023438 400.5 L 1128.2333374023438 61.5" fill-opacity="0.9490196078431372" clip-path="url(#rNQnUWVBeJUZ)" stroke-opacity="0.5019607843137255" stroke-linejoin="bevel" stroke-miterlimit="10" stroke-dasharray=""/><text fill="rgb(68,68,68)" stroke="none" font-family="helvetica" font-size="13px" font-style="normal" font-weight="normal" text-decoration="normal" x="1162.7333374023438" y="81" text-anchor="start" dominant-baseline="central" clip-path="url(#rNQnUWVBeJUZ)" transform="matrix(1, 0, 0, 1, 0.5, 0.5)" fill-opacity="1">wavelength</text><path fill="rgb(0,255,40)" stroke="none" paint-order="stroke" d="M 1140.2333374023438 73.5 L 1156.2333374023438 73.5 L 1156.2333374023438 89.5 L 1140.2333374023438 89.5 L 1140.2333374023438 73.5" fill-opacity="1" clip-path="url(#rNQnUWVBeJUZ)"/><path fill="rgb(216,17,89)" stroke="none" paint-order="stroke" d="M 1140.2333374023438 73.5 L 1156.2333374023438 73.5 L 1156.2333374023438 89.5 L 1140.2333374023438 89.5 L 1140.2333374023438 73.5" fill-opacity="1" clip-path="url(#rNQnUWVBeJUZ)"/><text fill="rgb(68,68,68)" stroke="none" font-family="helvetica" font-size="13px" font-style="normal" font-weight="normal" text-decoration="normal" x="1162.7333374023438" y="104" text-anchor="start" dominant-baseline="central" clip-path="url(#rNQnUWVBeJUZ)" transform="matrix(1, 0, 0, 1, 0.5, 0.5)" fill-opacity="1">solution</text><path fill="rgb(251,0,7)" stroke="none" paint-order="stroke" d="M 1140.2333374023438 96.5 L 1156.2333374023438 96.5 L 1156.2333374023438 112.5 L 1140.2333374023438 112.5 L 1140.2333374023438 96.5" fill-opacity="1" clip-path="url(#rNQnUWVBeJUZ)"/><path fill="rgb(33,131,128)" stroke="none" paint-order="stroke" d="M 1140.2333374023438 96.5 L 1156.2333374023438 96.5 L 1156.2333374023438 112.5 L 1140.2333374023438 112.5 L 1140.2333374023438 96.5" fill-opacity="1" clip-path="url(#rNQnUWVBeJUZ)"/><text fill="rgb(68,68,68)" stroke="none" font-family="helvetica" font-size="13px" font-style="normal" font-weight="normal" text-decoration="normal" x="1162.7333374023438" y="127" text-anchor="start" dominant-baseline="central" clip-path="url(#rNQnUWVBeJUZ)" transform="matrix(1, 0, 0, 1, 0.5, 0.5)" fill-opacity="1">laser</text><path fill="rgb(105,29,48)" stroke="none" paint-order="stroke" d="M 1140.2333374023438 119.5 L 1156.2333374023438 119.5 L 1156.2333374023438 135.5 L 1140.2333374023438 135.5 L 1140.2333374023438 119.5" fill-opacity="1" clip-path="url(#rNQnUWVBeJUZ)"/><text fill="rgb(68,68,68)" stroke="none" font-family="helvetica" font-size="13px" font-style="normal" font-weight="normal" text-decoration="normal" x="1162.7333374023438" y="150" text-anchor="start" dominant-baseline="central" clip-path="url(#rNQnUWVBeJUZ)" transform="matrix(1, 0, 0, 1, 0.5, 0.5)" fill-opacity="1">ruler</text><text fill="rgb(68,68,68)" stroke="none" font-family="helvetica" font-size="13px" font-style="normal" font-weight="normal" text-decoration="normal" x="1162.7333374023438" y="173" text-anchor="start" dominant-baseline="central" clip-path="url(#rNQnUWVBeJUZ)" transform="matrix(1, 0, 0, 1, 0.5, 0.5)" fill-opacity="1">restarts</text><text fill="rgb(68,68,68)" stroke="none" font-family="helvetica" font-size="13px" font-style="normal" font-weight="normal" text-decoration="normal" x="1162.7333374023438" y="196" text-anchor="start" dominant-baseline="central" clip-path="url(#rNQnUWVBeJUZ)" transform="matrix(1, 0, 0, 1, 0.5, 0.5)" fill-opacity="1">transmittance_absorbance</text><path fill="rgb(162,174,187)" stroke="none" paint-order="stroke" d="M 1140.2333374023438 188.5 L 1156.2333374023438 188.5 L 1156.2333374023438 204.5 L 1140.2333374023438 204.5 L 1140.2333374023438 188.5" fill-opacity="1" clip-path="url(#rNQnUWVBeJUZ)"/><text fill="rgb(68,68,68)" stroke="none" font-family="helvetica" font-size="13px" font-style="normal" font-weight="normal" text-decoration="normal" x="1162.7333374023438" y="219" text-anchor="start" dominant-baseline="central" clip-path="url(#rNQnUWVBeJUZ)" transform="matrix(1, 0, 0, 1, 0.5, 0.5)" fill-opacity="1">magnifier</text><text fill="rgb(68,68,68)" stroke="none" font-family="helvetica" font-size="13px" font-style="normal" font-weight="normal" text-decoration="normal" x="1162.7333374023438" y="242" text-anchor="start" dominant-baseline="central" clip-path="url(#rNQnUWVBeJUZ)" transform="matrix(1, 0, 0, 1, 0.5, 0.5)" fill-opacity="1">concentration</text><path fill="rgb(115,210,222)" stroke="none" paint-order="stroke" d="M 1140.2333374023438 234.5 L 1156.2333374023438 234.5 L 1156.2333374023438 250.5 L 1140.2333374023438 250.5 L 1140.2333374023438 234.5" fill-opacity="1" clip-path="url(#rNQnUWVBeJUZ)"/><text fill="rgb(68,68,68)" stroke="none" font-family="helvetica" font-size="13px" font-style="normal" font-weight="normal" text-decoration="normal" x="1162.7333374023438" y="265" text-anchor="start" dominant-baseline="central" clip-path="url(#rNQnUWVBeJUZ)" transform="matrix(1, 0, 0, 1, 0.5, 0.5)" fill-opacity="1">flask</text><path fill="rgb(28,49,68)" stroke="none" paint-order="stroke" d="M 1140.2333374023438 257.5 L 1156.2333374023438 257.5 L 1156.2333374023438 273.5 L 1140.2333374023438 273.5 L 1140.2333374023438 257.5" fill-opacity="1" clip-path="url(#rNQnUWVBeJUZ)"/><text fill="rgb(68,68,68)" stroke="none" font-family="helvetica" font-size="13px" font-style="normal" font-weight="normal" text-decoration="normal" x="1162.7333374023438" y="288" text-anchor="start" dominant-baseline="central" clip-path="url(#rNQnUWVBeJUZ)" transform="matrix(1, 0, 0, 1, 0.5, 0.5)" fill-opacity="1">pdf</text><path fill="rgb(239,185,203)" stroke="none" paint-order="stroke" d="M 1140.2333374023438 280.5 L 1156.2333374023438 280.5 L 1156.2333374023438 296.5 L 1140.2333374023438 296.5 L 1140.2333374023438 280.5" fill-opacity="1" clip-path="url(#rNQnUWVBeJUZ)"/><text fill="rgb(68,68,68)" stroke="none" font-family="helvetica" font-size="13px" font-style="normal" font-weight="normal" text-decoration="normal" x="1162.7333374023438" y="311" text-anchor="start" dominant-baseline="central" clip-path="url(#rNQnUWVBeJUZ)" transform="matrix(1, 0, 0, 1, 0.5, 0.5)" fill-opacity="1">concentrationlab</text><text fill="rgb(68,68,68)" stroke="none" font-family="helvetica" font-size="13px" font-style="normal" font-weight="normal" text-decoration="normal" x="1162.7333374023438" y="334" text-anchor="start" dominant-baseline="central" clip-path="url(#rNQnUWVBeJUZ)" transform="matrix(1, 0, 0, 1, 0.5, 0.5)" fill-opacity="1">wavelength_slider</text><path fill="rgb(105,29,48)" stroke="none" paint-order="stroke" d="M 1140.2333374023438 326.5 L 1156.2333374023438 326.5 L 1156.2333374023438 342.5 L 1140.2333374023438 342.5 L 1140.2333374023438 326.5" fill-opacity="1" clip-path="url(#rNQnUWVBeJUZ)"/><text fill="rgb(68,68,68)" stroke="none" font-family="helvetica" font-size="13px" font-style="normal" font-weight="normal" text-decoration="normal" x="1162.7333374023438" y="357" text-anchor="start" dominant-baseline="central" clip-path="url(#rNQnUWVBeJUZ)" transform="matrix(1, 0, 0, 1, 0.5, 0.5)" fill-opacity="1">ruler measuring</text><text fill="rgb(68,68,68)" stroke="none" font-family="helvetica" font-size="13px" font-style="normal" font-weight="normal" text-decoration="normal" x="1162.7333374023438" y="380" text-anchor="start" dominant-baseline="central" clip-path="url(#rNQnUWVBeJUZ)" transform="matrix(1, 0, 0, 1, 0.5, 0.5)" fill-opacity="1">dependent variable</text><path fill="rgb(143,45,86)" stroke="none" paint-order="stroke" d="M 1140.2333374023438 372.5 L 1156.2333374023438 372.5 L 1156.2333374023438 388.5 L 1140.2333374023438 388.5 L 1140.2333374023438 372.5" fill-opacity="1" clip-path="url(#rNQnUWVBeJUZ)"/><text fill="rgb(68,68,68)" stroke="none" font-family="helvetica" font-size="25pt" font-style="normal" font-weight="bold" text-decoration="normal" x="58" y="38.740885416666664" text-anchor="start" dominant-baseline="alphabetic" transform="matrix(1, 0, 0, 1, 0.5, 0.5)" fill-opacity="1">Timeline for student 2dfxa5he with permutation missing for task 2</text></svg>