<svg version="1.1" xmlns="http://www.w3.org/2000/svg" width="1366" height="683"><defs><clipPath id="FDrayEeNUvil"><path fill="none" stroke="none" d="M 58.5 51.5 L 1336.5 51.5 L 1336.5 630.5 L 58.5 630.5 L 58.5 51.5"/></clipPath><clipPath id="sqrsWAtyiHIs"><path fill="none" stroke="none" d="M 58.5 51.5 L 1336.5 51.5 L 1336.5 630.5 L 58.5 630.5 L 58.5 51.5"/></clipPath><clipPath id="UDIZkXSkktHk"><path fill="none" stroke="none" d="M 58.5 51.5 L 1336.5 51.5 L 1336.5 630.5 L 58.5 630.5 L 58.5 51.5"/></clipPath><clipPath id="uNvcSJwOPvrZ"><path fill="none" stroke="none" d="M 58.5 51.5 L 1336.5 51.5 L 1336.5 630.5 L 58.5 630.5 L 58.5 51.5"/></clipPath><clipPath id="shTiSCJRXAKc"><path fill="none" stroke="none" d="M 58.5 51.5 L 1336.5 51.5 L 1336.5 630.5 L 58.5 630.5 L 58.5 51.5"/></clipPath><clipPath id="GzGhFmCyVfBW"><path fill="none" stroke="none" d="M 58.5 51.5 L 1336.5 51.5 L 1336.5 630.5 L 58.5 630.5 L 58.5 51.5"/></clipPath><clipPath id="TArWaGCHTNCO"><path fill="none" stroke="none" d="M 58.5 51.5 L 1336.5 51.5 L 1336.5 630.5 L 58.5 630.5 L 58.5 51.5"/></clipPath><clipPath id="cgaUoHfhAKVB"><path fill="none" stroke="none" d="M 58.5 51.5 L 1336.5 51.5 L 1336.5 630.5 L 58.5 630.5 L 58.5 51.5"/></clipPath><clipPath id="lCVEkiorioJx"><path fill="none" stroke="none" d="M 58.5 51.5 L 1336.5 51.5 L 1336.5 630.5 L 58.5 630.5 L 58.5 51.5"/></clipPath><clipPath id="KfMkTSKlmFrb"><path fill="none" stroke="none" d="M 58.5 51.5 L 1336.5 51.5 L 1336.5 630.5 L 58.5 630.5 L 58.5 51.5"/></clipPath><clipPath id="NwzcyuRohCKU"><path fill="none" stroke="none" d="M 58.5 51.5 L 1336.5 51.5 L 1336.5 630.5 L 58.5 630.5 L 58.5 51.5"/></clipPath><clipPath id="ylBUNhSPKHIb"><path fill="none" stroke="none" d="M 58.5 51.5 L 1336.5 51.5 L 1336.5 630.5 L 58.5 630.5 L 58.5 51.5"/></clipPath><clipPath id="DXdRKeRTCBkM"><path fill="none" stroke="none" d="M 58.5 51.5 L 1336.5 51.5 L 1336.5 630.5 L 58.5 630.5 L 58.5 51.5"/></clipPath><clipPath id="UDMgTfHVlhwt"><path fill="none" stroke="none" d="M 58.5 51.5 L 1336.5 51.5 L 1336.5 630.5 L 58.5 630.5 L 58.5 51.5"/></clipPath><clipPath id="ODJsAdinIhlG"><path fill="none" stroke="none" d="M 58.5 51.5 L 1336.5 51.5 L 1336.5 630.5 L 58.5 630.5 L 58.5 51.5"/></clipPath><clipPath id="GpWZqDLBwMGA"><path fill="none" stroke="none" d="M 58.5 51.5 L 1336.5 51.5 L 1336.5 630.5 L 58.5 630.5 L 58.5 51.5"/></clipPath><clipPath id="HQPOXvpzKXAV"><path fill="none" stroke="none" d="M 58.5 51.5 L 1336.5 51.5 L 1336.5 630.5 L 58.5 630.5 L 58.5 51.5"/></clipPath><clipPath id="tvkKtCimRECd"><path fill="none" stroke="none" d="M 58.5 51.5 L 1336.5 51.5 L 1336.5 630.5 L 58.5 630.5 L 58.5 51.5"/></clipPath><clipPath id="TfiliqKXnnri"><path fill="none" stroke="none" d="M 58.5 51.5 L 1336.5 51.5 L 1336.5 630.5 L 58.5 630.5 L 58.5 51.5"/></clipPath><clipPath id="gGrfJQGNDRZT"><path fill="none" stroke="none" d="M 58.5 51.5 L 1336.5 51.5 L 1336.5 630.5 L 58.5 630.5 L 58.5 51.5"/></clipPath><clipPath id="IcqTIOTbsoZC"><path fill="none" stroke="none" d="M 58.5 51.5 L 1336.5 51.5 L 1336.5 630.5 L 58.5 630.5 L 58.5 51.5"/></clipPath></defs><path fill="rgb(255,255,255)" stroke="none" paint-order="stroke" d="M 0.5 0.5 L 1366.5 0.5 L 1366.5 683.5 L 0.5 683.5 L 0.5 0.5" fill-opacity="1"/><rect fill="#FFFFFF" stroke="none" x="58" y="51" width="1278" height="579" transform="matrix(1, 0, 0, 1, 0.5, 0.5)"/><path fill="rgb(255,255,255)" stroke="none" paint-order="stroke" d="M 58.5 51.5 L 1336.5 51.5 L 1336.5 630.5 L 58.5 630.5 L 58.5 51.5" fill-opacity="1"/><path fill="none" stroke="rgb(229,229,229)" paint-order="fill" d="M 58.5 51.5 L 1336.5 51.5 L 1336.5 630.5 L 58.5 630.5 L 58.5 51.5" stroke-opacity="1" stroke-linejoin="bevel" stroke-miterlimit="10" stroke-dasharray=""/><path fill="none" stroke="rgb(229,229,229)" paint-order="fill" d="M 314.5 630.5 L 314.5 51.5 M 569.5 630.5 L 569.5 51.5 M 825.5 630.5 L 825.5 51.5 M 1080.5 630.5 L 1080.5 51.5" stroke-opacity="1" stroke-linejoin="bevel" stroke-miterlimit="10" stroke-dasharray="" clip-path="url(#FDrayEeNUvil)"/><path fill="none" stroke="rgb(229,229,229)" paint-order="fill" d="M 58.5 551.5 L 1336.5 551.5 M 58.5 446.5 L 1336.5 446.5 M 58.5 341.5 L 1336.5 341.5 M 58.5 235.5 L 1336.5 235.5 M 58.5 130.5 L 1336.5 130.5" stroke-opacity="1" stroke-linejoin="bevel" stroke-miterlimit="10" stroke-dasharray="" clip-path="url(#sqrsWAtyiHIs)"/><path fill="rgb(0,255,40)" stroke="none" paint-order="stroke" d="M 58.5 77.81818389892578 L 113.43994140625 77.81818389892578 L 113.43994140625 130.45454788208008 L 58.5 130.45454788208008 L 58.5 77.81818389892578" fill-opacity="1" clip-path="url(#UDIZkXSkktHk)"/><path fill="rgb(42,0,238)" stroke="none" paint-order="stroke" d="M 113.43994140625 77.81818389892578 L 121.02870559692383 77.81818389892578 L 121.02870559692383 130.45454788208008 L 113.43994140625 130.45454788208008 L 113.43994140625 77.81818389892578" fill-opacity="1" clip-path="url(#UDIZkXSkktHk)"/><path fill="rgb(33,0,243)" stroke="none" paint-order="stroke" d="M 121.0287094116211 77.81818389892578 L 121.0504354108125 77.81818389892578 L 121.0504354108125 130.45454788208008 L 121.0287094116211 130.45454788208008 L 121.0287094116211 77.81818389892578" fill-opacity="1" clip-path="url(#UDIZkXSkktHk)"/><path fill="rgb(0,33,255)" stroke="none" paint-order="stroke" d="M 121.05043029785156 77.81818389892578 L 121.11305230110884 77.81818389892578 L 121.11305230110884 130.45454788208008 L 121.05043029785156 130.45454788208008 L 121.05043029785156 77.81818389892578" fill-opacity="1" clip-path="url(#UDIZkXSkktHk)"/><path fill="rgb(0,64,255)" stroke="none" paint-order="stroke" d="M 121.11305236816406 77.81818389892578 L 121.15650436654687 77.81818389892578 L 121.15650436654687 130.45454788208008 L 121.11305236816406 130.45454788208008 L 121.11305236816406 77.81818389892578" fill-opacity="1" clip-path="url(#UDIZkXSkktHk)"/><path fill="rgb(0,86,255)" stroke="none" paint-order="stroke" d="M 121.15650939941406 77.81818389892578 L 121.197405397892 77.81818389892578 L 121.197405397892 130.45454788208008 L 121.15650939941406 130.45454788208008 L 121.15650939941406 77.81818389892578" fill-opacity="1" clip-path="url(#UDIZkXSkktHk)"/><path fill="rgb(0,137,255)" stroke="none" paint-order="stroke" d="M 121.19740295410156 77.81818389892578 L 121.26130295544863 77.81818389892578 L 121.26130295544863 130.45454788208008 L 121.19740295410156 130.45454788208008 L 121.19740295410156 77.81818389892578" fill-opacity="1" clip-path="url(#UDIZkXSkktHk)"/><path fill="rgb(0,155,255)" stroke="none" paint-order="stroke" d="M 121.26129913330078 77.81818389892578 L 121.28302513249218 77.81818389892578 L 121.28302513249218 130.45454788208008 L 121.26129913330078 130.45454788208008 L 121.26129913330078 77.81818389892578" fill-opacity="1" clip-path="url(#UDIZkXSkktHk)"/><path fill="rgb(0,178,255)" stroke="none" paint-order="stroke" d="M 121.28302764892578 77.81818389892578 L 121.87601965665817 77.81818389892578 L 121.87601965665817 130.45454788208008 L 121.28302764892578 130.45454788208008 L 121.28302764892578 77.81818389892578" fill-opacity="1" clip-path="url(#UDIZkXSkktHk)"/><path fill="rgb(0,196,255)" stroke="none" paint-order="stroke" d="M 121.87602233886719 77.81818389892578 L 121.89774833805859 77.81818389892578 L 121.89774833805859 130.45454788208008 L 121.87602233886719 130.45454788208008 L 121.87602233886719 77.81818389892578" fill-opacity="1" clip-path="url(#UDIZkXSkktHk)"/><path fill="rgb(0,217,255)" stroke="none" paint-order="stroke" d="M 121.89774322509766 77.81818389892578 L 122.51246124505997 77.81818389892578 L 122.51246124505997 130.45454788208008 L 121.89774322509766 130.45454788208008 L 121.89774322509766 77.81818389892578" fill-opacity="1" clip-path="url(#UDIZkXSkktHk)"/><path fill="rgb(0,238,255)" stroke="none" paint-order="stroke" d="M 122.51246643066406 77.81818389892578 L 122.53291442990303 77.81818389892578 L 122.53291442990303 130.45454788208008 L 122.51246643066406 130.45454788208008 L 122.51246643066406 77.81818389892578" fill-opacity="1" clip-path="url(#UDIZkXSkktHk)"/><path fill="rgb(0,255,255)" stroke="none" paint-order="stroke" d="M 122.53291320800781 77.81818389892578 L 122.56230720877647 77.81818389892578 L 122.56230720877647 130.45454788208008 L 122.53291320800781 130.45454788208008 L 122.53291320800781 77.81818389892578" fill-opacity="1" clip-path="url(#UDIZkXSkktHk)"/><path fill="rgb(0,255,202)" stroke="none" paint-order="stroke" d="M 122.56230926513672 77.81818389892578 L 122.58786926604807 77.81818389892578 L 122.58786926604807 130.45454788208008 L 122.56230926513672 130.45454788208008 L 122.56230926513672 77.81818389892578" fill-opacity="1" clip-path="url(#UDIZkXSkktHk)"/><path fill="rgb(0,255,146)" stroke="none" paint-order="stroke" d="M 122.5878677368164 77.81818389892578 L 122.68116173893213 77.81818389892578 L 122.68116173893213 130.45454788208008 L 122.5878677368164 130.45454788208008 L 122.5878677368164 77.81818389892578" fill-opacity="1" clip-path="url(#UDIZkXSkktHk)"/><path fill="rgb(0,255,97)" stroke="none" paint-order="stroke" d="M 122.68115997314453 77.81818389892578 L 122.72333397343755 77.81818389892578 L 122.72333397343755 130.45454788208008 L 122.68115997314453 130.45454788208008 L 122.68115997314453 77.81818389892578" fill-opacity="1" clip-path="url(#UDIZkXSkktHk)"/><path fill="rgb(0,255,23)" stroke="none" paint-order="stroke" d="M 122.72333526611328 77.81818389892578 L 122.76678726449609 77.81818389892578 L 122.76678726449609 130.45454788208008 L 122.72333526611328 130.45454788208008 L 122.72333526611328 77.81818389892578" fill-opacity="1" clip-path="url(#UDIZkXSkktHk)"/><path fill="rgb(20,255,0)" stroke="none" paint-order="stroke" d="M 122.76678466796875 77.81818389892578 L 122.78978866711259 77.81818389892578 L 122.78978866711259 130.45454788208008 L 122.76678466796875 130.45454788208008 L 122.76678466796875 77.81818389892578" fill-opacity="1" clip-path="url(#UDIZkXSkktHk)"/><path fill="rgb(44,255,0)" stroke="none" paint-order="stroke" d="M 122.78978729248047 77.81818389892578 L 122.85113129392266 77.81818389892578 L 122.85113129392266 130.45454788208008 L 122.78978729248047 130.45454788208008 L 122.78978729248047 77.81818389892578" fill-opacity="1" clip-path="url(#UDIZkXSkktHk)"/><path fill="rgb(66,255,0)" stroke="none" paint-order="stroke" d="M 122.85113525390625 77.81818389892578 L 122.87286125309765 77.81818389892578 L 122.87286125309765 130.45454788208008 L 122.85113525390625 130.45454788208008 L 122.85113525390625 77.81818389892578" fill-opacity="1" clip-path="url(#UDIZkXSkktHk)"/><path fill="rgb(82,255,0)" stroke="none" paint-order="stroke" d="M 122.87286376953125 77.81818389892578 L 122.9380417689681 77.81818389892578 L 122.9380417689681 130.45454788208008 L 122.87286376953125 130.45454788208008 L 122.87286376953125 77.81818389892578" fill-opacity="1" clip-path="url(#UDIZkXSkktHk)"/><path fill="rgb(101,255,0)" stroke="none" paint-order="stroke" d="M 122.93804168701172 77.81818389892578 L 122.95721168629825 77.81818389892578 L 122.95721168629825 130.45454788208008 L 122.93804168701172 130.45454788208008 L 122.93804168701172 77.81818389892578" fill-opacity="1" clip-path="url(#UDIZkXSkktHk)"/><path fill="rgb(119,255,0)" stroke="none" paint-order="stroke" d="M 122.95720672607422 77.81818389892578 L 123.08500672876835 77.81818389892578 L 123.08500672876835 130.45454788208008 L 122.95720672607422 130.45454788208008 L 122.95720672607422 77.81818389892578" fill-opacity="1" clip-path="url(#UDIZkXSkktHk)"/><path fill="rgb(132,255,0)" stroke="none" paint-order="stroke" d="M 123.08500671386719 77.81818389892578 L 123.31760270893574 77.81818389892578 L 123.31760270893574 130.45454788208008 L 123.08500671386719 130.45454788208008 L 123.08500671386719 77.81818389892578" fill-opacity="1" clip-path="url(#UDIZkXSkktHk)"/><path fill="rgb(149,255,0)" stroke="none" paint-order="stroke" d="M 123.3176040649414 77.81818389892578 L 123.40195206552744 77.81818389892578 L 123.40195206552744 130.45454788208008 L 123.3176040649414 130.45454788208008 L 123.3176040649414 77.81818389892578" fill-opacity="1" clip-path="url(#UDIZkXSkktHk)"/><path fill="rgb(166,255,0)" stroke="none" paint-order="stroke" d="M 123.4019546508789 77.81818389892578 L 123.44412865117192 77.81818389892578 L 123.44412865117192 130.45454788208008 L 123.4019546508789 130.45454788208008 L 123.4019546508789 77.81818389892578" fill-opacity="1" clip-path="url(#UDIZkXSkktHk)"/><path fill="rgb(179,255,0)" stroke="none" paint-order="stroke" d="M 123.44412231445312 77.81818389892578 L 123.59237031638622 77.81818389892578 L 123.59237031638622 130.45454788208008 L 123.44412231445312 130.45454788208008 L 123.44412231445312 77.81818389892578" fill-opacity="1" clip-path="url(#UDIZkXSkktHk)"/><path fill="rgb(194,255,0)" stroke="none" paint-order="stroke" d="M 123.59237670898438 77.81818389892578 L 123.61410270817578 77.81818389892578 L 123.61410270817578 130.45454788208008 L 123.59237670898438 130.45454788208008 L 123.59237670898438 77.81818389892578" fill-opacity="1" clip-path="url(#UDIZkXSkktHk)"/><path fill="rgb(207,255,0)" stroke="none" paint-order="stroke" d="M 123.61409759521484 77.81818389892578 L 123.63454559445381 77.81818389892578 L 123.63454559445381 130.45454788208008 L 123.61409759521484 130.45454788208008 L 123.61409759521484 77.81818389892578" fill-opacity="1" clip-path="url(#UDIZkXSkktHk)"/><path fill="rgb(222,255,0)" stroke="none" paint-order="stroke" d="M 123.6345443725586 77.81818389892578 L 123.67671837285161 77.81818389892578 L 123.67671837285161 130.45454788208008 L 123.6345443725586 130.45454788208008 L 123.6345443725586 77.81818389892578" fill-opacity="1" clip-path="url(#UDIZkXSkktHk)"/><path fill="rgb(237,255,0)" stroke="none" paint-order="stroke" d="M 123.67671966552734 77.81818389892578 L 123.76234566420317 77.81818389892578 L 123.76234566420317 130.45454788208008 L 123.67671966552734 130.45454788208008 L 123.67671966552734 77.81818389892578" fill-opacity="1" clip-path="url(#UDIZkXSkktHk)"/><path fill="rgb(249,255,0)" stroke="none" paint-order="stroke" d="M 123.76234436035156 77.81818389892578 L 123.80451836064458 77.81818389892578 L 123.80451836064458 130.45454788208008 L 123.76234436035156 130.45454788208008 L 123.76234436035156 77.81818389892578" fill-opacity="1" clip-path="url(#UDIZkXSkktHk)"/><path fill="rgb(255,245,0)" stroke="none" paint-order="stroke" d="M 123.80451965332031 77.81818389892578 L 123.84669365361333 77.81818389892578 L 123.84669365361333 130.45454788208008 L 123.80451965332031 130.45454788208008 L 123.80451965332031 77.81818389892578" fill-opacity="1" clip-path="url(#UDIZkXSkktHk)"/><path fill="rgb(255,229,0)" stroke="none" paint-order="stroke" d="M 123.84669494628906 77.81818389892578 L 123.86842094548047 77.81818389892578 L 123.86842094548047 130.45454788208008 L 123.84669494628906 130.45454788208008 L 123.84669494628906 77.81818389892578" fill-opacity="1" clip-path="url(#UDIZkXSkktHk)"/><path fill="rgb(255,216,0)" stroke="none" paint-order="stroke" d="M 123.86842346191406 77.81818389892578 L 123.93104546517134 77.81818389892578 L 123.93104546517134 130.45454788208008 L 123.86842346191406 130.45454788208008 L 123.86842346191406 77.81818389892578" fill-opacity="1" clip-path="url(#UDIZkXSkktHk)"/><path fill="rgb(255,200,0)" stroke="none" paint-order="stroke" d="M 123.93104553222656 77.81818389892578 L 123.95277153141797 77.81818389892578 L 123.95277153141797 130.45454788208008 L 123.93104553222656 130.45454788208008 L 123.93104553222656 77.81818389892578" fill-opacity="1" clip-path="url(#UDIZkXSkktHk)"/><path fill="rgb(255,186,0)" stroke="none" paint-order="stroke" d="M 123.95276641845703 77.81818389892578 L 124.0166664198041 77.81818389892578 L 124.0166664198041 130.45454788208008 L 123.95276641845703 130.45454788208008 L 123.95276641845703 77.81818389892578" fill-opacity="1" clip-path="url(#UDIZkXSkktHk)"/><path fill="rgb(255,169,0)" stroke="none" paint-order="stroke" d="M 124.01667022705078 77.81818389892578 L 124.03839622624218 77.81818389892578 L 124.03839622624218 130.45454788208008 L 124.01667022705078 130.45454788208008 L 124.01667022705078 77.81818389892578" fill-opacity="1" clip-path="url(#UDIZkXSkktHk)"/><path fill="rgb(255,151,0)" stroke="none" paint-order="stroke" d="M 124.03839874267578 77.81818389892578 L 124.0805727429688 77.81818389892578 L 124.0805727429688 130.45454788208008 L 124.03839874267578 130.45454788208008 L 124.03839874267578 77.81818389892578" fill-opacity="1" clip-path="url(#UDIZkXSkktHk)"/><path fill="rgb(255,137,0)" stroke="none" paint-order="stroke" d="M 124.08056640625 77.81818389892578 L 124.1022924054414 77.81818389892578 L 124.1022924054414 130.45454788208008 L 124.08056640625 130.45454788208008 L 124.08056640625 77.81818389892578" fill-opacity="1" clip-path="url(#UDIZkXSkktHk)"/><path fill="rgb(255,118,0)" stroke="none" paint-order="stroke" d="M 124.102294921875 77.81818389892578 L 124.16491692513227 77.81818389892578 L 124.16491692513227 130.45454788208008 L 124.102294921875 130.45454788208008 L 124.102294921875 77.81818389892578" fill-opacity="1" clip-path="url(#UDIZkXSkktHk)"/><path fill="rgb(255,99,0)" stroke="none" paint-order="stroke" d="M 124.1649169921875 77.81818389892578 L 124.35406099259853 77.81818389892578 L 124.35406099259853 130.45454788208008 L 124.1649169921875 130.45454788208008 L 124.1649169921875 77.81818389892578" fill-opacity="1" clip-path="url(#UDIZkXSkktHk)"/><path fill="rgb(255,83,0)" stroke="none" paint-order="stroke" d="M 124.35406494140625 77.81818389892578 L 124.37579094059765 77.81818389892578 L 124.37579094059765 130.45454788208008 L 124.35406494140625 130.45454788208008 L 124.35406494140625 77.81818389892578" fill-opacity="1" clip-path="url(#UDIZkXSkktHk)"/><path fill="rgb(255,42,0)" stroke="none" paint-order="stroke" d="M 124.37578582763672 77.81818389892578 L 124.41795982792974 77.81818389892578 L 124.41795982792974 130.45454788208008 L 124.37578582763672 130.45454788208008 L 124.37578582763672 77.81818389892578" fill-opacity="1" clip-path="url(#UDIZkXSkktHk)"/><path fill="rgb(255,15,0)" stroke="none" paint-order="stroke" d="M 124.41796112060547 77.81818389892578 L 124.48313912004232 77.81818389892578 L 124.48313912004232 130.45454788208008 L 124.41796112060547 130.45454788208008 L 124.41796112060547 77.81818389892578" fill-opacity="1" clip-path="url(#UDIZkXSkktHk)"/><path fill="rgb(250,0,0)" stroke="none" paint-order="stroke" d="M 124.48313903808594 77.81818389892578 L 124.5035870373249 77.81818389892578 L 124.5035870373249 130.45454788208008 L 124.48313903808594 130.45454788208008 L 124.48313903808594 77.81818389892578" fill-opacity="1" clip-path="url(#UDIZkXSkktHk)"/><path fill="rgb(245,0,0)" stroke="none" paint-order="stroke" d="M 124.50358581542969 77.81818389892578 L 124.52531181462109 77.81818389892578 L 124.52531181462109 130.45454788208008 L 124.50358581542969 130.45454788208008 L 124.50358581542969 77.81818389892578" fill-opacity="1" clip-path="url(#UDIZkXSkktHk)"/><path fill="rgb(238,0,0)" stroke="none" paint-order="stroke" d="M 124.52531433105469 77.81818389892578 L 124.5674883313477 77.81818389892578 L 124.5674883313477 130.45454788208008 L 124.52531433105469 130.45454788208008 L 124.52531433105469 77.81818389892578" fill-opacity="1" clip-path="url(#UDIZkXSkktHk)"/><path fill="rgb(231,0,0)" stroke="none" paint-order="stroke" d="M 124.56748962402344 77.81818389892578 L 124.58921562321484 77.81818389892578 L 124.58921562321484 130.45454788208008 L 124.56748962402344 130.45454788208008 L 124.56748962402344 77.81818389892578" fill-opacity="1" clip-path="url(#UDIZkXSkktHk)"/><path fill="rgb(226,0,0)" stroke="none" paint-order="stroke" d="M 124.5892105102539 77.81818389892578 L 124.65183251351118 77.81818389892578 L 124.65183251351118 130.45454788208008 L 124.5892105102539 130.45454788208008 L 124.5892105102539 77.81818389892578" fill-opacity="1" clip-path="url(#UDIZkXSkktHk)"/><path fill="rgb(218,0,0)" stroke="none" paint-order="stroke" d="M 124.6518325805664 77.81818389892578 L 124.69400658085942 77.81818389892578 L 124.69400658085942 130.45454788208008 L 124.6518325805664 130.45454788208008 L 124.6518325805664 77.81818389892578" fill-opacity="1" clip-path="url(#UDIZkXSkktHk)"/><path fill="rgb(211,0,0)" stroke="none" paint-order="stroke" d="M 124.69400787353516 77.81818389892578 L 125.26655185222626 77.81818389892578 L 125.26655185222626 130.45454788208008 L 124.69400787353516 130.45454788208008 L 124.69400787353516 77.81818389892578" fill-opacity="1" clip-path="url(#UDIZkXSkktHk)"/><path fill="rgb(218,0,0)" stroke="none" paint-order="stroke" d="M 125.26655578613281 77.81818389892578 L 125.2933937869966 77.81818389892578 L 125.2933937869966 130.45454788208008 L 125.26655578613281 130.45454788208008 L 125.26655578613281 77.81818389892578" fill-opacity="1" clip-path="url(#UDIZkXSkktHk)"/><path fill="rgb(226,0,0)" stroke="none" paint-order="stroke" d="M 125.29338836669922 77.81818389892578 L 125.3304503671825 77.81818389892578 L 125.3304503671825 130.45454788208008 L 125.29338836669922 130.45454788208008 L 125.29338836669922 77.81818389892578" fill-opacity="1" clip-path="url(#UDIZkXSkktHk)"/><path fill="rgb(231,0,0)" stroke="none" paint-order="stroke" d="M 125.33045196533203 77.81818389892578 L 125.35217796452343 77.81818389892578 L 125.35217796452343 130.45454788208008 L 125.33045196533203 130.45454788208008 L 125.33045196533203 77.81818389892578" fill-opacity="1" clip-path="url(#UDIZkXSkktHk)"/><path fill="rgb(238,0,0)" stroke="none" paint-order="stroke" d="M 125.35218048095703 77.81818389892578 L 125.37390648014843 77.81818389892578 L 125.37390648014843 130.45454788208008 L 125.35218048095703 130.45454788208008 L 125.35218048095703 77.81818389892578" fill-opacity="1" clip-path="url(#UDIZkXSkktHk)"/><path fill="rgb(245,0,0)" stroke="none" paint-order="stroke" d="M 125.37390899658203 77.81818389892578 L 125.39563499577343 77.81818389892578 L 125.39563499577343 130.45454788208008 L 125.37390899658203 130.45454788208008 L 125.37390899658203 77.81818389892578" fill-opacity="1" clip-path="url(#UDIZkXSkktHk)"/><path fill="rgb(250,0,0)" stroke="none" paint-order="stroke" d="M 125.3956298828125 77.81818389892578 L 125.77391788363457 77.81818389892578 L 125.77391788363457 130.45454788208008 L 125.3956298828125 130.45454788208008 L 125.3956298828125 77.81818389892578" fill-opacity="1" clip-path="url(#UDIZkXSkktHk)"/><path fill="rgb(255,15,0)" stroke="none" paint-order="stroke" d="M 125.77391815185547 77.81818389892578 L 125.79564415104687 77.81818389892578 L 125.79564415104687 130.45454788208008 L 125.77391815185547 130.45454788208008 L 125.77391815185547 77.81818389892578" fill-opacity="1" clip-path="url(#UDIZkXSkktHk)"/><path fill="rgb(255,42,0)" stroke="none" paint-order="stroke" d="M 125.79564666748047 77.81818389892578 L 125.85954666882753 77.81818389892578 L 125.85954666882753 130.45454788208008 L 125.79564666748047 130.45454788208008 L 125.79564666748047 77.81818389892578" fill-opacity="1" clip-path="url(#UDIZkXSkktHk)"/><path fill="rgb(255,61,0)" stroke="none" paint-order="stroke" d="M 125.85954284667969 77.81818389892578 L 126.07169084250927 77.81818389892578 L 126.07169084250927 130.45454788208008 L 125.85954284667969 130.45454788208008 L 125.85954284667969 77.81818389892578" fill-opacity="1" clip-path="url(#UDIZkXSkktHk)"/><path fill="rgb(255,83,0)" stroke="none" paint-order="stroke" d="M 126.07169342041016 77.81818389892578 L 126.21994142234325 77.81818389892578 L 126.21994142234325 130.45454788208008 L 126.07169342041016 130.45454788208008 L 126.07169342041016 77.81818389892578" fill-opacity="1" clip-path="url(#UDIZkXSkktHk)"/><path fill="rgb(255,99,0)" stroke="none" paint-order="stroke" d="M 126.21994018554688 77.81818389892578 L 126.26211418583989 77.81818389892578 L 126.26211418583989 130.45454788208008 L 126.21994018554688 130.45454788208008 L 126.21994018554688 77.81818389892578" fill-opacity="1" clip-path="url(#UDIZkXSkktHk)"/><path fill="rgb(255,118,0)" stroke="none" paint-order="stroke" d="M 126.26211547851562 77.81818389892578 L 126.2825634777546 77.81818389892578 L 126.2825634777546 130.45454788208008 L 126.26211547851562 130.45454788208008 L 126.26211547851562 77.81818389892578" fill-opacity="1" clip-path="url(#UDIZkXSkktHk)"/><path fill="rgb(255,137,0)" stroke="none" paint-order="stroke" d="M 126.28256225585938 77.81818389892578 L 126.30428825505078 77.81818389892578 L 126.30428825505078 130.45454788208008 L 126.28256225585938 130.45454788208008 L 126.28256225585938 77.81818389892578" fill-opacity="1" clip-path="url(#UDIZkXSkktHk)"/><path fill="rgb(255,151,0)" stroke="none" paint-order="stroke" d="M 126.30429077148438 77.81818389892578 L 126.32857277058065 77.81818389892578 L 126.32857277058065 130.45454788208008 L 126.30429077148438 130.45454788208008 L 126.30429077148438 77.81818389892578" fill-opacity="1" clip-path="url(#UDIZkXSkktHk)"/><path fill="rgb(255,169,0)" stroke="none" paint-order="stroke" d="M 126.32857513427734 77.81818389892578 L 126.34774513356388 77.81818389892578 L 126.34774513356388 130.45454788208008 L 126.32857513427734 130.45454788208008 L 126.32857513427734 77.81818389892578" fill-opacity="1" clip-path="url(#UDIZkXSkktHk)"/><path fill="rgb(255,186,0)" stroke="none" paint-order="stroke" d="M 126.34774017333984 77.81818389892578 L 126.38991417363286 77.81818389892578 L 126.38991417363286 130.45454788208008 L 126.34774017333984 130.45454788208008 L 126.34774017333984 77.81818389892578" fill-opacity="1" clip-path="url(#UDIZkXSkktHk)"/><path fill="rgb(255,200,0)" stroke="none" paint-order="stroke" d="M 126.3899154663086 77.81818389892578 L 126.43208946660161 77.81818389892578 L 126.43208946660161 130.45454788208008 L 126.3899154663086 130.45454788208008 L 126.3899154663086 77.81818389892578" fill-opacity="1" clip-path="url(#UDIZkXSkktHk)"/><path fill="rgb(255,216,0)" stroke="none" paint-order="stroke" d="M 126.43209075927734 77.81818389892578 L 126.6020647585392 77.81818389892578 L 126.6020647585392 130.45454788208008 L 126.43209075927734 130.45454788208008 L 126.43209075927734 77.81818389892578" fill-opacity="1" clip-path="url(#UDIZkXSkktHk)"/><path fill="rgb(255,229,0)" stroke="none" paint-order="stroke" d="M 126.60206604003906 77.81818389892578 L 126.62251403927803 77.81818389892578 L 126.62251403927803 130.45454788208008 L 126.60206604003906 130.45454788208008 L 126.60206604003906 77.81818389892578" fill-opacity="1" clip-path="url(#UDIZkXSkktHk)"/><path fill="rgb(255,245,0)" stroke="none" paint-order="stroke" d="M 126.62251281738281 77.81818389892578 L 126.64296081662178 77.81818389892578 L 126.64296081662178 130.45454788208008 L 126.62251281738281 130.45454788208008 L 126.62251281738281 77.81818389892578" fill-opacity="1" clip-path="url(#UDIZkXSkktHk)"/><path fill="rgb(237,255,0)" stroke="none" paint-order="stroke" d="M 126.64295959472656 77.81818389892578 L 126.92028558254242 77.81818389892578 L 126.92028558254242 130.45454788208008 L 126.64295959472656 130.45454788208008 L 126.64295959472656 77.81818389892578" fill-opacity="1" clip-path="url(#UDIZkXSkktHk)"/><path fill="rgb(222,255,0)" stroke="none" paint-order="stroke" d="M 126.9202880859375 77.81818389892578 L 127.21550607681274 77.81818389892578 L 127.21550607681274 130.45454788208008 L 126.9202880859375 130.45454788208008 L 126.9202880859375 77.81818389892578" fill-opacity="1" clip-path="url(#UDIZkXSkktHk)"/><path fill="rgb(194,255,0)" stroke="none" paint-order="stroke" d="M 127.21550750732422 77.81818389892578 L 127.23595550656319 77.81818389892578 L 127.23595550656319 130.45454788208008 L 127.21550750732422 130.45454788208008 L 127.21550750732422 77.81818389892578" fill-opacity="1" clip-path="url(#UDIZkXSkktHk)"/><path fill="rgb(179,255,0)" stroke="none" paint-order="stroke" d="M 127.23595428466797 77.81818389892578 L 127.25768028385937 77.81818389892578 L 127.25768028385937 130.45454788208008 L 127.23595428466797 130.45454788208008 L 127.23595428466797 77.81818389892578" fill-opacity="1" clip-path="url(#UDIZkXSkktHk)"/><path fill="rgb(166,255,0)" stroke="none" paint-order="stroke" d="M 127.25767517089844 77.81818389892578 L 127.27940117008984 77.81818389892578 L 127.27940117008984 130.45454788208008 L 127.25767517089844 130.45454788208008 L 127.25767517089844 77.81818389892578" fill-opacity="1" clip-path="url(#UDIZkXSkktHk)"/><path fill="rgb(149,255,0)" stroke="none" paint-order="stroke" d="M 127.27940368652344 77.81818389892578 L 127.42637369036674 77.81818389892578 L 127.42637369036674 130.45454788208008 L 127.27940368652344 130.45454788208008 L 127.27940368652344 77.81818389892578" fill-opacity="1" clip-path="url(#UDIZkXSkktHk)"/><path fill="rgb(132,255,0)" stroke="none" paint-order="stroke" d="M 127.42637634277344 77.81818389892578 L 127.6819763481617 77.81818389892578 L 127.6819763481617 130.45454788208008 L 127.42637634277344 130.45454788208008 L 127.42637634277344 77.81818389892578" fill-opacity="1" clip-path="url(#UDIZkXSkktHk)"/><path fill="rgb(119,255,0)" stroke="none" paint-order="stroke" d="M 127.68197631835938 77.81818389892578 L 127.72415031865239 77.81818389892578 L 127.72415031865239 130.45454788208008 L 127.68197631835938 130.45454788208008 L 127.68197631835938 77.81818389892578" fill-opacity="1" clip-path="url(#UDIZkXSkktHk)"/><path fill="rgb(82,255,0)" stroke="none" paint-order="stroke" d="M 127.72415161132812 77.81818389892578 L 127.74587761051953 77.81818389892578 L 127.74587761051953 130.45454788208008 L 127.72415161132812 130.45454788208008 L 127.72415161132812 77.81818389892578" fill-opacity="1" clip-path="url(#UDIZkXSkktHk)"/><path fill="rgb(66,255,0)" stroke="none" paint-order="stroke" d="M 127.7458724975586 77.81818389892578 L 127.76632049679756 77.81818389892578 L 127.76632049679756 130.45454788208008 L 127.7458724975586 130.45454788208008 L 127.7458724975586 77.81818389892578" fill-opacity="1" clip-path="url(#UDIZkXSkktHk)"/><path fill="rgb(44,255,0)" stroke="none" paint-order="stroke" d="M 127.76631927490234 77.81818389892578 L 128.02064126729965 77.81818389892578 L 128.02064126729965 130.45454788208008 L 127.76631927490234 130.45454788208008 L 127.76631927490234 77.81818389892578" fill-opacity="1" clip-path="url(#UDIZkXSkktHk)"/><path fill="rgb(0,255,23)" stroke="none" paint-order="stroke" d="M 128.02064514160156 77.81818389892578 L 128.06409713998437 77.81818389892578 L 128.06409713998437 130.45454788208008 L 128.02064514160156 130.45454788208008 L 128.02064514160156 77.81818389892578" fill-opacity="1" clip-path="url(#UDIZkXSkktHk)"/><path fill="rgb(0,255,97)" stroke="none" paint-order="stroke" d="M 128.06409454345703 77.81818389892578 L 128.084542542696 77.81818389892578 L 128.084542542696 130.45454788208008 L 128.06409454345703 130.45454788208008 L 128.06409454345703 77.81818389892578" fill-opacity="1" clip-path="url(#UDIZkXSkktHk)"/><path fill="rgb(0,255,146)" stroke="none" paint-order="stroke" d="M 128.08454132080078 77.81818389892578 L 128.1267153210938 77.81818389892578 L 128.1267153210938 130.45454788208008 L 128.08454132080078 130.45454788208008 L 128.08454132080078 77.81818389892578" fill-opacity="1" clip-path="url(#UDIZkXSkktHk)"/><path fill="rgb(0,255,202)" stroke="none" paint-order="stroke" d="M 128.12671661376953 77.81818389892578 L 128.14844261296093 77.81818389892578 L 128.14844261296093 130.45454788208008 L 128.12671661376953 130.45454788208008 L 128.12671661376953 77.81818389892578" fill-opacity="1" clip-path="url(#UDIZkXSkktHk)"/><path fill="rgb(0,255,255)" stroke="none" paint-order="stroke" d="M 128.14844512939453 77.81818389892578 L 128.2110671326518 77.81818389892578 L 128.2110671326518 130.45454788208008 L 128.14844512939453 130.45454788208008 L 128.14844512939453 77.81818389892578" fill-opacity="1" clip-path="url(#UDIZkXSkktHk)"/><path fill="rgb(0,217,255)" stroke="none" paint-order="stroke" d="M 128.21106719970703 77.81818389892578 L 178.06073379516602 77.81818389892578 L 178.06073379516602 130.45454788208008 L 128.21106719970703 130.45454788208008 L 128.21106719970703 77.81818389892578" fill-opacity="1" clip-path="url(#UDIZkXSkktHk)"/><path fill="rgb(42,0,238)" stroke="none" paint-order="stroke" d="M 178.06072998046875 77.81818389892578 L 185.13573789596558 77.81818389892578 L 185.13573789596558 130.45454788208008 L 178.06072998046875 130.45454788208008 L 178.06072998046875 77.81818389892578" fill-opacity="1" clip-path="url(#UDIZkXSkktHk)"/><path fill="rgb(143,255,0)" stroke="none" paint-order="stroke" d="M 185.1357421875 77.81818389892578 L 197.12593841552734 77.81818389892578 L 197.12593841552734 130.45454788208008 L 185.1357421875 130.45454788208008 L 185.1357421875 77.81818389892578" fill-opacity="1" clip-path="url(#UDIZkXSkktHk)"/><path fill="rgb(251,0,7)" stroke="none" paint-order="stroke" d="M 58.5 130.4545440673828 L 113.43994140625 130.4545440673828 L 113.43994140625 183.0909080505371 L 58.5 183.0909080505371 L 58.5 130.4545440673828" fill-opacity="1" clip-path="url(#uNvcSJwOPvrZ)"/><path fill="rgb(56,126,34)" stroke="none" paint-order="stroke" d="M 113.43994140625 130.4545440673828 L 185.1357421875 130.4545440673828 L 185.1357421875 183.0909080505371 L 113.43994140625 183.0909080505371 L 113.43994140625 130.4545440673828" fill-opacity="1" clip-path="url(#uNvcSJwOPvrZ)"/><path fill="rgb(62,0,101)" stroke="none" paint-order="stroke" d="M 185.1357421875 130.4545440673828 L 197.12593841552734 130.4545440673828 L 197.12593841552734 183.0909080505371 L 185.1357421875 183.0909080505371 L 185.1357421875 130.4545440673828" fill-opacity="1" clip-path="url(#uNvcSJwOPvrZ)"/><path fill="rgb(105,29,48)" stroke="none" paint-order="stroke" d="M 77.9345474243164 183.09091186523438 L 77.99844742566347 183.09091186523438 L 77.99844742566347 498.9090881347656 L 77.9345474243164 498.9090881347656 L 77.9345474243164 183.09091186523438" fill-opacity="1" clip-path="url(#shTiSCJRXAKc)"/><path fill="rgb(105,29,48)" stroke="none" paint-order="stroke" d="M 175.6862030029297 183.09091186523438 L 175.75010300427675 183.09091186523438 L 175.75010300427675 498.9090881347656 L 175.6862030029297 498.9090881347656 L 175.6862030029297 183.09091186523438" fill-opacity="1" clip-path="url(#shTiSCJRXAKc)"/><path fill="rgb(105,29,48)" stroke="none" paint-order="stroke" d="M 189.622802734375 183.09091186523438 L 189.68670273572206 183.09091186523438 L 189.68670273572206 498.9090881347656 L 189.622802734375 498.9090881347656 L 189.622802734375 183.09091186523438" fill-opacity="1" clip-path="url(#shTiSCJRXAKc)"/><path fill="rgb(255,188,66)" stroke="none" paint-order="stroke" d="M 129.8865203857422 183.09091186523438 L 134.76464653015137 183.09091186523438 L 134.76464653015137 498.9090881347656 L 129.8865203857422 498.9090881347656 L 129.8865203857422 183.09091186523438" fill-opacity="1" clip-path="url(#GzGhFmCyVfBW)"/><path fill="rgb(162,174,187)" stroke="none" paint-order="stroke" d="M 91.24108123779297 183.09091186523438 L 91.30498123914003 183.09091186523438 L 91.30498123914003 498.9090881347656 L 91.24108123779297 498.9090881347656 L 91.24108123779297 183.09091186523438" fill-opacity="1" clip-path="url(#cgaUoHfhAKVB)"/><path fill="rgb(216,17,89)" stroke="none" paint-order="stroke" d="M 118.38069152832031 183.09091186523438 L 118.44459152966738 183.09091186523438 L 118.44459152966738 498.9090881347656 L 118.38069152832031 498.9090881347656 L 118.38069152832031 183.09091186523438" fill-opacity="1" clip-path="url(#KfMkTSKlmFrb)"/><path fill="rgb(216,17,89)" stroke="none" paint-order="stroke" d="M 178.06072998046875 183.09091186523438 L 178.12462998181581 183.09091186523438 L 178.12462998181581 498.9090881347656 L 178.06072998046875 498.9090881347656 L 178.06072998046875 183.09091186523438" fill-opacity="1" clip-path="url(#KfMkTSKlmFrb)"/><path fill="rgb(33,131,128)" stroke="none" paint-order="stroke" d="M 110.65390014648438 183.09091186523438 L 113.4399402141571 183.09091186523438 L 113.4399402141571 498.9090881347656 L 110.65390014648438 498.9090881347656 L 110.65390014648438 183.09091186523438" fill-opacity="1" clip-path="url(#NwzcyuRohCKU)"/><path fill="rgb(33,131,128)" stroke="none" paint-order="stroke" d="M 182.92608642578125 183.09091186523438 L 185.13574838638306 183.09091186523438 L 185.13574838638306 498.9090881347656 L 182.92608642578125 498.9090881347656 L 182.92608642578125 183.09091186523438" fill-opacity="1" clip-path="url(#NwzcyuRohCKU)"/><path fill="rgb(115,210,222)" stroke="none" paint-order="stroke" d="M 105.24285125732422 183.09091186523438 L 107.46145915985107 183.09091186523438 L 107.46145915985107 498.9090881347656 L 105.24285125732422 498.9090881347656 L 105.24285125732422 183.09091186523438" fill-opacity="1" clip-path="url(#ylBUNhSPKHIb)"/><path fill="rgb(115,210,222)" stroke="none" paint-order="stroke" d="M 193.1935272216797 183.09091186523438 L 193.25742722302675 183.09091186523438 L 193.25742722302675 498.9090881347656 L 193.1935272216797 498.9090881347656 L 193.1935272216797 183.09091186523438" fill-opacity="1" clip-path="url(#ylBUNhSPKHIb)"/><path fill="rgb(115,210,222)" stroke="none" paint-order="stroke" d="M 194.0855712890625 183.09091186523438 L 194.14947129040956 183.09091186523438 L 194.14947129040956 498.9090881347656 L 194.0855712890625 498.9090881347656 L 194.0855712890625 183.09091186523438" fill-opacity="1" clip-path="url(#ylBUNhSPKHIb)"/><path fill="rgb(115,210,222)" stroke="none" paint-order="stroke" d="M 194.86770629882812 183.09091186523438 L 195.01339830458164 183.09091186523438 L 195.01339830458164 498.9090881347656 L 194.86770629882812 498.9090881347656 L 194.86770629882812 183.09091186523438" fill-opacity="1" clip-path="url(#ylBUNhSPKHIb)"/><path fill="rgb(115,210,222)" stroke="none" paint-order="stroke" d="M 195.8568878173828 183.09091186523438 L 196.02047181129456 183.09091186523438 L 196.02047181129456 498.9090881347656 L 195.8568878173828 498.9090881347656 L 195.8568878173828 183.09091186523438" fill-opacity="1" clip-path="url(#ylBUNhSPKHIb)"/><path fill="rgb(115,210,222)" stroke="none" paint-order="stroke" d="M 196.97386169433594 183.09091186523438 L 197.1259436905384 183.09091186523438 L 197.1259436905384 498.9090881347656 L 196.97386169433594 498.9090881347656 L 196.97386169433594 183.09091186523438" fill-opacity="1" clip-path="url(#ylBUNhSPKHIb)"/><path fill="rgb(28,49,68)" stroke="none" paint-order="stroke" d="M 83.35198974609375 183.09091186523438 L 87.65757179260254 183.09091186523438 L 87.65757179260254 498.9090881347656 L 83.35198974609375 498.9090881347656 L 83.35198974609375 183.09091186523438" fill-opacity="1" clip-path="url(#DXdRKeRTCBkM)"/><path fill="rgb(28,49,68)" stroke="none" paint-order="stroke" d="M 136.2496795654297 183.09091186523438 L 136.31357956677675 183.09091186523438 L 136.31357956677675 498.9090881347656 L 136.2496795654297 498.9090881347656 L 136.2496795654297 183.09091186523438" fill-opacity="1" clip-path="url(#DXdRKeRTCBkM)"/><path fill="rgb(239,185,203)" stroke="none" paint-order="stroke" d="M 58.5 183.09091186523438 L 64.27528190612793 183.09091186523438 L 64.27528190612793 498.9090881347656 L 58.5 498.9090881347656 L 58.5 183.09091186523438" fill-opacity="1" clip-path="url(#UDMgTfHVlhwt)"/><path fill="rgb(239,185,203)" stroke="none" paint-order="stroke" d="M 169.75885009765625 183.09091186523438 L 173.3001880645752 183.09091186523438 L 173.3001880645752 498.9090881347656 L 169.75885009765625 498.9090881347656 L 169.75885009765625 183.09091186523438" fill-opacity="1" clip-path="url(#UDMgTfHVlhwt)"/><path fill="rgb(105,29,48)" stroke="none" paint-order="stroke" d="M 120.70793151855469 183.09091186523438 L 128.93569564819336 183.09091186523438 L 128.93569564819336 498.9090881347656 L 120.70793151855469 498.9090881347656 L 120.70793151855469 183.09091186523438" fill-opacity="1" clip-path="url(#GpWZqDLBwMGA)"/><path fill="rgb(255,188,66)" stroke="none" paint-order="stroke" d="M 134.33523559570312 498.9090881347656 L 197.1259307861328 498.9090881347656 L 197.1259307861328 551.5454521179199 L 134.33523559570312 551.5454521179199 L 134.33523559570312 498.9090881347656" fill-opacity="1" clip-path="url(#HQPOXvpzKXAV)"/><path fill="rgb(143,45,86)" stroke="none" paint-order="stroke" d="M 58.5 551.5454711914062 L 77.93454551696777 551.5454711914062 L 77.93454551696777 604.1818351745605 L 58.5 604.1818351745605 L 58.5 551.5454711914062" fill-opacity="1" clip-path="url(#tvkKtCimRECd)"/><path fill="rgb(63,136,197)" stroke="none" paint-order="stroke" d="M 77.9345474243164 551.5454711914062 L 91.2410831451416 551.5454711914062 L 91.2410831451416 604.1818351745605 L 77.9345474243164 604.1818351745605 L 77.9345474243164 551.5454711914062" fill-opacity="1" clip-path="url(#tvkKtCimRECd)"/><path fill="rgb(81,60,99)" stroke="none" paint-order="stroke" d="M 91.24108123779297 551.5454711914062 L 175.68621063232422 551.5454711914062 L 175.68621063232422 604.1818351745605 L 91.24108123779297 604.1818351745605 L 91.24108123779297 551.5454711914062" fill-opacity="1" clip-path="url(#tvkKtCimRECd)"/><path fill="rgb(143,45,86)" stroke="none" paint-order="stroke" d="M 175.6862030029297 551.5454711914062 L 189.62279319763184 551.5454711914062 L 189.62279319763184 604.1818351745605 L 175.6862030029297 604.1818351745605 L 175.6862030029297 551.5454711914062" fill-opacity="1" clip-path="url(#tvkKtCimRECd)"/><path fill="rgb(81,60,99)" stroke="none" paint-order="stroke" d="M 189.622802734375 551.5454711914062 L 197.12594079971313 551.5454711914062 L 197.12594079971313 604.1818351745605 L 189.622802734375 604.1818351745605 L 189.622802734375 551.5454711914062" fill-opacity="1" clip-path="url(#tvkKtCimRECd)"/><path fill="none" stroke="rgb(0,0,0)" paint-order="fill" d="M 58.5 77.81818389892578 L 197.1259307861328 77.81818389892578 L 197.1259307861328 604.1818313598633 L 58.5 604.1818313598633 L 58.5 77.81818389892578" stroke-opacity="1" stroke-linejoin="bevel" stroke-miterlimit="10" stroke-dasharray="" clip-path="url(#TfiliqKXnnri)"/><path fill="none" stroke="rgb(0,0,0)" paint-order="fill" d="M 58.5 630.5 L 1336.5 630.5" stroke-opacity="1" stroke-linejoin="bevel" stroke-miterlimit="10" stroke-dasharray=""/><path fill="none" stroke="rgb(0,0,0)" paint-order="fill" d="M 58.5 636.5 L 58.5 628.5 M 314.5 636.5 L 314.5 628.5 M 569.5 636.5 L 569.5 628.5 M 825.5 636.5 L 825.5 628.5 M 1080.5 636.5 L 1080.5 628.5 M 1336.5 636.5 L 1336.5 628.5" stroke-opacity="1" stroke-linejoin="bevel" stroke-miterlimit="10" stroke-dasharray=""/><path fill="none" stroke="rgb(0,0,0)" paint-order="fill" d="M 58.5 634.5 L 58.5 630.5 M 109.5 634.5 L 109.5 630.5 M 160.5 634.5 L 160.5 630.5 M 211.5 634.5 L 211.5 630.5 M 262.5 634.5 L 262.5 630.5 M 314.5 634.5 L 314.5 630.5 M 365.5 634.5 L 365.5 630.5 M 416.5 634.5 L 416.5 630.5 M 467.5 634.5 L 467.5 630.5 M 518.5 634.5 L 518.5 630.5 M 569.5 634.5 L 569.5 630.5 M 620.5 634.5 L 620.5 630.5 M 671.5 634.5 L 671.5 630.5 M 723.5 634.5 L 723.5 630.5 M 774.5 634.5 L 774.5 630.5 M 825.5 634.5 L 825.5 630.5 M 876.5 634.5 L 876.5 630.5 M 927.5 634.5 L 927.5 630.5 M 978.5 634.5 L 978.5 630.5 M 1029.5 634.5 L 1029.5 630.5 M 1080.5 634.5 L 1080.5 630.5 M 1132.5 634.5 L 1132.5 630.5 M 1183.5 634.5 L 1183.5 630.5 M 1234.5 634.5 L 1234.5 630.5 M 1285.5 634.5 L 1285.5 630.5 M 1336.5 634.5 L 1336.5 630.5" stroke-opacity="1" stroke-linejoin="bevel" stroke-miterlimit="10" stroke-dasharray=""/><text fill="rgb(68,68,68)" stroke="none" font-family="helvetica" font-size="11px" font-style="normal" font-weight="normal" text-decoration="normal" x="54.94166660308838" y="648.89013671875" text-anchor="start" dominant-baseline="alphabetic" transform="matrix(1, 0, 0, 1, 0.5, 0.5)" fill-opacity="1">0</text><text fill="rgb(68,68,68)" stroke="none" font-family="helvetica" font-size="11px" font-style="normal" font-weight="normal" text-decoration="normal" x="304.42500591278076" y="648.89013671875" text-anchor="start" dominant-baseline="alphabetic" transform="matrix(1, 0, 0, 1, 0.5, 0.5)" fill-opacity="1">200</text><text fill="rgb(68,68,68)" stroke="none" font-family="helvetica" font-size="11px" font-style="normal" font-weight="normal" text-decoration="normal" x="560.0250120162964" y="648.89013671875" text-anchor="start" dominant-baseline="alphabetic" transform="matrix(1, 0, 0, 1, 0.5, 0.5)" fill-opacity="1">400</text><text fill="rgb(68,68,68)" stroke="none" font-family="helvetica" font-size="11px" font-style="normal" font-weight="normal" text-decoration="normal" x="815.6249876022339" y="648.89013671875" text-anchor="start" dominant-baseline="alphabetic" transform="matrix(1, 0, 0, 1, 0.5, 0.5)" fill-opacity="1">600</text><text fill="rgb(68,68,68)" stroke="none" font-family="helvetica" font-size="11px" font-style="normal" font-weight="normal" text-decoration="normal" x="1071.2250242233276" y="648.89013671875" text-anchor="start" dominant-baseline="alphabetic" transform="matrix(1, 0, 0, 1, 0.5, 0.5)" fill-opacity="1">800</text><text fill="rgb(68,68,68)" stroke="none" font-family="helvetica" font-size="11px" font-style="normal" font-weight="normal" text-decoration="normal" x="1323.7666664123535" y="648.89013671875" text-anchor="start" dominant-baseline="alphabetic" transform="matrix(1, 0, 0, 1, 0.5, 0.5)" fill-opacity="1">1000</text><text fill="rgb(68,68,68)" stroke="none" font-family="helvetica" font-size="15pt" font-style="italic" font-weight="normal" text-decoration="normal" x="666.4416675567627" y="676.06982421875" text-anchor="start" dominant-baseline="alphabetic" transform="matrix(1, 0, 0, 1, 0.5, 0.5)" fill-opacity="1">time(s)</text><path fill="none" stroke="rgb(0,0,0)" paint-order="fill" d="M 58.5 630.5 L 58.5 51.5" stroke-opacity="1" stroke-linejoin="bevel" stroke-miterlimit="10" stroke-dasharray=""/><path fill="none" stroke="rgb(0,0,0)" paint-order="fill" d="M 52.5 551.5 L 60.5 551.5 M 52.5 446.5 L 60.5 446.5 M 52.5 341.5 L 60.5 341.5 M 52.5 235.5 L 60.5 235.5 M 52.5 130.5 L 60.5 130.5" stroke-opacity="1" stroke-linejoin="bevel" stroke-miterlimit="10" stroke-dasharray=""/><path fill="none" stroke="rgb(0,0,0)" paint-order="fill" d="M 54.5 572.5 L 58.5 572.5 M 54.5 593.5 L 58.5 593.5 M 54.5 614.5 L 58.5 614.5 M 54.5 551.5 L 58.5 551.5 M 54.5 530.5 L 58.5 530.5 M 54.5 509.5 L 58.5 509.5 M 54.5 488.5 L 58.5 488.5 M 54.5 467.5 L 58.5 467.5 M 54.5 446.5 L 58.5 446.5 M 54.5 425.5 L 58.5 425.5 M 54.5 404.5 L 58.5 404.5 M 54.5 383.5 L 58.5 383.5 M 54.5 362.5 L 58.5 362.5 M 54.5 341.5 L 58.5 341.5 M 54.5 319.5 L 58.5 319.5 M 54.5 298.5 L 58.5 298.5 M 54.5 277.5 L 58.5 277.5 M 54.5 256.5 L 58.5 256.5 M 54.5 235.5 L 58.5 235.5 M 54.5 214.5 L 58.5 214.5 M 54.5 193.5 L 58.5 193.5 M 54.5 172.5 L 58.5 172.5 M 54.5 151.5 L 58.5 151.5 M 54.5 130.5 L 58.5 130.5 M 54.5 109.5 L 58.5 109.5 M 54.5 88.5 L 58.5 88.5 M 54.5 67.5 L 58.5 67.5" stroke-opacity="1" stroke-linejoin="bevel" stroke-miterlimit="10" stroke-dasharray=""/><text fill="rgb(68,68,68)" stroke="none" font-family="helvetica" font-size="11px" font-style="normal" font-weight="normal" text-decoration="normal" x="34.46666622161865" y="554.9905395507812" text-anchor="start" dominant-baseline="alphabetic" transform="matrix(1, 0, 0, 1, 0.5, 0.5)" fill-opacity="1">−2</text><text fill="rgb(68,68,68)" stroke="none" font-family="helvetica" font-size="11px" font-style="normal" font-weight="normal" text-decoration="normal" x="34.46666622161865" y="449.7178039550781" text-anchor="start" dominant-baseline="alphabetic" transform="matrix(1, 0, 0, 1, 0.5, 0.5)" fill-opacity="1">−1</text><text fill="rgb(68,68,68)" stroke="none" font-family="helvetica" font-size="11px" font-style="normal" font-weight="normal" text-decoration="normal" x="40.88333320617676" y="344.445068359375" text-anchor="start" dominant-baseline="alphabetic" transform="matrix(1, 0, 0, 1, 0.5, 0.5)" fill-opacity="1">0</text><text fill="rgb(68,68,68)" stroke="none" font-family="helvetica" font-size="11px" font-style="normal" font-weight="normal" text-decoration="normal" x="40.88333320617676" y="239.17234802246094" text-anchor="start" dominant-baseline="alphabetic" transform="matrix(1, 0, 0, 1, 0.5, 0.5)" fill-opacity="1">1</text><text fill="rgb(68,68,68)" stroke="none" font-family="helvetica" font-size="11px" font-style="normal" font-weight="normal" text-decoration="normal" x="40.88333320617676" y="133.8996124267578" text-anchor="start" dominant-baseline="alphabetic" transform="matrix(1, 0, 0, 1, 0.5, 0.5)" fill-opacity="1">2</text><text fill="rgb(68,68,68)" stroke="none" font-family="helvetica" font-size="15pt" font-style="italic" font-weight="normal" text-decoration="normal" x="-11.316666603088379" y="336.076171875" text-anchor="start" dominant-baseline="alphabetic" transform="matrix(6.123233995736766e-17, -1, 1, 6.123233995736766e-17, -313.53333377838135, 367.46666622161865)" fill-opacity="1">students</text><path fill="rgb(255,255,255)" stroke="rgb(229,229,229)" paint-order="fill" d="M 1128.2333374023438 61.5 L 1326.5 61.5 L 1326.5 400.5 L 1128.2333374023438 400.5 L 1128.2333374023438 61.5" fill-opacity="0.9490196078431372" clip-path="url(#gGrfJQGNDRZT)" stroke-opacity="0.5019607843137255" stroke-linejoin="bevel" stroke-miterlimit="10" stroke-dasharray=""/><text fill="rgb(68,68,68)" stroke="none" font-family="helvetica" font-size="13px" font-style="normal" font-weight="normal" text-decoration="normal" x="1162.7333374023438" y="81" text-anchor="start" dominant-baseline="central" clip-path="url(#gGrfJQGNDRZT)" transform="matrix(1, 0, 0, 1, 0.5, 0.5)" fill-opacity="1">wavelength</text><path fill="rgb(0,255,40)" stroke="none" paint-order="stroke" d="M 1140.2333374023438 73.5 L 1156.2333374023438 73.5 L 1156.2333374023438 89.5 L 1140.2333374023438 89.5 L 1140.2333374023438 73.5" fill-opacity="1" clip-path="url(#gGrfJQGNDRZT)"/><path fill="rgb(216,17,89)" stroke="none" paint-order="stroke" d="M 1140.2333374023438 73.5 L 1156.2333374023438 73.5 L 1156.2333374023438 89.5 L 1140.2333374023438 89.5 L 1140.2333374023438 73.5" fill-opacity="1" clip-path="url(#gGrfJQGNDRZT)"/><text fill="rgb(68,68,68)" stroke="none" font-family="helvetica" font-size="13px" font-style="normal" font-weight="normal" text-decoration="normal" x="1162.7333374023438" y="104" text-anchor="start" dominant-baseline="central" clip-path="url(#gGrfJQGNDRZT)" transform="matrix(1, 0, 0, 1, 0.5, 0.5)" fill-opacity="1">solution</text><path fill="rgb(251,0,7)" stroke="none" paint-order="stroke" d="M 1140.2333374023438 96.5 L 1156.2333374023438 96.5 L 1156.2333374023438 112.5 L 1140.2333374023438 112.5 L 1140.2333374023438 96.5" fill-opacity="1" clip-path="url(#gGrfJQGNDRZT)"/><path fill="rgb(33,131,128)" stroke="none" paint-order="stroke" d="M 1140.2333374023438 96.5 L 1156.2333374023438 96.5 L 1156.2333374023438 112.5 L 1140.2333374023438 112.5 L 1140.2333374023438 96.5" fill-opacity="1" clip-path="url(#gGrfJQGNDRZT)"/><text fill="rgb(68,68,68)" stroke="none" font-family="helvetica" font-size="13px" font-style="normal" font-weight="normal" text-decoration="normal" x="1162.7333374023438" y="127" text-anchor="start" dominant-baseline="central" clip-path="url(#gGrfJQGNDRZT)" transform="matrix(1, 0, 0, 1, 0.5, 0.5)" fill-opacity="1">laser</text><path fill="rgb(105,29,48)" stroke="none" paint-order="stroke" d="M 1140.2333374023438 119.5 L 1156.2333374023438 119.5 L 1156.2333374023438 135.5 L 1140.2333374023438 135.5 L 1140.2333374023438 119.5" fill-opacity="1" clip-path="url(#gGrfJQGNDRZT)"/><text fill="rgb(68,68,68)" stroke="none" font-family="helvetica" font-size="13px" font-style="normal" font-weight="normal" text-decoration="normal" x="1162.7333374023438" y="150" text-anchor="start" dominant-baseline="central" clip-path="url(#gGrfJQGNDRZT)" transform="matrix(1, 0, 0, 1, 0.5, 0.5)" fill-opacity="1">ruler</text><path fill="rgb(255,188,66)" stroke="none" paint-order="stroke" d="M 1140.2333374023438 142.5 L 1156.2333374023438 142.5 L 1156.2333374023438 158.5 L 1140.2333374023438 158.5 L 1140.2333374023438 142.5" fill-opacity="1" clip-path="url(#gGrfJQGNDRZT)"/><text fill="rgb(68,68,68)" stroke="none" font-family="helvetica" font-size="13px" font-style="normal" font-weight="normal" text-decoration="normal" x="1162.7333374023438" y="173" text-anchor="start" dominant-baseline="central" clip-path="url(#gGrfJQGNDRZT)" transform="matrix(1, 0, 0, 1, 0.5, 0.5)" fill-opacity="1">restarts</text><text fill="rgb(68,68,68)" stroke="none" font-family="helvetica" font-size="13px" font-style="normal" font-weight="normal" text-decoration="normal" x="1162.7333374023438" y="196" text-anchor="start" dominant-baseline="central" clip-path="url(#gGrfJQGNDRZT)" transform="matrix(1, 0, 0, 1, 0.5, 0.5)" fill-opacity="1">transmittance_absorbance</text><path fill="rgb(162,174,187)" stroke="none" paint-order="stroke" d="M 1140.2333374023438 188.5 L 1156.2333374023438 188.5 L 1156.2333374023438 204.5 L 1140.2333374023438 204.5 L 1140.2333374023438 188.5" fill-opacity="1" clip-path="url(#gGrfJQGNDRZT)"/><text fill="rgb(68,68,68)" stroke="none" font-family="helvetica" font-size="13px" font-style="normal" font-weight="normal" text-decoration="normal" x="1162.7333374023438" y="219" text-anchor="start" dominant-baseline="central" clip-path="url(#gGrfJQGNDRZT)" transform="matrix(1, 0, 0, 1, 0.5, 0.5)" fill-opacity="1">magnifier</text><text fill="rgb(68,68,68)" stroke="none" font-family="helvetica" font-size="13px" font-style="normal" font-weight="normal" text-decoration="normal" x="1162.7333374023438" y="242" text-anchor="start" dominant-baseline="central" clip-path="url(#gGrfJQGNDRZT)" transform="matrix(1, 0, 0, 1, 0.5, 0.5)" fill-opacity="1">concentration</text><path fill="rgb(115,210,222)" stroke="none" paint-order="stroke" d="M 1140.2333374023438 234.5 L 1156.2333374023438 234.5 L 1156.2333374023438 250.5 L 1140.2333374023438 250.5 L 1140.2333374023438 234.5" fill-opacity="1" clip-path="url(#gGrfJQGNDRZT)"/><text fill="rgb(68,68,68)" stroke="none" font-family="helvetica" font-size="13px" font-style="normal" font-weight="normal" text-decoration="normal" x="1162.7333374023438" y="265" text-anchor="start" dominant-baseline="central" clip-path="url(#gGrfJQGNDRZT)" transform="matrix(1, 0, 0, 1, 0.5, 0.5)" fill-opacity="1">flask</text><path fill="rgb(28,49,68)" stroke="none" paint-order="stroke" d="M 1140.2333374023438 257.5 L 1156.2333374023438 257.5 L 1156.2333374023438 273.5 L 1140.2333374023438 273.5 L 1140.2333374023438 257.5" fill-opacity="1" clip-path="url(#gGrfJQGNDRZT)"/><text fill="rgb(68,68,68)" stroke="none" font-family="helvetica" font-size="13px" font-style="normal" font-weight="normal" text-decoration="normal" x="1162.7333374023438" y="288" text-anchor="start" dominant-baseline="central" clip-path="url(#gGrfJQGNDRZT)" transform="matrix(1, 0, 0, 1, 0.5, 0.5)" fill-opacity="1">pdf</text><path fill="rgb(239,185,203)" stroke="none" paint-order="stroke" d="M 1140.2333374023438 280.5 L 1156.2333374023438 280.5 L 1156.2333374023438 296.5 L 1140.2333374023438 296.5 L 1140.2333374023438 280.5" fill-opacity="1" clip-path="url(#gGrfJQGNDRZT)"/><text fill="rgb(68,68,68)" stroke="none" font-family="helvetica" font-size="13px" font-style="normal" font-weight="normal" text-decoration="normal" x="1162.7333374023438" y="311" text-anchor="start" dominant-baseline="central" clip-path="url(#gGrfJQGNDRZT)" transform="matrix(1, 0, 0, 1, 0.5, 0.5)" fill-opacity="1">concentrationlab</text><text fill="rgb(68,68,68)" stroke="none" font-family="helvetica" font-size="13px" font-style="normal" font-weight="normal" text-decoration="normal" x="1162.7333374023438" y="334" text-anchor="start" dominant-baseline="central" clip-path="url(#gGrfJQGNDRZT)" transform="matrix(1, 0, 0, 1, 0.5, 0.5)" fill-opacity="1">wavelength_slider</text><path fill="rgb(105,29,48)" stroke="none" paint-order="stroke" d="M 1140.2333374023438 326.5 L 1156.2333374023438 326.5 L 1156.2333374023438 342.5 L 1140.2333374023438 342.5 L 1140.2333374023438 326.5" fill-opacity="1" clip-path="url(#gGrfJQGNDRZT)"/><text fill="rgb(68,68,68)" stroke="none" font-family="helvetica" font-size="13px" font-style="normal" font-weight="normal" text-decoration="normal" x="1162.7333374023438" y="357" text-anchor="start" dominant-baseline="central" clip-path="url(#gGrfJQGNDRZT)" transform="matrix(1, 0, 0, 1, 0.5, 0.5)" fill-opacity="1">ruler measuring</text><path fill="rgb(255,188,66)" stroke="none" paint-order="stroke" d="M 1140.2333374023438 349.5 L 1156.2333374023438 349.5 L 1156.2333374023438 365.5 L 1140.2333374023438 365.5 L 1140.2333374023438 349.5" fill-opacity="1" clip-path="url(#gGrfJQGNDRZT)"/><text fill="rgb(68,68,68)" stroke="none" font-family="helvetica" font-size="13px" font-style="normal" font-weight="normal" text-decoration="normal" x="1162.7333374023438" y="380" text-anchor="start" dominant-baseline="central" clip-path="url(#gGrfJQGNDRZT)" transform="matrix(1, 0, 0, 1, 0.5, 0.5)" fill-opacity="1">dependent variable</text><path fill="rgb(143,45,86)" stroke="none" paint-order="stroke" d="M 1140.2333374023438 372.5 L 1156.2333374023438 372.5 L 1156.2333374023438 388.5 L 1140.2333374023438 388.5 L 1140.2333374023438 372.5" fill-opacity="1" clip-path="url(#gGrfJQGNDRZT)"/><text fill="rgb(68,68,68)" stroke="none" font-family="helvetica" font-size="25pt" font-style="normal" font-weight="bold" text-decoration="normal" x="58" y="38.740885416666664" text-anchor="start" dominant-baseline="alphabetic" transform="matrix(1, 0, 0, 1, 0.5, 0.5)" fill-opacity="1">Timeline for student xq567sht with permutation missing for task 1</text></svg>