<svg version="1.1" xmlns="http://www.w3.org/2000/svg" width="1366" height="683"><defs><clipPath id="OcBcRrDUZQVm"><path fill="none" stroke="none" d="M 58.5 51.5 L 1336.5 51.5 L 1336.5 630.5 L 58.5 630.5 L 58.5 51.5"/></clipPath><clipPath id="atCSRDisCbUr"><path fill="none" stroke="none" d="M 58.5 51.5 L 1336.5 51.5 L 1336.5 630.5 L 58.5 630.5 L 58.5 51.5"/></clipPath><clipPath id="IWNcXroSUKAy"><path fill="none" stroke="none" d="M 58.5 51.5 L 1336.5 51.5 L 1336.5 630.5 L 58.5 630.5 L 58.5 51.5"/></clipPath><clipPath id="JxguxTfzWJrm"><path fill="none" stroke="none" d="M 58.5 51.5 L 1336.5 51.5 L 1336.5 630.5 L 58.5 630.5 L 58.5 51.5"/></clipPath><clipPath id="pIDhvRtwRmLo"><path fill="none" stroke="none" d="M 58.5 51.5 L 1336.5 51.5 L 1336.5 630.5 L 58.5 630.5 L 58.5 51.5"/></clipPath><clipPath id="OaZTTMittcnM"><path fill="none" stroke="none" d="M 58.5 51.5 L 1336.5 51.5 L 1336.5 630.5 L 58.5 630.5 L 58.5 51.5"/></clipPath><clipPath id="PTuWqVhCytdc"><path fill="none" stroke="none" d="M 58.5 51.5 L 1336.5 51.5 L 1336.5 630.5 L 58.5 630.5 L 58.5 51.5"/></clipPath><clipPath id="uZWzRRXTxgzL"><path fill="none" stroke="none" d="M 58.5 51.5 L 1336.5 51.5 L 1336.5 630.5 L 58.5 630.5 L 58.5 51.5"/></clipPath><clipPath id="SqPyAUICVcbF"><path fill="none" stroke="none" d="M 58.5 51.5 L 1336.5 51.5 L 1336.5 630.5 L 58.5 630.5 L 58.5 51.5"/></clipPath><clipPath id="KMWlrkEvWykn"><path fill="none" stroke="none" d="M 58.5 51.5 L 1336.5 51.5 L 1336.5 630.5 L 58.5 630.5 L 58.5 51.5"/></clipPath><clipPath id="hRsBEvrGPSbd"><path fill="none" stroke="none" d="M 58.5 51.5 L 1336.5 51.5 L 1336.5 630.5 L 58.5 630.5 L 58.5 51.5"/></clipPath><clipPath id="BXqFlEweCZTa"><path fill="none" stroke="none" d="M 58.5 51.5 L 1336.5 51.5 L 1336.5 630.5 L 58.5 630.5 L 58.5 51.5"/></clipPath><clipPath id="RlTtdioMzDEe"><path fill="none" stroke="none" d="M 58.5 51.5 L 1336.5 51.5 L 1336.5 630.5 L 58.5 630.5 L 58.5 51.5"/></clipPath><clipPath id="FIwwUrCRVSEz"><path fill="none" stroke="none" d="M 58.5 51.5 L 1336.5 51.5 L 1336.5 630.5 L 58.5 630.5 L 58.5 51.5"/></clipPath><clipPath id="aSiTQPWODCrV"><path fill="none" stroke="none" d="M 58.5 51.5 L 1336.5 51.5 L 1336.5 630.5 L 58.5 630.5 L 58.5 51.5"/></clipPath><clipPath id="FFnSmdhGbqOi"><path fill="none" stroke="none" d="M 58.5 51.5 L 1336.5 51.5 L 1336.5 630.5 L 58.5 630.5 L 58.5 51.5"/></clipPath><clipPath id="vfWxwfcyDnru"><path fill="none" stroke="none" d="M 58.5 51.5 L 1336.5 51.5 L 1336.5 630.5 L 58.5 630.5 L 58.5 51.5"/></clipPath><clipPath id="dnlbLzfhzvco"><path fill="none" stroke="none" d="M 58.5 51.5 L 1336.5 51.5 L 1336.5 630.5 L 58.5 630.5 L 58.5 51.5"/></clipPath><clipPath id="pDDkKVXGLlEs"><path fill="none" stroke="none" d="M 58.5 51.5 L 1336.5 51.5 L 1336.5 630.5 L 58.5 630.5 L 58.5 51.5"/></clipPath><clipPath id="vkJZnecEelfT"><path fill="none" stroke="none" d="M 58.5 51.5 L 1336.5 51.5 L 1336.5 630.5 L 58.5 630.5 L 58.5 51.5"/></clipPath><clipPath id="tfoUcLehkcNs"><path fill="none" stroke="none" d="M 58.5 51.5 L 1336.5 51.5 L 1336.5 630.5 L 58.5 630.5 L 58.5 51.5"/></clipPath></defs><path fill="rgb(255,255,255)" stroke="none" paint-order="stroke" d="M 0.5 0.5 L 1366.5 0.5 L 1366.5 683.5 L 0.5 683.5 L 0.5 0.5" fill-opacity="1"/><rect fill="#FFFFFF" stroke="none" x="58" y="51" width="1278" height="579" transform="matrix(1, 0, 0, 1, 0.5, 0.5)"/><path fill="rgb(255,255,255)" stroke="none" paint-order="stroke" d="M 58.5 51.5 L 1336.5 51.5 L 1336.5 630.5 L 58.5 630.5 L 58.5 51.5" fill-opacity="1"/><path fill="none" stroke="rgb(229,229,229)" paint-order="fill" d="M 58.5 51.5 L 1336.5 51.5 L 1336.5 630.5 L 58.5 630.5 L 58.5 51.5" stroke-opacity="1" stroke-linejoin="bevel" stroke-miterlimit="10" stroke-dasharray=""/><path fill="none" stroke="rgb(229,229,229)" paint-order="fill" d="M 314.5 630.5 L 314.5 51.5 M 569.5 630.5 L 569.5 51.5 M 825.5 630.5 L 825.5 51.5 M 1080.5 630.5 L 1080.5 51.5" stroke-opacity="1" stroke-linejoin="bevel" stroke-miterlimit="10" stroke-dasharray="" clip-path="url(#OcBcRrDUZQVm)"/><path fill="none" stroke="rgb(229,229,229)" paint-order="fill" d="M 58.5 551.5 L 1336.5 551.5 M 58.5 446.5 L 1336.5 446.5 M 58.5 341.5 L 1336.5 341.5 M 58.5 235.5 L 1336.5 235.5 M 58.5 130.5 L 1336.5 130.5" stroke-opacity="1" stroke-linejoin="bevel" stroke-miterlimit="10" stroke-dasharray="" clip-path="url(#atCSRDisCbUr)"/><path fill="rgb(0,255,40)" stroke="none" paint-order="stroke" d="M 58.5 77.81818389892578 L 334.5390625 77.81818389892578 L 334.5390625 130.45454788208008 L 58.5 130.45454788208008 L 58.5 77.81818389892578" fill-opacity="1" clip-path="url(#IWNcXroSUKAy)"/><path fill="rgb(14,255,0)" stroke="none" paint-order="stroke" d="M 334.5390625 77.81818389892578 L 334.55823249928653 77.81818389892578 L 334.55823249928653 130.45454788208008 L 334.5390625 130.45454788208008 L 334.5390625 77.81818389892578" fill-opacity="1" clip-path="url(#IWNcXroSUKAy)"/><path fill="rgb(40,255,0)" stroke="none" paint-order="stroke" d="M 334.5582275390625 77.81818389892578 L 334.5799535382539 77.81818389892578 L 334.5799535382539 130.45454788208008 L 334.5582275390625 130.45454788208008 L 334.5582275390625 77.81818389892578" fill-opacity="1" clip-path="url(#IWNcXroSUKAy)"/><path fill="rgb(58,255,0)" stroke="none" paint-order="stroke" d="M 334.5799560546875 77.81818389892578 L 334.6016820538789 77.81818389892578 L 334.6016820538789 130.45454788208008 L 334.5799560546875 130.45454788208008 L 334.5799560546875 77.81818389892578" fill-opacity="1" clip-path="url(#IWNcXroSUKAy)"/><path fill="rgb(78,255,0)" stroke="none" paint-order="stroke" d="M 334.6016845703125 77.81818389892578 L 334.6234105695039 77.81818389892578 L 334.6234105695039 130.45454788208008 L 334.6016845703125 130.45454788208008 L 334.6016845703125 77.81818389892578" fill-opacity="1" clip-path="url(#IWNcXroSUKAy)"/><path fill="rgb(97,255,0)" stroke="none" paint-order="stroke" d="M 334.6234130859375 77.81818389892578 L 334.64386108517647 77.81818389892578 L 334.64386108517647 130.45454788208008 L 334.6234130859375 130.45454788208008 L 334.6234130859375 77.81818389892578" fill-opacity="1" clip-path="url(#IWNcXroSUKAy)"/><path fill="rgb(111,255,0)" stroke="none" paint-order="stroke" d="M 334.64385986328125 77.81818389892578 L 334.6643078625202 77.81818389892578 L 334.6643078625202 130.45454788208008 L 334.64385986328125 130.45454788208008 L 334.64385986328125 77.81818389892578" fill-opacity="1" clip-path="url(#IWNcXroSUKAy)"/><path fill="rgb(129,255,0)" stroke="none" paint-order="stroke" d="M 334.664306640625 77.81818389892578 L 334.72820664197206 77.81818389892578 L 334.72820664197206 130.45454788208008 L 334.664306640625 130.45454788208008 L 334.664306640625 77.81818389892578" fill-opacity="1" clip-path="url(#IWNcXroSUKAy)"/><path fill="rgb(159,255,0)" stroke="none" paint-order="stroke" d="M 334.72821044921875 77.81818389892578 L 334.77038444951177 77.81818389892578 L 334.77038444951177 130.45454788208008 L 334.72821044921875 130.45454788208008 L 334.72821044921875 77.81818389892578" fill-opacity="1" clip-path="url(#IWNcXroSUKAy)"/><path fill="rgb(188,255,0)" stroke="none" paint-order="stroke" d="M 334.7703857421875 77.81818389892578 L 335.28286373615265 77.81818389892578 L 335.28286373615265 130.45454788208008 L 334.7703857421875 130.45454788208008 L 334.7703857421875 77.81818389892578" fill-opacity="1" clip-path="url(#IWNcXroSUKAy)"/><path fill="rgb(175,255,0)" stroke="none" paint-order="stroke" d="M 335.2828369140625 77.81818389892578 L 335.3045629132539 77.81818389892578 L 335.3045629132539 130.45454788208008 L 335.2828369140625 130.45454788208008 L 335.2828369140625 77.81818389892578" fill-opacity="1" clip-path="url(#IWNcXroSUKAy)"/><path fill="rgb(159,255,0)" stroke="none" paint-order="stroke" d="M 335.3045654296875 77.81818389892578 L 335.3262914288789 77.81818389892578 L 335.3262914288789 130.45454788208008 L 335.3045654296875 130.45454788208008 L 335.3045654296875 77.81818389892578" fill-opacity="1" clip-path="url(#IWNcXroSUKAy)"/><path fill="rgb(129,255,0)" stroke="none" paint-order="stroke" d="M 335.3262939453125 77.81818389892578 L 335.36718994379044 77.81818389892578 L 335.36718994379044 130.45454788208008 L 335.3262939453125 130.45454788208008 L 335.3262939453125 77.81818389892578" fill-opacity="1" clip-path="url(#IWNcXroSUKAy)"/><path fill="rgb(111,255,0)" stroke="none" paint-order="stroke" d="M 335.3671875 77.81818389892578 L 335.3889134991914 77.81818389892578 L 335.3889134991914 130.45454788208008 L 335.3671875 130.45454788208008 L 335.3671875 77.81818389892578" fill-opacity="1" clip-path="url(#IWNcXroSUKAy)"/><path fill="rgb(78,255,0)" stroke="none" paint-order="stroke" d="M 335.388916015625 77.81818389892578 L 335.41192001476884 77.81818389892578 L 335.41192001476884 130.45454788208008 L 335.388916015625 130.45454788208008 L 335.388916015625 77.81818389892578" fill-opacity="1" clip-path="url(#IWNcXroSUKAy)"/><path fill="rgb(58,255,0)" stroke="none" paint-order="stroke" d="M 335.41192626953125 77.81818389892578 L 335.4528222680092 77.81818389892578 L 335.4528222680092 130.45454788208008 L 335.41192626953125 130.45454788208008 L 335.41192626953125 77.81818389892578" fill-opacity="1" clip-path="url(#IWNcXroSUKAy)"/><path fill="rgb(40,255,0)" stroke="none" paint-order="stroke" d="M 335.45281982421875 77.81818389892578 L 335.47454582341015 77.81818389892578 L 335.47454582341015 130.45454788208008 L 335.45281982421875 130.45454788208008 L 335.45281982421875 77.81818389892578" fill-opacity="1" clip-path="url(#IWNcXroSUKAy)"/><path fill="rgb(14,255,0)" stroke="none" paint-order="stroke" d="M 335.47454833984375 77.81818389892578 L 335.51672234013677 77.81818389892578 L 335.51672234013677 130.45454788208008 L 335.47454833984375 130.45454788208008 L 335.47454833984375 77.81818389892578" fill-opacity="1" clip-path="url(#IWNcXroSUKAy)"/><path fill="rgb(0,255,40)" stroke="none" paint-order="stroke" d="M 335.5167236328125 77.81818389892578 L 336.5825756788254 77.81818389892578 L 336.5825756788254 130.45454788208008 L 335.5167236328125 130.45454788208008 L 335.5167236328125 77.81818389892578" fill-opacity="1" clip-path="url(#IWNcXroSUKAy)"/><path fill="rgb(14,255,0)" stroke="none" paint-order="stroke" d="M 336.58258056640625 77.81818389892578 L 337.30465054512024 77.81818389892578 L 337.30465054512024 130.45454788208008 L 336.58258056640625 130.45454788208008 L 336.58258056640625 77.81818389892578" fill-opacity="1" clip-path="url(#IWNcXroSUKAy)"/><path fill="rgb(40,255,0)" stroke="none" paint-order="stroke" d="M 337.3046569824219 77.81818389892578 L 337.3481089808047 77.81818389892578 L 337.3481089808047 130.45454788208008 L 337.3046569824219 130.45454788208008 L 337.3046569824219 77.81818389892578" fill-opacity="1" clip-path="url(#IWNcXroSUKAy)"/><path fill="rgb(58,255,0)" stroke="none" paint-order="stroke" d="M 337.34808349609375 77.81818389892578 L 361.7604389190674 77.81818389892578 L 361.7604389190674 130.45454788208008 L 337.34808349609375 130.45454788208008 L 337.34808349609375 77.81818389892578" fill-opacity="1" clip-path="url(#IWNcXroSUKAy)"/><path fill="rgb(0,255,40)" stroke="none" paint-order="stroke" d="M 361.7604675292969 77.81818389892578 L 438.65773010253906 77.81818389892578 L 438.65773010253906 130.45454788208008 L 361.7604675292969 130.45454788208008 L 361.7604675292969 77.81818389892578" fill-opacity="1" clip-path="url(#IWNcXroSUKAy)"/><path fill="rgb(14,255,0)" stroke="none" paint-order="stroke" d="M 438.65771484375 77.81818389892578 L 438.8059628456831 77.81818389892578 L 438.8059628456831 130.45454788208008 L 438.65771484375 130.45454788208008 L 438.65771484375 77.81818389892578" fill-opacity="1" clip-path="url(#IWNcXroSUKAy)"/><path fill="rgb(40,255,0)" stroke="none" paint-order="stroke" d="M 438.80596923828125 77.81818389892578 L 438.82769523747265 77.81818389892578 L 438.82769523747265 130.45454788208008 L 438.80596923828125 130.45454788208008 L 438.80596923828125 77.81818389892578" fill-opacity="1" clip-path="url(#IWNcXroSUKAy)"/><path fill="rgb(58,255,0)" stroke="none" paint-order="stroke" d="M 438.82769775390625 77.81818389892578 L 438.8903197571635 77.81818389892578 L 438.8903197571635 130.45454788208008 L 438.82769775390625 130.45454788208008 L 438.82769775390625 77.81818389892578" fill-opacity="1" clip-path="url(#IWNcXroSUKAy)"/><path fill="rgb(78,255,0)" stroke="none" paint-order="stroke" d="M 438.89031982421875 77.81818389892578 L 438.9133238233626 77.81818389892578 L 438.9133238233626 130.45454788208008 L 438.89031982421875 130.45454788208008 L 438.89031982421875 77.81818389892578" fill-opacity="1" clip-path="url(#IWNcXroSUKAy)"/><path fill="rgb(97,255,0)" stroke="none" paint-order="stroke" d="M 438.9132995605469 77.81818389892578 L 439.7427215576172 77.81818389892578 L 439.7427215576172 130.45454788208008 L 438.9132995605469 130.45454788208008 L 438.9132995605469 77.81818389892578" fill-opacity="1" clip-path="url(#IWNcXroSUKAy)"/><path fill="rgb(78,255,0)" stroke="none" paint-order="stroke" d="M 439.74273681640625 77.81818389892578 L 439.76446281559765 77.81818389892578 L 439.76446281559765 130.45454788208008 L 439.74273681640625 130.45454788208008 L 439.74273681640625 77.81818389892578" fill-opacity="1" clip-path="url(#IWNcXroSUKAy)"/><path fill="rgb(58,255,0)" stroke="none" paint-order="stroke" d="M 439.76446533203125 77.81818389892578 L 439.7849133312702 77.81818389892578 L 439.7849133312702 130.45454788208008 L 439.76446533203125 130.45454788208008 L 439.76446533203125 77.81818389892578" fill-opacity="1" clip-path="url(#IWNcXroSUKAy)"/><path fill="rgb(40,255,0)" stroke="none" paint-order="stroke" d="M 439.784912109375 77.81818389892578 L 439.8066381085664 77.81818389892578 L 439.8066381085664 130.45454788208008 L 439.784912109375 130.45454788208008 L 439.784912109375 77.81818389892578" fill-opacity="1" clip-path="url(#IWNcXroSUKAy)"/><path fill="rgb(14,255,0)" stroke="none" paint-order="stroke" d="M 439.806640625 77.81818389892578 L 439.89098862558603 77.81818389892578 L 439.89098862558603 130.45454788208008 L 439.806640625 130.45454788208008 L 439.806640625 77.81818389892578" fill-opacity="1" clip-path="url(#IWNcXroSUKAy)"/><path fill="rgb(0,255,40)" stroke="none" paint-order="stroke" d="M 439.8909912109375 77.81818389892578 L 440.9568432569504 77.81818389892578 L 440.9568432569504 130.45454788208008 L 439.8909912109375 130.45454788208008 L 439.8909912109375 77.81818389892578" fill-opacity="1" clip-path="url(#IWNcXroSUKAy)"/><path fill="rgb(14,255,0)" stroke="none" paint-order="stroke" d="M 440.95684814453125 77.81818389892578 L 441.0642001479864 77.81818389892578 L 441.0642001479864 130.45454788208008 L 440.95684814453125 130.45454788208008 L 440.95684814453125 77.81818389892578" fill-opacity="1" clip-path="url(#IWNcXroSUKAy)"/><path fill="rgb(40,255,0)" stroke="none" paint-order="stroke" d="M 441.0641784667969 77.81818389892578 L 441.0859044659883 77.81818389892578 L 441.0859044659883 130.45454788208008 L 441.0641784667969 130.45454788208008 L 441.0641784667969 77.81818389892578" fill-opacity="1" clip-path="url(#IWNcXroSUKAy)"/><path fill="rgb(58,255,0)" stroke="none" paint-order="stroke" d="M 441.0859069824219 77.81818389892578 L 511.4116897583008 77.81818389892578 L 511.4116897583008 130.45454788208008 L 441.0859069824219 130.45454788208008 L 441.0859069824219 77.81818389892578" fill-opacity="1" clip-path="url(#IWNcXroSUKAy)"/><path fill="rgb(251,0,7)" stroke="none" paint-order="stroke" d="M 58.5 130.4545440673828 L 511.4117126464844 130.4545440673828 L 511.4117126464844 183.0909080505371 L 58.5 183.0909080505371 L 58.5 130.4545440673828" fill-opacity="1" clip-path="url(#JxguxTfzWJrm)"/><path fill="rgb(105,29,48)" stroke="none" paint-order="stroke" d="M 259.27252197265625 183.09091186523438 L 259.3364219740033 183.09091186523438 L 259.3364219740033 498.9090881347656 L 259.27252197265625 498.9090881347656 L 259.27252197265625 183.09091186523438" fill-opacity="1" clip-path="url(#pIDhvRtwRmLo)"/><path fill="rgb(105,29,48)" stroke="none" paint-order="stroke" d="M 361.7604675292969 183.09091186523438 L 361.82436753064394 183.09091186523438 L 361.82436753064394 498.9090881347656 L 361.7604675292969 498.9090881347656 L 361.7604675292969 183.09091186523438" fill-opacity="1" clip-path="url(#pIDhvRtwRmLo)"/><path fill="rgb(105,29,48)" stroke="none" paint-order="stroke" d="M 454.7720031738281 183.09091186523438 L 454.8359031751752 183.09091186523438 L 454.8359031751752 498.9090881347656 L 454.7720031738281 498.9090881347656 L 454.7720031738281 183.09091186523438" fill-opacity="1" clip-path="url(#pIDhvRtwRmLo)"/><path fill="rgb(255,188,66)" stroke="none" paint-order="stroke" d="M 279.1607666015625 183.09091186523438 L 279.380582600832 183.09091186523438 L 279.380582600832 498.9090881347656 L 279.1607666015625 498.9090881347656 L 279.1607666015625 183.09091186523438" fill-opacity="1" clip-path="url(#OaZTTMittcnM)"/><path fill="rgb(255,188,66)" stroke="none" paint-order="stroke" d="M 280.0106201171875 183.09091186523438 L 280.18698412179947 183.09091186523438 L 280.18698412179947 498.9090881347656 L 280.0106201171875 498.9090881347656 L 280.0106201171875 183.09091186523438" fill-opacity="1" clip-path="url(#OaZTTMittcnM)"/><path fill="rgb(255,188,66)" stroke="none" paint-order="stroke" d="M 280.6036071777344 183.09091186523438 L 280.75441117584705 183.09091186523438 L 280.75441117584705 498.9090881347656 L 280.6036071777344 498.9090881347656 L 280.6036071777344 183.09091186523438" fill-opacity="1" clip-path="url(#OaZTTMittcnM)"/><path fill="rgb(255,188,66)" stroke="none" paint-order="stroke" d="M 281.5710754394531 183.09091186523438 L 281.6592574417591 183.09091186523438 L 281.6592574417591 498.9090881347656 L 281.5710754394531 498.9090881347656 L 281.5710754394531 183.09091186523438" fill-opacity="1" clip-path="url(#OaZTTMittcnM)"/><path fill="rgb(255,188,66)" stroke="none" paint-order="stroke" d="M 284.1130065917969 183.09091186523438 L 284.3123745918274 183.09091186523438 L 284.3123745918274 498.9090881347656 L 284.1130065917969 498.9090881347656 L 284.1130065917969 183.09091186523438" fill-opacity="1" clip-path="url(#OaZTTMittcnM)"/><path fill="rgb(255,188,66)" stroke="none" paint-order="stroke" d="M 284.4938659667969 183.09091186523438 L 284.6830099672079 183.09091186523438 L 284.6830099672079 498.9090881347656 L 284.4938659667969 498.9090881347656 L 284.4938659667969 183.09091186523438" fill-opacity="1" clip-path="url(#OaZTTMittcnM)"/><path fill="rgb(255,188,66)" stroke="none" paint-order="stroke" d="M 286.5322570800781 183.09091186523438 L 286.68689508736134 183.09091186523438 L 286.68689508736134 498.9090881347656 L 286.5322570800781 498.9090881347656 L 286.5322570800781 183.09091186523438" fill-opacity="1" clip-path="url(#OaZTTMittcnM)"/><path fill="rgb(255,188,66)" stroke="none" paint-order="stroke" d="M 287.1827697753906 183.09091186523438 L 287.3846937716007 183.09091186523438 L 287.3846937716007 498.9090881347656 L 287.1827697753906 498.9090881347656 L 287.1827697753906 183.09091186523438" fill-opacity="1" clip-path="url(#OaZTTMittcnM)"/><path fill="rgb(255,188,66)" stroke="none" paint-order="stroke" d="M 390.2355651855469 183.09091186523438 L 394.3890652656555 183.09091186523438 L 394.3890652656555 498.9090881347656 L 390.2355651855469 498.9090881347656 L 390.2355651855469 183.09091186523438" fill-opacity="1" clip-path="url(#OaZTTMittcnM)"/><path fill="rgb(162,174,187)" stroke="none" paint-order="stroke" d="M 361.7604675292969 183.09091186523438 L 361.82436753064394 183.09091186523438 L 361.82436753064394 498.9090881347656 L 361.7604675292969 498.9090881347656 L 361.7604675292969 183.09091186523438" fill-opacity="1" clip-path="url(#PTuWqVhCytdc)"/><path fill="rgb(162,174,187)" stroke="none" paint-order="stroke" d="M 362.7598571777344 183.09091186523438 L 362.82375717908144 183.09091186523438 L 362.82375717908144 498.9090881347656 L 362.7598571777344 498.9090881347656 L 362.7598571777344 183.09091186523438" fill-opacity="1" clip-path="url(#PTuWqVhCytdc)"/><path fill="rgb(162,174,187)" stroke="none" paint-order="stroke" d="M 263.943603515625 183.09091186523438 L 264.00750351697206 183.09091186523438 L 264.00750351697206 498.9090881347656 L 263.943603515625 498.9090881347656 L 263.943603515625 183.09091186523438" fill-opacity="1" clip-path="url(#uZWzRRXTxgzL)"/><path fill="rgb(162,174,187)" stroke="none" paint-order="stroke" d="M 361.7604675292969 183.09091186523438 L 361.82436753064394 183.09091186523438 L 361.82436753064394 498.9090881347656 L 361.7604675292969 498.9090881347656 L 361.7604675292969 183.09091186523438" fill-opacity="1" clip-path="url(#uZWzRRXTxgzL)"/><path fill="rgb(162,174,187)" stroke="none" paint-order="stroke" d="M 453.3955993652344 183.09091186523438 L 453.45949936658144 183.09091186523438 L 453.45949936658144 498.9090881347656 L 453.3955993652344 498.9090881347656 L 453.3955993652344 183.09091186523438" fill-opacity="1" clip-path="url(#uZWzRRXTxgzL)"/><path fill="rgb(255,188,66)" stroke="none" paint-order="stroke" d="M 270.4090270996094 183.09091186523438 L 271.3624150753021 183.09091186523438 L 271.3624150753021 498.9090881347656 L 270.4090270996094 498.9090881347656 L 270.4090270996094 183.09091186523438" fill-opacity="1" clip-path="url(#SqPyAUICVcbF)"/><path fill="rgb(255,188,66)" stroke="none" paint-order="stroke" d="M 273.13116455078125 183.09091186523438 L 277.3664565086365 183.09091186523438 L 277.3664565086365 498.9090881347656 L 273.13116455078125 498.9090881347656 L 273.13116455078125 183.09091186523438" fill-opacity="1" clip-path="url(#SqPyAUICVcbF)"/><path fill="rgb(255,188,66)" stroke="none" paint-order="stroke" d="M 289.00390625 183.09091186523438 L 292.02382016181946 183.09091186523438 L 292.02382016181946 498.9090881347656 L 289.00390625 498.9090881347656 L 289.00390625 183.09091186523438" fill-opacity="1" clip-path="url(#SqPyAUICVcbF)"/><path fill="rgb(255,188,66)" stroke="none" paint-order="stroke" d="M 304.3143615722656 183.09091186523438 L 306.08694756031036 183.09091186523438 L 306.08694756031036 498.9090881347656 L 304.3143615722656 498.9090881347656 L 304.3143615722656 183.09091186523438" fill-opacity="1" clip-path="url(#SqPyAUICVcbF)"/><path fill="rgb(255,188,66)" stroke="none" paint-order="stroke" d="M 348.7555236816406 183.09091186523438 L 348.8999376744032 183.09091186523438 L 348.8999376744032 498.9090881347656 L 348.7555236816406 498.9090881347656 L 348.7555236816406 183.09091186523438" fill-opacity="1" clip-path="url(#SqPyAUICVcbF)"/><path fill="rgb(255,188,66)" stroke="none" paint-order="stroke" d="M 349.416259765625 183.09091186523438 L 351.01120376586914 183.09091186523438 L 351.01120376586914 498.9090881347656 L 349.416259765625 498.9090881347656 L 349.416259765625 183.09091186523438" fill-opacity="1" clip-path="url(#SqPyAUICVcbF)"/><path fill="rgb(255,188,66)" stroke="none" paint-order="stroke" d="M 458.14337158203125 183.09091186523438 L 459.41881561279297 183.09091186523438 L 459.41881561279297 498.9090881347656 L 458.14337158203125 498.9090881347656 L 458.14337158203125 183.09091186523438" fill-opacity="1" clip-path="url(#SqPyAUICVcbF)"/><path fill="rgb(216,17,89)" stroke="none" paint-order="stroke" d="M 332.61822509765625 183.09091186523438 L 332.6821250990033 183.09091186523438 L 332.6821250990033 498.9090881347656 L 332.61822509765625 498.9090881347656 L 332.61822509765625 183.09091186523438" fill-opacity="1" clip-path="url(#KMWlrkEvWykn)"/><path fill="rgb(216,17,89)" stroke="none" paint-order="stroke" d="M 361.7604675292969 183.09091186523438 L 361.82436753064394 183.09091186523438 L 361.82436753064394 498.9090881347656 L 361.7604675292969 498.9090881347656 L 361.7604675292969 183.09091186523438" fill-opacity="1" clip-path="url(#KMWlrkEvWykn)"/><path fill="rgb(216,17,89)" stroke="none" paint-order="stroke" d="M 436.4007568359375 183.09091186523438 L 436.46465683728456 183.09091186523438 L 436.46465683728456 498.9090881347656 L 436.4007568359375 498.9090881347656 L 436.4007568359375 183.09091186523438" fill-opacity="1" clip-path="url(#KMWlrkEvWykn)"/><path fill="rgb(33,131,128)" stroke="none" paint-order="stroke" d="M 361.7604675292969 183.09091186523438 L 361.82436753064394 183.09091186523438 L 361.82436753064394 498.9090881347656 L 361.7604675292969 498.9090881347656 L 361.7604675292969 183.09091186523438" fill-opacity="1" clip-path="url(#hRsBEvrGPSbd)"/><path fill="rgb(33,131,128)" stroke="none" paint-order="stroke" d="M 362.7598571777344 183.09091186523438 L 362.82375717908144 183.09091186523438 L 362.82375717908144 498.9090881347656 L 362.7598571777344 498.9090881347656 L 362.7598571777344 183.09091186523438" fill-opacity="1" clip-path="url(#hRsBEvrGPSbd)"/><path fill="rgb(115,210,222)" stroke="none" paint-order="stroke" d="M 255.8359832763672 183.09091186523438 L 256.0085132718086 183.09091186523438 L 256.0085132718086 498.9090881347656 L 255.8359832763672 498.9090881347656 L 255.8359832763672 183.09091186523438" fill-opacity="1" clip-path="url(#BXqFlEweCZTa)"/><path fill="rgb(115,210,222)" stroke="none" paint-order="stroke" d="M 309.0442199707031 183.09091186523438 L 309.1081199720502 183.09091186523438 L 309.1081199720502 498.9090881347656 L 309.0442199707031 498.9090881347656 L 309.0442199707031 183.09091186523438" fill-opacity="1" clip-path="url(#BXqFlEweCZTa)"/><path fill="rgb(115,210,222)" stroke="none" paint-order="stroke" d="M 309.0442199707031 183.09091186523438 L 309.1081199720502 183.09091186523438 L 309.1081199720502 498.9090881347656 L 309.0442199707031 498.9090881347656 L 309.0442199707031 183.09091186523438" fill-opacity="1" clip-path="url(#BXqFlEweCZTa)"/><path fill="rgb(115,210,222)" stroke="none" paint-order="stroke" d="M 309.3445739746094 183.09091186523438 L 309.40847397595644 183.09091186523438 L 309.40847397595644 498.9090881347656 L 309.3445739746094 498.9090881347656 L 309.3445739746094 183.09091186523438" fill-opacity="1" clip-path="url(#BXqFlEweCZTa)"/><path fill="rgb(115,210,222)" stroke="none" paint-order="stroke" d="M 309.3445739746094 183.09091186523438 L 309.40847397595644 183.09091186523438 L 309.40847397595644 498.9090881347656 L 309.3445739746094 498.9090881347656 L 309.3445739746094 183.09091186523438" fill-opacity="1" clip-path="url(#BXqFlEweCZTa)"/><path fill="rgb(115,210,222)" stroke="none" paint-order="stroke" d="M 309.6103820800781 183.09091186523438 L 309.6742820814252 183.09091186523438 L 309.6742820814252 498.9090881347656 L 309.6103820800781 498.9090881347656 L 309.6103820800781 183.09091186523438" fill-opacity="1" clip-path="url(#BXqFlEweCZTa)"/><path fill="rgb(115,210,222)" stroke="none" paint-order="stroke" d="M 309.6103820800781 183.09091186523438 L 309.6742820814252 183.09091186523438 L 309.6742820814252 498.9090881347656 L 309.6103820800781 498.9090881347656 L 309.6103820800781 183.09091186523438" fill-opacity="1" clip-path="url(#BXqFlEweCZTa)"/><path fill="rgb(115,210,222)" stroke="none" paint-order="stroke" d="M 309.89154052734375 183.09091186523438 L 309.9554405286908 183.09091186523438 L 309.9554405286908 498.9090881347656 L 309.89154052734375 498.9090881347656 L 309.89154052734375 183.09091186523438" fill-opacity="1" clip-path="url(#BXqFlEweCZTa)"/><path fill="rgb(115,210,222)" stroke="none" paint-order="stroke" d="M 309.89154052734375 183.09091186523438 L 309.9554405286908 183.09091186523438 L 309.9554405286908 498.9090881347656 L 309.89154052734375 498.9090881347656 L 309.89154052734375 183.09091186523438" fill-opacity="1" clip-path="url(#BXqFlEweCZTa)"/><path fill="rgb(115,210,222)" stroke="none" paint-order="stroke" d="M 310.16119384765625 183.09091186523438 L 310.2250938490033 183.09091186523438 L 310.2250938490033 498.9090881347656 L 310.16119384765625 498.9090881347656 L 310.16119384765625 183.09091186523438" fill-opacity="1" clip-path="url(#BXqFlEweCZTa)"/><path fill="rgb(115,210,222)" stroke="none" paint-order="stroke" d="M 310.16119384765625 183.09091186523438 L 310.2250938490033 183.09091186523438 L 310.2250938490033 498.9090881347656 L 310.16119384765625 498.9090881347656 L 310.16119384765625 183.09091186523438" fill-opacity="1" clip-path="url(#BXqFlEweCZTa)"/><path fill="rgb(115,210,222)" stroke="none" paint-order="stroke" d="M 310.45257568359375 183.09091186523438 L 310.5164756849408 183.09091186523438 L 310.5164756849408 498.9090881347656 L 310.45257568359375 498.9090881347656 L 310.45257568359375 183.09091186523438" fill-opacity="1" clip-path="url(#BXqFlEweCZTa)"/><path fill="rgb(115,210,222)" stroke="none" paint-order="stroke" d="M 310.45257568359375 183.09091186523438 L 310.5164756849408 183.09091186523438 L 310.5164756849408 498.9090881347656 L 310.45257568359375 498.9090881347656 L 310.45257568359375 183.09091186523438" fill-opacity="1" clip-path="url(#BXqFlEweCZTa)"/><path fill="rgb(115,210,222)" stroke="none" paint-order="stroke" d="M 464.50909423828125 183.09091186523438 L 464.5729942396283 183.09091186523438 L 464.5729942396283 498.9090881347656 L 464.50909423828125 498.9090881347656 L 464.50909423828125 183.09091186523438" fill-opacity="1" clip-path="url(#BXqFlEweCZTa)"/><path fill="rgb(115,210,222)" stroke="none" paint-order="stroke" d="M 464.50909423828125 183.09091186523438 L 464.5729942396283 183.09091186523438 L 464.5729942396283 498.9090881347656 L 464.50909423828125 498.9090881347656 L 464.50909423828125 183.09091186523438" fill-opacity="1" clip-path="url(#BXqFlEweCZTa)"/><path fill="rgb(115,210,222)" stroke="none" paint-order="stroke" d="M 465.2554626464844 183.09091186523438 L 465.31936264783144 183.09091186523438 L 465.31936264783144 498.9090881347656 L 465.2554626464844 498.9090881347656 L 465.2554626464844 183.09091186523438" fill-opacity="1" clip-path="url(#BXqFlEweCZTa)"/><path fill="rgb(115,210,222)" stroke="none" paint-order="stroke" d="M 465.2554626464844 183.09091186523438 L 465.31936264783144 183.09091186523438 L 465.31936264783144 498.9090881347656 L 465.2554626464844 498.9090881347656 L 465.2554626464844 183.09091186523438" fill-opacity="1" clip-path="url(#BXqFlEweCZTa)"/><path fill="rgb(115,210,222)" stroke="none" paint-order="stroke" d="M 465.6094665527344 183.09091186523438 L 465.67336655408144 183.09091186523438 L 465.67336655408144 498.9090881347656 L 465.6094665527344 498.9090881347656 L 465.6094665527344 183.09091186523438" fill-opacity="1" clip-path="url(#BXqFlEweCZTa)"/><path fill="rgb(115,210,222)" stroke="none" paint-order="stroke" d="M 465.6094665527344 183.09091186523438 L 465.67336655408144 183.09091186523438 L 465.67336655408144 498.9090881347656 L 465.6094665527344 498.9090881347656 L 465.6094665527344 183.09091186523438" fill-opacity="1" clip-path="url(#BXqFlEweCZTa)"/><path fill="rgb(115,210,222)" stroke="none" paint-order="stroke" d="M 465.9378967285156 183.09091186523438 L 466.0017967298627 183.09091186523438 L 466.0017967298627 498.9090881347656 L 465.9378967285156 498.9090881347656 L 465.9378967285156 183.09091186523438" fill-opacity="1" clip-path="url(#BXqFlEweCZTa)"/><path fill="rgb(115,210,222)" stroke="none" paint-order="stroke" d="M 465.9378967285156 183.09091186523438 L 466.0017967298627 183.09091186523438 L 466.0017967298627 498.9090881347656 L 465.9378967285156 498.9090881347656 L 465.9378967285156 183.09091186523438" fill-opacity="1" clip-path="url(#BXqFlEweCZTa)"/><path fill="rgb(115,210,222)" stroke="none" paint-order="stroke" d="M 466.1947937011719 183.09091186523438 L 466.25869370251894 183.09091186523438 L 466.25869370251894 498.9090881347656 L 466.1947937011719 498.9090881347656 L 466.1947937011719 183.09091186523438" fill-opacity="1" clip-path="url(#BXqFlEweCZTa)"/><path fill="rgb(115,210,222)" stroke="none" paint-order="stroke" d="M 466.1947937011719 183.09091186523438 L 466.25869370251894 183.09091186523438 L 466.25869370251894 498.9090881347656 L 466.1947937011719 498.9090881347656 L 466.1947937011719 183.09091186523438" fill-opacity="1" clip-path="url(#BXqFlEweCZTa)"/><path fill="rgb(115,210,222)" stroke="none" paint-order="stroke" d="M 466.4414367675781 183.09091186523438 L 466.5053367689252 183.09091186523438 L 466.5053367689252 498.9090881347656 L 466.4414367675781 498.9090881347656 L 466.4414367675781 183.09091186523438" fill-opacity="1" clip-path="url(#BXqFlEweCZTa)"/><path fill="rgb(115,210,222)" stroke="none" paint-order="stroke" d="M 466.4414367675781 183.09091186523438 L 466.5053367689252 183.09091186523438 L 466.5053367689252 498.9090881347656 L 466.4414367675781 498.9090881347656 L 466.4414367675781 183.09091186523438" fill-opacity="1" clip-path="url(#BXqFlEweCZTa)"/><path fill="rgb(115,210,222)" stroke="none" paint-order="stroke" d="M 466.76220703125 183.09091186523438 L 466.82610703259706 183.09091186523438 L 466.82610703259706 498.9090881347656 L 466.76220703125 498.9090881347656 L 466.76220703125 183.09091186523438" fill-opacity="1" clip-path="url(#BXqFlEweCZTa)"/><path fill="rgb(115,210,222)" stroke="none" paint-order="stroke" d="M 466.76220703125 183.09091186523438 L 466.82610703259706 183.09091186523438 L 466.82610703259706 498.9090881347656 L 466.76220703125 498.9090881347656 L 466.76220703125 183.09091186523438" fill-opacity="1" clip-path="url(#BXqFlEweCZTa)"/><path fill="rgb(115,210,222)" stroke="none" paint-order="stroke" d="M 467.07275390625 183.09091186523438 L 467.13665390759706 183.09091186523438 L 467.13665390759706 498.9090881347656 L 467.07275390625 498.9090881347656 L 467.07275390625 183.09091186523438" fill-opacity="1" clip-path="url(#BXqFlEweCZTa)"/><path fill="rgb(115,210,222)" stroke="none" paint-order="stroke" d="M 467.07275390625 183.09091186523438 L 467.13665390759706 183.09091186523438 L 467.13665390759706 498.9090881347656 L 467.07275390625 498.9090881347656 L 467.07275390625 183.09091186523438" fill-opacity="1" clip-path="url(#BXqFlEweCZTa)"/><path fill="rgb(115,210,222)" stroke="none" paint-order="stroke" d="M 467.4012145996094 183.09091186523438 L 467.46511460095644 183.09091186523438 L 467.46511460095644 498.9090881347656 L 467.4012145996094 498.9090881347656 L 467.4012145996094 183.09091186523438" fill-opacity="1" clip-path="url(#BXqFlEweCZTa)"/><path fill="rgb(115,210,222)" stroke="none" paint-order="stroke" d="M 467.4012145996094 183.09091186523438 L 467.46511460095644 183.09091186523438 L 467.46511460095644 498.9090881347656 L 467.4012145996094 498.9090881347656 L 467.4012145996094 183.09091186523438" fill-opacity="1" clip-path="url(#BXqFlEweCZTa)"/><path fill="rgb(115,210,222)" stroke="none" paint-order="stroke" d="M 468.0466003417969 183.09091186523438 L 468.11050034314394 183.09091186523438 L 468.11050034314394 498.9090881347656 L 468.0466003417969 498.9090881347656 L 468.0466003417969 183.09091186523438" fill-opacity="1" clip-path="url(#BXqFlEweCZTa)"/><path fill="rgb(115,210,222)" stroke="none" paint-order="stroke" d="M 468.0466003417969 183.09091186523438 L 468.11050034314394 183.09091186523438 L 468.11050034314394 498.9090881347656 L 468.0466003417969 498.9090881347656 L 468.0466003417969 183.09091186523438" fill-opacity="1" clip-path="url(#BXqFlEweCZTa)"/><path fill="rgb(115,210,222)" stroke="none" paint-order="stroke" d="M 468.1731262207031 183.09091186523438 L 468.2370262220502 183.09091186523438 L 468.2370262220502 498.9090881347656 L 468.1731262207031 498.9090881347656 L 468.1731262207031 183.09091186523438" fill-opacity="1" clip-path="url(#BXqFlEweCZTa)"/><path fill="rgb(115,210,222)" stroke="none" paint-order="stroke" d="M 468.1731262207031 183.09091186523438 L 468.2370262220502 183.09091186523438 L 468.2370262220502 498.9090881347656 L 468.1731262207031 498.9090881347656 L 468.1731262207031 183.09091186523438" fill-opacity="1" clip-path="url(#BXqFlEweCZTa)"/><path fill="rgb(115,210,222)" stroke="none" paint-order="stroke" d="M 468.5718688964844 183.09091186523438 L 468.63576889783144 183.09091186523438 L 468.63576889783144 498.9090881347656 L 468.5718688964844 498.9090881347656 L 468.5718688964844 183.09091186523438" fill-opacity="1" clip-path="url(#BXqFlEweCZTa)"/><path fill="rgb(115,210,222)" stroke="none" paint-order="stroke" d="M 468.5718688964844 183.09091186523438 L 468.63576889783144 183.09091186523438 L 468.63576889783144 498.9090881347656 L 468.5718688964844 498.9090881347656 L 468.5718688964844 183.09091186523438" fill-opacity="1" clip-path="url(#BXqFlEweCZTa)"/><path fill="rgb(115,210,222)" stroke="none" paint-order="stroke" d="M 468.8210754394531 183.09091186523438 L 468.8849754408002 183.09091186523438 L 468.8849754408002 498.9090881347656 L 468.8210754394531 498.9090881347656 L 468.8210754394531 183.09091186523438" fill-opacity="1" clip-path="url(#BXqFlEweCZTa)"/><path fill="rgb(115,210,222)" stroke="none" paint-order="stroke" d="M 468.8210754394531 183.09091186523438 L 468.8849754408002 183.09091186523438 L 468.8849754408002 498.9090881347656 L 468.8210754394531 498.9090881347656 L 468.8210754394531 183.09091186523438" fill-opacity="1" clip-path="url(#BXqFlEweCZTa)"/><path fill="rgb(115,210,222)" stroke="none" paint-order="stroke" d="M 469.0792236328125 183.09091186523438 L 469.14312363415956 183.09091186523438 L 469.14312363415956 498.9090881347656 L 469.0792236328125 498.9090881347656 L 469.0792236328125 183.09091186523438" fill-opacity="1" clip-path="url(#BXqFlEweCZTa)"/><path fill="rgb(115,210,222)" stroke="none" paint-order="stroke" d="M 469.0792236328125 183.09091186523438 L 469.14312363415956 183.09091186523438 L 469.14312363415956 498.9090881347656 L 469.0792236328125 498.9090881347656 L 469.0792236328125 183.09091186523438" fill-opacity="1" clip-path="url(#BXqFlEweCZTa)"/><path fill="rgb(115,210,222)" stroke="none" paint-order="stroke" d="M 469.33355712890625 183.09091186523438 L 469.3974571302533 183.09091186523438 L 469.3974571302533 498.9090881347656 L 469.33355712890625 498.9090881347656 L 469.33355712890625 183.09091186523438" fill-opacity="1" clip-path="url(#BXqFlEweCZTa)"/><path fill="rgb(115,210,222)" stroke="none" paint-order="stroke" d="M 469.33355712890625 183.09091186523438 L 469.3974571302533 183.09091186523438 L 469.3974571302533 498.9090881347656 L 469.33355712890625 498.9090881347656 L 469.33355712890625 183.09091186523438" fill-opacity="1" clip-path="url(#BXqFlEweCZTa)"/><path fill="rgb(115,210,222)" stroke="none" paint-order="stroke" d="M 469.6287536621094 183.09091186523438 L 469.69265366345644 183.09091186523438 L 469.69265366345644 498.9090881347656 L 469.6287536621094 498.9090881347656 L 469.6287536621094 183.09091186523438" fill-opacity="1" clip-path="url(#BXqFlEweCZTa)"/><path fill="rgb(115,210,222)" stroke="none" paint-order="stroke" d="M 469.6287536621094 183.09091186523438 L 469.69265366345644 183.09091186523438 L 469.69265366345644 498.9090881347656 L 469.6287536621094 498.9090881347656 L 469.6287536621094 183.09091186523438" fill-opacity="1" clip-path="url(#BXqFlEweCZTa)"/><path fill="rgb(115,210,222)" stroke="none" paint-order="stroke" d="M 469.9124755859375 183.09091186523438 L 469.97637558728456 183.09091186523438 L 469.97637558728456 498.9090881347656 L 469.9124755859375 498.9090881347656 L 469.9124755859375 183.09091186523438" fill-opacity="1" clip-path="url(#BXqFlEweCZTa)"/><path fill="rgb(115,210,222)" stroke="none" paint-order="stroke" d="M 469.9124755859375 183.09091186523438 L 469.97637558728456 183.09091186523438 L 469.97637558728456 498.9090881347656 L 469.9124755859375 498.9090881347656 L 469.9124755859375 183.09091186523438" fill-opacity="1" clip-path="url(#BXqFlEweCZTa)"/><path fill="rgb(115,210,222)" stroke="none" paint-order="stroke" d="M 470.1783142089844 183.09091186523438 L 470.24221421033144 183.09091186523438 L 470.24221421033144 498.9090881347656 L 470.1783142089844 498.9090881347656 L 470.1783142089844 183.09091186523438" fill-opacity="1" clip-path="url(#BXqFlEweCZTa)"/><path fill="rgb(115,210,222)" stroke="none" paint-order="stroke" d="M 470.1783142089844 183.09091186523438 L 470.24221421033144 183.09091186523438 L 470.24221421033144 498.9090881347656 L 470.1783142089844 498.9090881347656 L 470.1783142089844 183.09091186523438" fill-opacity="1" clip-path="url(#BXqFlEweCZTa)"/><path fill="rgb(115,210,222)" stroke="none" paint-order="stroke" d="M 470.4709777832031 183.09091186523438 L 470.5348777845502 183.09091186523438 L 470.5348777845502 498.9090881347656 L 470.4709777832031 498.9090881347656 L 470.4709777832031 183.09091186523438" fill-opacity="1" clip-path="url(#BXqFlEweCZTa)"/><path fill="rgb(115,210,222)" stroke="none" paint-order="stroke" d="M 470.4709777832031 183.09091186523438 L 470.5348777845502 183.09091186523438 L 470.5348777845502 498.9090881347656 L 470.4709777832031 498.9090881347656 L 470.4709777832031 183.09091186523438" fill-opacity="1" clip-path="url(#BXqFlEweCZTa)"/><path fill="rgb(115,210,222)" stroke="none" paint-order="stroke" d="M 470.7725830078125 183.09091186523438 L 470.83648300915956 183.09091186523438 L 470.83648300915956 498.9090881347656 L 470.7725830078125 498.9090881347656 L 470.7725830078125 183.09091186523438" fill-opacity="1" clip-path="url(#BXqFlEweCZTa)"/><path fill="rgb(115,210,222)" stroke="none" paint-order="stroke" d="M 470.7725830078125 183.09091186523438 L 470.83648300915956 183.09091186523438 L 470.83648300915956 498.9090881347656 L 470.7725830078125 498.9090881347656 L 470.7725830078125 183.09091186523438" fill-opacity="1" clip-path="url(#BXqFlEweCZTa)"/><path fill="rgb(115,210,222)" stroke="none" paint-order="stroke" d="M 471.0563049316406 183.09091186523438 L 471.1202049329877 183.09091186523438 L 471.1202049329877 498.9090881347656 L 471.0563049316406 498.9090881347656 L 471.0563049316406 183.09091186523438" fill-opacity="1" clip-path="url(#BXqFlEweCZTa)"/><path fill="rgb(115,210,222)" stroke="none" paint-order="stroke" d="M 471.0563049316406 183.09091186523438 L 471.1202049329877 183.09091186523438 L 471.1202049329877 498.9090881347656 L 471.0563049316406 498.9090881347656 L 471.0563049316406 183.09091186523438" fill-opacity="1" clip-path="url(#BXqFlEweCZTa)"/><path fill="rgb(115,210,222)" stroke="none" paint-order="stroke" d="M 471.3476867675781 183.09091186523438 L 471.4115867689252 183.09091186523438 L 471.4115867689252 498.9090881347656 L 471.3476867675781 498.9090881347656 L 471.3476867675781 183.09091186523438" fill-opacity="1" clip-path="url(#BXqFlEweCZTa)"/><path fill="rgb(115,210,222)" stroke="none" paint-order="stroke" d="M 471.3476867675781 183.09091186523438 L 471.4115867689252 183.09091186523438 L 471.4115867689252 498.9090881347656 L 471.3476867675781 498.9090881347656 L 471.3476867675781 183.09091186523438" fill-opacity="1" clip-path="url(#BXqFlEweCZTa)"/><path fill="rgb(115,210,222)" stroke="none" paint-order="stroke" d="M 471.6595153808594 183.09091186523438 L 471.72341538220644 183.09091186523438 L 471.72341538220644 498.9090881347656 L 471.6595153808594 498.9090881347656 L 471.6595153808594 183.09091186523438" fill-opacity="1" clip-path="url(#BXqFlEweCZTa)"/><path fill="rgb(115,210,222)" stroke="none" paint-order="stroke" d="M 471.6595153808594 183.09091186523438 L 471.72341538220644 183.09091186523438 L 471.72341538220644 498.9090881347656 L 471.6595153808594 498.9090881347656 L 471.6595153808594 183.09091186523438" fill-opacity="1" clip-path="url(#BXqFlEweCZTa)"/><path fill="rgb(115,210,222)" stroke="none" paint-order="stroke" d="M 472.2384338378906 183.09091186523438 L 472.3023338392377 183.09091186523438 L 472.3023338392377 498.9090881347656 L 472.2384338378906 498.9090881347656 L 472.2384338378906 183.09091186523438" fill-opacity="1" clip-path="url(#BXqFlEweCZTa)"/><path fill="rgb(115,210,222)" stroke="none" paint-order="stroke" d="M 472.2384338378906 183.09091186523438 L 472.3023338392377 183.09091186523438 L 472.3023338392377 498.9090881347656 L 472.2384338378906 498.9090881347656 L 472.2384338378906 183.09091186523438" fill-opacity="1" clip-path="url(#BXqFlEweCZTa)"/><path fill="rgb(115,210,222)" stroke="none" paint-order="stroke" d="M 474.7497253417969 183.09091186523438 L 477.3146712779999 183.09091186523438 L 477.3146712779999 498.9090881347656 L 474.7497253417969 498.9090881347656 L 474.7497253417969 183.09091186523438" fill-opacity="1" clip-path="url(#BXqFlEweCZTa)"/><path fill="rgb(115,210,222)" stroke="none" paint-order="stroke" d="M 484.3679504394531 183.09091186523438 L 485.8172024488449 183.09091186523438 L 485.8172024488449 498.9090881347656 L 484.3679504394531 498.9090881347656 L 484.3679504394531 183.09091186523438" fill-opacity="1" clip-path="url(#BXqFlEweCZTa)"/><path fill="rgb(28,49,68)" stroke="none" paint-order="stroke" d="M 293.871826171875 183.09091186523438 L 295.2635681629181 183.09091186523438 L 295.2635681629181 498.9090881347656 L 293.871826171875 498.9090881347656 L 293.871826171875 183.09091186523438" fill-opacity="1" clip-path="url(#RlTtdioMzDEe)"/><path fill="rgb(28,49,68)" stroke="none" paint-order="stroke" d="M 296.6527404785156 183.09091186523438 L 297.2534005045891 183.09091186523438 L 297.2534005045891 498.9090881347656 L 296.6527404785156 498.9090881347656 L 296.6527404785156 183.09091186523438" fill-opacity="1" clip-path="url(#RlTtdioMzDEe)"/><path fill="rgb(28,49,68)" stroke="none" paint-order="stroke" d="M 297.8617248535156 183.09091186523438 L 298.51350486278534 183.09091186523438 L 298.51350486278534 498.9090881347656 L 297.8617248535156 498.9090881347656 L 297.8617248535156 183.09091186523438" fill-opacity="1" clip-path="url(#RlTtdioMzDEe)"/><path fill="rgb(28,49,68)" stroke="none" paint-order="stroke" d="M 299.4898986816406 183.09091186523438 L 301.79029870033264 183.09091186523438 L 301.79029870033264 498.9090881347656 L 299.4898986816406 498.9090881347656 L 299.4898986816406 183.09091186523438" fill-opacity="1" clip-path="url(#RlTtdioMzDEe)"/><path fill="rgb(28,49,68)" stroke="none" paint-order="stroke" d="M 352.248291015625 183.09091186523438 L 359.4971070289612 183.09091186523438 L 359.4971070289612 498.9090881347656 L 352.248291015625 498.9090881347656 L 352.248291015625 183.09091186523438" fill-opacity="1" clip-path="url(#RlTtdioMzDEe)"/><path fill="rgb(28,49,68)" stroke="none" paint-order="stroke" d="M 395.9955139160156 183.09091186523438 L 400.23591804504395 183.09091186523438 L 400.23591804504395 498.9090881347656 L 395.9955139160156 498.9090881347656 L 395.9955139160156 183.09091186523438" fill-opacity="1" clip-path="url(#RlTtdioMzDEe)"/><path fill="rgb(239,185,203)" stroke="none" paint-order="stroke" d="M 62.847755432128906 183.09091186523438 L 225.00678253173828 183.09091186523438 L 225.00678253173828 498.9090881347656 L 62.847755432128906 498.9090881347656 L 62.847755432128906 183.09091186523438" fill-opacity="1" clip-path="url(#FIwwUrCRVSEz)"/><path fill="rgb(239,185,203)" stroke="none" paint-order="stroke" d="M 239.950439453125 183.09091186523438 L 245.05604934692383 183.09091186523438 L 245.05604934692383 498.9090881347656 L 239.950439453125 498.9090881347656 L 239.950439453125 183.09091186523438" fill-opacity="1" clip-path="url(#FIwwUrCRVSEz)"/><path fill="rgb(239,185,203)" stroke="none" paint-order="stroke" d="M 317.0215148925781 183.09091186523438 L 328.820011138916 183.09091186523438 L 328.820011138916 498.9090881347656 L 317.0215148925781 498.9090881347656 L 317.0215148925781 183.09091186523438" fill-opacity="1" clip-path="url(#FIwwUrCRVSEz)"/><path fill="rgb(239,185,203)" stroke="none" paint-order="stroke" d="M 373.6049499511719 183.09091186523438 L 386.51402759552 183.09091186523438 L 386.51402759552 498.9090881347656 L 373.6049499511719 498.9090881347656 L 373.6049499511719 183.09091186523438" fill-opacity="1" clip-path="url(#FIwwUrCRVSEz)"/><path fill="rgb(239,185,203)" stroke="none" paint-order="stroke" d="M 489.0211486816406 183.09091186523438 L 501.85226821899414 183.09091186523438 L 501.85226821899414 498.9090881347656 L 489.0211486816406 498.9090881347656 L 489.0211486816406 183.09091186523438" fill-opacity="1" clip-path="url(#FIwwUrCRVSEz)"/><path fill="rgb(105,29,48)" stroke="none" paint-order="stroke" d="M 334.2157287597656 183.09091186523438 L 338.1506907939911 183.09091186523438 L 338.1506907939911 498.9090881347656 L 334.2157287597656 498.9090881347656 L 334.2157287597656 183.09091186523438" fill-opacity="1" clip-path="url(#FFnSmdhGbqOi)"/><path fill="rgb(105,29,48)" stroke="none" paint-order="stroke" d="M 437.7669372558594 183.09091186523438 L 441.83225536346436 183.09091186523438 L 441.83225536346436 498.9090881347656 L 437.7669372558594 498.9090881347656 L 437.7669372558594 183.09091186523438" fill-opacity="1" clip-path="url(#FFnSmdhGbqOi)"/><path fill="rgb(255,188,66)" stroke="none" paint-order="stroke" d="M 392.42095947265625 498.9090881347656 L 511.41170501708984 498.9090881347656 L 511.41170501708984 551.5454521179199 L 392.42095947265625 551.5454521179199 L 392.42095947265625 498.9090881347656" fill-opacity="1" clip-path="url(#vfWxwfcyDnru)"/><path fill="rgb(143,45,86)" stroke="none" paint-order="stroke" d="M 58.5 551.5454711914062 L 259.27252197265625 551.5454711914062 L 259.27252197265625 604.1818351745605 L 58.5 604.1818351745605 L 58.5 551.5454711914062" fill-opacity="1" clip-path="url(#dnlbLzfhzvco)"/><path fill="rgb(63,136,197)" stroke="none" paint-order="stroke" d="M 259.27252197265625 551.5454711914062 L 263.94361209869385 551.5454711914062 L 263.94361209869385 604.1818351745605 L 259.27252197265625 604.1818351745605 L 259.27252197265625 551.5454711914062" fill-opacity="1" clip-path="url(#dnlbLzfhzvco)"/><path fill="rgb(81,60,99)" stroke="none" paint-order="stroke" d="M 263.943603515625 551.5454711914062 L 271.13874340057373 551.5454711914062 L 271.13874340057373 604.1818351745605 L 263.943603515625 604.1818351745605 L 263.943603515625 551.5454711914062" fill-opacity="1" clip-path="url(#dnlbLzfhzvco)"/><path fill="rgb(143,45,86)" stroke="none" paint-order="stroke" d="M 271.1387634277344 551.5454711914062 L 271.2243894264102 551.5454711914062 L 271.2243894264102 604.1818351745605 L 271.1387634277344 604.1818351745605 L 271.1387634277344 551.5454711914062" fill-opacity="1" clip-path="url(#dnlbLzfhzvco)"/><path fill="rgb(81,60,99)" stroke="none" paint-order="stroke" d="M 271.224365234375 551.5454711914062 L 274.4819872379303 551.5454711914062 L 274.4819872379303 604.1818351745605 L 271.224365234375 604.1818351745605 L 271.224365234375 551.5454711914062" fill-opacity="1" clip-path="url(#dnlbLzfhzvco)"/><path fill="rgb(143,45,86)" stroke="none" paint-order="stroke" d="M 274.48199462890625 551.5454711914062 L 274.99191665649414 551.5454711914062 L 274.99191665649414 604.1818351745605 L 274.48199462890625 604.1818351745605 L 274.48199462890625 551.5454711914062" fill-opacity="1" clip-path="url(#dnlbLzfhzvco)"/><path fill="rgb(81,60,99)" stroke="none" paint-order="stroke" d="M 274.9919128417969 551.5454711914062 L 275.46221685409546 551.5454711914062 L 275.46221685409546 604.1818351745605 L 274.9919128417969 604.1818351745605 L 274.9919128417969 551.5454711914062" fill-opacity="1" clip-path="url(#dnlbLzfhzvco)"/><path fill="rgb(143,45,86)" stroke="none" paint-order="stroke" d="M 275.46221923828125 551.5454711914062 L 276.58941519260406 551.5454711914062 L 276.58941519260406 604.1818351745605 L 275.46221923828125 604.1818351745605 L 275.46221923828125 551.5454711914062" fill-opacity="1" clip-path="url(#dnlbLzfhzvco)"/><path fill="rgb(81,60,99)" stroke="none" paint-order="stroke" d="M 276.58941650390625 551.5454711914062 L 289.26078605651855 551.5454711914062 L 289.26078605651855 604.1818351745605 L 276.58941650390625 604.1818351745605 L 276.58941650390625 551.5454711914062" fill-opacity="1" clip-path="url(#dnlbLzfhzvco)"/><path fill="rgb(143,45,86)" stroke="none" paint-order="stroke" d="M 289.26080322265625 551.5454711914062 L 304.8932991027832 551.5454711914062 L 304.8932991027832 604.1818351745605 L 289.26080322265625 604.1818351745605 L 289.26080322265625 551.5454711914062" fill-opacity="1" clip-path="url(#dnlbLzfhzvco)"/><path fill="rgb(81,60,99)" stroke="none" paint-order="stroke" d="M 304.8932800292969 551.5454711914062 L 350.1268119812012 551.5454711914062 L 350.1268119812012 604.1818351745605 L 304.8932800292969 604.1818351745605 L 304.8932800292969 551.5454711914062" fill-opacity="1" clip-path="url(#dnlbLzfhzvco)"/><path fill="rgb(143,45,86)" stroke="none" paint-order="stroke" d="M 350.1268310546875 551.5454711914062 L 350.4054350554943 551.5454711914062 L 350.4054350554943 604.1818351745605 L 350.1268310546875 604.1818351745605 L 350.1268310546875 551.5454711914062" fill-opacity="1" clip-path="url(#dnlbLzfhzvco)"/><path fill="rgb(81,60,99)" stroke="none" paint-order="stroke" d="M 350.4054260253906 551.5454711914062 L 361.7604560852051 551.5454711914062 L 361.7604560852051 604.1818351745605 L 350.4054260253906 604.1818351745605 L 350.4054260253906 551.5454711914062" fill-opacity="1" clip-path="url(#dnlbLzfhzvco)"/><path fill="rgb(143,45,86)" stroke="none" paint-order="stroke" d="M 361.7604675292969 551.5454711914062 L 454.7720260620117 551.5454711914062 L 454.7720260620117 604.1818351745605 L 361.7604675292969 604.1818351745605 L 361.7604675292969 551.5454711914062" fill-opacity="1" clip-path="url(#dnlbLzfhzvco)"/><path fill="rgb(81,60,99)" stroke="none" paint-order="stroke" d="M 454.7720031738281 551.5454711914062 L 511.4116859436035 551.5454711914062 L 511.4116859436035 604.1818351745605 L 454.7720031738281 604.1818351745605 L 454.7720031738281 551.5454711914062" fill-opacity="1" clip-path="url(#dnlbLzfhzvco)"/><path fill="none" stroke="rgb(0,0,0)" paint-order="fill" d="M 58.5 77.81818389892578 L 511.4117126464844 77.81818389892578 L 511.4117126464844 604.1818313598633 L 58.5 604.1818313598633 L 58.5 77.81818389892578" stroke-opacity="1" stroke-linejoin="bevel" stroke-miterlimit="10" stroke-dasharray="" clip-path="url(#pDDkKVXGLlEs)"/><path fill="none" stroke="rgb(0,0,0)" paint-order="fill" d="M 58.5 630.5 L 1336.5 630.5" stroke-opacity="1" stroke-linejoin="bevel" stroke-miterlimit="10" stroke-dasharray=""/><path fill="none" stroke="rgb(0,0,0)" paint-order="fill" d="M 58.5 636.5 L 58.5 628.5 M 314.5 636.5 L 314.5 628.5 M 569.5 636.5 L 569.5 628.5 M 825.5 636.5 L 825.5 628.5 M 1080.5 636.5 L 1080.5 628.5 M 1336.5 636.5 L 1336.5 628.5" stroke-opacity="1" stroke-linejoin="bevel" stroke-miterlimit="10" stroke-dasharray=""/><path fill="none" stroke="rgb(0,0,0)" paint-order="fill" d="M 58.5 634.5 L 58.5 630.5 M 109.5 634.5 L 109.5 630.5 M 160.5 634.5 L 160.5 630.5 M 211.5 634.5 L 211.5 630.5 M 262.5 634.5 L 262.5 630.5 M 314.5 634.5 L 314.5 630.5 M 365.5 634.5 L 365.5 630.5 M 416.5 634.5 L 416.5 630.5 M 467.5 634.5 L 467.5 630.5 M 518.5 634.5 L 518.5 630.5 M 569.5 634.5 L 569.5 630.5 M 620.5 634.5 L 620.5 630.5 M 671.5 634.5 L 671.5 630.5 M 723.5 634.5 L 723.5 630.5 M 774.5 634.5 L 774.5 630.5 M 825.5 634.5 L 825.5 630.5 M 876.5 634.5 L 876.5 630.5 M 927.5 634.5 L 927.5 630.5 M 978.5 634.5 L 978.5 630.5 M 1029.5 634.5 L 1029.5 630.5 M 1080.5 634.5 L 1080.5 630.5 M 1132.5 634.5 L 1132.5 630.5 M 1183.5 634.5 L 1183.5 630.5 M 1234.5 634.5 L 1234.5 630.5 M 1285.5 634.5 L 1285.5 630.5 M 1336.5 634.5 L 1336.5 630.5" stroke-opacity="1" stroke-linejoin="bevel" stroke-miterlimit="10" stroke-dasharray=""/><text fill="rgb(68,68,68)" stroke="none" font-family="helvetica" font-size="11px" font-style="normal" font-weight="normal" text-decoration="normal" x="54.94166660308838" y="648.89013671875" text-anchor="start" dominant-baseline="alphabetic" transform="matrix(1, 0, 0, 1, 0.5, 0.5)" fill-opacity="1">0</text><text fill="rgb(68,68,68)" stroke="none" font-family="helvetica" font-size="11px" font-style="normal" font-weight="normal" text-decoration="normal" x="304.42500591278076" y="648.89013671875" text-anchor="start" dominant-baseline="alphabetic" transform="matrix(1, 0, 0, 1, 0.5, 0.5)" fill-opacity="1">200</text><text fill="rgb(68,68,68)" stroke="none" font-family="helvetica" font-size="11px" font-style="normal" font-weight="normal" text-decoration="normal" x="560.0250120162964" y="648.89013671875" text-anchor="start" dominant-baseline="alphabetic" transform="matrix(1, 0, 0, 1, 0.5, 0.5)" fill-opacity="1">400</text><text fill="rgb(68,68,68)" stroke="none" font-family="helvetica" font-size="11px" font-style="normal" font-weight="normal" text-decoration="normal" x="815.6249876022339" y="648.89013671875" text-anchor="start" dominant-baseline="alphabetic" transform="matrix(1, 0, 0, 1, 0.5, 0.5)" fill-opacity="1">600</text><text fill="rgb(68,68,68)" stroke="none" font-family="helvetica" font-size="11px" font-style="normal" font-weight="normal" text-decoration="normal" x="1071.2250242233276" y="648.89013671875" text-anchor="start" dominant-baseline="alphabetic" transform="matrix(1, 0, 0, 1, 0.5, 0.5)" fill-opacity="1">800</text><text fill="rgb(68,68,68)" stroke="none" font-family="helvetica" font-size="11px" font-style="normal" font-weight="normal" text-decoration="normal" x="1323.7666664123535" y="648.89013671875" text-anchor="start" dominant-baseline="alphabetic" transform="matrix(1, 0, 0, 1, 0.5, 0.5)" fill-opacity="1">1000</text><text fill="rgb(68,68,68)" stroke="none" font-family="helvetica" font-size="15pt" font-style="italic" font-weight="normal" text-decoration="normal" x="666.4416675567627" y="676.06982421875" text-anchor="start" dominant-baseline="alphabetic" transform="matrix(1, 0, 0, 1, 0.5, 0.5)" fill-opacity="1">time(s)</text><path fill="none" stroke="rgb(0,0,0)" paint-order="fill" d="M 58.5 630.5 L 58.5 51.5" stroke-opacity="1" stroke-linejoin="bevel" stroke-miterlimit="10" stroke-dasharray=""/><path fill="none" stroke="rgb(0,0,0)" paint-order="fill" d="M 52.5 551.5 L 60.5 551.5 M 52.5 446.5 L 60.5 446.5 M 52.5 341.5 L 60.5 341.5 M 52.5 235.5 L 60.5 235.5 M 52.5 130.5 L 60.5 130.5" stroke-opacity="1" stroke-linejoin="bevel" stroke-miterlimit="10" stroke-dasharray=""/><path fill="none" stroke="rgb(0,0,0)" paint-order="fill" d="M 54.5 572.5 L 58.5 572.5 M 54.5 593.5 L 58.5 593.5 M 54.5 614.5 L 58.5 614.5 M 54.5 551.5 L 58.5 551.5 M 54.5 530.5 L 58.5 530.5 M 54.5 509.5 L 58.5 509.5 M 54.5 488.5 L 58.5 488.5 M 54.5 467.5 L 58.5 467.5 M 54.5 446.5 L 58.5 446.5 M 54.5 425.5 L 58.5 425.5 M 54.5 404.5 L 58.5 404.5 M 54.5 383.5 L 58.5 383.5 M 54.5 362.5 L 58.5 362.5 M 54.5 341.5 L 58.5 341.5 M 54.5 319.5 L 58.5 319.5 M 54.5 298.5 L 58.5 298.5 M 54.5 277.5 L 58.5 277.5 M 54.5 256.5 L 58.5 256.5 M 54.5 235.5 L 58.5 235.5 M 54.5 214.5 L 58.5 214.5 M 54.5 193.5 L 58.5 193.5 M 54.5 172.5 L 58.5 172.5 M 54.5 151.5 L 58.5 151.5 M 54.5 130.5 L 58.5 130.5 M 54.5 109.5 L 58.5 109.5 M 54.5 88.5 L 58.5 88.5 M 54.5 67.5 L 58.5 67.5" stroke-opacity="1" stroke-linejoin="bevel" stroke-miterlimit="10" stroke-dasharray=""/><text fill="rgb(68,68,68)" stroke="none" font-family="helvetica" font-size="11px" font-style="normal" font-weight="normal" text-decoration="normal" x="34.46666622161865" y="554.9905395507812" text-anchor="start" dominant-baseline="alphabetic" transform="matrix(1, 0, 0, 1, 0.5, 0.5)" fill-opacity="1">2</text><text fill="rgb(68,68,68)" stroke="none" font-family="helvetica" font-size="11px" font-style="normal" font-weight="normal" text-decoration="normal" x="34.46666622161865" y="449.7178039550781" text-anchor="start" dominant-baseline="alphabetic" transform="matrix(1, 0, 0, 1, 0.5, 0.5)" fill-opacity="1">1</text><text fill="rgb(68,68,68)" stroke="none" font-family="helvetica" font-size="11px" font-style="normal" font-weight="normal" text-decoration="normal" x="40.88333320617676" y="344.445068359375" text-anchor="start" dominant-baseline="alphabetic" transform="matrix(1, 0, 0, 1, 0.5, 0.5)" fill-opacity="1">0</text><text fill="rgb(68,68,68)" stroke="none" font-family="helvetica" font-size="11px" font-style="normal" font-weight="normal" text-decoration="normal" x="40.88333320617676" y="239.17234802246094" text-anchor="start" dominant-baseline="alphabetic" transform="matrix(1, 0, 0, 1, 0.5, 0.5)" fill-opacity="1">1</text><text fill="rgb(68,68,68)" stroke="none" font-family="helvetica" font-size="11px" font-style="normal" font-weight="normal" text-decoration="normal" x="40.88333320617676" y="133.8996124267578" text-anchor="start" dominant-baseline="alphabetic" transform="matrix(1, 0, 0, 1, 0.5, 0.5)" fill-opacity="1">2</text><text fill="rgb(68,68,68)" stroke="none" font-family="helvetica" font-size="15pt" font-style="italic" font-weight="normal" text-decoration="normal" x="-11.316666603088379" y="336.076171875" text-anchor="start" dominant-baseline="alphabetic" transform="matrix(6.123233995736766e-17, -1, 1, 6.123233995736766e-17, -313.53333377838135, 367.46666622161865)" fill-opacity="1">students</text><path fill="rgb(255,255,255)" stroke="rgb(229,229,229)" paint-order="fill" d="M 1128.2333374023438 61.5 L 1326.5 61.5 L 1326.5 400.5 L 1128.2333374023438 400.5 L 1128.2333374023438 61.5" fill-opacity="0.9490196078431372" clip-path="url(#vkJZnecEelfT)" stroke-opacity="0.5019607843137255" stroke-linejoin="bevel" stroke-miterlimit="10" stroke-dasharray=""/><text fill="rgb(68,68,68)" stroke="none" font-family="helvetica" font-size="13px" font-style="normal" font-weight="normal" text-decoration="normal" x="1162.7333374023438" y="81" text-anchor="start" dominant-baseline="central" clip-path="url(#vkJZnecEelfT)" transform="matrix(1, 0, 0, 1, 0.5, 0.5)" fill-opacity="1">wavelength</text><path fill="rgb(0,255,40)" stroke="none" paint-order="stroke" d="M 1140.2333374023438 73.5 L 1156.2333374023438 73.5 L 1156.2333374023438 89.5 L 1140.2333374023438 89.5 L 1140.2333374023438 73.5" fill-opacity="1" clip-path="url(#vkJZnecEelfT)"/><path fill="rgb(216,17,89)" stroke="none" paint-order="stroke" d="M 1140.2333374023438 73.5 L 1156.2333374023438 73.5 L 1156.2333374023438 89.5 L 1140.2333374023438 89.5 L 1140.2333374023438 73.5" fill-opacity="1" clip-path="url(#vkJZnecEelfT)"/><text fill="rgb(68,68,68)" stroke="none" font-family="helvetica" font-size="13px" font-style="normal" font-weight="normal" text-decoration="normal" x="1162.7333374023438" y="104" text-anchor="start" dominant-baseline="central" clip-path="url(#vkJZnecEelfT)" transform="matrix(1, 0, 0, 1, 0.5, 0.5)" fill-opacity="1">solution</text><path fill="rgb(251,0,7)" stroke="none" paint-order="stroke" d="M 1140.2333374023438 96.5 L 1156.2333374023438 96.5 L 1156.2333374023438 112.5 L 1140.2333374023438 112.5 L 1140.2333374023438 96.5" fill-opacity="1" clip-path="url(#vkJZnecEelfT)"/><path fill="rgb(33,131,128)" stroke="none" paint-order="stroke" d="M 1140.2333374023438 96.5 L 1156.2333374023438 96.5 L 1156.2333374023438 112.5 L 1140.2333374023438 112.5 L 1140.2333374023438 96.5" fill-opacity="1" clip-path="url(#vkJZnecEelfT)"/><text fill="rgb(68,68,68)" stroke="none" font-family="helvetica" font-size="13px" font-style="normal" font-weight="normal" text-decoration="normal" x="1162.7333374023438" y="127" text-anchor="start" dominant-baseline="central" clip-path="url(#vkJZnecEelfT)" transform="matrix(1, 0, 0, 1, 0.5, 0.5)" fill-opacity="1">laser</text><path fill="rgb(105,29,48)" stroke="none" paint-order="stroke" d="M 1140.2333374023438 119.5 L 1156.2333374023438 119.5 L 1156.2333374023438 135.5 L 1140.2333374023438 135.5 L 1140.2333374023438 119.5" fill-opacity="1" clip-path="url(#vkJZnecEelfT)"/><text fill="rgb(68,68,68)" stroke="none" font-family="helvetica" font-size="13px" font-style="normal" font-weight="normal" text-decoration="normal" x="1162.7333374023438" y="150" text-anchor="start" dominant-baseline="central" clip-path="url(#vkJZnecEelfT)" transform="matrix(1, 0, 0, 1, 0.5, 0.5)" fill-opacity="1">ruler</text><path fill="rgb(255,188,66)" stroke="none" paint-order="stroke" d="M 1140.2333374023438 142.5 L 1156.2333374023438 142.5 L 1156.2333374023438 158.5 L 1140.2333374023438 158.5 L 1140.2333374023438 142.5" fill-opacity="1" clip-path="url(#vkJZnecEelfT)"/><text fill="rgb(68,68,68)" stroke="none" font-family="helvetica" font-size="13px" font-style="normal" font-weight="normal" text-decoration="normal" x="1162.7333374023438" y="173" text-anchor="start" dominant-baseline="central" clip-path="url(#vkJZnecEelfT)" transform="matrix(1, 0, 0, 1, 0.5, 0.5)" fill-opacity="1">restarts</text><path fill="rgb(162,174,187)" stroke="none" paint-order="stroke" d="M 1140.2333374023438 165.5 L 1156.2333374023438 165.5 L 1156.2333374023438 181.5 L 1140.2333374023438 181.5 L 1140.2333374023438 165.5" fill-opacity="1" clip-path="url(#vkJZnecEelfT)"/><text fill="rgb(68,68,68)" stroke="none" font-family="helvetica" font-size="13px" font-style="normal" font-weight="normal" text-decoration="normal" x="1162.7333374023438" y="196" text-anchor="start" dominant-baseline="central" clip-path="url(#vkJZnecEelfT)" transform="matrix(1, 0, 0, 1, 0.5, 0.5)" fill-opacity="1">transmittance_absorbance</text><path fill="rgb(162,174,187)" stroke="none" paint-order="stroke" d="M 1140.2333374023438 188.5 L 1156.2333374023438 188.5 L 1156.2333374023438 204.5 L 1140.2333374023438 204.5 L 1140.2333374023438 188.5" fill-opacity="1" clip-path="url(#vkJZnecEelfT)"/><text fill="rgb(68,68,68)" stroke="none" font-family="helvetica" font-size="13px" font-style="normal" font-weight="normal" text-decoration="normal" x="1162.7333374023438" y="219" text-anchor="start" dominant-baseline="central" clip-path="url(#vkJZnecEelfT)" transform="matrix(1, 0, 0, 1, 0.5, 0.5)" fill-opacity="1">magnifier</text><path fill="rgb(255,188,66)" stroke="none" paint-order="stroke" d="M 1140.2333374023438 211.5 L 1156.2333374023438 211.5 L 1156.2333374023438 227.5 L 1140.2333374023438 227.5 L 1140.2333374023438 211.5" fill-opacity="1" clip-path="url(#vkJZnecEelfT)"/><text fill="rgb(68,68,68)" stroke="none" font-family="helvetica" font-size="13px" font-style="normal" font-weight="normal" text-decoration="normal" x="1162.7333374023438" y="242" text-anchor="start" dominant-baseline="central" clip-path="url(#vkJZnecEelfT)" transform="matrix(1, 0, 0, 1, 0.5, 0.5)" fill-opacity="1">concentration</text><path fill="rgb(115,210,222)" stroke="none" paint-order="stroke" d="M 1140.2333374023438 234.5 L 1156.2333374023438 234.5 L 1156.2333374023438 250.5 L 1140.2333374023438 250.5 L 1140.2333374023438 234.5" fill-opacity="1" clip-path="url(#vkJZnecEelfT)"/><text fill="rgb(68,68,68)" stroke="none" font-family="helvetica" font-size="13px" font-style="normal" font-weight="normal" text-decoration="normal" x="1162.7333374023438" y="265" text-anchor="start" dominant-baseline="central" clip-path="url(#vkJZnecEelfT)" transform="matrix(1, 0, 0, 1, 0.5, 0.5)" fill-opacity="1">flask</text><path fill="rgb(28,49,68)" stroke="none" paint-order="stroke" d="M 1140.2333374023438 257.5 L 1156.2333374023438 257.5 L 1156.2333374023438 273.5 L 1140.2333374023438 273.5 L 1140.2333374023438 257.5" fill-opacity="1" clip-path="url(#vkJZnecEelfT)"/><text fill="rgb(68,68,68)" stroke="none" font-family="helvetica" font-size="13px" font-style="normal" font-weight="normal" text-decoration="normal" x="1162.7333374023438" y="288" text-anchor="start" dominant-baseline="central" clip-path="url(#vkJZnecEelfT)" transform="matrix(1, 0, 0, 1, 0.5, 0.5)" fill-opacity="1">pdf</text><path fill="rgb(239,185,203)" stroke="none" paint-order="stroke" d="M 1140.2333374023438 280.5 L 1156.2333374023438 280.5 L 1156.2333374023438 296.5 L 1140.2333374023438 296.5 L 1140.2333374023438 280.5" fill-opacity="1" clip-path="url(#vkJZnecEelfT)"/><text fill="rgb(68,68,68)" stroke="none" font-family="helvetica" font-size="13px" font-style="normal" font-weight="normal" text-decoration="normal" x="1162.7333374023438" y="311" text-anchor="start" dominant-baseline="central" clip-path="url(#vkJZnecEelfT)" transform="matrix(1, 0, 0, 1, 0.5, 0.5)" fill-opacity="1">concentrationlab</text><text fill="rgb(68,68,68)" stroke="none" font-family="helvetica" font-size="13px" font-style="normal" font-weight="normal" text-decoration="normal" x="1162.7333374023438" y="334" text-anchor="start" dominant-baseline="central" clip-path="url(#vkJZnecEelfT)" transform="matrix(1, 0, 0, 1, 0.5, 0.5)" fill-opacity="1">wavelength_slider</text><path fill="rgb(105,29,48)" stroke="none" paint-order="stroke" d="M 1140.2333374023438 326.5 L 1156.2333374023438 326.5 L 1156.2333374023438 342.5 L 1140.2333374023438 342.5 L 1140.2333374023438 326.5" fill-opacity="1" clip-path="url(#vkJZnecEelfT)"/><text fill="rgb(68,68,68)" stroke="none" font-family="helvetica" font-size="13px" font-style="normal" font-weight="normal" text-decoration="normal" x="1162.7333374023438" y="357" text-anchor="start" dominant-baseline="central" clip-path="url(#vkJZnecEelfT)" transform="matrix(1, 0, 0, 1, 0.5, 0.5)" fill-opacity="1">ruler measuring</text><path fill="rgb(255,188,66)" stroke="none" paint-order="stroke" d="M 1140.2333374023438 349.5 L 1156.2333374023438 349.5 L 1156.2333374023438 365.5 L 1140.2333374023438 365.5 L 1140.2333374023438 349.5" fill-opacity="1" clip-path="url(#vkJZnecEelfT)"/><text fill="rgb(68,68,68)" stroke="none" font-family="helvetica" font-size="13px" font-style="normal" font-weight="normal" text-decoration="normal" x="1162.7333374023438" y="380" text-anchor="start" dominant-baseline="central" clip-path="url(#vkJZnecEelfT)" transform="matrix(1, 0, 0, 1, 0.5, 0.5)" fill-opacity="1">dependent variable</text><path fill="rgb(143,45,86)" stroke="none" paint-order="stroke" d="M 1140.2333374023438 372.5 L 1156.2333374023438 372.5 L 1156.2333374023438 388.5 L 1140.2333374023438 388.5 L 1140.2333374023438 372.5" fill-opacity="1" clip-path="url(#vkJZnecEelfT)"/><text fill="rgb(68,68,68)" stroke="none" font-family="helvetica" font-size="25pt" font-style="normal" font-weight="bold" text-decoration="normal" x="58" y="38.740885416666664" text-anchor="start" dominant-baseline="alphabetic" transform="matrix(1, 0, 0, 1, 0.5, 0.5)" fill-opacity="1">Timeline for student s43ut7tg with permutation missing for task 2</text></svg>