<svg version="1.1" xmlns="http://www.w3.org/2000/svg" width="1366" height="683"><defs><clipPath id="zIQLkGpChyoP"><path fill="none" stroke="none" d="M 58.5 51.5 L 1336.5 51.5 L 1336.5 630.5 L 58.5 630.5 L 58.5 51.5"/></clipPath><clipPath id="xJTwLBMDZCrv"><path fill="none" stroke="none" d="M 58.5 51.5 L 1336.5 51.5 L 1336.5 630.5 L 58.5 630.5 L 58.5 51.5"/></clipPath><clipPath id="hrnQsXLsSNeL"><path fill="none" stroke="none" d="M 58.5 51.5 L 1336.5 51.5 L 1336.5 630.5 L 58.5 630.5 L 58.5 51.5"/></clipPath><clipPath id="rIaiJLleweNR"><path fill="none" stroke="none" d="M 58.5 51.5 L 1336.5 51.5 L 1336.5 630.5 L 58.5 630.5 L 58.5 51.5"/></clipPath><clipPath id="GDlotmJoKgyE"><path fill="none" stroke="none" d="M 58.5 51.5 L 1336.5 51.5 L 1336.5 630.5 L 58.5 630.5 L 58.5 51.5"/></clipPath><clipPath id="pkEPUXipCRSl"><path fill="none" stroke="none" d="M 58.5 51.5 L 1336.5 51.5 L 1336.5 630.5 L 58.5 630.5 L 58.5 51.5"/></clipPath><clipPath id="JPcXsnvTHpNL"><path fill="none" stroke="none" d="M 58.5 51.5 L 1336.5 51.5 L 1336.5 630.5 L 58.5 630.5 L 58.5 51.5"/></clipPath><clipPath id="CuESiqnveGFX"><path fill="none" stroke="none" d="M 58.5 51.5 L 1336.5 51.5 L 1336.5 630.5 L 58.5 630.5 L 58.5 51.5"/></clipPath><clipPath id="nxpEFgyunMKv"><path fill="none" stroke="none" d="M 58.5 51.5 L 1336.5 51.5 L 1336.5 630.5 L 58.5 630.5 L 58.5 51.5"/></clipPath><clipPath id="rZhxspTQwXLv"><path fill="none" stroke="none" d="M 58.5 51.5 L 1336.5 51.5 L 1336.5 630.5 L 58.5 630.5 L 58.5 51.5"/></clipPath><clipPath id="HnyoWXZCQZEn"><path fill="none" stroke="none" d="M 58.5 51.5 L 1336.5 51.5 L 1336.5 630.5 L 58.5 630.5 L 58.5 51.5"/></clipPath><clipPath id="qTbfzPoIbWbr"><path fill="none" stroke="none" d="M 58.5 51.5 L 1336.5 51.5 L 1336.5 630.5 L 58.5 630.5 L 58.5 51.5"/></clipPath><clipPath id="FMDbITyunRoR"><path fill="none" stroke="none" d="M 58.5 51.5 L 1336.5 51.5 L 1336.5 630.5 L 58.5 630.5 L 58.5 51.5"/></clipPath><clipPath id="dMdIVtRVuWaE"><path fill="none" stroke="none" d="M 58.5 51.5 L 1336.5 51.5 L 1336.5 630.5 L 58.5 630.5 L 58.5 51.5"/></clipPath><clipPath id="upbVgitsfqMa"><path fill="none" stroke="none" d="M 58.5 51.5 L 1336.5 51.5 L 1336.5 630.5 L 58.5 630.5 L 58.5 51.5"/></clipPath><clipPath id="JXnGRQyAUTdT"><path fill="none" stroke="none" d="M 58.5 51.5 L 1336.5 51.5 L 1336.5 630.5 L 58.5 630.5 L 58.5 51.5"/></clipPath><clipPath id="SDpqhSfonSrC"><path fill="none" stroke="none" d="M 58.5 51.5 L 1336.5 51.5 L 1336.5 630.5 L 58.5 630.5 L 58.5 51.5"/></clipPath><clipPath id="robxywpUlGdh"><path fill="none" stroke="none" d="M 58.5 51.5 L 1336.5 51.5 L 1336.5 630.5 L 58.5 630.5 L 58.5 51.5"/></clipPath><clipPath id="ZsEppTDUZTZO"><path fill="none" stroke="none" d="M 58.5 51.5 L 1336.5 51.5 L 1336.5 630.5 L 58.5 630.5 L 58.5 51.5"/></clipPath><clipPath id="krkfxmhUFoWa"><path fill="none" stroke="none" d="M 58.5 51.5 L 1336.5 51.5 L 1336.5 630.5 L 58.5 630.5 L 58.5 51.5"/></clipPath><clipPath id="xTLolGlTuyCW"><path fill="none" stroke="none" d="M 58.5 51.5 L 1336.5 51.5 L 1336.5 630.5 L 58.5 630.5 L 58.5 51.5"/></clipPath></defs><path fill="rgb(255,255,255)" stroke="none" paint-order="stroke" d="M 0.5 0.5 L 1366.5 0.5 L 1366.5 683.5 L 0.5 683.5 L 0.5 0.5" fill-opacity="1"/><rect fill="#FFFFFF" stroke="none" x="58" y="51" width="1278" height="579" transform="matrix(1, 0, 0, 1, 0.5, 0.5)"/><path fill="rgb(255,255,255)" stroke="none" paint-order="stroke" d="M 58.5 51.5 L 1336.5 51.5 L 1336.5 630.5 L 58.5 630.5 L 58.5 51.5" fill-opacity="1"/><path fill="none" stroke="rgb(229,229,229)" paint-order="fill" d="M 58.5 51.5 L 1336.5 51.5 L 1336.5 630.5 L 58.5 630.5 L 58.5 51.5" stroke-opacity="1" stroke-linejoin="bevel" stroke-miterlimit="10" stroke-dasharray=""/><path fill="none" stroke="rgb(229,229,229)" paint-order="fill" d="M 314.5 630.5 L 314.5 51.5 M 569.5 630.5 L 569.5 51.5 M 825.5 630.5 L 825.5 51.5 M 1080.5 630.5 L 1080.5 51.5" stroke-opacity="1" stroke-linejoin="bevel" stroke-miterlimit="10" stroke-dasharray="" clip-path="url(#zIQLkGpChyoP)"/><path fill="none" stroke="rgb(229,229,229)" paint-order="fill" d="M 58.5 551.5 L 1336.5 551.5 M 58.5 446.5 L 1336.5 446.5 M 58.5 341.5 L 1336.5 341.5 M 58.5 235.5 L 1336.5 235.5 M 58.5 130.5 L 1336.5 130.5" stroke-opacity="1" stroke-linejoin="bevel" stroke-miterlimit="10" stroke-dasharray="" clip-path="url(#xJTwLBMDZCrv)"/><path fill="rgb(0,255,40)" stroke="none" paint-order="stroke" d="M 58.5 77.81818389892578 L 166.1548843383789 77.81818389892578 L 166.1548843383789 130.45454788208008 L 58.5 130.45454788208008 L 58.5 77.81818389892578" fill-opacity="1" clip-path="url(#hrnQsXLsSNeL)"/><path fill="rgb(0,0,0)" stroke="none" paint-order="stroke" d="M 166.15489196777344 77.81818389892578 L 173.64780616760254 77.81818389892578 L 173.64780616760254 130.45454788208008 L 166.15489196777344 130.45454788208008 L 166.15489196777344 77.81818389892578" fill-opacity="1" clip-path="url(#hrnQsXLsSNeL)"/><path fill="rgb(102,0,183)" stroke="none" paint-order="stroke" d="M 173.64779663085938 77.81818389892578 L 196.02685546875 77.81818389892578 L 196.02685546875 130.45454788208008 L 173.64779663085938 130.45454788208008 L 173.64779663085938 77.81818389892578" fill-opacity="1" clip-path="url(#hrnQsXLsSNeL)"/><path fill="rgb(0,255,40)" stroke="none" paint-order="stroke" d="M 196.02685546875 77.81818389892578 L 214.15272903442383 77.81818389892578 L 214.15272903442383 130.45454788208008 L 196.02685546875 130.45454788208008 L 196.02685546875 77.81818389892578" fill-opacity="1" clip-path="url(#hrnQsXLsSNeL)"/><path fill="rgb(0,0,0)" stroke="none" paint-order="stroke" d="M 214.15272521972656 77.81818389892578 L 216.60265111923218 77.81818389892578 L 216.60265111923218 130.45454788208008 L 214.15272521972656 130.45454788208008 L 214.15272521972656 77.81818389892578" fill-opacity="1" clip-path="url(#hrnQsXLsSNeL)"/><path fill="rgb(102,0,183)" stroke="none" paint-order="stroke" d="M 216.6026611328125 77.81818389892578 L 221.66481924057007 77.81818389892578 L 221.66481924057007 130.45454788208008 L 216.6026611328125 130.45454788208008 L 216.6026611328125 77.81818389892578" fill-opacity="1" clip-path="url(#hrnQsXLsSNeL)"/><path fill="rgb(0,0,0)" stroke="none" paint-order="stroke" d="M 221.66481018066406 77.81818389892578 L 246.6829376220703 77.81818389892578 L 246.6829376220703 130.45454788208008 L 221.66481018066406 130.45454788208008 L 221.66481018066406 77.81818389892578" fill-opacity="1" clip-path="url(#hrnQsXLsSNeL)"/><path fill="rgb(0,255,40)" stroke="none" paint-order="stroke" d="M 246.6829376220703 77.81818389892578 L 259.3198013305664 77.81818389892578 L 259.3198013305664 130.45454788208008 L 246.6829376220703 130.45454788208008 L 246.6829376220703 77.81818389892578" fill-opacity="1" clip-path="url(#hrnQsXLsSNeL)"/><path fill="rgb(0,0,0)" stroke="none" paint-order="stroke" d="M 259.3197937011719 77.81818389892578 L 273.95800590515137 77.81818389892578 L 273.95800590515137 130.45454788208008 L 259.3197937011719 130.45454788208008 L 259.3197937011719 77.81818389892578" fill-opacity="1" clip-path="url(#hrnQsXLsSNeL)"/><path fill="rgb(251,0,7)" stroke="none" paint-order="stroke" d="M 58.5 130.4545440673828 L 166.1548843383789 130.4545440673828 L 166.1548843383789 183.0909080505371 L 58.5 183.0909080505371 L 58.5 130.4545440673828" fill-opacity="1" clip-path="url(#rIaiJLleweNR)"/><path fill="rgb(27,121,255)" stroke="none" paint-order="stroke" d="M 166.15489196777344 130.4545440673828 L 173.64780616760254 130.4545440673828 L 173.64780616760254 183.0909080505371 L 166.15489196777344 183.0909080505371 L 166.15489196777344 130.4545440673828" fill-opacity="1" clip-path="url(#rIaiJLleweNR)"/><path fill="rgb(255,255,10)" stroke="none" paint-order="stroke" d="M 173.64779663085938 130.4545440673828 L 196.02685546875 130.4545440673828 L 196.02685546875 183.0909080505371 L 173.64779663085938 183.0909080505371 L 173.64779663085938 130.4545440673828" fill-opacity="1" clip-path="url(#rIaiJLleweNR)"/><path fill="rgb(251,0,7)" stroke="none" paint-order="stroke" d="M 196.02685546875 130.4545440673828 L 214.15272903442383 130.4545440673828 L 214.15272903442383 183.0909080505371 L 196.02685546875 183.0909080505371 L 196.02685546875 130.4545440673828" fill-opacity="1" clip-path="url(#rIaiJLleweNR)"/><path fill="rgb(27,121,255)" stroke="none" paint-order="stroke" d="M 214.15272521972656 130.4545440673828 L 216.60265111923218 130.4545440673828 L 216.60265111923218 183.0909080505371 L 214.15272521972656 183.0909080505371 L 214.15272521972656 130.4545440673828" fill-opacity="1" clip-path="url(#rIaiJLleweNR)"/><path fill="rgb(255,255,10)" stroke="none" paint-order="stroke" d="M 216.6026611328125 130.4545440673828 L 221.66481924057007 130.4545440673828 L 221.66481924057007 183.0909080505371 L 216.6026611328125 183.0909080505371 L 216.6026611328125 130.4545440673828" fill-opacity="1" clip-path="url(#rIaiJLleweNR)"/><path fill="rgb(27,121,255)" stroke="none" paint-order="stroke" d="M 221.66481018066406 130.4545440673828 L 246.6829376220703 130.4545440673828 L 246.6829376220703 183.0909080505371 L 221.66481018066406 183.0909080505371 L 221.66481018066406 130.4545440673828" fill-opacity="1" clip-path="url(#rIaiJLleweNR)"/><path fill="rgb(251,0,7)" stroke="none" paint-order="stroke" d="M 246.6829376220703 130.4545440673828 L 259.3198013305664 130.4545440673828 L 259.3198013305664 183.0909080505371 L 246.6829376220703 183.0909080505371 L 246.6829376220703 130.4545440673828" fill-opacity="1" clip-path="url(#rIaiJLleweNR)"/><path fill="rgb(27,121,255)" stroke="none" paint-order="stroke" d="M 259.3197937011719 130.4545440673828 L 273.95800590515137 130.4545440673828 L 273.95800590515137 183.0909080505371 L 259.3197937011719 183.0909080505371 L 259.3197937011719 130.4545440673828" fill-opacity="1" clip-path="url(#rIaiJLleweNR)"/><path fill="rgb(105,29,48)" stroke="none" paint-order="stroke" d="M 155.21392822265625 183.09091186523438 L 155.27782822400331 183.09091186523438 L 155.27782822400331 498.9090881347656 L 155.21392822265625 498.9090881347656 L 155.21392822265625 183.09091186523438" fill-opacity="1" clip-path="url(#GDlotmJoKgyE)"/><path fill="rgb(105,29,48)" stroke="none" paint-order="stroke" d="M 246.6829376220703 183.09091186523438 L 246.74683762341738 183.09091186523438 L 246.74683762341738 498.9090881347656 L 246.6829376220703 498.9090881347656 L 246.6829376220703 183.09091186523438" fill-opacity="1" clip-path="url(#GDlotmJoKgyE)"/><path fill="rgb(105,29,48)" stroke="none" paint-order="stroke" d="M 253.99693298339844 183.09091186523438 L 254.0608329847455 183.09091186523438 L 254.0608329847455 498.9090881347656 L 253.99693298339844 498.9090881347656 L 253.99693298339844 183.09091186523438" fill-opacity="1" clip-path="url(#GDlotmJoKgyE)"/><path fill="rgb(255,188,66)" stroke="none" paint-order="stroke" d="M 137.6733856201172 183.09091186523438 L 138.10918360948563 183.09091186523438 L 138.10918360948563 498.9090881347656 L 137.6733856201172 498.9090881347656 L 137.6733856201172 183.09091186523438" fill-opacity="1" clip-path="url(#pkEPUXipCRSl)"/><path fill="rgb(255,188,66)" stroke="none" paint-order="stroke" d="M 139.26065063476562 183.09091186523438 L 139.86386662721634 183.09091186523438 L 139.86386662721634 498.9090881347656 L 139.26065063476562 498.9090881347656 L 139.26065063476562 183.09091186523438" fill-opacity="1" clip-path="url(#pkEPUXipCRSl)"/><path fill="rgb(255,188,66)" stroke="none" paint-order="stroke" d="M 174.2203369140625 183.09091186523438 L 177.60831499099731 183.09091186523438 L 177.60831499099731 498.9090881347656 L 174.2203369140625 498.9090881347656 L 174.2203369140625 183.09091186523438" fill-opacity="1" clip-path="url(#pkEPUXipCRSl)"/><path fill="rgb(255,188,66)" stroke="none" paint-order="stroke" d="M 250.46453857421875 183.09091186523438 L 253.05121064186096 183.09091186523438 L 253.05121064186096 498.9090881347656 L 250.46453857421875 498.9090881347656 L 250.46453857421875 183.09091186523438" fill-opacity="1" clip-path="url(#pkEPUXipCRSl)"/><path fill="rgb(162,174,187)" stroke="none" paint-order="stroke" d="M 246.6829376220703 183.09091186523438 L 246.74683762341738 183.09091186523438 L 246.74683762341738 498.9090881347656 L 246.6829376220703 498.9090881347656 L 246.6829376220703 183.09091186523438" fill-opacity="1" clip-path="url(#JPcXsnvTHpNL)"/><path fill="rgb(162,174,187)" stroke="none" paint-order="stroke" d="M 118.56727600097656 183.09091186523438 L 118.63117600232363 183.09091186523438 L 118.63117600232363 498.9090881347656 L 118.56727600097656 498.9090881347656 L 118.56727600097656 183.09091186523438" fill-opacity="1" clip-path="url(#CuESiqnveGFX)"/><path fill="rgb(162,174,187)" stroke="none" paint-order="stroke" d="M 119.48487854003906 183.09091186523438 L 119.54877854138613 183.09091186523438 L 119.54877854138613 498.9090881347656 L 119.48487854003906 498.9090881347656 L 119.48487854003906 183.09091186523438" fill-opacity="1" clip-path="url(#CuESiqnveGFX)"/><path fill="rgb(162,174,187)" stroke="none" paint-order="stroke" d="M 184.21302795410156 183.09091186523438 L 184.27692795544863 183.09091186523438 L 184.27692795544863 498.9090881347656 L 184.21302795410156 498.9090881347656 L 184.21302795410156 183.09091186523438" fill-opacity="1" clip-path="url(#CuESiqnveGFX)"/><path fill="rgb(162,174,187)" stroke="none" paint-order="stroke" d="M 185.14085388183594 183.09091186523438 L 185.204753883183 183.09091186523438 L 185.204753883183 498.9090881347656 L 185.14085388183594 498.9090881347656 L 185.14085388183594 183.09091186523438" fill-opacity="1" clip-path="url(#CuESiqnveGFX)"/><path fill="rgb(162,174,187)" stroke="none" paint-order="stroke" d="M 208.80430603027344 183.09091186523438 L 208.8682060316205 183.09091186523438 L 208.8682060316205 498.9090881347656 L 208.80430603027344 498.9090881347656 L 208.80430603027344 183.09091186523438" fill-opacity="1" clip-path="url(#CuESiqnveGFX)"/><path fill="rgb(162,174,187)" stroke="none" paint-order="stroke" d="M 209.79986572265625 183.09091186523438 L 209.86376572400331 183.09091186523438 L 209.86376572400331 498.9090881347656 L 209.79986572265625 498.9090881347656 L 209.79986572265625 183.09091186523438" fill-opacity="1" clip-path="url(#CuESiqnveGFX)"/><path fill="rgb(255,188,66)" stroke="none" paint-order="stroke" d="M 113.73771667480469 183.09091186523438 L 115.79401874542236 183.09091186523438 L 115.79401874542236 498.9090881347656 L 113.73771667480469 498.9090881347656 L 113.73771667480469 183.09091186523438" fill-opacity="1" clip-path="url(#nxpEFgyunMKv)"/><path fill="rgb(255,188,66)" stroke="none" paint-order="stroke" d="M 116.27582550048828 183.09091186523438 L 116.68478551506996 183.09091186523438 L 116.68478551506996 498.9090881347656 L 116.27582550048828 498.9090881347656 L 116.27582550048828 183.09091186523438" fill-opacity="1" clip-path="url(#nxpEFgyunMKv)"/><path fill="rgb(255,188,66)" stroke="none" paint-order="stroke" d="M 116.99789428710938 183.09091186523438 L 117.14614228904247 183.09091186523438 L 117.14614228904247 498.9090881347656 L 116.99789428710938 498.9090881347656 L 116.99789428710938 183.09091186523438" fill-opacity="1" clip-path="url(#nxpEFgyunMKv)"/><path fill="rgb(255,188,66)" stroke="none" paint-order="stroke" d="M 117.28544616699219 183.09091186523438 L 117.42219217121601 183.09091186523438 L 117.42219217121601 498.9090881347656 L 117.28544616699219 498.9090881347656 L 117.28544616699219 183.09091186523438" fill-opacity="1" clip-path="url(#nxpEFgyunMKv)"/><path fill="rgb(255,188,66)" stroke="none" paint-order="stroke" d="M 117.50398254394531 183.09091186523438 L 117.64967454969883 183.09091186523438 L 117.64967454969883 498.9090881347656 L 117.50398254394531 498.9090881347656 L 117.50398254394531 183.09091186523438" fill-opacity="1" clip-path="url(#nxpEFgyunMKv)"/><path fill="rgb(255,188,66)" stroke="none" paint-order="stroke" d="M 159.30224609375 183.09091186523438 L 159.47349809110165 183.09091186523438 L 159.47349809110165 498.9090881347656 L 159.30224609375 498.9090881347656 L 159.30224609375 183.09091186523438" fill-opacity="1" clip-path="url(#nxpEFgyunMKv)"/><path fill="rgb(255,188,66)" stroke="none" paint-order="stroke" d="M 159.81729125976562 183.09091186523438 L 160.1444592475891 183.09091186523438 L 160.1444592475891 498.9090881347656 L 159.81729125976562 498.9090881347656 L 159.81729125976562 183.09091186523438" fill-opacity="1" clip-path="url(#nxpEFgyunMKv)"/><path fill="rgb(255,188,66)" stroke="none" paint-order="stroke" d="M 181.53689575195312 183.09091186523438 L 181.7043137550354 183.09091186523438 L 181.7043137550354 498.9090881347656 L 181.53689575195312 498.9090881347656 L 181.53689575195312 183.09091186523438" fill-opacity="1" clip-path="url(#nxpEFgyunMKv)"/><path fill="rgb(255,188,66)" stroke="none" paint-order="stroke" d="M 181.89346313476562 183.09091186523438 L 182.46217316389084 183.09091186523438 L 182.46217316389084 498.9090881347656 L 181.89346313476562 498.9090881347656 L 181.89346313476562 183.09091186523438" fill-opacity="1" clip-path="url(#nxpEFgyunMKv)"/><path fill="rgb(255,188,66)" stroke="none" paint-order="stroke" d="M 185.8693084716797 183.09091186523438 L 185.98688447475433 183.09091186523438 L 185.98688447475433 498.9090881347656 L 185.8693084716797 498.9090881347656 L 185.8693084716797 183.09091186523438" fill-opacity="1" clip-path="url(#nxpEFgyunMKv)"/><path fill="rgb(255,188,66)" stroke="none" paint-order="stroke" d="M 186.0968017578125 183.09091186523438 L 186.2437717616558 183.09091186523438 L 186.2437717616558 498.9090881347656 L 186.0968017578125 498.9090881347656 L 186.0968017578125 183.09091186523438" fill-opacity="1" clip-path="url(#nxpEFgyunMKv)"/><path fill="rgb(255,188,66)" stroke="none" paint-order="stroke" d="M 187.28662109375 183.09091186523438 L 187.4514831006527 183.09091186523438 L 187.4514831006527 498.9090881347656 L 187.28662109375 498.9090881347656 L 187.28662109375 183.09091186523438" fill-opacity="1" clip-path="url(#nxpEFgyunMKv)"/><path fill="rgb(255,188,66)" stroke="none" paint-order="stroke" d="M 187.8514862060547 183.09091186523438 L 187.9831202030182 183.09091186523438 L 187.9831202030182 498.9090881347656 L 187.8514862060547 498.9090881347656 L 187.8514862060547 183.09091186523438" fill-opacity="1" clip-path="url(#nxpEFgyunMKv)"/><path fill="rgb(255,188,66)" stroke="none" paint-order="stroke" d="M 188.07386779785156 183.09091186523438 L 188.25150980055332 183.09091186523438 L 188.25150980055332 498.9090881347656 L 188.07386779785156 498.9090881347656 L 188.07386779785156 183.09091186523438" fill-opacity="1" clip-path="url(#nxpEFgyunMKv)"/><path fill="rgb(255,188,66)" stroke="none" paint-order="stroke" d="M 188.4150848388672 183.09091186523438 L 188.98890686035156 183.09091186523438 L 188.98890686035156 498.9090881347656 L 188.4150848388672 498.9090881347656 L 188.4150848388672 183.09091186523438" fill-opacity="1" clip-path="url(#nxpEFgyunMKv)"/><path fill="rgb(255,188,66)" stroke="none" paint-order="stroke" d="M 203.44308471679688 183.09091186523438 L 206.70965266227722 183.09091186523438 L 206.70965266227722 498.9090881347656 L 203.44308471679688 498.9090881347656 L 203.44308471679688 183.09091186523438" fill-opacity="1" clip-path="url(#nxpEFgyunMKv)"/><path fill="rgb(216,17,89)" stroke="none" paint-order="stroke" d="M 133.97996520996094 183.09091186523438 L 134.043865211308 183.09091186523438 L 134.043865211308 498.9090881347656 L 133.97996520996094 498.9090881347656 L 133.97996520996094 183.09091186523438" fill-opacity="1" clip-path="url(#rZhxspTQwXLv)"/><path fill="rgb(216,17,89)" stroke="none" paint-order="stroke" d="M 133.97996520996094 183.09091186523438 L 134.043865211308 183.09091186523438 L 134.043865211308 498.9090881347656 L 133.97996520996094 498.9090881347656 L 133.97996520996094 183.09091186523438" fill-opacity="1" clip-path="url(#rZhxspTQwXLv)"/><path fill="rgb(216,17,89)" stroke="none" paint-order="stroke" d="M 136.23179626464844 183.09091186523438 L 136.2956962659955 183.09091186523438 L 136.2956962659955 498.9090881347656 L 136.23179626464844 498.9090881347656 L 136.23179626464844 183.09091186523438" fill-opacity="1" clip-path="url(#rZhxspTQwXLv)"/><path fill="rgb(216,17,89)" stroke="none" paint-order="stroke" d="M 136.23179626464844 183.09091186523438 L 136.2956962659955 183.09091186523438 L 136.2956962659955 498.9090881347656 L 136.23179626464844 498.9090881347656 L 136.23179626464844 183.09091186523438" fill-opacity="1" clip-path="url(#rZhxspTQwXLv)"/><path fill="rgb(216,17,89)" stroke="none" paint-order="stroke" d="M 199.52346801757812 183.09091186523438 L 199.5873680189252 183.09091186523438 L 199.5873680189252 498.9090881347656 L 199.52346801757812 498.9090881347656 L 199.52346801757812 183.09091186523438" fill-opacity="1" clip-path="url(#rZhxspTQwXLv)"/><path fill="rgb(216,17,89)" stroke="none" paint-order="stroke" d="M 200.58164978027344 183.09091186523438 L 200.6455497816205 183.09091186523438 L 200.6455497816205 498.9090881347656 L 200.58164978027344 498.9090881347656 L 200.58164978027344 183.09091186523438" fill-opacity="1" clip-path="url(#rZhxspTQwXLv)"/><path fill="rgb(33,131,128)" stroke="none" paint-order="stroke" d="M 121.2319107055664 183.09091186523438 L 126.86022281646729 183.09091186523438 L 126.86022281646729 498.9090881347656 L 121.2319107055664 498.9090881347656 L 121.2319107055664 183.09091186523438" fill-opacity="1" clip-path="url(#HnyoWXZCQZEn)"/><path fill="rgb(33,131,128)" stroke="none" paint-order="stroke" d="M 141.83837890625 183.09091186523438 L 142.32401889562607 183.09091186523438 L 142.32401889562607 498.9090881347656 L 141.83837890625 498.9090881347656 L 141.83837890625 183.09091186523438" fill-opacity="1" clip-path="url(#HnyoWXZCQZEn)"/><path fill="rgb(33,131,128)" stroke="none" paint-order="stroke" d="M 165.02896118164062 183.09091186523438 L 166.15487921237946 183.09091186523438 L 166.15487921237946 498.9090881347656 L 165.02896118164062 498.9090881347656 L 165.02896118164062 183.09091186523438" fill-opacity="1" clip-path="url(#HnyoWXZCQZEn)"/><path fill="rgb(33,131,128)" stroke="none" paint-order="stroke" d="M 172.50015258789062 183.09091186523438 L 173.64779663085938 183.09091186523438 L 173.64779663085938 498.9090881347656 L 172.50015258789062 498.9090881347656 L 172.50015258789062 183.09091186523438" fill-opacity="1" clip-path="url(#HnyoWXZCQZEn)"/><path fill="rgb(33,131,128)" stroke="none" paint-order="stroke" d="M 189.9141845703125 183.09091186523438 L 191.04521453380585 183.09091186523438 L 191.04521453380585 498.9090881347656 L 189.9141845703125 498.9090881347656 L 189.9141845703125 183.09091186523438" fill-opacity="1" clip-path="url(#HnyoWXZCQZEn)"/><path fill="rgb(33,131,128)" stroke="none" paint-order="stroke" d="M 192.25804138183594 183.09091186523438 L 196.0268633365631 183.09091186523438 L 196.0268633365631 498.9090881347656 L 192.25804138183594 498.9090881347656 L 192.25804138183594 183.09091186523438" fill-opacity="1" clip-path="url(#HnyoWXZCQZEn)"/><path fill="rgb(33,131,128)" stroke="none" paint-order="stroke" d="M 213.1546173095703 183.09091186523438 L 214.15273529291153 183.09091186523438 L 214.15273529291153 498.9090881347656 L 213.1546173095703 498.9090881347656 L 213.1546173095703 183.09091186523438" fill-opacity="1" clip-path="url(#HnyoWXZCQZEn)"/><path fill="rgb(33,131,128)" stroke="none" paint-order="stroke" d="M 215.35787963867188 183.09091186523438 L 216.60265159606934 183.09091186523438 L 216.60265159606934 498.9090881347656 L 215.35787963867188 498.9090881347656 L 215.35787963867188 183.09091186523438" fill-opacity="1" clip-path="url(#HnyoWXZCQZEn)"/><path fill="rgb(33,131,128)" stroke="none" paint-order="stroke" d="M 217.74391174316406 183.09091186523438 L 221.66481566429138 183.09091186523438 L 221.66481566429138 498.9090881347656 L 217.74391174316406 498.9090881347656 L 217.74391174316406 183.09091186523438" fill-opacity="1" clip-path="url(#HnyoWXZCQZEn)"/><path fill="rgb(33,131,128)" stroke="none" paint-order="stroke" d="M 246.6829376220703 183.09091186523438 L 246.74683762341738 183.09091186523438 L 246.74683762341738 498.9090881347656 L 246.6829376220703 498.9090881347656 L 246.6829376220703 183.09091186523438" fill-opacity="1" clip-path="url(#HnyoWXZCQZEn)"/><path fill="rgb(33,131,128)" stroke="none" paint-order="stroke" d="M 258.28973388671875 183.09091186523438 L 259.31980192661285 183.09091186523438 L 259.31980192661285 498.9090881347656 L 258.28973388671875 498.9090881347656 L 258.28973388671875 183.09091186523438" fill-opacity="1" clip-path="url(#HnyoWXZCQZEn)"/><path fill="rgb(33,131,128)" stroke="none" paint-order="stroke" d="M 272.8627624511719 183.09091186523438 L 273.95800840854645 183.09091186523438 L 273.95800840854645 498.9090881347656 L 272.8627624511719 498.9090881347656 L 272.8627624511719 183.09091186523438" fill-opacity="1" clip-path="url(#HnyoWXZCQZEn)"/><path fill="rgb(115,210,222)" stroke="none" paint-order="stroke" d="M 143.1496124267578 183.09091186523438 L 143.21351242810488 183.09091186523438 L 143.21351242810488 498.9090881347656 L 143.1496124267578 498.9090881347656 L 143.1496124267578 183.09091186523438" fill-opacity="1" clip-path="url(#qTbfzPoIbWbr)"/><path fill="rgb(115,210,222)" stroke="none" paint-order="stroke" d="M 143.1496124267578 183.09091186523438 L 143.21351242810488 183.09091186523438 L 143.21351242810488 498.9090881347656 L 143.1496124267578 498.9090881347656 L 143.1496124267578 183.09091186523438" fill-opacity="1" clip-path="url(#qTbfzPoIbWbr)"/><path fill="rgb(115,210,222)" stroke="none" paint-order="stroke" d="M 143.67486572265625 183.09091186523438 L 143.73876572400331 183.09091186523438 L 143.73876572400331 498.9090881347656 L 143.67486572265625 498.9090881347656 L 143.67486572265625 183.09091186523438" fill-opacity="1" clip-path="url(#qTbfzPoIbWbr)"/><path fill="rgb(115,210,222)" stroke="none" paint-order="stroke" d="M 143.67486572265625 183.09091186523438 L 143.73876572400331 183.09091186523438 L 143.73876572400331 498.9090881347656 L 143.67486572265625 498.9090881347656 L 143.67486572265625 183.09091186523438" fill-opacity="1" clip-path="url(#qTbfzPoIbWbr)"/><path fill="rgb(115,210,222)" stroke="none" paint-order="stroke" d="M 144.27169799804688 183.09091186523438 L 144.33559799939394 183.09091186523438 L 144.33559799939394 498.9090881347656 L 144.27169799804688 498.9090881347656 L 144.27169799804688 183.09091186523438" fill-opacity="1" clip-path="url(#qTbfzPoIbWbr)"/><path fill="rgb(115,210,222)" stroke="none" paint-order="stroke" d="M 144.27169799804688 183.09091186523438 L 144.33559799939394 183.09091186523438 L 144.33559799939394 498.9090881347656 L 144.27169799804688 498.9090881347656 L 144.27169799804688 183.09091186523438" fill-opacity="1" clip-path="url(#qTbfzPoIbWbr)"/><path fill="rgb(115,210,222)" stroke="none" paint-order="stroke" d="M 144.3994903564453 183.09091186523438 L 144.46339035779238 183.09091186523438 L 144.46339035779238 498.9090881347656 L 144.3994903564453 498.9090881347656 L 144.3994903564453 183.09091186523438" fill-opacity="1" clip-path="url(#qTbfzPoIbWbr)"/><path fill="rgb(115,210,222)" stroke="none" paint-order="stroke" d="M 144.3994903564453 183.09091186523438 L 144.46339035779238 183.09091186523438 L 144.46339035779238 498.9090881347656 L 144.3994903564453 498.9090881347656 L 144.3994903564453 183.09091186523438" fill-opacity="1" clip-path="url(#qTbfzPoIbWbr)"/><path fill="rgb(115,210,222)" stroke="none" paint-order="stroke" d="M 144.72921752929688 183.09091186523438 L 144.79311753064394 183.09091186523438 L 144.79311753064394 498.9090881347656 L 144.72921752929688 498.9090881347656 L 144.72921752929688 183.09091186523438" fill-opacity="1" clip-path="url(#qTbfzPoIbWbr)"/><path fill="rgb(115,210,222)" stroke="none" paint-order="stroke" d="M 144.72921752929688 183.09091186523438 L 144.79311753064394 183.09091186523438 L 144.79311753064394 498.9090881347656 L 144.72921752929688 498.9090881347656 L 144.72921752929688 183.09091186523438" fill-opacity="1" clip-path="url(#qTbfzPoIbWbr)"/><path fill="rgb(115,210,222)" stroke="none" paint-order="stroke" d="M 145.0167694091797 183.09091186523438 L 145.08066941052675 183.09091186523438 L 145.08066941052675 498.9090881347656 L 145.0167694091797 498.9090881347656 L 145.0167694091797 183.09091186523438" fill-opacity="1" clip-path="url(#qTbfzPoIbWbr)"/><path fill="rgb(115,210,222)" stroke="none" paint-order="stroke" d="M 145.0167694091797 183.09091186523438 L 145.08066941052675 183.09091186523438 L 145.08066941052675 498.9090881347656 L 145.0167694091797 498.9090881347656 L 145.0167694091797 183.09091186523438" fill-opacity="1" clip-path="url(#qTbfzPoIbWbr)"/><path fill="rgb(115,210,222)" stroke="none" paint-order="stroke" d="M 145.26341247558594 183.09091186523438 L 145.327312476933 183.09091186523438 L 145.327312476933 498.9090881347656 L 145.26341247558594 498.9090881347656 L 145.26341247558594 183.09091186523438" fill-opacity="1" clip-path="url(#qTbfzPoIbWbr)"/><path fill="rgb(115,210,222)" stroke="none" paint-order="stroke" d="M 145.26341247558594 183.09091186523438 L 145.327312476933 183.09091186523438 L 145.327312476933 498.9090881347656 L 145.26341247558594 498.9090881347656 L 145.26341247558594 183.09091186523438" fill-opacity="1" clip-path="url(#qTbfzPoIbWbr)"/><path fill="rgb(115,210,222)" stroke="none" paint-order="stroke" d="M 145.52029418945312 183.09091186523438 L 145.5841941908002 183.09091186523438 L 145.5841941908002 498.9090881347656 L 145.52029418945312 498.9090881347656 L 145.52029418945312 183.09091186523438" fill-opacity="1" clip-path="url(#qTbfzPoIbWbr)"/><path fill="rgb(115,210,222)" stroke="none" paint-order="stroke" d="M 145.52029418945312 183.09091186523438 L 145.5841941908002 183.09091186523438 L 145.5841941908002 498.9090881347656 L 145.52029418945312 498.9090881347656 L 145.52029418945312 183.09091186523438" fill-opacity="1" clip-path="url(#qTbfzPoIbWbr)"/><path fill="rgb(115,210,222)" stroke="none" paint-order="stroke" d="M 145.7873992919922 183.09091186523438 L 145.85129929333925 183.09091186523438 L 145.85129929333925 498.9090881347656 L 145.7873992919922 498.9090881347656 L 145.7873992919922 183.09091186523438" fill-opacity="1" clip-path="url(#qTbfzPoIbWbr)"/><path fill="rgb(115,210,222)" stroke="none" paint-order="stroke" d="M 145.7873992919922 183.09091186523438 L 145.85129929333925 183.09091186523438 L 145.85129929333925 498.9090881347656 L 145.7873992919922 498.9090881347656 L 145.7873992919922 183.09091186523438" fill-opacity="1" clip-path="url(#qTbfzPoIbWbr)"/><path fill="rgb(115,210,222)" stroke="none" paint-order="stroke" d="M 146.0059356689453 183.09091186523438 L 146.06983567029238 183.09091186523438 L 146.06983567029238 498.9090881347656 L 146.0059356689453 498.9090881347656 L 146.0059356689453 183.09091186523438" fill-opacity="1" clip-path="url(#qTbfzPoIbWbr)"/><path fill="rgb(115,210,222)" stroke="none" paint-order="stroke" d="M 146.0059356689453 183.09091186523438 L 146.06983567029238 183.09091186523438 L 146.06983567029238 498.9090881347656 L 146.0059356689453 498.9090881347656 L 146.0059356689453 183.09091186523438" fill-opacity="1" clip-path="url(#qTbfzPoIbWbr)"/><path fill="rgb(115,210,222)" stroke="none" paint-order="stroke" d="M 146.85452270507812 183.09091186523438 L 147.93059873580933 183.09091186523438 L 147.93059873580933 498.9090881347656 L 146.85452270507812 498.9090881347656 L 146.85452270507812 183.09091186523438" fill-opacity="1" clip-path="url(#qTbfzPoIbWbr)"/><path fill="rgb(115,210,222)" stroke="none" paint-order="stroke" d="M 148.40602111816406 183.09091186523438 L 151.26874113082886 183.09091186523438 L 151.26874113082886 498.9090881347656 L 148.40602111816406 498.9090881347656 L 148.40602111816406 183.09091186523438" fill-opacity="1" clip-path="url(#qTbfzPoIbWbr)"/><path fill="rgb(115,210,222)" stroke="none" paint-order="stroke" d="M 260.2757568359375 183.09091186523438 L 272.28384494781494 183.09091186523438 L 272.28384494781494 498.9090881347656 L 260.2757568359375 498.9090881347656 L 260.2757568359375 183.09091186523438" fill-opacity="1" clip-path="url(#qTbfzPoIbWbr)"/><path fill="rgb(28,49,68)" stroke="none" paint-order="stroke" d="M 153.32760620117188 183.09091186523438 L 154.18897819519043 183.09091186523438 L 154.18897819519043 498.9090881347656 L 153.32760620117188 498.9090881347656 L 153.32760620117188 183.09091186523438" fill-opacity="1" clip-path="url(#FMDbITyunRoR)"/><path fill="rgb(28,49,68)" stroke="none" paint-order="stroke" d="M 160.973876953125 183.09091186523438 L 164.10114288330078 183.09091186523438 L 164.10114288330078 498.9090881347656 L 160.973876953125 498.9090881347656 L 160.973876953125 183.09091186523438" fill-opacity="1" clip-path="url(#FMDbITyunRoR)"/><path fill="rgb(28,49,68)" stroke="none" paint-order="stroke" d="M 178.57192993164062 183.09091186523438 L 180.8633840084076 183.09091186523438 L 180.8633840084076 498.9090881347656 L 178.57192993164062 498.9090881347656 L 178.57192993164062 183.09091186523438" fill-opacity="1" clip-path="url(#FMDbITyunRoR)"/><path fill="rgb(239,185,203)" stroke="none" paint-order="stroke" d="M 67.54440307617188 183.09091186523438 L 111.48076629638672 183.09091186523438 L 111.48076629638672 498.9090881347656 L 67.54440307617188 498.9090881347656 L 67.54440307617188 183.09091186523438" fill-opacity="1" clip-path="url(#dMdIVtRVuWaE)"/><path fill="rgb(239,185,203)" stroke="none" paint-order="stroke" d="M 232.9137725830078 183.09091186523438 L 243.3384189605713 183.09091186523438 L 243.3384189605713 498.9090881347656 L 232.9137725830078 498.9090881347656 L 232.9137725830078 183.09091186523438" fill-opacity="1" clip-path="url(#dMdIVtRVuWaE)"/><path fill="rgb(255,188,66)" stroke="none" paint-order="stroke" d="M 176.46707153320312 498.9090881347656 L 246.68294525146484 498.9090881347656 L 246.68294525146484 551.5454521179199 L 176.46707153320312 551.5454521179199 L 176.46707153320312 498.9090881347656" fill-opacity="1" clip-path="url(#SDpqhSfonSrC)"/><path fill="rgb(255,188,66)" stroke="none" paint-order="stroke" d="M 252.35470581054688 498.9090881347656 L 273.95801734924316 498.9090881347656 L 273.95801734924316 551.5454521179199 L 252.35470581054688 551.5454521179199 L 252.35470581054688 498.9090881347656" fill-opacity="1" clip-path="url(#SDpqhSfonSrC)"/><path fill="rgb(143,45,86)" stroke="none" paint-order="stroke" d="M 58.5 551.5454711914062 L 203.76515197753906 551.5454711914062 L 203.76515197753906 604.1818351745605 L 58.5 604.1818351745605 L 58.5 551.5454711914062" fill-opacity="1" clip-path="url(#robxywpUlGdh)"/><path fill="rgb(63,136,197)" stroke="none" paint-order="stroke" d="M 203.76515197753906 551.5454711914062 L 203.83032997697592 551.5454711914062 L 203.83032997697592 604.1818351745605 L 203.76515197753906 604.1818351745605 L 203.76515197753906 551.5454711914062" fill-opacity="1" clip-path="url(#robxywpUlGdh)"/><path fill="rgb(143,45,86)" stroke="none" paint-order="stroke" d="M 203.830322265625 551.5454711914062 L 204.27890026569366 551.5454711914062 L 204.27890026569366 604.1818351745605 L 203.830322265625 604.1818351745605 L 203.830322265625 551.5454711914062" fill-opacity="1" clip-path="url(#robxywpUlGdh)"/><path fill="rgb(63,136,197)" stroke="none" paint-order="stroke" d="M 204.27890014648438 551.5454711914062 L 208.80429792404175 551.5454711914062 L 208.80429792404175 604.1818351745605 L 204.27890014648438 604.1818351745605 L 204.27890014648438 551.5454711914062" fill-opacity="1" clip-path="url(#robxywpUlGdh)"/><path fill="rgb(81,60,99)" stroke="none" paint-order="stroke" d="M 208.80430603027344 551.5454711914062 L 209.7998680472374 551.5454711914062 L 209.7998680472374 604.1818351745605 L 208.80430603027344 604.1818351745605 L 208.80430603027344 551.5454711914062" fill-opacity="1" clip-path="url(#robxywpUlGdh)"/><path fill="rgb(63,136,197)" stroke="none" paint-order="stroke" d="M 209.79986572265625 551.5454711914062 L 246.68294525146484 551.5454711914062 L 246.68294525146484 604.1818351745605 L 209.79986572265625 604.1818351745605 L 209.79986572265625 551.5454711914062" fill-opacity="1" clip-path="url(#robxywpUlGdh)"/><path fill="rgb(143,45,86)" stroke="none" paint-order="stroke" d="M 246.6829376220703 551.5454711914062 L 253.99693155288696 551.5454711914062 L 253.99693155288696 604.1818351745605 L 246.6829376220703 604.1818351745605 L 246.6829376220703 551.5454711914062" fill-opacity="1" clip-path="url(#robxywpUlGdh)"/><path fill="rgb(63,136,197)" stroke="none" paint-order="stroke" d="M 253.99693298339844 551.5454711914062 L 273.95801544189453 551.5454711914062 L 273.95801544189453 604.1818351745605 L 253.99693298339844 604.1818351745605 L 253.99693298339844 551.5454711914062" fill-opacity="1" clip-path="url(#robxywpUlGdh)"/><path fill="none" stroke="rgb(0,0,0)" paint-order="fill" d="M 58.5 77.81818389892578 L 273.95802307128906 77.81818389892578 L 273.95802307128906 604.1818313598633 L 58.5 604.1818313598633 L 58.5 77.81818389892578" stroke-opacity="1" stroke-linejoin="bevel" stroke-miterlimit="10" stroke-dasharray="" clip-path="url(#ZsEppTDUZTZO)"/><path fill="none" stroke="rgb(0,0,0)" paint-order="fill" d="M 58.5 630.5 L 1336.5 630.5" stroke-opacity="1" stroke-linejoin="bevel" stroke-miterlimit="10" stroke-dasharray=""/><path fill="none" stroke="rgb(0,0,0)" paint-order="fill" d="M 58.5 636.5 L 58.5 628.5 M 314.5 636.5 L 314.5 628.5 M 569.5 636.5 L 569.5 628.5 M 825.5 636.5 L 825.5 628.5 M 1080.5 636.5 L 1080.5 628.5 M 1336.5 636.5 L 1336.5 628.5" stroke-opacity="1" stroke-linejoin="bevel" stroke-miterlimit="10" stroke-dasharray=""/><path fill="none" stroke="rgb(0,0,0)" paint-order="fill" d="M 58.5 634.5 L 58.5 630.5 M 109.5 634.5 L 109.5 630.5 M 160.5 634.5 L 160.5 630.5 M 211.5 634.5 L 211.5 630.5 M 262.5 634.5 L 262.5 630.5 M 314.5 634.5 L 314.5 630.5 M 365.5 634.5 L 365.5 630.5 M 416.5 634.5 L 416.5 630.5 M 467.5 634.5 L 467.5 630.5 M 518.5 634.5 L 518.5 630.5 M 569.5 634.5 L 569.5 630.5 M 620.5 634.5 L 620.5 630.5 M 671.5 634.5 L 671.5 630.5 M 723.5 634.5 L 723.5 630.5 M 774.5 634.5 L 774.5 630.5 M 825.5 634.5 L 825.5 630.5 M 876.5 634.5 L 876.5 630.5 M 927.5 634.5 L 927.5 630.5 M 978.5 634.5 L 978.5 630.5 M 1029.5 634.5 L 1029.5 630.5 M 1080.5 634.5 L 1080.5 630.5 M 1132.5 634.5 L 1132.5 630.5 M 1183.5 634.5 L 1183.5 630.5 M 1234.5 634.5 L 1234.5 630.5 M 1285.5 634.5 L 1285.5 630.5 M 1336.5 634.5 L 1336.5 630.5" stroke-opacity="1" stroke-linejoin="bevel" stroke-miterlimit="10" stroke-dasharray=""/><text fill="rgb(68,68,68)" stroke="none" font-family="helvetica" font-size="11px" font-style="normal" font-weight="normal" text-decoration="normal" x="54.94166660308838" y="648.89013671875" text-anchor="start" dominant-baseline="alphabetic" transform="matrix(1, 0, 0, 1, 0.5, 0.5)" fill-opacity="1">0</text><text fill="rgb(68,68,68)" stroke="none" font-family="helvetica" font-size="11px" font-style="normal" font-weight="normal" text-decoration="normal" x="304.42500591278076" y="648.89013671875" text-anchor="start" dominant-baseline="alphabetic" transform="matrix(1, 0, 0, 1, 0.5, 0.5)" fill-opacity="1">200</text><text fill="rgb(68,68,68)" stroke="none" font-family="helvetica" font-size="11px" font-style="normal" font-weight="normal" text-decoration="normal" x="560.0250120162964" y="648.89013671875" text-anchor="start" dominant-baseline="alphabetic" transform="matrix(1, 0, 0, 1, 0.5, 0.5)" fill-opacity="1">400</text><text fill="rgb(68,68,68)" stroke="none" font-family="helvetica" font-size="11px" font-style="normal" font-weight="normal" text-decoration="normal" x="815.6249876022339" y="648.89013671875" text-anchor="start" dominant-baseline="alphabetic" transform="matrix(1, 0, 0, 1, 0.5, 0.5)" fill-opacity="1">600</text><text fill="rgb(68,68,68)" stroke="none" font-family="helvetica" font-size="11px" font-style="normal" font-weight="normal" text-decoration="normal" x="1071.2250242233276" y="648.89013671875" text-anchor="start" dominant-baseline="alphabetic" transform="matrix(1, 0, 0, 1, 0.5, 0.5)" fill-opacity="1">800</text><text fill="rgb(68,68,68)" stroke="none" font-family="helvetica" font-size="11px" font-style="normal" font-weight="normal" text-decoration="normal" x="1323.7666664123535" y="648.89013671875" text-anchor="start" dominant-baseline="alphabetic" transform="matrix(1, 0, 0, 1, 0.5, 0.5)" fill-opacity="1">1000</text><text fill="rgb(68,68,68)" stroke="none" font-family="helvetica" font-size="15pt" font-style="italic" font-weight="normal" text-decoration="normal" x="666.4416675567627" y="676.06982421875" text-anchor="start" dominant-baseline="alphabetic" transform="matrix(1, 0, 0, 1, 0.5, 0.5)" fill-opacity="1">time(s)</text><path fill="none" stroke="rgb(0,0,0)" paint-order="fill" d="M 58.5 630.5 L 58.5 51.5" stroke-opacity="1" stroke-linejoin="bevel" stroke-miterlimit="10" stroke-dasharray=""/><path fill="none" stroke="rgb(0,0,0)" paint-order="fill" d="M 52.5 551.5 L 60.5 551.5 M 52.5 446.5 L 60.5 446.5 M 52.5 341.5 L 60.5 341.5 M 52.5 235.5 L 60.5 235.5 M 52.5 130.5 L 60.5 130.5" stroke-opacity="1" stroke-linejoin="bevel" stroke-miterlimit="10" stroke-dasharray=""/><path fill="none" stroke="rgb(0,0,0)" paint-order="fill" d="M 54.5 572.5 L 58.5 572.5 M 54.5 593.5 L 58.5 593.5 M 54.5 614.5 L 58.5 614.5 M 54.5 551.5 L 58.5 551.5 M 54.5 530.5 L 58.5 530.5 M 54.5 509.5 L 58.5 509.5 M 54.5 488.5 L 58.5 488.5 M 54.5 467.5 L 58.5 467.5 M 54.5 446.5 L 58.5 446.5 M 54.5 425.5 L 58.5 425.5 M 54.5 404.5 L 58.5 404.5 M 54.5 383.5 L 58.5 383.5 M 54.5 362.5 L 58.5 362.5 M 54.5 341.5 L 58.5 341.5 M 54.5 319.5 L 58.5 319.5 M 54.5 298.5 L 58.5 298.5 M 54.5 277.5 L 58.5 277.5 M 54.5 256.5 L 58.5 256.5 M 54.5 235.5 L 58.5 235.5 M 54.5 214.5 L 58.5 214.5 M 54.5 193.5 L 58.5 193.5 M 54.5 172.5 L 58.5 172.5 M 54.5 151.5 L 58.5 151.5 M 54.5 130.5 L 58.5 130.5 M 54.5 109.5 L 58.5 109.5 M 54.5 88.5 L 58.5 88.5 M 54.5 67.5 L 58.5 67.5" stroke-opacity="1" stroke-linejoin="bevel" stroke-miterlimit="10" stroke-dasharray=""/><text fill="rgb(68,68,68)" stroke="none" font-family="helvetica" font-size="11px" font-style="normal" font-weight="normal" text-decoration="normal" x="34.46666622161865" y="554.9905395507812" text-anchor="start" dominant-baseline="alphabetic" transform="matrix(1, 0, 0, 1, 0.5, 0.5)" fill-opacity="1">−2</text><text fill="rgb(68,68,68)" stroke="none" font-family="helvetica" font-size="11px" font-style="normal" font-weight="normal" text-decoration="normal" x="34.46666622161865" y="449.7178039550781" text-anchor="start" dominant-baseline="alphabetic" transform="matrix(1, 0, 0, 1, 0.5, 0.5)" fill-opacity="1">−1</text><text fill="rgb(68,68,68)" stroke="none" font-family="helvetica" font-size="11px" font-style="normal" font-weight="normal" text-decoration="normal" x="40.88333320617676" y="344.445068359375" text-anchor="start" dominant-baseline="alphabetic" transform="matrix(1, 0, 0, 1, 0.5, 0.5)" fill-opacity="1">0</text><text fill="rgb(68,68,68)" stroke="none" font-family="helvetica" font-size="11px" font-style="normal" font-weight="normal" text-decoration="normal" x="40.88333320617676" y="239.17234802246094" text-anchor="start" dominant-baseline="alphabetic" transform="matrix(1, 0, 0, 1, 0.5, 0.5)" fill-opacity="1">1</text><text fill="rgb(68,68,68)" stroke="none" font-family="helvetica" font-size="11px" font-style="normal" font-weight="normal" text-decoration="normal" x="40.88333320617676" y="133.8996124267578" text-anchor="start" dominant-baseline="alphabetic" transform="matrix(1, 0, 0, 1, 0.5, 0.5)" fill-opacity="1">2</text><text fill="rgb(68,68,68)" stroke="none" font-family="helvetica" font-size="15pt" font-style="italic" font-weight="normal" text-decoration="normal" x="-11.316666603088379" y="336.076171875" text-anchor="start" dominant-baseline="alphabetic" transform="matrix(6.123233995736766e-17, -1, 1, 6.123233995736766e-17, -313.53333377838135, 367.46666622161865)" fill-opacity="1">students</text><path fill="rgb(255,255,255)" stroke="rgb(229,229,229)" paint-order="fill" d="M 1128.2333374023438 61.5 L 1326.5 61.5 L 1326.5 400.5 L 1128.2333374023438 400.5 L 1128.2333374023438 61.5" fill-opacity="0.9490196078431372" clip-path="url(#krkfxmhUFoWa)" stroke-opacity="0.5019607843137255" stroke-linejoin="bevel" stroke-miterlimit="10" stroke-dasharray=""/><text fill="rgb(68,68,68)" stroke="none" font-family="helvetica" font-size="13px" font-style="normal" font-weight="normal" text-decoration="normal" x="1162.7333374023438" y="81" text-anchor="start" dominant-baseline="central" clip-path="url(#krkfxmhUFoWa)" transform="matrix(1, 0, 0, 1, 0.5, 0.5)" fill-opacity="1">wavelength</text><path fill="rgb(0,255,40)" stroke="none" paint-order="stroke" d="M 1140.2333374023438 73.5 L 1156.2333374023438 73.5 L 1156.2333374023438 89.5 L 1140.2333374023438 89.5 L 1140.2333374023438 73.5" fill-opacity="1" clip-path="url(#krkfxmhUFoWa)"/><path fill="rgb(216,17,89)" stroke="none" paint-order="stroke" d="M 1140.2333374023438 73.5 L 1156.2333374023438 73.5 L 1156.2333374023438 89.5 L 1140.2333374023438 89.5 L 1140.2333374023438 73.5" fill-opacity="1" clip-path="url(#krkfxmhUFoWa)"/><text fill="rgb(68,68,68)" stroke="none" font-family="helvetica" font-size="13px" font-style="normal" font-weight="normal" text-decoration="normal" x="1162.7333374023438" y="104" text-anchor="start" dominant-baseline="central" clip-path="url(#krkfxmhUFoWa)" transform="matrix(1, 0, 0, 1, 0.5, 0.5)" fill-opacity="1">solution</text><path fill="rgb(251,0,7)" stroke="none" paint-order="stroke" d="M 1140.2333374023438 96.5 L 1156.2333374023438 96.5 L 1156.2333374023438 112.5 L 1140.2333374023438 112.5 L 1140.2333374023438 96.5" fill-opacity="1" clip-path="url(#krkfxmhUFoWa)"/><path fill="rgb(33,131,128)" stroke="none" paint-order="stroke" d="M 1140.2333374023438 96.5 L 1156.2333374023438 96.5 L 1156.2333374023438 112.5 L 1140.2333374023438 112.5 L 1140.2333374023438 96.5" fill-opacity="1" clip-path="url(#krkfxmhUFoWa)"/><text fill="rgb(68,68,68)" stroke="none" font-family="helvetica" font-size="13px" font-style="normal" font-weight="normal" text-decoration="normal" x="1162.7333374023438" y="127" text-anchor="start" dominant-baseline="central" clip-path="url(#krkfxmhUFoWa)" transform="matrix(1, 0, 0, 1, 0.5, 0.5)" fill-opacity="1">laser</text><path fill="rgb(105,29,48)" stroke="none" paint-order="stroke" d="M 1140.2333374023438 119.5 L 1156.2333374023438 119.5 L 1156.2333374023438 135.5 L 1140.2333374023438 135.5 L 1140.2333374023438 119.5" fill-opacity="1" clip-path="url(#krkfxmhUFoWa)"/><text fill="rgb(68,68,68)" stroke="none" font-family="helvetica" font-size="13px" font-style="normal" font-weight="normal" text-decoration="normal" x="1162.7333374023438" y="150" text-anchor="start" dominant-baseline="central" clip-path="url(#krkfxmhUFoWa)" transform="matrix(1, 0, 0, 1, 0.5, 0.5)" fill-opacity="1">ruler</text><path fill="rgb(255,188,66)" stroke="none" paint-order="stroke" d="M 1140.2333374023438 142.5 L 1156.2333374023438 142.5 L 1156.2333374023438 158.5 L 1140.2333374023438 158.5 L 1140.2333374023438 142.5" fill-opacity="1" clip-path="url(#krkfxmhUFoWa)"/><text fill="rgb(68,68,68)" stroke="none" font-family="helvetica" font-size="13px" font-style="normal" font-weight="normal" text-decoration="normal" x="1162.7333374023438" y="173" text-anchor="start" dominant-baseline="central" clip-path="url(#krkfxmhUFoWa)" transform="matrix(1, 0, 0, 1, 0.5, 0.5)" fill-opacity="1">restarts</text><path fill="rgb(162,174,187)" stroke="none" paint-order="stroke" d="M 1140.2333374023438 165.5 L 1156.2333374023438 165.5 L 1156.2333374023438 181.5 L 1140.2333374023438 181.5 L 1140.2333374023438 165.5" fill-opacity="1" clip-path="url(#krkfxmhUFoWa)"/><text fill="rgb(68,68,68)" stroke="none" font-family="helvetica" font-size="13px" font-style="normal" font-weight="normal" text-decoration="normal" x="1162.7333374023438" y="196" text-anchor="start" dominant-baseline="central" clip-path="url(#krkfxmhUFoWa)" transform="matrix(1, 0, 0, 1, 0.5, 0.5)" fill-opacity="1">transmittance_absorbance</text><path fill="rgb(162,174,187)" stroke="none" paint-order="stroke" d="M 1140.2333374023438 188.5 L 1156.2333374023438 188.5 L 1156.2333374023438 204.5 L 1140.2333374023438 204.5 L 1140.2333374023438 188.5" fill-opacity="1" clip-path="url(#krkfxmhUFoWa)"/><text fill="rgb(68,68,68)" stroke="none" font-family="helvetica" font-size="13px" font-style="normal" font-weight="normal" text-decoration="normal" x="1162.7333374023438" y="219" text-anchor="start" dominant-baseline="central" clip-path="url(#krkfxmhUFoWa)" transform="matrix(1, 0, 0, 1, 0.5, 0.5)" fill-opacity="1">magnifier</text><path fill="rgb(255,188,66)" stroke="none" paint-order="stroke" d="M 1140.2333374023438 211.5 L 1156.2333374023438 211.5 L 1156.2333374023438 227.5 L 1140.2333374023438 227.5 L 1140.2333374023438 211.5" fill-opacity="1" clip-path="url(#krkfxmhUFoWa)"/><text fill="rgb(68,68,68)" stroke="none" font-family="helvetica" font-size="13px" font-style="normal" font-weight="normal" text-decoration="normal" x="1162.7333374023438" y="242" text-anchor="start" dominant-baseline="central" clip-path="url(#krkfxmhUFoWa)" transform="matrix(1, 0, 0, 1, 0.5, 0.5)" fill-opacity="1">concentration</text><path fill="rgb(115,210,222)" stroke="none" paint-order="stroke" d="M 1140.2333374023438 234.5 L 1156.2333374023438 234.5 L 1156.2333374023438 250.5 L 1140.2333374023438 250.5 L 1140.2333374023438 234.5" fill-opacity="1" clip-path="url(#krkfxmhUFoWa)"/><text fill="rgb(68,68,68)" stroke="none" font-family="helvetica" font-size="13px" font-style="normal" font-weight="normal" text-decoration="normal" x="1162.7333374023438" y="265" text-anchor="start" dominant-baseline="central" clip-path="url(#krkfxmhUFoWa)" transform="matrix(1, 0, 0, 1, 0.5, 0.5)" fill-opacity="1">flask</text><path fill="rgb(28,49,68)" stroke="none" paint-order="stroke" d="M 1140.2333374023438 257.5 L 1156.2333374023438 257.5 L 1156.2333374023438 273.5 L 1140.2333374023438 273.5 L 1140.2333374023438 257.5" fill-opacity="1" clip-path="url(#krkfxmhUFoWa)"/><text fill="rgb(68,68,68)" stroke="none" font-family="helvetica" font-size="13px" font-style="normal" font-weight="normal" text-decoration="normal" x="1162.7333374023438" y="288" text-anchor="start" dominant-baseline="central" clip-path="url(#krkfxmhUFoWa)" transform="matrix(1, 0, 0, 1, 0.5, 0.5)" fill-opacity="1">pdf</text><path fill="rgb(239,185,203)" stroke="none" paint-order="stroke" d="M 1140.2333374023438 280.5 L 1156.2333374023438 280.5 L 1156.2333374023438 296.5 L 1140.2333374023438 296.5 L 1140.2333374023438 280.5" fill-opacity="1" clip-path="url(#krkfxmhUFoWa)"/><text fill="rgb(68,68,68)" stroke="none" font-family="helvetica" font-size="13px" font-style="normal" font-weight="normal" text-decoration="normal" x="1162.7333374023438" y="311" text-anchor="start" dominant-baseline="central" clip-path="url(#krkfxmhUFoWa)" transform="matrix(1, 0, 0, 1, 0.5, 0.5)" fill-opacity="1">concentrationlab</text><text fill="rgb(68,68,68)" stroke="none" font-family="helvetica" font-size="13px" font-style="normal" font-weight="normal" text-decoration="normal" x="1162.7333374023438" y="334" text-anchor="start" dominant-baseline="central" clip-path="url(#krkfxmhUFoWa)" transform="matrix(1, 0, 0, 1, 0.5, 0.5)" fill-opacity="1">wavelength_slider</text><text fill="rgb(68,68,68)" stroke="none" font-family="helvetica" font-size="13px" font-style="normal" font-weight="normal" text-decoration="normal" x="1162.7333374023438" y="357" text-anchor="start" dominant-baseline="central" clip-path="url(#krkfxmhUFoWa)" transform="matrix(1, 0, 0, 1, 0.5, 0.5)" fill-opacity="1">ruler measuring</text><path fill="rgb(255,188,66)" stroke="none" paint-order="stroke" d="M 1140.2333374023438 349.5 L 1156.2333374023438 349.5 L 1156.2333374023438 365.5 L 1140.2333374023438 365.5 L 1140.2333374023438 349.5" fill-opacity="1" clip-path="url(#krkfxmhUFoWa)"/><text fill="rgb(68,68,68)" stroke="none" font-family="helvetica" font-size="13px" font-style="normal" font-weight="normal" text-decoration="normal" x="1162.7333374023438" y="380" text-anchor="start" dominant-baseline="central" clip-path="url(#krkfxmhUFoWa)" transform="matrix(1, 0, 0, 1, 0.5, 0.5)" fill-opacity="1">dependent variable</text><path fill="rgb(143,45,86)" stroke="none" paint-order="stroke" d="M 1140.2333374023438 372.5 L 1156.2333374023438 372.5 L 1156.2333374023438 388.5 L 1140.2333374023438 388.5 L 1140.2333374023438 372.5" fill-opacity="1" clip-path="url(#krkfxmhUFoWa)"/><text fill="rgb(68,68,68)" stroke="none" font-family="helvetica" font-size="25pt" font-style="normal" font-weight="bold" text-decoration="normal" x="58" y="38.740885416666664" text-anchor="start" dominant-baseline="alphabetic" transform="matrix(1, 0, 0, 1, 0.5, 0.5)" fill-opacity="1">Timeline for student 4rxkb9bc with permutation missing for task 1</text></svg>